<?xml version="1.0" encoding="UTF-8"?>
<!DOCTYPE svg PUBLIC "-//W3C//DTD SVG 1.1//EN" "http://www.w3.org/Graphics/SVG/1.1/DTD/svg11.dtd">
<!-- Creator: CorelDRAW 2020 (64-Bit) -->
<svg xmlns="http://www.w3.org/2000/svg" xml:space="preserve" width="2556px" height="940px" version="1.1" style="shape-rendering:geometricPrecision; text-rendering:geometricPrecision; image-rendering:optimizeQuality; fill-rule:evenodd; clip-rule:evenodd"
viewBox="0 0 724.25 266.46"
 xmlns:xlink="http://www.w3.org/1999/xlink"
 xmlns:xodm="http://www.corel.com/coreldraw/odm/2003">
 <defs>
  <style type="text/css">
   <![CDATA[
    .str0 {stroke:white;stroke-width:4.72;stroke-miterlimit:22.9256}
    .fil3 {fill:none;fill-rule:nonzero}
    .fil7 {fill:#16B8FD;fill-rule:nonzero}
    .fil0 {fill:#4A6CF9;fill-rule:nonzero}
    .fil9 {fill:#6641A9;fill-rule:nonzero}
    .fil2 {fill:#925EF2;fill-rule:nonzero}
    .fil10 {fill:#DECCFF;fill-rule:nonzero}
    .fil11 {fill:#FBC600;fill-rule:nonzero}
    .fil4 {fill:white;fill-rule:nonzero}
    .fil5 {fill:#263138;fill-rule:nonzero;fill-opacity:0.301961}
    .fil8 {fill:#334BAE;fill-rule:nonzero;fill-opacity:0.501961}
    .fil6 {fill:#334BAE;fill-rule:nonzero}
    .fil1 {fill:#6641A9;fill-rule:nonzero}
   ]]>
  </style>
    <clipPath id="id0" style="clip-rule:nonzero">
     <path d="M719.14 212.36l-259.82 -0.24c-2.74,0 -4.96,-2.22 -4.96,-4.96l0.15 -161.21c0,-2.74 2.23,-4.96 4.96,-4.95l259.82 0.24c2.74,0 4.96,2.22 4.96,4.96l-0.15 161.21c0,2.73 -2.22,4.95 -4.96,4.95z"/>
    </clipPath>
    <clipPath id="id1" style="clip-rule:nonzero">
     <path d="M719.14 212.36l-259.82 -0.24c-2.74,0 -4.96,-2.22 -4.96,-4.96l0.15 -161.21c0,-2.74 2.23,-4.96 4.96,-4.95l259.82 0.24c2.74,0 4.96,2.22 4.96,4.96l-0.15 161.21c0,2.73 -2.22,4.95 -4.96,4.95z"/>
    </clipPath>
    <clipPath id="id2" style="clip-rule:nonzero">
     <path d="M392.15 235.56l-322.91 0.05c-3.4,0 -6.16,-2.76 -6.16,-6.16l-0.03 -200.35c0,-3.4 2.76,-6.16 6.16,-6.16l322.91 -0.05c3.4,0 6.16,2.75 6.16,6.16l0.03 200.35c0,3.4 -2.76,6.16 -6.16,6.16z"/>
    </clipPath>
    <clipPath id="id3" style="clip-rule:nonzero">
     <path d="M392.15 235.56l-322.91 0.05c-3.4,0 -6.16,-2.76 -6.16,-6.16l-0.03 -200.35c0,-3.4 2.76,-6.16 6.16,-6.16l322.91 -0.05c3.4,0 6.16,2.75 6.16,6.16l0.03 200.35c0,3.4 -2.76,6.16 -6.16,6.16z"/>
    </clipPath>
 </defs>
 <g id="Слой_x0020_1">
  <metadata id="CorelCorpID_0Corel-Layer"/>
  <g id="_2147618081408">
   <path class="fil0" d="M719.14 212.36l-259.82 -0.24c-2.74,0 -4.96,-2.22 -4.96,-4.96l0.15 -161.21c0,-2.74 2.23,-4.96 4.96,-4.95l259.82 0.24c2.74,0 4.96,2.22 4.96,4.96l-0.15 161.21c0,2.73 -2.22,4.95 -4.96,4.95z"/>
   <g style="clip-path:url(#id0)">
    <polygon class="fil1" points="454.36,41 724.25,41 724.25,212.36 454.36,212.36 "/>
   </g>
   <g style="clip-path:url(#id1)">
    <g>
     <path id="1" class="fil2" d="M719.77 39.96l-261.07 -0.24c-3.86,-0.01 -6.99,3.12 -7,6.98l-0.04 46.71c0,0.93 0.46,1.81 1.23,2.33 16.11,10.59 37.77,12.4 57.05,8.38 23.31,-4.85 44.43,-16.75 66.15,-26.49 21.73,-9.75 45.59,-17.57 69.05,-13.53 22.15,3.82 41.01,17.63 61.02,27.86 5.34,2.73 11.02,5.19 16.85,7.14 1.81,0.61 3.7,-0.73 3.7,-2.65l0.04 -49.5c0.01,-3.86 -3.12,-6.99 -6.98,-6.99z"/>
    </g>
   </g>
   <path class="fil3" d="M719.14 212.36l-259.82 -0.24c-2.74,0 -4.96,-2.22 -4.96,-4.96l0.15 -161.21c0,-2.74 2.23,-4.96 4.96,-4.95l259.82 0.24c2.74,0 4.96,2.22 4.96,4.96l-0.15 161.21c0,2.73 -2.22,4.95 -4.96,4.95z"/>
   <path class="fil4" d="M498.9 80.12c0,2.19 -1.74,3.46 -5.07,3.45l-6.55 0 0.01 -12.67 6.19 0.01c3.17,0 4.79,1.32 4.79,3.3 0,1.26 -0.65,2.24 -1.68,2.78 1.41,0.45 2.31,1.54 2.31,3.13zm-8.7 -7.01l0 0 0 2.99 2.91 0c1.43,0 2.21,-0.5 2.21,-1.5 0,-0.99 -0.77,-1.48 -2.2,-1.48l-2.92 -0.01zm5.75 6.7l0 0c0,-1.07 -0.81,-1.57 -2.33,-1.57l-3.42 -0.01 0 3.13 3.41 0c1.53,0.01 2.34,-0.46 2.34,-1.55z"/>
   <path class="fil4" d="M509.45 80.87l-5.88 0 -1.12 2.71 -3 0 5.65 -12.66 2.9 0 5.65 12.67 -3.08 0 -1.12 -2.72zm-0.92 -2.22l0 0 -2 -4.85 -2.01 4.84 4.01 0.01z"/>
   <polygon class="fil4" points="526.58,70.94 526.57,83.6 524.16,83.6 517.86,75.91 517.85,83.59 514.96,83.59 514.97,70.93 517.39,70.93 523.68,78.62 523.69,70.94 "/>
   <polygon class="fil4" points="534.18,78.63 532.48,80.41 532.47,83.61 529.56,83.61 529.57,70.94 532.49,70.95 532.48,76.86 538.09,70.95 541.35,70.95 536.1,76.59 541.64,83.62 538.22,83.61 "/>
   <polygon class="fil4" points="496.48,132.77 494.15,132.77 494.15,135.82 492.96,135.82 492.96,132.77 486.4,132.76 486.4,131.9 492.57,124.2 493.9,124.2 487.95,131.7 492.99,131.71 493,129.02 494.16,129.02 494.16,131.71 496.48,131.71 "/>
   <path class="fil4" d="M505.01 132.5c0,1.94 -1.41,3.43 -4.22,3.43 -1.67,0 -3.28,-0.58 -4.18,-1.5l0.58 -0.94c0.75,0.78 2.09,1.34 3.61,1.34 1.92,0.01 2.98,-0.89 2.99,-2.33 0,-1.4 -0.98,-2.31 -3.14,-2.31l-0.83 -0.01 0 -0.88 3.23 -4.03 -5.95 0 0 -1.07 7.47 0.01 0 0.85 -3.29 4.13c2.49,0.14 3.74,1.45 3.73,3.31z"/>
   <path class="fil4" d="M514.41 132.42c0,1.98 -1.38,3.52 -4.22,3.52 -1.68,0 -3.27,-0.59 -4.16,-1.5l0.58 -0.95c0.74,0.79 2.07,1.35 3.56,1.35 1.98,0 3.03,-0.96 3.03,-2.37 0,-1.49 -0.93,-2.42 -3.88,-2.43l-2.48 0 0.61 -5.83 6.36 0.01 -0.01 1.06 -5.31 0 -0.4 3.7 1.49 0c3.51,0 4.83,1.38 4.83,3.44z"/>
   <path class="fil4" d="M524.66 132.38c-0.01,2.18 -1.72,3.57 -3.98,3.57 -3.08,0 -4.76,-2.15 -4.76,-5.82 0.01,-3.95 2.17,-6.01 5.32,-6 1.05,0 2.03,0.18 2.76,0.63l-0.49 0.96c-0.59,-0.4 -1.39,-0.55 -2.25,-0.55 -2.51,0 -4.12,1.61 -4.12,4.77 0,0.26 0.01,0.59 0.04,0.94 0.59,-1.28 1.95,-1.99 3.56,-1.99 2.31,0 3.92,1.37 3.92,3.49zm-1.18 0.03l0 0c0,-1.52 -1.13,-2.5 -2.92,-2.51 -1.78,0 -2.99,1.1 -2.99,2.54 -0.01,1.28 1.06,2.49 3.06,2.5 1.68,0 2.84,-0.98 2.85,-2.53z"/>
   <polygon class="fil4" points="549.77,135.88 547,132.22 544.21,135.87 542.88,135.87 546.34,131.39 543.05,127.14 544.38,127.14 547,130.56 549.63,127.14 550.92,127.14 547.63,131.39 551.12,135.88 "/>
   <polygon class="fil4" points="558.64,135.88 555.87,132.23 553.07,135.88 551.75,135.88 555.2,131.4 551.92,127.14 553.25,127.15 555.87,130.57 558.49,127.15 559.79,127.15 556.5,131.4 559.98,135.89 "/>
   <polygon class="fil4" points="567.5,135.89 564.73,132.24 561.94,135.89 560.61,135.89 564.07,131.41 560.78,127.15 562.11,127.15 564.73,130.58 567.36,127.16 568.65,127.16 565.36,131.41 568.85,135.89 "/>
   <polygon class="fil4" points="576.37,135.9 573.6,132.24 570.81,135.9 569.48,135.89 572.94,131.41 569.65,127.16 570.98,127.16 573.6,130.58 576.23,127.17 577.52,127.17 574.23,131.42 577.71,135.9 "/>
   <polygon class="fil4" points="606.98,135.93 604.21,132.27 601.42,135.92 600.09,135.92 603.55,131.44 600.27,127.19 601.59,127.19 604.21,130.61 606.84,127.19 608.14,127.2 604.84,131.44 608.33,135.93 "/>
   <polygon class="fil4" points="615.85,135.94 613.08,132.28 610.28,135.93 608.96,135.93 612.41,131.45 609.13,127.2 610.46,127.2 613.08,130.62 615.71,127.2 617,127.2 613.71,131.45 617.19,135.94 "/>
   <polygon class="fil4" points="624.71,135.94 621.94,132.29 619.15,135.94 617.82,135.94 621.28,131.46 618,127.21 619.33,127.21 621.95,130.63 624.57,127.21 625.87,127.21 622.57,131.46 626.06,135.95 "/>
   <polygon class="fil4" points="633.58,135.95 630.81,132.3 628.02,135.95 626.69,135.95 630.15,131.47 626.86,127.21 628.19,127.21 630.81,130.64 633.44,127.22 634.73,127.22 631.44,131.47 634.92,135.95 "/>
   <polygon class="fil4" points="661.08,124.36 661.07,135.98 659.88,135.98 659.89,125.42 657.15,125.41 657.15,124.35 "/>
   <path class="fil4" d="M671.53 132.65c0,1.94 -1.41,3.44 -4.22,3.43 -1.67,0 -3.28,-0.58 -4.18,-1.49l0.58 -0.95c0.75,0.78 2.09,1.35 3.6,1.35 1.93,0 2.99,-0.9 3,-2.34 0,-1.4 -0.98,-2.31 -3.14,-2.31l-0.83 0 0 -0.88 3.22 -4.03 -5.94 -0.01 0 -1.06 7.47 0 0 0.85 -3.29 4.13c2.49,0.14 3.74,1.45 3.73,3.31z"/>
   <polygon class="fil4" points="683.09,132.94 680.76,132.94 680.76,136 679.57,136 679.57,132.94 673.01,132.93 673.01,132.07 679.18,124.37 680.51,124.37 674.56,131.87 679.6,131.88 679.61,129.19 680.77,129.19 680.76,131.88 683.09,131.88 "/>
   <path class="fil4" d="M692.05 134.94l0 1.07 -8.15 -0.01 0 -0.85 4.84 -4.73c1.31,-1.29 1.56,-2.07 1.56,-2.87 0,-1.34 -0.94,-2.17 -2.72,-2.17 -1.36,-0.01 -2.41,0.41 -3.17,1.29l-0.85 -0.73c0.9,-1.06 2.34,-1.66 4.12,-1.66 2.36,0 3.85,1.2 3.85,3.14 0,1.11 -0.35,2.11 -1.91,3.64l-3.96 3.88 6.39 0z"/>
   <path class="fil4" d="M480.4 159.94c0,-1.68 1.28,-2.87 3.01,-2.87 0.96,0 1.76,0.35 2.28,0.99l-0.82 0.76c-0.37,-0.43 -0.84,-0.66 -1.39,-0.66 -1.04,0 -1.78,0.73 -1.78,1.78 0,1.04 0.73,1.77 1.77,1.77 0.56,0 1.02,-0.22 1.4,-0.65l0.82 0.76c-0.52,0.64 -1.32,0.99 -2.29,0.99 -1.72,0 -3,-1.2 -3,-2.87z"/>
   <path class="fil4" d="M490.11 161.53l-2.58 0 -0.49 1.19 -1.32 -0.01 2.48 -5.54 1.27 0 2.47 5.55 -1.34 0 -0.49 -1.19zm-0.41 -0.98l0 0 -0.87 -2.12 -0.89 2.12 1.76 0z"/>
   <path class="fil4" d="M496.06 162.72l-1.07 -1.54 -0.06 0 -1.12 0 0 1.54 -1.28 0 0 -5.55 2.4 0.01c1.49,0 2.41,0.77 2.41,2.01 0,0.83 -0.42,1.44 -1.14,1.75l1.24 1.79 -1.38 -0.01zm-1.2 -4.5l0 0 -1.04 0 -0.01 1.93 1.05 0.01c0.79,0 1.18,-0.37 1.18,-0.97 0,-0.61 -0.39,-0.97 -1.18,-0.97z"/>
   <path class="fil4" d="M497.93 162.18l0.43 -0.97c0.47,0.34 1.17,0.58 1.83,0.58 0.77,0 1.07,-0.25 1.07,-0.59 0,-1.04 -3.22,-0.33 -3.22,-2.39 0,-0.94 0.76,-1.72 2.34,-1.72 0.7,0 1.41,0.16 1.93,0.49l-0.4 0.97c-0.52,-0.29 -1.05,-0.43 -1.54,-0.43 -0.76,0 -1.05,0.28 -1.05,0.63 0,1.02 3.22,0.32 3.22,2.36 0,0.92 -0.77,1.71 -2.36,1.71 -0.87,0 -1.76,-0.26 -2.25,-0.64z"/>
   <polygon class="fil4" points="510.76,157.19 510.76,162.74 509.47,162.74 509.48,160.46 506.96,160.46 506.95,162.73 505.67,162.73 505.68,157.19 506.96,157.19 506.96,159.37 509.48,159.38 509.48,157.19 "/>
   <path class="fil4" d="M511.74 159.96c0,-1.64 1.28,-2.86 3.03,-2.86 1.75,0 3.04,1.22 3.04,2.87 -0.01,1.66 -1.3,2.87 -3.04,2.87 -1.75,-0.01 -3.03,-1.23 -3.03,-2.88zm4.77 0.01l0 0c0,-1.05 -0.75,-1.78 -1.74,-1.78 -0.99,0 -1.73,0.72 -1.73,1.78 -0.01,1.05 0.74,1.77 1.73,1.77 0.99,0 1.73,-0.72 1.74,-1.77z"/>
   <polygon class="fil4" points="518.79,157.2 520.07,157.2 520.06,161.7 522.85,161.7 522.85,162.75 518.78,162.74 "/>
   <path class="fil4" d="M523.58 157.2l2.52 0.01c1.81,0 3.06,1.09 3.05,2.77 0,1.68 -1.24,2.77 -3.06,2.77l-2.52 0 0.01 -5.55zm2.45 4.5l0 0c1.1,0 1.82,-0.66 1.83,-1.72 0,-1.06 -0.72,-1.72 -1.83,-1.72l-1.17 0 0 3.44 1.17 0z"/>
   <polygon class="fil4" points="534.42,161.73 534.42,162.76 530.13,162.76 530.13,157.21 534.33,157.21 534.32,158.24 531.41,158.24 531.41,159.44 533.98,159.45 533.98,160.44 531.41,160.44 531.41,161.73 "/>
   <path class="fil4" d="M538.99 162.76l-1.07 -1.54 -0.07 0 -1.11 0 -0.01 1.54 -1.28 0 0.01 -5.55 2.4 0.01c1.48,0 2.41,0.77 2.4,2.01 0,0.83 -0.42,1.44 -1.14,1.75l1.25 1.78 -1.38 0zm-1.2 -4.5l0 0 -1.05 0 0 1.93 1.04 0.01c0.79,0 1.19,-0.37 1.19,-0.97 0,-0.61 -0.4,-0.97 -1.18,-0.97z"/>
   <path class="fil4" d="M479.83 181.61l1.37 -1.65c0.58,0.78 1.22,1.18 1.98,1.18 1,0 1.52,-0.59 1.52,-1.77l0 -5.08 -3.75 0 0 -1.99 6.21 0.01 -0.01 6.93c0,2.64 -1.33,3.93 -3.85,3.93 -1.43,0 -2.7,-0.55 -3.47,-1.56z"/>
   <path class="fil4" d="M488.73 181.62c0,-0.89 0.66,-1.47 1.49,-1.46 0.82,0 1.47,0.58 1.47,1.46 0,0.87 -0.65,1.5 -1.48,1.5 -0.82,0 -1.48,-0.63 -1.48,-1.5z"/>
   <polygon class="fil4" points="509.05,172.33 505.55,183.01 502.89,183.01 500.55,175.77 498.12,183 495.47,183 491.97,172.31 494.54,172.31 496.94,179.83 499.47,172.32 501.76,172.32 504.19,179.89 506.69,172.32 "/>
   <path class="fil4" d="M510.11 172.33c0,-0.75 0.59,-1.33 1.48,-1.33 0.88,0 1.48,0.55 1.48,1.29 0,0.79 -0.6,1.37 -1.48,1.37 -0.89,0 -1.48,-0.58 -1.48,-1.33zm0.29 2.47l0 0 2.38 0 -0.01 8.22 -2.38 -0.01 0.01 -8.21z"/>
   <polygon class="fil4" points="514.99,171.69 517.37,171.69 517.36,183.02 514.98,183.02 "/>
   <polygon class="fil4" points="519.58,171.7 521.96,171.7 521.95,183.02 519.57,183.02 "/>
   <path class="fil4" d="M523.88 172.34c0,-0.75 0.59,-1.33 1.48,-1.33 0.88,0 1.48,0.55 1.48,1.29 0,0.79 -0.6,1.37 -1.48,1.37 -0.89,0 -1.48,-0.58 -1.48,-1.33zm0.29 2.47l0 0 2.38 0.01 -0.01 8.21 -2.38 0 0.01 -8.22z"/>
   <path class="fil4" d="M536.02 178.35l-0.01 4.69 -2.23 -0.01 0 -1.02c-0.44,0.75 -1.29,1.15 -2.5,1.14 -1.92,0 -3.07,-1.07 -3.07,-2.49 0.01,-1.45 1.03,-2.45 3.53,-2.45l1.9 0c0,-1.02 -0.61,-1.62 -1.9,-1.62 -0.86,0 -1.77,0.29 -2.36,0.76l-0.85 -1.66c0.9,-0.64 2.22,-0.99 3.54,-0.99 2.5,0 3.95,1.16 3.95,3.65zm-2.39 2.09l0 0 0.01 -0.84 -1.64 0c-1.11,0 -1.47,0.41 -1.47,0.96 0,0.59 0.51,0.99 1.35,0.99 0.79,0 1.48,-0.36 1.75,-1.11z"/>
   <path class="fil4" d="M552.03 178.35l0 4.7 -2.38 0 0 -4.34c0,-1.32 -0.59,-1.93 -1.55,-1.94 -1.07,0 -1.82,0.69 -1.82,2.16l0 4.12 -2.39 -0.01 0.01 -4.33c0,-1.33 -0.56,-1.94 -1.56,-1.94 -1.05,0 -1.8,0.68 -1.8,2.15l0 4.12 -2.39 0 0.01 -8.21 2.28 0 0 0.94c0.61,-0.7 1.52,-1.06 2.58,-1.06 1.14,0 2.12,0.44 2.7,1.34 0.65,-0.83 1.72,-1.34 2.96,-1.34 1.95,0.01 3.36,1.14 3.35,3.64z"/>
   <path class="fil4" d="M553.36 182.29l0.8 -1.71c0.73,0.48 1.84,0.8 2.85,0.8 1.1,0 1.51,-0.29 1.51,-0.75 0,-1.34 -4.96,0.03 -4.96,-3.25 0,-1.56 1.41,-2.66 3.81,-2.66 1.13,0 2.38,0.26 3.16,0.72l-0.8 1.7c-0.81,-0.46 -1.62,-0.62 -2.37,-0.62 -1.06,0 -1.52,0.34 -1.52,0.77 0,1.4 4.96,0.05 4.95,3.28 0,1.53 -1.42,2.61 -3.88,2.61 -1.38,0 -2.79,-0.39 -3.55,-0.89z"/>
   <path class="fil4" d="M649.16 178.12c0,-3.52 1.96,-5.52 4.58,-5.52 2.64,0 4.58,2 4.58,5.53 -0.01,3.53 -1.95,5.52 -4.59,5.52 -2.62,0 -4.58,-2 -4.57,-5.53zm6.67 0.01l0 0c0,-2.43 -0.85,-3.44 -2.09,-3.44 -1.22,0 -2.08,1.01 -2.08,3.43 0,2.43 0.85,3.44 2.08,3.44 1.23,0 2.09,-1.01 2.09,-3.43z"/>
   <path class="fil4" d="M668.33 180.11c0,2.18 -1.79,3.55 -4.04,3.55 -2.95,0 -4.78,-1.85 -4.78,-5.3 0.01,-3.69 2.24,-5.75 5.46,-5.75 1.13,0 2.23,0.26 2.97,0.74l-0.91 1.81c-0.6,-0.4 -1.29,-0.53 -2,-0.53 -1.79,-0.01 -2.94,1.05 -3.01,3.09 0.62,-0.62 1.52,-0.94 2.64,-0.94 2.06,0 3.68,1.31 3.67,3.33zm-2.39 0.12l0 0c0,-0.98 -0.72,-1.6 -1.82,-1.61 -1.08,0 -1.85,0.67 -1.85,1.6 0,0.92 0.69,1.59 1.88,1.59 1.05,0 1.79,-0.6 1.79,-1.58z"/>
   <polygon class="fil4" points="673.32,170.63 675.45,170.64 670.4,185.01 668.27,185.01 "/>
   <path class="fil4" d="M683.34 181.48l0 2.02 -8.08 -0.01 0 -1.6 4.13 -3.89c0.94,-0.9 1.11,-1.45 1.11,-1.97 0.01,-0.84 -0.58,-1.33 -1.71,-1.33 -0.91,0 -1.69,0.35 -2.21,1.07l-1.8 -1.17c0.83,-1.2 2.32,-1.98 4.25,-1.98 2.38,0.01 3.96,1.23 3.96,3.17 0,1.03 -0.29,1.98 -1.79,3.37l-2.46 2.32 4.6 0z"/>
   <polygon class="fil4" points="693.98,181.26 692.24,181.26 692.24,183.5 689.83,183.5 689.83,181.26 684.08,181.25 684.08,179.59 689.12,172.82 691.72,172.82 687.04,179.24 689.91,179.24 689.91,177.24 692.25,177.25 692.24,179.24 693.98,179.25 "/>
   <path class="fil5" d="M625.06 140.21c-0.13,-0.12 1.95,-2.5 4.63,-5.33 2.68,-2.83 4.95,-5.03 5.07,-4.92 0.12,0.12 -1.95,2.5 -4.64,5.33 -2.67,2.83 -4.94,5.03 -5.06,4.92z"/>
   <path class="fil2" d="M392.15 235.56l-322.91 0.05c-3.4,0 -6.16,-2.76 -6.16,-6.16l-0.03 -200.35c0,-3.4 2.76,-6.16 6.16,-6.16l322.91 -0.05c3.4,0 6.16,2.75 6.16,6.16l0.03 200.35c0,3.4 -2.76,6.16 -6.16,6.16z"/>
   <g style="clip-path:url(#id2)">
    <polygon class="fil6" points="63.05,22.89 398.31,22.89 398.31,235.61 63.05,235.61 "/>
   </g>
   <g style="clip-path:url(#id3)">
    <g>
     <path id="1" class="fil7" d="M392.22 21.59l-323.29 0.05c-4.78,0 -8.66,3.88 -8.66,8.66l0.01 57.84c0,1.15 0.57,2.25 1.53,2.88 19.96,13.09 46.78,15.3 70.65,10.31 28.87,-6.04 55,-20.8 81.89,-32.9 26.89,-12.1 56.43,-21.82 85.49,-16.84 27.43,4.7 50.81,21.78 75.6,34.41 6.62,3.38 13.65,6.42 20.87,8.82 2.25,0.75 4.58,-0.91 4.58,-3.28l-0.01 -61.29c0,-4.79 -3.88,-8.66 -8.66,-8.66z"/>
    </g>
   </g>
   <path class="fil3" d="M392.15 235.56l-322.91 0.05c-3.4,0 -6.16,-2.76 -6.16,-6.16l-0.03 -200.35c0,-3.4 2.76,-6.16 6.16,-6.16l322.91 -0.05c3.4,0 6.16,2.75 6.16,6.16l0.03 200.35c0,3.4 -2.76,6.16 -6.16,6.16z"/>
   <path class="fil8" d="M133.77 253.75c-23.88,0 -43.24,2.85 -43.24,6.36 0,3.5 19.36,6.35 43.24,6.35 23.88,0 43.24,-2.85 43.24,-6.35 0,-3.51 -19.36,-6.36 -43.24,-6.36z"/>
   <g>
    <path class="fil8" d="M394.8 247.87c-30.27,0 -54.81,3.81 -54.81,8.51 0,4.7 24.54,8.52 54.81,8.52 30.27,0 54.81,-3.82 54.81,-8.52 0,-4.7 -24.54,-8.51 -54.81,-8.51z"/>
    <path class="fil9" d="M415.91 238.62l-57.35 0 -3.44 0 0 6.41c0,7.86 14.38,14.23 32.12,14.23 17.74,0 32.11,-6.37 32.11,-14.23l0 -6.41 -3.44 0z"/>
    <path class="fil10" d="M419.36 238.61c0,0.09 0,0.17 -0.01,0.25 -0.29,7.75 -14.56,13.98 -32.11,13.98 -17.74,0 -32.12,-6.37 -32.12,-14.23 0,-0.86 0.17,-1.71 0.52,-2.54 2.69,-6.64 15.82,-11.69 31.6,-11.69 15.77,0 28.91,5.05 31.6,11.69 0.31,0.74 0.49,1.52 0.51,2.29 0.01,0.09 0.01,0.17 0.01,0.25z"/>
    <path class="fil2" d="M413.36 238.61c0,6.4 -11.69,11.58 -26.12,11.58 -14.43,0 -26.12,-5.18 -26.12,-11.58 0,-6.39 11.69,-11.57 26.12,-11.57 14.43,0 26.12,5.18 26.12,11.57z"/>
    <path class="fil11" d="M390.2 242.92l0 2.43 -4.77 0 0 -2.44c-3.37,-0.21 -6.63,-0.83 -9.03,-1.7l2.54 -2.28c2.58,0.99 6.49,1.69 9.11,1.69 1.93,0 3.15,-0.32 3.15,-0.91 0,-1.89 -13.22,-0.74 -13.22,-4.68 0,-1.76 2.86,-2.99 7.45,-3.32l0 -2.33 4.77 0 0 2.31c2.94,0.15 5.73,0.59 7.85,1.19l-2.48 2.31c-2.65,-0.67 -6.02,-1.19 -8.1,-1.19 -1.57,0 -2.61,0.25 -2.61,0.76 0,1.84 13.22,0.79 13.22,4.79 0,1.96 -3.37,3.1 -7.88,3.37z"/>
    <path class="fil9" d="M427.18 231.36l-57.35 0 -3.44 0 0 6.41c0,7.86 14.38,14.23 32.12,14.23 17.73,0 32.11,-6.37 32.11,-14.23l0 -6.41 -3.44 0z"/>
    <path class="fil10" d="M430.63 231.36c0,0.08 0,0.16 -0.01,0.25 -0.29,7.74 -14.57,13.97 -32.11,13.97 -17.75,0 -32.12,-6.37 -32.12,-14.22 0,-0.87 0.17,-1.72 0.52,-2.54 2.69,-6.65 15.82,-11.69 31.6,-11.69 15.77,0 28.91,5.04 31.6,11.69 0.31,0.73 0.48,1.51 0.51,2.29 0.01,0.08 0.01,0.16 0.01,0.25z"/>
    <path class="fil2" d="M424.63 231.36c0,6.39 -11.69,11.57 -26.12,11.57 -14.43,0 -26.12,-5.18 -26.12,-11.57 0,-6.39 11.69,-11.58 26.12,-11.58 14.43,0 26.12,5.19 26.12,11.58z"/>
    <path class="fil9" d="M411.24 216.58l-57.36 0 -3.44 0 0 6.41c0,7.86 14.38,14.23 32.13,14.23 17.73,0 32.11,-6.37 32.11,-14.23l0 -6.41 -3.44 0z"/>
    <path class="fil10" d="M414.69 216.58c0,0.08 0,0.16 -0.02,0.25 -0.28,7.74 -14.56,13.98 -32.11,13.98 -17.74,0 -32.12,-6.37 -32.12,-14.23 0,-0.87 0.18,-1.72 0.53,-2.54 2.69,-6.65 15.81,-11.69 31.59,-11.69 15.77,0 28.91,5.04 31.6,11.69 0.31,0.74 0.49,1.51 0.51,2.29 0.02,0.08 0.02,0.16 0.02,0.25z"/>
    <path class="fil2" d="M408.69 216.58c0,6.39 -11.7,11.57 -26.13,11.57 -14.42,0 -26.12,-5.18 -26.12,-11.57 0,-6.39 11.7,-11.57 26.12,-11.57 14.43,0 26.13,5.18 26.13,11.57z"/>
    <g>
     <path class="fil9" d="M433.18 202.68l-57.35 0 -3.44 0 0 6.41c0,7.85 14.38,14.22 32.12,14.22 17.73,0 32.11,-6.37 32.11,-14.22l0 -6.41 -3.44 0z"/>
    </g>
    <path class="fil10" d="M436.63 202.67c0,0.09 0,0.16 -0.01,0.25 -0.29,7.75 -14.57,13.98 -32.11,13.98 -17.75,0 -32.12,-6.37 -32.12,-14.23 0,-0.86 0.17,-1.71 0.52,-2.54 2.69,-6.64 15.82,-11.69 31.6,-11.69 15.77,0 28.91,5.05 31.6,11.69 0.31,0.74 0.49,1.52 0.51,2.29 0.01,0.09 0.01,0.16 0.01,0.25z"/>
    <path class="fil2" d="M430.63 202.67c0,6.39 -11.69,11.58 -26.12,11.58 -14.43,0 -26.12,-5.19 -26.12,-11.58 0,-6.39 11.69,-11.57 26.12,-11.57 14.43,0 26.12,5.18 26.12,11.57z"/>
   </g>
   <g>
    <path class="fil4" d="M166.69 205.5c8.62,18.05 0.97,39.67 -17.08,48.29 -18.05,8.62 -39.67,0.97 -48.29,-17.08 -8.62,-18.05 -0.98,-39.67 17.08,-48.29 18.05,-8.62 39.67,-0.98 48.29,17.08z"/>
   </g>
   <g>
    <g>
     <path class="fil7" d="M160.59 208.41c7.01,14.68 0.79,32.27 -13.89,39.28 -14.69,7.01 -32.27,0.79 -39.28,-13.9 -7.01,-14.68 -0.79,-32.26 13.89,-39.27 14.68,-7.01 32.27,-0.79 39.28,13.89z"/>
    </g>
   </g>
   <path class="fil4" d="M118.26 71.51c0,2.72 -2.16,4.29 -6.29,4.29l-8.14 0.01 -0.01 -15.74 7.69 0c3.94,0 5.96,1.64 5.96,4.09 0,1.57 -0.81,2.79 -2.09,3.46 1.76,0.56 2.88,1.91 2.88,3.89zm-10.81 -8.7l0 0 0 3.71 3.62 0c1.77,0 2.74,-0.63 2.74,-1.87 0,-1.23 -0.97,-1.84 -2.74,-1.84l-3.62 0zm7.15 8.32l0 0c0,-1.33 -1.01,-1.96 -2.91,-1.96l-4.24 0 0 3.89 4.24 0c1.9,0 2.91,-0.58 2.91,-1.93z"/>
   <path class="fil4" d="M131.38 72.43l-7.31 0 -1.39 3.37 -3.73 0 7.01 -15.73 3.59 -0.01 7.04 15.74 -3.82 0 -1.39 -3.37zm-1.15 -2.77l0 0 -2.5 -6.02 -2.49 6.02 4.99 0z"/>
   <polygon class="fil4" points="152.65,60.06 152.65,75.8 149.66,75.8 141.82,66.24 141.82,75.8 138.22,75.8 138.22,60.06 141.23,60.06 149.06,69.62 149.05,60.06 "/>
   <polygon class="fil4" points="162.1,69.61 159.99,71.82 159.99,75.8 156.37,75.8 156.37,60.06 159.99,60.06 159.99,67.41 166.96,60.06 171,60.06 164.49,67.07 171.39,75.8 167.14,75.8 "/>
   <polygon class="fil4" points="115.32,136.94 112.43,136.95 112.44,140.74 110.95,140.74 110.95,136.95 102.8,136.95 102.8,135.87 110.45,126.3 112.1,126.3 104.72,135.63 110.99,135.63 110.99,132.28 112.43,132.28 112.43,135.63 115.32,135.62 "/>
   <path class="fil4" d="M125.93 136.59c0,2.42 -1.75,4.28 -5.24,4.28 -2.08,0 -4.09,-0.73 -5.2,-1.86l0.72 -1.18c0.93,0.97 2.6,1.67 4.48,1.67 2.39,0 3.71,-1.11 3.71,-2.91 0,-1.73 -1.21,-2.86 -3.9,-2.86l-1.03 0 0 -1.1 4 -5.01 -7.38 0 -0.01 -1.32 9.29 0 0 1.05 -4.08 5.14c3.09,0.16 4.64,1.79 4.64,4.1z"/>
   <path class="fil4" d="M137.61 136.49c0,2.45 -1.71,4.37 -5.24,4.37 -2.08,0 -4.07,-0.72 -5.18,-1.85l0.72 -1.18c0.93,0.97 2.58,1.67 4.44,1.67 2.45,0 3.75,-1.2 3.75,-2.95 0,-1.86 -1.15,-3.01 -4.83,-3.01l-3.07 0 0.74 -7.24 7.9 -0.01 0.01 1.33 -6.61 0 -0.49 4.6 1.85 0c4.36,0 6.01,1.71 6.01,4.27z"/>
   <path class="fil4" d="M150.34 136.42c0,2.71 -2.13,4.44 -4.93,4.44 -3.84,0 -5.92,-2.66 -5.92,-7.22 -0.01,-4.91 2.68,-7.47 6.6,-7.47 1.3,0 2.52,0.23 3.42,0.78l-0.6 1.2c-0.74,-0.49 -1.73,-0.68 -2.8,-0.68 -3.12,0 -5.12,2 -5.12,5.92 0,0.33 0.02,0.75 0.06,1.18 0.73,-1.59 2.42,-2.48 4.42,-2.48 2.87,0 4.87,1.69 4.87,4.33zm-1.47 0.05l0 0c0,-1.9 -1.4,-3.12 -3.63,-3.12 -2.21,0 -3.71,1.36 -3.71,3.16 0,1.59 1.32,3.09 3.82,3.09 2.08,0 3.52,-1.21 3.52,-3.13z"/>
   <polygon class="fil4" points="181.56,140.73 178.11,136.19 174.65,140.73 172.99,140.73 177.29,135.16 173.2,129.88 174.85,129.88 178.11,134.13 181.37,129.88 182.98,129.88 178.89,135.16 183.23,140.73 "/>
   <polygon class="fil4" points="192.58,140.73 189.13,136.19 185.66,140.73 184.01,140.73 188.3,135.16 184.22,129.88 185.87,129.88 189.13,134.13 192.39,129.88 194,129.88 189.91,135.16 194.25,140.73 "/>
   <polygon class="fil4" points="203.59,140.73 200.15,136.19 196.68,140.73 195.03,140.73 199.32,135.16 195.23,129.88 196.89,129.88 200.15,134.13 203.41,129.88 205.02,129.87 200.93,135.16 205.27,140.73 "/>
   <polygon class="fil4" points="214.61,140.73 211.17,136.19 207.7,140.73 206.05,140.73 210.34,135.16 206.25,129.87 207.91,129.87 211.17,134.12 214.43,129.87 216.04,129.87 211.95,135.16 216.29,140.73 "/>
   <polygon class="fil4" points="252.66,140.72 249.21,136.18 245.75,140.72 244.1,140.72 248.39,135.15 244.3,129.87 245.95,129.87 249.21,134.12 252.47,129.87 254.08,129.87 250,135.15 254.33,140.72 "/>
   <polygon class="fil4" points="263.68,140.72 260.23,136.18 256.77,140.72 255.11,140.72 259.41,135.15 255.32,129.87 256.97,129.87 260.23,134.12 263.49,129.87 265.1,129.87 261.01,135.15 265.35,140.72 "/>
   <polygon class="fil4" points="274.7,140.72 271.25,136.18 267.79,140.72 266.13,140.72 270.43,135.15 266.34,129.87 267.99,129.87 271.25,134.12 274.51,129.86 276.12,129.86 272.03,135.15 276.37,140.72 "/>
   <polygon class="fil4" points="285.71,140.72 282.27,136.18 278.8,140.72 277.15,140.72 281.44,135.15 277.35,129.86 279.01,129.86 282.27,134.11 285.53,129.86 287.14,129.86 283.05,135.15 287.39,140.72 "/>
   <polygon class="fil4" points="319.88,126.27 319.88,140.71 318.4,140.71 318.4,127.59 314.99,127.59 314.99,126.27 "/>
   <path class="fil4" d="M332.88 136.56c0,2.42 -1.75,4.27 -5.24,4.27 -2.08,0 -4.09,-0.72 -5.2,-1.85l0.72 -1.18c0.93,0.97 2.6,1.67 4.48,1.67 2.39,0 3.71,-1.11 3.71,-2.91 0,-1.73 -1.21,-2.87 -3.9,-2.87l-1.03 0 0 -1.09 4 -5.01 -7.38 0 0 -1.32 9.28 -0.01 0 1.06 -4.08 5.14c3.09,0.16 4.64,1.79 4.64,4.1z"/>
   <polygon class="fil4" points="347.24,136.91 344.35,136.91 344.35,140.71 342.87,140.71 342.87,136.91 334.72,136.91 334.72,135.84 342.37,126.26 344.02,126.26 336.64,135.59 342.91,135.59 342.91,132.25 344.35,132.25 344.35,135.59 347.24,135.59 "/>
   <path class="fil4" d="M358.39 139.38l0 1.33 -10.14 0 0 -1.06 6.01 -5.88c1.63,-1.61 1.94,-2.58 1.94,-3.57 0,-1.67 -1.18,-2.7 -3.39,-2.7 -1.69,0 -2.99,0.52 -3.94,1.61l-1.05 -0.91c1.11,-1.32 2.91,-2.06 5.12,-2.06 2.93,0 4.78,1.48 4.78,3.9 0,1.38 -0.43,2.62 -2.37,4.52l-4.91 4.83 7.95 -0.01z"/>
   <path class="fil4" d="M95.38 170.73c0,-2.08 1.59,-3.57 3.74,-3.57 1.19,0 2.18,0.44 2.83,1.22l-1.02 0.95c-0.46,-0.53 -1.05,-0.81 -1.73,-0.81 -1.29,0 -2.21,0.91 -2.21,2.21 0,1.3 0.92,2.2 2.21,2.2 0.68,0 1.27,-0.27 1.73,-0.82l1.02 0.95c-0.65,0.8 -1.64,1.23 -2.84,1.23 -2.14,0 -3.73,-1.48 -3.73,-3.56z"/>
   <path class="fil4" d="M107.44 172.7l-3.2 0 -0.61 1.47 -1.63 0 3.07 -6.89 1.57 0 3.09 6.89 -1.68 0 -0.61 -1.47zm-0.5 -1.22l0 0 -1.09 -2.64 -1.1 2.64 2.19 0z"/>
   <path class="fil4" d="M114.85 174.17l-1.34 -1.92 -0.07 0 -1.39 0 0 1.92 -1.59 0 -0.01 -6.89 2.99 0c1.84,0 2.99,0.95 2.99,2.5 0,1.03 -0.52,1.79 -1.42,2.18l1.55 2.21 -1.71 0zm-1.5 -5.59l0 0 -1.3 0 0 2.4 1.3 0c0.97,0 1.47,-0.45 1.47,-1.2 0,-0.76 -0.5,-1.2 -1.47,-1.2z"/>
   <path class="fil4" d="M117.16 173.49l0.54 -1.2c0.58,0.42 1.45,0.72 2.28,0.72 0.95,0 1.33,-0.32 1.33,-0.74 0,-1.29 -4.01,-0.4 -4.01,-2.96 0,-1.18 0.95,-2.15 2.9,-2.15 0.87,0 1.76,0.21 2.4,0.61l-0.49 1.21c-0.65,-0.36 -1.31,-0.54 -1.92,-0.54 -0.94,0 -1.3,0.35 -1.3,0.79 0,1.27 4,0.39 4,2.92 0,1.15 -0.95,2.14 -2.92,2.14 -1.09,0 -2.2,-0.33 -2.81,-0.8z"/>
   <polygon class="fil4" points="133.11,167.28 133.11,174.17 131.51,174.17 131.51,171.34 128.38,171.34 128.38,174.17 126.79,174.17 126.79,167.28 128.38,167.28 128.38,169.99 131.51,169.99 131.51,167.28 "/>
   <path class="fil4" d="M134.32 170.72c0,-2.05 1.6,-3.56 3.77,-3.56 2.17,0 3.77,1.5 3.77,3.56 0,2.06 -1.6,3.57 -3.77,3.57 -2.17,0 -3.77,-1.52 -3.77,-3.57zm5.93 0l0 0c0,-1.31 -0.93,-2.21 -2.16,-2.2 -1.23,0 -2.15,0.89 -2.15,2.2 0,1.31 0.92,2.21 2.15,2.21 1.23,0 2.16,-0.9 2.16,-2.21z"/>
   <polygon class="fil4" points="143.08,167.27 144.67,167.27 144.67,172.87 148.13,172.87 148.13,174.17 143.08,174.17 "/>
   <path class="fil4" d="M149.04 167.27l3.13 0c2.25,0 3.8,1.36 3.8,3.45 0,2.09 -1.55,3.44 -3.8,3.45l-3.13 0 0 -6.9zm3.05 5.59l0 0c1.37,0 2.26,-0.82 2.26,-2.14 0,-1.32 -0.89,-2.14 -2.26,-2.14l-1.46 0 0 4.28 1.46 0z"/>
   <polygon class="fil4" points="162.52,172.88 162.52,174.16 157.18,174.16 157.18,167.27 162.39,167.27 162.39,168.55 158.77,168.55 158.77,170.05 161.97,170.05 161.97,171.29 158.77,171.29 158.77,172.88 "/>
   <path class="fil4" d="M168.19 174.16l-1.33 -1.92 -0.08 0 -1.39 0 0 1.92 -1.59 0 0 -6.89 2.98 0c1.84,0 2.99,0.96 2.99,2.5 0,1.03 -0.52,1.79 -1.41,2.18l1.55 2.21 -1.72 0zm-1.5 -5.59l0 0 -1.3 0 0 2.4 1.3 0c0.98,0 1.47,-0.45 1.47,-1.2 0,-0.76 -0.49,-1.2 -1.47,-1.2z"/>
   <path class="fil4" d="M305.13 193.1c0,-4.38 2.43,-6.86 5.7,-6.86 3.28,-0.01 5.69,2.48 5.69,6.86 0,4.38 -2.41,6.87 -5.69,6.87 -3.27,0 -5.7,-2.49 -5.7,-6.87zm8.29 0l0 0c0,-3.01 -1.06,-4.27 -2.59,-4.27 -1.52,0 -2.59,1.26 -2.59,4.27 0.01,3.02 1.07,4.27 2.59,4.27 1.53,0 2.59,-1.25 2.59,-4.27z"/>
   <path class="fil4" d="M328.97 195.55c0,2.71 -2.22,4.42 -5.03,4.42 -3.66,0 -5.94,-2.3 -5.94,-6.58 0,-4.59 2.77,-7.16 6.77,-7.16 1.41,0 2.77,0.32 3.7,0.91l-1.13 2.26c-0.75,-0.49 -1.6,-0.66 -2.49,-0.66 -2.22,0 -3.64,1.31 -3.74,3.85 0.78,-0.78 1.9,-1.18 3.28,-1.18 2.57,0 4.58,1.63 4.58,4.14zm-2.98 0.15l0 0c0,-1.22 -0.89,-1.99 -2.26,-1.99 -1.34,0 -2.29,0.83 -2.29,1.99 0,1.14 0.85,1.97 2.33,1.97 1.31,0 2.22,-0.76 2.22,-1.97z"/>
   <polygon class="fil4" points="335.16,183.76 337.79,183.76 331.54,201.64 328.9,201.64 "/>
   <path class="fil4" d="M347.62 197.23l0 2.51 -10.04 0 0 -1.99 5.12 -4.84c1.18,-1.12 1.39,-1.81 1.39,-2.45 0,-1.04 -0.73,-1.65 -2.13,-1.65 -1.14,0 -2.1,0.44 -2.75,1.33l-2.24 -1.44c1.03,-1.5 2.89,-2.47 5.28,-2.47 2.96,0 4.93,1.52 4.93,3.93 0,1.29 -0.36,2.46 -2.22,4.19l-3.05 2.88 5.71 0z"/>
   <polygon class="fil4" points="360.85,196.95 358.68,196.95 358.68,199.73 355.69,199.73 355.69,196.95 348.54,196.95 348.54,194.88 354.79,186.46 358.02,186.46 352.21,194.44 355.78,194.44 355.78,191.96 358.68,191.96 358.68,194.44 360.85,194.44 "/>
   <path class="fil2" d="M305.19 82.05c-2.34,-9.7 -11.89,-15.79 -21.85,-15.14 -3.11,0.2 -6.15,0.89 -8.85,2.09 -6.92,3.08 -11.72,11.26 -9.43,18.47 1.87,5.89 7.61,9.64 13.27,12.12 5.93,2.58 12.9,4.27 18.75,1.52 5.65,-2.66 8.92,-9.16 8.64,-15.38 -0.06,-1.25 -0.24,-2.48 -0.53,-3.68z"/>
   <path class="fil5" d="M275.13 146.02c-0.15,-0.15 2.42,-3.12 5.75,-6.63 3.33,-3.53 6.14,-6.26 6.29,-6.12 0.15,0.14 -2.42,3.11 -5.75,6.63 -3.32,3.52 -6.14,6.26 -6.29,6.12z"/>
   <path class="fil7 str0" d="M324.99 55.52c0,29.36 -23.8,53.16 -53.16,53.16 -29.36,0 -53.16,-23.8 -53.16,-53.16 0,-29.36 23.8,-53.16 53.16,-53.16 29.36,0 53.16,23.8 53.16,53.16z"/>
   <g>
    <g>
     <g>
      <path class="fil4" d="M256.79 54.33c-7.63,0 -13.84,-6.21 -13.84,-13.84 0,-7.64 6.21,-13.85 13.84,-13.85 7.63,0 13.84,6.21 13.84,13.85 0,7.63 -6.21,13.84 -13.84,13.84zm0 -20.15l0 0c-3.47,0 -6.3,2.83 -6.3,6.31 0,3.47 2.83,6.3 6.3,6.3 3.47,0 6.3,-2.83 6.3,-6.3 0,-3.48 -2.83,-6.31 -6.3,-6.31z"/>
     </g>
     <g>
      <path class="fil4" d="M250.26 80.86c-0.96,0 -1.93,-0.37 -2.66,-1.11 -1.48,-1.47 -1.48,-3.85 0,-5.33l43.13 -43.13c1.47,-1.47 3.86,-1.47 5.33,0 1.47,1.48 1.47,3.86 0,5.34l-43.13 43.12c-0.74,0.74 -1.7,1.11 -2.67,1.11z"/>
     </g>
     <g>
      <path class="fil4" d="M286.86 84.41c-7.63,0 -13.84,-6.21 -13.84,-13.85 0,-7.63 6.21,-13.85 13.84,-13.85 7.64,0 13.85,6.22 13.85,13.85 0,7.64 -6.21,13.85 -13.85,13.85zm0 -20.15l0 0c-3.47,0 -6.3,2.83 -6.3,6.3 0,3.48 2.83,6.3 6.3,6.3 3.48,0 6.31,-2.82 6.31,-6.3 0,-3.47 -2.83,-6.3 -6.31,-6.3z"/>
     </g>
    </g>
   </g>
   <g>
    <g>
     <g>
      <path class="fil4" d="M125.63 220.44c-4.24,0 -7.7,-3.46 -7.7,-7.71 0,-4.24 3.46,-7.7 7.7,-7.7 4.25,0 7.71,3.46 7.71,7.7 0,4.25 -3.46,7.71 -7.71,7.71zm0 -11.21l0 0c-1.93,0 -3.5,1.57 -3.5,3.5 0,1.94 1.57,3.51 3.5,3.51 1.94,0 3.51,-1.57 3.51,-3.51 0,-1.93 -1.57,-3.5 -3.51,-3.5z"/>
     </g>
     <g>
      <path class="fil4" d="M122 235.2c-0.54,0 -1.07,-0.2 -1.48,-0.61 -0.82,-0.82 -0.82,-2.15 0,-2.97l24 -24c0.82,-0.82 2.15,-0.82 2.97,0 0.82,0.82 0.82,2.14 0,2.96l-24 24.01c-0.41,0.41 -0.95,0.61 -1.49,0.61z"/>
     </g>
     <g>
      <path class="fil4" d="M142.37 237.18c-4.25,0 -7.7,-3.46 -7.7,-7.71 0,-4.25 3.45,-7.71 7.7,-7.71 4.25,0 7.71,3.46 7.71,7.71 0,4.25 -3.46,7.71 -7.71,7.71zm0 -11.22l0 0c-1.93,0 -3.51,1.58 -3.51,3.51 0,1.94 1.58,3.51 3.51,3.51 1.93,0 3.51,-1.57 3.51,-3.51 0,-1.93 -1.58,-3.51 -3.51,-3.51z"/>
     </g>
    </g>
   </g>
   <path class="fil8" d="M37.85 228.62c-19.8,0 -35.86,4.79 -35.86,10.69 0,5.9 16.06,10.68 35.86,10.68 19.81,0 35.87,-4.78 35.87,-10.68 0,-5.9 -16.06,-10.69 -35.87,-10.69z"/>
   <path class="fil9" d="M64.48 225.34l-57.35 0 -3.44 0 0 6.41c0,7.86 14.38,14.23 32.12,14.23 17.73,0 32.11,-6.37 32.11,-14.23l0 -6.41 -3.44 0z"/>
   <path class="fil10" d="M67.93 225.33c0,0.09 0,0.17 -0.01,0.26 -0.29,7.74 -14.57,13.97 -32.12,13.97 -17.74,0 -32.12,-6.37 -32.12,-14.23 0,-0.86 0.18,-1.71 0.53,-2.54 2.69,-6.64 15.81,-11.68 31.59,-11.68 15.77,0 28.91,5.04 31.6,11.68 0.32,0.74 0.49,1.52 0.52,2.29 0.01,0.09 0.01,0.17 0.01,0.25z"/>
   <path class="fil2" d="M61.93 225.34c0,6.39 -11.7,11.57 -26.13,11.57 -14.42,0 -26.12,-5.18 -26.12,-11.57 0,-6.4 11.7,-11.58 26.12,-11.58 14.43,0 26.13,5.18 26.13,11.58z"/>
   <path class="fil11" d="M38.76 229.64l0 2.43 -4.77 0 0 -2.44c-3.36,-0.21 -6.63,-0.83 -9.03,-1.7l2.55 -2.27c2.58,0.98 6.48,1.68 9.1,1.68 1.94,0 3.16,-0.32 3.16,-0.91 0,-1.88 -13.23,-0.74 -13.23,-4.68 0,-1.76 2.87,-2.99 7.45,-3.32l0 -2.33 4.77 0 0 2.32c2.94,0.14 5.74,0.58 7.85,1.19l-2.47 2.3c-2.65,-0.67 -6.02,-1.19 -8.1,-1.19 -1.58,0 -2.62,0.25 -2.62,0.76 0,1.84 13.23,0.79 13.23,4.8 0,1.95 -3.37,3.09 -7.89,3.36z"/>
   <g>
    <path class="fil9" d="M60.79 215.07l-57.35 0 -3.44 0 0 6.41c0,7.86 14.38,14.23 32.13,14.23 17.73,0 32.11,-6.37 32.11,-14.23l0 -6.41 -3.45 0z"/>
    <path class="fil10" d="M64.25 215.07c0,0.08 0,0.16 -0.02,0.25 -0.28,7.74 -14.56,13.97 -32.11,13.97 -17.74,0 -32.12,-6.37 -32.12,-14.22 0,-0.87 0.18,-1.72 0.53,-2.55 2.69,-6.64 15.81,-11.68 31.59,-11.68 15.77,0 28.91,5.04 31.6,11.68 0.31,0.74 0.49,1.52 0.51,2.3 0.02,0.08 0.02,0.16 0.02,0.25z"/>
    <path class="fil2" d="M58.25 215.07c0,6.39 -11.7,11.57 -26.13,11.57 -14.42,0 -26.12,-5.18 -26.12,-11.57 0,-6.39 11.7,-11.58 26.12,-11.58 14.43,0 26.13,5.19 26.13,11.58z"/>
   </g>
   <g>
    <path class="fil9" d="M65.15 203.98l-57.35 0 -3.44 0 0 6.41c0,7.86 14.38,14.23 32.12,14.23 17.73,0 32.11,-6.37 32.11,-14.23l0 -6.41 -3.44 0z"/>
    <path class="fil10" d="M68.6 203.98c0,0.08 0,0.16 -0.02,0.25 -0.28,7.74 -14.56,13.97 -32.11,13.97 -17.74,0 -32.12,-6.37 -32.12,-14.22 0,-0.87 0.18,-1.72 0.53,-2.54 2.69,-6.65 15.81,-11.69 31.59,-11.69 15.77,0 28.91,5.04 31.6,11.69 0.31,0.73 0.49,1.51 0.51,2.29 0.02,0.08 0.02,0.16 0.02,0.25z"/>
    <path class="fil2" d="M62.6 203.98c0,6.39 -11.7,11.57 -26.13,11.57 -14.42,0 -26.12,-5.18 -26.12,-11.57 0,-6.39 11.7,-11.58 26.12,-11.58 14.43,0 26.13,5.19 26.13,11.58z"/>
   </g>
   <g>
    <g>
     <path class="fil9" d="M71.84 193.09l-57.35 0 -3.44 0 0 6.41c0,7.85 14.37,14.22 32.12,14.22 17.73,0 32.11,-6.37 32.11,-14.22l0 -6.41 -3.44 0z"/>
    </g>
    <path class="fil10" d="M75.29 193.08c0,0.09 0,0.16 -0.01,0.25 -0.29,7.75 -14.57,13.98 -32.11,13.98 -17.75,0 -32.13,-6.37 -32.13,-14.23 0,-0.86 0.18,-1.71 0.53,-2.54 2.69,-6.64 15.82,-11.69 31.6,-11.69 15.77,0 28.9,5.05 31.6,11.69 0.31,0.74 0.48,1.52 0.51,2.29 0.01,0.09 0.01,0.16 0.01,0.25z"/>
    <path class="fil2" d="M69.29 193.08c0,6.4 -11.7,11.58 -26.12,11.58 -14.43,0 -26.13,-5.18 -26.13,-11.58 0,-6.39 11.7,-11.57 26.13,-11.57 14.42,0 26.12,5.18 26.12,11.57z"/>
   </g>
   <g>
    <g>
     <path class="fil9" d="M66.41 181.6l-57.35 0 -3.44 0 0 6.41c0,7.86 14.37,14.23 32.12,14.23 17.73,0 32.11,-6.37 32.11,-14.23l0 -6.41 -3.44 0z"/>
    </g>
    <path class="fil10" d="M69.86 181.6c0,0.08 0,0.16 -0.01,0.25 -0.29,7.74 -14.57,13.98 -32.11,13.98 -17.75,0 -32.13,-6.37 -32.13,-14.23 0,-0.87 0.18,-1.72 0.53,-2.54 2.69,-6.65 15.82,-11.69 31.6,-11.69 15.76,0 28.9,5.04 31.6,11.69 0.31,0.73 0.48,1.51 0.51,2.29 0.01,0.08 0.01,0.16 0.01,0.25z"/>
    <path class="fil2" d="M63.86 181.6c0,6.39 -11.7,11.57 -26.12,11.57 -14.43,0 -26.13,-5.18 -26.13,-11.57 0,-6.39 11.7,-11.57 26.13,-11.57 14.42,0 26.12,5.18 26.12,11.57z"/>
   </g>
  </g>
 </g>
</svg>
