<?xml version="1.0" encoding="utf-8"?>
<!-- Generator: Adobe Illustrator 17.1.0, SVG Export Plug-In . SVG Version: 6.00 Build 0)  -->
<!DOCTYPE svg PUBLIC "-//W3C//DTD SVG 1.1//EN" "http://www.w3.org/Graphics/SVG/1.1/DTD/svg11.dtd">
<svg version="1.1" id="Слой_1" xmlns="http://www.w3.org/2000/svg" xmlns:xlink="http://www.w3.org/1999/xlink" x="0px" y="0px"
	 viewBox="0 0 319.3 60.3" enable-background="new 0 0 319.3 60.3" xml:space="preserve">
<g>
	<linearGradient id="SVGID_1_" gradientUnits="userSpaceOnUse" x1="101.5781" y1="19.2121" x2="139.5312" y2="40.1673">
		<stop  offset="0" style="stop-color:#00D9FF"/>
		<stop  offset="0.502" style="stop-color:#007AFF"/>
		<stop  offset="1" style="stop-color:#B357EF"/>
	</linearGradient>
	<circle fill-rule="evenodd" clip-rule="evenodd" fill="url(#SVGID_1_)" cx="121.2" cy="30" r="28.7"/>
	<linearGradient id="SVGID_2_" gradientUnits="userSpaceOnUse" x1="103.4187" y1="20.2282" x2="137.8076" y2="39.2157">
		<stop  offset="0" style="stop-color:#00D9FF"/>
		<stop  offset="0.502" style="stop-color:#007AFF"/>
		<stop  offset="1" style="stop-color:#B357EF"/>
	</linearGradient>
	
		<circle fill-rule="evenodd" clip-rule="evenodd" fill="url(#SVGID_2_)" stroke="#FFFFFF" stroke-width="1.4173" stroke-miterlimit="10" cx="121.2" cy="30" r="26"/>
	<path fill-rule="evenodd" clip-rule="evenodd" fill="#FFFFFF" d="M140,17.1c-0.2-0.3-0.4-0.5-0.6-0.8c-0.2-0.2-0.2-0.1-0.2,0.3
		c0,0.6,0,1.2,0,1.6c0,0.2,0.2,0.5,0.5,1.1c0.2,0.3,0.3,0.5,0.6,0.7c0.2-0.4,0.4-1.6,0.4-1.9C140.6,17.9,140.4,17.6,140,17.1z"/>
	<path fill-rule="evenodd" clip-rule="evenodd" fill="#FFFFFF" d="M136.7,17.4c0.3,0.2,0.9,0.4,1.4,0.6c0.4,0.2,0.7,0.3,0.9,0.5
		c0.5,0.5,0.7,1.2,1.1,1.7c-1,0.1-1.6-0.3-2.1-0.7C137.5,19,137.2,18.4,136.7,17.4z"/>
	<path fill-rule="evenodd" clip-rule="evenodd" fill="#FFFFFF" d="M137.1,17c-0.1-0.2-0.3-0.4-0.5-0.7c-0.1-0.3-0.3-0.9,0-1.1
		c0.5-0.3,1.3,0.1,1.6,0.6c0.2,0.3,0.4,0.5,0.5,0.8c0.2,0.4,0.5,1.4-0.2,1.4C138.1,17.9,137.5,17.4,137.1,17z"/>
	<path fill-rule="evenodd" clip-rule="evenodd" fill="#FFFFFF" d="M140.5,19.8c0-0.1,0.1-0.5,0.2-0.9c0-0.1,0.1-0.6,0.2-0.7
		c0.1,0,0.4,0.5,0.4,0.6c0.2,0.3,0.4,0.7,0.5,0.7c0.2,0.6,0.4,0.9,0.3,1.5c-0.2,0.6-0.5,1.6-0.7,1.5c0,0-0.5-1.2-0.8-1.8
		C140.4,20.2,140.4,20.4,140.5,19.8z"/>
	<path fill-rule="evenodd" clip-rule="evenodd" fill="#FFFFFF" d="M138.2,19.9c-0.2,0,0.6,1.6,0.8,1.8c0.1,0.1,0.3,0.3,0.5,0.4
		c0.5,0.2,1.5,0.7,1.5,0.5c0,0-0.4-1.2-0.7-1.7c-0.1-0.2-0.2-0.3-0.3-0.3C139.7,20.4,138.4,19.8,138.2,19.9z"/>
	<path fill-rule="evenodd" clip-rule="evenodd" fill="#FFFFFF" d="M142,21.7c0-0.1,0.2-0.6,0.3-0.6c0.1,0,0.3,0.5,0.3,0.6
		c0.2,0.5,0.5,1.1,0.5,1.6c0,0.2,0,0.4-0.1,0.7c-0.1,0.3-0.3,0.7-0.5,1c-0.4,0.6-0.5,0.3-0.6-0.1c-0.1-0.4-0.2-0.8-0.3-1.2
		c-0.1-0.2-0.1-0.4,0-0.6C141.6,22.6,141.8,22.2,142,21.7z"/>
	<path fill-rule="evenodd" clip-rule="evenodd" fill="#FFFFFF" d="M139,22c-0.2,0,0.7,2,0.8,2.2c0.1,0.2,0.3,0.3,0.5,0.4
		c0.5,0.3,1.4,0.9,1.5,0.7c0,0-0.2-1.4-0.5-2c-0.1-0.2-0.2-0.3-0.4-0.4C140.7,22.8,139.2,22,139,22z"/>
	<path fill-rule="evenodd" clip-rule="evenodd" fill="#FFFFFF" d="M142.4,27.8c0-0.3-0.1-0.6-0.1-0.9c0-0.3-0.1-0.5-0.1-0.6
		c0-0.2-0.1-0.3,0-0.5l0.9-1.5c0.1-0.1,0.2-0.2,0.2-0.2c0.1,0,0.1,0.1,0.2,0.2l0.3,2c0,0.2,0,0.3-0.1,0.5c-0.1,0.3-0.5,0.8-0.7,1.1
		C142.5,28.5,142.5,28.3,142.4,27.8z"/>
	<path fill-rule="evenodd" clip-rule="evenodd" fill="#FFFFFF" d="M139.9,24.5c-0.2,0,0.4,2.1,0.6,2.3c0.1,0.2,0.3,0.3,0.5,0.5
		c0.5,0.4,1.2,1.1,1.3,0.9c0,0-0.1-1.4-0.3-2c-0.1-0.2-0.2-0.4-0.3-0.4C141.4,25.6,140.1,24.6,139.9,24.5z"/>
	<path fill-rule="evenodd" clip-rule="evenodd" fill="#FFFFFF" d="M142.6,31.1c-0.1-0.5-0.1-1.4-0.1-2c0-0.3,0-0.3,0.2-0.6l0.8-1
		c0.1-0.1,0.2-0.2,0.2-0.2c0.2,0.1,0.1,0.2,0.2,0.4l0.1,1.7c0,0.3,0,0.6-0.2,0.9c-0.1,0.1-0.7,0.7-0.9,1
		C142.7,31.7,142.7,31.5,142.6,31.1z"/>
	<path fill-rule="evenodd" clip-rule="evenodd" fill="#FFFFFF" d="M140.7,27.4c0,0-0.1,0.1,0,0.3c0,0.4,0.3,1.6,0.4,2
		c0,0.1,0.1,0.2,0.2,0.3c0.1,0.1,0.5,0.7,0.8,1c0.4,0.4,0.4,0.5,0.4-0.1c0-0.4-0.1-1.5-0.1-1.9c0-0.2-0.2-0.4-0.3-0.4
		c-0.2-0.2-0.7-0.6-1.1-0.9C140.8,27.5,140.7,27.4,140.7,27.4z"/>
	<path fill-rule="evenodd" clip-rule="evenodd" fill="#FFFFFF" d="M142.7,33.3c0-0.1,0-0.2,0-0.3c0-0.3,0-0.5,0-0.7
		c0-0.3,0-0.3,0.2-0.6l0.7-0.8c0.2-0.2,0.3-0.5,0.4-0.3c0.1,0.1,0.1,0.2,0.1,0.3c0,1.7-0.2,1.9-0.6,2.7c0,0.1-0.1,0.1-0.1,0.2
		C143.3,33.6,143,33.3,142.7,33.3z"/>
	<path fill-rule="evenodd" clip-rule="evenodd" fill="#FFFFFF" d="M139.4,32l0.3-0.3c0.1-0.3,0.1-0.8,0.3-1.1
		c0.1-0.2,0.3-0.3,0.5-0.3c0.2,0,0.4,0.1,0.5,0.2c0.2,0.2,0.3,0.3,0.3,0.5c0.1,0.2,0.1,0.4,0.2,0.8c0.3,0,0.6,0,0.7,0.2
		c0.2,0.2,0.2,0.6,0.2,0.8c0,0.2,0,0.5-0.1,0.7c0.3-0.1,0.5,0,0.7,0.2c0.1,0.2,0.2,0.4,0.2,0.6c0,0.3-0.1,0.7-0.3,1
		c0,0.1-0.1,0.1-0.2,0.2c0.2,0,0.3,0.1,0.4,0.1c0.1,0.1,0.2,0.2,0.2,0.3c0,0.1-0.1,0.3-0.1,0.5c-0.1,0.2-0.2,0.4-0.2,0.5
		c0.1,0.3,0.2,0.7,0.2,1c0,0.3-0.3,0.6-0.6,0.9c-0.2,0.2-0.3,0.3-0.4,0.4c-0.1,0.1-0.2,0.3-0.2,0.5c-0.1,0.3,0.1,0.6,0,0.8
		c0,0.1-0.1,0.2-0.2,0.3c-0.2,0.2-0.3,0.2-0.5,0.3c-0.1,0.1-0.2,0.1-0.3,0.3c-0.1,0.3-0.2,0.5-0.4,0.7c-0.1,0.2-0.3,0.3-0.6,0.5
		c-0.2,0.1-0.4,0.3-0.6,0.4l0.1-0.6l-0.3-3.4c-0.4-0.5-0.2-0.9-0.2-1.4c-0.3-0.5-0.9-1.1-0.5-1.8c0.1-0.1,0.1-0.2,0.3-0.3
		c-0.1-0.3-0.3-0.6-0.3-0.8c0-0.2,0-0.4,0.2-0.6c0.1-0.1,0.2-0.2,0.4-0.3c-0.1-0.3-0.3-0.4-0.3-0.6c-0.1-0.2-0.1-0.3,0-0.5
		c0.1-0.2,0.2-0.3,0.3-0.4C139.2,32.2,139.3,32.1,139.4,32z"/>
	<path fill-rule="evenodd" clip-rule="evenodd" fill="#FFFFFF" d="M102.1,17.1c0.2-0.3,0.4-0.5,0.6-0.8c0.2-0.2,0.2-0.1,0.2,0.3
		c0,0.6,0,1.2,0,1.6c0,0.2-0.2,0.5-0.5,1.1c-0.2,0.3-0.3,0.5-0.6,0.7c-0.2-0.4-0.4-1.6-0.4-1.9C101.4,17.9,101.6,17.6,102.1,17.1z"
		/>
	<path fill-rule="evenodd" clip-rule="evenodd" fill="#FFFFFF" d="M105.3,17.4c-0.3,0.2-0.9,0.4-1.4,0.6c-0.4,0.2-0.7,0.3-0.9,0.5
		c-0.5,0.5-0.7,1.2-1.1,1.7c1.1-0.1,1.6-0.4,2-0.6C104.6,19.2,104.9,18.4,105.3,17.4z"/>
	<path fill-rule="evenodd" clip-rule="evenodd" fill="#FFFFFF" d="M104.9,17c0.1-0.2,0.3-0.4,0.5-0.7c0.1-0.3,0.3-0.9,0-1.1
		c-0.5-0.3-1.3,0.1-1.6,0.6c-0.2,0.3-0.4,0.5-0.5,0.8c-0.2,0.4-0.5,1.4,0.2,1.4C104,17.9,104.6,17.4,104.9,17z"/>
	<path fill-rule="evenodd" clip-rule="evenodd" fill="#FFFFFF" d="M101.5,19.8c0-0.1-0.1-0.5-0.2-0.9c0-0.1-0.1-0.6-0.2-0.7
		c-0.1,0-0.4,0.5-0.4,0.6c-0.2,0.3-0.4,0.7-0.5,0.7c-0.2,0.6-0.4,0.9-0.3,1.5c0.2,0.6,0.5,1.6,0.7,1.5c0,0,0.5-1.2,0.8-1.8
		C101.7,20.2,101.6,20.4,101.5,19.8z"/>
	<path fill-rule="evenodd" clip-rule="evenodd" fill="#FFFFFF" d="M103.9,19.9c0.2,0-0.6,1.6-0.8,1.8c-0.1,0.1-0.3,0.3-0.5,0.4
		c-0.5,0.2-1.5,0.7-1.5,0.5c0,0,0.4-1.2,0.7-1.7c0.1-0.2,0.2-0.3,0.3-0.3C102.3,20.4,103.7,19.8,103.9,19.9z"/>
	<path fill-rule="evenodd" clip-rule="evenodd" fill="#FFFFFF" d="M100,21.7c0-0.1-0.2-0.6-0.3-0.6c-0.1,0-0.3,0.5-0.3,0.6
		c-0.2,0.5-0.5,1.1-0.5,1.6c0,0.2,0,0.4,0.1,0.7c0.1,0.3,0.3,0.7,0.5,1c0.4,0.6,0.5,0.3,0.6-0.1c0.1-0.4,0.2-0.8,0.3-1.2
		c0.1-0.2,0.1-0.4,0-0.6C100.4,22.6,100.2,22.2,100,21.7z"/>
	<path fill-rule="evenodd" clip-rule="evenodd" fill="#FFFFFF" d="M103,22c0.2,0-0.7,2-0.8,2.2c-0.1,0.2-0.3,0.3-0.5,0.4
		c-0.5,0.3-1.4,0.9-1.5,0.7c0,0,0.2-1.4,0.5-2c0.1-0.2,0.2-0.3,0.4-0.4C101.4,22.8,102.8,22,103,22z"/>
	<path fill-rule="evenodd" clip-rule="evenodd" fill="#FFFFFF" d="M99.6,27.8c0-0.3,0.1-0.6,0.1-0.9c0-0.3,0.1-0.5,0.1-0.6
		c0-0.2,0.1-0.3,0-0.5L99,24.4c-0.1-0.1-0.2-0.2-0.2-0.2c-0.1,0-0.1,0.1-0.2,0.2l-0.3,2c0,0.2,0,0.3,0.1,0.5
		c0.1,0.3,0.5,0.8,0.7,1.1C99.6,28.5,99.6,28.3,99.6,27.8z"/>
	<path fill-rule="evenodd" clip-rule="evenodd" fill="#FFFFFF" d="M102.1,24.5c0.2,0-0.4,2.1-0.6,2.3c-0.1,0.2-0.3,0.3-0.5,0.5
		c-0.5,0.4-1.2,1.1-1.3,0.9c0,0,0.1-1.4,0.3-2c0.1-0.2,0.2-0.4,0.3-0.4C100.7,25.6,101.9,24.6,102.1,24.5z"/>
	<path fill-rule="evenodd" clip-rule="evenodd" fill="#FFFFFF" d="M99.4,31.1c0.1-0.5,0.1-1.4,0.1-2c0-0.3,0-0.3-0.2-0.6l-0.8-1
		c-0.1-0.1-0.2-0.2-0.2-0.2c-0.2,0.1-0.1,0.2-0.2,0.4L98,29.4c0,0.3,0,0.6,0.2,0.9c0.1,0.1,0.7,0.7,0.9,1
		C99.4,31.7,99.4,31.5,99.4,31.1z"/>
	<path fill-rule="evenodd" clip-rule="evenodd" fill="#FFFFFF" d="M101.4,27.4c0,0,0.1,0.1,0,0.3c0,0.4-0.3,1.6-0.4,2
		c0,0.1-0.1,0.2-0.2,0.3c-0.1,0.1-0.5,0.7-0.8,1c-0.4,0.4-0.4,0.5-0.4-0.1c0-0.4,0.1-1.5,0.1-1.9c0-0.2,0.2-0.4,0.3-0.4
		c0.2-0.2,0.7-0.6,1.1-0.9C101.2,27.5,101.3,27.4,101.4,27.4z"/>
	<path fill-rule="evenodd" clip-rule="evenodd" fill="#FFFFFF" d="M99.3,33.3c0-0.1,0-0.2,0-0.3c0-0.3,0-0.5,0-0.7
		c0-0.3,0-0.3-0.2-0.6L98.4,31c-0.2-0.2-0.3-0.5-0.4-0.3c-0.1,0.1-0.1,0.2-0.1,0.3c0,1.7,0.2,1.9,0.6,2.7c0,0.1,0.1,0.1,0.1,0.2
		C98.8,33.6,99,33.3,99.3,33.3z"/>
	<path fill-rule="evenodd" clip-rule="evenodd" fill="#FFFFFF" d="M102.7,32l-0.3-0.3c-0.1-0.3-0.1-0.8-0.3-1.1
		c-0.1-0.2-0.3-0.3-0.5-0.3c-0.2,0-0.4,0.1-0.5,0.2c-0.2,0.2-0.3,0.3-0.3,0.5c-0.1,0.2-0.1,0.4-0.2,0.8c-0.3,0-0.6,0-0.7,0.2
		c-0.2,0.2-0.2,0.6-0.2,0.8c0,0.2,0,0.5,0.1,0.7c-0.3-0.1-0.5,0-0.7,0.2c-0.1,0.2-0.2,0.4-0.2,0.6c0,0.3,0.1,0.7,0.3,1
		c0,0.1,0.1,0.1,0.2,0.2c-0.2,0-0.3,0.1-0.4,0.1c-0.1,0.1-0.2,0.2-0.2,0.3c0,0.1,0.1,0.3,0.1,0.5c0.1,0.2,0.2,0.4,0.2,0.5
		c-0.1,0.3-0.2,0.7-0.2,1c0,0.3,0.3,0.6,0.6,0.9c0.2,0.2,0.3,0.3,0.4,0.4c0.1,0.1,0.2,0.3,0.2,0.5c0.1,0.3-0.1,0.6,0,0.8
		c0,0.1,0.1,0.2,0.2,0.3c0.2,0.2,0.3,0.2,0.5,0.3c0.1,0.1,0.2,0.1,0.3,0.3c0.1,0.3,0.2,0.5,0.4,0.7c0.1,0.2,0.3,0.3,0.6,0.5
		c0.2,0.1,0.4,0.3,0.6,0.4l-0.1-0.6l0.3-3.4c0.4-0.5,0.2-0.9,0.2-1.4c0.3-0.5,0.9-1.1,0.5-1.8c-0.1-0.1-0.1-0.2-0.3-0.3
		c0.1-0.3,0.3-0.6,0.3-0.8c0-0.2,0-0.4-0.2-0.6c-0.1-0.1-0.2-0.2-0.4-0.3c0.1-0.3,0.3-0.4,0.3-0.6c0.1-0.2,0.1-0.3,0-0.5
		c-0.1-0.2-0.2-0.3-0.3-0.4C102.8,32.2,102.7,32.1,102.7,32z"/>
	
		<path fill-rule="evenodd" clip-rule="evenodd" fill="#FFFFFF" stroke="#6466F5" stroke-width="0.182" stroke-miterlimit="22.9256" d="
		M137.3,38.1c0.1-0.1,0.3-0.1,0.4-0.1c0.4,0,0.7,0.1,0.8,0.7c0.1,0.4,0.1,0.8,0.1,1.1c0.1-0.1,0.2-0.3,0.4-0.3c0.1,0,0.2,0,0.4,0
		c0.2,0.1,0.3,0.3,0.3,0.5c0,0.2,0,0.5,0,0.7c0,0.2-0.1,0.3-0.2,0.5c0.3,0,0.5,0,0.6,0.1c0.1,0.1,0.1,0.3,0,0.6
		c-0.1,0.3-0.2,0.6-0.3,0.7l-0.3,0.3c0.2,0.2,0.4,0.3,0.4,0.4c0.1,0.2,0.1,0.4,0,0.6c-0.1,0.2-0.2,0.4-0.4,0.5
		c-0.3,0.2-0.6,0.4-0.9,0.6c0.1,0.3,0.2,0.4,0.2,0.5c-0.1,0.4-1.9,1.3-2.3,1.5c-0.5,0.8-0.5,0.7-1.4,1.1l-2.4,0.5l-1.4-1.9
		c0.8-1,1.7-2.3,2.6-3.1c-0.1-0.2-0.1-0.3-0.1-0.5c0-0.4,0.2-0.6,0.6-0.7c0.1,0,0.2,0,0.5,0c0-0.2,0.1-0.3,0.2-0.5
		c0.1-0.2,0.2-0.3,0.4-0.4c0.1,0,0.2,0,0.4-0.1c0.1-0.1,0.1-0.3,0.2-0.4c0.1-0.2,0.2-0.3,0.4-0.4c0.1,0,0.2,0,0.4-0.1
		c-0.1-0.3-0.1-0.6-0.2-0.8C136.8,39.3,136.8,38.3,137.3,38.1z"/>
	
		<path fill-rule="evenodd" clip-rule="evenodd" fill="#FFFFFF" stroke="#0082FF" stroke-width="0.182" stroke-miterlimit="22.9256" d="
		M104.7,38.1c-0.1-0.1-0.3-0.1-0.4-0.1c-0.4,0-0.7,0.1-0.8,0.7c-0.1,0.4-0.1,0.8-0.1,1.1c-0.1-0.1-0.2-0.3-0.4-0.3
		c-0.1,0-0.2,0-0.4,0c-0.2,0.1-0.3,0.3-0.3,0.5c0,0.2,0,0.5,0,0.7c0,0.2,0.1,0.3,0.2,0.5c-0.3,0-0.5,0-0.6,0.1
		c-0.1,0.1-0.1,0.3,0,0.6c0.1,0.3,0.2,0.6,0.3,0.7l0.3,0.3c-0.2,0.2-0.4,0.3-0.4,0.4c-0.1,0.2-0.1,0.4,0,0.6
		c0.1,0.2,0.2,0.4,0.4,0.5c0.3,0.2,0.6,0.4,0.9,0.6c-0.1,0.3-0.2,0.4-0.2,0.5c0.1,0.4,1.9,1.3,2.3,1.5c0.2,0.3,0.3,0.5,0.5,0.6
		c0.6,0.5,2.6,0.8,3.4,0.9l1.4-1.9c-0.8-1-1.7-2.3-2.6-3.1c0.1-0.2,0.1-0.3,0.1-0.5c0-0.4-0.2-0.6-0.6-0.7c-0.1,0-0.2,0-0.5,0
		c0-0.2-0.1-0.3-0.2-0.5c-0.1-0.2-0.2-0.3-0.4-0.4c-0.1,0-0.2,0-0.4-0.1c-0.1-0.1-0.1-0.3-0.2-0.4c-0.1-0.2-0.2-0.3-0.4-0.4
		c-0.1,0-0.2,0-0.4-0.1c0.1-0.3,0.1-0.6,0.2-0.8C105.2,39.3,105.2,38.3,104.7,38.1z"/>
	
		<path fill-rule="evenodd" clip-rule="evenodd" fill="#FFFFFF" stroke="#0082FF" stroke-width="0.1823" stroke-miterlimit="22.9256" d="
		M116.1,50.9l0.2,0.3l0.6,1.3l-2.3,0.1c-0.6-0.2-0.9-0.3-1.2-0.4c-0.2-0.1-0.4-0.3-0.7-0.7c-0.2,0-0.6,0-0.9-0.1
		c-0.5-0.1-0.5-0.3-0.7-0.8c-0.4-0.1-1.3-0.3-1.6-0.5c-0.3-0.1-0.4-0.3-0.4-0.4c0-0.2,0.1-0.5,0.1-0.7c-0.2,0-0.4-0.1-0.6-0.1
		c-0.2-0.1-0.5-0.2-0.6-0.4c-0.1-0.2-0.1-0.5,0-0.7c0.1-0.3,0.3-0.3,0.6-0.3c0.1,0,0.3,0,0.4,0.1c-0.2-0.3-0.7-0.4-1-0.7
		c-0.2-0.2-0.3-0.3-0.4-0.6c0-0.2,0-0.3,0.1-0.5c0.3-0.3,1.1,0,1.5,0.1c-0.2-0.3-0.5-0.6-0.7-1c-0.2-0.6,0-1.1,0.7-1.1
		c0.4,0,0.7,0.1,0.9,0.4c0.2,0.3,0.2,0.8,0.3,1.2c1.1-0.4,1-0.4,1.5,0.7c0.6,0.1,0.8,0.2,1,0.4c0.3,0.2,0.3,0.5,0.6,1.4
		c0.6,0.1,1,0.3,1.2,0.5c0.4,0.4,0.3,0.9,0.6,2L116.1,50.9z"/>
	
		<path fill-rule="evenodd" clip-rule="evenodd" fill="#FFFFFF" stroke="#6466F5" stroke-width="0.1823" stroke-miterlimit="22.9256" d="
		M125.9,50.9l-0.2,0.3l-0.6,1.3l2.3,0.1c0.6-0.2,0.9-0.3,1.2-0.4c0.2-0.1,0.4-0.3,0.7-0.7c0.2,0,0.6,0,0.9-0.1
		c0.5-0.1,0.5-0.3,0.7-0.8c0.4-0.1,1.3-0.3,1.6-0.5c0.3-0.1,0.4-0.3,0.4-0.4c0-0.2-0.1-0.5-0.1-0.7c0.2,0,0.4-0.1,0.6-0.1
		c0.2-0.1,0.5-0.2,0.6-0.4c0.1-0.2,0.1-0.5,0-0.7c-0.1-0.3-0.3-0.3-0.6-0.3c-0.1,0-0.3,0-0.4,0.1c0.2-0.3,0.7-0.4,1-0.7
		c0.2-0.2,0.3-0.3,0.4-0.6c0-0.2,0-0.3-0.1-0.5c-0.3-0.3-1.1,0-1.5,0.1c0.2-0.3,0.5-0.6,0.7-1c0.2-0.6,0-1.1-0.7-1.1
		c-0.4,0-0.7,0.1-0.9,0.4c-0.2,0.3-0.2,0.8-0.3,1.2c-1.1-0.4-1-0.4-1.5,0.7c-0.6,0.1-0.8,0.2-1,0.4c-0.3,0.2-0.3,0.5-0.6,1.4
		c-0.6,0.1-1,0.3-1.2,0.5c-0.4,0.4-0.3,0.9-0.6,2L125.9,50.9z"/>
	<path fill-rule="evenodd" clip-rule="evenodd" fill="#FFFFFF" d="M121.2,53.7c-0.1,0.1-0.2,0.1-0.3,0.1c-0.6,0.2-1.6,0-2.1-0.2
		c-0.6-0.1-1.2-0.3-1.9-0.6c-0.3-0.1-0.4-0.2-0.3-0.4c0-0.3,0.2-0.4,0.4-0.4c0.2,0,0.5,0.1,0.7,0.2L117,52c-0.5-0.4,0-0.7,0.2-0.6
		c0.3,0.1,0.6,0.4,1,0.6c-0.2-0.2-0.9-0.7-1.2-1.1c-0.2-0.2-0.2-0.5,0-0.7c0.2-0.2,0.4-0.1,0.6,0c0.3,0.2,0.5,0.5,0.7,0.6
		c-0.1-0.2-0.5-0.6-0.5-0.9c-0.1-0.4,0.3-0.7,0.6-0.6c0.2,0.1,0.3,0.2,0.4,0.3c0.2,0.3,0.3,0.6,0.5,0.9c-0.1-0.3-0.3-0.9-0.3-1.3
		c0-0.3,0.1-0.5,0.3-0.5c0.2,0,0.4,0.1,0.5,0.2c0.2,0.2,0.3,0.4,0.4,0.6c-0.1-0.4-0.1-1,0.1-1.4c0.1-0.2,0.4-0.4,0.7-0.4
		c0.3,0,0.7,0.2,0.9,0.5c0.2,0.4,0.1,1,0.1,1.4c0.1-0.2,0.2-0.5,0.4-0.8c0.3-0.5,1-0.5,1.1,0.1c0,0.2,0,0.4,0,0.6
		c-0.1,0.2-0.1,0.2-0.2,0.3c0.1-0.1,0.1-0.1,0.2-0.2c0.2-0.2,0.4-0.5,0.6-0.4c0.4,0.1,0.5,0.4,0.4,0.6c-0.1,0.2-0.2,0.5-0.4,0.7
		c0.3-0.2,0.6-0.7,1-0.4c0.3,0.2-0.1,0.6-0.2,0.9c0.8-0.5,1.1,0.2,0.5,0.6c-0.3,0.2-0.6,0.4-0.9,0.6c0.3-0.1,0.8-0.4,1.1-0.3
		c0.1,0,0.2,0.1,0.3,0.2c0.1,0.2,0,0.4-0.2,0.6c-0.6,0.4-1.3,0.7-2.1,0.9c-0.5,0.1-1.2,0.3-1.8,0.2
		C121.5,53.8,121.3,53.7,121.2,53.7z"/>
	<path fill="#FDFDFD" d="M119.6,31.8c0-0.7,0.4-0.8,0.9-0.8c1.6,0,3.3,0,4.9,0c2.9,0,5.2-1.3,6.8-3.8c1.1-1.8,1.3-3.7,1.3-5.7
		c-0.1-2.4-0.9-4.6-2.8-6.2c-0.9-0.7-2-1.4-3.1-1.6c-1.9-0.4-3.9-0.4-5.9-0.5c-2.1-0.1-4.1,0-6.2,0c-1.2,0-1.5,0.3-1.5,1.5
		c0,1.7,0,3.3,0,5c0,0,0,0,0,0c0,1.7,0,3.5,0,5.2c0,0.7-0.2,1-0.9,1l-3.4,0l0,5.2c0,0,3.2,0,3.5,0c0,0,0.5-0.1,0.6,0.3
		c0.1,0.6,0.1,1.4,0.1,2c0,0,0.1,6.4,0,6.4h5.6c0,0,0.1-3.1,0.1-3.1C119.6,35,119.7,33.4,119.6,31.8z M120.3,23.3c1.4,0,2.7,0,4.1,0
		c0.7,0,1.5,0,1.4-1.1c0-0.9-0.5-1.4-1.5-1.4c-1.3,0-2.7,0-4,0c-0.6,0-0.9-0.2-0.8-0.8c0.1-0.7-0.3-1.8,0.8-1.8
		c2.2-0.1,4.4-0.3,6.4,0.6c0.6,0.3,1.2,0.9,1.6,1.6c1.2,1.9-0.2,5.2-2.4,5.5c-1.1,0.2-2.2,0.2-3.2,0.2c0,0,0,0,0-0.1
		c-0.8,0-1.6,0-2.3,0c-1.1,0-0.8-0.8-0.8-1.5C119.5,23.9,119.4,23.3,120.3,23.3z"/>
	<g>
		<path fill-rule="evenodd" clip-rule="evenodd" fill="#fff" d="M14.1,23.4H9.7c-5.2,0-9,3.4-9,8.6c0,5.2,3.9,8.4,9,8.4h4.4V43H19v-2.5h4.4
			c5.2,0,9-3.3,9-8.4c0-5.2-3.9-8.6-9-8.6H19v-2.4h-4.9V23.4L14.1,23.4z M14.1,28v8H9.9c-2.5,0-4.3-1.3-4.3-4c0-2.7,1.6-4,4.3-4
			H14.1L14.1,28z M19,28h4.2c2.7,0,4.3,1.4,4.3,4c0,2.6-1.7,4-4.3,4H19V28L19,28z M36.2,21.1V43h4.8l13-15.1V43H59V21.1h-4.8
			l-13,15.2V21.1H36.2L36.2,21.1z M63.5,21.1V43h5v-9.1h12.4V43h5V21.1h-5v8.4H68.5v-8.4H63.5z"/>
		<path fill-rule="evenodd" clip-rule="evenodd" fill="#fff" d="M156.5,21.1V43h4.8V27.7h0.2l7.1,15.3h4.2l7.4-15.3h0.2V43h4.9V21.1H179L171,37
			h-0.2l-7.7-15.9H156.5L156.5,21.1z M201.8,25.5h1.7l4,9.9h-9.8L201.8,25.5L201.8,25.5z M198.7,21.1L189.1,43h5.3l1.4-3.3h13.5
			l1.4,3.3h5.2l-9.3-21.9H198.7L198.7,21.1z M219.8,21.1V43h5v-4.9h8c5.2,0,9-3.3,9-8.4c0-5.2-3.9-8.6-9-8.6H219.8L219.8,21.1z
			 M224.7,25.6h7.8c2.5,0,4.3,1.5,4.3,4.1c0,2.5-1.7,3.9-4.3,3.9h-7.8V25.6L224.7,25.6z M245.5,21.1V43h4.9v-9.3h6.5l5.7,9.3h5.9
			L261,31.2l7-10.2h-5.7l-5.5,8.1h-6.4v-8.1H245.5L245.5,21.1z M272,21.1V43h20.5v-4.6H277v-4.4h13.4v-4.5H277v-4h14.9v-4.5H272
			L272,21.1z M296,21.1v4.4h8.9V43h5V25.5h8.9v-4.4H296z"/>
	</g>
</g>
</svg>
