<?xml version="1.0" encoding="UTF-8"?>
<!DOCTYPE svg PUBLIC "-//W3C//DTD SVG 1.1//EN" "http://www.w3.org/Graphics/SVG/1.1/DTD/svg11.dtd">
<!-- Creator: CorelDRAW 2019 (64-Bit) -->
<svg xmlns="http://www.w3.org/2000/svg" xml:space="preserve" width="215px" height="203px" version="1.1" style="shape-rendering:geometricPrecision; text-rendering:geometricPrecision; image-rendering:optimizeQuality; fill-rule:evenodd; clip-rule:evenodd"
viewBox="0 0 215 203"
 xmlns:xlink="http://www.w3.org/1999/xlink"
 xmlns:xodm="http://www.corel.com/coreldraw/odm/2003">
 <defs>
  <style type="text/css">
   <![CDATA[
    .fil1 {fill:black}
    .fil0 {fill:black;fill-rule:nonzero}
   ]]>
  </style>
 </defs>
 <g id="Слой_x0020_1">
  <metadata id="CorelCorpID_0Corel-Layer"/>
  <g id="_2549146406864">
   <path class="fil0" d="M44.012 152.192c20.897,0 44.091,-11.46 44.091,-31.494l0 -6.299 -14.138 0.001 -19.167 -67.445c18.838,-3.371 27.546,-7.622 45.903,-8.427l-7.459 133.419c-27.848,7.667 -34.288,2.775 -48.177,27.088 41.965,5.413 83.243,5.337 123.864,0 -11.739,-24.761 -20.487,-19.763 -48.171,-27.088l-7.459 -133.419c18.338,0.804 27.103,5.062 45.903,8.427l-19.167 67.444 -14.138 0.001 0 6.298c0,20.092 23.281,31.494 44.091,31.494 20.796,0 44.512,-11.399 44.512,-31.494l0 -6.298 -14.558 0 -18.359 -64.604c9.033,0.738 19.787,1.195 32.917,1.195l0 -12.597c-37.793,0 -53.683,-11.64 -67.702,-21.91 -9.792,-7.172 -19.108,-13.994 -33.499,-15.551l-12.598 0c-14.391,1.557 -23.707,8.379 -33.499,15.551 -14.019,10.27 -29.909,21.91 -67.702,21.91l0 12.597c13.129,0 23.884,-0.457 32.917,-1.195l-18.359 64.604 -14.558 0 0 6.298c0,20.156 23.814,31.494 44.512,31.494l0 0zm0 -12.597c-13.314,0 -25.346,-5.415 -29.94,-12.602l59.561 0c-4.432,7.261 -16.209,12.601 -29.621,12.601l0 0.001zm125.976 0c-13.412,0 -25.189,-5.341 -29.622,-12.602l59.562 0c-4.594,7.187 -16.626,12.601 -29.94,12.601l0 0.001zm-16.857 -25.195l16.857 -59.318 16.857 59.318 -33.714 0zm-78.485 -87.753c10.258,-7.514 18.36,-13.449 32.354,-13.449 13.994,0 22.096,5.935 32.353,13.449 1.979,1.449 4.024,2.946 6.18,4.452 -13.628,-3.323 -22.672,-5.303 -38.533,-5.303 -15.878,0 -25.14,2.037 -38.533,5.303 2.156,-1.506 4.201,-3.003 6.179,-4.452zm-30.635 28.435l16.857 59.318 -33.713 0 16.856 -59.318z"/>
   <g>
    <path class="fil1" d="M107 16.141c8.327,0 15.077,6.75 15.077,15.078 0,8.327 -6.75,15.077 -15.077,15.077 -8.327,0 -15.078,-6.75 -15.078,-15.077 0,-8.328 6.751,-15.078 15.078,-15.078z"/>
    <path id="1" class="fil0" d="M122.36 31.219l-0.565 0 0 0 -0.019 -0.762 -0.058 -0.751 -0.094 -0.74 -0.13 -0.729 -0.165 -0.716 -0.199 -0.701 -0.233 -0.687 -0.265 -0.672 -0.296 -0.656 -0.326 -0.637 -0.357 -0.62 -0.384 -0.6 -0.413 -0.58 -0.439 -0.559 -0.465 -0.537 -0.49 -0.514 -0.514 -0.489 -0.537 -0.466 -0.559 -0.439 -0.58 -0.412 -0.6 -0.385 -0.62 -0.356 -0.638 -0.327 -0.655 -0.296 -0.672 -0.265 -0.687 -0.233 -0.702 -0.199 -0.716 -0.165 -0.728 -0.131 -0.741 -0.093 -0.752 -0.058 -0.761 -0.019 0 -0.568 0.79 0.02 0.78 0.059 0.769 0.098 0.756 0.135 0.743 0.172 0.729 0.207 0.714 0.241 0.698 0.275 0.68 0.308 0.662 0.339 0.643 0.37 0.624 0.399 0.602 0.429 0.58 0.456 0.557 0.482 0.534 0.509 0.508 0.533 0.483 0.558 0.456 0.58 0.428 0.602 0.4 0.623 0.37 0.644 0.339 0.662 0.308 0.681 0.275 0.697 0.242 0.714 0.206 0.73 0.172 0.743 0.135 0.756 0.098 0.769 0.059 0.78 0.02 0.791 0 0zm-15.36 15.361l0 -0.568 0 0 0.761 -0.019 0.752 -0.058 0.741 -0.093 0.728 -0.131 0.716 -0.165 0.702 -0.199 0.687 -0.233 0.672 -0.265 0.655 -0.296 0.638 -0.327 0.62 -0.356 0.6 -0.385 0.58 -0.412 0.559 -0.439 0.537 -0.466 0.514 -0.489 0.49 -0.514 0.465 -0.537 0.439 -0.559 0.413 -0.58 0.384 -0.6 0.357 -0.62 0.326 -0.637 0.296 -0.656 0.265 -0.672 0.233 -0.687 0.199 -0.701 0.165 -0.716 0.13 -0.728 0.094 -0.741 0.058 -0.751 0.019 -0.761 0.565 0 -0.02 0.79 -0.059 0.78 -0.098 0.769 -0.135 0.757 -0.172 0.742 -0.206 0.73 -0.242 0.714 -0.275 0.697 -0.308 0.681 -0.339 0.663 -0.37 0.643 -0.4 0.623 -0.428 0.602 -0.456 0.58 -0.483 0.558 -0.508 0.533 -0.534 0.509 -0.557 0.482 -0.58 0.457 -0.602 0.428 -0.624 0.399 -0.643 0.37 -0.662 0.339 -0.68 0.308 -0.698 0.275 -0.714 0.242 -0.729 0.206 -0.743 0.172 -0.756 0.135 -0.769 0.098 -0.78 0.059 -0.79 0.02 0 0zm-15.36 -15.361l0.565 0 0 0 0.019 0.761 0.057 0.751 0.094 0.741 0.131 0.728 0.165 0.716 0.199 0.701 0.233 0.687 0.264 0.672 0.297 0.656 0.326 0.637 0.356 0.62 0.385 0.6 0.412 0.58 0.44 0.559 0.465 0.537 0.49 0.514 0.513 0.489 0.537 0.466 0.559 0.439 0.58 0.412 0.601 0.385 0.619 0.356 0.638 0.327 0.656 0.296 0.671 0.265 0.688 0.233 0.702 0.199 0.715 0.165 0.729 0.131 0.741 0.093 0.751 0.058 0.762 0.019 0 0.568 -0.79 -0.02 -0.78 -0.059 -0.769 -0.098 -0.756 -0.135 -0.743 -0.172 -0.729 -0.206 -0.714 -0.242 -0.698 -0.275 -0.68 -0.308 -0.663 -0.339 -0.643 -0.37 -0.623 -0.399 -0.602 -0.428 -0.58 -0.457 -0.558 -0.482 -0.533 -0.509 -0.509 -0.533 -0.483 -0.558 -0.455 -0.58 -0.429 -0.602 -0.399 -0.623 -0.37 -0.643 -0.34 -0.663 -0.307 -0.681 -0.275 -0.697 -0.242 -0.714 -0.207 -0.73 -0.171 -0.742 -0.136 -0.757 -0.097 -0.769 -0.06 -0.78 -0.019 -0.79 0 0zm15.36 -15.362l0 0.568 0 0 -0.762 0.019 -0.751 0.058 -0.741 0.093 -0.729 0.131 -0.715 0.165 -0.702 0.199 -0.688 0.233 -0.671 0.265 -0.656 0.296 -0.638 0.327 -0.619 0.356 -0.601 0.385 -0.58 0.412 -0.559 0.439 -0.537 0.466 -0.513 0.489 -0.49 0.514 -0.465 0.537 -0.44 0.559 -0.412 0.58 -0.385 0.6 -0.356 0.62 -0.326 0.637 -0.297 0.656 -0.264 0.672 -0.233 0.687 -0.199 0.701 -0.165 0.716 -0.131 0.729 -0.094 0.74 -0.057 0.751 -0.019 0.762 -0.565 0 0.019 -0.791 0.06 -0.78 0.097 -0.769 0.136 -0.756 0.171 -0.743 0.207 -0.73 0.242 -0.714 0.275 -0.697 0.307 -0.681 0.34 -0.662 0.37 -0.644 0.399 -0.623 0.429 -0.602 0.455 -0.58 0.483 -0.558 0.509 -0.533 0.533 -0.509 0.558 -0.482 0.58 -0.456 0.602 -0.429 0.623 -0.399 0.643 -0.37 0.663 -0.339 0.68 -0.308 0.698 -0.275 0.714 -0.241 0.729 -0.207 0.743 -0.172 0.756 -0.135 0.769 -0.098 0.78 -0.059 0.79 -0.02 0 0z"/>
   </g>
  </g>
 </g>
</svg>
