<?xml version="1.0" encoding="UTF-8"?>
<!DOCTYPE svg PUBLIC "-//W3C//DTD SVG 1.1//EN" "http://www.w3.org/Graphics/SVG/1.1/DTD/svg11.dtd">
<!-- Creator: CorelDRAW 2020 (64-Bit) -->
<svg xmlns="http://www.w3.org/2000/svg" xml:space="preserve" width="375px" height="186px" version="1.1" style="shape-rendering:geometricPrecision; text-rendering:geometricPrecision; image-rendering:optimizeQuality; fill-rule:evenodd; clip-rule:evenodd"
viewBox="0 0 19.49 9.66"
 xmlns:xlink="http://www.w3.org/1999/xlink"
 xmlns:xodm="http://www.corel.com/coreldraw/odm/2003">
 <defs>
  <style type="text/css">
   <![CDATA[
    .str2 {stroke:#F4F6FE;stroke-width:0.04;stroke-miterlimit:10}
    .str1 {stroke:#6EE0D2;stroke-width:0.03;stroke-miterlimit:10}
    .str3 {stroke:#F4F6FE;stroke-width:0.03;stroke-miterlimit:10}
    .str0 {stroke:white;stroke-width:0.03;stroke-miterlimit:10}
    .fil25 {fill:none}
    .fil6 {fill:none;fill-rule:nonzero}
    .fil0 {fill:#F4F6FE}
    .fil9 {fill:#00645D;fill-rule:nonzero}
    .fil18 {fill:#00B3AC;fill-rule:nonzero}
    .fil10 {fill:#111A23;fill-rule:nonzero}
    .fil11 {fill:#2D3F59;fill-rule:nonzero}
    .fil4 {fill:#6EE0D2;fill-rule:nonzero}
    .fil3 {fill:#7478F5;fill-rule:nonzero}
    .fil21 {fill:#7E9CC3;fill-rule:nonzero}
    .fil16 {fill:#BCBCBC;fill-rule:nonzero}
    .fil13 {fill:#DFDFDF;fill-rule:nonzero}
    .fil23 {fill:#EFEFFB;fill-rule:nonzero}
    .fil8 {fill:#F4F6FE;fill-rule:nonzero}
    .fil2 {fill:#F67F4B;fill-rule:nonzero}
    .fil12 {fill:#FF6060;fill-rule:nonzero}
    .fil5 {fill:white;fill-rule:nonzero}
    .fil24 {fill:#00B3AC;fill-rule:nonzero;fill-opacity:0.541176}
    .fil1 {fill:#DCEAFF;fill-rule:nonzero;fill-opacity:0.701961}
    .fil20 {fill:#008E8A;fill-rule:nonzero}
    .fil17 {fill:#BCBCBC;fill-rule:nonzero}
    .fil15 {fill:#C1C1C1;fill-rule:nonzero}
    .fil14 {fill:#EFEFEF;fill-rule:nonzero}
    .fil22 {fill:url(#id11);fill-rule:nonzero}
    .fil19 {fill:url(#id12);fill-rule:nonzero}
    .fil7 {fill:url(#id13);fill-rule:nonzero}
   ]]>
  </style>
   <clipPath id="id0">
    <path d="M0 0l19.49 0 0 9.66 -19.49 0 0 -9.66z"/>
   </clipPath>
      <mask id="id1">
  <linearGradient id="id2" gradientUnits="userSpaceOnUse" x1="15.21" y1="8" x2="15.23" y2="6.62">
   <stop offset="0" style="stop-opacity:1; stop-color:white"/>
   <stop offset="1" style="stop-opacity:0; stop-color:white"/>
  </linearGradient>
       <rect style="fill:url(#id2)" x="11.04" y="5.03" width="8.39" height="2.83"/>
      </mask>
      <mask id="id3">
  <linearGradient id="id4" gradientUnits="userSpaceOnUse" x1="16.97" y1="5.58" x2="15.48" y2="5.63">
   <stop offset="0" style="stop-opacity:1; stop-color:white"/>
   <stop offset="1" style="stop-opacity:0; stop-color:white"/>
  </linearGradient>
       <rect style="fill:url(#id4)" x="14.57" y="5.21" width="3.27" height="0.8"/>
      </mask>
      <mask id="id5">
  <linearGradient id="id6" gradientUnits="userSpaceOnUse" x1="19.14" y1="6.72" x2="17.94" y2="6.69">
   <stop offset="0" style="stop-opacity:1; stop-color:white"/>
   <stop offset="1" style="stop-opacity:0; stop-color:white"/>
  </linearGradient>
       <rect style="fill:url(#id6)" x="17.57" y="6.57" width="1.47" height="0.26"/>
      </mask>
      <mask id="id7">
  <linearGradient id="id8" gradientUnits="userSpaceOnUse" x1="19.16" y1="7.34" x2="18.16" y2="7.35">
   <stop offset="0" style="stop-opacity:1; stop-color:white"/>
   <stop offset="1" style="stop-opacity:0; stop-color:white"/>
  </linearGradient>
       <rect style="fill:url(#id8)" x="17.66" y="6.9" width="1.59" height="0.89"/>
      </mask>
      <mask id="id9">
  <linearGradient id="id10" gradientUnits="userSpaceOnUse" x1="17.42" y1="7.43" x2="16.64" y2="7.32">
   <stop offset="0" style="stop-opacity:1; stop-color:white"/>
   <stop offset="1" style="stop-opacity:0; stop-color:white"/>
  </linearGradient>
       <rect style="fill:url(#id10)" x="16.48" y="7.07" width="0.87" height="0.57"/>
      </mask>
  <linearGradient id="id11" gradientUnits="userSpaceOnUse" x1="16.97" y1="5.58" x2="15.48" y2="5.63">
   <stop offset="0" style="stop-opacity:1; stop-color:#7E9CC3"/>
   <stop offset="1" style="stop-opacity:1; stop-color:#7E9CC3"/>
  </linearGradient>
  <linearGradient id="id12" gradientUnits="userSpaceOnUse" x1="15.21" y1="8" x2="15.23" y2="6.62">
   <stop offset="0" style="stop-opacity:1; stop-color:#008E8A"/>
   <stop offset="1" style="stop-opacity:1; stop-color:#00B3AC"/>
  </linearGradient>
  <linearGradient id="id13" gradientUnits="userSpaceOnUse" x1="25.72" y1="4.58" x2="18.31" y2="7.11">
   <stop offset="0" style="stop-opacity:1; stop-color:#00A9C7"/>
   <stop offset="1" style="stop-opacity:1; stop-color:#8C5CE6"/>
  </linearGradient>
 </defs>
 <g id="Слой_x0020_1">
  <metadata id="CorelCorpID_0Corel-Layer"/>
  <polygon class="fil0" points="0,0 19.49,0 19.49,9.66 0,9.66 "/>
  <g style="clip-path:url(#id0)">
   <g id="_2657004037232">
    <path id="1" class="fil1" d="M11.91 7.43c-1.44,-1.91 1.36,-2.44 3.45,-2.73 1.38,-0.19 1.41,-1.59 3.61,-1.65 2.02,-0.05 3,0.94 3.32,2.17 1.27,4.95 -9.37,3.54 -10.38,2.21z"/>
    <g>
     <polygon class="fil2" points="16.09,4.71 18.06,4.71 18.06,4.36 16.09,4.36 "/>
     <polygon class="fil3" points="19.92,6.36 15.58,6.36 15.58,4.09 19.92,4.09 "/>
     <g>
      <polygon class="fil4" points="19.42,6.08 18.63,6.08 18.63,5.94 19.42,5.94 "/>
      <polygon class="fil4" points="19.42,5.82 18.99,5.82 18.99,5.76 19.42,5.76 "/>
      <polygon class="fil4" points="19.42,5.72 19.14,5.72 19.14,5.66 19.42,5.66 "/>
      <path class="fil4" d="M19.3 5.35l-0.43 0c-0.06,0 -0.12,-0.06 -0.12,-0.12l0 -0.01c0,-0.07 0.06,-0.12 0.12,-0.12l0.43 0c0.07,0 0.12,0.05 0.12,0.12l0 0.01c0,0.06 -0.05,0.12 -0.12,0.12z"/>
      <path class="fil5" d="M19.26 4.44c0,0.02 -0.02,0.04 -0.04,0.04 -0.02,0 -0.04,-0.02 -0.04,-0.04 0,-0.03 0.02,-0.05 0.04,-0.05 0.02,0 0.04,0.02 0.04,0.05z"/>
      <path class="fil5" d="M19.42 4.44c0,0.02 -0.02,0.04 -0.04,0.04 -0.02,0 -0.04,-0.02 -0.04,-0.04 0,-0.03 0.02,-0.05 0.04,-0.05 0.02,0 0.04,0.02 0.04,0.05z"/>
     </g>
     <polygon class="fil5" points="16.08,4.37 16.87,4.37 16.87,4.51 16.08,4.51 "/>
     <polygon class="fil5" points="16.08,4.63 16.51,4.63 16.51,4.69 16.08,4.69 "/>
     <path class="fil5" d="M16.24 6.01c0,-0.02 0.02,-0.04 0.04,-0.04 0.02,0 0.04,0.02 0.04,0.04 0,0.03 -0.02,0.05 -0.04,0.05 -0.02,0 -0.04,-0.02 -0.04,-0.05z"/>
     <path class="fil5" d="M16.08 6.01c0,-0.02 0.02,-0.04 0.04,-0.04 0.02,0 0.04,0.02 0.04,0.04 0,0.03 -0.02,0.05 -0.04,0.05 -0.02,0 -0.04,-0.02 -0.04,-0.05z"/>
     <line class="fil6 str0" x1="19.78" y1="6" x2="19.78" y2= "4.45" />
     <path class="fil6 str0" d="M19.78 4.45c-0.12,0 -0.22,-0.1 -0.22,-0.21"/>
     <g>
      <line class="fil6 str0" x1="19.56" y1="4.24" x2="15.89" y2= "4.24" />
      <path class="fil6 str0" d="M15.89 4.24c0,0.1 -0.07,0.18 -0.17,0.21"/>
      <line class="fil6 str0" x1="15.72" y1="4.45" x2="15.72" y2= "6" />
     </g>
     <line class="fil6 str0" x1="15.89" y1="6.21" x2="19.56" y2= "6.21" />
     <path class="fil6 str1" d="M19.56 6.21c0,-0.12 0.1,-0.21 0.22,-0.21"/>
     <path class="fil6 str2" d="M18.35 5.22c0,0.34 -0.27,0.61 -0.6,0.61 -0.33,0 -0.6,-0.27 -0.6,-0.61 0,-0.33 0.27,-0.6 0.6,-0.6 0.33,0 0.6,0.27 0.6,0.6z"/>
     <polygon class="fil7" points="20.81,7 16.46,7 16.46,4.73 20.81,4.73 "/>
     <g>
      <polygon class="fil8" points="20.31,6.72 19.52,6.72 19.52,6.58 20.31,6.58 "/>
      <polygon class="fil8" points="20.31,6.46 19.87,6.46 19.87,6.4 20.31,6.4 "/>
      <polygon class="fil8" points="20.31,6.35 20.03,6.35 20.03,6.29 20.31,6.29 "/>
      <path class="fil8" d="M20.18 5.99l-0.42 0c-0.07,0 -0.13,-0.06 -0.13,-0.12l0 -0.01c0,-0.07 0.06,-0.12 0.13,-0.12l0.42 0c0.07,0 0.13,0.05 0.13,0.12l0 0.01c0,0.06 -0.06,0.12 -0.13,0.12z"/>
      <path class="fil5" d="M20.15 5.07c0,0.03 -0.02,0.05 -0.05,0.05 -0.02,0 -0.04,-0.02 -0.04,-0.05 0,-0.02 0.02,-0.04 0.04,-0.04 0.03,0 0.05,0.02 0.05,0.04z"/>
      <path class="fil5" d="M20.31 5.07c0,0.03 -0.02,0.05 -0.05,0.05 -0.02,0 -0.04,-0.02 -0.04,-0.05 0,-0.02 0.02,-0.04 0.04,-0.04 0.03,0 0.05,0.02 0.05,0.04z"/>
     </g>
     <line class="fil6 str3" x1="20.66" y1="6.64" x2="20.66" y2= "5.09" />
     <path class="fil6 str3" d="M20.66 5.09c-0.12,0 -0.22,-0.1 -0.22,-0.22"/>
     <line class="fil6 str3" x1="20.44" y1="4.87" x2="16.83" y2= "4.87" />
     <line class="fil6 str3" x1="16.83" y1="6.85" x2="20.44" y2= "6.85" />
     <path class="fil6 str3" d="M20.44 6.85c0,-0.12 0.1,-0.21 0.22,-0.21"/>
     <path class="fil6 str2" d="M19.24 5.86c0,0.34 -0.27,0.61 -0.61,0.61 -0.33,0 -0.6,-0.27 -0.6,-0.61 0,-0.33 0.27,-0.6 0.6,-0.6 0.34,0 0.61,0.27 0.61,0.6z"/>
     <path class="fil8" d="M19.13 5.86c0,0.28 -0.22,0.5 -0.5,0.5 -0.27,0 -0.5,-0.22 -0.5,-0.5 0,-0.27 0.23,-0.5 0.5,-0.5 0.28,0 0.5,0.23 0.5,0.5z"/>
     <path class="fil3" d="M18.43 5.91l0.06 0 0 0.05 -0.06 0 0 0.07 0.06 0 0 0.1 0.11 0 0 -0.1 0.13 0 0 -0.07 -0.13 0 0 -0.05 0.07 0c0.07,0 0.11,-0.02 0.14,-0.05 0.03,-0.03 0.05,-0.07 0.05,-0.11 0,-0.05 -0.02,-0.09 -0.06,-0.11 -0.03,-0.02 -0.07,-0.03 -0.12,-0.03l-0.19 0 0 0.22 -0.06 0 0 0.08zm0.31 -0.15c0,0.02 -0.01,0.04 -0.03,0.05 -0.01,0.02 -0.04,0.02 -0.08,0.02l-0.03 0 0 -0.14 0.02 0c0.04,0 0.06,0 0.08,0.01 0.02,0.01 0.04,0.03 0.04,0.06z"/>
     <line class="fil6 str0" x1="16.62" y1="6.64" x2="16.62" y2= "5.09" />
     <path class="fil6 str3" d="M16.62 5.09c0.12,0 0.22,-0.1 0.22,-0.22"/>
     <path class="fil6 str0" d="M16.84 6.85c0,-0.12 -0.1,-0.21 -0.22,-0.21"/>
     <polygon class="fil5" points="16.96,5.09 17.75,5.09 17.75,5.24 16.96,5.24 "/>
     <polygon class="fil5" points="16.96,5.36 17.39,5.36 17.39,5.42 16.96,5.42 "/>
    </g>
    <g>
     <polygon class="fil9" points="11.38,7.64 12.39,7.64 12.39,6.7 11.26,6.7 11.26,7.51 "/>
     <path class="fil10" d="M19.04 7.56c0,0.4 -0.25,0.73 -0.57,0.73 -0.32,0 -0.57,-0.33 -0.57,-0.73 0,-0.4 0.25,-0.73 0.57,-0.73 0.32,0 0.57,0.33 0.57,0.73z"/>
     <polygon class="fil10" points="18.27,8.29 18.47,8.29 18.47,6.83 18.27,6.83 "/>
     <path class="fil10" d="M12.52 7.51c0,0.35 -0.19,0.64 -0.43,0.64 -0.23,0 -0.42,-0.29 -0.42,-0.64 0,-0.36 0.19,-0.65 0.42,-0.65 0.24,0 0.43,0.29 0.43,0.65z"/>
     <polygon class="fil10" points="12.09,8.15 11.8,8.15 11.8,6.86 12.09,6.86 "/>
     <path class="fil10" d="M15.11 7.42c0,0.37 -0.23,0.66 -0.52,0.66 -0.28,0 -0.52,-0.29 -0.52,-0.66 0,-0.36 0.24,-0.66 0.52,-0.66 0.29,0 0.52,0.3 0.52,0.66z"/>
     <polygon class="fil10" points="14.41,8.08 14.59,8.08 14.59,6.76 14.41,6.76 "/>
     <path class="fil11" d="M14.93 7.42c0,0.37 -0.23,0.66 -0.52,0.66 -0.28,0 -0.52,-0.29 -0.52,-0.66 0,-0.36 0.24,-0.66 0.52,-0.66 0.29,0 0.52,0.3 0.52,0.66z"/>
     <polygon class="fil9" points="15.03,7.86 14.75,7.53 14.75,6.86 15.45,6.57 16.05,6.73 16.31,7.56 16.16,7.79 "/>
     <path class="fil10" d="M16.48 7.59c0,0.4 -0.25,0.73 -0.57,0.73 -0.32,0 -0.57,-0.33 -0.57,-0.73 0,-0.4 0.25,-0.73 0.57,-0.73 0.32,0 0.57,0.33 0.57,0.73z"/>
     <polygon class="fil10" points="15.56,8.32 15.91,8.32 15.91,6.86 15.56,6.86 "/>
     <path class="fil12" d="M11.31 6.03c0,0 -0.13,0.05 -0.16,0.09l0 0.22 0.03 0.05 0.19 -0.1 0 -0.23 -0.06 -0.03z"/>
     <path class="fil11" d="M12.23 7.51c0,0.35 -0.19,0.64 -0.43,0.64 -0.24,0 -0.43,-0.29 -0.43,-0.64 0,-0.36 0.19,-0.65 0.43,-0.65 0.24,0 0.43,0.29 0.43,0.65z"/>
     <path class="fil13" d="M12.11 7.51c0,0.25 -0.14,0.46 -0.31,0.46 -0.17,0 -0.31,-0.21 -0.31,-0.46 0,-0.26 0.14,-0.47 0.31,-0.47 0.17,0 0.31,0.21 0.31,0.47z"/>
     <path class="fil14" d="M11.8 7.11c0.16,0 0.29,0.19 0.31,0.43 0,-0.01 0,-0.02 0,-0.03 0,-0.26 -0.14,-0.47 -0.31,-0.47 -0.17,0 -0.31,0.21 -0.31,0.47 0,0.01 0,0.02 0,0.03 0.02,-0.24 0.15,-0.43 0.31,-0.43z"/>
     <path class="fil15" d="M11.8 7.9c-0.16,0 -0.29,-0.19 -0.31,-0.43 0,0.01 0,0.02 0,0.04 0,0.25 0.14,0.46 0.31,0.46 0.17,0 0.31,-0.21 0.31,-0.46 0,-0.02 0,-0.03 0,-0.04 -0.02,0.24 -0.15,0.43 -0.31,0.43z"/>
     <path class="fil11" d="M16.13 7.59c0,0.4 -0.26,0.73 -0.57,0.73 -0.32,0 -0.58,-0.33 -0.58,-0.73 0,-0.4 0.26,-0.73 0.58,-0.73 0.31,0 0.57,0.33 0.57,0.73z"/>
     <path class="fil13" d="M16 7.59c0,0.31 -0.2,0.56 -0.44,0.56 -0.25,0 -0.45,-0.25 -0.45,-0.56 0,-0.31 0.2,-0.56 0.45,-0.56 0.24,0 0.44,0.25 0.44,0.56z"/>
     <path class="fil14" d="M15.56 7.1c0.23,0 0.42,0.23 0.44,0.52 0,-0.01 0,-0.02 0,-0.03 0,-0.31 -0.2,-0.56 -0.44,-0.56 -0.25,0 -0.45,0.25 -0.45,0.56 0,0.01 0,0.02 0.01,0.03 0.01,-0.29 0.2,-0.52 0.44,-0.52z"/>
     <path class="fil15" d="M15.56 8.08c-0.24,0 -0.43,-0.23 -0.44,-0.53 -0.01,0.02 -0.01,0.03 -0.01,0.04 0,0.31 0.2,0.56 0.45,0.56 0.24,0 0.44,-0.25 0.44,-0.56 0,-0.01 0,-0.02 0,-0.04 -0.02,0.3 -0.21,0.53 -0.44,0.53z"/>
     <path class="fil11" d="M18.84 7.56c0,0.4 -0.25,0.73 -0.57,0.73 -0.32,0 -0.57,-0.33 -0.57,-0.73 0,-0.4 0.25,-0.73 0.57,-0.73 0.32,0 0.57,0.33 0.57,0.73z"/>
     <path class="fil16" d="M18.71 7.56c0,0.31 -0.2,0.55 -0.44,0.55 -0.24,0 -0.44,-0.24 -0.44,-0.55 0,-0.31 0.2,-0.56 0.44,-0.56 0.24,0 0.44,0.25 0.44,0.56z"/>
     <path class="fil17" d="M17.93 7.91l0.68 0c0.05,-0.07 0.08,-0.16 0.09,-0.27l-0.86 0c0.01,0.11 0.04,0.2 0.09,0.27z"/>
     <path class="fil18" d="M11.31 6.03c0,0 0.05,-0.09 0.2,-0.16 0.16,-0.06 0.29,-0.1 0.41,-0.2 0.13,-0.1 0.87,-0.49 1.38,-0.58 0.5,-0.08 1.26,-0.06 1.26,-0.06 0,0 1.48,0.04 1.97,0.22 0.5,0.18 1.42,0.73 1.42,0.73l1.25 0.53 0.11 0.28 0.12 0.15c0,0 0,0.38 -0.16,0.61l0.13 0.09 -0.06 0.15 -3.18 0c0,0 -0.01,-0.51 -0.22,-0.82 -0.22,-0.31 -0.5,-0.26 -0.5,-0.26 0,0 -0.44,0.08 -0.48,0.66 -0.01,0.24 0.02,0.39 0.07,0.49l-2.71 -0.09c0,0 -0.07,-0.13 -0.1,-0.39 -0.03,-0.26 -0.15,-0.63 -0.47,-0.66 -0.31,-0.03 -0.39,0.41 -0.39,0.41 0,0 -0.04,0.35 0.02,0.51l-0.26 -0.1c0,0 -0.18,-0.38 0,-1.07l0.19 -0.28 0 -0.16z"/>
     <path class="fil19" style="mask:url(#id1)" d="M11.31 6.03c0,0 0.05,-0.09 0.2,-0.16 0.16,-0.06 0.29,-0.1 0.41,-0.2 0.13,-0.1 0.87,-0.49 1.38,-0.58 0.5,-0.08 1.26,-0.06 1.26,-0.06 0,0 1.48,0.04 1.97,0.22 0.5,0.18 1.42,0.73 1.42,0.73l1.25 0.53 0.11 0.28 0.12 0.15c0,0 0,0.38 -0.16,0.61l0.13 0.09 -0.06 0.15 -3.18 0c0,0 -0.01,-0.51 -0.22,-0.82 -0.22,-0.31 -0.5,-0.26 -0.5,-0.26 0,0 -0.44,0.08 -0.48,0.66 -0.01,0.24 0.02,0.39 0.07,0.49l-2.71 -0.09c0,0 -0.07,-0.13 -0.1,-0.39 -0.03,-0.26 -0.15,-0.63 -0.47,-0.66 -0.31,-0.03 -0.39,0.41 -0.39,0.41 0,0 -0.04,0.35 0.02,0.51l-0.26 -0.1c0,0 -0.18,-0.38 0,-1.07l0.19 -0.28 0 -0.16z"/>
     <path class="fil20" d="M12.28 7.16c0,0.01 0.01,0.02 0.02,0.03 0.11,0.04 0.7,0.28 1.14,0.32 0.5,0.03 1.37,0.12 1.37,0.12 0,0 -1.33,-0.44 -2.49,-0.51 -0.02,0 -0.04,0.02 -0.04,0.04z"/>
     <path class="fil20" d="M11.18 6.39l0.26 0.34c0,0 0.06,-0.13 0.29,-0.16 0.22,-0.03 0.37,0.19 0.37,0.19 0.23,-0.29 1.03,-0.26 1.6,-0.13 0.56,0.12 1.32,0.17 1.32,0.17 0.07,-0.14 0.32,-0.23 0.32,-0.23 -0.03,0.01 -0.08,0 -0.12,0 -0.12,0 -0.24,-0.01 -0.36,-0.02 -0.45,-0.06 -0.88,-0.18 -1.32,-0.23 -0.36,-0.04 -0.72,-0.07 -1.08,-0.1 -0.07,-0.01 -1.15,-0.08 -1.15,-0.09l0 0.06 -0.13 0.2z"/>
     <path class="fil21" d="M12.01 5.75c0,0 0.45,-0.44 1.39,-0.56 0.94,-0.12 1.13,0.18 1.13,0.18l0.67 0.63c0,0 0.16,0.16 -0.17,0.15 -0.33,-0.01 -2.95,-0.28 -2.95,-0.28 0,0 -0.13,-0.01 -0.07,-0.12z"/>
     <path class="fil21" d="M14.57 5.22c0,0 0.49,0.38 0.69,0.58 0.2,0.2 0.49,0.17 0.49,0.17l2.09 0.04c0,0 -0.9,-0.57 -1.4,-0.75 0,0 -0.94,-0.08 -1.87,-0.04z"/>
     <path class="fil22" style="mask:url(#id3)" d="M14.57 5.22c0,0 0.49,0.38 0.69,0.58 0.2,0.2 0.49,0.17 0.49,0.17l2.09 0.04c0,0 -0.9,-0.57 -1.4,-0.75 0,0 -0.94,-0.08 -1.87,-0.04z"/>
     <path class="fil23" d="M15.3 5.41l-0.49 0 0 0c0.16,0.13 0.35,0.28 0.45,0.39 0.18,0.17 0.41,0.17 0.47,0.17 0,0 -0.14,-0.32 -0.2,-0.43 -0.06,-0.12 -0.23,-0.13 -0.23,-0.13z"/>
     <polygon class="fil5" points="19.2,6.51 19.07,6.57 19.07,6.8 19.31,6.79 "/>
     <polygon class="fil5" points="16.05,6.36 17.5,6.58 17.7,6.78 16.51,6.74 "/>
     <path class="fil11" d="M17.57 6.57l0.23 0.21c0,0 0.7,0.1 1.22,0.02l0.02 -0.23c0,0 -0.26,0.15 -1.47,0z"/>
     <path class="fil10" style="mask:url(#id5)" d="M17.57 6.57l0.23 0.21c0,0 0.7,0.1 1.22,0.02l0.02 -0.23c0,0 -0.26,0.15 -1.47,0z"/>
     <path class="fil11" d="M17.66 7.79l0.2 -0.88c0,0 0.95,0.02 1.13,-0.01l0.26 0.89 -1.59 0z"/>
     <path class="fil10" style="mask:url(#id7)" d="M17.66 7.79l0.2 -0.88c0,0 0.95,0.02 1.13,-0.01l0.26 0.89 -1.59 0z"/>
     <path class="fil11" d="M16.63 7.07c0,0 -0.15,0.27 -0.15,0.54l0.69 0.03 0.18 -0.08 -0.2 -0.3 -0.52 -0.19z"/>
     <path class="fil10" style="mask:url(#id9)" d="M16.63 7.07c0,0 -0.15,0.27 -0.15,0.54l0.69 0.03 0.18 -0.08 -0.2 -0.3 -0.52 -0.19z"/>
     <path class="fil23" d="M16.17 5.98l-0.29 -0.57c0,0 0.7,0 1.34,0.58l-1.05 -0.01z"/>
     <path class="fil21" d="M15.36 5.88c-0.01,-0.05 -0.02,-0.12 -0.03,-0.2 -0.01,-0.11 -0.14,-0.12 -0.14,-0.12l-0.2 0 0 0c0.1,0.08 0.21,0.17 0.27,0.24 0.04,0.03 0.07,0.06 0.1,0.08z"/>
     <path class="fil23" d="M13.88 5.43c-0.13,0.25 -0.13,0.61 -0.13,0.61 0.58,0.05 1.14,0.1 1.28,0.11 0.03,0 0.06,0 0.09,0 -0.3,-0.68 -1.24,-0.72 -1.24,-0.72z"/>
     <path class="fil11" d="M14.75 5.57c0,0 -0.06,0.29 -0.04,0.56 0.15,0.01 0.26,0.02 0.32,0.02 0.33,0.01 0.17,-0.15 0.17,-0.15l-0.45 -0.43z"/>
     <path class="fil23" d="M13.45 6.01l0.02 -0.62c-0.46,0.05 -0.79,0.19 -0.91,0.24 -0.13,0.06 -0.17,0.28 -0.17,0.28 0.26,0.02 0.65,0.06 1.06,0.1z"/>
     <path class="fil11" d="M12.23 5.89c-0.03,-0.16 0.05,-0.33 0.05,-0.33 -0.18,0.1 -0.27,0.19 -0.27,0.19 -0.06,0.11 0.07,0.12 0.07,0.12 0,0 0.05,0.01 0.15,0.02z"/>
     <path class="fil21" d="M13.05 5.61c0,0 -0.17,-0.03 -0.29,0.03 -0.12,0.05 -0.15,0.29 -0.15,0.29l0 0c0.14,0.01 0.3,0.03 0.47,0.04 0.07,-0.32 -0.03,-0.36 -0.03,-0.36z"/>
     <g>
      <path class="fil18" d="M14.98 7.72c-0.16,0 -0.33,-0.01 -0.49,-0.02 -0.17,0 -0.33,-0.01 -0.5,-0.02 -0.33,-0.02 -0.66,-0.04 -0.99,-0.07 -0.04,-0.01 -0.08,-0.01 -0.12,-0.02l-0.06 0c-0.02,-0.01 -0.04,-0.01 -0.06,-0.01l-0.06 -0.01c-0.02,-0.01 -0.05,-0.01 -0.07,-0.02 -0.04,0 -0.08,-0.02 -0.11,-0.04 -0.08,-0.05 -0.13,-0.11 -0.18,-0.18 -0.05,-0.06 -0.09,-0.14 -0.13,-0.21 -0.06,-0.15 -0.11,-0.31 -0.14,-0.48 -0.03,-0.16 -0.05,-0.32 -0.04,-0.49l0 0 0 0 0.13 -0.27 -0.13 0.27 0 0c0,0.08 0.01,0.17 0.01,0.25 0.01,0.08 0.02,0.16 0.04,0.24 0.03,0.16 0.08,0.32 0.15,0.47 0.03,0.08 0.07,0.15 0.12,0.21 0.05,0.07 0.11,0.13 0.18,0.17 0.03,0.02 0.07,0.04 0.11,0.05 0.02,0 0.04,0.01 0.06,0.01l0.06 0.01c0.02,0 0.04,0.01 0.06,0.01l0.06 0.01c0.04,0 0.08,0.01 0.12,0.01 0.33,0.04 0.66,0.06 0.99,0.08 0.17,0.01 0.33,0.02 0.5,0.03 0.16,0.01 0.33,0.01 0.49,0.02z"/>
     </g>
     <g>
      <path class="fil18" d="M13.41 6.01l-0.04 0.15c-0.01,0.05 -0.02,0.09 -0.04,0.14l0 0 0.01 0.17 0 0.16c0,0.12 0,0.23 0,0.34 0,0.11 0.01,0.22 0.01,0.33 0,0.05 0,0.11 0,0.17 0,0.05 0,0.11 0,0.16 0,-0.05 -0.01,-0.11 -0.01,-0.16 0,-0.06 0,-0.11 -0.01,-0.17 0,-0.11 0,-0.22 0,-0.33 -0.01,-0.11 -0.01,-0.22 -0.01,-0.33l0 -0.17 0 -0.17 0 0 0 0c0.02,-0.05 0.03,-0.1 0.05,-0.15l0.04 -0.14z"/>
     </g>
     <g>
      <path class="fil18" d="M15 6.15l-0.09 0.16 0 0c-0.01,0.11 -0.03,0.23 -0.04,0.35 -0.01,0.11 -0.02,0.23 -0.03,0.35 -0.01,0.12 -0.01,0.23 -0.02,0.35 0,0.12 -0.01,0.24 -0.01,0.36 0,-0.12 -0.01,-0.24 0,-0.36 0,-0.12 0.01,-0.23 0.01,-0.35 0.01,-0.12 0.02,-0.24 0.04,-0.35 0.01,-0.12 0.03,-0.24 0.04,-0.35l0 -0.01 0 0 0.1 -0.15z"/>
     </g>
     <g>
      <path class="fil9" d="M15.51 5.94c0,0.04 0.01,0.08 0.03,0.11 0.02,0.03 0.05,0.06 0.08,0.07 0.01,0.01 0.02,0.01 0.03,0.01l0.02 0.01 0.06 0.01 0.11 0.03c0.07,0.02 0.14,0.04 0.22,0.06 0.07,0.01 0.14,0.03 0.22,0.05l0 0 0 0.01c0,0.03 0,0.06 -0.01,0.09 0,-0.03 0,-0.06 0,-0.09l0 0c-0.07,-0.02 -0.14,-0.03 -0.22,-0.05 -0.07,-0.02 -0.14,-0.03 -0.22,-0.05l-0.11 -0.03c-0.01,-0.01 -0.03,-0.01 -0.05,-0.02l-0.03 0c-0.01,-0.01 -0.02,-0.01 -0.02,-0.02 -0.04,-0.01 -0.07,-0.04 -0.09,-0.08 -0.01,-0.03 -0.02,-0.07 -0.02,-0.11z"/>
     </g>
     <path class="fil11" d="M13.33 6c0.08,0.01 0.17,0.01 0.26,0.02 0,0 0.03,-0.53 0.16,-0.85 -0.07,0 -0.13,0 -0.2,0.01 0,0 -0.21,0.47 -0.22,0.82z"/>
     <path class="fil11" d="M14.69 6.06c0,0 0.01,0.07 0.06,0.11 0,0 0.02,0.07 -0.06,0.11 -0.03,0.01 -0.05,0.01 -0.07,0.01 -0.03,-0.01 -0.06,-0.03 -0.08,-0.06 -0.01,-0.04 -0.06,-0.1 -0.15,-0.1l0.2 -0.09 0.1 0.02z"/>
     <path class="fil24" d="M15.75 5.97c0,0 0.72,0.17 1.27,0.39 0.55,0.21 1.25,0.23 1.25,0.23 0,0 0.66,0.03 0.77,-0.15l-1.04 -0.43 -2.25 -0.04z"/>
     <path class="fil18" d="M14.68 6.06c0.03,-0.01 0.05,-0.04 0.04,-0.07 -0.02,-0.07 -0.07,-0.17 -0.18,-0.22 -0.17,-0.07 -0.45,0.13 -0.45,0.13 0,0 0.01,0.16 0.13,0.21 0.09,0.05 0.35,-0.02 0.46,-0.05z"/>
     <path class="fil20" d="M14.72 5.98c-0.01,0.01 -0.02,0.03 -0.04,0.03 -0.11,0.03 -0.37,0.09 -0.46,0.05 -0.08,-0.04 -0.11,-0.12 -0.12,-0.17 -0.01,0 -0.01,0.01 -0.01,0.01 0,0 0.01,0.16 0.13,0.21 0.09,0.05 0.35,-0.02 0.46,-0.05 0.03,-0.01 0.05,-0.04 0.04,-0.07 0,0 0,-0.01 0,-0.01z"/>
    </g>
   </g>
  </g>
  <polygon class="fil25" points="0,0 19.49,0 19.49,9.66 0,9.66 "/>
 </g>
</svg>
