<?xml version="1.0" encoding="UTF-8"?>
<!DOCTYPE svg PUBLIC "-//W3C//DTD SVG 1.1//EN" "http://www.w3.org/Graphics/SVG/1.1/DTD/svg11.dtd">
<!-- Creator: CorelDRAW 2020 (64-Bit) -->
<svg xmlns="http://www.w3.org/2000/svg" xml:space="preserve" width="799px" height="397px" version="1.1" style="shape-rendering:geometricPrecision; text-rendering:geometricPrecision; image-rendering:optimizeQuality; fill-rule:evenodd; clip-rule:evenodd"
viewBox="0 0 30.81 15.3"
 xmlns:xlink="http://www.w3.org/1999/xlink"
 xmlns:xodm="http://www.corel.com/coreldraw/odm/2003">
 <defs>
  <style type="text/css">
   <![CDATA[
    .str2 {stroke:#F4F6FE;stroke-width:0.19;stroke-miterlimit:10}
    .str1 {stroke:#6EE0D2;stroke-width:0.12;stroke-miterlimit:10}
    .str3 {stroke:#F4F6FE;stroke-width:0.12;stroke-miterlimit:10}
    .str0 {stroke:white;stroke-width:0.12;stroke-miterlimit:10}
    .fil5 {fill:none;fill-rule:nonzero}
    .fil8 {fill:#00645D;fill-rule:nonzero}
    .fil17 {fill:#00B3AC;fill-rule:nonzero}
    .fil9 {fill:#111A23;fill-rule:nonzero}
    .fil10 {fill:#2D3F59;fill-rule:nonzero}
    .fil3 {fill:#6EE0D2;fill-rule:nonzero}
    .fil2 {fill:#7478F5;fill-rule:nonzero}
    .fil20 {fill:#7E9CC3;fill-rule:nonzero}
    .fil15 {fill:#BCBCBC;fill-rule:nonzero}
    .fil12 {fill:#DFDFDF;fill-rule:nonzero}
    .fil22 {fill:#EFEFFB;fill-rule:nonzero}
    .fil7 {fill:#F4F6FE;fill-rule:nonzero}
    .fil1 {fill:#F67F4B;fill-rule:nonzero}
    .fil11 {fill:#FF6060;fill-rule:nonzero}
    .fil4 {fill:white;fill-rule:nonzero}
    .fil23 {fill:#00B3AC;fill-rule:nonzero;fill-opacity:0.541176}
    .fil0 {fill:#DCEAFF;fill-rule:nonzero;fill-opacity:0.701961}
    .fil19 {fill:#008E8A;fill-rule:nonzero}
    .fil16 {fill:#BCBCBC;fill-rule:nonzero}
    .fil14 {fill:#C1C1C1;fill-rule:nonzero}
    .fil13 {fill:#EFEFEF;fill-rule:nonzero}
    .fil21 {fill:url(#id10);fill-rule:nonzero}
    .fil18 {fill:url(#id11);fill-rule:nonzero}
    .fil6 {fill:url(#id12);fill-rule:nonzero}
   ]]>
  </style>
    <mask id="id0">
  <linearGradient id="id1" gradientUnits="userSpaceOnUse" x1="11.3" y1="13.43" x2="11.37" y2="9.69">
   <stop offset="0" style="stop-opacity:1; stop-color:white"/>
   <stop offset="1" style="stop-opacity:0; stop-color:white"/>
  </linearGradient>
     <rect style="fill:url(#id1)" x="-0.01" y="5.36" width="22.79" height="7.7"/>
    </mask>
    <mask id="id2">
  <linearGradient id="id3" gradientUnits="userSpaceOnUse" x1="16.09" y1="6.87" x2="12.05" y2="7.01">
   <stop offset="0" style="stop-opacity:1; stop-color:white"/>
   <stop offset="1" style="stop-opacity:0; stop-color:white"/>
  </linearGradient>
     <rect style="fill:url(#id3)" x="9.57" y="5.85" width="8.89" height="2.18"/>
    </mask>
    <mask id="id4">
  <linearGradient id="id5" gradientUnits="userSpaceOnUse" x1="21.98" y1="9.96" x2="18.73" y2="9.89">
   <stop offset="0" style="stop-opacity:1; stop-color:white"/>
   <stop offset="1" style="stop-opacity:0; stop-color:white"/>
  </linearGradient>
     <rect style="fill:url(#id5)" x="17.7" y="9.54" width="4.01" height="0.73"/>
    </mask>
    <mask id="id6">
  <linearGradient id="id7" gradientUnits="userSpaceOnUse" x1="22.03" y1="11.65" x2="19.31" y2="11.66">
   <stop offset="0" style="stop-opacity:1; stop-color:white"/>
   <stop offset="1" style="stop-opacity:0; stop-color:white"/>
  </linearGradient>
     <rect style="fill:url(#id7)" x="17.96" y="10.43" width="4.33" height="2.45"/>
    </mask>
    <mask id="id8">
  <linearGradient id="id9" gradientUnits="userSpaceOnUse" x1="17.31" y1="11.88" x2="15.2" y2="11.59">
   <stop offset="0" style="stop-opacity:1; stop-color:white"/>
   <stop offset="1" style="stop-opacity:0; stop-color:white"/>
  </linearGradient>
     <rect style="fill:url(#id9)" x="14.76" y="10.91" width="2.38" height="1.57"/>
    </mask>
  <linearGradient id="id10" gradientUnits="userSpaceOnUse" x1="16.09" y1="6.87" x2="12.05" y2="7.01">
   <stop offset="0" style="stop-opacity:1; stop-color:#7E9CC3"/>
   <stop offset="1" style="stop-opacity:1; stop-color:#7E9CC3"/>
  </linearGradient>
  <linearGradient id="id11" gradientUnits="userSpaceOnUse" x1="11.3" y1="13.43" x2="11.37" y2="9.69">
   <stop offset="0" style="stop-opacity:1; stop-color:#008E8A"/>
   <stop offset="1" style="stop-opacity:1; stop-color:#00B3AC"/>
  </linearGradient>
  <linearGradient id="id12" gradientUnits="userSpaceOnUse" x1="39.85" y1="4.14" x2="19.73" y2="11.01">
   <stop offset="0" style="stop-opacity:1; stop-color:#00A9C7"/>
   <stop offset="1" style="stop-opacity:1; stop-color:#8C5CE6"/>
  </linearGradient>
 </defs>
 <g id="Слой_x0020_1">
  <metadata id="CorelCorpID_0Corel-Layer"/>
  <path class="fil0" d="M2.36 11.88c-3.92,-5.19 3.68,-6.61 9.37,-7.4 3.74,-0.52 3.82,-4.31 9.77,-4.47 5.51,-0.15 8.17,2.53 9.02,5.87 3.45,13.44 -25.43,9.61 -28.16,6z"/>
  <path class="fil0" d="M2.19 4.14c1.5,1.46 6.67,-0.26 8,-1.55 3.11,-3.04 -10.41,-0.77 -8,1.55z"/>
  <g id="_2367158806560">
   <polygon class="fil1" points="13.69,4.5 19.06,4.5 19.06,3.55 13.69,3.55 "/>
   <polygon class="fil2" points="24.11,8.99 12.3,8.99 12.3,2.81 24.11,2.81 "/>
   <g>
    <polygon class="fil3" points="22.75,8.23 20.61,8.23 20.61,7.84 22.75,7.84 "/>
    <polygon class="fil3" points="22.75,7.52 21.57,7.52 21.57,7.35 22.75,7.35 "/>
    <polygon class="fil3" points="22.75,7.23 21.98,7.23 21.98,7.07 22.75,7.07 "/>
    <path class="fil3" d="M22.41 6.24l-1.15 0c-0.19,0 -0.34,-0.15 -0.34,-0.33l0 -0.01c0,-0.19 0.15,-0.34 0.34,-0.34l1.15 0c0.19,0 0.34,0.15 0.34,0.34l0 0.01c0,0.18 -0.15,0.33 -0.34,0.33z"/>
    <path class="fil4" d="M22.31 3.76c0,0.06 -0.05,0.12 -0.11,0.12 -0.07,0 -0.12,-0.06 -0.12,-0.12 0,-0.07 0.05,-0.12 0.12,-0.12 0.06,0 0.11,0.05 0.11,0.12z"/>
    <path class="fil4" d="M22.75 3.76c0,0.06 -0.05,0.12 -0.12,0.12 -0.06,0 -0.12,-0.06 -0.12,-0.12 0,-0.07 0.06,-0.12 0.12,-0.12 0.07,0 0.12,0.05 0.12,0.12z"/>
   </g>
   <polygon class="fil4" points="13.66,3.58 15.8,3.58 15.8,3.96 13.66,3.96 "/>
   <polygon class="fil4" points="13.66,4.28 14.84,4.28 14.84,4.45 13.66,4.45 "/>
   <path class="fil4" d="M14.1 8.04c0,-0.06 0.05,-0.11 0.11,-0.11 0.07,0 0.12,0.05 0.12,0.11 0,0.07 -0.05,0.12 -0.12,0.12 -0.06,0 -0.11,-0.05 -0.11,-0.12z"/>
   <path class="fil4" d="M13.66 8.04c0,-0.06 0.05,-0.11 0.12,-0.11 0.06,0 0.12,0.05 0.12,0.11 0,0.07 -0.06,0.12 -0.12,0.12 -0.07,0 -0.12,-0.05 -0.12,-0.12z"/>
   <line class="fil5 str0" x1="23.71" y1="8" x2="23.71" y2= "3.8" />
   <path class="fil5 str0" d="M23.71 3.8c-0.33,0 -0.59,-0.26 -0.59,-0.59"/>
   <g>
    <line class="fil5 str0" x1="23.12" y1="3.21" x2="13.15" y2= "3.21" />
    <path class="fil5 str0" d="M13.15 3.21c0,0.28 -0.19,0.51 -0.45,0.57"/>
    <line class="fil5 str0" x1="12.7" y1="3.78" x2="12.7" y2= "8.02" />
   </g>
   <line class="fil5 str0" x1="13.15" y1="8.59" x2="23.12" y2= "8.59" />
   <path class="fil5 str1" d="M23.12 8.59c0,-0.33 0.26,-0.59 0.59,-0.59"/>
   <path class="fil5 str2" d="M19.84 5.9c0,0.9 -0.73,1.63 -1.64,1.63 -0.9,0 -1.63,-0.73 -1.63,-1.63 0,-0.9 0.73,-1.63 1.63,-1.63 0.91,0 1.64,0.73 1.64,1.63z"/>
   <polygon class="fil6" points="26.51,10.72 14.7,10.72 14.7,4.55 26.51,4.55 "/>
   <g>
    <polygon class="fil7" points="25.15,9.96 23.01,9.96 23.01,9.58 25.15,9.58 "/>
    <polygon class="fil7" points="25.15,9.25 23.97,9.25 23.97,9.09 25.15,9.09 "/>
    <polygon class="fil7" points="25.15,8.97 24.39,8.97 24.39,8.8 25.15,8.8 "/>
    <path class="fil7" d="M24.81 7.98l-1.15 0c-0.19,0 -0.34,-0.16 -0.34,-0.34l0 -0.01c0,-0.19 0.15,-0.34 0.34,-0.34l1.15 0c0.19,0 0.34,0.15 0.34,0.34l0 0.01c0,0.18 -0.15,0.34 -0.34,0.34z"/>
    <path class="fil4" d="M24.71 5.49c0,0.07 -0.05,0.12 -0.11,0.12 -0.07,0 -0.12,-0.05 -0.12,-0.12 0,-0.06 0.05,-0.11 0.12,-0.11 0.06,0 0.11,0.05 0.11,0.11z"/>
    <path class="fil4" d="M25.15 5.49c0,0.07 -0.05,0.12 -0.12,0.12 -0.06,0 -0.12,-0.05 -0.12,-0.12 0,-0.06 0.06,-0.11 0.12,-0.11 0.07,0 0.12,0.05 0.12,0.11z"/>
   </g>
   <line class="fil5 str3" x1="26.11" y1="9.73" x2="26.11" y2= "5.54" />
   <path class="fil5 str3" d="M26.11 5.54c-0.33,0 -0.59,-0.27 -0.59,-0.59"/>
   <line class="fil5 str3" x1="25.52" y1="4.95" x2="15.72" y2= "4.95" />
   <line class="fil5 str3" x1="15.72" y1="10.32" x2="25.52" y2= "10.32" />
   <path class="fil5 str3" d="M25.52 10.32c0,-0.32 0.26,-0.59 0.59,-0.59"/>
   <path class="fil5 str2" d="M22.24 7.63c0,0.91 -0.73,1.64 -1.63,1.64 -0.91,0 -1.64,-0.73 -1.64,-1.64 0,-0.9 0.73,-1.63 1.64,-1.63 0.9,0 1.63,0.73 1.63,1.63z"/>
   <path class="fil7" d="M21.96 7.63c0,0.75 -0.61,1.36 -1.35,1.36 -0.75,0 -1.36,-0.61 -1.36,-1.36 0,-0.74 0.61,-1.35 1.36,-1.35 0.74,0 1.35,0.61 1.35,1.35z"/>
   <path class="fil2" d="M20.06 7.77l0.15 0 0 0.12 -0.15 0 0 0.19 0.15 0 0 0.29 0.31 0 0 -0.29 0.35 0 0 -0.19 -0.35 0 0 -0.12 0.19 0c0.18,0 0.29,-0.05 0.39,-0.15 0.07,-0.07 0.11,-0.18 0.11,-0.29 0,-0.14 -0.06,-0.24 -0.15,-0.3 -0.09,-0.05 -0.19,-0.08 -0.34,-0.08l-0.51 0 0 0.59 -0.15 0 0 0.23zm0.82 -0.43c0,0.07 -0.01,0.12 -0.05,0.15 -0.05,0.04 -0.12,0.05 -0.22,0.05l-0.09 0 0 -0.36 0.05 0c0.1,0 0.15,-0.01 0.22,0.02 0.05,0.02 0.09,0.07 0.09,0.14z"/>
   <line class="fil5 str0" x1="15.14" y1="9.73" x2="15.14" y2= "5.54" />
   <path class="fil5 str3" d="M15.14 5.54c0.32,0 0.59,-0.27 0.59,-0.59"/>
   <path class="fil5 str0" d="M15.73 10.32c0,-0.32 -0.27,-0.59 -0.59,-0.59"/>
   <polygon class="fil4" points="16.07,5.55 18.21,5.55 18.21,5.93 16.07,5.93 "/>
   <polygon class="fil4" points="16.07,6.26 17.24,6.26 17.24,6.42 16.07,6.42 "/>
  </g>
  <g id="_2367158802480">
   <polygon class="fil8" points="0.92,12.46 3.65,12.46 3.65,9.91 0.6,9.91 0.6,12.09 "/>
   <path class="fil9" d="M21.71 12.24c0,1.08 -0.69,1.97 -1.55,1.97 -0.86,0 -1.55,-0.89 -1.55,-1.97 0,-1.09 0.69,-1.98 1.55,-1.98 0.86,0 1.55,0.89 1.55,1.98z"/>
   <polygon class="fil9" points="19.62,14.21 20.16,14.21 20.16,10.26 19.62,10.26 "/>
   <path class="fil9" d="M4.01 12.09c0,0.97 -0.52,1.75 -1.15,1.75 -0.64,0 -1.16,-0.78 -1.16,-1.75 0,-0.96 0.52,-1.74 1.16,-1.74 0.63,0 1.15,0.78 1.15,1.74z"/>
   <polygon class="fil9" points="2.86,13.84 2.06,13.84 2.06,10.35 2.86,10.35 "/>
   <path class="fil9" d="M11.05 11.87c0,0.99 -0.63,1.79 -1.41,1.79 -0.78,0 -1.41,-0.8 -1.41,-1.79 0,-0.99 0.63,-1.8 1.41,-1.8 0.78,0 1.41,0.81 1.41,1.8z"/>
   <polygon class="fil9" points="9.15,13.66 9.64,13.66 9.64,10.07 9.15,10.07 "/>
   <path class="fil10" d="M10.56 11.87c0,0.99 -0.63,1.79 -1.41,1.79 -0.78,0 -1.41,-0.8 -1.41,-1.79 0,-0.99 0.63,-1.8 1.41,-1.8 0.78,0 1.41,0.81 1.41,1.8z"/>
   <polygon class="fil8" points="10.81,13.05 10.06,12.16 10.06,10.35 11.97,9.55 13.58,9.99 14.31,12.24 13.88,12.87 "/>
   <path class="fil9" d="M14.77 12.32c0,1.09 -0.7,1.97 -1.56,1.97 -0.85,0 -1.55,-0.88 -1.55,-1.97 0,-1.09 0.7,-1.97 1.55,-1.97 0.86,0 1.56,0.88 1.56,1.97z"/>
   <polygon class="fil9" points="12.25,14.29 13.21,14.29 13.21,10.35 12.25,10.35 "/>
   <path class="fil11" d="M0.72 8.1c0,0 -0.34,0.11 -0.42,0.24l0 0.57 0.07 0.16 0.53 -0.29 0 -0.61 -0.18 -0.07z"/>
   <path class="fil10" d="M3.21 12.09c0,0.97 -0.51,1.75 -1.15,1.75 -0.64,0 -1.16,-0.78 -1.16,-1.75 0,-0.96 0.52,-1.74 1.16,-1.74 0.64,0 1.15,0.78 1.15,1.74z"/>
   <path class="fil12" d="M2.89 12.09c0,0.7 -0.37,1.27 -0.83,1.27 -0.46,0 -0.84,-0.57 -0.84,-1.27 0,-0.69 0.38,-1.26 0.84,-1.26 0.46,0 0.83,0.57 0.83,1.26z"/>
   <path class="fil13" d="M2.06 11.03c0.44,0 0.8,0.51 0.83,1.16 0,-0.03 0,-0.06 0,-0.1 0,-0.69 -0.37,-1.26 -0.83,-1.26 -0.46,0 -0.84,0.57 -0.84,1.26 0,0.04 0,0.07 0,0.1 0.04,-0.65 0.4,-1.16 0.84,-1.16z"/>
   <path class="fil14" d="M2.06 13.16c-0.44,0 -0.8,-0.51 -0.84,-1.16 0,0.03 0,0.06 0,0.09 0,0.7 0.38,1.27 0.84,1.27 0.46,0 0.83,-0.57 0.83,-1.27 0,-0.03 0,-0.06 0,-0.09 -0.03,0.65 -0.39,1.16 -0.83,1.16z"/>
   <path class="fil10" d="M13.81 12.32c0,1.09 -0.7,1.97 -1.56,1.97 -0.86,0 -1.55,-0.88 -1.55,-1.97 0,-1.09 0.69,-1.97 1.55,-1.97 0.86,0 1.56,0.88 1.56,1.97z"/>
   <path class="fil12" d="M13.45 12.32c0,0.84 -0.53,1.52 -1.2,1.52 -0.66,0 -1.2,-0.68 -1.2,-1.52 0,-0.84 0.54,-1.53 1.2,-1.53 0.67,0 1.2,0.69 1.2,1.53z"/>
   <path class="fil13" d="M12.25 10.98c0.64,0 1.16,0.64 1.2,1.43 0,-0.03 0,-0.06 0,-0.09 0,-0.84 -0.53,-1.53 -1.2,-1.53 -0.66,0 -1.2,0.69 -1.2,1.53 0,0.03 0,0.06 0,0.09 0.04,-0.79 0.56,-1.43 1.2,-1.43z"/>
   <path class="fil14" d="M12.25 13.65c-0.64,0 -1.16,-0.63 -1.2,-1.43 0,0.03 0,0.07 0,0.1 0,0.84 0.54,1.52 1.2,1.52 0.67,0 1.2,-0.68 1.2,-1.52 0,-0.03 0,-0.07 0,-0.1 -0.04,0.8 -0.56,1.43 -1.2,1.43z"/>
   <path class="fil10" d="M21.17 12.24c0,1.08 -0.69,1.97 -1.55,1.97 -0.86,0 -1.55,-0.89 -1.55,-1.97 0,-1.09 0.69,-1.98 1.55,-1.98 0.86,0 1.55,0.89 1.55,1.98z"/>
   <path class="fil15" d="M20.81 12.24c0,0.83 -0.53,1.5 -1.19,1.5 -0.66,0 -1.19,-0.67 -1.19,-1.5 0,-0.84 0.53,-1.51 1.19,-1.51 0.66,0 1.19,0.67 1.19,1.51z"/>
   <path class="fil16" d="M18.71 13.2l1.82 0c0.14,-0.2 0.23,-0.46 0.26,-0.73l-2.34 0c0.03,0.27 0.12,0.53 0.26,0.73z"/>
   <path class="fil17" d="M0.72 8.1c0,0 0.13,-0.27 0.56,-0.44 0.42,-0.16 0.77,-0.28 1.11,-0.55 0.35,-0.27 2.35,-1.34 3.72,-1.57 1.38,-0.22 3.43,-0.17 3.43,-0.17 0,0 4.02,0.1 5.36,0.6 1.34,0.5 3.85,1.99 3.85,1.99l3.4 1.43 0.29 0.76 0.33 0.42c0,0 -0.01,1.02 -0.43,1.65l0.35 0.23 -0.16 0.42 -8.65 0c0,0 -0.01,-1.39 -0.59,-2.24 -0.59,-0.84 -1.35,-0.7 -1.35,-0.7 0,0 -1.21,0.23 -1.3,1.8 -0.04,0.65 0.05,1.06 0.17,1.32l-7.34 -0.24c0,0 -0.19,-0.35 -0.27,-1.06 -0.08,-0.7 -0.42,-1.7 -1.27,-1.79 -0.85,-0.1 -1.08,1.12 -1.08,1.12 0,0 -0.09,0.95 0.07,1.38l-0.7 -0.27c0,0 -0.5,-1.05 0,-2.9l0.5 -0.76 0 -0.43z"/>
   <path class="fil18" style="mask:url(#id0)" d="M0.72 8.1c0,0 0.13,-0.27 0.56,-0.44 0.42,-0.16 0.77,-0.28 1.11,-0.55 0.35,-0.27 2.35,-1.34 3.72,-1.57 1.38,-0.22 3.43,-0.17 3.43,-0.17 0,0 4.02,0.1 5.36,0.6 1.34,0.5 3.85,1.99 3.85,1.99l3.4 1.43 0.29 0.76 0.33 0.42c0,0 -0.01,1.02 -0.43,1.65l0.35 0.23 -0.16 0.42 -8.65 0c0,0 -0.01,-1.39 -0.59,-2.24 -0.59,-0.84 -1.35,-0.7 -1.35,-0.7 0,0 -1.21,0.23 -1.3,1.8 -0.04,0.65 0.05,1.06 0.17,1.32l-7.34 -0.24c0,0 -0.19,-0.35 -0.27,-1.06 -0.08,-0.7 -0.42,-1.7 -1.27,-1.79 -0.85,-0.1 -1.08,1.12 -1.08,1.12 0,0 -0.09,0.95 0.07,1.38l-0.7 -0.27c0,0 -0.5,-1.05 0,-2.9l0.5 -0.76 0 -0.43z"/>
   <path class="fil19" d="M3.36 11.14c0,0.04 0.02,0.07 0.06,0.08 0.3,0.13 1.88,0.78 3.09,0.87 1.35,0.1 3.72,0.34 3.72,0.34 0,0 -3.61,-1.2 -6.77,-1.38 -0.05,0 -0.1,0.04 -0.1,0.09z"/>
   <path class="fil19" d="M0.37 9.07l0.71 0.92c0,0 0.16,-0.36 0.78,-0.44 0.61,-0.08 1.01,0.52 1.01,0.52 0.61,-0.79 2.8,-0.71 4.33,-0.36 1.53,0.34 3.6,0.47 3.6,0.47 0.19,-0.38 0.86,-0.63 0.86,-0.63 -0.08,0.03 -0.22,0.01 -0.31,0.01 -0.33,0 -0.66,-0.03 -0.99,-0.07 -1.21,-0.16 -2.38,-0.47 -3.59,-0.61 -0.97,-0.11 -1.95,-0.21 -2.93,-0.29 -0.19,-0.02 -3.12,-0.22 -3.12,-0.24l0 0.18 -0.35 0.54z"/>
   <path class="fil20" d="M2.62 7.33c0,0 1.24,-1.19 3.78,-1.51 2.55,-0.33 3.07,0.47 3.07,0.47l1.81 1.71c0,0 0.43,0.45 -0.47,0.41 -0.9,-0.03 -8,-0.75 -8,-0.75 0,0 -0.36,-0.05 -0.19,-0.33z"/>
   <path class="fil20" d="M9.58 5.9c0,0 1.34,1.02 1.88,1.56 0.54,0.54 1.31,0.46 1.31,0.46l5.68 0.1c0,0 -2.44,-1.53 -3.79,-2.03 0,0 -2.55,-0.22 -5.08,-0.09z"/>
   <path class="fil21" style="mask:url(#id2)" d="M9.58 5.9c0,0 1.34,1.02 1.88,1.56 0.54,0.54 1.31,0.46 1.31,0.46l5.68 0.1c0,0 -2.44,-1.53 -3.79,-2.03 0,0 -2.55,-0.22 -5.08,-0.09z"/>
   <path class="fil22" d="M11.55 6.41l-1.32 0 0 0c0.42,0.34 0.94,0.76 1.23,1.05 0.47,0.47 1.1,0.47 1.27,0.46 0,0 -0.39,-0.85 -0.55,-1.18 -0.15,-0.32 -0.63,-0.33 -0.63,-0.33z"/>
   <polygon class="fil4" points="22.15,9.39 21.8,9.57 21.8,10.18 22.44,10.15 "/>
   <polygon class="fil4" points="13.58,8.97 17.52,9.58 18.07,10.13 14.84,10.01 "/>
   <path class="fil10" d="M17.71 9.55l0.64 0.58c0,0 1.89,0.26 3.31,0.05l0.04 -0.63c0,0 -0.7,0.41 -3.99,0z"/>
   <path class="fil9" style="mask:url(#id4)" d="M17.71 9.55l0.64 0.58c0,0 1.89,0.26 3.31,0.05l0.04 -0.63c0,0 -0.7,0.41 -3.99,0z"/>
   <path class="fil10" d="M17.97 12.87l0.53 -2.38c0,0 2.59,0.04 3.08,-0.05l0.7 2.43 -4.31 0z"/>
   <path class="fil9" style="mask:url(#id6)" d="M17.97 12.87l0.53 -2.38c0,0 2.59,0.04 3.08,-0.05l0.7 2.43 -4.31 0z"/>
   <path class="fil10" d="M15.17 10.92c0,0 -0.4,0.72 -0.4,1.47l1.86 0.08 0.5 -0.24 -0.55 -0.82 -1.41 -0.49z"/>
   <path class="fil9" style="mask:url(#id8)" d="M15.17 10.92c0,0 -0.4,0.72 -0.4,1.47l1.86 0.08 0.5 -0.24 -0.55 -0.82 -1.41 -0.49z"/>
   <path class="fil22" d="M13.93 7.94l-0.81 -1.53c0,0 1.91,-0.01 3.65,1.58l-2.84 -0.05z"/>
   <path class="fil20" d="M11.72 7.67c-0.02,-0.12 -0.05,-0.33 -0.08,-0.52 -0.04,-0.3 -0.38,-0.35 -0.38,-0.35l-0.55 0 0 0c0.29,0.24 0.56,0.48 0.75,0.66 0.08,0.09 0.17,0.15 0.26,0.21z"/>
   <path class="fil22" d="M7.69 6.47c-0.34,0.66 -0.35,1.64 -0.35,1.64 1.59,0.15 3.09,0.29 3.47,0.3 0.1,0.01 0.18,0 0.25,0 -0.79,-1.84 -3.37,-1.94 -3.37,-1.94z"/>
   <path class="fil10" d="M10.06 6.84c0,0 -0.15,0.79 -0.1,1.51 0.41,0.03 0.71,0.06 0.85,0.06 0.9,0.04 0.47,-0.41 0.47,-0.41l-1.22 -1.16z"/>
   <path class="fil22" d="M6.52 8.03l0.06 -1.68c-1.25,0.14 -2.13,0.51 -2.47,0.66 -0.34,0.15 -0.46,0.74 -0.46,0.74 0.71,0.07 1.77,0.17 2.87,0.28z"/>
   <path class="fil10" d="M3.21 7.71c-0.06,-0.44 0.15,-0.9 0.15,-0.91 -0.49,0.29 -0.74,0.53 -0.74,0.53 -0.17,0.28 0.19,0.33 0.19,0.33 0,0 0.15,0.02 0.4,0.05z"/>
   <path class="fil20" d="M5.44 6.94c0,0 -0.45,-0.08 -0.77,0.07 -0.33,0.16 -0.43,0.8 -0.43,0.8l0 0c0.39,0.04 0.83,0.08 1.29,0.12 0.18,-0.87 -0.09,-0.99 -0.09,-0.99z"/>
   <g>
    <path class="fil17" d="M10.69 12.68c-0.45,-0.01 -0.89,-0.03 -1.34,-0.05 -0.45,-0.02 -0.9,-0.04 -1.35,-0.06 -0.89,-0.05 -1.79,-0.11 -2.68,-0.2 -0.11,-0.01 -0.22,-0.02 -0.33,-0.04l-0.17 -0.02c-0.06,-0.01 -0.11,-0.02 -0.17,-0.02l-0.16 -0.03c-0.06,-0.01 -0.11,-0.03 -0.17,-0.04 -0.11,-0.02 -0.22,-0.07 -0.32,-0.12 -0.19,-0.12 -0.35,-0.29 -0.48,-0.47 -0.14,-0.18 -0.25,-0.39 -0.34,-0.59 -0.18,-0.41 -0.31,-0.85 -0.39,-1.29 -0.09,-0.44 -0.13,-0.89 -0.12,-1.34l0 0 0 0 0.37 -0.72 -0.36 0.73 0.01 -0.01c-0.01,0.23 0.01,0.45 0.03,0.67 0.02,0.23 0.05,0.45 0.1,0.67 0.09,0.43 0.22,0.87 0.4,1.27 0.09,0.2 0.2,0.4 0.33,0.58 0.13,0.18 0.29,0.34 0.48,0.45 0.09,0.06 0.19,0.11 0.3,0.12 0.06,0.02 0.11,0.03 0.17,0.04l0.16 0.03c0.06,0.01 0.11,0.01 0.17,0.02l0.16 0.02c0.11,0.02 0.22,0.03 0.34,0.04 0.89,0.1 1.78,0.15 2.68,0.21 0.44,0.03 0.89,0.05 1.34,0.08 0.45,0.02 0.89,0.05 1.34,0.07z"/>
   </g>
   <g>
    <path class="fil17" d="M6.43 8.02l-0.11 0.41c-0.03,0.13 -0.07,0.27 -0.11,0.4l0 0 0.02 0.45 0 0.45c0.01,0.3 0.01,0.6 0.02,0.9 0,0.3 0,0.6 0,0.9 0,0.15 0,0.3 0,0.45 0,0.15 0.02,0.3 0.03,0.45 -0.02,-0.15 -0.04,-0.3 -0.05,-0.45 0,-0.15 -0.01,-0.3 -0.01,-0.45 -0.01,-0.3 -0.02,-0.6 -0.02,-0.9 -0.01,-0.3 -0.01,-0.6 -0.01,-0.9l-0.01 -0.45 0 -0.45 0 -0.01 0 0c0.04,-0.13 0.08,-0.27 0.12,-0.4l0.13 -0.4z"/>
   </g>
   <g>
    <path class="fil17" d="M10.73 8.41l-0.23 0.43 0 0c-0.04,0.31 -0.07,0.63 -0.1,0.95 -0.04,0.32 -0.06,0.64 -0.09,0.96 -0.02,0.31 -0.04,0.63 -0.06,0.95 -0.01,0.32 -0.02,0.64 -0.02,0.96 -0.01,-0.32 -0.02,-0.64 -0.01,-0.96 0,-0.32 0.02,-0.64 0.04,-0.96 0.02,-0.32 0.06,-0.64 0.09,-0.95 0.04,-0.32 0.08,-0.64 0.13,-0.96l0 0 0 0 0.25 -0.42z"/>
   </g>
   <g>
    <path class="fil8" d="M12.13 7.85c0,0.1 0.03,0.21 0.08,0.29 0.05,0.09 0.13,0.15 0.22,0.2 0.02,0.01 0.05,0.02 0.07,0.02l0.07 0.02 0.15 0.04 0.3 0.07c0.2,0.05 0.39,0.1 0.59,0.15 0.2,0.05 0.4,0.11 0.59,0.16l0.01 0.01 0 0c0,0.09 0,0.17 -0.01,0.26 0,-0.09 -0.01,-0.17 -0.01,-0.26l0.01 0.01c-0.2,-0.04 -0.4,-0.09 -0.6,-0.13 -0.2,-0.05 -0.4,-0.1 -0.59,-0.15l-0.3 -0.08c-0.05,-0.01 -0.1,-0.02 -0.15,-0.03l-0.07 -0.03c-0.03,-0.01 -0.05,-0.02 -0.08,-0.03 -0.09,-0.05 -0.17,-0.13 -0.22,-0.22 -0.05,-0.09 -0.07,-0.2 -0.06,-0.3z"/>
   </g>
   <path class="fil10" d="M6.2 8c0.23,0.02 0.47,0.04 0.71,0.07 0,0 0.08,-1.45 0.43,-2.33 -0.17,0.01 -0.34,0.02 -0.53,0.03 0,0 -0.58,1.29 -0.61,2.23z"/>
   <path class="fil10" d="M9.9 8.17c0,0 0.02,0.19 0.16,0.29 0,0 0.05,0.21 -0.16,0.31 -0.07,0.03 -0.14,0.04 -0.19,0.02 -0.09,-0.02 -0.17,-0.08 -0.21,-0.16 -0.05,-0.11 -0.16,-0.27 -0.41,-0.28l0.55 -0.24 0.26 0.06z"/>
   <path class="fil23" d="M12.77 7.92c0,0 1.95,0.47 3.44,1.05 1.5,0.58 3.41,0.63 3.41,0.63 0,0 1.79,0.08 2.07,-0.4l-2.8 -1.18 -6.12 -0.1z"/>
   <path class="fil17" d="M9.88 8.17c0.08,-0.02 0.13,-0.11 0.1,-0.2 -0.06,-0.18 -0.2,-0.46 -0.5,-0.58 -0.46,-0.19 -1.21,0.34 -1.21,0.34 0,0 0.04,0.43 0.36,0.58 0.24,0.12 0.94,-0.05 1.25,-0.14z"/>
   <path class="fil19" d="M9.98 7.95c-0.02,0.04 -0.06,0.07 -0.1,0.08 -0.31,0.09 -1.01,0.26 -1.25,0.14 -0.21,-0.1 -0.3,-0.32 -0.34,-0.46 -0.01,0.01 -0.02,0.02 -0.02,0.02 0,0 0.04,0.43 0.36,0.58 0.24,0.12 0.94,-0.05 1.25,-0.14 0.08,-0.02 0.13,-0.11 0.1,-0.2 0,0 0,-0.01 0,-0.02z"/>
  </g>
 </g>
</svg>
