<?xml version="1.0" encoding="UTF-8"?>
<!DOCTYPE svg PUBLIC "-//W3C//DTD SVG 1.1//EN" "http://www.w3.org/Graphics/SVG/1.1/DTD/svg11.dtd">
<!-- Creator: CorelDRAW 2019 -->
<svg xmlns="http://www.w3.org/2000/svg" xml:space="preserve" width="23.1394mm" height="26.7751mm" version="1.1" style="shape-rendering:geometricPrecision; text-rendering:geometricPrecision; image-rendering:optimizeQuality; fill-rule:evenodd; clip-rule:evenodd"
viewBox="0 0 43.76 50.64"
 xmlns:xlink="http://www.w3.org/1999/xlink"
 xmlns:xodm="http://www.corel.com/coreldraw/odm/2003">
 <defs>
  <style type="text/css">
   <![CDATA[
    .fil0 {fill:url(#id0);fill-rule:nonzero}
   ]]>
  </style>
  <linearGradient id="id0" gradientUnits="userSpaceOnUse" x1="0.59" y1="24.23" x2="42.23" y2="26.03">
   <stop offset="0" style="stop-opacity:1; stop-color:#00D9FF"/>
   <stop offset="1" style="stop-opacity:1; stop-color:#5A69F7"/>
  </linearGradient>
 </defs>
 <g id="Слой_x0020_1">
  <metadata id="CorelCorpID_0Corel-Layer"/>
  <path class="fil0" d="M24.95 29.72l3.61 0 0 -3.03 -3.61 0 0 3.03zm4.89 -20.5l-26.75 0c-1.7,0 -3.09,1.16 -3.09,2.59l0 36.23c0,1.43 1.38,2.59 3.09,2.59l26.75 0c1.7,0 3.09,-1.16 3.09,-2.59l0 -36.23c0,-1.43 -1.38,-2.59 -3.09,-2.59zm-19.55 38.82c0,0.48 -0.46,0.86 -1.03,0.86l-6.17 0c-0.57,0 -1.03,-0.39 -1.03,-0.86l0 -5.18c0,-0.48 0.46,-0.86 1.03,-0.86l6.17 0c0.57,0 1.03,0.39 1.03,0.86l0 5.18zm0 -8.63c0,0.48 -0.46,0.86 -1.03,0.86l-6.17 0c-0.57,0 -1.03,-0.39 -1.03,-0.86l0 -5.18c0,-0.48 0.46,-0.86 1.03,-0.86l6.17 0c0.57,0 1.03,0.39 1.03,0.86l0 5.18zm10.29 8.63c0,0.48 -0.46,0.86 -1.03,0.86l-6.17 0c-0.57,0 -1.03,-0.39 -1.03,-0.86l0 -5.18c0,-0.48 0.46,-0.86 1.03,-0.86l6.17 0c0.57,0 1.03,0.39 1.03,0.86l0 5.18zm0 -8.63c0,0.48 -0.46,0.86 -1.03,0.86l-6.17 0c-0.57,0 -1.03,-0.39 -1.03,-0.86l0 -5.18c0,-0.48 0.46,-0.86 1.03,-0.86l6.17 0c0.57,0 1.03,0.39 1.03,0.86l0 5.18zm0 -8.63c0,0.48 -0.46,0.86 -1.03,0.86l-16.46 0c-0.57,0 -1.03,-0.39 -1.03,-0.86l0 -5.18c0,-0.48 0.46,-0.86 1.03,-0.86l16.46 0c0.57,0 1.03,0.39 1.03,0.86l0 5.18zm10.29 17.25c0,0.48 -0.46,0.86 -1.03,0.86l-6.17 0c-0.57,0 -1.03,-0.39 -1.03,-0.86l0 -13.8c0,-0.48 0.46,-0.86 1.03,-0.86l6.17 0c0.57,0 1.03,0.39 1.03,0.86l0 13.8zm0 -17.25c0,0.48 -0.46,0.86 -1.03,0.86l-6.17 0c-0.57,0 -1.03,-0.39 -1.03,-0.86l0 -5.18c0,-0.48 0.46,-0.86 1.03,-0.86l6.17 0c0.57,0 1.03,0.39 1.03,0.86l0 5.18zm0 -8.63c0,0.48 -0.46,0.86 -1.03,0.86l-26.75 0c-0.57,0 -1.03,-0.39 -1.03,-0.86l0 -10.35c0,-0.48 0.46,-0.86 1.03,-0.86l26.75 0c0.57,0 1.03,0.39 1.03,0.86l0 10.35zm-26.84 24.81l3.97 0 0 -3.03 -3.97 0 0 3.03zm33.43 -45.73l0 4.04 4.82 0 -4.82 -4.04zm-1.05 5.8c-0.58,0 -1.05,-0.39 -1.05,-0.88l0 -6.16 -29.4 0 0 7.04 24.15 0c2.9,0 5.25,1.97 5.25,4.4l0 34.34 8.4 0 0 -38.74 -7.35 0zm-31.8 6.16l0 7.58 23.7 0 0 -7.58c-7.9,0 -15.8,0 -23.7,0zm-0.24 16.52l13.9 0 0 -3.03 -13.9 0 0 3.03zm10.1 8.63l3.97 0 0 -3.03 -3.97 0 0 3.03zm-10.43 0l3.97 0 0 -3.03 -3.97 0 0 3.03zm20.91 7.99l3.61 0 0 -10.39 -3.61 0 0 10.39zm-10.48 0.63l3.97 0 0 -3.03 -3.97 0 0 3.03z"/>
 </g>
</svg>
