<?xml version="1.0" encoding="UTF-8"?>
<!DOCTYPE svg PUBLIC "-//W3C//DTD SVG 1.1//EN" "http://www.w3.org/Graphics/SVG/1.1/DTD/svg11.dtd">
<!-- Creator: CorelDRAW 2019 -->
<svg xmlns="http://www.w3.org/2000/svg" xml:space="preserve" width="60.172mm" height="42.533mm" version="1.1" style="shape-rendering:geometricPrecision; text-rendering:geometricPrecision; image-rendering:optimizeQuality; fill-rule:evenodd; clip-rule:evenodd"
viewBox="0 0 305.17 215.71"
 xmlns:xlink="http://www.w3.org/1999/xlink"
 xmlns:xodm="http://www.corel.com/coreldraw/odm/2003">
 <defs>
  <style type="text/css">
   <![CDATA[
    .str0 {stroke:white;stroke-width:3.58;stroke-miterlimit:22.9256}
    .str1 {stroke:#E6E6E6;stroke-width:1.01;stroke-miterlimit:22.9256}
    .fil5 {fill:none}
    .fil0 {fill:white}
    .fil1 {fill:#34DAEA;fill-rule:nonzero}
    .fil4 {fill:#5A69F7;fill-rule:nonzero}
    .fil2 {fill:url(#id1);fill-rule:nonzero}
    .fil6 {fill:url(#id2);fill-rule:nonzero}
    .fil3 {fill:url(#id3);fill-rule:nonzero}
   ]]>
  </style>
    <clipPath id="id0">
     <path d="M16.5 0.51l272.16 0c8.8,0 16,7.2 16,16l0 182.7c0,8.8 -7.2,16 -16,16l-272.16 0c-8.8,0 -16,-7.2 -16,-16l0 -182.7c0,-8.8 7.2,-16 16,-16z"/>
    </clipPath>
  <linearGradient id="id1" gradientUnits="userSpaceOnUse" x1="201.16" y1="542.1" x2="374.27" y2="377.47">
   <stop offset="0" style="stop-opacity:1; stop-color:#00D9FF"/>
   <stop offset="1" style="stop-opacity:1; stop-color:#5A69F7"/>
  </linearGradient>
  <linearGradient id="id2" gradientUnits="userSpaceOnUse" xlink:href="#id1" x1="95.5" y1="104.95" x2="207.16" y2="109.75">
  </linearGradient>
  <linearGradient id="id3" gradientUnits="userSpaceOnUse" x1="-69.45" y1="-142.7" x2="233.23" y2="-54.11">
   <stop offset="0" style="stop-opacity:1; stop-color:#00D9FF"/>
   <stop offset="0.419608" style="stop-opacity:1; stop-color:#1B75FD"/>
   <stop offset="1" style="stop-opacity:1; stop-color:#B357EF"/>
  </linearGradient>
 </defs>
 <g id="Слой_x0020_1">
  <metadata id="CorelCorpID_0Corel-Layer"/>
  <g id="_546725616">
   <path class="fil0" d="M16.5 0.51l272.16 0c8.8,0 16,7.2 16,16l0 182.7c0,8.8 -7.2,16 -16,16l-272.16 0c-8.8,0 -16,-7.2 -16,-16l0 -182.7c0,-8.8 7.2,-16 16,-16z"/>
   <g style="clip-path:url(#id0)">
    <g>
     <path id="1" class="fil1" d="M299.86 -321c-1.05,-20.18 79.08,123.87 85.99,138.95 26.6,58.13 74.21,233.82 71.28,274.42l-126.89 -82.23c-151.22,-94.62 -24.36,-216.73 -30.38,-331.15z"/>
     <path class="fil2" d="M434.6 425.87l-289.87 -1.63c-4.29,-0.02 -7.78,3.43 -7.81,7.72l-0.29 51.86c-0.01,1.04 0.5,2.02 1.36,2.59 17.83,11.84 41.87,13.96 63.29,9.61 25.91,-5.26 49.42,-18.36 73.59,-29.08 24.17,-10.71 50.71,-19.27 76.74,-14.66 24.57,4.35 45.44,19.79 67.61,31.25 5.92,3.06 12.21,5.82 18.67,8.02 2.01,0.68 4.11,-0.79 4.12,-2.92l0.31 -54.96c0.02,-4.29 -3.43,-7.78 -7.72,-7.81z"/>
     <path class="fil3" d="M166.84 -55.27l-177.3 0c-26.54,0 -48.06,-21.52 -48.06,-48.06 0,-26.54 21.52,-48.06 48.06,-48.06l177.3 0c26.54,0 48.06,21.52 48.06,48.06 0,26.54 -21.52,48.06 -48.06,48.06z"/>
     <path class="fil4 str0" d="M-1789.23 798.94c-82.48,51.41 706.36,-29.27 784.87,-43.6 302.52,-55.18 961.79,-162.51 1113.88,-285.89l-509.03 -462.79c-789.68,-335.78 -921.87,500.85 -1389.72,792.27z"/>
    </g>
   </g>
   <path class="fil5 str1" d="M16.5 0.51l272.16 0c8.8,0 16,7.2 16,16l0 182.7c0,8.8 -7.2,16 -16,16l-272.16 0c-8.8,0 -16,-7.2 -16,-16l0 -182.7c0,-8.8 7.2,-16 16,-16z"/>
   <path class="fil6" d="M160.8 119.67l9.68 0 0 -8.13 -9.68 0 0 8.13zm13.12 -54.96l-71.74 0c-4.56,0 -8.28,3.11 -8.28,6.94l0 97.16c0,3.83 3.71,6.94 8.28,6.94l71.74 0c4.56,0 8.28,-3.11 8.28,-6.94l0 -97.16c0,-3.83 -3.71,-6.94 -8.28,-6.94zm-52.42 104.1c0,1.28 -1.23,2.31 -2.76,2.31l-16.55 0c-1.52,0 -2.76,-1.04 -2.76,-2.31l0 -13.88c0,-1.28 1.23,-2.31 2.76,-2.31l16.55 0c1.53,0 2.76,1.04 2.76,2.31l0 13.88zm0 -23.13c0,1.28 -1.23,2.31 -2.76,2.31l-16.55 0c-1.52,0 -2.76,-1.04 -2.76,-2.31l0 -13.88c0,-1.28 1.23,-2.31 2.76,-2.31l16.55 0c1.53,0 2.76,1.04 2.76,2.31l0 13.88zm27.59 23.13c0,1.28 -1.23,2.31 -2.76,2.31l-16.55 0c-1.52,0 -2.76,-1.04 -2.76,-2.31l0 -13.88c0,-1.28 1.23,-2.31 2.76,-2.31l16.55 0c1.52,0 2.76,1.04 2.76,2.31l0 13.88zm0 -23.13c0,1.28 -1.23,2.31 -2.76,2.31l-16.55 0c-1.52,0 -2.76,-1.04 -2.76,-2.31l0 -13.88c0,-1.28 1.23,-2.31 2.76,-2.31l16.55 0c1.52,0 2.76,1.04 2.76,2.31l0 13.88zm0 -23.13c0,1.28 -1.23,2.31 -2.76,2.31l-44.15 0c-1.52,0 -2.76,-1.04 -2.76,-2.31l0 -13.88c0,-1.28 1.23,-2.31 2.76,-2.31l44.15 0c1.52,0 2.76,1.04 2.76,2.31l0 13.88zm27.59 46.27c0,1.28 -1.23,2.31 -2.76,2.31l-16.55 0c-1.53,0 -2.76,-1.04 -2.76,-2.31l0 -37.01c0,-1.28 1.23,-2.31 2.76,-2.31l16.55 0c1.53,0 2.76,1.04 2.76,2.31l0 37.01zm0 -46.27c0,1.28 -1.23,2.31 -2.76,2.31l-16.55 0c-1.53,0 -2.76,-1.04 -2.76,-2.31l0 -13.88c0,-1.28 1.23,-2.31 2.76,-2.31l16.55 0c1.53,0 2.76,1.04 2.76,2.31l0 13.88zm0 -23.13c0,1.28 -1.23,2.31 -2.76,2.31l-71.74 0c-1.52,0 -2.76,-1.04 -2.76,-2.31l0 -27.76c0,-1.28 1.23,-2.31 2.76,-2.31l71.74 0c1.53,0 2.76,1.04 2.76,2.31l0 27.76zm-71.96 66.53l10.65 0 0 -8.13 -10.65 0 0 8.13zm89.65 -122.64l0 10.83 12.91 0 -12.91 -10.83zm-2.82 15.55c-1.56,0 -2.82,-1.06 -2.82,-2.36l0 -16.53 -78.84 0 0 18.89 64.76 0c7.76,0 14.08,5.3 14.08,11.8l0 92.08 22.53 0 0 -103.88 -19.71 0zm-85.28 16.52l0 20.33 63.56 0 0 -20.33c-21.19,0 -42.38,0 -63.56,0zm-0.65 44.3l37.27 0 0 -8.13 -37.27 0 0 8.13zm27.07 23.13l10.65 0 0 -8.13 -10.65 0 0 8.13zm-27.98 0l10.65 0 0 -8.13 -10.65 0 0 8.13zm56.08 21.44l9.68 0 0 -27.87 -9.68 0 0 27.87zm-28.11 1.7l10.65 0 0 -8.13 -10.65 0 0 8.13z"/>
  </g>
 </g>
</svg>
