<?xml version="1.0" encoding="UTF-8"?>
<!DOCTYPE svg PUBLIC "-//W3C//DTD SVG 1.1//EN" "http://www.w3.org/Graphics/SVG/1.1/DTD/svg11.dtd">
<!-- Creator: CorelDRAW 2019 -->
<svg xmlns="http://www.w3.org/2000/svg" xml:space="preserve" width="21.6747mm" height="21.6747mm" version="1.1" style="shape-rendering:geometricPrecision; text-rendering:geometricPrecision; image-rendering:optimizeQuality; fill-rule:evenodd; clip-rule:evenodd"
viewBox="0 0 38.35 38.35"
 xmlns:xlink="http://www.w3.org/1999/xlink"
 xmlns:xodm="http://www.corel.com/coreldraw/odm/2003">
 <defs>
  <style type="text/css">
   <![CDATA[
    .fil0 {fill:url(#id0);fill-rule:nonzero}
   ]]>
  </style>
  <linearGradient id="id0" gradientUnits="userSpaceOnUse" x1="0.53" y1="18.12" x2="37" y2="19.94">
   <stop offset="0" style="stop-opacity:1; stop-color:#00D9FF"/>
   <stop offset="1" style="stop-opacity:1; stop-color:#5A69F7"/>
  </linearGradient>
 </defs>
 <g id="Слой_x0020_1">
  <metadata id="CorelCorpID_0Corel-Layer"/>
  <path class="fil0" d="M33.56 0l-28.76 0c-2.64,0 -4.79,2.16 -4.79,4.79l0 25.57c0,2.64 2.16,4.79 4.79,4.79l12.91 0c-0.58,-0.99 -1.02,-2.06 -1.33,-3.2l-11.59 0c-0.88,0 -1.6,-0.72 -1.6,-1.6l0 -22.37 31.96 0 0 9.72c1.2,0.69 2.29,1.58 3.2,2.62l0 -15.53c0,-2.64 -2.16,-4.79 -4.79,-4.79zm-4.79 19.18c-5.29,0 -9.59,4.3 -9.59,9.59 0,5.29 4.3,9.59 9.59,9.59 5.29,0 9.59,-4.3 9.59,-9.59 0,-5.29 -4.3,-9.59 -9.59,-9.59zm5.6 7.44l-5.59 6.39c-0.29,0.33 -0.71,0.53 -1.15,0.54 -0.02,0 -0.04,0 -0.05,0 -0.42,0 -0.83,-0.17 -1.13,-0.47l-3.2 -3.2c-0.62,-0.62 -0.62,-1.63 0,-2.26 0.62,-0.63 1.63,-0.63 2.26,0l1.99 1.99 4.47 -5.11c0.58,-0.66 1.59,-0.73 2.25,-0.15 0.66,0.58 0.73,1.59 0.15,2.26zm-18.38 2.14c0,0.26 0.02,0.53 0.03,0.78l-8.34 0c-0.66,0 -1.2,-0.54 -1.2,-1.2 0,-0.66 0.54,-1.2 1.2,-1.2l8.42 0c-0.08,0.53 -0.11,1.07 -0.11,1.61zm1.74 -6.41c-0.45,0.75 -0.82,1.55 -1.09,2.4l-8.96 0c-0.66,0 -1.2,-0.54 -1.2,-1.2 0,-0.66 0.54,-1.2 1.2,-1.2l10.05 0zm13.04 -11.97l-23.17 0c-0.66,0 -1.2,0.54 -1.2,1.2l0 7.19c0,0.66 0.54,1.2 1.2,1.2l11.92 0c0.89,-0.96 1.93,-1.77 3.08,-2.4l-13.81 0 0 -4.79 20.77 0 0 3.23c0.83,0.05 1.63,0.18 2.4,0.37l0 -4.79c0,-0.66 -0.54,-1.2 -1.2,-1.2z"/>
 </g>
</svg>
