<?xml version="1.0" encoding="UTF-8"?>
<!DOCTYPE svg PUBLIC "-//W3C//DTD SVG 1.1//EN" "http://www.w3.org/Graphics/SVG/1.1/DTD/svg11.dtd">
<!-- Creator: CorelDRAW 2019 -->
<svg xmlns="http://www.w3.org/2000/svg" xml:space="preserve" width="60.172mm" height="42.533mm" version="1.1" style="shape-rendering:geometricPrecision; text-rendering:geometricPrecision; image-rendering:optimizeQuality; fill-rule:evenodd; clip-rule:evenodd"
viewBox="0 0 305.17 215.71"
 xmlns:xlink="http://www.w3.org/1999/xlink"
 xmlns:xodm="http://www.corel.com/coreldraw/odm/2003">
 <defs>
  <style type="text/css">
   <![CDATA[
    .str0 {stroke:white;stroke-width:3.58;stroke-miterlimit:22.9256}
    .str1 {stroke:#E6E6E6;stroke-width:1.01;stroke-miterlimit:22.9256}
    .fil5 {fill:none}
    .fil0 {fill:white}
    .fil1 {fill:#34DAEA;fill-rule:nonzero}
    .fil4 {fill:#5A69F7;fill-rule:nonzero}
    .fil2 {fill:url(#id1);fill-rule:nonzero}
    .fil6 {fill:url(#id2);fill-rule:nonzero}
    .fil3 {fill:url(#id3);fill-rule:nonzero}
   ]]>
  </style>
    <clipPath id="id0">
     <path d="M16.5 215.2l272.16 0c8.8,0 16,-7.2 16,-16l0 -182.7c0,-8.8 -7.2,-16 -16,-16l-272.16 0c-8.8,0 -16,7.2 -16,16l0 182.7c0,8.8 7.2,16 16,16z"/>
    </clipPath>
  <linearGradient id="id1" gradientUnits="userSpaceOnUse" x1="-51.44" y1="380.68" x2="121.67" y2="545.31">
   <stop offset="0" style="stop-opacity:1; stop-color:#905EF2"/>
   <stop offset="1" style="stop-opacity:1; stop-color:#4859F7"/>
  </linearGradient>
  <linearGradient id="id2" gradientUnits="userSpaceOnUse" x1="99.15" y1="104.84" x2="203.67" y2="110.05">
   <stop offset="0" style="stop-opacity:1; stop-color:#00D9FF"/>
   <stop offset="1" style="stop-opacity:1; stop-color:#5A69F7"/>
  </linearGradient>
  <linearGradient id="id3" gradientUnits="userSpaceOnUse" x1="-69.45" y1="368.25" x2="233.23" y2="279.66">
   <stop offset="0" style="stop-opacity:1; stop-color:#00D9FF"/>
   <stop offset="0.419608" style="stop-opacity:1; stop-color:#1B75FD"/>
   <stop offset="1" style="stop-opacity:1; stop-color:#B357EF"/>
  </linearGradient>
 </defs>
 <g id="Слой_x0020_1">
  <metadata id="CorelCorpID_0Corel-Layer"/>
  <g id="_941095736">
   <path class="fil0" d="M16.5 215.2l272.16 0c8.8,0 16,-7.2 16,-16l0 -182.7c0,-8.8 -7.2,-16 -16,-16l-272.16 0c-8.8,0 -16,7.2 -16,16l0 182.7c0,8.8 7.2,16 16,16z"/>
   <g style="clip-path:url(#id0)">
    <g>
     <path id="1" class="fil1" d="M299.86 536.71c-1.05,20.18 79.08,-123.87 85.99,-138.95 26.6,-58.13 74.21,-233.82 71.28,-274.42l-126.89 82.23c-151.22,94.62 -24.36,216.73 -30.38,331.15z"/>
     <path class="fil2" d="M182 496.91l-289.87 1.63c-4.29,0.02 -7.78,-3.43 -7.81,-7.72l-0.29 -51.86c-0.01,-1.04 0.5,-2.02 1.36,-2.59 17.83,-11.84 41.87,-13.96 63.29,-9.61 25.91,5.26 49.42,18.36 73.59,29.08 24.17,10.71 50.71,19.27 76.74,14.66 24.57,-4.35 45.44,-19.79 67.61,-31.25 5.92,-3.06 12.21,-5.82 18.67,-8.02 2.01,-0.68 4.11,0.79 4.12,2.92l0.31 54.96c0.02,4.29 -3.43,7.78 -7.72,7.81z"/>
     <path class="fil3" d="M166.84 270.98l-177.3 0c-26.54,0 -48.06,21.52 -48.06,48.06 0,26.54 21.52,48.06 48.06,48.06l177.3 0c26.54,0 48.06,-21.52 48.06,-48.06 0,-26.54 -21.52,-48.06 -48.06,-48.06z"/>
     <path class="fil4 str0" d="M-1789.23 -583.23c-82.48,-51.41 706.36,29.27 784.87,43.6 302.52,55.18 961.79,162.51 1113.88,285.89l-509.03 462.79c-789.68,335.78 -921.87,-500.85 -1389.72,-792.27z"/>
    </g>
   </g>
   <path class="fil5 str1" d="M16.5 215.2l272.16 0c8.8,0 16,-7.2 16,-16l0 -182.7c0,-8.8 -7.2,-16 -16,-16l-272.16 0c-8.8,0 -16,7.2 -16,16l0 182.7c0,8.8 7.2,16 16,16z"/>
   <path class="fil6" d="M193.81 52.89l-82.44 0c-7.56,0 -13.74,6.18 -13.74,13.74l0 73.28c0,7.56 6.18,13.74 13.74,13.74l37.01 0c-1.65,-2.84 -2.93,-5.91 -3.8,-9.16l-33.21 0c-2.52,0 -4.58,-2.06 -4.58,-4.58l0 -64.12 91.6 0 0 27.85c3.44,1.97 6.55,4.53 9.16,7.51l0 -44.52c0,-7.56 -6.18,-13.74 -13.74,-13.74zm-13.74 54.96c-15.15,0 -27.48,12.33 -27.48,27.48 0,15.15 12.33,27.48 27.48,27.48 15.15,0 27.48,-12.33 27.48,-27.48 0,-15.15 -12.33,-27.48 -27.48,-27.48zm16.04 21.33l-16.03 18.32c-0.83,0.95 -2.02,1.52 -3.29,1.56 -0.05,0 -0.1,0 -0.15,0 -1.21,0 -2.38,-0.48 -3.24,-1.34l-9.16 -9.16c-1.79,-1.79 -1.79,-4.69 0,-6.48 1.79,-1.79 4.69,-1.79 6.48,0l5.7 5.7 12.81 -14.64c1.67,-1.9 4.56,-2.1 6.46,-0.43 1.91,1.67 2.1,4.56 0.43,6.47zm-52.68 6.15c0,0.73 0.05,1.51 0.09,2.24l-23.91 0c-1.88,0 -3.44,-1.56 -3.44,-3.43 0,-1.88 1.56,-3.44 3.44,-3.44l24.14 0c-0.23,1.51 -0.32,3.07 -0.32,4.63zm4.99 -18.37c-1.28,2.15 -2.34,4.44 -3.11,6.87l-25.69 0c-1.88,0 -3.44,-1.56 -3.44,-3.44 0,-1.88 1.56,-3.43 3.44,-3.43l28.81 0zm37.37 -34.31l-66.41 0c-1.88,0 -3.43,1.56 -3.43,3.43l0 20.61c0,1.88 1.56,3.43 3.43,3.43l34.17 0c2.57,-2.75 5.54,-5.08 8.84,-6.87l-39.57 0 0 -13.74 59.54 0 0 9.25c2.38,0.14 4.67,0.5 6.87,1.05l0 -13.74c0,-1.88 -1.56,-3.43 -3.43,-3.43z"/>
  </g>
 </g>
</svg>
