<?xml version="1.0" encoding="UTF-8"?>
<!DOCTYPE svg PUBLIC "-//W3C//DTD SVG 1.1//EN" "http://www.w3.org/Graphics/SVG/1.1/DTD/svg11.dtd">
<!-- Creator: CorelDRAW 2020 (64-Bit) -->
<svg xmlns="http://www.w3.org/2000/svg" xml:space="preserve" width="800px" height="451px" version="1.1" style="shape-rendering:geometricPrecision; text-rendering:geometricPrecision; image-rendering:optimizeQuality; fill-rule:evenodd; clip-rule:evenodd"
viewBox="0 0 72.58 40.92"
 xmlns:xlink="http://www.w3.org/1999/xlink"
 xmlns:xodm="http://www.corel.com/coreldraw/odm/2003">
 <defs>
  <style type="text/css">
   <![CDATA[
    .str0 {stroke:white;stroke-width:0.03;stroke-miterlimit:10}
    .fil10 {fill:#2774D1;fill-rule:nonzero}
    .fil5 {fill:#2B478B;fill-rule:nonzero}
    .fil26 {fill:#2F2E41;fill-rule:nonzero}
    .fil12 {fill:#311649;fill-rule:nonzero}
    .fil16 {fill:#3A3582;fill-rule:nonzero}
    .fil4 {fill:#4576BA;fill-rule:nonzero}
    .fil11 {fill:#462260;fill-rule:nonzero}
    .fil14 {fill:#4C99F8;fill-rule:nonzero}
    .fil21 {fill:#54519E;fill-rule:nonzero}
    .fil0 {fill:#562AC5;fill-rule:nonzero}
    .fil24 {fill:#5A8EF7;fill-rule:nonzero}
    .fil22 {fill:#713CD5;fill-rule:nonzero}
    .fil3 {fill:#77A4E5;fill-rule:nonzero}
    .fil2 {fill:#AFCDFB;fill-rule:nonzero}
    .fil9 {fill:#C38B95;fill-rule:nonzero}
    .fil23 {fill:#CCA1AA;fill-rule:nonzero}
    .fil25 {fill:#D0DFFA;fill-rule:nonzero}
    .fil13 {fill:#D2A4AB;fill-rule:nonzero}
    .fil17 {fill:#D4A6AD;fill-rule:nonzero}
    .fil1 {fill:#E4EEFF;fill-rule:nonzero}
    .fil15 {fill:#EFDCDC;fill-rule:nonzero}
    .fil19 {fill:#F29CC3;fill-rule:nonzero}
    .fil6 {fill:#F4F6FE;fill-rule:nonzero}
    .fil18 {fill:#FA446C;fill-rule:nonzero}
    .fil20 {fill:#FEB8DD;fill-rule:nonzero}
    .fil27 {fill:white;fill-rule:nonzero}
    .fil7 {fill:url(#id0);fill-rule:nonzero}
    .fil8 {fill:url(#id1);fill-rule:nonzero}
   ]]>
  </style>
  <linearGradient id="id0" gradientUnits="userSpaceOnUse" x1="54.57" y1="14.17" x2="35.6" y2="18.4">
   <stop offset="0" style="stop-opacity:1; stop-color:#00D9FF"/>
   <stop offset="1" style="stop-opacity:1; stop-color:#925FF2"/>
  </linearGradient>
  <linearGradient id="id1" gradientUnits="userSpaceOnUse" xlink:href="#id0" x1="51.54" y1="13.99" x2="36.74" y2="16.62">
  </linearGradient>
 </defs>
 <g id="Слой_x0020_1">
  <metadata id="CorelCorpID_0Corel-Layer"/>
  <path class="fil0" d="M43.28 37.41c-0.12,0.12 -0.12,0.32 0,0.44 0.12,0.13 0.32,0.13 0.44,0 0.13,-0.12 0.13,-0.32 0,-0.44 -0.12,-0.12 -0.32,-0.12 -0.44,0z"/>
  <path class="fil0" d="M40.14 37.41c-0.12,0.12 -0.12,0.32 0,0.44 0.12,0.13 0.32,0.13 0.44,0 0.13,-0.12 0.13,-0.32 0,-0.44 -0.12,-0.12 -0.32,-0.12 -0.44,0z"/>
  <path class="fil0" d="M30.72 37.41c-0.12,0.12 -0.12,0.32 0,0.44 0.12,0.13 0.32,0.13 0.45,0 0.12,-0.12 0.12,-0.32 0,-0.44 -0.13,-0.12 -0.33,-0.12 -0.45,0z"/>
  <path class="fil0" d="M41.71 38.98c-0.12,0.12 -0.12,0.32 0,0.44 0.12,0.13 0.32,0.13 0.44,0 0.13,-0.12 0.13,-0.32 0,-0.44 -0.12,-0.12 -0.32,-0.12 -0.44,0z"/>
  <path class="fil0" d="M29.15 38.98c-0.12,0.12 -0.12,0.32 0,0.44 0.12,0.13 0.32,0.13 0.45,0 0.12,-0.12 0.12,-0.32 0,-0.44 -0.13,-0.12 -0.33,-0.12 -0.45,0z"/>
  <path class="fil0" d="M43.28 34.27c-0.12,0.12 -0.12,0.32 0,0.45 0.12,0.12 0.32,0.12 0.44,0 0.13,-0.13 0.13,-0.33 0,-0.45 -0.12,-0.12 -0.32,-0.12 -0.44,0z"/>
  <path class="fil0" d="M40.14 34.27c-0.12,0.12 -0.12,0.32 0,0.45 0.12,0.12 0.32,0.12 0.44,0 0.13,-0.13 0.13,-0.33 0,-0.45 -0.12,-0.12 -0.32,-0.12 -0.44,0z"/>
  <path class="fil0" d="M41.71 35.84c-0.12,0.12 -0.12,0.32 0,0.45 0.12,0.12 0.32,0.12 0.44,0 0.13,-0.13 0.13,-0.33 0,-0.45 -0.12,-0.12 -0.32,-0.12 -0.44,0z"/>
  <path class="fil0" d="M32.29 35.84c-0.12,0.12 -0.12,0.32 0,0.45 0.12,0.12 0.32,0.12 0.45,0 0.12,-0.13 0.12,-0.33 0,-0.45 -0.13,-0.12 -0.33,-0.12 -0.45,0z"/>
  <path class="fil1" d="M72.58 35.31l0 5.61 -51.94 0c-9.12,0 -21.22,-7.18 -20.62,-17.4 0.87,-14.89 16.88,-23.06 30.47,-23.5 21.15,-0.67 42.09,12.98 42.09,35.29z"/>
  <path class="fil2" d="M28.17 39.92l0 0.65c0,0.19 -0.16,0.35 -0.35,0.35l-13.2 0c-0.2,0 -0.35,-0.16 -0.35,-0.35l0 -0.65c0,-0.19 0.15,-0.35 0.35,-0.35l13.2 0c0.19,0 0.35,0.16 0.35,0.35z"/>
  <path class="fil2" d="M30.35 38.57l0 0.65c0,0.19 -0.16,0.35 -0.36,0.35l-13.19 0c-0.2,0 -0.36,-0.16 -0.36,-0.35l0 -0.65c0,-0.19 0.16,-0.35 0.36,-0.35l13.19 0c0.2,0 0.36,0.16 0.36,0.35z"/>
  <path class="fil2" d="M30.93 35.87l0 0.65c0,0.19 -0.16,0.35 -0.35,0.35l-13.2 0c-0.19,0 -0.35,-0.16 -0.35,-0.35l0 -0.65c0,-0.19 0.16,-0.35 0.35,-0.35l13.2 0c0.19,0 0.35,0.16 0.35,0.35z"/>
  <path class="fil2" d="M28.9 37.22l0 0.64c0,0.2 -0.15,0.36 -0.35,0.36l-13.2 0c-0.19,0 -0.35,-0.16 -0.35,-0.36l0 -0.64c0,-0.2 0.16,-0.35 0.35,-0.35l13.2 0c0.2,0 0.35,0.15 0.35,0.35z"/>
  <path class="fil3" d="M28.17 39.92l0 0.65c0,0.19 -0.16,0.35 -0.35,0.35l-1.81 0c-0.61,-0.88 -2.67,-1.23 -4.69,-1.35l6.5 0c0.19,0 0.35,0.16 0.35,0.35z"/>
  <path class="fil3" d="M25.07 38.22c-3.78,0 -5.71,0.92 -6.4,1.35l-1.87 0c-0.2,0 -0.36,-0.16 -0.36,-0.35l0 -0.65c0,-0.19 0.16,-0.35 0.36,-0.35l8.27 0z"/>
  <path class="fil3" d="M17.38 35.52l7.13 0c-2.37,0.01 -5.62,1.22 -5.74,1.35l0 0 -1.39 0c-0.19,0 -0.35,-0.16 -0.35,-0.35l0 -0.65c0,-0.19 0.16,-0.35 0.35,-0.35z"/>
  <path class="fil2" d="M30.93 33.23l0 0.65c0,0.19 -0.16,0.35 -0.35,0.35l-13.2 0c-0.19,0 -0.35,-0.16 -0.35,-0.35l0 -0.65c0,-0.19 0.16,-0.35 0.35,-0.35l13.2 0c0.19,0 0.35,0.16 0.35,0.35z"/>
  <path class="fil2" d="M30.96 34.58l0 0.65c0,0.19 -0.16,0.35 -0.35,0.35l-13.2 0c-0.19,0 -0.35,-0.16 -0.35,-0.35l0 -0.65c0,-0.19 0.16,-0.35 0.35,-0.35l13.2 0c0.19,0 0.35,0.16 0.35,0.35z"/>
  <path class="fil3" d="M17.38 32.88l7.13 0c-2.37,0.01 -5.62,1.22 -5.74,1.35l0 0 -1.39 0c-0.19,0 -0.35,-0.16 -0.35,-0.35l0 -0.65c0,-0.19 0.16,-0.35 0.35,-0.35z"/>
  <path class="fil2" d="M18.58 28.86c0.23,-1.97 2.02,-3.37 3.99,-3.14 1.97,0.23 3.38,2.02 3.14,3.99 -0.23,1.97 -2.02,3.38 -3.99,3.15 -1.97,-0.24 -3.38,-2.03 -3.14,-4z"/>
  <path class="fil4" d="M22.14 26.13c-0.71,0 -1.39,0.23 -1.95,0.68 -0.66,0.52 -1.08,1.27 -1.18,2.11 -0.1,0.83 0.13,1.66 0.65,2.32 0.53,0.67 1.27,1.09 2.11,1.19 0.84,0.09 1.67,-0.14 2.33,-0.66 0.66,-0.52 1.08,-1.27 1.18,-2.11 0.1,-0.84 -0.13,-1.66 -0.65,-2.33 -0.53,-0.66 -1.27,-1.08 -2.11,-1.18 -0.13,-0.01 -0.26,-0.02 -0.38,-0.02zm0.01 6.47c-0.13,0 -0.26,-0.01 -0.4,-0.02 -0.87,-0.11 -1.66,-0.55 -2.21,-1.24 -0.54,-0.7 -0.79,-1.56 -0.68,-2.44 0.1,-0.88 0.54,-1.67 1.24,-2.21 0.69,-0.55 1.56,-0.79 2.44,-0.69 0.87,0.1 1.66,0.54 2.21,1.24 0.54,0.69 0.79,1.56 0.68,2.44 -0.1,0.88 -0.54,1.66 -1.24,2.21 -0.59,0.46 -1.3,0.71 -2.04,0.71z"/>
  <path class="fil4" d="M22.57 30.28c0.01,-0.08 0.01,-0.14 0,-0.2 -0.02,-0.06 -0.05,-0.11 -0.09,-0.16 -0.04,-0.06 -0.1,-0.1 -0.17,-0.15 -0.07,-0.05 -0.15,-0.1 -0.25,-0.15 -0.18,-0.08 -0.34,-0.17 -0.48,-0.26 -0.14,-0.09 -0.26,-0.19 -0.36,-0.29 -0.1,-0.11 -0.17,-0.22 -0.21,-0.36 -0.05,-0.13 -0.06,-0.28 -0.04,-0.45 0.02,-0.15 0.06,-0.28 0.13,-0.4 0.07,-0.11 0.15,-0.21 0.26,-0.29 0.11,-0.08 0.24,-0.14 0.38,-0.18 0.14,-0.04 0.3,-0.06 0.47,-0.05l0.07 -0.57 0.45 0.06 -0.07 0.57c0.16,0.04 0.3,0.1 0.43,0.18 0.12,0.08 0.22,0.18 0.3,0.29 0.08,0.11 0.14,0.24 0.17,0.39 0.04,0.15 0.04,0.31 0.02,0.48l-0.81 -0.09c0.02,-0.21 -0.01,-0.38 -0.09,-0.49 -0.08,-0.12 -0.2,-0.18 -0.35,-0.2 -0.09,-0.01 -0.16,-0.01 -0.23,0.01 -0.06,0.01 -0.11,0.04 -0.16,0.08 -0.04,0.03 -0.08,0.08 -0.1,0.13 -0.03,0.06 -0.05,0.12 -0.05,0.18 -0.01,0.06 -0.01,0.12 0,0.18 0.02,0.05 0.04,0.11 0.08,0.16 0.05,0.05 0.1,0.1 0.17,0.14 0.08,0.05 0.16,0.1 0.27,0.16 0.18,0.09 0.33,0.18 0.48,0.27 0.14,0.09 0.26,0.19 0.35,0.29 0.1,0.11 0.17,0.23 0.21,0.36 0.05,0.13 0.06,0.28 0.04,0.45 -0.02,0.15 -0.06,0.29 -0.13,0.4 -0.07,0.12 -0.16,0.22 -0.26,0.29 -0.11,0.08 -0.24,0.14 -0.38,0.18 -0.15,0.03 -0.31,0.05 -0.48,0.05l-0.06 0.52 -0.45 -0.06 0.06 -0.51c-0.15,-0.04 -0.3,-0.09 -0.44,-0.16 -0.14,-0.07 -0.26,-0.16 -0.36,-0.27 -0.1,-0.11 -0.18,-0.25 -0.23,-0.41 -0.05,-0.16 -0.06,-0.34 -0.03,-0.55l0.81 0.1c-0.01,0.12 -0.01,0.23 0.02,0.31 0.02,0.09 0.06,0.16 0.11,0.22 0.06,0.06 0.12,0.1 0.19,0.13 0.07,0.03 0.15,0.04 0.22,0.05 0.09,0.01 0.17,0.01 0.24,0 0.07,-0.02 0.13,-0.04 0.18,-0.08 0.05,-0.03 0.09,-0.08 0.12,-0.13 0.03,-0.05 0.05,-0.11 0.05,-0.17z"/>
  <path class="fil5" d="M45.28 40.92l-12.21 -0.01c-2.28,-0.01 -4.14,-1.87 -4.13,-4.15l0.03 -27.89c0,-1.82 1.2,-3.37 2.84,-3.92 0.41,-0.14 0.85,-0.21 1.31,-0.21l0.06 0 2.69 0 6.66 0.01 0.01 0 2.79 0c2.28,0.01 4.14,1.87 4.13,4.15l-0.03 27.89c0,2.27 -1.87,4.13 -4.15,4.13z"/>
  <path class="fil6" d="M44.81 40.2l-11.26 -0.02c-1.94,0 -3.52,-1.59 -3.52,-3.52l0.02 -14.68 0 -2.04 0.01 -1.64 0 -5.91 0.01 -2.92 0 -0.49c0,-1.94 1.59,-3.52 3.52,-3.52l2.29 0 3.49 0.01 5.48 0.01c0.94,0 1.79,0.37 2.42,0.97 0.26,0.25 0.49,0.54 0.67,0.86 0.19,0.35 0.32,0.73 0.39,1.14 0.02,0.18 0.04,0.36 0.04,0.55l-0.04 27.68c0,1.94 -1.59,3.52 -3.52,3.52z"/>
  <path class="fil5" d="M42.53 6.2l-6.66 -0.01c-0.4,0 -0.72,-0.33 -0.72,-0.73 0,-0.4 0.32,-0.72 0.72,-0.72l6.66 0.01c0.4,0 0.73,0.33 0.73,0.72 0,0.4 -0.33,0.73 -0.73,0.73z"/>
  <path class="fil3" d="M44.98 23.54l-11.37 -0.02c-0.33,0 -0.6,-0.27 -0.6,-0.6 0.01,-0.33 0.28,-0.6 0.6,-0.6l11.37 0.02c0.33,0 0.6,0.27 0.6,0.6 0,0.33 -0.27,0.6 -0.6,0.6z"/>
  <path class="fil3" d="M44.97 26.63l-11.36 -0.02c-0.33,0 -0.6,-0.27 -0.6,-0.6 0,-0.33 0.27,-0.6 0.6,-0.6l11.36 0.02c0.33,0 0.6,0.27 0.6,0.6 0,0.33 -0.27,0.6 -0.6,0.6z"/>
  <path class="fil3" d="M44.97 30.02l-11.37 -0.02c-0.33,0 -0.6,-0.27 -0.6,-0.6 0,-0.33 0.27,-0.6 0.6,-0.6l11.37 0.02c0.33,0 0.59,0.27 0.59,0.6 0,0.33 -0.27,0.6 -0.59,0.6z"/>
  <path class="fil3" d="M36.13 35.99l-2.54 -0.01c-0.33,0 -0.6,-0.27 -0.6,-0.6 0,-0.33 0.27,-0.6 0.6,-0.6l2.54 0.01c0.33,0 0.6,0.27 0.6,0.6 0,0.33 -0.27,0.6 -0.6,0.6z"/>
  <path class="fil3" d="M44.95 36l-2.54 0c-0.33,0 -0.6,-0.27 -0.59,-0.6 0,-0.33 0.27,-0.6 0.59,-0.6l2.55 0.01c0.33,0 0.59,0.27 0.59,0.6 0,0.32 -0.27,0.59 -0.6,0.59z"/>
  <path class="fil7" d="M39.2 10.98c-2.36,0 -4.28,1.92 -4.28,4.29 0,2.36 1.92,4.28 4.28,4.28 2.37,0 4.29,-1.92 4.29,-4.28 0,-2.37 -1.92,-4.29 -4.29,-4.29zm0 8.83c-2.5,0 -4.54,-2.04 -4.54,-4.54 0,-2.51 2.04,-4.55 4.54,-4.55 2.51,0 4.55,2.04 4.55,4.55 0,2.5 -2.04,4.54 -4.55,4.54z"/>
  <path class="fil8" d="M36.15 13.64c0,0 1.8,3.17 2.76,5.06 0,0 2.61,-6.55 4.21,-8.75 0,0 -2.99,2.57 -4.6,5.18 0,0 -1.07,-0.69 -2.37,-1.49z"/>
  <path class="fil9" d="M50.86 25.98l-0.44 -0.32c0,0 -0.19,-1.04 -1.34,-1.08 0,0 -0.48,0.02 -0.32,0.33 0.16,0.32 0.14,0.18 0.36,0.63 0.21,0.45 0.61,0.79 0.97,0.8l0.38 0.17 0.39 -0.53z"/>
  <path class="fil10" d="M50.42 25.66l-0.31 0.57c0,0 4.3,3.96 4.95,3.4 0,0 3.71,-4.72 3.23,-7.21 -0.42,-2.25 -1.34,-2.32 -1.51,-2.31 -0.02,0 -0.03,0 -0.03,0 0,0 -0.52,-0.39 -2.35,7.39 -0.79,-0.57 -1.73,-0.71 -3.98,-1.84z"/>
  <path class="fil11" d="M65.67 32.26l-1.62 0 0 -0.34 0 0 1.61 0 0 0 0.01 0.34zm-3.5 0.35l0.01 2.57c0,0.19 0.15,0.34 0.34,0.34l4.69 -0.01c0.19,0 0.35,-0.15 0.34,-0.34l0 -2.57c0,-0.19 -0.16,-0.35 -0.35,-0.35l-1.24 0.01 0 -0.34c0,-0.17 -0.13,-0.3 -0.3,-0.3l-1.61 0c-0.17,0 -0.3,0.14 -0.3,0.3l0 0.34 -1.24 0.01c-0.19,0 -0.34,0.15 -0.34,0.34z"/>
  <polygon class="fil12" points="62.17,33.58 67.55,33.56 67.55,33.46 62.17,33.48 "/>
  <path class="fil12" d="M44.97 40.02l-0.3 0.89 -2.95 0c0,0 0.75,-1.2 3.25,-0.89z"/>
  <path class="fil9" d="M55.49 20.76c-0.29,-0.77 -0.39,-1.23 -0.39,-1.23l1.28 -1.54c0.29,1.7 1.53,2.3 1.53,2.3 0,0 -1.83,1.41 -3.08,1.27 0,0 0.22,-0.42 0.66,-0.8z"/>
  <path class="fil13" d="M54.74 19.57c0,0 2,-0.07 1.94,-1.32 -0.06,-1.24 0.16,-2.09 -1.12,-2.1 -1.29,-0.01 -1.51,0.48 -1.59,0.9 -0.09,0.42 0.24,2.51 0.77,2.52z"/>
  <path class="fil12" d="M56.69 18.34c0,0 -0.37,-1.62 -2.19,-1.52 -1.25,0.07 -0.72,-1.09 -0.61,-1.28 0,0 0.96,-0.01 1.95,0 2.08,0.04 1.01,2.52 0.85,2.8z"/>
  <path class="fil12" d="M46.31 40.02l-0.29 0.89 -2.96 0c0,0 0.76,-1.2 3.25,-0.89z"/>
  <path class="fil12" d="M60.31 30.51c0,0 -5.02,0.82 -6.7,1.15 -2.47,0.48 -3.82,0.86 -3.82,0.86l-6.81 7.55 2.54 0c0,0 5.65,-3.65 6.38,-4.55l6.22 0c0,0 4.02,-0.69 2.19,-5.01z"/>
  <path class="fil14" d="M61.15 30.96c-2.1,1.03 -4.44,1.66 -5.25,1.85 -0.04,0.01 -0.09,0.01 -0.13,-0.01 -0.07,-0.04 -0.12,-0.12 -0.11,-0.21 0.01,-0.1 0.02,-0.25 0.02,-0.43 0.01,-0.53 -0.05,-1.37 -0.36,-2.53l-0.01 -0.01c-0.14,-0.51 -0.33,-1.15 -0.53,-1.85 0,-0.01 0,-0.01 0,-0.02 -0.14,-0.5 -0.28,-1.02 -0.4,-1.54l0 0c-0.2,-0.92 -0.33,-1.82 -0.25,-2.51 0.1,-0.98 0.41,-1.74 0.8,-2.3l0.32 -0.45c0.43,-0.01 0.84,-0.13 1.23,-0.44 0.41,-0.34 0.86,-0.7 0.95,-0.66 1.27,0.57 2.34,3.08 2.82,5.91 0.39,2.32 0.88,4.26 1.05,4.89 0.03,0.12 -0.03,0.26 -0.15,0.31z"/>
  <path class="fil10" d="M48.48 24.05l0.69 -0.47c0.01,-0.01 0.01,-0.01 0.02,-0.01l0.12 -0.05 0.65 2.01 -0.56 0.45 -0.1 0.05 0 0 0 0 0 0c-0.05,0.02 -0.1,-0.01 -0.13,-0.07l-0.72 -1.78c-0.02,-0.05 -0.01,-0.1 0.03,-0.13z"/>
  <path class="fil14" d="M50.1 25.41l-0.66 0.56c-0.05,0.04 -0.12,0.01 -0.15,-0.06l-0.72 -1.77c-0.02,-0.06 -0.01,-0.11 0.03,-0.14l0.69 -0.47c0.05,-0.04 0.12,-0.01 0.14,0.06l0.7 1.69c0.02,0.05 0.01,0.1 -0.03,0.13z"/>
  <polygon class="fil15" points="50,25.19 49.34,25.74 48.69,24.13 49.37,23.66 "/>
  <path class="fil16" d="M49.74 25.56c-0.01,-0.03 0,-0.06 0.03,-0.07 0.02,-0.01 0.05,0.01 0.06,0.04 0.01,0.03 0,0.06 -0.03,0.07 -0.02,0.01 -0.05,0 -0.06,-0.04z"/>
  <path class="fil13" d="M50.86 26.64l-0.44 -0.31c0,0 -0.19,-1.04 -1.34,-1.09 0,0 -0.48,0.02 -0.32,0.34 0.16,0.32 0.14,0.18 0.36,0.63 0.21,0.45 0.61,0.78 0.97,0.79l0.38 0.17 0.39 -0.53z"/>
  <path class="fil10" d="M57.57 29.28c-0.02,0.79 -0.74,2.44 -1.89,2.88 0.01,-0.53 -0.05,-1.37 -0.36,-2.53l-0.01 -0.01c-0.14,-0.51 -0.33,-1.15 -0.53,-1.85l2.11 -3.07c0,0 0.71,3.72 0.68,4.58z"/>
  <path class="fil11" d="M61.15 30.96c0,0 -2.93,0.04 -6.71,0.9 -1.39,0.31 -4.33,0.96 -4.33,0.96l-6.24 7.25 2.53 0c0,0 5.66,-3.65 6.38,-4.55l6.23 0c0,0 3.96,-0.23 2.14,-4.56z"/>
  <path class="fil10" d="M57.46 24.13c0,0 -1.52,3.05 -1.68,3.21 -0.13,0.13 -0.76,0.34 -1,0.41 -0.14,-0.5 -0.28,-1.02 -0.4,-1.54l0 0c0,0 0.4,-0.65 0.59,-1.32 0.19,-0.66 1.21,-2.21 1.21,-2.21l0.79 0.52 0.49 0.93z"/>
  <path class="fil14" d="M50.49 26.33l-0.38 0.73c0,0 4.3,3.95 4.95,3.4 0,0 3.71,-4.73 3.23,-7.22 -0.42,-2.25 -1.34,-2.32 -1.51,-2.31 -0.02,0 -0.03,0 -0.03,0 0,0 -0.52,-0.38 -2.35,7.4 -0.79,-0.57 -1.66,-0.87 -3.91,-2z"/>
  <g id="_2367296387696">
   <path class="fil13" d="M15.6 16.03c-1,-0.13 -1.25,0.78 -1.25,0.78 0,0 -1.24,0.51 -1.66,0.7 -0.39,0.17 -1.57,0.75 -1.57,0.75 0,0 -2.2,-2.61 -3.03,-2.68l0.14 2c0,0 0.98,1.07 1.37,1.41 0.26,0.23 1.24,0.89 1.24,0.89 0,0 0.93,-0.31 2.18,-1.22 0.39,-0.29 1.52,-1.23 1.52,-1.23 0.3,0.04 0.57,-0.04 0.82,-0.39 0.25,-0.36 0.32,-0.22 0.47,-0.49 0.22,-0.36 -0.12,-0.49 -0.23,-0.52z"/>
   <polygon class="fil17" points="4.42,38.22 4.91,40.28 5.64,40.28 5.67,38.22 "/>
   <path class="fil18" d="M5.28 40.1c-0.83,-0.04 -0.86,0.8 -0.86,0.8l1.69 0c0,0 0,-0.84 -0.83,-0.8z"/>
   <polygon class="fil17" points="10.77,38.31 11.96,40.28 12.7,40.28 12.11,38.04 "/>
   <path class="fil18" d="M12.33 40.1c-0.82,-0.04 -0.85,0.8 -0.85,0.8l1.69 0c0,0 -0.01,-0.84 -0.84,-0.8z"/>
   <path class="fil12" d="M6.96 11.19c-0.25,-0.14 -0.55,-0.16 -0.77,-0.14 0.06,-0.06 0.17,-0.08 0.17,-0.08 -0.13,-0.02 -0.43,0.11 -0.43,0.11 -1.82,-0.7 -2.11,1.99 -2.07,2.61 0.04,0.63 -0.62,0.83 -1.57,1.32 -1.81,0.94 -1.97,2.2 -1.97,2.2 0.02,0.01 0.03,0.02 0.05,0.03 0.09,-0.16 0.27,-0.44 0.43,-0.49 -0.01,0.02 -0.19,0.4 -0.25,0.62 0.53,0.4 1.53,1.3 2.23,1.94 0,-0.12 0,-0.3 0.05,-0.39l0.08 0.52c0.38,0.34 0.63,0.58 0.63,0.58 -0.04,-0.5 2.29,-3.17 3.5,-3.97 0.3,-0.43 0.4,-1.2 0.41,-1.26 -0.05,0.61 -0.16,0.95 -0.25,1.14 1.03,-0.94 0.43,-4.36 -0.24,-4.74z"/>
   <path class="fil9" d="M6.97 16.09c-0.17,-0.07 -0.07,-1.51 -0.07,-1.51l-1.43 -0.28c-0.1,0.47 -0.04,1.29 -0.22,1.32 -0.01,0 0.27,0.55 0.69,0.66 0.44,0.12 1.04,-0.18 1.03,-0.19z"/>
   <path class="fil19" d="M5.51 11.59c0,0 0.77,-0.72 1.53,0.04 0,0 -0.51,-0.05 -1.53,-0.04z"/>
   <path class="fil11" d="M5.41 14.16c0,0 -0.39,-0.62 -0.49,-1.16 -0.06,-0.38 0.13,-1.79 1.55,-1.59 0,0 0.42,0.04 0.8,0.3 0.31,0.21 0.76,0.66 0.26,1.9l-0.13 0.41 -1.99 0.14z"/>
   <path class="fil11" d="M8.07 23.56l-3.45 0c0,0.01 0,0.01 0,0.02l-1.5 0.02c0,0 -0.28,0.55 -0.4,2.14 -0.17,2.19 -0.05,6.27 1.5,13.29 0,0 0.48,0 1.27,0l0.69 0c0.04,0 0.03,-5.61 0.01,-10.07 0.01,0.02 0.02,0.04 0.02,0.06 1.78,4.69 4.39,10.03 4.39,10.03l2.03 0c-0.42,-2.32 -4.56,-15.49 -4.56,-15.49z"/>
   <path class="fil17" d="M4.23 18l-1.33 -0.14c0,0 -0.09,0.47 -0.24,3.43 0,0 -0.43,2.64 -0.54,3.92 0,0 -0.67,0.46 -0.33,1.27 0,0 0.17,0.33 0.34,0.11 0.17,-0.21 0.07,-0.15 0.32,-0.44 0.24,-0.3 0.35,-0.68 0.24,-0.93 0,0 1.01,-3.54 1.05,-3.82 0.03,-0.28 0.49,-3.4 0.49,-3.4z"/>
   <path class="fil12" d="M10.6 39.05c0,0 -2.61,-5.34 -4.39,-10.03 -0.05,-0.66 -0.13,-1.59 0.28,-1.92 0,0 4.33,8.04 4.11,11.95z"/>
   <path class="fil20" d="M8.35 22.01c-0.01,2.4 0.04,2.56 0.04,2.56 0,0 -1.91,0.07 -3.16,-0.2 -0.03,-0.01 -0.06,-0.02 -0.09,-0.03 -0.42,-0.1 -1.21,-0.35 -1.68,-0.5 -0.24,-0.07 -0.4,-0.12 -0.4,-0.12 0.03,-0.1 0.07,-0.19 0.11,-0.28 0.46,-1.16 0.81,-1.67 0.87,-2.03 0,-0.02 0.01,-0.05 0.01,-0.07 0.01,-0.05 0.01,-0.1 0.02,-0.15 0,-0.03 0.01,-0.05 0.01,-0.08 0,0 0,-0.01 0,-0.02 0.06,-0.57 0.06,-1.14 0.01,-1.69 -0.02,-0.25 -0.04,-0.5 -0.08,-0.74l-0.04 -0.02 -1.2 -0.59c0.24,-1.17 0.68,-1.81 0.68,-1.81l0.01 0c0.46,-0.35 1.23,-0.65 1.87,-0.71 0.14,0.21 0.4,0.41 0.78,0.4 0.44,-0.01 0.63,-0.23 0.76,-0.44 0.95,0.03 1.22,0.08 1.22,0.08l0 0c0.03,-0.01 0.4,-0.04 1.51,0.9 0,0 -0.65,1.5 -0.66,1.86l-0.02 -0.01c0.03,0.19 0.05,0.38 0.06,0.57 0.01,0.31 -0.63,3.06 -0.63,3.12z"/>
   <path class="fil12" d="M5.49 39.03c-0.79,0 -1.27,0 -1.27,0 -1.55,-7.02 -1.67,-11.1 -1.5,-13.29 0.38,1.95 2.57,13.07 2.77,13.29z"/>
   <path class="fil19" d="M3.46 23.84c-0.24,-0.07 -0.4,-0.12 -0.4,-0.12 0.03,-0.1 0.07,-0.19 0.11,-0.28 0.46,-1.16 0.81,-1.67 0.87,-2.03 0,-0.02 0.01,-0.05 0.01,-0.07 0.01,-0.05 0.01,-0.1 0.02,-0.15 0,-0.03 0.01,-0.05 0.01,-0.08 0,0 0,-0.01 0,-0.02 0.06,-0.57 0.06,-1.14 0.01,-1.69 -0.02,-0.25 -0.04,-0.5 -0.08,-0.74 0,0 0.12,-0.01 0.16,0.08 1.18,2.5 0.42,4.09 -0.71,5.1z"/>
   <path class="fil13" d="M7.16 14.96c0,0 -1.79,0.03 -1.79,-1.09 0,-1.11 -0.23,-1.86 0.91,-1.92 1.14,-0.07 1.36,0.36 1.45,0.73 0.09,0.37 -0.11,2.24 -0.57,2.28z"/>
   <path class="fil11" d="M7.68 12.06c-0.28,-0.33 -0.49,-0.26 -0.6,-0.16 -0.17,-0.26 -0.5,-0.24 -0.82,-0.14 -0.42,0.14 -0.85,0.3 -0.92,0.86 -0.07,0.55 -0.57,0.79 -0.57,0.79 0,0 0.33,0.2 1.08,0.01 0.59,-0.15 1.02,-0.99 1.18,-1.34 0.1,0.09 0.33,0.31 0.39,0.52 0.09,0.29 0.13,0.87 0.3,0.85 0,0 0.37,-0.89 -0.04,-1.39z"/>
   <path class="fil12" d="M15.9 15.97l-0.66 -0.46c-0.01,0 -0.01,-0.01 -0.02,-0.01l0 0 -0.11 -0.05 -0.63 1.93 0.53 0.43 0.1 0.05 0 0 0 0 0 0c0.05,0.02 0.1,-0.01 0.13,-0.07l0.69 -1.7c0.02,-0.05 0.01,-0.1 -0.03,-0.12z"/>
   <path class="fil0" d="M14.34 17.27l0.64 0.53c0.04,0.04 0.11,0.01 0.14,-0.05l0.69 -1.7c0.02,-0.05 0.01,-0.11 -0.02,-0.13l-0.67 -0.46c-0.04,-0.03 -0.11,0 -0.13,0.06l-0.67 1.63c-0.02,0.04 -0.01,0.09 0.02,0.12z"/>
   <polygon class="fil15" points="14.45,17.06 15.07,17.58 15.7,16.04 15.05,15.59 "/>
   <path class="fil12" d="M14.69 17.42c0.01,-0.04 0,-0.07 -0.02,-0.08 -0.03,-0.01 -0.05,0.01 -0.06,0.04 -0.01,0.03 0,0.06 0.02,0.07 0.03,0.01 0.06,0 0.06,-0.03z"/>
   <path class="fil21" d="M12.93 34.81c0.01,0 0.01,-0.01 0.02,-0.01 0,0 -0.01,0.01 -0.02,0.01z"/>
  </g>
  <path class="fil10" d="M31.3 38.26c-0.46,-0.43 -1.11,-1.64 -1.11,-1.64 0,0 -0.66,0.26 -2.26,0.3 -1.6,0.04 -2.47,-0.2 -2.47,-0.2 -0.45,0.68 -0.6,1.37 -1.06,1.76 -0.38,0.32 -1.77,0.34 -1.77,0.34 0,0 1.63,2.05 3.3,2.08 1.71,0.03 3.23,0 3.23,0 0,0 1.88,-0.61 3.19,-1.71 0,0 -0.94,-0.83 -1.05,-0.93z"/>
  <path class="fil12" d="M28.61 24.56c-0.27,-0.13 -0.57,-0.12 -0.79,-0.09 0.05,-0.06 0.16,-0.09 0.16,-0.09 -0.13,-0.01 -0.42,0.14 -0.42,0.14 -1.9,-0.58 -1.99,2.16 -1.91,2.79 0.09,0.63 -0.56,0.89 -1.48,1.45 -1.77,1.09 -1.84,2.37 -1.84,2.37 0.02,0.01 0.03,0.02 0.05,0.03 0.08,-0.17 0.24,-0.47 0.4,-0.52 -0.01,0.01 -0.16,0.41 -0.21,0.63 0.57,0.38 1.65,1.22 2.4,1.81 -0.01,-0.12 -0.02,-0.3 0.02,-0.4l0.12 0.52c0.41,0.32 0.68,0.54 0.68,0.54 -0.08,-0.51 2.08,-3.37 3.26,-4.27 0.26,-0.46 0.31,-1.25 0.32,-1.31 -0.01,0.62 -0.09,0.98 -0.17,1.18 0.97,-1.03 0.12,-4.44 -0.59,-4.78z"/>
  <path class="fil22" d="M26.73 25.25c0,0 0.7,-0.7 1.52,0.01 0,0 -0.49,-0.1 -1.52,-0.01z"/>
  <path class="fil11" d="M26.46 27.81c0,0 -0.22,-0.46 -0.35,-1 -0.1,-0.38 -0.01,-1.82 1.45,-1.72 0,0 0.42,0.01 0.83,0.25 0.33,0.18 0.81,0.61 0.4,1.89l-0.1 0.44 -2.23 0.14z"/>
  <path class="fil9" d="M29.59 35.83c0.39,-4.27 0.22,-6.01 0.22,-6.01 0,0 -0.61,-0.15 -1.43,-0.4 -0.09,-0.38 -0.05,-1.16 -0.05,-1.16l-1.42 0.03c-0.04,0.34 -0.02,0.85 -0.07,1.14 -0.57,0.2 -1.23,0.19 -1.88,0.49 0,0 0.8,3.29 1.09,6.01 0.03,0.3 3.51,0.27 3.54,-0.1z"/>
  <path class="fil23" d="M28.5 28.42c-0.38,0.36 -0.85,0.84 -1.85,-0.05 -0.2,-0.18 -0.18,-0.44 -0.19,-0.82 -0.02,-0.46 -0.12,-0.73 -0.07,-0.99 0.06,-0.32 0.32,-0.46 0.88,-0.5 1.02,-0.09 1.53,0.14 1.46,0.65 -0.16,1.12 0.15,1.35 -0.23,1.71z"/>
  <path class="fil11" d="M26.37 26.27c-0.31,0.6 -0.87,0.55 -0.87,0.55 0,0 0.55,0.51 1.16,0.31 0.61,-0.21 1.04,-1.15 1.04,-1.15 -0.34,-0.49 -1.17,-0.01 -1.33,0.29z"/>
  <path class="fil11" d="M28.02 25.95c-0.09,0.02 -0.35,0.09 -0.35,0.09 0,0 0.61,-0.01 0.74,0.19 0.14,0.2 0.16,0.43 0.23,0.54 0.07,0.12 0.06,0.24 0.06,0.24 0,0 0.51,-1.33 -0.68,-1.06z"/>
  <path class="fil24" d="M32.14 33.8c0,0 -1.01,0.2 -1.48,0.76 0,0 -0.48,-1.07 -0.53,-1.07l0 0c-0.05,0.02 -0.5,2.26 -0.44,2.42 0.05,0.16 0.51,0.7 0.57,0.82 0.02,0.05 -0.27,0.26 -0.7,0.49 -0.53,0.28 -1.26,0.57 -1.81,0.57 -0.97,0 -2.52,-0.46 -2.5,-0.76 0,-0.01 0,-0.01 0,-0.02 0.02,-0.1 0.68,-0.81 0.7,-1.14 0.03,-0.33 -0.49,-2.39 -0.55,-2.39l-0.01 0c-0.05,0.05 -0.52,1.18 -0.52,1.18 0,0 -0.95,-0.72 -1.37,-0.76 0,0 0.93,-3.46 1.44,-4.01 0,0 0.25,-0.07 1.1,-0.3 0,0 0.59,1.83 1.67,2.62 0,0 1.2,-0.94 1.42,-2.59 0,0 1.13,0.28 1.23,0.39 0.1,0.12 1.78,3.79 1.78,3.79z"/>
  <path class="fil10" d="M26.66 36.04c-0.11,0.17 -1.06,1.06 -1.41,0.99 0,-0.01 0,-0.01 0,-0.02 0.02,-0.1 0.68,-0.81 0.7,-1.14 0.03,-0.33 -0.49,-2.39 -0.55,-2.39 0.03,-0.07 0.09,-0.16 0.19,-0.24 0.24,-0.17 1.18,2.62 1.07,2.8z"/>
  <path class="fil10" d="M29.56 37.22c-0.29,-0.49 -0.5,-1.18 -0.53,-1.27 -0.04,-0.14 0.58,-2.4 0.88,-2.51 0.12,-0.05 0.19,-0.01 0.22,0.05l0 0c-0.05,0.02 -0.5,2.26 -0.44,2.42 0.05,0.16 0.51,0.7 0.57,0.82 0.02,0.05 -0.27,0.26 -0.7,0.49z"/>
  <path class="fil9" d="M32.67 38.93c-0.04,0.04 -0.09,0.09 -0.14,0.13 -0.39,0.34 -1.52,0.71 -2.61,1 -0.35,0.1 -0.68,0.18 -0.99,0.26 -0.26,0.08 -0.78,0.24 -1.34,0.44 -0.78,0.27 -1.12,0.14 -1.51,0.07 -0.39,-0.07 -0.83,0.2 -1.41,-0.01 -0.58,-0.21 -0.43,-1.34 -0.43,-1.34 0.2,-0.13 0.95,-0.17 1.47,0.2 0.51,0.37 1.2,0.3 1.2,0.3 0.03,0 0.09,-0.03 0.18,-0.08 0,0 0.66,-0.39 1.87,-1.4 0.18,-0.14 0.37,-0.3 0.56,-0.48 0.46,-0.4 0.88,-0.88 1.31,-1.22 0.25,-0.19 0.51,-0.34 0.77,-0.4 1.24,-0.26 1.67,0.22 1.67,0.22 0,0 0.28,1.39 -0.6,2.31z"/>
  <path class="fil23" d="M26.87 38.91l0 1.65c-0.36,-0.12 -0.67,-0.22 -0.86,-0.28 -0.3,-0.08 -0.63,-0.17 -0.95,-0.27 -0.89,-0.27 -1.77,-0.59 -2.16,-0.89 -0.03,-0.02 -0.06,-0.04 -0.08,-0.06 -0.97,-0.91 -0.6,-2.52 -0.6,-2.52 0,0 0.32,-0.4 1.46,-0.14 0.28,0.07 0.58,0.23 0.87,0.44 0.39,0.28 0.78,0.65 1.16,1.01 0.13,0.12 0.25,0.24 0.38,0.35 0.28,0.26 0.55,0.5 0.78,0.71z"/>
  <path class="fil9" d="M27.36 40.73c0.05,0.02 0.11,0.03 0.16,0.05 -0.73,0.24 -1.07,0.12 -1.44,0.05 -0.39,-0.07 -0.83,0.2 -1.41,-0.01 -0.58,-0.21 -0.43,-1.34 -0.43,-1.34 0.17,-0.11 0.74,-0.16 1.23,0.06 -0.13,0.18 -0.26,0.35 -0.41,0.47 0.32,0.1 0.65,0.19 0.95,0.27 0.28,0.09 0.8,0.25 1.35,0.45z"/>
  <path class="fil6" d="M27.61 39.55c-0.34,0.24 -0.52,0.35 -0.52,0.35 -0.09,0.05 -0.15,0.08 -0.18,0.08 0,0 -0.69,0.07 -1.2,-0.3 -0.08,-0.05 -0.16,-0.1 -0.24,-0.14 0.07,-0.1 0.13,-0.22 0.19,-0.33 0.27,-0.5 0.43,-1.01 0.43,-1.01 0.57,0.53 1.06,0.96 1.39,1.24 0.04,0.04 0.09,0.08 0.13,0.11z"/>
  <path class="fil25" d="M30.62 39.86c-0.02,0.27 -0.1,0.9 -0.39,0.99 -0.5,0.17 -0.89,-0.09 -1.3,-0.02 -0.38,0.07 -0.7,0.17 -1.41,-0.05 0.03,-0.01 0.05,-0.02 0.07,-0.02 0.56,-0.2 1.08,-0.36 1.34,-0.44 0.31,-0.08 0.64,-0.16 0.99,-0.26 0.23,-0.06 0.47,-0.13 0.7,-0.2z"/>
  <path class="fil9" d="M26.87 36.32l-0.14 0.9c-1.31,0.01 -3.55,-1.08 -3.55,-1.08 -0.32,-0.5 0.27,-2.13 0.33,-2.27 0.52,0.04 0.97,0.53 1.27,0.73l-0.34 0.72c0.12,0.04 2.43,1 2.43,1z"/>
  <path class="fil9" d="M28.73 36.32l0.14 0.9c1.3,0.01 3.55,-1.08 3.55,-1.08 0.32,-0.5 -0.31,-2.18 -0.36,-2.32 -0.52,0.04 -1.06,0.41 -1.32,0.66l0.42 0.84c-0.12,0.04 -2.43,1 -2.43,1z"/>
  <polygon class="fil26" points="25.25,37.49 30.37,37.49 30.37,34.25 25.25,34.25 "/>
  <path class="fil27 str0" d="M27.59 35.87c0,-0.13 0.1,-0.22 0.22,-0.22 0.12,0 0.22,0.09 0.22,0.22 0,0.12 -0.1,0.22 -0.22,0.22 -0.12,0 -0.22,-0.1 -0.22,-0.22z"/>
  <path class="fil24" d="M24.55 36.84c-0.05,0.04 -0.11,0.07 -0.2,0.09 -0.81,0.22 -1.27,1.55 -1.45,2.19 -0.03,-0.02 -0.06,-0.04 -0.08,-0.06 -0.97,-0.91 -0.6,-2.52 -0.6,-2.52 0,0 0.32,-0.4 1.46,-0.14 0.28,0.07 0.58,0.23 0.87,0.44z"/>
  <path class="fil24" d="M32.67 38.93c-0.31,-0.76 -1.38,-1.73 -1.84,-2.13 0.25,-0.19 0.51,-0.34 0.77,-0.4 1.24,-0.26 1.67,0.22 1.67,0.22 0,0 0.28,1.39 -0.6,2.31z"/>
  <path class="fil6" d="M29.92 40.06c-0.35,0.1 -0.68,0.18 -0.99,0.26 -0.26,0.08 -0.78,0.24 -1.34,0.44 -0.78,0.27 -1.12,0.14 -1.51,0.07 -0.39,-0.07 -0.83,0.2 -1.41,-0.01 -0.58,-0.21 -0.43,-1.34 -0.43,-1.34 0.2,-0.13 0.95,-0.17 1.47,0.2 0.51,0.37 1.2,0.3 1.2,0.3 0.03,0 0.09,-0.03 0.18,-0.08 0,0 0.66,-0.39 1.87,-1.4 0.12,0.35 0.45,1.17 0.96,1.56z"/>
  <path class="fil25" d="M27.61 39.55c-0.34,0.24 -0.52,0.35 -0.52,0.35 -0.09,0.05 -0.15,0.08 -0.18,0.08 0,0 -0.69,0.07 -1.2,-0.3 -0.08,-0.05 -0.16,-0.1 -0.24,-0.14 0.07,-0.1 0.13,-0.22 0.19,-0.33 0.38,0.13 1.14,0.34 1.82,0.23 0.04,0.04 0.09,0.08 0.13,0.11z"/>
  <path class="fil2" d="M65.83 39.91l0 0.64c0,0.2 -0.16,0.36 -0.35,0.36l-13.2 0c-0.2,0 -0.35,-0.16 -0.35,-0.36l0 -0.64c0,-0.19 0.15,-0.35 0.35,-0.35l13.2 0c0.19,0 0.35,0.16 0.35,0.35z"/>
  <path class="fil2" d="M68.01 38.56l0 0.65c0,0.19 -0.16,0.35 -0.35,0.35l-13.2 0c-0.2,0 -0.35,-0.16 -0.35,-0.35l0 -0.65c0,-0.19 0.15,-0.35 0.35,-0.35l13.2 0c0.19,0 0.35,0.16 0.35,0.35z"/>
  <path class="fil2" d="M68.59 35.88l0 0.64c0,0.19 -0.16,0.35 -0.35,0.35l-13.2 0c-0.19,0 -0.35,-0.16 -0.35,-0.35l0 -0.64c0,-0.2 0.16,-0.36 0.35,-0.36l13.2 0c0.19,0 0.35,0.16 0.35,0.36z"/>
  <path class="fil2" d="M66.57 37.22l0 0.64c0,0.19 -0.16,0.35 -0.36,0.35l-13.19 0c-0.2,0 -0.36,-0.16 -0.36,-0.35l0 -0.64c0,-0.2 0.16,-0.35 0.36,-0.35l13.19 0c0.2,0 0.36,0.15 0.36,0.35z"/>
  <path class="fil3" d="M65.83 39.91l0 0.64c0,0.2 -0.16,0.36 -0.35,0.36l-1.81 0c-0.61,-0.88 -2.67,-1.23 -4.69,-1.35l6.5 0c0.19,0 0.35,0.16 0.35,0.35z"/>
  <path class="fil3" d="M62.73 38.21c-3.78,0 -5.7,0.92 -6.39,1.35l-1.88 0c-0.2,0 -0.35,-0.16 -0.35,-0.35l0 -0.65c0,-0.19 0.15,-0.35 0.35,-0.35l8.27 0z"/>
  <path class="fil3" d="M55.04 35.52l7.13 0c-2.37,0.02 -5.62,1.22 -5.74,1.35l0 0 -1.39 0c-0.19,0 -0.35,-0.16 -0.35,-0.35l0 -0.64c0,-0.2 0.16,-0.36 0.35,-0.36z"/>
  <path class="fil0" d="M34.01 6.76l-1.6 0c-0.14,0 -0.25,-0.11 -0.25,-0.25 0,-0.14 0.11,-0.25 0.25,-0.25l1.6 0c0.14,0 0.25,0.11 0.25,0.25 0,0.14 -0.11,0.25 -0.25,0.25z"/>
  <path class="fil0" d="M45.87 6.76l-1.6 0c-0.14,0 -0.25,-0.11 -0.25,-0.25 0,-0.14 0.11,-0.25 0.25,-0.25l1.6 0c0.14,0 0.25,0.11 0.25,0.25 0,0.14 -0.11,0.25 -0.25,0.25z"/>
 </g>
</svg>
