<?xml version="1.0" encoding="UTF-8"?>
<!DOCTYPE svg PUBLIC "-//W3C//DTD SVG 1.1//EN" "http://www.w3.org/Graphics/SVG/1.1/DTD/svg11.dtd">
<!-- Creator: CorelDRAW 2020 (64-Bit) -->
<svg xmlns="http://www.w3.org/2000/svg" xml:space="preserve" width="376px" height="133px" version="1.1" style="shape-rendering:geometricPrecision; text-rendering:geometricPrecision; image-rendering:optimizeQuality; fill-rule:evenodd; clip-rule:evenodd"
viewBox="0 0 41.31 14.61"
 xmlns:xlink="http://www.w3.org/1999/xlink"
 xmlns:xodm="http://www.corel.com/coreldraw/odm/2003">
 <defs>
  <style type="text/css">
   <![CDATA[
    .fil22 {fill:none}
    .fil0 {fill:#F4F6FE}
    .fil10 {fill:#2774D1;fill-rule:nonzero}
    .fil5 {fill:#2B478B;fill-rule:nonzero}
    .fil11 {fill:#311649;fill-rule:nonzero}
    .fil15 {fill:#3A3582;fill-rule:nonzero}
    .fil4 {fill:#4576BA;fill-rule:nonzero}
    .fil16 {fill:#462260;fill-rule:nonzero}
    .fil13 {fill:#4C99F8;fill-rule:nonzero}
    .fil21 {fill:#54519E;fill-rule:nonzero}
    .fil1 {fill:#562AC5;fill-rule:nonzero}
    .fil3 {fill:#77A4E5;fill-rule:nonzero}
    .fil2 {fill:#AFCDFB;fill-rule:nonzero}
    .fil9 {fill:#C38B95;fill-rule:nonzero}
    .fil12 {fill:#D2A4AB;fill-rule:nonzero}
    .fil17 {fill:#D4A6AD;fill-rule:nonzero}
    .fil14 {fill:#EFDCDC;fill-rule:nonzero}
    .fil19 {fill:#F29CC3;fill-rule:nonzero}
    .fil6 {fill:#F4F6FE;fill-rule:nonzero}
    .fil18 {fill:#FA446C;fill-rule:nonzero}
    .fil20 {fill:#FEB8DD;fill-rule:nonzero}
    .fil7 {fill:url(#id1);fill-rule:nonzero}
    .fil8 {fill:url(#id2);fill-rule:nonzero}
   ]]>
  </style>
   <clipPath id="id0">
    <path d="M0 0l41.31 0 0 14.61 -41.31 0 0 -14.61z"/>
   </clipPath>
  <linearGradient id="id1" gradientUnits="userSpaceOnUse" x1="39.48" y1="4.83" x2="32.61" y2="6.36">
   <stop offset="0" style="stop-opacity:1; stop-color:#00D9FF"/>
   <stop offset="1" style="stop-opacity:1; stop-color:#925FF2"/>
  </linearGradient>
  <linearGradient id="id2" gradientUnits="userSpaceOnUse" xlink:href="#id1" x1="38.38" y1="4.77" x2="33.02" y2="5.72">
  </linearGradient>
 </defs>
 <g id="Слой_x0020_1">
  <metadata id="CorelCorpID_0Corel-Layer"/>
  <polygon class="fil0" points="0,0 41.31,0 41.31,14.61 0,14.61 "/>
  <g style="clip-path:url(#id0)">
   <g id="_2657005613632">
    <path id="1" class="fil1" d="M35.39 13.26c-0.04,0.04 -0.04,0.11 0,0.16 0.04,0.04 0.12,0.04 0.16,0 0.05,-0.05 0.05,-0.12 0,-0.16 -0.04,-0.05 -0.12,-0.05 -0.16,0z"/>
    <path class="fil1" d="M34.25 13.26c-0.04,0.04 -0.04,0.11 0,0.16 0.05,0.04 0.12,0.04 0.16,0 0.05,-0.05 0.05,-0.12 0,-0.16 -0.04,-0.05 -0.11,-0.05 -0.16,0z"/>
    <path class="fil1" d="M34.82 13.82c-0.04,0.05 -0.04,0.12 0,0.17 0.05,0.04 0.12,0.04 0.16,0 0.05,-0.05 0.05,-0.12 0,-0.17 -0.04,-0.04 -0.11,-0.04 -0.16,0z"/>
    <path class="fil1" d="M35.39 12.12c-0.04,0.04 -0.04,0.11 0,0.16 0.04,0.04 0.12,0.04 0.16,0 0.05,-0.05 0.05,-0.12 0,-0.16 -0.04,-0.05 -0.12,-0.05 -0.16,0z"/>
    <path class="fil1" d="M34.25 12.12c-0.04,0.04 -0.04,0.11 0,0.16 0.05,0.04 0.12,0.04 0.16,0 0.05,-0.05 0.05,-0.12 0,-0.16 -0.04,-0.05 -0.11,-0.05 -0.16,0z"/>
    <path class="fil1" d="M34.82 12.69c-0.04,0.04 -0.04,0.11 0,0.16 0.05,0.04 0.12,0.04 0.16,0 0.05,-0.05 0.05,-0.12 0,-0.16 -0.04,-0.05 -0.11,-0.05 -0.16,0z"/>
    <g>
     <path class="fil2" d="M27.21 14.17l0 0.23c0,0.07 -0.06,0.13 -0.13,0.13l-4.79 0c-0.07,0 -0.12,-0.06 -0.12,-0.13l0 -0.23c0,-0.07 0.05,-0.13 0.12,-0.13l4.79 0c0.07,0 0.13,0.06 0.13,0.13z"/>
     <path class="fil2" d="M28 13.68l0 0.23c0,0.07 -0.06,0.13 -0.13,0.13l-4.79 0c-0.07,0 -0.12,-0.06 -0.12,-0.13l0 -0.23c0,-0.07 0.05,-0.13 0.12,-0.13l4.79 0c0.07,0 0.13,0.06 0.13,0.13z"/>
     <path class="fil2" d="M28.21 12.7l0 0.23c0,0.07 -0.06,0.13 -0.13,0.13l-4.78 0c-0.07,0 -0.13,-0.06 -0.13,-0.13l0 -0.23c0,-0.07 0.06,-0.13 0.13,-0.13l4.78 0c0.07,0 0.13,0.06 0.13,0.13z"/>
     <path class="fil2" d="M27.47 13.19l0 0.23c0,0.07 -0.06,0.13 -0.13,0.13l-4.78 0c-0.07,0 -0.13,-0.06 -0.13,-0.13l0 -0.23c0,-0.07 0.06,-0.13 0.13,-0.13l4.78 0c0.07,0 0.13,0.06 0.13,0.13z"/>
     <path class="fil3" d="M26.08 13.55c-1.37,0 -2.07,0.33 -2.32,0.49l-0.68 0c-0.07,0 -0.12,-0.06 -0.12,-0.13l0 -0.23c0,-0.07 0.05,-0.13 0.12,-0.13l3 0z"/>
     <path class="fil3" d="M23.3 12.57l2.58 0c-0.86,0 -2.04,0.44 -2.08,0.49l0 0 -0.5 0c-0.07,0 -0.13,-0.06 -0.13,-0.13l0 -0.23c0,-0.07 0.06,-0.13 0.13,-0.13z"/>
     <path class="fil2" d="M28.21 11.74l0 0.24c0,0.07 -0.06,0.12 -0.13,0.12l-4.78 0c-0.07,0 -0.13,-0.05 -0.13,-0.12l0 -0.24c0,-0.07 0.06,-0.13 0.13,-0.13l4.78 0c0.07,0 0.13,0.06 0.13,0.13z"/>
     <path class="fil2" d="M28.22 12.23l0 0.23c0,0.07 -0.06,0.13 -0.13,0.13l-4.78 0c-0.07,0 -0.13,-0.06 -0.13,-0.13l0 -0.23c0,-0.07 0.06,-0.13 0.13,-0.13l4.78 0c0.07,0 0.13,0.06 0.13,0.13z"/>
     <path class="fil3" d="M23.3 11.61l2.58 0c-0.86,0.01 -2.04,0.45 -2.08,0.49l0 0 -0.5 0c-0.07,0 -0.13,-0.05 -0.13,-0.12l0 -0.24c0,-0.07 0.06,-0.13 0.13,-0.13z"/>
     <path class="fil2" d="M23.73 10.16c0.08,-0.72 0.73,-1.23 1.45,-1.14 0.71,0.08 1.22,0.73 1.14,1.45 -0.09,0.71 -0.74,1.22 -1.45,1.13 -0.71,-0.08 -1.23,-0.73 -1.14,-1.44z"/>
     <path class="fil4" d="M25.02 9.17c-0.26,0 -0.5,0.08 -0.71,0.24 -0.24,0.19 -0.39,0.46 -0.42,0.77 -0.04,0.3 0.04,0.6 0.23,0.84 0.19,0.24 0.46,0.39 0.77,0.43 0.3,0.03 0.6,-0.05 0.84,-0.24 0.24,-0.19 0.39,-0.46 0.43,-0.76 0.04,-0.31 -0.05,-0.61 -0.24,-0.85 -0.19,-0.24 -0.46,-0.39 -0.76,-0.43 -0.05,0 -0.09,0 -0.14,0zm0.01 2.34c-0.05,0 -0.1,0 -0.15,-0.01 -0.32,-0.03 -0.6,-0.19 -0.8,-0.45 -0.2,-0.25 -0.29,-0.56 -0.25,-0.88 0.04,-0.32 0.2,-0.6 0.45,-0.8 0.25,-0.2 0.57,-0.29 0.88,-0.25 0.32,0.04 0.61,0.2 0.81,0.45 0.19,0.25 0.28,0.56 0.24,0.88 -0.03,0.32 -0.19,0.61 -0.44,0.8 -0.22,0.17 -0.48,0.26 -0.74,0.26z"/>
     <path class="fil4" d="M25.18 10.67c0,-0.03 0,-0.05 0,-0.07 -0.01,-0.02 -0.02,-0.04 -0.04,-0.06 -0.01,-0.02 -0.03,-0.04 -0.06,-0.05 -0.02,-0.02 -0.05,-0.04 -0.09,-0.06 -0.06,-0.03 -0.12,-0.06 -0.17,-0.09 -0.05,-0.03 -0.1,-0.07 -0.13,-0.11 -0.04,-0.04 -0.06,-0.08 -0.08,-0.13 -0.02,-0.04 -0.02,-0.1 -0.01,-0.16 0,-0.05 0.02,-0.1 0.04,-0.14 0.03,-0.05 0.06,-0.08 0.1,-0.11 0.04,-0.03 0.08,-0.05 0.14,-0.07 0.05,-0.01 0.11,-0.02 0.17,-0.02l0.02 -0.2 0.16 0.02 -0.02 0.21c0.06,0.01 0.11,0.03 0.15,0.06 0.05,0.03 0.09,0.07 0.12,0.11 0.02,0.04 0.04,0.09 0.06,0.14 0.01,0.05 0.01,0.11 0,0.17l-0.29 -0.03c0.01,-0.08 0,-0.14 -0.03,-0.18 -0.03,-0.04 -0.07,-0.06 -0.13,-0.07 -0.03,0 -0.06,0 -0.08,0 -0.03,0.01 -0.04,0.02 -0.06,0.03 -0.02,0.02 -0.03,0.03 -0.04,0.05 -0.01,0.02 -0.01,0.04 -0.02,0.07 0,0.02 0,0.04 0.01,0.06 0,0.02 0.01,0.04 0.02,0.06 0.02,0.02 0.04,0.03 0.07,0.05 0.02,0.02 0.05,0.04 0.09,0.06 0.07,0.03 0.12,0.06 0.18,0.09 0.05,0.04 0.09,0.07 0.12,0.11 0.04,0.04 0.06,0.08 0.08,0.13 0.02,0.05 0.02,0.1 0.01,0.16 0,0.06 -0.02,0.11 -0.04,0.15 -0.03,0.04 -0.06,0.08 -0.1,0.11 -0.04,0.02 -0.08,0.04 -0.14,0.06 -0.05,0.01 -0.11,0.02 -0.17,0.02l-0.02 0.19 -0.16 -0.02 0.02 -0.19c-0.06,-0.01 -0.11,-0.03 -0.16,-0.06 -0.05,-0.02 -0.1,-0.06 -0.13,-0.1 -0.04,-0.04 -0.07,-0.09 -0.08,-0.14 -0.02,-0.06 -0.03,-0.13 -0.02,-0.2l0.3 0.03c-0.01,0.05 -0.01,0.08 0,0.12 0.01,0.03 0.03,0.05 0.05,0.07 0.01,0.02 0.04,0.04 0.06,0.05 0.03,0.01 0.06,0.02 0.08,0.02 0.04,0 0.06,0 0.09,0 0.03,-0.01 0.05,-0.02 0.06,-0.03 0.02,-0.01 0.04,-0.03 0.05,-0.05 0.01,-0.02 0.02,-0.04 0.02,-0.06z"/>
    </g>
    <path class="fil5" d="M36.11 14.53l-4.42 -0.01c-0.83,0 -1.5,-0.68 -1.5,-1.5l0.01 -10.11c0.01,-0.66 0.44,-1.22 1.03,-1.42 0.15,-0.05 0.31,-0.08 0.48,-0.08l0.02 0 0.98 0 2.41 0.01 0 0 1.01 0c0.83,0 1.5,0.68 1.5,1.5l-0.01 10.11c0,0.82 -0.68,1.5 -1.51,1.5z"/>
    <path class="fil6" d="M35.94 14.27l-4.08 -0.01c-0.7,0 -1.27,-0.58 -1.27,-1.28l0.01 -5.32 0 -0.74 0 -0.59 0 -2.14 0 -1.06 0 -0.18c0,-0.7 0.58,-1.27 1.28,-1.27l0.83 0 1.26 0 1.99 0c0.34,0 0.65,0.14 0.88,0.35 0.09,0.09 0.17,0.2 0.24,0.32 0.07,0.12 0.12,0.26 0.14,0.41 0.01,0.06 0.01,0.13 0.01,0.2l-0.01 10.03c0,0.7 -0.57,1.28 -1.28,1.28z"/>
    <path class="fil5" d="M35.12 1.94l-2.42 0c-0.14,0 -0.26,-0.12 -0.26,-0.26 0,-0.15 0.12,-0.27 0.27,-0.27l2.41 0.01c0.14,0 0.26,0.12 0.26,0.26 0,0.15 -0.12,0.26 -0.26,0.26z"/>
    <path class="fil3" d="M36.01 8.23l-4.12 -0.01c-0.12,0 -0.22,-0.1 -0.22,-0.22 0,-0.12 0.1,-0.21 0.22,-0.21l4.12 0.01c0.12,0 0.21,0.09 0.21,0.21 0,0.12 -0.1,0.22 -0.21,0.22z"/>
    <path class="fil3" d="M36 9.35l-4.12 -0.01c-0.12,0 -0.21,-0.1 -0.21,-0.22 0,-0.12 0.1,-0.21 0.21,-0.21l4.12 0.01c0.12,0 0.22,0.09 0.22,0.21 0,0.12 -0.1,0.22 -0.22,0.22z"/>
    <path class="fil3" d="M36 10.58l-4.12 -0.01c-0.12,0 -0.21,-0.1 -0.21,-0.22 0,-0.12 0.09,-0.21 0.21,-0.21l4.12 0c0.12,0 0.22,0.1 0.22,0.22 0,0.12 -0.1,0.22 -0.22,0.22z"/>
    <path class="fil3" d="M32.8 12.74l-0.92 0c-0.12,0 -0.22,-0.1 -0.22,-0.22 0,-0.12 0.1,-0.22 0.22,-0.22l0.92 0.01c0.12,0 0.22,0.09 0.22,0.21 0,0.12 -0.1,0.22 -0.22,0.22z"/>
    <path class="fil3" d="M36 12.75l-0.92 -0.01c-0.12,0 -0.22,-0.09 -0.22,-0.21 0,-0.12 0.1,-0.22 0.22,-0.22l0.92 0c0.12,0 0.21,0.1 0.21,0.22 0,0.12 -0.09,0.22 -0.21,0.22z"/>
    <path class="fil7" d="M33.91 3.68c-0.85,0 -1.55,0.69 -1.55,1.55 0,0.86 0.7,1.55 1.55,1.55 0.86,0 1.56,-0.69 1.56,-1.55 0,-0.86 -0.7,-1.55 -1.56,-1.55zm0 3.2c-0.91,0 -1.65,-0.74 -1.65,-1.65 0,-0.91 0.74,-1.65 1.65,-1.65 0.91,0 1.65,0.74 1.65,1.65 0,0.91 -0.74,1.65 -1.65,1.65z"/>
    <path class="fil8" d="M32.81 4.64c0,0 0.65,1.15 1,1.83 0,0 0.94,-2.37 1.52,-3.17 0,0 -1.08,0.93 -1.66,1.88 0,0 -0.39,-0.25 -0.86,-0.54z"/>
    <path class="fil9" d="M38.14 9.11l-0.16 -0.11c0,0 -0.07,-0.38 -0.49,-0.39 0,0 -0.17,0 -0.11,0.12 0.05,0.11 0.05,0.06 0.13,0.22 0.07,0.17 0.22,0.29 0.35,0.29l0.14 0.06 0.14 -0.19z"/>
    <path class="fil10" d="M37.98 9l-0.11 0.2c0,0 1.55,1.44 1.79,1.24 0,0 1.34,-1.72 1.17,-2.62 -0.15,-0.81 -0.49,-0.84 -0.55,-0.84 0,0 -0.01,0 -0.01,0 0,0 -0.19,-0.14 -0.85,2.68 -0.29,-0.2 -0.63,-0.25 -1.44,-0.66z"/>
    <path class="fil11" d="M36 14.2l-0.11 0.32 -1.07 0c0,0 0.28,-0.43 1.18,-0.32z"/>
    <path class="fil9" d="M39.82 7.22c-0.11,-0.28 -0.14,-0.45 -0.14,-0.45l0.46 -0.55c0.1,0.61 0.55,0.83 0.55,0.83 0,0 -0.66,0.51 -1.11,0.46 0,0 0.07,-0.15 0.24,-0.29z"/>
    <path class="fil12" d="M39.54 6.79c0,0 0.73,-0.02 0.71,-0.48 -0.02,-0.45 0.05,-0.76 -0.41,-0.76 -0.47,0 -0.55,0.17 -0.58,0.33 -0.03,0.15 0.09,0.91 0.28,0.91z"/>
    <path class="fil11" d="M40.25 6.34c0,0 -0.13,-0.58 -0.79,-0.55 -0.46,0.03 -0.26,-0.39 -0.22,-0.46 0,0 0.34,-0.01 0.7,0 0.76,0.01 0.37,0.91 0.31,1.01z"/>
    <path class="fil11" d="M36.49 14.2l-0.11 0.32 -1.07 0c0,0 0.27,-0.43 1.18,-0.32z"/>
    <path class="fil11" d="M41.56 10.75c0,0 -1.82,0.3 -2.42,0.42 -0.9,0.17 -1.39,0.31 -1.39,0.31l-2.47 2.74 0.92 0c0,0 2.05,-1.32 2.31,-1.65l2.26 0c0,0 1.45,-0.25 0.79,-1.82z"/>
    <path class="fil13" d="M41.87 10.92c-0.76,0.37 -1.61,0.6 -1.9,0.67 -0.02,0 -0.04,0 -0.05,-0.01 -0.03,-0.01 -0.05,-0.04 -0.04,-0.07 0,-0.04 0,-0.09 0.01,-0.16 0,-0.19 -0.02,-0.5 -0.14,-0.92l0 0c-0.05,-0.18 -0.12,-0.42 -0.19,-0.67 0,0 0,0 0,0 -0.05,-0.19 -0.1,-0.38 -0.15,-0.56l0 0c-0.07,-0.34 -0.12,-0.66 -0.09,-0.91 0.04,-0.36 0.15,-0.63 0.29,-0.84l0.12 -0.16c0.15,0 0.3,-0.05 0.44,-0.16 0.15,-0.12 0.31,-0.25 0.35,-0.24 0.46,0.21 0.85,1.12 1.02,2.14 0.14,0.84 0.32,1.55 0.38,1.77 0.01,0.05 -0.01,0.1 -0.05,0.12z"/>
    <path class="fil10" d="M37.27 8.41l0.26 -0.17c0,0 0,0 0,0l0.04 -0.02 0.24 0.73 -0.2 0.16 -0.04 0.02 0 0 0 0 0 0c-0.01,0.01 -0.04,0 -0.04,-0.02l-0.27 -0.65c0,-0.02 0,-0.04 0.01,-0.05z"/>
    <path class="fil13" d="M37.86 8.91l-0.24 0.2c-0.01,0.01 -0.04,0 -0.05,-0.02l-0.26 -0.65c-0.01,-0.01 -0.01,-0.03 0.01,-0.04l0.25 -0.18c0.02,-0.01 0.04,0 0.05,0.03l0.25 0.61c0.01,0.02 0.01,0.04 -0.01,0.05z"/>
    <polygon class="fil14" points="37.82,8.83 37.59,9.03 37.35,8.44 37.6,8.27 "/>
    <path class="fil15" d="M37.73 8.96c0,-0.01 0,-0.02 0.01,-0.03 0.01,0 0.02,0.01 0.02,0.02 0.01,0.01 0,0.02 -0.01,0.03 -0.01,0 -0.02,-0.01 -0.02,-0.02z"/>
    <path class="fil12" d="M38.14 9.35l-0.16 -0.11c0,0 -0.07,-0.38 -0.49,-0.39 0,0 -0.17,0 -0.11,0.12 0.05,0.11 0.05,0.06 0.13,0.22 0.07,0.17 0.22,0.29 0.35,0.29l0.14 0.06 0.14 -0.19z"/>
    <path class="fil10" d="M40.57 10.31c-0.01,0.29 -0.27,0.88 -0.68,1.04 0,-0.19 -0.02,-0.5 -0.14,-0.92l0 0c-0.05,-0.18 -0.12,-0.42 -0.19,-0.67l0.76 -1.11c0,0 0.26,1.35 0.25,1.66z"/>
    <path class="fil16" d="M41.87 10.92c0,0 -1.06,0.01 -2.44,0.32 -0.5,0.12 -1.57,0.35 -1.57,0.35l-2.26 2.63 0.92 0c0,0 2.05,-1.32 2.31,-1.65l2.26 0c0,0 1.44,-0.08 0.78,-1.65z"/>
    <path class="fil10" d="M40.53 8.44c0,0 -0.55,1.11 -0.61,1.17 -0.05,0.04 -0.27,0.12 -0.36,0.15 -0.05,-0.19 -0.1,-0.38 -0.15,-0.56l0 0c0,0 0.15,-0.24 0.22,-0.48 0.06,-0.24 0.43,-0.8 0.43,-0.8l0.29 0.19 0.18 0.33z"/>
    <path class="fil13" d="M38 9.24l-0.13 0.26c0,0 1.55,1.44 1.79,1.23 0,0 1.34,-1.71 1.17,-2.61 -0.15,-0.81 -0.49,-0.84 -0.55,-0.84 0,0 -0.01,0 -0.01,0 0,0 -0.19,-0.14 -0.85,2.68 -0.29,-0.2 -0.6,-0.31 -1.42,-0.72z"/>
    <g>
     <path class="fil12" d="M31.6 5.51c-0.36,-0.05 -0.45,0.28 -0.45,0.28 0,0 -0.45,0.18 -0.61,0.25 -0.14,0.07 -0.56,0.28 -0.56,0.28 0,0 -0.8,-0.95 -1.1,-0.98l0.05 0.73c0,0 0.35,0.39 0.5,0.51 0.09,0.08 0.45,0.32 0.45,0.32 0,0 0.33,-0.11 0.78,-0.44 0.15,-0.11 0.55,-0.45 0.55,-0.45 0.12,0.02 0.21,-0.01 0.3,-0.14 0.09,-0.13 0.12,-0.08 0.17,-0.17 0.08,-0.13 -0.04,-0.18 -0.08,-0.19z"/>
     <polygon class="fil17" points="27.55,13.55 27.72,14.3 27.99,14.29 28,13.55 "/>
     <path class="fil18" d="M27.86 14.23c-0.3,-0.01 -0.31,0.29 -0.31,0.29l0.61 0c0,0 0,-0.3 -0.3,-0.29z"/>
     <polygon class="fil17" points="29.85,13.58 30.28,14.3 30.55,14.29 30.33,13.48 "/>
     <path class="fil18" d="M30.42 14.23c-0.3,-0.01 -0.32,0.29 -0.32,0.29l0.62 0c0,0 0,-0.3 -0.3,-0.29z"/>
     <path class="fil11" d="M28.47 3.75c-0.09,-0.05 -0.2,-0.05 -0.28,-0.05 0.02,-0.02 0.06,-0.03 0.06,-0.03 -0.05,0 -0.15,0.04 -0.15,0.04 -0.67,-0.25 -0.77,0.72 -0.76,0.95 0.02,0.23 -0.22,0.3 -0.56,0.48 -0.66,0.34 -0.72,0.79 -0.72,0.79 0.01,0.01 0.01,0.01 0.02,0.01 0.03,-0.05 0.1,-0.15 0.15,-0.17 0,0 -0.06,0.14 -0.09,0.22 0.2,0.15 0.56,0.48 0.81,0.71 0,-0.05 0,-0.11 0.02,-0.15l0.03 0.19c0.14,0.13 0.23,0.21 0.23,0.21 -0.02,-0.18 0.83,-1.15 1.27,-1.43 0.1,-0.16 0.14,-0.44 0.15,-0.46 -0.02,0.22 -0.06,0.34 -0.09,0.41 0.37,-0.34 0.15,-1.58 -0.09,-1.72z"/>
     <path class="fil9" d="M28.47 5.53c-0.06,-0.03 -0.02,-0.55 -0.02,-0.55l-0.52 -0.1c-0.04,0.17 -0.02,0.47 -0.08,0.48 0,0 0.1,0.2 0.25,0.24 0.16,0.04 0.37,-0.07 0.37,-0.07z"/>
     <path class="fil19" d="M27.94 3.9c0,0 0.28,-0.26 0.56,0.01 0,0 -0.19,-0.02 -0.56,-0.01z"/>
     <path class="fil16" d="M27.91 4.83c0,0 -0.15,-0.23 -0.18,-0.42 -0.02,-0.14 0.05,-0.65 0.56,-0.58 0,0 0.15,0.02 0.29,0.11 0.11,0.08 0.28,0.24 0.09,0.69l-0.04 0.15 -0.72 0.05z"/>
     <path class="fil16" d="M28.87 8.24l-1.25 0c0,0 0,0 0,0l-0.54 0.01c0,0 -0.11,0.2 -0.15,0.78 -0.06,0.79 -0.02,2.27 0.54,4.81 0,0 0.18,0 0.47,0l0.25 0c0.01,0 0.01,-2.03 0,-3.65 0,0.01 0.01,0.02 0.01,0.02 0.64,1.71 1.59,3.64 1.59,3.64l0.73 0c-0.15,-0.84 -1.65,-5.61 -1.65,-5.61z"/>
     <path class="fil17" d="M27.48 6.22l-0.48 -0.05c0,0 -0.04,0.17 -0.09,1.24 0,0 -0.16,0.96 -0.2,1.42 0,0 -0.24,0.17 -0.11,0.46 0,0 0.06,0.12 0.12,0.05 0.06,-0.08 0.02,-0.06 0.11,-0.17 0.09,-0.1 0.13,-0.24 0.09,-0.33 0,0 0.37,-1.28 0.38,-1.39 0.01,-0.1 0.18,-1.23 0.18,-1.23z"/>
     <path class="fil11" d="M29.79 13.85c0,0 -0.95,-1.93 -1.59,-3.64 -0.02,-0.23 -0.05,-0.57 0.1,-0.69 0,0 1.57,2.91 1.49,4.33z"/>
     <path class="fil20" d="M28.97 7.68c0,0.86 0.01,0.92 0.01,0.92 0,0 -0.69,0.03 -1.14,-0.07 -0.01,0 -0.02,-0.01 -0.03,-0.01 -0.15,-0.04 -0.44,-0.13 -0.61,-0.18 -0.09,-0.03 -0.15,-0.05 -0.15,-0.05 0.02,-0.03 0.03,-0.07 0.04,-0.1 0.17,-0.42 0.3,-0.6 0.32,-0.73 0,-0.01 0,-0.02 0,-0.03 0.01,-0.02 0.01,-0.04 0.01,-0.05 0,-0.01 0,-0.02 0,-0.03 0,0 0,-0.01 0,-0.01 0.03,-0.2 0.02,-0.41 0.01,-0.61 -0.01,-0.09 -0.02,-0.18 -0.03,-0.27l-0.02 -0.01 -0.43 -0.21c0.09,-0.43 0.25,-0.66 0.25,-0.66l0 0c0.17,-0.13 0.45,-0.23 0.68,-0.25 0.05,0.07 0.14,0.15 0.28,0.14 0.16,0 0.23,-0.08 0.28,-0.16 0.34,0.01 0.44,0.03 0.44,0.03l0 0c0.01,0 0.14,-0.02 0.55,0.33 0,0 -0.24,0.54 -0.24,0.67l-0.01 0c0.01,0.07 0.02,0.14 0.02,0.2 0,0.11 -0.23,1.11 -0.23,1.14z"/>
     <path class="fil11" d="M27.94 13.84c-0.29,0 -0.47,0 -0.47,0 -0.56,-2.54 -0.6,-4.02 -0.54,-4.81 0.14,0.7 0.93,4.73 1.01,4.81z"/>
     <path class="fil19" d="M27.2 8.34c-0.09,-0.03 -0.15,-0.05 -0.15,-0.05 0.02,-0.03 0.03,-0.07 0.04,-0.1 0.17,-0.42 0.3,-0.6 0.32,-0.73 0,-0.01 0,-0.02 0,-0.03 0.01,-0.02 0.01,-0.04 0.01,-0.05 0,-0.01 0,-0.02 0,-0.03 0,0 0,-0.01 0,-0.01 0.03,-0.2 0.02,-0.41 0.01,-0.61 -0.01,-0.09 -0.02,-0.18 -0.03,-0.27 0,0 0.04,0 0.06,0.03 0.43,0.9 0.15,1.48 -0.26,1.85z"/>
     <path class="fil12" d="M28.54 5.12c0,0 -0.65,0.01 -0.65,-0.39 0,-0.41 -0.08,-0.68 0.33,-0.7 0.41,-0.03 0.49,0.13 0.53,0.26 0.03,0.14 -0.04,0.81 -0.21,0.83z"/>
     <path class="fil16" d="M28.73 4.07c-0.1,-0.12 -0.18,-0.1 -0.22,-0.06 -0.06,-0.09 -0.18,-0.09 -0.3,-0.05 -0.15,0.05 -0.3,0.11 -0.33,0.31 -0.02,0.2 -0.2,0.29 -0.2,0.29 0,0 0.11,0.07 0.39,0 0.21,-0.05 0.37,-0.36 0.42,-0.49 0.04,0.04 0.12,0.12 0.15,0.19 0.03,0.11 0.04,0.32 0.1,0.31 0,0 0.14,-0.32 -0.01,-0.5z"/>
     <path class="fil11" d="M31.71 5.48l-0.24 -0.16c0,0 -0.01,0 -0.01,-0.01l0 0 -0.04 -0.01 -0.23 0.7 0.19 0.15 0.04 0.02 0 0 0 0 0 0c0.02,0.01 0.04,0 0.05,-0.02l0.25 -0.62c0.01,-0.02 0,-0.04 -0.01,-0.05z"/>
     <path class="fil1" d="M31.14 5.96l0.23 0.19c0.02,0.01 0.05,0 0.06,-0.02l0.25 -0.62c0,-0.02 0,-0.03 -0.01,-0.04l-0.24 -0.17c-0.02,-0.01 -0.04,0 -0.05,0.02l-0.24 0.59c-0.01,0.02 -0.01,0.04 0,0.05z"/>
     <polygon class="fil14" points="31.18,5.88 31.41,6.07 31.64,5.51 31.4,5.35 "/>
     <path class="fil11" d="M31.27 6.01c0,-0.01 0,-0.02 -0.01,-0.03 -0.01,0 -0.02,0 -0.02,0.02 0,0.01 0,0.02 0.01,0.02 0.01,0.01 0.02,0 0.02,-0.01z"/>
     <path class="fil21" d="M30.63 12.31c0,0 0.01,0 0.01,0 0,0 0,0 -0.01,0z"/>
    </g>
    <path class="fil2" d="M43.56 14.16l0 0.23c0,0.08 -0.05,0.13 -0.12,0.13l-4.79 0c-0.07,0 -0.13,-0.05 -0.13,-0.13l0 -0.23c0,-0.07 0.06,-0.13 0.13,-0.13l4.79 0c0.07,0 0.12,0.06 0.12,0.13z"/>
    <path class="fil2" d="M44.35 13.67l0 0.24c0,0.07 -0.06,0.12 -0.13,0.12l-4.78 0c-0.07,0 -0.13,-0.05 -0.13,-0.12l0 -0.24c0,-0.07 0.06,-0.12 0.13,-0.12l4.78 0c0.07,0 0.13,0.05 0.13,0.12z"/>
    <path class="fil2" d="M44.56 12.7l0 0.23c0,0.07 -0.05,0.13 -0.12,0.13l-4.79 0c-0.07,0 -0.13,-0.06 -0.13,-0.13l0 -0.23c0,-0.07 0.06,-0.13 0.13,-0.13l4.79 0c0.07,0 0.12,0.06 0.12,0.13z"/>
    <path class="fil2" d="M43.83 13.19l0 0.23c0,0.07 -0.06,0.13 -0.13,0.13l-4.78 0c-0.07,0 -0.13,-0.06 -0.13,-0.13l0 -0.23c0,-0.07 0.06,-0.13 0.13,-0.13l4.78 0c0.07,0 0.13,0.06 0.13,0.13z"/>
    <path class="fil3" d="M43.56 14.16l0 0.23c0,0.08 -0.05,0.13 -0.12,0.13l-0.66 0c-0.22,-0.31 -0.97,-0.44 -1.7,-0.49l2.36 0c0.07,0 0.12,0.06 0.12,0.13z"/>
    <path class="fil3" d="M42.44 13.55c-1.37,0 -2.07,0.33 -2.32,0.48l-0.68 0c-0.07,0 -0.13,-0.05 -0.13,-0.12l0 -0.24c0,-0.07 0.06,-0.12 0.13,-0.12l3 0z"/>
    <path class="fil3" d="M39.65 12.57l2.59 0c-0.86,0.01 -2.04,0.44 -2.08,0.49l-0.01 0 -0.5 0c-0.07,0 -0.13,-0.06 -0.13,-0.13l0 -0.23c0,-0.07 0.06,-0.13 0.13,-0.13z"/>
    <path class="fil1" d="M32.03 2.15l-0.58 0c-0.05,0 -0.09,-0.04 -0.09,-0.09 0,-0.05 0.04,-0.09 0.09,-0.09l0.58 0c0.05,0 0.09,0.04 0.09,0.09 0,0.05 -0.04,0.09 -0.09,0.09z"/>
    <path class="fil1" d="M36.33 2.15l-0.58 0c-0.05,0 -0.09,-0.04 -0.09,-0.09 0,-0.05 0.04,-0.09 0.09,-0.09l0.58 0c0.05,0 0.09,0.04 0.09,0.09 0,0.05 -0.04,0.09 -0.09,0.09z"/>
   </g>
  </g>
  <polygon class="fil22" points="0,0 41.31,0 41.31,14.61 0,14.61 "/>
 </g>
</svg>
