<?xml version="1.0" encoding="UTF-8"?>
<!DOCTYPE svg PUBLIC "-//W3C//DTD SVG 1.1//EN" "http://www.w3.org/Graphics/SVG/1.1/DTD/svg11.dtd">
<!-- Creator: CorelDRAW 2020 (64-Bit) -->
<svg xmlns="http://www.w3.org/2000/svg" xml:space="preserve" width="374px" height="182px" version="1.1" style="shape-rendering:geometricPrecision; text-rendering:geometricPrecision; image-rendering:optimizeQuality; fill-rule:evenodd; clip-rule:evenodd"
viewBox="0 0 22.17 10.78"
 xmlns:xlink="http://www.w3.org/1999/xlink"
 xmlns:xodm="http://www.corel.com/coreldraw/odm/2003">
 <defs>
  <style type="text/css">
   <![CDATA[
    .str0 {stroke:#5A69F7;stroke-miterlimit:22.9256}
    .fil19 {fill:none}
    .fil0 {fill:#F4F6FE}
    .fil5 {fill:#334BAE;fill-rule:nonzero}
    .fil4 {fill:#3E5CD4;fill-rule:nonzero}
    .fil13 {fill:#4549B5;fill-rule:nonzero}
    .fil6 {fill:#5A69F7;fill-rule:nonzero}
    .fil3 {fill:#6E7066;fill-rule:nonzero}
    .fil17 {fill:#7478F5;fill-rule:nonzero}
    .fil14 {fill:#8D91FC;fill-rule:nonzero}
    .fil8 {fill:#93AF57;fill-rule:nonzero}
    .fil12 {fill:#A52CB0;fill-rule:nonzero}
    .fil9 {fill:#D68756;fill-rule:nonzero}
    .fil15 {fill:#DB992F;fill-rule:nonzero}
    .fil18 {fill:#DDE3FC;fill-rule:nonzero}
    .fil7 {fill:#E4E8D4;fill-rule:nonzero}
    .fil16 {fill:#EFD138;fill-rule:nonzero}
    .fil10 {fill:white;fill-rule:nonzero}
    .fil2 {fill:#54564B;fill-rule:nonzero;fill-opacity:0.341176}
    .fil1 {fill:#334BAE;fill-rule:nonzero;fill-opacity:0.501961}
    .fil11 {/*fill:#C6C8CD;*/fill: transparent;fill-rule:nonzero}
   ]]>
  </style>
   <clipPath id="id0">
    <path d="M0 0l22.17 0 0 10.78 -22.17 0 0 -10.78z"/>
   </clipPath>
 </defs>
 <g id="Слой_x0020_1">
  <metadata id="CorelCorpID_0Corel-Layer"/>
  <polygon class="fil0" points="0,0 22.17,0 22.17,10.78 0,10.78 "/>
  <g style="clip-path:url(#id0)">
   <g id="_2656928431472">
    <path id="1" class="fil1" d="M19.42 6.85c0.47,-0.28 0.94,-0.55 1.42,-0.82 -1.16,-0.66 -2.31,-1.32 -3.46,-1.99 -0.47,0.27 -0.94,0.55 -1.41,0.82 1.15,0.66 2.3,1.32 3.45,1.99z"/>
    <path class="fil1" d="M20.76 7.38c0,0.18 -0.27,0.32 -0.6,0.32 -0.34,0 -0.61,-0.14 -0.61,-0.32 0,-0.17 0.27,-0.32 0.61,-0.32 0.33,0 0.6,0.15 0.6,0.32z"/>
    <path class="fil1" d="M19.54 7.04c0,0.17 -0.27,0.32 -0.61,0.32 -0.33,0 -0.6,-0.15 -0.6,-0.32 0,-0.18 0.27,-0.32 0.6,-0.32 0.34,0 0.61,0.14 0.61,0.32z"/>
    <path class="fil1" d="M21.69 6.69c0,0.18 -0.27,0.32 -0.6,0.32 -0.34,0 -0.61,-0.14 -0.61,-0.32 0,-0.18 0.27,-0.32 0.61,-0.32 0.33,0 0.6,0.14 0.6,0.32z"/>
    <polygon class="fil2" points="20.2,4.41 19.81,4.17 19.79,4.88 20.2,5.11 "/>
    <g>
     <polygon class="fil3" points="17.65,4.35 21.1,5.87 19.68,6.69 16.24,4.7 "/>
     <polygon class="fil3" points="17.65,3.17 21.03,5.21 19.68,5.97 16.24,3.99 "/>
     <polygon class="fil4" points="21.1,5.16 21.1,5.87 19.68,6.69 19.68,5.97 "/>
     <polygon class="fil3" points="16.24,3.99 16.24,4.7 19.68,6.69 19.68,5.97 "/>
     <polygon class="fil5" points="16.24,3.99 16.24,4.7 19.68,6.69 19.68,5.97 "/>
     <g>
      <g>
       <g>
        <path class="fil6" d="M19.68 5.97c0.47,-0.27 0.95,-0.54 1.42,-0.81 -1.15,-0.66 -2.3,-1.32 -3.45,-1.99 -0.48,0.26 -0.94,0.55 -1.41,0.82 1.15,0.66 2.3,1.32 3.44,1.98z"/>
        <path class="fil7" d="M20.9 5.14c-1.08,-0.62 -2.16,-1.24 -3.23,-1.87 -0.41,0.24 -0.81,0.47 -1.21,0.71 1.08,0.62 2.17,1.25 3.25,1.88 0.4,-0.24 0.8,-0.48 1.19,-0.72z"/>
        <g>
         <path class="fil8" d="M18.3 4.82c0.29,0.17 0.71,0.18 0.94,0.02 0.23,-0.15 0.16,-0.4 -0.12,-0.56 -0.29,-0.17 -0.68,-0.19 -0.91,-0.04 -0.24,0.15 -0.2,0.41 0.09,0.58z"/>
        </g>
        <g>
         <path class="fil8" d="M17.53 4.05c0.08,0.04 0.19,0.04 0.25,0 0.06,-0.04 0.04,-0.1 -0.03,-0.15 -0.08,-0.04 -0.18,-0.05 -0.24,-0.01 -0.06,0.04 -0.05,0.11 0.02,0.16z"/>
        </g>
        <g>
         <path class="fil8" d="M19.63 5.21c0.08,0.05 0.19,0.05 0.25,0.01 0.06,-0.04 0.04,-0.11 -0.03,-0.15 -0.08,-0.04 -0.18,-0.05 -0.24,-0.01 -0.06,0.04 -0.05,0.11 0.02,0.15z"/>
        </g>
        <g>
         <path class="fil8" d="M18.85 5.11c-0.25,0 -0.5,-0.07 -0.7,-0.18 -0.21,-0.12 -0.33,-0.29 -0.33,-0.47 -0.01,-0.13 0.07,-0.25 0.21,-0.34 0.33,-0.2 0.81,-0.18 1.22,0.06 0.22,0.13 0.35,0.3 0.36,0.47 0,0.12 -0.06,0.23 -0.19,0.31 -0.17,0.11 -0.37,0.15 -0.57,0.15zm-0.31 -1.09l0 0c-0.17,0 -0.34,0.04 -0.5,0.14 -0.12,0.07 -0.19,0.18 -0.19,0.3 0,0.16 0.12,0.32 0.32,0.44 0.34,0.19 0.85,0.27 1.23,0.03 0.11,-0.08 0.17,-0.17 0.17,-0.28 0,-0.15 -0.13,-0.32 -0.34,-0.44 -0.18,-0.1 -0.43,-0.19 -0.69,-0.19z"/>
        </g>
        <g>
         <g>
          <path class="fil8" d="M17.91 3.32c0,0.02 -0.02,0.05 -0.05,0.07 -0.09,0.05 -0.27,0.05 -0.38,-0.01 -0.03,-0.02 -0.05,-0.05 -0.06,-0.08 0.11,-0.06 0.16,-0.09 0.23,-0.13 0.09,0.06 0.14,0.09 0.26,0.15z"/>
          <path class="fil8" d="M16.69 3.84c0.11,0.06 0.1,0.18 -0.02,0.25 -0.05,0.03 -0.1,0.05 -0.16,0.05 -0.12,-0.07 -0.18,-0.1 -0.27,-0.15 0.12,-0.07 0.18,-0.11 0.31,-0.18 0.06,0 0.11,0.01 0.14,0.03z"/>
          <path class="fil8" d="M20.72 5.25c-0.11,-0.06 -0.12,-0.18 -0.03,-0.23 0.03,-0.02 0.07,-0.03 0.12,-0.03 0.12,0.07 0.18,0.1 0.29,0.17 -0.07,0.04 -0.13,0.07 -0.24,0.14 -0.05,-0.01 -0.1,-0.02 -0.14,-0.05z"/>
          <path class="fil6" d="M19.45 5.84c0.01,-0.03 0.04,-0.06 0.08,-0.09 0.11,-0.07 0.3,-0.08 0.4,-0.02 0.03,0.02 0.05,0.04 0.05,0.07 -0.13,0.08 -0.19,0.11 -0.3,0.17 -0.07,-0.04 -0.12,-0.07 -0.23,-0.13z"/>
         </g>
        </g>
       </g>
      </g>
     </g>
     <polygon class="fil9" points="19.57,4.28 18.14,5.08 18.13,5.79 17.73,5.55 17.74,4.85 19.14,4.03 "/>
     <polygon class="fil10" points="17.81,5.6 17.82,4.9 19.22,4.08 19.49,4.23 18.05,5.04 18.05,5.74 "/>
     <polygon class="fil2" points="18.14,5.08 17.74,4.85 17.73,5.56 18.13,5.79 "/>
    </g>
    <path class="fil11" d="M18.89 6.27c0.47,-0.28 0.95,-0.54 1.42,-0.82 -1.16,-0.65 -2.31,-1.32 -3.46,-1.98 -0.47,0.26 -0.93,0.55 -1.41,0.81 1.15,0.67 2.3,1.33 3.45,1.99z"/>
    <g>
     <polygon class="fil3" points="17.78,3.86 21.23,4.93 19.81,5.75 16.37,3.76 "/>
     <polygon class="fil3" points="17.78,2.68 21.16,4.71 19.81,5.48 16.37,3.49 "/>
     <polygon class="fil4" points="21.23,4.66 21.23,4.93 19.81,5.75 19.81,5.48 "/>
     <polygon class="fil3" points="16.37,3.49 16.37,3.76 19.81,5.75 19.81,5.48 "/>
     <polygon class="fil5" points="16.37,3.49 16.37,3.76 19.81,5.75 19.81,5.48 "/>
     <g>
      <g>
       <g>
        <path class="fil6" d="M19.81 5.48c0.47,-0.28 0.95,-0.55 1.42,-0.82 -1.15,-0.65 -2.3,-1.32 -3.45,-1.98 -0.48,0.26 -0.94,0.54 -1.41,0.81 1.14,0.66 2.29,1.32 3.44,1.99z"/>
        <path class="fil7" d="M21.03 4.65c-1.08,-0.62 -2.16,-1.25 -3.24,-1.87 -0.4,0.23 -0.8,0.47 -1.2,0.7 1.08,0.63 2.16,1.25 3.25,1.88 0.39,-0.24 0.79,-0.47 1.19,-0.71z"/>
        <g>
         <path class="fil8" d="M18.43 4.33c0.29,0.16 0.71,0.17 0.93,0.02 0.23,-0.16 0.17,-0.4 -0.12,-0.57 -0.28,-0.16 -0.67,-0.19 -0.91,-0.03 -0.23,0.15 -0.19,0.41 0.1,0.58z"/>
        </g>
        <g>
         <path class="fil8" d="M17.66 3.55c0.08,0.05 0.19,0.05 0.25,0.01 0.06,-0.04 0.04,-0.11 -0.03,-0.15 -0.08,-0.04 -0.18,-0.05 -0.24,-0.01 -0.06,0.04 -0.05,0.11 0.02,0.15z"/>
        </g>
        <g>
         <path class="fil8" d="M19.76 4.72c0.08,0.04 0.19,0.04 0.25,0 0.05,-0.04 0.04,-0.1 -0.04,-0.14 -0.07,-0.05 -0.17,-0.05 -0.24,-0.01 -0.06,0.04 -0.05,0.1 0.03,0.15z"/>
        </g>
        <g>
         <path class="fil6" d="M18.98 4.62c-0.26,0 -0.51,-0.08 -0.7,-0.19 -0.21,-0.12 -0.34,-0.29 -0.34,-0.46 0,-0.14 0.07,-0.26 0.21,-0.34 0.33,-0.2 0.81,-0.18 1.22,0.05 0.23,0.13 0.36,0.31 0.36,0.47 0.01,0.13 -0.06,0.23 -0.18,0.31 -0.18,0.11 -0.38,0.16 -0.57,0.16zm-0.31 -1.09l0 0c-0.17,0 -0.34,0.04 -0.5,0.13 -0.12,0.08 -0.19,0.19 -0.19,0.31 0,0.16 0.12,0.32 0.32,0.43 0.33,0.19 0.84,0.28 1.23,0.03 0.11,-0.07 0.17,-0.17 0.17,-0.28 -0.01,-0.15 -0.13,-0.31 -0.35,-0.43 -0.18,-0.11 -0.43,-0.19 -0.68,-0.19z"/>
        </g>
        <g>
         <g>
          <path class="fil8" d="M18.03 2.83c0,0.02 -0.01,0.04 -0.04,0.06 -0.09,0.05 -0.28,0.05 -0.38,-0.01 -0.04,-0.02 -0.06,-0.05 -0.06,-0.07 0.1,-0.07 0.15,-0.09 0.23,-0.13 0.09,0.05 0.14,0.08 0.25,0.15z"/>
          <path class="fil6" d="M16.82 3.35c0.1,0.06 0.09,0.18 -0.03,0.25 -0.04,0.03 -0.1,0.04 -0.15,0.05 -0.12,-0.07 -0.18,-0.1 -0.27,-0.16 0.11,-0.06 0.18,-0.1 0.31,-0.18 0.05,0 0.1,0.01 0.14,0.04z"/>
          <path class="fil6" d="M20.85 4.76c-0.11,-0.06 -0.12,-0.18 -0.04,-0.24 0.04,-0.02 0.08,-0.03 0.12,-0.03 0.13,0.07 0.19,0.11 0.3,0.17 -0.08,0.05 -0.13,0.08 -0.24,0.14 -0.05,0 -0.1,-0.02 -0.14,-0.04z"/>
          <path class="fil6" d="M19.58 5.35c0.01,-0.03 0.03,-0.06 0.07,-0.09 0.11,-0.07 0.31,-0.08 0.4,-0.03 0.04,0.02 0.06,0.05 0.05,0.08 -0.12,0.07 -0.19,0.11 -0.29,0.17 -0.08,-0.04 -0.12,-0.07 -0.23,-0.13z"/>
         </g>
        </g>
       </g>
      </g>
     </g>
     <polygon class="fil12" points="19.69,3.78 18.26,4.59 18.26,4.85 17.85,4.62 17.87,4.36 19.26,3.54 "/>
     <polygon class="fil10" points="17.93,4.67 17.95,4.41 19.35,3.59 19.62,3.74 18.18,4.54 18.18,4.81 "/>
     <polygon class="fil2" points="18.26,4.59 17.87,4.36 17.85,4.62 18.26,4.85 "/>
    </g>
    <path class="fil11" d="M19.07 5.75c0.47,-0.28 0.95,-0.55 1.42,-0.82 -1.16,-0.65 -2.19,-1.21 -3.34,-1.87 -0.48,0.26 -0.94,0.54 -1.42,0.81 1.15,0.66 2.19,1.22 3.34,1.88z"/>
    <g>
     <polygon class="fil3" points="17.82,3.4 21.27,4.47 19.85,5.29 16.41,3.3 "/>
     <polygon class="fil3" points="17.82,2.22 21.2,4.26 19.85,5.03 16.41,3.04 "/>
     <polygon class="fil4" points="21.27,4.21 21.27,4.47 19.85,5.29 19.85,5.03 "/>
     <polygon class="fil3" points="16.41,3.04 16.41,3.3 19.85,5.29 19.85,5.03 "/>
     <polygon class="fil5" points="16.41,3.04 16.41,3.3 19.85,5.29 19.85,5.03 "/>
     <g>
      <g>
       <g>
        <path class="fil6" d="M19.85 5.03c0.47,-0.28 0.95,-0.55 1.42,-0.82 -1.15,-0.66 -2.3,-1.32 -3.45,-1.99 -0.48,0.27 -0.94,0.55 -1.41,0.82 1.14,0.66 2.29,1.32 3.44,1.99z"/>
        <path class="fil7" d="M21.07 4.19c-1.08,-0.62 -2.16,-1.24 -3.24,-1.86 -0.4,0.23 -0.8,0.46 -1.2,0.7 1.08,0.63 2.16,1.25 3.25,1.88 0.39,-0.24 0.79,-0.48 1.19,-0.72z"/>
        <g>
         <path class="fil8" d="M18.47 3.87c0.29,0.17 0.71,0.18 0.93,0.02 0.23,-0.15 0.17,-0.4 -0.12,-0.56 -0.28,-0.17 -0.67,-0.19 -0.91,-0.04 -0.23,0.15 -0.19,0.41 0.1,0.58z"/>
        </g>
        <g>
         <path class="fil8" d="M17.7 3.1c0.08,0.04 0.19,0.04 0.25,0 0.06,-0.04 0.04,-0.1 -0.03,-0.15 -0.08,-0.04 -0.18,-0.04 -0.24,0 -0.06,0.03 -0.05,0.1 0.02,0.15z"/>
        </g>
        <g>
         <path class="fil8" d="M19.8 4.26c0.08,0.05 0.19,0.05 0.25,0.01 0.06,-0.04 0.04,-0.11 -0.04,-0.15 -0.07,-0.04 -0.17,-0.05 -0.24,-0.01 -0.06,0.04 -0.05,0.11 0.03,0.15z"/>
        </g>
        <g>
         <path class="fil8" d="M19.02 4.17c-0.26,0 -0.51,-0.08 -0.7,-0.19 -0.21,-0.12 -0.34,-0.29 -0.34,-0.46 0,-0.14 0.07,-0.26 0.21,-0.34 0.33,-0.21 0.81,-0.19 1.22,0.05 0.23,0.13 0.36,0.3 0.36,0.47 0.01,0.12 -0.06,0.23 -0.18,0.31 -0.18,0.11 -0.38,0.16 -0.57,0.16zm-0.31 -1.1l0 0c-0.17,0 -0.34,0.04 -0.5,0.14 -0.12,0.07 -0.19,0.18 -0.19,0.31 0,0.16 0.12,0.31 0.32,0.43 0.33,0.19 0.84,0.27 1.23,0.03 0.11,-0.08 0.17,-0.17 0.17,-0.28 -0.01,-0.15 -0.13,-0.32 -0.35,-0.44 -0.18,-0.1 -0.42,-0.19 -0.68,-0.19z"/>
        </g>
        <g>
         <g>
          <path class="fil8" d="M18.07 2.37c0,0.03 -0.01,0.05 -0.04,0.07 -0.09,0.05 -0.28,0.05 -0.38,-0.01 -0.04,-0.02 -0.06,-0.05 -0.06,-0.08 0.1,-0.06 0.15,-0.09 0.23,-0.13 0.09,0.06 0.14,0.09 0.25,0.15z"/>
          <path class="fil6" d="M16.86 2.89c0.1,0.06 0.09,0.18 -0.03,0.26 -0.04,0.02 -0.1,0.04 -0.15,0.04 -0.12,-0.07 -0.18,-0.1 -0.27,-0.15 0.11,-0.07 0.18,-0.11 0.31,-0.18 0.05,0 0.1,0.01 0.14,0.03z"/>
          <path class="fil6" d="M20.89 4.31c-0.11,-0.07 -0.12,-0.18 -0.04,-0.24 0.04,-0.02 0.08,-0.03 0.12,-0.03 0.13,0.07 0.19,0.1 0.3,0.17 -0.08,0.04 -0.13,0.07 -0.24,0.14 -0.05,-0.01 -0.1,-0.02 -0.14,-0.04z"/>
          <path class="fil6" d="M19.62 4.89c0.01,-0.03 0.03,-0.06 0.07,-0.08 0.11,-0.08 0.31,-0.09 0.4,-0.03 0.04,0.02 0.06,0.05 0.06,0.07 -0.13,0.08 -0.19,0.11 -0.3,0.18 -0.08,-0.05 -0.12,-0.08 -0.23,-0.14z"/>
         </g>
        </g>
       </g>
      </g>
     </g>
     <polygon class="fil12" points="19.73,3.33 18.3,4.14 18.3,4.4 17.89,4.16 17.91,3.9 19.3,3.08 "/>
     <polygon class="fil10" points="17.97,4.21 17.99,3.95 19.39,3.13 19.66,3.28 18.22,4.09 18.22,4.35 "/>
     <polygon class="fil2" points="18.3,4.14 17.91,3.9 17.89,4.16 18.3,4.4 "/>
    </g>
    <path class="fil11" d="M17.78 2.68c1.15,0.66 1.81,1.06 2.96,1.72 -0.47,0.27 -0.93,0.53 -1.4,0.81 -1.15,-0.67 -1.83,-1.06 -2.97,-1.72l0.18 -0.11 -0.14 -0.08 0 -0.26 0.07 -0.04 -0.26 -0.15 0 -0.27 3.45 1.99 0 0.27 0.18 -0.1 0 0.17 -2.07 -2.23z"/>
    <g>
     <polygon class="fil3" points="17.91,2.96 21.37,4.03 19.95,4.85 16.5,2.86 "/>
     <polygon class="fil3" points="17.91,1.78 21.3,3.81 19.95,4.58 16.5,2.59 "/>
     <polygon class="fil4 str0" points="21.37,3.76 21.37,4.03 19.95,4.85 19.95,4.58 "/>
     <polygon class="fil3" points="16.5,2.59 16.5,2.86 19.95,4.85 19.95,4.58 "/>
     <polygon class="fil5" points="16.5,2.59 16.5,2.86 19.95,4.85 19.95,4.58 "/>
     <g>
      <g>
       <g>
        <path class="fil6" d="M19.95 4.58c0.47,-0.27 0.94,-0.54 1.42,-0.82 -1.16,-0.65 -2.31,-1.32 -3.46,-1.98 -0.47,0.26 -0.94,0.55 -1.41,0.81 1.15,0.67 2.3,1.33 3.45,1.99z"/>
        <path class="fil10" d="M21.17 3.75c-1.08,-0.62 -2.16,-1.24 -3.24,-1.87 -0.4,0.23 -0.8,0.47 -1.21,0.7 1.09,0.63 2.17,1.26 3.25,1.89 0.4,-0.24 0.8,-0.48 1.2,-0.72z"/>
        <g>
         <path class="fil8" d="M18.57 3.43c0.28,0.17 0.7,0.17 0.93,0.02 0.23,-0.15 0.16,-0.4 -0.12,-0.57 -0.28,-0.16 -0.68,-0.18 -0.91,-0.03 -0.23,0.15 -0.19,0.41 0.1,0.58z"/>
        </g>
        <g>
         <path class="fil8" d="M17.8 2.66c0.07,0.04 0.18,0.04 0.24,0 0.06,-0.04 0.05,-0.1 -0.03,-0.15 -0.07,-0.04 -0.18,-0.05 -0.24,-0.01 -0.06,0.04 -0.05,0.11 0.03,0.16z"/>
        </g>
        <g>
         <path class="fil8" d="M19.9 3.82c0.07,0.05 0.18,0.05 0.24,0.01 0.06,-0.04 0.04,-0.11 -0.03,-0.15 -0.07,-0.04 -0.18,-0.05 -0.24,-0.01 -0.06,0.04 -0.05,0.11 0.03,0.15z"/>
        </g>
        <g>
         <path class="fil6" d="M19.11 3.72c-0.25,0 -0.5,-0.07 -0.69,-0.18 -0.22,-0.12 -0.34,-0.29 -0.34,-0.47 0,-0.13 0.07,-0.25 0.21,-0.34 0.33,-0.2 0.81,-0.18 1.22,0.06 0.22,0.13 0.36,0.3 0.36,0.47 0,0.12 -0.06,0.23 -0.19,0.31 -0.17,0.11 -0.37,0.15 -0.57,0.15zm-0.3 -1.09l0 0c-0.17,0 -0.35,0.04 -0.5,0.13 -0.13,0.08 -0.2,0.19 -0.19,0.31 0,0.16 0.11,0.32 0.32,0.44 0.33,0.19 0.84,0.27 1.22,0.02 0.12,-0.07 0.18,-0.16 0.17,-0.27 0,-0.16 -0.13,-0.32 -0.34,-0.44 -0.18,-0.1 -0.43,-0.19 -0.68,-0.19z"/>
        </g>
        <g>
         <g>
          <path class="fil6" d="M18.17 1.93c0,0.02 -0.01,0.05 -0.05,0.07 -0.08,0.05 -0.27,0.05 -0.37,-0.01 -0.04,-0.02 -0.06,-0.05 -0.07,-0.08 0.11,-0.06 0.16,-0.09 0.23,-0.13 0.1,0.05 0.15,0.08 0.26,0.15z"/>
          <path class="fil8" d="M16.96 2.45c0.1,0.06 0.09,0.18 -0.03,0.25 -0.05,0.03 -0.1,0.04 -0.16,0.05 -0.12,-0.07 -0.17,-0.1 -0.27,-0.16 0.12,-0.06 0.18,-0.1 0.32,-0.17 0.05,0 0.1,0.01 0.14,0.03z"/>
          <path class="fil6" d="M20.98 3.86c-0.11,-0.06 -0.12,-0.18 -0.03,-0.23 0.03,-0.03 0.07,-0.04 0.12,-0.03 0.13,0.07 0.19,0.1 0.3,0.16 -0.08,0.05 -0.13,0.08 -0.25,0.14 -0.05,0 -0.1,-0.01 -0.14,-0.04z"/>
          <path class="fil8" d="M19.72 4.45c0.01,-0.03 0.03,-0.06 0.07,-0.09 0.11,-0.07 0.31,-0.08 0.4,-0.02 0.04,0.02 0.05,0.04 0.05,0.07 -0.13,0.08 -0.19,0.11 -0.29,0.17 -0.08,-0.04 -0.13,-0.07 -0.23,-0.13z"/>
         </g>
        </g>
       </g>
      </g>
     </g>
     <polygon class="fil12" points="19.83,2.89 18.4,3.69 18.39,3.95 17.99,3.72 18,3.46 19.4,2.64 "/>
     <polygon class="fil10" points="18.07,3.77 18.08,3.51 19.49,2.69 19.75,2.84 18.32,3.65 18.31,3.91 "/>
     <polygon class="fil2" points="18.4,3.69 18,3.46 17.99,3.72 18.39,3.95 "/>
    </g>
    <g>
     <polygon class="fil3" points="17.63,2.95 21.09,4.02 19.67,4.84 16.22,2.85 "/>
     <polygon class="fil3" points="17.63,1.77 21.02,3.8 19.67,4.57 16.22,2.58 "/>
     <polygon class="fil4" points="21.09,3.75 21.09,4.02 19.67,4.84 19.67,4.57 "/>
     <polygon class="fil3" points="16.22,2.58 16.22,2.85 19.67,4.84 19.67,4.57 "/>
     <polygon class="fil5" points="16.22,2.58 16.22,2.85 19.67,4.84 19.67,4.57 "/>
     <g>
      <g>
       <g>
        <path class="fil6" d="M19.67 4.57c0.47,-0.28 0.94,-0.54 1.42,-0.82 -1.16,-0.65 -2.31,-1.32 -3.46,-1.98 -0.47,0.26 -0.94,0.54 -1.41,0.81 1.15,0.67 2.3,1.33 3.45,1.99z"/>
        <path class="fil10" d="M20.89 3.74c-1.08,-0.62 -2.16,-1.24 -3.24,-1.87 -0.4,0.23 -0.8,0.47 -1.21,0.7 1.09,0.63 2.17,1.26 3.25,1.89 0.4,-0.25 0.8,-0.48 1.2,-0.72z"/>
        <g>
         <path class="fil6" d="M18.29 3.42c0.29,0.17 0.7,0.17 0.93,0.02 0.23,-0.16 0.17,-0.4 -0.12,-0.57 -0.28,-0.16 -0.68,-0.18 -0.91,-0.03 -0.23,0.15 -0.19,0.41 0.1,0.58z"/>
        </g>
        <g>
         <path class="fil6" d="M17.52 2.64c0.07,0.05 0.18,0.05 0.24,0.01 0.06,-0.04 0.05,-0.11 -0.03,-0.15 -0.07,-0.04 -0.18,-0.05 -0.24,-0.01 -0.06,0.04 -0.05,0.11 0.03,0.15z"/>
        </g>
        <g>
         <path class="fil6" d="M19.62 3.81c0.07,0.04 0.18,0.05 0.24,0.01 0.06,-0.04 0.04,-0.11 -0.03,-0.15 -0.07,-0.05 -0.18,-0.05 -0.24,-0.01 -0.06,0.04 -0.05,0.11 0.03,0.15z"/>
        </g>
        <g>
         <path class="fil6" d="M18.83 3.71c-0.25,0 -0.5,-0.07 -0.69,-0.18 -0.21,-0.13 -0.34,-0.29 -0.34,-0.47 0,-0.13 0.07,-0.25 0.21,-0.34 0.33,-0.2 0.81,-0.18 1.22,0.06 0.22,0.12 0.36,0.3 0.36,0.47 0,0.12 -0.06,0.22 -0.19,0.3 -0.17,0.12 -0.37,0.16 -0.57,0.16zm-0.3 -1.09l0 0c-0.17,0 -0.35,0.04 -0.5,0.13 -0.13,0.08 -0.2,0.19 -0.19,0.31 0,0.16 0.12,0.32 0.32,0.43 0.33,0.2 0.84,0.28 1.22,0.03 0.12,-0.07 0.18,-0.17 0.17,-0.27 0,-0.16 -0.13,-0.32 -0.34,-0.44 -0.18,-0.11 -0.43,-0.19 -0.68,-0.19z"/>
        </g>
        <g>
         <g>
          <path class="fil6" d="M17.89 1.92c0,0.02 -0.01,0.05 -0.05,0.06 -0.08,0.06 -0.27,0.05 -0.37,0 -0.04,-0.03 -0.06,-0.05 -0.07,-0.08 0.11,-0.06 0.16,-0.09 0.23,-0.13 0.1,0.05 0.15,0.08 0.26,0.15z"/>
          <path class="fil6" d="M16.68 2.44c0.1,0.06 0.09,0.18 -0.03,0.25 -0.05,0.03 -0.1,0.04 -0.16,0.05 -0.12,-0.07 -0.17,-0.1 -0.27,-0.16 0.12,-0.06 0.18,-0.1 0.32,-0.18 0.05,0 0.1,0.02 0.14,0.04z"/>
          <path class="fil6" d="M20.7 3.85c-0.11,-0.06 -0.12,-0.18 -0.03,-0.24 0.03,-0.02 0.07,-0.03 0.12,-0.03 0.13,0.08 0.19,0.11 0.3,0.17 -0.08,0.05 -0.13,0.08 -0.25,0.14 -0.05,0 -0.1,-0.02 -0.14,-0.04z"/>
          <path class="fil6" d="M19.44 4.44c0.01,-0.03 0.03,-0.06 0.07,-0.09 0.11,-0.07 0.31,-0.08 0.4,-0.03 0.04,0.02 0.05,0.05 0.05,0.08 -0.13,0.07 -0.19,0.11 -0.29,0.17 -0.08,-0.04 -0.13,-0.07 -0.23,-0.13z"/>
         </g>
        </g>
       </g>
      </g>
     </g>
     <polygon class="fil12" points="19.55,2.88 18.12,3.68 18.11,3.94 17.71,3.71 17.72,3.45 19.12,2.63 "/>
     <polygon class="fil10" points="17.79,3.76 17.8,3.5 19.21,2.68 19.47,2.83 18.04,3.63 18.03,3.9 "/>
     <polygon class="fil2" points="18.12,3.68 17.72,3.45 17.71,3.71 18.11,3.94 "/>
    </g>
    <g>
     <g>
      <g>
       <path class="fil13" d="M21.71 6.45c-0.1,-0.11 -0.31,-0.18 -0.55,-0.18 -0.24,0 -0.45,0.07 -0.55,0.18l-0.05 0 0 0.14c0,0.17 0.27,0.32 0.6,0.32 0.33,0 0.61,-0.15 0.61,-0.32l0 -0.14 -0.06 0z"/>
       <path class="fil14" d="M21.16 6.84c-0.33,0 -0.6,-0.15 -0.6,-0.32l0 0.03c0,0.17 0.27,0.32 0.6,0.32 0.33,0 0.61,-0.15 0.61,-0.32l0 -0.03c0,0.17 -0.28,0.32 -0.61,0.32z"/>
       <path class="fil14" d="M21.77 6.45c0,0.18 -0.28,0.32 -0.61,0.32 -0.33,0 -0.6,-0.14 -0.6,-0.32 0,-0.17 0.27,-0.32 0.6,-0.32 0.33,0 0.61,0.15 0.61,0.32z"/>
       <g>
        <path class="fil15" d="M21.3 6.52c0.02,0.02 0.03,0.02 0.05,0.04 -0.02,0.01 -0.03,0.02 -0.05,0.03 -0.02,-0.02 -0.03,-0.02 -0.05,-0.04 -0.04,0.02 -0.08,0.03 -0.12,0.03 -0.01,-0.02 -0.02,-0.03 -0.03,-0.05 0.05,0 0.1,-0.01 0.13,-0.03 0.02,-0.01 0.02,-0.03 0.01,-0.04 -0.04,-0.02 -0.15,0.08 -0.23,0.02 -0.03,-0.03 -0.03,-0.07 0.01,-0.1 -0.02,-0.02 -0.03,-0.03 -0.05,-0.04 0.02,-0.01 0.03,-0.02 0.05,-0.03 0.02,0.01 0.03,0.02 0.05,0.04 0.03,-0.02 0.07,-0.03 0.1,-0.04 0.01,0.02 0.01,0.03 0.02,0.06 -0.04,0 -0.08,0.02 -0.1,0.03 -0.02,0.01 -0.02,0.02 -0.01,0.03 0.03,0.03 0.15,-0.08 0.23,-0.01 0.04,0.03 0.03,0.07 -0.01,0.1z"/>
       </g>
       <polygon class="fil15" points="21.19,6.32 21.19,6.37 21.13,6.37 21.16,6.33 "/>
       <g>
        <path class="fil16" d="M21.3 6.48c0.02,0.01 0.03,0.02 0.05,0.04 -0.02,0.01 -0.03,0.01 -0.05,0.03 -0.02,-0.02 -0.03,-0.03 -0.05,-0.04 -0.04,0.02 -0.08,0.03 -0.12,0.03 -0.01,-0.02 -0.02,-0.03 -0.03,-0.05 0.05,0 0.1,-0.02 0.13,-0.03 0.02,-0.02 0.02,-0.03 0.01,-0.04 -0.04,-0.03 -0.15,0.07 -0.23,0.01 -0.03,-0.02 -0.03,-0.06 0.01,-0.1 -0.02,-0.01 -0.03,-0.02 -0.05,-0.03 0.02,-0.01 0.03,-0.02 0.05,-0.03 0.02,0.01 0.03,0.02 0.05,0.03 0.03,-0.01 0.07,-0.02 0.1,-0.03 0.01,0.02 0.01,0.03 0.02,0.05 -0.04,0.01 -0.08,0.02 -0.1,0.04 -0.02,0.01 -0.02,0.02 -0.01,0.03 0.03,0.02 0.15,-0.08 0.23,-0.01 0.04,0.03 0.03,0.07 -0.01,0.1z"/>
       </g>
       <path class="fil15" d="M21.16 6.25c0.25,0 0.46,0.1 0.48,0.23 0,-0.01 0,-0.02 0,-0.03 0,-0.14 -0.22,-0.25 -0.48,-0.25 -0.26,0 -0.48,0.11 -0.48,0.25 0,0.01 0,0.02 0.01,0.03 0.02,-0.13 0.22,-0.23 0.47,-0.23z"/>
      </g>
      <polygon class="fil15" points="21.35,6.52 21.35,6.56 21.3,6.59 21.3,6.55 "/>
      <polygon class="fil15" points="21.1,6.49 21.1,6.53 21.13,6.58 21.13,6.54 "/>
      <polygon class="fil15" points="20.97,6.34 20.97,6.3 21.01,6.32 "/>
     </g>
     <g>
      <g>
       <path class="fil13" d="M21.8 6.24c-0.1,-0.11 -0.31,-0.18 -0.55,-0.18 -0.25,0 -0.46,0.07 -0.55,0.18l-0.06 0 0 0.14c0,0.17 0.27,0.32 0.61,0.32 0.33,0 0.6,-0.15 0.6,-0.32l0 -0.14 -0.05 0z"/>
       <path class="fil14" d="M21.25 6.63c-0.34,0 -0.61,-0.15 -0.61,-0.32l0 0.03c0,0.17 0.27,0.32 0.61,0.32 0.33,0 0.6,-0.15 0.6,-0.32l0 -0.03c0,0.17 -0.27,0.32 -0.6,0.32z"/>
       <path class="fil14" d="M21.85 6.24c0,0.18 -0.27,0.32 -0.6,0.32 -0.34,0 -0.61,-0.14 -0.61,-0.32 0,-0.17 0.27,-0.32 0.61,-0.32 0.33,0 0.6,0.15 0.6,0.32z"/>
       <g>
        <path class="fil15" d="M21.38 6.31c0.02,0.02 0.03,0.02 0.05,0.04 -0.01,0.01 -0.02,0.02 -0.04,0.03 -0.02,-0.02 -0.03,-0.02 -0.05,-0.04 -0.04,0.02 -0.09,0.03 -0.13,0.03 -0.01,-0.02 -0.01,-0.03 -0.02,-0.05 0.05,0 0.1,-0.01 0.13,-0.03 0.01,-0.01 0.02,-0.03 0.01,-0.04 -0.04,-0.03 -0.15,0.08 -0.23,0.01 -0.04,-0.02 -0.03,-0.06 0.01,-0.09 -0.02,-0.02 -0.03,-0.03 -0.05,-0.04 0.02,-0.01 0.03,-0.02 0.05,-0.03 0.02,0.01 0.03,0.02 0.04,0.03 0.04,-0.01 0.07,-0.02 0.11,-0.03 0.01,0.02 0.01,0.03 0.02,0.05 -0.04,0.01 -0.09,0.02 -0.11,0.04 -0.01,0.01 -0.02,0.02 -0.01,0.03 0.04,0.03 0.15,-0.08 0.24,-0.01 0.04,0.03 0.02,0.07 -0.02,0.1z"/>
       </g>
       <polygon class="fil15" points="21.28,6.11 21.28,6.15 21.22,6.15 21.25,6.12 "/>
       <g>
        <path class="fil16" d="M21.38 6.27c0.02,0.01 0.03,0.02 0.05,0.04 -0.01,0.01 -0.02,0.01 -0.04,0.03 -0.02,-0.02 -0.03,-0.03 -0.05,-0.04 -0.04,0.02 -0.09,0.03 -0.13,0.03 -0.01,-0.02 -0.01,-0.03 -0.02,-0.05 0.05,0 0.1,-0.02 0.13,-0.03 0.01,-0.02 0.02,-0.03 0.01,-0.04 -0.04,-0.03 -0.15,0.07 -0.23,0.01 -0.04,-0.03 -0.03,-0.06 0.01,-0.1 -0.02,-0.01 -0.03,-0.02 -0.05,-0.03 0.02,-0.01 0.03,-0.02 0.05,-0.03 0.02,0.01 0.03,0.02 0.04,0.03 0.04,-0.01 0.07,-0.03 0.11,-0.03 0.01,0.02 0.01,0.03 0.02,0.05 -0.04,0.01 -0.09,0.02 -0.11,0.04 -0.01,0.01 -0.02,0.02 -0.01,0.02 0.04,0.03 0.15,-0.07 0.24,-0.01 0.04,0.04 0.02,0.08 -0.02,0.11z"/>
       </g>
       <path class="fil17" d="M21.25 6.03c0.25,0 0.45,0.11 0.47,0.24 0,-0.01 0,-0.02 0,-0.03 0,-0.14 -0.21,-0.25 -0.47,-0.25 -0.27,0 -0.48,0.11 -0.48,0.25 0,0.01 0,0.02 0,0.03 0.02,-0.13 0.23,-0.24 0.48,-0.24z"/>
      </g>
      <polygon class="fil15" points="21.43,6.31 21.43,6.35 21.39,6.38 21.39,6.34 "/>
      <polygon class="fil15" points="21.19,6.28 21.19,6.32 21.21,6.37 21.21,6.33 "/>
      <polygon class="fil15" points="21.06,6.13 21.06,6.09 21.09,6.11 "/>
     </g>
     <g>
      <g>
       <path class="fil13" d="M21.68 5.99c-0.1,-0.11 -0.31,-0.19 -0.55,-0.19 -0.24,0 -0.45,0.08 -0.55,0.19l-0.05 0 0 0.13c0,0.18 0.27,0.32 0.6,0.32 0.33,0 0.61,-0.14 0.61,-0.32l0 -0.13 -0.06 0z"/>
       <path class="fil14" d="M21.13 6.37c-0.33,0 -0.6,-0.14 -0.6,-0.32l0 0.03c0,0.18 0.27,0.32 0.6,0.32 0.33,0 0.61,-0.14 0.61,-0.32l0 -0.03c0,0.18 -0.28,0.32 -0.61,0.32z"/>
       <path class="fil14" d="M21.74 5.99c0,0.18 -0.28,0.32 -0.61,0.32 -0.33,0 -0.6,-0.14 -0.6,-0.32 0,-0.18 0.27,-0.32 0.6,-0.32 0.33,0 0.61,0.14 0.61,0.32z"/>
       <g>
        <path class="fil15" d="M21.27 6.06c0.02,0.01 0.03,0.02 0.05,0.03 -0.02,0.02 -0.03,0.02 -0.05,0.03 -0.02,-0.01 -0.03,-0.02 -0.05,-0.03 -0.04,0.02 -0.08,0.03 -0.12,0.03 -0.01,-0.02 -0.02,-0.03 -0.03,-0.05 0.05,0 0.1,-0.02 0.13,-0.03 0.02,-0.02 0.02,-0.03 0.01,-0.04 -0.04,-0.03 -0.15,0.07 -0.23,0.01 -0.03,-0.03 -0.03,-0.06 0.01,-0.1 -0.02,-0.01 -0.03,-0.02 -0.05,-0.03 0.02,-0.02 0.03,-0.02 0.05,-0.03 0.02,0.01 0.03,0.02 0.05,0.03 0.03,-0.01 0.07,-0.03 0.1,-0.03 0.01,0.02 0.01,0.03 0.02,0.05 -0.04,0.01 -0.08,0.02 -0.1,0.04 -0.02,0.01 -0.02,0.02 -0.01,0.02 0.03,0.03 0.15,-0.07 0.23,-0.01 0.04,0.03 0.03,0.07 -0.01,0.11z"/>
       </g>
       <polygon class="fil15" points="21.16,5.86 21.16,5.9 21.1,5.9 21.13,5.87 "/>
       <g>
        <path class="fil16" d="M21.27 6.01c0.02,0.02 0.03,0.03 0.05,0.04 -0.02,0.01 -0.03,0.02 -0.05,0.03 -0.02,-0.01 -0.03,-0.02 -0.05,-0.03 -0.04,0.01 -0.08,0.02 -0.12,0.03 -0.01,-0.02 -0.02,-0.04 -0.03,-0.06 0.05,0 0.1,-0.01 0.13,-0.03 0.02,-0.01 0.02,-0.02 0.01,-0.03 -0.04,-0.03 -0.15,0.07 -0.23,0.01 -0.03,-0.03 -0.03,-0.06 0.01,-0.1 -0.02,-0.01 -0.03,-0.02 -0.05,-0.04 0.02,-0.01 0.03,-0.01 0.05,-0.03 0.02,0.02 0.03,0.03 0.05,0.04 0.03,-0.02 0.07,-0.03 0.1,-0.03 0.01,0.02 0.01,0.03 0.02,0.05 -0.04,0.01 -0.08,0.02 -0.1,0.03 -0.02,0.01 -0.02,0.02 -0.01,0.03 0.03,0.03 0.15,-0.07 0.23,-0.01 0.04,0.03 0.03,0.07 -0.01,0.1z"/>
       </g>
       <path class="fil15" d="M21.13 5.78c0.25,0 0.46,0.1 0.48,0.23 0,-0.01 0,-0.01 0,-0.02 0,-0.14 -0.22,-0.25 -0.48,-0.25 -0.26,0 -0.48,0.11 -0.48,0.25 0,0.01 0,0.01 0.01,0.02 0.02,-0.13 0.22,-0.23 0.47,-0.23z"/>
      </g>
      <polygon class="fil15" points="21.32,6.05 21.32,6.09 21.27,6.12 21.27,6.08 "/>
      <polygon class="fil15" points="21.07,6.02 21.07,6.07 21.1,6.12 21.1,6.08 "/>
      <polygon class="fil15" points="20.94,5.88 20.94,5.83 20.98,5.86 "/>
     </g>
    </g>
    <path class="fil13" d="M21.71 5.82c-0.1,-0.11 -0.31,-0.19 -0.55,-0.19 -0.24,0 -0.45,0.08 -0.55,0.19l-0.05 0 0 0.13c0,0.18 0.27,0.32 0.6,0.32 0.33,0 0.61,-0.14 0.61,-0.32l0 -0.13 -0.06 0z"/>
    <path class="fil14" d="M21.16 6.2c-0.33,0 -0.6,-0.14 -0.6,-0.32l0 0.03c0,0.18 0.27,0.32 0.6,0.32 0.33,0 0.61,-0.14 0.61,-0.32l0 -0.03c0,0.18 -0.28,0.32 -0.61,0.32z"/>
    <path class="fil14" d="M21.77 5.82c0,0.18 -0.28,0.32 -0.61,0.32 -0.33,0 -0.6,-0.14 -0.6,-0.32 0,-0.18 0.27,-0.32 0.6,-0.32 0.33,0 0.61,0.14 0.61,0.32z"/>
    <path class="fil15" d="M21.3 5.89c0.02,0.01 0.03,0.02 0.05,0.03 -0.02,0.01 -0.03,0.02 -0.05,0.03 -0.02,-0.01 -0.03,-0.02 -0.05,-0.03 -0.04,0.01 -0.08,0.02 -0.12,0.03 -0.01,-0.02 -0.02,-0.03 -0.03,-0.06 0.05,0 0.1,-0.01 0.13,-0.03 0.02,-0.01 0.02,-0.02 0.01,-0.03 -0.04,-0.03 -0.15,0.07 -0.23,0.01 -0.03,-0.03 -0.03,-0.06 0.01,-0.1 -0.02,-0.01 -0.03,-0.02 -0.05,-0.03 0.02,-0.02 0.03,-0.02 0.05,-0.04 0.02,0.02 0.03,0.03 0.05,0.04 0.03,-0.02 0.07,-0.03 0.1,-0.03 0.01,0.02 0.01,0.03 0.02,0.05 -0.04,0.01 -0.08,0.02 -0.1,0.03 -0.02,0.01 -0.02,0.02 -0.01,0.03 0.03,0.03 0.15,-0.07 0.23,-0.01 0.04,0.03 0.03,0.07 -0.01,0.11z"/>
    <polygon class="fil15" points="21.19,5.69 21.19,5.73 21.13,5.73 21.16,5.69 "/>
    <path class="fil16" d="M21.3 5.84c0.02,0.02 0.03,0.03 0.05,0.04 -0.02,0.01 -0.03,0.02 -0.05,0.03 -0.02,-0.01 -0.03,-0.02 -0.05,-0.04 -0.04,0.02 -0.08,0.03 -0.12,0.03 -0.01,-0.02 -0.02,-0.03 -0.03,-0.05 0.05,0 0.1,-0.01 0.13,-0.03 0.02,-0.01 0.02,-0.02 0.01,-0.03 -0.04,-0.03 -0.15,0.07 -0.23,0.01 -0.03,-0.03 -0.03,-0.07 0.01,-0.1 -0.02,-0.02 -0.03,-0.02 -0.05,-0.04 0.02,-0.01 0.03,-0.02 0.05,-0.03 0.02,0.02 0.03,0.02 0.05,0.04 0.03,-0.02 0.07,-0.03 0.1,-0.03 0.01,0.02 0.01,0.03 0.02,0.05 -0.04,0 -0.08,0.02 -0.1,0.03 -0.02,0.01 -0.02,0.02 -0.01,0.03 0.03,0.03 0.15,-0.07 0.23,-0.01 0.04,0.03 0.03,0.07 -0.01,0.1z"/>
    <path class="fil15" d="M21.16 5.61c0.25,0 0.46,0.1 0.48,0.23 0,-0.01 0,-0.01 0,-0.02 0,-0.14 -0.22,-0.25 -0.48,-0.25 -0.26,0 -0.48,0.11 -0.48,0.25 0,0.01 0,0.01 0.01,0.02 0.02,-0.13 0.22,-0.23 0.47,-0.23z"/>
    <polygon class="fil15" points="21.35,5.88 21.35,5.92 21.3,5.95 21.3,5.91 "/>
    <polygon class="fil15" points="21.1,5.85 21.1,5.89 21.13,5.95 21.13,5.9 "/>
    <polygon class="fil15" points="20.97,5.71 20.97,5.66 21.01,5.69 "/>
    <path class="fil13" d="M21.8 5.61c-0.1,-0.11 -0.31,-0.19 -0.55,-0.19 -0.25,0 -0.46,0.08 -0.55,0.19l-0.06 0 0 0.13c0,0.18 0.27,0.32 0.61,0.32 0.33,0 0.6,-0.14 0.6,-0.32l0 -0.13 -0.05 0z"/>
    <path class="fil14" d="M21.25 5.99c-0.34,0 -0.61,-0.14 -0.61,-0.32l0 0.03c0,0.18 0.27,0.32 0.61,0.32 0.33,0 0.6,-0.14 0.6,-0.32l0 -0.03c0,0.18 -0.27,0.32 -0.6,0.32z"/>
    <path class="fil18" d="M21.85 5.61c0,0.17 -0.27,0.32 -0.6,0.32 -0.34,0 -0.61,-0.15 -0.61,-0.32 0,-0.18 0.27,-0.32 0.61,-0.32 0.33,0 0.6,0.14 0.6,0.32z"/>
    <path class="fil15" d="M21.38 5.67c0.02,0.02 0.03,0.03 0.05,0.04 -0.01,0.01 -0.02,0.02 -0.04,0.03 -0.02,-0.01 -0.03,-0.02 -0.05,-0.04 -0.04,0.02 -0.09,0.03 -0.13,0.04 -0.01,-0.03 -0.01,-0.04 -0.02,-0.06 0.05,0 0.1,-0.01 0.13,-0.03 0.01,-0.01 0.02,-0.02 0.01,-0.03 -0.04,-0.03 -0.15,0.07 -0.23,0.01 -0.04,-0.03 -0.03,-0.07 0.01,-0.1 -0.02,-0.01 -0.03,-0.02 -0.05,-0.04 0.02,-0.01 0.03,-0.01 0.05,-0.03 0.02,0.02 0.03,0.02 0.04,0.04 0.04,-0.02 0.07,-0.03 0.11,-0.03 0.01,0.02 0.01,0.03 0.02,0.05 -0.04,0.01 -0.09,0.02 -0.11,0.03 -0.01,0.01 -0.02,0.02 -0.01,0.03 0.04,0.03 0.15,-0.07 0.24,-0.01 0.04,0.03 0.02,0.07 -0.02,0.1z"/>
    <polygon class="fil15" points="21.28,5.48 21.28,5.52 21.22,5.52 21.25,5.48 "/>
    <path class="fil16" d="M21.38 5.63c0.02,0.02 0.03,0.02 0.05,0.04 -0.01,0.01 -0.02,0.02 -0.04,0.03 -0.02,-0.01 -0.03,-0.02 -0.05,-0.04 -0.04,0.02 -0.09,0.03 -0.13,0.03 -0.01,-0.02 -0.01,-0.03 -0.02,-0.05 0.05,0 0.1,-0.01 0.13,-0.03 0.01,-0.01 0.02,-0.02 0.01,-0.03 -0.04,-0.03 -0.15,0.07 -0.23,0.01 -0.04,-0.03 -0.03,-0.07 0.01,-0.1 -0.02,-0.02 -0.03,-0.02 -0.05,-0.04 0.02,-0.01 0.03,-0.02 0.05,-0.03 0.02,0.02 0.03,0.02 0.04,0.04 0.04,-0.02 0.07,-0.03 0.11,-0.04 0.01,0.03 0.01,0.04 0.02,0.06 -0.04,0 -0.09,0.02 -0.11,0.03 -0.01,0.01 -0.02,0.02 -0.01,0.03 0.04,0.03 0.15,-0.07 0.24,-0.01 0.04,0.03 0.02,0.07 -0.02,0.1z"/>
    <path class="fil17" d="M21.25 5.4c0.25,0 0.45,0.1 0.47,0.23 0,-0.01 0,-0.01 0,-0.02 0,-0.14 -0.21,-0.25 -0.47,-0.25 -0.27,0 -0.48,0.11 -0.48,0.25 0,0.01 0,0.01 0,0.02 0.02,-0.13 0.23,-0.23 0.48,-0.23z"/>
    <polygon class="fil15" points="21.43,5.67 21.43,5.71 21.39,5.74 21.39,5.7 "/>
    <polygon class="fil15" points="21.19,5.64 21.19,5.68 21.21,5.74 21.21,5.69 "/>
    <polygon class="fil15" points="21.06,5.49 21.06,5.45 21.09,5.48 "/>
    <path class="fil13" d="M21.68 5.35c-0.1,-0.11 -0.31,-0.18 -0.55,-0.18 -0.24,0 -0.45,0.07 -0.55,0.18l-0.05 0 0 0.14c0,0.17 0.27,0.32 0.6,0.32 0.33,0 0.61,-0.15 0.61,-0.32l0 -0.14 -0.06 0z"/>
    <path class="fil14" d="M21.13 5.74c-0.33,0 -0.6,-0.15 -0.6,-0.32l0 0.03c0,0.17 0.27,0.32 0.6,0.32 0.33,0 0.61,-0.15 0.61,-0.32l0 -0.03c0,0.17 -0.28,0.32 -0.61,0.32z"/>
    <path class="fil18" d="M21.74 5.35c0,0.18 -0.28,0.32 -0.61,0.32 -0.33,0 -0.6,-0.14 -0.6,-0.32 0,-0.17 0.27,-0.32 0.6,-0.32 0.33,0 0.61,0.15 0.61,0.32z"/>
    <path class="fil17" d="M21.13 5.15c0.25,0 0.46,0.1 0.48,0.23 0,-0.01 0,-0.02 0,-0.03 0,-0.13 -0.22,-0.25 -0.48,-0.25 -0.26,0 -0.48,0.12 -0.48,0.25 0,0.01 0,0.02 0.01,0.03 0.02,-0.13 0.22,-0.23 0.47,-0.23z"/>
    <path class="fil13" d="M20.78 7.14c-0.09,-0.11 -0.3,-0.18 -0.55,-0.18 -0.24,0 -0.45,0.07 -0.55,0.18l-0.05 0 0 0.14c0,0.18 0.27,0.32 0.6,0.32 0.34,0 0.61,-0.14 0.61,-0.32l0 -0.14 -0.06 0z"/>
    <path class="fil14" d="M20.23 7.53c-0.33,0 -0.6,-0.15 -0.6,-0.32l0 0.03c0,0.17 0.27,0.32 0.6,0.32 0.34,0 0.61,-0.15 0.61,-0.32l0 -0.03c0,0.17 -0.27,0.32 -0.61,0.32z"/>
    <path class="fil18" d="M20.84 7.14c0,0.18 -0.27,0.32 -0.61,0.32 -0.33,0 -0.6,-0.14 -0.6,-0.32 0,-0.17 0.27,-0.32 0.6,-0.32 0.34,0 0.61,0.15 0.61,0.32z"/>
    <path class="fil17" d="M20.23 6.94c0.25,0 0.46,0.1 0.48,0.23 0,-0.01 0,-0.02 0,-0.03 0,-0.13 -0.21,-0.25 -0.48,-0.25 -0.26,0 -0.47,0.12 -0.47,0.25 0,0.01 0,0.02 0,0.03 0.02,-0.13 0.22,-0.23 0.47,-0.23z"/>
    <g>
     <polygon class="fil3" points="15.66,5.22 19.11,6.29 17.69,7.11 14.24,5.12 "/>
     <polygon class="fil3" points="15.66,4.04 19.04,6.08 17.69,6.85 14.24,4.86 "/>
     <polygon class="fil4" points="19.11,6.03 19.11,6.29 17.69,7.11 17.69,6.85 "/>
     <polygon class="fil3" points="14.24,4.86 14.24,5.12 17.69,7.11 17.69,6.85 "/>
     <polygon class="fil5" points="14.24,4.86 14.24,5.12 17.69,7.11 17.69,6.85 "/>
     <g>
      <g>
       <g>
        <path class="fil6" d="M17.69 6.85c0.47,-0.28 0.95,-0.55 1.42,-0.82 -1.16,-0.66 -2.3,-1.32 -3.45,-1.99 -0.48,0.27 -0.94,0.55 -1.42,0.82 1.15,0.66 2.3,1.32 3.45,1.99z"/>
        <path class="fil7" d="M18.91 6.01c-1.08,-0.62 -2.16,-1.24 -3.24,-1.87 -0.4,0.24 -0.8,0.47 -1.2,0.71 1.08,0.62 2.16,1.25 3.24,1.88 0.4,-0.24 0.8,-0.48 1.2,-0.72z"/>
        <g>
         <path class="fil8" d="M16.31 5.69c0.29,0.17 0.71,0.18 0.93,0.02 0.23,-0.15 0.17,-0.4 -0.12,-0.56 -0.28,-0.17 -0.67,-0.19 -0.91,-0.04 -0.23,0.15 -0.19,0.41 0.1,0.58z"/>
        </g>
        <g>
         <path class="fil8" d="M15.54 4.92c0.08,0.04 0.19,0.04 0.25,0 0.06,-0.04 0.04,-0.1 -0.04,-0.15 -0.07,-0.04 -0.17,-0.05 -0.23,-0.01 -0.07,0.04 -0.06,0.11 0.02,0.16z"/>
        </g>
        <g>
         <path class="fil8" d="M17.64 6.08c0.07,0.05 0.18,0.05 0.24,0.01 0.06,-0.04 0.05,-0.11 -0.03,-0.15 -0.07,-0.04 -0.18,-0.05 -0.24,-0.01 -0.06,0.04 -0.05,0.11 0.03,0.15z"/>
        </g>
        <g>
         <path class="fil8" d="M16.86 5.99c-0.26,0 -0.51,-0.08 -0.7,-0.19 -0.21,-0.12 -0.34,-0.29 -0.34,-0.46 0,-0.14 0.07,-0.26 0.21,-0.35 0.33,-0.2 0.81,-0.18 1.22,0.06 0.22,0.13 0.36,0.3 0.36,0.47 0.01,0.12 -0.06,0.23 -0.18,0.31 -0.18,0.11 -0.38,0.16 -0.57,0.16zm-0.31 -1.1l0 0c-0.17,0 -0.34,0.04 -0.5,0.14 -0.12,0.07 -0.19,0.18 -0.19,0.3 0,0.16 0.12,0.32 0.32,0.44 0.33,0.19 0.84,0.27 1.23,0.03 0.11,-0.08 0.17,-0.17 0.17,-0.28 -0.01,-0.15 -0.14,-0.32 -0.35,-0.44 -0.18,-0.1 -0.43,-0.19 -0.68,-0.19z"/>
        </g>
        <g>
         <g>
          <path class="fil8" d="M15.91 4.19c0,0.03 -0.01,0.05 -0.04,0.07 -0.09,0.05 -0.28,0.05 -0.38,-0.01 -0.04,-0.02 -0.06,-0.05 -0.06,-0.08 0.1,-0.06 0.15,-0.09 0.23,-0.13 0.09,0.06 0.14,0.09 0.25,0.15z"/>
          <path class="fil6" d="M14.7 4.71c0.1,0.06 0.09,0.18 -0.03,0.25 -0.04,0.03 -0.1,0.05 -0.15,0.05 -0.12,-0.07 -0.18,-0.1 -0.28,-0.15 0.12,-0.07 0.19,-0.11 0.32,-0.18 0.05,0 0.1,0.01 0.14,0.03z"/>
          <path class="fil8" d="M18.72 6.12c-0.11,-0.06 -0.11,-0.18 -0.03,-0.23 0.03,-0.02 0.08,-0.03 0.12,-0.03 0.13,0.07 0.19,0.1 0.3,0.17 -0.08,0.04 -0.13,0.07 -0.24,0.14 -0.05,-0.01 -0.1,-0.02 -0.15,-0.05z"/>
          <path class="fil6" d="M17.46 6.71c0.01,-0.03 0.03,-0.06 0.07,-0.09 0.11,-0.07 0.31,-0.08 0.4,-0.02 0.04,0.02 0.06,0.04 0.05,0.07 -0.12,0.08 -0.19,0.11 -0.29,0.18 -0.08,-0.05 -0.12,-0.08 -0.23,-0.14z"/>
         </g>
        </g>
       </g>
      </g>
     </g>
     <polygon class="fil12" points="17.57,5.15 16.14,5.96 16.14,6.22 15.73,5.98 15.74,5.72 17.14,4.9 "/>
     <polygon class="fil10" points="15.81,6.03 15.83,5.77 17.23,4.95 17.5,5.1 16.06,5.91 16.06,6.17 "/>
     <polygon class="fil2" points="16.14,5.96 15.74,5.72 15.73,5.98 16.14,6.22 "/>
    </g>
    <g>
     <polygon class="fil3" points="15.73,4.79 19.18,5.86 17.76,6.68 14.32,4.69 "/>
     <polygon class="fil3" points="15.73,3.61 19.11,5.64 17.76,6.41 14.32,4.42 "/>
     <polygon class="fil4" points="19.18,5.59 19.18,5.86 17.76,6.68 17.76,6.41 "/>
     <polygon class="fil3" points="14.32,4.42 14.32,4.69 17.76,6.68 17.76,6.41 "/>
     <polygon class="fil5" points="14.32,4.42 14.32,4.69 17.76,6.68 17.76,6.41 "/>
     <g>
      <g>
       <g>
        <path class="fil6" d="M17.76 6.41c0.47,-0.28 0.95,-0.55 1.42,-0.82 -1.15,-0.65 -2.3,-1.32 -3.45,-1.98 -0.48,0.26 -0.94,0.54 -1.41,0.81 1.15,0.66 2.29,1.32 3.44,1.99z"/>
        <path class="fil7" d="M18.98 5.58c-1.08,-0.62 -2.16,-1.25 -3.24,-1.87 -0.4,0.23 -0.8,0.47 -1.2,0.7 1.08,0.63 2.16,1.25 3.25,1.88 0.39,-0.24 0.79,-0.47 1.19,-0.71z"/>
        <g>
         <path class="fil8" d="M16.38 5.25c0.29,0.17 0.71,0.18 0.94,0.02 0.22,-0.15 0.16,-0.4 -0.13,-0.56 -0.28,-0.17 -0.67,-0.19 -0.91,-0.04 -0.23,0.16 -0.19,0.42 0.1,0.58z"/>
        </g>
        <g>
         <path class="fil8" d="M15.61 4.48c0.08,0.04 0.19,0.05 0.25,0.01 0.06,-0.04 0.04,-0.11 -0.03,-0.15 -0.08,-0.05 -0.18,-0.05 -0.24,-0.01 -0.06,0.04 -0.05,0.11 0.02,0.15z"/>
        </g>
        <g>
         <path class="fil8" d="M17.71 5.65c0.08,0.04 0.19,0.04 0.25,0 0.06,-0.04 0.04,-0.1 -0.04,-0.15 -0.07,-0.04 -0.17,-0.05 -0.24,-0.01 -0.06,0.04 -0.05,0.11 0.03,0.16z"/>
        </g>
        <g>
         <path class="fil8" d="M16.93 5.55c-0.26,0 -0.51,-0.08 -0.7,-0.19 -0.21,-0.12 -0.33,-0.29 -0.34,-0.46 0,-0.14 0.08,-0.26 0.21,-0.34 0.33,-0.2 0.81,-0.18 1.22,0.05 0.23,0.13 0.36,0.31 0.36,0.47 0.01,0.12 -0.06,0.23 -0.18,0.31 -0.18,0.11 -0.38,0.16 -0.57,0.16zm-0.31 -1.09l0 0c-0.17,0 -0.34,0.03 -0.5,0.13 -0.12,0.08 -0.19,0.19 -0.19,0.31 0,0.16 0.12,0.32 0.32,0.43 0.33,0.19 0.84,0.27 1.23,0.03 0.11,-0.07 0.17,-0.17 0.17,-0.28 -0.01,-0.15 -0.13,-0.31 -0.34,-0.44 -0.19,-0.1 -0.43,-0.18 -0.69,-0.18z"/>
        </g>
        <g>
         <g>
          <path class="fil8" d="M15.98 3.75c0.01,0.03 -0.01,0.05 -0.04,0.07 -0.09,0.05 -0.28,0.05 -0.38,-0.01 -0.04,-0.02 -0.06,-0.05 -0.06,-0.07 0.11,-0.07 0.15,-0.09 0.23,-0.13 0.09,0.05 0.14,0.08 0.25,0.14z"/>
          <path class="fil6" d="M14.77 4.28c0.1,0.06 0.09,0.18 -0.03,0.25 -0.04,0.02 -0.1,0.04 -0.15,0.05 -0.12,-0.07 -0.18,-0.11 -0.27,-0.16 0.11,-0.07 0.18,-0.1 0.31,-0.18 0.05,0 0.1,0.01 0.14,0.04z"/>
          <path class="fil6" d="M18.8 5.69c-0.11,-0.07 -0.12,-0.18 -0.04,-0.24 0.04,-0.02 0.08,-0.03 0.12,-0.03 0.13,0.07 0.19,0.11 0.3,0.17 -0.08,0.04 -0.13,0.07 -0.24,0.14 -0.05,-0.01 -0.1,-0.02 -0.14,-0.04z"/>
          <path class="fil6" d="M17.53 6.28c0.01,-0.03 0.03,-0.07 0.07,-0.09 0.11,-0.07 0.31,-0.08 0.4,-0.03 0.04,0.02 0.06,0.05 0.06,0.08 -0.13,0.07 -0.19,0.11 -0.3,0.17 -0.08,-0.05 -0.12,-0.07 -0.23,-0.13z"/>
         </g>
        </g>
       </g>
      </g>
     </g>
     <polygon class="fil12" points="17.65,4.71 16.21,5.52 16.21,5.78 15.8,5.54 15.82,5.29 17.21,4.46 "/>
     <polygon class="fil10" points="15.89,5.59 15.9,5.33 17.3,4.51 17.57,4.67 16.13,5.47 16.13,5.73 "/>
     <polygon class="fil2" points="16.21,5.52 15.82,5.29 15.8,5.54 16.21,5.78 "/>
    </g>
    <polygon class="fil3" points="15.65,4.37 19.1,5.44 17.68,6.26 14.24,4.27 "/>
    <polygon class="fil3" points="15.65,3.19 19.03,5.22 17.68,5.99 14.24,4 "/>
    <polygon class="fil4" points="19.1,5.17 19.1,5.44 17.68,6.26 17.68,5.99 "/>
    <polygon class="fil3" points="14.24,4 14.24,4.27 17.68,6.26 17.68,5.99 "/>
    <polygon class="fil5" points="14.24,4 14.24,4.27 17.68,6.26 17.68,5.99 "/>
    <path class="fil6" d="M17.68 5.99c0.47,-0.27 0.95,-0.54 1.42,-0.82 -1.15,-0.65 -2.3,-1.32 -3.45,-1.98 -0.48,0.26 -0.94,0.55 -1.41,0.81 1.15,0.67 2.29,1.33 3.44,1.99z"/>
    <path class="fil10" d="M18.9 5.16c-1.08,-0.62 -2.16,-1.24 -3.24,-1.87 -0.4,0.23 -0.8,0.47 -1.2,0.7 1.08,0.63 2.17,1.26 3.25,1.89 0.39,-0.24 0.79,-0.48 1.19,-0.72z"/>
    <g>
     <path class="fil6" d="M16.3 4.84c0.29,0.17 0.71,0.17 0.94,0.02 0.22,-0.16 0.16,-0.4 -0.12,-0.57 -0.29,-0.16 -0.68,-0.18 -0.92,-0.03 -0.23,0.15 -0.19,0.41 0.1,0.58z"/>
    </g>
    <g>
     <path class="fil6" d="M15.53 4.06c0.08,0.05 0.19,0.05 0.25,0.01 0.06,-0.04 0.04,-0.11 -0.03,-0.15 -0.08,-0.04 -0.18,-0.05 -0.24,-0.01 -0.06,0.04 -0.05,0.11 0.02,0.15z"/>
    </g>
    <g>
     <path class="fil6" d="M17.63 5.23c0.08,0.05 0.19,0.05 0.25,0.01 0.06,-0.04 0.04,-0.11 -0.04,-0.15 -0.07,-0.05 -0.17,-0.05 -0.24,-0.01 -0.06,0.04 -0.05,0.11 0.03,0.15z"/>
    </g>
    <g>
     <path class="fil6" d="M16.85 5.13c-0.26,0 -0.51,-0.07 -0.7,-0.18 -0.21,-0.13 -0.33,-0.29 -0.34,-0.47 0,-0.13 0.08,-0.25 0.21,-0.34 0.33,-0.2 0.81,-0.18 1.22,0.06 0.23,0.12 0.36,0.3 0.36,0.47 0.01,0.12 -0.06,0.22 -0.18,0.3 -0.18,0.12 -0.38,0.16 -0.57,0.16zm-0.31 -1.09l0 0c-0.17,0 -0.34,0.04 -0.5,0.13 -0.12,0.08 -0.19,0.19 -0.19,0.31 0,0.16 0.12,0.32 0.32,0.43 0.33,0.2 0.84,0.28 1.23,0.03 0.11,-0.07 0.17,-0.17 0.17,-0.27 -0.01,-0.16 -0.13,-0.32 -0.34,-0.44 -0.19,-0.11 -0.43,-0.19 -0.69,-0.19z"/>
    </g>
    <g>
     <g>
      <path class="fil6" d="M15.9 3.34c0.01,0.02 -0.01,0.05 -0.04,0.07 -0.09,0.05 -0.28,0.05 -0.38,-0.01 -0.04,-0.03 -0.06,-0.05 -0.06,-0.08 0.11,-0.06 0.15,-0.09 0.23,-0.13 0.09,0.05 0.14,0.08 0.25,0.15z"/>
      <path class="fil6" d="M14.69 3.86c0.1,0.06 0.09,0.18 -0.03,0.25 -0.04,0.03 -0.1,0.04 -0.15,0.05 -0.12,-0.07 -0.18,-0.1 -0.27,-0.16 0.11,-0.06 0.18,-0.1 0.31,-0.18 0.05,0.01 0.1,0.02 0.14,0.04z"/>
      <path class="fil6" d="M18.72 5.27c-0.11,-0.06 -0.12,-0.18 -0.04,-0.24 0.04,-0.02 0.08,-0.03 0.12,-0.03 0.13,0.08 0.19,0.11 0.3,0.17 -0.08,0.05 -0.13,0.08 -0.24,0.14 -0.05,0 -0.1,-0.01 -0.14,-0.04z"/>
      <path class="fil6" d="M17.45 5.86c0.01,-0.03 0.03,-0.06 0.07,-0.09 0.11,-0.07 0.31,-0.08 0.4,-0.03 0.04,0.03 0.06,0.05 0.06,0.08 -0.13,0.08 -0.19,0.11 -0.3,0.17 -0.08,-0.04 -0.12,-0.07 -0.23,-0.13z"/>
     </g>
    </g>
    <polygon class="fil12" points="17.57,4.3 16.13,5.1 16.13,5.36 15.72,5.13 15.74,4.87 17.13,4.05 "/>
    <polygon class="fil10" points="15.81,5.18 15.82,4.92 17.22,4.1 17.49,4.25 16.05,5.05 16.05,5.32 "/>
    <polygon class="fil2" points="16.13,5.1 15.74,4.87 15.72,5.13 16.13,5.36 "/>
    <g>
     <g>
      <path class="fil13" d="M19.56 6.8c-0.1,-0.11 -0.31,-0.19 -0.55,-0.19 -0.25,0 -0.46,0.08 -0.55,0.19l-0.06 0 0 0.13c0,0.18 0.27,0.32 0.61,0.32 0.33,0 0.6,-0.14 0.6,-0.32l0 -0.13 -0.05 0z"/>
      <path class="fil14" d="M19.01 7.18c-0.34,0 -0.61,-0.14 -0.61,-0.32l0 0.03c0,0.18 0.27,0.32 0.61,0.32 0.33,0 0.6,-0.14 0.6,-0.32l0 -0.03c0,0.18 -0.27,0.32 -0.6,0.32z"/>
      <path class="fil14" d="M19.61 6.8c0,0.18 -0.27,0.32 -0.6,0.32 -0.34,0 -0.61,-0.14 -0.61,-0.32 0,-0.18 0.27,-0.32 0.61,-0.32 0.33,0 0.6,0.14 0.6,0.32z"/>
      <g>
       <path class="fil15" d="M19.14 6.87c0.02,0.01 0.03,0.02 0.05,0.03 -0.02,0.02 -0.02,0.02 -0.04,0.03 -0.02,-0.01 -0.03,-0.02 -0.05,-0.03 -0.04,0.01 -0.09,0.03 -0.13,0.03 -0.01,-0.02 -0.01,-0.03 -0.02,-0.05 0.05,-0.01 0.1,-0.02 0.12,-0.04 0.02,-0.01 0.03,-0.02 0.02,-0.03 -0.04,-0.03 -0.15,0.07 -0.23,0.01 -0.04,-0.03 -0.03,-0.06 0.01,-0.1 -0.02,-0.01 -0.03,-0.02 -0.05,-0.03 0.02,-0.02 0.03,-0.02 0.05,-0.03 0.02,0.01 0.03,0.02 0.04,0.03 0.04,-0.02 0.07,-0.03 0.11,-0.03 0.01,0.02 0.01,0.03 0.02,0.05 -0.04,0.01 -0.09,0.02 -0.11,0.03 -0.01,0.01 -0.02,0.03 -0.01,0.03 0.04,0.03 0.15,-0.07 0.23,-0.01 0.04,0.03 0.03,0.07 -0.01,0.11z"/>
      </g>
      <polygon class="fil15" points="19.04,6.67 19.04,6.71 18.98,6.71 19.01,6.68 "/>
      <g>
       <path class="fil16" d="M19.14 6.82c0.02,0.02 0.03,0.03 0.05,0.04 -0.02,0.01 -0.02,0.02 -0.04,0.03 -0.02,-0.01 -0.03,-0.02 -0.05,-0.04 -0.04,0.02 -0.09,0.03 -0.13,0.03 -0.01,-0.02 -0.01,-0.03 -0.02,-0.05 0.05,0 0.1,-0.01 0.12,-0.03 0.02,-0.01 0.03,-0.02 0.02,-0.03 -0.04,-0.03 -0.15,0.07 -0.23,0.01 -0.04,-0.03 -0.03,-0.07 0.01,-0.1 -0.02,-0.01 -0.03,-0.02 -0.05,-0.04 0.02,-0.01 0.03,-0.01 0.05,-0.03 0.02,0.02 0.03,0.02 0.04,0.04 0.04,-0.02 0.07,-0.03 0.11,-0.03 0.01,0.02 0.01,0.03 0.02,0.05 -0.04,0.01 -0.09,0.02 -0.11,0.03 -0.01,0.01 -0.02,0.02 -0.01,0.03 0.04,0.03 0.15,-0.07 0.23,-0.01 0.04,0.03 0.03,0.07 -0.01,0.1z"/>
      </g>
      <path class="fil15" d="M19.01 6.59c0.25,0 0.45,0.1 0.47,0.23 0,-0.01 0,-0.01 0,-0.02 0,-0.14 -0.21,-0.25 -0.47,-0.25 -0.27,0 -0.48,0.11 -0.48,0.25 0,0.01 0,0.01 0,0.02 0.02,-0.13 0.23,-0.23 0.48,-0.23z"/>
     </g>
     <polygon class="fil15" points="19.19,6.86 19.19,6.9 19.15,6.93 19.15,6.89 "/>
     <polygon class="fil15" points="18.95,6.83 18.95,6.88 18.97,6.93 18.97,6.88 "/>
     <polygon class="fil15" points="18.82,6.69 18.82,6.64 18.85,6.67 "/>
    </g>
    <g>
     <g>
      <path class="fil13" d="M19.49 6.62c-0.1,-0.11 -0.31,-0.18 -0.55,-0.18 -0.24,0 -0.45,0.07 -0.55,0.18l-0.05 0 0 0.14c0,0.17 0.27,0.32 0.6,0.32 0.33,0 0.6,-0.15 0.6,-0.32l0 -0.14 -0.05 0z"/>
      <path class="fil14" d="M18.94 7c-0.33,0 -0.6,-0.14 -0.6,-0.32l0 0.04c0,0.17 0.27,0.32 0.6,0.32 0.33,0 0.6,-0.15 0.6,-0.32l0 -0.04c0,0.18 -0.27,0.32 -0.6,0.32z"/>
      <path class="fil14" d="M19.54 6.62c0,0.18 -0.27,0.32 -0.6,0.32 -0.33,0 -0.6,-0.14 -0.6,-0.32 0,-0.17 0.27,-0.32 0.6,-0.32 0.33,0 0.6,0.15 0.6,0.32z"/>
      <g>
       <path class="fil15" d="M19.08 6.69c0.02,0.01 0.03,0.02 0.05,0.04 -0.02,0.01 -0.03,0.02 -0.05,0.03 -0.02,-0.02 -0.03,-0.02 -0.05,-0.04 -0.04,0.02 -0.08,0.03 -0.12,0.03 -0.01,-0.02 -0.02,-0.03 -0.03,-0.05 0.05,0 0.1,-0.02 0.13,-0.03 0.02,-0.01 0.02,-0.03 0.01,-0.04 -0.04,-0.03 -0.15,0.08 -0.23,0.01 -0.03,-0.02 -0.03,-0.06 0.01,-0.09 -0.02,-0.02 -0.03,-0.03 -0.05,-0.04 0.02,-0.01 0.03,-0.02 0.05,-0.03 0.02,0.01 0.03,0.02 0.05,0.03 0.03,-0.01 0.07,-0.02 0.1,-0.03 0.01,0.02 0.01,0.03 0.02,0.05 -0.04,0.01 -0.08,0.02 -0.1,0.04 -0.02,0.01 -0.03,0.02 -0.02,0.03 0.04,0.03 0.15,-0.08 0.24,-0.01 0.04,0.03 0.03,0.07 -0.01,0.1z"/>
      </g>
      <polygon class="fil15" points="18.97,6.49 18.97,6.53 18.91,6.53 18.94,6.5 "/>
      <g>
       <path class="fil16" d="M19.08 6.65c0.02,0.01 0.03,0.02 0.05,0.03 -0.02,0.02 -0.03,0.02 -0.05,0.04 -0.02,-0.02 -0.03,-0.03 -0.05,-0.04 -0.04,0.02 -0.08,0.03 -0.12,0.03 -0.01,-0.02 -0.02,-0.03 -0.03,-0.05 0.05,0 0.1,-0.02 0.13,-0.03 0.02,-0.02 0.02,-0.03 0.01,-0.04 -0.04,-0.03 -0.15,0.07 -0.23,0.01 -0.03,-0.03 -0.03,-0.06 0.01,-0.1 -0.02,-0.01 -0.03,-0.02 -0.05,-0.03 0.02,-0.01 0.03,-0.02 0.05,-0.03 0.02,0.01 0.03,0.02 0.05,0.03 0.03,-0.01 0.07,-0.03 0.1,-0.03 0.01,0.02 0.01,0.03 0.02,0.05 -0.04,0.01 -0.08,0.02 -0.1,0.04 -0.02,0.01 -0.03,0.02 -0.02,0.02 0.04,0.03 0.15,-0.07 0.24,-0.01 0.04,0.03 0.03,0.07 -0.01,0.11z"/>
      </g>
      <path class="fil15" d="M18.94 6.41c0.25,0 0.45,0.11 0.48,0.23 0,0 0,-0.01 0,-0.02 0,-0.14 -0.22,-0.25 -0.48,-0.25 -0.26,0 -0.48,0.11 -0.48,0.25 0,0.01 0,0.02 0,0.02 0.03,-0.12 0.23,-0.23 0.48,-0.23z"/>
     </g>
     <polygon class="fil15" points="19.13,6.68 19.13,6.73 19.08,6.76 19.08,6.72 "/>
     <polygon class="fil15" points="18.88,6.66 18.88,6.7 18.91,6.75 18.91,6.71 "/>
     <polygon class="fil15" points="18.75,6.51 18.75,6.47 18.78,6.49 "/>
    </g>
    <g>
     <g>
      <path class="fil13" d="M19.56 6.43c-0.1,-0.11 -0.31,-0.19 -0.55,-0.19 -0.25,0 -0.46,0.08 -0.55,0.19l-0.06 0 0 0.13c0,0.18 0.27,0.32 0.61,0.32 0.33,0 0.6,-0.14 0.6,-0.32l0 -0.13 -0.05 0z"/>
      <path class="fil14" d="M19.01 6.81c-0.34,0 -0.61,-0.14 -0.61,-0.32l0 0.03c0,0.18 0.27,0.32 0.61,0.32 0.33,0 0.6,-0.14 0.6,-0.32l0 -0.03c0,0.18 -0.27,0.32 -0.6,0.32z"/>
      <path class="fil14" d="M19.61 6.43c0,0.18 -0.27,0.32 -0.6,0.32 -0.34,0 -0.61,-0.14 -0.61,-0.32 0,-0.18 0.27,-0.32 0.61,-0.32 0.33,0 0.6,0.14 0.6,0.32z"/>
      <g>
       <path class="fil15" d="M19.14 6.5c0.02,0.01 0.03,0.02 0.05,0.03 -0.02,0.01 -0.02,0.02 -0.04,0.03 -0.02,-0.01 -0.03,-0.02 -0.05,-0.03 -0.04,0.01 -0.09,0.02 -0.13,0.03 -0.01,-0.02 -0.01,-0.03 -0.02,-0.06 0.05,0 0.1,-0.01 0.12,-0.03 0.02,-0.01 0.03,-0.02 0.02,-0.03 -0.04,-0.03 -0.15,0.07 -0.23,0.01 -0.04,-0.03 -0.03,-0.06 0.01,-0.1 -0.02,-0.01 -0.03,-0.02 -0.05,-0.03 0.02,-0.02 0.03,-0.02 0.05,-0.04 0.02,0.02 0.03,0.03 0.04,0.04 0.04,-0.02 0.07,-0.03 0.11,-0.03 0.01,0.02 0.01,0.03 0.02,0.05 -0.04,0.01 -0.09,0.02 -0.11,0.03 -0.01,0.01 -0.02,0.02 -0.01,0.03 0.04,0.03 0.15,-0.07 0.23,-0.01 0.04,0.03 0.03,0.07 -0.01,0.11z"/>
      </g>
      <polygon class="fil15" points="19.04,6.3 19.04,6.34 18.98,6.34 19.01,6.3 "/>
      <g>
       <path class="fil16" d="M19.14 6.45c0.02,0.02 0.03,0.03 0.05,0.04 -0.02,0.01 -0.02,0.02 -0.04,0.03 -0.02,-0.01 -0.03,-0.02 -0.05,-0.04 -0.04,0.02 -0.09,0.03 -0.13,0.03 -0.01,-0.02 -0.01,-0.03 -0.02,-0.05 0.05,0 0.1,-0.01 0.12,-0.03 0.02,-0.01 0.03,-0.02 0.02,-0.03 -0.04,-0.03 -0.15,0.07 -0.23,0.01 -0.04,-0.03 -0.03,-0.07 0.01,-0.1 -0.02,-0.02 -0.03,-0.02 -0.05,-0.04 0.02,-0.01 0.03,-0.02 0.05,-0.03 0.02,0.02 0.03,0.02 0.04,0.04 0.04,-0.02 0.07,-0.03 0.11,-0.03 0.01,0.02 0.01,0.03 0.02,0.05 -0.04,0 -0.09,0.02 -0.11,0.03 -0.01,0.01 -0.02,0.02 -0.01,0.03 0.04,0.03 0.15,-0.07 0.23,-0.01 0.04,0.03 0.03,0.07 -0.01,0.1z"/>
      </g>
      <path class="fil15" d="M19.01 6.22c0.25,0 0.45,0.1 0.47,0.23 0,-0.01 0,-0.01 0,-0.02 0,-0.14 -0.21,-0.25 -0.47,-0.25 -0.27,0 -0.48,0.11 -0.48,0.25 0,0.01 0,0.01 0,0.02 0.02,-0.13 0.23,-0.23 0.48,-0.23z"/>
     </g>
     <polygon class="fil15" points="19.19,6.49 19.19,6.53 19.15,6.56 19.15,6.52 "/>
     <polygon class="fil15" points="18.95,6.46 18.95,6.5 18.97,6.56 18.97,6.51 "/>
     <polygon class="fil15" points="18.82,6.32 18.82,6.27 18.85,6.3 "/>
    </g>
    <g>
     <g>
      <path class="fil13" d="M19.49 6.25c-0.1,-0.11 -0.31,-0.18 -0.55,-0.18 -0.24,0 -0.45,0.07 -0.55,0.18l-0.05 0 0 0.14c0,0.17 0.27,0.32 0.6,0.32 0.33,0 0.6,-0.15 0.6,-0.32l0 -0.14 -0.05 0z"/>
      <path class="fil14" d="M18.94 6.63c-0.33,0 -0.6,-0.14 -0.6,-0.32l0 0.03c0,0.18 0.27,0.32 0.6,0.32 0.33,0 0.6,-0.14 0.6,-0.32l0 -0.03c0,0.18 -0.27,0.32 -0.6,0.32z"/>
      <path class="fil14" d="M19.54 6.25c0,0.18 -0.27,0.32 -0.6,0.32 -0.33,0 -0.6,-0.14 -0.6,-0.32 0,-0.17 0.27,-0.32 0.6,-0.32 0.33,0 0.6,0.15 0.6,0.32z"/>
      <g>
       <path class="fil15" d="M19.08 6.32c0.02,0.01 0.03,0.02 0.05,0.04 -0.02,0.01 -0.03,0.01 -0.05,0.03 -0.02,-0.02 -0.03,-0.03 -0.05,-0.04 -0.04,0.02 -0.08,0.03 -0.12,0.03 -0.01,-0.02 -0.02,-0.03 -0.03,-0.05 0.05,0 0.1,-0.02 0.13,-0.03 0.02,-0.02 0.02,-0.03 0.01,-0.04 -0.04,-0.03 -0.15,0.07 -0.23,0.01 -0.03,-0.02 -0.03,-0.06 0.01,-0.1 -0.02,-0.01 -0.03,-0.02 -0.05,-0.03 0.02,-0.01 0.03,-0.02 0.05,-0.03 0.02,0.01 0.03,0.02 0.05,0.03 0.03,-0.01 0.07,-0.02 0.1,-0.03 0.01,0.02 0.01,0.03 0.02,0.05 -0.04,0.01 -0.08,0.02 -0.1,0.04 -0.02,0.01 -0.03,0.02 -0.02,0.03 0.04,0.02 0.15,-0.08 0.24,-0.01 0.04,0.03 0.03,0.07 -0.01,0.1z"/>
      </g>
      <polygon class="fil15" points="18.97,6.12 18.97,6.16 18.91,6.16 18.94,6.13 "/>
      <g>
       <path class="fil16" d="M19.08 6.28c0.02,0.01 0.03,0.02 0.05,0.03 -0.02,0.02 -0.03,0.02 -0.05,0.03 -0.02,-0.01 -0.03,-0.02 -0.05,-0.03 -0.04,0.02 -0.08,0.03 -0.12,0.03 -0.01,-0.02 -0.02,-0.03 -0.03,-0.05 0.05,0 0.1,-0.02 0.13,-0.04 0.02,-0.01 0.02,-0.02 0.01,-0.03 -0.04,-0.03 -0.15,0.07 -0.23,0.01 -0.03,-0.03 -0.03,-0.06 0.01,-0.1 -0.02,-0.01 -0.03,-0.02 -0.05,-0.03 0.02,-0.02 0.03,-0.02 0.05,-0.03 0.02,0.01 0.03,0.02 0.05,0.03 0.03,-0.02 0.07,-0.03 0.1,-0.03 0.01,0.02 0.01,0.03 0.02,0.05 -0.04,0.01 -0.08,0.02 -0.1,0.03 -0.02,0.01 -0.03,0.03 -0.02,0.03 0.04,0.03 0.15,-0.07 0.24,-0.01 0.04,0.03 0.03,0.07 -0.01,0.11z"/>
      </g>
      <path class="fil15" d="M18.94 6.04c0.25,0 0.45,0.1 0.48,0.23 0,0 0,-0.01 0,-0.02 0,-0.14 -0.22,-0.25 -0.48,-0.25 -0.26,0 -0.48,0.11 -0.48,0.25 0,0.01 0,0.02 0,0.02 0.03,-0.13 0.23,-0.23 0.48,-0.23z"/>
     </g>
     <polygon class="fil15" points="19.13,6.31 19.13,6.36 19.08,6.39 19.08,6.34 "/>
     <polygon class="fil15" points="18.88,6.29 18.88,6.33 18.91,6.38 18.91,6.34 "/>
     <polygon class="fil15" points="18.75,6.14 18.75,6.1 18.78,6.12 "/>
    </g>
    <g>
     <g>
      <path class="fil13" d="M19.56 6.06c-0.1,-0.11 -0.31,-0.19 -0.55,-0.19 -0.25,0 -0.46,0.08 -0.55,0.19l-0.06 0 0 0.13c0,0.18 0.27,0.32 0.61,0.32 0.33,0 0.6,-0.14 0.6,-0.32l0 -0.13 -0.05 0z"/>
      <path class="fil14" d="M19.01 6.44c-0.34,0 -0.61,-0.14 -0.61,-0.32l0 0.03c0,0.18 0.27,0.32 0.61,0.32 0.33,0 0.6,-0.14 0.6,-0.32l0 -0.03c0,0.18 -0.27,0.32 -0.6,0.32z"/>
      <path class="fil14" d="M19.61 6.06c0,0.17 -0.27,0.32 -0.6,0.32 -0.34,0 -0.61,-0.15 -0.61,-0.32 0,-0.18 0.27,-0.32 0.61,-0.32 0.33,0 0.6,0.14 0.6,0.32z"/>
      <g>
       <path class="fil15" d="M19.14 6.12c0.02,0.02 0.03,0.03 0.05,0.04 -0.02,0.01 -0.02,0.02 -0.04,0.03 -0.02,-0.01 -0.03,-0.02 -0.05,-0.04 -0.04,0.02 -0.09,0.03 -0.13,0.04 -0.01,-0.03 -0.01,-0.04 -0.02,-0.06 0.05,0 0.1,-0.01 0.12,-0.03 0.02,-0.01 0.03,-0.02 0.02,-0.03 -0.04,-0.03 -0.15,0.07 -0.23,0.01 -0.04,-0.03 -0.03,-0.07 0.01,-0.1 -0.02,-0.01 -0.03,-0.02 -0.05,-0.04 0.02,-0.01 0.03,-0.01 0.05,-0.03 0.02,0.02 0.03,0.03 0.04,0.04 0.04,-0.02 0.07,-0.03 0.11,-0.03 0.01,0.02 0.01,0.03 0.02,0.05 -0.04,0.01 -0.09,0.02 -0.11,0.03 -0.01,0.01 -0.02,0.02 -0.01,0.03 0.04,0.03 0.15,-0.07 0.23,-0.01 0.04,0.03 0.03,0.07 -0.01,0.1z"/>
      </g>
      <polygon class="fil15" points="19.04,5.93 19.04,5.97 18.98,5.97 19.01,5.93 "/>
      <g>
       <path class="fil16" d="M19.14 6.08c0.02,0.02 0.03,0.02 0.05,0.04 -0.02,0.01 -0.02,0.02 -0.04,0.03 -0.02,-0.01 -0.03,-0.02 -0.05,-0.04 -0.04,0.02 -0.09,0.03 -0.13,0.03 -0.01,-0.02 -0.01,-0.03 -0.02,-0.05 0.05,0 0.1,-0.01 0.12,-0.03 0.02,-0.01 0.03,-0.02 0.02,-0.03 -0.04,-0.03 -0.15,0.07 -0.23,0.01 -0.04,-0.03 -0.03,-0.07 0.01,-0.1 -0.02,-0.02 -0.03,-0.02 -0.05,-0.04 0.02,-0.01 0.03,-0.02 0.05,-0.03 0.02,0.02 0.03,0.02 0.04,0.04 0.04,-0.02 0.07,-0.03 0.11,-0.04 0.01,0.03 0.01,0.04 0.02,0.06 -0.04,0 -0.09,0.02 -0.11,0.03 -0.01,0.01 -0.02,0.02 -0.01,0.03 0.04,0.03 0.15,-0.07 0.23,-0.01 0.04,0.03 0.03,0.07 -0.01,0.1z"/>
      </g>
      <path class="fil15" d="M19.01 5.85c0.25,0 0.45,0.1 0.47,0.23 0,-0.01 0,-0.01 0,-0.02 0,-0.14 -0.21,-0.25 -0.47,-0.25 -0.27,0 -0.48,0.11 -0.48,0.25 0,0.01 0,0.01 0,0.02 0.02,-0.13 0.23,-0.23 0.48,-0.23z"/>
     </g>
     <polygon class="fil15" points="19.19,6.12 19.19,6.16 19.15,6.19 19.15,6.15 "/>
     <polygon class="fil15" points="18.95,6.09 18.95,6.13 18.97,6.19 18.97,6.14 "/>
     <polygon class="fil15" points="18.82,5.94 18.82,5.9 18.85,5.93 "/>
    </g>
    <path class="fil13" d="M19.49 5.88c-0.1,-0.11 -0.31,-0.18 -0.55,-0.18 -0.24,0 -0.45,0.07 -0.55,0.18l-0.05 0 0 0.13c0,0.18 0.27,0.32 0.6,0.32 0.33,0 0.6,-0.14 0.6,-0.32l0 -0.13 -0.05 0z"/>
    <path class="fil14" d="M18.94 6.26c-0.33,0 -0.6,-0.14 -0.6,-0.32l0 0.03c0,0.18 0.27,0.32 0.6,0.32 0.33,0 0.6,-0.14 0.6,-0.32l0 -0.03c0,0.18 -0.27,0.32 -0.6,0.32z"/>
    <path class="fil18" d="M19.54 5.88c0,0.18 -0.27,0.32 -0.6,0.32 -0.33,0 -0.6,-0.14 -0.6,-0.32 0,-0.18 0.27,-0.32 0.6,-0.32 0.33,0 0.6,0.14 0.6,0.32z"/>
    <path class="fil17" d="M18.94 5.67c0.25,0 0.45,0.1 0.48,0.23 0,0 0,-0.01 0,-0.02 0,-0.14 -0.22,-0.25 -0.48,-0.25 -0.26,0 -0.48,0.11 -0.48,0.25 0,0.01 0,0.02 0,0.02 0.03,-0.13 0.23,-0.23 0.48,-0.23z"/>
    <path class="fil11" d="M15.96 3.37c-0.34,0.2 -0.68,0.4 -1.03,0.6 1.05,0.6 2.09,1.2 3.13,1.8 0.35,-0.2 0.69,-0.4 1.04,-0.6 -1.05,-0.59 -2.09,-1.2 -3.14,-1.8z"/>
    <polygon class="fil11" points="14.24,4 14.24,4.27 14.41,4.37 14.32,4.42 14.32,4.69 14.43,4.75 14.24,4.86 14.24,5.12 17.69,7.11 17.69,6.85 17.57,6.77 17.76,6.68 17.76,6.41 17.61,6.32 17.68,6.26 17.68,5.99 "/>
    <polygon class="fil11" points="14.24,4 14.24,4.27 14.41,4.37 14.32,4.42 14.32,4.69 14.43,4.75 14.24,4.86 14.24,5.12 17.69,7.11 17.69,6.85 17.58,6.78 17.76,6.68 17.76,6.41 17.58,6.3 17.68,6.26 17.68,5.99 "/>
   </g>
  </g>
  <polygon class="fil19" points="0,0 22.17,0 22.17,10.78 0,10.78 "/>
 </g>
</svg>
