<?xml version="1.0" encoding="UTF-8"?>
<!DOCTYPE svg PUBLIC "-//W3C//DTD SVG 1.1//EN" "http://www.w3.org/Graphics/SVG/1.1/DTD/svg11.dtd">
<!-- Creator: CorelDRAW 2020 (64-Bit) -->
<svg xmlns="http://www.w3.org/2000/svg" xml:space="preserve" width="800px" height="318px" version="1.1" style="shape-rendering:geometricPrecision; text-rendering:geometricPrecision; image-rendering:optimizeQuality; fill-rule:evenodd; clip-rule:evenodd"
viewBox="0 0 609.5 242.05"
 xmlns:xlink="http://www.w3.org/1999/xlink"
 xmlns:xodm="http://www.corel.com/coreldraw/odm/2003">
 <defs>
  <style type="text/css">
   <![CDATA[
    .str0 {stroke:white;stroke-width:4.7;stroke-miterlimit:22.9256}
    .str1 {stroke:white;stroke-width:2.35;stroke-miterlimit:22.9256}
    .fil0 {fill:#4A6CF9;fill-rule:nonzero}
    .fil6 {fill:#5A69F7;fill-rule:nonzero}
    .fil2 {fill:#925EF2;fill-rule:nonzero}
    .fil3 {fill:white;fill-rule:nonzero}
    .fil4 {fill:#263138;fill-rule:nonzero;fill-opacity:0.301961}
    .fil7 {fill:#334BAE;fill-rule:nonzero;fill-opacity:0.501961}
    .fil5 {fill:#334BAE;fill-rule:nonzero}
    .fil1 {fill:#6641A9;fill-rule:nonzero}
   ]]>
  </style>
 </defs>
 <g id="Слой_x0020_1">
  <metadata id="CorelCorpID_0Corel-Layer"/>
  <g id="_2367158794224">
   <path class="fil0" d="M273.96 221.48l-268.83 -0.25c-2.84,0 -5.13,-2.3 -5.13,-5.13l0.15 -166.8c0.01,-2.84 2.3,-5.13 5.14,-5.13l268.83 0.25c2.83,0 5.13,2.3 5.12,5.13l-0.15 166.8c0,2.84 -2.3,5.13 -5.13,5.13z"/>
   <path class="fil1" d="M273.96 221.48l-268.83 -0.25c-2.84,0 -5.13,-2.3 -5.13,-5.13l0.15 -166.8c0.01,-2.84 2.3,-5.13 5.14,-5.13l268.65 0.25c2.84,0 5.31,2.3 5.3,5.13l-0.15 166.8c0,2.84 -2.3,5.13 -5.13,5.13z"/>
   <path class="fil2" d="M269.12 44.41l-261.87 -0.24c-6.05,-0.48 -7.48,2.46 -7.1,7.09l-0.04 47.39c0,0.95 0.46,1.85 1.25,2.37 16.34,10.74 38.32,12.58 57.88,8.51 23.66,-4.92 45.08,-17 67.13,-26.89 22.04,-9.89 46.25,-17.83 70.06,-13.72 22.47,3.87 41.62,17.89 61.92,28.26 5.42,2.77 11.18,5.27 17.09,7.25 1.84,0.61 3.75,-0.74 3.76,-2.68l0.04 -49.16c0,-2.12 0.5,-3.98 -0.8,-5.93 -1.99,-2.98 -6.14,-2.24 -9.32,-2.25z"/>
   <path class="fil3" d="M46.08 84.65c0,2.27 -1.8,3.58 -5.24,3.58l-6.78 -0.01 0.01 -13.1 6.4 0c3.28,0.01 4.96,1.37 4.96,3.41 0,1.31 -0.67,2.32 -1.74,2.88 1.46,0.47 2.39,1.6 2.39,3.24zm-8.99 -7.25l0 0 -0.01 3.09 3.02 0c1.47,0 2.28,-0.52 2.28,-1.55 0,-1.03 -0.8,-1.53 -2.28,-1.53l-3.01 -0.01zm5.94 6.93l0 0c0,-1.1 -0.84,-1.63 -2.41,-1.63l-3.54 0 0 3.24 3.53 0c1.58,0 2.42,-0.48 2.42,-1.61z"/>
   <path class="fil3" d="M57 85.43l-6.08 0 -1.17 2.8 -3.1 0 5.85 -13.1 2.99 0.01 5.85 13.1 -3.18 0 -1.16 -2.81zm-0.95 -2.3l0 0 -2.08 -5.02 -2.08 5.02 4.16 0z"/>
   <polygon class="fil3" points="74.72,75.15 74.71,88.26 72.22,88.25 65.7,80.29 65.69,88.25 62.69,88.25 62.71,75.14 65.22,75.15 71.72,83.11 71.73,75.15 "/>
   <polygon class="fil3" points="82.58,83.12 80.82,84.95 80.82,88.26 77.81,88.26 77.82,75.16 80.83,75.16 80.83,81.28 86.63,75.17 90,75.17 84.57,81 90.31,88.27 86.77,88.27 "/>
   <polygon class="fil3" points="43.58,139.13 41.17,139.13 41.17,142.29 39.93,142.29 39.94,139.13 33.15,139.12 33.15,138.23 39.53,130.26 40.91,130.26 34.75,138.02 39.97,138.03 39.97,135.24 41.18,135.25 41.17,138.03 43.58,138.03 "/>
   <path class="fil3" d="M52.41 138.85c0,2.01 -1.47,3.55 -4.37,3.55 -1.73,0 -3.4,-0.61 -4.33,-1.55l0.61 -0.98c0.77,0.81 2.16,1.39 3.72,1.39 2,0.01 3.1,-0.92 3.1,-2.41 0,-1.45 -1.02,-2.39 -3.25,-2.4l-0.86 0 0 -0.91 3.34 -4.17 -6.15 0 0 -1.1 7.73 0 0 0.88 -3.4 4.27c2.57,0.14 3.86,1.5 3.86,3.43z"/>
   <path class="fil3" d="M62.13 138.77c0,2.04 -1.43,3.64 -4.37,3.64 -1.73,0 -3.38,-0.61 -4.31,-1.55l0.61 -0.98c0.77,0.81 2.14,1.39 3.69,1.39 2.04,0.01 3.13,-0.99 3.13,-2.45 0,-1.55 -0.96,-2.51 -4.02,-2.51l-2.56 -0.01 0.62 -6.02 6.58 0 0 1.1 -5.49 0 -0.42 3.83 1.55 0c3.62,0 4.99,1.43 4.99,3.56z"/>
   <path class="fil3" d="M72.73 138.73c0,2.25 -1.77,3.69 -4.11,3.69 -3.19,-0.01 -4.93,-2.22 -4.92,-6.02 0,-4.09 2.23,-6.22 5.5,-6.21 1.08,0 2.09,0.19 2.85,0.65l-0.5 1c-0.62,-0.42 -1.44,-0.57 -2.34,-0.57 -2.59,0 -4.26,1.66 -4.26,4.93 0,0.27 0.02,0.61 0.05,0.97 0.6,-1.32 2.01,-2.06 3.68,-2.05 2.39,0 4.05,1.41 4.05,3.61zm-1.22 0.03l0 0c0,-1.58 -1.17,-2.59 -3.02,-2.6 -1.84,0 -3.09,1.14 -3.1,2.63 0,1.32 1.1,2.58 3.18,2.58 1.73,0 2.94,-1.01 2.94,-2.61z"/>
   <polygon class="fil3" points="98.71,142.34 95.85,138.56 92.96,142.34 91.59,142.34 95.16,137.7 91.77,133.3 93.14,133.3 95.85,136.84 98.57,133.31 99.91,133.31 96.5,137.7 100.11,142.34 "/>
   <polygon class="fil3" points="107.89,142.35 105.02,138.57 102.13,142.35 100.76,142.34 104.34,137.71 100.94,133.31 102.32,133.31 105.03,136.85 107.74,133.31 109.08,133.32 105.68,137.71 109.28,142.35 "/>
   <polygon class="fil3" points="117.06,142.36 114.2,138.58 111.31,142.35 109.93,142.35 113.51,137.72 110.11,133.32 111.49,133.32 114.2,136.86 116.91,133.32 118.26,133.32 114.85,137.72 118.45,142.36 "/>
   <polygon class="fil3" points="126.24,142.37 123.37,138.58 120.48,142.36 119.11,142.36 122.68,137.73 119.29,133.32 120.66,133.33 123.37,136.87 126.09,133.33 127.43,133.33 124.02,137.73 127.63,142.37 "/>
   <polygon class="fil3" points="157.91,142.4 155.05,138.61 152.16,142.39 150.78,142.39 154.36,137.75 150.96,133.35 152.34,133.35 155.05,136.9 157.76,133.36 159.11,133.36 155.7,137.76 159.3,142.4 "/>
   <polygon class="fil3" points="167.08,142.41 164.22,138.62 161.33,142.4 159.95,142.4 163.53,137.76 160.13,133.36 161.51,133.36 164.22,136.9 166.94,133.37 168.28,133.37 164.87,137.76 168.48,142.41 "/>
   <polygon class="fil3" points="176.26,142.41 173.39,138.63 170.5,142.41 169.13,142.41 172.71,137.77 169.31,133.37 170.68,133.37 173.39,136.91 176.11,133.38 177.45,133.38 174.05,137.77 177.65,142.41 "/>
   <polygon class="fil3" points="185.43,142.42 182.56,138.64 179.68,142.42 178.3,142.42 181.88,137.78 178.48,133.38 179.86,133.38 182.57,136.92 185.28,133.39 186.62,133.39 183.22,137.78 186.82,142.42 "/>
   <polygon class="fil3" points="213.89,130.42 213.88,142.45 212.64,142.45 212.65,131.52 209.81,131.52 209.82,130.42 "/>
   <path class="fil3" d="M224.7 139.01c0,2 -1.46,3.55 -4.36,3.55 -1.74,0 -3.41,-0.61 -4.33,-1.55l0.6 -0.98c0.77,0.81 2.16,1.39 3.73,1.39 1.99,0 3.09,-0.92 3.09,-2.42 0,-1.44 -1.01,-2.39 -3.25,-2.39l-0.85 0 0 -0.91 3.33 -4.17 -6.15 -0.01 0 -1.1 7.73 0.01 0 0.88 -3.4 4.27c2.58,0.14 3.86,1.5 3.86,3.43z"/>
   <polygon class="fil3" points="236.66,139.31 234.25,139.3 234.25,142.47 233.01,142.47 233.02,139.3 226.23,139.3 226.23,138.4 232.61,130.44 233.99,130.44 227.83,138.2 233.05,138.2 233.05,135.42 234.26,135.42 234.25,138.21 236.66,138.21 "/>
   <path class="fil3" d="M245.93 141.38l0 1.1 -8.43 -0.01 0 -0.88 5 -4.89c1.36,-1.34 1.62,-2.14 1.62,-2.97 0,-1.39 -0.98,-2.25 -2.82,-2.25 -1.41,0 -2.49,0.42 -3.28,1.33l-0.88 -0.75c0.93,-1.1 2.43,-1.72 4.27,-1.72 2.44,0.01 3.98,1.24 3.98,3.25 0,1.16 -0.36,2.19 -1.98,3.77l-4.09 4.01 6.61 0.01z"/>
   <path class="fil3" d="M26.94 167.24c0,-1.73 1.33,-2.97 3.12,-2.97 0.99,0 1.82,0.36 2.36,1.02l-0.86 0.79c-0.38,-0.45 -0.87,-0.68 -1.44,-0.68 -1.07,0 -1.83,0.76 -1.84,1.84 0,1.08 0.76,1.84 1.84,1.84 0.57,0 1.06,-0.23 1.44,-0.68l0.85 0.78c-0.54,0.67 -1.37,1.03 -2.37,1.03 -1.78,0 -3.1,-1.24 -3.1,-2.97z"/>
   <path class="fil3" d="M36.98 168.89l-2.66 -0.01 -0.51 1.23 -1.36 0 2.56 -5.74 1.31 0.01 2.56 5.74 -1.39 0 -0.51 -1.23zm-0.42 -1.01l0 0 -0.9 -2.2 -0.91 2.19 1.81 0.01z"/>
   <path class="fil3" d="M43.15 170.12l-1.11 -1.6 -0.07 0 -1.15 0 0 1.6 -1.33 0 0.01 -5.74 2.48 0c1.53,0 2.49,0.8 2.49,2.09 0,0.86 -0.44,1.49 -1.18,1.81l1.28 1.84 -1.42 0zm-1.25 -4.66l0 0 -1.08 0 0 2 1.08 0c0.81,0 1.23,-0.37 1.23,-1 0,-0.63 -0.41,-1 -1.23,-1z"/>
   <path class="fil3" d="M45.08 169.56l0.45 -1c0.48,0.35 1.2,0.6 1.89,0.6 0.79,0 1.11,-0.26 1.11,-0.62 0,-1.07 -3.34,-0.34 -3.34,-2.47 0.01,-0.97 0.79,-1.78 2.42,-1.78 0.72,0 1.46,0.17 1.99,0.51l-0.41 1.01c-0.53,-0.31 -1.08,-0.46 -1.59,-0.46 -0.78,0 -1.09,0.3 -1.09,0.66 0,1.06 3.34,0.33 3.34,2.44 0,0.96 -0.8,1.77 -2.44,1.77 -0.91,0 -1.83,-0.27 -2.33,-0.66z"/>
   <polygon class="fil3" points="58.35,164.4 58.35,170.13 57.02,170.13 57.02,167.78 54.42,167.78 54.41,170.13 53.09,170.13 53.09,164.39 54.42,164.39 54.42,166.66 57.03,166.66 57.03,164.39 "/>
   <path class="fil3" d="M59.36 167.27c0,-1.71 1.33,-2.97 3.15,-2.97 1.8,0 3.13,1.26 3.13,2.97 0,1.72 -1.34,2.97 -3.14,2.97 -1.81,0 -3.14,-1.27 -3.14,-2.97zm4.94 0l0 0c0,-1.09 -0.77,-1.84 -1.8,-1.84 -1.02,0 -1.79,0.75 -1.79,1.84 0,1.09 0.77,1.83 1.79,1.84 1.03,0 1.8,-0.75 1.8,-1.84z"/>
   <polygon class="fil3" points="66.66,164.4 67.98,164.41 67.98,169.06 70.86,169.06 70.86,170.15 66.65,170.14 "/>
   <path class="fil3" d="M71.62 164.41l2.6 0c1.88,0 3.17,1.13 3.17,2.87 -0.01,1.74 -1.29,2.87 -3.17,2.87l-2.61 0 0.01 -5.74zm2.53 4.65l0 0c1.14,0 1.89,-0.68 1.89,-1.78 0,-1.1 -0.74,-1.78 -1.88,-1.78l-1.22 0 0 3.56 1.21 0z"/>
   <polygon class="fil3" points="82.84,169.09 82.84,170.16 78.39,170.15 78.4,164.41 82.74,164.42 82.73,165.48 79.72,165.48 79.72,166.73 82.38,166.73 82.38,167.76 79.72,167.76 79.71,169.09 "/>
   <path class="fil3" d="M87.56 170.16l-1.11 -1.6 -0.06 0 -1.16 0 0 1.6 -1.33 0 0.01 -5.74 2.48 0c1.53,0 2.49,0.8 2.49,2.09 0,0.86 -0.44,1.49 -1.18,1.81l1.28 1.84 -1.42 0zm-1.24 -4.66l0 0 -1.09 0 0 2 1.08 0c0.82,0 1.23,-0.37 1.23,-0.99 0,-0.64 -0.41,-1.01 -1.22,-1.01z"/>
   <path class="fil3" d="M26.35 189.66l1.42 -1.7c0.6,0.81 1.26,1.22 2.05,1.22 1.03,0 1.57,-0.62 1.57,-1.83l0 -5.26 -3.88 -0.01 0 -2.05 6.43 0.01 -0.01 7.17c0,2.73 -1.38,4.07 -3.98,4.07 -1.49,0 -2.8,-0.57 -3.6,-1.62z"/>
   <path class="fil3" d="M35.56 189.67c0,-0.91 0.68,-1.51 1.54,-1.51 0.85,0 1.53,0.6 1.53,1.51 -0.01,0.91 -0.68,1.55 -1.54,1.55 -0.85,0 -1.53,-0.65 -1.53,-1.55z"/>
   <polygon class="fil3" points="56.59,180.06 52.96,191.11 50.21,191.11 47.79,183.62 45.27,191.1 42.54,191.1 38.91,180.04 41.57,180.04 44.06,187.82 46.67,180.05 49.04,180.05 51.56,187.89 54.14,180.05 "/>
   <path class="fil3" d="M57.68 180.06c0,-0.78 0.61,-1.38 1.53,-1.37 0.92,0 1.53,0.57 1.53,1.32 0,0.83 -0.62,1.42 -1.53,1.42 -0.92,0 -1.53,-0.6 -1.53,-1.37zm0.3 2.56l0 0 2.46 0 -0.01 8.5 -2.46 -0.01 0.01 -8.49z"/>
   <polygon class="fil3" points="62.73,179.4 65.19,179.4 65.18,191.12 62.72,191.12 "/>
   <polygon class="fil3" points="67.48,179.4 69.94,179.41 69.93,191.12 67.47,191.12 "/>
   <path class="fil3" d="M71.92 180.07c0.01,-0.77 0.62,-1.37 1.54,-1.37 0.91,0 1.53,0.57 1.53,1.33 0,0.82 -0.62,1.42 -1.54,1.42 -0.91,0 -1.53,-0.6 -1.53,-1.38zm0.3 2.56l0 0 2.47 0 -0.01 8.5 -2.46 0 0 -8.5z"/>
   <path class="fil3" d="M84.49 186.29l-0.01 4.85 -2.31 0 0.01 -1.06c-0.46,0.77 -1.35,1.18 -2.59,1.18 -2,0 -3.18,-1.11 -3.18,-2.58 0,-1.5 1.06,-2.54 3.65,-2.54l1.96 0c0,-1.05 -0.63,-1.67 -1.96,-1.67 -0.89,0 -1.83,0.3 -2.44,0.79l-0.89 -1.73c0.94,-0.66 2.31,-1.02 3.67,-1.02 2.59,0 4.09,1.21 4.09,3.78zm-2.47 2.16l0 0 0 -0.87 -1.69 0c-1.15,0 -1.52,0.43 -1.52,0.99 0,0.62 0.52,1.03 1.39,1.03 0.82,0 1.53,-0.37 1.82,-1.15z"/>
   <path class="fil3" d="M101.06 186.29l-0.01 4.86 -2.46 0 0.01 -4.48c0,-1.38 -0.62,-2.01 -1.61,-2.01 -1.11,0 -1.89,0.71 -1.89,2.22l0 4.27 -2.46 0 0 -4.49c0,-1.37 -0.58,-2.01 -1.61,-2.01 -1.09,0 -1.86,0.71 -1.86,2.23l-0.01 4.26 -2.46 0 0 -8.5 2.36 0.01 0 0.97c0.63,-0.72 1.58,-1.1 2.67,-1.1 1.18,0 2.19,0.46 2.79,1.39 0.68,-0.86 1.79,-1.38 3.07,-1.38 2.02,0 3.47,1.17 3.47,3.76z"/>
   <path class="fil3" d="M102.43 190.36l0.82 -1.76c0.76,0.49 1.91,0.82 2.96,0.82 1.13,0 1.56,-0.3 1.56,-0.77 0,-1.39 -5.13,0.03 -5.13,-3.37 0,-1.61 1.45,-2.75 3.93,-2.75 1.17,0.01 2.47,0.28 3.27,0.75l-0.82 1.75c-0.84,-0.47 -1.67,-0.63 -2.45,-0.63 -1.1,0 -1.58,0.35 -1.58,0.79 0,1.45 5.14,0.05 5.13,3.4 0,1.58 -1.47,2.7 -4.01,2.69 -1.44,0 -2.89,-0.39 -3.68,-0.92z"/>
   <path class="fil3" d="M201.55 186.05c0,-3.65 2.03,-5.71 4.74,-5.71 2.74,0 4.74,2.07 4.74,5.72 -0.01,3.65 -2.01,5.72 -4.75,5.71 -2.71,0 -4.73,-2.07 -4.73,-5.72zm6.9 0.01l0 0c0,-2.51 -0.88,-3.56 -2.16,-3.56 -1.26,0 -2.15,1.04 -2.15,3.56 0,2.51 0.88,3.55 2.15,3.55 1.27,0 2.16,-1.04 2.16,-3.55z"/>
   <path class="fil3" d="M221.39 188.11c0,2.26 -1.85,3.68 -4.19,3.67 -3.05,0 -4.94,-1.91 -4.94,-5.48 0.01,-3.82 2.32,-5.95 5.65,-5.95 1.17,0 2.3,0.27 3.08,0.76l-0.95 1.88c-0.62,-0.41 -1.33,-0.55 -2.07,-0.55 -1.85,-0.01 -3.03,1.08 -3.12,3.2 0.65,-0.65 1.58,-0.98 2.74,-0.98 2.13,0 3.8,1.36 3.8,3.45zm-2.48 0.12l0 0c0,-1.01 -0.74,-1.66 -1.88,-1.66 -1.12,0 -1.91,0.7 -1.91,1.66 0,0.95 0.71,1.64 1.94,1.64 1.09,0 1.85,-0.63 1.85,-1.64z"/>
   <polygon class="fil3" points="226.55,178.31 228.75,178.31 223.52,193.18 221.33,193.18 "/>
   <path class="fil3" d="M236.91 189.53l0 2.08 -8.35 0 0 -1.66 4.27 -4.03c0.98,-0.93 1.15,-1.5 1.15,-2.03 0,-0.87 -0.6,-1.38 -1.77,-1.38 -0.94,0 -1.75,0.36 -2.29,1.1l-1.86 -1.2c0.85,-1.24 2.4,-2.05 4.39,-2.05 2.47,0.01 4.11,1.27 4.11,3.28 0,1.07 -0.31,2.05 -1.85,3.49l-2.55 2.39 4.75 0.01z"/>
   <polygon class="fil3" points="247.93,189.3 246.13,189.3 246.13,191.62 243.63,191.62 243.63,189.3 237.68,189.29 237.68,187.57 242.9,180.56 245.59,180.57 240.75,187.21 243.71,187.21 243.72,185.14 246.13,185.15 246.13,187.21 247.93,187.22 "/>
   <path class="fil2" d="M201.7 93.6c-1.95,-8.08 -9.89,-13.16 -18.18,-12.63 -2.59,0.16 -5.13,0.74 -7.37,1.74 -5.76,2.55 -9.77,9.36 -7.87,15.36 1.56,4.91 6.33,8.04 11.04,10.1 4.93,2.16 10.73,3.57 15.61,1.29 4.7,-2.21 7.43,-7.62 7.2,-12.8 -0.04,-1.04 -0.19,-2.06 -0.43,-3.06z"/>
   <path class="fil4" d="M176.61 146.82c-0.12,-0.11 2.02,-2.58 4.8,-5.51 2.77,-2.93 5.12,-5.21 5.24,-5.09 0.13,0.12 -2.02,2.59 -4.79,5.52 -2.78,2.92 -5.12,5.2 -5.25,5.08z"/>
  </g>
  <g id="_2367158806752">
   <g>
    <path class="fil2" d="M603.16 242l-331.84 0.05c-3.5,0 -6.34,-2.83 -6.34,-6.33l-0.03 -205.89c0,-3.5 2.84,-6.33 6.33,-6.33l331.32 -0.03c3.5,0 6.86,3.09 6.86,6.59l0.03 205.61c0,3.5 -2.83,6.33 -6.33,6.33z"/>
    <path class="fil5" d="M603.16 242l-331.84 0.05c-3.5,0 -6.34,-2.83 -6.34,-6.33l-0.03 -205.89c0,-3.5 2.84,-6.33 6.33,-6.33l330.24 -0.06c3.5,0 7.94,4.13 7.94,7.63l0.03 204.6c0,3.5 -2.83,6.33 -6.33,6.33z"/>
    <path class="fil6" d="M600.7 23.44l-326.99 0.06c-5.71,-0.9 -9.75,2.91 -8.76,8.75l0.01 58.5c0,1.17 0.57,2.28 1.55,2.92 20.19,13.24 47.32,15.48 71.46,10.43 29.19,-6.11 55.62,-21.04 82.82,-33.28 27.2,-12.24 57.08,-22.07 86.47,-17.03 27.74,4.75 51.39,22.02 76.47,34.81 6.69,3.41 13.8,6.49 21.11,8.92 2.27,0.76 4.63,-0.92 4.63,-3.32l-0.01 -62c0.39,-6.13 -2.35,-9.02 -8.76,-8.76z"/>
    <path class="fil3" d="M321.69 73.41c0,2.8 -2.22,4.42 -6.47,4.42l-8.36 0 -0.01 -16.17 7.91 -0.01c4.04,0 6.12,1.69 6.12,4.21 0,1.62 -0.83,2.86 -2.15,3.56 1.81,0.57 2.96,1.96 2.96,3.99zm-11.11 -8.94l0 0 0 3.82 3.72 -0.01c1.82,0 2.82,-0.64 2.82,-1.91 0,-1.27 -1,-1.9 -2.82,-1.9l-3.72 0zm7.34 8.55l0 0c0,-1.36 -1.03,-2.01 -2.98,-2.01l-4.36 0 0 4 4.36 0c1.95,0 2.98,-0.6 2.98,-1.99z"/>
    <path class="fil3" d="M335.17 74.36l-7.51 0 -1.43 3.46 -3.84 0.01 7.21 -16.18 3.7 0 7.23 16.17 -3.93 0 -1.43 -3.46zm-1.18 -2.84l0 0 -2.56 -6.2 -2.57 6.2 5.13 0z"/>
    <polygon class="fil3" points="357.03,61.65 357.04,77.82 353.96,77.82 345.9,68 345.9,77.82 342.2,77.82 342.2,61.65 345.3,61.65 353.34,71.47 353.34,61.65 "/>
    <polygon class="fil3" points="366.75,71.46 364.58,73.73 364.58,77.82 360.86,77.82 360.85,61.65 364.57,61.65 364.58,69.2 371.74,61.65 375.89,61.64 369.2,68.85 376.29,77.82 371.92,77.82 "/>
    <polygon class="fil3" points="318.67,140.66 315.7,140.66 315.7,144.56 314.18,144.56 314.18,140.66 305.8,140.66 305.8,139.56 313.67,129.72 315.36,129.72 307.77,139.3 314.22,139.3 314.22,135.87 315.7,135.87 315.7,139.3 318.67,139.3 "/>
    <path class="fil3" d="M329.57 140.3c0,2.48 -1.8,4.39 -5.38,4.39 -2.15,0 -4.2,-0.74 -5.35,-1.91l0.74 -1.21c0.96,1 2.68,1.72 4.61,1.72 2.46,0 3.81,-1.15 3.81,-2.99 0,-1.78 -1.25,-2.95 -4.01,-2.95l-1.06 0 0 -1.12 4.12 -5.16 -7.6 0 0 -1.35 9.55 0 0 1.08 -4.2 5.28c3.18,0.17 4.77,1.84 4.77,4.22z"/>
    <path class="fil3" d="M341.58 140.19c0,2.52 -1.77,4.5 -5.39,4.5 -2.14,0 -4.18,-0.75 -5.32,-1.91l0.74 -1.21c0.95,1 2.65,1.72 4.56,1.72 2.52,0 3.86,-1.23 3.86,-3.04 0,-1.91 -1.19,-3.09 -4.97,-3.09l-3.16 0 0.77 -7.44 8.12 -0.01 0 1.36 -6.79 0 -0.51 4.73 1.91 0c4.48,0 6.18,1.76 6.18,4.39z"/>
    <path class="fil3" d="M354.66 140.12c0,2.78 -2.19,4.56 -5.07,4.56 -3.94,0.01 -6.09,-2.73 -6.09,-7.42 0,-5.04 2.76,-7.67 6.79,-7.68 1.33,0 2.58,0.24 3.52,0.81l-0.62 1.23c-0.76,-0.51 -1.78,-0.7 -2.88,-0.7 -3.2,0 -5.26,2.06 -5.26,6.09 0,0.34 0.02,0.76 0.06,1.21 0.75,-1.64 2.48,-2.55 4.54,-2.55 2.95,0 5.01,1.74 5.01,4.45zm-1.51 0.05l0 0c0,-1.95 -1.44,-3.21 -3.73,-3.21 -2.27,0.01 -3.82,1.41 -3.82,3.25 0,1.63 1.36,3.18 3.92,3.18 2.15,0 3.63,-1.25 3.63,-3.22z"/>
    <polygon class="fil3" points="386.74,144.55 383.2,139.89 379.63,144.55 377.94,144.55 382.35,138.83 378.15,133.4 379.84,133.4 383.2,137.77 386.55,133.4 388.2,133.4 384,138.83 388.46,144.55 "/>
    <polygon class="fil3" points="398.06,144.55 394.52,139.88 390.96,144.55 389.26,144.55 393.67,138.82 389.47,133.4 391.17,133.4 394.52,137.76 397.87,133.4 399.52,133.4 395.33,138.82 399.78,144.55 "/>
    <polygon class="fil3" points="409.38,144.55 405.84,139.88 402.28,144.55 400.58,144.55 404.99,138.82 400.79,133.39 402.49,133.39 405.84,137.76 409.19,133.39 410.85,133.39 406.65,138.82 411.1,144.55 "/>
    <polygon class="fil3" points="420.71,144.55 417.17,139.88 413.61,144.55 411.91,144.55 416.32,138.82 412.12,133.39 413.82,133.39 417.17,137.76 420.52,133.39 422.17,133.39 417.97,138.82 422.43,144.55 "/>
    <polygon class="fil3" points="459.81,144.54 456.27,139.88 452.71,144.54 451.01,144.54 455.42,138.82 451.22,133.39 452.92,133.39 456.27,137.75 459.62,133.39 461.27,133.39 457.07,138.82 461.53,144.54 "/>
    <polygon class="fil3" points="471.13,144.54 467.59,139.87 464.03,144.54 462.33,144.54 466.74,138.81 462.54,133.39 464.24,133.38 467.59,137.75 470.94,133.38 472.59,133.38 468.39,138.81 472.85,144.54 "/>
    <polygon class="fil3" points="482.46,144.54 478.91,139.87 475.35,144.54 473.65,144.54 478.07,138.81 473.86,133.38 475.56,133.38 478.91,137.75 482.26,133.38 483.92,133.38 479.72,138.81 484.17,144.54 "/>
    <polygon class="fil3" points="493.78,144.53 490.24,139.87 486.67,144.54 484.98,144.54 489.39,138.81 485.19,133.38 486.88,133.38 490.24,137.75 493.58,133.38 495.24,133.38 491.04,138.81 495.5,144.53 "/>
    <polygon class="fil3" points="528.89,129.68 528.89,144.53 527.37,144.53 527.36,131.04 523.86,131.04 523.86,129.69 "/>
    <path class="fil3" d="M542.25 140.27c0,2.48 -1.8,4.38 -5.39,4.39 -2.14,0 -4.2,-0.75 -5.34,-1.91l0.74 -1.21c0.96,1 2.67,1.72 4.6,1.72 2.46,-0.01 3.82,-1.15 3.82,-3 0,-1.78 -1.25,-2.94 -4.01,-2.94l-1.06 0 0 -1.13 4.11 -5.15 -7.59 0 0 -1.36 9.54 0 0 1.08 -4.19 5.29c3.18,0.17 4.77,1.84 4.77,4.22z"/>
    <polygon class="fil3" points="557.01,140.62 554.04,140.62 554.04,144.53 552.51,144.53 552.51,140.62 544.14,140.62 544.14,139.52 552,129.68 553.7,129.68 546.11,139.27 552.56,139.27 552.55,135.83 554.04,135.83 554.04,139.27 557.01,139.27 "/>
    <path class="fil3" d="M568.46 143.17l0 1.35 -10.41 0 0 -1.08 6.17 -6.04c1.67,-1.66 1.99,-2.65 1.99,-3.67 0,-1.72 -1.21,-2.78 -3.48,-2.78 -1.74,0 -3.07,0.53 -4.05,1.66l-1.08 -0.94c1.14,-1.35 2.99,-2.12 5.26,-2.12 3.01,0 4.92,1.53 4.92,4.01 0,1.42 -0.45,2.69 -2.44,4.64l-5.05 4.97 8.17 0z"/>
    <path class="fil3" d="M298.17 175.38c0,-2.14 1.64,-3.67 3.85,-3.67 1.22,0 2.24,0.45 2.91,1.26l-1.05 0.97c-0.48,-0.55 -1.08,-0.83 -1.78,-0.83 -1.33,0 -2.27,0.93 -2.27,2.27 0,1.33 0.94,2.26 2.27,2.26 0.71,0 1.3,-0.28 1.78,-0.84l1.05 0.97c-0.67,0.82 -1.69,1.27 -2.92,1.27 -2.2,0 -3.84,-1.53 -3.84,-3.66z"/>
    <path class="fil3" d="M310.57 177.4l-3.29 0 -0.63 1.52 -1.67 0 3.15 -7.09 1.62 0 3.17 7.09 -1.72 0 -0.63 -1.52zm-0.52 -1.25l0 0 -1.12 -2.71 -1.12 2.71 2.24 0z"/>
    <path class="fil3" d="M318.18 178.91l-1.37 -1.97 -0.08 0 -1.42 0 0 1.98 -1.64 0 0 -7.09 3.06 0c1.89,0 3.08,0.98 3.08,2.57 0,1.06 -0.54,1.84 -1.46,2.24l1.59 2.27 -1.76 0zm-1.54 -5.74l0 0 -1.33 0 0 2.47 1.33 0c1,0 1.51,-0.47 1.51,-1.24 0,-0.78 -0.51,-1.23 -1.51,-1.23z"/>
    <path class="fil3" d="M320.56 178.22l0.56 -1.24c0.59,0.44 1.48,0.74 2.34,0.74 0.97,0 1.36,-0.32 1.36,-0.76 0,-1.32 -4.12,-0.41 -4.12,-3.04 0,-1.21 0.97,-2.21 2.99,-2.21 0.89,0 1.8,0.21 2.46,0.63l-0.51 1.24c-0.66,-0.37 -1.34,-0.56 -1.96,-0.56 -0.97,0 -1.35,0.37 -1.35,0.81 0,1.31 4.12,0.41 4.12,3.01 0,1.18 -0.98,2.2 -3.01,2.2 -1.12,0 -2.25,-0.34 -2.88,-0.82z"/>
    <polygon class="fil3" points="336.95,171.83 336.95,178.91 335.31,178.91 335.31,176.01 332.09,176.01 332.09,178.91 330.45,178.91 330.45,171.83 332.09,171.83 332.09,174.62 335.31,174.62 335.31,171.83 "/>
    <path class="fil3" d="M338.2 175.37c0,-2.1 1.63,-3.66 3.87,-3.66 2.22,0 3.88,1.54 3.88,3.66 0,2.11 -1.65,3.66 -3.88,3.66 -2.24,0 -3.87,-1.55 -3.87,-3.66zm6.09 0l0 0c0,-1.35 -0.95,-2.27 -2.22,-2.27 -1.26,0 -2.22,0.92 -2.21,2.27 0,1.35 0.95,2.27 2.21,2.27 1.27,0 2.22,-0.93 2.22,-2.27z"/>
    <polygon class="fil3" points="347.2,171.83 348.83,171.83 348.83,177.57 352.39,177.57 352.39,178.91 347.2,178.91 "/>
    <path class="fil3" d="M353.32 171.83l3.21 0c2.32,0 3.91,1.39 3.91,3.54 0,2.14 -1.59,3.54 -3.9,3.54l-3.22 0 0 -7.08zm3.13 5.73l0 0c1.41,0 2.33,-0.84 2.33,-2.19 0,-1.36 -0.92,-2.2 -2.33,-2.2l-1.49 0 0 4.39 1.49 0z"/>
    <polygon class="fil3" points="367.17,177.59 367.17,178.91 361.69,178.91 361.69,171.82 367.04,171.82 367.04,173.14 363.32,173.14 363.32,174.68 366.61,174.68 366.61,175.95 363.32,175.95 363.32,177.59 "/>
    <path class="fil3" d="M373 178.91l-1.37 -1.98 -0.08 0 -1.42 0 0 1.98 -1.64 0 0 -7.09 3.06 0c1.9,0 3.08,0.98 3.08,2.57 0,1.06 -0.54,1.84 -1.46,2.24l1.59 2.28 -1.76 0zm-1.54 -5.75l0 0 -1.33 0 0 2.47 1.33 0c1.01,0 1.51,-0.47 1.51,-1.24 0,-0.78 -0.5,-1.23 -1.51,-1.23z"/>
    <path class="fil3" d="M513.73 198.37c0,-4.5 2.5,-7.06 5.85,-7.06 3.37,0 5.85,2.56 5.85,7.06 0,4.5 -2.47,7.06 -5.84,7.06 -3.36,0 -5.86,-2.56 -5.86,-7.06zm8.52 0l0 0c0,-3.1 -1.09,-4.39 -2.67,-4.39 -1.56,0 -2.65,1.29 -2.65,4.39 0,3.1 1.1,4.39 2.65,4.39 1.58,0 2.67,-1.29 2.67,-4.39z"/>
    <path class="fil3" d="M538.23 200.88c0,2.79 -2.28,4.54 -5.17,4.54 -3.76,0.01 -6.1,-2.35 -6.1,-6.76 0,-4.72 2.85,-7.35 6.96,-7.35 1.44,0 2.84,0.33 3.8,0.94l-1.17 2.32c-0.76,-0.51 -1.64,-0.69 -2.55,-0.69 -2.29,0 -3.75,1.35 -3.84,3.96 0.8,-0.8 1.95,-1.21 3.37,-1.21 2.63,0 4.7,1.68 4.7,4.25zm-3.06 0.16l0 0c0,-1.25 -0.92,-2.05 -2.32,-2.05 -1.39,0 -2.36,0.86 -2.36,2.05 0,1.17 0.88,2.03 2.4,2.03 1.34,0 2.28,-0.78 2.28,-2.03z"/>
    <polygon class="fil3" points="544.59,188.77 547.3,188.77 540.87,207.14 538.16,207.14 "/>
    <path class="fil3" d="M557.39 202.61l0 2.58 -10.31 0 0 -2.05 5.26 -4.97c1.21,-1.15 1.43,-1.85 1.43,-2.51 0,-1.08 -0.75,-1.7 -2.19,-1.7 -1.17,0 -2.16,0.45 -2.83,1.36l-2.3 -1.48c1.06,-1.54 2.97,-2.53 5.42,-2.53 3.05,0 5.07,1.56 5.07,4.03 0,1.33 -0.37,2.54 -2.28,4.31l-3.14 2.96 5.87 0z"/>
    <path class="fil2" d="M513.79 84.24c-2.41,-9.96 -12.22,-16.22 -22.45,-15.56 -3.2,0.21 -6.33,0.92 -9.1,2.16 -7.11,3.16 -12.04,11.56 -9.69,18.98 1.93,6.05 7.82,9.9 13.64,12.45 6.09,2.66 13.25,4.39 19.27,1.56 5.8,-2.73 9.16,-9.41 8.88,-15.81 -0.06,-1.28 -0.25,-2.54 -0.55,-3.78z"/>
    <path class="fil4" d="M482.9 149.98c-0.16,-0.15 2.49,-3.2 5.91,-6.81 3.42,-3.62 6.31,-6.44 6.47,-6.29 0.15,0.15 -2.49,3.2 -5.91,6.81 -3.42,3.62 -6.32,6.44 -6.47,6.29z"/>
    <path class="fil6 str0" d="M534.14 56.98c0,30.18 -24.46,54.64 -54.63,54.64 -30.18,0 -54.64,-24.46 -54.64,-54.64 0,-30.17 24.46,-54.63 54.64,-54.63 30.17,0 54.63,24.46 54.63,54.63z"/>
    <g>
     <g>
      <g>
       <path class="fil3" d="M464.05 55.76c-7.84,0 -14.22,-6.38 -14.22,-14.23 0,-7.84 6.38,-14.23 14.22,-14.23 7.85,0 14.23,6.39 14.23,14.23 0,7.85 -6.38,14.23 -14.23,14.23zm0 -20.71l0 0c-3.57,0 -6.47,2.91 -6.47,6.48 0,3.57 2.9,6.48 6.47,6.48 3.57,0 6.48,-2.91 6.48,-6.48 0,-3.57 -2.91,-6.48 -6.48,-6.48z"/>
      </g>
      <g>
       <path class="fil3" d="M457.35 83.02c-1,0 -1.99,-0.38 -2.75,-1.13 -1.51,-1.52 -1.51,-3.97 0,-5.48l44.33 -44.33c1.51,-1.51 3.97,-1.51 5.48,0 1.51,1.52 1.51,3.97 0,5.48l-44.32 44.33c-0.76,0.75 -1.75,1.13 -2.74,1.13z"/>
      </g>
      <g>
       <path class="fil3" d="M494.96 86.67c-7.85,0 -14.23,-6.39 -14.23,-14.23 0,-7.85 6.38,-14.23 14.23,-14.23 7.84,0 14.23,6.38 14.23,14.23 0,7.84 -6.39,14.23 -14.23,14.23zm0 -20.71l0 0c-3.57,0 -6.48,2.91 -6.48,6.48 0,3.57 2.91,6.47 6.48,6.47 3.57,0 6.48,-2.9 6.48,-6.47 0,-3.57 -2.91,-6.48 -6.48,-6.48z"/>
      </g>
     </g>
    </g>
   </g>
   <path class="fil3" d="M297.45 202.8l1.75 -2.1c0.74,0.99 1.56,1.5 2.53,1.5 1.27,0 1.93,-0.76 1.94,-2.26l0 -6.49 -4.79 0 0 -2.54 7.93 0.01 -0.01 8.85c0,3.37 -1.7,5.03 -4.91,5.02 -1.83,0 -3.45,-0.7 -4.44,-1.99z"/>
   <path class="fil3" d="M308.82 202.81c0,-1.13 0.84,-1.87 1.89,-1.87 1.05,0 1.89,0.74 1.89,1.87 0,1.12 -0.84,1.91 -1.89,1.91 -1.06,0 -1.9,-0.8 -1.89,-1.91z"/>
   <polygon class="fil3" points="334.76,190.95 330.28,204.58 326.89,204.58 323.9,195.34 320.79,204.58 317.42,204.57 312.95,190.93 316.23,190.93 319.3,200.52 322.52,190.94 325.44,190.94 328.55,200.61 331.74,190.94 "/>
   <path class="fil3" d="M336.1 190.95c0,-0.96 0.76,-1.7 1.89,-1.69 1.14,0 1.89,0.7 1.89,1.63 0,1.02 -0.76,1.76 -1.89,1.76 -1.13,0 -1.89,-0.75 -1.89,-1.7zm0.37 3.16l0 0 3.04 0 -0.01 10.48 -3.04 0 0.01 -10.48z"/>
   <polygon class="fil3" points="342.33,190.14 345.37,190.14 345.36,204.6 342.32,204.6 "/>
   <polygon class="fil3" points="348.19,190.14 351.23,190.14 351.22,204.6 348.18,204.6 "/>
   <path class="fil3" d="M353.68 190.97c0,-0.96 0.76,-1.7 1.89,-1.7 1.13,0 1.89,0.71 1.89,1.64 0,1.01 -0.76,1.75 -1.89,1.75 -1.13,0 -1.89,-0.74 -1.89,-1.69zm0.37 3.15l0 0 3.04 0.01 -0.01 10.48 -3.04 0 0.01 -10.49z"/>
   <path class="fil3" d="M369.18 198.64l0 5.98 -2.85 0 0 -1.31c-0.56,0.96 -1.66,1.46 -3.2,1.46 -2.45,0 -3.91,-1.37 -3.91,-3.18 0,-1.85 1.31,-3.14 4.5,-3.13l2.42 0c0,-1.31 -0.78,-2.07 -2.41,-2.07 -1.11,0 -2.27,0.37 -3.03,0.97l-1.08 -2.12c1.15,-0.82 2.84,-1.27 4.52,-1.26 3.19,0 5.04,1.48 5.04,4.66zm-3.04 2.66l0 0 0 -1.07 -2.09 0c-1.42,0 -1.87,0.53 -1.87,1.23 0,0.76 0.64,1.26 1.72,1.27 1.01,0 1.89,-0.47 2.24,-1.43z"/>
   <path class="fil3" d="M389.63 198.64l-0.01 6 -3.04 0 0.01 -5.54c0,-1.69 -0.76,-2.47 -1.99,-2.47 -1.36,-0.01 -2.32,0.87 -2.32,2.74l0 5.26 -3.04 0 0 -5.54c0,-1.69 -0.72,-2.47 -1.98,-2.47 -1.35,0 -2.3,0.87 -2.3,2.74l-0.01 5.27 -3.04 -0.01 0.01 -10.48 2.9 0 0 1.21c0.78,-0.9 1.95,-1.36 3.3,-1.36 1.46,0 2.7,0.57 3.44,1.72 0.84,-1.07 2.21,-1.72 3.79,-1.71 2.49,0 4.28,1.44 4.28,4.64z"/>
   <path class="fil3" d="M391.32 203.67l1.02 -2.19c0.93,0.61 2.35,1.02 3.64,1.02 1.4,0 1.93,-0.37 1.93,-0.95 0,-1.72 -6.33,0.03 -6.33,-4.16 0,-1.99 1.79,-3.39 4.85,-3.38 1.45,0 3.04,0.33 4.04,0.92l-1.02 2.16c-1.03,-0.59 -2.06,-0.78 -3.02,-0.79 -1.36,0 -1.95,0.43 -1.95,0.98 0,1.79 6.34,0.06 6.33,4.19 0,1.95 -1.81,3.33 -4.95,3.33 -1.77,0 -3.57,-0.49 -4.54,-1.13z"/>
  </g>
  <path class="fil7" d="M155.27 220.73c-15.12,0 -27.37,2.54 -27.37,5.67 0,3.13 12.25,5.67 27.37,5.67 15.13,0 27.38,-2.54 27.38,-5.67 0,-3.13 -12.25,-5.67 -27.38,-5.67z"/>
  <g id="_2367154190384">
   <g>
    <path class="fil2 str1" d="M180.72 187.68c6.71,14.05 0.76,30.89 -13.29,37.6 -14.06,6.71 -30.89,0.76 -37.6,-13.3 -6.72,-14.05 -0.76,-30.89 13.29,-37.6 14.06,-6.71 30.89,-0.75 37.6,13.3z"/>
   </g>
  </g>
  <g id="_2367154191056">
   <g>
    <g>
     <path class="fil3" d="M147.26 199.2c-4.07,0 -7.37,-3.31 -7.37,-7.38 0,-4.07 3.3,-7.38 7.37,-7.38 4.07,0 7.38,3.31 7.38,7.38 0,4.07 -3.31,7.38 -7.38,7.38zm0 -10.74l0 0c-1.85,0 -3.35,1.51 -3.35,3.36 0,1.85 1.5,3.36 3.35,3.36 1.85,0 3.36,-1.51 3.36,-3.36 0,-1.85 -1.51,-3.36 -3.36,-3.36z"/>
    </g>
    <g>
     <path class="fil3" d="M143.78 213.33c-0.51,0 -1.02,-0.2 -1.42,-0.59 -0.78,-0.78 -0.78,-2.06 0,-2.84l22.98 -22.98c0.79,-0.78 2.06,-0.78 2.84,0 0.79,0.79 0.79,2.06 0,2.84l-22.97 22.98c-0.4,0.39 -0.91,0.59 -1.43,0.59z"/>
    </g>
    <g>
     <path class="fil3" d="M163.28 215.22c-4.06,0 -7.37,-3.31 -7.37,-7.38 0,-4.06 3.31,-7.37 7.37,-7.37 4.07,0 7.38,3.31 7.38,7.37 0,4.07 -3.31,7.38 -7.38,7.38zm0 -10.74l0 0c-1.85,0 -3.35,1.51 -3.35,3.36 0,1.85 1.5,3.36 3.35,3.36 1.86,0 3.36,-1.51 3.36,-3.36 0,-1.85 -1.5,-3.36 -3.36,-3.36z"/>
    </g>
   </g>
  </g>
 </g>
</svg>
