<?xml version="1.0" encoding="UTF-8"?>
<!DOCTYPE svg PUBLIC "-//W3C//DTD SVG 1.1//EN" "http://www.w3.org/Graphics/SVG/1.1/DTD/svg11.dtd">
<!-- Creator: CorelDRAW 2020 (64-Bit) -->
<svg xmlns="http://www.w3.org/2000/svg" xml:space="preserve" width="376px" height="274px" version="1.1" style="shape-rendering:geometricPrecision; text-rendering:geometricPrecision; image-rendering:optimizeQuality; fill-rule:evenodd; clip-rule:evenodd"
viewBox="0 0 52.22 38.11"
 xmlns:xlink="http://www.w3.org/1999/xlink"
 xmlns:xodm="http://www.corel.com/coreldraw/odm/2003">
 <defs>
  <style type="text/css">
   <![CDATA[
    .str0 {stroke:white;stroke-width:0.15;stroke-miterlimit:22.9256}
    .str1 {stroke:white;stroke-width:0.07;stroke-miterlimit:22.9256}
    .fil9 {fill:none}
    .fil0 {fill:#F4F6FE}
    .fil1 {fill:#4A6CF9;fill-rule:nonzero}
    .fil7 {fill:#5A69F7;fill-rule:nonzero}
    .fil3 {fill:#925EF2;fill-rule:nonzero}
    .fil4 {fill:white;fill-rule:nonzero}
    .fil5 {fill:#263138;fill-rule:nonzero;fill-opacity:0.301961}
    .fil8 {fill:#334BAE;fill-rule:nonzero;fill-opacity:0.501961}
    .fil6 {fill:#334BAE;fill-rule:nonzero}
    .fil2 {fill:#6641A9;fill-rule:nonzero}
   ]]>
  </style>
   <clipPath id="id0">
    <path d="M0 0l52.22 0 0 38.11 -52.22 0 0 -38.11z"/>
   </clipPath>
 </defs>
 <g id="Слой_x0020_1">
  <metadata id="CorelCorpID_0Corel-Layer"/>
  <polygon class="fil0" points="0,0 52.22,0 52.22,38.11 0,38.11 "/>
  <g style="clip-path:url(#id0)">
   <g id="_2656967375184">
    <g>
     <path id="1" class="fil1" d="M52.89 20.5l-15.44 -0.01c-0.16,0 -0.29,-0.13 -0.29,-0.29l0.01 -9.46c0,-0.16 0.13,-0.29 0.29,-0.29l15.44 0.01c0.16,0 0.29,0.13 0.29,0.29l-0.01 9.46c0,0.16 -0.13,0.3 -0.29,0.29z"/>
     <path class="fil2" d="M52.89 20.5l-15.44 -0.01c-0.16,0 -0.29,-0.13 -0.29,-0.29l0.01 -9.46c0,-0.16 0.13,-0.29 0.29,-0.29l15.43 0.01c0.16,0 0.3,0.13 0.3,0.29l-0.01 9.46c0,0.16 -0.13,0.3 -0.29,0.29z"/>
     <path class="fil3" d="M52.61 10.46l-15.04 -0.01c-0.34,-0.03 -0.43,0.14 -0.4,0.4l-0.01 2.69c0,0.05 0.03,0.1 0.07,0.13 0.94,0.61 2.21,0.72 3.33,0.48 1.36,-0.27 2.59,-0.96 3.85,-1.52 1.27,-0.56 2.66,-1.01 4.03,-0.78 1.29,0.22 2.39,1.02 3.55,1.6 0.31,0.16 0.65,0.3 0.98,0.42 0.11,0.03 0.22,-0.05 0.22,-0.16l0 -2.79c0,-0.12 0.03,-0.22 -0.04,-0.33 -0.12,-0.17 -0.36,-0.13 -0.54,-0.13z"/>
     <path class="fil4" d="M39.8 12.74c0,0.13 -0.1,0.21 -0.3,0.21l-0.39 0 0 -0.75 0.37 0c0.19,0 0.29,0.08 0.29,0.2 0,0.07 -0.04,0.13 -0.1,0.16 0.08,0.03 0.13,0.09 0.13,0.18zm-0.51 -0.41l0 0 0 0.18 0.17 0c0.08,0 0.13,-0.03 0.13,-0.09 0,-0.06 -0.05,-0.09 -0.13,-0.09l-0.17 0zm0.34 0.4l0 0c0,-0.07 -0.05,-0.1 -0.14,-0.1l-0.2 0 0 0.19 0.2 0c0.09,0 0.14,-0.03 0.14,-0.09z"/>
     <path class="fil4" d="M40.43 12.79l-0.35 0 -0.07 0.16 -0.17 0 0.33 -0.75 0.17 0 0.34 0.75 -0.18 0 -0.07 -0.16zm-0.05 -0.13l0 0 -0.12 -0.29 -0.12 0.29 0.24 0z"/>
     <polygon class="fil4" points="41.45,12.2 41.45,12.95 41.3,12.95 40.93,12.5 40.93,12.95 40.76,12.95 40.76,12.2 40.9,12.2 41.28,12.66 41.28,12.2 "/>
     <polygon class="fil4" points="41.9,12.66 41.8,12.76 41.8,12.95 41.62,12.95 41.63,12.2 41.8,12.2 41.8,12.55 42.13,12.21 42.33,12.21 42.01,12.54 42.34,12.95 42.14,12.95 "/>
     <polygon class="fil4" points="39.66,15.83 39.52,15.83 39.52,16.01 39.45,16.01 39.45,15.83 39.06,15.83 39.06,15.78 39.43,15.33 39.51,15.33 39.15,15.77 39.45,15.77 39.45,15.61 39.52,15.61 39.52,15.77 39.66,15.77 "/>
     <path class="fil4" d="M40.17 15.82c0,0.11 -0.09,0.2 -0.25,0.2 -0.1,0 -0.2,-0.04 -0.25,-0.09l0.03 -0.05c0.05,0.04 0.13,0.07 0.22,0.07 0.11,0 0.17,-0.05 0.17,-0.13 0,-0.08 -0.05,-0.14 -0.18,-0.14l-0.05 0 0 -0.05 0.19 -0.24 -0.35 0 0 -0.06 0.44 0 0 0.05 -0.2 0.24c0.15,0.01 0.23,0.09 0.23,0.2z"/>
     <path class="fil4" d="M40.72 15.81c0,0.12 -0.08,0.21 -0.25,0.21 -0.1,0 -0.19,-0.03 -0.24,-0.09l0.03 -0.05c0.05,0.04 0.12,0.08 0.21,0.08 0.12,0 0.18,-0.06 0.18,-0.14 0,-0.09 -0.05,-0.15 -0.23,-0.15l-0.15 0 0.04 -0.34 0.38 0 0 0.06 -0.32 0 -0.02 0.22 0.09 0c0.21,0 0.28,0.08 0.28,0.2z"/>
     <path class="fil4" d="M41.33 15.81c0,0.13 -0.1,0.21 -0.23,0.21 -0.19,0 -0.29,-0.13 -0.29,-0.34 0,-0.23 0.13,-0.35 0.32,-0.35 0.06,0 0.12,0.01 0.16,0.03l-0.02 0.06c-0.04,-0.02 -0.09,-0.03 -0.14,-0.03 -0.15,0 -0.24,0.09 -0.24,0.28 0,0.01 0,0.03 0,0.05 0.03,-0.07 0.11,-0.11 0.21,-0.11 0.14,0 0.23,0.08 0.23,0.2zm-0.07 0l0 0c0,-0.09 -0.06,-0.14 -0.17,-0.14 -0.11,0 -0.18,0.06 -0.18,0.14 0,0.08 0.07,0.15 0.18,0.15 0.1,0 0.17,-0.06 0.17,-0.15z"/>
     <polygon class="fil4" points="42.83,16.02 42.66,15.8 42.5,16.02 42.42,16.02 42.62,15.75 42.43,15.5 42.51,15.5 42.66,15.7 42.82,15.5 42.89,15.5 42.7,15.75 42.91,16.02 "/>
     <polygon class="fil4" points="43.35,16.02 43.19,15.8 43.02,16.02 42.94,16.02 43.15,15.75 42.95,15.5 43.03,15.5 43.19,15.7 43.34,15.5 43.42,15.5 43.23,15.75 43.43,16.02 "/>
     <polygon class="fil4" points="43.88,16.02 43.71,15.8 43.55,16.02 43.47,16.02 43.68,15.75 43.48,15.5 43.56,15.5 43.71,15.7 43.87,15.5 43.95,15.5 43.75,15.75 43.96,16.02 "/>
     <polygon class="fil4" points="44.41,16.02 44.24,15.8 44.08,16.02 44,16.02 44.2,15.75 44.01,15.5 44.09,15.5 44.24,15.71 44.4,15.5 44.47,15.5 44.28,15.75 44.49,16.02 "/>
     <polygon class="fil4" points="46.23,16.02 46.06,15.8 45.89,16.02 45.82,16.02 46.02,15.76 45.83,15.51 45.91,15.51 46.06,15.71 46.22,15.51 46.29,15.51 46.1,15.76 46.31,16.02 "/>
     <polygon class="fil4" points="46.75,16.02 46.59,15.8 46.42,16.02 46.34,16.02 46.55,15.76 46.35,15.51 46.43,15.51 46.59,15.71 46.74,15.51 46.82,15.51 46.62,15.76 46.83,16.02 "/>
     <polygon class="fil4" points="47.28,16.02 47.11,15.81 46.95,16.02 46.87,16.02 47.07,15.76 46.88,15.51 46.96,15.51 47.11,15.71 47.27,15.51 47.35,15.51 47.15,15.76 47.36,16.02 "/>
     <polygon class="fil4" points="47.81,16.02 47.64,15.81 47.48,16.02 47.4,16.02 47.6,15.76 47.41,15.51 47.49,15.51 47.64,15.71 47.8,15.51 47.87,15.51 47.68,15.76 47.89,16.02 "/>
     <polygon class="fil4" points="49.44,15.34 49.44,16.02 49.37,16.02 49.37,15.4 49.21,15.4 49.21,15.34 "/>
     <path class="fil4" d="M50.06 15.83c0,0.11 -0.08,0.2 -0.25,0.2 -0.1,0 -0.2,-0.04 -0.25,-0.09l0.04 -0.06c0.04,0.05 0.12,0.08 0.21,0.08 0.11,0 0.18,-0.05 0.18,-0.13 0,-0.09 -0.06,-0.14 -0.19,-0.14l-0.05 0 0 -0.05 0.19 -0.24 -0.35 0 0 -0.06 0.44 0 0 0.05 -0.19 0.24c0.15,0.01 0.22,0.09 0.22,0.2z"/>
     <polygon class="fil4" points="50.75,15.84 50.61,15.84 50.61,16.02 50.54,16.02 50.54,15.84 50.15,15.84 50.15,15.79 50.52,15.34 50.59,15.34 50.24,15.78 50.54,15.78 50.54,15.62 50.61,15.62 50.61,15.78 50.75,15.78 "/>
     <path class="fil4" d="M51.28 15.96l0 0.06 -0.48 0 0 -0.05 0.28 -0.27c0.08,-0.08 0.1,-0.13 0.1,-0.17 0,-0.08 -0.06,-0.13 -0.17,-0.13 -0.08,0 -0.14,0.02 -0.18,0.08l-0.05 -0.05c0.05,-0.06 0.13,-0.09 0.24,-0.09 0.14,0 0.23,0.07 0.23,0.18 0,0.06 -0.02,0.12 -0.11,0.21l-0.24 0.23 0.38 0z"/>
     <path class="fil4" d="M38.7 17.43c0,-0.1 0.08,-0.17 0.18,-0.17 0.06,0 0.11,0.02 0.14,0.06l-0.05 0.04c-0.02,-0.02 -0.05,-0.04 -0.08,-0.04 -0.07,0 -0.11,0.05 -0.11,0.11 0,0.06 0.04,0.1 0.11,0.1 0.03,0 0.06,-0.01 0.08,-0.04l0.05 0.05c-0.03,0.04 -0.08,0.06 -0.14,0.06 -0.1,0 -0.18,-0.07 -0.18,-0.17z"/>
     <path class="fil4" d="M39.28 17.52l-0.15 0 -0.03 0.07 -0.08 0 0.15 -0.32 0.07 0 0.15 0.32 -0.08 0 -0.03 -0.07zm-0.02 -0.06l0 0 -0.06 -0.12 -0.05 0.12 0.11 0z"/>
     <path class="fil4" d="M39.63 17.59l-0.06 -0.09 0 0 -0.07 0 0 0.09 -0.08 0 0 -0.32 0.15 0c0.09,0 0.14,0.04 0.14,0.11 0,0.05 -0.02,0.09 -0.07,0.11l0.08 0.1 -0.09 0zm-0.07 -0.26l0 0 -0.06 0 0 0.11 0.06 0c0.05,0 0.07,-0.02 0.07,-0.06 0,-0.03 -0.02,-0.05 -0.07,-0.05z"/>
     <path class="fil4" d="M39.75 17.56l0.02 -0.06c0.03,0.02 0.07,0.04 0.11,0.04 0.05,0 0.06,-0.02 0.06,-0.04 0,-0.06 -0.19,-0.02 -0.19,-0.14 0,-0.05 0.05,-0.1 0.14,-0.1 0.04,0 0.08,0.01 0.12,0.03l-0.03 0.06c-0.03,-0.02 -0.06,-0.03 -0.09,-0.03 -0.04,0 -0.06,0.02 -0.06,0.04 0,0.06 0.19,0.02 0.19,0.14 0,0.05 -0.05,0.1 -0.14,0.1 -0.05,0 -0.11,-0.02 -0.13,-0.04z"/>
     <polygon class="fil4" points="40.51,17.27 40.51,17.59 40.43,17.59 40.43,17.46 40.28,17.46 40.28,17.59 40.21,17.59 40.21,17.27 40.28,17.27 40.28,17.4 40.43,17.4 40.43,17.27 "/>
     <path class="fil4" d="M40.57 17.43c0,-0.1 0.07,-0.17 0.18,-0.17 0.1,0 0.18,0.07 0.18,0.17 0,0.1 -0.08,0.17 -0.18,0.17 -0.11,0 -0.18,-0.07 -0.18,-0.17zm0.28 0l0 0c0,-0.06 -0.05,-0.1 -0.1,-0.1 -0.06,0 -0.11,0.04 -0.11,0.1 0,0.06 0.05,0.1 0.11,0.1 0.05,0 0.1,-0.04 0.1,-0.1z"/>
     <polygon class="fil4" points="40.98,17.27 41.06,17.27 41.06,17.53 41.23,17.53 41.23,17.59 40.98,17.59 "/>
     <path class="fil4" d="M41.27 17.27l0.15 0c0.11,0 0.18,0.06 0.18,0.16 0,0.1 -0.07,0.16 -0.18,0.16l-0.15 0 0 -0.32zm0.15 0.26l0 0c0.06,0 0.1,-0.04 0.1,-0.1 0,-0.06 -0.04,-0.1 -0.1,-0.1l-0.07 0 0 0.2 0.07 0z"/>
     <polygon class="fil4" points="41.91,17.53 41.91,17.59 41.66,17.59 41.66,17.27 41.91,17.27 41.91,17.33 41.73,17.33 41.73,17.4 41.89,17.4 41.89,17.46 41.73,17.46 41.73,17.53 "/>
     <path class="fil4" d="M42.18 17.59l-0.06 -0.09 0 0 -0.07 0 0 0.09 -0.07 0 0 -0.32 0.14 0c0.09,0 0.14,0.04 0.14,0.12 0,0.05 -0.02,0.08 -0.07,0.1l0.08 0.1 -0.09 0zm-0.07 -0.26l0 0 -0.06 0 0 0.11 0.06 0c0.05,0 0.07,-0.02 0.07,-0.05 0,-0.04 -0.02,-0.06 -0.07,-0.06z"/>
     <path class="fil4" d="M38.67 18.7l0.08 -0.1c0.04,0.05 0.07,0.07 0.12,0.07 0.06,0 0.09,-0.03 0.09,-0.1l0 -0.3 -0.22 0 0 -0.12 0.37 0 0 0.41c-0.01,0.16 -0.08,0.23 -0.23,0.23 -0.09,0 -0.16,-0.03 -0.21,-0.09z"/>
     <path class="fil4" d="M39.2 18.7c0,-0.05 0.04,-0.09 0.09,-0.09 0.05,0 0.08,0.04 0.08,0.09 0,0.05 -0.03,0.09 -0.08,0.09 -0.05,0 -0.09,-0.04 -0.09,-0.09z"/>
     <polygon class="fil4" points="40.41,18.16 40.2,18.78 40.04,18.78 39.9,18.36 39.76,18.78 39.6,18.78 39.39,18.15 39.54,18.15 39.69,18.6 39.84,18.15 39.97,18.15 40.12,18.6 40.27,18.16 "/>
     <path class="fil4" d="M40.47 18.16c0,-0.05 0.03,-0.08 0.09,-0.08 0.05,0 0.08,0.03 0.08,0.07 0,0.05 -0.03,0.08 -0.08,0.08 -0.06,0 -0.09,-0.03 -0.09,-0.07zm0.02 0.14l0 0 0.14 0 0 0.48 -0.14 0 0 -0.48z"/>
     <polygon class="fil4" points="40.76,18.12 40.9,18.12 40.9,18.78 40.76,18.78 "/>
     <polygon class="fil4" points="41.03,18.12 41.17,18.12 41.17,18.78 41.03,18.78 "/>
     <path class="fil4" d="M41.29 18.16c0,-0.05 0.03,-0.08 0.09,-0.08 0.05,0 0.08,0.03 0.08,0.07 0,0.05 -0.03,0.08 -0.08,0.08 -0.06,0 -0.09,-0.03 -0.09,-0.07zm0.01 0.14l0 0 0.15 0 0 0.48 -0.15 0 0 -0.48z"/>
     <path class="fil4" d="M42.01 18.51l0 0.27 -0.13 0 0 -0.06c-0.03,0.05 -0.08,0.07 -0.15,0.07 -0.12,0 -0.19,-0.06 -0.19,-0.15 0,-0.08 0.07,-0.14 0.21,-0.14l0.12 0c0,-0.06 -0.04,-0.09 -0.12,-0.09 -0.05,0 -0.1,0.01 -0.14,0.04l-0.05 -0.1c0.06,-0.03 0.14,-0.06 0.21,-0.06 0.15,0 0.24,0.07 0.24,0.22zm-0.14 0.12l0 0 0 -0.05 -0.1 0c-0.07,0 -0.09,0.03 -0.09,0.06 0,0.03 0.03,0.06 0.08,0.06 0.05,0 0.09,-0.02 0.11,-0.07z"/>
     <path class="fil4" d="M42.96 18.51l0 0.27 -0.14 0 0 -0.25c0,-0.08 -0.04,-0.11 -0.09,-0.11 -0.07,0 -0.11,0.04 -0.11,0.12l0 0.24 -0.14 0 0 -0.25c0,-0.08 -0.04,-0.11 -0.1,-0.11 -0.06,0 -0.1,0.04 -0.1,0.12l0 0.24 -0.14 0 0 -0.48 0.13 0 0 0.06c0.04,-0.04 0.09,-0.06 0.15,-0.06 0.07,0 0.13,0.02 0.16,0.07 0.04,-0.05 0.11,-0.07 0.18,-0.07 0.12,0 0.2,0.06 0.2,0.21z"/>
     <path class="fil4" d="M43.04 18.74l0.05 -0.1c0.04,0.03 0.11,0.05 0.17,0.05 0.06,0 0.09,-0.02 0.09,-0.05 0,-0.08 -0.3,0 -0.3,-0.19 0,-0.09 0.08,-0.15 0.23,-0.15 0.06,0 0.14,0.01 0.18,0.04l-0.04 0.1c-0.05,-0.03 -0.1,-0.04 -0.14,-0.04 -0.07,0 -0.09,0.02 -0.09,0.05 0,0.08 0.29,0 0.29,0.19 0,0.09 -0.08,0.15 -0.23,0.15 -0.08,0 -0.17,-0.02 -0.21,-0.05z"/>
     <path class="fil4" d="M48.73 18.5c0,-0.21 0.12,-0.33 0.27,-0.33 0.16,0 0.28,0.12 0.28,0.33 0,0.2 -0.12,0.32 -0.28,0.32 -0.15,0 -0.27,-0.12 -0.27,-0.32zm0.4 0l0 0c0,-0.15 -0.05,-0.21 -0.13,-0.21 -0.07,0 -0.12,0.06 -0.12,0.21 0,0.14 0.05,0.2 0.12,0.2 0.08,0 0.13,-0.06 0.13,-0.2z"/>
     <path class="fil4" d="M49.87 18.61c0,0.13 -0.11,0.21 -0.24,0.21 -0.17,0 -0.28,-0.11 -0.28,-0.31 0,-0.22 0.13,-0.34 0.32,-0.34 0.07,0 0.13,0.02 0.18,0.05l-0.06 0.1c-0.03,-0.02 -0.07,-0.03 -0.12,-0.03 -0.1,0 -0.17,0.06 -0.17,0.18 0.03,-0.03 0.09,-0.05 0.15,-0.05 0.12,0 0.22,0.07 0.22,0.19zm-0.14 0.01l0 0c0,-0.06 -0.04,-0.09 -0.11,-0.1 -0.06,0 -0.11,0.04 -0.11,0.1 0,0.05 0.04,0.09 0.11,0.09 0.06,0 0.11,-0.03 0.11,-0.09z"/>
     <polygon class="fil4" points="50.17,18.06 50.29,18.06 49.99,18.9 49.87,18.9 "/>
     <path class="fil4" d="M50.76 18.69l0 0.12 -0.48 0 0 -0.09 0.25 -0.23c0.05,-0.05 0.06,-0.09 0.06,-0.12 0,-0.05 -0.03,-0.08 -0.1,-0.08 -0.05,0 -0.1,0.03 -0.13,0.07l-0.11 -0.07c0.05,-0.07 0.14,-0.12 0.26,-0.12 0.14,0 0.23,0.07 0.23,0.19 0,0.06 -0.02,0.11 -0.1,0.2l-0.15 0.13 0.27 0z"/>
     <polygon class="fil4" points="51.39,18.68 51.29,18.68 51.29,18.81 51.15,18.81 51.15,18.68 50.81,18.68 50.81,18.58 51.11,18.18 51.26,18.18 50.98,18.56 51.15,18.56 51.15,18.44 51.29,18.44 51.29,18.56 51.39,18.56 "/>
     <path class="fil3" d="M48.74 13.25c-0.11,-0.46 -0.57,-0.75 -1.04,-0.72 -0.15,0.01 -0.3,0.05 -0.43,0.1 -0.33,0.15 -0.56,0.53 -0.45,0.87 0.09,0.28 0.36,0.46 0.63,0.58 0.29,0.12 0.62,0.2 0.9,0.07 0.27,-0.12 0.43,-0.43 0.41,-0.73 0,-0.05 -0.01,-0.11 -0.02,-0.17z"/>
     <path class="fil5" d="M47.3 16.27c-0.01,-0.01 0.12,-0.15 0.27,-0.31 0.16,-0.17 0.3,-0.3 0.31,-0.29 0,0.01 -0.12,0.15 -0.28,0.31 -0.16,0.17 -0.29,0.3 -0.3,0.29z"/>
    </g>
    <g>
     <g>
      <path class="fil3" d="M65.25 21.67l-19.06 0c-0.2,0 -0.36,-0.16 -0.36,-0.36l-0.01 -11.68c0,-0.19 0.17,-0.36 0.37,-0.36l19.02 0c0.21,0 0.4,0.18 0.4,0.38l0 11.66c0,0.2 -0.16,0.36 -0.36,0.36z"/>
      <path class="fil6" d="M65.25 21.67l-19.06 0c-0.2,0 -0.36,-0.16 -0.36,-0.36l-0.01 -11.68c0,-0.19 0.17,-0.36 0.37,-0.36l18.96 0c0.2,0 0.46,0.24 0.46,0.43l0 11.61c0,0.2 -0.16,0.36 -0.36,0.36z"/>
      <path class="fil7" d="M65.11 9.27l-18.78 0c-0.33,-0.05 -0.56,0.17 -0.51,0.5l0 3.32c0,0.07 0.04,0.13 0.09,0.16 1.16,0.76 2.72,0.88 4.11,0.6 1.67,-0.35 3.19,-1.2 4.75,-1.89 1.57,-0.7 3.28,-1.25 4.97,-0.97 1.59,0.27 2.95,1.25 4.39,1.98 0.38,0.19 0.79,0.37 1.21,0.5 0.13,0.05 0.27,-0.05 0.27,-0.19l0 -3.51c0.02,-0.35 -0.14,-0.51 -0.5,-0.5z"/>
      <path class="fil4" d="M49.08 12.11c0,0.15 -0.13,0.25 -0.37,0.25l-0.48 0 0 -0.92 0.45 0c0.24,0 0.36,0.09 0.36,0.24 0,0.09 -0.05,0.16 -0.13,0.2 0.11,0.03 0.17,0.11 0.17,0.23zm-0.64 -0.51l0 0 0 0.21 0.22 0c0.1,0 0.16,-0.03 0.16,-0.1 0,-0.08 -0.06,-0.11 -0.16,-0.11l-0.22 0zm0.43 0.48l0 0c0,-0.07 -0.06,-0.11 -0.18,-0.11l-0.25 0 0 0.23 0.25 0c0.12,0 0.18,-0.04 0.18,-0.12z"/>
      <path class="fil4" d="M49.86 12.16l-0.44 0 -0.08 0.2 -0.22 0 0.42 -0.92 0.21 0 0.41 0.92 -0.22 0 -0.08 -0.2zm-0.07 -0.16l0 0 -0.15 -0.35 -0.15 0.35 0.3 0z"/>
      <polygon class="fil4" points="51.11,11.44 51.11,12.36 50.94,12.36 50.47,11.8 50.47,12.36 50.26,12.36 50.26,11.44 50.44,11.44 50.9,12 50.9,11.44 "/>
      <polygon class="fil4" points="51.67,12 51.54,12.12 51.54,12.36 51.33,12.36 51.33,11.44 51.54,11.44 51.54,11.87 51.96,11.44 52.19,11.44 51.81,11.85 52.22,12.36 51.97,12.36 "/>
      <polygon class="fil4" points="48.91,15.92 48.74,15.92 48.74,16.14 48.65,16.14 48.65,15.92 48.17,15.92 48.17,15.86 48.62,15.3 48.72,15.3 48.28,15.84 48.65,15.84 48.65,15.65 48.74,15.65 48.74,15.84 48.91,15.84 "/>
      <path class="fil4" d="M49.53 15.9c0,0.14 -0.1,0.25 -0.3,0.25 -0.13,0 -0.25,-0.04 -0.31,-0.11l0.04 -0.07c0.06,0.06 0.15,0.1 0.27,0.1 0.14,0 0.21,-0.07 0.21,-0.17 0,-0.1 -0.07,-0.17 -0.23,-0.17l-0.06 0 0 -0.06 0.24 -0.29 -0.44 0 0 -0.08 0.55 0 0 0.06 -0.24 0.3c0.18,0.01 0.27,0.11 0.27,0.24z"/>
      <path class="fil4" d="M50.22 15.89c0,0.15 -0.1,0.26 -0.31,0.26 -0.12,0 -0.24,-0.04 -0.3,-0.11l0.04 -0.07c0.06,0.06 0.15,0.1 0.26,0.1 0.15,0 0.22,-0.07 0.22,-0.17 0,-0.11 -0.06,-0.18 -0.28,-0.18l-0.18 0 0.04 -0.42 0.47 0 0 0.08 -0.39 0 -0.03 0.26 0.11 0c0.26,0 0.35,0.1 0.35,0.25z"/>
      <path class="fil4" d="M50.98 15.89c0,0.16 -0.13,0.26 -0.3,0.26 -0.22,0 -0.35,-0.16 -0.35,-0.42 0,-0.29 0.16,-0.44 0.39,-0.44 0.08,0 0.15,0.02 0.21,0.05l-0.04 0.07c-0.04,-0.03 -0.1,-0.04 -0.16,-0.04 -0.19,0 -0.31,0.11 -0.31,0.34 0,0.02 0,0.05 0.01,0.07 0.04,-0.09 0.14,-0.14 0.26,-0.14 0.17,0 0.29,0.1 0.29,0.25zm-0.09 0l0 0c0,-0.11 -0.08,-0.18 -0.22,-0.18 -0.13,0 -0.21,0.08 -0.21,0.18 0,0.1 0.07,0.19 0.22,0.19 0.12,0 0.21,-0.08 0.21,-0.19z"/>
      <polygon class="fil4" points="52.82,16.14 52.61,15.88 52.41,16.14 52.31,16.14 52.57,15.82 52.32,15.51 52.42,15.51 52.61,15.76 52.81,15.51 52.9,15.51 52.66,15.82 52.92,16.14 "/>
      <polygon class="fil4" points="53.47,16.14 53.26,15.88 53.06,16.14 52.96,16.14 53.22,15.82 52.97,15.51 53.07,15.51 53.26,15.76 53.46,15.51 53.55,15.51 53.31,15.82 53.57,16.14 "/>
      <polygon class="fil4" points="54.12,16.14 53.91,15.88 53.71,16.14 53.61,16.14 53.87,15.82 53.62,15.51 53.72,15.51 53.91,15.76 54.11,15.51 54.2,15.51 53.96,15.82 54.22,16.14 "/>
      <polygon class="fil4" points="54.77,16.14 54.57,15.88 54.36,16.14 54.26,16.14 54.52,15.82 54.28,15.51 54.37,15.51 54.57,15.76 54.76,15.51 54.85,15.51 54.61,15.82 54.87,16.14 "/>
      <polygon class="fil4" points="57.01,16.14 56.81,15.88 56.61,16.14 56.51,16.14 56.76,15.82 56.52,15.51 56.62,15.51 56.81,15.76 57,15.51 57.1,15.51 56.86,15.82 57.11,16.14 "/>
      <polygon class="fil4" points="57.66,16.14 57.46,15.88 57.26,16.14 57.16,16.14 57.41,15.82 57.17,15.51 57.27,15.51 57.46,15.76 57.65,15.51 57.75,15.51 57.51,15.82 57.76,16.14 "/>
      <polygon class="fil4" points="58.31,16.14 58.11,15.88 57.91,16.14 57.81,16.14 58.06,15.82 57.82,15.51 57.92,15.51 58.11,15.76 58.3,15.51 58.4,15.51 58.16,15.82 58.41,16.14 "/>
      <polygon class="fil4" points="58.96,16.14 58.76,15.88 58.56,16.14 58.46,16.14 58.71,15.82 58.47,15.51 58.57,15.51 58.76,15.76 58.95,15.51 59.05,15.51 58.81,15.82 59.06,16.14 "/>
      <polygon class="fil4" points="60.98,15.3 60.98,16.14 60.89,16.14 60.89,15.37 60.69,15.37 60.69,15.3 "/>
      <path class="fil4" d="M61.75 15.9c0,0.14 -0.11,0.25 -0.31,0.25 -0.12,0 -0.24,-0.04 -0.31,-0.11l0.04 -0.07c0.06,0.06 0.16,0.1 0.27,0.1 0.14,0 0.22,-0.07 0.22,-0.17 0,-0.1 -0.07,-0.17 -0.23,-0.17l-0.06 0 0 -0.06 0.23 -0.3 -0.43 0 0 -0.07 0.55 0 0 0.06 -0.25 0.3c0.19,0.01 0.28,0.1 0.28,0.24z"/>
      <polygon class="fil4" points="62.6,15.92 62.43,15.92 62.43,16.14 62.34,16.14 62.34,15.92 61.86,15.92 61.86,15.86 62.31,15.3 62.41,15.3 61.97,15.84 62.34,15.84 62.34,15.65 62.43,15.65 62.43,15.84 62.6,15.84 "/>
      <path class="fil4" d="M63.25 16.06l0 0.08 -0.59 0 0 -0.06 0.35 -0.34c0.1,-0.1 0.11,-0.15 0.11,-0.21 0,-0.1 -0.06,-0.16 -0.2,-0.16 -0.1,0 -0.17,0.03 -0.23,0.09l-0.06 -0.05c0.07,-0.08 0.17,-0.12 0.3,-0.12 0.17,0 0.28,0.09 0.28,0.23 0,0.08 -0.02,0.15 -0.14,0.26l-0.29 0.28 0.47 0z"/>
      <path class="fil4" d="M47.73 17.89c0,-0.12 0.1,-0.21 0.22,-0.21 0.07,0 0.13,0.03 0.17,0.07l-0.06 0.06c-0.03,-0.03 -0.06,-0.05 -0.1,-0.05 -0.08,0 -0.13,0.05 -0.13,0.13 0,0.08 0.05,0.13 0.13,0.13 0.04,0 0.07,-0.02 0.1,-0.05l0.06 0.06c-0.04,0.04 -0.1,0.07 -0.17,0.07 -0.12,0 -0.22,-0.09 -0.22,-0.21z"/>
      <path class="fil4" d="M48.44 18l-0.19 0 -0.03 0.09 -0.1 0 0.18 -0.4 0.1 0 0.18 0.4 -0.1 0 -0.04 -0.09zm-0.03 -0.07l0 0 -0.06 -0.15 -0.07 0.15 0.13 0z"/>
      <path class="fil4" d="M48.88 18.09l-0.08 -0.11 0 0 -0.08 0 0 0.11 -0.1 0 0 -0.4 0.18 0c0.11,0 0.17,0.05 0.17,0.14 0,0.06 -0.03,0.11 -0.08,0.13l0.09 0.13 -0.1 0zm-0.09 -0.33l0 0 -0.07 0 0 0.14 0.07 0c0.06,0 0.09,-0.02 0.09,-0.07 0,-0.04 -0.03,-0.07 -0.09,-0.07z"/>
      <path class="fil4" d="M49.02 18.05l0.03 -0.07c0.03,0.03 0.08,0.04 0.13,0.04 0.06,0 0.08,-0.02 0.08,-0.04 0,-0.08 -0.23,-0.02 -0.23,-0.17 0,-0.07 0.05,-0.13 0.17,-0.13 0.05,0 0.1,0.01 0.14,0.04l-0.03 0.07c-0.04,-0.02 -0.08,-0.03 -0.11,-0.03 -0.06,0 -0.08,0.02 -0.08,0.04 0,0.08 0.24,0.03 0.24,0.17 0,0.07 -0.06,0.13 -0.18,0.13 -0.06,0 -0.13,-0.02 -0.16,-0.05z"/>
      <polygon class="fil4" points="49.96,17.69 49.96,18.09 49.86,18.09 49.86,17.93 49.68,17.93 49.68,18.09 49.59,18.09 49.59,17.69 49.68,17.69 49.68,17.85 49.86,17.85 49.86,17.69 "/>
      <path class="fil4" d="M50.03 17.89c0,-0.12 0.09,-0.21 0.22,-0.21 0.13,0 0.22,0.09 0.22,0.21 0,0.12 -0.09,0.21 -0.22,0.21 -0.13,0 -0.22,-0.09 -0.22,-0.21zm0.35 0l0 0c0,-0.08 -0.06,-0.13 -0.13,-0.13 -0.07,0 -0.12,0.05 -0.12,0.13 0,0.08 0.05,0.13 0.12,0.13 0.07,0 0.13,-0.05 0.13,-0.13z"/>
      <polygon class="fil4" points="50.55,17.69 50.64,17.69 50.64,18.01 50.84,18.01 50.84,18.09 50.55,18.09 "/>
      <path class="fil4" d="M50.9 17.69l0.18 0c0.14,0 0.23,0.08 0.23,0.2 0,0.12 -0.09,0.2 -0.23,0.2l-0.18 0 0 -0.4zm0.18 0.32l0 0c0.08,0 0.13,-0.04 0.13,-0.12 0,-0.08 -0.05,-0.13 -0.13,-0.13l-0.09 0 0 0.25 0.09 0z"/>
      <polygon class="fil4" points="51.69,18.02 51.69,18.09 51.38,18.09 51.38,17.69 51.69,17.69 51.69,17.76 51.47,17.76 51.47,17.85 51.66,17.85 51.66,17.92 51.47,17.92 51.47,18.02 "/>
      <path class="fil4" d="M52.03 18.09l-0.08 -0.11 0 0 -0.09 0 0 0.11 -0.09 0 0 -0.4 0.18 0c0.1,0 0.17,0.05 0.17,0.14 0,0.06 -0.03,0.11 -0.08,0.13l0.09 0.13 -0.1 0zm-0.09 -0.33l0 0 -0.08 0 0 0.14 0.08 0c0.06,0 0.09,-0.02 0.09,-0.07 0,-0.04 -0.03,-0.07 -0.09,-0.07z"/>
      <path class="fil4" d="M60.11 19.19c0,-0.25 0.14,-0.4 0.34,-0.4 0.19,0 0.33,0.15 0.33,0.4 0,0.26 -0.14,0.4 -0.33,0.4 -0.2,0 -0.34,-0.14 -0.34,-0.4zm0.49 0l0 0c0,-0.17 -0.06,-0.24 -0.15,-0.24 -0.09,0 -0.16,0.07 -0.16,0.24 0,0.18 0.07,0.25 0.16,0.25 0.09,0 0.15,-0.07 0.15,-0.25z"/>
      <path class="fil4" d="M61.52 19.34c0,0.15 -0.13,0.25 -0.3,0.25 -0.22,0 -0.35,-0.13 -0.35,-0.38 0,-0.27 0.16,-0.42 0.4,-0.42 0.08,0 0.16,0.02 0.22,0.06l-0.07 0.13c-0.04,-0.03 -0.09,-0.04 -0.15,-0.04 -0.13,0 -0.21,0.08 -0.22,0.22 0.05,-0.04 0.12,-0.06 0.2,-0.06 0.15,0 0.27,0.09 0.27,0.24zm-0.18 0.01l0 0c0,-0.08 -0.05,-0.12 -0.13,-0.12 -0.08,0 -0.14,0.05 -0.14,0.12 0,0.06 0.05,0.11 0.14,0.11 0.08,0 0.13,-0.04 0.13,-0.11z"/>
      <polygon class="fil4" points="61.88,18.65 62.04,18.65 61.67,19.69 61.51,19.69 "/>
      <path class="fil4" d="M62.62 19.43l0 0.15 -0.59 0 0 -0.12 0.3 -0.28c0.07,-0.06 0.08,-0.1 0.08,-0.14 0,-0.06 -0.04,-0.1 -0.13,-0.1 -0.06,0 -0.12,0.03 -0.16,0.08l-0.13 -0.08c0.06,-0.09 0.17,-0.15 0.31,-0.15 0.18,0 0.29,0.09 0.29,0.23 0,0.08 -0.02,0.15 -0.13,0.25l-0.18 0.16 0.34 0z"/>
      <path class="fil3" d="M60.11 12.72c-0.13,-0.57 -0.7,-0.92 -1.29,-0.88 -0.18,0.01 -0.36,0.05 -0.52,0.12 -0.41,0.18 -0.69,0.66 -0.55,1.08 0.11,0.34 0.44,0.56 0.78,0.7 0.35,0.15 0.76,0.25 1.11,0.09 0.33,-0.15 0.52,-0.53 0.51,-0.9 -0.01,-0.07 -0.02,-0.14 -0.04,-0.21z"/>
      <path class="fil5" d="M58.34 16.45c-0.01,-0.01 0.14,-0.18 0.34,-0.39 0.2,-0.2 0.36,-0.36 0.37,-0.35 0.01,0 -0.14,0.18 -0.34,0.38 -0.19,0.21 -0.36,0.37 -0.37,0.36z"/>
      <path class="fil7 str0" d="M61.28 11.17c0,1.72 -1.4,3.1 -3.13,3.1 -1.74,0 -3.14,-1.38 -3.14,-3.1 0,-1.71 1.4,-3.1 3.14,-3.1 1.73,0 3.13,1.39 3.13,3.1z"/>
      <g>
       <g>
        <g>
         <path class="fil4" d="M57.26 11.1c-0.45,0 -0.82,-0.36 -0.82,-0.8 0,-0.45 0.37,-0.81 0.82,-0.81 0.45,0 0.81,0.36 0.81,0.81 0,0.44 -0.36,0.8 -0.81,0.8zm0 -1.17l0 0c-0.21,0 -0.37,0.16 -0.37,0.37 0,0.2 0.16,0.36 0.37,0.36 0.2,0 0.37,-0.16 0.37,-0.36 0,-0.21 -0.17,-0.37 -0.37,-0.37z"/>
        </g>
        <g>
         <path class="fil4" d="M56.87 12.65c-0.05,0 -0.11,-0.02 -0.15,-0.06 -0.09,-0.09 -0.09,-0.23 0,-0.31l2.54 -2.52c0.09,-0.08 0.23,-0.08 0.32,0 0.08,0.09 0.08,0.23 0,0.31l-2.55 2.52c-0.04,0.04 -0.1,0.06 -0.16,0.06z"/>
        </g>
        <g>
         <path class="fil4" d="M59.03 12.86c-0.45,0 -0.81,-0.36 -0.81,-0.81 0,-0.44 0.36,-0.81 0.81,-0.81 0.45,0 0.82,0.37 0.82,0.81 0,0.45 -0.37,0.81 -0.82,0.81zm0 -1.18l0 0c-0.2,0 -0.37,0.17 -0.37,0.37 0,0.2 0.17,0.37 0.37,0.37 0.21,0 0.37,-0.17 0.37,-0.37 0,-0.2 -0.16,-0.37 -0.37,-0.37z"/>
        </g>
       </g>
      </g>
     </g>
     <path class="fil4" d="M47.69 19.45l0.1 -0.12c0.04,0.05 0.09,0.08 0.15,0.08 0.07,0 0.11,-0.04 0.11,-0.13l0 -0.36 -0.28 -0.01 0 -0.14 0.46 0 0 0.5c0,0.19 -0.1,0.29 -0.29,0.29 -0.1,0 -0.19,-0.04 -0.25,-0.11z"/>
     <path class="fil4" d="M48.34 19.45c0,-0.07 0.05,-0.11 0.11,-0.11 0.06,0 0.11,0.04 0.11,0.11 0,0.06 -0.05,0.1 -0.11,0.1 -0.06,0 -0.11,-0.04 -0.11,-0.1z"/>
     <polygon class="fil4" points="49.83,18.77 49.58,19.55 49.38,19.55 49.21,19.02 49.03,19.55 48.84,19.55 48.58,18.77 48.77,18.77 48.94,19.32 49.13,18.77 49.3,18.77 49.48,19.32 49.66,18.77 "/>
     <path class="fil4" d="M49.91 18.77c0,-0.05 0.04,-0.09 0.11,-0.09 0.06,0 0.11,0.04 0.11,0.09 0,0.06 -0.05,0.1 -0.11,0.1 -0.07,0 -0.11,-0.04 -0.11,-0.1zm0.02 0.18l0 0 0.18 0 -0.01 0.6 -0.17 0 0 -0.6z"/>
     <polygon class="fil4" points="50.27,18.73 50.44,18.73 50.44,19.55 50.27,19.55 "/>
     <polygon class="fil4" points="50.6,18.73 50.78,18.73 50.78,19.55 50.6,19.55 "/>
     <path class="fil4" d="M50.92 18.77c0,-0.05 0.04,-0.09 0.11,-0.09 0.06,0 0.11,0.04 0.11,0.09 0,0.06 -0.05,0.1 -0.11,0.1 -0.07,0 -0.11,-0.04 -0.11,-0.1zm0.02 0.18l0 0 0.17 0 0 0.6 -0.17 0 0 -0.6z"/>
     <path class="fil4" d="M51.81 19.21l0 0.34 -0.16 0 0 -0.08c-0.04,0.06 -0.1,0.09 -0.19,0.09 -0.14,0 -0.22,-0.08 -0.22,-0.18 0,-0.11 0.07,-0.18 0.26,-0.18l0.13 0c0,-0.07 -0.04,-0.12 -0.13,-0.12 -0.07,0 -0.13,0.02 -0.18,0.06l-0.06 -0.12c0.07,-0.05 0.16,-0.08 0.26,-0.08 0.18,0.01 0.29,0.09 0.29,0.27zm-0.18 0.15l0 0 0 -0.06 -0.12 0c-0.08,0 -0.1,0.03 -0.1,0.07 0,0.04 0.03,0.07 0.1,0.07 0.05,0 0.1,-0.03 0.12,-0.08z"/>
     <path class="fil4" d="M52.98 19.21l0 0.34 -0.17 0 0 -0.31c0,-0.1 -0.04,-0.14 -0.12,-0.14 -0.07,0 -0.13,0.04 -0.13,0.15l0 0.3 -0.17 0 0 -0.31c0,-0.1 -0.04,-0.15 -0.12,-0.15 -0.07,0 -0.13,0.05 -0.13,0.16l0 0.3 -0.17 0 0 -0.6 0.16 0 0 0.07c0.05,-0.05 0.12,-0.07 0.19,-0.07 0.09,0 0.16,0.03 0.2,0.09 0.05,-0.06 0.13,-0.09 0.22,-0.09 0.14,0 0.24,0.08 0.24,0.26z"/>
     <path class="fil4" d="M53.08 19.49l0.06 -0.12c0.05,0.04 0.13,0.06 0.21,0.06 0.08,0 0.11,-0.02 0.11,-0.06 0,-0.09 -0.36,0.01 -0.36,-0.23 0,-0.11 0.1,-0.19 0.27,-0.19 0.09,0 0.18,0.02 0.24,0.05l-0.06 0.12c-0.06,-0.03 -0.12,-0.04 -0.18,-0.04 -0.07,0 -0.11,0.02 -0.11,0.05 0,0.1 0.37,0.01 0.37,0.24 0,0.11 -0.11,0.19 -0.29,0.19 -0.1,0 -0.2,-0.03 -0.26,-0.07z"/>
    </g>
    <path class="fil8" d="M45.07 20.46c-0.86,0 -1.57,0.15 -1.57,0.32 0,0.18 0.71,0.33 1.57,0.33 0.87,0 1.58,-0.15 1.58,-0.33 0,-0.17 -0.71,-0.32 -1.58,-0.32z"/>
    <g>
     <g>
      <path class="fil3 str1" d="M46.54 18.59c0.38,0.8 0.04,1.75 -0.77,2.13 -0.81,0.38 -1.77,0.04 -2.16,-0.75 -0.38,-0.8 -0.04,-1.76 0.77,-2.14 0.8,-0.38 1.77,-0.04 2.16,0.76z"/>
     </g>
    </g>
    <g>
     <g>
      <g>
       <path class="fil4" d="M44.61 19.24c-0.23,0 -0.42,-0.19 -0.42,-0.42 0,-0.23 0.19,-0.42 0.42,-0.42 0.24,0 0.43,0.19 0.43,0.42 0,0.23 -0.19,0.42 -0.43,0.42zm0 -0.61l0 0c-0.1,0 -0.19,0.09 -0.19,0.19 0,0.11 0.09,0.19 0.19,0.19 0.11,0 0.2,-0.08 0.2,-0.19 0,-0.1 -0.09,-0.19 -0.2,-0.19z"/>
      </g>
      <g>
       <path class="fil4" d="M44.41 20.04c-0.03,0 -0.05,-0.01 -0.08,-0.03 -0.04,-0.05 -0.04,-0.12 0,-0.16l1.32 -1.31c0.05,-0.04 0.12,-0.04 0.17,0 0.04,0.05 0.04,0.12 0,0.17l-1.32 1.3c-0.03,0.02 -0.06,0.03 -0.09,0.03z"/>
      </g>
      <g>
       <path class="fil4" d="M45.53 20.15c-0.23,0 -0.42,-0.19 -0.42,-0.42 0,-0.23 0.19,-0.42 0.42,-0.42 0.24,0 0.43,0.19 0.43,0.42 0,0.23 -0.19,0.42 -0.43,0.42zm0 -0.61l0 0c-0.1,0 -0.19,0.09 -0.19,0.19 0,0.11 0.09,0.19 0.19,0.19 0.11,0 0.2,-0.08 0.2,-0.19 0,-0.1 -0.09,-0.19 -0.2,-0.19z"/>
      </g>
     </g>
    </g>
   </g>
  </g>
  <polygon class="fil9" points="0,0 52.22,0 52.22,38.11 0,38.11 "/>
 </g>
</svg>
