<?xml version="1.0" encoding="UTF-8"?>
<!DOCTYPE svg PUBLIC "-//W3C//DTD SVG 1.1//EN" "http://www.w3.org/Graphics/SVG/1.1/DTD/svg11.dtd">
<!-- Creator: CorelDRAW 2020 (64-Bit) -->
<svg xmlns="http://www.w3.org/2000/svg" xml:space="preserve" width="799px" height="267px" version="1.1" style="shape-rendering:geometricPrecision; text-rendering:geometricPrecision; image-rendering:optimizeQuality; fill-rule:evenodd; clip-rule:evenodd"
viewBox="0 0 521.25 174.24"
 xmlns:xlink="http://www.w3.org/1999/xlink"
 xmlns:xodm="http://www.corel.com/coreldraw/odm/2003">
 <defs>
  <style type="text/css">
   <![CDATA[
    .str3 {stroke:white;stroke-width:2.91;stroke-miterlimit:10}
    .str1 {stroke:#6EE0D2;stroke-width:1.94;stroke-miterlimit:10}
    .str0 {stroke:white;stroke-width:1.94;stroke-miterlimit:10}
    .str2 {stroke:#6EE0D2;stroke-width:0.97;stroke-miterlimit:10}
    .str4 {stroke:#273B8C;stroke-width:0.21;stroke-miterlimit:22.9256}
    .str5 {stroke:white;stroke-width:1.94;stroke-miterlimit:10;stroke-dasharray:2.910000 2.910000}
    .fil5 {fill:none;fill-rule:nonzero}
    .fil0 {fill:#273B8C;fill-rule:nonzero}
    .fil8 {fill:#334BAE;fill-rule:nonzero}
    .fil3 {fill:#6EE0D2;fill-rule:nonzero}
    .fil1 {fill:#7478F5;fill-rule:nonzero}
    .fil7 {fill:#8D91FC;fill-rule:nonzero}
    .fil2 {fill:#F67F4B;fill-rule:nonzero}
    .fil4 {fill:white;fill-rule:nonzero}
    .fil6 {fill:url(#id0);fill-rule:nonzero}
   ]]>
  </style>
  <linearGradient id="id0" gradientUnits="userSpaceOnUse" x1="778.43" y1="25.6" x2="390.73" y2="157.89">
   <stop offset="0" style="stop-opacity:1; stop-color:#00A9C7"/>
   <stop offset="1" style="stop-opacity:1; stop-color:#8C5CE6"/>
  </linearGradient>
 </defs>
 <g id="Слой_x0020_1">
  <metadata id="CorelCorpID_0Corel-Layer"/>
  <g id="_2367259002592">
   <path class="fil0" d="M383.67 174.13l-194.83 0 0 -160.02 191.3 0c6.8,0 12.31,5.51 12.31,12.31l0 138.93c0,4.85 -3.93,8.78 -8.78,8.78z"/>
  </g>
  <path class="fil1" d="M377.67 14.11l-194.4 0c-5.08,0 -9.21,4.12 -9.21,9.21 0,5.09 4.13,9.21 9.21,9.21l194.4 0 0 -18.42z"/>
  <polygon class="fil2" points="274.16,32.53 377.67,32.53 377.67,14.11 274.16,14.11 "/>
  <path class="fil1" d="M383.67 174.13l-8.77 0 0 -160.02 8.77 0c4.85,0 8.78,3.93 8.78,8.77l0 142.47c0,4.85 -3.93,8.78 -8.78,8.78z"/>
  <path class="fil0" d="M380.57 20.21l-194.19 0c-1.71,0 -3.11,1.39 -3.11,3.11 0,1.71 1.4,3.1 3.11,3.1l184.42 0 0 6.11 9.77 0 0 141.6 3.1 0c1.1,0 2.14,-0.21 3.11,-0.58l0 -147.13c0,-3.43 -2.78,-6.21 -6.21,-6.21z"/>
  <polygon class="fil1" points="474.98,118.97 247.48,118.97 247.48,0 474.98,0 "/>
  <g id="_2367258984688">
   <g>
    <polygon class="fil3" points="448.79,104.31 407.5,104.31 407.5,96.92 448.79,96.92 "/>
    <polygon class="fil3" points="448.79,90.66 426.14,90.66 426.14,87.52 448.79,87.52 "/>
    <polygon class="fil3" points="448.79,85.18 434.09,85.18 434.09,82.05 448.79,82.05 "/>
    <path class="fil3" d="M442.29 66.07l-22.19 0c-3.57,0 -6.49,-2.92 -6.49,-6.49l0 -0.18c0,-3.58 2.92,-6.5 6.49,-6.5l22.19 0c3.58,0 6.5,2.92 6.5,6.5l0 0.18c0,3.57 -2.92,6.49 -6.5,6.49z"/>
    <path class="fil4" d="M440.4 18.2c0,1.24 -1.01,2.25 -2.25,2.25 -1.25,0 -2.25,-1.01 -2.25,-2.25 0,-1.25 1,-2.25 2.25,-2.25 1.24,0 2.25,1 2.25,2.25z"/>
    <path class="fil4" d="M448.79 18.2c0,1.24 -1.01,2.25 -2.25,2.25 -1.24,0 -2.25,-1.01 -2.25,-2.25 0,-1.25 1.01,-2.25 2.25,-2.25 1.24,0 2.25,1 2.25,2.25z"/>
   </g>
   <g>
    <polygon class="fil4" points="273.67,14.66 314.96,14.66 314.96,22.05 273.67,22.05 "/>
    <polygon class="fil3" points="273.67,28.32 296.32,28.32 296.32,31.46 273.67,31.46 "/>
    <polygon class="fil3" points="273.67,33.79 288.37,33.79 288.37,36.93 273.67,36.93 "/>
    <path class="fil3" d="M280.16 52.9l22.19 0c3.58,0 6.5,2.92 6.5,6.5l0 0.18c0,3.57 -2.92,6.49 -6.5,6.49l-22.19 0c-3.57,0 -6.49,-2.92 -6.49,-6.49l0 -0.18c0,-3.58 2.92,-6.5 6.49,-6.5z"/>
    <path class="fil3" d="M282.06 100.78c0,-1.24 1.01,-2.25 2.25,-2.25 1.24,0 2.25,1.01 2.25,2.25 0,1.24 -1.01,2.25 -2.25,2.25 -1.24,0 -2.25,-1.01 -2.25,-2.25z"/>
    <path class="fil3" d="M273.67 100.78c0,-1.24 1,-2.25 2.24,-2.25 1.25,0 2.25,1.01 2.25,2.25 0,1.24 -1,2.25 -2.25,2.25 -1.24,0 -2.24,-1.01 -2.24,-2.25z"/>
   </g>
  </g>
  <line class="fil5 str0" x1="467.27" y1="99.91" x2="467.27" y2= "19.07" />
  <path class="fil5 str0" d="M467.27 19.07c-6.27,0 -11.36,-5.09 -11.36,-11.36"/>
  <path class="fil5 str0" d="M455.91 7.71l-192.15 0m0 -0.85c0,5.31 -4.5,10.6 -9.43,11.85m0.86 0l0 81.56"/>
  <line class="fil5 str1" x1="263.76" y1="111.26" x2="455.91" y2= "111.26" />
  <path class="fil5 str1" d="M455.91 111.26c0,-6.27 5.09,-11.35 11.36,-11.35"/>
  <path class="fil3" d="M387.36 59.49c0,14.43 -11.7,26.13 -26.13,26.13 -14.44,0 -26.14,-11.7 -26.14,-26.13 0,-14.44 11.7,-26.14 26.14,-26.14 14.43,0 26.13,11.7 26.13,26.14z"/>
  <path class="fil5 str2" d="M392.72 59.49c0,17.39 -14.1,31.49 -31.49,31.49 -17.39,0 -31.49,-14.1 -31.49,-31.49 0,-17.39 14.1,-31.49 31.49,-31.49 17.39,0 31.49,14.1 31.49,31.49z"/>
  <polygon class="fil6" points="521.25,152.39 293.75,152.39 293.75,33.42 521.25,33.42 "/>
  <g id="_2366971675568">
   <polygon class="fil4" points="495.06,137.73 453.77,137.73 453.77,130.34 495.06,130.34 "/>
   <polygon class="fil4" points="495.06,124.08 472.41,124.08 472.41,120.94 495.06,120.94 "/>
   <polygon class="fil4" points="495.06,118.6 480.36,118.6 480.36,115.46 495.06,115.46 "/>
   <path class="fil4" d="M488.56 99.49l-22.18 0c-3.58,0 -6.5,-2.92 -6.5,-6.5l0 -0.17c0,-3.58 2.92,-6.5 6.5,-6.5l22.18 0c3.58,0 6.5,2.92 6.5,6.5l0 0.17c0,3.58 -2.92,6.5 -6.5,6.5z"/>
   <path class="fil4" d="M486.67 51.61c0,1.25 -1.01,2.25 -2.25,2.25 -1.24,0 -2.25,-1 -2.25,-2.25 0,-1.24 1.01,-2.25 2.25,-2.25 1.24,0 2.25,1.01 2.25,2.25z"/>
   <path class="fil4" d="M495.06 51.61c0,1.25 -1,2.25 -2.25,2.25 -1.24,0 -2.25,-1 -2.25,-2.25 0,-1.24 1.01,-2.25 2.25,-2.25 1.25,0 2.25,1.01 2.25,2.25z"/>
  </g>
  <line class="fil5 str0" x1="513.54" y1="133.33" x2="513.54" y2= "52.48" />
  <path class="fil5 str0" d="M513.54 52.48c-6.27,0 -11.35,-5.08 -11.35,-11.35"/>
  <line class="fil5 str0" x1="502.19" y1="41.13" x2="310.03" y2= "41.13" />
  <line class="fil5 str0" x1="310.03" y1="144.68" x2="502.19" y2= "144.68" />
  <path class="fil5 str0" d="M502.19 144.68c0,-6.27 5.08,-11.35 11.35,-11.35"/>
  <path class="fil5 str3" d="M438.99 92.91c0,17.39 -14.1,31.49 -31.49,31.49 -17.39,0 -31.49,-14.1 -31.49,-31.49 0,-17.4 14.1,-31.49 31.49,-31.49 17.39,0 31.49,14.09 31.49,31.49z"/>
  <path class="fil7" d="M374.9 26.42l-188.52 0c-1.71,0 -3.11,-1.39 -3.11,-3.1l-9.21 0c0,5.09 4.13,9.21 9.21,9.21l191.63 0 0 141.6 5.67 0 0 -142.04c0,-3.13 -2.54,-5.67 -5.67,-5.67z"/>
  <g id="_2366971703168">
   <path class="fil0 str4" d="M374.9 32.53l-191.63 0c-5.08,0 -9.21,-4.12 -9.21,-9.21l0 142.03c0,4.85 3.93,8.78 8.78,8.78l186.05 0c2.33,0 4.44,-0.91 6.01,-2.39l0 -139.21z"/>
  </g>
  <path class="fil8" d="M183.27 32.53c-5.08,0 -9.21,-4.12 -9.21,-9.21l0 142.03c0,4.85 3.93,8.78 8.78,8.78l91.32 0 0 -141.6 -90.89 0z"/>
  <g id="_2366971645664">
   <line class="fil5 str5" x1="358.51" y1="168.34" x2="189.8" y2= "168.34" />
   <path class="fil5 str5" d="M189.8 168.34c-4.84,0 -8.77,-3.93 -8.77,-8.78"/>
   <line class="fil5 str5" x1="181.03" y1="159.56" x2="181.03" y2= "47.64" />
   <path class="fil5 str5" d="M181.03 47.64c0,-4.85 3.93,-8.78 8.77,-8.78"/>
   <line class="fil5 str5" x1="189.8" y1="38.86" x2="358.51" y2= "38.86" />
   <path class="fil5 str5" d="M358.51 38.86c4.85,0 8.78,3.93 8.78,8.78"/>
   <line class="fil5 str5" x1="367.29" y1="47.64" x2="367.29" y2= "159.56" />
   <path class="fil5 str5" d="M367.29 159.56c0,4.85 -3.93,8.78 -8.78,8.78"/>
  </g>
  <path class="fil4" d="M433.64 92.91c0,14.43 -11.71,26.13 -26.14,26.13 -14.43,0 -26.13,-11.7 -26.13,-26.13 0,-14.44 11.7,-26.14 26.13,-26.14 14.43,0 26.14,11.7 26.14,26.14z"/>
  <path class="fil1" d="M396.97 95.53l2.97 0 0 2.25 -2.97 0 0 3.77 2.97 0 0 5.52 5.86 0 0 -5.52 6.71 0 0 -3.77 -6.71 0 0 -2.25 3.75 0c3.41,0 5.53,-0.97 7.41,-2.82 1.38,-1.37 2.13,-3.5 2.13,-5.6 0,-2.72 -1.01,-4.65 -2.91,-5.88 -1.6,-1.02 -3.5,-1.53 -6.47,-1.53l-9.77 0 0 11.42 -2.97 0 0 4.41zm15.86 -8.29c0,1.38 -0.31,2.25 -1.09,2.91 -0.91,0.78 -2.19,0.97 -4.22,0.97l-1.72 0 0 -7.04 1.03 0c2,0 2.97,-0.03 4.22,0.47 0.97,0.38 1.78,1.41 1.78,2.69z"/>
  <path class="fil7" d="M255.12 145.58l-81.06 0 0 -15.74 81.06 0c4.28,0 7.76,3.47 7.76,7.76l0 0.21c0,4.29 -3.48,7.77 -7.76,7.77z"/>
  <path class="fil1" d="M174.06 145.58l80.95 0c4.35,0 7.87,-3.53 7.87,-7.87l-88.82 0 0 7.87z"/>
  <g id="_2367062842288">
   <path class="fil7" d="M143.84 128.36c0,17.45 -14.15,31.6 -31.61,31.6 -17.45,0 -31.6,-14.15 -31.6,-31.6 0,-17.46 14.15,-31.61 31.6,-31.61 17.46,0 31.61,14.15 31.61,31.61z"/>
   <path class="fil1" d="M143.84 128.35c0,-17.45 -14.15,-31.6 -31.61,-31.6l0 63.21c17.46,0 31.61,-14.15 31.61,-31.61z"/>
   <path class="fil7" d="M137.17 128.36c0,13.77 -11.16,24.94 -24.94,24.94 -13.77,0 -24.94,-11.17 -24.94,-24.94 0,-13.78 11.17,-24.95 24.94,-24.95 13.78,0 24.94,11.17 24.94,24.95z"/>
   <path class="fil1" d="M137.17 128.35c0,-13.77 -11.16,-24.94 -24.94,-24.94l0 49.89c13.78,0 24.94,-11.17 24.94,-24.95z"/>
   <path class="fil4" d="M112.23 103.41c-13.77,0 -24.94,11.17 -24.94,24.94 0,13.78 11.17,24.95 24.94,24.95 13.78,0 24.94,-11.17 24.94,-24.95 0,-13.77 -11.16,-24.94 -24.94,-24.94zm0 47.97l0 0c-12.71,0 -23.02,-10.31 -23.02,-23.03 0,-12.71 10.31,-23.02 23.02,-23.02 12.72,0 23.03,10.31 23.03,23.02 0,12.72 -10.31,23.03 -23.03,23.03z"/>
   <path class="fil4" d="M132.91 114.41c-1.79,-2.65 -4.08,-4.94 -6.73,-6.74 -3.98,-2.69 -8.78,-4.26 -13.95,-4.26l0 1.92c12.72,0 23.03,10.31 23.03,23.02 0,12.72 -10.31,23.03 -23.03,23.03l0 1.91c8.94,0 16.75,-4.71 21.16,-11.77 2.38,-3.82 3.78,-8.33 3.78,-13.17 0,-5.16 -1.57,-9.96 -4.26,-13.94z"/>
   <path class="fil4" d="M102.65 131.4l2.95 0 0 2.24 -2.95 0 0 3.75 2.95 0 0 5.49 5.82 0 0 -5.49 6.67 0 0 -3.75 -6.67 0 0 -2.24 3.72 0c3.39,0 5.5,-0.96 7.37,-2.79 1.37,-1.37 2.11,-3.48 2.11,-5.56 0,-2.71 -1,-4.63 -2.89,-5.85 -1.59,-1.02 -3.48,-1.52 -6.43,-1.52l-9.7 0 0 11.34 -2.95 0 0 4.38zm15.76 -8.23c0,1.37 -0.31,2.24 -1.09,2.89 -0.9,0.78 -2.18,0.96 -4.2,0.96l-1.7 0 0 -6.99 1.02 0c1.99,0 2.95,-0.03 4.2,0.47 0.96,0.37 1.77,1.4 1.77,2.67z"/>
  </g>
  <g id="_2367062851312">
   <path class="fil7" d="M63.21 128.36c0,17.45 -14.15,31.6 -31.6,31.6 -17.46,0 -31.61,-14.15 -31.61,-31.6 0,-17.46 14.15,-31.61 31.61,-31.61 17.45,0 31.6,14.15 31.6,31.61z"/>
   <path class="fil1" d="M63.21 128.35c0,-17.45 -14.15,-31.6 -31.6,-31.6l0 63.21c17.45,0 31.6,-14.15 31.6,-31.61z"/>
   <path class="fil7" d="M56.55 128.36c0,13.77 -11.17,24.94 -24.94,24.94 -13.78,0 -24.94,-11.17 -24.94,-24.94 0,-13.78 11.16,-24.95 24.94,-24.95 13.77,0 24.94,11.17 24.94,24.95z"/>
   <path class="fil1" d="M56.55 128.35c0,-13.77 -11.17,-24.94 -24.94,-24.94l0 49.89c13.77,0 24.94,-11.17 24.94,-24.95z"/>
   <path class="fil4" d="M31.61 103.41c-13.78,0 -24.94,11.17 -24.94,24.94 0,13.78 11.16,24.95 24.94,24.95 13.77,0 24.94,-11.17 24.94,-24.95 0,-13.77 -11.17,-24.94 -24.94,-24.94zm0 47.97l0 0c-12.72,0 -23.03,-10.31 -23.03,-23.03 0,-12.71 10.31,-23.02 23.03,-23.02 12.71,0 23.02,10.31 23.02,23.02 0,12.72 -10.31,23.03 -23.02,23.03z"/>
   <path class="fil4" d="M52.29 114.41c-1.79,-2.65 -4.09,-4.94 -6.74,-6.74 -3.98,-2.69 -8.78,-4.26 -13.94,-4.26l0 1.92c12.71,0 23.02,10.31 23.02,23.02 0,12.72 -10.31,23.03 -23.02,23.03l0 1.91c8.93,0 16.75,-4.71 21.15,-11.77 2.39,-3.82 3.79,-8.33 3.79,-13.17 0,-5.16 -1.57,-9.96 -4.26,-13.94z"/>
   <path class="fil4" d="M22.02 131.4l2.95 0 0 2.24 -2.95 0 0 3.75 2.95 0 0 5.49 5.82 0 0 -5.49 6.67 0 0 -3.75 -6.67 0 0 -2.24 3.73 0c3.39,0 5.5,-0.96 7.36,-2.79 1.37,-1.37 2.12,-3.48 2.12,-5.56 0,-2.71 -1,-4.63 -2.89,-5.85 -1.59,-1.02 -3.49,-1.52 -6.44,-1.52l-9.7 0 0 11.34 -2.95 0 0 4.38zm15.76 -8.23c0,1.37 -0.31,2.24 -1.09,2.89 -0.9,0.78 -2.17,0.96 -4.19,0.96l-1.71 0 0 -6.99 1.02 0c1.99,0 2.96,-0.03 4.2,0.47 0.96,0.37 1.77,1.4 1.77,2.67z"/>
  </g>
 </g>
</svg>
