<?xml version="1.0" encoding="UTF-8"?>
<!DOCTYPE svg PUBLIC "-//W3C//DTD SVG 1.1//EN" "http://www.w3.org/Graphics/SVG/1.1/DTD/svg11.dtd">
<!-- Creator: CorelDRAW 2020 (64-Bit) -->
<svg xmlns="http://www.w3.org/2000/svg" xml:space="preserve" width="800px" height="334px" version="1.1" style="shape-rendering:geometricPrecision; text-rendering:geometricPrecision; image-rendering:optimizeQuality; fill-rule:evenodd; clip-rule:evenodd"
viewBox="0 0 48.7 20.34"
 xmlns:xlink="http://www.w3.org/1999/xlink"
 xmlns:xodm="http://www.corel.com/coreldraw/odm/2003">
 <defs>
  <style type="text/css">
   <![CDATA[
    .str0 {stroke:white;stroke-width:0.47;stroke-miterlimit:22.9256}
    .fil1 {fill:#4A6CF9;fill-rule:nonzero}
    .fil3 {fill:#5A69F7;fill-rule:nonzero}
    .fil6 {fill:#925EF2;fill-rule:nonzero}
    .fil4 {fill:white;fill-rule:nonzero}
    .fil0 {fill:white;fill-rule:nonzero}
    .fil2 {fill:black;fill-rule:nonzero;fill-opacity:0.301961}
    .fil5 {fill:#263138;fill-rule:nonzero;fill-opacity:0.301961}
   ]]>
  </style>
 </defs>
 <g id="Слой_x0020_1">
  <metadata id="CorelCorpID_0Corel-Layer"/>
  <path class="fil0 str0" d="M40.82 20.02l-7.38 -6.75 -6.14 6.73c-0.12,0.13 -0.33,0.14 -0.46,0.02l-7.37 -6.75 -6.15 6.73c-0.12,0.13 -0.33,0.14 -0.46,0.02l-12.52 -11.45c-0.13,-0.12 -0.14,-0.33 -0.02,-0.46l7.1 -7.77c0.13,-0.13 0.33,-0.14 0.46,-0.02l0.09 0.08 0 0 7.28 6.66 6.15 -6.72c0.12,-0.13 0.33,-0.14 0.46,-0.02l7.37 6.74 6.15 -6.72c0.12,-0.13 0.33,-0.14 0.46,-0.02l0.09 0.08 0 0 0 0 12.34 11.29 0.09 0.08c0.13,0.12 0.14,0.33 0.02,0.46l-7.11 7.77c-0.12,0.13 -0.32,0.14 -0.45,0.02zm-7.38 -6.75l-1.26 1.39c-0.08,0.09 -0.23,0.07 -0.29,-0.04 -0.19,-0.34 -0.36,-0.7 -0.49,-1.06 -0.41,-1.1 -0.69,-2.29 -1.26,-3.31l-1.84 -1.68c-0.08,-0.08 -0.12,-0.18 -0.11,-0.28 -0.71,-0.44 -1.52,-0.76 -2.32,-1.02 -1.45,-0.48 -2.96,-0.83 -4.28,-1.61 -1.08,-0.64 -2.03,-1.66 -2.33,-2.86 -0.02,-0.06 0,-0.12 0.04,-0.16l2.02 -2.21c0.17,-0.18 0.45,-0.19 0.63,-0.03l11.49 12.87z"/>
  <g id="_2366986681664">
   <path class="fil1" d="M40.7 20.13l-12.52 -11.45c-0.13,-0.12 -0.14,-0.33 -0.02,-0.46l7.11 -7.77c0.12,-0.13 0.32,-0.14 0.46,-0.02l12.52 11.45c0.13,0.12 0.14,0.33 0.02,0.46l-7.11 7.77c-0.12,0.13 -0.32,0.14 -0.46,0.02z"/>
   <path class="fil2" d="M40.7 20.13l-12.52 -11.45c-0.13,-0.12 -0.14,-0.33 -0.02,-0.46l7.11 -7.77c0.12,-0.13 0.32,-0.14 0.46,-0.02l12.52 11.45c0.13,0.12 0.14,0.33 0.02,0.46l-7.11 7.77c-0.12,0.13 -0.32,0.14 -0.46,0.02z"/>
   <path class="fil3" d="M48.15 11.8l-12.33 -11.28c-0.18,-0.17 -0.47,-0.16 -0.63,0.02l-2.02 2.21c-0.04,0.05 -0.06,0.11 -0.05,0.17 0.31,1.19 1.26,2.21 2.34,2.85 1.31,0.78 2.82,1.13 4.27,1.61 1.45,0.48 2.92,1.14 3.85,2.34 0.89,1.14 1.18,2.6 1.69,3.95 0.13,0.36 0.29,0.72 0.48,1.07 0.06,0.1 0.21,0.12 0.29,0.03l2.14 -2.34c0.17,-0.18 0.16,-0.46 -0.03,-0.63z"/>
   <path class="fil4" d="M35.91 4.06c-0.1,0.1 -0.24,0.09 -0.4,-0.06l-0.32 -0.29 0.56 -0.61 0.3 0.27c0.15,0.14 0.17,0.28 0.09,0.37 -0.06,0.06 -0.13,0.08 -0.21,0.06 0.05,0.09 0.05,0.18 -0.02,0.26zm-0.12 -0.73l0 0 -0.13 0.15 0.14 0.13c0.07,0.06 0.13,0.07 0.18,0.02 0.04,-0.05 0.02,-0.1 -0.05,-0.17l-0.14 -0.13zm-0.01 0.58l0 0c0.04,-0.05 0.03,-0.11 -0.05,-0.18l-0.16 -0.15 -0.14 0.15 0.17 0.15c0.07,0.07 0.13,0.08 0.18,0.03z"/>
   <path class="fil4" d="M36.38 4.56l-0.28 -0.26 -0.18 0.08 -0.14 -0.13 0.83 -0.37 0.14 0.13 -0.29 0.86 -0.14 -0.13 0.06 -0.18zm0.05 -0.15l0 0 0.12 -0.32 -0.31 0.14 0.19 0.18z"/>
   <polygon class="fil4" points="37.64,4.83 37.09,5.44 36.97,5.34 37.01,4.69 36.67,5.06 36.53,4.93 37.08,4.32 37.2,4.43 37.17,5.07 37.5,4.7 "/>
   <polygon class="fil4" points="37.67,5.54 37.51,5.55 37.37,5.7 37.23,5.57 37.79,4.96 37.93,5.09 37.67,5.38 38.2,5.34 38.36,5.48 37.85,5.52 37.81,6.11 37.65,5.96 "/>
   <polygon class="fil4" points="33.47,6.49 33.36,6.39 33.22,6.53 33.17,6.48 33.3,6.33 32.98,6.04 33.02,6 33.66,5.9 33.72,5.96 33.11,6.06 33.35,6.28 33.47,6.15 33.52,6.2 33.41,6.33 33.52,6.44 "/>
   <path class="fil4" d="M33.89 6.85c-0.08,0.09 -0.22,0.1 -0.35,-0.02 -0.08,-0.07 -0.13,-0.17 -0.14,-0.26l0.07 -0.02c0,0.07 0.04,0.16 0.12,0.23 0.09,0.08 0.18,0.09 0.24,0.02 0.07,-0.07 0.06,-0.16 -0.04,-0.25l-0.04 -0.04 0.03 -0.04 0.34 -0.05 -0.29 -0.27 0.05 -0.05 0.36 0.33 -0.04 0.04 -0.34 0.06c0.11,0.11 0.12,0.23 0.03,0.32z"/>
   <path class="fil4" d="M34.35 7.26c-0.09,0.1 -0.22,0.11 -0.36,-0.02 -0.08,-0.07 -0.13,-0.17 -0.13,-0.25l0.07 -0.02c0,0.07 0.04,0.16 0.11,0.22 0.09,0.09 0.19,0.09 0.25,0.02 0.07,-0.07 0.06,-0.16 -0.08,-0.29l-0.12 -0.11 0.29 -0.25 0.3 0.28 -0.04 0.05 -0.26 -0.23 -0.18 0.16 0.07 0.06c0.17,0.16 0.17,0.28 0.08,0.38z"/>
   <path class="fil4" d="M34.85 7.71c-0.1,0.1 -0.24,0.1 -0.35,0 -0.15,-0.14 -0.14,-0.32 0.02,-0.49 0.18,-0.19 0.37,-0.2 0.53,-0.06 0.05,0.05 0.08,0.1 0.1,0.15l-0.07 0.03c-0.01,-0.05 -0.04,-0.09 -0.08,-0.13 -0.12,-0.11 -0.27,-0.1 -0.41,0.05 -0.01,0.01 -0.02,0.03 -0.04,0.05 0.09,-0.04 0.18,-0.01 0.26,0.06 0.11,0.1 0.13,0.24 0.04,0.34zm-0.06 -0.05l0 0c0.07,-0.07 0.05,-0.17 -0.03,-0.25 -0.09,-0.08 -0.19,-0.08 -0.26,-0.01 -0.05,0.06 -0.06,0.17 0.04,0.26 0.08,0.07 0.18,0.07 0.25,0z"/>
   <polygon class="fil4" points="35.9,8.98 35.93,8.69 35.64,8.74 35.57,8.68 35.94,8.62 35.96,8.27 36.03,8.33 36,8.61 36.28,8.56 36.34,8.61 36,8.67 35.97,9.04 "/>
   <polygon class="fil4" points="36.33,9.37 36.36,9.08 36.06,9.13 36,9.07 36.36,9.01 36.39,8.66 36.46,8.72 36.43,9 36.71,8.95 36.77,9 36.43,9.06 36.4,9.43 "/>
   <polygon class="fil4" points="36.76,9.77 36.79,9.47 36.49,9.52 36.43,9.46 36.79,9.4 36.82,9.05 36.88,9.11 36.86,9.39 37.14,9.34 37.2,9.4 36.85,9.46 36.82,9.83 "/>
   <polygon class="fil4" points="37.19,10.16 37.21,9.86 36.92,9.91 36.85,9.85 37.22,9.79 37.25,9.44 37.31,9.5 37.29,9.78 37.56,9.73 37.63,9.79 37.28,9.85 37.25,10.22 "/>
   <polygon class="fil4" points="38.66,11.51 38.69,11.21 38.39,11.26 38.33,11.2 38.69,11.14 38.72,10.79 38.79,10.85 38.76,11.13 39.04,11.08 39.1,11.14 38.75,11.2 38.73,11.57 "/>
   <polygon class="fil4" points="39.09,11.9 39.12,11.6 38.82,11.65 38.76,11.59 39.12,11.53 39.15,11.18 39.21,11.24 39.19,11.52 39.47,11.47 39.53,11.53 39.18,11.59 39.15,11.96 "/>
   <polygon class="fil4" points="39.51,12.29 39.54,11.99 39.25,12.04 39.18,11.98 39.55,11.92 39.58,11.57 39.64,11.63 39.62,11.91 39.89,11.86 39.96,11.92 39.61,11.98 39.58,12.35 "/>
   <polygon class="fil4" points="39.94,12.68 39.97,12.38 39.67,12.43 39.61,12.37 39.97,12.31 40,11.96 40.07,12.02 40.04,12.3 40.32,12.25 40.38,12.31 40.04,12.37 40.01,12.74 "/>
   <polygon class="fil4" points="41.78,13.33 41.27,13.89 41.21,13.84 41.67,13.33 41.54,13.21 41.59,13.16 "/>
   <path class="fil4" d="M41.92 14.19c-0.09,0.09 -0.22,0.1 -0.36,-0.02 -0.08,-0.07 -0.13,-0.17 -0.13,-0.26l0.07 -0.02c0,0.07 0.04,0.16 0.11,0.23 0.09,0.08 0.19,0.09 0.25,0.02 0.06,-0.07 0.05,-0.16 -0.05,-0.25l-0.04 -0.04 0.04 -0.04 0.33 -0.06 -0.29 -0.26 0.05 -0.05 0.36 0.33 -0.04 0.04 -0.34 0.06c0.12,0.11 0.12,0.23 0.04,0.32z"/>
   <polygon class="fil4" points="42.46,14.71 42.35,14.61 42.22,14.76 42.16,14.7 42.29,14.56 41.98,14.27 42.01,14.23 42.65,14.13 42.72,14.19 42.1,14.29 42.34,14.51 42.46,14.38 42.52,14.43 42.4,14.56 42.51,14.66 "/>
   <path class="fil4" d="M42.81 15.2l-0.05 0.06 -0.39 -0.36 0.03 -0.05 0.45 -0.01c0.12,0 0.16,-0.03 0.2,-0.07 0.06,-0.06 0.05,-0.15 -0.04,-0.22 -0.06,-0.06 -0.13,-0.09 -0.21,-0.08l-0.01 -0.07c0.09,-0.02 0.19,0.02 0.28,0.1 0.11,0.1 0.13,0.22 0.04,0.32 -0.05,0.05 -0.11,0.08 -0.25,0.09l-0.36 0.01 0.31 0.28z"/>
   <path class="fil4" d="M31.5 7.09c0.07,-0.08 0.19,-0.08 0.27,-0.01 0.05,0.05 0.07,0.1 0.07,0.15l-0.08 0c0,-0.03 -0.01,-0.07 -0.03,-0.09 -0.05,-0.05 -0.12,-0.04 -0.17,0.01 -0.04,0.05 -0.04,0.12 0.01,0.16 0.03,0.03 0.06,0.04 0.09,0.03l0.01 0.07c-0.05,0.01 -0.11,-0.01 -0.15,-0.05 -0.09,-0.08 -0.09,-0.19 -0.02,-0.27z"/>
   <path class="fil4" d="M31.9 7.59l-0.13 -0.11 -0.07 0.04 -0.07 -0.06 0.37 -0.16 0.06 0.06 -0.13 0.37 -0.06 -0.06 0.03 -0.08zm0.02 -0.06l0 0 0.05 -0.14 -0.13 0.06 0.08 0.08z"/>
   <path class="fil4" d="M32.13 7.91l0.02 -0.12 -0.01 0 -0.05 -0.05 -0.07 0.08 -0.06 -0.06 0.25 -0.27 0.11 0.11c0.07,0.06 0.08,0.14 0.03,0.2 -0.04,0.04 -0.09,0.05 -0.13,0.03l-0.02 0.15 -0.07 -0.07zm0.14 -0.27l0 0 -0.05 -0.04 -0.08 0.09 0.05 0.05c0.03,0.03 0.07,0.03 0.1,0 0.02,-0.03 0.02,-0.06 -0.02,-0.1z"/>
   <path class="fil4" d="M32.25 7.97l0.06 -0.03c0.01,0.04 0.03,0.08 0.06,0.11 0.04,0.03 0.06,0.04 0.08,0.02 0.05,-0.05 -0.14,-0.16 -0.05,-0.26 0.04,-0.04 0.11,-0.05 0.19,0.02 0.03,0.03 0.06,0.07 0.07,0.11l-0.06 0.03c-0.01,-0.04 -0.03,-0.07 -0.06,-0.09 -0.03,-0.03 -0.06,-0.03 -0.08,-0.01 -0.04,0.05 0.14,0.15 0.06,0.25 -0.05,0.05 -0.12,0.05 -0.19,-0.02 -0.05,-0.04 -0.08,-0.09 -0.08,-0.13z"/>
   <polygon class="fil4" points="33.08,8.29 32.84,8.56 32.78,8.51 32.88,8.4 32.76,8.28 32.66,8.39 32.59,8.34 32.84,8.07 32.9,8.13 32.8,8.23 32.93,8.34 33.02,8.24 "/>
   <path class="fil4" d="M33.01 8.47c0.07,-0.08 0.19,-0.08 0.27,0 0.09,0.07 0.09,0.19 0.02,0.27 -0.07,0.08 -0.19,0.08 -0.27,0 -0.09,-0.07 -0.09,-0.19 -0.02,-0.27zm0.23 0.21l0 0c0.05,-0.05 0.04,-0.12 -0.01,-0.16 -0.04,-0.04 -0.11,-0.04 -0.16,0.01 -0.04,0.05 -0.04,0.12 0.01,0.16 0.04,0.04 0.11,0.04 0.16,-0.01z"/>
   <polygon class="fil4" points="33.47,8.65 33.53,8.7 33.33,8.92 33.47,9.04 33.42,9.09 33.23,8.92 "/>
   <path class="fil4" d="M33.7 8.86l0.12 0.11c0.09,0.08 0.1,0.19 0.03,0.27 -0.08,0.08 -0.18,0.08 -0.27,0l-0.12 -0.11 0.24 -0.27zm-0.08 0.32l0 0c0.05,0.05 0.12,0.05 0.17,0 0.04,-0.05 0.04,-0.11 -0.02,-0.16l-0.05 -0.05 -0.15 0.16 0.05 0.05z"/>
   <polygon class="fil4" points="34.03,9.56 33.98,9.6 33.77,9.42 34.02,9.15 34.22,9.33 34.17,9.38 34.03,9.25 33.98,9.31 34.1,9.43 34.06,9.47 33.94,9.36 33.88,9.42 "/>
   <path class="fil4" d="M34.2 9.81l0.02 -0.13 -0.01 0 -0.05 -0.05 -0.07 0.08 -0.06 -0.06 0.24 -0.27 0.12 0.11c0.07,0.06 0.08,0.14 0.03,0.2 -0.04,0.04 -0.09,0.05 -0.14,0.04l-0.01 0.14 -0.07 -0.06zm0.14 -0.27l0 0 -0.05 -0.05 -0.09 0.09 0.05 0.05c0.04,0.03 0.08,0.03 0.1,0 0.03,-0.02 0.03,-0.06 -0.01,-0.09z"/>
   <path class="fil4" d="M30.52 8.11l0.14 -0.02c-0.01,0.06 0,0.11 0.04,0.15 0.05,0.04 0.1,0.03 0.15,-0.02l0.22 -0.25 -0.18 -0.16 0.09 -0.1 0.3 0.27 -0.31 0.34c-0.11,0.13 -0.23,0.13 -0.35,0.02 -0.07,-0.06 -0.11,-0.15 -0.1,-0.23z"/>
   <path class="fil4" d="M30.95 8.5c0.03,-0.04 0.09,-0.04 0.13,0 0.04,0.03 0.05,0.09 0.01,0.13 -0.04,0.05 -0.1,0.05 -0.14,0.01 -0.04,-0.04 -0.04,-0.1 0,-0.14z"/>
   <polygon class="fil4" points="32.34,8.95 31.7,9.31 31.57,9.19 31.77,8.74 31.34,8.98 31.21,8.87 31.51,8.2 31.64,8.31 31.42,8.78 31.87,8.53 31.98,8.63 31.77,9.1 32.22,8.85 "/>
   <path class="fil4" d="M32.39 9c0.03,-0.04 0.08,-0.04 0.13,0 0.04,0.04 0.04,0.09 0.01,0.12 -0.03,0.04 -0.09,0.04 -0.13,0.01 -0.04,-0.04 -0.05,-0.1 -0.01,-0.13zm-0.1 0.13l0 0 0.12 0.1 -0.37 0.4 -0.11 -0.11 0.36 -0.39z"/>
   <polygon class="fil4" points="32.65,9.18 32.76,9.28 32.26,9.83 32.15,9.73 "/>
   <polygon class="fil4" points="32.87,9.38 32.99,9.49 32.49,10.03 32.37,9.93 "/>
   <path class="fil4" d="M33.05 9.6c0.03,-0.03 0.09,-0.04 0.13,0 0.04,0.04 0.05,0.1 0.01,0.13 -0.03,0.04 -0.09,0.04 -0.13,0 -0.04,-0.04 -0.04,-0.09 -0.01,-0.13zm-0.1 0.13l0 0 0.12 0.11 -0.36 0.4 -0.12 -0.11 0.36 -0.4z"/>
   <path class="fil4" d="M33.37 10.43l-0.21 0.22 -0.1 -0.1 0.04 -0.04c-0.05,0.01 -0.11,-0.01 -0.17,-0.06 -0.09,-0.08 -0.1,-0.19 -0.04,-0.25 0.07,-0.07 0.16,-0.08 0.28,0.03l0.09 0.09c0.05,-0.05 0.04,-0.11 -0.02,-0.17 -0.04,-0.03 -0.1,-0.06 -0.15,-0.06l0.04 -0.12c0.07,0.01 0.15,0.05 0.21,0.11 0.12,0.11 0.14,0.23 0.03,0.35zm-0.21 -0.01l0 0 0.04 -0.04 -0.08 -0.07c-0.05,-0.05 -0.09,-0.04 -0.11,-0.02 -0.03,0.03 -0.02,0.07 0.02,0.11 0.04,0.03 0.09,0.05 0.13,0.02z"/>
   <path class="fil4" d="M34.14 11.13l-0.2 0.23 -0.12 -0.11 0.19 -0.2c0.06,-0.07 0.06,-0.12 0.01,-0.17 -0.05,-0.04 -0.12,-0.04 -0.18,0.03l-0.18 0.2 -0.12 -0.11 0.19 -0.21c0.06,-0.06 0.06,-0.12 0.01,-0.16 -0.05,-0.05 -0.11,-0.05 -0.18,0.02l-0.18 0.2 -0.11 -0.1 0.36 -0.4 0.11 0.1 -0.04 0.05c0.06,-0.01 0.12,0.01 0.17,0.06 0.05,0.05 0.08,0.11 0.07,0.18 0.07,-0.01 0.14,0.01 0.2,0.07 0.1,0.09 0.11,0.2 0,0.32z"/>
   <path class="fil4" d="M34.03 11.38l0.12 -0.05c0.01,0.06 0.05,0.12 0.1,0.17 0.05,0.05 0.08,0.05 0.11,0.03 0.05,-0.07 -0.25,-0.22 -0.1,-0.38 0.07,-0.07 0.18,-0.06 0.3,0.04 0.05,0.05 0.1,0.12 0.12,0.18l-0.11 0.04c-0.02,-0.06 -0.05,-0.1 -0.09,-0.13 -0.05,-0.05 -0.09,-0.05 -0.11,-0.03 -0.06,0.07 0.24,0.22 0.1,0.38 -0.07,0.07 -0.19,0.06 -0.3,-0.05 -0.07,-0.06 -0.12,-0.14 -0.14,-0.2z"/>
   <path class="fil4" d="M38.84 15.4c0.15,-0.17 0.33,-0.18 0.46,-0.07 0.13,0.12 0.13,0.3 -0.02,0.47 -0.16,0.17 -0.34,0.18 -0.47,0.07 -0.12,-0.12 -0.13,-0.3 0.03,-0.47zm0.32 0.29l0 0c0.11,-0.12 0.11,-0.2 0.05,-0.26 -0.06,-0.05 -0.15,-0.04 -0.25,0.08 -0.11,0.11 -0.11,0.2 -0.05,0.25 0.06,0.06 0.14,0.05 0.25,-0.07z"/>
   <path class="fil4" d="M39.67 16.34c-0.09,0.1 -0.24,0.09 -0.35,-0.01 -0.14,-0.13 -0.15,-0.3 0.01,-0.47 0.16,-0.17 0.36,-0.17 0.51,-0.03 0.06,0.05 0.1,0.11 0.11,0.16l-0.12 0.05c-0.01,-0.04 -0.04,-0.08 -0.07,-0.11 -0.09,-0.08 -0.19,-0.08 -0.29,0.01 0.06,0 0.12,0.03 0.17,0.08 0.1,0.09 0.12,0.22 0.03,0.32zm-0.12 -0.1l0 0c0.05,-0.05 0.04,-0.11 -0.01,-0.16 -0.06,-0.05 -0.12,-0.05 -0.16,0 -0.04,0.04 -0.04,0.1 0.02,0.16 0.05,0.04 0.11,0.04 0.15,0z"/>
   <polygon class="fil4" points="40.33,16.1 40.43,16.19 39.56,16.66 39.46,16.57 "/>
   <path class="fil4" d="M40.34 17.06l-0.09 0.1 -0.39 -0.35 0.07 -0.08 0.37 -0.01c0.09,0 0.12,-0.02 0.14,-0.04 0.04,-0.04 0.03,-0.09 -0.02,-0.14 -0.05,-0.04 -0.1,-0.06 -0.16,-0.05l-0.03 -0.13c0.09,-0.03 0.2,0 0.29,0.09 0.11,0.1 0.14,0.23 0.05,0.32 -0.04,0.05 -0.1,0.09 -0.23,0.09l-0.22 0 0.22 0.2z"/>
   <polygon class="fil4" points="40.86,17.52 40.78,17.45 40.68,17.55 40.56,17.45 40.66,17.34 40.38,17.09 40.46,17.01 41,16.9 41.12,17.02 40.61,17.12 40.75,17.25 40.84,17.15 40.95,17.25 40.87,17.35 40.95,17.43 "/>
   <path class="fil3" d="M42.78 11.09c0.25,-0.45 0.1,-1.03 -0.31,-1.36 -0.13,-0.1 -0.27,-0.18 -0.42,-0.23 -0.38,-0.13 -0.85,0.02 -1.02,0.38 -0.14,0.3 -0.05,0.64 0.08,0.94 0.14,0.31 0.35,0.62 0.68,0.73 0.31,0.09 0.67,-0.04 0.88,-0.29 0.04,-0.05 0.08,-0.11 0.11,-0.17z"/>
   <path class="fil5" d="M39.34 12.51c0,-0.01 0.21,-0.04 0.46,-0.06 0.26,-0.01 0.46,-0.02 0.46,-0.01 0,0.01 -0.2,0.04 -0.46,0.05 -0.25,0.02 -0.46,0.03 -0.46,0.02z"/>
  </g>
  <g id="_2366986660304">
   <path class="fil6" d="M26.73 20.13l-12.52 -11.45c-0.14,-0.12 -0.15,-0.33 -0.02,-0.46l7.1 -7.77c0.12,-0.13 0.33,-0.14 0.46,-0.02l12.52 11.45c0.13,0.12 0.14,0.33 0.02,0.46l-7.11 7.77c-0.12,0.13 -0.32,0.14 -0.45,0.02z"/>
   <path class="fil2" d="M26.73 20.13l-12.52 -11.45c-0.14,-0.12 -0.15,-0.33 -0.02,-0.46l7.1 -7.77c0.12,-0.13 0.33,-0.14 0.46,-0.02l12.52 11.45c0.13,0.12 0.14,0.33 0.02,0.46l-7.11 7.77c-0.12,0.13 -0.32,0.14 -0.45,0.02z"/>
   <path class="fil6" d="M34.18 11.8l-12.34 -11.28c-0.18,-0.17 -0.47,-0.16 -0.63,0.02l-2.02 2.21c-0.04,0.05 -0.06,0.11 -0.04,0.17 0.3,1.19 1.25,2.21 2.33,2.85 1.31,0.78 2.83,1.13 4.27,1.61 1.45,0.48 2.92,1.14 3.85,2.34 0.89,1.14 1.18,2.6 1.69,3.95 0.13,0.36 0.29,0.72 0.49,1.07 0.06,0.1 0.2,0.12 0.28,0.03l2.14 -2.34c0.17,-0.18 0.16,-0.46 -0.02,-0.63z"/>
   <path class="fil4" d="M21.93 4.06c-0.1,0.1 -0.24,0.09 -0.4,-0.06l-0.32 -0.29 0.56 -0.61 0.3 0.27c0.15,0.14 0.17,0.28 0.09,0.37 -0.06,0.06 -0.13,0.08 -0.21,0.06 0.05,0.09 0.05,0.18 -0.02,0.26zm-0.11 -0.73l0 0 -0.14 0.15 0.14 0.13c0.07,0.06 0.13,0.07 0.18,0.02 0.04,-0.05 0.03,-0.1 -0.04,-0.17l-0.14 -0.13zm-0.02 0.58l0 0c0.05,-0.05 0.03,-0.11 -0.04,-0.18l-0.17 -0.15 -0.14 0.15 0.17 0.15c0.07,0.07 0.13,0.08 0.18,0.03z"/>
   <path class="fil4" d="M22.4 4.56l-0.28 -0.26 -0.17 0.08 -0.15 -0.13 0.83 -0.37 0.14 0.13 -0.28 0.86 -0.15 -0.13 0.06 -0.18zm0.06 -0.15l0 0 0.11 -0.32 -0.31 0.14 0.2 0.18z"/>
   <polygon class="fil4" points="23.67,4.83 23.11,5.44 22.99,5.34 23.03,4.69 22.69,5.06 22.55,4.93 23.11,4.32 23.22,4.43 23.19,5.07 23.53,4.7 "/>
   <polygon class="fil4" points="23.69,5.54 23.53,5.55 23.39,5.7 23.25,5.57 23.81,4.96 23.95,5.09 23.69,5.38 24.22,5.34 24.38,5.48 23.88,5.52 23.83,6.11 23.67,5.96 "/>
   <polygon class="fil4" points="19.49,6.49 19.38,6.39 19.25,6.53 19.19,6.48 19.32,6.33 19.01,6.04 19.04,6 19.68,5.9 19.74,5.96 19.13,6.06 19.37,6.28 19.49,6.15 19.55,6.2 19.43,6.33 19.54,6.44 "/>
   <path class="fil4" d="M19.92 6.85c-0.09,0.09 -0.22,0.1 -0.36,-0.02 -0.08,-0.07 -0.13,-0.17 -0.13,-0.26l0.06 -0.02c0.01,0.07 0.05,0.16 0.12,0.23 0.09,0.08 0.18,0.09 0.25,0.02 0.06,-0.07 0.05,-0.16 -0.05,-0.25l-0.04 -0.04 0.04 -0.04 0.33 -0.05 -0.29 -0.27 0.05 -0.05 0.36 0.33 -0.04 0.04 -0.34 0.06c0.12,0.11 0.12,0.23 0.04,0.32z"/>
   <path class="fil4" d="M20.37 7.26c-0.08,0.1 -0.22,0.11 -0.36,-0.02 -0.08,-0.07 -0.13,-0.17 -0.13,-0.25l0.07 -0.02c0,0.07 0.04,0.16 0.11,0.22 0.1,0.09 0.19,0.09 0.25,0.02 0.07,-0.07 0.06,-0.16 -0.08,-0.29l-0.12 -0.11 0.29 -0.25 0.3 0.28 -0.04 0.05 -0.26 -0.23 -0.18 0.16 0.07 0.06c0.17,0.16 0.17,0.28 0.08,0.38z"/>
   <path class="fil4" d="M20.87 7.71c-0.1,0.1 -0.24,0.1 -0.35,0 -0.15,-0.14 -0.14,-0.32 0.03,-0.49 0.17,-0.19 0.36,-0.2 0.52,-0.06 0.05,0.05 0.09,0.1 0.1,0.15l-0.06 0.03c-0.02,-0.05 -0.05,-0.09 -0.09,-0.13 -0.12,-0.11 -0.27,-0.1 -0.41,0.05 -0.01,0.01 -0.02,0.03 -0.04,0.05 0.09,-0.04 0.19,-0.01 0.26,0.06 0.11,0.1 0.13,0.24 0.04,0.34zm-0.06 -0.05l0 0c0.07,-0.07 0.06,-0.17 -0.03,-0.25 -0.09,-0.08 -0.19,-0.08 -0.26,-0.01 -0.05,0.06 -0.06,0.17 0.04,0.26 0.08,0.07 0.18,0.07 0.25,0z"/>
   <polygon class="fil4" points="21.93,8.98 21.95,8.69 21.66,8.74 21.59,8.68 21.96,8.62 21.99,8.27 22.05,8.33 22.03,8.61 22.3,8.56 22.37,8.61 22.02,8.67 21.99,9.04 "/>
   <polygon class="fil4" points="22.35,9.37 22.38,9.08 22.08,9.13 22.02,9.07 22.38,9.01 22.41,8.66 22.48,8.72 22.45,9 22.73,8.95 22.79,9 22.45,9.06 22.42,9.43 "/>
   <polygon class="fil4" points="22.78,9.77 22.81,9.47 22.51,9.52 22.45,9.46 22.81,9.4 22.84,9.05 22.9,9.11 22.88,9.39 23.16,9.34 23.22,9.4 22.87,9.46 22.84,9.83 "/>
   <polygon class="fil4" points="23.21,10.16 23.23,9.86 22.94,9.91 22.87,9.85 23.24,9.79 23.27,9.44 23.33,9.5 23.31,9.78 23.58,9.73 23.65,9.79 23.3,9.85 23.27,10.22 "/>
   <polygon class="fil4" points="24.68,11.51 24.71,11.21 24.41,11.26 24.35,11.2 24.71,11.14 24.74,10.79 24.81,10.85 24.78,11.13 25.06,11.08 25.12,11.14 24.78,11.2 24.75,11.57 "/>
   <polygon class="fil4" points="25.11,11.9 25.14,11.6 24.84,11.65 24.78,11.59 25.14,11.53 25.17,11.18 25.23,11.24 25.21,11.52 25.49,11.47 25.55,11.53 25.2,11.59 25.17,11.96 "/>
   <polygon class="fil4" points="25.54,12.29 25.56,11.99 25.27,12.04 25.2,11.98 25.57,11.92 25.6,11.57 25.66,11.63 25.64,11.91 25.91,11.86 25.98,11.92 25.63,11.98 25.6,12.35 "/>
   <polygon class="fil4" points="25.96,12.68 25.99,12.38 25.7,12.43 25.63,12.37 26,12.31 26.02,11.96 26.09,12.02 26.06,12.3 26.34,12.25 26.4,12.31 26.06,12.37 26.03,12.74 "/>
   <polygon class="fil4" points="27.8,13.33 27.29,13.89 27.23,13.84 27.7,13.33 27.56,13.21 27.61,13.16 "/>
   <path class="fil4" d="M27.94 14.19c-0.09,0.09 -0.22,0.1 -0.36,-0.02 -0.08,-0.07 -0.13,-0.17 -0.13,-0.26l0.07 -0.02c0,0.07 0.04,0.16 0.11,0.23 0.1,0.08 0.19,0.09 0.25,0.02 0.06,-0.07 0.05,-0.16 -0.05,-0.25l-0.04 -0.04 0.04 -0.04 0.33 -0.06 -0.28 -0.26 0.04 -0.05 0.36 0.33 -0.03 0.04 -0.34 0.06c0.11,0.11 0.11,0.23 0.03,0.32z"/>
   <polygon class="fil4" points="28.48,14.71 28.37,14.61 28.24,14.76 28.18,14.7 28.31,14.56 28,14.27 28.04,14.23 28.67,14.13 28.74,14.19 28.12,14.29 28.36,14.51 28.48,14.38 28.54,14.43 28.42,14.56 28.53,14.66 "/>
   <path class="fil4" d="M28.83 15.2l-0.05 0.06 -0.39 -0.36 0.04 -0.05 0.44 -0.01c0.12,0 0.16,-0.03 0.2,-0.07 0.06,-0.06 0.05,-0.15 -0.04,-0.22 -0.06,-0.06 -0.13,-0.09 -0.21,-0.08l-0.01 -0.07c0.09,-0.02 0.19,0.02 0.28,0.1 0.11,0.1 0.13,0.22 0.04,0.32 -0.05,0.05 -0.11,0.08 -0.25,0.09l-0.36 0.01 0.31 0.28z"/>
   <path class="fil4" d="M17.52 7.09c0.07,-0.08 0.19,-0.08 0.27,-0.01 0.05,0.05 0.07,0.1 0.07,0.15l-0.07 0c0,-0.03 -0.02,-0.07 -0.04,-0.09 -0.05,-0.05 -0.12,-0.04 -0.17,0.01 -0.04,0.05 -0.04,0.12 0.01,0.16 0.03,0.03 0.06,0.04 0.1,0.03l0 0.07c-0.05,0.01 -0.1,-0.01 -0.15,-0.05 -0.08,-0.08 -0.09,-0.19 -0.02,-0.27z"/>
   <path class="fil4" d="M17.92 7.59l-0.13 -0.11 -0.07 0.04 -0.07 -0.06 0.37 -0.16 0.06 0.06 -0.13 0.37 -0.06 -0.06 0.03 -0.08zm0.02 -0.06l0 0 0.05 -0.14 -0.13 0.06 0.08 0.08z"/>
   <path class="fil4" d="M18.15 7.91l0.02 -0.12 0 0 -0.06 -0.05 -0.07 0.08 -0.06 -0.06 0.25 -0.27 0.11 0.11c0.07,0.06 0.08,0.14 0.03,0.2 -0.04,0.04 -0.08,0.05 -0.13,0.03l-0.02 0.15 -0.07 -0.07zm0.14 -0.27l0 0 -0.05 -0.04 -0.08 0.09 0.05 0.05c0.04,0.03 0.07,0.03 0.1,0 0.02,-0.03 0.02,-0.06 -0.02,-0.1z"/>
   <path class="fil4" d="M18.27 7.97l0.06 -0.03c0.01,0.04 0.03,0.08 0.06,0.11 0.04,0.03 0.07,0.04 0.08,0.02 0.05,-0.05 -0.14,-0.16 -0.05,-0.26 0.04,-0.04 0.11,-0.05 0.19,0.02 0.03,0.03 0.06,0.07 0.07,0.11l-0.06 0.03c-0.01,-0.04 -0.03,-0.07 -0.06,-0.09 -0.03,-0.03 -0.06,-0.03 -0.08,-0.01 -0.04,0.05 0.15,0.15 0.06,0.25 -0.04,0.05 -0.12,0.05 -0.19,-0.02 -0.04,-0.04 -0.08,-0.09 -0.08,-0.13z"/>
   <polygon class="fil4" points="19.11,8.29 18.86,8.56 18.8,8.51 18.9,8.4 18.78,8.28 18.68,8.39 18.62,8.34 18.86,8.07 18.92,8.13 18.83,8.23 18.95,8.34 19.04,8.24 "/>
   <path class="fil4" d="M19.03 8.47c0.07,-0.08 0.19,-0.08 0.27,0 0.09,0.07 0.1,0.19 0.02,0.27 -0.07,0.08 -0.19,0.08 -0.27,0 -0.08,-0.07 -0.09,-0.19 -0.02,-0.27zm0.23 0.21l0 0c0.05,-0.05 0.04,-0.12 -0.01,-0.16 -0.04,-0.04 -0.11,-0.04 -0.16,0.01 -0.04,0.05 -0.04,0.12 0.01,0.16 0.05,0.04 0.11,0.04 0.16,-0.01z"/>
   <polygon class="fil4" points="19.49,8.65 19.55,8.7 19.36,8.92 19.49,9.04 19.44,9.09 19.25,8.92 "/>
   <path class="fil4" d="M19.72 8.86l0.12 0.11c0.09,0.08 0.1,0.19 0.03,0.27 -0.07,0.08 -0.18,0.08 -0.27,0l-0.12 -0.11 0.24 -0.27zm-0.08 0.32l0 0c0.06,0.05 0.12,0.05 0.17,0 0.04,-0.05 0.04,-0.11 -0.02,-0.16l-0.05 -0.05 -0.15 0.16 0.05 0.05z"/>
   <polygon class="fil4" points="20.05,9.56 20,9.6 19.79,9.42 20.04,9.15 20.24,9.33 20.2,9.38 20.06,9.25 20,9.31 20.13,9.43 20.08,9.47 19.96,9.36 19.9,9.42 "/>
   <path class="fil4" d="M20.22 9.81l0.02 -0.13 -0.01 0 -0.05 -0.05 -0.07 0.08 -0.06 -0.06 0.25 -0.27 0.11 0.11c0.07,0.06 0.08,0.14 0.03,0.2 -0.04,0.04 -0.09,0.05 -0.13,0.04l-0.02 0.14 -0.07 -0.06zm0.14 -0.27l0 0 -0.05 -0.05 -0.08 0.09 0.05 0.05c0.03,0.03 0.07,0.03 0.1,0 0.02,-0.02 0.02,-0.06 -0.02,-0.09z"/>
   <path class="fil4" d="M16.54 8.11l0.14 -0.02c-0.01,0.06 0,0.11 0.04,0.15 0.05,0.04 0.1,0.03 0.15,-0.02l0.23 -0.25 -0.19 -0.16 0.09 -0.1 0.3 0.27 -0.3 0.34c-0.12,0.13 -0.24,0.13 -0.36,0.02 -0.07,-0.06 -0.11,-0.15 -0.1,-0.23z"/>
   <path class="fil4" d="M16.97 8.5c0.04,-0.04 0.09,-0.04 0.13,0 0.04,0.03 0.05,0.09 0.01,0.13 -0.04,0.05 -0.1,0.05 -0.14,0.01 -0.04,-0.04 -0.04,-0.1 0,-0.14z"/>
   <polygon class="fil4" points="18.36,8.95 17.72,9.31 17.59,9.19 17.79,8.74 17.36,8.98 17.23,8.87 17.53,8.2 17.66,8.31 17.44,8.78 17.89,8.53 18.01,8.63 17.79,9.1 18.24,8.85 "/>
   <path class="fil4" d="M18.41 9c0.03,-0.04 0.08,-0.04 0.13,0 0.04,0.04 0.04,0.09 0.01,0.12 -0.03,0.04 -0.09,0.04 -0.13,0.01 -0.04,-0.04 -0.05,-0.1 -0.01,-0.13zm-0.1 0.13l0 0 0.12 0.1 -0.36 0.4 -0.12 -0.11 0.36 -0.39z"/>
   <polygon class="fil4" points="18.67,9.18 18.79,9.28 18.29,9.83 18.17,9.73 "/>
   <polygon class="fil4" points="18.89,9.38 19.01,9.49 18.51,10.03 18.39,9.93 "/>
   <path class="fil4" d="M19.07 9.6c0.03,-0.03 0.09,-0.04 0.13,0 0.04,0.04 0.05,0.1 0.02,0.13 -0.04,0.04 -0.09,0.04 -0.14,0 -0.04,-0.04 -0.04,-0.09 -0.01,-0.13zm-0.09 0.13l0 0 0.11 0.11 -0.36 0.4 -0.12 -0.11 0.37 -0.4z"/>
   <path class="fil4" d="M19.39 10.43l-0.2 0.22 -0.11 -0.1 0.04 -0.04c-0.05,0.01 -0.11,-0.01 -0.17,-0.06 -0.09,-0.08 -0.1,-0.19 -0.04,-0.25 0.07,-0.07 0.16,-0.08 0.28,0.03l0.09 0.09c0.05,-0.05 0.04,-0.11 -0.02,-0.17 -0.04,-0.03 -0.09,-0.06 -0.14,-0.06l0.03 -0.12c0.07,0.01 0.15,0.05 0.21,0.11 0.12,0.11 0.14,0.23 0.03,0.35zm-0.21 -0.01l0 0 0.04 -0.04 -0.08 -0.07c-0.05,-0.05 -0.09,-0.04 -0.11,-0.02 -0.03,0.03 -0.02,0.07 0.02,0.11 0.04,0.03 0.09,0.05 0.13,0.02z"/>
   <path class="fil4" d="M20.16 11.13l-0.2 0.23 -0.12 -0.11 0.19 -0.2c0.06,-0.07 0.06,-0.12 0.01,-0.17 -0.05,-0.04 -0.11,-0.04 -0.18,0.03l-0.18 0.2 -0.11 -0.11 0.19 -0.21c0.05,-0.06 0.05,-0.12 0.01,-0.16 -0.05,-0.05 -0.12,-0.05 -0.19,0.02l-0.18 0.2 -0.11 -0.1 0.36 -0.4 0.11 0.1 -0.04 0.05c0.06,-0.01 0.12,0.01 0.17,0.06 0.05,0.05 0.08,0.11 0.07,0.18 0.07,-0.01 0.14,0.01 0.2,0.07 0.1,0.09 0.11,0.2 0,0.32z"/>
   <path class="fil4" d="M20.05 11.38l0.12 -0.05c0.01,0.06 0.05,0.12 0.1,0.17 0.05,0.05 0.09,0.05 0.11,0.03 0.06,-0.07 -0.24,-0.22 -0.1,-0.38 0.07,-0.07 0.19,-0.06 0.3,0.04 0.06,0.05 0.1,0.12 0.12,0.18l-0.11 0.04c-0.02,-0.06 -0.05,-0.1 -0.09,-0.13 -0.05,-0.05 -0.09,-0.05 -0.11,-0.03 -0.06,0.07 0.24,0.22 0.1,0.38 -0.07,0.07 -0.18,0.06 -0.3,-0.05 -0.07,-0.06 -0.12,-0.14 -0.14,-0.2z"/>
   <path class="fil4" d="M24.86 15.4c0.15,-0.17 0.34,-0.18 0.46,-0.07 0.13,0.12 0.13,0.3 -0.02,0.47 -0.16,0.17 -0.34,0.18 -0.46,0.07 -0.13,-0.12 -0.14,-0.3 0.02,-0.47zm0.32 0.29l0 0c0.11,-0.12 0.11,-0.2 0.05,-0.26 -0.06,-0.05 -0.14,-0.04 -0.25,0.08 -0.11,0.11 -0.11,0.2 -0.05,0.25 0.06,0.06 0.14,0.05 0.25,-0.07z"/>
   <path class="fil4" d="M25.7 16.34c-0.1,0.1 -0.25,0.09 -0.36,-0.01 -0.14,-0.13 -0.14,-0.3 0.01,-0.47 0.16,-0.17 0.36,-0.17 0.51,-0.03 0.06,0.05 0.1,0.11 0.11,0.16l-0.12 0.05c-0.01,-0.04 -0.04,-0.08 -0.07,-0.11 -0.09,-0.08 -0.19,-0.08 -0.28,0.01 0.05,0 0.11,0.03 0.16,0.08 0.1,0.09 0.12,0.22 0.04,0.32zm-0.13 -0.1l0 0c0.05,-0.05 0.04,-0.11 -0.01,-0.16 -0.05,-0.05 -0.12,-0.05 -0.16,0 -0.04,0.04 -0.04,0.1 0.02,0.16 0.05,0.04 0.11,0.04 0.15,0z"/>
   <polygon class="fil4" points="26.35,16.1 26.46,16.19 25.58,16.66 25.48,16.57 "/>
   <path class="fil4" d="M26.36 17.06l-0.09 0.1 -0.39 -0.35 0.07 -0.08 0.37 -0.01c0.09,0 0.12,-0.02 0.14,-0.04 0.04,-0.04 0.03,-0.09 -0.02,-0.14 -0.05,-0.04 -0.1,-0.06 -0.16,-0.05l-0.03 -0.13c0.09,-0.03 0.2,0 0.29,0.09 0.12,0.1 0.14,0.23 0.05,0.32 -0.04,0.05 -0.1,0.09 -0.23,0.09l-0.22 0 0.22 0.2z"/>
   <polygon class="fil4" points="26.88,17.52 26.8,17.45 26.7,17.55 26.58,17.45 26.68,17.34 26.4,17.09 26.48,17.01 27.02,16.9 27.14,17.02 26.64,17.12 26.77,17.25 26.86,17.15 26.97,17.25 26.89,17.35 26.97,17.43 "/>
   <path class="fil6" d="M28.8 11.09c0.25,-0.45 0.1,-1.03 -0.31,-1.36 -0.13,-0.1 -0.27,-0.18 -0.42,-0.23 -0.38,-0.13 -0.85,0.02 -1.02,0.38 -0.13,0.3 -0.05,0.64 0.09,0.94 0.13,0.31 0.34,0.62 0.67,0.73 0.31,0.09 0.67,-0.04 0.88,-0.29 0.04,-0.05 0.08,-0.11 0.11,-0.17z"/>
   <path class="fil5" d="M25.37 12.51c-0.01,-0.01 0.2,-0.04 0.45,-0.06 0.26,-0.01 0.46,-0.02 0.46,-0.01 0.01,0.01 -0.2,0.04 -0.45,0.05 -0.26,0.02 -0.46,0.03 -0.46,0.02z"/>
  </g>
  <g id="_2367166018400">
   <path class="fil1" d="M12.75 20.13l-12.52 -11.45c-0.13,-0.12 -0.14,-0.33 -0.02,-0.46l7.1 -7.77c0.12,-0.13 0.33,-0.14 0.46,-0.02l12.52 11.45c0.13,0.12 0.14,0.33 0.02,0.46l-7.11 7.77c-0.12,0.13 -0.32,0.14 -0.45,0.02z"/>
   <path class="fil2" d="M12.75 20.13l-12.52 -11.45c-0.13,-0.12 -0.14,-0.33 -0.02,-0.46l7.1 -7.77c0.12,-0.13 0.33,-0.14 0.46,-0.02l12.52 11.45c0.13,0.12 0.14,0.33 0.02,0.46l-7.11 7.77c-0.12,0.13 -0.32,0.14 -0.45,0.02z"/>
   <path class="fil3" d="M20.2 11.8l-12.34 -11.28c-0.18,-0.17 -0.46,-0.16 -0.63,0.02l-2.02 2.21c-0.04,0.05 -0.06,0.11 -0.04,0.17 0.3,1.19 1.25,2.21 2.33,2.85 1.32,0.78 2.83,1.13 4.28,1.61 1.44,0.48 2.91,1.14 3.85,2.34 0.88,1.14 1.17,2.6 1.68,3.95 0.13,0.36 0.3,0.72 0.49,1.07 0.06,0.1 0.2,0.12 0.29,0.03l2.14 -2.34c0.16,-0.18 0.15,-0.46 -0.03,-0.63z"/>
   <path class="fil4" d="M7.95 4.06c-0.1,0.1 -0.24,0.09 -0.4,-0.06l-0.31 -0.29 0.55 -0.61 0.3 0.27c0.16,0.14 0.18,0.28 0.09,0.37 -0.06,0.06 -0.13,0.08 -0.21,0.06 0.05,0.09 0.05,0.18 -0.02,0.26zm-0.11 -0.73l0 0 -0.13 0.15 0.14 0.13c0.07,0.06 0.12,0.07 0.17,0.02 0.04,-0.05 0.03,-0.1 -0.04,-0.17l-0.14 -0.13zm-0.02 0.58l0 0c0.05,-0.05 0.03,-0.11 -0.04,-0.18l-0.17 -0.15 -0.14 0.15 0.17 0.15c0.07,0.07 0.13,0.08 0.18,0.03z"/>
   <path class="fil4" d="M8.42 4.56l-0.28 -0.26 -0.17 0.08 -0.15 -0.13 0.83 -0.37 0.14 0.13 -0.28 0.86 -0.15 -0.13 0.06 -0.18zm0.06 -0.15l0 0 0.11 -0.32 -0.31 0.14 0.2 0.18z"/>
   <polygon class="fil4" points="9.69,4.83 9.13,5.44 9.01,5.34 9.05,4.69 8.71,5.06 8.57,4.93 9.13,4.32 9.24,4.43 9.21,5.07 9.55,4.7 "/>
   <polygon class="fil4" points="9.72,5.54 9.56,5.55 9.41,5.7 9.27,5.57 9.83,4.96 9.97,5.09 9.71,5.38 10.24,5.34 10.4,5.48 9.9,5.52 9.86,6.11 9.69,5.96 "/>
   <polygon class="fil4" points="5.51,6.49 5.4,6.39 5.27,6.53 5.21,6.48 5.34,6.33 5.03,6.04 5.07,6 5.7,5.9 5.77,5.96 5.15,6.06 5.39,6.28 5.51,6.15 5.57,6.2 5.45,6.33 5.56,6.44 "/>
   <path class="fil4" d="M5.94 6.85c-0.09,0.09 -0.22,0.1 -0.36,-0.02 -0.08,-0.07 -0.13,-0.17 -0.13,-0.26l0.07 -0.02c0,0.07 0.04,0.16 0.11,0.23 0.09,0.08 0.18,0.09 0.25,0.02 0.06,-0.07 0.05,-0.16 -0.05,-0.25l-0.04 -0.04 0.04 -0.04 0.33 -0.05 -0.29 -0.27 0.05 -0.05 0.36 0.33 -0.04 0.04 -0.34 0.06c0.12,0.11 0.12,0.23 0.04,0.32z"/>
   <path class="fil4" d="M6.39 7.26c-0.08,0.1 -0.22,0.11 -0.35,-0.02 -0.09,-0.07 -0.14,-0.17 -0.14,-0.25l0.07 -0.02c0,0.07 0.04,0.16 0.11,0.22 0.1,0.09 0.19,0.09 0.25,0.02 0.07,-0.07 0.07,-0.16 -0.08,-0.29l-0.12 -0.11 0.29 -0.25 0.31 0.28 -0.05 0.05 -0.26 -0.23 -0.18 0.16 0.07 0.06c0.17,0.16 0.17,0.28 0.08,0.38z"/>
   <path class="fil4" d="M6.89 7.71c-0.1,0.1 -0.24,0.1 -0.35,0 -0.15,-0.14 -0.13,-0.32 0.03,-0.49 0.17,-0.19 0.37,-0.2 0.52,-0.06 0.05,0.05 0.09,0.1 0.1,0.15l-0.06 0.03c-0.01,-0.05 -0.05,-0.09 -0.09,-0.13 -0.12,-0.11 -0.27,-0.1 -0.41,0.05 -0.01,0.01 -0.02,0.03 -0.03,0.05 0.08,-0.04 0.18,-0.01 0.25,0.06 0.12,0.1 0.13,0.24 0.04,0.34zm-0.06 -0.05l0 0c0.07,-0.07 0.06,-0.17 -0.03,-0.25 -0.08,-0.08 -0.19,-0.08 -0.26,-0.01 -0.05,0.06 -0.05,0.17 0.04,0.26 0.08,0.07 0.18,0.07 0.25,0z"/>
   <polygon class="fil4" points="7.95,8.98 7.97,8.69 7.68,8.74 7.61,8.68 7.98,8.62 8.01,8.27 8.07,8.33 8.05,8.61 8.32,8.56 8.39,8.61 8.04,8.67 8.01,9.04 "/>
   <polygon class="fil4" points="8.37,9.37 8.4,9.08 8.11,9.13 8.04,9.07 8.41,9.01 8.43,8.66 8.5,8.72 8.47,9 8.75,8.95 8.81,9 8.47,9.06 8.44,9.43 "/>
   <polygon class="fil4" points="8.8,9.77 8.83,9.47 8.53,9.52 8.47,9.46 8.83,9.4 8.86,9.05 8.93,9.11 8.9,9.39 9.18,9.34 9.24,9.4 8.9,9.46 8.87,9.83 "/>
   <polygon class="fil4" points="9.23,10.16 9.26,9.86 8.96,9.91 8.9,9.85 9.26,9.79 9.29,9.44 9.35,9.5 9.33,9.78 9.61,9.73 9.67,9.79 9.32,9.85 9.29,10.22 "/>
   <polygon class="fil4" points="10.7,11.51 10.73,11.21 10.44,11.26 10.37,11.2 10.74,11.14 10.76,10.79 10.83,10.85 10.8,11.13 11.08,11.08 11.14,11.14 10.8,11.2 10.77,11.57 "/>
   <polygon class="fil4" points="11.13,11.9 11.16,11.6 10.86,11.65 10.8,11.59 11.16,11.53 11.19,11.18 11.26,11.24 11.23,11.52 11.51,11.47 11.57,11.53 11.22,11.59 11.2,11.96 "/>
   <polygon class="fil4" points="11.56,12.29 11.59,11.99 11.29,12.04 11.23,11.98 11.59,11.92 11.62,11.57 11.68,11.63 11.66,11.91 11.94,11.86 12,11.92 11.65,11.98 11.62,12.35 "/>
   <polygon class="fil4" points="11.99,12.68 12.01,12.38 11.72,12.43 11.65,12.37 12.02,12.31 12.05,11.96 12.11,12.02 12.09,12.3 12.36,12.25 12.43,12.31 12.08,12.37 12.05,12.74 "/>
   <polygon class="fil4" points="13.82,13.33 13.31,13.89 13.25,13.84 13.72,13.33 13.59,13.21 13.63,13.16 "/>
   <path class="fil4" d="M13.96 14.19c-0.08,0.09 -0.22,0.1 -0.35,-0.02 -0.08,-0.07 -0.14,-0.17 -0.14,-0.26l0.07 -0.02c0,0.07 0.04,0.16 0.11,0.23 0.1,0.08 0.19,0.09 0.25,0.02 0.06,-0.07 0.06,-0.16 -0.05,-0.25l-0.04 -0.04 0.04 -0.04 0.33 -0.06 -0.28 -0.26 0.04 -0.05 0.36 0.33 -0.03 0.04 -0.34 0.06c0.11,0.11 0.11,0.23 0.03,0.32z"/>
   <polygon class="fil4" points="14.51,14.71 14.39,14.61 14.26,14.76 14.2,14.7 14.34,14.56 14.02,14.27 14.06,14.23 14.69,14.13 14.76,14.19 14.14,14.29 14.38,14.51 14.5,14.38 14.56,14.43 14.44,14.56 14.55,14.66 "/>
   <path class="fil4" d="M14.85 15.2l-0.05 0.06 -0.39 -0.36 0.04 -0.05 0.44 -0.01c0.12,0 0.17,-0.03 0.2,-0.07 0.06,-0.06 0.05,-0.15 -0.03,-0.22 -0.07,-0.06 -0.14,-0.09 -0.21,-0.08l-0.01 -0.07c0.09,-0.02 0.18,0.02 0.27,0.1 0.11,0.1 0.13,0.22 0.05,0.32 -0.05,0.05 -0.11,0.08 -0.26,0.09l-0.36 0.01 0.31 0.28z"/>
   <path class="fil4" d="M3.54 7.09c0.08,-0.08 0.19,-0.08 0.27,-0.01 0.05,0.05 0.07,0.1 0.07,0.15l-0.07 0c0,-0.03 -0.02,-0.07 -0.04,-0.09 -0.05,-0.05 -0.12,-0.04 -0.17,0.01 -0.04,0.05 -0.04,0.12 0.01,0.16 0.03,0.03 0.06,0.04 0.1,0.03l0 0.07c-0.05,0.01 -0.1,-0.01 -0.15,-0.05 -0.08,-0.08 -0.09,-0.19 -0.02,-0.27z"/>
   <path class="fil4" d="M3.94 7.59l-0.12 -0.11 -0.08 0.04 -0.06 -0.06 0.36 -0.16 0.06 0.06 -0.12 0.37 -0.07 -0.06 0.03 -0.08zm0.02 -0.06l0 0 0.05 -0.14 -0.13 0.06 0.08 0.08z"/>
   <path class="fil4" d="M4.17 7.91l0.02 -0.12 0 0 -0.06 -0.05 -0.06 0.08 -0.07 -0.06 0.25 -0.27 0.11 0.11c0.08,0.06 0.09,0.14 0.03,0.2 -0.03,0.04 -0.08,0.05 -0.13,0.03l-0.02 0.15 -0.07 -0.07zm0.14 -0.27l0 0 -0.05 -0.04 -0.08 0.09 0.05 0.05c0.04,0.03 0.07,0.03 0.1,0 0.03,-0.03 0.02,-0.06 -0.02,-0.1z"/>
   <path class="fil4" d="M4.29 7.97l0.06 -0.03c0.01,0.04 0.03,0.08 0.06,0.11 0.04,0.03 0.07,0.04 0.08,0.02 0.05,-0.05 -0.14,-0.16 -0.05,-0.26 0.04,-0.04 0.12,-0.05 0.19,0.02 0.03,0.03 0.06,0.07 0.07,0.11l-0.06 0.03c-0.01,-0.04 -0.03,-0.07 -0.05,-0.09 -0.04,-0.03 -0.07,-0.03 -0.08,-0.01 -0.05,0.05 0.14,0.15 0.05,0.25 -0.04,0.05 -0.11,0.05 -0.19,-0.02 -0.04,-0.04 -0.07,-0.09 -0.08,-0.13z"/>
   <polygon class="fil4" points="5.13,8.29 4.88,8.56 4.82,8.51 4.92,8.4 4.8,8.28 4.7,8.39 4.64,8.34 4.88,8.07 4.94,8.13 4.85,8.23 4.97,8.34 5.07,8.24 "/>
   <path class="fil4" d="M5.05 8.47c0.07,-0.08 0.19,-0.08 0.27,0 0.09,0.07 0.1,0.19 0.02,0.27 -0.07,0.08 -0.18,0.08 -0.27,0 -0.08,-0.07 -0.09,-0.19 -0.02,-0.27zm0.23 0.21l0 0c0.05,-0.05 0.04,-0.12 0,-0.16 -0.05,-0.04 -0.12,-0.04 -0.17,0.01 -0.04,0.05 -0.04,0.12 0.01,0.16 0.05,0.04 0.12,0.04 0.16,-0.01z"/>
   <polygon class="fil4" points="5.51,8.65 5.58,8.7 5.38,8.92 5.51,9.04 5.47,9.09 5.27,8.92 "/>
   <path class="fil4" d="M5.74 8.86l0.13 0.11c0.08,0.08 0.1,0.19 0.02,0.27 -0.07,0.08 -0.18,0.08 -0.27,0l-0.12 -0.11 0.24 -0.27zm-0.08 0.32l0 0c0.06,0.05 0.12,0.05 0.17,0 0.05,-0.05 0.04,-0.11 -0.01,-0.16l-0.06 -0.05 -0.15 0.16 0.05 0.05z"/>
   <polygon class="fil4" points="6.07,9.56 6.02,9.6 5.82,9.42 6.06,9.15 6.26,9.33 6.22,9.38 6.08,9.25 6.02,9.31 6.15,9.43 6.1,9.47 5.98,9.36 5.92,9.42 "/>
   <path class="fil4" d="M6.24 9.81l0.02 -0.13 0 0 -0.06 -0.05 -0.07 0.08 -0.06 -0.06 0.25 -0.27 0.11 0.11c0.07,0.06 0.08,0.14 0.03,0.2 -0.04,0.04 -0.08,0.05 -0.13,0.04l-0.02 0.14 -0.07 -0.06zm0.14 -0.27l0 0 -0.05 -0.05 -0.08 0.09 0.05 0.05c0.04,0.03 0.07,0.03 0.1,0 0.02,-0.02 0.02,-0.06 -0.02,-0.09z"/>
   <path class="fil4" d="M2.56 8.11l0.14 -0.02c-0.01,0.06 0.01,0.11 0.04,0.15 0.05,0.04 0.1,0.03 0.15,-0.02l0.23 -0.25 -0.18 -0.16 0.08 -0.1 0.3 0.27 -0.3 0.34c-0.12,0.13 -0.24,0.13 -0.36,0.02 -0.07,-0.06 -0.11,-0.15 -0.1,-0.23z"/>
   <path class="fil4" d="M2.99 8.5c0.04,-0.04 0.1,-0.04 0.13,0 0.04,0.03 0.05,0.09 0.01,0.13 -0.04,0.05 -0.1,0.05 -0.14,0.01 -0.04,-0.04 -0.04,-0.1 0,-0.14z"/>
   <polygon class="fil4" points="4.38,8.95 3.74,9.31 3.61,9.19 3.82,8.74 3.38,8.98 3.25,8.87 3.56,8.2 3.68,8.31 3.46,8.78 3.92,8.53 4.03,8.63 3.81,9.1 4.26,8.85 "/>
   <path class="fil4" d="M4.43 9c0.03,-0.04 0.09,-0.04 0.13,0 0.04,0.04 0.05,0.09 0.01,0.12 -0.03,0.04 -0.09,0.04 -0.13,0.01 -0.04,-0.04 -0.04,-0.1 -0.01,-0.13zm-0.1 0.13l0 0 0.12 0.1 -0.36 0.4 -0.12 -0.11 0.36 -0.39z"/>
   <polygon class="fil4" points="4.69,9.18 4.81,9.28 4.31,9.83 4.19,9.73 "/>
   <polygon class="fil4" points="4.91,9.38 5.03,9.49 4.53,10.03 4.41,9.93 "/>
   <path class="fil4" d="M5.09 9.6c0.04,-0.03 0.09,-0.04 0.13,0 0.04,0.04 0.05,0.1 0.02,0.13 -0.04,0.04 -0.09,0.04 -0.13,0 -0.05,-0.04 -0.05,-0.09 -0.02,-0.13zm-0.09 0.13l0 0 0.11 0.11 -0.36 0.4 -0.11 -0.11 0.36 -0.4z"/>
   <path class="fil4" d="M5.41 10.43l-0.2 0.22 -0.11 -0.1 0.04 -0.04c-0.05,0.01 -0.11,-0.01 -0.17,-0.06 -0.09,-0.08 -0.1,-0.19 -0.03,-0.25 0.06,-0.07 0.15,-0.08 0.27,0.03l0.09 0.09c0.05,-0.05 0.05,-0.11 -0.02,-0.17 -0.04,-0.03 -0.09,-0.06 -0.14,-0.06l0.03 -0.12c0.07,0.01 0.15,0.05 0.21,0.11 0.12,0.11 0.14,0.23 0.03,0.35zm-0.2 -0.01l0 0 0.03 -0.04 -0.08 -0.07c-0.05,-0.05 -0.08,-0.04 -0.11,-0.02 -0.02,0.03 -0.02,0.07 0.02,0.11 0.04,0.03 0.09,0.05 0.14,0.02z"/>
   <path class="fil4" d="M6.19 11.13l-0.21 0.23 -0.12 -0.11 0.19 -0.2c0.06,-0.07 0.06,-0.12 0.02,-0.17 -0.06,-0.04 -0.12,-0.04 -0.19,0.03l-0.18 0.2 -0.11 -0.11 0.19 -0.21c0.06,-0.06 0.06,-0.12 0.01,-0.16 -0.05,-0.05 -0.12,-0.05 -0.18,0.02l-0.19 0.2 -0.11 -0.1 0.36 -0.4 0.11 0.1 -0.04 0.05c0.06,-0.01 0.12,0.01 0.17,0.06 0.06,0.05 0.08,0.11 0.07,0.18 0.07,-0.01 0.14,0.01 0.2,0.07 0.1,0.09 0.12,0.2 0.01,0.32z"/>
   <path class="fil4" d="M6.08 11.38l0.11 -0.05c0.01,0.06 0.05,0.12 0.1,0.17 0.06,0.05 0.09,0.05 0.11,0.03 0.06,-0.07 -0.24,-0.22 -0.1,-0.38 0.07,-0.07 0.19,-0.06 0.3,0.04 0.06,0.05 0.11,0.12 0.12,0.18l-0.11 0.04c-0.02,-0.06 -0.05,-0.1 -0.09,-0.13 -0.05,-0.05 -0.09,-0.05 -0.1,-0.03 -0.07,0.07 0.23,0.22 0.09,0.38 -0.07,0.07 -0.18,0.06 -0.3,-0.05 -0.07,-0.06 -0.12,-0.14 -0.13,-0.2z"/>
   <path class="fil4" d="M10.88 15.4c0.16,-0.17 0.34,-0.18 0.46,-0.07 0.13,0.12 0.14,0.3 -0.02,0.47 -0.15,0.17 -0.34,0.18 -0.46,0.07 -0.13,-0.12 -0.14,-0.3 0.02,-0.47zm0.32 0.29l0 0c0.11,-0.12 0.11,-0.2 0.05,-0.26 -0.06,-0.05 -0.14,-0.04 -0.25,0.08 -0.11,0.11 -0.11,0.2 -0.05,0.25 0.06,0.06 0.14,0.05 0.25,-0.07z"/>
   <path class="fil4" d="M11.72 16.34c-0.1,0.1 -0.25,0.09 -0.35,-0.01 -0.15,-0.13 -0.15,-0.3 0,-0.47 0.16,-0.17 0.36,-0.17 0.51,-0.03 0.06,0.05 0.1,0.11 0.12,0.16l-0.13 0.05c-0.01,-0.04 -0.04,-0.08 -0.07,-0.11 -0.09,-0.08 -0.19,-0.08 -0.28,0.01 0.06,0 0.11,0.03 0.17,0.08 0.1,0.09 0.12,0.22 0.03,0.32zm-0.12 -0.1l0 0c0.04,-0.05 0.03,-0.11 -0.02,-0.16 -0.05,-0.05 -0.12,-0.05 -0.16,0 -0.04,0.04 -0.04,0.1 0.02,0.16 0.05,0.04 0.11,0.04 0.16,0z"/>
   <polygon class="fil4" points="12.37,16.1 12.48,16.19 11.6,16.66 11.5,16.57 "/>
   <path class="fil4" d="M12.38 17.06l-0.09 0.1 -0.39 -0.35 0.07 -0.08 0.37 -0.01c0.09,0 0.12,-0.02 0.14,-0.04 0.04,-0.04 0.03,-0.09 -0.02,-0.14 -0.04,-0.04 -0.1,-0.06 -0.15,-0.05l-0.04 -0.13c0.09,-0.03 0.2,0 0.29,0.09 0.12,0.1 0.14,0.23 0.05,0.32 -0.04,0.05 -0.1,0.09 -0.23,0.09l-0.22 0 0.22 0.2z"/>
   <polygon class="fil4" points="12.9,17.52 12.82,17.45 12.72,17.55 12.6,17.45 12.7,17.34 12.43,17.09 12.5,17.01 13.04,16.9 13.17,17.02 12.66,17.12 12.8,17.25 12.88,17.15 13,17.25 12.91,17.35 12.99,17.43 "/>
   <path class="fil3" d="M14.82 11.09c0.25,-0.45 0.1,-1.03 -0.31,-1.36 -0.13,-0.1 -0.27,-0.18 -0.42,-0.23 -0.37,-0.13 -0.85,0.02 -1.02,0.38 -0.13,0.3 -0.04,0.64 0.09,0.94 0.14,0.31 0.35,0.62 0.67,0.73 0.31,0.09 0.67,-0.04 0.88,-0.29 0.04,-0.05 0.08,-0.11 0.11,-0.17z"/>
   <path class="fil5" d="M11.39 12.51c0,-0.01 0.2,-0.04 0.45,-0.06 0.26,-0.01 0.47,-0.02 0.47,-0.01 0,0.01 -0.21,0.04 -0.46,0.05 -0.26,0.02 -0.46,0.03 -0.46,0.02z"/>
  </g>
 </g>
</svg>
