<?xml version="1.0" encoding="UTF-8"?>
<!DOCTYPE svg PUBLIC "-//W3C//DTD SVG 1.1//EN" "http://www.w3.org/Graphics/SVG/1.1/DTD/svg11.dtd">
<!-- Creator: CorelDRAW 2020 (64-Bit) -->
<svg xmlns="http://www.w3.org/2000/svg" xml:space="preserve" width="376px" height="274px" version="1.1" style="shape-rendering:geometricPrecision; text-rendering:geometricPrecision; image-rendering:optimizeQuality; fill-rule:evenodd; clip-rule:evenodd"
viewBox="0 0 52.65 38.42"
 xmlns:xlink="http://www.w3.org/1999/xlink"
 xmlns:xodm="http://www.corel.com/coreldraw/odm/2003">
 <defs>
  <style type="text/css">
   <![CDATA[
    .fil7 {fill:none}
    .fil0 {fill:#F4F6FE}
    .fil5 {fill:#4A6CF9;fill-rule:nonzero}
    .fil6 {fill:#5A69F7;fill-rule:nonzero}
    .fil1 {fill:#925EF2;fill-rule:nonzero}
    .fil3 {fill:white;fill-rule:nonzero}
    .fil2 {fill:black;fill-rule:nonzero;fill-opacity:0.301961}
    .fil4 {fill:#263138;fill-rule:nonzero;fill-opacity:0.301961}
   ]]>
  </style>
   <clipPath id="id0">
    <path d="M0 0l52.65 0 0 38.42 -52.65 0 0 -38.42z"/>
   </clipPath>
 </defs>
 <g id="Слой_x0020_1">
  <metadata id="CorelCorpID_0Corel-Layer"/>
  <polygon class="fil0" points="0,0 52.65,0 52.65,38.42 0,38.42 "/>
  <g style="clip-path:url(#id0)">
   <g id="_2656968219424">
    <g>
     <path id="1" class="fil1" d="M53.01 23.07l-9.52 -8.71c-0.1,-0.09 -0.11,-0.25 -0.02,-0.35l5.4 -5.91c0.09,-0.1 0.25,-0.1 0.35,-0.01l9.52 8.71c0.1,0.09 0.11,0.24 0.02,0.34l-5.41 5.91c-0.09,0.1 -0.24,0.11 -0.34,0.02z"/>
     <path class="fil2" d="M53.01 23.07l-9.52 -8.71c-0.1,-0.09 -0.11,-0.25 -0.02,-0.35l5.4 -5.91c0.09,-0.1 0.25,-0.1 0.35,-0.01l9.52 8.71c0.1,0.09 0.11,0.24 0.02,0.34l-5.41 5.91c-0.09,0.1 -0.24,0.11 -0.34,0.02z"/>
     <path class="fil1" d="M58.67 16.73l-9.38 -8.58c-0.14,-0.13 -0.35,-0.12 -0.48,0.02l-1.54 1.68c-0.03,0.04 -0.04,0.08 -0.03,0.13 0.23,0.91 0.95,1.68 1.78,2.17 1,0.59 2.15,0.86 3.25,1.22 1.1,0.36 2.21,0.86 2.92,1.78 0.68,0.86 0.9,1.98 1.28,3.01 0.11,0.27 0.23,0.54 0.38,0.81 0.04,0.08 0.15,0.09 0.22,0.02l1.62 -1.78c0.13,-0.14 0.12,-0.35 -0.02,-0.48z"/>
     <path class="fil3" d="M49.36 10.84c-0.08,0.08 -0.18,0.07 -0.3,-0.04l-0.24 -0.22 0.42 -0.46 0.23 0.2c0.11,0.11 0.13,0.21 0.06,0.29 -0.04,0.04 -0.1,0.06 -0.15,0.04 0.03,0.06 0.03,0.13 -0.02,0.19zm-0.09 -0.55l0 0 -0.1 0.11 0.11 0.1c0.05,0.05 0.1,0.06 0.13,0.02 0.03,-0.04 0.02,-0.08 -0.03,-0.13l-0.11 -0.1zm-0.01 0.44l0 0c0.03,-0.04 0.02,-0.08 -0.03,-0.13l-0.13 -0.12 -0.1 0.12 0.12 0.11c0.06,0.05 0.1,0.06 0.14,0.02z"/>
     <path class="fil3" d="M49.72 11.22l-0.22 -0.19 -0.13 0.06 -0.11 -0.1 0.63 -0.28 0.11 0.1 -0.22 0.65 -0.11 -0.1 0.05 -0.14zm0.04 -0.11l0 0 0.09 -0.24 -0.24 0.11 0.15 0.13z"/>
     <polygon class="fil3" points="50.68,11.43 50.25,11.9 50.17,11.82 50.19,11.32 49.94,11.6 49.83,11.51 50.25,11.04 50.34,11.13 50.32,11.62 50.57,11.34 "/>
     <polygon class="fil3" points="50.7,11.97 50.58,11.98 50.47,12.1 50.36,12 50.79,11.53 50.9,11.63 50.7,11.85 51.1,11.82 51.22,11.93 50.84,11.96 50.81,12.4 50.68,12.29 "/>
     <polygon class="fil3" points="47.5,12.69 47.42,12.61 47.32,12.73 47.27,12.69 47.38,12.57 47.14,12.36 47.16,12.32 47.65,12.25 47.7,12.29 47.23,12.37 47.41,12.54 47.5,12.44 47.55,12.48 47.46,12.58 47.54,12.65 "/>
     <path class="fil3" d="M47.83 12.97c-0.07,0.07 -0.17,0.08 -0.27,-0.02 -0.06,-0.05 -0.1,-0.13 -0.11,-0.19l0.06 -0.02c0,0.06 0.03,0.12 0.08,0.17 0.07,0.07 0.14,0.07 0.19,0.02 0.05,-0.05 0.04,-0.12 -0.04,-0.19l-0.03 -0.03 0.03 -0.03 0.26 -0.04 -0.22 -0.2 0.03 -0.04 0.28 0.25 -0.03 0.03 -0.26 0.04c0.09,0.09 0.09,0.18 0.03,0.25z"/>
     <path class="fil3" d="M48.17 13.28c-0.06,0.07 -0.16,0.08 -0.27,-0.01 -0.06,-0.06 -0.1,-0.13 -0.1,-0.2l0.05 -0.01c0,0.05 0.03,0.12 0.09,0.17 0.07,0.06 0.14,0.06 0.19,0.01 0.05,-0.05 0.05,-0.12 -0.06,-0.22l-0.09 -0.08 0.21 -0.19 0.24 0.21 -0.04 0.04 -0.19 -0.18 -0.14 0.12 0.05 0.05c0.13,0.12 0.13,0.22 0.06,0.29z"/>
     <path class="fil3" d="M48.55 13.62c-0.07,0.08 -0.18,0.08 -0.26,0 -0.12,-0.1 -0.11,-0.24 0.02,-0.37 0.13,-0.15 0.28,-0.15 0.39,-0.05 0.04,0.04 0.07,0.08 0.08,0.12l-0.05 0.02c-0.01,-0.04 -0.03,-0.07 -0.06,-0.1 -0.09,-0.08 -0.21,-0.08 -0.31,0.04 -0.01,0.01 -0.02,0.02 -0.03,0.04 0.06,-0.03 0.14,-0.01 0.19,0.04 0.09,0.08 0.1,0.18 0.03,0.26zm-0.04 -0.04l0 0c0.05,-0.05 0.04,-0.13 -0.03,-0.19 -0.06,-0.06 -0.14,-0.06 -0.19,0 -0.04,0.04 -0.05,0.12 0.03,0.19 0.06,0.06 0.14,0.06 0.19,0z"/>
     <polygon class="fil3" points="49.36,14.59 49.38,14.36 49.15,14.4 49.1,14.36 49.38,14.31 49.4,14.05 49.45,14.09 49.43,14.3 49.64,14.27 49.69,14.31 49.43,14.35 49.4,14.64 "/>
     <polygon class="fil3" points="49.68,14.89 49.7,14.66 49.48,14.7 49.43,14.66 49.7,14.61 49.73,14.34 49.78,14.39 49.76,14.6 49.97,14.56 50.01,14.61 49.75,14.65 49.73,14.93 "/>
     <polygon class="fil3" points="50,15.19 50.03,14.96 49.8,15 49.75,14.95 50.03,14.91 50.05,14.64 50.1,14.68 50.08,14.9 50.29,14.86 50.34,14.9 50.08,14.95 50.05,15.23 "/>
     <polygon class="fil3" points="50.33,15.48 50.35,15.26 50.13,15.3 50.08,15.25 50.35,15.2 50.38,14.94 50.42,14.98 50.41,15.19 50.62,15.16 50.66,15.2 50.4,15.25 50.38,15.53 "/>
     <polygon class="fil3" points="51.45,16.51 51.47,16.28 51.25,16.32 51.2,16.28 51.48,16.23 51.5,15.96 51.55,16.01 51.53,16.22 51.74,16.18 51.79,16.23 51.52,16.27 51.5,16.55 "/>
     <polygon class="fil3" points="51.78,16.81 51.8,16.58 51.57,16.62 51.52,16.57 51.8,16.53 51.82,16.26 51.87,16.3 51.85,16.52 52.06,16.48 52.11,16.52 51.85,16.57 51.83,16.85 "/>
     <polygon class="fil3" points="52.1,17.1 52.12,16.88 51.9,16.92 51.85,16.87 52.13,16.82 52.15,16.56 52.2,16.6 52.18,16.82 52.39,16.78 52.44,16.82 52.17,16.87 52.15,17.15 "/>
     <polygon class="fil3" points="52.43,17.4 52.45,17.17 52.22,17.21 52.17,17.17 52.45,17.12 52.47,16.85 52.52,16.9 52.5,17.11 52.71,17.07 52.76,17.12 52.5,17.16 52.48,17.44 "/>
     <polygon class="fil3" points="53.82,17.9 53.43,18.32 53.39,18.28 53.74,17.89 53.64,17.8 53.68,17.76 "/>
     <path class="fil3" d="M53.93 18.55c-0.07,0.07 -0.17,0.08 -0.27,-0.02 -0.06,-0.05 -0.1,-0.13 -0.1,-0.19l0.05 -0.02c0,0.06 0.03,0.12 0.09,0.17 0.07,0.07 0.14,0.07 0.18,0.02 0.05,-0.05 0.05,-0.12 -0.03,-0.19l-0.03 -0.03 0.03 -0.03 0.25 -0.04 -0.22 -0.2 0.04 -0.04 0.27 0.25 -0.03 0.03 -0.26 0.04c0.09,0.09 0.09,0.18 0.03,0.25z"/>
     <polygon class="fil3" points="54.34,18.95 54.26,18.87 54.15,18.98 54.11,18.94 54.21,18.83 53.97,18.61 54,18.58 54.49,18.5 54.53,18.55 54.07,18.62 54.25,18.79 54.34,18.69 54.38,18.73 54.29,18.83 54.38,18.91 "/>
     <path class="fil3" d="M54.6 19.32l-0.03 0.04 -0.3 -0.27 0.03 -0.03 0.33 -0.02c0.1,0 0.13,-0.02 0.16,-0.05 0.04,-0.05 0.04,-0.11 -0.03,-0.17 -0.05,-0.05 -0.1,-0.07 -0.16,-0.06l-0.01 -0.05c0.07,-0.01 0.15,0.01 0.21,0.07 0.09,0.08 0.1,0.18 0.04,0.25 -0.04,0.04 -0.09,0.06 -0.19,0.07l-0.28 0.01 0.23 0.21z"/>
     <path class="fil3" d="M46.01 13.15c0.05,-0.06 0.14,-0.06 0.2,0 0.04,0.03 0.05,0.07 0.05,0.11l-0.05 0c0,-0.03 -0.01,-0.05 -0.03,-0.07 -0.04,-0.04 -0.09,-0.03 -0.13,0 -0.03,0.04 -0.03,0.09 0.01,0.13 0.02,0.02 0.04,0.02 0.07,0.02l0.01 0.06c-0.04,0 -0.08,-0.01 -0.12,-0.04 -0.06,-0.06 -0.07,-0.15 -0.01,-0.21z"/>
     <path class="fil3" d="M46.31 13.53l-0.1 -0.08 -0.05 0.02 -0.05 -0.04 0.27 -0.12 0.05 0.04 -0.09 0.29 -0.05 -0.05 0.02 -0.06zm0.02 -0.05l0 0 0.04 -0.1 -0.11 0.05 0.07 0.05z"/>
     <path class="fil3" d="M46.49 13.78l0.01 -0.1 0 0 -0.04 -0.03 -0.06 0.05 -0.04 -0.04 0.18 -0.2 0.09 0.08c0.06,0.05 0.06,0.11 0.02,0.15 -0.03,0.03 -0.06,0.04 -0.1,0.03l-0.01 0.1 -0.05 -0.04zm0.1 -0.21l0 0 -0.03 -0.03 -0.07 0.07 0.04 0.03c0.03,0.03 0.05,0.03 0.07,0.01 0.02,-0.03 0.02,-0.05 -0.01,-0.08z"/>
     <path class="fil3" d="M46.57 13.82l0.05 -0.02c0.01,0.03 0.03,0.06 0.05,0.08 0.03,0.03 0.05,0.03 0.06,0.02 0.03,-0.04 -0.11,-0.12 -0.04,-0.2 0.03,-0.03 0.09,-0.04 0.14,0.02 0.03,0.02 0.05,0.05 0.06,0.08l-0.05 0.02c-0.01,-0.03 -0.02,-0.05 -0.04,-0.07 -0.03,-0.02 -0.05,-0.02 -0.06,-0.01 -0.04,0.04 0.11,0.12 0.04,0.19 -0.03,0.04 -0.09,0.04 -0.15,-0.01 -0.03,-0.03 -0.05,-0.07 -0.06,-0.1z"/>
     <polygon class="fil3" points="47.21,14.07 47.03,14.27 46.98,14.23 47.05,14.14 46.96,14.06 46.89,14.14 46.84,14.1 47.02,13.9 47.07,13.94 47,14.02 47.09,14.1 47.16,14.02 "/>
     <path class="fil3" d="M47.15 14.2c0.06,-0.06 0.15,-0.06 0.21,0 0.07,0.06 0.07,0.14 0.02,0.2 -0.06,0.06 -0.15,0.07 -0.21,0.01 -0.07,-0.06 -0.07,-0.15 -0.02,-0.21zm0.18 0.16l0 0c0.03,-0.04 0.03,-0.09 -0.01,-0.12 -0.03,-0.04 -0.08,-0.03 -0.12,0 -0.03,0.04 -0.03,0.09 0.01,0.13 0.03,0.03 0.08,0.03 0.12,-0.01z"/>
     <polygon class="fil3" points="47.51,14.34 47.55,14.38 47.4,14.54 47.5,14.64 47.47,14.67 47.32,14.54 "/>
     <path class="fil3" d="M47.68 14.5l0.09 0.08c0.07,0.06 0.08,0.14 0.02,0.2 -0.05,0.07 -0.14,0.06 -0.2,0l-0.1 -0.08 0.19 -0.2zm-0.06 0.24l0 0c0.04,0.04 0.09,0.04 0.12,0 0.04,-0.04 0.04,-0.09 0,-0.12l-0.05 -0.04 -0.11 0.12 0.04 0.04z"/>
     <polygon class="fil3" points="47.93,15.03 47.89,15.06 47.74,14.92 47.92,14.72 48.07,14.86 48.04,14.89 47.93,14.8 47.89,14.84 47.99,14.93 47.95,14.96 47.86,14.88 47.82,14.92 "/>
     <path class="fil3" d="M48.06 15.22l0.01 -0.1 0 0 -0.04 -0.04 -0.05 0.06 -0.05 -0.04 0.19 -0.21 0.08 0.08c0.06,0.05 0.07,0.11 0.02,0.16 -0.02,0.03 -0.06,0.04 -0.1,0.03l-0.01 0.1 -0.05 -0.04zm0.11 -0.21l0 0 -0.04 -0.03 -0.07 0.07 0.04 0.03c0.03,0.03 0.06,0.03 0.08,0.01 0.02,-0.03 0.02,-0.05 -0.01,-0.08z"/>
     <path class="fil3" d="M45.26 13.93l0.1 -0.02c0,0.05 0.01,0.09 0.04,0.11 0.03,0.03 0.07,0.03 0.11,-0.01l0.17 -0.19 -0.13 -0.12 0.06 -0.08 0.23 0.21 -0.23 0.25c-0.09,0.1 -0.18,0.1 -0.28,0.02 -0.05,-0.05 -0.08,-0.11 -0.07,-0.17z"/>
     <path class="fil3" d="M45.59 14.22c0.02,-0.03 0.07,-0.03 0.1,0 0.03,0.03 0.03,0.07 0,0.1 -0.03,0.04 -0.07,0.04 -0.1,0.01 -0.03,-0.03 -0.03,-0.07 0,-0.11z"/>
     <polygon class="fil3" points="46.64,14.56 46.16,14.84 46.06,14.75 46.21,14.41 45.88,14.59 45.79,14.5 46.02,13.99 46.11,14.08 45.95,14.43 46.29,14.24 46.37,14.32 46.21,14.68 46.55,14.49 "/>
     <path class="fil3" d="M46.68 14.6c0.03,-0.03 0.07,-0.03 0.1,0 0.03,0.03 0.03,0.07 0.01,0.1 -0.03,0.03 -0.07,0.03 -0.1,0 -0.03,-0.03 -0.03,-0.07 -0.01,-0.1zm-0.07 0.1l0 0 0.09 0.08 -0.28 0.3 -0.09 -0.08 0.28 -0.3z"/>
     <polygon class="fil3" points="46.88,14.74 46.97,14.82 46.59,15.23 46.5,15.15 "/>
     <polygon class="fil3" points="47.05,14.89 47.14,14.97 46.76,15.39 46.67,15.31 "/>
     <path class="fil3" d="M47.18 15.06c0.03,-0.03 0.07,-0.03 0.1,0 0.04,0.03 0.04,0.07 0.01,0.1 -0.02,0.03 -0.06,0.03 -0.1,0 -0.03,-0.03 -0.03,-0.07 -0.01,-0.1zm-0.07 0.1l0 0 0.09 0.08 -0.28 0.3 -0.08 -0.08 0.27 -0.3z"/>
     <path class="fil3" d="M47.43 15.69l-0.16 0.17 -0.08 -0.07 0.03 -0.04c-0.04,0.01 -0.08,0 -0.13,-0.04 -0.07,-0.07 -0.07,-0.15 -0.02,-0.2 0.04,-0.05 0.12,-0.05 0.21,0.03l0.07 0.06c0.03,-0.03 0.03,-0.08 -0.02,-0.12 -0.03,-0.03 -0.07,-0.05 -0.11,-0.05l0.02 -0.09c0.06,0.01 0.12,0.04 0.17,0.08 0.09,0.09 0.1,0.18 0.02,0.27zm-0.16 -0.01l0 0 0.03 -0.03 -0.06 -0.05c-0.04,-0.04 -0.07,-0.03 -0.09,-0.01 -0.02,0.02 -0.01,0.05 0.02,0.08 0.03,0.02 0.07,0.03 0.1,0.01z"/>
     <path class="fil3" d="M48.02 16.22l-0.16 0.18 -0.09 -0.08 0.15 -0.16c0.04,-0.05 0.04,-0.09 0,-0.13 -0.03,-0.03 -0.08,-0.03 -0.13,0.02l-0.14 0.15 -0.09 -0.08 0.15 -0.15c0.04,-0.05 0.04,-0.09 0,-0.13 -0.03,-0.03 -0.09,-0.03 -0.13,0.02l-0.14 0.15 -0.09 -0.08 0.28 -0.3 0.08 0.08 -0.03 0.03c0.04,0 0.09,0.01 0.13,0.05 0.04,0.04 0.06,0.09 0.05,0.14 0.05,-0.01 0.11,0.01 0.15,0.05 0.08,0.06 0.09,0.15 0.01,0.24z"/>
     <path class="fil3" d="M47.93 16.41l0.09 -0.03c0.01,0.04 0.04,0.09 0.08,0.12 0.04,0.04 0.06,0.04 0.08,0.03 0.04,-0.05 -0.19,-0.17 -0.08,-0.29 0.06,-0.06 0.15,-0.05 0.23,0.03 0.04,0.04 0.08,0.09 0.09,0.13l-0.08 0.04c-0.02,-0.05 -0.04,-0.08 -0.07,-0.1 -0.04,-0.04 -0.06,-0.04 -0.08,-0.03 -0.05,0.05 0.18,0.17 0.07,0.29 -0.05,0.06 -0.14,0.05 -0.23,-0.04 -0.05,-0.04 -0.09,-0.1 -0.1,-0.15z"/>
     <path class="fil3" d="M51.59 19.47c0.11,-0.13 0.25,-0.14 0.35,-0.05 0.1,0.09 0.1,0.23 -0.02,0.35 -0.12,0.13 -0.25,0.14 -0.35,0.05 -0.1,-0.08 -0.1,-0.22 0.02,-0.35zm0.24 0.22l0 0c0.08,-0.09 0.08,-0.15 0.04,-0.19 -0.05,-0.05 -0.11,-0.04 -0.19,0.05 -0.08,0.09 -0.09,0.16 -0.04,0.2 0.04,0.04 0.11,0.03 0.19,-0.06z"/>
     <path class="fil3" d="M52.22 20.18c-0.07,0.08 -0.18,0.07 -0.27,0 -0.1,-0.1 -0.11,-0.23 0.01,-0.36 0.12,-0.13 0.27,-0.13 0.39,-0.02 0.04,0.03 0.07,0.08 0.08,0.12l-0.09 0.04c-0.01,-0.04 -0.03,-0.07 -0.06,-0.09 -0.06,-0.06 -0.14,-0.06 -0.21,0.01 0.04,0 0.09,0.02 0.13,0.06 0.07,0.07 0.09,0.17 0.02,0.24zm-0.09 -0.07l0 0c0.03,-0.04 0.03,-0.09 -0.01,-0.12 -0.04,-0.04 -0.09,-0.04 -0.12,-0.01 -0.03,0.04 -0.03,0.09 0.01,0.13 0.04,0.03 0.09,0.03 0.12,0z"/>
     <polygon class="fil3" points="52.72,20 52.8,20.07 52.13,20.43 52.06,20.36 "/>
     <path class="fil3" d="M52.73 20.74l-0.07 0.07 -0.3 -0.27 0.06 -0.06 0.28 0c0.06,-0.01 0.09,-0.02 0.11,-0.04 0.02,-0.03 0.02,-0.07 -0.02,-0.11 -0.04,-0.03 -0.08,-0.04 -0.12,-0.03l-0.03 -0.1c0.07,-0.02 0.15,0 0.23,0.07 0.08,0.08 0.1,0.17 0.03,0.25 -0.03,0.03 -0.07,0.06 -0.17,0.06l-0.17 0 0.17 0.16z"/>
     <polygon class="fil3" points="53.12,21.08 53.06,21.03 52.99,21.11 52.9,21.03 52.97,20.94 52.76,20.75 52.82,20.69 53.23,20.61 53.32,20.7 52.94,20.78 53.04,20.87 53.11,20.8 53.2,20.88 53.13,20.95 53.19,21.01 "/>
     <path class="fil1" d="M54.58 16.2c0.2,-0.35 0.08,-0.79 -0.23,-1.04 -0.1,-0.08 -0.21,-0.14 -0.32,-0.18 -0.29,-0.09 -0.65,0.02 -0.78,0.29 -0.1,0.23 -0.03,0.49 0.07,0.72 0.1,0.23 0.26,0.47 0.51,0.55 0.24,0.07 0.51,-0.03 0.67,-0.22 0.03,-0.04 0.06,-0.08 0.08,-0.12z"/>
     <path class="fil4" d="M51.97 17.27c0,-0.01 0.16,-0.03 0.35,-0.04 0.19,-0.01 0.35,-0.02 0.35,-0.01 0,0.01 -0.16,0.03 -0.35,0.04 -0.19,0.01 -0.35,0.02 -0.35,0.01z"/>
    </g>
    <g>
     <path class="fil5" d="M45.07 23.07l-9.52 -8.71c-0.1,-0.09 -0.11,-0.25 -0.02,-0.35l5.41 -5.91c0.09,-0.1 0.25,-0.1 0.35,-0.01l9.52 8.71c0.1,0.09 0.1,0.24 0.01,0.34l-5.4 5.91c-0.09,0.1 -0.25,0.11 -0.35,0.02z"/>
     <path class="fil2" d="M45.07 23.07l-9.52 -8.71c-0.1,-0.09 -0.11,-0.25 -0.02,-0.35l5.41 -5.91c0.09,-0.1 0.25,-0.1 0.35,-0.01l9.52 8.71c0.1,0.09 0.1,0.24 0.01,0.34l-5.4 5.91c-0.09,0.1 -0.25,0.11 -0.35,0.02z"/>
     <path class="fil6" d="M50.74 16.73l-9.38 -8.58c-0.14,-0.13 -0.36,-0.12 -0.49,0.02l-1.53 1.68c-0.03,0.04 -0.04,0.08 -0.03,0.13 0.23,0.91 0.95,1.68 1.77,2.17 1,0.59 2.15,0.86 3.25,1.22 1.1,0.36 2.22,0.86 2.93,1.78 0.67,0.86 0.9,1.98 1.28,3.01 0.1,0.27 0.23,0.54 0.37,0.81 0.05,0.08 0.16,0.09 0.22,0.02l1.63 -1.78c0.12,-0.14 0.12,-0.35 -0.02,-0.48z"/>
     <path class="fil3" d="M41.42 10.84c-0.07,0.08 -0.18,0.07 -0.3,-0.04l-0.24 -0.22 0.42 -0.46 0.23 0.2c0.12,0.11 0.13,0.21 0.07,0.29 -0.05,0.04 -0.1,0.06 -0.16,0.04 0.04,0.06 0.03,0.13 -0.02,0.19zm-0.08 -0.55l0 0 -0.1 0.11 0.1 0.1c0.06,0.05 0.1,0.06 0.14,0.02 0.03,-0.04 0.02,-0.08 -0.04,-0.13l-0.1 -0.1zm-0.02 0.44l0 0c0.04,-0.04 0.03,-0.08 -0.03,-0.13l-0.12 -0.12 -0.11 0.12 0.13 0.11c0.05,0.05 0.1,0.06 0.13,0.02z"/>
     <path class="fil3" d="M41.78 11.22l-0.21 -0.19 -0.13 0.06 -0.11 -0.1 0.63 -0.28 0.1 0.1 -0.21 0.65 -0.12 -0.1 0.05 -0.14zm0.04 -0.11l0 0 0.09 -0.24 -0.23 0.11 0.14 0.13z"/>
     <polygon class="fil3" points="42.74,11.43 42.32,11.9 42.23,11.82 42.26,11.32 42,11.6 41.89,11.51 42.32,11.04 42.41,11.13 42.38,11.62 42.64,11.34 "/>
     <polygon class="fil3" points="42.77,11.97 42.64,11.98 42.54,12.1 42.43,12 42.85,11.53 42.96,11.63 42.76,11.85 43.17,11.82 43.29,11.93 42.9,11.96 42.87,12.4 42.75,12.29 "/>
     <polygon class="fil3" points="39.57,12.69 39.48,12.61 39.38,12.73 39.34,12.69 39.44,12.57 39.2,12.36 39.23,12.32 39.71,12.25 39.76,12.29 39.29,12.37 39.48,12.54 39.57,12.44 39.61,12.48 39.52,12.58 39.61,12.65 "/>
     <path class="fil3" d="M39.89 12.97c-0.06,0.07 -0.16,0.08 -0.27,-0.02 -0.06,-0.05 -0.1,-0.13 -0.1,-0.19l0.05 -0.02c0,0.06 0.03,0.12 0.09,0.17 0.07,0.07 0.14,0.07 0.19,0.02 0.04,-0.05 0.04,-0.12 -0.04,-0.19l-0.03 -0.03 0.03 -0.03 0.25 -0.04 -0.22 -0.2 0.04 -0.04 0.27 0.25 -0.03 0.03 -0.25 0.04c0.08,0.09 0.08,0.18 0.02,0.25z"/>
     <path class="fil3" d="M40.24 13.28c-0.07,0.07 -0.17,0.08 -0.27,-0.01 -0.06,-0.06 -0.1,-0.13 -0.11,-0.2l0.06 -0.01c0,0.05 0.03,0.12 0.08,0.17 0.08,0.06 0.15,0.06 0.19,0.01 0.05,-0.05 0.05,-0.12 -0.06,-0.22l-0.09 -0.08 0.22 -0.19 0.23 0.21 -0.03 0.04 -0.2 -0.18 -0.14 0.12 0.06 0.05c0.13,0.12 0.13,0.22 0.06,0.29z"/>
     <path class="fil3" d="M40.62 13.62c-0.08,0.08 -0.19,0.08 -0.27,0 -0.11,-0.1 -0.1,-0.24 0.02,-0.37 0.13,-0.15 0.28,-0.15 0.4,-0.05 0.04,0.04 0.07,0.08 0.08,0.12l-0.05 0.02c-0.01,-0.04 -0.04,-0.07 -0.07,-0.1 -0.09,-0.08 -0.2,-0.08 -0.31,0.04 -0.01,0.01 -0.02,0.02 -0.03,0.04 0.07,-0.03 0.14,-0.01 0.2,0.04 0.08,0.08 0.1,0.18 0.03,0.26zm-0.05 -0.04l0 0c0.05,-0.05 0.04,-0.13 -0.02,-0.19 -0.07,-0.06 -0.15,-0.06 -0.2,0 -0.04,0.04 -0.04,0.12 0.03,0.19 0.06,0.06 0.14,0.06 0.19,0z"/>
     <polygon class="fil3" points="41.42,14.59 41.44,14.36 41.22,14.4 41.17,14.36 41.44,14.31 41.47,14.05 41.52,14.09 41.5,14.3 41.71,14.27 41.75,14.31 41.49,14.35 41.47,14.64 "/>
     <polygon class="fil3" points="41.75,14.89 41.77,14.66 41.54,14.7 41.49,14.66 41.77,14.61 41.79,14.34 41.84,14.39 41.82,14.6 42.03,14.56 42.08,14.61 41.82,14.65 41.79,14.93 "/>
     <polygon class="fil3" points="42.07,15.19 42.09,14.96 41.87,15 41.82,14.95 42.09,14.91 42.12,14.64 42.16,14.68 42.15,14.9 42.36,14.86 42.4,14.9 42.14,14.95 42.12,15.23 "/>
     <polygon class="fil3" points="42.39,15.48 42.42,15.26 42.19,15.3 42.14,15.25 42.42,15.2 42.44,14.94 42.49,14.98 42.47,15.19 42.68,15.16 42.73,15.2 42.47,15.25 42.44,15.53 "/>
     <polygon class="fil3" points="43.52,16.51 43.54,16.28 43.31,16.32 43.26,16.28 43.54,16.23 43.56,15.96 43.61,16.01 43.59,16.22 43.8,16.18 43.85,16.23 43.59,16.27 43.57,16.55 "/>
     <polygon class="fil3" points="43.84,16.81 43.86,16.58 43.64,16.62 43.59,16.57 43.87,16.53 43.89,16.26 43.94,16.3 43.92,16.52 44.13,16.48 44.18,16.52 43.91,16.57 43.89,16.85 "/>
     <polygon class="fil3" points="44.17,17.1 44.19,16.88 43.96,16.92 43.91,16.87 44.19,16.82 44.21,16.56 44.26,16.6 44.24,16.82 44.45,16.78 44.5,16.82 44.24,16.87 44.22,17.15 "/>
     <polygon class="fil3" points="44.49,17.4 44.51,17.17 44.29,17.21 44.24,17.17 44.52,17.12 44.54,16.85 44.59,16.9 44.57,17.11 44.78,17.07 44.83,17.12 44.56,17.16 44.54,17.44 "/>
     <polygon class="fil3" points="45.89,17.9 45.5,18.32 45.45,18.28 45.81,17.89 45.71,17.8 45.74,17.76 "/>
     <path class="fil3" d="M45.99 18.55c-0.06,0.07 -0.16,0.08 -0.27,-0.02 -0.06,-0.05 -0.1,-0.13 -0.1,-0.19l0.05 -0.02c0,0.06 0.04,0.12 0.09,0.17 0.07,0.07 0.14,0.07 0.19,0.02 0.05,-0.05 0.04,-0.12 -0.04,-0.19l-0.03 -0.03 0.03 -0.03 0.25 -0.04 -0.21 -0.2 0.03 -0.04 0.27 0.25 -0.02 0.03 -0.26 0.04c0.08,0.09 0.09,0.18 0.02,0.25z"/>
     <polygon class="fil3" points="46.41,18.95 46.32,18.87 46.22,18.98 46.18,18.94 46.28,18.83 46.04,18.61 46.07,18.58 46.55,18.5 46.6,18.55 46.13,18.62 46.32,18.79 46.41,18.69 46.45,18.73 46.36,18.83 46.44,18.91 "/>
     <path class="fil3" d="M46.67 19.32l-0.04 0.04 -0.29 -0.27 0.02 -0.03 0.34 -0.02c0.09,0 0.13,-0.02 0.15,-0.05 0.05,-0.05 0.04,-0.11 -0.02,-0.17 -0.05,-0.05 -0.11,-0.07 -0.16,-0.06l-0.01 -0.05c0.07,-0.01 0.14,0.01 0.21,0.07 0.08,0.08 0.1,0.18 0.03,0.25 -0.04,0.04 -0.08,0.06 -0.19,0.07l-0.27 0.01 0.23 0.21z"/>
     <path class="fil3" d="M38.07 13.15c0.06,-0.06 0.14,-0.06 0.21,0 0.03,0.03 0.05,0.07 0.05,0.11l-0.06 0c0,-0.03 -0.01,-0.05 -0.03,-0.07 -0.04,-0.04 -0.09,-0.03 -0.12,0 -0.04,0.04 -0.03,0.09 0,0.13 0.02,0.02 0.05,0.02 0.08,0.02l0 0.06c-0.04,0 -0.08,-0.01 -0.12,-0.04 -0.06,-0.06 -0.07,-0.15 -0.01,-0.21z"/>
     <path class="fil3" d="M38.37 13.53l-0.09 -0.08 -0.06 0.02 -0.05 -0.04 0.28 -0.12 0.05 0.04 -0.1 0.29 -0.05 -0.05 0.02 -0.06zm0.02 -0.05l0 0 0.04 -0.1 -0.1 0.05 0.06 0.05z"/>
     <path class="fil3" d="M38.55 13.78l0.01 -0.1 0 0 -0.04 -0.03 -0.05 0.05 -0.05 -0.04 0.19 -0.2 0.09 0.08c0.05,0.05 0.06,0.11 0.02,0.15 -0.03,0.03 -0.07,0.04 -0.1,0.03l-0.02 0.1 -0.05 -0.04zm0.11 -0.21l0 0 -0.04 -0.03 -0.06 0.07 0.03 0.03c0.03,0.03 0.06,0.03 0.08,0.01 0.02,-0.03 0.02,-0.05 -0.01,-0.08z"/>
     <path class="fil3" d="M38.64 13.82l0.05 -0.02c0,0.03 0.02,0.06 0.04,0.08 0.03,0.03 0.05,0.03 0.06,0.02 0.04,-0.04 -0.1,-0.12 -0.03,-0.2 0.03,-0.03 0.08,-0.04 0.14,0.02 0.02,0.02 0.05,0.05 0.05,0.08l-0.04 0.02c-0.01,-0.03 -0.03,-0.05 -0.05,-0.07 -0.02,-0.02 -0.04,-0.02 -0.06,-0.01 -0.03,0.04 0.11,0.12 0.04,0.19 -0.03,0.04 -0.08,0.04 -0.14,-0.01 -0.03,-0.03 -0.06,-0.07 -0.06,-0.1z"/>
     <polygon class="fil3" points="39.28,14.07 39.09,14.27 39.04,14.23 39.12,14.14 39.03,14.06 38.95,14.14 38.9,14.1 39.09,13.9 39.14,13.94 39.06,14.02 39.16,14.1 39.23,14.02 "/>
     <path class="fil3" d="M39.22 14.2c0.05,-0.06 0.14,-0.06 0.21,0 0.06,0.06 0.07,0.14 0.01,0.2 -0.05,0.06 -0.14,0.07 -0.21,0.01 -0.06,-0.06 -0.07,-0.15 -0.01,-0.21zm0.17 0.16l0 0c0.04,-0.04 0.04,-0.09 0,-0.12 -0.04,-0.04 -0.09,-0.03 -0.12,0 -0.04,0.04 -0.04,0.09 0,0.13 0.04,0.03 0.09,0.03 0.12,-0.01z"/>
     <polygon class="fil3" points="39.57,14.34 39.62,14.38 39.47,14.54 39.57,14.64 39.53,14.67 39.38,14.54 "/>
     <path class="fil3" d="M39.75 14.5l0.09 0.08c0.06,0.06 0.07,0.14 0.02,0.2 -0.06,0.07 -0.14,0.06 -0.21,0l-0.09 -0.08 0.19 -0.2zm-0.06 0.24l0 0c0.04,0.04 0.08,0.04 0.12,0 0.04,-0.04 0.03,-0.09 -0.01,-0.12l-0.04 -0.04 -0.12 0.12 0.05 0.04z"/>
     <polygon class="fil3" points="39.99,15.03 39.96,15.06 39.8,14.92 39.99,14.72 40.14,14.86 40.11,14.89 40,14.8 39.96,14.84 40.05,14.93 40.02,14.96 39.92,14.88 39.88,14.92 "/>
     <path class="fil3" d="M40.12 15.22l0.02 -0.1 -0.01 0 -0.04 -0.04 -0.05 0.06 -0.04 -0.04 0.18 -0.21 0.09 0.08c0.05,0.05 0.06,0.11 0.02,0.16 -0.03,0.03 -0.06,0.04 -0.1,0.03l-0.01 0.1 -0.06 -0.04zm0.11 -0.21l0 0 -0.04 -0.03 -0.06 0.07 0.04 0.03c0.03,0.03 0.05,0.03 0.07,0.01 0.02,-0.03 0.02,-0.05 -0.01,-0.08z"/>
     <path class="fil3" d="M37.32 13.93l0.11 -0.02c-0.01,0.05 0,0.09 0.03,0.11 0.04,0.03 0.08,0.03 0.12,-0.01l0.17 -0.19 -0.14 -0.12 0.07 -0.08 0.22 0.21 -0.23 0.25c-0.09,0.1 -0.18,0.1 -0.27,0.02 -0.05,-0.05 -0.08,-0.11 -0.08,-0.17z"/>
     <path class="fil3" d="M37.65 14.22c0.03,-0.03 0.07,-0.03 0.1,0 0.03,0.03 0.04,0.07 0.01,0.1 -0.03,0.04 -0.08,0.04 -0.11,0.01 -0.03,-0.03 -0.03,-0.07 0,-0.11z"/>
     <polygon class="fil3" points="38.71,14.56 38.22,14.84 38.12,14.75 38.28,14.41 37.95,14.59 37.85,14.5 38.08,13.99 38.17,14.08 38.01,14.43 38.36,14.24 38.44,14.32 38.28,14.68 38.62,14.49 "/>
     <path class="fil3" d="M38.75 14.6c0.02,-0.03 0.06,-0.03 0.09,0 0.04,0.03 0.04,0.07 0.02,0.1 -0.03,0.03 -0.07,0.03 -0.1,0 -0.04,-0.03 -0.04,-0.07 -0.01,-0.1zm-0.08 0.1l0 0 0.09 0.08 -0.27 0.3 -0.09 -0.08 0.27 -0.3z"/>
     <polygon class="fil3" points="38.95,14.74 39.03,14.82 38.65,15.23 38.57,15.15 "/>
     <polygon class="fil3" points="39.11,14.89 39.2,14.97 38.82,15.39 38.73,15.31 "/>
     <path class="fil3" d="M39.25 15.06c0.02,-0.03 0.07,-0.03 0.1,0 0.03,0.03 0.03,0.07 0.01,0.1 -0.03,0.03 -0.07,0.03 -0.1,0 -0.03,-0.03 -0.04,-0.07 -0.01,-0.1zm-0.07 0.1l0 0 0.08 0.08 -0.27 0.3 -0.09 -0.08 0.28 -0.3z"/>
     <path class="fil3" d="M39.49 15.69l-0.15 0.17 -0.08 -0.07 0.03 -0.04c-0.04,0.01 -0.09,0 -0.13,-0.04 -0.07,-0.07 -0.08,-0.15 -0.03,-0.2 0.05,-0.05 0.12,-0.05 0.21,0.03l0.07 0.06c0.04,-0.03 0.03,-0.08 -0.01,-0.12 -0.04,-0.03 -0.08,-0.05 -0.12,-0.05l0.03 -0.09c0.05,0.01 0.11,0.04 0.16,0.08 0.09,0.09 0.11,0.18 0.02,0.27zm-0.15 -0.01l0 0 0.02 -0.03 -0.06 -0.05c-0.04,-0.04 -0.06,-0.03 -0.08,-0.01 -0.02,0.02 -0.02,0.05 0.01,0.08 0.03,0.02 0.07,0.03 0.11,0.01z"/>
     <path class="fil3" d="M40.08 16.22l-0.16 0.18 -0.08 -0.08 0.14 -0.16c0.05,-0.05 0.04,-0.09 0.01,-0.13 -0.04,-0.03 -0.09,-0.03 -0.14,0.02l-0.14 0.15 -0.08 -0.08 0.14 -0.15c0.05,-0.05 0.05,-0.09 0.01,-0.13 -0.04,-0.03 -0.09,-0.03 -0.14,0.02l-0.14 0.15 -0.08 -0.08 0.27 -0.3 0.08 0.08 -0.03 0.03c0.05,0 0.09,0.01 0.13,0.05 0.04,0.04 0.07,0.09 0.06,0.14 0.05,-0.01 0.1,0.01 0.15,0.05 0.07,0.06 0.09,0.15 0,0.24z"/>
     <path class="fil3" d="M40 16.41l0.08 -0.03c0.02,0.04 0.05,0.09 0.08,0.12 0.04,0.04 0.07,0.04 0.08,0.03 0.05,-0.05 -0.18,-0.17 -0.07,-0.29 0.05,-0.06 0.14,-0.05 0.23,0.03 0.04,0.04 0.08,0.09 0.09,0.13l-0.09 0.04c-0.01,-0.05 -0.03,-0.08 -0.06,-0.1 -0.04,-0.04 -0.07,-0.04 -0.08,-0.03 -0.05,0.05 0.18,0.17 0.07,0.29 -0.05,0.06 -0.14,0.05 -0.23,-0.04 -0.05,-0.04 -0.09,-0.1 -0.1,-0.15z"/>
     <path class="fil3" d="M43.65 19.47c0.12,-0.13 0.26,-0.14 0.35,-0.05 0.1,0.09 0.1,0.23 -0.01,0.35 -0.12,0.13 -0.26,0.14 -0.36,0.05 -0.09,-0.08 -0.1,-0.22 0.02,-0.35zm0.25 0.22l0 0c0.08,-0.09 0.08,-0.15 0.03,-0.19 -0.04,-0.05 -0.11,-0.04 -0.19,0.05 -0.08,0.09 -0.08,0.16 -0.04,0.2 0.05,0.04 0.11,0.03 0.2,-0.06z"/>
     <path class="fil3" d="M44.29 20.18c-0.08,0.08 -0.19,0.07 -0.27,0 -0.11,-0.1 -0.11,-0.23 0,-0.36 0.13,-0.13 0.28,-0.13 0.39,-0.02 0.05,0.03 0.08,0.08 0.09,0.12l-0.09 0.04c-0.01,-0.04 -0.03,-0.07 -0.06,-0.09 -0.07,-0.06 -0.14,-0.06 -0.21,0.01 0.04,0 0.08,0.02 0.12,0.06 0.08,0.07 0.09,0.17 0.03,0.24zm-0.09 -0.07l0 0c0.03,-0.04 0.02,-0.09 -0.02,-0.12 -0.04,-0.04 -0.09,-0.04 -0.12,-0.01 -0.03,0.04 -0.03,0.09 0.02,0.13 0.04,0.03 0.08,0.03 0.12,0z"/>
     <polygon class="fil3" points="44.79,20 44.87,20.07 44.2,20.43 44.12,20.36 "/>
     <path class="fil3" d="M44.79 20.74l-0.07 0.07 -0.29 -0.27 0.05 -0.06 0.28 0c0.07,-0.01 0.09,-0.02 0.11,-0.04 0.03,-0.03 0.02,-0.07 -0.02,-0.11 -0.03,-0.03 -0.07,-0.04 -0.11,-0.03l-0.03 -0.1c0.07,-0.02 0.15,0 0.22,0.07 0.09,0.08 0.1,0.17 0.04,0.25 -0.04,0.03 -0.08,0.06 -0.18,0.06l-0.17 0 0.17 0.16z"/>
     <polygon class="fil3" points="45.19,21.08 45.13,21.03 45.05,21.11 44.96,21.03 45.04,20.94 44.83,20.75 44.88,20.69 45.29,20.61 45.39,20.7 45,20.78 45.11,20.87 45.17,20.8 45.26,20.88 45.19,20.95 45.26,21.01 "/>
     <path class="fil6" d="M46.65 16.2c0.19,-0.35 0.07,-0.79 -0.24,-1.04 -0.1,-0.08 -0.2,-0.14 -0.32,-0.18 -0.28,-0.09 -0.64,0.02 -0.77,0.29 -0.11,0.23 -0.04,0.49 0.06,0.72 0.11,0.23 0.27,0.47 0.51,0.55 0.24,0.07 0.51,-0.03 0.67,-0.22 0.04,-0.04 0.06,-0.08 0.09,-0.12z"/>
     <path class="fil4" d="M44.04 17.27c0,-0.01 0.15,-0.03 0.34,-0.04 0.2,-0.01 0.35,-0.02 0.36,-0.01 0,0.01 -0.16,0.03 -0.35,0.04 -0.2,0.01 -0.35,0.02 -0.35,0.01z"/>
    </g>
   </g>
  </g>
  <polygon class="fil7" points="0,0 52.65,0 52.65,38.42 0,38.42 "/>
 </g>
</svg>
