<?xml version="1.0" encoding="UTF-8"?>
<!DOCTYPE svg PUBLIC "-//W3C//DTD SVG 1.1//EN" "http://www.w3.org/Graphics/SVG/1.1/DTD/svg11.dtd">
<!-- Creator: CorelDRAW 2020 (64-Bit) -->
<svg xmlns="http://www.w3.org/2000/svg" xml:space="preserve" width="375px" height="186px" version="1.1" style="shape-rendering:geometricPrecision; text-rendering:geometricPrecision; image-rendering:optimizeQuality; fill-rule:evenodd; clip-rule:evenodd"
viewBox="0 0 89.21 44.23"
 xmlns:xlink="http://www.w3.org/1999/xlink"
 xmlns:xodm="http://www.corel.com/coreldraw/odm/2003">
 <defs>
  <style type="text/css">
   <![CDATA[
    .str2 {stroke:#008E8A;stroke-width:0.07;stroke-linecap:round;stroke-miterlimit:10}
    .str1 {stroke:#00B3AC;stroke-width:0.07;stroke-linecap:round;stroke-miterlimit:10}
    .str0 {stroke:#00B3AC;stroke-width:0.16;stroke-linecap:round;stroke-miterlimit:10}
    .fil44 {fill:none}
    .fil9 {fill:none;fill-rule:nonzero}
    .fil18 {fill:#010C2F}
    .fil11 {fill:#03134F}
    .fil30 {fill:#0F183F}
    .fil37 {fill:#4C99F8}
    .fil31 {fill:#838795}
    .fil33 {fill:#9599AA}
    .fil20 {fill:#A1A7B6}
    .fil36 {fill:#A5B5FF}
    .fil43 {fill:#CFD6E8}
    .fil32 {fill:#DADFF9}
    .fil0 {fill:#F4F6FE}
    .fil8 {fill:#008E8A;fill-rule:nonzero}
    .fil10 {fill:#00B3AC;fill-rule:nonzero}
    .fil19 {fill:#030F3F;fill-rule:nonzero}
    .fil29 {fill:#0F183F;fill-rule:nonzero}
    .fil25 {fill:#131D4F;fill-rule:nonzero}
    .fil1 {fill:#1A318F;fill-rule:nonzero}
    .fil5 {fill:#333333;fill-rule:nonzero}
    .fil15 {fill:#343B56;fill-rule:nonzero}
    .fil2 {fill:#425DC9;fill-rule:nonzero}
    .fil16 {fill:#495279;fill-rule:nonzero}
    .fil26 {fill:#4C99F8;fill-rule:nonzero}
    .fil23 {fill:#505985;fill-rule:nonzero}
    .fil14 {fill:#505B85;fill-rule:nonzero}
    .fil6 {fill:#5273F7;fill-rule:nonzero}
    .fil22 {fill:#56628E;fill-rule:nonzero}
    .fil35 {fill:#5A69F7;fill-rule:nonzero}
    .fil39 {fill:#6D778C;fill-rule:nonzero}
    .fil7 {fill:#829AF9;fill-rule:nonzero}
    .fil13 {fill:#838795;fill-rule:nonzero}
    .fil41 {fill:#8793AC;fill-rule:nonzero}
    .fil12 {fill:#9095A3;fill-rule:nonzero}
    .fil34 {fill:#A1A7B6;fill-rule:nonzero}
    .fil24 {fill:#A5B5FF;fill-rule:nonzero}
    .fil42 {fill:#AABADB;fill-rule:nonzero}
    .fil38 {fill:#BFC3DB;fill-rule:nonzero}
    .fil21 {fill:#CFD6E8;fill-rule:nonzero}
    .fil17 {fill:#DADFF9;fill-rule:nonzero}
    .fil27 {fill:#F2F2F2;fill-rule:nonzero}
    .fil40 {fill:#FFE15B;fill-rule:nonzero}
    .fil28 {fill:#F2F2F2;fill-rule:nonzero;fill-opacity:0.250980}
    .fil4 {fill:#999999;fill-rule:nonzero;fill-opacity:0.501961}
    .fil3 {fill:#B3B3B3;fill-rule:nonzero;fill-opacity:0.501961}
   ]]>
  </style>
   <clipPath id="id0">
    <path d="M0 0l89.21 0 0 44.23 -89.21 0 0 -44.23z"/>
   </clipPath>
 </defs>
 <g id="Слой_x0020_1">
  <metadata id="CorelCorpID_0Corel-Layer"/>
  <polygon class="fil0" points="0,0 89.21,0 89.21,44.23 0,44.23 "/>
  <g style="clip-path:url(#id0)">
   <g id="_2657013145840">
    <g>
     <path id="1" class="fil1" d="M105.69 16.92c0,0 -0.11,0.04 -0.31,0.12 -0.6,0.26 -1.95,0.93 -2.95,2.03 0,0 -7.42,-1.32 -9.44,1.32 0,0 -2.29,-0.76 -4.65,-0.76l-2.01 0c-2.36,0 -4.65,0.76 -4.65,0.76 -2.01,-2.64 -9.44,-1.32 -9.44,-1.32 -0.06,-0.07 -0.12,-0.14 -0.19,-0.2 -0.05,-0.05 -0.1,-0.11 -0.16,-0.16 -0.06,-0.06 -0.12,-0.11 -0.19,-0.17 -0.08,-0.07 -0.16,-0.14 -0.25,-0.21 0,0 0,0 0,0 -0.09,-0.08 -0.18,-0.14 -0.27,-0.21 -0.09,-0.07 -0.18,-0.13 -0.28,-0.19 -0.09,-0.07 -0.18,-0.13 -0.27,-0.18 0,0 0,0 -0.01,-0.01 -0.09,-0.05 -0.17,-0.1 -0.25,-0.15 -0.09,-0.05 -0.17,-0.1 -0.25,-0.14 -0.04,-0.02 -0.08,-0.04 -0.12,-0.06 -0.12,-0.07 -0.23,-0.13 -0.33,-0.17 -0.07,-0.04 -0.13,-0.07 -0.2,-0.1 -0.05,-0.02 -0.1,-0.04 -0.15,-0.06 -0.01,-0.01 -0.02,-0.01 -0.03,-0.02 -0.02,-0.01 -0.05,-0.02 -0.07,-0.03 -0.04,-0.01 -0.07,-0.03 -0.1,-0.04 -0.09,-0.03 -0.14,-0.05 -0.14,-0.05 1.1,-1.04 3.59,-1.95 6.02,-2.64 0.19,-0.05 0.38,-0.11 0.57,-0.16 0.19,-0.05 0.38,-0.1 0.57,-0.15 0.19,-0.05 0.38,-0.1 0.57,-0.14 0,0 0,0 0,0 0.18,-0.04 0.36,-0.09 0.53,-0.13 0.05,-0.01 0.09,-0.02 0.13,-0.03 0.07,-0.02 0.14,-0.03 0.22,-0.05 0.09,-0.03 0.18,-0.05 0.27,-0.06 0.06,-0.02 0.11,-0.03 0.16,-0.04 0.33,-0.08 0.65,-0.15 0.94,-0.21 0.15,-0.03 0.29,-0.06 0.43,-0.09 0.03,-0.01 0.05,-0.01 0.08,-0.02 0.16,-0.03 0.31,-0.06 0.45,-0.09 0.3,-0.06 0.55,-0.11 0.74,-0.14 0.04,-0.01 0.07,-0.01 0.1,-0.02 0.13,-0.03 0.22,-0.04 0.26,-0.05 0.03,0 0.04,-0.01 0.04,-0.01l12.56 0c0,0 0.35,0.07 0.94,0.18 0.18,0.04 0.38,0.08 0.59,0.12 0.05,0.01 0.09,0.02 0.14,0.03 0.07,0.01 0.14,0.03 0.2,0.04 0.02,0 0.03,0.01 0.04,0.01 0.12,0.03 0.25,0.05 0.39,0.08 0.08,0.02 0.16,0.04 0.25,0.06 0.16,0.03 0.32,0.07 0.49,0.11 0.39,0.09 0.8,0.18 1.22,0.29 0.03,0.01 0.05,0.01 0.08,0.02 0,0 0,0 0,0 0.01,0 0.01,0 0.01,0 0.55,0.14 1.13,0.29 1.71,0.45 0.15,0.05 0.3,0.09 0.45,0.14 0.13,0.03 0.26,0.07 0.39,0.11 0.19,0.06 0.38,0.12 0.57,0.18 0.13,0.04 0.25,0.08 0.37,0.12 0.31,0.1 0.61,0.21 0.91,0.32 0.13,0.05 0.26,0.1 0.38,0.15 0.01,0 0.02,0 0.03,0.01 0.13,0.05 0.27,0.1 0.4,0.16 0.1,0.04 0.18,0.08 0.27,0.11 0.07,0.03 0.14,0.06 0.2,0.09 0.16,0.08 0.32,0.15 0.47,0.23 0.06,0.03 0.12,0.06 0.18,0.09 0.57,0.29 1.05,0.6 1.39,0.93z"/>
     <path class="fil2" d="M84.12 12.89c-0.14,0.28 -0.28,0.57 -0.41,0.85 -0.56,1.24 -0.99,2.5 -1.31,3.59 -0.51,1.76 -0.72,3.06 -0.72,3.06 -2.01,-2.64 -9.44,-1.32 -9.44,-1.32 -0.06,-0.07 -0.12,-0.14 -0.19,-0.2 -0.05,-0.05 -0.1,-0.1 -0.16,-0.16 -0.06,-0.06 -0.12,-0.11 -0.19,-0.17 -0.08,-0.07 -0.16,-0.14 -0.25,-0.21 0,0 0,0 0,0 -0.09,-0.08 -0.18,-0.14 -0.27,-0.21 -0.09,-0.07 -0.18,-0.13 -0.28,-0.19 -0.09,-0.06 -0.18,-0.12 -0.27,-0.18 0,0 0,0 -0.01,-0.01 -0.08,-0.05 -0.17,-0.1 -0.25,-0.15 -0.09,-0.05 -0.17,-0.1 -0.25,-0.14 -0.04,-0.02 -0.08,-0.04 -0.12,-0.06 -0.12,-0.07 -0.23,-0.12 -0.33,-0.17 -0.07,-0.04 -0.13,-0.07 -0.2,-0.1 -0.05,-0.02 -0.1,-0.04 -0.15,-0.06 -0.01,-0.01 -0.02,-0.01 -0.03,-0.02 -0.02,-0.01 -0.05,-0.02 -0.07,-0.03 -0.04,-0.01 -0.07,-0.03 -0.1,-0.04 -0.09,-0.03 -0.14,-0.05 -0.14,-0.05 1.1,-1.04 3.59,-1.95 6.02,-2.64 0.19,-0.05 0.38,-0.11 0.57,-0.16 0.19,-0.05 0.38,-0.1 0.57,-0.15 0.19,-0.05 0.38,-0.1 0.57,-0.14 0,0 0,0 0,0 0.18,-0.05 0.36,-0.09 0.53,-0.13 0.05,-0.01 0.09,-0.02 0.13,-0.03 0.07,-0.02 0.14,-0.03 0.22,-0.05 0.09,-0.03 0.18,-0.05 0.27,-0.06 0.06,-0.02 0.11,-0.03 0.16,-0.04 0.33,-0.08 0.65,-0.15 0.94,-0.21 0.15,-0.03 0.29,-0.06 0.43,-0.09 0.03,-0.01 0.05,-0.01 0.08,-0.02 0.16,-0.03 0.31,-0.06 0.45,-0.09 0.3,-0.06 0.55,-0.11 0.74,-0.14 0.04,-0.01 0.07,-0.01 0.1,-0.02 0.13,-0.03 0.22,-0.04 0.26,-0.05 0.03,0 0.04,-0.01 0.04,-0.01l3.06 0z"/>
     <path class="fil2" d="M105.69 16.92c0,0 -0.11,0.04 -0.31,0.12 -0.6,0.26 -1.95,0.93 -2.95,2.03 0,0 -7.42,-1.32 -9.44,1.32 0,0 -0.21,-1.3 -0.72,-3.06 -0.31,-1.09 -0.74,-2.35 -1.31,-3.59 -0.12,-0.28 -0.26,-0.57 -0.4,-0.85l3.06 0c0,0 0.35,0.07 0.94,0.18 0.18,0.04 0.38,0.08 0.59,0.12 0.05,0.01 0.09,0.02 0.14,0.03 0.07,0.01 0.14,0.03 0.2,0.04 0.02,0 0.03,0.01 0.04,0.01 0.12,0.03 0.25,0.05 0.39,0.08 0.08,0.02 0.16,0.04 0.25,0.06 0.16,0.03 0.32,0.07 0.49,0.11 0.39,0.09 0.8,0.18 1.22,0.29 0.03,0.01 0.05,0.01 0.08,0.02 0,0 0,0 0,0 0.01,0 0.01,0 0.01,0 0.55,0.14 1.13,0.29 1.71,0.45 0.15,0.05 0.3,0.09 0.45,0.14 0.13,0.03 0.26,0.07 0.39,0.11 0.19,0.06 0.38,0.12 0.57,0.18 0.13,0.04 0.25,0.08 0.37,0.12 0.31,0.1 0.61,0.21 0.91,0.32 0.13,0.05 0.26,0.1 0.38,0.15 0.01,0 0.02,0 0.03,0.01 0.13,0.05 0.27,0.1 0.4,0.16 0.1,0.04 0.18,0.08 0.27,0.11 0.07,0.03 0.14,0.06 0.2,0.09 0.16,0.08 0.32,0.15 0.47,0.23 0.06,0.03 0.12,0.06 0.18,0.09 0.57,0.29 1.05,0.6 1.39,0.93z"/>
     <path class="fil1" d="M75 14.28c-0.94,1.06 -1.57,2.07 -1.99,2.89 -0.59,1.13 -0.77,1.9 -0.77,1.9 -0.06,-0.07 -0.12,-0.14 -0.19,-0.2 -0.05,-0.05 -0.1,-0.1 -0.16,-0.16 -0.06,-0.06 -0.12,-0.11 -0.19,-0.17 -0.08,-0.07 -0.16,-0.14 -0.25,-0.21 0,0 0,0 0,0 -0.09,-0.08 -0.18,-0.14 -0.27,-0.21 -0.09,-0.07 -0.18,-0.13 -0.28,-0.19 -0.09,-0.06 -0.18,-0.12 -0.27,-0.18 0,0 0,0 -0.01,-0.01 -0.08,-0.05 -0.17,-0.1 -0.25,-0.15 -0.09,-0.05 -0.17,-0.1 -0.25,-0.14 -0.04,-0.02 -0.08,-0.04 -0.12,-0.06 -0.12,-0.07 -0.23,-0.12 -0.33,-0.17 -0.07,-0.04 -0.13,-0.07 -0.2,-0.1 -0.05,-0.02 -0.1,-0.04 -0.15,-0.06 -0.01,-0.01 -0.02,-0.01 -0.03,-0.02 -0.02,-0.01 -0.05,-0.02 -0.07,-0.03 -0.04,-0.01 -0.07,-0.03 -0.1,-0.04 -0.09,-0.03 -0.14,-0.05 -0.14,-0.05 1.1,-1.04 3.59,-1.95 6.02,-2.64z"/>
     <path class="fil1" d="M105.69 16.92c0,0 -0.11,0.04 -0.31,0.12 -0.6,0.26 -1.95,0.93 -2.95,2.03 0,0 -0.17,-0.77 -0.76,-1.9 -0.42,-0.82 -1.06,-1.83 -1.99,-2.89 0.15,0.05 0.3,0.09 0.45,0.14 0.13,0.03 0.26,0.07 0.39,0.11 0.19,0.06 0.38,0.12 0.57,0.18 0.13,0.04 0.25,0.08 0.37,0.12 0.31,0.1 0.61,0.21 0.91,0.32 0.13,0.05 0.26,0.1 0.38,0.15 0.01,0 0.02,0 0.03,0.01 0.13,0.05 0.27,0.1 0.4,0.16 0.1,0.04 0.18,0.08 0.27,0.11 0.07,0.03 0.14,0.06 0.2,0.09 0.16,0.08 0.32,0.15 0.47,0.23 0.06,0.03 0.12,0.06 0.18,0.09 0.57,0.29 1.05,0.6 1.39,0.93z"/>
     <g>
      <path class="fil3" d="M87.62 7.16l0 24.8c0,0.14 -0.13,0.26 -0.28,0.26 -0.15,0 -0.28,-0.12 -0.28,-0.26l0 -24.8c0,-0.14 0.13,-0.26 0.28,-0.26 0.15,0 0.28,0.12 0.28,0.26z"/>
     </g>
     <path class="fil4" d="M87.62 13.78l0 2.05c-0.19,-0.02 -0.37,-0.05 -0.56,-0.07l0 -1.98 0.56 0z"/>
     <g>
      <path class="fil5" d="M87.34 10.63c-0.2,0 -0.36,-0.22 -0.36,-0.49l0 -3.5c0,-0.27 0.16,-0.49 0.36,-0.49 0.2,0 0.36,0.22 0.36,0.49l0 3.5c0,0.27 -0.16,0.49 -0.36,0.49z"/>
     </g>
     <g>
      <path class="fil6" d="M105.69 16.92c-2.19,-0.79 -6.38,-1.27 -10.05,-1.56 -3.74,-0.29 -6.95,-0.38 -6.95,-0.38l-2.71 0c0,0 -3.2,0.09 -6.95,0.38 -3.66,0.29 -7.85,0.77 -10.05,1.56 0,0 7.15,-7.7 13.74,-7.7 0,0 1.41,-1.4 4.62,-0.34 3.2,-1.06 4.61,0.34 4.61,0.34 6.6,0 13.74,7.7 13.74,7.7z"/>
      <path class="fil7" d="M95.64 15.36c-3.74,-0.29 -6.95,-0.38 -6.95,-0.38l-2.71 0c0,0 -3.2,0.09 -6.95,0.38 1.31,-3.52 3.69,-6.14 3.69,-6.14 0,0 1.41,-1.4 4.62,-0.34 3.2,-1.06 4.61,0.34 4.61,0.34 0,0 2.39,2.62 3.69,6.14z"/>
     </g>
    </g>
    <g>
     <path class="fil8" d="M104.79 39.38l-5.13 0c-0.09,-0.01 -0.19,-0.07 -0.26,-0.15 -0.22,-0.27 -0.43,-0.58 -0.46,-0.93 -0.04,-0.42 0.21,-0.85 0.59,-1.02 0.39,-0.17 0.88,-0.08 1.17,0.23 0,-0.11 0.03,-0.22 0.07,-0.31 0.18,-0.35 0.56,-0.6 0.94,-0.58 0.39,0.02 0.76,0.33 0.81,0.71 0.07,-0.16 0.23,-0.26 0.4,-0.3 0.17,-0.04 0.36,-0.02 0.52,0.04 0.19,0.07 0.36,0.19 0.47,0.35 0.11,0.16 0.15,0.37 0.1,0.56 0.37,-0.08 0.76,0.1 0.94,0.44 0.18,0.33 0.12,0.7 -0.16,0.96z"/>
     <path class="fil9 str0" d="M68.05 37.8c-0.15,-0.39 -0.41,-0.73 -0.75,-0.98 -0.46,-0.33 -1.05,-0.45 -1.57,-0.69 -0.99,-0.44 -1.78,-1.3 -2.13,-2.32 -0.23,-0.65 -0.29,-1.34 -0.34,-2.03"/>
     <path class="fil10" d="M61.96 32.27c-0.09,-0.07 -0.18,-0.15 -0.23,-0.26 -0.05,-0.1 -0.06,-0.23 0.01,-0.33 0.05,-0.07 0.13,-0.1 0.22,-0.12 0.25,-0.04 0.5,0.09 0.7,0.25 0.14,0.11 0.28,0.25 0.4,0.39 0.11,0.13 0.28,0.32 0.32,0.49 0.1,0.34 -0.72,-0.01 -0.84,-0.07 -0.21,-0.09 -0.4,-0.21 -0.58,-0.35z"/>
     <path class="fil10" d="M64.48 33.3c0.17,-0.18 0.33,-0.39 0.35,-0.64 0,-0.08 -0.01,-0.16 -0.07,-0.21 -0.03,-0.02 -0.06,-0.03 -0.1,-0.04 -0.26,-0.05 -0.53,0.08 -0.7,0.28 -0.17,0.2 -0.26,0.45 -0.34,0.7 -0.06,0.2 -0.13,0.52 0.2,0.4 0.24,-0.09 0.48,-0.31 0.66,-0.49z"/>
     <path class="fil10" d="M62.81 34.47c-0.09,-0.07 -0.18,-0.17 -0.14,-0.28 0.02,-0.05 0.06,-0.09 0.11,-0.12 0.18,-0.09 0.39,-0.02 0.57,0.07 0.12,0.06 0.95,0.5 0.53,0.62 -0.35,0.09 -0.8,-0.07 -1.07,-0.29z"/>
     <path class="fil10" d="M64.92 34.77c0.06,-0.15 0.11,-0.31 0.08,-0.47 -0.02,-0.07 -0.06,-0.15 -0.13,-0.19 -0.05,-0.03 -0.13,-0.02 -0.18,0 -0.06,0.03 -0.11,0.08 -0.15,0.13 -0.11,0.15 -0.15,0.35 -0.14,0.54 0,0.12 -0.01,0.47 0.18,0.43 0.14,-0.02 0.28,-0.32 0.34,-0.44z"/>
     <path class="fil10" d="M64.86 36.06c-0.17,0.08 -0.36,0.13 -0.53,0.08 -0.08,-0.02 -0.17,-0.07 -0.17,-0.16 0,-0.03 0.01,-0.06 0.03,-0.09 0.05,-0.08 0.15,-0.13 0.24,-0.17 0.18,-0.06 0.39,-0.06 0.58,0 0.08,0.03 0.18,0.06 0.11,0.16 -0.05,0.09 -0.17,0.14 -0.26,0.18z"/>
     <path class="fil8" d="M68.27 31.77c-0.16,-0.12 -0.32,-0.27 -0.36,-0.47 -0.11,-0.52 0.6,-0.98 0.42,-1.48 -0.09,-0.23 -0.34,-0.35 -0.56,-0.46 -0.39,-0.2 -0.8,-0.54 -0.77,-0.97 0.05,-0.55 0.76,-0.83 0.88,-1.36 0.16,-0.68 -0.68,-1.32 -0.44,-1.97 0.08,-0.23 0.28,-0.39 0.51,-0.47 0.22,-0.08 0.46,-0.08 0.7,-0.06 0.37,0.04 0.76,0.18 0.95,0.49 0.22,0.33 0.17,0.8 0.44,1.09 0.35,0.37 0.99,0.23 1.37,0.56 0.31,0.26 0.33,0.74 0.22,1.14 -0.08,0.29 -0.21,0.6 -0.13,0.89 0.07,0.27 0.3,0.45 0.45,0.69 0.18,0.31 0.2,0.7 0.11,1.05 -0.1,0.35 -0.31,0.66 -0.55,0.93 -0.22,0.24 -0.48,0.45 -0.79,0.57 -0.21,0.07 -0.44,0.1 -0.66,0.16 -0.17,0.06 -0.34,0.2 -0.51,0.23 -0.4,0.05 -0.98,-0.33 -1.28,-0.56z"/>
     <path class="fil9 str1" d="M70.01 32.19c0.07,-0.38 0.1,-0.76 0.11,-1.14 0.01,-0.96 -0.19,-1.91 -0.49,-2.82 -0.29,-0.92 -0.69,-1.8 -1.08,-2.67"/>
     <path class="fil9 str1" d="M69.7 28.41c0.54,-0.38 1.01,-0.86 1.38,-1.41"/>
     <path class="fil9 str1" d="M67.78 28.69c0.64,0.3 1.36,0.42 2.06,0.34"/>
     <path class="fil9 str1" d="M70.11 30.41c0.44,-0.13 0.86,-0.35 1.22,-0.64"/>
     <path class="fil9 str1" d="M68.86 31.05c0.42,0.12 0.85,0.24 1.28,0.2"/>
     <path class="fil10" d="M68.32 37.07c-0.48,-0.8 -1.14,-1.48 -1.78,-2.16 -0.43,-0.46 -0.86,-0.93 -1.14,-1.49 -0.26,-0.53 -0.39,-1.11 -0.42,-1.7 -0.02,-0.58 0.06,-1.2 0.45,-1.63 0.56,-0.63 1.6,-0.61 2.3,-0.16 0.7,0.46 1.12,1.25 1.37,2.05 0.3,0.98 0.42,2 0.44,3.02 0.01,0.72 -0.02,1.45 -0.09,2.17 -0.07,0.61 -0.08,1.49 -0.36,2.04 -0.19,-0.23 -0.17,-0.65 -0.25,-0.94 -0.11,-0.42 -0.3,-0.83 -0.52,-1.2z"/>
     <path class="fil9 str2" d="M69.28 35.79c-0.51,-0.3 -0.95,-0.72 -1.27,-1.22 -0.78,-1.19 -0.84,-2.74 -1.58,-3.96"/>
     <path class="fil9 str2" d="M66.94 31.69c0.23,-0.25 0.4,-0.56 0.5,-0.88"/>
     <path class="fil9 str2" d="M65.7 32.44c0.36,0.27 0.83,0.41 1.28,0.39 0.08,-0.01 0.17,-0.02 0.24,0.01"/>
     <path class="fil9 str2" d="M67.69 33.98c0,0.02 0.03,0.02 0.04,0.01 0.21,-0.12 0.39,-0.31 0.52,-0.52 0.13,-0.2 0.23,-0.43 0.32,-0.66"/>
     <path class="fil9 str2" d="M67.26 35.08c0.39,0.11 0.82,0.13 1.23,0.06"/>
     <path class="fil9 str1" d="M98.85 30.47c-0.41,-0.2 -0.79,-0.47 -1.1,-0.81"/>
     <path class="fil9 str1" d="M99.99 31.29c-0.43,0.06 -0.87,0.11 -1.29,0.01"/>
     <path class="fil8" d="M71.85 39.4l-8.97 0c-0.34,-0.52 -0.35,-1.19 -0.16,-1.78 0.17,-0.51 0.5,-1.01 1,-1.21 0.3,-0.12 0.65,-0.12 0.97,-0.02 0.31,0.1 0.59,0.3 0.8,0.55 0.03,-0.42 0.36,-0.8 0.78,-0.88 0.42,-0.08 0.88,0.16 1.06,0.54 0.33,-0.33 0.89,-0.41 1.32,-0.23 0.43,0.17 0.73,0.63 0.73,1.09 0,0.03 0.03,0.08 0.05,0.05 0.25,-0.3 0.59,-0.45 0.97,-0.43 0.39,0.03 0.75,0.23 1.01,0.52 0.26,0.29 0.42,0.66 0.49,1.04 0.04,0.26 0.04,0.51 -0.05,0.76z"/>
     <polygon class="fil11" points="85.33,23.42 86.17,23.42 86.17,23.59 86.12,23.59 86.12,24.76 85.37,24.76 85.37,23.59 85.33,23.59 "/>
     <polygon class="fil12" points="76.27,39.38 101.08,39.38 101.08,34.07 76.27,34.07 "/>
     <polygon class="fil13" points="97.65,37.64 101.08,37.64 101.08,39.38 97.65,39.38 "/>
     <polygon class="fil14" points="95.09,35.15 100.09,35.15 100.09,39.38 95.09,39.38 "/>
     <polygon class="fil15" points="99.36,35.7 99.85,35.7 99.85,35.32 99.36,35.32 "/>
     <polygon class="fil15" points="98.81,35.7 99.3,35.7 99.3,35.32 98.81,35.32 "/>
     <polygon class="fil15" points="98.26,35.7 98.75,35.7 98.75,35.32 98.26,35.32 "/>
     <polygon class="fil15" points="97.71,35.7 98.2,35.7 98.2,35.32 97.71,35.32 "/>
     <polygon class="fil15" points="96.98,35.7 97.48,35.7 97.48,35.32 96.98,35.32 "/>
     <polygon class="fil15" points="96.43,35.7 96.93,35.7 96.93,35.32 96.43,35.32 "/>
     <polygon class="fil15" points="95.88,35.7 96.38,35.7 96.38,35.32 95.88,35.32 "/>
     <polygon class="fil15" points="95.33,35.7 95.83,35.7 95.83,35.32 95.33,35.32 "/>
     <polygon class="fil14" points="97.96,36.47 97.96,36.04 99.81,36.04 99.81,36.47 "/>
     <path class="fil16" d="M99.77 36.08l0 0.35 -1.77 0 0 -0.35 1.77 0zm0.08 -0.08l0 0 -1.93 0 0 0.51 1.93 0 0 -0.51z"/>
     <polygon class="fil14" points="95.37,36.47 95.37,36.04 97.23,36.04 97.23,36.47 "/>
     <path class="fil16" d="M97.19 36.08l0 0.35 -1.78 0 0 -0.35 1.78 0zm0.08 -0.08l0 0 -1.94 0 0 0.51 1.94 0 0 -0.51z"/>
     <polygon class="fil14" points="97.96,37.35 97.96,36.91 99.81,36.91 99.81,37.35 "/>
     <path class="fil16" d="M99.77 36.95l0 0.36 -1.77 0 0 -0.36 1.77 0zm0.08 -0.08l0 0 -1.93 0 0 0.52 1.93 0 0 -0.52z"/>
     <polygon class="fil14" points="95.37,37.35 95.37,36.91 97.23,36.91 97.23,37.35 "/>
     <path class="fil16" d="M97.19 36.95l0 0.36 -1.78 0 0 -0.36 1.78 0zm0.08 -0.08l0 0 -1.94 0 0 0.52 1.94 0 0 -0.52z"/>
     <polygon class="fil14" points="97.96,38.22 97.96,37.78 99.81,37.78 99.81,38.22 "/>
     <path class="fil16" d="M99.77 37.82l0 0.36 -1.77 0 0 -0.36 1.77 0zm0.08 -0.08l0 0 -1.93 0 0 0.52 1.93 0 0 -0.52z"/>
     <polygon class="fil14" points="95.37,38.22 95.37,37.78 97.23,37.78 97.23,38.22 "/>
     <path class="fil16" d="M97.19 37.82l0 0.36 -1.78 0 0 -0.36 1.78 0zm0.08 -0.08l0 0 -1.94 0 0 0.52 1.94 0 0 -0.52z"/>
     <polygon class="fil14" points="97.96,39.09 97.96,38.66 99.81,38.66 99.81,39.09 "/>
     <path class="fil16" d="M99.77 38.7l0 0.35 -1.77 0 0 -0.35 1.77 0zm0.08 -0.08l0 0 -1.93 0 0 0.51 1.93 0 0 -0.51z"/>
     <polygon class="fil14" points="95.37,39.09 95.37,38.66 97.23,38.66 97.23,39.09 "/>
     <path class="fil16" d="M97.19 38.7l0 0.35 -1.78 0 0 -0.35 1.78 0zm0.08 -0.08l0 0 -1.94 0 0 0.51 1.94 0 0 -0.51z"/>
     <polygon class="fil17" points="95.01,34.93 100.19,34.93 100.19,35.15 95.01,35.15 "/>
     <polygon class="fil17" points="100.08,39.38 100.08,34.93 100.31,34.93 100.31,39.38 "/>
     <polygon class="fil17" points="94.87,39.38 94.87,34.93 95.09,34.93 95.09,39.38 "/>
     <polygon class="fil18" points="93.53,28.13 92.29,25.48 81.24,25.48 79.99,28.13 "/>
     <polygon class="fil18" points="81.53,33.65 80.28,31.01 69.23,31.01 67.98,33.65 "/>
     <polygon class="fil19" points="72.15,27.15 98.42,27.15 101.68,34.07 68.89,34.07 "/>
     <polygon class="fil11" points="95.81,27.15 94.57,24.5 83.52,24.5 82.27,27.15 "/>
     <polygon class="fil20" points="89.18,31.68 94.95,31.68 94.95,27.93 88.89,23.07 86,25.32 89.18,27.93 "/>
     <polygon class="fil20" points="94.45,27.37 88.47,27.37 86,25.42 88.89,23.07 "/>
     <polygon class="fil21" points="81.79,39.36 95.95,39.36 95.95,34.07 81.79,34.07 "/>
     <polygon class="fil21" points="68.68,39.41 77.32,39.38 77.3,33.58 72.97,30.37 68.66,33.53 "/>
     <polygon class="fil13" points="81.79,37.64 95.95,37.64 95.95,39.38 81.79,39.38 "/>
     <polygon class="fil20" points="72.94,30.22 76.77,33 69.36,33 "/>
     <polygon class="fil22" points="84.5,35.15 93.22,35.15 93.22,39.38 84.5,39.38 "/>
     <polygon class="fil15" points="92.38,35.7 92.87,35.7 92.87,35.32 92.38,35.32 "/>
     <polygon class="fil15" points="91.83,35.7 92.32,35.7 92.32,35.32 91.83,35.32 "/>
     <polygon class="fil15" points="91.28,35.7 91.77,35.7 91.77,35.32 91.28,35.32 "/>
     <polygon class="fil15" points="90.73,35.7 91.22,35.7 91.22,35.32 90.73,35.32 "/>
     <polygon class="fil15" points="89.35,35.7 89.84,35.7 89.84,35.32 89.35,35.32 "/>
     <polygon class="fil15" points="88.8,35.7 89.29,35.7 89.29,35.32 88.8,35.32 "/>
     <polygon class="fil15" points="88.25,35.7 88.74,35.7 88.74,35.32 88.25,35.32 "/>
     <polygon class="fil15" points="87.7,35.7 88.19,35.7 88.19,35.32 87.7,35.32 "/>
     <polygon class="fil15" points="86.39,35.7 86.89,35.7 86.89,35.32 86.39,35.32 "/>
     <polygon class="fil15" points="85.84,35.7 86.34,35.7 86.34,35.32 85.84,35.32 "/>
     <polygon class="fil15" points="85.29,35.7 85.79,35.7 85.79,35.32 85.29,35.32 "/>
     <polygon class="fil15" points="84.74,35.7 85.24,35.7 85.24,35.32 84.74,35.32 "/>
     <polygon class="fil22" points="90.97,36.47 90.97,36.04 92.83,36.04 92.83,36.47 "/>
     <path class="fil23" d="M92.79 36.08l0 0.35 -1.78 0 0 -0.35 1.78 0zm0.08 -0.08l0 0 -1.94 0 0 0.51 1.94 0 0 -0.51z"/>
     <polygon class="fil22" points="88.91,36.47 88.91,36.04 90.77,36.04 90.77,36.47 "/>
     <path class="fil23" d="M90.73 36.08l0 0.35 -1.78 0 0 -0.35 1.78 0zm0.08 -0.08l0 0 -1.94 0 0 0.51 1.94 0 0 -0.51z"/>
     <polygon class="fil22" points="86.85,36.47 86.85,36.04 88.7,36.04 88.7,36.47 "/>
     <path class="fil23" d="M88.66 36.08l0 0.35 -1.77 0 0 -0.35 1.77 0zm0.08 -0.08l0 0 -1.93 0 0 0.51 1.93 0 0 -0.51z"/>
     <polygon class="fil22" points="84.78,36.47 84.78,36.04 86.64,36.04 86.64,36.47 "/>
     <path class="fil23" d="M86.6 36.08l0 0.35 -1.78 0 0 -0.35 1.78 0zm0.08 -0.08l0 0 -1.94 0 0 0.51 1.94 0 0 -0.51z"/>
     <polygon class="fil22" points="90.97,37.35 90.97,36.91 92.83,36.91 92.83,37.35 "/>
     <path class="fil23" d="M92.79 36.95l0 0.36 -1.78 0 0 -0.36 1.78 0zm0.08 -0.08l0 0 -1.94 0 0 0.52 1.94 0 0 -0.52z"/>
     <polygon class="fil22" points="88.91,37.35 88.91,36.91 90.77,36.91 90.77,37.35 "/>
     <path class="fil23" d="M90.73 36.95l0 0.36 -1.78 0 0 -0.36 1.78 0zm0.08 -0.08l0 0 -1.94 0 0 0.52 1.94 0 0 -0.52z"/>
     <polygon class="fil22" points="86.85,37.35 86.85,36.91 88.7,36.91 88.7,37.35 "/>
     <path class="fil23" d="M88.66 36.95l0 0.36 -1.77 0 0 -0.36 1.77 0zm0.08 -0.08l0 0 -1.93 0 0 0.52 1.93 0 0 -0.52z"/>
     <polygon class="fil22" points="84.78,37.35 84.78,36.91 86.64,36.91 86.64,37.35 "/>
     <path class="fil23" d="M86.6 36.95l0 0.36 -1.78 0 0 -0.36 1.78 0zm0.08 -0.08l0 0 -1.94 0 0 0.52 1.94 0 0 -0.52z"/>
     <polygon class="fil22" points="90.97,38.22 90.97,37.78 92.83,37.78 92.83,38.22 "/>
     <path class="fil23" d="M92.79 37.82l0 0.36 -1.78 0 0 -0.36 1.78 0zm0.08 -0.08l0 0 -1.94 0 0 0.52 1.94 0 0 -0.52z"/>
     <polygon class="fil22" points="88.91,38.22 88.91,37.78 90.77,37.78 90.77,38.22 "/>
     <path class="fil23" d="M90.73 37.82l0 0.36 -1.78 0 0 -0.36 1.78 0zm0.08 -0.08l0 0 -1.94 0 0 0.52 1.94 0 0 -0.52z"/>
     <polygon class="fil22" points="86.85,38.22 86.85,37.78 88.7,37.78 88.7,38.22 "/>
     <path class="fil23" d="M88.66 37.82l0 0.36 -1.77 0 0 -0.36 1.77 0zm0.08 -0.08l0 0 -1.93 0 0 0.52 1.93 0 0 -0.52z"/>
     <polygon class="fil22" points="84.78,38.22 84.78,37.78 86.64,37.78 86.64,38.22 "/>
     <path class="fil23" d="M86.6 37.82l0 0.36 -1.78 0 0 -0.36 1.78 0zm0.08 -0.08l0 0 -1.94 0 0 0.52 1.94 0 0 -0.52z"/>
     <polygon class="fil22" points="90.97,39.09 90.97,38.66 92.83,38.66 92.83,39.09 "/>
     <path class="fil23" d="M92.79 38.7l0 0.35 -1.78 0 0 -0.35 1.78 0zm0.08 -0.08l0 0 -1.94 0 0 0.51 1.94 0 0 -0.51z"/>
     <polygon class="fil22" points="88.91,39.09 88.91,38.66 90.77,38.66 90.77,39.09 "/>
     <path class="fil23" d="M90.73 38.7l0 0.35 -1.78 0 0 -0.35 1.78 0zm0.08 -0.08l0 0 -1.94 0 0 0.51 1.94 0 0 -0.51z"/>
     <polygon class="fil22" points="86.85,39.09 86.85,38.66 88.7,38.66 88.7,39.09 "/>
     <path class="fil23" d="M88.66 38.7l0 0.35 -1.77 0 0 -0.35 1.77 0zm0.08 -0.08l0 0 -1.93 0 0 0.51 1.93 0 0 -0.51z"/>
     <polygon class="fil22" points="84.78,39.09 84.78,38.66 86.64,38.66 86.64,39.09 "/>
     <path class="fil23" d="M86.6 38.7l0 0.35 -1.78 0 0 -0.35 1.78 0zm0.08 -0.08l0 0 -1.94 0 0 0.51 1.94 0 0 -0.51z"/>
     <polygon class="fil24" points="84.42,34.93 93.33,34.93 93.33,35.15 84.42,35.15 "/>
     <polygon class="fil24" points="93.22,39.38 93.22,34.93 93.44,34.93 93.44,39.38 "/>
     <polygon class="fil24" points="84.28,39.38 84.28,34.93 84.5,34.93 84.5,39.38 "/>
     <polygon class="fil25" points="78.56,39.38 80.72,39.38 80.72,35.3 78.56,35.3 "/>
     <polygon class="fil17" points="80.72,39.38 80.72,35.21 80.87,35.21 80.87,39.38 "/>
     <polygon class="fil17" points="78.4,39.38 78.4,35.21 78.56,35.21 78.56,39.38 "/>
     <polygon class="fil17" points="80.87,35.3 78.4,35.3 78.4,35.15 80.87,35.15 "/>
     <polygon class="fil26" points="78.92,36.39 78.92,35.53 80.35,35.53 80.35,36.39 "/>
     <path class="fil27" d="M80.32 35.56l0 0.79 -1.37 0 0 -0.79 1.37 0zm0.07 -0.07l0 0 -1.51 0 0 0.93 1.51 0 0 -0.93z"/>
     <polygon class="fil28" points="79.73,35.53 80.35,36.15 80.35,35.83 80.05,35.52 "/>
     <polygon class="fil28" points="79.45,35.52 80.35,36.42 80.35,36.25 79.61,35.51 "/>
     <polygon class="fil28" points="79.54,36.4 78.92,35.78 78.92,36.1 79.22,36.41 "/>
     <polygon class="fil28" points="79.82,36.41 78.92,35.51 78.92,35.68 79.66,36.42 "/>
     <polygon class="fil27" points="78.91,35.99 80.37,35.99 80.37,35.93 78.91,35.93 "/>
     <polygon class="fil27" points="79.61,36.4 79.66,36.4 79.66,35.51 79.61,35.51 "/>
     <path class="fil29" d="M80.31 36.72l0 2.42 -0.48 0 0 -2.42 0.48 0zm0.08 -0.08l0 0 -0.63 0 0 2.57 0.63 0 0 -2.57z"/>
     <path class="fil29" d="M79.44 36.72l0 2.42 -0.48 0 0 -2.42 0.48 0zm0.08 -0.08l0 0 -0.64 0 0 2.57 0.64 0 0 -2.57z"/>
     <path class="fil29" d="M78.72 37.18l0 0 0 0.82 0 -0.82c0,0 0,0 0,0zm0 -0.08l0 0c-0.04,0 -0.08,0.04 -0.08,0.08l0 0.82c0,0.04 0.04,0.08 0.08,0.08 0.04,0 0.08,-0.04 0.08,-0.08l0 -0.82c0,-0.04 -0.04,-0.08 -0.08,-0.08z"/>
     <path class="fil30" d="M78.59 37.4c0,0.07 0.06,0.13 0.13,0.13 0.07,0 0.12,-0.06 0.12,-0.13 0,-0.07 -0.05,-0.12 -0.12,-0.12 -0.07,0 -0.13,0.05 -0.13,0.12z"/>
     <polygon class="fil31" points="69.24,33.3 76.73,33.3 76.73,32.93 69.24,32.93 "/>
     <path class="fil32" d="M95.95 34.5l5.37 0c0.2,0 0.36,-0.16 0.36,-0.36l0 -0.07 -5.73 0 0 0.43z"/>
     <polygon class="fil32" points="76.55,34.5 82.27,34.5 82.27,34.07 76.55,34.07 "/>
     <path class="fil33" d="M81.71 34.71l14.29 0c0.19,0 0.33,-0.14 0.33,-0.32l0 -0.1 -14.95 0 0 0.1c0,0.18 0.15,0.32 0.33,0.32z"/>
     <polygon class="fil26" points="70.88,37.24 70.88,33.83 75.08,33.83 75.08,37.24 "/>
     <path class="fil27" d="M74.99 33.93l0 3.22 -4.01 0 0 -3.22 4.01 0zm0.19 -0.19l0 0 -4.39 0 0 3.6 4.39 0 0 -3.6z"/>
     <polygon class="fil28" points="72.81,33.86 75.11,36.16 75.11,34.97 73.97,33.83 "/>
     <polygon class="fil28" points="70.86,35.45 72.69,37.28 73.9,37.3 70.95,34.35 "/>
     <polygon class="fil28" points="71.78,33.83 75.11,37.16 75.1,36.52 72.36,33.78 "/>
     <polygon class="fil28" points="70.82,36.28 71.79,37.25 72.34,37.17 70.88,35.71 "/>
     <polygon class="fil27" points="72.87,37.18 73.1,37.18 73.1,33.87 72.87,33.87 "/>
     <polygon class="fil11" points="96.33,34.32 95.64,31.68 82.07,31.68 81.38,34.32 "/>
     <polygon class="fil34" points="76.19,32.62 77.32,33.42 77.32,38.98 76.19,38.98 "/>
     <polygon class="fil13" points="76.19,37.67 77.32,37.67 77.32,39.38 76.19,39.38 "/>
     <polygon class="fil34" points="69.8,32.64 68.68,33.44 68.68,39.01 69.8,39.01 "/>
     <polygon class="fil13" points="69.8,37.69 68.68,37.69 68.68,39.41 69.8,39.41 "/>
     <path class="fil10" d="M71.24 39.41l-5.16 0c-0.15,-0.1 -0.23,-0.27 -0.3,-0.43 -0.06,-0.16 -0.1,-0.34 -0.07,-0.51 0.03,-0.26 0.23,-0.49 0.48,-0.57 0.25,-0.08 0.55,0 0.73,0.19 -0.06,-0.16 -0.02,-0.33 0.05,-0.48 0.16,-0.35 0.52,-0.59 0.91,-0.61 0.38,-0.01 0.76,0.21 0.94,0.54 0.17,-0.31 0.5,-0.51 0.86,-0.49 0.35,0.03 0.68,0.31 0.73,0.67 0.25,-0.15 0.54,-0.11 0.76,0.08 0.22,0.2 0.32,0.5 0.31,0.8 -0.01,0.29 -0.09,0.56 -0.24,0.81z"/>
     <path class="fil9 str2" d="M68.34 39.02c-0.35,-0.4 -0.56,-0.92 -0.59,-1.45"/>
     <path class="fil9 str2" d="M68.25 37.48c-0.06,0.24 -0.2,0.45 -0.4,0.6"/>
     <path class="fil9 str2" d="M67.57 38.59c0.14,0.03 0.29,0.02 0.42,-0.01"/>
     <path class="fil9 str2" d="M70.31 39.07c0.31,-0.3 0.51,-0.7 0.56,-1.13"/>
     <path class="fil9 str2" d="M70.49 38.87c-0.01,0 -0.02,-0.01 -0.02,-0.01 -0.14,-0.14 -0.18,-0.34 -0.21,-0.53"/>
     <path class="fil9 str2" d="M70.79 38.45c0.11,0 0.21,-0.06 0.28,-0.15"/>
     <path class="fil9 str2" d="M69.32 38.55c0.1,-0.27 0.15,-0.57 0.14,-0.87"/>
     <path class="fil9 str2" d="M66.95 39.13c-0.26,-0.16 -0.47,-0.39 -0.62,-0.65"/>
     <path class="fil9 str2" d="M69.33 38.23c-0.09,-0.09 -0.15,-0.21 -0.16,-0.33"/>
     <path class="fil9 str2" d="M66.59 38.82c0.06,-0.13 0.05,-0.28 0.04,-0.42"/>
     <path class="fil9 str2" d="M69.5 37.93c0.1,-0.06 0.18,-0.15 0.23,-0.25"/>
     <path class="fil9 str2" d="M66.48 39.14c0.1,0.01 0.21,-0.01 0.3,-0.06"/>
     <path class="fil35" d="M67.98 33.65l5 -3.83 0 0 0.01 0 4.99 3.83 -0.04 0.05c-0.15,0.21 -0.45,0.25 -0.65,0.09l-4.31 -3.3 -4.3 3.3c-0.21,0.16 -0.5,0.12 -0.65,-0.09l-0.05 -0.05z"/>
     <path class="fil36" d="M72.61 32.54c-0.04,0 -0.08,-0.04 -0.08,-0.09l0 -1.01c0,-0.05 0.04,-0.08 0.08,-0.08l0.75 0c0.05,0 0.09,0.03 0.09,0.08l0 1.01c0,0.05 -0.04,0.09 -0.09,0.09l-0.75 0z"/>
     <path class="fil17" d="M73.36 31.4c0.03,0 0.04,0.02 0.04,0.04l0 1.01c0,0.02 -0.01,0.04 -0.04,0.04l-0.75 0c-0.02,0 -0.03,-0.02 -0.03,-0.04l0 -1.01c0,-0.02 0.01,-0.04 0.03,-0.04l0.75 0zm0 -0.09l0 0 -0.75 0c-0.07,0 -0.13,0.06 -0.13,0.13l0 1.01c0,0.08 0.06,0.13 0.13,0.13l0.75 0c0.08,0 0.14,-0.05 0.14,-0.13l0 -1.01c0,-0.07 -0.06,-0.13 -0.14,-0.13z"/>
     <polygon class="fil31" points="88.5,27.41 94.34,27.41 94.34,27.05 88.5,27.05 "/>
     <path class="fil35" d="M83.86 26.6l5 -3.83 0 0 0 0 7.27 5.57 -0.06 0.08c-0.15,0.19 -0.42,0.23 -0.6,0.08l-6.61 -5.06 -4.68 3.58 -0.32 -0.42z"/>
     <path class="fil36" d="M88.52 26.16c-0.15,0 -0.26,-0.12 -0.26,-0.26l0 -0.97c0,-0.14 0.11,-0.26 0.26,-0.26l0.64 0c0.14,0 0.26,0.12 0.26,0.26l0 0.97c0,0.14 -0.12,0.26 -0.26,0.26l-0.64 0z"/>
     <path class="fil17" d="M89.16 24.72c0.12,0 0.21,0.1 0.21,0.21l0 0.97c0,0.12 -0.09,0.21 -0.21,0.21l-0.64 0c-0.12,0 -0.22,-0.09 -0.22,-0.21l0 -0.97c0,-0.11 0.1,-0.21 0.22,-0.21l0.64 0zm0 -0.09l0 0 -0.64 0c-0.17,0 -0.31,0.13 -0.31,0.3l0 0.97c0,0.17 0.14,0.31 0.31,0.31l0.64 0c0.17,0 0.31,-0.14 0.31,-0.31l0 -0.97c0,-0.17 -0.14,-0.3 -0.31,-0.3z"/>
     <polygon class="fil37" points="77.71,37.97 77.71,35.36 78.12,35.36 78.12,37.97 "/>
     <path class="fil27" d="M78.08 35.4l0 2.53 -0.34 0 0 -2.53 0.34 0zm0.07 -0.07l0 0 -0.48 0 0 2.67 0.48 0 0 -2.67z"/>
     <polygon class="fil28" points="77.71,35.34 78.14,35.76 78.14,35.54 77.93,35.33 "/>
     <polygon class="fil28" points="77.69,35.5 78.14,35.95 78.13,35.83 77.71,35.4 "/>
     <polygon class="fil28" points="77.71,36.33 78.14,36.75 78.14,36.53 77.73,36.12 "/>
     <polygon class="fil28" points="77.69,36.49 78.14,36.94 78.13,36.82 77.71,36.39 "/>
     <polygon class="fil28" points="77.71,37.38 78.14,37.81 78.14,37.59 77.73,37.18 "/>
     <polygon class="fil28" points="77.69,37.55 78.14,38 78.13,37.88 77.71,37.45 "/>
     <polygon class="fil37" points="81.13,37.97 81.13,35.36 81.53,35.36 81.53,37.97 "/>
     <path class="fil27" d="M81.5 35.4l0 2.53 -0.34 0 0 -2.53 0.34 0zm0.07 -0.07l0 0 -0.48 0 0 2.67 0.48 0 0 -2.67z"/>
     <polygon class="fil28" points="81.13,35.34 81.55,35.76 81.55,35.54 81.34,35.33 "/>
     <polygon class="fil28" points="81.11,35.5 81.55,35.95 81.55,35.83 81.13,35.4 "/>
     <polygon class="fil28" points="81.13,36.33 81.55,36.75 81.55,36.53 81.14,36.12 "/>
     <polygon class="fil28" points="81.11,36.49 81.55,36.94 81.55,36.82 81.13,36.39 "/>
     <polygon class="fil28" points="81.13,37.38 81.55,37.81 81.55,37.59 81.14,37.18 "/>
     <polygon class="fil28" points="81.11,37.55 81.55,38 81.55,37.88 81.13,37.45 "/>
     <path class="fil38" d="M83.99 36.84l0 0.43 -1.83 0 0 -0.43 1.83 0zm0.07 -0.07l0 0 -1.97 0 0 0.57 1.97 0 0 -0.57z"/>
     <path class="fil39" d="M82.96 35.39c0,0.06 0.05,0.1 0.11,0.1 0.06,0 0.1,-0.04 0.1,-0.1 0,-0.06 -0.04,-0.11 -0.1,-0.11 -0.06,0 -0.11,0.05 -0.11,0.11z"/>
     <path class="fil40" d="M83.08 35.96c0.07,0 0.13,-0.06 0.13,-0.13l0 -0.01 -0.27 0 0 0.01c0,0.07 0.06,0.13 0.14,0.13z"/>
     <path class="fil41" d="M83.02 35.54l0.1 0 0 -0.22c0,-0.03 -0.02,-0.06 -0.05,-0.06 -0.03,0 -0.05,0.03 -0.05,0.06l0 0.22z"/>
     <path class="fil42" d="M82.84 35.85l0.47 0 -0.04 -0.24c-0.01,-0.1 -0.1,-0.17 -0.19,-0.17 -0.1,0 -0.19,0.07 -0.2,0.17l-0.04 0.24z"/>
     <path class="fil39" d="M79.53 34.81c0,0.06 0.04,0.11 0.1,0.11 0.06,0 0.11,-0.05 0.11,-0.11 0,-0.05 -0.05,-0.1 -0.11,-0.1 -0.06,0 -0.1,0.05 -0.1,0.1z"/>
     <path class="fil40" d="M79.64 35.39c0.07,0 0.13,-0.06 0.13,-0.13l0 -0.02 -0.26 0 0 0.02c0,0.07 0.06,0.13 0.13,0.13z"/>
     <path class="fil41" d="M79.58 34.97l0.1 0 0 -0.23c0,-0.03 -0.02,-0.05 -0.05,-0.05 -0.03,0 -0.05,0.02 -0.05,0.05l0 0.23z"/>
     <path class="fil42" d="M79.4 35.28l0.48 0 -0.04 -0.25c-0.02,-0.1 -0.1,-0.17 -0.2,-0.17 -0.1,0 -0.19,0.07 -0.2,0.17l-0.04 0.25z"/>
     <path class="fil39" d="M94.52 35.39c0,0.06 0.04,0.1 0.1,0.1 0.06,0 0.11,-0.04 0.11,-0.1 0,-0.06 -0.05,-0.11 -0.11,-0.11 -0.06,0 -0.1,0.05 -0.1,0.11z"/>
     <path class="fil40" d="M94.63 35.96c0.07,0 0.13,-0.06 0.13,-0.13l0 -0.01 -0.26 0 0 0.01c0,0.07 0.06,0.13 0.13,0.13z"/>
     <path class="fil41" d="M94.57 35.54l0.11 0 0 -0.22c0,-0.03 -0.03,-0.06 -0.06,-0.06 -0.03,0 -0.05,0.03 -0.05,0.06l0 0.22z"/>
     <path class="fil42" d="M94.39 35.85l0.48 0 -0.04 -0.24c-0.02,-0.1 -0.1,-0.17 -0.2,-0.17 -0.1,0 -0.18,0.07 -0.2,0.17l-0.04 0.24z"/>
     <polygon class="fil43" points="82.71,32.16 89.18,32.16 89.18,27.93 86,25.48 82.71,27.93 "/>
     <polygon class="fil20" points="83.22,27.41 85.91,25.55 88.78,27.41 89.04,27.83 82.98,27.83 "/>
     <polygon class="fil31" points="83.08,27.83 88.8,27.83 88.8,27.46 83.08,27.46 "/>
     <polygon class="fil26" points="84.31,31.28 84.31,28.52 87.71,28.52 87.71,31.28 "/>
     <path class="fil27" d="M87.62 28.62l0 2.57 -3.22 0 0 -2.57 3.22 0zm0.19 -0.19l0 0 -3.6 0 0 2.95 3.6 0 0 -2.95z"/>
     <polygon class="fil28" points="85.87,28.53 87.75,30.41 87.75,29.43 86.82,28.5 "/>
     <polygon class="fil28" points="84.27,29.83 85.77,31.33 86.76,31.34 84.34,28.93 "/>
     <polygon class="fil28" points="85.03,28.5 87.75,31.23 87.74,30.71 85.5,28.46 "/>
     <polygon class="fil28" points="84.24,30.51 85.03,31.31 85.48,31.24 84.29,30.05 "/>
     <polygon class="fil27" points="85.92,31.25 86.11,31.25 86.11,28.53 85.92,28.53 "/>
     <polygon class="fil26" points="89.82,30.98 89.82,28.22 93.23,28.22 93.23,30.98 "/>
     <path class="fil27" d="M93.13 28.32l0 2.57 -3.21 0 0 -2.57 3.21 0zm0.19 -0.19l0 0 -3.59 0 0 2.95 3.59 0 0 -2.95z"/>
     <polygon class="fil28" points="91.39,28.23 93.26,30.11 93.27,29.14 92.33,28.2 "/>
     <polygon class="fil28" points="89.79,29.53 91.29,31.03 92.27,31.04 89.86,28.63 "/>
     <polygon class="fil28" points="90.54,28.21 93.27,30.93 93.26,30.41 91.01,28.17 "/>
     <polygon class="fil28" points="89.75,30.21 90.55,31.01 91,30.94 89.8,29.75 "/>
     <polygon class="fil27" points="91.43,30.95 91.62,30.95 91.62,28.23 91.43,28.23 "/>
     <path class="fil35" d="M81.55 28.37l4.36 -3.35 0 0 0.01 0 4.22 3.24 -0.04 0.05c-0.15,0.2 -0.45,0.24 -0.65,0.09l-3.54 -2.71 -3.66 2.81c-0.21,0.16 -0.5,0.12 -0.66,-0.08l-0.04 -0.05z"/>
     <path class="fil9" d="M61.81 37.18c0.01,-0.01 0.03,-0.01 0.04,-0.01l-0.04 0.01z"/>
     <path class="fil10" d="M99.64 39.38l3.45 0c0.14,-0.16 0.28,-0.36 0.31,-0.57 0.03,-0.22 -0.02,-0.45 -0.17,-0.61 -0.19,-0.22 -0.54,-0.27 -0.79,-0.13 -0.05,0.03 -0.09,0.06 -0.13,0.1 -0.03,-0.13 -0.11,-0.28 -0.23,-0.35 -0.07,-0.05 -0.16,-0.07 -0.24,-0.08 -0.19,-0.02 -0.38,0.03 -0.53,0.14 -0.15,0.11 -0.25,0.28 -0.28,0.47 -0.13,-0.19 -0.37,-0.26 -0.58,-0.19 -0.22,0.06 -0.38,0.27 -0.39,0.5 -0.09,-0.04 -0.2,0 -0.29,0.05 -0.1,0.05 -0.17,0.13 -0.2,0.23 -0.04,0.14 0.01,0.31 0.07,0.44z"/>
     <path class="fil9 str1" d="M64.29 38.56c0.14,-0.1 0.25,-0.24 0.33,-0.39 0.08,-0.15 0.14,-0.32 0.2,-0.48"/>
     <path class="fil9 str1" d="M64.42 39.2c-0.22,-0.68 -0.33,-1.42 -0.32,-2.16"/>
     <path class="fil9 str1" d="M64.11 37.98c-0.04,0.02 -0.1,0 -0.14,-0.02 -0.15,-0.08 -0.29,-0.19 -0.4,-0.32 -0.04,-0.04 -0.07,-0.09 -0.08,-0.14"/>
     <path class="fil9 str1" d="M66.71 38.41c0.08,-0.55 -0.07,-1.14 -0.4,-1.59"/>
     <path class="fil9 str1" d="M66.66 37.46c0.15,-0.23 0.22,-0.5 0.22,-0.77"/>
     <path class="fil9 str1" d="M66.02 37.11c0.14,0.1 0.33,0.14 0.49,0.1"/>
    </g>
   </g>
  </g>
  <polygon class="fil44" points="0,0 89.21,0 89.21,44.23 0,44.23 "/>
 </g>
</svg>
