<?xml version="1.0" encoding="UTF-8"?>
<!DOCTYPE svg PUBLIC "-//W3C//DTD SVG 1.1//EN" "http://www.w3.org/Graphics/SVG/1.1/DTD/svg11.dtd">
<!-- Creator: CorelDRAW 2020 (64-Bit) -->
<svg xmlns="http://www.w3.org/2000/svg" xml:space="preserve" width="800px" height="357px" version="1.1" style="shape-rendering:geometricPrecision; text-rendering:geometricPrecision; image-rendering:optimizeQuality; fill-rule:evenodd; clip-rule:evenodd"
viewBox="0 0 33.44 14.93"
 xmlns:xlink="http://www.w3.org/1999/xlink"
 xmlns:xodm="http://www.corel.com/coreldraw/odm/2003">
 <defs>
  <style type="text/css">
   <![CDATA[
    .str2 {stroke:#008E8A;stroke-width:0.07;stroke-linecap:round;stroke-miterlimit:10}
    .str1 {stroke:#00B3AC;stroke-width:0.07;stroke-linecap:round;stroke-miterlimit:10}
    .str0 {stroke:#00B3AC;stroke-width:0.14;stroke-linecap:round;stroke-miterlimit:10}
    .fil8 {fill:none;fill-rule:nonzero}
    .fil17 {fill:#010C2F}
    .fil10 {fill:#03134F}
    .fil29 {fill:#0F183F}
    .fil36 {fill:#4C99F8}
    .fil30 {fill:#838795}
    .fil32 {fill:#9599AA}
    .fil19 {fill:#A1A7B6}
    .fil35 {fill:#A5B5FF}
    .fil42 {fill:#CFD6E8}
    .fil31 {fill:#DADFF9}
    .fil7 {fill:#008E8A;fill-rule:nonzero}
    .fil9 {fill:#00B3AC;fill-rule:nonzero}
    .fil18 {fill:#030F3F;fill-rule:nonzero}
    .fil28 {fill:#0F183F;fill-rule:nonzero}
    .fil24 {fill:#131D4F;fill-rule:nonzero}
    .fil0 {fill:#1A318F;fill-rule:nonzero}
    .fil4 {fill:#333333;fill-rule:nonzero}
    .fil14 {fill:#343B56;fill-rule:nonzero}
    .fil1 {fill:#425DC9;fill-rule:nonzero}
    .fil15 {fill:#495279;fill-rule:nonzero}
    .fil25 {fill:#4C99F8;fill-rule:nonzero}
    .fil22 {fill:#505985;fill-rule:nonzero}
    .fil13 {fill:#505B85;fill-rule:nonzero}
    .fil5 {fill:#5273F7;fill-rule:nonzero}
    .fil21 {fill:#56628E;fill-rule:nonzero}
    .fil34 {fill:#5A69F7;fill-rule:nonzero}
    .fil38 {fill:#6D778C;fill-rule:nonzero}
    .fil6 {fill:#829AF9;fill-rule:nonzero}
    .fil12 {fill:#838795;fill-rule:nonzero}
    .fil40 {fill:#8793AC;fill-rule:nonzero}
    .fil11 {fill:#9095A3;fill-rule:nonzero}
    .fil33 {fill:#A1A7B6;fill-rule:nonzero}
    .fil23 {fill:#A5B5FF;fill-rule:nonzero}
    .fil41 {fill:#AABADB;fill-rule:nonzero}
    .fil37 {fill:#BFC3DB;fill-rule:nonzero}
    .fil20 {fill:#CFD6E8;fill-rule:nonzero}
    .fil16 {fill:#DADFF9;fill-rule:nonzero}
    .fil26 {fill:#F2F2F2;fill-rule:nonzero}
    .fil39 {fill:#FFE15B;fill-rule:nonzero}
    .fil27 {fill:#F2F2F2;fill-rule:nonzero;fill-opacity:0.250980}
    .fil3 {fill:#999999;fill-rule:nonzero;fill-opacity:0.501961}
    .fil2 {fill:#B3B3B3;fill-rule:nonzero;fill-opacity:0.501961}
   ]]>
  </style>
 </defs>
 <g id="Слой_x0020_1">
  <metadata id="CorelCorpID_0Corel-Layer"/>
  <g id="_1825545817920">
   <path class="fil0" d="M14.85 5.45c0,0 0.06,0.02 0.16,0.07 0.3,0.13 0.98,0.46 1.49,1.02 0,0 3.76,-0.67 4.78,0.67 0,0 1.16,-0.39 2.35,-0.39l1.02 0c1.2,0 2.36,0.39 2.36,0.39 1.01,-1.34 4.77,-0.67 4.77,-0.67 0.04,-0.03 0.07,-0.07 0.1,-0.1 0.03,-0.03 0.05,-0.05 0.08,-0.08 0.03,-0.03 0.07,-0.06 0.1,-0.09 0.04,-0.03 0.08,-0.07 0.13,-0.1 0,0 0,0 0,-0.01 0.04,-0.03 0.09,-0.07 0.13,-0.1 0.05,-0.03 0.1,-0.07 0.14,-0.1 0.05,-0.03 0.1,-0.06 0.14,-0.09 0,0 0,0 0.01,0 0.04,-0.03 0.08,-0.05 0.12,-0.08 0.05,-0.02 0.09,-0.05 0.13,-0.07 0.02,-0.01 0.04,-0.02 0.06,-0.03 0.06,-0.04 0.12,-0.06 0.17,-0.09 0.03,-0.01 0.07,-0.03 0.1,-0.04 0.03,-0.02 0.05,-0.03 0.07,-0.04 0.01,0 0.01,0 0.02,0 0.01,-0.01 0.02,-0.01 0.03,-0.02 0.02,-0.01 0.04,-0.02 0.06,-0.02 0.04,-0.02 0.07,-0.03 0.07,-0.03 -0.56,-0.52 -1.82,-0.98 -3.05,-1.33 -0.1,-0.03 -0.19,-0.06 -0.29,-0.08 -0.1,-0.03 -0.19,-0.06 -0.29,-0.08 -0.1,-0.02 -0.19,-0.05 -0.29,-0.07 0,0 0,0 0,0 -0.09,-0.02 -0.18,-0.05 -0.27,-0.07 -0.02,0 -0.04,-0.01 -0.06,-0.01 -0.04,-0.01 -0.07,-0.02 -0.11,-0.03 -0.05,-0.01 -0.09,-0.02 -0.14,-0.03 -0.03,-0.01 -0.05,-0.01 -0.08,-0.02 -0.17,-0.04 -0.33,-0.07 -0.48,-0.1 -0.07,-0.02 -0.14,-0.04 -0.21,-0.05 -0.02,0 -0.03,-0.01 -0.04,-0.01 -0.09,-0.02 -0.16,-0.03 -0.23,-0.05 -0.16,-0.03 -0.28,-0.05 -0.38,-0.07 -0.02,0 -0.03,0 -0.05,-0.01 -0.06,-0.01 -0.11,-0.02 -0.13,-0.02 -0.01,0 -0.02,-0.01 -0.02,-0.01l-6.36 0c0,0 -0.18,0.04 -0.47,0.09 -0.09,0.02 -0.2,0.04 -0.31,0.06 -0.02,0.01 -0.04,0.01 -0.06,0.02 -0.04,0.01 -0.07,0.01 -0.11,0.02 0,0 -0.01,0 -0.01,0 -0.07,0.02 -0.13,0.03 -0.2,0.05 -0.04,0.01 -0.09,0.01 -0.13,0.02 -0.08,0.02 -0.16,0.04 -0.25,0.06 -0.19,0.04 -0.4,0.09 -0.62,0.15 -0.01,0 -0.02,0 -0.04,0.01 0,0 0,0 0,0 0,0 0,0 0,0 -0.28,0.07 -0.57,0.14 -0.87,0.23 -0.07,0.02 -0.15,0.04 -0.23,0.06 -0.06,0.02 -0.13,0.04 -0.19,0.06 -0.1,0.03 -0.2,0.06 -0.29,0.09 -0.07,0.02 -0.13,0.04 -0.19,0.07 -0.15,0.05 -0.31,0.1 -0.46,0.16 -0.06,0.02 -0.13,0.04 -0.19,0.07 -0.01,0 -0.01,0 -0.02,0.01 -0.07,0.02 -0.13,0.05 -0.2,0.08 -0.05,0.02 -0.09,0.04 -0.14,0.06 -0.03,0.01 -0.07,0.03 -0.1,0.04 -0.08,0.04 -0.16,0.08 -0.24,0.12 -0.03,0.01 -0.06,0.02 -0.09,0.04 -0.28,0.15 -0.53,0.31 -0.7,0.47z"/>
   <path class="fil1" d="M25.77 3.41c0.07,0.14 0.14,0.29 0.21,0.43 0.28,0.63 0.5,1.27 0.66,1.82 0.26,0.89 0.37,1.55 0.37,1.55 1.01,-1.34 4.77,-0.67 4.77,-0.67 0.04,-0.03 0.07,-0.07 0.1,-0.1 0.03,-0.03 0.05,-0.05 0.08,-0.08 0.03,-0.03 0.07,-0.06 0.1,-0.09 0.04,-0.03 0.08,-0.07 0.13,-0.1 0,0 0,0 0,-0.01 0.04,-0.03 0.09,-0.07 0.13,-0.1 0.05,-0.03 0.1,-0.07 0.14,-0.1 0.05,-0.03 0.09,-0.06 0.14,-0.09 0,0 0,0 0.01,0 0.04,-0.03 0.08,-0.05 0.12,-0.08 0.05,-0.02 0.09,-0.05 0.13,-0.07 0.02,-0.01 0.04,-0.02 0.06,-0.03 0.06,-0.03 0.12,-0.06 0.17,-0.09 0.03,-0.01 0.07,-0.03 0.1,-0.04 0.03,-0.02 0.05,-0.03 0.07,-0.04 0.01,0 0.01,0 0.02,0 0.01,-0.01 0.02,-0.01 0.03,-0.02 0.02,-0.01 0.04,-0.02 0.06,-0.02 0.04,-0.02 0.07,-0.03 0.07,-0.03 -0.56,-0.52 -1.82,-0.98 -3.05,-1.33 -0.1,-0.03 -0.19,-0.06 -0.29,-0.08 -0.1,-0.03 -0.19,-0.06 -0.29,-0.08 -0.1,-0.02 -0.19,-0.05 -0.29,-0.07 0,0 0,0 0,0 -0.09,-0.03 -0.18,-0.05 -0.27,-0.07 -0.02,0 -0.04,-0.01 -0.06,-0.01 -0.04,-0.01 -0.07,-0.02 -0.11,-0.03 -0.05,-0.01 -0.09,-0.02 -0.14,-0.03 -0.03,-0.01 -0.05,-0.01 -0.08,-0.02 -0.17,-0.04 -0.33,-0.07 -0.48,-0.1 -0.07,-0.02 -0.14,-0.04 -0.21,-0.05 -0.02,0 -0.03,-0.01 -0.04,-0.01 -0.09,-0.02 -0.16,-0.03 -0.23,-0.05 -0.16,-0.03 -0.28,-0.05 -0.38,-0.07 -0.02,0 -0.03,0 -0.05,-0.01 -0.06,-0.01 -0.11,-0.02 -0.13,-0.02 -0.01,0 -0.02,-0.01 -0.02,-0.01l-1.55 0z"/>
   <path class="fil1" d="M14.85 5.45c0,0 0.06,0.02 0.16,0.07 0.3,0.13 0.98,0.46 1.49,1.02 0,0 3.76,-0.67 4.78,0.67 0,0 0.1,-0.66 0.36,-1.55 0.16,-0.55 0.38,-1.19 0.67,-1.82 0.06,-0.14 0.13,-0.29 0.2,-0.43l-1.55 0c0,0 -0.18,0.04 -0.47,0.09 -0.09,0.02 -0.2,0.04 -0.31,0.06 -0.02,0.01 -0.04,0.01 -0.06,0.02 -0.04,0.01 -0.07,0.01 -0.11,0.02 0,0 -0.01,0 -0.01,0 -0.07,0.02 -0.13,0.03 -0.2,0.05 -0.04,0.01 -0.09,0.01 -0.13,0.02 -0.08,0.02 -0.16,0.04 -0.25,0.06 -0.19,0.04 -0.4,0.09 -0.62,0.15 -0.01,0 -0.02,0 -0.04,0.01 0,0 0,0 0,0 0,0 0,0 0,0 -0.28,0.07 -0.57,0.14 -0.87,0.23 -0.07,0.02 -0.15,0.04 -0.23,0.06 -0.06,0.02 -0.13,0.04 -0.19,0.06 -0.1,0.03 -0.2,0.06 -0.29,0.09 -0.07,0.02 -0.13,0.04 -0.19,0.07 -0.15,0.05 -0.31,0.1 -0.46,0.16 -0.06,0.02 -0.13,0.04 -0.19,0.07 -0.01,0 -0.01,0 -0.02,0.01 -0.07,0.02 -0.13,0.05 -0.2,0.08 -0.05,0.02 -0.09,0.04 -0.14,0.06 -0.03,0.01 -0.07,0.03 -0.1,0.04 -0.08,0.04 -0.16,0.08 -0.24,0.12 -0.03,0.01 -0.06,0.02 -0.09,0.04 -0.28,0.15 -0.53,0.31 -0.7,0.47z"/>
   <path class="fil0" d="M30.39 4.12c0.47,0.53 0.8,1.04 1.01,1.46 0.3,0.57 0.38,0.96 0.38,0.96 0.04,-0.03 0.07,-0.07 0.1,-0.1 0.03,-0.03 0.05,-0.05 0.08,-0.08 0.03,-0.03 0.07,-0.06 0.1,-0.09 0.04,-0.03 0.08,-0.07 0.13,-0.1 0,0 0,0 0,-0.01 0.04,-0.03 0.09,-0.07 0.13,-0.1 0.05,-0.03 0.1,-0.07 0.14,-0.1 0.05,-0.03 0.09,-0.06 0.14,-0.09 0,0 0,0 0.01,0 0.04,-0.03 0.08,-0.05 0.12,-0.08 0.05,-0.02 0.09,-0.05 0.13,-0.07 0.02,-0.01 0.04,-0.02 0.06,-0.03 0.06,-0.03 0.12,-0.06 0.17,-0.09 0.03,-0.01 0.07,-0.03 0.1,-0.04 0.03,-0.02 0.05,-0.03 0.07,-0.04 0.01,0 0.01,0 0.02,0 0.01,-0.01 0.02,-0.01 0.03,-0.02 0.02,-0.01 0.04,-0.02 0.06,-0.02 0.04,-0.02 0.07,-0.03 0.07,-0.03 -0.56,-0.52 -1.82,-0.98 -3.05,-1.33z"/>
   <path class="fil0" d="M14.85 5.45c0,0 0.06,0.02 0.16,0.07 0.3,0.13 0.98,0.46 1.49,1.02 0,0 0.09,-0.39 0.39,-0.96 0.21,-0.42 0.53,-0.93 1,-1.46 -0.07,0.02 -0.15,0.04 -0.23,0.06 -0.06,0.02 -0.13,0.04 -0.19,0.06 -0.1,0.03 -0.2,0.06 -0.29,0.09 -0.07,0.02 -0.13,0.04 -0.19,0.07 -0.15,0.05 -0.31,0.1 -0.46,0.16 -0.06,0.02 -0.13,0.04 -0.19,0.07 -0.01,0 -0.01,0 -0.02,0.01 -0.07,0.02 -0.13,0.05 -0.2,0.08 -0.05,0.02 -0.09,0.04 -0.14,0.06 -0.03,0.01 -0.07,0.03 -0.1,0.04 -0.08,0.04 -0.16,0.08 -0.24,0.12 -0.03,0.01 -0.06,0.02 -0.09,0.04 -0.28,0.15 -0.53,0.31 -0.7,0.47z"/>
   <g>
    <path class="fil2" d="M24 0.51l0 12.56c0,0.07 0.06,0.13 0.14,0.13 0.08,0 0.14,-0.06 0.14,-0.13l0 -12.56c0,-0.07 -0.06,-0.13 -0.14,-0.13 -0.08,0 -0.14,0.06 -0.14,0.13z"/>
   </g>
   <path class="fil3" d="M24 3.86l0 1.04c0.09,-0.01 0.19,-0.02 0.28,-0.03l0 -1.01 -0.28 0z"/>
   <g>
    <path class="fil4" d="M24.14 2.27c0.1,0 0.18,-0.11 0.18,-0.25l0 -1.77c0,-0.14 -0.08,-0.25 -0.18,-0.25 -0.1,0 -0.18,0.11 -0.18,0.25l0 1.77c0,0.14 0.08,0.25 0.18,0.25z"/>
   </g>
   <g>
    <path class="fil5" d="M14.85 5.45c1.11,-0.4 3.23,-0.64 5.09,-0.79 1.89,-0.15 3.52,-0.19 3.52,-0.19l1.37 0c0,0 1.62,0.04 3.52,0.19 1.85,0.15 3.97,0.39 5.09,0.79 0,0 -3.62,-3.9 -6.96,-3.9 0,0 -0.72,-0.71 -2.34,-0.17 -1.62,-0.54 -2.33,0.17 -2.33,0.17 -3.34,0 -6.96,3.9 -6.96,3.9z"/>
    <path class="fil6" d="M19.94 4.66c1.89,-0.15 3.52,-0.19 3.52,-0.19l1.37 0c0,0 1.62,0.04 3.52,0.19 -0.66,-1.78 -1.87,-3.11 -1.87,-3.11 0,0 -0.72,-0.71 -2.34,-0.17 -1.62,-0.54 -2.33,0.17 -2.33,0.17 0,0 -1.22,1.33 -1.87,3.11z"/>
   </g>
  </g>
  <g id="_1825545837504">
   <path class="fil7" d="M7.5 14.92l2.52 0c0.05,-0.01 0.09,-0.04 0.13,-0.07 0.11,-0.14 0.21,-0.29 0.23,-0.46 0.02,-0.21 -0.11,-0.42 -0.3,-0.5 -0.19,-0.09 -0.43,-0.04 -0.57,0.11 0,-0.05 -0.01,-0.11 -0.04,-0.15 -0.08,-0.18 -0.27,-0.3 -0.46,-0.29 -0.19,0.01 -0.37,0.16 -0.4,0.35 -0.03,-0.08 -0.11,-0.12 -0.19,-0.15 -0.09,-0.02 -0.18,-0.01 -0.26,0.02 -0.09,0.04 -0.17,0.1 -0.23,0.18 -0.05,0.08 -0.08,0.18 -0.05,0.27 -0.18,-0.04 -0.37,0.05 -0.46,0.22 -0.09,0.16 -0.06,0.34 0.08,0.47z"/>
   <path class="fil8 str0" d="M25.56 14.14c0.07,-0.19 0.2,-0.36 0.37,-0.48 0.23,-0.16 0.51,-0.22 0.77,-0.34 0.48,-0.21 0.87,-0.64 1.05,-1.14 0.11,-0.32 0.14,-0.66 0.17,-1"/>
   <path class="fil9" d="M28.55 11.42c0.05,-0.03 0.09,-0.07 0.12,-0.12 0.02,-0.05 0.03,-0.12 -0.01,-0.16 -0.02,-0.04 -0.06,-0.06 -0.11,-0.06 -0.12,-0.02 -0.24,0.04 -0.34,0.12 -0.07,0.05 -0.14,0.12 -0.2,0.19 -0.05,0.06 -0.13,0.16 -0.16,0.24 -0.04,0.17 0.36,0 0.42,-0.03 0.1,-0.05 0.2,-0.11 0.28,-0.18z"/>
   <path class="fil9" d="M27.31 11.93c-0.08,-0.09 -0.16,-0.19 -0.17,-0.31 0,-0.04 0.01,-0.08 0.04,-0.11 0.01,-0.01 0.03,-0.01 0.05,-0.02 0.12,-0.02 0.25,0.04 0.34,0.14 0.08,0.1 0.13,0.22 0.17,0.35 0.03,0.09 0.06,0.25 -0.1,0.19 -0.12,-0.04 -0.24,-0.15 -0.33,-0.24z"/>
   <path class="fil9" d="M28.14 12.51c0.04,-0.04 0.08,-0.09 0.07,-0.14 -0.01,-0.03 -0.04,-0.05 -0.06,-0.06 -0.09,-0.04 -0.19,-0.01 -0.28,0.03 -0.06,0.03 -0.47,0.25 -0.26,0.31 0.17,0.04 0.39,-0.04 0.53,-0.14z"/>
   <path class="fil9" d="M27.1 12.65c-0.03,-0.07 -0.05,-0.15 -0.04,-0.23 0.01,-0.03 0.03,-0.07 0.06,-0.09 0.03,-0.02 0.06,-0.01 0.09,0 0.03,0.01 0.06,0.04 0.08,0.06 0.05,0.08 0.07,0.17 0.07,0.27 -0.01,0.05 0,0.23 -0.09,0.21 -0.07,-0.01 -0.14,-0.16 -0.17,-0.22z"/>
   <path class="fil9" d="M27.13 13.29c0.08,0.03 0.17,0.06 0.26,0.04 0.04,-0.01 0.08,-0.04 0.08,-0.08 0,-0.02 0,-0.03 -0.01,-0.05 -0.03,-0.04 -0.07,-0.06 -0.12,-0.08 -0.09,-0.03 -0.19,-0.03 -0.29,0 -0.04,0.01 -0.09,0.03 -0.05,0.08 0.03,0.04 0.09,0.07 0.13,0.09z"/>
   <path class="fil7" d="M25.45 11.18c0.08,-0.06 0.16,-0.13 0.18,-0.23 0.05,-0.26 -0.3,-0.49 -0.21,-0.73 0.05,-0.11 0.17,-0.17 0.28,-0.23 0.19,-0.09 0.39,-0.26 0.37,-0.47 -0.02,-0.27 -0.37,-0.41 -0.43,-0.67 -0.08,-0.33 0.34,-0.65 0.22,-0.97 -0.04,-0.11 -0.14,-0.19 -0.25,-0.23 -0.11,-0.04 -0.23,-0.04 -0.34,-0.03 -0.19,0.02 -0.38,0.09 -0.47,0.24 -0.11,0.16 -0.09,0.4 -0.22,0.54 -0.17,0.18 -0.49,0.11 -0.67,0.27 -0.15,0.13 -0.16,0.37 -0.11,0.56 0.04,0.14 0.1,0.3 0.06,0.44 -0.03,0.13 -0.15,0.22 -0.22,0.34 -0.09,0.15 -0.1,0.34 -0.05,0.52 0.05,0.17 0.15,0.32 0.27,0.45 0.11,0.12 0.24,0.22 0.39,0.28 0.1,0.04 0.22,0.05 0.32,0.08 0.09,0.03 0.17,0.1 0.25,0.11 0.2,0.03 0.48,-0.16 0.63,-0.27z"/>
   <path class="fil8 str1" d="M24.6 11.38c-0.04,-0.18 -0.05,-0.37 -0.06,-0.55 0,-0.48 0.1,-0.94 0.24,-1.39 0.15,-0.45 0.34,-0.89 0.53,-1.32"/>
   <path class="fil8 str1" d="M24.75 9.53c-0.27,-0.19 -0.5,-0.43 -0.68,-0.7"/>
   <path class="fil8 str1" d="M25.69 9.67c-0.31,0.14 -0.67,0.2 -1.01,0.16"/>
   <path class="fil8 str1" d="M24.55 10.51c-0.22,-0.07 -0.42,-0.17 -0.6,-0.32"/>
   <path class="fil8 str1" d="M25.16 10.83c-0.2,0.05 -0.42,0.11 -0.63,0.09"/>
   <path class="fil9" d="M25.43 13.78c0.23,-0.39 0.56,-0.72 0.87,-1.06 0.21,-0.22 0.42,-0.46 0.56,-0.73 0.13,-0.26 0.19,-0.55 0.21,-0.84 0.01,-0.28 -0.03,-0.59 -0.22,-0.8 -0.28,-0.31 -0.79,-0.3 -1.13,-0.07 -0.35,0.22 -0.55,0.61 -0.68,1 -0.15,0.48 -0.2,0.99 -0.21,1.49 -0.01,0.35 0,0.71 0.04,1.06 0.03,0.3 0.04,0.73 0.18,1.01 0.09,-0.12 0.08,-0.32 0.12,-0.46 0.06,-0.21 0.15,-0.41 0.26,-0.6z"/>
   <path class="fil8 str2" d="M24.95 13.15c0.26,-0.14 0.47,-0.35 0.63,-0.59 0.38,-0.59 0.41,-1.35 0.78,-1.95"/>
   <path class="fil8 str2" d="M26.11 11.14c-0.12,-0.12 -0.2,-0.27 -0.25,-0.44"/>
   <path class="fil8 str2" d="M26.71 11.51c-0.17,0.13 -0.4,0.2 -0.62,0.19 -0.04,0 -0.09,-0.01 -0.12,0.01"/>
   <path class="fil8 str2" d="M25.74 12.27c0,0 -0.02,0 -0.02,0 -0.11,-0.06 -0.19,-0.15 -0.26,-0.25 -0.06,-0.11 -0.11,-0.22 -0.16,-0.33"/>
   <path class="fil8 str2" d="M25.95 12.81c-0.2,0.05 -0.4,0.06 -0.6,0.03"/>
   <path class="fil8 str1" d="M10.42 10.54c0.2,-0.1 0.39,-0.23 0.54,-0.4"/>
   <path class="fil8 str1" d="M9.86 10.94c0.21,0.03 0.43,0.06 0.63,0"/>
   <path class="fil7" d="M23.69 14.93l4.41 0c0.17,-0.26 0.17,-0.59 0.08,-0.88 -0.08,-0.25 -0.24,-0.49 -0.49,-0.59 -0.15,-0.06 -0.32,-0.06 -0.48,-0.01 -0.15,0.05 -0.29,0.15 -0.39,0.27 -0.02,-0.21 -0.18,-0.39 -0.39,-0.43 -0.2,-0.04 -0.43,0.07 -0.52,0.26 -0.16,-0.16 -0.43,-0.2 -0.65,-0.11 -0.21,0.08 -0.36,0.31 -0.36,0.54 0,0.01 -0.01,0.03 -0.02,0.02 -0.12,-0.15 -0.29,-0.22 -0.48,-0.21 -0.19,0.01 -0.37,0.11 -0.49,0.25 -0.13,0.15 -0.21,0.33 -0.24,0.52 -0.02,0.12 -0.02,0.25 0.02,0.37z"/>
   <polygon class="fil10" points="17.07,7.07 16.65,7.07 16.65,7.16 16.68,7.16 16.68,7.73 17.04,7.73 17.04,7.16 17.07,7.16 "/>
   <polygon class="fil11" points="21.52,14.92 9.32,14.92 9.32,12.31 21.52,12.31 "/>
   <polygon class="fil12" points="11.01,14.06 9.32,14.06 9.32,14.92 11.01,14.92 "/>
   <polygon class="fil13" points="12.27,12.84 9.81,12.84 9.81,14.92 12.27,14.92 "/>
   <polygon class="fil14" points="10.17,13.11 9.93,13.11 9.93,12.92 10.17,12.92 "/>
   <polygon class="fil14" points="10.44,13.11 10.2,13.11 10.2,12.92 10.44,12.92 "/>
   <polygon class="fil14" points="10.71,13.11 10.47,13.11 10.47,12.92 10.71,12.92 "/>
   <polygon class="fil14" points="10.98,13.11 10.74,13.11 10.74,12.92 10.98,12.92 "/>
   <polygon class="fil14" points="11.34,13.11 11.09,13.11 11.09,12.92 11.34,12.92 "/>
   <polygon class="fil14" points="11.61,13.11 11.36,13.11 11.36,12.92 11.61,12.92 "/>
   <polygon class="fil14" points="11.88,13.11 11.63,13.11 11.63,12.92 11.88,12.92 "/>
   <polygon class="fil14" points="12.15,13.11 11.9,13.11 11.9,12.92 12.15,12.92 "/>
   <polygon class="fil13" points="10.86,13.49 10.86,13.27 9.95,13.27 9.95,13.49 "/>
   <path class="fil15" d="M9.96 13.29l0 0.18 0.88 0 0 -0.18 -0.88 0zm-0.03 -0.03l0 0 0.95 0 0 0.25 -0.95 0 0 -0.25z"/>
   <polygon class="fil13" points="12.13,13.49 12.13,13.27 11.21,13.27 11.21,13.49 "/>
   <path class="fil15" d="M11.23 13.29l0 0.18 0.88 0 0 -0.18 -0.88 0zm-0.04 -0.03l0 0 0.96 0 0 0.25 -0.96 0 0 -0.25z"/>
   <polygon class="fil13" points="10.86,13.92 10.86,13.7 9.95,13.7 9.95,13.92 "/>
   <path class="fil15" d="M9.96 13.72l0 0.18 0.88 0 0 -0.18 -0.88 0zm-0.03 -0.03l0 0 0.95 0 0 0.25 -0.95 0 0 -0.25z"/>
   <polygon class="fil13" points="12.13,13.92 12.13,13.7 11.21,13.7 11.21,13.92 "/>
   <path class="fil15" d="M11.23 13.72l0 0.18 0.88 0 0 -0.18 -0.88 0zm-0.04 -0.03l0 0 0.96 0 0 0.25 -0.96 0 0 -0.25z"/>
   <polygon class="fil13" points="10.86,14.35 10.86,14.13 9.95,14.13 9.95,14.35 "/>
   <path class="fil15" d="M9.96 14.15l0 0.18 0.88 0 0 -0.18 -0.88 0zm-0.03 -0.03l0 0 0.95 0 0 0.25 -0.95 0 0 -0.25z"/>
   <polygon class="fil13" points="12.13,14.35 12.13,14.13 11.21,14.13 11.21,14.35 "/>
   <path class="fil15" d="M11.23 14.15l0 0.18 0.88 0 0 -0.18 -0.88 0zm-0.04 -0.03l0 0 0.96 0 0 0.25 -0.96 0 0 -0.25z"/>
   <polygon class="fil13" points="10.86,14.78 10.86,14.56 9.95,14.56 9.95,14.78 "/>
   <path class="fil15" d="M9.96 14.58l0 0.18 0.88 0 0 -0.18 -0.88 0zm-0.03 -0.03l0 0 0.95 0 0 0.25 -0.95 0 0 -0.25z"/>
   <polygon class="fil13" points="12.13,14.78 12.13,14.56 11.21,14.56 11.21,14.78 "/>
   <path class="fil15" d="M11.23 14.58l0 0.18 0.88 0 0 -0.18 -0.88 0zm-0.04 -0.03l0 0 0.96 0 0 0.25 -0.96 0 0 -0.25z"/>
   <polygon class="fil16" points="12.31,12.73 9.76,12.73 9.76,12.84 12.31,12.84 "/>
   <polygon class="fil16" points="9.81,14.92 9.81,12.73 9.7,12.73 9.7,14.92 "/>
   <polygon class="fil16" points="12.38,14.92 12.38,12.73 12.27,12.73 12.27,14.92 "/>
   <polygon class="fil17" points="13.03,9.39 13.64,8.09 19.08,8.09 19.69,9.39 "/>
   <polygon class="fil17" points="18.94,12.1 19.55,10.8 24.98,10.8 25.59,12.1 "/>
   <polygon class="fil18" points="23.54,8.91 10.63,8.91 9.03,12.31 25.15,12.31 "/>
   <polygon class="fil10" points="11.91,8.91 12.52,7.6 17.95,7.6 18.57,8.91 "/>
   <polygon class="fil19" points="15.17,11.13 12.34,11.13 12.34,9.29 15.31,6.9 16.73,8.01 15.17,9.29 "/>
   <polygon class="fil19" points="12.58,9.02 15.52,9.02 16.73,8.05 15.31,6.9 "/>
   <polygon class="fil20" points="18.8,14.91 11.84,14.91 11.84,12.31 18.8,12.31 "/>
   <polygon class="fil20" points="25.25,14.93 21,14.92 21.01,12.07 23.14,10.49 25.26,12.04 "/>
   <polygon class="fil12" points="18.8,14.06 11.84,14.06 11.84,14.92 18.8,14.92 "/>
   <polygon class="fil19" points="23.16,10.41 21.27,11.78 24.92,11.78 "/>
   <polygon class="fil21" points="17.47,12.84 13.19,12.84 13.19,14.92 17.47,14.92 "/>
   <polygon class="fil14" points="13.6,13.11 13.36,13.11 13.36,12.92 13.6,12.92 "/>
   <polygon class="fil14" points="13.87,13.11 13.63,13.11 13.63,12.92 13.87,12.92 "/>
   <polygon class="fil14" points="14.14,13.11 13.9,13.11 13.9,12.92 14.14,12.92 "/>
   <polygon class="fil14" points="14.41,13.11 14.17,13.11 14.17,12.92 14.41,12.92 "/>
   <polygon class="fil14" points="15.09,13.11 14.85,13.11 14.85,12.92 15.09,12.92 "/>
   <polygon class="fil14" points="15.36,13.11 15.12,13.11 15.12,12.92 15.36,12.92 "/>
   <polygon class="fil14" points="15.63,13.11 15.39,13.11 15.39,12.92 15.63,12.92 "/>
   <polygon class="fil14" points="15.9,13.11 15.66,13.11 15.66,12.92 15.9,12.92 "/>
   <polygon class="fil14" points="16.54,13.11 16.3,13.11 16.3,12.92 16.54,12.92 "/>
   <polygon class="fil14" points="16.81,13.11 16.57,13.11 16.57,12.92 16.81,12.92 "/>
   <polygon class="fil14" points="17.08,13.11 16.84,13.11 16.84,12.92 17.08,12.92 "/>
   <polygon class="fil14" points="17.35,13.11 17.11,13.11 17.11,12.92 17.35,12.92 "/>
   <polygon class="fil21" points="14.29,13.49 14.29,13.27 13.38,13.27 13.38,13.49 "/>
   <path class="fil22" d="M13.4 13.29l0 0.18 0.87 0 0 -0.18 -0.87 0zm-0.04 -0.03l0 0 0.95 0 0 0.25 -0.95 0 0 -0.25z"/>
   <polygon class="fil21" points="15.3,13.49 15.3,13.27 14.39,13.27 14.39,13.49 "/>
   <path class="fil22" d="M14.41 13.29l0 0.18 0.87 0 0 -0.18 -0.87 0zm-0.04 -0.03l0 0 0.95 0 0 0.25 -0.95 0 0 -0.25z"/>
   <polygon class="fil21" points="16.32,13.49 16.32,13.27 15.41,13.27 15.41,13.49 "/>
   <path class="fil22" d="M15.43 13.29l0 0.18 0.87 0 0 -0.18 -0.87 0zm-0.04 -0.03l0 0 0.95 0 0 0.25 -0.95 0 0 -0.25z"/>
   <polygon class="fil21" points="17.33,13.49 17.33,13.27 16.42,13.27 16.42,13.49 "/>
   <path class="fil22" d="M16.44 13.29l0 0.18 0.87 0 0 -0.18 -0.87 0zm-0.04 -0.03l0 0 0.95 0 0 0.25 -0.95 0 0 -0.25z"/>
   <polygon class="fil21" points="14.29,13.92 14.29,13.7 13.38,13.7 13.38,13.92 "/>
   <path class="fil22" d="M13.4 13.72l0 0.18 0.87 0 0 -0.18 -0.87 0zm-0.04 -0.03l0 0 0.95 0 0 0.25 -0.95 0 0 -0.25z"/>
   <polygon class="fil21" points="15.3,13.92 15.3,13.7 14.39,13.7 14.39,13.92 "/>
   <path class="fil22" d="M14.41 13.72l0 0.18 0.87 0 0 -0.18 -0.87 0zm-0.04 -0.03l0 0 0.95 0 0 0.25 -0.95 0 0 -0.25z"/>
   <polygon class="fil21" points="16.32,13.92 16.32,13.7 15.41,13.7 15.41,13.92 "/>
   <path class="fil22" d="M15.43 13.72l0 0.18 0.87 0 0 -0.18 -0.87 0zm-0.04 -0.03l0 0 0.95 0 0 0.25 -0.95 0 0 -0.25z"/>
   <polygon class="fil21" points="17.33,13.92 17.33,13.7 16.42,13.7 16.42,13.92 "/>
   <path class="fil22" d="M16.44 13.72l0 0.18 0.87 0 0 -0.18 -0.87 0zm-0.04 -0.03l0 0 0.95 0 0 0.25 -0.95 0 0 -0.25z"/>
   <polygon class="fil21" points="14.29,14.35 14.29,14.13 13.38,14.13 13.38,14.35 "/>
   <path class="fil22" d="M13.4 14.15l0 0.18 0.87 0 0 -0.18 -0.87 0zm-0.04 -0.03l0 0 0.95 0 0 0.25 -0.95 0 0 -0.25z"/>
   <polygon class="fil21" points="15.3,14.35 15.3,14.13 14.39,14.13 14.39,14.35 "/>
   <path class="fil22" d="M14.41 14.15l0 0.18 0.87 0 0 -0.18 -0.87 0zm-0.04 -0.03l0 0 0.95 0 0 0.25 -0.95 0 0 -0.25z"/>
   <polygon class="fil21" points="16.32,14.35 16.32,14.13 15.41,14.13 15.41,14.35 "/>
   <path class="fil22" d="M15.43 14.15l0 0.18 0.87 0 0 -0.18 -0.87 0zm-0.04 -0.03l0 0 0.95 0 0 0.25 -0.95 0 0 -0.25z"/>
   <polygon class="fil21" points="17.33,14.35 17.33,14.13 16.42,14.13 16.42,14.35 "/>
   <path class="fil22" d="M16.44 14.15l0 0.18 0.87 0 0 -0.18 -0.87 0zm-0.04 -0.03l0 0 0.95 0 0 0.25 -0.95 0 0 -0.25z"/>
   <polygon class="fil21" points="14.29,14.78 14.29,14.56 13.38,14.56 13.38,14.78 "/>
   <path class="fil22" d="M13.4 14.58l0 0.18 0.87 0 0 -0.18 -0.87 0zm-0.04 -0.03l0 0 0.95 0 0 0.25 -0.95 0 0 -0.25z"/>
   <polygon class="fil21" points="15.3,14.78 15.3,14.56 14.39,14.56 14.39,14.78 "/>
   <path class="fil22" d="M14.41 14.58l0 0.18 0.87 0 0 -0.18 -0.87 0zm-0.04 -0.03l0 0 0.95 0 0 0.25 -0.95 0 0 -0.25z"/>
   <polygon class="fil21" points="16.32,14.78 16.32,14.56 15.41,14.56 15.41,14.78 "/>
   <path class="fil22" d="M15.43 14.58l0 0.18 0.87 0 0 -0.18 -0.87 0zm-0.04 -0.03l0 0 0.95 0 0 0.25 -0.95 0 0 -0.25z"/>
   <polygon class="fil21" points="17.33,14.78 17.33,14.56 16.42,14.56 16.42,14.78 "/>
   <path class="fil22" d="M16.44 14.58l0 0.18 0.87 0 0 -0.18 -0.87 0zm-0.04 -0.03l0 0 0.95 0 0 0.25 -0.95 0 0 -0.25z"/>
   <polygon class="fil23" points="17.51,12.73 13.13,12.73 13.13,12.84 17.51,12.84 "/>
   <polygon class="fil23" points="13.19,14.92 13.19,12.73 13.08,12.73 13.08,14.92 "/>
   <polygon class="fil23" points="17.58,14.92 17.58,12.73 17.47,12.73 17.47,14.92 "/>
   <polygon class="fil24" points="20.4,14.92 19.33,14.92 19.33,12.91 20.4,12.91 "/>
   <polygon class="fil16" points="19.33,14.92 19.33,12.87 19.26,12.87 19.26,14.92 "/>
   <polygon class="fil16" points="20.47,14.92 20.47,12.87 20.4,12.87 20.4,14.92 "/>
   <polygon class="fil16" points="19.26,12.91 20.47,12.91 20.47,12.84 19.26,12.84 "/>
   <polygon class="fil25" points="20.22,13.45 20.22,13.03 19.51,13.03 19.51,13.45 "/>
   <path class="fil26" d="M19.53 13.04l0 0.39 0.67 0 0 -0.39 -0.67 0zm-0.04 -0.03l0 0 0.74 0 0 0.46 -0.74 0 0 -0.46z"/>
   <polygon class="fil27" points="19.82,13.03 19.51,13.33 19.51,13.17 19.66,13.02 "/>
   <polygon class="fil27" points="19.95,13.02 19.51,13.47 19.51,13.38 19.88,13.02 "/>
   <polygon class="fil27" points="19.91,13.46 20.22,13.15 20.22,13.31 20.07,13.46 "/>
   <polygon class="fil27" points="19.78,13.46 20.22,13.02 20.22,13.1 19.85,13.47 "/>
   <polygon class="fil26" points="20.22,13.25 19.5,13.25 19.5,13.22 20.22,13.22 "/>
   <polygon class="fil26" points="19.87,13.46 19.85,13.46 19.85,13.02 19.87,13.02 "/>
   <path class="fil28" d="M19.53 13.61l0 1.19 0.24 0 0 -1.19 -0.24 0zm-0.04 -0.04l0 0 0.32 0 0 1.27 -0.32 0 0 -1.27z"/>
   <path class="fil28" d="M19.96 13.61l0 1.19 0.24 0 0 -1.19 -0.24 0zm-0.04 -0.04l0 0 0.31 0 0 1.27 -0.31 0 0 -1.27z"/>
   <path class="fil28" d="M20.31 13.84l0 0 0 0.4 0 -0.4c0,0 0,0 0,0zm0 -0.04l0 0c0.03,0 0.04,0.02 0.04,0.04l0 0.4c0,0.02 -0.01,0.04 -0.04,0.04 -0.02,0 -0.03,-0.02 -0.03,-0.04l0 -0.4c0,-0.02 0.01,-0.04 0.03,-0.04z"/>
   <path class="fil29" d="M20.38 13.95c0,0.03 -0.03,0.06 -0.07,0.06 -0.03,0 -0.06,-0.03 -0.06,-0.06 0,-0.04 0.03,-0.06 0.06,-0.06 0.04,0 0.07,0.02 0.07,0.06z"/>
   <polygon class="fil30" points="24.98,11.93 21.29,11.93 21.29,11.75 24.98,11.75 "/>
   <path class="fil31" d="M11.84 12.52l-2.64 0c-0.09,0 -0.17,-0.08 -0.17,-0.18l0 -0.03 2.81 0 0 0.21z"/>
   <polygon class="fil31" points="21.38,12.52 18.57,12.52 18.57,12.31 21.38,12.31 "/>
   <path class="fil32" d="M18.84 12.63l-7.02 0c-0.09,0 -0.16,-0.08 -0.16,-0.17l0 -0.04 7.35 0 0 0.04c0,0.09 -0.08,0.17 -0.17,0.17z"/>
   <polygon class="fil25" points="24.17,13.87 24.17,12.19 22.1,12.19 22.1,13.87 "/>
   <path class="fil26" d="M22.15 12.24l0 1.58 1.97 0 0 -1.58 -1.97 0zm-0.09 -0.1l0 0 2.15 0 0 1.78 -2.15 0 0 -1.78z"/>
   <polygon class="fil27" points="23.22,12.21 22.09,13.33 22.09,12.75 22.65,12.19 "/>
   <polygon class="fil27" points="24.18,12.99 23.28,13.89 22.69,13.89 24.13,12.45 "/>
   <polygon class="fil27" points="23.73,12.19 22.09,13.83 22.1,13.51 23.44,12.17 "/>
   <polygon class="fil27" points="24.2,13.4 23.72,13.87 23.45,13.83 24.17,13.12 "/>
   <polygon class="fil26" points="23.19,13.84 23.08,13.84 23.08,12.21 23.19,12.21 "/>
   <polygon class="fil10" points="11.66,12.43 11.99,11.13 18.67,11.13 19.01,12.43 "/>
   <polygon class="fil33" points="21.56,11.6 21,11.99 21,14.72 21.56,14.72 "/>
   <polygon class="fil12" points="21.56,14.08 21,14.08 21,14.92 21.56,14.92 "/>
   <polygon class="fil33" points="24.7,11.61 25.25,12 25.25,14.74 24.7,14.74 "/>
   <polygon class="fil12" points="24.7,14.09 25.25,14.09 25.25,14.93 24.7,14.93 "/>
   <path class="fil9" d="M23.99 14.93l2.54 0c0.07,-0.04 0.11,-0.13 0.14,-0.21 0.03,-0.08 0.05,-0.16 0.04,-0.25 -0.02,-0.13 -0.11,-0.24 -0.24,-0.28 -0.12,-0.04 -0.26,0 -0.35,0.1 0.02,-0.08 0,-0.17 -0.03,-0.24 -0.08,-0.17 -0.26,-0.29 -0.44,-0.3 -0.19,-0.01 -0.38,0.1 -0.47,0.27 -0.08,-0.16 -0.24,-0.26 -0.42,-0.24 -0.17,0.01 -0.33,0.15 -0.36,0.32 -0.12,-0.07 -0.27,-0.05 -0.37,0.04 -0.11,0.1 -0.16,0.25 -0.16,0.39 0.01,0.15 0.05,0.28 0.12,0.4z"/>
   <path class="fil8 str2" d="M25.42 14.74c0.17,-0.19 0.27,-0.45 0.29,-0.71"/>
   <path class="fil8 str2" d="M25.46 13.98c0.03,0.12 0.1,0.23 0.2,0.3"/>
   <path class="fil8 str2" d="M25.8 14.53c-0.07,0.01 -0.14,0.01 -0.21,-0.01"/>
   <path class="fil8 str2" d="M24.45 14.77c-0.15,-0.15 -0.25,-0.35 -0.28,-0.56"/>
   <path class="fil8 str2" d="M24.36 14.67c0,0 0.01,0 0.01,-0.01 0.07,-0.06 0.09,-0.16 0.11,-0.26"/>
   <path class="fil8 str2" d="M24.21 14.46c-0.05,0 -0.1,-0.03 -0.13,-0.07"/>
   <path class="fil8 str2" d="M24.94 14.51c-0.06,-0.13 -0.08,-0.28 -0.07,-0.43"/>
   <path class="fil8 str2" d="M26.1 14.8c0.13,-0.08 0.23,-0.19 0.31,-0.32"/>
   <path class="fil8 str2" d="M24.93 14.35c0.05,-0.04 0.07,-0.1 0.08,-0.16"/>
   <path class="fil8 str2" d="M26.28 14.64c-0.03,-0.06 -0.03,-0.13 -0.02,-0.2"/>
   <path class="fil8 str2" d="M24.85 14.2c-0.05,-0.02 -0.09,-0.07 -0.11,-0.12"/>
   <path class="fil8 str2" d="M26.33 14.8c-0.05,0 -0.1,-0.01 -0.14,-0.03"/>
   <path class="fil34" d="M25.59 12.1l-2.46 -1.88 0 0 0 0 -2.45 1.88 0.02 0.03c0.07,0.1 0.22,0.12 0.32,0.04l2.11 -1.62 2.12 1.62c0.1,0.08 0.25,0.06 0.32,-0.04l0.02 -0.03z"/>
   <path class="fil35" d="M23.32 11.56c0.02,0 0.04,-0.02 0.04,-0.05l0 -0.49c0,-0.03 -0.02,-0.05 -0.04,-0.05l-0.37 0c-0.03,0 -0.04,0.02 -0.04,0.05l0 0.49c0,0.03 0.01,0.05 0.04,0.05l0.37 0z"/>
   <path class="fil16" d="M22.95 11c-0.01,0 -0.02,0.01 -0.02,0.02l0 0.49c0,0.01 0.01,0.02 0.02,0.02l0.37 0c0.01,0 0.01,-0.01 0.01,-0.02l0 -0.49c0,-0.01 0,-0.02 -0.01,-0.02l-0.37 0zm0 -0.05l0 0 0.37 0c0.03,0 0.06,0.03 0.06,0.07l0 0.49c0,0.04 -0.03,0.07 -0.06,0.07l-0.37 0c-0.04,0 -0.07,-0.03 -0.07,-0.07l0 -0.49c0,-0.04 0.03,-0.07 0.07,-0.07z"/>
   <polygon class="fil30" points="15.5,9.03 12.63,9.03 12.63,8.86 15.5,8.86 "/>
   <path class="fil34" d="M17.79 8.64l-2.46 -1.89 0 0.01 0 -0.01 -3.58 2.74 0.04 0.04c0.07,0.1 0.2,0.11 0.29,0.04l3.25 -2.49 2.3 1.76 0.16 -0.2z"/>
   <path class="fil35" d="M15.5 8.42c0.07,0 0.13,-0.06 0.13,-0.13l0 -0.47c0,-0.07 -0.06,-0.13 -0.13,-0.13l-0.32 0c-0.07,0 -0.13,0.06 -0.13,0.13l0 0.47c0,0.07 0.06,0.13 0.13,0.13l0.32 0z"/>
   <path class="fil16" d="M15.18 7.71c-0.06,0 -0.1,0.05 -0.1,0.11l0 0.47c0,0.06 0.04,0.11 0.1,0.11l0.32 0c0.06,0 0.1,-0.05 0.1,-0.11l0 -0.47c0,-0.06 -0.04,-0.11 -0.1,-0.11l-0.32 0zm0 -0.04l0 0 0.32 0c0.08,0 0.15,0.06 0.15,0.15l0 0.47c0,0.09 -0.07,0.15 -0.15,0.15l-0.32 0c-0.08,0 -0.15,-0.06 -0.15,-0.15l0 -0.47c0,-0.09 0.07,-0.15 0.15,-0.15z"/>
   <polygon class="fil36" points="20.81,14.22 20.81,12.94 20.61,12.94 20.61,14.22 "/>
   <path class="fil26" d="M20.63 12.96l0 1.25 0.16 0 0 -1.25 -0.16 0zm-0.04 -0.03l0 0 0.24 0 0 1.31 -0.24 0 0 -1.31z"/>
   <polygon class="fil27" points="20.81,12.93 20.6,13.14 20.6,13.03 20.7,12.93 "/>
   <polygon class="fil27" points="20.82,13.01 20.6,13.23 20.6,13.17 20.81,12.96 "/>
   <polygon class="fil27" points="20.81,13.42 20.6,13.63 20.6,13.52 20.8,13.32 "/>
   <polygon class="fil27" points="20.82,13.5 20.6,13.72 20.6,13.66 20.81,13.45 "/>
   <polygon class="fil27" points="20.81,13.94 20.6,14.15 20.6,14.04 20.8,13.84 "/>
   <polygon class="fil27" points="20.82,14.02 20.6,14.24 20.6,14.18 20.81,13.97 "/>
   <polygon class="fil36" points="19.13,14.22 19.13,12.94 18.93,12.94 18.93,14.22 "/>
   <path class="fil26" d="M18.95 12.96l0 1.25 0.16 0 0 -1.25 -0.16 0zm-0.04 -0.03l0 0 0.24 0 0 1.31 -0.24 0 0 -1.31z"/>
   <polygon class="fil27" points="19.13,12.93 18.92,13.14 18.92,13.03 19.03,12.93 "/>
   <polygon class="fil27" points="19.14,13.01 18.92,13.23 18.92,13.17 19.13,12.96 "/>
   <polygon class="fil27" points="19.13,13.42 18.92,13.63 18.92,13.52 19.12,13.32 "/>
   <polygon class="fil27" points="19.14,13.5 18.92,13.72 18.92,13.66 19.13,13.45 "/>
   <polygon class="fil27" points="19.13,13.94 18.92,14.15 18.92,14.04 19.12,13.84 "/>
   <polygon class="fil27" points="19.14,14.02 18.92,14.24 18.92,14.18 19.13,13.97 "/>
   <path class="fil37" d="M17.72 13.67l0 0.21 0.9 0 0 -0.21 -0.9 0zm-0.03 -0.03l0 0 0.97 0 0 0.28 -0.97 0 0 -0.28z"/>
   <path class="fil38" d="M18.23 12.96c0,0.03 -0.02,0.05 -0.05,0.05 -0.03,0 -0.06,-0.02 -0.06,-0.05 0,-0.03 0.03,-0.06 0.06,-0.06 0.03,0 0.05,0.03 0.05,0.06z"/>
   <path class="fil39" d="M18.17 13.24c-0.03,0 -0.06,-0.03 -0.06,-0.07l0 0 0.13 0 0 0c0,0.04 -0.03,0.07 -0.07,0.07z"/>
   <path class="fil40" d="M18.2 13.03l-0.05 0 0 -0.11c0,-0.01 0.01,-0.02 0.03,-0.02 0.01,0 0.02,0.01 0.02,0.02l0 0.11z"/>
   <path class="fil41" d="M18.29 13.19l-0.23 0 0.02 -0.13c0,-0.04 0.04,-0.08 0.09,-0.08 0.05,0 0.09,0.04 0.1,0.08l0.02 0.13z"/>
   <path class="fil38" d="M19.92 12.68c0,0.02 -0.03,0.05 -0.05,0.05 -0.03,0 -0.06,-0.03 -0.06,-0.05 0,-0.03 0.03,-0.06 0.06,-0.06 0.02,0 0.05,0.03 0.05,0.06z"/>
   <path class="fil39" d="M19.86 12.96c-0.03,0 -0.06,-0.03 -0.06,-0.07l0 0 0.13 0 0 0c0,0.04 -0.03,0.07 -0.07,0.07z"/>
   <path class="fil40" d="M19.89 12.75l-0.05 0 0 -0.11c0,-0.01 0.01,-0.03 0.03,-0.03 0.01,0 0.02,0.02 0.02,0.03l0 0.11z"/>
   <path class="fil41" d="M19.98 12.9l-0.23 0 0.02 -0.12c0,-0.05 0.04,-0.08 0.09,-0.08 0.05,0 0.09,0.03 0.1,0.08l0.02 0.12z"/>
   <path class="fil38" d="M12.55 12.96c0,0.03 -0.02,0.05 -0.05,0.05 -0.03,0 -0.06,-0.02 -0.06,-0.05 0,-0.03 0.03,-0.06 0.06,-0.06 0.03,0 0.05,0.03 0.05,0.06z"/>
   <path class="fil39" d="M12.49 13.24c-0.03,0 -0.06,-0.03 -0.06,-0.07l0 0 0.13 0 0 0c0,0.04 -0.03,0.07 -0.07,0.07z"/>
   <path class="fil40" d="M12.52 13.03l-0.05 0 0 -0.11c0,-0.01 0.01,-0.02 0.03,-0.02 0.01,0 0.02,0.01 0.02,0.02l0 0.11z"/>
   <path class="fil41" d="M12.61 13.19l-0.23 0 0.02 -0.13c0,-0.04 0.04,-0.08 0.09,-0.08 0.05,0 0.09,0.04 0.1,0.08l0.02 0.13z"/>
   <polygon class="fil42" points="18.35,11.37 15.17,11.37 15.17,9.29 16.73,8.09 18.35,9.29 "/>
   <polygon class="fil19" points="18.1,9.03 16.78,8.12 15.37,9.03 15.24,9.24 18.22,9.24 "/>
   <polygon class="fil30" points="18.17,9.24 15.36,9.24 15.36,9.06 18.17,9.06 "/>
   <polygon class="fil25" points="17.57,10.94 17.57,9.58 15.89,9.58 15.89,10.94 "/>
   <path class="fil26" d="M15.94 9.63l0 1.26 1.58 0 0 -1.26 -1.58 0zm-0.09 -0.1l0 0 1.76 0 0 1.46 -1.76 0 0 -1.46z"/>
   <polygon class="fil27" points="16.8,9.58 15.88,10.51 15.87,10.03 16.33,9.57 "/>
   <polygon class="fil27" points="17.58,10.22 16.85,10.96 16.36,10.97 17.55,9.78 "/>
   <polygon class="fil27" points="17.21,9.57 15.87,10.91 15.88,10.66 16.98,9.55 "/>
   <polygon class="fil27" points="17.6,10.56 17.21,10.95 16.99,10.92 17.58,10.33 "/>
   <polygon class="fil26" points="16.78,10.92 16.68,10.92 16.68,9.59 16.78,9.59 "/>
   <polygon class="fil25" points="14.86,10.79 14.86,9.43 13.18,9.43 13.18,10.79 "/>
   <path class="fil26" d="M13.23 9.48l0 1.27 1.58 0 0 -1.27 -1.58 0zm-0.1 -0.09l0 0 1.77 0 0 1.45 -1.77 0 0 -1.45z"/>
   <polygon class="fil27" points="14.09,9.44 13.16,10.36 13.16,9.88 13.62,9.43 "/>
   <polygon class="fil27" points="14.87,10.08 14.14,10.81 13.65,10.82 14.84,9.63 "/>
   <polygon class="fil27" points="14.5,9.43 13.16,10.77 13.17,10.51 14.27,9.41 "/>
   <polygon class="fil27" points="14.89,10.41 14.5,10.8 14.28,10.77 14.86,10.18 "/>
   <polygon class="fil26" points="14.07,10.77 13.97,10.77 13.97,9.44 14.07,9.44 "/>
   <path class="fil34" d="M18.92 9.5l-2.14 -1.64 0 0 0 0 -2.08 1.59 0.02 0.03c0.08,0.1 0.22,0.12 0.32,0.04l1.74 -1.33 1.8 1.38c0.1,0.08 0.25,0.06 0.32,-0.04l0.02 -0.03z"/>
   <path class="fil8" d="M28.63 13.84c-0.01,0 -0.02,-0.01 -0.02,-0.01l0.02 0.01z"/>
   <path class="fil9" d="M10.03 14.92l-1.7 0c-0.07,-0.08 -0.13,-0.18 -0.15,-0.28 -0.01,-0.11 0.01,-0.22 0.08,-0.3 0.1,-0.11 0.27,-0.14 0.39,-0.06 0.03,0.01 0.05,0.03 0.07,0.04 0.01,-0.06 0.05,-0.14 0.11,-0.17 0.04,-0.02 0.08,-0.03 0.12,-0.04 0.09,-0.01 0.19,0.02 0.26,0.07 0.07,0.06 0.12,0.14 0.14,0.23 0.06,-0.09 0.18,-0.12 0.28,-0.09 0.11,0.03 0.19,0.13 0.19,0.24 0.05,-0.01 0.1,0.01 0.15,0.03 0.04,0.02 0.08,0.07 0.09,0.11 0.02,0.07 0,0.16 -0.03,0.22z"/>
   <path class="fil8 str1" d="M27.41 14.52c-0.07,-0.05 -0.12,-0.12 -0.16,-0.2 -0.04,-0.07 -0.07,-0.15 -0.1,-0.23"/>
   <path class="fil8 str1" d="M27.35 14.83c0.1,-0.33 0.16,-0.7 0.15,-1.06"/>
   <path class="fil8 str1" d="M27.5 14.23c0.02,0.01 0.04,0 0.06,-0.01 0.08,-0.04 0.15,-0.09 0.2,-0.16 0.02,-0.02 0.04,-0.04 0.04,-0.06"/>
   <path class="fil8 str1" d="M26.22 14.44c-0.04,-0.27 0.03,-0.56 0.2,-0.78"/>
   <path class="fil8 str1" d="M26.24 13.97c-0.07,-0.11 -0.11,-0.24 -0.1,-0.37"/>
   <path class="fil8 str1" d="M26.56 13.8c-0.07,0.05 -0.16,0.07 -0.24,0.05"/>
  </g>
  <g id="_1825585103120">
   <path class="fil0" d="M0 7.9c0,0 0.03,0.01 0.08,0.03 0.15,0.07 0.5,0.24 0.75,0.52 0,0 1.89,-0.34 2.4,0.33 0,0 0.59,-0.19 1.19,-0.19l0.51 0c0.6,0 1.18,0.19 1.18,0.19 0.51,-0.67 2.41,-0.33 2.41,-0.33 0.01,-0.02 0.03,-0.04 0.04,-0.05 0.02,-0.02 0.03,-0.03 0.04,-0.04 0.02,-0.02 0.04,-0.03 0.05,-0.05 0.02,-0.02 0.05,-0.03 0.07,-0.05 0,0 0,0 0,0 0.02,-0.02 0.04,-0.04 0.07,-0.05 0.02,-0.02 0.04,-0.04 0.07,-0.05 0.02,-0.02 0.04,-0.03 0.07,-0.05 0,0 0,0 0,0 0.02,-0.01 0.04,-0.03 0.06,-0.04 0.02,-0.01 0.05,-0.02 0.07,-0.04 0.01,0 0.02,-0.01 0.03,-0.01 0.03,-0.02 0.06,-0.03 0.08,-0.04 0.02,-0.01 0.03,-0.02 0.05,-0.03 0.01,0 0.03,-0.01 0.04,-0.02 0,0 0,0 0.01,0 0,0 0.01,0 0.01,-0.01 0.01,0 0.02,0 0.03,-0.01 0.02,-0.01 0.04,-0.01 0.04,-0.01 -0.29,-0.27 -0.92,-0.5 -1.54,-0.67 -0.04,-0.02 -0.09,-0.03 -0.14,-0.04 -0.05,-0.02 -0.1,-0.03 -0.15,-0.04 -0.05,-0.01 -0.09,-0.03 -0.14,-0.04 0,0 0,0 0,0 -0.05,-0.01 -0.09,-0.02 -0.14,-0.03 -0.01,0 -0.02,-0.01 -0.03,-0.01 -0.02,0 -0.04,-0.01 -0.05,-0.01 -0.03,-0.01 -0.05,-0.01 -0.08,-0.02 -0.01,0 -0.02,0 -0.03,-0.01 -0.09,-0.02 -0.17,-0.03 -0.25,-0.05 -0.03,-0.01 -0.07,-0.02 -0.1,-0.02 -0.01,0 -0.02,0 -0.02,-0.01 -0.05,0 -0.08,-0.01 -0.12,-0.02 -0.08,-0.02 -0.14,-0.03 -0.19,-0.04 -0.01,0 -0.02,0 -0.02,0 -0.04,-0.01 -0.06,-0.01 -0.07,-0.01 -0.01,0 -0.01,0 -0.01,0l-3.2 0c0,0 -0.09,0.01 -0.24,0.04 -0.04,0.01 -0.09,0.02 -0.15,0.03 -0.01,0 -0.02,0.01 -0.03,0.01 -0.02,0 -0.04,0.01 -0.05,0.01 -0.01,0 -0.01,0 -0.01,0 -0.03,0.01 -0.07,0.01 -0.1,0.02 -0.02,0.01 -0.04,0.01 -0.07,0.02 -0.04,0.01 -0.08,0.01 -0.12,0.02 -0.1,0.03 -0.2,0.05 -0.31,0.08 -0.01,0 -0.01,0 -0.02,0 0,0 0,0 0,0 0,0 0,0 0,0 -0.14,0.04 -0.29,0.08 -0.44,0.12 -0.04,0.01 -0.08,0.02 -0.11,0.03 -0.04,0.01 -0.07,0.02 -0.1,0.03 -0.05,0.02 -0.1,0.03 -0.15,0.05 -0.03,0.01 -0.06,0.02 -0.09,0.03 -0.08,0.02 -0.16,0.05 -0.23,0.08 -0.04,0.01 -0.07,0.02 -0.1,0.04 0,0 -0.01,0 -0.01,0 -0.03,0.01 -0.07,0.03 -0.1,0.04 -0.02,0.01 -0.05,0.02 -0.07,0.03 -0.02,0.01 -0.03,0.01 -0.05,0.02 -0.04,0.02 -0.08,0.04 -0.12,0.06 -0.02,0.01 -0.03,0.01 -0.05,0.02 -0.14,0.08 -0.26,0.16 -0.35,0.24z"/>
   <path class="fil1" d="M5.49 6.88c0.04,0.07 0.07,0.14 0.11,0.21 0.14,0.32 0.25,0.64 0.33,0.92 0.13,0.44 0.18,0.77 0.18,0.77 0.51,-0.67 2.41,-0.33 2.41,-0.33 0.01,-0.02 0.03,-0.04 0.04,-0.05 0.02,-0.02 0.03,-0.03 0.04,-0.04 0.02,-0.02 0.04,-0.03 0.05,-0.05 0.02,-0.02 0.04,-0.03 0.07,-0.05 0,0 0,0 0,0 0.02,-0.02 0.04,-0.04 0.07,-0.05 0.02,-0.02 0.04,-0.04 0.07,-0.05 0.02,-0.02 0.04,-0.03 0.07,-0.05 0,0 0,0 0,0 0.02,-0.01 0.04,-0.03 0.06,-0.04 0.02,-0.01 0.05,-0.02 0.07,-0.04 0.01,0 0.02,-0.01 0.03,-0.01 0.03,-0.02 0.06,-0.03 0.08,-0.04 0.02,-0.01 0.03,-0.02 0.05,-0.03 0.01,0 0.03,-0.01 0.04,-0.02 0,0 0,0 0.01,0 0,0 0.01,0 0.01,-0.01 0.01,0 0.02,0 0.03,-0.01 0.02,-0.01 0.04,-0.01 0.04,-0.01 -0.29,-0.27 -0.92,-0.5 -1.54,-0.67 -0.04,-0.02 -0.09,-0.03 -0.14,-0.04 -0.05,-0.02 -0.1,-0.03 -0.15,-0.04 -0.05,-0.01 -0.09,-0.03 -0.14,-0.04 0,0 0,0 0,0 -0.05,-0.01 -0.09,-0.02 -0.14,-0.03 -0.01,0 -0.02,-0.01 -0.03,-0.01 -0.02,0 -0.04,-0.01 -0.05,-0.01 -0.03,-0.01 -0.05,-0.01 -0.08,-0.02 -0.01,0 -0.02,0 -0.03,-0.01 -0.09,-0.02 -0.17,-0.03 -0.25,-0.05 -0.03,-0.01 -0.07,-0.02 -0.1,-0.02 -0.01,0 -0.02,0 -0.02,-0.01 -0.05,0 -0.08,-0.01 -0.12,-0.02 -0.08,-0.02 -0.14,-0.03 -0.19,-0.04 -0.01,0 -0.02,0 -0.02,0 -0.04,-0.01 -0.06,-0.01 -0.07,-0.01 -0.01,0 -0.01,0 -0.01,0l-0.78 0z"/>
   <path class="fil1" d="M0 7.9c0,0 0.03,0.01 0.08,0.03 0.15,0.07 0.5,0.24 0.75,0.52 0,0 1.89,-0.34 2.4,0.33 0,0 0.06,-0.33 0.19,-0.77 0.08,-0.28 0.19,-0.6 0.33,-0.92 0.03,-0.07 0.07,-0.14 0.1,-0.21l-0.78 0c0,0 -0.09,0.01 -0.24,0.04 -0.04,0.01 -0.09,0.02 -0.15,0.03 -0.01,0 -0.02,0.01 -0.03,0.01 -0.02,0 -0.04,0.01 -0.05,0.01 -0.01,0 -0.01,0 -0.01,0 -0.03,0.01 -0.07,0.01 -0.1,0.02 -0.02,0.01 -0.04,0.01 -0.07,0.02 -0.04,0.01 -0.08,0.01 -0.12,0.02 -0.1,0.03 -0.2,0.05 -0.31,0.08 -0.01,0 -0.01,0 -0.02,0 0,0 0,0 0,0 0,0 0,0 0,0 -0.14,0.04 -0.29,0.08 -0.44,0.12 -0.04,0.01 -0.08,0.02 -0.11,0.03 -0.04,0.01 -0.07,0.02 -0.1,0.03 -0.05,0.02 -0.1,0.03 -0.15,0.05 -0.03,0.01 -0.06,0.02 -0.09,0.03 -0.08,0.02 -0.16,0.05 -0.23,0.08 -0.04,0.01 -0.07,0.02 -0.1,0.04 0,0 -0.01,0 -0.01,0 -0.03,0.01 -0.07,0.03 -0.1,0.04 -0.02,0.01 -0.05,0.02 -0.07,0.03 -0.02,0.01 -0.03,0.01 -0.05,0.02 -0.04,0.02 -0.08,0.04 -0.12,0.06 -0.02,0.01 -0.03,0.01 -0.05,0.02 -0.14,0.08 -0.26,0.16 -0.35,0.24z"/>
   <path class="fil0" d="M7.81 7.23c0.24,0.27 0.4,0.52 0.51,0.73 0.15,0.29 0.2,0.49 0.2,0.49 0.01,-0.02 0.03,-0.04 0.04,-0.05 0.02,-0.02 0.03,-0.03 0.04,-0.04 0.02,-0.02 0.04,-0.03 0.05,-0.05 0.02,-0.02 0.04,-0.03 0.07,-0.05 0,0 0,0 0,0 0.02,-0.02 0.04,-0.04 0.07,-0.05 0.02,-0.02 0.04,-0.04 0.07,-0.05 0.02,-0.02 0.04,-0.03 0.07,-0.05 0,0 0,0 0,0 0.02,-0.01 0.04,-0.03 0.06,-0.04 0.02,-0.01 0.05,-0.02 0.07,-0.04 0.01,0 0.02,-0.01 0.03,-0.01 0.03,-0.02 0.06,-0.03 0.08,-0.04 0.02,-0.01 0.03,-0.02 0.05,-0.03 0.01,0 0.03,-0.01 0.04,-0.02 0,0 0,0 0.01,0 0,0 0.01,0 0.01,-0.01 0.01,0 0.02,0 0.03,-0.01 0.02,-0.01 0.04,-0.01 0.04,-0.01 -0.29,-0.27 -0.92,-0.5 -1.54,-0.67z"/>
   <path class="fil0" d="M0 7.9c0,0 0.03,0.01 0.08,0.03 0.15,0.07 0.5,0.24 0.75,0.52 0,0 0.04,-0.2 0.19,-0.49 0.11,-0.21 0.27,-0.46 0.51,-0.73 -0.04,0.01 -0.08,0.02 -0.11,0.03 -0.04,0.01 -0.07,0.02 -0.1,0.03 -0.05,0.02 -0.1,0.03 -0.15,0.05 -0.03,0.01 -0.06,0.02 -0.09,0.03 -0.08,0.02 -0.16,0.05 -0.23,0.08 -0.04,0.01 -0.07,0.02 -0.1,0.04 0,0 -0.01,0 -0.01,0 -0.03,0.01 -0.07,0.03 -0.1,0.04 -0.02,0.01 -0.05,0.02 -0.07,0.03 -0.02,0.01 -0.03,0.01 -0.05,0.02 -0.04,0.02 -0.08,0.04 -0.12,0.06 -0.02,0.01 -0.03,0.01 -0.05,0.02 -0.14,0.08 -0.26,0.16 -0.35,0.24z"/>
   <g>
    <path class="fil2" d="M4.6 5.42l0 6.78c0,0.04 0.03,0.08 0.07,0.08 0.04,0 0.07,-0.04 0.07,-0.08l0 -6.78c0,-0.04 -0.03,-0.07 -0.07,-0.07 -0.04,0 -0.07,0.03 -0.07,0.07z"/>
   </g>
   <path class="fil3" d="M4.6 11.78l0 0.66 0.14 0 0 -0.79c-0.04,0.03 -0.09,0.07 -0.14,0.13z"/>
   <path class="fil3" d="M4.6 7.1l0 0.52c0.05,0 0.1,-0.01 0.14,-0.01l0 -0.51 -0.14 0z"/>
   <g>
    <path class="fil4" d="M3.57 12.8c0.07,0 0.11,0.06 0.11,0.13l0 0.26c0,0.23 0.18,0.43 0.42,0.44 0.25,0.01 0.45,-0.19 0.45,-0.43l0 -1.39c0,-0.03 0.02,-0.05 0.04,-0.05l0.16 0c0.03,0 0.05,0.02 0.05,0.05l0 1.37c0,0.37 -0.29,0.68 -0.66,0.7 -0.39,0.01 -0.7,-0.3 -0.7,-0.68l0 -0.28c0,-0.07 0.06,-0.13 0.13,-0.12z"/>
   </g>
   <g>
    <path class="fil4" d="M4.67 6.3c0.05,0 0.09,-0.06 0.09,-0.13l0 -0.89c0,-0.07 -0.04,-0.12 -0.09,-0.12 -0.05,0 -0.09,0.05 -0.09,0.12l0 0.89c0,0.07 0.04,0.13 0.09,0.13z"/>
   </g>
   <g>
    <path class="fil5" d="M0 7.9c0.56,-0.2 1.62,-0.32 2.56,-0.4 0.95,-0.07 1.77,-0.09 1.77,-0.09l0.69 0c0,0 0.81,0.02 1.77,0.09 0.93,0.08 2,0.2 2.56,0.4 0,0 -1.82,-1.96 -3.5,-1.96 0,0 -0.36,-0.36 -1.18,-0.09 -0.81,-0.27 -1.17,0.09 -1.17,0.09 -1.68,0 -3.5,1.96 -3.5,1.96z"/>
    <path class="fil6" d="M2.56 7.5c0.95,-0.07 1.77,-0.09 1.77,-0.09l0.69 0c0,0 0.81,0.02 1.77,0.09 -0.33,-0.89 -0.94,-1.56 -0.94,-1.56 0,0 -0.36,-0.36 -1.18,-0.09 -0.81,-0.27 -1.17,0.09 -1.17,0.09 0,0 -0.61,0.67 -0.94,1.56z"/>
   </g>
  </g>
 </g>
</svg>
