<?xml version="1.0" encoding="UTF-8"?>
<!DOCTYPE svg PUBLIC "-//W3C//DTD SVG 1.1//EN" "http://www.w3.org/Graphics/SVG/1.1/DTD/svg11.dtd">
<!-- Creator: CorelDRAW 2020 (64-Bit) -->
<svg xmlns="http://www.w3.org/2000/svg" xml:space="preserve" width="375px" height="186px" version="1.1" style="shape-rendering:geometricPrecision; text-rendering:geometricPrecision; image-rendering:optimizeQuality; fill-rule:evenodd; clip-rule:evenodd"
viewBox="0 0 104.86 51.99"
 xmlns:xlink="http://www.w3.org/1999/xlink"
 xmlns:xodm="http://www.corel.com/coreldraw/odm/2003">
 <defs>
  <style type="text/css">
   <![CDATA[
    .str2 {stroke:#008E8A;stroke-width:0.08;stroke-linecap:round;stroke-miterlimit:10}
    .str1 {stroke:#00B3AC;stroke-width:0.08;stroke-linecap:round;stroke-miterlimit:10}
    .str0 {stroke:#00B3AC;stroke-width:0.18;stroke-linecap:round;stroke-miterlimit:10}
    .fil39 {fill:none}
    .fil2 {fill:none;fill-rule:nonzero}
    .fil11 {fill:#010C2F}
    .fil4 {fill:#03134F}
    .fil23 {fill:#0F183F}
    .fil30 {fill:#4C99F8}
    .fil24 {fill:#838795}
    .fil26 {fill:#9599AA}
    .fil13 {fill:#A1A7B6}
    .fil29 {fill:#A5B5FF}
    .fil36 {fill:#CFD6E8}
    .fil25 {fill:#DADFF9}
    .fil0 {fill:#F4F6FE}
    .fil1 {fill:#008E8A;fill-rule:nonzero}
    .fil3 {fill:#00B3AC;fill-rule:nonzero}
    .fil12 {fill:#030F3F;fill-rule:nonzero}
    .fil22 {fill:#0F183F;fill-rule:nonzero}
    .fil18 {fill:#131D4F;fill-rule:nonzero}
    .fil38 {fill:#334BAE;fill-rule:nonzero}
    .fil8 {fill:#343B56;fill-rule:nonzero}
    .fil9 {fill:#495279;fill-rule:nonzero}
    .fil19 {fill:#4C99F8;fill-rule:nonzero}
    .fil16 {fill:#505985;fill-rule:nonzero}
    .fil7 {fill:#505B85;fill-rule:nonzero}
    .fil15 {fill:#56628E;fill-rule:nonzero}
    .fil28 {fill:#5A69F7;fill-rule:nonzero}
    .fil32 {fill:#6D778C;fill-rule:nonzero}
    .fil37 {fill:#829AF9;fill-rule:nonzero}
    .fil6 {fill:#838795;fill-rule:nonzero}
    .fil34 {fill:#8793AC;fill-rule:nonzero}
    .fil5 {fill:#9095A3;fill-rule:nonzero}
    .fil27 {fill:#A1A7B6;fill-rule:nonzero}
    .fil17 {fill:#A5B5FF;fill-rule:nonzero}
    .fil35 {fill:#AABADB;fill-rule:nonzero}
    .fil31 {fill:#BFC3DB;fill-rule:nonzero}
    .fil14 {fill:#CFD6E8;fill-rule:nonzero}
    .fil10 {fill:#DADFF9;fill-rule:nonzero}
    .fil20 {fill:#F2F2F2;fill-rule:nonzero}
    .fil33 {fill:#FFE15B;fill-rule:nonzero}
    .fil21 {fill:#F2F2F2;fill-rule:nonzero;fill-opacity:0.250980}
   ]]>
  </style>
   <clipPath id="id0">
    <path d="M0 0l104.86 0 0 51.99 -104.86 0 0 -51.99z"/>
   </clipPath>
 </defs>
 <g id="Слой_x0020_1">
  <metadata id="CorelCorpID_0Corel-Layer"/>
  <polygon class="fil0" points="0,0 104.86,0 104.86,51.99 0,51.99 "/>
  <g style="clip-path:url(#id0)">
   <g id="_2657005633840">
    <g>
     <path id="1" class="fil1" d="M130.78 47.05l-7.04 0c-0.13,-0.03 -0.26,-0.11 -0.35,-0.21 -0.31,-0.37 -0.6,-0.79 -0.64,-1.27 -0.06,-0.58 0.29,-1.17 0.82,-1.41 0.53,-0.24 1.2,-0.1 1.6,0.32 0,-0.15 0.03,-0.3 0.1,-0.43 0.24,-0.48 0.75,-0.81 1.29,-0.79 0.53,0.03 1.03,0.44 1.11,0.97 0.09,-0.22 0.3,-0.35 0.54,-0.41 0.23,-0.06 0.49,-0.03 0.71,0.06 0.26,0.09 0.49,0.25 0.64,0.48 0.15,0.22 0.22,0.51 0.14,0.77 0.51,-0.12 1.04,0.13 1.29,0.59 0.24,0.46 0.16,0.97 -0.21,1.33z"/>
     <path class="fil2 str0" d="M80.42 44.88c-0.19,-0.54 -0.55,-1.01 -1.02,-1.34 -0.64,-0.46 -1.44,-0.63 -2.15,-0.95 -1.36,-0.6 -2.44,-1.78 -2.93,-3.18 -0.31,-0.89 -0.39,-1.84 -0.46,-2.78"/>
     <path class="fil3" d="M72.08 37.3c-0.13,-0.1 -0.25,-0.21 -0.32,-0.35 -0.07,-0.14 -0.08,-0.33 0.01,-0.45 0.07,-0.1 0.19,-0.15 0.31,-0.17 0.34,-0.06 0.68,0.12 0.95,0.34 0.2,0.16 0.39,0.33 0.55,0.53 0.15,0.18 0.39,0.44 0.45,0.67 0.13,0.48 -0.99,-0.01 -1.16,-0.09 -0.28,-0.13 -0.55,-0.29 -0.79,-0.48z"/>
     <path class="fil3" d="M75.53 38.71c0.24,-0.24 0.45,-0.54 0.48,-0.88 0.01,-0.1 -0.01,-0.22 -0.09,-0.28 -0.04,-0.04 -0.09,-0.05 -0.14,-0.06 -0.35,-0.07 -0.72,0.11 -0.96,0.38 -0.23,0.27 -0.36,0.62 -0.47,0.97 -0.08,0.27 -0.17,0.7 0.28,0.54 0.33,-0.13 0.66,-0.42 0.9,-0.67z"/>
     <path class="fil3" d="M73.24 40.32c-0.12,-0.1 -0.24,-0.24 -0.19,-0.39 0.02,-0.07 0.09,-0.13 0.15,-0.16 0.24,-0.13 0.54,-0.03 0.78,0.09 0.17,0.08 1.31,0.69 0.73,0.85 -0.48,0.13 -1.1,-0.09 -1.47,-0.39z"/>
     <path class="fil3" d="M76.13 40.72c0.09,-0.2 0.15,-0.42 0.11,-0.64 -0.02,-0.1 -0.07,-0.21 -0.17,-0.26 -0.08,-0.04 -0.18,-0.03 -0.26,0 -0.08,0.04 -0.14,0.1 -0.19,0.18 -0.16,0.2 -0.21,0.47 -0.2,0.73 0,0.17 -0.01,0.65 0.24,0.6 0.2,-0.03 0.4,-0.44 0.47,-0.61z"/>
     <path class="fil3" d="M76.05 42.49c-0.23,0.11 -0.48,0.18 -0.73,0.12 -0.11,-0.03 -0.22,-0.11 -0.23,-0.22 0,-0.05 0.02,-0.09 0.05,-0.13 0.07,-0.11 0.19,-0.18 0.32,-0.23 0.26,-0.09 0.54,-0.09 0.8,-0.01 0.11,0.04 0.25,0.09 0.16,0.23 -0.08,0.11 -0.25,0.19 -0.37,0.24z"/>
     <path class="fil1" d="M80.73 36.62c-0.22,-0.17 -0.44,-0.38 -0.5,-0.65 -0.15,-0.71 0.83,-1.35 0.57,-2.03 -0.12,-0.32 -0.46,-0.48 -0.76,-0.63 -0.54,-0.27 -1.1,-0.73 -1.05,-1.33 0.06,-0.75 1.03,-1.13 1.2,-1.87 0.22,-0.92 -0.92,-1.81 -0.6,-2.7 0.11,-0.3 0.39,-0.53 0.69,-0.63 0.31,-0.11 0.64,-0.12 0.96,-0.08 0.51,0.05 1.04,0.23 1.32,0.66 0.29,0.46 0.22,1.11 0.6,1.5 0.47,0.5 1.35,0.31 1.87,0.76 0.42,0.36 0.44,1.02 0.3,1.56 -0.11,0.41 -0.29,0.83 -0.18,1.23 0.1,0.36 0.42,0.62 0.61,0.94 0.26,0.43 0.29,0.96 0.15,1.44 -0.13,0.48 -0.41,0.91 -0.75,1.27 -0.3,0.33 -0.66,0.63 -1.08,0.78 -0.29,0.11 -0.61,0.14 -0.9,0.23 -0.24,0.07 -0.46,0.27 -0.7,0.3 -0.55,0.08 -1.34,-0.44 -1.75,-0.75z"/>
     <path class="fil2 str1" d="M83.11 37.19c0.09,-0.52 0.14,-1.04 0.15,-1.56 0.01,-1.31 -0.26,-2.62 -0.67,-3.87 -0.4,-1.25 -0.94,-2.46 -1.48,-3.66"/>
     <path class="fil2 str1" d="M82.69 32.01c0.74,-0.52 1.38,-1.18 1.89,-1.93"/>
     <path class="fil2 str1" d="M80.06 32.4c0.87,0.41 1.86,0.57 2.82,0.46"/>
     <path class="fil2 str1" d="M83.25 34.75c0.6,-0.18 1.17,-0.48 1.66,-0.88"/>
     <path class="fil2 str1" d="M81.54 35.63c0.57,0.16 1.16,0.33 1.75,0.27"/>
     <path class="fil3" d="M80.79 43.87c-0.66,-1.09 -1.56,-2.02 -2.43,-2.96 -0.59,-0.62 -1.18,-1.27 -1.57,-2.04 -0.36,-0.72 -0.53,-1.52 -0.57,-2.32 -0.03,-0.8 0.08,-1.65 0.62,-2.24 0.76,-0.86 2.19,-0.84 3.15,-0.21 0.96,0.62 1.53,1.71 1.87,2.8 0.42,1.34 0.58,2.74 0.61,4.14 0.02,0.99 -0.03,1.98 -0.13,2.97 -0.09,0.84 -0.11,2.04 -0.49,2.8 -0.26,-0.32 -0.23,-0.89 -0.34,-1.28 -0.16,-0.59 -0.41,-1.14 -0.72,-1.66z"/>
     <path class="fil2 str2" d="M82.11 42.12c-0.7,-0.41 -1.3,-0.98 -1.74,-1.66 -1.07,-1.64 -1.15,-3.77 -2.17,-5.44"/>
     <path class="fil2 str2" d="M78.9 36.5c0.32,-0.34 0.56,-0.76 0.68,-1.21"/>
     <path class="fil2 str2" d="M77.2 37.53c0.5,0.37 1.14,0.56 1.76,0.53 0.11,-0.01 0.23,-0.02 0.33,0.02"/>
     <path class="fil2 str2" d="M79.93 39.65c0,0.02 0.04,0.01 0.06,0 0.29,-0.16 0.52,-0.42 0.71,-0.7 0.18,-0.29 0.31,-0.6 0.44,-0.91"/>
     <path class="fil2 str2" d="M79.34 41.15c0.54,0.15 1.12,0.18 1.68,0.09"/>
     <path class="fil2 str1" d="M122.64 34.83c-0.58,-0.27 -1.09,-0.65 -1.52,-1.11"/>
     <path class="fil2 str1" d="M124.2 35.96c-0.59,0.07 -1.2,0.15 -1.78,0"/>
     <path class="fil1" d="M85.64 47.07l-12.31 0c-0.46,-0.71 -0.47,-1.64 -0.21,-2.44 0.24,-0.7 0.68,-1.39 1.37,-1.66 0.42,-0.17 0.9,-0.17 1.32,-0.03 0.43,0.14 0.81,0.42 1.1,0.76 0.05,-0.58 0.5,-1.1 1.08,-1.21 0.57,-0.1 1.19,0.22 1.45,0.74 0.44,-0.45 1.22,-0.56 1.81,-0.32 0.59,0.24 1,0.86 1,1.5 0,0.04 0.04,0.11 0.07,0.07 0.34,-0.41 0.8,-0.62 1.33,-0.59 0.53,0.04 1.03,0.31 1.38,0.71 0.36,0.4 0.57,0.9 0.66,1.43 0.07,0.35 0.07,0.7 -0.05,1.04z"/>
     <polygon class="fil4" points="104.1,25.17 105.25,25.17 105.25,25.41 105.19,25.41 105.19,27.01 104.17,27.01 104.17,25.41 104.1,25.41 "/>
     <polygon class="fil5" points="91.68,47.05 125.69,47.05 125.69,39.77 91.68,39.77 "/>
     <polygon class="fil6" points="120.99,44.66 125.69,44.66 125.69,47.05 120.99,47.05 "/>
     <polygon class="fil7" points="117.48,41.25 124.32,41.25 124.32,47.05 117.48,47.05 "/>
     <polygon class="fil8" points="123.33,42 124,42 124,41.47 123.33,41.47 "/>
     <polygon class="fil8" points="122.58,42 123.25,42 123.25,41.47 122.58,41.47 "/>
     <polygon class="fil8" points="121.82,42 122.5,42 122.5,41.47 121.82,41.47 "/>
     <polygon class="fil8" points="121.07,42 121.75,42 121.75,41.47 121.07,41.47 "/>
     <polygon class="fil8" points="120.07,42 120.75,42 120.75,41.47 120.07,41.47 "/>
     <polygon class="fil8" points="119.32,42 119.99,42 119.99,41.47 119.32,41.47 "/>
     <polygon class="fil8" points="118.57,42 119.24,42 119.24,41.47 118.57,41.47 "/>
     <polygon class="fil8" points="117.81,42 118.49,42 118.49,41.47 117.81,41.47 "/>
     <polygon class="fil7" points="121.4,43.05 121.4,42.46 123.95,42.46 123.95,43.05 "/>
     <path class="fil9" d="M123.89 42.51l0 0.49 -2.43 0 0 -0.49 2.43 0zm0.11 -0.11l0 0 -2.65 0 0 0.71 2.65 0 0 -0.71z"/>
     <polygon class="fil7" points="117.87,43.05 117.87,42.46 120.41,42.46 120.41,43.05 "/>
     <path class="fil9" d="M120.36 42.51l0 0.49 -2.44 0 0 -0.49 2.44 0zm0.11 -0.11l0 0 -2.66 0 0 0.71 2.66 0 0 -0.71z"/>
     <polygon class="fil7" points="121.4,44.25 121.4,43.66 123.95,43.66 123.95,44.25 "/>
     <path class="fil9" d="M123.89 43.71l0 0.49 -2.43 0 0 -0.49 2.43 0zm0.11 -0.11l0 0 -2.65 0 0 0.71 2.65 0 0 -0.71z"/>
     <polygon class="fil7" points="117.87,44.25 117.87,43.66 120.41,43.66 120.41,44.25 "/>
     <path class="fil9" d="M120.36 43.71l0 0.49 -2.44 0 0 -0.49 2.44 0zm0.11 -0.11l0 0 -2.66 0 0 0.71 2.66 0 0 -0.71z"/>
     <polygon class="fil7" points="121.4,45.45 121.4,44.86 123.95,44.86 123.95,45.45 "/>
     <path class="fil9" d="M123.89 44.91l0 0.49 -2.43 0 0 -0.49 2.43 0zm0.11 -0.11l0 0 -2.65 0 0 0.71 2.65 0 0 -0.71z"/>
     <polygon class="fil7" points="117.87,45.45 117.87,44.86 120.41,44.86 120.41,45.45 "/>
     <path class="fil9" d="M120.36 44.91l0 0.49 -2.44 0 0 -0.49 2.44 0zm0.11 -0.11l0 0 -2.66 0 0 0.71 2.66 0 0 -0.71z"/>
     <polygon class="fil7" points="121.4,46.65 121.4,46.05 123.95,46.05 123.95,46.65 "/>
     <path class="fil9" d="M123.89 46.11l0 0.49 -2.43 0 0 -0.49 2.43 0zm0.11 -0.11l0 0 -2.65 0 0 0.7 2.65 0 0 -0.7z"/>
     <polygon class="fil7" points="117.87,46.65 117.87,46.05 120.41,46.05 120.41,46.65 "/>
     <path class="fil9" d="M120.36 46.11l0 0.49 -2.44 0 0 -0.49 2.44 0zm0.11 -0.11l0 0 -2.66 0 0 0.7 2.66 0 0 -0.7z"/>
     <polygon class="fil10" points="117.36,40.94 124.47,40.94 124.47,41.25 117.36,41.25 "/>
     <polygon class="fil10" points="124.32,47.05 124.32,40.94 124.63,40.94 124.63,47.05 "/>
     <polygon class="fil10" points="117.17,47.05 117.17,40.94 117.48,40.94 117.48,47.05 "/>
     <polygon class="fil11" points="115.35,31.62 113.64,27.99 98.5,27.99 96.79,31.62 "/>
     <polygon class="fil11" points="98.89,39.2 97.19,35.57 82.04,35.57 80.33,39.2 "/>
     <polygon class="fil12" points="86.04,30.28 122.04,30.28 126.51,39.77 81.57,39.77 "/>
     <polygon class="fil4" points="118.47,30.28 116.77,26.65 101.62,26.65 99.92,30.28 "/>
     <polygon class="fil13" points="109.38,36.48 117.28,36.48 117.28,31.36 108.99,24.69 105.03,27.78 109.38,31.36 "/>
     <polygon class="fil13" points="116.61,30.59 108.4,30.59 105.03,27.91 108.99,24.69 "/>
     <polygon class="fil14" points="99.25,47.01 118.66,47.01 118.66,39.77 99.25,39.77 "/>
     <polygon class="fil14" points="81.28,47.08 93.12,47.05 93.1,39.09 87.17,34.69 81.26,39.02 "/>
     <polygon class="fil6" points="99.25,44.66 118.66,44.66 118.66,47.05 99.25,47.05 "/>
     <polygon class="fil13" points="87.12,34.48 92.38,38.3 82.22,38.3 "/>
     <polygon class="fil15" points="102.96,41.25 114.91,41.25 114.91,47.05 102.96,47.05 "/>
     <polygon class="fil8" points="113.76,42 114.44,42 114.44,41.47 113.76,41.47 "/>
     <polygon class="fil8" points="113.01,42 113.69,42 113.69,41.47 113.01,41.47 "/>
     <polygon class="fil8" points="112.26,42 112.93,42 112.93,41.47 112.26,41.47 "/>
     <polygon class="fil8" points="111.5,42 112.18,42 112.18,41.47 111.5,41.47 "/>
     <polygon class="fil8" points="109.61,42 110.28,42 110.28,41.47 109.61,41.47 "/>
     <polygon class="fil8" points="108.86,42 109.53,42 109.53,41.47 108.86,41.47 "/>
     <polygon class="fil8" points="108.1,42 108.78,42 108.78,41.47 108.1,41.47 "/>
     <polygon class="fil8" points="107.35,42 108.03,42 108.03,41.47 107.35,41.47 "/>
     <polygon class="fil8" points="105.56,42 106.24,42 106.24,41.47 105.56,41.47 "/>
     <polygon class="fil8" points="104.81,42 105.48,42 105.48,41.47 104.81,41.47 "/>
     <polygon class="fil8" points="104.05,42 104.73,42 104.73,41.47 104.05,41.47 "/>
     <polygon class="fil8" points="103.3,42 103.98,42 103.98,41.47 103.3,41.47 "/>
     <polygon class="fil15" points="111.84,43.05 111.84,42.46 114.38,42.46 114.38,43.05 "/>
     <path class="fil16" d="M114.33 42.51l0 0.49 -2.44 0 0 -0.49 2.44 0zm0.11 -0.11l0 0 -2.66 0 0 0.71 2.66 0 0 -0.71z"/>
     <polygon class="fil15" points="109.01,43.05 109.01,42.46 111.56,42.46 111.56,43.05 "/>
     <path class="fil16" d="M111.5 42.51l0 0.49 -2.43 0 0 -0.49 2.43 0zm0.11 -0.11l0 0 -2.65 0 0 0.71 2.65 0 0 -0.71z"/>
     <polygon class="fil15" points="106.18,43.05 106.18,42.46 108.73,42.46 108.73,43.05 "/>
     <path class="fil16" d="M108.67 42.51l0 0.49 -2.43 0 0 -0.49 2.43 0zm0.11 -0.11l0 0 -2.65 0 0 0.71 2.65 0 0 -0.71z"/>
     <polygon class="fil15" points="103.36,43.05 103.36,42.46 105.9,42.46 105.9,43.05 "/>
     <path class="fil16" d="M105.85 42.51l0 0.49 -2.44 0 0 -0.49 2.44 0zm0.11 -0.11l0 0 -2.66 0 0 0.71 2.66 0 0 -0.71z"/>
     <polygon class="fil15" points="111.84,44.25 111.84,43.66 114.38,43.66 114.38,44.25 "/>
     <path class="fil16" d="M114.33 43.71l0 0.49 -2.44 0 0 -0.49 2.44 0zm0.11 -0.11l0 0 -2.66 0 0 0.71 2.66 0 0 -0.71z"/>
     <polygon class="fil15" points="109.01,44.25 109.01,43.66 111.56,43.66 111.56,44.25 "/>
     <path class="fil16" d="M111.5 43.71l0 0.49 -2.43 0 0 -0.49 2.43 0zm0.11 -0.11l0 0 -2.65 0 0 0.71 2.65 0 0 -0.71z"/>
     <polygon class="fil15" points="106.18,44.25 106.18,43.66 108.73,43.66 108.73,44.25 "/>
     <path class="fil16" d="M108.67 43.71l0 0.49 -2.43 0 0 -0.49 2.43 0zm0.11 -0.11l0 0 -2.65 0 0 0.71 2.65 0 0 -0.71z"/>
     <polygon class="fil15" points="103.36,44.25 103.36,43.66 105.9,43.66 105.9,44.25 "/>
     <path class="fil16" d="M105.85 43.71l0 0.49 -2.44 0 0 -0.49 2.44 0zm0.11 -0.11l0 0 -2.66 0 0 0.71 2.66 0 0 -0.71z"/>
     <polygon class="fil15" points="111.84,45.45 111.84,44.86 114.38,44.86 114.38,45.45 "/>
     <path class="fil16" d="M114.33 44.91l0 0.49 -2.44 0 0 -0.49 2.44 0zm0.11 -0.11l0 0 -2.66 0 0 0.71 2.66 0 0 -0.71z"/>
     <polygon class="fil15" points="109.01,45.45 109.01,44.86 111.56,44.86 111.56,45.45 "/>
     <path class="fil16" d="M111.5 44.91l0 0.49 -2.43 0 0 -0.49 2.43 0zm0.11 -0.11l0 0 -2.65 0 0 0.71 2.65 0 0 -0.71z"/>
     <polygon class="fil15" points="106.18,45.45 106.18,44.86 108.73,44.86 108.73,45.45 "/>
     <path class="fil16" d="M108.67 44.91l0 0.49 -2.43 0 0 -0.49 2.43 0zm0.11 -0.11l0 0 -2.65 0 0 0.71 2.65 0 0 -0.71z"/>
     <polygon class="fil15" points="103.36,45.45 103.36,44.86 105.9,44.86 105.9,45.45 "/>
     <path class="fil16" d="M105.85 44.91l0 0.49 -2.44 0 0 -0.49 2.44 0zm0.11 -0.11l0 0 -2.66 0 0 0.71 2.66 0 0 -0.71z"/>
     <polygon class="fil15" points="111.84,46.65 111.84,46.05 114.38,46.05 114.38,46.65 "/>
     <path class="fil16" d="M114.33 46.11l0 0.49 -2.44 0 0 -0.49 2.44 0zm0.11 -0.11l0 0 -2.66 0 0 0.7 2.66 0 0 -0.7z"/>
     <polygon class="fil15" points="109.01,46.65 109.01,46.05 111.56,46.05 111.56,46.65 "/>
     <path class="fil16" d="M111.5 46.11l0 0.49 -2.43 0 0 -0.49 2.43 0zm0.11 -0.11l0 0 -2.65 0 0 0.7 2.65 0 0 -0.7z"/>
     <polygon class="fil15" points="106.18,46.65 106.18,46.05 108.73,46.05 108.73,46.65 "/>
     <path class="fil16" d="M108.67 46.11l0 0.49 -2.43 0 0 -0.49 2.43 0zm0.11 -0.11l0 0 -2.65 0 0 0.7 2.65 0 0 -0.7z"/>
     <polygon class="fil15" points="103.36,46.65 103.36,46.05 105.9,46.05 105.9,46.65 "/>
     <path class="fil16" d="M105.85 46.11l0 0.49 -2.44 0 0 -0.49 2.44 0zm0.11 -0.11l0 0 -2.66 0 0 0.7 2.66 0 0 -0.7z"/>
     <polygon class="fil17" points="102.85,40.94 115.06,40.94 115.06,41.25 102.85,41.25 "/>
     <polygon class="fil17" points="114.91,47.05 114.91,40.94 115.21,40.94 115.21,47.05 "/>
     <polygon class="fil17" points="102.66,47.05 102.66,40.94 102.96,40.94 102.96,47.05 "/>
     <polygon class="fil18" points="94.82,47.05 97.78,47.05 97.78,41.45 94.82,41.45 "/>
     <polygon class="fil10" points="97.78,47.05 97.78,41.33 97.99,41.33 97.99,47.05 "/>
     <polygon class="fil10" points="94.61,47.05 94.61,41.33 94.82,41.33 94.82,47.05 "/>
     <polygon class="fil10" points="97.99,41.45 94.61,41.45 94.61,41.24 97.99,41.24 "/>
     <polygon class="fil19" points="95.32,42.94 95.32,41.76 97.28,41.76 97.28,42.94 "/>
     <path class="fil20" d="M97.23 41.81l0 1.08 -1.86 0 0 -1.08 1.86 0zm0.1 -0.09l0 0 -2.06 0 0 1.27 2.06 0 0 -1.27z"/>
     <polygon class="fil21" points="96.43,41.77 97.28,42.62 97.28,42.18 96.86,41.76 "/>
     <polygon class="fil21" points="96.05,41.76 97.28,42.99 97.28,42.75 96.27,41.74 "/>
     <polygon class="fil21" points="96.16,42.96 95.32,42.11 95.31,42.55 95.74,42.97 "/>
     <polygon class="fil21" points="96.55,42.97 95.31,41.74 95.32,41.98 96.33,42.99 "/>
     <polygon class="fil20" points="95.3,42.39 97.31,42.39 97.31,42.32 95.3,42.32 "/>
     <polygon class="fil20" points="96.27,42.96 96.33,42.96 96.33,41.74 96.27,41.74 "/>
     <path class="fil22" d="M97.22 43.39l0 3.32 -0.65 0 0 -3.32 0.65 0zm0.11 -0.1l0 0 -0.87 0 0 3.52 0.87 0 0 -3.52z"/>
     <path class="fil22" d="M96.03 43.39l0 3.32 -0.65 0 0 -3.32 0.65 0zm0.11 -0.1l0 0 -0.87 0 0 3.52 0.87 0 0 -3.52z"/>
     <path class="fil22" d="M95.04 44.03l0.01 0 -0.01 1.12 0 -1.12c0,0 0,0 0,0zm0 -0.11l0 0c-0.05,0 -0.1,0.05 -0.1,0.11l0 1.12c0,0.06 0.05,0.11 0.1,0.11 0.06,0 0.11,-0.05 0.11,-0.11l0 -1.12c0,-0.06 -0.05,-0.11 -0.11,-0.11z"/>
     <path class="fil23" d="M94.87 44.33c0,0.09 0.08,0.17 0.17,0.17 0.1,0 0.17,-0.08 0.17,-0.17 0,-0.09 -0.07,-0.17 -0.17,-0.17 -0.09,0 -0.17,0.08 -0.17,0.17z"/>
     <polygon class="fil24" points="82.05,38.71 92.32,38.71 92.32,38.21 82.05,38.21 "/>
     <path class="fil25" d="M118.66 40.36l7.36 0c0.27,0 0.49,-0.22 0.49,-0.5l0 -0.09 -7.85 0 0 0.59z"/>
     <polygon class="fil25" points="92.07,40.36 99.92,40.36 99.92,39.77 92.07,39.77 "/>
     <path class="fil26" d="M99.15 40.65l19.58 0c0.25,0 0.45,-0.2 0.45,-0.45l0 -0.14 -20.49 0 0 0.14c0,0.25 0.21,0.45 0.46,0.45z"/>
     <polygon class="fil19" points="84.31,44.11 84.31,39.44 90.06,39.44 90.06,44.11 "/>
     <path class="fil20" d="M89.93 39.57l0 4.41 -5.49 0 0 -4.41 5.49 0zm0.26 -0.26l0 0 -6.01 0 0 4.94 6.01 0 0 -4.94z"/>
     <polygon class="fil21" points="86.95,39.48 90.09,42.62 90.1,40.99 88.54,39.44 "/>
     <polygon class="fil21" points="84.28,41.66 86.78,44.16 88.44,44.19 84.4,40.15 "/>
     <polygon class="fil21" points="85.54,39.44 90.1,44 90.08,43.12 86.33,39.37 "/>
     <polygon class="fil21" points="84.22,42.79 85.55,44.13 86.3,44.01 84.31,42.02 "/>
     <polygon class="fil20" points="87.03,44.03 87.35,44.03 87.35,39.49 87.03,39.49 "/>
     <polygon class="fil4" points="119.18,40.11 118.24,36.48 99.64,36.48 98.69,40.11 "/>
     <polygon class="fil27" points="91.57,37.78 93.12,38.87 93.12,46.5 91.57,46.5 "/>
     <polygon class="fil6" points="91.57,44.69 93.12,44.69 93.12,47.05 91.57,47.05 "/>
     <polygon class="fil27" points="82.83,37.81 81.28,38.9 81.28,46.53 82.83,46.53 "/>
     <polygon class="fil6" points="82.83,44.72 81.28,44.72 81.28,47.08 82.83,47.08 "/>
     <path class="fil3" d="M84.79 47.08l-7.07 0c-0.2,-0.13 -0.32,-0.37 -0.4,-0.59 -0.08,-0.22 -0.14,-0.46 -0.11,-0.69 0.05,-0.36 0.32,-0.68 0.67,-0.79 0.34,-0.11 0.74,0 0.99,0.27 -0.07,-0.22 -0.02,-0.46 0.08,-0.67 0.21,-0.47 0.71,-0.81 1.24,-0.83 0.52,-0.01 1.04,0.28 1.29,0.74 0.23,-0.43 0.69,-0.7 1.17,-0.67 0.49,0.04 0.94,0.43 1.01,0.91 0.34,-0.2 0.74,-0.14 1.04,0.12 0.3,0.27 0.44,0.69 0.43,1.09 -0.02,0.4 -0.13,0.77 -0.34,1.11z"/>
     <path class="fil2 str2" d="M80.82 46.55c-0.48,-0.55 -0.77,-1.26 -0.81,-1.98"/>
     <path class="fil2 str2" d="M80.7 44.43c-0.08,0.33 -0.28,0.63 -0.54,0.83"/>
     <path class="fil2 str2" d="M79.76 45.96c0.2,0.04 0.4,0.03 0.59,-0.02"/>
     <path class="fil2 str2" d="M83.52 46.62c0.42,-0.41 0.7,-0.97 0.77,-1.55"/>
     <path class="fil2 str2" d="M83.77 46.34c-0.01,0 -0.02,0 -0.03,-0.01 -0.19,-0.19 -0.25,-0.47 -0.29,-0.73"/>
     <path class="fil2 str2" d="M84.18 45.77c0.15,-0.01 0.29,-0.09 0.38,-0.21"/>
     <path class="fil2 str2" d="M82.16 45.91c0.15,-0.38 0.21,-0.79 0.2,-1.19"/>
     <path class="fil2 str2" d="M78.91 46.7c-0.34,-0.22 -0.64,-0.53 -0.85,-0.89"/>
     <path class="fil2 str2" d="M82.18 45.46c-0.13,-0.11 -0.21,-0.28 -0.22,-0.45"/>
     <path class="fil2 str2" d="M78.42 46.27c0.09,-0.17 0.08,-0.38 0.06,-0.57"/>
     <path class="fil2 str2" d="M82.41 45.05c0.14,-0.08 0.25,-0.2 0.31,-0.34"/>
     <path class="fil2 str2" d="M78.28 46.71c0.13,0.01 0.28,-0.02 0.4,-0.08"/>
     <path class="fil28" d="M80.33 39.19l6.85 -5.25 0.01 0.01 0 -0.01 6.85 5.25 -0.06 0.07c-0.21,0.28 -0.61,0.33 -0.89,0.12l-5.9 -4.52 -5.91 4.52c-0.27,0.21 -0.68,0.16 -0.89,-0.12l-0.06 -0.07z"/>
     <path class="fil29" d="M86.68 37.67c-0.07,0 -0.12,-0.06 -0.12,-0.12l0 -1.39c0,-0.06 0.05,-0.11 0.12,-0.11l1.03 0c0.06,0 0.11,0.05 0.11,0.11l0 1.39c0,0.06 -0.05,0.12 -0.11,0.12l-1.03 0z"/>
     <path class="fil10" d="M87.71 36.11c0.03,0 0.05,0.02 0.05,0.05l0 1.39c0,0.03 -0.02,0.05 -0.05,0.05l-1.03 0c-0.03,0 -0.05,-0.02 -0.05,-0.05l0 -1.39c0,-0.03 0.02,-0.05 0.05,-0.05l1.03 0zm0 -0.13l0 0 -1.03 0c-0.1,0 -0.18,0.08 -0.18,0.18l0 1.39c0,0.1 0.08,0.18 0.18,0.18l1.03 0c0.1,0 0.18,-0.08 0.18,-0.18l0 -1.39c0,-0.1 -0.08,-0.18 -0.18,-0.18z"/>
     <polygon class="fil24" points="108.45,30.64 116.45,30.64 116.45,30.14 108.45,30.14 "/>
     <path class="fil28" d="M102.09 29.53l6.85 -5.25 0 0.01 0 -0.01 9.97 7.64 -0.09 0.11c-0.2,0.26 -0.57,0.3 -0.83,0.11l-9.05 -6.94 -6.41 4.91 -0.44 -0.58z"/>
     <path class="fil29" d="M108.47 28.93c-0.2,0 -0.36,-0.16 -0.36,-0.36l0 -1.33c0,-0.19 0.16,-0.35 0.36,-0.35l0.88 0c0.2,0 0.36,0.16 0.36,0.35l0 1.33c0,0.2 -0.16,0.36 -0.36,0.36l-0.88 0z"/>
     <path class="fil10" d="M109.35 26.95c0.16,0 0.3,0.13 0.3,0.29l0 1.33c0,0.16 -0.14,0.29 -0.3,0.29l-0.88 0c-0.16,0 -0.29,-0.13 -0.29,-0.29l0 -1.33c0,-0.16 0.13,-0.29 0.29,-0.29l0.88 0zm0 -0.13l0 0 -0.88 0c-0.23,0 -0.42,0.19 -0.42,0.42l0 1.33c0,0.23 0.19,0.42 0.42,0.42l0.88 0c0.24,0 0.42,-0.19 0.42,-0.42l0 -1.33c0,-0.23 -0.18,-0.42 -0.42,-0.42z"/>
     <polygon class="fil30" points="93.66,45.1 93.66,41.54 94.22,41.54 94.22,45.1 "/>
     <path class="fil20" d="M94.17 41.58l0 3.48 -0.46 0 0 -3.48 0.46 0zm0.1 -0.09l0 0 -0.66 0 0 3.66 0.66 0 0 -3.66z"/>
     <polygon class="fil21" points="93.66,41.5 94.25,42.08 94.25,41.78 93.96,41.49 "/>
     <polygon class="fil21" points="93.64,41.73 94.25,42.34 94.24,42.17 93.66,41.59 "/>
     <polygon class="fil21" points="93.66,42.86 94.25,43.44 94.25,43.14 93.69,42.58 "/>
     <polygon class="fil21" points="93.64,43.09 94.25,43.7 94.24,43.53 93.66,42.95 "/>
     <polygon class="fil21" points="93.66,44.31 94.25,44.89 94.25,44.59 93.69,44.03 "/>
     <polygon class="fil21" points="93.64,44.54 94.25,45.15 94.24,44.98 93.66,44.4 "/>
     <polygon class="fil30" points="98.34,45.1 98.34,41.54 98.9,41.54 98.9,45.1 "/>
     <path class="fil20" d="M98.85 41.58l0 3.48 -0.46 0 0 -3.48 0.46 0zm0.1 -0.09l0 0 -0.66 0 0 3.66 0.66 0 0 -3.66z"/>
     <polygon class="fil21" points="98.34,41.5 98.93,42.08 98.93,41.78 98.64,41.49 "/>
     <polygon class="fil21" points="98.32,41.73 98.93,42.34 98.92,42.17 98.34,41.59 "/>
     <polygon class="fil21" points="98.34,42.86 98.93,43.44 98.93,43.14 98.37,42.58 "/>
     <polygon class="fil21" points="98.32,43.09 98.93,43.7 98.92,43.53 98.34,42.95 "/>
     <polygon class="fil21" points="98.34,44.31 98.93,44.89 98.93,44.59 98.37,44.03 "/>
     <polygon class="fil21" points="98.32,44.54 98.93,45.15 98.92,44.98 98.34,44.4 "/>
     <path class="fil31" d="M102.27 43.56l0 0.59 -2.51 0 0 -0.59 2.51 0zm0.1 -0.1l0 0 -2.71 0 0 0.78 2.71 0 0 -0.78z"/>
     <path class="fil32" d="M100.86 41.57c0,0.08 0.07,0.15 0.15,0.15 0.08,0 0.14,-0.07 0.14,-0.15 0,-0.08 -0.06,-0.14 -0.14,-0.14 -0.08,0 -0.15,0.06 -0.15,0.14z"/>
     <path class="fil33" d="M101.01 42.36c0.1,0 0.18,-0.08 0.18,-0.18l0 -0.02 -0.36 0 0 0.02c0,0.1 0.09,0.18 0.18,0.18z"/>
     <path class="fil34" d="M100.93 41.78l0.15 0 0 -0.31c0,-0.04 -0.03,-0.07 -0.07,-0.07 -0.04,0 -0.08,0.03 -0.08,0.07l0 0.31z"/>
     <path class="fil35" d="M100.69 42.21l0.65 0 -0.05 -0.34c-0.02,-0.13 -0.14,-0.23 -0.28,-0.23 -0.13,0 -0.25,0.1 -0.27,0.23l-0.05 0.34z"/>
     <path class="fil32" d="M96.15 40.79c0,0.08 0.06,0.14 0.15,0.14 0.08,0 0.14,-0.06 0.14,-0.14 0,-0.08 -0.06,-0.15 -0.14,-0.15 -0.09,0 -0.15,0.07 -0.15,0.15z"/>
     <path class="fil33" d="M96.3 41.57c0.1,0 0.18,-0.08 0.18,-0.18l0 -0.02 -0.36 0 0 0.02c0,0.1 0.08,0.18 0.18,0.18z"/>
     <path class="fil34" d="M96.22 41l0.15 0 0 -0.31c0,-0.04 -0.03,-0.07 -0.07,-0.07 -0.05,0 -0.08,0.03 -0.08,0.07l0 0.31z"/>
     <path class="fil35" d="M95.98 41.42l0.65 0 -0.05 -0.34c-0.02,-0.13 -0.14,-0.23 -0.28,-0.23 -0.13,0 -0.25,0.1 -0.27,0.23l-0.05 0.34z"/>
     <path class="fil32" d="M116.69 41.57c0,0.08 0.07,0.15 0.15,0.15 0.08,0 0.14,-0.07 0.14,-0.15 0,-0.08 -0.06,-0.14 -0.14,-0.14 -0.08,0 -0.15,0.06 -0.15,0.14z"/>
     <path class="fil33" d="M116.85 42.36c0.1,0 0.18,-0.08 0.18,-0.18l0 -0.02 -0.36 0 0 0.02c0,0.1 0.08,0.18 0.18,0.18z"/>
     <path class="fil34" d="M116.77 41.78l0.14 0 0 -0.31c0,-0.04 -0.03,-0.07 -0.07,-0.07 -0.04,0 -0.07,0.03 -0.07,0.07l0 0.31z"/>
     <path class="fil35" d="M116.52 42.21l0.65 0 -0.05 -0.34c-0.02,-0.13 -0.14,-0.23 -0.27,-0.23 -0.14,0 -0.25,0.1 -0.27,0.23l-0.06 0.34z"/>
     <polygon class="fil36" points="100.51,37.15 109.38,37.15 109.38,31.36 105.03,27.99 100.51,31.36 "/>
     <polygon class="fil13" points="101.21,30.64 104.9,28.09 108.83,30.64 109.19,31.21 100.89,31.21 "/>
     <polygon class="fil24" points="101.03,31.21 108.86,31.21 108.86,30.71 101.03,30.71 "/>
     <polygon class="fil19" points="102.7,35.95 102.7,32.16 107.37,32.16 107.37,35.95 "/>
     <path class="fil20" d="M107.24 32.29l0 3.52 -4.4 0 0 -3.52 4.4 0zm0.26 -0.26l0 0 -4.93 0 0 4.05 4.93 0 0 -4.05z"/>
     <polygon class="fil21" points="104.85,32.17 107.42,34.75 107.42,33.41 106.14,32.14 "/>
     <polygon class="fil21" points="102.66,33.96 104.71,36.01 106.06,36.03 102.75,32.72 "/>
     <polygon class="fil21" points="103.69,32.14 107.42,35.87 107.41,35.16 104.34,32.08 "/>
     <polygon class="fil21" points="102.61,34.89 103.7,35.98 104.31,35.89 102.68,34.25 "/>
     <polygon class="fil20" points="104.91,35.9 105.17,35.9 105.17,32.18 104.91,32.18 "/>
     <polygon class="fil19" points="110.26,35.54 110.26,31.75 114.93,31.75 114.93,35.54 "/>
     <path class="fil20" d="M114.8 31.88l0 3.53 -4.41 0 0 -3.53 4.41 0zm0.26 -0.26l0 0 -4.93 0 0 4.05 4.93 0 0 -4.05z"/>
     <polygon class="fil21" points="112.4,31.76 114.98,34.34 114.98,33 113.7,31.73 "/>
     <polygon class="fil21" points="110.21,33.55 112.27,35.6 113.62,35.62 110.31,32.31 "/>
     <polygon class="fil21" points="111.24,31.73 114.98,35.47 114.97,34.75 111.89,31.67 "/>
     <polygon class="fil21" points="110.17,34.48 111.26,35.57 111.87,35.48 110.24,33.84 "/>
     <polygon class="fil20" points="112.46,35.49 112.73,35.49 112.73,31.77 112.46,31.77 "/>
     <path class="fil28" d="M98.93 31.95l5.97 -4.58 0.01 0 0 0 5.79 4.43 -0.06 0.07c-0.21,0.28 -0.61,0.34 -0.9,0.12l-4.83 -3.7 -5.03 3.85c-0.28,0.21 -0.69,0.16 -0.9,-0.12l-0.05 -0.07z"/>
     <path class="fil2" d="M71.88 44.03c0.01,-0.01 0.03,-0.02 0.04,-0.02l-0.04 0.02z"/>
     <path class="fil3" d="M123.72 47.05l4.72 0c0.19,-0.23 0.38,-0.5 0.43,-0.79 0.04,-0.3 -0.03,-0.62 -0.23,-0.84 -0.27,-0.29 -0.75,-0.37 -1.09,-0.17 -0.06,0.04 -0.12,0.08 -0.18,0.13 -0.04,-0.18 -0.15,-0.39 -0.31,-0.48 -0.1,-0.06 -0.22,-0.1 -0.34,-0.11 -0.25,-0.03 -0.51,0.05 -0.72,0.2 -0.2,0.15 -0.34,0.39 -0.39,0.64 -0.17,-0.25 -0.5,-0.35 -0.79,-0.26 -0.3,0.08 -0.52,0.37 -0.53,0.68 -0.13,-0.04 -0.28,0.01 -0.4,0.07 -0.13,0.07 -0.23,0.19 -0.27,0.32 -0.05,0.19 0.01,0.43 0.1,0.61z"/>
     <path class="fil2 str1" d="M75.28 45.92c0.19,-0.14 0.34,-0.33 0.45,-0.54 0.11,-0.21 0.19,-0.43 0.27,-0.65"/>
     <path class="fil2 str1" d="M75.45 46.8c-0.3,-0.93 -0.45,-1.95 -0.43,-2.97"/>
     <path class="fil2 str1" d="M75.03 45.13c-0.06,0.02 -0.14,-0.01 -0.19,-0.04 -0.21,-0.11 -0.4,-0.26 -0.55,-0.43 -0.05,-0.06 -0.1,-0.12 -0.12,-0.19"/>
     <path class="fil2 str1" d="M78.6 45.71c0.09,-0.76 -0.11,-1.55 -0.56,-2.17"/>
     <path class="fil2 str1" d="M78.52 44.41c0.2,-0.31 0.31,-0.68 0.3,-1.05"/>
     <path class="fil2 str1" d="M77.65 43.93c0.19,0.14 0.44,0.19 0.67,0.13"/>
    </g>
    <g>
     <path class="fil37" d="M91.64 31.33c-3.22,-1.47 -5.31,-3.79 -6.66,-6.04 -1.61,-2.67 -2.39,-5.7 -2.39,-8.75l0 -4.4c0,-0.89 0.81,-1.15 1.74,-1.6l7.24 -2.66 7.32 2.69c1.01,0.31 1.66,0.92 1.66,2.18l0 3.96c0,2.87 -0.69,5.72 -2.11,8.27 -0.08,0.17 -0.18,0.33 -0.27,0.49 -0.83,1.38 -1.99,2.9 -3.44,4.1 -0.49,0.41 -1.02,0.78 -1.59,1.1 -0.47,0.26 -0.97,0.49 -1.5,0.66z"/>
     <path class="fil38" d="M97.44 12.36l-5.87 -2.16 -5.81 2.13c-0.74,0.36 -1.39,0.58 -1.39,1.28l0 3.53c0,2.46 0.63,4.88 1.91,7.03 1.09,1.8 2.77,3.66 5.35,4.84 2.38,-0.79 4.15,-2.9 5.23,-4.7 1.29,-2.15 1.92,-4.58 1.92,-7.03l0 -3.17c0,-1.01 -0.52,-1.51 -1.34,-1.75z"/>
    </g>
   </g>
  </g>
  <polygon class="fil39" points="0,0 104.86,0 104.86,51.99 0,51.99 "/>
 </g>
</svg>
