<?xml version="1.0" encoding="UTF-8"?>
<!DOCTYPE svg PUBLIC "-//W3C//DTD SVG 1.1//EN" "http://www.w3.org/Graphics/SVG/1.1/DTD/svg11.dtd">
<!-- Creator: CorelDRAW 2020 (64-Bit) -->
<svg xmlns="http://www.w3.org/2000/svg" xml:space="preserve" width="799px" height="340px" version="1.1" style="shape-rendering:geometricPrecision; text-rendering:geometricPrecision; image-rendering:optimizeQuality; fill-rule:evenodd; clip-rule:evenodd"
viewBox="0 0 44.29 18.85"
 xmlns:xlink="http://www.w3.org/1999/xlink"
 xmlns:xodm="http://www.corel.com/coreldraw/odm/2003">
 <defs>
  <style type="text/css">
   <![CDATA[
    .str2 {stroke:#008E8A;stroke-width:0.1;stroke-linecap:round;stroke-miterlimit:10}
    .str1 {stroke:#00B3AC;stroke-width:0.1;stroke-linecap:round;stroke-miterlimit:10}
    .str0 {stroke:#00B3AC;stroke-width:0.23;stroke-linecap:round;stroke-miterlimit:10}
    .fil4 {fill:none;fill-rule:nonzero}
    .fil14 {fill:#010C2F}
    .fil7 {fill:#03134F}
    .fil26 {fill:#0F183F}
    .fil33 {fill:#4C99F8}
    .fil27 {fill:#838795}
    .fil29 {fill:#9599AA}
    .fil16 {fill:#A1A7B6}
    .fil32 {fill:#A5B5FF}
    .fil39 {fill:#CFD6E8}
    .fil28 {fill:#DADFF9}
    .fil6 {fill:#008E8A;fill-rule:nonzero}
    .fil5 {fill:#00B3AC;fill-rule:nonzero}
    .fil15 {fill:#030F3F;fill-rule:nonzero}
    .fil25 {fill:#0F183F;fill-rule:nonzero}
    .fil21 {fill:#131D4F;fill-rule:nonzero}
    .fil11 {fill:#343B56;fill-rule:nonzero}
    .fil12 {fill:#495279;fill-rule:nonzero}
    .fil22 {fill:#4C99F8;fill-rule:nonzero}
    .fil19 {fill:#505985;fill-rule:nonzero}
    .fil10 {fill:#505B85;fill-rule:nonzero}
    .fil18 {fill:#56628E;fill-rule:nonzero}
    .fil31 {fill:#5A69F7;fill-rule:nonzero}
    .fil0 {fill:#6981F6;fill-rule:nonzero}
    .fil35 {fill:#6D778C;fill-rule:nonzero}
    .fil9 {fill:#838795;fill-rule:nonzero}
    .fil37 {fill:#8793AC;fill-rule:nonzero}
    .fil8 {fill:#9095A3;fill-rule:nonzero}
    .fil30 {fill:#A1A7B6;fill-rule:nonzero}
    .fil20 {fill:#A5B5FF;fill-rule:nonzero}
    .fil38 {fill:#AABADB;fill-rule:nonzero}
    .fil34 {fill:#BFC3DB;fill-rule:nonzero}
    .fil1 {fill:#C0D8FB;fill-rule:nonzero}
    .fil17 {fill:#CFD6E8;fill-rule:nonzero}
    .fil13 {fill:#DADFF9;fill-rule:nonzero}
    .fil3 {fill:#DCEAFF;fill-rule:nonzero}
    .fil23 {fill:#F2F2F2;fill-rule:nonzero}
    .fil2 {fill:#F4F6FE;fill-rule:nonzero}
    .fil36 {fill:#FFE15B;fill-rule:nonzero}
    .fil40 {fill:white;fill-rule:nonzero}
    .fil24 {fill:#F2F2F2;fill-rule:nonzero;fill-opacity:0.250980}
   ]]>
  </style>
 </defs>
 <g id="Слой_x0020_1">
  <metadata id="CorelCorpID_0Corel-Layer"/>
  <g id="_2367166019984">
   <polygon class="fil0" points="43.07,8.57 43.07,13.65 36.3,13.65 36.3,13.65 33.45,13.65 33.45,8.57 38.78,8.57 "/>
   <path class="fil1" d="M42.4 12.6l0 -2.97c0,-0.21 -0.16,-0.37 -0.36,-0.37l-7.67 0c-0.21,0 -0.37,0.16 -0.37,0.37l-0.01 2.96c0,0.2 0.17,0.37 0.37,0.37l7.68 0c0.2,0 0.36,-0.16 0.36,-0.36zm0.12 -3.46l0 3.94 -8.65 0 0.01 -3.94 8.64 0z"/>
   <path class="fil1" d="M38.2 12.17c-0.59,0 -1.06,-0.47 -1.06,-1.06 0,-0.59 0.47,-1.06 1.06,-1.06 0.58,0 1.06,0.47 1.06,1.06 0,0.59 -0.48,1.06 -1.06,1.06z"/>
  </g>
  <g id="_2367166028864">
   <polygon class="fil0" points="44.29,9.53 44.29,14.61 37.52,14.61 37.52,14.61 34.67,14.61 34.67,9.53 40,9.53 "/>
   <path class="fil1" d="M43.62 13.56l0 -2.97c0,-0.21 -0.16,-0.37 -0.36,-0.37l-7.67 0c-0.21,0 -0.38,0.16 -0.38,0.37l0 2.96c0,0.2 0.17,0.37 0.37,0.37l7.68 0c0.2,0 0.36,-0.16 0.36,-0.36zm0.12 -3.46l0 3.94 -8.65 0 0 -3.94 8.65 0z"/>
   <path class="fil1" d="M39.42 13.13c-0.59,0 -1.06,-0.48 -1.06,-1.06 0,-0.59 0.47,-1.06 1.06,-1.06 0.58,0 1.06,0.47 1.06,1.06 0,0.59 -0.48,1.06 -1.06,1.06z"/>
  </g>
  <g id="_2367166027712">
   <path class="fil2" d="M31.28 16.12c-0.43,1.11 -1.24,2.07 -2.25,2.71l-25.72 0c-1.49,-2.25 -2.97,-4.62 -3.28,-7.29 -0.08,-0.77 -0.03,-1.63 0.51,-2.17 0.53,-0.53 1.36,-0.6 2.1,-0.54 0.75,0.06 1.51,0.21 2.23,0 1.4,-0.4 2.07,-1.99 2.33,-3.43 0.27,-1.43 0.34,-3 1.26,-4.14 0.64,-0.8 1.66,-1.28 2.69,-1.26 1.02,0.02 2.03,0.53 2.64,1.36 0.55,0.72 0.8,1.67 1.51,2.24 0.79,0.63 1.95,0.6 2.88,0.21 0.94,-0.39 1.7,-1.08 2.49,-1.71 0.79,-0.64 1.65,-1.25 2.65,-1.43 1.45,-0.26 3.02,0.56 3.65,1.9 0.6,1.28 0.35,2.8 0.78,4.15 0.6,1.86 2.39,3.09 3.28,4.83 0.72,1.4 0.81,3.1 0.25,4.57z"/>
   <path class="fil3" d="M30.88 18.83l-28.02 0c-0.74,-0.86 -1.54,-2.13 -1.05,-3.15 0.38,-0.78 1.35,-1.12 1.81,-1.86 0.37,-0.59 0.35,-1.34 0.19,-2.02 -0.16,-0.68 -0.45,-1.32 -0.62,-1.99 -0.26,-1.12 -0.14,-2.36 0.53,-3.3 0.67,-0.93 1.93,-1.46 3.02,-1.1 0.53,0.17 0.99,0.53 1.47,0.83 0.93,0.58 2.08,0.92 3.14,0.62 1.58,-0.45 2.43,-2.09 3.33,-3.47 0.66,-1 1.46,-1.96 2.52,-2.54 1.05,-0.58 2.4,-0.73 3.46,-0.15 2.01,1.1 2.16,4.19 4.13,5.37 1.33,0.8 3.07,0.45 4.51,1.05 1.66,0.68 2.62,2.74 2.08,4.45 -0.22,0.68 -0.62,1.28 -0.91,1.93 -0.3,0.65 -0.47,1.41 -0.19,2.06 0.17,0.41 0.51,0.73 0.71,1.13 0.36,0.7 0.39,1.53 -0.11,2.14z"/>
   <path class="fil4 str0" d="M28.06 17.93c0.14,-0.26 0.36,-0.48 0.62,-0.62 0.37,-0.2 0.8,-0.23 1.19,-0.35 0.75,-0.22 1.4,-0.76 1.75,-1.46 0.22,-0.44 0.33,-0.93 0.43,-1.42"/>
   <path class="fil5" d="M32.94 14.55c0.07,-0.04 0.14,-0.09 0.19,-0.16 0.04,-0.07 0.06,-0.16 0.02,-0.23 -0.03,-0.06 -0.09,-0.09 -0.15,-0.11 -0.17,-0.06 -0.36,0.02 -0.52,0.11 -0.11,0.07 -0.22,0.15 -0.32,0.24 -0.09,0.08 -0.23,0.2 -0.28,0.32 -0.1,0.24 0.51,0.06 0.61,0.03 0.16,-0.05 0.31,-0.12 0.45,-0.2z"/>
   <path class="fil5" d="M31.04 15.05c-0.11,-0.14 -0.2,-0.31 -0.19,-0.49 0,-0.05 0.02,-0.11 0.06,-0.14 0.03,-0.02 0.05,-0.02 0.08,-0.02 0.19,-0.02 0.37,0.11 0.47,0.26 0.11,0.16 0.15,0.35 0.18,0.54 0.03,0.15 0.05,0.38 -0.18,0.26 -0.16,-0.08 -0.31,-0.26 -0.42,-0.41z"/>
   <path class="fil5" d="M32.12 16.05c0.07,-0.04 0.14,-0.11 0.13,-0.19 -0.01,-0.04 -0.04,-0.07 -0.07,-0.09 -0.12,-0.09 -0.28,-0.06 -0.41,-0.01 -0.1,0.03 -0.73,0.27 -0.44,0.39 0.24,0.1 0.58,0.03 0.79,-0.1z"/>
   <path class="fil5" d="M30.58 16.06c-0.03,-0.11 -0.05,-0.23 -0.01,-0.34 0.02,-0.05 0.05,-0.11 0.11,-0.12 0.04,-0.02 0.09,-0.01 0.13,0.01 0.04,0.03 0.07,0.07 0.09,0.11 0.07,0.12 0.08,0.26 0.06,0.4 -0.02,0.08 -0.04,0.33 -0.17,0.29 -0.11,-0.03 -0.18,-0.26 -0.21,-0.35z"/>
   <path class="fil5" d="M30.51 16.99c0.11,0.07 0.24,0.13 0.37,0.11 0.06,-0.01 0.12,-0.04 0.13,-0.1 0,-0.02 0,-0.05 -0.01,-0.07 -0.03,-0.06 -0.09,-0.11 -0.16,-0.14 -0.12,-0.06 -0.27,-0.08 -0.41,-0.06 -0.06,0.01 -0.14,0.03 -0.1,0.11 0.03,0.06 0.12,0.11 0.18,0.15z"/>
   <path class="fil6" d="M31.26 18.83l-3.7 0c-0.07,-0.01 -0.14,-0.06 -0.19,-0.11 -0.16,-0.19 -0.31,-0.42 -0.33,-0.67 -0.03,-0.3 0.15,-0.61 0.43,-0.74 0.28,-0.12 0.63,-0.05 0.84,0.17 0,-0.08 0.02,-0.16 0.05,-0.23 0.13,-0.25 0.4,-0.43 0.68,-0.41 0.28,0.01 0.55,0.23 0.59,0.51 0.04,-0.12 0.16,-0.19 0.28,-0.22 0.12,-0.03 0.26,-0.01 0.38,0.03 0.13,0.05 0.25,0.14 0.33,0.25 0.08,0.12 0.12,0.27 0.08,0.41 0.26,-0.06 0.55,0.07 0.67,0.31 0.13,0.24 0.09,0.51 -0.11,0.7z"/>
   <path class="fil4 str0" d="M4.75 17.69c-0.1,-0.28 -0.29,-0.53 -0.53,-0.71 -0.34,-0.24 -0.76,-0.33 -1.14,-0.5 -0.71,-0.31 -1.28,-0.93 -1.54,-1.67 -0.16,-0.47 -0.21,-0.97 -0.24,-1.47"/>
   <path class="fil5" d="M0.36 13.7c-0.07,-0.06 -0.13,-0.11 -0.17,-0.19 -0.04,-0.07 -0.04,-0.17 0.01,-0.23 0.04,-0.06 0.1,-0.08 0.16,-0.09 0.18,-0.03 0.36,0.06 0.5,0.18 0.11,0.08 0.2,0.17 0.29,0.28 0.08,0.09 0.21,0.23 0.24,0.35 0.06,0.25 -0.52,-0.01 -0.61,-0.05 -0.15,-0.07 -0.29,-0.15 -0.42,-0.25z"/>
   <path class="fil5" d="M2.18 14.44c0.12,-0.13 0.23,-0.28 0.25,-0.46 0,-0.06 -0.01,-0.12 -0.05,-0.15 -0.02,-0.02 -0.05,-0.03 -0.07,-0.03 -0.19,-0.04 -0.38,0.06 -0.51,0.2 -0.12,0.14 -0.19,0.33 -0.24,0.51 -0.05,0.14 -0.1,0.37 0.14,0.28 0.18,-0.06 0.35,-0.22 0.48,-0.35z"/>
   <path class="fil5" d="M0.97 15.29c-0.06,-0.05 -0.12,-0.13 -0.1,-0.21 0.01,-0.03 0.05,-0.06 0.08,-0.08 0.13,-0.07 0.28,-0.02 0.41,0.04 0.09,0.05 0.69,0.37 0.38,0.45 -0.25,0.07 -0.57,-0.05 -0.77,-0.2z"/>
   <path class="fil5" d="M2.49 15.5c0.05,-0.1 0.08,-0.22 0.06,-0.34 -0.01,-0.05 -0.04,-0.11 -0.09,-0.13 -0.04,-0.03 -0.09,-0.02 -0.13,0 -0.05,0.02 -0.08,0.05 -0.11,0.09 -0.08,0.11 -0.1,0.25 -0.1,0.39 0,0.08 -0.01,0.34 0.13,0.31 0.1,-0.02 0.2,-0.23 0.24,-0.32z"/>
   <path class="fil5" d="M2.45 16.43c-0.12,0.06 -0.25,0.09 -0.38,0.06 -0.06,-0.01 -0.12,-0.05 -0.12,-0.11 0,-0.03 0.01,-0.05 0.02,-0.07 0.04,-0.06 0.1,-0.1 0.17,-0.12 0.14,-0.05 0.29,-0.05 0.42,0 0.06,0.01 0.13,0.04 0.08,0.11 -0.04,0.06 -0.13,0.1 -0.19,0.13z"/>
   <path class="fil6" d="M4.91 13.34c-0.11,-0.09 -0.23,-0.2 -0.26,-0.34 -0.08,-0.37 0.44,-0.71 0.3,-1.07 -0.06,-0.17 -0.24,-0.25 -0.4,-0.33 -0.28,-0.15 -0.58,-0.39 -0.55,-0.7 0.03,-0.4 0.54,-0.6 0.63,-0.99 0.12,-0.48 -0.49,-0.95 -0.31,-1.42 0.05,-0.16 0.2,-0.28 0.36,-0.33 0.16,-0.06 0.34,-0.06 0.51,-0.04 0.26,0.03 0.54,0.12 0.69,0.34 0.15,0.25 0.12,0.59 0.31,0.8 0.25,0.26 0.72,0.16 0.99,0.39 0.22,0.2 0.23,0.54 0.16,0.83 -0.06,0.21 -0.16,0.43 -0.1,0.64 0.06,0.19 0.22,0.33 0.32,0.5 0.14,0.22 0.15,0.51 0.08,0.76 -0.07,0.25 -0.22,0.47 -0.39,0.67 -0.16,0.17 -0.35,0.33 -0.57,0.41 -0.15,0.05 -0.32,0.07 -0.48,0.12 -0.12,0.04 -0.24,0.14 -0.36,0.16 -0.29,0.04 -0.71,-0.24 -0.93,-0.4z"/>
   <path class="fil4 str1" d="M6.17 13.64c0.05,-0.27 0.07,-0.55 0.08,-0.82 0,-0.69 -0.14,-1.38 -0.35,-2.04 -0.22,-0.66 -0.5,-1.29 -0.78,-1.93"/>
   <path class="fil4 str1" d="M5.95 10.91c0.39,-0.27 0.72,-0.62 0.99,-1.01"/>
   <path class="fil4 str1" d="M4.56 11.12c0.46,0.21 0.98,0.3 1.49,0.24"/>
   <path class="fil4 str1" d="M6.24 12.35c0.32,-0.09 0.62,-0.25 0.88,-0.46"/>
   <path class="fil4 str1" d="M5.34 12.82c0.3,0.09 0.61,0.17 0.92,0.14"/>
   <path class="fil5" d="M4.95 17.16c-0.35,-0.58 -0.82,-1.07 -1.29,-1.56 -0.31,-0.33 -0.62,-0.67 -0.82,-1.08 -0.19,-0.37 -0.28,-0.8 -0.3,-1.22 -0.02,-0.42 0.04,-0.87 0.32,-1.18 0.41,-0.45 1.16,-0.44 1.66,-0.11 0.51,0.33 0.81,0.9 0.99,1.48 0.22,0.7 0.3,1.44 0.32,2.18 0.01,0.52 -0.01,1.04 -0.07,1.56 -0.04,0.45 -0.06,1.08 -0.26,1.48 -0.13,-0.17 -0.12,-0.48 -0.17,-0.68 -0.09,-0.31 -0.22,-0.6 -0.38,-0.87z"/>
   <path class="fil4 str2" d="M5.64 16.24c-0.37,-0.22 -0.68,-0.52 -0.92,-0.88 -0.56,-0.86 -0.6,-1.98 -1.14,-2.86"/>
   <path class="fil4 str2" d="M3.95 13.28c0.17,-0.18 0.29,-0.4 0.36,-0.64"/>
   <path class="fil4 str2" d="M3.06 13.82c0.26,0.2 0.59,0.3 0.92,0.28 0.06,0 0.12,-0.01 0.18,0.01"/>
   <path class="fil4 str2" d="M4.49 14.93c0.01,0.01 0.02,0.01 0.03,0.01 0.16,-0.09 0.28,-0.22 0.38,-0.37 0.09,-0.15 0.16,-0.32 0.23,-0.48"/>
   <path class="fil4 str2" d="M4.18 15.72c0.29,0.08 0.59,0.1 0.89,0.05"/>
   <path class="fil6" d="M28.15 13.57c0.12,-0.07 0.25,-0.16 0.3,-0.3 0.14,-0.36 -0.32,-0.77 -0.14,-1.1 0.09,-0.16 0.28,-0.22 0.45,-0.27 0.3,-0.1 0.63,-0.3 0.65,-0.61 0.03,-0.4 -0.45,-0.67 -0.48,-1.07 -0.04,-0.49 0.62,-0.87 0.52,-1.36 -0.03,-0.16 -0.16,-0.3 -0.31,-0.38 -0.15,-0.08 -0.32,-0.11 -0.49,-0.12 -0.27,-0.01 -0.56,0.04 -0.74,0.24 -0.19,0.22 -0.2,0.56 -0.43,0.74 -0.28,0.22 -0.73,0.06 -1.03,0.25 -0.25,0.16 -0.31,0.5 -0.28,0.79 0.03,0.22 0.09,0.45 0,0.65 -0.08,0.18 -0.27,0.29 -0.39,0.44 -0.17,0.21 -0.23,0.48 -0.19,0.74 0.03,0.26 0.14,0.51 0.29,0.72 0.13,0.2 0.29,0.38 0.5,0.49 0.14,0.08 0.31,0.12 0.45,0.19 0.12,0.06 0.22,0.18 0.34,0.22 0.28,0.08 0.74,-0.13 0.98,-0.26z"/>
   <path class="fil4 str1" d="M26.86 13.68c-0.01,-0.28 0.01,-0.55 0.04,-0.82 0.1,-0.69 0.34,-1.35 0.65,-1.97 0.31,-0.62 0.68,-1.2 1.06,-1.79"/>
   <path class="fil4 str1" d="M27.48 11.02c-0.34,-0.33 -0.63,-0.73 -0.83,-1.16"/>
   <path class="fil4 str1" d="M28.82 11.42c-0.49,0.15 -1.01,0.15 -1.5,0.02"/>
   <path class="fil4 str1" d="M26.98 12.4c-0.3,-0.14 -0.58,-0.34 -0.8,-0.59"/>
   <path class="fil4 str1" d="M27.8 12.99c-0.31,0.04 -0.63,0.08 -0.94,0"/>
   <path class="fil5" d="M28.65 17.1c0.35,-0.58 0.82,-1.07 1.28,-1.56 0.31,-0.33 0.62,-0.67 0.83,-1.08 0.19,-0.37 0.28,-0.8 0.3,-1.22 0.01,-0.42 -0.05,-0.87 -0.33,-1.18 -0.4,-0.45 -1.15,-0.44 -1.66,-0.11 -0.5,0.33 -0.8,0.9 -0.98,1.48 -0.22,0.7 -0.31,1.44 -0.32,2.18 -0.01,0.52 0.01,1.04 0.06,1.56 0.05,0.44 0.06,1.08 0.26,1.47 0.14,-0.16 0.12,-0.47 0.18,-0.67 0.08,-0.31 0.22,-0.6 0.38,-0.87z"/>
   <path class="fil4 str2" d="M27.96 16.18c0.36,-0.22 0.68,-0.52 0.91,-0.88 0.56,-0.86 0.61,-1.98 1.15,-2.86"/>
   <path class="fil4 str2" d="M29.65 13.22c-0.17,-0.18 -0.3,-0.4 -0.36,-0.64"/>
   <path class="fil4 str2" d="M30.54 13.76c-0.26,0.2 -0.6,0.3 -0.92,0.28 -0.06,-0.01 -0.12,-0.01 -0.18,0.01"/>
   <path class="fil4 str2" d="M29.1 14.87c0,0.01 -0.02,0.01 -0.03,0.01 -0.15,-0.09 -0.27,-0.23 -0.37,-0.37 -0.09,-0.15 -0.16,-0.32 -0.23,-0.48"/>
   <path class="fil4 str2" d="M29.42 15.66c-0.29,0.08 -0.6,0.1 -0.89,0.05"/>
   <path class="fil6" d="M7.5 18.84l-6.48 0c-0.24,-0.37 -0.25,-0.86 -0.11,-1.28 0.12,-0.37 0.36,-0.73 0.72,-0.88 0.22,-0.09 0.47,-0.09 0.7,-0.01 0.22,0.07 0.42,0.22 0.58,0.4 0.02,-0.31 0.26,-0.58 0.56,-0.64 0.3,-0.05 0.63,0.11 0.76,0.39 0.24,-0.24 0.65,-0.29 0.96,-0.17 0.31,0.13 0.53,0.46 0.53,0.79 0,0.02 0.02,0.06 0.03,0.04 0.18,-0.22 0.42,-0.33 0.7,-0.31 0.28,0.02 0.54,0.16 0.73,0.37 0.19,0.21 0.3,0.48 0.35,0.75 0.03,0.19 0.03,0.37 -0.03,0.55z"/>
   <polygon class="fil7" points="17.22,7.31 17.83,7.31 17.83,7.44 17.79,7.44 17.79,8.28 17.25,8.28 17.25,7.44 17.22,7.44 "/>
   <polygon class="fil8" points="10.68,18.83 28.59,18.83 28.59,15 10.68,15 "/>
   <polygon class="fil9" points="26.11,17.57 28.59,17.57 28.59,18.83 26.11,18.83 "/>
   <polygon class="fil10" points="24.26,15.78 27.87,15.78 27.87,18.83 24.26,18.83 "/>
   <polygon class="fil11" points="27.34,16.18 27.7,16.18 27.7,15.89 27.34,15.89 "/>
   <polygon class="fil11" points="26.95,16.18 27.3,16.18 27.3,15.89 26.95,15.89 "/>
   <polygon class="fil11" points="26.55,16.18 26.9,16.18 26.9,15.89 26.55,15.89 "/>
   <polygon class="fil11" points="26.15,16.18 26.51,16.18 26.51,15.89 26.15,15.89 "/>
   <polygon class="fil11" points="25.63,16.18 25.98,16.18 25.98,15.89 25.63,15.89 "/>
   <polygon class="fil11" points="25.23,16.18 25.59,16.18 25.59,15.89 25.23,15.89 "/>
   <polygon class="fil11" points="24.83,16.18 25.19,16.18 25.19,15.89 24.83,15.89 "/>
   <polygon class="fil11" points="24.44,16.18 24.79,16.18 24.79,15.89 24.44,15.89 "/>
   <polygon class="fil10" points="26.33,16.73 26.33,16.41 27.67,16.41 27.67,16.73 "/>
   <path class="fil12" d="M27.64 16.44l0 0.26 -1.28 0 0 -0.26 1.28 0zm0.06 -0.05l0 0 -1.4 0 0 0.37 1.4 0 0 -0.37z"/>
   <polygon class="fil10" points="24.47,16.73 24.47,16.41 25.81,16.41 25.81,16.73 "/>
   <path class="fil12" d="M25.78 16.44l0 0.26 -1.28 0 0 -0.26 1.28 0zm0.06 -0.05l0 0 -1.4 0 0 0.37 1.4 0 0 -0.37z"/>
   <polygon class="fil10" points="26.33,17.36 26.33,17.04 27.67,17.04 27.67,17.36 "/>
   <path class="fil12" d="M27.64 17.07l0 0.26 -1.28 0 0 -0.26 1.28 0zm0.06 -0.05l0 0 -1.4 0 0 0.37 1.4 0 0 -0.37z"/>
   <polygon class="fil10" points="24.47,17.36 24.47,17.04 25.81,17.04 25.81,17.36 "/>
   <path class="fil12" d="M25.78 17.07l0 0.26 -1.28 0 0 -0.26 1.28 0zm0.06 -0.05l0 0 -1.4 0 0 0.37 1.4 0 0 -0.37z"/>
   <polygon class="fil10" points="26.33,17.99 26.33,17.68 27.67,17.68 27.67,17.99 "/>
   <path class="fil12" d="M27.64 17.7l0 0.26 -1.28 0 0 -0.26 1.28 0zm0.06 -0.05l0 0 -1.4 0 0 0.37 1.4 0 0 -0.37z"/>
   <polygon class="fil10" points="24.47,17.99 24.47,17.68 25.81,17.68 25.81,17.99 "/>
   <path class="fil12" d="M25.78 17.7l0 0.26 -1.28 0 0 -0.26 1.28 0zm0.06 -0.05l0 0 -1.4 0 0 0.37 1.4 0 0 -0.37z"/>
   <polygon class="fil10" points="26.33,18.62 26.33,18.31 27.67,18.31 27.67,18.62 "/>
   <path class="fil12" d="M27.64 18.34l0 0.25 -1.28 0 0 -0.25 1.28 0zm0.06 -0.06l0 0 -1.4 0 0 0.37 1.4 0 0 -0.37z"/>
   <polygon class="fil10" points="24.47,18.62 24.47,18.31 25.81,18.31 25.81,18.62 "/>
   <path class="fil12" d="M25.78 18.34l0 0.25 -1.28 0 0 -0.25 1.28 0zm0.06 -0.06l0 0 -1.4 0 0 0.37 1.4 0 0 -0.37z"/>
   <polygon class="fil13" points="24.2,15.62 27.94,15.62 27.94,15.78 24.2,15.78 "/>
   <polygon class="fil13" points="27.86,18.83 27.86,15.62 28.02,15.62 28.02,18.83 "/>
   <polygon class="fil13" points="24.1,18.83 24.1,15.62 24.26,15.62 24.26,18.83 "/>
   <polygon class="fil14" points="23.14,10.71 22.24,8.8 14.27,8.8 13.37,10.71 "/>
   <polygon class="fil14" points="14.48,14.7 13.58,12.79 5.6,12.79 4.71,14.7 "/>
   <polygon class="fil15" points="7.71,10 26.67,10 29.02,15 5.36,15 "/>
   <polygon class="fil7" points="24.79,10 23.89,8.09 15.91,8.09 15.02,10 "/>
   <polygon class="fil16" points="20,13.27 24.16,13.27 24.16,10.57 19.79,7.06 17.71,8.69 20,10.57 "/>
   <polygon class="fil16" points="23.8,10.17 19.48,10.17 17.71,8.75 19.79,7.06 "/>
   <polygon class="fil17" points="14.67,18.81 24.89,18.81 24.89,15 14.67,15 "/>
   <polygon class="fil17" points="5.21,18.85 11.44,18.83 11.43,14.64 8.3,12.32 5.2,14.61 "/>
   <polygon class="fil9" points="14.67,17.57 24.89,17.57 24.89,18.83 14.67,18.83 "/>
   <polygon class="fil16" points="8.28,12.22 11.05,14.22 5.7,14.22 "/>
   <polygon class="fil18" points="16.62,15.78 22.91,15.78 22.91,18.83 16.62,18.83 "/>
   <polygon class="fil11" points="22.31,16.18 22.66,16.18 22.66,15.89 22.31,15.89 "/>
   <polygon class="fil11" points="21.91,16.18 22.27,16.18 22.27,15.89 21.91,15.89 "/>
   <polygon class="fil11" points="21.51,16.18 21.87,16.18 21.87,15.89 21.51,15.89 "/>
   <polygon class="fil11" points="21.12,16.18 21.47,16.18 21.47,15.89 21.12,15.89 "/>
   <polygon class="fil11" points="20.12,16.18 20.47,16.18 20.47,15.89 20.12,15.89 "/>
   <polygon class="fil11" points="19.72,16.18 20.08,16.18 20.08,15.89 19.72,15.89 "/>
   <polygon class="fil11" points="19.33,16.18 19.68,16.18 19.68,15.89 19.33,15.89 "/>
   <polygon class="fil11" points="18.93,16.18 19.29,16.18 19.29,15.89 18.93,15.89 "/>
   <polygon class="fil11" points="17.99,16.18 18.34,16.18 18.34,15.89 17.99,15.89 "/>
   <polygon class="fil11" points="17.59,16.18 17.95,16.18 17.95,15.89 17.59,15.89 "/>
   <polygon class="fil11" points="17.19,16.18 17.55,16.18 17.55,15.89 17.19,15.89 "/>
   <polygon class="fil11" points="16.8,16.18 17.15,16.18 17.15,15.89 16.8,15.89 "/>
   <polygon class="fil18" points="21.29,16.73 21.29,16.41 22.63,16.41 22.63,16.73 "/>
   <path class="fil19" d="M22.6 16.44l0 0.26 -1.28 0 0 -0.26 1.28 0zm0.06 -0.05l0 0 -1.4 0 0 0.37 1.4 0 0 -0.37z"/>
   <polygon class="fil18" points="19.8,16.73 19.8,16.41 21.14,16.41 21.14,16.73 "/>
   <path class="fil19" d="M21.12 16.44l0 0.26 -1.29 0 0 -0.26 1.29 0zm0.05 -0.05l0 0 -1.39 0 0 0.37 1.39 0 0 -0.37z"/>
   <polygon class="fil18" points="18.32,16.73 18.32,16.41 19.66,16.41 19.66,16.73 "/>
   <path class="fil19" d="M19.63 16.44l0 0.26 -1.29 0 0 -0.26 1.29 0zm0.05 -0.05l0 0 -1.39 0 0 0.37 1.39 0 0 -0.37z"/>
   <polygon class="fil18" points="16.83,16.73 16.83,16.41 18.17,16.41 18.17,16.73 "/>
   <path class="fil19" d="M18.14 16.44l0 0.26 -1.28 0 0 -0.26 1.28 0zm0.06 -0.05l0 0 -1.4 0 0 0.37 1.4 0 0 -0.37z"/>
   <polygon class="fil18" points="21.29,17.36 21.29,17.04 22.63,17.04 22.63,17.36 "/>
   <path class="fil19" d="M22.6 17.07l0 0.26 -1.28 0 0 -0.26 1.28 0zm0.06 -0.05l0 0 -1.4 0 0 0.37 1.4 0 0 -0.37z"/>
   <polygon class="fil18" points="19.8,17.36 19.8,17.04 21.14,17.04 21.14,17.36 "/>
   <path class="fil19" d="M21.12 17.07l0 0.26 -1.29 0 0 -0.26 1.29 0zm0.05 -0.05l0 0 -1.39 0 0 0.37 1.39 0 0 -0.37z"/>
   <polygon class="fil18" points="18.32,17.36 18.32,17.04 19.66,17.04 19.66,17.36 "/>
   <path class="fil19" d="M19.63 17.07l0 0.26 -1.29 0 0 -0.26 1.29 0zm0.05 -0.05l0 0 -1.39 0 0 0.37 1.39 0 0 -0.37z"/>
   <polygon class="fil18" points="16.83,17.36 16.83,17.04 18.17,17.04 18.17,17.36 "/>
   <path class="fil19" d="M18.14 17.07l0 0.26 -1.28 0 0 -0.26 1.28 0zm0.06 -0.05l0 0 -1.4 0 0 0.37 1.4 0 0 -0.37z"/>
   <polygon class="fil18" points="21.29,17.99 21.29,17.68 22.63,17.68 22.63,17.99 "/>
   <path class="fil19" d="M22.6 17.7l0 0.26 -1.28 0 0 -0.26 1.28 0zm0.06 -0.05l0 0 -1.4 0 0 0.37 1.4 0 0 -0.37z"/>
   <polygon class="fil18" points="19.8,17.99 19.8,17.68 21.14,17.68 21.14,17.99 "/>
   <path class="fil19" d="M21.12 17.7l0 0.26 -1.29 0 0 -0.26 1.29 0zm0.05 -0.05l0 0 -1.39 0 0 0.37 1.39 0 0 -0.37z"/>
   <polygon class="fil18" points="18.32,17.99 18.32,17.68 19.66,17.68 19.66,17.99 "/>
   <path class="fil19" d="M19.63 17.7l0 0.26 -1.29 0 0 -0.26 1.29 0zm0.05 -0.05l0 0 -1.39 0 0 0.37 1.39 0 0 -0.37z"/>
   <polygon class="fil18" points="16.83,17.99 16.83,17.68 18.17,17.68 18.17,17.99 "/>
   <path class="fil19" d="M18.14 17.7l0 0.26 -1.28 0 0 -0.26 1.28 0zm0.06 -0.05l0 0 -1.4 0 0 0.37 1.4 0 0 -0.37z"/>
   <polygon class="fil18" points="21.29,18.62 21.29,18.31 22.63,18.31 22.63,18.62 "/>
   <path class="fil19" d="M22.6 18.34l0 0.25 -1.28 0 0 -0.25 1.28 0zm0.06 -0.06l0 0 -1.4 0 0 0.37 1.4 0 0 -0.37z"/>
   <polygon class="fil18" points="19.8,18.62 19.8,18.31 21.14,18.31 21.14,18.62 "/>
   <path class="fil19" d="M21.12 18.34l0 0.25 -1.29 0 0 -0.25 1.29 0zm0.05 -0.06l0 0 -1.39 0 0 0.37 1.39 0 0 -0.37z"/>
   <polygon class="fil18" points="18.32,18.62 18.32,18.31 19.66,18.31 19.66,18.62 "/>
   <path class="fil19" d="M19.63 18.34l0 0.25 -1.29 0 0 -0.25 1.29 0zm0.05 -0.06l0 0 -1.39 0 0 0.37 1.39 0 0 -0.37z"/>
   <polygon class="fil18" points="16.83,18.62 16.83,18.31 18.17,18.31 18.17,18.62 "/>
   <path class="fil19" d="M18.14 18.34l0 0.25 -1.28 0 0 -0.25 1.28 0zm0.06 -0.06l0 0 -1.4 0 0 0.37 1.4 0 0 -0.37z"/>
   <polygon class="fil20" points="16.56,15.62 22.99,15.62 22.99,15.78 16.56,15.78 "/>
   <polygon class="fil20" points="22.91,18.83 22.91,15.62 23.07,15.62 23.07,18.83 "/>
   <polygon class="fil20" points="16.46,18.83 16.46,15.62 16.62,15.62 16.62,18.83 "/>
   <polygon class="fil21" points="12.33,18.83 13.89,18.83 13.89,15.89 12.33,15.89 "/>
   <polygon class="fil13" points="13.89,18.83 13.89,15.82 14,15.82 14,18.83 "/>
   <polygon class="fil13" points="12.22,18.83 12.22,15.82 12.33,15.82 12.33,18.83 "/>
   <polygon class="fil13" points="14,15.89 12.22,15.89 12.22,15.77 14,15.77 "/>
   <polygon class="fil22" points="12.59,16.67 12.59,16.05 13.63,16.05 13.63,16.67 "/>
   <path class="fil23" d="M13.6 16.07l0 0.57 -0.98 0 0 -0.57 0.98 0zm0.05 -0.05l0 0 -1.08 0 0 0.67 1.08 0 0 -0.67z"/>
   <polygon class="fil24" points="13.18,16.05 13.63,16.5 13.63,16.27 13.41,16.04 "/>
   <polygon class="fil24" points="12.98,16.04 13.63,16.69 13.63,16.57 13.09,16.04 "/>
   <polygon class="fil24" points="13.04,16.68 12.59,16.23 12.59,16.46 12.82,16.69 "/>
   <polygon class="fil24" points="13.24,16.68 12.59,16.04 12.6,16.16 13.13,16.69 "/>
   <polygon class="fil23" points="12.59,16.38 13.64,16.38 13.64,16.34 12.59,16.34 "/>
   <polygon class="fil23" points="13.1,16.68 13.13,16.68 13.13,16.04 13.1,16.04 "/>
   <path class="fil25" d="M13.6 16.91l0 1.74 -0.34 0 0 -1.74 0.34 0zm0.05 -0.06l0 0 -0.45 0 0 1.86 0.45 0 0 -1.86z"/>
   <path class="fil25" d="M12.97 16.91l0 1.74 -0.34 0 0 -1.74 0.34 0zm0.06 -0.06l0 0 -0.46 0 0 1.86 0.46 0 0 -1.86z"/>
   <path class="fil25" d="M12.45 17.24l0 0 0 0.59 0 -0.59c0,0 0,0 0,0zm0 -0.06l0 0c-0.03,0 -0.06,0.03 -0.06,0.06l0 0.59c0,0.03 0.03,0.06 0.06,0.06 0.03,0 0.06,-0.03 0.06,-0.06l0 -0.59c0,-0.03 -0.03,-0.06 -0.06,-0.06z"/>
   <path class="fil26" d="M12.36 17.4c0,0.05 0.04,0.09 0.09,0.09 0.05,0 0.09,-0.04 0.09,-0.09 0,-0.05 -0.04,-0.09 -0.09,-0.09 -0.05,0 -0.09,0.04 -0.09,0.09z"/>
   <polygon class="fil27" points="5.61,14.44 11.02,14.44 11.02,14.18 5.61,14.18 "/>
   <path class="fil28" d="M24.89 15.31l3.87 0c0.14,0 0.26,-0.12 0.26,-0.26l0 -0.05 -4.13 0 0 0.31z"/>
   <polygon class="fil28" points="10.88,15.31 15.02,15.31 15.02,15 10.88,15 "/>
   <path class="fil29" d="M14.61 15.46l10.31 0c0.13,0 0.24,-0.11 0.24,-0.24l0 -0.07 -10.79 0 0 0.07c0,0.13 0.11,0.24 0.24,0.24z"/>
   <polygon class="fil22" points="6.8,17.29 6.8,14.82 9.83,14.82 9.83,17.29 "/>
   <path class="fil23" d="M9.76 14.89l0 2.33 -2.89 0 0 -2.33 2.89 0zm0.14 -0.14l0 0 -3.17 0 0 2.6 3.17 0 0 -2.6z"/>
   <polygon class="fil24" points="8.19,14.85 9.84,16.5 9.85,15.64 9.03,14.82 "/>
   <polygon class="fil24" points="6.78,15.99 8.1,17.31 8.97,17.32 6.85,15.2 "/>
   <polygon class="fil24" points="7.45,14.82 9.85,17.23 9.84,16.76 7.86,14.79 "/>
   <polygon class="fil24" points="6.75,16.59 7.45,17.29 7.85,17.23 6.8,16.18 "/>
   <polygon class="fil23" points="8.23,17.24 8.4,17.24 8.4,14.85 8.23,14.85 "/>
   <polygon class="fil7" points="25.16,15.18 24.66,13.27 14.87,13.27 14.37,15.18 "/>
   <polygon class="fil30" points="10.62,13.95 11.44,14.52 11.44,18.54 10.62,18.54 "/>
   <polygon class="fil9" points="10.62,17.59 11.44,17.59 11.44,18.83 10.62,18.83 "/>
   <polygon class="fil30" points="6.02,13.97 5.2,14.54 5.2,18.56 6.02,18.56 "/>
   <polygon class="fil9" points="6.02,17.61 5.2,17.61 5.2,18.85 6.02,18.85 "/>
   <path class="fil5" d="M7.05 18.85l-3.72 0c-0.1,-0.07 -0.17,-0.2 -0.21,-0.31 -0.04,-0.12 -0.07,-0.25 -0.06,-0.37 0.03,-0.19 0.17,-0.36 0.35,-0.41 0.18,-0.06 0.4,0 0.53,0.14 -0.04,-0.12 -0.01,-0.24 0.04,-0.35 0.11,-0.25 0.37,-0.43 0.65,-0.44 0.27,-0.01 0.55,0.15 0.68,0.39 0.12,-0.23 0.36,-0.37 0.62,-0.35 0.25,0.02 0.49,0.22 0.53,0.48 0.18,-0.11 0.39,-0.08 0.55,0.06 0.15,0.14 0.23,0.36 0.22,0.57 -0.01,0.21 -0.07,0.41 -0.18,0.59z"/>
   <path class="fil4 str2" d="M4.96 18.57c-0.25,-0.29 -0.4,-0.66 -0.43,-1.05"/>
   <path class="fil4 str2" d="M4.9 17.45c-0.04,0.18 -0.15,0.33 -0.29,0.44"/>
   <path class="fil4 str2" d="M4.41 18.25c0.1,0.03 0.2,0.02 0.3,0"/>
   <path class="fil4 str2" d="M6.38 18.6c0.23,-0.21 0.37,-0.5 0.41,-0.81"/>
   <path class="fil4 str2" d="M6.51 18.46c0,0 -0.01,0 -0.01,-0.01 -0.1,-0.1 -0.13,-0.24 -0.15,-0.38"/>
   <path class="fil4 str2" d="M6.73 18.16c0.08,-0.01 0.15,-0.05 0.2,-0.11"/>
   <path class="fil4 str2" d="M5.67 18.23c0.07,-0.2 0.11,-0.41 0.1,-0.63"/>
   <path class="fil4 str2" d="M3.96 18.65c-0.18,-0.12 -0.34,-0.28 -0.45,-0.47"/>
   <path class="fil4 str2" d="M5.68 18c-0.07,-0.06 -0.11,-0.15 -0.12,-0.24"/>
   <path class="fil4 str2" d="M3.7 18.42c0.04,-0.09 0.04,-0.2 0.03,-0.3"/>
   <path class="fil4 str2" d="M5.8 17.78c0.07,-0.04 0.13,-0.11 0.16,-0.18"/>
   <path class="fil4 str2" d="M3.62 18.65c0.08,0.01 0.15,-0.01 0.21,-0.04"/>
   <path class="fil31" d="M4.71 14.69l3.6 -2.76 0 0 0 0 3.61 2.76 -0.03 0.04c-0.11,0.15 -0.32,0.18 -0.47,0.06l-3.11 -2.38 -3.1 2.38c-0.15,0.12 -0.36,0.09 -0.47,-0.06l-0.03 -0.04z"/>
   <path class="fil32" d="M8.05 13.89c-0.04,0 -0.07,-0.03 -0.07,-0.06l0 -0.73c0,-0.03 0.03,-0.06 0.07,-0.06l0.54 0c0.03,0 0.06,0.03 0.06,0.06l0 0.73c0,0.03 -0.03,0.06 -0.06,0.06l-0.54 0z"/>
   <path class="fil13" d="M8.59 13.07c0.01,0 0.03,0.01 0.03,0.03l0 0.73c0,0.01 -0.02,0.03 -0.03,0.03l-0.54 0c-0.02,0 -0.03,-0.02 -0.03,-0.03l0 -0.73c0,-0.02 0.01,-0.03 0.03,-0.03l0.54 0zm0 -0.07l0 0 -0.54 0c-0.06,0 -0.1,0.05 -0.1,0.1l0 0.73c0,0.05 0.04,0.09 0.1,0.09l0.54 0c0.05,0 0.09,-0.04 0.09,-0.09l0 -0.73c0,-0.05 -0.04,-0.1 -0.09,-0.1z"/>
   <polygon class="fil27" points="19.51,10.19 23.72,10.19 23.72,9.93 19.51,9.93 "/>
   <path class="fil31" d="M16.16 9.61l3.6 -2.76 0.01 0 0 0 5.24 4.01 -0.04 0.06c-0.11,0.14 -0.3,0.16 -0.44,0.06l-4.76 -3.65 -3.38 2.58 -0.23 -0.3z"/>
   <path class="fil32" d="M19.52 9.29c-0.1,0 -0.19,-0.08 -0.19,-0.19l0 -0.7c0,-0.1 0.09,-0.18 0.19,-0.18l0.46 0c0.11,0 0.19,0.08 0.19,0.18l0 0.7c0,0.11 -0.08,0.19 -0.19,0.19l-0.46 0z"/>
   <path class="fil13" d="M19.98 8.25c0.09,0 0.16,0.07 0.16,0.15l0 0.7c0,0.09 -0.07,0.16 -0.16,0.16l-0.46 0c-0.09,0 -0.15,-0.07 -0.15,-0.16l0 -0.7c0,-0.08 0.06,-0.15 0.15,-0.15l0.46 0zm0 -0.07l0 0 -0.46 0c-0.12,0 -0.22,0.1 -0.22,0.22l0 0.7c0,0.12 0.1,0.22 0.22,0.22l0.46 0c0.13,0 0.23,-0.1 0.23,-0.22l0 -0.7c0,-0.12 -0.1,-0.22 -0.23,-0.22z"/>
   <polygon class="fil33" points="11.72,17.81 11.72,15.93 12.02,15.93 12.02,17.81 "/>
   <path class="fil23" d="M11.99 15.95l0 1.83 -0.24 0 0 -1.83 0.24 0zm0.05 -0.05l0 0 -0.34 0 0 1.93 0.34 0 0 -1.93z"/>
   <polygon class="fil24" points="11.72,15.91 12.03,16.22 12.03,16.06 11.88,15.91 "/>
   <polygon class="fil24" points="11.71,16.03 12.03,16.35 12.03,16.26 11.72,15.96 "/>
   <polygon class="fil24" points="11.72,16.62 12.03,16.93 12.03,16.77 11.74,16.48 "/>
   <polygon class="fil24" points="11.71,16.75 12.03,17.07 12.03,16.98 11.72,16.67 "/>
   <polygon class="fil24" points="11.72,17.39 12.03,17.69 12.03,17.53 11.74,17.24 "/>
   <polygon class="fil24" points="11.71,17.51 12.03,17.83 12.03,17.74 11.72,17.44 "/>
   <polygon class="fil33" points="14.19,17.81 14.19,15.93 14.48,15.93 14.48,17.81 "/>
   <path class="fil23" d="M14.46 15.95l0 1.83 -0.25 0 0 -1.83 0.25 0zm0.05 -0.05l0 0 -0.35 0 0 1.93 0.35 0 0 -1.93z"/>
   <polygon class="fil24" points="14.19,15.91 14.49,16.22 14.49,16.06 14.34,15.91 "/>
   <polygon class="fil24" points="14.18,16.03 14.5,16.35 14.49,16.26 14.19,15.96 "/>
   <polygon class="fil24" points="14.19,16.62 14.49,16.93 14.49,16.77 14.2,16.48 "/>
   <polygon class="fil24" points="14.18,16.75 14.5,17.07 14.49,16.98 14.19,16.67 "/>
   <polygon class="fil24" points="14.19,17.39 14.49,17.69 14.49,17.53 14.2,17.24 "/>
   <polygon class="fil24" points="14.18,17.51 14.5,17.83 14.49,17.74 14.19,17.44 "/>
   <path class="fil34" d="M16.25 16.99l0 0.31 -1.32 0 0 -0.31 1.32 0zm0.06 -0.05l0 0 -1.43 0 0 0.41 1.43 0 0 -0.41z"/>
   <path class="fil35" d="M15.51 15.95c0,0.04 0.04,0.07 0.08,0.07 0.04,0 0.08,-0.03 0.08,-0.07 0,-0.05 -0.04,-0.08 -0.08,-0.08 -0.04,0 -0.08,0.03 -0.08,0.08z"/>
   <path class="fil36" d="M15.59 16.36c0.06,0 0.1,-0.04 0.1,-0.09l0 -0.01 -0.19 0 0 0.01c0,0.05 0.04,0.09 0.09,0.09z"/>
   <path class="fil37" d="M15.55 16.06l0.08 0 0 -0.16c0,-0.03 -0.02,-0.04 -0.04,-0.04 -0.02,0 -0.04,0.01 -0.04,0.04l0 0.16z"/>
   <path class="fil38" d="M15.42 16.28l0.35 0 -0.03 -0.18c-0.01,-0.07 -0.07,-0.12 -0.15,-0.12 -0.07,0 -0.13,0.05 -0.14,0.12l-0.03 0.18z"/>
   <path class="fil35" d="M13.03 15.53c0,0.05 0.04,0.08 0.08,0.08 0.04,0 0.08,-0.03 0.08,-0.08 0,-0.04 -0.04,-0.07 -0.08,-0.07 -0.04,0 -0.08,0.03 -0.08,0.07z"/>
   <path class="fil36" d="M13.11 15.95c0.06,0 0.1,-0.04 0.1,-0.1l0 -0.01 -0.19 0 0 0.01c0,0.06 0.04,0.1 0.09,0.1z"/>
   <path class="fil37" d="M13.07 15.65l0.08 0 0 -0.17c0,-0.02 -0.02,-0.04 -0.04,-0.04 -0.02,0 -0.04,0.02 -0.04,0.04l0 0.17z"/>
   <path class="fil38" d="M12.94 15.87l0.35 0 -0.03 -0.18c-0.01,-0.07 -0.07,-0.12 -0.15,-0.12 -0.07,0 -0.13,0.05 -0.14,0.12l-0.03 0.18z"/>
   <path class="fil35" d="M23.85 15.95c0,0.04 0.03,0.07 0.07,0.07 0.05,0 0.08,-0.03 0.08,-0.07 0,-0.05 -0.03,-0.08 -0.08,-0.08 -0.04,0 -0.07,0.03 -0.07,0.08z"/>
   <path class="fil36" d="M23.93 16.36c0.05,0 0.09,-0.04 0.09,-0.09l0 -0.01 -0.19 0 0 0.01c0,0.05 0.05,0.09 0.1,0.09z"/>
   <path class="fil37" d="M23.89 16.06l0.07 0 0 -0.16c0,-0.03 -0.01,-0.04 -0.04,-0.04 -0.02,0 -0.03,0.01 -0.03,0.04l0 0.16z"/>
   <path class="fil38" d="M23.76 16.28l0.34 0 -0.03 -0.18c-0.01,-0.07 -0.07,-0.12 -0.14,-0.12 -0.07,0 -0.13,0.05 -0.14,0.12l-0.03 0.18z"/>
   <polygon class="fil39" points="15.33,13.62 20,13.62 20,10.57 17.71,8.8 15.33,10.57 "/>
   <polygon class="fil16" points="15.7,10.19 17.64,8.85 19.71,10.19 19.9,10.49 15.53,10.49 "/>
   <polygon class="fil27" points="15.6,10.49 19.73,10.49 19.73,10.23 15.6,10.23 "/>
   <polygon class="fil22" points="16.48,12.98 16.48,10.99 18.94,10.99 18.94,12.98 "/>
   <path class="fil23" d="M18.87 11.06l0 1.86 -2.32 0 0 -1.86 2.32 0zm0.14 -0.14l0 0 -2.59 0 0 2.13 2.59 0 0 -2.13z"/>
   <polygon class="fil24" points="17.61,11 18.97,12.35 18.97,11.65 18.3,10.98 "/>
   <polygon class="fil24" points="16.46,11.94 17.54,13.02 18.25,13.03 16.51,11.29 "/>
   <polygon class="fil24" points="17,10.98 18.97,12.95 18.96,12.57 17.34,10.95 "/>
   <polygon class="fil24" points="16.43,12.43 17.01,13 17.33,12.95 16.47,12.09 "/>
   <polygon class="fil23" points="17.64,12.96 17.78,12.96 17.78,11 17.64,11 "/>
   <polygon class="fil22" points="20.46,12.77 20.46,10.78 22.92,10.78 22.92,12.77 "/>
   <path class="fil23" d="M22.85 10.85l0 1.85 -2.32 0 0 -1.85 2.32 0zm0.14 -0.14l0 0 -2.6 0 0 2.13 2.6 0 0 -2.13z"/>
   <polygon class="fil24" points="21.59,10.78 22.95,12.14 22.95,11.44 22.27,10.76 "/>
   <polygon class="fil24" points="20.44,11.72 21.52,12.8 22.23,12.81 20.49,11.07 "/>
   <polygon class="fil24" points="20.98,10.77 22.95,12.73 22.94,12.35 21.32,10.74 "/>
   <polygon class="fil24" points="20.41,12.21 20.99,12.79 21.31,12.74 20.45,11.88 "/>
   <polygon class="fil23" points="21.62,12.74 21.76,12.74 21.76,10.79 21.62,10.79 "/>
   <path class="fil31" d="M14.49 10.88l3.15 -2.41 0 0 0 0 3.05 2.33 -0.03 0.04c-0.11,0.15 -0.32,0.18 -0.47,0.06l-2.55 -1.95 -2.64 2.03c-0.15,0.11 -0.36,0.09 -0.48,-0.06l-0.03 -0.04z"/>
   <path class="fil4" d="M0.25 17.24c0.01,0 0.02,-0.01 0.03,-0.01l-0.03 0.01z"/>
   <path class="fil5" d="M27.55 18.83l2.49 0c0.1,-0.12 0.2,-0.26 0.22,-0.42 0.02,-0.15 -0.02,-0.32 -0.12,-0.44 -0.14,-0.15 -0.39,-0.19 -0.57,-0.09 -0.04,0.02 -0.07,0.05 -0.1,0.07 -0.02,-0.09 -0.08,-0.2 -0.16,-0.25 -0.06,-0.03 -0.12,-0.05 -0.18,-0.06 -0.14,-0.01 -0.27,0.03 -0.38,0.11 -0.11,0.08 -0.18,0.2 -0.2,0.33 -0.1,-0.13 -0.27,-0.18 -0.42,-0.13 -0.16,0.04 -0.27,0.19 -0.28,0.35 -0.07,-0.02 -0.15,0.01 -0.21,0.04 -0.07,0.04 -0.12,0.1 -0.14,0.17 -0.03,0.1 0,0.22 0.05,0.32z"/>
   <path class="fil4 str1" d="M2.04 18.24c0.11,-0.08 0.18,-0.18 0.24,-0.29 0.06,-0.11 0.1,-0.22 0.14,-0.34"/>
   <path class="fil4 str1" d="M2.13 18.7c-0.15,-0.49 -0.23,-1.03 -0.22,-1.56"/>
   <path class="fil4 str1" d="M1.91 17.82c-0.03,0.01 -0.07,0 -0.1,-0.02 -0.11,-0.06 -0.21,-0.14 -0.29,-0.23 -0.02,-0.03 -0.05,-0.06 -0.06,-0.1"/>
   <path class="fil4 str1" d="M3.79 18.13c0.05,-0.4 -0.06,-0.82 -0.29,-1.15"/>
   <path class="fil4 str1" d="M3.75 17.44c0.11,-0.16 0.16,-0.36 0.16,-0.55"/>
   <path class="fil4 str1" d="M3.29 17.19c0.1,0.07 0.23,0.1 0.35,0.07"/>
   <path class="fil4 str2" d="M29.45 18.7c0.21,-0.15 0.37,-0.38 0.45,-0.63"/>
   <path class="fil4 str2" d="M28.6 18.74c-0.16,-0.14 -0.28,-0.31 -0.35,-0.51"/>
   <path class="fil4 str2" d="M29.54 18.63c-0.08,-0.08 -0.12,-0.2 -0.11,-0.31"/>
   <path class="fil4 str2" d="M28.09 18.5c0.09,0.06 0.2,0.08 0.29,0.04"/>
   <path class="fil4 str2" d="M29.77 18.37c0.1,0.02 0.2,0 0.28,-0.06"/>
   <path class="fil4 str2" d="M28.33 18.4c0,0.01 0.01,0 0.02,0 0.04,-0.05 0.06,-0.11 0.08,-0.17"/>
   <path class="fil4 str2" d="M29.02 18.42c-0.03,-0.09 -0.05,-0.17 -0.04,-0.26 0,-0.09 0.02,-0.18 0.07,-0.25"/>
   <path class="fil4 str2" d="M28.78 17.92c0.05,0.08 0.1,0.16 0.18,0.22"/>
   <path class="fil4 str1" d="M30.57 18.65c0.16,-0.14 0.28,-0.33 0.35,-0.53"/>
   <path class="fil4 str1" d="M29.3 17.96c-0.06,-0.13 -0.12,-0.26 -0.17,-0.4 -0.04,-0.14 -0.06,-0.29 -0.04,-0.44"/>
   <path class="fil4 str1" d="M30.62 18.54c-0.03,-0.08 -0.06,-0.16 -0.04,-0.24"/>
   <path class="fil4 str1" d="M30.82 18.39c0.11,0 0.22,-0.04 0.31,-0.1"/>
   <path class="fil4 str1" d="M28.78 17.27c0.05,0.05 0.09,0.1 0.14,0.14 0.05,0.04 0.1,0.08 0.17,0.09"/>
   <path class="fil4 str1" d="M29.13 17.33c0.09,-0.03 0.16,-0.1 0.21,-0.19"/>
   <path class="fil4 str1" d="M30.09 17.99c-0.02,-0.18 0.02,-0.36 0.09,-0.51"/>
   <path class="fil4 str1" d="M30.09 17.71c-0.03,-0.02 -0.05,-0.05 -0.07,-0.08 -0.04,-0.07 -0.08,-0.15 -0.07,-0.24"/>
   <path class="fil40" d="M33.07 10.59l-3.77 0c-0.1,-0.22 -0.15,-0.45 -0.07,-0.68 0.08,-0.23 0.29,-0.43 0.53,-0.45 0.34,-0.04 0.67,0.24 1.01,0.17 0.33,-0.07 0.51,-0.44 0.83,-0.57 0.12,-0.05 0.26,-0.06 0.39,-0.05 0.22,0.01 0.45,0.08 0.56,0.26 0.09,0.13 0.1,0.3 0.16,0.44 0.07,0.17 0.21,0.29 0.31,0.44 0.1,0.15 0.17,0.3 0.05,0.44z"/>
   <path class="fil40" d="M13.02 9.11l-4.75 0c-0.05,-0.28 -0.03,-0.61 0.14,-0.84 0.17,-0.23 0.5,-0.35 0.76,-0.23 0.21,0.09 0.35,0.32 0.57,0.39 0.25,0.08 0.5,-0.06 0.71,-0.21 0.21,-0.15 0.43,-0.32 0.69,-0.33 0.21,-0.01 0.42,0.11 0.58,0.26 0.08,0.07 0.16,0.16 0.25,0.22 0.22,0.14 0.5,0.13 0.75,0.19 0.06,0.01 0.12,0.03 0.17,0.07 0.14,0.11 0.15,0.3 0.13,0.48z"/>
   <path class="fil40" d="M16.98 4.9l-3.51 0c-0.09,-0.2 -0.14,-0.41 -0.06,-0.63 0.07,-0.21 0.26,-0.39 0.49,-0.42 0.32,-0.03 0.62,0.23 0.93,0.16 0.31,-0.06 0.48,-0.41 0.77,-0.53 0.12,-0.04 0.25,-0.05 0.37,-0.04 0.2,0.01 0.42,0.07 0.52,0.24 0.08,0.12 0.09,0.28 0.15,0.41 0.07,0.15 0.2,0.27 0.29,0.41 0.09,0.13 0.15,0.27 0.05,0.4z"/>
   <path class="fil40" d="M19.14 3c0,0.02 -0.02,-0.03 -0.02,-0.02l4.02 0c0.07,-0.26 0.11,-0.49 -0.03,-0.72 -0.14,-0.23 -0.42,-0.36 -0.65,-0.26 -0.16,0.06 -0.29,0.22 -0.46,0.22 -0.2,0 -0.34,-0.22 -0.51,-0.33 -0.23,-0.15 -0.54,-0.11 -0.74,0.08 -0.13,0.14 -0.21,0.34 -0.37,0.44 -0.17,0.11 -0.39,0.07 -0.59,0.04 -0.2,-0.02 -0.43,-0.02 -0.56,0.14 -0.1,0.11 -0.04,0.27 -0.09,0.41z"/>
  </g>
 </g>
</svg>
