<?xml version="1.0" encoding="UTF-8"?>
<!DOCTYPE svg PUBLIC "-//W3C//DTD SVG 1.1//EN" "http://www.w3.org/Graphics/SVG/1.1/DTD/svg11.dtd">
<!-- Creator: CorelDRAW 2020 (64-Bit) -->
<svg xmlns="http://www.w3.org/2000/svg" xml:space="preserve" width="800px" height="289px" version="1.1" style="shape-rendering:geometricPrecision; text-rendering:geometricPrecision; image-rendering:optimizeQuality; fill-rule:evenodd; clip-rule:evenodd"
viewBox="0 0 23.43 8.48"
 xmlns:xlink="http://www.w3.org/1999/xlink"
 xmlns:xodm="http://www.corel.com/coreldraw/odm/2003">
 <defs>
  <style type="text/css">
   <![CDATA[
    .str2 {stroke:#008E8A;stroke-width:0.05;stroke-linecap:round;stroke-miterlimit:10}
    .str1 {stroke:#00B3AC;stroke-width:0.05;stroke-linecap:round;stroke-miterlimit:10}
    .str0 {stroke:#00B3AC;stroke-width:0.11;stroke-linecap:round;stroke-miterlimit:10}
    .fil11 {fill:none;fill-rule:nonzero}
    .fil20 {fill:#010C2F}
    .fil13 {fill:#03134F}
    .fil32 {fill:#0F183F}
    .fil39 {fill:#4C99F8}
    .fil33 {fill:#838795}
    .fil35 {fill:#9599AA}
    .fil22 {fill:#A1A7B6}
    .fil38 {fill:#A5B5FF}
    .fil45 {fill:#CFD6E8}
    .fil34 {fill:#DADFF9}
    .fil10 {fill:#008E8A;fill-rule:nonzero}
    .fil12 {fill:#00B3AC;fill-rule:nonzero}
    .fil21 {fill:#030F3F;fill-rule:nonzero}
    .fil31 {fill:#0F183F;fill-rule:nonzero}
    .fil27 {fill:#131D4F;fill-rule:nonzero}
    .fil1 {fill:#334BAE;fill-rule:nonzero}
    .fil17 {fill:#343B56;fill-rule:nonzero}
    .fil18 {fill:#495279;fill-rule:nonzero}
    .fil8 {fill:#4A1486;fill-rule:nonzero}
    .fil28 {fill:#4C99F8;fill-rule:nonzero}
    .fil25 {fill:#505985;fill-rule:nonzero}
    .fil16 {fill:#505B85;fill-rule:nonzero}
    .fil24 {fill:#56628E;fill-rule:nonzero}
    .fil37 {fill:#5A69F7;fill-rule:nonzero}
    .fil4 {fill:#6641A9;fill-rule:nonzero}
    .fil41 {fill:#6D778C;fill-rule:nonzero}
    .fil0 {fill:#829AF9;fill-rule:nonzero}
    .fil15 {fill:#838795;fill-rule:nonzero}
    .fil43 {fill:#8793AC;fill-rule:nonzero}
    .fil14 {fill:#9095A3;fill-rule:nonzero}
    .fil3 {fill:#925EF2;fill-rule:nonzero}
    .fil36 {fill:#A1A7B6;fill-rule:nonzero}
    .fil26 {fill:#A5B5FF;fill-rule:nonzero}
    .fil44 {fill:#AABADB;fill-rule:nonzero}
    .fil40 {fill:#BFC3DB;fill-rule:nonzero}
    .fil23 {fill:#CFD6E8;fill-rule:nonzero}
    .fil19 {fill:#DADFF9;fill-rule:nonzero}
    .fil2 {fill:#DECCFF;fill-rule:nonzero}
    .fil29 {fill:#F2F2F2;fill-rule:nonzero}
    .fil9 {fill:#FFD423;fill-rule:nonzero}
    .fil42 {fill:#FFE15B;fill-rule:nonzero}
    .fil7 {fill:white;fill-rule:nonzero}
    .fil5 {fill:white;fill-rule:nonzero;fill-opacity:0.200000}
    .fil30 {fill:#F2F2F2;fill-rule:nonzero;fill-opacity:0.250980}
    .fil6 {fill:#829AF9;fill-rule:nonzero}
   ]]>
  </style>
 </defs>
 <g id="Слой_x0020_1">
  <metadata id="CorelCorpID_0Corel-Layer"/>
  <path class="fil0" d="M3.27 8.48c-1.16,-0.54 -1.92,-1.37 -2.41,-2.19 -0.58,-0.96 -0.86,-2.06 -0.86,-3.16l0 -1.59c0,-0.32 0.29,-0.42 0.63,-0.58l2.62 -0.96 2.64 0.97c0.37,0.11 0.6,0.34 0.6,0.79l0 1.43c0,1.04 -0.25,2.07 -0.76,2.99 -0.03,0.06 -0.07,0.12 -0.1,0.18 -0.3,0.5 -0.72,1.05 -1.24,1.48 -0.18,0.15 -0.37,0.28 -0.58,0.4 -0.17,0.09 -0.35,0.17 -0.54,0.24z"/>
  <path class="fil1" d="M5.37 1.62l-2.12 -0.78 -2.1 0.77c-0.27,0.13 -0.51,0.21 -0.51,0.46l0 1.28c0,0.88 0.23,1.76 0.69,2.54 0.4,0.65 1,1.32 1.94,1.75 0.85,-0.29 1.5,-1.05 1.89,-1.7 0.46,-0.78 0.69,-1.66 0.69,-2.54l0 -1.15c0,-0.36 -0.19,-0.54 -0.48,-0.63z"/>
  <g id="_1825558137984">
   <path class="fil1" d="M21.83 7.12l-4.76 0.02 -0.02 -3.87 4.76 -0.02c0.16,-0.01 0.29,0.12 0.29,0.28l0.01 3.3c0,0.16 -0.12,0.29 -0.28,0.29z"/>
   <g>
    <path class="fil2" d="M21.91 4.05c-0.22,0.53 -0.84,0.77 -1.36,0.54 -0.53,-0.22 -0.78,-0.83 -0.55,-1.36 0.23,-0.53 0.84,-0.78 1.37,-0.55 0.52,0.23 0.77,0.84 0.54,1.37z"/>
   </g>
   <g>
    <g>
     <path class="fil3" d="M21.73 3.97c-0.18,0.43 -0.68,0.63 -1.11,0.45 -0.43,-0.19 -0.63,-0.69 -0.44,-1.12 0.18,-0.43 0.68,-0.62 1.11,-0.44 0.43,0.18 0.63,0.68 0.44,1.11z"/>
    </g>
    <path class="fil4" d="M21.66 4.1c-0.22,0.34 -0.65,0.48 -1.04,0.32 -0.43,-0.19 -0.63,-0.69 -0.44,-1.12 0.05,-0.11 0.12,-0.22 0.21,-0.3 -0.02,0.04 -0.05,0.09 -0.06,0.13 -0.19,0.43 0.01,0.93 0.44,1.11 0.31,0.14 0.66,0.07 0.89,-0.14z"/>
   </g>
   <path class="fil5" d="M21.03 3.14c-0.01,0.09 0.01,0.18 0.05,0.25 0.06,0.14 0.17,0.25 0.3,0.33 0.04,0.02 0.08,0.04 0.13,0.05 0.13,0.01 0.2,-0.12 0.19,-0.24 0,-0.15 -0.08,-0.3 -0.18,-0.42 -0.08,-0.09 -0.26,-0.23 -0.39,-0.15 -0.06,0.04 -0.09,0.12 -0.1,0.18z"/>
   <g>
    <path class="fil1" d="M21.83 7.62l-4.75 0.03 -0.02 -3.88 4.75 -0.02c0.16,0 0.29,0.12 0.29,0.28l0.01 3.31c0.01,0.15 -0.12,0.28 -0.28,0.28z"/>
   </g>
   <path class="fil6" d="M22.1 4.03l0 0.35c0,-0.16 -0.13,-0.28 -0.28,-0.28l-4.76 0.02 0 -0.35 4.75 -0.02c0.16,0 0.29,0.12 0.29,0.28z"/>
   <path class="fil0" d="M22.18 6.15l-1.65 0.01 -0.01 -0.93 1.66 -0.01c0.08,0 0.15,0.07 0.15,0.16l0.01 0.61c0,0.09 -0.07,0.16 -0.16,0.16z"/>
   <g>
    <path class="fil1" d="M21.21 5.69c0,0.12 -0.1,0.21 -0.22,0.21 -0.11,0 -0.21,-0.09 -0.21,-0.21 0,-0.12 0.09,-0.21 0.21,-0.22 0.12,0 0.22,0.1 0.22,0.22z"/>
    <path class="fil7" d="M20.93 5.6c0.01,0.03 0.03,0.05 0.04,0.07 0.02,0.02 0.04,0.04 0.07,0.06 0.03,0.01 0.07,0 0.09,-0.03 0.01,-0.02 0.01,-0.05 -0.01,-0.07 -0.02,-0.05 -0.06,-0.08 -0.11,-0.1 -0.05,-0.01 -0.09,0.01 -0.08,0.07z"/>
   </g>
   <g>
    <g>
     <path class="fil8" d="M22.93 7.25l-2 0 -0.12 0 0 0.22c0,0.27 0.5,0.5 1.12,0.5 0.62,0 1.12,-0.23 1.12,-0.5l0 -0.22 -0.12 0z"/>
     <path class="fil4" d="M23.05 7.24l0 0.14c0,0.28 -0.5,0.5 -1.12,0.5 -0.62,0 -1.12,-0.22 -1.12,-0.5l0 -0.13c0,-0.03 0,-0.06 0.02,-0.09l2.2 0c0.01,0.02 0.02,0.05 0.02,0.08z"/>
     <g>
      <g>
       <path class="fil2" d="M23.05 7.25c0,0 0,0 0,0.01 -0.01,0.27 -0.51,0.48 -1.12,0.48 -0.62,0 -1.12,-0.22 -1.12,-0.49 0,-0.03 0,-0.06 0.02,-0.09 0.09,-0.23 0.55,-0.41 1.1,-0.41 0.55,0 1.01,0.18 1.1,0.41 0.01,0.02 0.02,0.05 0.02,0.08 0,0 0,0 0,0.01z"/>
      </g>
      <g>
       <g>
        <path class="fil3" d="M22.84 7.25c0,0.22 -0.41,0.4 -0.91,0.4 -0.51,0 -0.91,-0.18 -0.91,-0.4 0,-0.23 0.4,-0.41 0.91,-0.41 0.5,0 0.91,0.18 0.91,0.41z"/>
       </g>
       <path class="fil4" d="M22.82 7.32c-0.07,0.19 -0.44,0.33 -0.89,0.33 -0.51,0 -0.91,-0.18 -0.91,-0.4 0,-0.07 0.03,-0.12 0.08,-0.18 -0.01,0.03 -0.01,0.05 -0.01,0.07 0,0.23 0.41,0.41 0.91,0.41 0.36,0 0.68,-0.1 0.82,-0.23z"/>
      </g>
      <g>
       <g>
        <path class="fil9" d="M22.03 7.4l0 0.08 -0.17 0 0 -0.08c-0.11,-0.01 -0.23,-0.03 -0.31,-0.06l0.09 -0.08c0.09,0.03 0.22,0.06 0.32,0.06 0.06,0 0.11,-0.01 0.11,-0.04 0,-0.06 -0.47,-0.02 -0.47,-0.16 0,-0.06 0.1,-0.1 0.26,-0.11l0 -0.09 0.17 0 0 0.09c0.1,0 0.2,0.02 0.27,0.04l-0.08 0.08c-0.09,-0.03 -0.21,-0.04 -0.28,-0.04 -0.06,0 -0.1,0 -0.1,0.02 0,0.07 0.47,0.03 0.47,0.17 0,0.07 -0.12,0.11 -0.28,0.12z"/>
       </g>
      </g>
      <path class="fil5" d="M21.79 7.02c0.03,0.04 0.09,0.07 0.15,0.1 0.12,0.04 0.28,0.07 0.44,0.08 0.05,0.01 0.1,0.01 0.15,0 0.14,-0.02 0.15,-0.09 0.09,-0.14 -0.07,-0.06 -0.21,-0.12 -0.35,-0.15 -0.12,-0.03 -0.37,-0.05 -0.46,0.01 -0.04,0.02 -0.04,0.06 -0.02,0.1z"/>
     </g>
    </g>
    <path class="fil8" d="M23.31 6.83l-2 0 -0.12 0 0 0.22c0,0.28 0.5,0.5 1.12,0.5 0.61,0 1.12,-0.22 1.12,-0.5l0 -0.22 -0.12 0z"/>
    <path class="fil4" d="M23.43 6.82l0 0.14c0,0.28 -0.51,0.5 -1.12,0.5 -0.62,0 -1.12,-0.22 -1.12,-0.5l0 -0.13c0,-0.03 0,-0.06 0.01,-0.09l2.21 0c0.01,0.03 0.01,0.05 0.02,0.08z"/>
    <g>
     <path class="fil2" d="M23.43 6.83c0,0 0,0 0,0.01 -0.01,0.27 -0.51,0.48 -1.12,0.48 -0.62,0 -1.12,-0.22 -1.12,-0.49 0,-0.03 0,-0.06 0.01,-0.09 0.1,-0.23 0.56,-0.41 1.11,-0.41 0.55,0 1,0.18 1.1,0.41 0.01,0.03 0.01,0.05 0.02,0.08 0,0 0,0.01 0,0.01z"/>
    </g>
    <g>
     <g>
      <path class="fil3" d="M23.22 6.83c0,0.22 -0.41,0.4 -0.91,0.4 -0.51,0 -0.92,-0.18 -0.92,-0.4 0,-0.22 0.41,-0.41 0.92,-0.41 0.5,0 0.91,0.19 0.91,0.41z"/>
     </g>
     <path class="fil4" d="M23.2 6.9c-0.07,0.19 -0.45,0.33 -0.89,0.33 -0.51,0 -0.92,-0.18 -0.92,-0.4 0,-0.06 0.04,-0.12 0.09,-0.17 -0.01,0.02 -0.01,0.04 -0.01,0.07 0,0.22 0.41,0.4 0.91,0.4 0.36,0 0.68,-0.1 0.82,-0.23z"/>
    </g>
    <path class="fil5" d="M22.17 6.6c0.02,0.04 0.08,0.07 0.15,0.1 0.12,0.05 0.28,0.08 0.44,0.08 0.05,0.01 0.1,0.01 0.14,0 0.15,-0.02 0.16,-0.09 0.1,-0.14 -0.07,-0.06 -0.21,-0.12 -0.36,-0.15 -0.12,-0.02 -0.36,-0.05 -0.45,0.01 -0.04,0.03 -0.04,0.07 -0.02,0.1z"/>
   </g>
  </g>
  <g id="_1825558092768">
   <path class="fil10" d="M19.7 8.18l-2.09 0c-0.04,0 -0.08,-0.03 -0.1,-0.06 -0.1,-0.11 -0.18,-0.23 -0.2,-0.38 -0.01,-0.17 0.09,-0.34 0.25,-0.42 0.16,-0.07 0.36,-0.03 0.47,0.1 0,-0.04 0.01,-0.09 0.03,-0.13 0.07,-0.14 0.23,-0.24 0.39,-0.23 0.16,0.01 0.3,0.13 0.33,0.29 0.03,-0.07 0.09,-0.11 0.16,-0.13 0.07,-0.01 0.14,0 0.21,0.02 0.08,0.03 0.15,0.08 0.19,0.14 0.05,0.07 0.07,0.15 0.04,0.23 0.15,-0.03 0.31,0.04 0.39,0.18 0.07,0.14 0.05,0.29 -0.07,0.39z"/>
   <path class="fil11 str0" d="M4.72 7.54c-0.06,-0.16 -0.16,-0.3 -0.3,-0.4 -0.19,-0.14 -0.43,-0.19 -0.64,-0.28 -0.4,-0.18 -0.73,-0.53 -0.87,-0.95 -0.1,-0.26 -0.12,-0.55 -0.14,-0.83"/>
   <path class="fil12" d="M2.24 5.28c-0.04,-0.03 -0.07,-0.06 -0.09,-0.1 -0.03,-0.04 -0.03,-0.1 0,-0.14 0.02,-0.02 0.06,-0.04 0.09,-0.05 0.1,-0.01 0.2,0.04 0.28,0.11 0.06,0.04 0.12,0.1 0.17,0.15 0.04,0.06 0.11,0.14 0.13,0.2 0.04,0.14 -0.29,0 -0.34,-0.02 -0.09,-0.04 -0.17,-0.09 -0.24,-0.15z"/>
   <path class="fil12" d="M3.27 5.7c0.07,-0.07 0.13,-0.16 0.14,-0.26 0,-0.03 0,-0.06 -0.03,-0.08 -0.01,-0.01 -0.02,-0.02 -0.04,-0.02 -0.1,-0.02 -0.21,0.03 -0.28,0.11 -0.07,0.08 -0.11,0.19 -0.14,0.29 -0.03,0.08 -0.06,0.21 0.08,0.16 0.1,-0.04 0.19,-0.12 0.27,-0.2z"/>
   <path class="fil12" d="M2.59 6.18c-0.04,-0.03 -0.08,-0.07 -0.06,-0.11 0.01,-0.03 0.02,-0.04 0.04,-0.05 0.08,-0.04 0.16,-0.01 0.24,0.02 0.05,0.03 0.39,0.21 0.21,0.26 -0.14,0.04 -0.32,-0.03 -0.43,-0.12z"/>
   <path class="fil12" d="M3.45 6.3c0.02,-0.06 0.04,-0.12 0.03,-0.19 -0.01,-0.03 -0.02,-0.06 -0.05,-0.08 -0.03,-0.01 -0.05,-0.01 -0.08,0 -0.02,0.02 -0.04,0.03 -0.06,0.06 -0.04,0.06 -0.06,0.14 -0.06,0.22 0,0.04 0,0.19 0.08,0.17 0.06,-0.01 0.11,-0.13 0.14,-0.18z"/>
   <path class="fil12" d="M3.42 6.83c-0.07,0.03 -0.14,0.05 -0.21,0.03 -0.04,-0.01 -0.07,-0.03 -0.07,-0.06 0,-0.02 0,-0.03 0.01,-0.04 0.02,-0.03 0.06,-0.06 0.1,-0.07 0.07,-0.03 0.16,-0.03 0.23,0 0.04,0.01 0.08,0.02 0.05,0.07 -0.02,0.03 -0.07,0.05 -0.11,0.07z"/>
   <path class="fil10" d="M4.81 5.08c-0.06,-0.05 -0.13,-0.11 -0.14,-0.19 -0.05,-0.21 0.24,-0.4 0.17,-0.61 -0.04,-0.09 -0.14,-0.14 -0.23,-0.18 -0.16,-0.08 -0.33,-0.22 -0.31,-0.4 0.02,-0.22 0.3,-0.34 0.35,-0.55 0.07,-0.28 -0.27,-0.54 -0.17,-0.81 0.03,-0.09 0.11,-0.16 0.2,-0.19 0.09,-0.03 0.19,-0.03 0.29,-0.02 0.15,0.02 0.31,0.07 0.39,0.2 0.08,0.13 0.06,0.33 0.18,0.44 0.14,0.15 0.4,0.1 0.55,0.23 0.13,0.11 0.14,0.3 0.09,0.46 -0.03,0.12 -0.08,0.25 -0.05,0.37 0.03,0.11 0.12,0.18 0.18,0.28 0.08,0.13 0.09,0.29 0.05,0.43 -0.04,0.14 -0.13,0.27 -0.23,0.38 -0.09,0.09 -0.19,0.18 -0.32,0.23 -0.09,0.03 -0.18,0.04 -0.27,0.07 -0.07,0.02 -0.14,0.08 -0.21,0.09 -0.16,0.02 -0.39,-0.14 -0.52,-0.23z"/>
   <path class="fil11 str1" d="M5.52 5.25c0.03,-0.15 0.04,-0.31 0.05,-0.46 0,-0.39 -0.08,-0.78 -0.2,-1.16 -0.12,-0.37 -0.28,-0.73 -0.44,-1.08"/>
   <path class="fil11 str1" d="M5.4 3.71c0.22,-0.16 0.41,-0.35 0.56,-0.57"/>
   <path class="fil11 str1" d="M4.61 3.83c0.26,0.12 0.56,0.17 0.84,0.13"/>
   <path class="fil11 str1" d="M5.56 4.52c0.18,-0.05 0.35,-0.14 0.5,-0.26"/>
   <path class="fil11 str1" d="M5.05 4.79c0.17,0.05 0.35,0.09 0.53,0.08"/>
   <path class="fil12" d="M4.83 7.24c-0.19,-0.33 -0.46,-0.6 -0.72,-0.88 -0.18,-0.19 -0.35,-0.38 -0.47,-0.61 -0.1,-0.21 -0.16,-0.45 -0.17,-0.69 -0.01,-0.24 0.03,-0.49 0.19,-0.67 0.22,-0.25 0.65,-0.25 0.93,-0.06 0.29,0.19 0.46,0.51 0.56,0.84 0.13,0.39 0.17,0.81 0.18,1.23 0.01,0.29 -0.01,0.59 -0.04,0.88 -0.02,0.25 -0.03,0.61 -0.14,0.83 -0.08,-0.09 -0.07,-0.26 -0.1,-0.38 -0.05,-0.17 -0.13,-0.34 -0.22,-0.49z"/>
   <path class="fil11 str2" d="M5.22 6.72c-0.2,-0.12 -0.38,-0.3 -0.51,-0.5 -0.32,-0.49 -0.35,-1.12 -0.65,-1.61"/>
   <path class="fil11 str2" d="M4.27 5.05c0.1,-0.11 0.17,-0.23 0.2,-0.36"/>
   <path class="fil11 str2" d="M3.77 5.35c0.14,0.11 0.33,0.17 0.52,0.16 0.03,0 0.07,-0.01 0.1,0.01"/>
   <path class="fil11 str2" d="M4.58 5.98c0,0.01 0.01,0.01 0.01,0 0.09,-0.05 0.16,-0.12 0.21,-0.21 0.06,-0.08 0.1,-0.17 0.14,-0.27"/>
   <path class="fil11 str2" d="M4.4 6.43c0.16,0.04 0.33,0.05 0.5,0.02"/>
   <path class="fil11 str1" d="M17.28 4.55c-0.17,-0.08 -0.32,-0.19 -0.45,-0.33"/>
   <path class="fil11 str1" d="M17.75 4.88c-0.18,0.03 -0.36,0.05 -0.53,0.01"/>
   <path class="fil10" d="M6.27 8.19l-3.66 0c-0.13,-0.21 -0.14,-0.49 -0.06,-0.73 0.07,-0.21 0.2,-0.41 0.41,-0.49 0.12,-0.05 0.26,-0.05 0.39,-0.01 0.13,0.04 0.24,0.13 0.33,0.23 0.01,-0.17 0.15,-0.33 0.32,-0.36 0.17,-0.03 0.35,0.06 0.43,0.22 0.13,-0.14 0.36,-0.17 0.54,-0.1 0.17,0.08 0.3,0.26 0.3,0.45 0,0.01 0.01,0.03 0.02,0.02 0.1,-0.12 0.23,-0.18 0.39,-0.18 0.16,0.01 0.31,0.1 0.41,0.22 0.11,0.11 0.17,0.26 0.2,0.42 0.02,0.11 0.02,0.21 -0.02,0.31z"/>
   <polygon class="fil13" points="11.77,1.67 12.11,1.67 12.11,1.75 12.09,1.75 12.09,2.22 11.79,2.22 11.79,1.75 11.77,1.75 "/>
   <polygon class="fil14" points="8.07,8.18 18.19,8.18 18.19,6.02 8.07,6.02 "/>
   <polygon class="fil15" points="16.79,7.47 18.19,7.47 18.19,8.18 16.79,8.18 "/>
   <polygon class="fil16" points="15.75,6.46 17.78,6.46 17.78,8.18 15.75,8.18 "/>
   <polygon class="fil17" points="17.49,6.68 17.69,6.68 17.69,6.52 17.49,6.52 "/>
   <polygon class="fil17" points="17.26,6.68 17.46,6.68 17.46,6.52 17.26,6.52 "/>
   <polygon class="fil17" points="17.04,6.68 17.24,6.68 17.24,6.52 17.04,6.52 "/>
   <polygon class="fil17" points="16.82,6.68 17.02,6.68 17.02,6.52 16.82,6.52 "/>
   <polygon class="fil17" points="16.52,6.68 16.72,6.68 16.72,6.52 16.52,6.52 "/>
   <polygon class="fil17" points="16.29,6.68 16.5,6.68 16.5,6.52 16.29,6.52 "/>
   <polygon class="fil17" points="16.07,6.68 16.27,6.68 16.27,6.52 16.07,6.52 "/>
   <polygon class="fil17" points="15.85,6.68 16.05,6.68 16.05,6.52 15.85,6.52 "/>
   <polygon class="fil16" points="16.91,7 16.91,6.82 17.67,6.82 17.67,7 "/>
   <path class="fil18" d="M17.66 6.83l0 0.15 -0.73 0 0 -0.15 0.73 0zm0.03 -0.03l0 0 -0.79 0 0 0.21 0.79 0 0 -0.21z"/>
   <polygon class="fil16" points="15.86,7 15.86,6.82 16.62,6.82 16.62,7 "/>
   <path class="fil18" d="M16.6 6.83l0 0.15 -0.72 0 0 -0.15 0.72 0zm0.04 -0.03l0 0 -0.79 0 0 0.21 0.79 0 0 -0.21z"/>
   <polygon class="fil16" points="16.91,7.35 16.91,7.17 17.67,7.17 17.67,7.35 "/>
   <path class="fil18" d="M17.66 7.19l0 0.15 -0.73 0 0 -0.15 0.73 0zm0.03 -0.03l0 0 -0.79 0 0 0.21 0.79 0 0 -0.21z"/>
   <polygon class="fil16" points="15.86,7.35 15.86,7.17 16.62,7.17 16.62,7.35 "/>
   <path class="fil18" d="M16.6 7.19l0 0.15 -0.72 0 0 -0.15 0.72 0zm0.04 -0.03l0 0 -0.79 0 0 0.21 0.79 0 0 -0.21z"/>
   <polygon class="fil16" points="16.91,7.71 16.91,7.53 17.67,7.53 17.67,7.71 "/>
   <path class="fil18" d="M17.66 7.55l0 0.14 -0.73 0 0 -0.14 0.73 0zm0.03 -0.04l0 0 -0.79 0 0 0.21 0.79 0 0 -0.21z"/>
   <polygon class="fil16" points="15.86,7.71 15.86,7.53 16.62,7.53 16.62,7.71 "/>
   <path class="fil18" d="M16.6 7.55l0 0.14 -0.72 0 0 -0.14 0.72 0zm0.04 -0.04l0 0 -0.79 0 0 0.21 0.79 0 0 -0.21z"/>
   <polygon class="fil16" points="16.91,8.07 16.91,7.89 17.67,7.89 17.67,8.07 "/>
   <path class="fil18" d="M17.66 7.9l0 0.15 -0.73 0 0 -0.15 0.73 0zm0.03 -0.03l0 0 -0.79 0 0 0.21 0.79 0 0 -0.21z"/>
   <polygon class="fil16" points="15.86,8.07 15.86,7.89 16.62,7.89 16.62,8.07 "/>
   <path class="fil18" d="M16.6 7.9l0 0.15 -0.72 0 0 -0.15 0.72 0zm0.04 -0.03l0 0 -0.79 0 0 0.21 0.79 0 0 -0.21z"/>
   <polygon class="fil19" points="15.71,6.37 17.83,6.37 17.83,6.46 15.71,6.46 "/>
   <polygon class="fil19" points="17.78,8.18 17.78,6.37 17.87,6.37 17.87,8.18 "/>
   <polygon class="fil19" points="15.66,8.18 15.66,6.37 15.75,6.37 15.75,8.18 "/>
   <polygon class="fil20" points="15.11,3.59 14.61,2.51 10.1,2.51 9.59,3.59 "/>
   <polygon class="fil20" points="10.22,5.85 9.71,4.77 5.2,4.77 4.7,5.85 "/>
   <polygon class="fil21" points="6.39,3.2 17.11,3.2 18.43,6.02 5.07,6.02 "/>
   <polygon class="fil13" points="16.04,3.2 15.54,2.12 11.03,2.12 10.52,3.2 "/>
   <polygon class="fil22" points="13.34,5.04 15.69,5.04 15.69,3.52 13.22,1.53 12.04,2.45 13.34,3.52 "/>
   <polygon class="fil22" points="15.49,3.29 13.05,3.29 12.04,2.49 13.22,1.53 "/>
   <polygon class="fil23" points="10.32,8.17 16.1,8.17 16.1,6.02 10.32,6.02 "/>
   <polygon class="fil23" points="4.98,8.19 8.5,8.18 8.49,5.82 6.73,4.51 4.97,5.8 "/>
   <polygon class="fil15" points="10.32,7.47 16.1,7.47 16.1,8.18 10.32,8.18 "/>
   <polygon class="fil22" points="6.72,4.45 8.28,5.58 5.26,5.58 "/>
   <polygon class="fil24" points="11.43,6.46 14.98,6.46 14.98,8.18 11.43,8.18 "/>
   <polygon class="fil17" points="14.64,6.68 14.84,6.68 14.84,6.52 14.64,6.52 "/>
   <polygon class="fil17" points="14.42,6.68 14.62,6.68 14.62,6.52 14.42,6.52 "/>
   <polygon class="fil17" points="14.19,6.68 14.39,6.68 14.39,6.52 14.19,6.52 "/>
   <polygon class="fil17" points="13.97,6.68 14.17,6.68 14.17,6.52 13.97,6.52 "/>
   <polygon class="fil17" points="13.41,6.68 13.61,6.68 13.61,6.52 13.41,6.52 "/>
   <polygon class="fil17" points="13.18,6.68 13.38,6.68 13.38,6.52 13.18,6.52 "/>
   <polygon class="fil17" points="12.96,6.68 13.16,6.68 13.16,6.52 12.96,6.52 "/>
   <polygon class="fil17" points="12.73,6.68 12.93,6.68 12.93,6.52 12.73,6.52 "/>
   <polygon class="fil17" points="12.2,6.68 12.4,6.68 12.4,6.52 12.2,6.52 "/>
   <polygon class="fil17" points="11.98,6.68 12.18,6.68 12.18,6.52 11.98,6.52 "/>
   <polygon class="fil17" points="11.75,6.68 11.95,6.68 11.95,6.52 11.75,6.52 "/>
   <polygon class="fil17" points="11.53,6.68 11.73,6.68 11.73,6.52 11.53,6.52 "/>
   <polygon class="fil24" points="14.07,7 14.07,6.82 14.83,6.82 14.83,7 "/>
   <path class="fil25" d="M14.81 6.83l0 0.15 -0.72 0 0 -0.15 0.72 0zm0.03 -0.03l0 0 -0.79 0 0 0.21 0.79 0 0 -0.21z"/>
   <polygon class="fil24" points="13.23,7 13.23,6.82 13.98,6.82 13.98,7 "/>
   <path class="fil25" d="M13.97 6.83l0 0.15 -0.73 0 0 -0.15 0.73 0zm0.03 -0.03l0 0 -0.79 0 0 0.21 0.79 0 0 -0.21z"/>
   <polygon class="fil24" points="12.39,7 12.39,6.82 13.14,6.82 13.14,7 "/>
   <path class="fil25" d="M13.13 6.83l0 0.15 -0.73 0 0 -0.15 0.73 0zm0.03 -0.03l0 0 -0.79 0 0 0.21 0.79 0 0 -0.21z"/>
   <polygon class="fil24" points="11.55,7 11.55,6.82 12.3,6.82 12.3,7 "/>
   <path class="fil25" d="M12.29 6.83l0 0.15 -0.73 0 0 -0.15 0.73 0zm0.03 -0.03l0 0 -0.79 0 0 0.21 0.79 0 0 -0.21z"/>
   <polygon class="fil24" points="14.07,7.35 14.07,7.17 14.83,7.17 14.83,7.35 "/>
   <path class="fil25" d="M14.81 7.19l0 0.15 -0.72 0 0 -0.15 0.72 0zm0.03 -0.03l0 0 -0.79 0 0 0.21 0.79 0 0 -0.21z"/>
   <polygon class="fil24" points="13.23,7.35 13.23,7.17 13.98,7.17 13.98,7.35 "/>
   <path class="fil25" d="M13.97 7.19l0 0.15 -0.73 0 0 -0.15 0.73 0zm0.03 -0.03l0 0 -0.79 0 0 0.21 0.79 0 0 -0.21z"/>
   <polygon class="fil24" points="12.39,7.35 12.39,7.17 13.14,7.17 13.14,7.35 "/>
   <path class="fil25" d="M13.13 7.19l0 0.15 -0.73 0 0 -0.15 0.73 0zm0.03 -0.03l0 0 -0.79 0 0 0.21 0.79 0 0 -0.21z"/>
   <polygon class="fil24" points="11.55,7.35 11.55,7.17 12.3,7.17 12.3,7.35 "/>
   <path class="fil25" d="M12.29 7.19l0 0.15 -0.73 0 0 -0.15 0.73 0zm0.03 -0.03l0 0 -0.79 0 0 0.21 0.79 0 0 -0.21z"/>
   <polygon class="fil24" points="14.07,7.71 14.07,7.53 14.83,7.53 14.83,7.71 "/>
   <path class="fil25" d="M14.81 7.55l0 0.14 -0.72 0 0 -0.14 0.72 0zm0.03 -0.04l0 0 -0.79 0 0 0.21 0.79 0 0 -0.21z"/>
   <polygon class="fil24" points="13.23,7.71 13.23,7.53 13.98,7.53 13.98,7.71 "/>
   <path class="fil25" d="M13.97 7.55l0 0.14 -0.73 0 0 -0.14 0.73 0zm0.03 -0.04l0 0 -0.79 0 0 0.21 0.79 0 0 -0.21z"/>
   <polygon class="fil24" points="12.39,7.71 12.39,7.53 13.14,7.53 13.14,7.71 "/>
   <path class="fil25" d="M13.13 7.55l0 0.14 -0.73 0 0 -0.14 0.73 0zm0.03 -0.04l0 0 -0.79 0 0 0.21 0.79 0 0 -0.21z"/>
   <polygon class="fil24" points="11.55,7.71 11.55,7.53 12.3,7.53 12.3,7.71 "/>
   <path class="fil25" d="M12.29 7.55l0 0.14 -0.73 0 0 -0.14 0.73 0zm0.03 -0.04l0 0 -0.79 0 0 0.21 0.79 0 0 -0.21z"/>
   <polygon class="fil24" points="14.07,8.07 14.07,7.89 14.83,7.89 14.83,8.07 "/>
   <path class="fil25" d="M14.81 7.9l0 0.15 -0.72 0 0 -0.15 0.72 0zm0.03 -0.03l0 0 -0.79 0 0 0.21 0.79 0 0 -0.21z"/>
   <polygon class="fil24" points="13.23,8.07 13.23,7.89 13.98,7.89 13.98,8.07 "/>
   <path class="fil25" d="M13.97 7.9l0 0.15 -0.73 0 0 -0.15 0.73 0zm0.03 -0.03l0 0 -0.79 0 0 0.21 0.79 0 0 -0.21z"/>
   <polygon class="fil24" points="12.39,8.07 12.39,7.89 13.14,7.89 13.14,8.07 "/>
   <path class="fil25" d="M13.13 7.9l0 0.15 -0.73 0 0 -0.15 0.73 0zm0.03 -0.03l0 0 -0.79 0 0 0.21 0.79 0 0 -0.21z"/>
   <polygon class="fil24" points="11.55,8.07 11.55,7.89 12.3,7.89 12.3,8.07 "/>
   <path class="fil25" d="M12.29 7.9l0 0.15 -0.73 0 0 -0.15 0.73 0zm0.03 -0.03l0 0 -0.79 0 0 0.21 0.79 0 0 -0.21z"/>
   <polygon class="fil26" points="11.39,6.37 15.03,6.37 15.03,6.46 11.39,6.46 "/>
   <polygon class="fil26" points="14.98,8.18 14.98,6.37 15.07,6.37 15.07,8.18 "/>
   <polygon class="fil26" points="11.34,8.18 11.34,6.37 11.43,6.37 11.43,8.18 "/>
   <polygon class="fil27" points="9.01,8.18 9.89,8.18 9.89,6.52 9.01,6.52 "/>
   <polygon class="fil19" points="9.89,8.18 9.89,6.48 9.95,6.48 9.95,8.18 "/>
   <polygon class="fil19" points="8.94,8.18 8.94,6.48 9.01,6.48 9.01,8.18 "/>
   <polygon class="fil19" points="9.95,6.52 8.94,6.52 8.94,6.46 9.95,6.46 "/>
   <polygon class="fil28" points="9.15,6.96 9.15,6.61 9.74,6.61 9.74,6.96 "/>
   <path class="fil29" d="M9.72 6.63l0 0.32 -0.55 0 0 -0.32 0.55 0zm0.03 -0.03l0 0 -0.61 0 0 0.38 0.61 0 0 -0.38z"/>
   <polygon class="fil30" points="9.49,6.61 9.74,6.87 9.74,6.73 9.61,6.61 "/>
   <polygon class="fil30" points="9.37,6.61 9.74,6.98 9.74,6.91 9.44,6.6 "/>
   <polygon class="fil30" points="9.41,6.97 9.15,6.72 9.15,6.85 9.28,6.97 "/>
   <polygon class="fil30" points="9.52,6.97 9.15,6.6 9.15,6.68 9.46,6.98 "/>
   <polygon class="fil29" points="9.15,6.8 9.75,6.8 9.75,6.78 9.15,6.78 "/>
   <polygon class="fil29" points="9.44,6.97 9.46,6.97 9.46,6.6 9.44,6.6 "/>
   <path class="fil31" d="M9.72 7.1l0 0.98 -0.19 0 0 -0.98 0.19 0zm0.03 -0.04l0 0 -0.26 0 0 1.05 0.26 0 0 -1.05z"/>
   <path class="fil31" d="M9.37 7.1l0 0.98 -0.2 0 0 -0.98 0.2 0zm0.03 -0.04l0 0 -0.26 0 0 1.05 0.26 0 0 -1.05z"/>
   <path class="fil31" d="M9.07 7.28l0 0 0 0.34 0 -0.34c0,0 0,0 0,0zm0 -0.03l0 0c-0.02,0 -0.03,0.02 -0.03,0.03l0 0.34c0,0.02 0.01,0.03 0.03,0.03 0.02,0 0.03,-0.01 0.03,-0.03l0 -0.34c0,-0.01 -0.01,-0.03 -0.03,-0.03z"/>
   <path class="fil32" d="M9.02 7.38c0,0.02 0.02,0.05 0.05,0.05 0.03,0 0.05,-0.03 0.05,-0.05 0,-0.03 -0.02,-0.06 -0.05,-0.06 -0.03,0 -0.05,0.03 -0.05,0.06z"/>
   <polygon class="fil33" points="5.21,5.7 8.26,5.7 8.26,5.55 5.21,5.55 "/>
   <path class="fil34" d="M16.1 6.19l2.19 0c0.08,0 0.14,-0.06 0.14,-0.14l0 -0.03 -2.33 0 0 0.17z"/>
   <polygon class="fil34" points="8.19,6.19 10.52,6.19 10.52,6.02 8.19,6.02 "/>
   <path class="fil35" d="M10.29 6.28l5.83 0c0.07,0 0.13,-0.06 0.13,-0.13l0 -0.04 -6.09 0 0 0.04c0,0.07 0.06,0.13 0.13,0.13z"/>
   <polygon class="fil28" points="5.88,7.31 5.88,5.92 7.59,5.92 7.59,7.31 "/>
   <path class="fil29" d="M7.55 5.96l0 1.31 -1.63 0 0 -1.31 1.63 0zm0.08 -0.08l0 0 -1.79 0 0 1.47 1.79 0 0 -1.47z"/>
   <polygon class="fil30" points="6.66,5.93 7.6,6.87 7.6,6.38 7.14,5.92 "/>
   <polygon class="fil30" points="5.87,6.58 6.62,7.33 7.11,7.33 5.9,6.13 "/>
   <polygon class="fil30" points="6.24,5.92 7.6,7.28 7.6,7.02 6.48,5.9 "/>
   <polygon class="fil30" points="5.85,6.92 6.25,7.31 6.47,7.28 5.88,6.69 "/>
   <polygon class="fil29" points="6.69,7.28 6.78,7.28 6.78,5.93 6.69,5.93 "/>
   <polygon class="fil13" points="16.25,6.12 15.97,5.04 10.44,5.04 10.16,6.12 "/>
   <polygon class="fil36" points="8.04,5.43 8.5,5.75 8.5,8.02 8.04,8.02 "/>
   <polygon class="fil15" points="8.04,7.48 8.5,7.48 8.5,8.18 8.04,8.18 "/>
   <polygon class="fil36" points="5.44,5.44 4.98,5.76 4.98,8.03 5.44,8.03 "/>
   <polygon class="fil15" points="5.44,7.49 4.98,7.49 4.98,8.19 5.44,8.19 "/>
   <path class="fil12" d="M6.02 8.19l-2.1 0c-0.06,-0.04 -0.1,-0.11 -0.12,-0.17 -0.02,-0.07 -0.04,-0.14 -0.03,-0.21 0.01,-0.11 0.09,-0.2 0.19,-0.23 0.11,-0.03 0.23,0 0.3,0.08 -0.02,-0.07 0,-0.14 0.02,-0.2 0.07,-0.14 0.22,-0.24 0.37,-0.25 0.16,0 0.31,0.09 0.39,0.22 0.07,-0.13 0.2,-0.21 0.35,-0.2 0.14,0.01 0.27,0.13 0.29,0.27 0.11,-0.06 0.23,-0.04 0.32,0.04 0.09,0.08 0.13,0.2 0.12,0.32 0,0.12 -0.04,0.23 -0.1,0.33z"/>
   <path class="fil11 str2" d="M4.84 8.04c-0.14,-0.17 -0.23,-0.38 -0.24,-0.59"/>
   <path class="fil11 str2" d="M4.8 7.41c-0.02,0.09 -0.08,0.18 -0.16,0.24"/>
   <path class="fil11 str2" d="M4.53 7.86c0.05,0.01 0.11,0.01 0.17,-0.01"/>
   <path class="fil11 str2" d="M5.64 8.06c0.13,-0.13 0.21,-0.29 0.23,-0.47"/>
   <path class="fil11 str2" d="M5.72 7.97c-0.01,0 -0.01,0 -0.01,0 -0.06,-0.06 -0.07,-0.14 -0.09,-0.22"/>
   <path class="fil11 str2" d="M5.84 7.8c0.04,0 0.09,-0.02 0.11,-0.06"/>
   <path class="fil11 str2" d="M5.24 7.84c0.04,-0.11 0.06,-0.23 0.06,-0.35"/>
   <path class="fil11 str2" d="M4.27 8.08c-0.1,-0.07 -0.19,-0.16 -0.25,-0.26"/>
   <path class="fil11 str2" d="M5.25 7.71c-0.04,-0.03 -0.07,-0.08 -0.07,-0.13"/>
   <path class="fil11 str2" d="M4.13 7.95c0.02,-0.05 0.02,-0.11 0.01,-0.17"/>
   <path class="fil11 str2" d="M5.31 7.59c0.04,-0.02 0.08,-0.06 0.1,-0.1"/>
   <path class="fil11 str2" d="M4.08 8.08c0.04,0.01 0.09,0 0.12,-0.02"/>
   <path class="fil37" d="M4.7 5.85l2.03 -1.57 0 0.01 0.01 -0.01 2.03 1.57 -0.01 0.02c-0.07,0.08 -0.19,0.1 -0.27,0.03l-1.76 -1.34 -1.75 1.34c-0.08,0.07 -0.2,0.05 -0.27,-0.03l-0.01 -0.02z"/>
   <path class="fil38" d="M6.58 5.39c-0.02,0 -0.03,-0.01 -0.03,-0.03l0 -0.41c0,-0.02 0.01,-0.04 0.03,-0.04l0.31 0c0.02,0 0.03,0.02 0.03,0.04l0 0.41c0,0.02 -0.01,0.03 -0.03,0.03l-0.31 0z"/>
   <path class="fil19" d="M6.89 4.93c0.01,0 0.02,0.01 0.02,0.02l0 0.41c0,0.01 -0.01,0.01 -0.02,0.01l-0.31 0c0,0 -0.01,0 -0.01,-0.01l0 -0.41c0,-0.01 0.01,-0.02 0.01,-0.02l0.31 0zm0 -0.04l0 0 -0.31 0c-0.03,0 -0.05,0.03 -0.05,0.06l0 0.41c0,0.03 0.02,0.05 0.05,0.05l0.31 0c0.03,0 0.05,-0.02 0.05,-0.05l0 -0.41c0,-0.03 -0.02,-0.06 -0.05,-0.06z"/>
   <polygon class="fil33" points="13.06,3.3 15.44,3.3 15.44,3.15 13.06,3.15 "/>
   <path class="fil37" d="M11.17 2.97l2.04 -1.56 0 0 0 0 2.96 2.27 -0.02 0.03c-0.06,0.08 -0.17,0.1 -0.25,0.04l-2.69 -2.07 -1.91 1.46 -0.13 -0.17z"/>
   <path class="fil38" d="M13.07 2.79c-0.06,0 -0.11,-0.04 -0.11,-0.1l0 -0.4c0,-0.06 0.05,-0.1 0.11,-0.1l0.26 0c0.06,0 0.11,0.04 0.11,0.1l0 0.4c0,0.06 -0.05,0.1 -0.11,0.1l-0.26 0z"/>
   <path class="fil19" d="M13.33 2.21c0.05,0 0.09,0.03 0.09,0.08l0 0.4c0,0.04 -0.04,0.08 -0.09,0.08l-0.26 0c-0.05,0 -0.09,-0.04 -0.09,-0.08l0 -0.4c0,-0.05 0.04,-0.08 0.09,-0.08l0.26 0zm0 -0.04l0 0 -0.26 0c-0.07,0 -0.13,0.05 -0.13,0.12l0 0.4c0,0.07 0.06,0.12 0.13,0.12l0.26 0c0.07,0 0.12,-0.05 0.12,-0.12l0 -0.4c0,-0.07 -0.05,-0.12 -0.12,-0.12z"/>
   <polygon class="fil39" points="8.66,7.61 8.66,6.54 8.83,6.54 8.83,7.61 "/>
   <path class="fil29" d="M8.81 6.56l0 1.03 -0.13 0 0 -1.03 0.13 0zm0.03 -0.03l0 0 -0.19 0 0 1.09 0.19 0 0 -1.09z"/>
   <polygon class="fil30" points="8.66,6.53 8.83,6.71 8.83,6.62 8.75,6.53 "/>
   <polygon class="fil30" points="8.65,6.6 8.84,6.78 8.83,6.73 8.66,6.56 "/>
   <polygon class="fil30" points="8.66,6.94 8.83,7.11 8.83,7.02 8.67,6.85 "/>
   <polygon class="fil30" points="8.65,7.01 8.84,7.19 8.83,7.14 8.66,6.96 "/>
   <polygon class="fil30" points="8.66,7.37 8.83,7.54 8.83,7.45 8.67,7.29 "/>
   <polygon class="fil30" points="8.65,7.44 8.84,7.62 8.83,7.57 8.66,7.4 "/>
   <polygon class="fil39" points="10.05,7.61 10.05,6.54 10.22,6.54 10.22,7.61 "/>
   <path class="fil29" d="M10.21 6.56l0 1.03 -0.14 0 0 -1.03 0.14 0zm0.02 -0.03l0 0 -0.19 0 0 1.09 0.19 0 0 -1.09z"/>
   <polygon class="fil30" points="10.05,6.53 10.23,6.71 10.23,6.62 10.14,6.53 "/>
   <polygon class="fil30" points="10.05,6.6 10.23,6.78 10.23,6.73 10.05,6.56 "/>
   <polygon class="fil30" points="10.05,6.94 10.23,7.11 10.23,7.02 10.06,6.85 "/>
   <polygon class="fil30" points="10.05,7.01 10.23,7.19 10.23,7.14 10.05,6.96 "/>
   <polygon class="fil30" points="10.05,7.37 10.23,7.54 10.23,7.45 10.06,7.29 "/>
   <polygon class="fil30" points="10.05,7.44 10.23,7.62 10.23,7.57 10.05,7.4 "/>
   <path class="fil40" d="M11.22 7.15l0 0.17 -0.74 0 0 -0.17 0.74 0zm0.03 -0.03l0 0 -0.8 0 0 0.23 0.8 0 0 -0.23z"/>
   <path class="fil41" d="M10.8 6.55c0,0.03 0.02,0.05 0.05,0.05 0.02,0 0.04,-0.02 0.04,-0.05 0,-0.02 -0.02,-0.04 -0.04,-0.04 -0.03,0 -0.05,0.02 -0.05,0.04z"/>
   <path class="fil42" d="M10.85 6.79c0.03,0 0.05,-0.03 0.05,-0.05l0 -0.01 -0.11 0 0 0.01c0,0.02 0.03,0.05 0.06,0.05z"/>
   <path class="fil43" d="M10.82 6.62l0.05 0 0 -0.09c0,-0.02 -0.01,-0.03 -0.02,-0.03 -0.02,0 -0.03,0.01 -0.03,0.03l0 0.09z"/>
   <path class="fil44" d="M10.75 6.74l0.2 0 -0.02 -0.1c-0.01,-0.04 -0.04,-0.07 -0.08,-0.07 -0.04,0 -0.08,0.03 -0.08,0.07l-0.02 0.1z"/>
   <path class="fil41" d="M9.4 6.32c0,0.02 0.02,0.04 0.04,0.04 0.03,0 0.05,-0.02 0.05,-0.04 0,-0.02 -0.02,-0.04 -0.05,-0.04 -0.02,0 -0.04,0.02 -0.04,0.04z"/>
   <path class="fil42" d="M9.45 6.55c0.03,0 0.05,-0.02 0.05,-0.05l0 0 -0.11 0 0 0c0,0.03 0.03,0.05 0.06,0.05z"/>
   <path class="fil43" d="M9.42 6.38l0.05 0 0 -0.09c0,-0.01 -0.01,-0.02 -0.03,-0.02 -0.01,0 -0.02,0.01 -0.02,0.02l0 0.09z"/>
   <path class="fil44" d="M9.35 6.51l0.19 0 -0.01 -0.1c-0.01,-0.04 -0.04,-0.07 -0.08,-0.07 -0.04,0 -0.08,0.03 -0.08,0.07l-0.02 0.1z"/>
   <path class="fil41" d="M15.51 6.55c0,0.03 0.02,0.05 0.05,0.05 0.02,0 0.04,-0.02 0.04,-0.05 0,-0.02 -0.02,-0.04 -0.04,-0.04 -0.03,0 -0.05,0.02 -0.05,0.04z"/>
   <path class="fil42" d="M15.56 6.79c0.03,0 0.05,-0.03 0.05,-0.05l0 -0.01 -0.1 0 0 0.01c0,0.02 0.02,0.05 0.05,0.05z"/>
   <path class="fil43" d="M15.53 6.62l0.05 0 0 -0.09c0,-0.02 -0.01,-0.03 -0.02,-0.03 -0.02,0 -0.03,0.01 -0.03,0.03l0 0.09z"/>
   <path class="fil44" d="M15.46 6.74l0.2 0 -0.02 -0.1c-0.01,-0.04 -0.04,-0.07 -0.08,-0.07 -0.04,0 -0.08,0.03 -0.08,0.07l-0.02 0.1z"/>
   <polygon class="fil45" points="10.7,5.24 13.34,5.24 13.34,3.52 12.04,2.51 10.7,3.52 "/>
   <polygon class="fil22" points="10.91,3.3 12,2.54 13.17,3.3 13.28,3.47 10.81,3.47 "/>
   <polygon class="fil33" points="10.85,3.47 13.18,3.47 13.18,3.32 10.85,3.32 "/>
   <polygon class="fil28" points="11.35,4.88 11.35,3.75 12.74,3.75 12.74,4.88 "/>
   <path class="fil29" d="M12.7 3.79l0 1.05 -1.31 0 0 -1.05 1.31 0zm0.08 -0.07l0 0 -1.47 0 0 1.2 1.47 0 0 -1.2z"/>
   <polygon class="fil30" points="11.99,3.76 12.75,4.52 12.75,4.13 12.37,3.75 "/>
   <polygon class="fil30" points="11.34,4.29 11.95,4.9 12.35,4.9 11.37,3.92 "/>
   <polygon class="fil30" points="11.64,3.75 12.75,4.86 12.75,4.65 11.84,3.73 "/>
   <polygon class="fil30" points="11.32,4.57 11.65,4.89 11.83,4.86 11.34,4.38 "/>
   <polygon class="fil29" points="12.01,4.87 12.08,4.87 12.08,3.76 12.01,3.76 "/>
   <polygon class="fil28" points="13.6,4.76 13.6,3.63 14.99,3.63 14.99,4.76 "/>
   <path class="fil29" d="M14.95 3.67l0 1.05 -1.31 0 0 -1.05 1.31 0zm0.08 -0.08l0 0 -1.47 0 0 1.21 1.47 0 0 -1.21z"/>
   <polygon class="fil30" points="14.24,3.64 15,4.4 15,4.01 14.62,3.63 "/>
   <polygon class="fil30" points="13.59,4.17 14.2,4.78 14.6,4.78 13.61,3.8 "/>
   <polygon class="fil30" points="13.89,3.63 15,4.74 15,4.52 14.08,3.61 "/>
   <polygon class="fil30" points="13.57,4.44 13.9,4.77 14.08,4.74 13.59,4.26 "/>
   <polygon class="fil29" points="14.25,4.74 14.33,4.74 14.33,3.64 14.25,3.64 "/>
   <path class="fil37" d="M10.23 3.69l1.78 -1.36 0 0 0 0 1.72 1.32 -0.02 0.02c-0.06,0.08 -0.18,0.1 -0.26,0.03l-1.44 -1.1 -1.5 1.15c-0.08,0.06 -0.2,0.05 -0.27,-0.04l-0.01 -0.02z"/>
   <path class="fil11" d="M2.18 7.28c0.01,0 0.01,0 0.01,0l-0.01 0z"/>
   <path class="fil12" d="M17.6 8.18l1.41 0c0.06,-0.06 0.11,-0.14 0.12,-0.23 0.02,-0.09 0,-0.18 -0.06,-0.25 -0.08,-0.09 -0.22,-0.11 -0.33,-0.05 -0.02,0.01 -0.03,0.02 -0.05,0.04 -0.01,-0.06 -0.05,-0.12 -0.09,-0.15 -0.03,-0.01 -0.07,-0.02 -0.1,-0.03 -0.08,-0.01 -0.16,0.02 -0.22,0.06 -0.06,0.05 -0.1,0.12 -0.11,0.19 -0.05,-0.07 -0.15,-0.1 -0.24,-0.08 -0.09,0.03 -0.15,0.12 -0.16,0.21 -0.04,-0.02 -0.08,0 -0.12,0.02 -0.03,0.02 -0.06,0.05 -0.08,0.09 -0.01,0.06 0.01,0.13 0.03,0.18z"/>
   <path class="fil11 str1" d="M3.19 7.85c0.06,-0.04 0.1,-0.1 0.14,-0.16 0.03,-0.06 0.05,-0.13 0.08,-0.2"/>
   <path class="fil11 str1" d="M3.24 8.11c-0.09,-0.28 -0.13,-0.58 -0.13,-0.88"/>
   <path class="fil11 str1" d="M3.12 7.61c-0.02,0.01 -0.04,0 -0.06,-0.01 -0.06,-0.03 -0.12,-0.08 -0.16,-0.13 -0.02,-0.01 -0.03,-0.03 -0.04,-0.05"/>
   <path class="fil11 str1" d="M4.18 7.79c0.03,-0.23 -0.03,-0.47 -0.17,-0.65"/>
   <path class="fil11 str1" d="M4.16 7.4c0.06,-0.09 0.09,-0.2 0.09,-0.31"/>
   <path class="fil11 str1" d="M3.9 7.26c0.05,0.04 0.13,0.05 0.2,0.04"/>
  </g>
 </g>
</svg>
