<?xml version="1.0" encoding="UTF-8"?>
<!DOCTYPE svg PUBLIC "-//W3C//DTD SVG 1.1//EN" "http://www.w3.org/Graphics/SVG/1.1/DTD/svg11.dtd">
<!-- Creator: CorelDRAW 2020 (64-Bit) -->
<svg xmlns="http://www.w3.org/2000/svg" xml:space="preserve" width="375px" height="133px" version="1.1" style="shape-rendering:geometricPrecision; text-rendering:geometricPrecision; image-rendering:optimizeQuality; fill-rule:evenodd; clip-rule:evenodd"
viewBox="0 0 21.11 7.47"
 xmlns:xlink="http://www.w3.org/1999/xlink"
 xmlns:xodm="http://www.corel.com/coreldraw/odm/2003">
 <defs>
  <style type="text/css">
   <![CDATA[
    .str4 {stroke:#F4F6FE;stroke-width:0.04;stroke-miterlimit:10}
    .str5 {stroke:#F4F6FE;stroke-width:0.03;stroke-miterlimit:10}
    .str3 {stroke:white;stroke-width:0.03;stroke-miterlimit:10}
    .str2 {stroke:#008E8A;stroke-width:0.02;stroke-linecap:round;stroke-miterlimit:10}
    .str1 {stroke:#00B3AC;stroke-width:0.02;stroke-linecap:round;stroke-miterlimit:10}
    .str0 {stroke:#00B3AC;stroke-width:0.04;stroke-linecap:round;stroke-miterlimit:10}
    .fil47 {fill:none}
    .fil2 {fill:none;fill-rule:nonzero}
    .fil12 {fill:#010C2F}
    .fil5 {fill:#03134F}
    .fil24 {fill:#0F183F}
    .fil31 {fill:#4C99F8}
    .fil25 {fill:#838795}
    .fil27 {fill:#9599AA}
    .fil14 {fill:#A1A7B6}
    .fil30 {fill:#A5B5FF}
    .fil37 {fill:#CFD6E8}
    .fil26 {fill:#DADFF9}
    .fil0 {fill:#F4F6FE}
    .fil4 {fill:#008E8A;fill-rule:nonzero}
    .fil3 {fill:#00B3AC;fill-rule:nonzero}
    .fil13 {fill:#030F3F;fill-rule:nonzero}
    .fil23 {fill:#0F183F;fill-rule:nonzero}
    .fil19 {fill:#131D4F;fill-rule:nonzero}
    .fil9 {fill:#343B56;fill-rule:nonzero}
    .fil10 {fill:#495279;fill-rule:nonzero}
    .fil20 {fill:#4C99F8;fill-rule:nonzero}
    .fil17 {fill:#505985;fill-rule:nonzero}
    .fil8 {fill:#505B85;fill-rule:nonzero}
    .fil16 {fill:#56628E;fill-rule:nonzero}
    .fil29 {fill:#5A69F7;fill-rule:nonzero}
    .fil33 {fill:#6D778C;fill-rule:nonzero}
    .fil42 {fill:#6EE0D2;fill-rule:nonzero}
    .fil41 {fill:#7478F5;fill-rule:nonzero}
    .fil7 {fill:#838795;fill-rule:nonzero}
    .fil35 {fill:#8793AC;fill-rule:nonzero}
    .fil6 {fill:#9095A3;fill-rule:nonzero}
    .fil28 {fill:#A1A7B6;fill-rule:nonzero}
    .fil18 {fill:#A5B5FF;fill-rule:nonzero}
    .fil36 {fill:#AABADB;fill-rule:nonzero}
    .fil32 {fill:#BFC3DB;fill-rule:nonzero}
    .fil15 {fill:#CFD6E8;fill-rule:nonzero}
    .fil11 {fill:#DADFF9;fill-rule:nonzero}
    .fil1 {fill:#DCEAFF;fill-rule:nonzero}
    .fil21 {fill:#F2F2F2;fill-rule:nonzero}
    .fil44 {fill:#F4F6FE;fill-rule:nonzero}
    .fil40 {fill:#F67F4B;fill-rule:nonzero}
    .fil34 {fill:#FFE15B;fill-rule:nonzero}
    .fil38 {fill:white;fill-rule:nonzero}
    .fil22 {fill:#F2F2F2;fill-rule:nonzero;fill-opacity:0.250980}
    .fil39 {fill:#DCEAFF;fill-rule:nonzero;fill-opacity:0.701961}
    .fil46 {fill:url(#id1);fill-rule:nonzero}
    .fil43 {fill:url(#id2);fill-rule:nonzero}
    .fil45 {fill:url(#id3);fill-rule:nonzero}
   ]]>
  </style>
   <clipPath id="id0">
    <path d="M0 0l21.11 0 0 7.47 -21.11 0 0 -7.47z"/>
   </clipPath>
  <linearGradient id="id1" gradientUnits="userSpaceOnUse" x1="24.18" y1="5.06" x2="18.35" y2="7.05">
   <stop offset="0" style="stop-opacity:1; stop-color:#00A9C7"/>
   <stop offset="1" style="stop-opacity:1; stop-color:#8C5CE6"/>
  </linearGradient>
  <linearGradient id="id2" gradientUnits="userSpaceOnUse" xlink:href="#id1" x1="26.6" y1="12.73" x2="19.92" y2="15.01">
  </linearGradient>
  <linearGradient id="id3" gradientUnits="userSpaceOnUse" xlink:href="#id1" x1="11" y1="6.09" x2="18.47" y2="3.65">
  </linearGradient>
 </defs>
 <g id="Слой_x0020_1">
  <metadata id="CorelCorpID_0Corel-Layer"/>
  <polygon class="fil0" points="0,0 21.11,0 21.11,7.47 0,7.47 "/>
  <g style="clip-path:url(#id0)">
   <g id="_2657005533088">
    <path id="1" class="fil1" d="M21.18 6.24l-9.41 0c-0.9,-0.82 -0.38,-1.27 0.09,-1.65 0.1,-0.2 0.07,-0.45 -0.01,-0.67 0.29,-1.92 1.42,-1.46 2.24,-1.68 0.95,-0.27 1.59,-1.02 2.44,-1.19 1.02,-0.19 1.64,0.6 2.44,1.03 0.49,0.26 0.73,0.17 1.25,0.36 0.6,0.23 0.99,0.84 0.87,1.4 -0.05,0.23 -0.17,0.42 -0.25,0.64 -0.08,0.21 -0.11,0.46 0.01,0.68 0.07,0.13 0.2,0.24 0.29,0.37 0.15,0.23 0.19,0.51 0.04,0.71z"/>
    <path class="fil2 str0" d="M21.05 5.93c0.04,-0.09 0.12,-0.17 0.21,-0.22 0.13,-0.06 0.28,-0.08 0.41,-0.12 0.26,-0.07 0.48,-0.26 0.6,-0.5 0.08,-0.15 0.12,-0.32 0.15,-0.49"/>
    <path class="fil3" d="M22.73 4.76c0.02,-0.01 0.05,-0.03 0.06,-0.05 0.02,-0.03 0.03,-0.06 0.01,-0.08 -0.01,-0.02 -0.03,-0.04 -0.05,-0.04 -0.06,-0.02 -0.12,0 -0.18,0.04 -0.04,0.02 -0.08,0.05 -0.11,0.08 -0.03,0.03 -0.08,0.07 -0.1,0.11 -0.03,0.08 0.18,0.02 0.21,0.01 0.06,-0.02 0.11,-0.04 0.16,-0.07z"/>
    <path class="fil3" d="M22.07 4.93c-0.03,-0.04 -0.07,-0.1 -0.06,-0.16 0,-0.02 0,-0.04 0.02,-0.05 0.01,-0.01 0.02,-0.01 0.03,-0.01 0.06,-0.01 0.12,0.04 0.16,0.09 0.04,0.06 0.05,0.12 0.06,0.19 0.01,0.05 0.02,0.13 -0.06,0.09 -0.06,-0.03 -0.11,-0.09 -0.15,-0.15z"/>
    <path class="fil3" d="M22.45 5.28c0.02,-0.02 0.05,-0.04 0.04,-0.07 0,-0.01 -0.01,-0.02 -0.02,-0.03 -0.04,-0.03 -0.1,-0.02 -0.15,0 -0.03,0.01 -0.25,0.09 -0.15,0.13 0.09,0.04 0.2,0.01 0.28,-0.03z"/>
    <path class="fil3" d="M21.92 5.28c-0.01,-0.04 -0.02,-0.08 -0.01,-0.11 0.01,-0.02 0.02,-0.04 0.04,-0.05 0.01,0 0.03,0 0.05,0.01 0.01,0.01 0.02,0.02 0.03,0.03 0.02,0.05 0.02,0.1 0.02,0.14 -0.01,0.03 -0.02,0.12 -0.06,0.1 -0.04,-0.01 -0.06,-0.09 -0.07,-0.12z"/>
    <path class="fil3" d="M21.89 5.6c0.04,0.03 0.08,0.05 0.13,0.04 0.02,0 0.04,-0.01 0.04,-0.03 0.01,-0.01 0,-0.02 0,-0.03 -0.01,-0.02 -0.03,-0.03 -0.05,-0.05 -0.05,-0.02 -0.1,-0.02 -0.15,-0.02 -0.02,0.01 -0.04,0.01 -0.03,0.04 0.01,0.02 0.04,0.04 0.06,0.05z"/>
    <path class="fil4" d="M22.15 6.24l-1.28 0c-0.02,-0.01 -0.04,-0.02 -0.06,-0.04 -0.06,-0.07 -0.11,-0.14 -0.12,-0.23 -0.01,-0.11 0.06,-0.21 0.15,-0.26 0.1,-0.04 0.22,-0.01 0.29,0.06 0,-0.02 0.01,-0.05 0.02,-0.08 0.04,-0.08 0.14,-0.14 0.23,-0.14 0.1,0.01 0.19,0.08 0.21,0.18 0.01,-0.04 0.05,-0.07 0.09,-0.08 0.05,-0.01 0.09,0 0.13,0.01 0.05,0.02 0.09,0.05 0.12,0.09 0.03,0.04 0.04,0.09 0.03,0.14 0.09,-0.02 0.19,0.02 0.23,0.11 0.04,0.08 0.03,0.17 -0.04,0.24z"/>
    <path class="fil2 str0" d="M13.01 5.84c-0.04,-0.09 -0.1,-0.18 -0.19,-0.24 -0.11,-0.08 -0.26,-0.11 -0.39,-0.17 -0.25,-0.11 -0.44,-0.32 -0.53,-0.58 -0.06,-0.16 -0.07,-0.33 -0.09,-0.5"/>
    <path class="fil3" d="M11.49 4.47c-0.02,-0.02 -0.04,-0.04 -0.06,-0.07 -0.01,-0.02 -0.01,-0.05 0.01,-0.08 0.01,-0.02 0.03,-0.02 0.05,-0.03 0.06,-0.01 0.13,0.02 0.17,0.06 0.04,0.03 0.07,0.06 0.1,0.1 0.03,0.03 0.08,0.08 0.09,0.12 0.02,0.09 -0.18,0 -0.21,-0.01 -0.06,-0.03 -0.1,-0.06 -0.15,-0.09z"/>
    <path class="fil3" d="M12.12 4.72c0.04,-0.04 0.08,-0.09 0.09,-0.15 0,-0.02 -0.01,-0.05 -0.02,-0.06 -0.01,0 -0.02,-0.01 -0.03,-0.01 -0.06,-0.01 -0.13,0.02 -0.17,0.07 -0.04,0.05 -0.07,0.11 -0.08,0.18 -0.02,0.05 -0.04,0.13 0.04,0.1 0.07,-0.03 0.12,-0.08 0.17,-0.13z"/>
    <path class="fil3" d="M11.7 5.02c-0.02,-0.02 -0.04,-0.05 -0.03,-0.07 0,-0.02 0.01,-0.03 0.03,-0.03 0.04,-0.03 0.09,-0.01 0.14,0.01 0.03,0.02 0.24,0.13 0.13,0.16 -0.09,0.02 -0.2,-0.02 -0.27,-0.07z"/>
    <path class="fil3" d="M12.23 5.09c0.01,-0.04 0.03,-0.08 0.02,-0.12 -0.01,-0.02 -0.02,-0.03 -0.03,-0.04 -0.02,-0.01 -0.04,-0.01 -0.05,0 -0.01,0 -0.03,0.01 -0.04,0.03 -0.02,0.04 -0.03,0.08 -0.03,0.13 0,0.03 0,0.12 0.04,0.11 0.04,-0.01 0.07,-0.08 0.09,-0.11z"/>
    <path class="fil3" d="M12.21 5.41c-0.04,0.02 -0.08,0.03 -0.13,0.02 -0.02,0 -0.04,-0.02 -0.04,-0.04 0,-0.01 0,-0.01 0.01,-0.02 0.01,-0.02 0.03,-0.03 0.06,-0.04 0.04,-0.02 0.09,-0.02 0.14,0 0.02,0 0.05,0.01 0.03,0.04 -0.01,0.02 -0.04,0.03 -0.07,0.04z"/>
    <path class="fil4" d="M13.06 4.34c-0.04,-0.03 -0.08,-0.06 -0.09,-0.11 -0.03,-0.13 0.15,-0.25 0.11,-0.37 -0.03,-0.06 -0.09,-0.09 -0.14,-0.12 -0.1,-0.05 -0.2,-0.13 -0.19,-0.24 0.01,-0.13 0.18,-0.2 0.22,-0.34 0.04,-0.16 -0.17,-0.33 -0.11,-0.49 0.02,-0.05 0.07,-0.09 0.12,-0.11 0.06,-0.02 0.12,-0.02 0.18,-0.02 0.09,0.01 0.18,0.05 0.23,0.12 0.06,0.09 0.05,0.2 0.11,0.28 0.09,0.09 0.25,0.05 0.34,0.13 0.08,0.07 0.08,0.19 0.06,0.29 -0.02,0.07 -0.05,0.15 -0.03,0.22 0.01,0.07 0.07,0.11 0.11,0.17 0.04,0.08 0.05,0.18 0.02,0.26 -0.02,0.09 -0.07,0.17 -0.13,0.23 -0.06,0.06 -0.12,0.12 -0.2,0.14 -0.05,0.02 -0.11,0.03 -0.16,0.05 -0.05,0.01 -0.09,0.05 -0.13,0.05 -0.1,0.01 -0.24,-0.08 -0.32,-0.14z"/>
    <path class="fil2 str1" d="M13.49 4.45c0.02,-0.1 0.03,-0.19 0.03,-0.28 0,-0.24 -0.05,-0.48 -0.12,-0.71 -0.07,-0.23 -0.17,-0.44 -0.27,-0.66"/>
    <path class="fil2 str1" d="M13.42 3.51c0.13,-0.1 0.25,-0.22 0.34,-0.35"/>
    <path class="fil2 str1" d="M12.94 3.58c0.16,0.07 0.34,0.1 0.51,0.08"/>
    <path class="fil2 str1" d="M13.52 4c0.11,-0.03 0.21,-0.08 0.3,-0.15"/>
    <path class="fil2 str1" d="M13.21 4.17c0.1,0.02 0.21,0.05 0.32,0.04"/>
    <path class="fil3" d="M13.07 5.66c-0.12,-0.2 -0.28,-0.37 -0.44,-0.54 -0.11,-0.11 -0.21,-0.23 -0.28,-0.37 -0.07,-0.13 -0.1,-0.27 -0.11,-0.42 0,-0.14 0.02,-0.3 0.12,-0.41 0.14,-0.15 0.39,-0.15 0.57,-0.03 0.17,0.11 0.28,0.31 0.34,0.51 0.07,0.24 0.1,0.49 0.11,0.75 0,0.18 -0.01,0.36 -0.02,0.54 -0.02,0.15 -0.02,0.37 -0.09,0.51 -0.05,-0.06 -0.05,-0.17 -0.06,-0.24 -0.03,-0.1 -0.08,-0.2 -0.14,-0.3z"/>
    <path class="fil2 str2" d="M13.31 5.34c-0.12,-0.07 -0.23,-0.18 -0.31,-0.3 -0.2,-0.3 -0.21,-0.68 -0.4,-0.99"/>
    <path class="fil2 str2" d="M12.73 4.32c0.06,-0.06 0.1,-0.13 0.12,-0.22"/>
    <path class="fil2 str2" d="M12.42 4.51c0.09,0.07 0.21,0.1 0.32,0.1 0.02,0 0.04,-0.01 0.06,0"/>
    <path class="fil2 str2" d="M12.92 4.89c0,0.01 0,0.01 0.01,0.01 0.05,-0.03 0.09,-0.08 0.13,-0.13 0.03,-0.05 0.05,-0.11 0.08,-0.17"/>
    <path class="fil2 str2" d="M12.81 5.17c0.1,0.02 0.2,0.03 0.31,0.01"/>
    <path class="fil4" d="M21.08 4.42c0.04,-0.02 0.08,-0.05 0.1,-0.1 0.05,-0.12 -0.11,-0.26 -0.05,-0.38 0.03,-0.05 0.1,-0.07 0.16,-0.09 0.1,-0.04 0.21,-0.11 0.22,-0.21 0.01,-0.14 -0.15,-0.23 -0.16,-0.37 -0.02,-0.17 0.21,-0.3 0.18,-0.47 -0.02,-0.06 -0.06,-0.11 -0.11,-0.13 -0.05,-0.03 -0.11,-0.04 -0.17,-0.04 -0.09,-0.01 -0.19,0.01 -0.25,0.08 -0.07,0.08 -0.07,0.19 -0.15,0.25 -0.1,0.08 -0.25,0.02 -0.36,0.09 -0.09,0.05 -0.11,0.17 -0.1,0.27 0.01,0.08 0.03,0.16 0,0.23 -0.02,0.06 -0.09,0.1 -0.13,0.15 -0.06,0.07 -0.08,0.17 -0.07,0.26 0.01,0.09 0.05,0.17 0.1,0.24 0.05,0.07 0.11,0.13 0.18,0.17 0.05,0.03 0.1,0.04 0.15,0.07 0.04,0.02 0.08,0.06 0.12,0.07 0.1,0.03 0.25,-0.04 0.34,-0.09z"/>
    <path class="fil2 str1" d="M20.63 4.46c0,-0.09 0,-0.19 0.02,-0.28 0.03,-0.24 0.11,-0.47 0.22,-0.68 0.11,-0.21 0.24,-0.42 0.36,-0.62"/>
    <path class="fil2 str1" d="M20.85 3.54c-0.12,-0.11 -0.22,-0.25 -0.29,-0.39"/>
    <path class="fil2 str1" d="M21.31 3.68c-0.17,0.05 -0.35,0.06 -0.52,0.01"/>
    <path class="fil2 str1" d="M20.67 4.02c-0.1,-0.05 -0.19,-0.12 -0.27,-0.2"/>
    <path class="fil2 str1" d="M20.96 4.22c-0.11,0.02 -0.22,0.03 -0.33,0.01"/>
    <path class="fil3" d="M21.25 5.64c0.12,-0.2 0.28,-0.37 0.44,-0.54 0.11,-0.11 0.22,-0.23 0.29,-0.37 0.06,-0.13 0.09,-0.27 0.1,-0.42 0.01,-0.14 -0.02,-0.3 -0.11,-0.41 -0.14,-0.15 -0.4,-0.15 -0.57,-0.03 -0.18,0.11 -0.28,0.31 -0.34,0.51 -0.08,0.24 -0.11,0.49 -0.11,0.75 -0.01,0.18 0,0.36 0.02,0.54 0.01,0.15 0.02,0.37 0.09,0.5 0.05,-0.05 0.04,-0.16 0.06,-0.23 0.03,-0.1 0.07,-0.21 0.13,-0.3z"/>
    <path class="fil2 str2" d="M21.01 5.32c0.13,-0.07 0.24,-0.18 0.32,-0.3 0.19,-0.3 0.21,-0.68 0.39,-0.99"/>
    <path class="fil2 str2" d="M21.59 4.3c-0.05,-0.06 -0.1,-0.14 -0.12,-0.22"/>
    <path class="fil2 str2" d="M21.9 4.49c-0.09,0.07 -0.2,0.1 -0.32,0.1 -0.02,-0.01 -0.04,-0.01 -0.06,0"/>
    <path class="fil2 str2" d="M21.41 4.87c0,0.01 -0.01,0.01 -0.01,0 -0.06,-0.03 -0.1,-0.07 -0.13,-0.12 -0.04,-0.06 -0.06,-0.11 -0.08,-0.17"/>
    <path class="fil2 str2" d="M21.51 5.15c-0.09,0.02 -0.2,0.03 -0.3,0.01"/>
    <path class="fil4" d="M13.95 6.24l-2.23 0c-0.08,-0.13 -0.09,-0.3 -0.04,-0.44 0.04,-0.13 0.12,-0.25 0.25,-0.3 0.08,-0.03 0.16,-0.03 0.24,-0.01 0.08,0.03 0.15,0.08 0.2,0.14 0.01,-0.1 0.09,-0.2 0.19,-0.22 0.11,-0.02 0.22,0.04 0.27,0.14 0.08,-0.09 0.22,-0.11 0.33,-0.06 0.1,0.04 0.18,0.15 0.18,0.27 0,0.01 0.01,0.02 0.01,0.01 0.06,-0.07 0.15,-0.11 0.24,-0.1 0.1,0 0.19,0.05 0.25,0.12 0.07,0.08 0.11,0.17 0.12,0.26 0.02,0.07 0.02,0.13 -0.01,0.19z"/>
    <polygon class="fil5" points="17.31,2.26 17.52,2.26 17.52,2.31 17.5,2.31 17.5,2.6 17.32,2.6 17.32,2.31 17.31,2.31 "/>
    <polygon class="fil6" points="15.05,6.24 21.23,6.24 21.23,4.92 15.05,4.92 "/>
    <polygon class="fil7" points="20.37,5.8 21.23,5.8 21.23,6.24 20.37,6.24 "/>
    <polygon class="fil8" points="19.74,5.18 20.98,5.18 20.98,6.24 19.74,6.24 "/>
    <polygon class="fil9" points="20.8,5.32 20.92,5.32 20.92,5.23 20.8,5.23 "/>
    <polygon class="fil9" points="20.66,5.32 20.78,5.32 20.78,5.23 20.66,5.23 "/>
    <polygon class="fil9" points="20.53,5.32 20.65,5.32 20.65,5.23 20.53,5.23 "/>
    <polygon class="fil9" points="20.39,5.32 20.51,5.32 20.51,5.23 20.39,5.23 "/>
    <polygon class="fil9" points="20.21,5.32 20.33,5.32 20.33,5.23 20.21,5.23 "/>
    <polygon class="fil9" points="20.07,5.32 20.19,5.32 20.19,5.23 20.07,5.23 "/>
    <polygon class="fil9" points="19.93,5.32 20.06,5.32 20.06,5.23 19.93,5.23 "/>
    <polygon class="fil9" points="19.8,5.32 19.92,5.32 19.92,5.23 19.8,5.23 "/>
    <polygon class="fil8" points="20.45,5.51 20.45,5.4 20.91,5.4 20.91,5.51 "/>
    <path class="fil10" d="M20.9 5.41l0 0.09 -0.44 0 0 -0.09 0.44 0zm0.02 -0.02l0 0 -0.48 0 0 0.13 0.48 0 0 -0.13z"/>
    <polygon class="fil8" points="19.81,5.51 19.81,5.4 20.27,5.4 20.27,5.51 "/>
    <path class="fil10" d="M20.26 5.41l0 0.09 -0.44 0 0 -0.09 0.44 0zm0.02 -0.02l0 0 -0.48 0 0 0.13 0.48 0 0 -0.13z"/>
    <polygon class="fil8" points="20.45,5.73 20.45,5.62 20.91,5.62 20.91,5.73 "/>
    <path class="fil10" d="M20.9 5.63l0 0.09 -0.44 0 0 -0.09 0.44 0zm0.02 -0.02l0 0 -0.48 0 0 0.13 0.48 0 0 -0.13z"/>
    <polygon class="fil8" points="19.81,5.73 19.81,5.62 20.27,5.62 20.27,5.73 "/>
    <path class="fil10" d="M20.26 5.63l0 0.09 -0.44 0 0 -0.09 0.44 0zm0.02 -0.02l0 0 -0.48 0 0 0.13 0.48 0 0 -0.13z"/>
    <polygon class="fil8" points="20.45,5.95 20.45,5.84 20.91,5.84 20.91,5.95 "/>
    <path class="fil10" d="M20.9 5.85l0 0.09 -0.44 0 0 -0.09 0.44 0zm0.02 -0.02l0 0 -0.48 0 0 0.13 0.48 0 0 -0.13z"/>
    <polygon class="fil8" points="19.81,5.95 19.81,5.84 20.27,5.84 20.27,5.95 "/>
    <path class="fil10" d="M20.26 5.85l0 0.09 -0.44 0 0 -0.09 0.44 0zm0.02 -0.02l0 0 -0.48 0 0 0.13 0.48 0 0 -0.13z"/>
    <polygon class="fil8" points="20.45,6.17 20.45,6.06 20.91,6.06 20.91,6.17 "/>
    <path class="fil10" d="M20.9 6.07l0 0.09 -0.44 0 0 -0.09 0.44 0zm0.02 -0.02l0 0 -0.48 0 0 0.13 0.48 0 0 -0.13z"/>
    <polygon class="fil8" points="19.81,6.17 19.81,6.06 20.27,6.06 20.27,6.17 "/>
    <path class="fil10" d="M20.26 6.07l0 0.09 -0.44 0 0 -0.09 0.44 0zm0.02 -0.02l0 0 -0.48 0 0 0.13 0.48 0 0 -0.13z"/>
    <polygon class="fil11" points="19.72,5.13 21.01,5.13 21.01,5.18 19.72,5.18 "/>
    <polygon class="fil11" points="20.98,6.24 20.98,5.13 21.03,5.13 21.03,6.24 "/>
    <polygon class="fil11" points="19.68,6.24 19.68,5.13 19.74,5.13 19.74,6.24 "/>
    <polygon class="fil12" points="19.35,3.44 19.04,2.78 16.29,2.78 15.98,3.44 "/>
    <polygon class="fil12" points="16.36,4.81 16.05,4.15 13.3,4.15 12.99,4.81 "/>
    <polygon class="fil13" points="14.03,3.19 20.57,3.19 21.38,4.92 13.22,4.92 "/>
    <polygon class="fil5" points="19.92,3.19 19.61,2.53 16.86,2.53 16.55,3.19 "/>
    <polygon class="fil14" points="18.26,4.32 19.7,4.32 19.7,3.39 18.19,2.18 17.47,2.74 18.26,3.39 "/>
    <polygon class="fil14" points="19.58,3.25 18.09,3.25 17.47,2.76 18.19,2.18 "/>
    <polygon class="fil15" points="16.43,6.23 19.95,6.23 19.95,4.92 16.43,4.92 "/>
    <polygon class="fil15" points="13.16,6.24 15.31,6.24 15.31,4.79 14.23,3.99 13.16,4.78 "/>
    <polygon class="fil7" points="16.43,5.8 19.95,5.8 19.95,6.24 16.43,6.24 "/>
    <polygon class="fil14" points="14.22,3.96 15.18,4.65 13.33,4.65 "/>
    <polygon class="fil16" points="17.1,5.18 19.27,5.18 19.27,6.24 17.1,6.24 "/>
    <polygon class="fil9" points="19.06,5.32 19.18,5.32 19.18,5.23 19.06,5.23 "/>
    <polygon class="fil9" points="18.92,5.32 19.05,5.32 19.05,5.23 18.92,5.23 "/>
    <polygon class="fil9" points="18.79,5.32 18.91,5.32 18.91,5.23 18.79,5.23 "/>
    <polygon class="fil9" points="18.65,5.32 18.77,5.32 18.77,5.23 18.65,5.23 "/>
    <polygon class="fil9" points="18.31,5.32 18.43,5.32 18.43,5.23 18.31,5.23 "/>
    <polygon class="fil9" points="18.17,5.32 18.29,5.32 18.29,5.23 18.17,5.23 "/>
    <polygon class="fil9" points="18.03,5.32 18.16,5.32 18.16,5.23 18.03,5.23 "/>
    <polygon class="fil9" points="17.9,5.32 18.02,5.32 18.02,5.23 17.9,5.23 "/>
    <polygon class="fil9" points="17.57,5.32 17.69,5.32 17.69,5.23 17.57,5.23 "/>
    <polygon class="fil9" points="17.44,5.32 17.56,5.32 17.56,5.23 17.44,5.23 "/>
    <polygon class="fil9" points="17.3,5.32 17.42,5.32 17.42,5.23 17.3,5.23 "/>
    <polygon class="fil9" points="17.16,5.32 17.28,5.32 17.28,5.23 17.16,5.23 "/>
    <polygon class="fil16" points="18.71,5.51 18.71,5.4 19.17,5.4 19.17,5.51 "/>
    <path class="fil17" d="M19.16 5.41l0 0.09 -0.44 0 0 -0.09 0.44 0zm0.02 -0.02l0 0 -0.48 0 0 0.13 0.48 0 0 -0.13z"/>
    <polygon class="fil16" points="18.2,5.51 18.2,5.4 18.66,5.4 18.66,5.51 "/>
    <path class="fil17" d="M18.65 5.41l0 0.09 -0.44 0 0 -0.09 0.44 0zm0.02 -0.02l0 0 -0.48 0 0 0.13 0.48 0 0 -0.13z"/>
    <polygon class="fil16" points="17.69,5.51 17.69,5.4 18.15,5.4 18.15,5.51 "/>
    <path class="fil17" d="M18.14 5.41l0 0.09 -0.44 0 0 -0.09 0.44 0zm0.02 -0.02l0 0 -0.48 0 0 0.13 0.48 0 0 -0.13z"/>
    <polygon class="fil16" points="17.17,5.51 17.17,5.4 17.63,5.4 17.63,5.51 "/>
    <path class="fil17" d="M17.62 5.41l0 0.09 -0.44 0 0 -0.09 0.44 0zm0.02 -0.02l0 0 -0.48 0 0 0.13 0.48 0 0 -0.13z"/>
    <polygon class="fil16" points="18.71,5.73 18.71,5.62 19.17,5.62 19.17,5.73 "/>
    <path class="fil17" d="M19.16 5.63l0 0.09 -0.44 0 0 -0.09 0.44 0zm0.02 -0.02l0 0 -0.48 0 0 0.13 0.48 0 0 -0.13z"/>
    <polygon class="fil16" points="18.2,5.73 18.2,5.62 18.66,5.62 18.66,5.73 "/>
    <path class="fil17" d="M18.65 5.63l0 0.09 -0.44 0 0 -0.09 0.44 0zm0.02 -0.02l0 0 -0.48 0 0 0.13 0.48 0 0 -0.13z"/>
    <polygon class="fil16" points="17.69,5.73 17.69,5.62 18.15,5.62 18.15,5.73 "/>
    <path class="fil17" d="M18.14 5.63l0 0.09 -0.44 0 0 -0.09 0.44 0zm0.02 -0.02l0 0 -0.48 0 0 0.13 0.48 0 0 -0.13z"/>
    <polygon class="fil16" points="17.17,5.73 17.17,5.62 17.63,5.62 17.63,5.73 "/>
    <path class="fil17" d="M17.62 5.63l0 0.09 -0.44 0 0 -0.09 0.44 0zm0.02 -0.02l0 0 -0.48 0 0 0.13 0.48 0 0 -0.13z"/>
    <polygon class="fil16" points="18.71,5.95 18.71,5.84 19.17,5.84 19.17,5.95 "/>
    <path class="fil17" d="M19.16 5.85l0 0.09 -0.44 0 0 -0.09 0.44 0zm0.02 -0.02l0 0 -0.48 0 0 0.13 0.48 0 0 -0.13z"/>
    <polygon class="fil16" points="18.2,5.95 18.2,5.84 18.66,5.84 18.66,5.95 "/>
    <path class="fil17" d="M18.65 5.85l0 0.09 -0.44 0 0 -0.09 0.44 0zm0.02 -0.02l0 0 -0.48 0 0 0.13 0.48 0 0 -0.13z"/>
    <polygon class="fil16" points="17.69,5.95 17.69,5.84 18.15,5.84 18.15,5.95 "/>
    <path class="fil17" d="M18.14 5.85l0 0.09 -0.44 0 0 -0.09 0.44 0zm0.02 -0.02l0 0 -0.48 0 0 0.13 0.48 0 0 -0.13z"/>
    <polygon class="fil16" points="17.17,5.95 17.17,5.84 17.63,5.84 17.63,5.95 "/>
    <path class="fil17" d="M17.62 5.85l0 0.09 -0.44 0 0 -0.09 0.44 0zm0.02 -0.02l0 0 -0.48 0 0 0.13 0.48 0 0 -0.13z"/>
    <polygon class="fil16" points="18.71,6.17 18.71,6.06 19.17,6.06 19.17,6.17 "/>
    <path class="fil17" d="M19.16 6.07l0 0.09 -0.44 0 0 -0.09 0.44 0zm0.02 -0.02l0 0 -0.48 0 0 0.13 0.48 0 0 -0.13z"/>
    <polygon class="fil16" points="18.2,6.17 18.2,6.06 18.66,6.06 18.66,6.17 "/>
    <path class="fil17" d="M18.65 6.07l0 0.09 -0.44 0 0 -0.09 0.44 0zm0.02 -0.02l0 0 -0.48 0 0 0.13 0.48 0 0 -0.13z"/>
    <polygon class="fil16" points="17.69,6.17 17.69,6.06 18.15,6.06 18.15,6.17 "/>
    <path class="fil17" d="M18.14 6.07l0 0.09 -0.44 0 0 -0.09 0.44 0zm0.02 -0.02l0 0 -0.48 0 0 0.13 0.48 0 0 -0.13z"/>
    <polygon class="fil16" points="17.17,6.17 17.17,6.06 17.63,6.06 17.63,6.17 "/>
    <path class="fil17" d="M17.62 6.07l0 0.09 -0.44 0 0 -0.09 0.44 0zm0.02 -0.02l0 0 -0.48 0 0 0.13 0.48 0 0 -0.13z"/>
    <polygon class="fil18" points="17.08,5.13 19.3,5.13 19.3,5.18 17.08,5.18 "/>
    <polygon class="fil18" points="19.27,6.24 19.27,5.13 19.33,5.13 19.33,6.24 "/>
    <polygon class="fil18" points="17.05,6.24 17.05,5.13 17.1,5.13 17.1,6.24 "/>
    <polygon class="fil19" points="15.62,6.24 16.16,6.24 16.16,5.22 15.62,5.22 "/>
    <polygon class="fil11" points="16.16,6.24 16.16,5.2 16.2,5.2 16.2,6.24 "/>
    <polygon class="fil11" points="15.58,6.24 15.58,5.2 15.62,5.2 15.62,6.24 "/>
    <polygon class="fil11" points="16.2,5.22 15.58,5.22 15.58,5.18 16.2,5.18 "/>
    <polygon class="fil20" points="15.71,5.49 15.71,5.28 16.07,5.28 16.07,5.49 "/>
    <path class="fil21" d="M16.06 5.29l0 0.19 -0.34 0 0 -0.19 0.34 0zm0.02 -0.02l0 0 -0.38 0 0 0.23 0.38 0 0 -0.23z"/>
    <polygon class="fil22" points="15.91,5.28 16.07,5.43 16.07,5.35 15.99,5.28 "/>
    <polygon class="fil22" points="15.85,5.28 16.07,5.5 16.07,5.46 15.88,5.27 "/>
    <polygon class="fil22" points="15.87,5.5 15.71,5.34 15.71,5.42 15.79,5.5 "/>
    <polygon class="fil22" points="15.94,5.5 15.71,5.27 15.71,5.32 15.9,5.5 "/>
    <polygon class="fil21" points="15.71,5.39 16.07,5.39 16.07,5.38 15.71,5.38 "/>
    <polygon class="fil21" points="15.89,5.5 15.9,5.5 15.9,5.27 15.89,5.27 "/>
    <path class="fil23" d="M16.06 5.57l0 0.61 -0.12 0 0 -0.61 0.12 0zm0.02 -0.01l0 0 -0.16 0 0 0.64 0.16 0 0 -0.64z"/>
    <path class="fil23" d="M15.84 5.57l0 0.61 -0.12 0 0 -0.61 0.12 0zm0.02 -0.01l0 0 -0.16 0 0 0.64 0.16 0 0 -0.64z"/>
    <path class="fil23" d="M15.66 5.69l0 0 0 0.2 0 -0.2c0,0 0,0 0,0zm0 -0.02l0 0c-0.01,0 -0.02,0.01 -0.02,0.02l0 0.2c0,0.01 0.01,0.02 0.02,0.02 0.01,0 0.02,-0.01 0.02,-0.02l0 -0.2c0,-0.01 -0.01,-0.02 -0.02,-0.02z"/>
    <path class="fil24" d="M15.63 5.74c0,0.02 0.02,0.04 0.03,0.04 0.02,0 0.03,-0.02 0.03,-0.04 0,-0.01 -0.01,-0.03 -0.03,-0.03 -0.01,0 -0.03,0.02 -0.03,0.03z"/>
    <polygon class="fil25" points="13.3,4.72 15.17,4.72 15.17,4.63 13.3,4.63 "/>
    <path class="fil26" d="M19.95 5.02l1.34 0c0.05,0 0.09,-0.04 0.09,-0.09l0 -0.01 -1.43 0 0 0.1z"/>
    <polygon class="fil26" points="15.12,5.02 16.55,5.02 16.55,4.92 15.12,4.92 "/>
    <path class="fil27" d="M16.41 5.08l3.55 0c0.05,0 0.09,-0.04 0.09,-0.09l0 -0.02 -3.72 0 0 0.02c0,0.05 0.03,0.09 0.08,0.09z"/>
    <polygon class="fil20" points="13.71,5.71 13.71,4.86 14.76,4.86 14.76,5.71 "/>
    <path class="fil21" d="M14.73 4.88l0 0.8 -0.99 0 0 -0.8 0.99 0zm0.05 -0.05l0 0 -1.09 0 0 0.9 1.09 0 0 -0.9z"/>
    <polygon class="fil22" points="14.19,4.86 14.76,5.43 14.76,5.14 14.48,4.86 "/>
    <polygon class="fil22" points="13.71,5.26 14.16,5.71 14.46,5.72 13.73,4.98 "/>
    <polygon class="fil22" points="13.94,4.86 14.76,5.68 14.76,5.53 14.08,4.84 "/>
    <polygon class="fil22" points="13.7,5.47 13.94,5.71 14.07,5.69 13.71,5.32 "/>
    <polygon class="fil21" points="14.21,5.69 14.26,5.69 14.26,4.86 14.21,4.86 "/>
    <polygon class="fil5" points="20.05,4.98 19.87,4.32 16.5,4.32 16.33,4.98 "/>
    <polygon class="fil28" points="15.03,4.56 15.31,4.75 15.31,6.14 15.03,6.14 "/>
    <polygon class="fil7" points="15.03,5.81 15.31,5.81 15.31,6.24 15.03,6.24 "/>
    <polygon class="fil28" points="13.44,4.56 13.16,4.76 13.16,6.14 13.44,6.14 "/>
    <polygon class="fil7" points="13.44,5.82 13.16,5.82 13.16,6.24 13.44,6.24 "/>
    <path class="fil3" d="M13.8 6.24l-1.28 0c-0.04,-0.02 -0.06,-0.06 -0.08,-0.1 -0.01,-0.04 -0.02,-0.09 -0.02,-0.13 0.01,-0.06 0.06,-0.12 0.12,-0.14 0.07,-0.02 0.14,0 0.19,0.05 -0.02,-0.04 -0.01,-0.09 0.01,-0.12 0.04,-0.09 0.13,-0.15 0.22,-0.15 0.1,-0.01 0.19,0.05 0.24,0.13 0.04,-0.08 0.12,-0.13 0.21,-0.12 0.09,0.01 0.17,0.08 0.18,0.16 0.07,-0.03 0.14,-0.02 0.19,0.02 0.06,0.05 0.08,0.13 0.08,0.2 0,0.08 -0.02,0.14 -0.06,0.2z"/>
    <path class="fil2 str2" d="M13.08 6.15c-0.09,-0.1 -0.14,-0.23 -0.15,-0.36"/>
    <path class="fil2 str2" d="M13.06 5.76c-0.02,0.06 -0.05,0.12 -0.1,0.15"/>
    <path class="fil2 str2" d="M12.89 6.04c0.03,0.01 0.07,0.01 0.1,0"/>
    <path class="fil2 str2" d="M13.57 6.16c0.08,-0.07 0.13,-0.18 0.14,-0.28"/>
    <path class="fil2 str2" d="M13.61 6.11c0,0 0,0 0,0 -0.04,-0.04 -0.05,-0.09 -0.05,-0.13"/>
    <path class="fil2 str2" d="M13.69 6.01c0.03,-0.01 0.05,-0.02 0.07,-0.04"/>
    <path class="fil2 str2" d="M13.32 6.03c0.03,-0.07 0.04,-0.14 0.04,-0.22"/>
    <path class="fil2 str2" d="M12.73 6.18c-0.06,-0.05 -0.11,-0.1 -0.15,-0.17"/>
    <path class="fil2 str2" d="M13.33 5.95c-0.03,-0.02 -0.04,-0.05 -0.04,-0.08"/>
    <path class="fil2 str2" d="M12.64 6.1c0.02,-0.03 0.02,-0.07 0.01,-0.11"/>
    <path class="fil2 str2" d="M13.37 5.88c0.02,-0.02 0.04,-0.04 0.05,-0.07"/>
    <path class="fil2 str2" d="M12.62 6.18c0.02,0 0.05,-0.01 0.07,-0.02"/>
    <path class="fil29" d="M12.99 4.81l1.24 -0.95 0.01 0 0 0 1.24 0.95 -0.01 0.01c-0.04,0.05 -0.11,0.06 -0.16,0.03l-1.07 -0.82 -1.08 0.82c-0.05,0.03 -0.12,0.02 -0.16,-0.03l-0.01 -0.01z"/>
    <path class="fil30" d="M14.14 4.53c-0.01,0 -0.02,-0.01 -0.02,-0.02l0 -0.25c0,-0.01 0.01,-0.02 0.02,-0.02l0.19 0c0.01,0 0.02,0.01 0.02,0.02l0 0.25c0,0.01 -0.01,0.02 -0.02,0.02l-0.19 0z"/>
    <path class="fil11" d="M14.33 4.25c0.01,0 0.01,0.01 0.01,0.01l0 0.25c0,0.01 0,0.01 -0.01,0.01l-0.19 0c0,0 -0.01,0 -0.01,-0.01l0 -0.25c0,0 0.01,-0.01 0.01,-0.01l0.19 0zm0 -0.02l0 0 -0.19 0c-0.02,0 -0.03,0.01 -0.03,0.03l0 0.25c0,0.02 0.01,0.04 0.03,0.04l0.19 0c0.02,0 0.03,-0.02 0.03,-0.04l0 -0.25c0,-0.02 -0.01,-0.03 -0.03,-0.03z"/>
    <polygon class="fil25" points="18.1,3.26 19.55,3.26 19.55,3.17 18.1,3.17 "/>
    <path class="fil29" d="M16.94 3.06l1.25 -0.96 0 0 0 0 1.81 1.39 -0.02 0.02c-0.04,0.05 -0.1,0.06 -0.15,0.02l-1.64 -1.26 -1.17 0.89 -0.08 -0.1z"/>
    <path class="fil30" d="M18.1 2.95c-0.04,0 -0.06,-0.03 -0.06,-0.07l0 -0.24c0,-0.03 0.02,-0.06 0.06,-0.06l0.16 0c0.04,0 0.07,0.03 0.07,0.06l0 0.24c0,0.04 -0.03,0.07 -0.07,0.07l-0.16 0z"/>
    <path class="fil11" d="M18.26 2.59c0.03,0 0.05,0.02 0.05,0.05l0 0.24c0,0.03 -0.02,0.06 -0.05,0.06l-0.16 0c-0.03,0 -0.05,-0.03 -0.05,-0.06l0 -0.24c0,-0.03 0.02,-0.05 0.05,-0.05l0.16 0zm0 -0.02l0 0 -0.16 0c-0.04,0 -0.08,0.03 -0.08,0.07l0 0.24c0,0.04 0.04,0.08 0.08,0.08l0.16 0c0.04,0 0.08,-0.04 0.08,-0.08l0 -0.24c0,-0.04 -0.04,-0.07 -0.08,-0.07z"/>
    <polygon class="fil31" points="15.41,5.89 15.41,5.24 15.51,5.24 15.51,5.89 "/>
    <path class="fil21" d="M15.5 5.25l0 0.63 -0.08 0 0 -0.63 0.08 0zm0.02 -0.02l0 0 -0.12 0 0 0.66 0.12 0 0 -0.66z"/>
    <polygon class="fil22" points="15.41,5.23 15.52,5.34 15.52,5.28 15.46,5.23 "/>
    <polygon class="fil22" points="15.41,5.27 15.52,5.38 15.52,5.35 15.41,5.25 "/>
    <polygon class="fil22" points="15.41,5.48 15.52,5.58 15.52,5.53 15.42,5.43 "/>
    <polygon class="fil22" points="15.41,5.52 15.52,5.63 15.52,5.6 15.41,5.49 "/>
    <polygon class="fil22" points="15.41,5.74 15.52,5.85 15.52,5.79 15.42,5.69 "/>
    <polygon class="fil22" points="15.41,5.78 15.52,5.89 15.52,5.86 15.41,5.76 "/>
    <polygon class="fil31" points="16.26,5.89 16.26,5.24 16.36,5.24 16.36,5.89 "/>
    <path class="fil21" d="M16.35 5.25l0 0.63 -0.08 0 0 -0.63 0.08 0zm0.02 -0.02l0 0 -0.12 0 0 0.66 0.12 0 0 -0.66z"/>
    <polygon class="fil22" points="16.26,5.23 16.37,5.34 16.37,5.28 16.31,5.23 "/>
    <polygon class="fil22" points="16.26,5.27 16.37,5.38 16.37,5.35 16.26,5.25 "/>
    <polygon class="fil22" points="16.26,5.48 16.37,5.58 16.37,5.53 16.27,5.43 "/>
    <polygon class="fil22" points="16.26,5.52 16.37,5.63 16.37,5.6 16.26,5.49 "/>
    <polygon class="fil22" points="16.26,5.74 16.37,5.85 16.37,5.79 16.27,5.69 "/>
    <polygon class="fil22" points="16.26,5.78 16.37,5.89 16.37,5.86 16.26,5.76 "/>
    <path class="fil32" d="M16.97 5.61l0 0.1 -0.45 0 0 -0.1 0.45 0zm0.02 -0.02l0 0 -0.49 0 0 0.14 0.49 0 0 -0.14z"/>
    <path class="fil33" d="M16.72 5.24c0,0.02 0.01,0.03 0.02,0.03 0.02,0 0.03,-0.01 0.03,-0.03 0,-0.01 -0.01,-0.02 -0.03,-0.02 -0.01,0 -0.02,0.01 -0.02,0.02z"/>
    <path class="fil34" d="M16.75 5.39c0.01,0 0.03,-0.02 0.03,-0.04l0 0 -0.07 0 0 0c0,0.02 0.02,0.04 0.04,0.04z"/>
    <path class="fil35" d="M16.73 5.28l0.03 0 0 -0.05c0,-0.01 -0.01,-0.02 -0.02,-0.02 0,0 -0.01,0.01 -0.01,0.02l0 0.05z"/>
    <path class="fil36" d="M16.69 5.36l0.12 0 -0.01 -0.06c-0.01,-0.03 -0.03,-0.04 -0.05,-0.04 -0.03,0 -0.05,0.01 -0.05,0.04l-0.01 0.06z"/>
    <path class="fil33" d="M15.86 5.1c0,0.02 0.01,0.03 0.03,0.03 0.01,0 0.03,-0.01 0.03,-0.03 0,-0.01 -0.02,-0.03 -0.03,-0.03 -0.02,0 -0.03,0.02 -0.03,0.03z"/>
    <path class="fil34" d="M15.89 5.24c0.02,0 0.03,-0.01 0.03,-0.03l0 0 -0.06 0 0 0c0,0.02 0.01,0.03 0.03,0.03z"/>
    <path class="fil35" d="M15.88 5.14l0.02 0 0 -0.06c0,0 0,-0.01 -0.01,-0.01 -0.01,0 -0.01,0.01 -0.01,0.01l0 0.06z"/>
    <path class="fil36" d="M15.83 5.22l0.12 0 -0.01 -0.06c0,-0.03 -0.02,-0.05 -0.05,-0.05 -0.02,0 -0.04,0.02 -0.05,0.05l-0.01 0.06z"/>
    <path class="fil33" d="M19.59 5.24c0,0.02 0.02,0.03 0.03,0.03 0.01,0 0.03,-0.01 0.03,-0.03 0,-0.01 -0.02,-0.02 -0.03,-0.02 -0.01,0 -0.03,0.01 -0.03,0.02z"/>
    <path class="fil34" d="M19.62 5.39c0.02,0 0.03,-0.02 0.03,-0.04l0 0 -0.06 0 0 0c0,0.02 0.01,0.04 0.03,0.04z"/>
    <path class="fil35" d="M19.61 5.28l0.02 0 0 -0.05c0,-0.01 0,-0.02 -0.01,-0.02 -0.01,0 -0.01,0.01 -0.01,0.02l0 0.05z"/>
    <path class="fil36" d="M19.56 5.36l0.12 0 -0.01 -0.06c0,-0.03 -0.02,-0.04 -0.05,-0.04 -0.02,0 -0.04,0.01 -0.05,0.04l-0.01 0.06z"/>
    <polygon class="fil37" points="16.66,4.44 18.26,4.44 18.26,3.39 17.47,2.78 16.66,3.39 "/>
    <polygon class="fil14" points="16.78,3.26 17.45,2.8 18.17,3.26 18.23,3.36 16.72,3.36 "/>
    <polygon class="fil25" points="16.75,3.36 18.17,3.36 18.17,3.27 16.75,3.27 "/>
    <polygon class="fil20" points="17.05,4.22 17.05,3.53 17.9,3.53 17.9,4.22 "/>
    <path class="fil21" d="M17.88 3.56l0 0.64 -0.8 0 0 -0.64 0.8 0zm0.04 -0.05l0 0 -0.89 0 0 0.74 0.89 0 0 -0.74z"/>
    <polygon class="fil22" points="17.44,3.54 17.91,4 17.91,3.76 17.68,3.53 "/>
    <polygon class="fil22" points="17.04,3.86 17.42,4.23 17.66,4.24 17.06,3.64 "/>
    <polygon class="fil22" points="17.23,3.53 17.91,4.21 17.91,4.08 17.35,3.52 "/>
    <polygon class="fil22" points="17.04,4.03 17.23,4.23 17.35,4.21 17.05,3.91 "/>
    <polygon class="fil21" points="17.45,4.21 17.5,4.21 17.5,3.54 17.45,3.54 "/>
    <polygon class="fil20" points="18.43,4.15 18.43,3.46 19.27,3.46 19.27,4.15 "/>
    <path class="fil21" d="M19.25 3.48l0 0.64 -0.8 0 0 -0.64 0.8 0zm0.05 -0.04l0 0 -0.9 0 0 0.73 0.9 0 0 -0.73z"/>
    <polygon class="fil22" points="18.81,3.46 19.28,3.93 19.28,3.69 19.05,3.46 "/>
    <polygon class="fil22" points="18.42,3.79 18.79,4.16 19.04,4.16 18.43,3.56 "/>
    <polygon class="fil22" points="18.6,3.46 19.28,4.14 19.28,4 18.72,3.45 "/>
    <polygon class="fil22" points="18.41,3.96 18.61,4.15 18.72,4.14 18.42,3.84 "/>
    <polygon class="fil21" points="18.83,4.14 18.87,4.14 18.87,3.46 18.83,3.46 "/>
    <path class="fil29" d="M16.37 3.5l1.08 -0.84 0 0 0 0 1.06 0.81 -0.01 0.01c-0.04,0.05 -0.12,0.06 -0.17,0.02l-0.88 -0.67 -0.91 0.7c-0.05,0.04 -0.12,0.03 -0.16,-0.02l-0.01 -0.01z"/>
    <path class="fil2" d="M11.46 5.69c0,0 0,0 0,0l0 0z"/>
    <path class="fil3" d="M20.87 6.24l0.86 0c0.03,-0.04 0.07,-0.09 0.07,-0.15 0.01,-0.05 0,-0.11 -0.04,-0.15 -0.04,-0.05 -0.13,-0.06 -0.19,-0.03 -0.02,0.01 -0.03,0.02 -0.04,0.03 0,-0.04 -0.02,-0.07 -0.05,-0.09 -0.02,-0.01 -0.04,-0.02 -0.07,-0.02 -0.04,-0.01 -0.09,0.01 -0.13,0.03 -0.03,0.03 -0.06,0.07 -0.07,0.12 -0.03,-0.05 -0.09,-0.06 -0.14,-0.05 -0.05,0.02 -0.09,0.07 -0.1,0.13 -0.02,-0.01 -0.05,0 -0.07,0.01 -0.02,0.01 -0.04,0.03 -0.05,0.06 -0.01,0.03 0,0.08 0.02,0.11z"/>
    <path class="fil2 str1" d="M12.07 6.03c0.04,-0.02 0.06,-0.06 0.08,-0.09 0.02,-0.04 0.04,-0.08 0.05,-0.12"/>
    <path class="fil2 str1" d="M12.1 6.19c-0.05,-0.17 -0.08,-0.35 -0.07,-0.54"/>
    <path class="fil2 str1" d="M12.03 5.89c-0.01,0 -0.03,0 -0.04,-0.01 -0.04,-0.02 -0.07,-0.04 -0.1,-0.08 -0.01,-0.01 -0.01,-0.02 -0.02,-0.03"/>
    <path class="fil2 str1" d="M12.68 6c0.01,-0.14 -0.02,-0.29 -0.11,-0.4"/>
    <path class="fil2 str1" d="M12.66 5.76c0.04,-0.06 0.06,-0.12 0.06,-0.19"/>
    <path class="fil2 str1" d="M12.5 5.67c0.04,0.03 0.08,0.04 0.12,0.03"/>
    <path class="fil2 str2" d="M21.53 6.19c0.07,-0.05 0.13,-0.13 0.15,-0.22"/>
    <path class="fil2 str2" d="M21.23 6.21c-0.05,-0.05 -0.1,-0.11 -0.12,-0.18"/>
    <path class="fil2 str2" d="M21.56 6.17c-0.03,-0.03 -0.04,-0.07 -0.04,-0.11"/>
    <path class="fil2 str2" d="M21.06 6.13c0.03,0.01 0.06,0.02 0.1,0.01"/>
    <path class="fil2 str2" d="M21.64 6.08c0.03,0.01 0.07,0 0.09,-0.02"/>
    <path class="fil2 str2" d="M21.14 6.09c0,0 0,0 0.01,0 0.01,-0.02 0.02,-0.04 0.02,-0.06"/>
    <path class="fil2 str2" d="M21.38 6.1c-0.01,-0.03 -0.02,-0.06 -0.02,-0.09 0,-0.03 0.01,-0.06 0.03,-0.09"/>
    <path class="fil2 str2" d="M21.29 5.92c0.02,0.03 0.04,0.06 0.07,0.08"/>
    <path class="fil2 str1" d="M21.91 6.18c0.06,-0.05 0.1,-0.12 0.12,-0.19"/>
    <path class="fil2 str1" d="M21.48 5.94c-0.03,-0.05 -0.05,-0.09 -0.06,-0.14 -0.02,-0.05 -0.03,-0.1 -0.02,-0.15"/>
    <path class="fil2 str1" d="M21.93 6.14c-0.01,-0.03 -0.02,-0.06 -0.01,-0.09"/>
    <path class="fil2 str1" d="M22 6.09c0.04,-0.01 0.07,-0.02 0.1,-0.04"/>
    <path class="fil2 str1" d="M21.3 5.7c0.01,0.02 0.02,0.03 0.04,0.05 0.02,0.01 0.04,0.03 0.06,0.03"/>
    <path class="fil2 str1" d="M21.42 5.72c0.03,-0.01 0.05,-0.03 0.07,-0.06"/>
    <path class="fil2 str1" d="M21.75 5.95c-0.01,-0.06 0,-0.12 0.03,-0.18"/>
    <path class="fil2 str1" d="M21.75 5.85c-0.01,-0.01 -0.02,-0.02 -0.03,-0.03 -0.01,-0.02 -0.03,-0.05 -0.02,-0.08"/>
    <path class="fil38" d="M22.78 3.4l-1.3 0c-0.04,-0.08 -0.06,-0.16 -0.03,-0.24 0.03,-0.08 0.1,-0.15 0.18,-0.15 0.12,-0.02 0.23,0.08 0.35,0.06 0.12,-0.03 0.18,-0.16 0.29,-0.2 0.04,-0.02 0.09,-0.02 0.13,-0.02 0.08,0.01 0.16,0.03 0.2,0.09 0.03,0.05 0.03,0.1 0.05,0.15 0.03,0.06 0.07,0.1 0.11,0.15 0.03,0.05 0.05,0.11 0.02,0.16z"/>
    <path class="fil38" d="M16.14 2.58l-1.64 0c-0.01,-0.09 -0.01,-0.2 0.05,-0.28 0.06,-0.08 0.17,-0.13 0.26,-0.09 0.08,0.04 0.12,0.11 0.2,0.14 0.08,0.03 0.17,-0.02 0.25,-0.07 0.07,-0.05 0.14,-0.11 0.23,-0.12 0.08,0 0.15,0.04 0.2,0.09 0.03,0.03 0.06,0.06 0.09,0.08 0.07,0.05 0.17,0.04 0.26,0.06 0.02,0.01 0.04,0.01 0.06,0.03 0.04,0.04 0.05,0.1 0.04,0.16z"/>
    <path class="fil39" d="M14.63 15.18c-1.13,-1.48 1.05,-1.89 2.68,-2.12 1.07,-0.14 1.1,-1.23 2.8,-1.28 1.58,-0.04 2.34,0.73 2.58,1.69 0.99,3.84 -7.28,2.75 -8.06,1.71z"/>
    <g>
     <polygon class="fil40" points="17.91,12.85 19.69,12.85 19.69,12.53 17.91,12.53 "/>
     <polygon class="fil41" points="21.37,14.34 17.45,14.34 17.45,12.29 21.37,12.29 "/>
     <g>
      <polygon class="fil42" points="20.92,14.09 20.21,14.09 20.21,13.96 20.92,13.96 "/>
      <polygon class="fil42" points="20.92,13.85 20.53,13.85 20.53,13.8 20.92,13.8 "/>
      <polygon class="fil42" points="20.92,13.76 20.66,13.76 20.66,13.71 20.92,13.71 "/>
      <path class="fil42" d="M20.81 13.43l-0.39 0c-0.06,0 -0.11,-0.05 -0.11,-0.11l0 -0.01c0,-0.06 0.05,-0.11 0.11,-0.11l0.39 0c0.06,0 0.11,0.05 0.11,0.11l0 0.01c0,0.06 -0.05,0.11 -0.11,0.11z"/>
      <path class="fil38" d="M20.77 12.61c0,0.02 -0.01,0.03 -0.04,0.03 -0.02,0 -0.03,-0.01 -0.03,-0.03 0,-0.03 0.01,-0.04 0.03,-0.04 0.03,0 0.04,0.01 0.04,0.04z"/>
      <path class="fil38" d="M20.92 12.61c0,0.02 -0.02,0.03 -0.04,0.03 -0.02,0 -0.04,-0.01 -0.04,-0.03 0,-0.03 0.02,-0.04 0.04,-0.04 0.02,0 0.04,0.01 0.04,0.04z"/>
     </g>
     <polygon class="fil38" points="17.9,12.54 18.61,12.54 18.61,12.67 17.9,12.67 "/>
     <polygon class="fil38" points="17.9,12.78 18.29,12.78 18.29,12.83 17.9,12.83 "/>
     <path class="fil38" d="M18.04 14.03c0,-0.02 0.02,-0.04 0.04,-0.04 0.02,0 0.04,0.02 0.04,0.04 0,0.02 -0.02,0.04 -0.04,0.04 -0.02,0 -0.04,-0.02 -0.04,-0.04z"/>
     <path class="fil38" d="M17.9 14.03c0,-0.02 0.02,-0.04 0.04,-0.04 0.02,0 0.04,0.02 0.04,0.04 0,0.02 -0.02,0.04 -0.04,0.04 -0.02,0 -0.04,-0.02 -0.04,-0.04z"/>
     <line class="fil2 str3" x1="21.24" y1="14.01" x2="21.24" y2= "12.62" />
     <path class="fil2 str3" d="M21.24 12.62c-0.11,0 -0.2,-0.09 -0.2,-0.2"/>
     <g>
      <line class="fil2 str3" x1="21.04" y1="12.42" x2="17.73" y2= "12.42" />
      <path class="fil2 str3" d="M17.73 12.42c0,0.1 -0.06,0.17 -0.15,0.19"/>
      <line class="fil2 str3" x1="17.58" y1="12.61" x2="17.58" y2= "14.02" />
     </g>
     <line class="fil2 str3" x1="17.75" y1="14.21" x2="21.06" y2= "14.21" />
     <path class="fil2 str4" d="M19.95 13.32c0,0.3 -0.24,0.54 -0.54,0.54 -0.3,0 -0.54,-0.24 -0.54,-0.54 0,-0.3 0.24,-0.55 0.54,-0.55 0.3,0 0.54,0.25 0.54,0.55z"/>
     <polygon class="fil43" points="22.17,14.92 18.25,14.92 18.25,12.87 22.17,12.87 "/>
     <polygon class="fil44" points="21.71,14.66 21,14.66 21,14.54 21.71,14.54 "/>
     <polygon class="fil44" points="21.71,14.43 21.32,14.43 21.32,14.38 21.71,14.38 "/>
     <polygon class="fil44" points="21.71,14.33 21.46,14.33 21.46,14.28 21.71,14.28 "/>
     <path class="fil44" d="M21.6 14.01l-0.38 0c-0.06,0 -0.11,-0.05 -0.11,-0.12l0 0c0,-0.06 0.05,-0.11 0.11,-0.11l0.38 0c0.06,0 0.11,0.05 0.11,0.11l0 0c0,0.07 -0.05,0.12 -0.11,0.12z"/>
     <path class="fil38" d="M21.57 13.18c0,0.02 -0.02,0.04 -0.04,0.04 -0.02,0 -0.04,-0.02 -0.04,-0.04 0,-0.02 0.02,-0.04 0.04,-0.04 0.02,0 0.04,0.02 0.04,0.04z"/>
     <path class="fil38" d="M21.71 13.18c0,0.02 -0.01,0.04 -0.03,0.04 -0.03,0 -0.04,-0.02 -0.04,-0.04 0,-0.02 0.01,-0.04 0.04,-0.04 0.02,0 0.03,0.02 0.03,0.04z"/>
     <line class="fil2 str5" x1="22.03" y1="14.59" x2="22.03" y2= "13.2" />
     <path class="fil2 str5" d="M22.03 13.2c-0.11,0 -0.19,-0.09 -0.19,-0.2"/>
     <line class="fil2 str5" x1="21.84" y1="13" x2="18.58" y2= "13" />
     <line class="fil2 str5" x1="18.58" y1="14.78" x2="21.84" y2= "14.78" />
     <path class="fil2 str5" d="M21.84 14.78c0,-0.1 0.08,-0.19 0.19,-0.19"/>
     <path class="fil2 str4" d="M20.75 13.89c0,0.3 -0.24,0.54 -0.54,0.54 -0.3,0 -0.55,-0.24 -0.55,-0.54 0,-0.3 0.25,-0.54 0.55,-0.54 0.3,0 0.54,0.24 0.54,0.54z"/>
     <path class="fil44" d="M20.66 13.89c0,0.25 -0.21,0.45 -0.45,0.45 -0.25,0 -0.45,-0.2 -0.45,-0.45 0,-0.25 0.2,-0.45 0.45,-0.45 0.24,0 0.45,0.2 0.45,0.45z"/>
     <path class="fil41" d="M20.02 13.94l0.06 0 0 0.04 -0.06 0 0 0.06 0.06 0 0 0.1 0.1 0 0 -0.1 0.11 0 0 -0.06 -0.11 0 0 -0.04 0.06 0c0.06,0 0.1,-0.02 0.13,-0.05 0.02,-0.02 0.04,-0.06 0.04,-0.1 0,-0.04 -0.02,-0.08 -0.05,-0.1 -0.03,-0.02 -0.07,-0.03 -0.12,-0.03l-0.16 0 0 0.2 -0.06 0 0 0.08zm0.28 -0.15c0,0.03 -0.01,0.04 -0.02,0.05 -0.02,0.02 -0.04,0.02 -0.07,0.02l-0.03 0 0 -0.12 0.01 0c0.04,0 0.06,0 0.08,0.01 0.01,0 0.03,0.02 0.03,0.04z"/>
     <line class="fil2 str3" x1="18.39" y1="14.59" x2="18.39" y2= "13.2" />
     <path class="fil2 str5" d="M18.39 13.2c0.11,0 0.2,-0.09 0.2,-0.2"/>
     <path class="fil2 str3" d="M18.59 14.78c0,-0.1 -0.09,-0.19 -0.2,-0.19"/>
     <polygon class="fil38" points="18.7,13.2 19.41,13.2 19.41,13.33 18.7,13.33 "/>
     <polygon class="fil38" points="18.7,13.43 19.09,13.43 19.09,13.49 18.7,13.49 "/>
     <polygon class="fil44" points="18.7,14.43 19.09,14.43 19.09,14.38 18.7,14.38 "/>
     <polygon class="fil44" points="18.7,14.33 18.95,14.33 18.95,14.28 18.7,14.28 "/>
     <path class="fil44" d="M18.81 14.01l0.38 0c0.06,0 0.11,-0.05 0.11,-0.12l0 0c0,-0.06 -0.05,-0.11 -0.11,-0.11l-0.38 0c-0.06,0 -0.11,0.05 -0.11,0.11l0 0c0,0.07 0.05,0.12 0.11,0.12z"/>
     <path class="fil2 str3" d="M17.76 14.21c0,-0.11 -0.08,-0.2 -0.19,-0.2"/>
    </g>
    <polygon class="fil40" points="16.6,5.16 18.16,5.16 18.16,4.88 16.6,4.88 "/>
    <polygon class="fil45" points="19.62,6.46 16.2,6.46 16.2,4.67 19.62,4.67 "/>
    <g>
     <polygon class="fil42" points="19.23,6.24 18.61,6.24 18.61,6.13 19.23,6.13 "/>
     <polygon class="fil42" points="19.23,6.04 18.89,6.04 18.89,5.99 19.23,5.99 "/>
     <polygon class="fil42" points="19.23,5.95 19.01,5.95 19.01,5.91 19.23,5.91 "/>
     <path class="fil42" d="M19.13 5.67l-0.33 0c-0.06,0 -0.1,-0.05 -0.1,-0.1l0 0c0,-0.06 0.04,-0.1 0.1,-0.1l0.33 0c0.05,0 0.1,0.04 0.1,0.1l0 0c0,0.05 -0.05,0.1 -0.1,0.1z"/>
     <path class="fil38" d="M19.1 4.95c0,0.01 -0.01,0.03 -0.03,0.03 -0.02,0 -0.04,-0.02 -0.04,-0.03 0,-0.02 0.02,-0.04 0.04,-0.04 0.02,0 0.03,0.02 0.03,0.04z"/>
     <path class="fil38" d="M19.23 4.95c0,0.01 -0.02,0.03 -0.04,0.03 -0.01,0 -0.03,-0.02 -0.03,-0.03 0,-0.02 0.02,-0.04 0.03,-0.04 0.02,0 0.04,0.02 0.04,0.04z"/>
    </g>
    <polygon class="fil38" points="16.59,4.89 17.22,4.89 17.22,5 16.59,5 "/>
    <polygon class="fil38" points="16.59,5.1 16.94,5.1 16.94,5.15 16.59,5.15 "/>
    <path class="fil38" d="M16.72 6.19c0,-0.02 0.02,-0.04 0.03,-0.04 0.02,0 0.04,0.02 0.04,0.04 0,0.02 -0.02,0.03 -0.04,0.03 -0.01,0 -0.03,-0.01 -0.03,-0.03z"/>
    <path class="fil38" d="M16.59 6.19c0,-0.02 0.02,-0.04 0.04,-0.04 0.02,0 0.03,0.02 0.03,0.04 0,0.02 -0.01,0.03 -0.03,0.03 -0.02,0 -0.04,-0.01 -0.04,-0.03z"/>
    <line class="fil2 str3" x1="19.51" y1="6.17" x2="19.51" y2= "4.96" />
    <path class="fil2 str3" d="M19.51 4.96c-0.1,0 -0.18,-0.08 -0.18,-0.17"/>
    <g>
     <line class="fil2 str3" x1="19.33" y1="4.79" x2="16.45" y2= "4.79" />
     <path class="fil2 str3" d="M16.45 4.79c0,0.08 -0.06,0.15 -0.13,0.16"/>
     <line class="fil2 str3" x1="16.32" y1="4.95" x2="16.32" y2= "6.18" />
    </g>
    <line class="fil2 str3" x1="16.46" y1="6.35" x2="19.35" y2= "6.35" />
    <path class="fil2 str4" d="M18.38 5.57c0,0.26 -0.21,0.47 -0.47,0.47 -0.26,0 -0.47,-0.21 -0.47,-0.47 0,-0.26 0.21,-0.48 0.47,-0.48 0.26,0 0.47,0.22 0.47,0.48z"/>
    <polygon class="fil46" points="20.32,6.96 16.9,6.96 16.9,5.17 20.32,5.17 "/>
    <polygon class="fil44" points="19.92,6.74 19.3,6.74 19.3,6.63 19.92,6.63 "/>
    <polygon class="fil44" points="19.92,6.54 19.58,6.54 19.58,6.49 19.92,6.49 "/>
    <polygon class="fil44" points="19.92,6.46 19.7,6.46 19.7,6.41 19.92,6.41 "/>
    <path class="fil44" d="M19.83 6.17l-0.34 0c-0.05,0 -0.1,-0.05 -0.1,-0.1l0 0c0,-0.06 0.05,-0.1 0.1,-0.1l0.34 0c0.05,0 0.09,0.04 0.09,0.1l0 0c0,0.05 -0.04,0.1 -0.09,0.1z"/>
    <path class="fil38" d="M19.8 5.45c0,0.02 -0.02,0.03 -0.04,0.03 -0.02,0 -0.03,-0.01 -0.03,-0.03 0,-0.02 0.01,-0.04 0.03,-0.04 0.02,0 0.04,0.02 0.04,0.04z"/>
    <path class="fil38" d="M19.92 5.45c0,0.02 -0.01,0.03 -0.03,0.03 -0.02,0 -0.03,-0.01 -0.03,-0.03 0,-0.02 0.01,-0.04 0.03,-0.04 0.02,0 0.03,0.02 0.03,0.04z"/>
    <line class="fil2 str5" x1="20.2" y1="6.68" x2="20.2" y2= "5.46" />
    <path class="fil2 str5" d="M20.2 5.46c-0.09,0 -0.17,-0.07 -0.17,-0.17"/>
    <line class="fil2 str5" x1="20.03" y1="5.29" x2="17.19" y2= "5.29" />
    <line class="fil2 str5" x1="17.19" y1="6.85" x2="20.03" y2= "6.85" />
    <path class="fil2 str5" d="M20.03 6.85c0,-0.1 0.08,-0.17 0.17,-0.17"/>
    <path class="fil2 str4" d="M19.08 6.07c0,0.26 -0.21,0.47 -0.47,0.47 -0.26,0 -0.48,-0.21 -0.48,-0.47 0,-0.26 0.22,-0.47 0.48,-0.47 0.26,0 0.47,0.21 0.47,0.47z"/>
    <path class="fil44" d="M19 6.07c0,0.22 -0.18,0.39 -0.39,0.39 -0.22,0 -0.4,-0.17 -0.4,-0.39 0,-0.22 0.18,-0.39 0.4,-0.39 0.21,0 0.39,0.17 0.39,0.39z"/>
    <path class="fil41" d="M18.45 6.11l0.04 0 0 0.03 -0.04 0 0 0.06 0.04 0 0 0.08 0.09 0 0 -0.08 0.1 0 0 -0.06 -0.1 0 0 -0.03 0.06 0c0.05,0 0.08,-0.02 0.11,-0.04 0.02,-0.02 0.03,-0.06 0.03,-0.09 0,-0.04 -0.01,-0.07 -0.04,-0.09 -0.03,-0.01 -0.06,-0.02 -0.1,-0.02l-0.15 0 0 0.17 -0.04 0 0 0.07zm0.24 -0.13c0,0.02 -0.01,0.04 -0.02,0.05 -0.01,0.01 -0.03,0.01 -0.06,0.01l-0.03 0 0 -0.1 0.02 0c0.03,0 0.04,0 0.06,0 0.01,0.01 0.03,0.02 0.03,0.04z"/>
    <line class="fil2 str3" x1="17.02" y1="6.68" x2="17.02" y2= "5.46" />
    <path class="fil2 str5" d="M17.02 5.46c0.1,0 0.17,-0.07 0.17,-0.17"/>
    <path class="fil2 str3" d="M17.19 6.85c0,-0.1 -0.07,-0.17 -0.17,-0.17"/>
    <polygon class="fil38" points="17.29,5.46 17.91,5.46 17.91,5.58 17.29,5.58 "/>
    <polygon class="fil38" points="17.29,5.67 17.63,5.67 17.63,5.72 17.29,5.72 "/>
    <polygon class="fil44" points="17.29,6.54 17.63,6.54 17.63,6.49 17.29,6.49 "/>
    <polygon class="fil44" points="17.29,6.46 17.51,6.46 17.51,6.41 17.29,6.41 "/>
    <path class="fil44" d="M17.39 6.17l0.33 0c0.06,0 0.1,-0.05 0.1,-0.1l0 0c0,-0.06 -0.04,-0.1 -0.1,-0.1l-0.33 0c-0.05,0 -0.1,0.04 -0.1,0.1l0 0c0,0.05 0.05,0.1 0.1,0.1z"/>
    <path class="fil2 str3" d="M16.47 6.34c0,-0.09 -0.07,-0.17 -0.17,-0.17"/>
   </g>
  </g>
  <polygon class="fil47" points="0,0 21.11,0 21.11,7.47 0,7.47 "/>
 </g>
</svg>
