<?xml version="1.0" encoding="UTF-8"?>
<!DOCTYPE svg PUBLIC "-//W3C//DTD SVG 1.1//EN" "http://www.w3.org/Graphics/SVG/1.1/DTD/svg11.dtd">
<!-- Creator: CorelDRAW 2019 -->
<svg xmlns="http://www.w3.org/2000/svg" xml:space="preserve" width="60.172mm" height="42.533mm" version="1.1" style="shape-rendering:geometricPrecision; text-rendering:geometricPrecision; image-rendering:optimizeQuality; fill-rule:evenodd; clip-rule:evenodd"
viewBox="0 0 949.68 671.29"
 xmlns:xlink="http://www.w3.org/1999/xlink"
 xmlns:xodm="http://www.corel.com/coreldraw/odm/2003">
 <defs>
  <style type="text/css">
   <![CDATA[
    .str0 {stroke:white;stroke-width:11.14;stroke-miterlimit:22.9256}
    .str1 {stroke:#E6E6E6;stroke-width:3.16;stroke-miterlimit:22.9256}
    .fil5 {fill:none}
    .fil0 {fill:white}
    .fil1 {fill:#34DAEA;fill-rule:nonzero}
    .fil4 {fill:#5A69F7;fill-rule:nonzero}
    .fil6 {fill:white;fill-rule:nonzero}
    .fil2 {fill:url(#id1);fill-rule:nonzero}
    .fil7 {fill:url(#id2);fill-rule:nonzero}
    .fil8 {fill:url(#id3);fill-rule:nonzero}
    .fil3 {fill:url(#id4);fill-rule:nonzero}
   ]]>
  </style>
    <clipPath id="id0">
     <path d="M51.36 669.71l846.97 0c27.38,0 49.78,-22.4 49.78,-49.78l0 -568.57c0,-27.38 -22.4,-49.78 -49.78,-49.78l-846.97 0c-27.38,0 -49.78,22.4 -49.78,49.78l0 568.57c0,27.38 22.4,49.78 49.78,49.78z"/>
    </clipPath>
  <linearGradient id="id1" gradientUnits="userSpaceOnUse" x1="1587.87" y1="584.22" x2="2126.59" y2="1096.56">
   <stop offset="0" style="stop-opacity:1; stop-color:#905EF2"/>
   <stop offset="1" style="stop-opacity:1; stop-color:#4859F7"/>
  </linearGradient>
  <linearGradient id="id2" gradientUnits="userSpaceOnUse" x1="245.47" y1="317.05" x2="694.08" y2="351.97">
   <stop offset="0" style="stop-opacity:1; stop-color:#00D9FF"/>
   <stop offset="1" style="stop-opacity:1; stop-color:#5A69F7"/>
  </linearGradient>
  <linearGradient id="id3" gradientUnits="userSpaceOnUse" x1="534.64" y1="266.48" x2="614.43" y2="271.27">
   <stop offset="0" style="stop-opacity:1; stop-color:#3795FA"/>
   <stop offset="1" style="stop-opacity:1; stop-color:#5174F8"/>
  </linearGradient>
  <linearGradient id="id4" gradientUnits="userSpaceOnUse" x1="-216.14" y1="1146" x2="725.8" y2="870.31">
   <stop offset="0" style="stop-opacity:1; stop-color:#00D9FF"/>
   <stop offset="0.419608" style="stop-opacity:1; stop-color:#1B75FD"/>
   <stop offset="1" style="stop-opacity:1; stop-color:#B357EF"/>
  </linearGradient>
 </defs>
 <g id="Слой_x0020_1">
  <metadata id="CorelCorpID_0Corel-Layer"/>
  <g id="_847792008">
   <path class="fil0" d="M51.36 669.71l846.97 0c27.38,0 49.78,-22.4 49.78,-49.78l0 -568.57c0,-27.38 -22.4,-49.78 -49.78,-49.78l-846.97 0c-27.38,0 -49.78,22.4 -49.78,49.78l0 568.57c0,27.38 22.4,49.78 49.78,49.78z"/>
   <g style="clip-path:url(#id0)">
    <g>
     <path id="1" class="fil1" d="M933.17 1670.23c-3.28,62.79 246.11,-385.48 267.59,-432.42 82.78,-180.89 230.93,-727.64 221.83,-854l-394.88 255.9c-470.58,294.45 -75.82,674.45 -94.54,1030.53z"/>
     <path class="fil2" d="M2314.31 945.92l-902.08 5.07c-13.34,0.08 -24.22,-10.68 -24.3,-24.02l-0.91 -161.38c-0.02,-3.22 1.54,-6.29 4.23,-8.07 55.48,-36.85 130.29,-43.46 196.97,-29.91 80.63,16.38 153.79,57.15 229.02,90.49 75.22,33.33 157.8,59.96 238.82,45.61 76.45,-13.55 141.42,-61.59 210.39,-97.25 18.41,-9.52 37.99,-18.12 58.1,-24.94 6.26,-2.13 12.79,2.46 12.83,9.08l0.96 171.04c0.08,13.34 -10.68,24.22 -24.02,24.3z"/>
     <path class="fil3" d="M519.22 843.29l-551.76 0c-82.59,0 -149.55,66.96 -149.55,149.55 0,82.59 66.96,149.55 149.55,149.55l551.76 0c82.59,0 149.55,-66.96 149.55,-149.55 0,-82.59 -66.96,-149.55 -149.55,-149.55z"/>
     <path class="fil4 str0" d="M-5568.07 -1815c-256.69,-160 2198.19,91.1 2442.51,135.67 941.44,171.73 2993.06,505.74 3466.38,889.69l-1584.09 1440.18c-2457.47,1044.95 -2868.85,-1558.63 -4324.79,-2465.54z"/>
    </g>
   </g>
   <path class="fil5 str1" d="M51.36 669.71l846.97 0c27.38,0 49.78,-22.4 49.78,-49.78l0 -568.57c0,-27.38 -22.4,-49.78 -49.78,-49.78l-846.97 0c-27.38,0 -49.78,22.4 -49.78,49.78l0 568.57c0,27.38 22.4,49.78 49.78,49.78z"/>
   <g>
    <polygon class="fil6" points="619.07,378.06 619.07,366.7 612.46,378.06 "/>
    <path class="fil6" d="M540.21 436.45c-0.64,0.65 -1.04,1.56 -1.21,2.69l7.82 0c-0.09,-1.22 -0.48,-2.12 -1.22,-2.73 -0.73,-0.64 -1.64,-0.94 -2.68,-0.94 -1.16,0 -2.07,0.35 -2.72,0.98z"/>
    <path class="fil6" d="M659.54 384.28c1.17,0 2.07,-0.43 2.71,-1.34 0.65,-0.87 1,-1.99 1,-3.37 0,-1.51 -0.39,-2.72 -1.12,-3.54 -0.79,-0.83 -1.7,-1.21 -2.76,-1.21 -0.91,0 -1.7,0.26 -2.38,0.77 -1,0.83 -1.52,2.08 -1.52,3.85 0,1.43 0.39,2.6 1.16,3.46 0.74,0.91 1.74,1.38 2.9,1.38z"/>
    <path class="fil7" d="M256.59 484c4.1,1.94 8.64,3.1 13.48,3.1l409.52 0c8.63,0 16.45,-3.49 22.2,-9.15 6,-5.87 9.79,-14.08 9.79,-23.18l0 -238.19c0,-9.12 -3.8,-17.37 -9.79,-23.24 -5.75,-5.66 -13.56,-9.16 -22.2,-9.16l-409.52 0c-17.62,0 -31.96,14.51 -31.96,32.4l0 238.19c0,12.91 7.61,24.04 18.49,29.23zm267.99 -214.86c0,-24.1 19.61,-43.67 43.66,-43.67 9.51,0 18.23,3.16 25.4,8.29 7.43,-5.96 16.76,-9.67 27,-9.67 8.81,0 16.97,2.69 23.84,7.18 5.62,3.71 10.24,8.81 13.64,14.64 3.72,6.43 6.01,13.78 6.01,21.68 0,24.01 -19.51,43.49 -43.48,43.49 -9.38,0 -18.06,-3.03 -25.15,-8.12 -7.51,6.05 -16.88,9.8 -27.25,9.8 -14.08,0 -26.51,-6.82 -34.51,-17.19 -3.58,-4.66 -6.26,-10.06 -7.73,-15.93 -0.82,-3.37 -1.43,-6.87 -1.43,-10.49z"/>
    <path class="fil8" d="M542.29 292.07c6.39,7.21 15.59,11.87 25.95,11.87 7.43,0 14.25,-2.38 19.92,-6.34l14.59 0c0.14,-0.09 0.22,-0.23 0.31,-0.31 2.38,-1.89 4.53,-4.01 6.39,-6.44l-25.44 0c-1.04,-1.64 -1.99,-3.36 -2.81,-5.17l31.62 0c1.12,-2.13 2.02,-4.37 2.76,-6.7l-36.72 0c-0.16,-0.57 -0.38,-1.07 -0.52,-1.59 -0.3,-1.38 -0.43,-2.81 -0.6,-4.24l39.17 0c0.21,-1.72 0.52,-3.46 0.52,-5.27 0,-0.48 -0.14,-0.95 -0.14,-1.43l-40.03 0c0.04,-1.93 0.25,-3.79 0.56,-5.65l38.86 0c-0.43,-2.33 -1.12,-4.53 -1.99,-6.7l-35.2 0c0.65,-2.02 1.43,-3.92 2.38,-5.83l29.88 0c-0.6,-0.99 -1.42,-1.85 -2.12,-2.8 -0.94,-1.29 -1.82,-2.72 -2.98,-3.89l-20.64 0c0.39,-0.55 0.82,-1.03 1.25,-1.55 -5.48,-3.58 -12.01,-5.71 -19.05,-5.71 -19.17,0 -34.81,15.59 -34.81,34.82 0,2.45 0.3,4.83 0.77,7.12 1.26,6.05 4.14,11.4 8.08,15.81z"/>
   </g>
   <g>
    <path class="fil6" d="M462.02 342.62c-0.07,0.83 -0.15,1.65 -0.24,2.47l0.01 0c-0.44,3.93 -1.16,7.83 -2.14,11.62l15.01 3.89c1.4,-5.4 2.35,-10.98 2.82,-16.56l-0.01 -0c0.04,-0.47 0.08,-0.95 0.12,-1.42l-15.56 0 0 0zm-14 39.83l12.85 8.68c3.13,-4.64 5.89,-9.58 8.19,-14.67l-14.13 -6.38c-1.94,4.29 -4.27,8.46 -6.91,12.38zm-19.52 20.43l9.25 12.44c4.48,-3.33 8.72,-7.08 12.58,-11.12l-11.21 -10.71c-3.26,3.42 -6.84,6.58 -10.62,9.39zm-25.17 12.78l4.58 14.82c5.34,-1.65 10.58,-3.77 15.57,-6.31l-7.02 -13.83c-4.21,2.14 -8.62,3.93 -13.12,5.32zm59.38 -161.44l0 28.72c-7.29,-11.64 -16.95,-21.67 -28.47,-29.49 -16.45,-11.16 -35.7,-17.06 -55.66,-17.06 -26.51,0 -51.44,10.32 -70.18,29.07 -18.75,18.75 -29.07,43.67 -29.07,70.18 0,26.51 10.32,51.43 29.07,70.18 18.75,18.75 43.67,29.07 70.18,29.07 4.32,0 8.66,-0.28 12.91,-0.83l-2 -15.38c-3.59,0.47 -7.26,0.7 -10.91,0.7 -46.18,0 -83.74,-37.57 -83.74,-83.74 0,-46.18 37.57,-83.74 83.74,-83.74 29.97,0 57.17,15.81 72.1,41.1l-26.74 0 0 15.51 54.28 0 0 -54.28 -15.51 0zm-91.5 11.63l15.51 0 0 77.54 -58.93 0 0 -15.51 43.42 0 0 -62.03z"/>
    <path id="1" class="fil6" d="M461.78 343l0 4.19 -2.08 -2.33 0.01 -0.08 0.01 -0.08 0.01 -0.08 0.01 -0.07 0 -0.06 0.01 -0.08 0.01 -0.08 0.01 -0.1 0.01 -0.08 0 -0.06 0.01 -0.08 0.01 -0.08 0.01 -0.08 0.01 -0.08 0.01 -0.08 0.01 -0.06 0.01 -0.08 0.01 -0.1 0.01 -0.08 0.01 -0.06 0.01 -0.08 0.01 -0.08 0.01 -0.08 0.01 -0.08 0.01 -0.08 0.01 -0.08 0 -0.06 0.01 -0.1 0.01 -0.08 0 -0.06 0.01 -0.08 0.01 -0.08 4.18 0.34 -0.01 0.08 -0.01 0.08 -0.01 0.1 -0.01 0.08 -0 0.06 -0.01 0.1 -0.01 0.08 -0.01 0.08 -0.01 0.08 -0.01 0.08 -0.01 0.08 -0.01 0.08 -0.01 0.1 -0.01 0.08 -0.01 0.06 -0.01 0.08 -0.01 0.1 -0.01 0.08 -0.01 0.08 -0.01 0.08 -0.01 0.08 -0.01 0.08 -0.01 0.1 -0.01 0.08 -0 0.06 -0.01 0.08 -0.01 0.08 -0.01 0.1 -0.01 0.08 -0.01 0.08 -0.01 0.07 -0.01 0.08 -2.08 -2.33zm0 4.19l-2.34 0 0.26 -2.33 2.08 2.33zm0.01 0l-0.01 0 0 -4.19 0.01 0 2.08 2.33 -2.08 1.86zm0 -4.19l2.34 0 -0.26 2.33 -2.08 -2.33zm-1.62 11.69l-1.05 4.06 -1.5 -2.55 0.09 -0.35 0.09 -0.35 0.09 -0.35 0.09 -0.35 0.08 -0.35 0.08 -0.35 0.08 -0.35 0.08 -0.35 0.08 -0.35 0.07 -0.35 0.07 -0.35 0.07 -0.35 0.07 -0.35 0.07 -0.35 0.07 -0.35 0.06 -0.35 0.06 -0.35 0.06 -0.36 0.06 -0.36 0.06 -0.36 0.06 -0.36 0.06 -0.36 0.06 -0.36 0.05 -0.35 0.05 -0.36 0.05 -0.36 0.05 -0.36 0.05 -0.36 0.05 -0.35 0.04 -0.36 0.04 -0.36 0.04 -0.36 4.16 0.47 -0.04 0.38 -0.04 0.37 -0.05 0.38 -0.05 0.38 -0.05 0.37 -0.05 0.38 -0.05 0.37 -0.05 0.37 -0.06 0.38 -0.06 0.37 -0.06 0.37 -0.06 0.38 -0.06 0.37 -0.06 0.37 -0.07 0.37 -0.07 0.37 -0.07 0.38 -0.07 0.37 -0.07 0.37 -0.07 0.37 -0.08 0.37 -0.08 0.37 -0.08 0.37 -0.08 0.37 -0.08 0.37 -0.08 0.37 -0.09 0.37 -0.09 0.37 -0.09 0.37 -0.09 0.37 -0.09 0.37 -0.09 0.37 -1.5 -2.55zm-1.05 4.06l-2.03 -0.53 0.53 -2.03 1.5 2.55zm15.01 3.89l-15.01 -3.89 1.05 -4.06 15.01 3.89 1.5 2.55 -2.55 1.5zm2.55 -1.5l-0.53 2.03 -2.03 -0.53 2.55 -1.5zm0.49 -15.01l0.59 -4.15 1.79 2.25 -0.05 0.54 -0.05 0.54 -0.05 0.54 -0.06 0.53 -0.06 0.54 -0.06 0.53 -0.06 0.53 -0.07 0.54 -0.07 0.54 -0.07 0.53 -0.07 0.53 -0.08 0.53 -0.08 0.53 -0.08 0.53 -0.09 0.53 -0.09 0.53 -0.09 0.53 -0.09 0.53 -0.1 0.53 -0.1 0.53 -0.1 0.53 -0.11 0.53 -0.11 0.52 -0.11 0.52 -0.11 0.52 -0.12 0.52 -0.12 0.53 -0.12 0.52 -0.12 0.52 -0.13 0.52 -0.13 0.52 -0.13 0.52 -4.06 -1.05 0.13 -0.5 0.13 -0.5 0.12 -0.5 0.12 -0.5 0.12 -0.5 0.11 -0.5 0.11 -0.5 0.11 -0.5 0.11 -0.51 0.1 -0.51 0.1 -0.5 0.1 -0.5 0.1 -0.51 0.09 -0.51 0.09 -0.51 0.09 -0.51 0.09 -0.51 0.08 -0.51 0.08 -0.51 0.08 -0.51 0.07 -0.51 0.07 -0.51 0.07 -0.51 0.07 -0.51 0.06 -0.51 0.06 -0.51 0.06 -0.51 0.06 -0.51 0.05 -0.52 0.05 -0.51 0.05 -0.51 0.04 -0.51 1.79 2.25zm0.59 -4.15l1.96 0.28 -0.17 1.97 -1.79 -2.25zm-0.01 -0l0.01 0 -0.59 4.15 -0.01 -0 -1.79 -2.26 2.38 -1.89zm-0.59 4.15l-1.96 -0.28 0.17 -1.97 1.79 2.26zm0.41 -1.4l0 -4.19 2.09 2.25 -0 0.04 -0 0.04 -0 0.05 -0.01 0.08 -0 0.04 0 0.01 -0 0.04 -0 0.05 -0 0.05 -0.01 0.08 -0 0.04 0 0.01 -0 0.04 -0.01 0.08 -0 0.05 0 0.01 -0.01 0.08 -0 0.04 0 0.01 -0.01 0.08 -0 0.05 0 0.01 -0.01 0.08 -0 0.04 0 0.01 -0.01 0.08 -0 0.04 -0 0.04 -0 0.05 -0 0.05 -0 0.04 -0 0.04 -4.18 -0.36 0 -0.05 0 -0.04 0 -0.04 0 -0.05 0 -0.05 0 -0.04 0 -0.01 0.01 -0.08 0 -0.04 0 -0.01 0.01 -0.08 0 -0.05 0 -0.01 0.01 -0.08 0 -0.04 0 -0.01 0.01 -0.08 0 -0.04 0 -0.01 0 -0.05 0.01 -0.08 0 -0.04 0 -0.01 0 -0.04 0 -0.05 0 -0.05 0.01 -0.08 0 -0.04 0 -0 0 -0.05 0 -0.05 0 -0.05 2.09 2.25zm0 -4.19l2.25 0 -0.16 2.25 -2.09 -2.25zm-15.56 0l15.56 0 0 4.19 -15.56 0 -2.09 -2.27 2.09 -1.92zm-2.09 1.92l0.16 -1.92 1.93 0 -2.09 1.92zm2.09 0.17l0 0 0 0 0 0 2.09 0.17 -2.09 -0.17zm-2.09 -0.17l0.16 -1.92 1.93 0 -2.09 1.92zm-0.23 50.42l-12.85 -8.68 2.35 -3.47 12.85 8.68 0.56 2.91 -2.91 0.56zm2.91 -0.56l-1.17 1.74 -1.74 -1.17 2.91 -0.56zm5.59 -13.93l1.72 -3.82 1.05 2.77 -0.22 0.49 -0.22 0.49 -0.23 0.49 -0.23 0.48 -0.23 0.48 -0.24 0.48 -0.24 0.48 -0.24 0.48 -0.24 0.48 -0.24 0.48 -0.25 0.48 -0.25 0.48 -0.25 0.47 -0.26 0.48 -0.26 0.47 -0.26 0.47 -0.27 0.47 -0.27 0.47 -0.27 0.47 -0.27 0.47 -0.27 0.46 -0.27 0.46 -0.28 0.46 -0.28 0.46 -0.28 0.46 -0.28 0.45 -0.29 0.46 -0.29 0.45 -0.29 0.45 -0.3 0.45 -0.3 0.45 -0.3 0.45 -3.47 -2.35 0.29 -0.43 0.29 -0.43 0.28 -0.43 0.28 -0.43 0.28 -0.44 0.28 -0.43 0.27 -0.44 0.27 -0.44 0.27 -0.44 0.27 -0.44 0.27 -0.45 0.26 -0.44 0.26 -0.44 0.26 -0.45 0.26 -0.45 0.25 -0.45 0.25 -0.45 0.25 -0.45 0.24 -0.45 0.24 -0.46 0.24 -0.46 0.24 -0.46 0.24 -0.46 0.23 -0.46 0.23 -0.46 0.23 -0.46 0.22 -0.46 0.22 -0.46 0.22 -0.47 0.22 -0.46 0.21 -0.47 0.21 -0.47 1.05 2.77zm1.72 -3.82l1.91 0.86 -0.86 1.91 -1.05 -2.77zm-14.13 -6.38l14.13 6.38 -1.72 3.82 -14.13 -6.38 -1.05 -2.77 2.77 -1.05zm-2.77 1.05l0.86 -1.91 1.91 0.86 -2.77 1.05zm-3.83 11.5l-2.35 3.47 -0.56 -2.91 0.24 -0.36 0.24 -0.36 0.24 -0.36 0.24 -0.36 0.23 -0.36 0.23 -0.36 0.23 -0.37 0.23 -0.37 0.23 -0.37 0.22 -0.37 0.22 -0.37 0.22 -0.38 0.22 -0.37 0.21 -0.37 0.21 -0.38 0.21 -0.38 0.21 -0.38 0.21 -0.38 0.21 -0.38 0.2 -0.38 0.2 -0.38 0.2 -0.39 0.2 -0.38 0.2 -0.38 0.19 -0.39 0.19 -0.39 0.19 -0.39 0.19 -0.39 0.18 -0.39 0.18 -0.39 0.18 -0.39 0.18 -0.39 3.82 1.72 -0.19 0.41 -0.19 0.41 -0.19 0.41 -0.19 0.41 -0.2 0.41 -0.2 0.41 -0.2 0.41 -0.21 0.41 -0.21 0.41 -0.21 0.4 -0.21 0.4 -0.21 0.4 -0.21 0.4 -0.22 0.4 -0.22 0.4 -0.22 0.4 -0.22 0.39 -0.22 0.39 -0.23 0.4 -0.23 0.4 -0.23 0.39 -0.23 0.39 -0.24 0.39 -0.24 0.38 -0.24 0.39 -0.24 0.39 -0.24 0.38 -0.25 0.38 -0.25 0.38 -0.25 0.38 -0.25 0.38 -0.25 0.38 -0.56 -2.91zm-2.35 3.47l-1.74 -1.17 1.17 -1.74 0.56 2.91zm-10.78 32.39l-9.25 -12.44 3.36 -2.5 9.25 12.44 -0.43 2.93 -2.93 -0.43zm2.93 0.43l-1.68 1.25 -1.25 -1.68 2.93 0.43zm9.88 -11.29l2.89 -3.03 0.07 2.96 -0.37 0.39 -0.38 0.39 -0.37 0.38 -0.38 0.38 -0.38 0.38 -0.38 0.38 -0.38 0.37 -0.39 0.37 -0.39 0.37 -0.39 0.37 -0.39 0.37 -0.39 0.36 -0.39 0.36 -0.4 0.36 -0.4 0.36 -0.4 0.36 -0.4 0.35 -0.4 0.35 -0.41 0.35 -0.41 0.35 -0.41 0.34 -0.41 0.34 -0.42 0.34 -0.41 0.34 -0.42 0.34 -0.42 0.33 -0.42 0.33 -0.42 0.33 -0.42 0.33 -0.43 0.33 -0.43 0.32 -0.43 0.32 -2.5 -3.36 0.41 -0.31 0.41 -0.31 0.41 -0.31 0.41 -0.31 0.41 -0.32 0.4 -0.32 0.4 -0.32 0.4 -0.32 0.4 -0.33 0.39 -0.32 0.39 -0.33 0.4 -0.33 0.39 -0.33 0.39 -0.34 0.39 -0.34 0.39 -0.34 0.39 -0.34 0.38 -0.34 0.38 -0.35 0.38 -0.35 0.38 -0.35 0.37 -0.35 0.38 -0.36 0.37 -0.35 0.37 -0.36 0.37 -0.36 0.37 -0.36 0.36 -0.36 0.36 -0.37 0.36 -0.37 0.36 -0.37 0.36 -0.37 0.07 2.96zm2.89 -3.03l1.52 1.45 -1.45 1.51 -0.07 -2.96zm-11.21 -10.71l11.21 10.71 -2.89 3.03 -11.21 -10.71 -0.07 -2.96 2.96 -0.07zm-2.96 0.07l1.45 -1.52 1.52 1.45 -2.96 0.07zm-7.43 9.59l-3.36 2.5 0.43 -2.93 0.34 -0.26 0.35 -0.26 0.34 -0.26 0.34 -0.26 0.34 -0.27 0.34 -0.27 0.33 -0.27 0.34 -0.27 0.33 -0.27 0.33 -0.28 0.34 -0.28 0.33 -0.28 0.33 -0.28 0.33 -0.28 0.33 -0.29 0.33 -0.29 0.32 -0.29 0.32 -0.29 0.32 -0.29 0.32 -0.3 0.32 -0.29 0.31 -0.3 0.32 -0.3 0.31 -0.3 0.31 -0.3 0.31 -0.3 0.31 -0.3 0.31 -0.31 0.3 -0.31 0.3 -0.31 0.3 -0.31 0.3 -0.31 3.03 2.89 -0.31 0.33 -0.32 0.33 -0.32 0.32 -0.32 0.32 -0.32 0.32 -0.32 0.32 -0.32 0.32 -0.33 0.32 -0.33 0.32 -0.33 0.31 -0.33 0.31 -0.33 0.31 -0.33 0.3 -0.34 0.31 -0.34 0.31 -0.34 0.3 -0.34 0.3 -0.34 0.3 -0.35 0.3 -0.35 0.3 -0.35 0.29 -0.35 0.29 -0.35 0.29 -0.35 0.29 -0.35 0.29 -0.36 0.28 -0.36 0.28 -0.36 0.28 -0.36 0.28 -0.36 0.28 -0.36 0.27 -0.36 0.27 0.43 -2.93zm-3.36 2.5l-1.25 -1.68 1.68 -1.25 -0.43 2.93zm-20.91 26.97l-4.58 -14.82 4 -1.24 4.58 14.82 -1.38 2.62 -2.62 -1.38zm2.62 1.38l-2 0.62 -0.62 -2 2.62 1.38zm13.08 -7.36l3.74 -1.9 -0.92 2.82 -0.48 0.24 -0.48 0.24 -0.48 0.24 -0.48 0.23 -0.48 0.23 -0.49 0.23 -0.48 0.23 -0.49 0.23 -0.49 0.22 -0.49 0.22 -0.49 0.22 -0.49 0.21 -0.49 0.21 -0.5 0.21 -0.5 0.21 -0.49 0.2 -0.5 0.2 -0.5 0.2 -0.5 0.19 -0.5 0.19 -0.51 0.19 -0.51 0.19 -0.5 0.18 -0.51 0.18 -0.51 0.18 -0.51 0.18 -0.51 0.17 -0.51 0.17 -0.51 0.17 -0.51 0.17 -0.51 0.16 -0.51 0.16 -1.24 -4 0.49 -0.15 0.49 -0.15 0.49 -0.16 0.49 -0.16 0.49 -0.16 0.49 -0.17 0.48 -0.17 0.48 -0.17 0.49 -0.18 0.48 -0.18 0.48 -0.18 0.48 -0.18 0.48 -0.19 0.48 -0.19 0.48 -0.19 0.48 -0.19 0.48 -0.2 0.48 -0.2 0.47 -0.2 0.48 -0.2 0.47 -0.2 0.47 -0.21 0.47 -0.21 0.47 -0.21 0.46 -0.21 0.47 -0.22 0.47 -0.22 0.46 -0.22 0.46 -0.22 0.46 -0.23 0.46 -0.23 0.46 -0.23 -0.92 2.82zm3.74 -1.9l0.95 1.87 -1.87 0.95 0.92 -2.82zm-7.02 -13.83l7.02 13.83 -3.74 1.9 -7.02 -13.83 0.92 -2.82 2.82 0.92zm-2.82 -0.92l1.87 -0.95 0.95 1.87 -2.82 -0.92zm-10.17 6.57l-4 1.24 1.38 -2.62 0.41 -0.13 0.41 -0.13 0.41 -0.13 0.41 -0.14 0.41 -0.14 0.41 -0.14 0.41 -0.14 0.41 -0.15 0.41 -0.14 0.4 -0.15 0.41 -0.15 0.41 -0.15 0.4 -0.15 0.4 -0.16 0.41 -0.16 0.4 -0.16 0.4 -0.16 0.4 -0.17 0.4 -0.17 0.4 -0.17 0.4 -0.17 0.4 -0.18 0.39 -0.18 0.39 -0.18 0.39 -0.18 0.39 -0.18 0.39 -0.18 0.39 -0.19 0.39 -0.19 0.39 -0.19 0.39 -0.19 0.39 -0.19 1.9 3.73 -0.4 0.21 -0.41 0.2 -0.41 0.2 -0.41 0.2 -0.41 0.2 -0.41 0.2 -0.41 0.19 -0.41 0.19 -0.42 0.19 -0.42 0.18 -0.41 0.18 -0.42 0.18 -0.42 0.18 -0.42 0.18 -0.42 0.18 -0.42 0.17 -0.42 0.17 -0.42 0.17 -0.42 0.17 -0.43 0.16 -0.42 0.16 -0.42 0.16 -0.43 0.16 -0.43 0.15 -0.42 0.15 -0.43 0.15 -0.43 0.15 -0.43 0.15 -0.43 0.14 -0.43 0.14 -0.43 0.14 -0.43 0.13 1.38 -2.62zm-4 1.24l-0.62 -2 2 -0.62 -1.38 2.62zm59.28 -133.34l0 -28.72 4.19 0 0 28.72 -3.87 1.11 -0.32 -1.11zm4.19 0l0 7.29 -3.87 -6.18 3.87 -1.11zm-31.75 -27.75l2.35 -3.47 0 0 1.1 0.76 1.09 0.77 1.08 0.78 1.06 0.79 1.05 0.81 1.04 0.82 1.03 0.83 1.02 0.85 1 0.86 0.99 0.87 0.98 0.88 0.97 0.89 0.96 0.91 0.94 0.92 0.93 0.93 0.92 0.94 0.91 0.95 0.89 0.96 0.88 0.97 0.87 0.98 0.85 1 0.84 1.01 0.83 1.02 0.82 1.03 0.8 1.04 0.79 1.05 0.78 1.06 0.76 1.07 0.75 1.08 0.73 1.09 0.72 1.1 0.71 1.11 -3.55 2.23 -0.68 -1.06 -0.69 -1.05 -0.7 -1.04 -0.71 -1.04 -0.73 -1.02 -0.74 -1.01 -0.76 -1.01 -0.77 -1 -0.78 -0.98 -0.79 -0.98 -0.81 -0.97 -0.82 -0.95 -0.83 -0.94 -0.84 -0.94 -0.86 -0.92 -0.87 -0.91 -0.88 -0.9 -0.89 -0.89 -0.91 -0.88 -0.92 -0.87 -0.93 -0.86 -0.94 -0.85 -0.95 -0.83 -0.96 -0.82 -0.97 -0.81 -0.99 -0.8 -1 -0.79 -1.01 -0.77 -1.02 -0.76 -1.03 -0.75 -1.04 -0.74 -1.05 -0.72 0 0zm-54.48 -16.7l0 -4.19 0 0 1.91 0.02 1.9 0.05 1.9 0.09 1.89 0.12 1.89 0.16 1.88 0.19 1.87 0.23 1.87 0.26 1.86 0.3 1.85 0.33 1.84 0.36 1.84 0.4 1.83 0.43 1.82 0.47 1.81 0.5 1.8 0.53 1.79 0.57 1.78 0.6 1.77 0.63 1.75 0.66 1.74 0.7 1.73 0.73 1.72 0.76 1.7 0.8 1.69 0.83 1.68 0.86 1.66 0.89 1.65 0.93 1.63 0.96 1.62 0.99 1.6 1.02 1.58 1.05 -2.35 3.47 -1.52 -1.01 -1.53 -0.98 -1.55 -0.95 -1.56 -0.92 -1.58 -0.89 -1.59 -0.86 -1.61 -0.83 -1.62 -0.79 -1.63 -0.76 -1.65 -0.73 -1.66 -0.7 -1.67 -0.67 -1.68 -0.64 -1.69 -0.61 -1.7 -0.57 -1.71 -0.54 -1.73 -0.51 -1.73 -0.48 -1.74 -0.45 -1.75 -0.41 -1.76 -0.38 -1.77 -0.35 -1.78 -0.32 -1.78 -0.28 -1.79 -0.25 -1.8 -0.22 -1.8 -0.18 -1.81 -0.15 -1.82 -0.12 -1.82 -0.08 -1.83 -0.05 -1.83 -0.02 0 0zm-68.7 28.46l-2.96 -2.96 0 0 1.81 -1.77 1.85 -1.72 1.88 -1.67 1.92 -1.62 1.95 -1.56 1.99 -1.51 2.02 -1.46 2.05 -1.41 2.08 -1.35 2.11 -1.3 2.14 -1.25 2.16 -1.19 2.19 -1.14 2.22 -1.08 2.24 -1.03 2.26 -0.97 2.29 -0.92 2.31 -0.86 2.33 -0.8 2.35 -0.74 2.37 -0.69 2.39 -0.63 2.41 -0.57 2.43 -0.51 2.44 -0.45 2.46 -0.39 2.47 -0.34 2.49 -0.27 2.5 -0.21 2.51 -0.15 2.52 -0.09 2.53 -0.03 0 4.19 -2.43 0.03 -2.42 0.09 -2.41 0.15 -2.4 0.21 -2.38 0.26 -2.37 0.32 -2.36 0.38 -2.34 0.44 -2.33 0.49 -2.31 0.55 -2.29 0.6 -2.27 0.66 -2.25 0.71 -2.23 0.77 -2.21 0.82 -2.19 0.87 -2.17 0.93 -2.15 0.98 -2.12 1.04 -2.1 1.09 -2.07 1.14 -2.05 1.19 -2.02 1.25 -1.99 1.3 -1.96 1.35 -1.93 1.4 -1.9 1.45 -1.87 1.5 -1.84 1.55 -1.81 1.6 -1.77 1.65 -1.74 1.7 0 0zm-28.46 68.7l-4.19 0 0 0 0.03 -2.53 0.09 -2.52 0.15 -2.51 0.21 -2.5 0.27 -2.49 0.34 -2.47 0.39 -2.46 0.45 -2.44 0.51 -2.43 0.57 -2.41 0.63 -2.39 0.69 -2.37 0.74 -2.35 0.8 -2.33 0.86 -2.31 0.92 -2.29 0.97 -2.26 1.03 -2.24 1.08 -2.22 1.14 -2.19 1.19 -2.16 1.25 -2.14 1.3 -2.11 1.35 -2.08 1.41 -2.05 1.46 -2.02 1.51 -1.99 1.56 -1.95 1.62 -1.92 1.67 -1.88 1.72 -1.85 1.77 -1.81 2.96 2.96 -1.7 1.74 -1.65 1.77 -1.6 1.81 -1.55 1.84 -1.5 1.87 -1.45 1.9 -1.4 1.93 -1.35 1.96 -1.3 1.99 -1.25 2.02 -1.19 2.05 -1.14 2.07 -1.09 2.1 -1.04 2.12 -0.98 2.15 -0.93 2.17 -0.87 2.19 -0.82 2.21 -0.77 2.23 -0.71 2.26 -0.66 2.27 -0.6 2.29 -0.55 2.31 -0.49 2.32 -0.44 2.34 -0.38 2.36 -0.32 2.37 -0.26 2.38 -0.21 2.4 -0.15 2.41 -0.09 2.42 -0.03 2.43 0 0zm28.46 68.7l-2.96 2.96 0 0 -1.77 -1.81 -1.72 -1.85 -1.67 -1.88 -1.62 -1.92 -1.56 -1.95 -1.51 -1.99 -1.46 -2.02 -1.41 -2.05 -1.35 -2.08 -1.3 -2.11 -1.25 -2.14 -1.19 -2.16 -1.14 -2.19 -1.08 -2.21 -1.03 -2.24 -0.97 -2.27 -0.92 -2.29 -0.86 -2.31 -0.8 -2.33 -0.74 -2.35 -0.69 -2.37 -0.63 -2.39 -0.57 -2.41 -0.51 -2.43 -0.45 -2.44 -0.39 -2.46 -0.34 -2.47 -0.27 -2.49 -0.21 -2.5 -0.15 -2.51 -0.09 -2.52 -0.03 -2.53 4.19 0 0.03 2.43 0.09 2.42 0.15 2.41 0.21 2.4 0.26 2.38 0.32 2.37 0.38 2.36 0.44 2.34 0.49 2.33 0.55 2.31 0.6 2.29 0.66 2.27 0.71 2.25 0.77 2.23 0.82 2.21 0.87 2.19 0.93 2.17 0.98 2.15 1.04 2.12 1.09 2.1 1.14 2.07 1.19 2.05 1.25 2.02 1.3 1.99 1.35 1.96 1.4 1.93 1.45 1.9 1.5 1.87 1.55 1.84 1.6 1.81 1.65 1.77 1.7 1.74 0 0zm68.7 28.46l0 4.19 0 0 -2.53 -0.03 -2.52 -0.09 -2.51 -0.15 -2.5 -0.21 -2.49 -0.27 -2.47 -0.34 -2.46 -0.39 -2.44 -0.45 -2.43 -0.51 -2.41 -0.57 -2.39 -0.63 -2.37 -0.69 -2.35 -0.74 -2.33 -0.8 -2.31 -0.86 -2.29 -0.92 -2.26 -0.97 -2.24 -1.03 -2.22 -1.08 -2.19 -1.14 -2.16 -1.19 -2.14 -1.25 -2.11 -1.3 -2.08 -1.35 -2.05 -1.41 -2.02 -1.46 -1.99 -1.51 -1.95 -1.56 -1.92 -1.62 -1.88 -1.67 -1.85 -1.72 -1.81 -1.77 2.96 -2.96 1.74 1.7 1.77 1.65 1.81 1.6 1.84 1.55 1.87 1.5 1.9 1.45 1.93 1.4 1.96 1.35 1.99 1.3 2.02 1.25 2.05 1.19 2.07 1.14 2.1 1.09 2.12 1.04 2.15 0.98 2.17 0.93 2.19 0.87 2.21 0.82 2.23 0.77 2.25 0.71 2.27 0.66 2.29 0.6 2.31 0.55 2.33 0.49 2.34 0.44 2.36 0.38 2.37 0.32 2.38 0.26 2.4 0.21 2.41 0.15 2.42 0.09 2.43 0.03 0 0zm10.83 1.53l4.15 -0.54 -1.81 2.35 -0.41 0.05 -0.41 0.05 -0.41 0.05 -0.41 0.05 -0.41 0.05 -0.41 0.04 -0.41 0.04 -0.41 0.04 -0.41 0.04 -0.41 0.04 -0.42 0.04 -0.41 0.03 -0.41 0.03 -0.41 0.03 -0.41 0.03 -0.41 0.03 -0.41 0.03 -0.41 0.02 -0.41 0.02 -0.42 0.02 -0.41 0.02 -0.41 0.02 -0.41 0.02 -0.41 0.01 -0.42 0.01 -0.41 0.01 -0.41 0.01 -0.42 0.01 -0.41 0 -0.42 0 -0.41 0 -0.41 0 0 -4.19 0.4 -0 0.4 0 0.4 -0 0.4 -0 0.39 -0.01 0.4 -0.01 0.4 -0.01 0.39 -0.01 0.4 -0.01 0.4 -0.01 0.4 -0.02 0.4 -0.02 0.4 -0.02 0.4 -0.02 0.4 -0.02 0.4 -0.03 0.39 -0.03 0.4 -0.03 0.4 -0.03 0.4 -0.03 0.39 -0.03 0.39 -0.03 0.39 -0.04 0.4 -0.04 0.39 -0.04 0.39 -0.04 0.39 -0.04 0.4 -0.04 0.39 -0.05 0.39 -0.05 0.39 -0.05 0.39 -0.05 -1.81 2.35zm4.15 -0.54l0.27 2.08 -2.08 0.27 1.81 -2.35zm-2 -15.38l2 15.38 -4.15 0.54 -2 -15.38 1.81 -2.35 2.35 1.81zm-2.35 -1.81l2.08 -0.27 0.27 2.08 -2.35 -1.81zm-10.64 4.88l0 -4.19 0 0 0.33 0 0.33 -0 0.34 -0 0.33 -0 0.33 -0.01 0.34 -0.01 0.33 -0.01 0.33 -0.01 0.34 -0.01 0.34 -0.01 0.33 -0.01 0.33 -0.02 0.33 -0.02 0.34 -0.02 0.33 -0.02 0.33 -0.02 0.33 -0.02 0.33 -0.03 0.34 -0.03 0.33 -0.03 0.34 -0.03 0.33 -0.03 0.33 -0.03 0.33 -0.03 0.33 -0.03 0.33 -0.03 0.33 -0.04 0.33 -0.04 0.33 -0.04 0.33 -0.04 0.33 -0.04 0.33 -0.04 0.54 4.15 -0.34 0.04 -0.35 0.04 -0.35 0.04 -0.34 0.04 -0.35 0.04 -0.35 0.04 -0.34 0.04 -0.35 0.03 -0.35 0.03 -0.35 0.03 -0.35 0.03 -0.35 0.03 -0.35 0.03 -0.35 0.03 -0.35 0.03 -0.35 0.02 -0.35 0.02 -0.35 0.02 -0.35 0.02 -0.35 0.02 -0.35 0.02 -0.35 0.02 -0.35 0.01 -0.35 0.01 -0.36 0.01 -0.35 0.01 -0.35 0.01 -0.35 0.01 -0.35 0 -0.35 0 -0.35 0 -0.35 0 0 0zm-85.84 -85.84l4.19 0 0 0 0.11 4.2 0.32 4.14 0.52 4.08 0.72 4.02 0.91 3.95 1.1 3.87 1.28 3.79 1.46 3.71 1.64 3.62 1.81 3.52 1.97 3.42 2.13 3.31 2.28 3.2 2.43 3.09 2.57 2.96 2.71 2.84 2.84 2.71 2.97 2.57 3.09 2.43 3.2 2.28 3.31 2.13 3.42 1.97 3.52 1.8 3.62 1.64 3.7 1.46 3.79 1.29 3.87 1.1 3.95 0.91 4.02 0.72 4.08 0.52 4.14 0.32 4.2 0.11 0 4.19 -4.41 -0.11 -4.35 -0.33 -4.29 -0.55 -4.22 -0.76 -4.15 -0.96 -4.07 -1.16 -3.99 -1.35 -3.9 -1.54 -3.8 -1.72 -3.7 -1.9 -3.6 -2.07 -3.48 -2.23 -3.36 -2.4 -3.24 -2.55 -3.12 -2.7 -2.98 -2.84 -2.84 -2.98 -2.7 -3.12 -2.55 -3.24 -2.4 -3.37 -2.23 -3.48 -2.07 -3.6 -1.9 -3.7 -1.72 -3.8 -1.54 -3.9 -1.35 -3.99 -1.16 -4.07 -0.96 -4.15 -0.76 -4.22 -0.55 -4.29 -0.33 -4.35 -0.11 -4.41 0 0zm85.84 -85.84l0 4.19 0 0 -4.2 0.11 -4.14 0.32 -4.08 0.52 -4.02 0.72 -3.95 0.91 -3.87 1.1 -3.79 1.28 -3.7 1.46 -3.62 1.64 -3.52 1.81 -3.42 1.97 -3.31 2.13 -3.2 2.28 -3.09 2.43 -2.97 2.57 -2.84 2.71 -2.71 2.84 -2.57 2.97 -2.43 3.09 -2.28 3.2 -2.13 3.31 -1.97 3.42 -1.81 3.52 -1.64 3.62 -1.46 3.7 -1.28 3.79 -1.1 3.87 -0.91 3.95 -0.72 4.02 -0.52 4.08 -0.32 4.14 -0.11 4.2 -4.19 0 0.11 -4.41 0.33 -4.35 0.55 -4.29 0.76 -4.22 0.96 -4.15 1.16 -4.07 1.35 -3.99 1.54 -3.9 1.72 -3.8 1.9 -3.7 2.07 -3.6 2.23 -3.48 2.4 -3.36 2.55 -3.24 2.7 -3.12 2.84 -2.98 2.98 -2.84 3.12 -2.7 3.24 -2.55 3.36 -2.4 3.48 -2.23 3.6 -2.07 3.7 -1.9 3.8 -1.72 3.9 -1.54 3.99 -1.35 4.07 -1.16 4.15 -0.96 4.22 -0.76 4.29 -0.55 4.35 -0.33 4.41 -0.11 0 0zm72.1 45.29l0 -4.19 -1.8 3.16 -1.4 -2.28 -1.47 -2.23 -1.53 -2.17 -1.6 -2.11 -1.66 -2.06 -1.72 -1.99 -1.79 -1.93 -1.84 -1.87 -1.9 -1.81 -1.95 -1.75 -2.01 -1.68 -2.06 -1.61 -2.11 -1.55 -2.16 -1.48 -2.2 -1.41 -2.25 -1.34 -2.29 -1.27 -2.33 -1.19 -2.37 -1.12 -2.41 -1.04 -2.44 -0.96 -2.48 -0.89 -2.51 -0.81 -2.54 -0.73 -2.57 -0.64 -2.6 -0.56 -2.63 -0.48 -2.65 -0.39 -2.67 -0.31 -2.69 -0.22 -2.71 -0.13 -2.73 -0.04 0 -4.19 2.87 0.05 2.85 0.14 2.83 0.24 2.81 0.33 2.79 0.41 2.76 0.51 2.73 0.59 2.71 0.68 2.68 0.77 2.64 0.85 2.61 0.93 2.57 1.01 2.53 1.09 2.49 1.17 2.45 1.25 2.41 1.33 2.36 1.4 2.32 1.48 2.27 1.55 2.22 1.63 2.17 1.7 2.11 1.77 2.05 1.83 2 1.9 1.94 1.97 1.88 2.04 1.81 2.1 1.75 2.16 1.68 2.22 1.61 2.28 1.54 2.34 1.47 2.4 -1.8 3.16zm1.8 -3.16l1.87 3.16 -3.67 0 1.8 -3.16zm-28.54 -1.03l26.74 0 0 4.19 -26.74 0 -2.1 -2.1 2.1 -2.1zm-2.1 2.1l0 -2.1 2.1 0 -2.1 2.1zm0 15.51l0 -15.51 4.19 0 0 15.51 -2.1 2.1 -2.1 -2.1zm2.1 2.1l-2.1 0 0 -2.1 2.1 2.1zm54.28 0l-54.28 0 0 -4.19 54.28 0 2.1 2.1 -2.1 2.1zm2.1 -2.1l0 2.1 -2.1 0 2.1 -2.1zm0 -54.28l0 54.28 -4.19 0 0 -54.28 2.1 -2.1 2.1 2.1zm-2.1 -2.1l2.1 0 0 2.1 -2.1 -2.1zm-15.51 0l15.51 0 0 4.19 -15.51 0 -2.1 -2.1 2.1 -2.1zm-2.1 2.1l0 -2.1 2.1 0 -2.1 2.1zm-73.89 13.73l-15.51 0 0 -4.19 15.51 0 2.1 2.1 -2.1 2.1zm0 -4.19l2.1 0 0 2.1 -2.1 -2.1zm-2.1 79.64l0 -77.54 4.19 0 0 77.54 -2.1 2.1 -2.1 -2.1zm4.19 0l0 2.1 -2.1 0 2.1 -2.1zm-61.03 -2.1l58.93 0 0 4.19 -58.93 0 -2.1 -2.1 2.1 -2.1zm0 4.19l-2.1 0 0 -2.1 2.1 2.1zm2.1 -17.6l0 15.51 -4.19 0 0 -15.51 2.1 -2.1 2.1 2.1zm-4.19 0l0 -2.1 2.1 0 -2.1 2.1zm45.52 2.1l-43.42 0 0 -4.19 43.42 0 2.1 2.1 -2.1 2.1zm2.1 -2.1l0 2.1 -2.1 0 2.1 -2.1zm0 -62.03l0 62.03 -4.19 0 0 -62.03 2.1 -2.1 2.1 2.1zm-4.19 0l0 -2.1 2.1 0 -2.1 2.1z"/>
   </g>
  </g>
 </g>
</svg>
