<?xml version="1.0" encoding="UTF-8"?>
<!DOCTYPE svg PUBLIC "-//W3C//DTD SVG 1.1//EN" "http://www.w3.org/Graphics/SVG/1.1/DTD/svg11.dtd">
<!-- Creator: CorelDRAW 2019 -->
<svg xmlns="http://www.w3.org/2000/svg" xml:space="preserve" width="60.172mm" height="42.533mm" version="1.1" style="shape-rendering:geometricPrecision; text-rendering:geometricPrecision; image-rendering:optimizeQuality; fill-rule:evenodd; clip-rule:evenodd"
viewBox="0 0 949.68 671.29"
 xmlns:xlink="http://www.w3.org/1999/xlink"
 xmlns:xodm="http://www.corel.com/coreldraw/odm/2003">
 <defs>
  <style type="text/css">
   <![CDATA[
    .str0 {stroke:#E6E6E6;stroke-width:3.16;stroke-miterlimit:22.9256}
    .fil4 {fill:none}
    .fil0 {fill:white}
    .fil1 {fill:#34DAEA;fill-rule:nonzero}
    .fil5 {fill:white;fill-rule:nonzero}
    .fil7 {fill:url(#id1);fill-rule:nonzero}
    .fil3 {fill:url(#id2);fill-rule:nonzero}
    .fil6 {fill:url(#id3);fill-rule:nonzero}
    .fil2 {fill:url(#id4);fill-rule:nonzero}
   ]]>
  </style>
    <clipPath id="id0">
     <path d="M51.36 1.58l846.97 0c27.38,0 49.78,22.4 49.78,49.78l0 568.57c0,27.38 -22.4,49.78 -49.78,49.78l-846.97 0c-27.38,0 -49.78,-22.4 -49.78,-49.78l0 -568.57c0,-27.38 22.4,-49.78 49.78,-49.78z"/>
    </clipPath>
  <linearGradient id="id1" gradientUnits="userSpaceOnUse" x1="534.64" y1="266.48" x2="614.43" y2="271.27">
   <stop offset="0" style="stop-opacity:1; stop-color:#3795FA"/>
   <stop offset="1" style="stop-opacity:1; stop-color:#5174F8"/>
  </linearGradient>
  <linearGradient id="id2" gradientUnits="userSpaceOnUse" x1="-216.15" y1="-444.08" x2="725.8" y2="-168.39">
   <stop offset="0" style="stop-opacity:1; stop-color:#00D9FF"/>
   <stop offset="0.419608" style="stop-opacity:1; stop-color:#1B75FD"/>
   <stop offset="1" style="stop-opacity:1; stop-color:#B357EF"/>
  </linearGradient>
  <linearGradient id="id3" gradientUnits="userSpaceOnUse" x1="245.47" y1="317.05" x2="694.08" y2="351.97">
   <stop offset="0" style="stop-opacity:1; stop-color:#00D9FF"/>
   <stop offset="1" style="stop-opacity:1; stop-color:#5A69F7"/>
  </linearGradient>
  <linearGradient id="id4" gradientUnits="userSpaceOnUse" xlink:href="#id3" x1="949.8" y1="1660.52" x2="1488.51" y2="1148.18">
  </linearGradient>
 </defs>
 <g id="Слой_x0020_1">
  <metadata id="CorelCorpID_0Corel-Layer"/>
  <g id="_873478024">
   <path class="fil0" d="M51.36 1.58l846.97 0c27.38,0 49.78,22.4 49.78,49.78l0 568.57c0,27.38 -22.4,49.78 -49.78,49.78l-846.97 0c-27.38,0 -49.78,-22.4 -49.78,-49.78l0 -568.57c0,-27.38 22.4,-49.78 49.78,-49.78z"/>
   <g style="clip-path:url(#id0)">
    <g>
     <path id="1" class="fil1" d="M933.17 -998.95c-3.28,-62.79 246.11,385.48 267.59,432.42 82.78,180.89 230.93,727.64 221.83,854l-394.88 -255.9c-470.58,-294.45 -75.82,-674.45 -94.54,-1030.53z"/>
     <path class="fil2" d="M1676.24 1298.82l-902.08 -5.07c-13.34,-0.08 -24.22,10.68 -24.3,24.02l-0.91 161.38c-0.02,3.22 1.54,6.29 4.23,8.07 55.48,36.85 130.29,43.46 196.97,29.91 80.63,-16.38 153.79,-57.15 229.02,-90.49 75.22,-33.33 157.8,-59.96 238.82,-45.61 76.45,13.55 141.42,61.59 210.39,97.25 18.41,9.52 37.99,18.12 58.1,24.94 6.26,2.13 12.79,-2.46 12.83,-9.08l0.96 -171.04c0.08,-13.34 -10.68,-24.22 -24.02,-24.3z"/>
     <path class="fil3" d="M519.22 -172l-551.76 0c-82.59,0 -149.55,-66.96 -149.55,-149.55 0,-82.59 66.96,-149.55 149.55,-149.55l551.76 0c82.59,0 149.55,66.96 149.55,149.55 0,82.59 -66.96,149.55 -149.55,149.55z"/>
    </g>
   </g>
   <path class="fil4 str0" d="M51.36 1.58l846.97 0c27.38,0 49.78,22.4 49.78,49.78l0 568.57c0,27.38 -22.4,49.78 -49.78,49.78l-846.97 0c-27.38,0 -49.78,-22.4 -49.78,-49.78l0 -568.57c0,-27.38 22.4,-49.78 49.78,-49.78z"/>
   <polygon class="fil5" points="619.07,378.06 619.07,366.7 612.46,378.06 "/>
   <polygon class="fil5" points="391.04,366.7 384.47,378.06 391.04,378.06 "/>
   <path class="fil5" d="M434.22 382.94c0.7,-0.87 1,-1.99 1,-3.37 0,-1.51 -0.39,-2.72 -1.12,-3.54 -0.74,-0.83 -1.69,-1.21 -2.76,-1.21 -0.91,0 -1.69,0.26 -2.33,0.77 -1.04,0.83 -1.56,2.08 -1.56,3.85 0,1.43 0.39,2.6 1.16,3.46 0.74,0.91 1.74,1.38 2.9,1.38 1.17,0 2.08,-0.43 2.72,-1.34z"/>
   <path class="fil5" d="M314.11 446.82c0.99,0 1.9,-0.3 2.72,-0.86 0.86,-0.57 1.29,-1.61 1.29,-3.16l0 -1.69c-0.25,0.18 -0.55,0.35 -0.86,0.43 -0.3,0.13 -0.69,0.22 -1.21,0.31l-1.04 0.21c-0.99,0.18 -1.68,0.39 -2.11,0.61 -0.7,0.43 -1.08,1.08 -1.08,1.95 0,0.77 0.22,1.34 0.65,1.68 0.47,0.34 0.98,0.52 1.64,0.52z"/>
   <path class="fil5" d="M493.44 384.24c1.16,0 2.11,-0.36 2.81,-1.08 0.64,-0.73 0.99,-1.73 0.99,-3.02 0,-1.34 -0.35,-2.38 -1.04,-3.07 -0.7,-0.68 -1.61,-1.03 -2.76,-1.03 -1.17,0 -2.08,0.34 -2.77,1.03 -0.7,0.7 -1.04,1.74 -1.04,3.07 0,1.29 0.34,2.29 0.99,3.02 0.69,0.73 1.64,1.08 2.81,1.08z"/>
   <path class="fil5" d="M363 435.46c-1.17,0 -2.08,0.35 -2.71,0.98 -0.65,0.65 -1.04,1.56 -1.22,2.69l7.82 0c-0.08,-1.22 -0.47,-2.12 -1.2,-2.73 -0.73,-0.64 -1.6,-0.94 -2.68,-0.94z"/>
   <path class="fil5" d="M514.13 365.53c-0.86,0 -1.65,0.22 -2.24,0.74 -1,0.77 -1.52,2.06 -1.52,3.92 0,1.61 0.3,2.77 0.95,3.55 0.65,0.77 1.64,1.16 2.94,1.16 0.73,0 1.38,-0.22 2.02,-0.61 1.17,-0.77 1.76,-2.07 1.76,-3.93 0,-1.47 -0.34,-2.67 -1.02,-3.54 -0.74,-0.87 -1.7,-1.31 -2.9,-1.31z"/>
   <path class="fil5" d="M493.44 372.06c1.04,0 1.86,-0.3 2.41,-0.91 0.61,-0.61 0.92,-1.43 0.92,-2.38 0,-1.03 -0.31,-1.86 -0.92,-2.45 -0.55,-0.56 -1.37,-0.86 -2.41,-0.86 -1.04,0 -1.86,0.3 -2.46,0.86 -0.61,0.6 -0.86,1.43 -0.86,2.45 0,0.95 0.25,1.77 0.86,2.38 0.61,0.6 1.42,0.91 2.46,0.91z"/>
   <path class="fil5" d="M418.58 442.06c-0.95,0.18 -1.63,0.39 -2.06,0.61 -0.74,0.43 -1.08,1.08 -1.08,1.95 0,0.77 0.22,1.34 0.65,1.68 0.43,0.34 0.99,0.52 1.59,0.52 0.99,0 1.9,-0.3 2.76,-0.86 0.82,-0.57 1.25,-1.61 1.29,-3.16l0 -1.69c-0.3,0.18 -0.55,0.35 -0.86,0.43 -0.3,0.13 -0.73,0.22 -1.25,0.31l-1.04 0.21z"/>
   <path class="fil5" d="M494.94 442.06c-0.98,0.18 -1.68,0.39 -2.11,0.61 -0.69,0.43 -1.08,1.08 -1.08,1.95 0,0.77 0.22,1.34 0.65,1.68 0.43,0.34 0.99,0.52 1.61,0.52 0.98,0 1.93,-0.3 2.76,-0.86 0.86,-0.57 1.3,-1.61 1.3,-3.16l0 -1.69c-0.27,0.18 -0.57,0.35 -0.86,0.43 -0.31,0.13 -0.74,0.22 -1.22,0.31l-1.04 0.21z"/>
   <path class="fil5" d="M540.21 436.45c-0.64,0.65 -1.04,1.56 -1.21,2.69l7.82 0c-0.09,-1.22 -0.48,-2.12 -1.22,-2.73 -0.73,-0.64 -1.64,-0.94 -2.68,-0.94 -1.16,0 -2.07,0.35 -2.72,0.98z"/>
   <path class="fil5" d="M659.55 384.28c1.17,0 2.07,-0.43 2.71,-1.34 0.65,-0.87 1,-1.99 1,-3.37 0,-1.51 -0.39,-2.72 -1.12,-3.54 -0.79,-0.83 -1.7,-1.21 -2.76,-1.21 -0.91,0 -1.7,0.26 -2.38,0.77 -1,0.83 -1.52,2.08 -1.52,3.85 0,1.43 0.39,2.6 1.16,3.46 0.74,0.91 1.74,1.38 2.9,1.38z"/>
   <path class="fil5" d="M283.19 381.82c0.48,1.6 1.51,2.42 3.06,2.42 1.52,0 2.56,-0.82 3.03,-2.42 0.39,-1.38 0.61,-3.42 0.65,-5.83 0.03,-0.4 0.08,-0.74 0.08,-1.13 0,-3.2 -0.25,-5.57 -0.73,-7.09 -0.47,-1.5 -1.47,-2.29 -3.03,-2.29 -1.55,0 -2.54,0.79 -3.06,2.29 -0.52,1.56 -0.73,3.89 -0.73,7.09 0,1.56 0.04,2.9 0.17,4.1 0.13,1.13 0.31,2.08 0.56,2.85z"/>
   <path class="fil6" d="M256.59 484c4.1,1.94 8.64,3.1 13.48,3.1l409.52 0c8.63,0 16.45,-3.49 22.2,-9.15 6,-5.87 9.79,-14.08 9.79,-23.18l0 -238.19c0,-9.12 -3.8,-17.37 -9.79,-23.24 -5.75,-5.66 -13.56,-9.16 -22.2,-9.16l-409.52 0c-17.62,0 -31.96,14.51 -31.96,32.4l0 238.19c0,12.91 7.61,24.04 18.49,29.23zm267.99 -214.86c0,-24.1 19.61,-43.67 43.66,-43.67 9.51,0 18.23,3.16 25.4,8.29 7.43,-5.96 16.76,-9.67 27,-9.67 8.81,0 16.97,2.69 23.84,7.18 5.62,3.71 10.24,8.81 13.64,14.64 3.72,6.43 6.01,13.78 6.01,21.68 0,24.01 -19.51,43.49 -43.48,43.49 -9.38,0 -18.06,-3.03 -25.15,-8.12 -7.51,6.05 -16.88,9.8 -27.25,9.8 -14.08,0 -26.51,-6.82 -34.51,-17.19 -3.58,-4.66 -6.26,-10.06 -7.73,-15.93 -0.82,-3.37 -1.43,-6.87 -1.43,-10.49z"/>
   <path class="fil7" d="M542.29 292.07c6.39,7.21 15.59,11.87 25.95,11.87 7.43,0 14.25,-2.38 19.92,-6.34l14.59 0c0.14,-0.09 0.22,-0.23 0.31,-0.31 2.38,-1.89 4.53,-4.01 6.39,-6.44l-25.44 0c-1.04,-1.64 -1.99,-3.36 -2.81,-5.17l31.62 0c1.12,-2.13 2.02,-4.37 2.76,-6.7l-36.72 0c-0.16,-0.57 -0.38,-1.07 -0.52,-1.59 -0.3,-1.38 -0.43,-2.81 -0.6,-4.24l39.17 0c0.21,-1.72 0.52,-3.46 0.52,-5.27 0,-0.48 -0.14,-0.95 -0.14,-1.43l-40.03 0c0.04,-1.93 0.25,-3.79 0.56,-5.65l38.86 0c-0.43,-2.33 -1.12,-4.53 -1.99,-6.7l-35.2 0c0.65,-2.02 1.43,-3.92 2.38,-5.83l29.88 0c-0.6,-0.99 -1.42,-1.85 -2.12,-2.8 -0.94,-1.29 -1.82,-2.72 -2.98,-3.89l-20.64 0c0.39,-0.55 0.82,-1.03 1.25,-1.55 -5.48,-3.58 -12.01,-5.71 -19.05,-5.71 -19.17,0 -34.81,15.59 -34.81,34.82 0,2.45 0.3,4.83 0.77,7.12 1.26,6.05 4.14,11.4 8.08,15.81z"/>
   <path class="fil5" d="M326.62 404.09l14.34 10 109.52 -146.24 -14.12 -10.65 -109.74 146.89zm-28.9 -107.78c0,23.25 18.03,38.89 42.81,38.89 24.77,0 42.81,-15.64 42.81,-38.89 0,-23.47 -18.03,-38.68 -42.81,-38.68 -24.77,0 -42.81,15.21 -42.81,38.68zm23.47 0c0,-11.3 8.47,-18.47 19.34,-18.47 11.08,0 19.56,7.17 19.56,18.47 0,11.52 -8.26,18.69 -19.56,18.69 -10.65,0 -19.34,-7.17 -19.34,-18.69zm72.58 78.66c0,23.25 18.03,38.9 42.81,38.9 24.77,0 42.81,-15.65 42.81,-38.9 0,-23.47 -18.04,-38.68 -42.81,-38.68 -24.77,0 -42.81,15.21 -42.81,38.68zm23.47 0c0,-11.3 8.47,-18.47 19.34,-18.47 11.08,0 19.56,7.17 19.56,18.47 0,11.52 -8.26,18.69 -19.56,18.69 -10.65,0 -19.34,-7.17 -19.34,-18.69z"/>
  </g>
 </g>
</svg>
