<?xml version="1.0" encoding="UTF-8"?>
<!DOCTYPE svg PUBLIC "-//W3C//DTD SVG 1.1//EN" "http://www.w3.org/Graphics/SVG/1.1/DTD/svg11.dtd">
<!-- Creator: CorelDRAW 2019 -->
<svg xmlns="http://www.w3.org/2000/svg" xml:space="preserve" width="60.172mm" height="42.533mm" version="1.1" style="shape-rendering:geometricPrecision; text-rendering:geometricPrecision; image-rendering:optimizeQuality; fill-rule:evenodd; clip-rule:evenodd"
viewBox="0 0 949.68 671.29"
 xmlns:xlink="http://www.w3.org/1999/xlink"
 xmlns:xodm="http://www.corel.com/coreldraw/odm/2003">
 <defs>
  <style type="text/css">
   <![CDATA[
    .str0 {stroke:white;stroke-width:11.14;stroke-miterlimit:22.9256}
    .str1 {stroke:#E6E6E6;stroke-width:3.16;stroke-miterlimit:22.9256}
    .fil5 {fill:none}
    .fil0 {fill:white}
    .fil18 {fill:#09CEFE;fill-rule:nonzero}
    .fil10 {fill:#10C6FE;fill-rule:nonzero}
    .fil12 {fill:#19BAFD;fill-rule:nonzero}
    .fil8 {fill:#1DB5FC;fill-rule:nonzero}
    .fil14 {fill:#24ACFC;fill-rule:nonzero}
    .fil9 {fill:#26A9FC;fill-rule:nonzero}
    .fil11 {fill:#329AFB;fill-rule:nonzero}
    .fil15 {fill:#3498FA;fill-rule:nonzero}
    .fil1 {fill:#34DAEA;fill-rule:nonzero}
    .fil13 {fill:#3795FA;fill-rule:nonzero}
    .fil16 {fill:#3D8DFA;fill-rule:nonzero}
    .fil7 {fill:#4B7CF8;fill-rule:nonzero}
    .fil17 {fill:#5471F8;fill-rule:nonzero}
    .fil4 {fill:#5A69F7;fill-rule:nonzero}
    .fil3 {fill:url(#id1);fill-rule:nonzero}
    .fil2 {fill:url(#id2);fill-rule:nonzero}
    .fil19 {fill:url(#id3);fill-rule:nonzero}
    .fil20 {fill:url(#id4);fill-rule:nonzero}
    .fil6 {fill:url(#id5);fill-rule:nonzero}
   ]]>
  </style>
    <clipPath id="id0">
     <path d="M51.36 1.58l846.97 0c27.38,0 49.78,22.4 49.78,49.78l0 568.57c0,27.38 -22.4,49.78 -49.78,49.78l-846.97 0c-27.38,0 -49.78,-22.4 -49.78,-49.78l0 -568.57c0,-27.38 22.4,-49.78 49.78,-49.78z"/>
    </clipPath>
  <linearGradient id="id1" gradientUnits="userSpaceOnUse" x1="-216.14" y1="-444.08" x2="725.8" y2="-168.39">
   <stop offset="0" style="stop-opacity:1; stop-color:#00D9FF"/>
   <stop offset="0.419608" style="stop-opacity:1; stop-color:#1B75FD"/>
   <stop offset="1" style="stop-opacity:1; stop-color:#B357EF"/>
  </linearGradient>
  <linearGradient id="id2" gradientUnits="userSpaceOnUse" x1="104.61" y1="-577.73" x2="643.32" y2="-1090.07">
   <stop offset="0" style="stop-opacity:1; stop-color:#00D9FF"/>
   <stop offset="1" style="stop-opacity:1; stop-color:#5A69F7"/>
  </linearGradient>
  <linearGradient id="id3" gradientUnits="userSpaceOnUse" xlink:href="#id2" x1="229.2" y1="276.31" x2="647.77" y2="308.89">
  </linearGradient>
  <linearGradient id="id4" gradientUnits="userSpaceOnUse" x1="499" y1="229.12" x2="573.45" y2="233.59">
   <stop offset="0" style="stop-opacity:1; stop-color:#3795FA"/>
   <stop offset="1" style="stop-opacity:1; stop-color:#5174F8"/>
  </linearGradient>
  <linearGradient id="id5" gradientUnits="userSpaceOnUse" xlink:href="#id2" x1="273.23" y1="428.59" x2="710.43" y2="461.14">
  </linearGradient>
 </defs>
 <g id="Слой_x0020_1">
  <metadata id="CorelCorpID_0Corel-Layer"/>
  <g id="_884010200">
   <path class="fil0" d="M51.36 1.58l846.97 0c27.38,0 49.78,22.4 49.78,49.78l0 568.57c0,27.38 -22.4,49.78 -49.78,49.78l-846.97 0c-27.38,0 -49.78,-22.4 -49.78,-49.78l0 -568.57c0,-27.38 22.4,-49.78 49.78,-49.78z"/>
   <g style="clip-path:url(#id0)">
    <g>
     <path id="1" class="fil1" d="M933.17 -998.95c-3.28,-62.79 246.11,385.48 267.59,432.42 82.78,180.89 230.93,727.64 221.83,854l-394.88 -255.9c-470.58,-294.45 -75.82,-674.45 -94.54,-1030.53z"/>
     <path class="fil2" d="M831.05 -939.43l-902.08 -5.07c-13.34,-0.08 -24.22,10.68 -24.3,24.02l-0.91 161.38c-0.02,3.22 1.54,6.29 4.23,8.07 55.48,36.85 130.29,43.46 196.97,29.91 80.63,-16.38 153.79,-57.15 229.02,-90.49 75.22,-33.33 157.8,-59.96 238.82,-45.61 76.45,13.55 141.42,61.59 210.39,97.25 18.41,9.52 37.99,18.12 58.1,24.94 6.26,2.13 12.79,-2.46 12.83,-9.08l0.96 -171.04c0.08,-13.34 -10.68,-24.22 -24.02,-24.3z"/>
     <path class="fil3" d="M519.22 -172l-551.76 0c-82.59,0 -149.55,-66.96 -149.55,-149.55 0,-82.59 66.96,-149.55 149.55,-149.55l551.76 0c82.59,0 149.55,66.96 149.55,149.55 0,82.59 -66.96,149.55 -149.55,149.55z"/>
     <path class="fil4 str0" d="M-5568.07 2486.29c-256.69,160 2198.19,-91.1 2442.51,-135.67 941.44,-171.73 2993.06,-505.74 3466.38,-889.69l-1584.09 -1440.18c-2457.47,-1044.95 -2868.85,1558.63 -4324.79,2465.54z"/>
    </g>
   </g>
   <path class="fil5 str1" d="M51.36 1.58l846.97 0c27.38,0 49.78,22.4 49.78,49.78l0 568.57c0,27.38 -22.4,49.78 -49.78,49.78l-846.97 0c-27.38,0 -49.78,-22.4 -49.78,-49.78l0 -568.57c0,-27.38 22.4,-49.78 49.78,-49.78z"/>
   <g>
    <path class="fil6" d="M674.41 291.84l0 43.69 2.1 5.16 -2.1 0.84 0 76.97 29.07 -11.86 6.36 15.6c2.78,6.89 -0.36,14.75 -7.06,17.49l-350.5 143.06c-6.61,2.69 -14.51,-0.85 -17.24,-7.58l-6.37 -15.6 268.22 -109.44 -188.6 0 -106.55 43.48 -17.76 -43.52 -17.82 0 53.59 131.33c4.68,11.4 15.56,18.73 27.73,18.73 3.79,0 7.53,-0.72 11.04,-2.18l350.47 -143.05c15.15,-6.17 22.36,-23.65 16.11,-38.96l-50.7 -124.17z"/>
    <polygon class="fil7" points="577.78,333.23 577.78,322.64 571.62,333.23 "/>
    <polygon class="fil8" points="365.01,322.64 358.88,333.23 365.01,333.23 "/>
    <path class="fil9" d="M405.31 337.79c0.65,-0.82 0.93,-1.86 0.93,-3.15 0,-1.41 -0.36,-2.53 -1.04,-3.3 -0.69,-0.77 -1.58,-1.13 -2.58,-1.13 -0.84,0 -1.58,0.25 -2.17,0.72 -0.97,0.77 -1.45,1.94 -1.45,3.59 0,1.33 0.36,2.42 1.08,3.23 0.69,0.85 1.62,1.29 2.71,1.29 1.09,0 1.94,-0.4 2.54,-1.25z"/>
    <path class="fil10" d="M293.24 397.38c0.93,0 1.77,-0.28 2.54,-0.8 0.8,-0.53 1.2,-1.5 1.2,-2.95l0 -1.58c-0.24,0.17 -0.51,0.33 -0.8,0.4 -0.28,0.13 -0.64,0.21 -1.13,0.29l-0.97 0.19c-0.93,0.17 -1.57,0.37 -1.97,0.57 -0.65,0.4 -1.01,1.01 -1.01,1.82 0,0.72 0.21,1.25 0.61,1.57 0.44,0.32 0.92,0.48 1.53,0.48z"/>
    <path class="fil11" d="M460.56 339c1.08,0 1.97,-0.33 2.62,-1.01 0.6,-0.68 0.93,-1.61 0.93,-2.82 0,-1.25 -0.33,-2.22 -0.97,-2.87 -0.65,-0.64 -1.5,-0.96 -2.58,-0.96 -1.09,0 -1.94,0.32 -2.58,0.96 -0.65,0.65 -0.97,1.62 -0.97,2.87 0,1.2 0.32,2.14 0.93,2.82 0.64,0.68 1.53,1.01 2.62,1.01z"/>
    <path class="fil12" d="M338.86 386.79c-1.09,0 -1.94,0.32 -2.53,0.92 -0.61,0.61 -0.97,1.45 -1.14,2.5l7.29 0c-0.07,-1.14 -0.44,-1.98 -1.12,-2.55 -0.68,-0.6 -1.49,-0.88 -2.5,-0.88z"/>
    <path class="fil13" d="M479.86 321.54c-0.8,0 -1.54,0.21 -2.09,0.7 -0.93,0.72 -1.42,1.92 -1.42,3.66 0,1.5 0.28,2.58 0.89,3.31 0.61,0.72 1.53,1.08 2.75,1.08 0.68,0 1.29,-0.2 1.89,-0.57 1.09,-0.72 1.65,-1.93 1.65,-3.66 0,-1.37 -0.32,-2.49 -0.96,-3.3 -0.69,-0.81 -1.58,-1.22 -2.7,-1.22z"/>
    <path class="fil11" d="M460.56 327.63c0.97,0 1.73,-0.28 2.25,-0.85 0.57,-0.57 0.86,-1.33 0.86,-2.22 0,-0.96 -0.29,-1.73 -0.86,-2.29 -0.51,-0.53 -1.28,-0.8 -2.25,-0.8 -0.97,0 -1.73,0.28 -2.3,0.8 -0.57,0.56 -0.81,1.33 -0.81,2.29 0,0.89 0.24,1.65 0.81,2.22 0.57,0.57 1.33,0.85 2.3,0.85z"/>
    <path class="fil14" d="M390.72 392.95c-0.89,0.17 -1.52,0.37 -1.92,0.57 -0.69,0.4 -1.01,1.01 -1.01,1.82 0,0.72 0.2,1.25 0.61,1.57 0.4,0.32 0.93,0.48 1.49,0.48 0.93,0 1.78,-0.28 2.58,-0.8 0.76,-0.53 1.17,-1.5 1.21,-2.95l0 -1.58c-0.28,0.17 -0.51,0.33 -0.8,0.4 -0.28,0.13 -0.68,0.21 -1.16,0.29l-0.97 0.19z"/>
    <path class="fil15" d="M461.96 392.95c-0.92,0.17 -1.57,0.37 -1.97,0.57 -0.64,0.4 -1.01,1.01 -1.01,1.82 0,0.72 0.21,1.25 0.61,1.57 0.4,0.32 0.93,0.48 1.5,0.48 0.92,0 1.81,-0.28 2.58,-0.8 0.8,-0.53 1.21,-1.5 1.21,-2.95l0 -1.58c-0.25,0.17 -0.53,0.33 -0.81,0.4 -0.29,0.13 -0.69,0.21 -1.13,0.29l-0.97 0.19z"/>
    <path class="fil16" d="M504.2 387.71c-0.6,0.61 -0.97,1.45 -1.13,2.5l7.3 0c-0.08,-1.14 -0.44,-1.98 -1.13,-2.55 -0.68,-0.6 -1.53,-0.88 -2.5,-0.88 -1.08,0 -1.93,0.32 -2.54,0.92z"/>
    <path class="fil17" d="M615.54 339.04c1.09,0 1.94,-0.4 2.53,-1.25 0.61,-0.82 0.93,-1.86 0.93,-3.15 0,-1.41 -0.36,-2.53 -1.04,-3.3 -0.73,-0.77 -1.58,-1.13 -2.58,-1.13 -0.85,0 -1.58,0.25 -2.22,0.72 -0.93,0.77 -1.41,1.94 -1.41,3.59 0,1.33 0.36,2.42 1.08,3.23 0.69,0.85 1.62,1.29 2.71,1.29z"/>
    <path class="fil18" d="M264.39 336.74c0.44,1.49 1.41,2.26 2.86,2.26 1.42,0 2.38,-0.77 2.83,-2.26 0.36,-1.29 0.57,-3.19 0.61,-5.44 0.03,-0.37 0.07,-0.69 0.07,-1.05 0,-2.98 -0.24,-5.2 -0.68,-6.61 -0.44,-1.4 -1.37,-2.13 -2.83,-2.13 -1.44,0 -2.37,0.73 -2.86,2.13 -0.49,1.46 -0.68,3.63 -0.68,6.61 0,1.45 0.04,2.7 0.15,3.83 0.12,1.05 0.29,1.94 0.53,2.66z"/>
    <path class="fil19" d="M239.57 432.08c3.83,1.81 8.06,2.9 12.57,2.9l382.1 0c8.06,0 15.35,-3.26 20.71,-8.54 5.59,-5.48 9.14,-13.13 9.14,-21.63l0 -222.24c0,-8.51 -3.54,-16.21 -9.14,-21.68 -5.36,-5.28 -12.66,-8.54 -20.71,-8.54l-382.1 0c-16.44,0 -29.82,13.54 -29.82,30.23l0 222.24c0,12.05 7.1,22.44 17.25,27.28zm19.18 -101.83c0,-4.07 0.61,-7.21 1.86,-9.43 1.29,-2.22 3.47,-3.3 6.61,-3.3 3.14,0 5.36,1.13 6.61,3.3 1.13,2.01 1.69,4.92 1.81,8.46 0,0.33 0.09,0.61 0.09,0.97 0,4.07 -0.65,7.17 -1.9,9.38 -1.25,2.18 -3.47,3.27 -6.61,3.27 -3.15,0 -5.32,-1.09 -6.61,-3.27 -0.57,-1 -0.97,-2.29 -1.29,-3.7 -0.36,-1.65 -0.57,-3.51 -0.57,-5.68zm230.87 -98.64c0,-22.49 18.3,-40.75 40.74,-40.75 8.87,0 17.01,2.95 23.69,7.74 6.94,-5.56 15.64,-9.03 25.2,-9.03 8.22,0 15.83,2.51 22.24,6.7 5.24,3.46 9.56,8.22 12.73,13.66 3.47,6 5.6,12.86 5.6,20.23 0,22.41 -18.21,40.58 -40.57,40.58 -8.75,0 -16.85,-2.83 -23.46,-7.58 -7,5.64 -15.75,9.15 -25.43,9.15 -13.13,0 -24.74,-6.36 -32.2,-16.04 -3.34,-4.35 -5.84,-9.38 -7.21,-14.86 -0.77,-3.15 -1.33,-6.41 -1.33,-9.79zm-7.66 156.59c-0.37,-0.8 -1.05,-1.2 -2.1,-1.2 -1.25,0 -2.05,0.4 -2.45,1.2 -0.25,0.45 -0.33,1.1 -0.33,1.98l0 9.79 -4.31 0 0 -16.2 4.12 0 0 2.33c0.52,-0.84 1,-1.41 1.48,-1.77 0.8,-0.64 1.9,-0.96 3.19,-0.96 1.25,0 2.26,0.28 3.02,0.81 0.6,0.51 1.09,1.16 1.42,1.97 0.56,-0.97 1.25,-1.65 2.05,-2.1 0.89,-0.48 1.86,-0.68 2.94,-0.68 0.68,0 1.42,0.11 2.1,0.4 0.68,0.28 1.33,0.77 1.9,1.44 0.44,0.61 0.76,1.29 0.93,2.09 0.07,0.57 0.16,1.37 0.16,2.43l-0.04 10.23 -4.35 0 0 -10.36c0,-0.61 -0.12,-1.12 -0.32,-1.49 -0.36,-0.77 -1.04,-1.16 -2.05,-1.16 -1.17,0 -1.97,0.52 -2.46,1.49 -0.21,0.48 -0.33,1.12 -0.33,1.85l0 9.68 -4.27 0 0 -9.68c0,-0.96 -0.07,-1.65 -0.28,-2.1zm0.32 -54.75c-0.93,0.51 -2.01,0.8 -3.34,0.8 -1.93,0 -3.7,-0.69 -5.2,-2.05 -1.53,-1.33 -2.3,-3.31 -2.3,-5.85 0,-2.62 0.77,-4.76 2.3,-6.41 1.54,-1.61 3.51,-2.45 5.92,-2.45 3.75,0 6.33,1.65 7.7,4.99 0.81,1.85 1.22,4.35 1.22,7.41 0,2.98 -0.4,5.44 -1.14,7.46 -1.44,3.79 -4.1,5.68 -7.97,5.68 -1.86,0 -3.51,-0.56 -5.01,-1.65 -1.44,-1.08 -2.29,-2.7 -2.54,-4.76l4.84 0c0.12,0.73 0.4,1.29 0.93,1.73 0.49,0.49 1.12,0.69 1.97,0.69 1.58,0 2.7,-0.89 3.35,-2.66 0.36,-0.96 0.56,-2.38 0.68,-4.23 -0.44,0.56 -0.93,0.96 -1.42,1.29zm-28.92 -6.81c-0.37,-0.93 -0.57,-1.78 -0.57,-2.58 0,-1.81 0.68,-3.31 2.06,-4.6 1.33,-1.25 3.26,-1.89 5.73,-1.89 2.46,0 4.35,0.64 5.68,1.89 1.36,1.29 2.05,2.79 2.05,4.6 0,0.8 -0.21,1.65 -0.57,2.58 -0.32,0.92 -1.12,1.73 -2.3,2.41 1.22,0.68 2.13,1.57 2.75,2.71 0.61,1.12 0.93,2.38 0.93,3.74 0,2.05 -0.76,3.83 -2.3,5.28 -1.52,1.44 -3.71,2.17 -6.45,2.17 -2.73,0 -4.84,-0.73 -6.24,-2.17 -1.41,-1.46 -2.13,-3.23 -2.13,-5.28 0,-1.37 0.32,-2.62 0.93,-3.74 0.64,-1.14 1.53,-1.98 2.74,-2.54 -1.17,-0.82 -1.93,-1.66 -2.29,-2.58zm10.83 60.49c-0.44,-0.25 -1.13,-0.36 -2.05,-0.36 -1.01,0 -1.73,0.24 -2.14,0.72 -0.32,0.36 -0.53,0.89 -0.61,1.49l-4.11 0c0.08,-1.4 0.48,-2.58 1.2,-3.5 1.1,-1.42 3.07,-2.14 5.81,-2.14 1.77,0 3.34,0.36 4.75,1.04 1.36,0.72 2.05,2.05 2.05,3.99l0 7.46c0,0.52 0.04,1.17 0.04,1.89 0.04,0.57 0.12,0.93 0.28,1.13 0.12,0.2 0.32,0.36 0.61,0.48l0 0.65 -4.64 0c-0.11,-0.32 -0.2,-0.65 -0.24,-0.93 -0.04,-0.27 -0.09,-0.6 -0.12,-0.97 -0.6,0.61 -1.29,1.18 -2.05,1.62 -0.89,0.52 -1.93,0.81 -3.1,0.81 -1.49,0 -2.69,-0.44 -3.66,-1.25 -0.97,-0.85 -1.45,-2.06 -1.45,-3.59 0,-1.97 0.76,-3.42 2.34,-4.31 0.85,-0.49 2.09,-0.85 3.75,-1.05l1.45 -0.2c0.8,-0.08 1.37,-0.21 1.69,-0.36 0.64,-0.25 0.93,-0.65 0.93,-1.21 0,-0.69 -0.25,-1.18 -0.73,-1.41zm-16.96 1c-0.4,-0.85 -1.21,-1.25 -2.39,-1.25 -1.4,0 -2.37,0.61 -2.94,1.82 -0.24,0.65 -0.4,1.49 -0.4,2.49l0 8.79 -4.23 0 0 -16.2 4.11 0 0 2.33c0.53,-0.81 1.05,-1.41 1.53,-1.77 0.85,-0.68 1.97,-1 3.3,-1 1.69,0 3.02,0.44 4.11,1.33 1.04,0.88 1.57,2.33 1.57,4.39l0 10.92 -4.35 0 0 -9.87c0,-0.85 -0.09,-1.54 -0.32,-1.98zm-23.57 8.58c0.15,0.16 0.68,0.25 1.53,0.25 0.12,0 0.28,0 0.4,0 0.16,0 0.32,0 0.44,0l0 3.15 -2.01 0.07c-2.02,0.08 -3.39,-0.28 -4.12,-1.04 -0.48,-0.48 -0.72,-1.2 -0.72,-2.26l0 -10 -2.26 0 0 -3.02 2.26 0 0 -4.51 4.23 0 0 4.51 2.62 0 0 3.02 -2.62 0 0 8.58c-0.05,0.69 0.04,1.09 0.24,1.25zm0.8 -65.44c-0.69,1.53 -1.29,3.43 -1.86,5.64 -0.57,2.17 -0.84,3.98 -0.84,5.39l-5.04 0c0.16,-4.4 1.61,-8.99 4.35,-13.74 1.77,-2.98 3.26,-5.03 4.46,-6.21l-12.24 0 0.04 -4.34 17.41 0 0 3.79c-0.73,0.72 -1.73,2.01 -3.02,3.83 -1.29,1.82 -2.37,3.7 -3.26,5.64zm-69.19 5.75l0 -4.23 9.07 -14.95 5.44 0 0 15.39 2.78 0 0 3.78 -2.78 0 0 5.28 -4.75 0 0 -5.28 -9.75 0zm11.08 40.99l4.59 0 0 18.01 10.97 0 0 3.95 -15.56 0 0 -21.96zm10.8 -36.91c-1.54,-1.29 -2.38,-3.07 -2.53,-5.37l4.83 0c0.2,1.05 0.57,1.86 1.09,2.43 0.57,0.56 1.33,0.89 2.37,0.89 1.22,0 2.1,-0.44 2.74,-1.29 0.65,-0.84 0.93,-1.9 0.93,-3.19 0,-1.25 -0.28,-2.3 -0.89,-3.19 -0.57,-0.85 -1.49,-1.29 -2.74,-1.29 -0.56,0 -1.08,0.08 -1.53,0.24 -0.76,0.24 -1.33,0.77 -1.69,1.49l-4.35 -0.2 1.73 -13.62 13.54 0 0 4.11 -10.07 0 -0.85 5.4c0.73,-0.48 1.33,-0.81 1.74,-0.96 0.68,-0.29 1.52,-0.4 2.53,-0.4 2.06,0 3.83,0.68 5.36,2.05 1.49,1.37 2.26,3.38 2.26,6 0,2.26 -0.73,4.27 -2.18,6.09 -1.48,1.78 -3.66,2.66 -6.57,2.66 -2.29,0 -4.23,-0.61 -5.72,-1.86zm15.84 46.02c-0.49,-0.25 -1.17,-0.36 -2.05,-0.36 -1.01,0 -1.73,0.24 -2.18,0.72 -0.28,0.36 -0.48,0.89 -0.61,1.49l-4.06 0c0.08,-1.4 0.49,-2.58 1.17,-3.5 1.12,-1.42 3.06,-2.14 5.8,-2.14 1.81,0 3.39,0.36 4.79,1.04 1.37,0.72 2.06,2.05 2.06,3.99l0 7.46c0,0.52 0,1.17 0.03,1.89 0.04,0.57 0.12,0.93 0.24,1.13 0.16,0.2 0.36,0.36 0.64,0.48l0 0.65 -4.63 0c-0.12,-0.32 -0.2,-0.65 -0.24,-0.93 -0.08,-0.27 -0.12,-0.6 -0.12,-0.97 -0.61,0.61 -1.29,1.18 -2.05,1.62 -0.93,0.52 -1.94,0.81 -3.11,0.81 -1.49,0 -2.71,-0.44 -3.66,-1.25 -0.96,-0.85 -1.45,-2.06 -1.45,-3.59 0,-1.97 0.77,-3.42 2.33,-4.31 0.85,-0.49 2.1,-0.85 3.75,-1.05l1.44 -0.2c0.82,-0.08 1.37,-0.21 1.69,-0.36 0.61,-0.29 0.89,-0.69 0.89,-1.21 0,-0.69 -0.2,-1.18 -0.68,-1.41zm2.85 -48.03c-1.12,-2.06 -1.69,-4.64 -1.69,-7.86 0,-1.9 0.09,-3.42 0.21,-4.59 0.28,-2.11 0.84,-3.84 1.65,-5.24 0.72,-1.17 1.65,-2.13 2.77,-2.87 1.13,-0.72 2.51,-1.09 4.08,-1.09 2.3,0 4.11,0.6 5.48,1.78 1.37,1.16 2.14,2.69 2.3,4.67l-4.83 0c0,-0.4 -0.13,-0.85 -0.45,-1.33 -0.53,-0.76 -1.33,-1.13 -2.37,-1.13 -1.58,0 -2.7,0.89 -3.34,2.62 -0.37,1 -0.61,2.41 -0.77,4.34 0.61,-0.72 1.29,-1.25 2.1,-1.57 0.81,-0.32 1.69,-0.48 2.7,-0.48 2.22,0 3.99,0.72 5.4,2.22 1.36,1.49 2.1,3.38 2.1,5.68 0,2.29 -0.69,4.31 -2.06,6.09 -1.36,1.77 -3.5,2.62 -6.41,2.62 -3.05,0 -5.36,-1.29 -6.85,-3.87zm14.72 55.56c-0.36,-0.24 -1.86,-0.68 -4.44,-1.29 -1.85,-0.44 -3.13,-1 -3.9,-1.69 -0.73,-0.68 -1.13,-1.65 -1.13,-2.94 0,-1.49 0.61,-2.78 1.78,-3.87 1.16,-1.05 2.86,-1.61 4.99,-1.61 2.02,0 3.67,0.4 4.96,1.21 1.29,0.81 2.02,2.22 2.18,4.19l-4.23 0c-0.04,-0.52 -0.2,-0.97 -0.44,-1.29 -0.48,-0.56 -1.29,-0.85 -2.38,-0.85 -0.93,0 -1.61,0.12 -2.02,0.4 -0.36,0.33 -0.57,0.65 -0.57,1.05 0,0.49 0.21,0.85 0.61,1.04 0.44,0.24 1.89,0.61 4.42,1.17 1.7,0.4 2.99,1 3.84,1.81 0.81,0.81 1.25,1.81 1.25,3.06 0,1.58 -0.61,2.91 -1.82,3.91 -1.21,1.01 -3.07,1.54 -5.56,1.54 -2.54,0 -4.43,-0.53 -5.64,-1.62 -1.25,-1.08 -1.86,-2.45 -1.86,-4.11l4.31 0c0.09,0.72 0.29,1.29 0.61,1.61 0.53,0.57 1.49,0.85 2.9,0.85 0.85,0 1.54,-0.11 2.01,-0.36 0.48,-0.27 0.73,-0.64 0.73,-1.12 0,-0.49 -0.21,-0.85 -0.61,-1.1zm-73.78 1.82c0.64,0.4 1.44,0.61 2.33,0.61 0.97,0 1.77,-0.25 2.39,-0.74 0.32,-0.28 0.59,-0.64 0.89,-1.12l4.31 0c-0.12,0.97 -0.65,1.93 -1.58,2.94 -1.44,1.57 -3.51,2.38 -6.12,2.38 -2.13,0 -4.07,-0.69 -5.68,-2.02 -1.65,-1.33 -2.5,-3.51 -2.5,-6.49 0,-2.82 0.76,-4.99 2.25,-6.49 1.49,-1.49 3.42,-2.25 5.8,-2.25 1.42,0 2.71,0.24 3.83,0.76 1.12,0.49 2.05,1.29 2.78,2.41 0.68,0.97 1.08,2.06 1.28,3.35 0.12,0.77 0.16,1.81 0.16,3.22l-11.84 0c0.08,1.61 0.64,2.78 1.69,3.43zm-3.91 -72.17c0,1.46 -0.44,2.7 -1.29,3.66 -0.57,0.65 -1.13,1.05 -1.69,1.29 0.44,0 1.04,0.37 1.89,1.13 1.25,1.17 1.86,2.7 1.86,4.67 0,2.1 -0.72,3.95 -2.17,5.52 -1.45,1.57 -3.59,2.38 -6.41,2.38 -3.46,0 -5.88,-1.18 -7.26,-3.43 -0.72,-1.22 -1.12,-2.83 -1.2,-4.76l4.76 0c0,0.96 0.15,1.81 0.48,2.46 0.6,1.17 1.65,1.77 3.22,1.77 0.93,0 1.77,-0.33 2.45,-0.97 0.73,-0.68 1.05,-1.61 1.05,-2.82 0,-1.62 -0.65,-2.71 -1.94,-3.27 -0.76,-0.28 -1.93,-0.44 -3.54,-0.44l0 -3.47c1.57,-0.04 2.65,-0.19 3.3,-0.48 0.72,-0.32 1.08,-0.92 1.33,-1.73 0.12,-0.36 0.28,-0.68 0.28,-1.12 0,-0.97 -0.28,-1.73 -0.85,-2.3 -0.53,-0.6 -1.29,-0.89 -2.29,-0.89 -1.13,0 -1.98,0.37 -2.51,1.09 -0.56,0.72 -0.8,1.69 -0.76,2.9l-4.55 0c0.08,-1.21 0.28,-2.37 0.64,-3.51 0.4,-0.93 1.01,-1.8 1.85,-2.66 0.64,-0.56 1.41,-1.01 2.26,-1.32 0.89,-0.29 1.93,-0.45 3.22,-0.45 2.34,0 4.23,0.6 5.68,1.8 1.33,1.14 1.93,2.62 2.06,4.4 0.04,0.21 0.12,0.36 0.12,0.52zm-9.35 63.83c-0.4,-0.77 -1.09,-1.16 -2.1,-1.16 -1.16,0 -1.97,0.52 -2.41,1.49 -0.24,0.48 -0.36,1.12 -0.36,1.85l0 9.68 -4.27 0 0 -9.68c0,-0.96 -0.12,-1.69 -0.28,-2.1 -0.37,-0.8 -1.09,-1.2 -2.14,-1.2 -1.22,0 -2.02,0.4 -2.42,1.2 -0.24,0.45 -0.36,1.1 -0.36,1.98l0 9.79 -4.31 0 0 -16.2 4.15 0 0 2.33c0.53,-0.84 1.01,-1.41 1.49,-1.77 0.81,-0.64 1.89,-0.96 3.18,-0.96 1.26,0 2.26,0.28 3.02,0.81 0.61,0.51 1.09,1.16 1.37,1.97 0.57,-0.97 1.25,-1.65 2.1,-2.1 0.89,-0.48 1.86,-0.68 2.91,-0.68 0.72,0 1.44,0.11 2.13,0.4 0.68,0.28 1.33,0.77 1.89,1.44 0.45,0.61 0.77,1.29 0.93,2.09 0.08,0.57 0.12,1.37 0.12,2.43l0 10.23 -4.35 0 0 -10.36c0,-0.61 -0.08,-1.12 -0.28,-1.49zm197.7 -65.39c-0.61,-0.74 -1.42,-1.05 -2.51,-1.05 -1.45,0 -2.45,0.57 -2.98,1.65 -0.32,0.65 -0.48,1.65 -0.56,3.03l-4.71 0c0.08,-2.1 0.48,-3.79 1.16,-5.08 1.29,-2.46 3.59,-3.71 6.85,-3.71 2.62,0 4.72,0.72 6.24,2.18 1.53,1.45 2.3,3.34 2.3,5.71 0,1.86 -0.53,3.47 -1.61,4.88 -0.72,0.93 -1.9,1.97 -3.55,3.15l-1.93 1.36c-1.22,0.85 -2.06,1.49 -2.5,1.86 -0.45,0.4 -0.81,0.85 -1.13,1.37l10.76 0 0 4.27 -16.89 0c0.04,-1.78 0.44,-3.39 1.17,-4.88 0.68,-1.61 2.29,-3.34 4.87,-5.2 2.22,-1.57 3.68,-2.73 4.36,-3.42 1.01,-1.09 1.49,-2.25 1.49,-3.54 0,-1.05 -0.29,-1.9 -0.84,-2.58zm-10.68 61.33c1.13,0.49 2.1,1.29 2.82,2.41 0.68,0.97 1.09,2.06 1.29,3.35 0.13,0.77 0.17,1.81 0.17,3.22l-11.85 0c0.08,1.61 0.65,2.78 1.69,3.43 0.65,0.4 1.45,0.61 2.34,0.61 0.97,0 1.77,-0.25 2.37,-0.74 0.32,-0.28 0.61,-0.64 0.89,-1.12l4.31 0c-0.12,0.97 -0.64,1.93 -1.57,2.94 -1.46,1.57 -3.51,2.38 -6.09,2.38 -2.18,0 -4.07,-0.69 -5.72,-2.02 -1.65,-1.33 -2.5,-3.51 -2.5,-6.49 0,-2.82 0.76,-4.99 2.26,-6.49 1.49,-1.49 3.42,-2.25 5.8,-2.25 1.42,0 2.66,0.24 3.8,0.76zm-7.62 -41.75l-4.95 0 0 -16.96 -5.81 0 0 -3.31c1.54,-0.04 2.62,-0.15 3.23,-0.28 0.96,-0.24 1.77,-0.65 2.37,-1.29 0.4,-0.44 0.73,-1.05 0.93,-1.77 0.13,-0.44 0.21,-0.76 0.21,-0.97l4.02 0 0 24.59zm55.77 -10.36c-0.72,-0.28 -1.89,-0.44 -3.5,-0.44l0 -3.47c1.57,-0.04 2.65,-0.19 3.3,-0.48 1.05,-0.48 1.57,-1.4 1.57,-2.86 0,-0.97 -0.24,-1.73 -0.8,-2.3 -0.57,-0.6 -1.33,-0.89 -2.29,-0.89 -1.13,0 -1.98,0.37 -2.55,1.09 -0.51,0.72 -0.76,1.69 -0.76,2.9l-4.51 0c0.04,-1.21 0.28,-2.37 0.64,-3.51 0.4,-0.93 1.01,-1.8 1.85,-2.66 0.64,-0.56 1.41,-1.01 2.26,-1.32 0.89,-0.29 1.93,-0.45 3.22,-0.45 2.34,0 4.23,0.6 5.68,1.8 1.45,1.22 2.17,2.87 2.17,4.92 0,1.46 -0.44,2.66 -1.29,3.66 -0.56,0.65 -1.13,1.05 -1.69,1.26 0.44,0 1.04,0.4 1.89,1.17 1.25,1.13 1.86,2.7 1.86,4.67 0,2.1 -0.72,3.91 -2.18,5.48 -1.45,1.61 -3.59,2.38 -6.41,2.38 -3.47,0 -5.88,-1.14 -7.26,-3.42 -0.72,-1.22 -1.12,-2.79 -1.21,-4.76l4.76 0c0,1 0.15,1.8 0.49,2.45 0.6,1.21 1.65,1.77 3.22,1.77 0.93,0 1.77,-0.32 2.45,-0.97 0.73,-0.64 1.05,-1.57 1.05,-2.82 0,-1.58 -0.65,-2.66 -1.98,-3.23zm26.65 1.29l0 3.78 -2.83 0 0 5.28 -4.72 0 0 -5.28 -9.75 0 0 -4.23 9.07 -14.95 5.44 0 0 15.39 2.79 0zm13.13 -1.86c-0.57,-0.85 -1.49,-1.29 -2.74,-1.29 -0.56,0 -1.08,0.08 -1.53,0.24 -0.76,0.24 -1.33,0.77 -1.69,1.49l-4.35 -0.2 1.73 -13.62 13.54 0 0 4.11 -10.07 0 -0.89 5.4c0.77,-0.48 1.33,-0.81 1.78,-0.96 0.68,-0.29 1.52,-0.4 2.53,-0.4 2.06,0 3.83,0.68 5.31,2.05 1.53,1.37 2.3,3.38 2.3,6 0,2.26 -0.73,4.27 -2.18,6.09 -1.48,1.78 -3.66,2.66 -6.56,2.66 -2.34,0 -4.28,-0.61 -5.77,-1.86 -1.54,-1.25 -2.34,-3.07 -2.5,-5.37l4.8 0c0.2,1.05 0.56,1.86 1.09,2.43 0.57,0.6 1.37,0.89 2.38,0.89 1.21,0 2.14,-0.44 2.74,-1.29 0.65,-0.81 0.93,-1.9 0.93,-3.19 0.04,-1.25 -0.24,-2.3 -0.85,-3.19zm24.95 -7.49l-4.84 0c0,-0.4 -0.16,-0.85 -0.45,-1.29 -0.53,-0.76 -1.33,-1.16 -2.37,-1.16 -1.58,0 -2.71,0.89 -3.36,2.65 -0.36,0.97 -0.6,2.42 -0.77,4.31 0.61,-0.72 1.29,-1.25 2.1,-1.57 0.81,-0.32 1.69,-0.48 2.71,-0.48 2.18,0 3.99,0.72 5.4,2.22 1.36,1.49 2.09,3.38 2.09,5.68 0,2.33 -0.69,4.35 -2.06,6.09 -1.36,1.77 -3.5,2.65 -6.41,2.65 -3.1,0 -5.4,-1.29 -6.85,-3.9 -1.16,-2.02 -1.73,-4.64 -1.73,-7.86 0,-1.85 0.09,-3.38 0.25,-4.56 0.28,-2.1 0.84,-3.87 1.65,-5.23 0.72,-1.22 1.65,-2.17 2.78,-2.91 1.13,-0.72 2.51,-1.09 4.07,-1.09 2.3,0 4.11,0.6 5.48,1.78 1.37,1.16 2.09,2.73 2.3,4.67zm-317.67 -6.32c2.58,0 4.67,0.72 6.21,2.18 1.53,1.45 2.3,3.34 2.3,5.71 0,1.86 -0.53,3.47 -1.61,4.88 -0.68,0.93 -1.86,1.93 -3.47,3.11 -0.04,0 -0.04,0 -0.08,0.04l-1.93 1.36c-1.22,0.85 -2.02,1.49 -2.51,1.86 -0.43,0.4 -0.8,0.85 -1.12,1.37l10.76 0 0 4.23 -16.85 0c0.04,-1.61 0.4,-3.15 1.01,-4.51 0.04,-0.08 0.09,-0.21 0.12,-0.33 0.68,-1.61 2.29,-3.38 4.87,-5.2 2.22,-1.61 3.68,-2.73 4.36,-3.42 1.01,-1.09 1.49,-2.25 1.49,-3.54 0,-1.05 -0.29,-1.9 -0.84,-2.62 -0.61,-0.69 -1.42,-1.01 -2.51,-1.01 -1.44,0 -2.45,0.52 -2.98,1.65 -0.32,0.61 -0.48,1.61 -0.56,3.03l-4.71 0c0.07,-2.1 0.49,-3.79 1.16,-5.08 0.57,-1.09 1.41,-1.82 2.34,-2.42 0.44,-0.29 0.96,-0.44 1.49,-0.61 0.93,-0.32 1.86,-0.68 3.06,-0.68zm-35.26 82.41l-4.27 0 0 -21.96 4.84 0 8.7 15.31 0 -15.31 4.27 0 0 21.96 -4.59 0 -8.95 -15.59 0 15.59zm14.71 -57.67l0 -16.96 -5.77 0 0 -3.31c1.5,-0.04 2.58,-0.15 3.19,-0.28 0.97,-0.24 1.77,-0.65 2.37,-1.29 0.4,-0.44 0.73,-1.05 0.93,-1.77 0.12,-0.44 0.2,-0.76 0.2,-0.97l4.02 0 0 24.63 -4.95 0 0 -0.04zm-15.88 -76.93l0 -15.68 15.71 0 0 16.04 -15.71 0c0,-0.16 0,-0.24 0,-0.36zm15.71 20.95c-6.28,-1.89 -11.4,-6.4 -13.98,-12.37l13.98 0 0 12.37zm8.26 -12.37l13.57 0 0 13.38 -13.57 0 0 -13.38zm21.84 0l13.95 0c-2.54,5.97 -7.66,10.48 -13.95,12.37l0 -12.37zm15.72 -8.58c0,0.12 0,0.21 0,0.36l-15.72 0 0 -16.04 15.75 0 0 15.68 -0.03 0zm-19.82 -23.93l-4.16 0 0 24.3 -13.57 0 0 -39.98 15.64 0c9.91,0 18.21,6.65 20.91,15.68l-18.81 0zm-26 0l-14.71 0c2.13,-7.06 7.66,-12.58 14.71,-14.67l0 14.67zm4.19 149.86c0.85,-0.48 2.1,-0.85 3.76,-1.05l1.44 -0.15c0.81,-0.12 1.37,-0.25 1.69,-0.4 0.61,-0.25 0.93,-0.65 0.93,-1.17 0,-0.69 -0.24,-1.13 -0.73,-1.41 -0.44,-0.25 -1.13,-0.36 -2.05,-0.36 -1.01,0 -1.73,0.24 -2.14,0.72 -0.33,0.36 -0.53,0.89 -0.61,1.49l-4.11 0c0.07,-1.4 0.48,-2.58 1.21,-3.5 1.12,-1.42 3.06,-2.14 5.79,-2.14 1.78,0 3.35,0.36 4.76,1.04 1.37,0.72 2.1,2.05 2.1,3.99l0 7.46c0,0.52 0,1.17 0,1.89 0.04,0.57 0.13,0.93 0.29,1.13 0.11,0.2 0.32,0.36 0.6,0.48l0 0.65 -4.59 0c-0.16,-0.32 -0.24,-0.65 -0.28,-0.93 -0.04,-0.27 -0.09,-0.6 -0.12,-0.97 -0.57,0.61 -1.25,1.18 -2.01,1.62 -0.93,0.52 -1.98,0.81 -3.15,0.81 -1.49,0 -2.7,-0.44 -3.67,-1.25 -0.96,-0.85 -1.44,-2.06 -1.44,-3.59 0,-2.01 0.76,-3.47 2.33,-4.35z"/>
    <path class="fil20" d="M506.14 253c5.96,6.73 14.55,11.08 24.21,11.08 6.93,0 13.3,-2.22 18.58,-5.92l13.62 0c0.13,-0.09 0.21,-0.21 0.29,-0.29 2.22,-1.77 4.23,-3.74 5.96,-6.01l-23.73 0c-0.97,-1.53 -1.86,-3.13 -2.62,-4.82l29.5 0c1.04,-1.98 1.89,-4.08 2.58,-6.25l-34.26 0c-0.15,-0.53 -0.36,-1 -0.48,-1.48 -0.28,-1.29 -0.4,-2.62 -0.56,-3.95l36.55 0c0.19,-1.61 0.48,-3.23 0.48,-4.92 0,-0.44 -0.12,-0.89 -0.12,-1.33l-37.35 0c0.04,-1.8 0.24,-3.54 0.53,-5.27l36.26 0c-0.4,-2.18 -1.04,-4.23 -1.86,-6.26l-32.84 0c0.61,-1.89 1.33,-3.66 2.22,-5.44l27.88 0c-0.56,-0.93 -1.33,-1.73 -1.98,-2.62 -0.88,-1.21 -1.69,-2.54 -2.78,-3.63l-19.26 0c0.36,-0.52 0.76,-0.96 1.17,-1.44 -5.12,-3.35 -11.2,-5.33 -17.78,-5.33 -17.89,0 -32.47,14.55 -32.47,32.49 0,2.29 0.28,4.51 0.72,6.64 1.17,5.64 3.87,10.63 7.54,14.75z"/>
   </g>
  </g>
 </g>
</svg>
