<?xml version="1.0" encoding="UTF-8"?>
<!DOCTYPE svg PUBLIC "-//W3C//DTD SVG 1.1//EN" "http://www.w3.org/Graphics/SVG/1.1/DTD/svg11.dtd">
<!-- Creator: CorelDRAW 2019 -->
<svg xmlns="http://www.w3.org/2000/svg" xml:space="preserve" width="30mm" height="19.1934mm" version="1.1" style="shape-rendering:geometricPrecision; text-rendering:geometricPrecision; image-rendering:optimizeQuality; fill-rule:evenodd; clip-rule:evenodd"
viewBox="0 0 218.75 139.95"
 xmlns:xlink="http://www.w3.org/1999/xlink"
 xmlns:xodm="http://www.corel.com/coreldraw/odm/2003">
 <defs>
  <style type="text/css">
   <![CDATA[
    .fil0 {fill:white;fill-rule:nonzero}
    .fil2 {fill:url(#id0);fill-rule:nonzero}
    .fil1 {fill:url(#id1);fill-rule:nonzero}
   ]]>
  </style>
  <linearGradient id="id0" gradientUnits="userSpaceOnUse" x1="137.01" y1="38.02" x2="173.87" y2="40.24">
   <stop offset="0" style="stop-opacity:1; stop-color:#3795FA"/>
   <stop offset="1" style="stop-opacity:1; stop-color:#5174F8"/>
  </linearGradient>
  <linearGradient id="id1" gradientUnits="userSpaceOnUse" x1="3.41" y1="61.39" x2="210.67" y2="77.52">
   <stop offset="0" style="stop-opacity:1; stop-color:#00D9FF"/>
   <stop offset="1" style="stop-opacity:1; stop-color:#5A69F7"/>
  </linearGradient>
 </defs>
 <g id="Слой_x0020_1">
  <metadata id="CorelCorpID_0Corel-Layer"/>
  <polygon class="fil0" points="176.01,89.57 176.01,84.33 172.96,89.57 "/>
  <polygon class="fil0" points="70.66,84.33 67.62,89.57 70.66,89.57 "/>
  <path class="fil0" d="M90.61 91.83c0.32,-0.4 0.46,-0.92 0.46,-1.56 0,-0.7 -0.18,-1.26 -0.52,-1.63 -0.34,-0.38 -0.78,-0.56 -1.28,-0.56 -0.42,0 -0.78,0.12 -1.08,0.36 -0.48,0.38 -0.72,0.96 -0.72,1.78 0,0.66 0.18,1.2 0.54,1.6 0.34,0.42 0.8,0.64 1.34,0.64 0.54,0 0.96,-0.2 1.26,-0.62z"/>
  <path class="fil0" d="M35.12 121.34c0.46,0 0.88,-0.14 1.26,-0.4 0.4,-0.26 0.6,-0.74 0.6,-1.46l0 -0.78c-0.12,0.08 -0.25,0.16 -0.4,0.2 -0.14,0.06 -0.32,0.1 -0.56,0.14l-0.48 0.1c-0.46,0.08 -0.78,0.18 -0.97,0.28 -0.32,0.2 -0.5,0.5 -0.5,0.9 0,0.36 0.1,0.62 0.3,0.78 0.22,0.16 0.45,0.24 0.76,0.24z"/>
  <path class="fil0" d="M117.97 92.43c0.54,0 0.98,-0.16 1.3,-0.5 0.3,-0.34 0.46,-0.8 0.46,-1.39 0,-0.62 -0.16,-1.1 -0.48,-1.42 -0.32,-0.32 -0.74,-0.47 -1.28,-0.47 -0.54,0 -0.96,0.16 -1.28,0.47 -0.32,0.32 -0.48,0.8 -0.48,1.42 0,0.6 0.16,1.06 0.46,1.39 0.32,0.34 0.76,0.5 1.3,0.5z"/>
  <path class="fil0" d="M57.71 116.09c-0.54,0 -0.96,0.16 -1.25,0.46 -0.3,0.3 -0.48,0.72 -0.56,1.24l3.61 0c-0.04,-0.56 -0.22,-0.98 -0.56,-1.26 -0.34,-0.3 -0.74,-0.43 -1.24,-0.43z"/>
  <path class="fil0" d="M127.53 83.78c-0.4,0 -0.76,0.1 -1.04,0.34 -0.46,0.36 -0.7,0.95 -0.7,1.81 0,0.74 0.14,1.28 0.44,1.64 0.3,0.36 0.76,0.54 1.36,0.54 0.34,0 0.64,-0.1 0.94,-0.28 0.54,-0.36 0.82,-0.95 0.82,-1.81 0,-0.68 -0.16,-1.24 -0.47,-1.63 -0.34,-0.4 -0.78,-0.6 -1.34,-0.6z"/>
  <path class="fil0" d="M117.97 86.8c0.48,0 0.86,-0.14 1.11,-0.42 0.28,-0.28 0.42,-0.66 0.42,-1.1 0,-0.48 -0.14,-0.86 -0.42,-1.13 -0.26,-0.26 -0.63,-0.4 -1.11,-0.4 -0.48,0 -0.86,0.14 -1.14,0.4 -0.28,0.27 -0.4,0.66 -0.4,1.13 0,0.44 0.12,0.82 0.4,1.1 0.28,0.28 0.66,0.42 1.14,0.42z"/>
  <path class="fil0" d="M83.39 119.14c-0.44,0.08 -0.75,0.18 -0.95,0.28 -0.34,0.2 -0.5,0.5 -0.5,0.9 0,0.36 0.1,0.62 0.3,0.78 0.2,0.16 0.46,0.24 0.74,0.24 0.46,0 0.88,-0.14 1.28,-0.4 0.38,-0.26 0.58,-0.74 0.6,-1.46l0 -0.78c-0.14,0.08 -0.25,0.16 -0.4,0.2 -0.14,0.06 -0.34,0.1 -0.58,0.14l-0.48 0.1z"/>
  <path class="fil0" d="M118.66 119.14c-0.46,0.08 -0.78,0.18 -0.98,0.28 -0.32,0.2 -0.5,0.5 -0.5,0.9 0,0.36 0.1,0.62 0.3,0.78 0.2,0.16 0.46,0.24 0.74,0.24 0.46,0 0.89,-0.14 1.28,-0.4 0.4,-0.26 0.6,-0.74 0.6,-1.46l0 -0.78c-0.12,0.08 -0.26,0.16 -0.4,0.2 -0.14,0.06 -0.34,0.1 -0.56,0.14l-0.48 0.1z"/>
  <path class="fil0" d="M139.58 116.55c-0.3,0.3 -0.48,0.72 -0.56,1.24l3.61 0c-0.04,-0.56 -0.22,-0.98 -0.56,-1.26 -0.34,-0.3 -0.76,-0.43 -1.24,-0.43 -0.54,0 -0.96,0.16 -1.26,0.46z"/>
  <path class="fil0" d="M194.71 92.45c0.54,0 0.96,-0.2 1.25,-0.62 0.3,-0.4 0.46,-0.92 0.46,-1.56 0,-0.7 -0.18,-1.26 -0.52,-1.63 -0.36,-0.38 -0.78,-0.56 -1.28,-0.56 -0.42,0 -0.78,0.12 -1.1,0.36 -0.46,0.38 -0.7,0.96 -0.7,1.78 0,0.66 0.18,1.2 0.54,1.6 0.34,0.42 0.8,0.64 1.34,0.64z"/>
  <path class="fil0" d="M20.83 91.31c0.22,0.74 0.7,1.12 1.41,1.12 0.7,0 1.18,-0.38 1.4,-1.12 0.18,-0.64 0.28,-1.58 0.3,-2.69 0.02,-0.18 0.04,-0.34 0.04,-0.52 0,-1.48 -0.12,-2.57 -0.34,-3.28 -0.22,-0.69 -0.68,-1.06 -1.4,-1.06 -0.72,0 -1.17,0.36 -1.41,1.06 -0.24,0.72 -0.34,1.8 -0.34,3.28 0,0.72 0.02,1.34 0.08,1.9 0.06,0.52 0.14,0.96 0.26,1.32z"/>
  <path class="fil1" d="M8.54 138.52c1.9,0.9 3.99,1.43 6.23,1.43l189.2 0c3.99,0 7.6,-1.61 10.26,-4.23 2.77,-2.71 4.53,-6.5 4.53,-10.71l0 -110.05c0,-4.21 -1.76,-8.03 -4.53,-10.74 -2.65,-2.62 -6.27,-4.23 -10.26,-4.23l-189.2 0c-8.14,0 -14.77,6.7 -14.77,14.97l0 110.05c0,5.97 3.51,11.11 8.54,13.51zm123.81 -99.27c0,-11.14 9.06,-20.18 20.17,-20.18 4.39,0 8.42,1.46 11.73,3.83 3.43,-2.75 7.74,-4.47 12.48,-4.47 4.07,0 7.84,1.24 11.01,3.32 2.6,1.72 4.73,4.07 6.3,6.76 1.72,2.97 2.77,6.36 2.77,10.02 0,11.09 -9.01,20.09 -20.09,20.09 -4.33,0 -8.34,-1.4 -11.62,-3.75 -3.47,2.79 -7.8,4.53 -12.59,4.53 -6.5,0 -12.25,-3.15 -15.94,-7.94 -1.65,-2.15 -2.89,-4.65 -3.57,-7.36 -0.38,-1.56 -0.66,-3.17 -0.66,-4.85z"/>
  <path class="fil2" d="M140.54 49.85c2.95,3.33 7.2,5.48 11.99,5.48 3.43,0 6.59,-1.1 9.2,-2.93l6.74 0c0.06,-0.04 0.1,-0.1 0.14,-0.14 1.1,-0.88 2.09,-1.85 2.95,-2.97l-11.75 0c-0.48,-0.76 -0.92,-1.55 -1.3,-2.39l14.61 0c0.52,-0.98 0.93,-2.02 1.28,-3.1l-16.96 0c-0.08,-0.26 -0.18,-0.5 -0.24,-0.73 -0.14,-0.64 -0.2,-1.3 -0.27,-1.96l18.1 0c0.1,-0.8 0.24,-1.6 0.24,-2.44 0,-0.22 -0.06,-0.44 -0.06,-0.66l-18.49 0c0.02,-0.89 0.12,-1.75 0.26,-2.61l17.96 0c-0.2,-1.08 -0.52,-2.09 -0.92,-3.1l-16.26 0c0.3,-0.93 0.66,-1.81 1.1,-2.69l13.8 0c-0.28,-0.46 -0.66,-0.86 -0.98,-1.3 -0.44,-0.6 -0.84,-1.26 -1.38,-1.8l-9.54 0c0.18,-0.25 0.38,-0.47 0.58,-0.71 -2.53,-1.66 -5.55,-2.64 -8.8,-2.64 -8.86,0 -16.08,7.2 -16.08,16.09 0,1.13 0.14,2.23 0.36,3.29 0.58,2.79 1.91,5.27 3.73,7.31z"/>
  <path class="fil0" d="M40.9 101.6l6.63 4.62 50.6 -67.56 -6.53 -4.92 -50.7 67.87zm-13.35 -49.79c0,10.74 8.33,17.97 19.78,17.97 11.45,0 19.78,-7.23 19.78,-17.97 0,-10.84 -8.33,-17.87 -19.78,-17.87 -11.45,0 -19.78,7.03 -19.78,17.87zm10.84 0c0,-5.22 3.91,-8.53 8.93,-8.53 5.12,0 9.04,3.31 9.04,8.53 0,5.32 -3.82,8.63 -9.04,8.63 -4.92,0 -8.93,-3.31 -8.93,-8.63zm33.53 36.34c0,10.74 8.33,17.97 19.78,17.97 11.44,0 19.78,-7.23 19.78,-17.97 0,-10.84 -8.33,-17.87 -19.78,-17.87 -11.45,0 -19.78,7.03 -19.78,17.87zm10.84 0c0,-5.22 3.91,-8.53 8.93,-8.53 5.12,0 9.04,3.31 9.04,8.53 0,5.32 -3.82,8.63 -9.04,8.63 -4.92,0 -8.93,-3.31 -8.93,-8.63z"/>
 </g>
</svg>
