<?xml version="1.0" encoding="UTF-8"?>
<!DOCTYPE svg PUBLIC "-//W3C//DTD SVG 1.1//EN" "http://www.w3.org/Graphics/SVG/1.1/DTD/svg11.dtd">
<!-- Creator: CorelDRAW 2019 -->
<svg xmlns="http://www.w3.org/2000/svg" xml:space="preserve" width="30mm" height="19.1934mm" version="1.1" style="shape-rendering:geometricPrecision; text-rendering:geometricPrecision; image-rendering:optimizeQuality; fill-rule:evenodd; clip-rule:evenodd"
viewBox="0 0 218.75 139.95"
 xmlns:xlink="http://www.w3.org/1999/xlink"
 xmlns:xodm="http://www.corel.com/coreldraw/odm/2003">
 <defs>
  <style type="text/css">
   <![CDATA[
    .fil0 {fill:white;fill-rule:nonzero}
    .fil1 {fill:url(#id0);fill-rule:nonzero}
    .fil2 {fill:url(#id1);fill-rule:nonzero}
   ]]>
  </style>
  <linearGradient id="id0" gradientUnits="userSpaceOnUse" x1="3.41" y1="61.39" x2="210.67" y2="77.52">
   <stop offset="0" style="stop-opacity:1; stop-color:#00D9FF"/>
   <stop offset="1" style="stop-opacity:1; stop-color:#5A69F7"/>
  </linearGradient>
  <linearGradient id="id1" gradientUnits="userSpaceOnUse" x1="137.01" y1="38.02" x2="173.87" y2="40.24">
   <stop offset="0" style="stop-opacity:1; stop-color:#3795FA"/>
   <stop offset="1" style="stop-opacity:1; stop-color:#5174F8"/>
  </linearGradient>
 </defs>
 <g id="Слой_x0020_1">
  <metadata id="CorelCorpID_0Corel-Layer"/>
  <g id="_926040808">
   <polygon class="fil0" points="176.01,89.57 176.01,84.33 172.96,89.57 "/>
   <path class="fil0" d="M139.58 116.55c-0.3,0.3 -0.48,0.72 -0.56,1.24l3.61 0c-0.04,-0.56 -0.22,-0.98 -0.56,-1.26 -0.34,-0.3 -0.76,-0.43 -1.24,-0.43 -0.54,0 -0.96,0.16 -1.26,0.46z"/>
   <path class="fil0" d="M194.71 92.45c0.54,0 0.96,-0.2 1.25,-0.62 0.3,-0.4 0.46,-0.92 0.46,-1.56 0,-0.7 -0.18,-1.26 -0.52,-1.63 -0.36,-0.38 -0.78,-0.56 -1.28,-0.56 -0.42,0 -0.78,0.12 -1.1,0.36 -0.46,0.38 -0.7,0.96 -0.7,1.78 0,0.66 0.18,1.2 0.54,1.6 0.34,0.42 0.8,0.64 1.34,0.64z"/>
   <path class="fil1" d="M8.54 138.52c1.9,0.9 3.99,1.43 6.23,1.43l189.2 0c3.99,0 7.6,-1.61 10.26,-4.23 2.77,-2.71 4.53,-6.5 4.53,-10.71l0 -110.05c0,-4.21 -1.76,-8.03 -4.53,-10.74 -2.65,-2.62 -6.27,-4.23 -10.26,-4.23l-189.2 0c-8.14,0 -14.77,6.7 -14.77,14.97l0 110.05c0,5.97 3.51,11.11 8.54,13.51zm123.81 -99.27c0,-11.14 9.06,-20.18 20.17,-20.18 4.39,0 8.42,1.46 11.73,3.83 3.43,-2.75 7.74,-4.47 12.48,-4.47 4.07,0 7.84,1.24 11.01,3.32 2.6,1.72 4.73,4.07 6.3,6.76 1.72,2.97 2.77,6.36 2.77,10.02 0,11.09 -9.01,20.09 -20.09,20.09 -4.33,0 -8.34,-1.4 -11.62,-3.75 -3.47,2.79 -7.8,4.53 -12.59,4.53 -6.5,0 -12.25,-3.15 -15.94,-7.94 -1.65,-2.15 -2.89,-4.65 -3.57,-7.36 -0.38,-1.56 -0.66,-3.17 -0.66,-4.85z"/>
   <path class="fil2" d="M140.54 49.85c2.95,3.33 7.2,5.48 11.99,5.48 3.43,0 6.59,-1.1 9.2,-2.93l6.74 0c0.06,-0.04 0.1,-0.1 0.14,-0.14 1.1,-0.88 2.09,-1.85 2.95,-2.97l-11.75 0c-0.48,-0.76 -0.92,-1.55 -1.3,-2.39l14.61 0c0.52,-0.98 0.93,-2.02 1.28,-3.1l-16.96 0c-0.08,-0.26 -0.18,-0.5 -0.24,-0.73 -0.14,-0.64 -0.2,-1.3 -0.27,-1.96l18.1 0c0.1,-0.8 0.24,-1.6 0.24,-2.44 0,-0.22 -0.06,-0.44 -0.06,-0.66l-18.49 0c0.02,-0.89 0.12,-1.75 0.26,-2.61l17.96 0c-0.2,-1.08 -0.52,-2.09 -0.92,-3.1l-16.26 0c0.3,-0.93 0.66,-1.81 1.1,-2.69l13.8 0c-0.28,-0.46 -0.66,-0.86 -0.98,-1.3 -0.44,-0.6 -0.84,-1.26 -1.38,-1.8l-9.54 0c0.18,-0.25 0.38,-0.47 0.58,-0.71 -2.53,-1.66 -5.55,-2.64 -8.8,-2.64 -8.86,0 -16.08,7.2 -16.08,16.09 0,1.13 0.14,2.23 0.36,3.29 0.58,2.79 1.91,5.27 3.73,7.31z"/>
  </g>
  <g>
   <path class="fil0" d="M103.45 73.2c-0.03,0.38 -0.07,0.76 -0.11,1.14l0 0c-0.2,1.81 -0.53,3.62 -0.99,5.37l6.94 1.8c0.65,-2.5 1.09,-5.07 1.3,-7.65l-0.01 -0c0.02,-0.22 0.04,-0.44 0.05,-0.66l-7.19 0 0 0zm-6.47 18.4l5.94 4.01c1.45,-2.15 2.72,-4.43 3.79,-6.78l-6.53 -2.95c-0.9,1.98 -1.97,3.91 -3.19,5.72zm-9.02 9.44l4.28 5.75c2.07,-1.54 4.03,-3.27 5.81,-5.14l-5.18 -4.95c-1.51,1.58 -3.16,3.04 -4.91,4.34zm-11.63 5.91l2.11 6.85c2.47,-0.76 4.89,-1.74 7.19,-2.91l-3.24 -6.39c-1.94,0.99 -3.98,1.81 -6.06,2.46zm27.43 -74.59l0 13.27c-3.37,-5.38 -7.83,-10.01 -13.16,-13.62 -7.6,-5.16 -16.49,-7.88 -25.71,-7.88 -12.25,0 -23.76,4.77 -32.42,13.43 -8.66,8.66 -13.43,20.18 -13.43,32.42 0,12.25 4.77,23.76 13.43,32.42 8.66,8.66 20.18,13.43 32.42,13.43 1.99,0 4,-0.13 5.97,-0.39l-0.92 -7.11c-1.66,0.22 -3.36,0.33 -5.04,0.33 -21.33,0 -38.69,-17.36 -38.69,-38.69 0,-21.33 17.36,-38.69 38.69,-38.69 13.85,0 26.41,7.3 33.31,18.99l-12.35 0 0 7.16 25.08 0 0 -25.08 -7.16 0zm-42.27 5.37l7.16 0 0 35.82 -27.23 0 0 -7.16 20.06 0 0 -28.66z"/>
   <path id="1" class="fil0" d="M103.34 73.37l0 1.94 -0.96 -1.08 0 -0.04 0 -0.04 0 -0.04 0 -0.03 0 -0.03 0 -0.04 0 -0.04 0.01 -0.04 0 -0.04 0 -0.03 0 -0.04 0 -0.04 0 -0.04 0 -0.04 0 -0.04 0 -0.03 0 -0.04 0 -0.05 0 -0.04 0 -0.03 0 -0.04 0 -0.04 0 -0.04 0 -0.04 0 -0.04 0 -0.04 0 -0.03 0 -0.05 0 -0.04 0 -0.03 0 -0.04 0 -0.04 1.93 0.16 -0 0.04 -0 0.04 -0 0.05 -0 0.04 -0 0.03 -0 0.05 -0 0.04 -0 0.04 -0 0.04 -0 0.04 -0 0.04 -0 0.04 -0 0.05 -0 0.04 -0 0.03 -0 0.04 -0 0.05 -0 0.04 -0 0.04 -0 0.04 -0 0.04 -0 0.04 -0.01 0.05 -0 0.04 -0 0.03 -0 0.04 -0 0.04 -0.01 0.05 -0 0.04 -0 0.04 -0 0.03 -0 0.04 -0.96 -1.08zm0 1.94l-1.08 0 0.12 -1.08 0.96 1.08zm0 0l-0 0 0 -1.94 0 0 0.96 1.08 -0.96 0.86zm0 -1.94l1.08 0 -0.12 1.08 -0.96 -1.08zm-0.75 5.4l-0.49 1.87 -0.69 -1.18 0.04 -0.16 0.04 -0.16 0.04 -0.16 0.04 -0.16 0.04 -0.16 0.04 -0.16 0.04 -0.16 0.04 -0.16 0.04 -0.16 0.03 -0.16 0.03 -0.16 0.03 -0.16 0.03 -0.16 0.03 -0.16 0.03 -0.16 0.03 -0.16 0.03 -0.16 0.03 -0.17 0.03 -0.16 0.03 -0.16 0.03 -0.16 0.03 -0.17 0.03 -0.16 0.02 -0.16 0.02 -0.17 0.02 -0.17 0.02 -0.17 0.02 -0.17 0.02 -0.16 0.02 -0.17 0.02 -0.17 0.02 -0.16 1.92 0.22 -0.02 0.18 -0.02 0.17 -0.02 0.17 -0.02 0.18 -0.02 0.17 -0.02 0.17 -0.02 0.17 -0.02 0.17 -0.03 0.18 -0.03 0.17 -0.03 0.17 -0.03 0.17 -0.03 0.17 -0.03 0.17 -0.03 0.17 -0.03 0.17 -0.03 0.17 -0.03 0.17 -0.03 0.17 -0.03 0.17 -0.04 0.17 -0.04 0.17 -0.04 0.17 -0.04 0.17 -0.04 0.17 -0.04 0.17 -0.04 0.17 -0.04 0.17 -0.04 0.17 -0.04 0.17 -0.04 0.17 -0.04 0.17 -0.69 -1.18zm-0.49 1.87l-0.94 -0.24 0.24 -0.94 0.69 1.18zm6.94 1.8l-6.94 -1.8 0.49 -1.87 6.94 1.8 0.69 1.18 -1.18 0.69zm1.18 -0.69l-0.24 0.94 -0.94 -0.24 1.18 -0.69zm0.23 -6.94l0.27 -1.92 0.83 1.04 -0.02 0.25 -0.02 0.25 -0.02 0.25 -0.03 0.25 -0.03 0.25 -0.03 0.25 -0.03 0.25 -0.03 0.25 -0.03 0.25 -0.03 0.25 -0.03 0.25 -0.04 0.25 -0.04 0.25 -0.04 0.25 -0.04 0.24 -0.04 0.25 -0.04 0.25 -0.04 0.24 -0.04 0.24 -0.05 0.24 -0.05 0.24 -0.05 0.24 -0.05 0.24 -0.05 0.24 -0.05 0.24 -0.05 0.24 -0.06 0.24 -0.06 0.24 -0.06 0.24 -0.06 0.24 -0.06 0.24 -0.06 0.24 -1.87 -0.49 0.06 -0.23 0.06 -0.23 0.06 -0.23 0.05 -0.23 0.05 -0.23 0.05 -0.23 0.05 -0.23 0.05 -0.23 0.05 -0.23 0.05 -0.23 0.05 -0.23 0.04 -0.23 0.04 -0.23 0.04 -0.23 0.04 -0.23 0.04 -0.23 0.04 -0.23 0.04 -0.24 0.04 -0.24 0.04 -0.23 0.03 -0.23 0.03 -0.24 0.03 -0.24 0.03 -0.24 0.03 -0.24 0.03 -0.24 0.03 -0.24 0.03 -0.23 0.02 -0.24 0.02 -0.24 0.02 -0.24 0.02 -0.24 0.83 1.04zm0.27 -1.92l0.9 0.13 -0.08 0.91 -0.83 -1.04zm-0.01 -0l0.01 0 -0.27 1.92 -0.01 -0 -0.83 -1.04 1.1 -0.87zm-0.27 1.92l-0.91 -0.13 0.08 -0.91 0.83 1.04zm0.19 -0.65l0 -1.94 0.97 1.04 -0 0.02 -0 0.02 -0 0.02 -0 0.04 -0 0.02 0 0 -0 0.02 -0 0.02 -0 0.02 -0 0.04 -0 0.02 0 0 -0 0.02 -0 0.04 -0 0.02 0 0 -0 0.04 -0 0.02 0 0 -0 0.04 -0 0.02 0 0.01 -0 0.04 -0 0.02 0 0 -0 0.04 -0 0.02 -0 0.02 -0 0.02 -0 0.02 -0 0.02 -0 0.02 -1.93 -0.17 0 -0.02 0 -0.02 0 -0.02 0 -0.02 0 -0.02 0 -0.02 0 -0 0 -0.04 0 -0.02 0 -0 0 -0.04 0 -0.02 0 -0.01 0 -0.04 0 -0.02 0 -0 0 -0.04 0 -0.02 0 -0 0 -0.02 0 -0.04 0 -0.02 0 -0 0 -0.02 0 -0.02 0 -0.02 0 -0.04 0 -0.02 0 -0 0 -0.02 0 -0.02 0 -0.02 0.97 1.04zm0 -1.94l1.04 0 -0.08 1.04 -0.97 -1.04zm-7.19 0l7.19 0 0 1.94 -7.19 0 -0.96 -1.05 0.96 -0.89zm-0.96 0.89l0.07 -0.89 0.89 0 -0.96 0.89zm0.96 0.08l0 0 0 0 0 0 0.96 0.08 -0.96 -0.08zm-0.96 -0.08l0.07 -0.89 0.89 0 -0.96 0.89zm-0.11 23.29l-5.94 -4.01 1.08 -1.6 5.94 4.01 0.26 1.34 -1.34 0.26zm1.34 -0.26l-0.54 0.8 -0.8 -0.54 1.34 -0.26zm2.58 -6.44l0.8 -1.76 0.48 1.28 -0.1 0.22 -0.1 0.22 -0.11 0.22 -0.11 0.22 -0.11 0.22 -0.11 0.22 -0.11 0.22 -0.11 0.22 -0.11 0.22 -0.11 0.22 -0.11 0.22 -0.12 0.22 -0.12 0.22 -0.12 0.22 -0.12 0.22 -0.12 0.22 -0.12 0.22 -0.12 0.22 -0.12 0.22 -0.13 0.22 -0.13 0.21 -0.13 0.21 -0.13 0.21 -0.13 0.21 -0.13 0.21 -0.13 0.21 -0.13 0.21 -0.13 0.21 -0.13 0.21 -0.14 0.21 -0.14 0.21 -0.14 0.21 -1.6 -1.08 0.13 -0.2 0.13 -0.2 0.13 -0.2 0.13 -0.2 0.13 -0.2 0.13 -0.2 0.13 -0.2 0.13 -0.2 0.12 -0.2 0.12 -0.2 0.12 -0.21 0.12 -0.2 0.12 -0.2 0.12 -0.21 0.12 -0.21 0.12 -0.21 0.12 -0.21 0.12 -0.21 0.11 -0.21 0.11 -0.21 0.11 -0.21 0.11 -0.21 0.11 -0.21 0.11 -0.21 0.11 -0.21 0.11 -0.21 0.1 -0.21 0.1 -0.21 0.1 -0.22 0.1 -0.21 0.1 -0.22 0.1 -0.22 0.48 1.28zm0.8 -1.76l0.88 0.4 -0.4 0.88 -0.48 -1.28zm-6.53 -2.95l6.53 2.95 -0.8 1.76 -6.53 -2.95 -0.48 -1.28 1.28 -0.48zm-1.28 0.48l0.4 -0.88 0.88 0.4 -1.28 0.48zm-1.77 5.31l-1.08 1.6 -0.26 -1.34 0.11 -0.17 0.11 -0.17 0.11 -0.17 0.11 -0.17 0.11 -0.17 0.11 -0.17 0.11 -0.17 0.11 -0.17 0.11 -0.17 0.1 -0.17 0.1 -0.17 0.1 -0.17 0.1 -0.17 0.1 -0.17 0.1 -0.18 0.1 -0.18 0.1 -0.17 0.1 -0.17 0.09 -0.18 0.09 -0.18 0.09 -0.18 0.09 -0.18 0.09 -0.18 0.09 -0.18 0.09 -0.18 0.09 -0.18 0.09 -0.18 0.09 -0.18 0.09 -0.18 0.08 -0.18 0.08 -0.18 0.08 -0.18 1.76 0.8 -0.09 0.19 -0.09 0.19 -0.09 0.19 -0.09 0.19 -0.09 0.19 -0.09 0.19 -0.09 0.19 -0.09 0.19 -0.09 0.19 -0.1 0.19 -0.1 0.19 -0.1 0.19 -0.1 0.18 -0.1 0.19 -0.1 0.18 -0.1 0.18 -0.1 0.18 -0.1 0.18 -0.11 0.18 -0.11 0.18 -0.11 0.18 -0.11 0.18 -0.11 0.18 -0.11 0.18 -0.11 0.18 -0.11 0.18 -0.11 0.18 -0.11 0.18 -0.11 0.18 -0.11 0.18 -0.12 0.18 -0.12 0.17 -0.26 -1.34zm-1.08 1.6l-0.8 -0.54 0.54 -0.8 0.26 1.34zm-4.98 14.96l-4.28 -5.75 1.55 -1.16 4.28 5.75 -0.2 1.35 -1.35 -0.2zm1.35 0.2l-0.78 0.58 -0.58 -0.78 1.35 0.2zm4.57 -5.21l1.34 -1.4 0.03 1.37 -0.17 0.18 -0.17 0.18 -0.17 0.18 -0.17 0.18 -0.18 0.18 -0.18 0.17 -0.18 0.17 -0.18 0.17 -0.18 0.17 -0.18 0.17 -0.18 0.17 -0.18 0.17 -0.18 0.17 -0.18 0.17 -0.19 0.17 -0.19 0.16 -0.19 0.16 -0.19 0.16 -0.19 0.16 -0.19 0.16 -0.19 0.16 -0.19 0.16 -0.19 0.16 -0.19 0.16 -0.19 0.16 -0.19 0.15 -0.19 0.15 -0.19 0.15 -0.2 0.15 -0.2 0.15 -0.2 0.15 -0.2 0.15 -1.16 -1.55 0.19 -0.14 0.19 -0.14 0.19 -0.14 0.19 -0.14 0.19 -0.15 0.19 -0.15 0.19 -0.15 0.18 -0.15 0.19 -0.15 0.18 -0.15 0.18 -0.15 0.18 -0.15 0.18 -0.15 0.18 -0.16 0.18 -0.16 0.18 -0.16 0.18 -0.16 0.18 -0.16 0.18 -0.16 0.18 -0.16 0.18 -0.16 0.17 -0.16 0.17 -0.16 0.17 -0.16 0.17 -0.17 0.17 -0.17 0.17 -0.17 0.17 -0.17 0.17 -0.17 0.17 -0.17 0.16 -0.17 0.16 -0.17 0.03 1.37zm1.34 -1.4l0.7 0.67 -0.67 0.7 -0.03 -1.37zm-5.18 -4.95l5.18 4.95 -1.34 1.4 -5.18 -4.95 -0.03 -1.37 1.37 -0.03zm-1.37 0.03l0.67 -0.7 0.7 0.67 -1.37 0.03zm-3.43 4.43l-1.55 1.16 0.2 -1.35 0.16 -0.12 0.16 -0.12 0.16 -0.12 0.16 -0.12 0.16 -0.12 0.16 -0.12 0.15 -0.12 0.16 -0.13 0.15 -0.13 0.15 -0.13 0.16 -0.13 0.15 -0.13 0.15 -0.13 0.15 -0.13 0.15 -0.13 0.15 -0.13 0.15 -0.13 0.15 -0.13 0.15 -0.13 0.15 -0.14 0.15 -0.14 0.15 -0.14 0.15 -0.14 0.14 -0.14 0.14 -0.14 0.14 -0.14 0.14 -0.14 0.14 -0.14 0.14 -0.14 0.14 -0.14 0.14 -0.14 0.14 -0.14 1.4 1.34 -0.15 0.15 -0.15 0.15 -0.15 0.15 -0.15 0.15 -0.15 0.15 -0.15 0.15 -0.15 0.15 -0.15 0.15 -0.15 0.15 -0.15 0.15 -0.15 0.14 -0.15 0.14 -0.15 0.14 -0.16 0.14 -0.16 0.14 -0.16 0.14 -0.16 0.14 -0.16 0.14 -0.16 0.14 -0.16 0.14 -0.16 0.14 -0.16 0.13 -0.16 0.13 -0.16 0.13 -0.16 0.13 -0.16 0.13 -0.16 0.13 -0.16 0.13 -0.17 0.13 -0.17 0.13 -0.17 0.13 -0.17 0.13 0.2 -1.35zm-1.55 1.16l-0.58 -0.78 0.78 -0.58 -0.2 1.35zm-9.66 12.46l-2.11 -6.85 1.85 -0.57 2.11 6.85 -0.64 1.21 -1.21 -0.64zm1.21 0.64l-0.92 0.29 -0.29 -0.92 1.21 0.64zm6.04 -3.4l1.73 -0.88 -0.43 1.3 -0.22 0.11 -0.22 0.11 -0.22 0.11 -0.22 0.11 -0.22 0.11 -0.23 0.11 -0.22 0.1 -0.23 0.1 -0.23 0.1 -0.23 0.1 -0.23 0.1 -0.23 0.1 -0.23 0.1 -0.23 0.1 -0.23 0.09 -0.23 0.09 -0.23 0.09 -0.23 0.09 -0.23 0.09 -0.23 0.09 -0.23 0.09 -0.23 0.09 -0.23 0.08 -0.23 0.08 -0.23 0.08 -0.23 0.08 -0.23 0.08 -0.23 0.08 -0.23 0.08 -0.24 0.08 -0.24 0.08 -0.24 0.07 -0.57 -1.85 0.23 -0.07 0.23 -0.07 0.22 -0.07 0.23 -0.07 0.23 -0.08 0.23 -0.08 0.22 -0.08 0.22 -0.08 0.22 -0.08 0.22 -0.08 0.22 -0.08 0.22 -0.08 0.22 -0.09 0.22 -0.09 0.22 -0.09 0.22 -0.09 0.22 -0.09 0.22 -0.09 0.22 -0.09 0.22 -0.09 0.22 -0.09 0.22 -0.1 0.22 -0.1 0.22 -0.1 0.21 -0.1 0.22 -0.1 0.22 -0.1 0.21 -0.1 0.21 -0.1 0.21 -0.11 0.21 -0.11 0.21 -0.11 -0.43 1.3zm1.73 -0.88l0.44 0.86 -0.86 0.44 0.43 -1.3zm-3.24 -6.39l3.24 6.39 -1.73 0.88 -3.24 -6.39 0.43 -1.3 1.3 0.42zm-1.3 -0.42l0.86 -0.44 0.44 0.86 -1.3 -0.42zm-4.7 3.03l-1.85 0.57 0.64 -1.21 0.19 -0.06 0.19 -0.06 0.19 -0.06 0.19 -0.06 0.19 -0.06 0.19 -0.06 0.19 -0.06 0.19 -0.07 0.19 -0.07 0.19 -0.07 0.19 -0.07 0.19 -0.07 0.18 -0.07 0.19 -0.07 0.19 -0.07 0.19 -0.07 0.18 -0.08 0.18 -0.08 0.18 -0.08 0.18 -0.08 0.18 -0.08 0.18 -0.08 0.18 -0.08 0.18 -0.08 0.18 -0.08 0.18 -0.08 0.18 -0.08 0.18 -0.09 0.18 -0.09 0.18 -0.09 0.18 -0.09 0.18 -0.09 0.88 1.73 -0.19 0.09 -0.19 0.09 -0.19 0.09 -0.19 0.09 -0.19 0.09 -0.19 0.09 -0.19 0.09 -0.19 0.09 -0.19 0.09 -0.19 0.09 -0.19 0.08 -0.19 0.08 -0.19 0.08 -0.19 0.08 -0.19 0.08 -0.19 0.08 -0.2 0.08 -0.19 0.08 -0.2 0.08 -0.2 0.08 -0.2 0.07 -0.2 0.07 -0.2 0.07 -0.2 0.07 -0.2 0.07 -0.2 0.07 -0.2 0.07 -0.2 0.07 -0.2 0.07 -0.2 0.06 -0.2 0.06 -0.2 0.06 0.64 -1.21zm-1.85 0.57l-0.29 -0.92 0.92 -0.29 -0.64 1.21zm27.39 -61.61l0 -13.27 1.94 0 0 13.27 -1.79 0.51 -0.15 -0.51zm1.94 0l0 3.37 -1.79 -2.85 1.79 -0.51zm-14.67 -12.82l1.09 -1.6 0 0 0.51 0.35 0.5 0.35 0.5 0.36 0.49 0.37 0.49 0.37 0.48 0.38 0.47 0.38 0.47 0.39 0.46 0.4 0.46 0.4 0.45 0.41 0.45 0.41 0.44 0.42 0.44 0.42 0.43 0.43 0.42 0.43 0.42 0.44 0.41 0.44 0.41 0.45 0.4 0.46 0.39 0.46 0.39 0.47 0.38 0.47 0.38 0.48 0.37 0.48 0.36 0.48 0.36 0.49 0.35 0.5 0.34 0.5 0.34 0.5 0.33 0.51 0.33 0.51 -1.64 1.03 -0.31 -0.49 -0.32 -0.49 -0.33 -0.48 -0.33 -0.48 -0.34 -0.47 -0.34 -0.47 -0.35 -0.47 -0.35 -0.46 -0.36 -0.46 -0.37 -0.45 -0.37 -0.45 -0.38 -0.44 -0.39 -0.44 -0.39 -0.43 -0.4 -0.43 -0.4 -0.42 -0.41 -0.42 -0.41 -0.41 -0.42 -0.41 -0.42 -0.4 -0.43 -0.4 -0.44 -0.39 -0.44 -0.39 -0.44 -0.38 -0.45 -0.37 -0.46 -0.37 -0.46 -0.36 -0.47 -0.36 -0.47 -0.35 -0.48 -0.35 -0.48 -0.34 -0.49 -0.33 0 0zm-25.17 -7.72l0 -1.94 0 0 0.88 0.01 0.88 0.02 0.88 0.04 0.88 0.06 0.87 0.07 0.87 0.09 0.87 0.11 0.86 0.12 0.86 0.14 0.86 0.15 0.85 0.17 0.85 0.18 0.84 0.2 0.84 0.22 0.83 0.23 0.83 0.25 0.83 0.26 0.82 0.28 0.82 0.29 0.81 0.31 0.8 0.32 0.8 0.34 0.79 0.35 0.79 0.37 0.78 0.38 0.77 0.4 0.77 0.41 0.76 0.43 0.75 0.44 0.75 0.46 0.74 0.47 0.73 0.49 -1.09 1.6 -0.7 -0.47 -0.71 -0.45 -0.72 -0.44 -0.72 -0.42 -0.73 -0.41 -0.74 -0.4 -0.74 -0.38 -0.75 -0.37 -0.75 -0.35 -0.76 -0.34 -0.77 -0.32 -0.77 -0.31 -0.78 -0.3 -0.78 -0.28 -0.79 -0.27 -0.79 -0.25 -0.8 -0.24 -0.8 -0.22 -0.8 -0.21 -0.81 -0.19 -0.81 -0.18 -0.82 -0.16 -0.82 -0.15 -0.82 -0.13 -0.83 -0.12 -0.83 -0.1 -0.83 -0.09 -0.84 -0.07 -0.84 -0.05 -0.84 -0.04 -0.84 -0.02 -0.85 -0.01 0 0zm-31.74 13.15l-1.37 -1.37 0 0 0.84 -0.82 0.85 -0.79 0.87 -0.77 0.89 -0.75 0.9 -0.72 0.92 -0.7 0.93 -0.67 0.95 -0.65 0.96 -0.63 0.97 -0.6 0.99 -0.58 1 -0.55 1.01 -0.53 1.02 -0.5 1.04 -0.47 1.05 -0.45 1.06 -0.42 1.07 -0.4 1.08 -0.37 1.09 -0.34 1.1 -0.32 1.1 -0.29 1.11 -0.26 1.12 -0.24 1.13 -0.21 1.14 -0.18 1.14 -0.16 1.15 -0.13 1.15 -0.1 1.16 -0.07 1.17 -0.04 1.17 -0.01 0 1.94 -1.12 0.01 -1.12 0.04 -1.11 0.07 -1.11 0.09 -1.1 0.12 -1.1 0.15 -1.09 0.17 -1.08 0.2 -1.07 0.23 -1.07 0.25 -1.06 0.28 -1.05 0.3 -1.04 0.33 -1.03 0.35 -1.02 0.38 -1.01 0.4 -1 0.43 -0.99 0.46 -0.98 0.48 -0.97 0.5 -0.96 0.53 -0.95 0.55 -0.93 0.58 -0.92 0.6 -0.91 0.62 -0.89 0.65 -0.88 0.67 -0.86 0.69 -0.85 0.72 -0.83 0.74 -0.82 0.76 -0.8 0.78 0 0zm-13.15 31.74l-1.94 0 0 0 0.01 -1.17 0.04 -1.17 0.07 -1.16 0.1 -1.15 0.13 -1.15 0.16 -1.14 0.18 -1.14 0.21 -1.13 0.24 -1.12 0.26 -1.11 0.29 -1.1 0.32 -1.1 0.34 -1.09 0.37 -1.08 0.4 -1.07 0.42 -1.06 0.45 -1.05 0.47 -1.04 0.5 -1.02 0.53 -1.01 0.55 -1 0.58 -0.99 0.6 -0.97 0.63 -0.96 0.65 -0.95 0.67 -0.93 0.7 -0.92 0.72 -0.9 0.75 -0.89 0.77 -0.87 0.79 -0.85 0.82 -0.84 1.37 1.37 -0.78 0.8 -0.76 0.82 -0.74 0.83 -0.72 0.85 -0.69 0.86 -0.67 0.88 -0.65 0.89 -0.62 0.91 -0.6 0.92 -0.58 0.93 -0.55 0.95 -0.53 0.96 -0.5 0.97 -0.48 0.98 -0.46 0.99 -0.43 1 -0.4 1.01 -0.38 1.02 -0.35 1.03 -0.33 1.04 -0.3 1.05 -0.28 1.06 -0.25 1.07 -0.23 1.07 -0.2 1.08 -0.17 1.09 -0.15 1.1 -0.12 1.1 -0.09 1.11 -0.07 1.11 -0.04 1.12 -0.01 1.12 0 0zm13.15 31.74l-1.37 1.37 0 0 -0.82 -0.84 -0.79 -0.85 -0.77 -0.87 -0.75 -0.89 -0.72 -0.9 -0.7 -0.92 -0.67 -0.93 -0.65 -0.95 -0.63 -0.96 -0.6 -0.97 -0.58 -0.99 -0.55 -1 -0.53 -1.01 -0.5 -1.02 -0.47 -1.04 -0.45 -1.05 -0.42 -1.06 -0.4 -1.07 -0.37 -1.08 -0.34 -1.09 -0.32 -1.1 -0.29 -1.1 -0.26 -1.11 -0.24 -1.12 -0.21 -1.13 -0.18 -1.14 -0.16 -1.14 -0.13 -1.15 -0.1 -1.15 -0.07 -1.16 -0.04 -1.17 -0.01 -1.17 1.94 0 0.01 1.12 0.04 1.12 0.07 1.11 0.09 1.11 0.12 1.1 0.15 1.1 0.17 1.09 0.2 1.08 0.23 1.07 0.25 1.07 0.28 1.06 0.3 1.05 0.33 1.04 0.35 1.03 0.38 1.02 0.4 1.01 0.43 1 0.45 0.99 0.48 0.98 0.5 0.97 0.53 0.96 0.55 0.95 0.58 0.93 0.6 0.92 0.62 0.91 0.65 0.89 0.67 0.88 0.69 0.86 0.72 0.85 0.74 0.83 0.76 0.82 0.78 0.8 0 0zm31.74 13.15l0 1.94 0 0 -1.17 -0.01 -1.17 -0.04 -1.16 -0.07 -1.15 -0.1 -1.15 -0.13 -1.14 -0.16 -1.14 -0.18 -1.13 -0.21 -1.12 -0.24 -1.11 -0.26 -1.1 -0.29 -1.1 -0.32 -1.09 -0.34 -1.08 -0.37 -1.07 -0.4 -1.06 -0.42 -1.05 -0.45 -1.04 -0.47 -1.02 -0.5 -1.01 -0.53 -1 -0.55 -0.99 -0.58 -0.97 -0.6 -0.96 -0.63 -0.95 -0.65 -0.93 -0.67 -0.92 -0.7 -0.9 -0.72 -0.89 -0.75 -0.87 -0.77 -0.85 -0.79 -0.84 -0.82 1.37 -1.37 0.8 0.78 0.82 0.76 0.83 0.74 0.85 0.72 0.86 0.69 0.88 0.67 0.89 0.65 0.91 0.62 0.92 0.6 0.93 0.58 0.95 0.55 0.96 0.53 0.97 0.5 0.98 0.48 0.99 0.46 1 0.43 1.01 0.4 1.02 0.38 1.03 0.35 1.04 0.33 1.05 0.3 1.06 0.28 1.07 0.25 1.07 0.23 1.08 0.2 1.09 0.17 1.1 0.15 1.1 0.12 1.11 0.09 1.11 0.07 1.12 0.04 1.12 0.01 0 0zm5.01 0.71l1.92 -0.25 -0.83 1.08 -0.19 0.02 -0.19 0.02 -0.19 0.02 -0.19 0.02 -0.19 0.02 -0.19 0.02 -0.19 0.02 -0.19 0.02 -0.19 0.02 -0.19 0.02 -0.19 0.02 -0.19 0.02 -0.19 0.02 -0.19 0.01 -0.19 0.01 -0.19 0.01 -0.19 0.01 -0.19 0.01 -0.19 0.01 -0.19 0.01 -0.19 0.01 -0.19 0.01 -0.19 0.01 -0.19 0.01 -0.19 0.01 -0.19 0 -0.19 0 -0.19 0 -0.19 0 -0.19 0 -0.19 0 -0.19 0 0 -1.94 0.18 -0 0.18 0 0.18 -0 0.18 -0 0.18 -0 0.19 -0 0.18 -0 0.18 -0.01 0.18 -0.01 0.18 -0.01 0.18 -0.01 0.18 -0.01 0.18 -0.01 0.18 -0.01 0.18 -0.01 0.18 -0.01 0.18 -0.01 0.18 -0.01 0.18 -0.01 0.18 -0.01 0.18 -0.02 0.18 -0.02 0.18 -0.02 0.18 -0.02 0.18 -0.02 0.18 -0.02 0.18 -0.02 0.18 -0.02 0.18 -0.02 0.18 -0.02 0.18 -0.02 0.18 -0.02 -0.83 1.08zm1.92 -0.25l0.12 0.96 -0.96 0.12 0.83 -1.08zm-0.92 -7.11l0.92 7.11 -1.92 0.25 -0.92 -7.11 0.83 -1.08 1.08 0.83zm-1.08 -0.83l0.96 -0.12 0.12 0.96 -1.08 -0.83zm-4.92 2.25l0 -1.94 0 0 0.15 0 0.15 -0 0.16 -0 0.15 -0 0.15 -0 0.16 -0 0.15 -0 0.15 -0.01 0.16 -0.01 0.16 -0.01 0.15 -0.01 0.15 -0.01 0.15 -0.01 0.16 -0.01 0.15 -0.01 0.15 -0.01 0.15 -0.01 0.15 -0.01 0.16 -0.01 0.15 -0.01 0.16 -0.01 0.15 -0.01 0.15 -0.01 0.15 -0.01 0.15 -0.02 0.15 -0.02 0.15 -0.02 0.15 -0.02 0.15 -0.02 0.15 -0.02 0.15 -0.02 0.15 -0.02 0.25 1.92 -0.16 0.02 -0.16 0.02 -0.16 0.02 -0.16 0.02 -0.16 0.02 -0.16 0.02 -0.16 0.02 -0.16 0.02 -0.16 0.02 -0.16 0.01 -0.16 0.01 -0.16 0.01 -0.16 0.01 -0.16 0.01 -0.16 0.01 -0.16 0.01 -0.16 0.01 -0.16 0.01 -0.16 0.01 -0.16 0.01 -0.16 0.01 -0.16 0.01 -0.16 0.01 -0.16 0.01 -0.16 0.01 -0.16 0 -0.16 0 -0.16 0 -0.16 0 -0.16 0 -0.16 0 -0.16 0 0 0zm-39.66 -39.66l1.94 0 0 0 0.05 1.94 0.15 1.91 0.24 1.89 0.33 1.86 0.42 1.82 0.51 1.79 0.59 1.75 0.68 1.71 0.76 1.67 0.83 1.63 0.91 1.58 0.98 1.53 1.05 1.48 1.12 1.43 1.19 1.37 1.25 1.31 1.31 1.25 1.37 1.19 1.43 1.12 1.48 1.05 1.53 0.98 1.58 0.91 1.63 0.83 1.67 0.76 1.71 0.68 1.75 0.59 1.79 0.51 1.82 0.42 1.86 0.33 1.89 0.24 1.91 0.15 1.94 0.05 0 1.94 -2.04 -0.05 -2.01 -0.15 -1.98 -0.25 -1.95 -0.35 -1.92 -0.44 -1.88 -0.54 -1.84 -0.62 -1.8 -0.71 -1.76 -0.79 -1.71 -0.88 -1.66 -0.96 -1.61 -1.03 -1.55 -1.11 -1.5 -1.18 -1.44 -1.25 -1.38 -1.31 -1.31 -1.38 -1.25 -1.44 -1.18 -1.5 -1.11 -1.56 -1.03 -1.61 -0.96 -1.66 -0.88 -1.71 -0.79 -1.76 -0.71 -1.8 -0.62 -1.84 -0.54 -1.88 -0.44 -1.92 -0.35 -1.95 -0.25 -1.98 -0.15 -2.01 -0.05 -2.04 0 0zm39.66 -39.66l0 1.94 0 0 -1.94 0.05 -1.91 0.15 -1.89 0.24 -1.86 0.33 -1.82 0.42 -1.79 0.51 -1.75 0.59 -1.71 0.68 -1.67 0.76 -1.63 0.83 -1.58 0.91 -1.53 0.98 -1.48 1.05 -1.43 1.12 -1.37 1.19 -1.31 1.25 -1.25 1.31 -1.19 1.37 -1.12 1.43 -1.05 1.48 -0.98 1.53 -0.91 1.58 -0.83 1.63 -0.76 1.67 -0.68 1.71 -0.59 1.75 -0.51 1.79 -0.42 1.82 -0.33 1.86 -0.24 1.89 -0.15 1.91 -0.05 1.94 -1.94 0 0.05 -2.04 0.15 -2.01 0.25 -1.98 0.35 -1.95 0.44 -1.92 0.54 -1.88 0.62 -1.84 0.71 -1.8 0.79 -1.76 0.88 -1.71 0.96 -1.66 1.03 -1.61 1.11 -1.55 1.18 -1.5 1.25 -1.44 1.31 -1.38 1.38 -1.31 1.44 -1.25 1.5 -1.18 1.55 -1.11 1.61 -1.03 1.66 -0.96 1.71 -0.88 1.76 -0.79 1.8 -0.71 1.84 -0.62 1.88 -0.54 1.92 -0.44 1.95 -0.35 1.98 -0.25 2.01 -0.15 2.04 -0.05 0 0zm33.31 20.92l0 -1.94 -0.83 1.46 -0.65 -1.06 -0.68 -1.03 -0.71 -1 -0.74 -0.98 -0.77 -0.95 -0.8 -0.92 -0.82 -0.89 -0.85 -0.87 -0.88 -0.84 -0.9 -0.81 -0.93 -0.78 -0.95 -0.75 -0.97 -0.71 -1 -0.68 -1.02 -0.65 -1.04 -0.62 -1.06 -0.58 -1.08 -0.55 -1.1 -0.52 -1.11 -0.48 -1.13 -0.44 -1.15 -0.41 -1.16 -0.37 -1.17 -0.34 -1.19 -0.3 -1.2 -0.26 -1.21 -0.22 -1.23 -0.18 -1.24 -0.14 -1.24 -0.1 -1.25 -0.06 -1.26 -0.02 0 -1.94 1.33 0.02 1.32 0.06 1.31 0.11 1.3 0.15 1.29 0.19 1.28 0.23 1.26 0.27 1.25 0.31 1.24 0.35 1.22 0.39 1.21 0.43 1.19 0.47 1.17 0.51 1.15 0.54 1.13 0.58 1.11 0.61 1.09 0.65 1.07 0.68 1.05 0.72 1.02 0.75 1 0.78 0.97 0.82 0.95 0.85 0.92 0.88 0.89 0.91 0.87 0.94 0.84 0.97 0.81 1 0.78 1.03 0.75 1.06 0.71 1.08 0.68 1.11 -0.83 1.46zm0.83 -1.46l0.86 1.46 -1.7 0 0.83 -1.46zm-13.19 -0.48l12.35 0 0 1.94 -12.35 0 -0.97 -0.97 0.97 -0.97zm-0.97 0.97l0 -0.97 0.97 0 -0.97 0.97zm0 7.16l0 -7.16 1.94 0 0 7.16 -0.97 0.97 -0.97 -0.97zm0.97 0.97l-0.97 0 0 -0.97 0.97 0.97zm25.08 0l-25.08 0 0 -1.94 25.08 0 0.97 0.97 -0.97 0.97zm0.97 -0.97l0 0.97 -0.97 0 0.97 -0.97zm0 -25.08l0 25.08 -1.94 0 0 -25.08 0.97 -0.97 0.97 0.97zm-0.97 -0.97l0.97 0 0 0.97 -0.97 -0.97zm-7.16 0l7.16 0 0 1.94 -7.16 0 -0.97 -0.97 0.97 -0.97zm-0.97 0.97l0 -0.97 0.97 0 -0.97 0.97zm-34.14 6.34l-7.16 0 0 -1.94 7.16 0 0.97 0.97 -0.97 0.97zm0 -1.94l0.97 0 0 0.97 -0.97 -0.97zm-0.97 36.79l0 -35.82 1.94 0 0 35.82 -0.97 0.97 -0.97 -0.97zm1.94 0l0 0.97 -0.97 0 0.97 -0.97zm-28.19 -0.97l27.23 0 0 1.94 -27.23 0 -0.97 -0.97 0.97 -0.97zm0 1.94l-0.97 0 0 -0.97 0.97 0.97zm0.97 -8.13l0 7.16 -1.94 0 0 -7.16 0.97 -0.97 0.97 0.97zm-1.94 0l0 -0.97 0.97 0 -0.97 0.97zm21.03 0.97l-20.06 0 0 -1.94 20.06 0 0.97 0.97 -0.97 0.97zm0.97 -0.97l0 0.97 -0.97 0 0.97 -0.97zm0 -28.66l0 28.66 -1.94 0 0 -28.66 0.97 -0.97 0.97 0.97zm-1.94 0l0 -0.97 0.97 0 -0.97 0.97z"/>
  </g>
 </g>
</svg>
