<?xml version="1.0" encoding="UTF-8"?>
<!DOCTYPE svg PUBLIC "-//W3C//DTD SVG 1.1//EN" "http://www.w3.org/Graphics/SVG/1.1/DTD/svg11.dtd">
<!-- Creator: CorelDRAW 2019 -->
<svg xmlns="http://www.w3.org/2000/svg" xml:space="preserve" width="31.9998mm" height="28.3769mm" version="1.1" style="shape-rendering:geometricPrecision; text-rendering:geometricPrecision; image-rendering:optimizeQuality; fill-rule:evenodd; clip-rule:evenodd"
viewBox="0 0 250.1 221.79"
 xmlns:xlink="http://www.w3.org/1999/xlink"
 xmlns:xodm="http://www.corel.com/coreldraw/odm/2003">
 <defs>
  <style type="text/css">
   <![CDATA[
    .fil12 {fill:#09CEFE;fill-rule:nonzero}
    .fil4 {fill:#10C6FE;fill-rule:nonzero}
    .fil6 {fill:#19BAFD;fill-rule:nonzero}
    .fil2 {fill:#1DB5FC;fill-rule:nonzero}
    .fil8 {fill:#24ACFC;fill-rule:nonzero}
    .fil3 {fill:#26A9FC;fill-rule:nonzero}
    .fil5 {fill:#329AFB;fill-rule:nonzero}
    .fil9 {fill:#3498FA;fill-rule:nonzero}
    .fil7 {fill:#3795FA;fill-rule:nonzero}
    .fil10 {fill:#3D8DFA;fill-rule:nonzero}
    .fil1 {fill:#4B7CF8;fill-rule:nonzero}
    .fil11 {fill:#5471F8;fill-rule:nonzero}
    .fil13 {fill:url(#id0);fill-rule:nonzero}
    .fil14 {fill:url(#id1);fill-rule:nonzero}
    .fil0 {fill:url(#id2);fill-rule:nonzero}
   ]]>
  </style>
  <linearGradient id="id0" gradientUnits="userSpaceOnUse" x1="3.41" y1="61.39" x2="210.69" y2="77.53">
   <stop offset="0" style="stop-opacity:1; stop-color:#00D9FF"/>
   <stop offset="1" style="stop-opacity:1; stop-color:#5A69F7"/>
  </linearGradient>
  <linearGradient id="id1" gradientUnits="userSpaceOnUse" x1="137.02" y1="38.02" x2="173.89" y2="40.24">
   <stop offset="0" style="stop-opacity:1; stop-color:#3795FA"/>
   <stop offset="1" style="stop-opacity:1; stop-color:#5174F8"/>
  </linearGradient>
  <linearGradient id="id2" gradientUnits="userSpaceOnUse" xlink:href="#id0" x1="25.21" y1="136.8" x2="241.72" y2="152.93">
  </linearGradient>
 </defs>
 <g id="Слой_x0020_1">
  <metadata id="CorelCorpID_0Corel-Layer"/>
  <g id="_869337040">
   <path class="fil0" d="M223.88 69.08l0 21.64 1.04 2.55 -1.04 0.42 0 38.12 14.39 -5.87 3.15 7.72c1.37,3.41 -0.18,7.31 -3.49,8.66l-173.57 70.85c-3.27,1.33 -7.19,-0.42 -8.54,-3.76l-3.15 -7.72 132.83 -54.2 -93.4 0 -52.76 21.53 -8.8 -21.55 -8.82 0 26.54 65.04c2.32,5.64 7.71,9.28 13.73,9.28 1.88,0 3.73,-0.36 5.47,-1.08l173.56 -70.84c7.5,-3.06 11.07,-11.71 7.98,-19.29l-25.11 -61.49z"/>
   <polygon class="fil1" points="176.03,89.58 176.03,84.33 172.98,89.58 "/>
   <polygon class="fil2" points="70.66,84.33 67.63,89.58 70.66,89.58 "/>
   <path class="fil3" d="M90.62 91.84c0.32,-0.4 0.46,-0.92 0.46,-1.56 0,-0.7 -0.18,-1.26 -0.52,-1.64 -0.34,-0.38 -0.78,-0.56 -1.28,-0.56 -0.42,0 -0.78,0.12 -1.08,0.36 -0.48,0.38 -0.72,0.96 -0.72,1.78 0,0.66 0.18,1.2 0.54,1.6 0.34,0.42 0.8,0.64 1.34,0.64 0.54,0 0.96,-0.2 1.26,-0.62z"/>
   <path class="fil4" d="M35.12 121.35c0.46,0 0.88,-0.14 1.26,-0.4 0.4,-0.26 0.6,-0.74 0.6,-1.46l0 -0.78c-0.12,0.08 -0.25,0.16 -0.4,0.2 -0.14,0.06 -0.32,0.1 -0.56,0.14l-0.48 0.1c-0.46,0.08 -0.78,0.18 -0.97,0.28 -0.32,0.2 -0.5,0.5 -0.5,0.9 0,0.36 0.1,0.62 0.3,0.78 0.22,0.16 0.45,0.24 0.76,0.24z"/>
   <path class="fil5" d="M117.98 92.44c0.54,0 0.98,-0.16 1.3,-0.5 0.3,-0.34 0.46,-0.8 0.46,-1.39 0,-0.62 -0.16,-1.1 -0.48,-1.42 -0.32,-0.32 -0.74,-0.48 -1.28,-0.48 -0.54,0 -0.96,0.16 -1.28,0.48 -0.32,0.32 -0.48,0.8 -0.48,1.42 0,0.6 0.16,1.06 0.46,1.39 0.32,0.34 0.76,0.5 1.3,0.5z"/>
   <path class="fil6" d="M57.71 116.11c-0.54,0 -0.96,0.16 -1.25,0.45 -0.3,0.3 -0.48,0.72 -0.56,1.24l3.61 0c-0.04,-0.56 -0.22,-0.98 -0.56,-1.26 -0.34,-0.3 -0.74,-0.43 -1.24,-0.43z"/>
   <path class="fil7" d="M127.54 83.79c-0.4,0 -0.76,0.1 -1.04,0.34 -0.46,0.36 -0.7,0.95 -0.7,1.81 0,0.74 0.14,1.28 0.44,1.64 0.3,0.36 0.76,0.54 1.36,0.54 0.34,0 0.64,-0.1 0.94,-0.28 0.54,-0.36 0.82,-0.95 0.82,-1.81 0,-0.68 -0.16,-1.23 -0.47,-1.63 -0.34,-0.4 -0.78,-0.6 -1.34,-0.6z"/>
   <path class="fil5" d="M117.98 86.81c0.48,0 0.86,-0.14 1.11,-0.42 0.28,-0.28 0.42,-0.66 0.42,-1.1 0,-0.48 -0.14,-0.86 -0.42,-1.13 -0.25,-0.26 -0.63,-0.4 -1.11,-0.4 -0.48,0 -0.86,0.14 -1.14,0.4 -0.28,0.28 -0.4,0.66 -0.4,1.13 0,0.44 0.12,0.82 0.4,1.1 0.28,0.28 0.66,0.42 1.14,0.42z"/>
   <path class="fil8" d="M83.39 119.15c-0.44,0.08 -0.75,0.18 -0.95,0.28 -0.34,0.2 -0.5,0.5 -0.5,0.9 0,0.36 0.1,0.62 0.3,0.78 0.2,0.16 0.46,0.24 0.74,0.24 0.46,0 0.88,-0.14 1.28,-0.4 0.38,-0.26 0.58,-0.74 0.6,-1.46l0 -0.78c-0.14,0.08 -0.25,0.16 -0.4,0.2 -0.14,0.06 -0.34,0.1 -0.58,0.14l-0.48 0.1z"/>
   <path class="fil9" d="M118.68 119.15c-0.45,0.08 -0.78,0.18 -0.98,0.28 -0.32,0.2 -0.5,0.5 -0.5,0.9 0,0.36 0.1,0.62 0.3,0.78 0.2,0.16 0.46,0.24 0.74,0.24 0.45,0 0.89,-0.14 1.28,-0.4 0.4,-0.26 0.6,-0.74 0.6,-1.46l0 -0.78c-0.12,0.08 -0.26,0.16 -0.4,0.2 -0.14,0.06 -0.34,0.1 -0.56,0.14l-0.48 0.1z"/>
   <path class="fil10" d="M139.59 116.56c-0.3,0.3 -0.48,0.72 -0.56,1.24l3.61 0c-0.04,-0.56 -0.22,-0.98 -0.56,-1.26 -0.34,-0.3 -0.76,-0.43 -1.24,-0.43 -0.54,0 -0.96,0.16 -1.26,0.45z"/>
   <path class="fil11" d="M194.73 92.46c0.54,0 0.96,-0.2 1.25,-0.62 0.3,-0.4 0.46,-0.92 0.46,-1.56 0,-0.7 -0.18,-1.26 -0.52,-1.64 -0.36,-0.38 -0.78,-0.56 -1.28,-0.56 -0.42,0 -0.78,0.12 -1.1,0.36 -0.46,0.38 -0.7,0.96 -0.7,1.78 0,0.66 0.18,1.2 0.54,1.6 0.34,0.42 0.8,0.64 1.34,0.64z"/>
   <path class="fil12" d="M20.83 91.32c0.22,0.74 0.7,1.12 1.41,1.12 0.7,0 1.18,-0.38 1.4,-1.12 0.18,-0.64 0.28,-1.58 0.3,-2.69 0.02,-0.18 0.04,-0.34 0.04,-0.52 0,-1.48 -0.12,-2.57 -0.34,-3.28 -0.22,-0.69 -0.68,-1.06 -1.4,-1.06 -0.72,0 -1.17,0.36 -1.41,1.06 -0.24,0.72 -0.34,1.8 -0.34,3.28 0,0.72 0.02,1.34 0.08,1.9 0.06,0.52 0.14,0.96 0.26,1.32z"/>
   <path class="fil13" d="M8.54 138.53c1.9,0.9 3.99,1.43 6.23,1.43l189.22 0c3.99,0 7.6,-1.61 10.26,-4.23 2.77,-2.71 4.53,-6.5 4.53,-10.71l0 -110.06c0,-4.21 -1.75,-8.03 -4.53,-10.74 -2.66,-2.62 -6.27,-4.23 -10.26,-4.23l-189.22 0c-8.14,0 -14.77,6.7 -14.77,14.97l0 110.06c0,5.97 3.51,11.11 8.54,13.51zm9.5 -50.43c0,-2.01 0.3,-3.57 0.92,-4.67 0.64,-1.1 1.72,-1.64 3.27,-1.64 1.55,0 2.65,0.56 3.27,1.64 0.56,0.99 0.84,2.44 0.9,4.19 0,0.17 0.04,0.3 0.04,0.48 0,2.02 -0.32,3.55 -0.94,4.65 -0.62,1.08 -1.72,1.62 -3.27,1.62 -1.56,0 -2.64,-0.54 -3.27,-1.62 -0.28,-0.5 -0.48,-1.13 -0.64,-1.83 -0.18,-0.82 -0.28,-1.74 -0.28,-2.81zm114.33 -48.85c0,-11.14 9.06,-20.18 20.17,-20.18 4.39,0 8.42,1.46 11.73,3.83 3.44,-2.75 7.74,-4.47 12.48,-4.47 4.07,0 7.84,1.24 11.01,3.32 2.6,1.72 4.73,4.07 6.3,6.76 1.72,2.97 2.77,6.37 2.77,10.02 0,11.1 -9.02,20.1 -20.09,20.1 -4.33,0 -8.34,-1.4 -11.62,-3.75 -3.47,2.79 -7.8,4.53 -12.59,4.53 -6.5,0 -12.25,-3.15 -15.94,-7.94 -1.65,-2.15 -2.89,-4.65 -3.57,-7.36 -0.38,-1.56 -0.66,-3.17 -0.66,-4.85zm-3.79 77.54c-0.18,-0.4 -0.52,-0.6 -1.04,-0.6 -0.62,0 -1.02,0.2 -1.22,0.6 -0.12,0.22 -0.16,0.54 -0.16,0.98l0 4.85 -2.14 0 0 -8.02 2.04 0 0 1.16c0.26,-0.42 0.49,-0.7 0.73,-0.88 0.4,-0.32 0.94,-0.48 1.58,-0.48 0.62,0 1.12,0.14 1.5,0.4 0.3,0.25 0.54,0.58 0.7,0.98 0.28,-0.48 0.62,-0.82 1.02,-1.04 0.44,-0.24 0.92,-0.34 1.46,-0.34 0.34,0 0.7,0.06 1.04,0.2 0.34,0.14 0.66,0.38 0.94,0.72 0.22,0.3 0.38,0.64 0.46,1.04 0.04,0.28 0.08,0.68 0.08,1.2l-0.02 5.07 -2.16 0 0 -5.13c0,-0.3 -0.06,-0.56 -0.16,-0.74 -0.18,-0.38 -0.52,-0.58 -1.02,-0.58 -0.58,0 -0.98,0.26 -1.22,0.74 -0.1,0.24 -0.16,0.56 -0.16,0.91l0 4.79 -2.11 0 0 -4.79c0,-0.48 -0.04,-0.82 -0.14,-1.04zm0.16 -27.11c-0.46,0.25 -0.99,0.4 -1.65,0.4 -0.96,0 -1.83,-0.34 -2.57,-1.02 -0.76,-0.66 -1.14,-1.64 -1.14,-2.89 0,-1.3 0.38,-2.36 1.14,-3.17 0.76,-0.8 1.74,-1.22 2.93,-1.22 1.86,0 3.14,0.82 3.81,2.47 0.4,0.92 0.6,2.15 0.6,3.67 0,1.48 -0.2,2.69 -0.56,3.69 -0.71,1.88 -2.03,2.81 -3.95,2.81 -0.92,0 -1.74,-0.28 -2.48,-0.82 -0.71,-0.54 -1.13,-1.34 -1.26,-2.35l2.4 0c0.06,0.36 0.2,0.64 0.46,0.86 0.24,0.24 0.56,0.34 0.98,0.34 0.78,0 1.34,-0.44 1.66,-1.32 0.18,-0.48 0.28,-1.18 0.34,-2.09 -0.22,0.28 -0.46,0.47 -0.7,0.64zm-14.32 -3.37c-0.18,-0.46 -0.28,-0.88 -0.28,-1.28 0,-0.9 0.34,-1.64 1.02,-2.28 0.66,-0.62 1.61,-0.93 2.84,-0.93 1.22,0 2.16,0.32 2.81,0.93 0.67,0.64 1.02,1.38 1.02,2.28 0,0.4 -0.1,0.82 -0.28,1.28 -0.16,0.45 -0.56,0.85 -1.14,1.19 0.6,0.34 1.06,0.78 1.36,1.34 0.3,0.56 0.46,1.18 0.46,1.85 0,1.02 -0.38,1.9 -1.14,2.62 -0.76,0.71 -1.84,1.08 -3.19,1.08 -1.35,0 -2.39,-0.36 -3.09,-1.08 -0.7,-0.72 -1.06,-1.6 -1.06,-2.62 0,-0.68 0.16,-1.3 0.46,-1.85 0.32,-0.56 0.76,-0.98 1.36,-1.26 -0.58,-0.4 -0.96,-0.82 -1.13,-1.28zm5.36 29.95c-0.22,-0.12 -0.56,-0.18 -1.02,-0.18 -0.5,0 -0.86,0.12 -1.06,0.36 -0.16,0.18 -0.26,0.44 -0.3,0.74l-2.03 0c0.04,-0.69 0.24,-1.28 0.6,-1.73 0.54,-0.7 1.52,-1.06 2.88,-1.06 0.88,0 1.65,0.18 2.35,0.52 0.68,0.36 1.02,1.01 1.02,1.98l0 3.69c0,0.26 0.02,0.58 0.02,0.94 0.02,0.28 0.06,0.46 0.14,0.56 0.06,0.1 0.16,0.18 0.3,0.24l0 0.32 -2.3 0c-0.06,-0.16 -0.1,-0.32 -0.12,-0.46 -0.02,-0.14 -0.04,-0.3 -0.06,-0.48 -0.3,0.3 -0.64,0.58 -1.02,0.8 -0.44,0.26 -0.96,0.4 -1.54,0.4 -0.74,0 -1.33,-0.22 -1.81,-0.62 -0.48,-0.42 -0.72,-1.02 -0.72,-1.78 0,-0.98 0.38,-1.7 1.16,-2.13 0.42,-0.24 1.04,-0.42 1.86,-0.52l0.72 -0.1c0.4,-0.04 0.68,-0.1 0.84,-0.18 0.32,-0.13 0.46,-0.32 0.46,-0.6 0,-0.34 -0.12,-0.58 -0.36,-0.7zm-8.4 0.49c-0.2,-0.42 -0.6,-0.62 -1.18,-0.62 -0.69,0 -1.17,0.3 -1.45,0.9 -0.12,0.32 -0.2,0.74 -0.2,1.23l0 4.35 -2.1 0 0 -8.02 2.03 0 0 1.16c0.26,-0.4 0.52,-0.7 0.76,-0.88 0.42,-0.34 0.98,-0.5 1.64,-0.5 0.84,0 1.5,0.22 2.04,0.66 0.52,0.44 0.78,1.16 0.78,2.17l0 5.41 -2.15 0 0 -4.89c0,-0.42 -0.04,-0.76 -0.16,-0.98zm-11.67 4.25c0.08,0.08 0.34,0.12 0.76,0.12 0.06,0 0.14,0 0.2,0 0.08,0 0.16,0 0.22,0l0 1.56 -0.99 0.04c-1,0.04 -1.68,-0.14 -2.04,-0.52 -0.24,-0.24 -0.36,-0.6 -0.36,-1.12l0 -4.95 -1.12 0 0 -1.5 1.12 0 0 -2.23 2.1 0 0 2.23 1.3 0 0 1.5 -1.3 0 0 4.25c-0.02,0.34 0.02,0.54 0.12,0.62zm0.4 -32.4c-0.34,0.76 -0.64,1.7 -0.92,2.79 -0.28,1.08 -0.42,1.97 -0.42,2.67l-2.49 0c0.08,-2.18 0.8,-4.45 2.16,-6.8 0.88,-1.48 1.61,-2.49 2.21,-3.08l-6.06 0 0.02 -2.15 8.62 0 0 1.88c-0.36,0.36 -0.86,1 -1.5,1.89 -0.64,0.9 -1.17,1.83 -1.61,2.79zm-34.26 2.85l0 -2.09 4.49 -7.4 2.69 0 0 7.62 1.37 0 0 1.87 -1.37 0 0 2.62 -2.35 0 0 -2.62 -4.83 0zm5.49 20.3l2.27 0 0 8.92 5.43 0 0 1.96 -7.71 0 0 -10.88zm5.35 -18.28c-0.76,-0.64 -1.18,-1.52 -1.26,-2.66l2.39 0c0.1,0.52 0.28,0.92 0.54,1.2 0.28,0.28 0.66,0.44 1.18,0.44 0.6,0 1.04,-0.22 1.36,-0.64 0.32,-0.42 0.46,-0.94 0.46,-1.58 0,-0.62 -0.14,-1.14 -0.44,-1.58 -0.28,-0.42 -0.74,-0.64 -1.36,-0.64 -0.28,0 -0.54,0.04 -0.76,0.12 -0.38,0.12 -0.66,0.38 -0.84,0.74l-2.16 -0.1 0.86 -6.74 6.7 0 0 2.03 -4.99 0 -0.42 2.67c0.36,-0.24 0.66,-0.4 0.86,-0.48 0.34,-0.14 0.75,-0.2 1.25,-0.2 1.02,0 1.9,0.34 2.65,1.02 0.74,0.68 1.12,1.68 1.12,2.97 0,1.12 -0.36,2.12 -1.08,3.01 -0.73,0.88 -1.81,1.32 -3.25,1.32 -1.13,0 -2.1,-0.3 -2.83,-0.92zm7.84 22.79c-0.24,-0.12 -0.58,-0.18 -1.02,-0.18 -0.5,0 -0.86,0.12 -1.08,0.36 -0.14,0.18 -0.24,0.44 -0.3,0.74l-2.01 0c0.04,-0.69 0.24,-1.28 0.58,-1.73 0.56,-0.7 1.52,-1.06 2.87,-1.06 0.9,0 1.68,0.18 2.37,0.52 0.68,0.36 1.02,1.01 1.02,1.98l0 3.69c0,0.26 0,0.58 0.02,0.94 0.02,0.28 0.06,0.46 0.12,0.56 0.08,0.1 0.18,0.18 0.32,0.24l0 0.32 -2.29 0c-0.06,-0.16 -0.1,-0.32 -0.12,-0.46 -0.04,-0.14 -0.06,-0.3 -0.06,-0.48 -0.3,0.3 -0.64,0.58 -1.02,0.8 -0.46,0.26 -0.96,0.4 -1.54,0.4 -0.74,0 -1.34,-0.22 -1.81,-0.62 -0.48,-0.42 -0.72,-1.02 -0.72,-1.78 0,-0.98 0.38,-1.7 1.16,-2.13 0.42,-0.24 1.04,-0.42 1.86,-0.52l0.71 -0.1c0.4,-0.04 0.68,-0.1 0.84,-0.18 0.3,-0.14 0.44,-0.34 0.44,-0.6 0,-0.34 -0.1,-0.58 -0.34,-0.7zm1.41 -23.79c-0.56,-1.02 -0.84,-2.3 -0.84,-3.89 0,-0.94 0.04,-1.69 0.1,-2.27 0.14,-1.04 0.42,-1.9 0.82,-2.6 0.36,-0.58 0.82,-1.06 1.37,-1.42 0.56,-0.36 1.24,-0.54 2.02,-0.54 1.14,0 2.03,0.3 2.71,0.88 0.68,0.58 1.06,1.33 1.14,2.31l-2.39 0c0,-0.2 -0.06,-0.42 -0.22,-0.66 -0.26,-0.38 -0.66,-0.56 -1.18,-0.56 -0.78,0 -1.34,0.44 -1.66,1.3 -0.18,0.5 -0.3,1.19 -0.38,2.15 0.3,-0.36 0.64,-0.62 1.04,-0.78 0.4,-0.16 0.84,-0.24 1.34,-0.24 1.1,0 1.98,0.36 2.68,1.1 0.67,0.74 1.04,1.67 1.04,2.81 0,1.13 -0.34,2.14 -1.02,3.01 -0.67,0.88 -1.73,1.3 -3.17,1.3 -1.51,0 -2.65,-0.64 -3.39,-1.92zm7.29 27.51c-0.18,-0.12 -0.92,-0.34 -2.2,-0.64 -0.91,-0.22 -1.55,-0.5 -1.93,-0.84 -0.36,-0.33 -0.56,-0.82 -0.56,-1.45 0,-0.74 0.3,-1.38 0.88,-1.92 0.58,-0.52 1.41,-0.8 2.47,-0.8 1,0 1.82,0.2 2.46,0.6 0.64,0.4 1,1.1 1.08,2.07l-2.1 0c-0.02,-0.26 -0.1,-0.48 -0.22,-0.64 -0.24,-0.28 -0.64,-0.42 -1.18,-0.42 -0.46,0 -0.8,0.06 -1,0.2 -0.18,0.16 -0.28,0.32 -0.28,0.52 0,0.24 0.1,0.42 0.3,0.52 0.22,0.12 0.93,0.3 2.19,0.58 0.84,0.2 1.48,0.5 1.9,0.89 0.4,0.4 0.62,0.9 0.62,1.52 0,0.78 -0.3,1.44 -0.9,1.94 -0.6,0.5 -1.52,0.76 -2.75,0.76 -1.26,0 -2.2,-0.26 -2.79,-0.8 -0.62,-0.54 -0.92,-1.22 -0.92,-2.03l2.13 0c0.04,0.36 0.14,0.64 0.3,0.8 0.26,0.28 0.74,0.42 1.44,0.42 0.42,0 0.76,-0.06 1,-0.18 0.24,-0.14 0.36,-0.32 0.36,-0.56 0,-0.24 -0.1,-0.42 -0.3,-0.54zm-36.54 0.9c0.32,0.2 0.72,0.3 1.15,0.3 0.48,0 0.88,-0.13 1.18,-0.36 0.16,-0.14 0.29,-0.32 0.44,-0.56l2.13 0c-0.06,0.48 -0.32,0.96 -0.78,1.46 -0.71,0.78 -1.74,1.18 -3.03,1.18 -1.06,0 -2.02,-0.34 -2.81,-1 -0.82,-0.66 -1.24,-1.74 -1.24,-3.21 0,-1.4 0.38,-2.47 1.11,-3.21 0.74,-0.74 1.7,-1.11 2.87,-1.11 0.7,0 1.34,0.12 1.9,0.38 0.56,0.24 1.02,0.64 1.38,1.2 0.34,0.48 0.54,1.02 0.63,1.66 0.06,0.38 0.08,0.89 0.08,1.59l-5.86 0c0.04,0.8 0.32,1.38 0.84,1.7zm-1.94 -35.74c0,0.72 -0.22,1.34 -0.64,1.81 -0.28,0.32 -0.56,0.52 -0.84,0.64 0.22,0 0.51,0.18 0.93,0.56 0.62,0.58 0.92,1.34 0.92,2.31 0,1.04 -0.36,1.96 -1.08,2.73 -0.72,0.78 -1.78,1.18 -3.17,1.18 -1.72,0 -2.91,-0.58 -3.59,-1.7 -0.36,-0.6 -0.56,-1.4 -0.6,-2.35l2.35 0c0,0.48 0.08,0.89 0.24,1.22 0.3,0.58 0.82,0.88 1.59,0.88 0.46,0 0.88,-0.16 1.22,-0.48 0.36,-0.34 0.52,-0.8 0.52,-1.39 0,-0.8 -0.32,-1.34 -0.96,-1.62 -0.38,-0.14 -0.96,-0.22 -1.75,-0.22l0 -1.72c0.78,-0.02 1.31,-0.1 1.63,-0.24 0.36,-0.16 0.54,-0.45 0.66,-0.86 0.06,-0.18 0.14,-0.34 0.14,-0.56 0,-0.48 -0.14,-0.86 -0.42,-1.14 -0.26,-0.3 -0.64,-0.44 -1.14,-0.44 -0.56,0 -0.98,0.18 -1.24,0.54 -0.28,0.36 -0.4,0.84 -0.38,1.44l-2.25 0c0.04,-0.6 0.14,-1.17 0.32,-1.74 0.2,-0.46 0.5,-0.89 0.92,-1.32 0.32,-0.28 0.7,-0.5 1.12,-0.65 0.44,-0.15 0.96,-0.22 1.59,-0.22 1.16,0 2.09,0.3 2.81,0.89 0.66,0.56 0.96,1.3 1.02,2.18 0.02,0.1 0.06,0.18 0.06,0.26zm-4.63 31.61c-0.2,-0.38 -0.54,-0.58 -1.04,-0.58 -0.58,0 -0.98,0.26 -1.19,0.74 -0.12,0.24 -0.18,0.56 -0.18,0.91l0 4.79 -2.12 0 0 -4.79c0,-0.48 -0.06,-0.84 -0.14,-1.04 -0.18,-0.4 -0.54,-0.6 -1.06,-0.6 -0.6,0 -1,0.2 -1.2,0.6 -0.12,0.22 -0.18,0.54 -0.18,0.98l0 4.85 -2.13 0 0 -8.02 2.05 0 0 1.16c0.26,-0.42 0.5,-0.7 0.74,-0.88 0.4,-0.32 0.93,-0.48 1.57,-0.48 0.62,0 1.12,0.14 1.5,0.4 0.3,0.25 0.54,0.58 0.68,0.98 0.28,-0.48 0.62,-0.82 1.04,-1.04 0.44,-0.24 0.92,-0.34 1.44,-0.34 0.36,0 0.71,0.06 1.06,0.2 0.34,0.14 0.66,0.38 0.93,0.72 0.22,0.3 0.38,0.64 0.46,1.04 0.04,0.28 0.06,0.68 0.06,1.2l0 5.07 -2.15 0 0 -5.13c0,-0.3 -0.04,-0.56 -0.14,-0.74zm97.9 -32.38c-0.3,-0.36 -0.7,-0.52 -1.24,-0.52 -0.72,0 -1.22,0.28 -1.48,0.82 -0.16,0.32 -0.24,0.82 -0.28,1.5l-2.33 0c0.04,-1.04 0.24,-1.88 0.58,-2.51 0.64,-1.22 1.78,-1.84 3.39,-1.84 1.3,0 2.34,0.36 3.09,1.08 0.76,0.72 1.14,1.66 1.14,2.83 0,0.92 -0.26,1.72 -0.8,2.42 -0.36,0.46 -0.94,0.98 -1.76,1.56l-0.96 0.67c-0.6,0.42 -1.02,0.74 -1.24,0.92 -0.22,0.2 -0.4,0.42 -0.56,0.68l5.33 0 0 2.12 -8.36 0c0.02,-0.88 0.22,-1.68 0.58,-2.42 0.34,-0.8 1.13,-1.65 2.41,-2.58 1.1,-0.78 1.82,-1.35 2.16,-1.7 0.5,-0.54 0.74,-1.11 0.74,-1.75 0,-0.52 -0.14,-0.94 -0.42,-1.28zm-5.29 30.37c0.56,0.24 1.04,0.64 1.39,1.2 0.34,0.48 0.54,1.02 0.64,1.66 0.06,0.38 0.08,0.89 0.08,1.59l-5.87 0c0.04,0.8 0.32,1.38 0.84,1.7 0.32,0.2 0.72,0.3 1.16,0.3 0.48,0 0.88,-0.13 1.17,-0.36 0.16,-0.14 0.3,-0.32 0.44,-0.56l2.14 0c-0.06,0.48 -0.32,0.96 -0.78,1.46 -0.72,0.78 -1.74,1.18 -3.02,1.18 -1.08,0 -2.02,-0.34 -2.83,-1 -0.82,-0.66 -1.24,-1.74 -1.24,-3.21 0,-1.4 0.38,-2.47 1.12,-3.21 0.74,-0.74 1.7,-1.11 2.87,-1.11 0.7,0 1.32,0.12 1.88,0.38zm-3.78 -20.67l-2.45 0 0 -8.4 -2.88 0 0 -1.64c0.76,-0.02 1.3,-0.08 1.6,-0.14 0.48,-0.12 0.88,-0.32 1.17,-0.64 0.2,-0.22 0.36,-0.52 0.46,-0.88 0.06,-0.22 0.1,-0.38 0.1,-0.48l1.99 0 0 12.18zm27.62 -5.13c-0.36,-0.14 -0.94,-0.22 -1.73,-0.22l0 -1.72c0.78,-0.02 1.31,-0.1 1.63,-0.24 0.52,-0.24 0.78,-0.7 0.78,-1.42 0,-0.48 -0.12,-0.86 -0.4,-1.14 -0.28,-0.3 -0.66,-0.44 -1.13,-0.44 -0.56,0 -0.98,0.18 -1.26,0.54 -0.25,0.36 -0.38,0.84 -0.38,1.44l-2.23 0c0.02,-0.6 0.14,-1.17 0.32,-1.74 0.2,-0.46 0.5,-0.89 0.92,-1.32 0.32,-0.28 0.7,-0.5 1.12,-0.65 0.44,-0.15 0.96,-0.22 1.59,-0.22 1.16,0 2.09,0.3 2.81,0.89 0.72,0.6 1.08,1.42 1.08,2.44 0,0.72 -0.22,1.32 -0.64,1.81 -0.28,0.32 -0.56,0.52 -0.84,0.62 0.22,0 0.51,0.2 0.93,0.58 0.62,0.56 0.92,1.34 0.92,2.31 0,1.04 -0.36,1.94 -1.08,2.72 -0.72,0.79 -1.78,1.18 -3.17,1.18 -1.72,0 -2.91,-0.56 -3.59,-1.7 -0.36,-0.6 -0.56,-1.38 -0.6,-2.35l2.35 0c0,0.49 0.08,0.89 0.24,1.22 0.3,0.6 0.82,0.88 1.59,0.88 0.46,0 0.88,-0.16 1.21,-0.48 0.36,-0.32 0.52,-0.78 0.52,-1.39 0,-0.78 -0.32,-1.32 -0.98,-1.6zm13.2 0.64l0 1.87 -1.4 0 0 2.62 -2.34 0 0 -2.62 -4.83 0 0 -2.09 4.49 -7.4 2.69 0 0 7.62 1.38 0zm6.5 -0.92c-0.28,-0.42 -0.74,-0.64 -1.36,-0.64 -0.28,0 -0.54,0.04 -0.76,0.12 -0.38,0.12 -0.66,0.38 -0.84,0.74l-2.15 -0.1 0.86 -6.74 6.7 0 0 2.03 -4.99 0 -0.44 2.67c0.38,-0.24 0.66,-0.4 0.88,-0.48 0.34,-0.14 0.75,-0.2 1.26,-0.2 1.02,0 1.9,0.34 2.63,1.02 0.76,0.68 1.14,1.68 1.14,2.97 0,1.12 -0.36,2.12 -1.08,3.01 -0.73,0.88 -1.81,1.32 -3.25,1.32 -1.16,0 -2.12,-0.3 -2.86,-0.92 -0.76,-0.62 -1.16,-1.52 -1.24,-2.66l2.38 0c0.1,0.52 0.28,0.92 0.54,1.2 0.28,0.3 0.68,0.44 1.18,0.44 0.6,0 1.06,-0.22 1.36,-0.64 0.32,-0.4 0.46,-0.94 0.46,-1.58 0.02,-0.62 -0.12,-1.14 -0.42,-1.58zm12.35 -3.71l-2.4 0c0,-0.2 -0.08,-0.42 -0.22,-0.64 -0.26,-0.38 -0.66,-0.58 -1.17,-0.58 -0.78,0 -1.34,0.44 -1.66,1.31 -0.18,0.48 -0.3,1.2 -0.38,2.13 0.3,-0.36 0.64,-0.62 1.04,-0.78 0.4,-0.16 0.84,-0.24 1.34,-0.24 1.08,0 1.98,0.36 2.68,1.1 0.67,0.74 1.04,1.67 1.04,2.81 0,1.15 -0.34,2.16 -1.02,3.01 -0.68,0.88 -1.73,1.31 -3.17,1.31 -1.53,0 -2.67,-0.64 -3.39,-1.93 -0.58,-1 -0.86,-2.3 -0.86,-3.89 0,-0.92 0.04,-1.67 0.13,-2.26 0.14,-1.04 0.42,-1.92 0.82,-2.59 0.36,-0.6 0.82,-1.08 1.38,-1.44 0.56,-0.36 1.24,-0.54 2.02,-0.54 1.14,0 2.03,0.3 2.71,0.88 0.68,0.58 1.04,1.35 1.14,2.31zm-157.31 -3.13c1.28,0 2.31,0.36 3.07,1.08 0.76,0.72 1.14,1.66 1.14,2.83 0,0.92 -0.26,1.72 -0.8,2.42 -0.34,0.46 -0.92,0.96 -1.72,1.54 -0.02,0 -0.02,0 -0.04,0.02l-0.96 0.67c-0.6,0.42 -1,0.74 -1.24,0.92 -0.21,0.2 -0.4,0.42 -0.56,0.68l5.33 0 0 2.1 -8.34 0c0.02,-0.8 0.2,-1.56 0.5,-2.23 0.02,-0.04 0.04,-0.1 0.06,-0.16 0.34,-0.8 1.13,-1.67 2.41,-2.58 1.1,-0.8 1.82,-1.35 2.16,-1.7 0.5,-0.54 0.74,-1.11 0.74,-1.75 0,-0.52 -0.14,-0.94 -0.42,-1.3 -0.3,-0.34 -0.7,-0.5 -1.24,-0.5 -0.72,0 -1.22,0.26 -1.48,0.82 -0.16,0.3 -0.24,0.8 -0.28,1.5l-2.33 0c0.04,-1.04 0.24,-1.88 0.58,-2.51 0.28,-0.54 0.7,-0.9 1.16,-1.2 0.22,-0.14 0.48,-0.22 0.74,-0.3 0.46,-0.16 0.92,-0.34 1.52,-0.34zm-17.46 40.81l-2.12 0 0 -10.88 2.4 0 4.31 7.58 0 -7.58 2.12 0 0 10.88 -2.27 0 -4.43 -7.72 0 7.72zm7.29 -28.56l0 -8.4 -2.86 0 0 -1.64c0.74,-0.02 1.28,-0.08 1.58,-0.14 0.48,-0.12 0.88,-0.32 1.17,-0.64 0.2,-0.22 0.36,-0.52 0.46,-0.88 0.06,-0.22 0.1,-0.38 0.1,-0.48l1.99 0 0 12.2 -2.45 0 0 -0.02zm-7.86 -38.1l0 -7.76 7.78 0 0 7.94 -7.78 0c0,-0.08 0,-0.12 0,-0.18zm7.78 10.38c-3.11,-0.93 -5.65,-3.17 -6.92,-6.13l6.92 0 0 6.13zm4.09 -6.13l6.72 0 0 6.63 -6.72 0 0 -6.63zm10.82 0l6.91 0c-1.26,2.95 -3.8,5.19 -6.91,6.13l0 -6.13zm7.78 -4.25c0,0.06 0,0.1 0,0.18l-7.78 0 0 -7.94 7.8 0 0 7.76 -0.02 0zm-9.82 -11.85l-2.06 0 0 12.03 -6.72 0 0 -19.8 7.74 0c4.91,0 9.02,3.3 10.36,7.76l-9.32 0zm-12.87 0l-7.29 0c1.06,-3.49 3.8,-6.23 7.29,-7.27l0 7.27zm2.07 74.21c0.42,-0.24 1.04,-0.42 1.86,-0.52l0.71 -0.08c0.4,-0.06 0.68,-0.12 0.84,-0.2 0.3,-0.12 0.46,-0.32 0.46,-0.58 0,-0.34 -0.12,-0.56 -0.36,-0.7 -0.22,-0.12 -0.56,-0.18 -1.01,-0.18 -0.5,0 -0.86,0.12 -1.06,0.36 -0.16,0.18 -0.26,0.44 -0.3,0.74l-2.03 0c0.04,-0.69 0.24,-1.28 0.6,-1.73 0.56,-0.7 1.52,-1.06 2.87,-1.06 0.88,0 1.66,0.18 2.35,0.52 0.68,0.36 1.04,1.01 1.04,1.98l0 3.69c0,0.26 0,0.58 0,0.94 0.02,0.28 0.06,0.46 0.14,0.56 0.06,0.1 0.16,0.18 0.3,0.24l0 0.32 -2.27 0c-0.08,-0.16 -0.12,-0.32 -0.14,-0.46 -0.02,-0.14 -0.04,-0.3 -0.06,-0.48 -0.28,0.3 -0.62,0.58 -1,0.8 -0.46,0.26 -0.98,0.4 -1.56,0.4 -0.74,0 -1.34,-0.22 -1.82,-0.62 -0.48,-0.42 -0.72,-1.02 -0.72,-1.78 0,-1 0.38,-1.72 1.16,-2.15z"/>
   <path class="fil14" d="M140.55 49.85c2.95,3.33 7.2,5.49 11.99,5.49 3.43,0 6.59,-1.1 9.2,-2.93l6.74 0c0.06,-0.04 0.1,-0.1 0.14,-0.14 1.1,-0.87 2.1,-1.85 2.95,-2.97l-11.75 0c-0.48,-0.76 -0.92,-1.55 -1.3,-2.39l14.61 0c0.52,-0.98 0.93,-2.02 1.28,-3.1l-16.97 0c-0.08,-0.26 -0.18,-0.5 -0.24,-0.73 -0.14,-0.64 -0.2,-1.3 -0.28,-1.96l18.1 0c0.1,-0.8 0.24,-1.6 0.24,-2.44 0,-0.22 -0.06,-0.44 -0.06,-0.66l-18.5 0c0.02,-0.89 0.12,-1.75 0.26,-2.61l17.96 0c-0.2,-1.08 -0.52,-2.1 -0.92,-3.1l-16.26 0c0.3,-0.93 0.66,-1.81 1.1,-2.69l13.81 0c-0.28,-0.46 -0.66,-0.86 -0.98,-1.3 -0.44,-0.6 -0.84,-1.26 -1.38,-1.8l-9.54 0c0.18,-0.26 0.38,-0.48 0.58,-0.71 -2.53,-1.66 -5.55,-2.64 -8.8,-2.64 -8.86,0 -16.08,7.2 -16.08,16.09 0,1.13 0.14,2.23 0.36,3.29 0.58,2.79 1.91,5.27 3.73,7.31z"/>
  </g>
 </g>
</svg>
