<?xml version="1.0" encoding="UTF-8"?>
<!DOCTYPE svg PUBLIC "-//W3C//DTD SVG 1.1//EN" "http://www.w3.org/Graphics/SVG/1.1/DTD/svg11.dtd">
<!-- Creator: CorelDRAW 2020 (64-Bit) -->
<svg xmlns="http://www.w3.org/2000/svg" xml:space="preserve" width="376px" height="133px" version="1.1" style="shape-rendering:geometricPrecision; text-rendering:geometricPrecision; image-rendering:optimizeQuality; fill-rule:evenodd; clip-rule:evenodd"
viewBox="0 0 53.11 18.79"
 xmlns:xlink="http://www.w3.org/1999/xlink"
 xmlns:xodm="http://www.corel.com/coreldraw/odm/2003">
 <defs>
  <style type="text/css">
   <![CDATA[
    .fil25 {fill:none}
    .fil0 {fill:#F4F6FE}
    .fil8 {fill:#00645D;fill-rule:nonzero}
    .fil17 {fill:#00B3AC;fill-rule:nonzero}
    .fil9 {fill:#111A23;fill-rule:nonzero}
    .fil1 {fill:#1A318F;fill-rule:nonzero}
    .fil10 {fill:#2D3F59;fill-rule:nonzero}
    .fil5 {fill:#333333;fill-rule:nonzero}
    .fil2 {fill:#425DC9;fill-rule:nonzero}
    .fil6 {fill:#5273F7;fill-rule:nonzero}
    .fil20 {fill:#7E9CC3;fill-rule:nonzero}
    .fil7 {fill:#829AF9;fill-rule:nonzero}
    .fil15 {fill:#BCBCBC;fill-rule:nonzero}
    .fil12 {fill:#DFDFDF;fill-rule:nonzero}
    .fil22 {fill:#EFEFFB;fill-rule:nonzero}
    .fil11 {fill:#FF6060;fill-rule:nonzero}
    .fil23 {fill:white;fill-rule:nonzero}
    .fil4 {fill:#999999;fill-rule:nonzero;fill-opacity:0.501961}
    .fil3 {fill:#B3B3B3;fill-rule:nonzero;fill-opacity:0.501961}
    .fil24 {fill:#00B3AC;fill-rule:nonzero;fill-opacity:0.541176}
    .fil19 {fill:#008E8A;fill-rule:nonzero}
    .fil16 {fill:#BCBCBC;fill-rule:nonzero}
    .fil14 {fill:#C1C1C1;fill-rule:nonzero}
    .fil13 {fill:#EFEFEF;fill-rule:nonzero}
    .fil21 {fill:url(#id11);fill-rule:nonzero}
    .fil18 {fill:url(#id12);fill-rule:nonzero}
   ]]>
  </style>
   <clipPath id="id0">
    <path d="M0 0l53.11 0 0 18.79 -53.11 0 0 -18.79z"/>
   </clipPath>
      <mask id="id1">
  <linearGradient id="id2" gradientUnits="userSpaceOnUse" x1="40.99" y1="14.3" x2="41.04" y2="11.5">
   <stop offset="0" style="stop-opacity:1; stop-color:white"/>
   <stop offset="1" style="stop-opacity:0; stop-color:white"/>
  </linearGradient>
       <rect style="fill:url(#id2)" x="32.52" y="8.26" width="17.06" height="5.76"/>
      </mask>
      <mask id="id3">
  <linearGradient id="id4" gradientUnits="userSpaceOnUse" x1="44.57" y1="9.39" x2="41.55" y2="9.49">
   <stop offset="0" style="stop-opacity:1; stop-color:white"/>
   <stop offset="1" style="stop-opacity:0; stop-color:white"/>
  </linearGradient>
       <rect style="fill:url(#id4)" x="39.69" y="8.63" width="6.65" height="1.62"/>
      </mask>
      <mask id="id5">
  <linearGradient id="id6" gradientUnits="userSpaceOnUse" x1="48.99" y1="11.7" x2="46.55" y2="11.65">
   <stop offset="0" style="stop-opacity:1; stop-color:white"/>
   <stop offset="1" style="stop-opacity:0; stop-color:white"/>
  </linearGradient>
       <rect style="fill:url(#id6)" x="45.79" y="11.4" width="2.99" height="0.53"/>
      </mask>
      <mask id="id7">
  <linearGradient id="id8" gradientUnits="userSpaceOnUse" x1="49.03" y1="12.96" x2="46.99" y2="12.98">
   <stop offset="0" style="stop-opacity:1; stop-color:white"/>
   <stop offset="1" style="stop-opacity:0; stop-color:white"/>
  </linearGradient>
       <rect style="fill:url(#id8)" x="45.98" y="12.06" width="3.24" height="1.82"/>
      </mask>
      <mask id="id9">
  <linearGradient id="id10" gradientUnits="userSpaceOnUse" x1="45.49" y1="13.14" x2="43.91" y2="12.92">
   <stop offset="0" style="stop-opacity:1; stop-color:white"/>
   <stop offset="1" style="stop-opacity:0; stop-color:white"/>
  </linearGradient>
       <rect style="fill:url(#id10)" x="43.59" y="12.42" width="1.77" height="1.16"/>
      </mask>
  <linearGradient id="id11" gradientUnits="userSpaceOnUse" x1="44.57" y1="9.39" x2="41.55" y2="9.49">
   <stop offset="0" style="stop-opacity:1; stop-color:#7E9CC3"/>
   <stop offset="1" style="stop-opacity:1; stop-color:#7E9CC3"/>
  </linearGradient>
  <linearGradient id="id12" gradientUnits="userSpaceOnUse" x1="40.99" y1="14.3" x2="41.04" y2="11.5">
   <stop offset="0" style="stop-opacity:1; stop-color:#008E8A"/>
   <stop offset="1" style="stop-opacity:1; stop-color:#00B3AC"/>
  </linearGradient>
 </defs>
 <g id="Слой_x0020_1">
  <metadata id="CorelCorpID_0Corel-Layer"/>
  <polygon class="fil0" points="0,0 53.11,0 53.11,18.79 0,18.79 "/>
  <g style="clip-path:url(#id0)">
   <g id="_2657019768064">
    <g>
     <path id="1" class="fil1" d="M38.47 6.22c0,0 -0.05,0.02 -0.15,0.06 -0.28,0.12 -0.93,0.44 -1.41,0.97 0,0 -3.55,-0.63 -4.51,0.63 0,0 -1.1,-0.36 -2.23,-0.36l-0.96 0c-1.13,0 -2.22,0.36 -2.22,0.36 -0.97,-1.26 -4.52,-0.63 -4.52,-0.63 -0.03,-0.03 -0.06,-0.07 -0.09,-0.1 -0.02,-0.02 -0.05,-0.05 -0.08,-0.07 -0.02,-0.03 -0.06,-0.06 -0.09,-0.08 -0.04,-0.04 -0.08,-0.07 -0.12,-0.1 0,0 0,0 0,-0.01 -0.04,-0.03 -0.08,-0.06 -0.13,-0.09 -0.04,-0.04 -0.08,-0.07 -0.13,-0.1 -0.04,-0.03 -0.09,-0.06 -0.13,-0.08 0,0 0,0 0,-0.01 -0.04,-0.02 -0.08,-0.05 -0.12,-0.07 -0.04,-0.02 -0.09,-0.05 -0.12,-0.07 -0.02,-0.01 -0.04,-0.02 -0.06,-0.03 -0.06,-0.03 -0.11,-0.05 -0.16,-0.08 -0.03,-0.01 -0.06,-0.03 -0.09,-0.04 -0.03,-0.01 -0.05,-0.02 -0.07,-0.03 -0.01,-0.01 -0.01,-0.01 -0.02,-0.01 -0.01,0 -0.02,-0.01 -0.03,-0.01 -0.02,-0.01 -0.04,-0.02 -0.05,-0.02 -0.04,-0.02 -0.07,-0.03 -0.07,-0.03 0.53,-0.5 1.72,-0.93 2.88,-1.26 0.09,-0.03 0.18,-0.05 0.28,-0.08 0.09,-0.02 0.18,-0.05 0.27,-0.07 0.09,-0.02 0.18,-0.05 0.27,-0.07 0,0 0,0 0,0 0.09,-0.02 0.17,-0.04 0.25,-0.06 0.02,0 0.05,-0.01 0.07,-0.01 0.03,-0.01 0.06,-0.02 0.1,-0.03 0.04,-0.01 0.09,-0.02 0.13,-0.03 0.03,0 0.05,-0.01 0.07,-0.02 0.16,-0.03 0.32,-0.07 0.46,-0.1 0.07,-0.01 0.14,-0.03 0.2,-0.04 0.01,0 0.03,0 0.04,-0.01 0.08,-0.01 0.15,-0.03 0.22,-0.04 0.14,-0.03 0.26,-0.05 0.35,-0.07 0.02,0 0.03,-0.01 0.05,-0.01 0.06,-0.01 0.1,-0.02 0.12,-0.02 0.01,0 0.02,0 0.02,0l6.01 0c0,0 0.16,0.02 0.45,0.08 0.08,0.02 0.18,0.04 0.28,0.06 0.02,0 0.04,0.01 0.06,0.01 0.04,0.01 0.07,0.02 0.1,0.02 0.01,0 0.01,0 0.02,0 0.06,0.02 0.12,0.03 0.19,0.04 0.04,0.01 0.07,0.02 0.12,0.03 0.07,0.02 0.15,0.04 0.23,0.05 0.19,0.05 0.38,0.09 0.59,0.14 0.01,0.01 0.02,0.01 0.03,0.01 0,0 0,0 0,0 0.01,0 0.01,0 0.01,0 0.26,0.07 0.54,0.14 0.81,0.22 0.08,0.02 0.15,0.04 0.22,0.06 0.06,0.02 0.13,0.04 0.19,0.06 0.09,0.03 0.18,0.05 0.27,0.08 0.06,0.02 0.12,0.04 0.18,0.06 0.14,0.05 0.29,0.1 0.43,0.15 0.06,0.03 0.12,0.05 0.19,0.07 0,0.01 0,0.01 0.01,0.01 0.06,0.02 0.13,0.05 0.19,0.08 0.04,0.02 0.09,0.03 0.13,0.05 0.03,0.02 0.06,0.03 0.09,0.04 0.08,0.04 0.16,0.08 0.23,0.11 0.03,0.02 0.06,0.03 0.08,0.04 0.28,0.15 0.51,0.3 0.67,0.45z"/>
     <path class="fil2" d="M28.15 4.3c-0.06,0.13 -0.13,0.26 -0.19,0.4 -0.27,0.59 -0.48,1.2 -0.63,1.72 -0.24,0.84 -0.34,1.46 -0.34,1.46 -0.97,-1.26 -4.52,-0.63 -4.52,-0.63 -0.03,-0.03 -0.06,-0.07 -0.09,-0.1 -0.02,-0.02 -0.05,-0.05 -0.08,-0.07 -0.02,-0.03 -0.06,-0.06 -0.09,-0.08 -0.03,-0.04 -0.07,-0.07 -0.12,-0.1 0,0 0,0 0,-0.01 -0.04,-0.03 -0.08,-0.06 -0.13,-0.09 -0.04,-0.04 -0.08,-0.07 -0.13,-0.1 -0.04,-0.03 -0.08,-0.05 -0.13,-0.08 0,0 0,0 0,-0.01 -0.04,-0.02 -0.08,-0.05 -0.12,-0.07 -0.04,-0.02 -0.09,-0.04 -0.12,-0.07 -0.02,-0.01 -0.04,-0.02 -0.06,-0.03 -0.06,-0.03 -0.11,-0.05 -0.16,-0.08 -0.03,-0.01 -0.06,-0.03 -0.09,-0.04 -0.03,-0.01 -0.05,-0.02 -0.07,-0.03 -0.01,-0.01 -0.01,-0.01 -0.02,-0.01 -0.01,0 -0.02,-0.01 -0.03,-0.01 -0.02,-0.01 -0.04,-0.02 -0.05,-0.02 -0.04,-0.02 -0.07,-0.03 -0.07,-0.03 0.53,-0.5 1.72,-0.93 2.88,-1.26 0.09,-0.03 0.18,-0.05 0.28,-0.08 0.09,-0.02 0.18,-0.05 0.27,-0.07 0.09,-0.02 0.18,-0.05 0.27,-0.07 0,0 0,0 0,0 0.09,-0.02 0.17,-0.04 0.25,-0.06 0.02,0 0.05,-0.01 0.07,-0.01 0.03,-0.01 0.06,-0.02 0.1,-0.03 0.04,-0.01 0.09,-0.02 0.13,-0.03 0.03,0 0.05,-0.01 0.07,-0.02 0.16,-0.03 0.32,-0.07 0.46,-0.1 0.07,-0.01 0.14,-0.03 0.2,-0.04 0.01,0 0.03,0 0.04,-0.01 0.08,-0.01 0.15,-0.03 0.22,-0.04 0.14,-0.03 0.26,-0.05 0.35,-0.07 0.02,0 0.03,-0.01 0.05,-0.01 0.06,-0.01 0.1,-0.02 0.12,-0.02 0.01,0 0.02,0 0.02,0l1.46 0z"/>
     <path class="fil2" d="M38.47 6.22c0,0 -0.05,0.02 -0.15,0.06 -0.28,0.12 -0.93,0.44 -1.41,0.97 0,0 -3.55,-0.63 -4.51,0.63 0,0 -0.1,-0.62 -0.35,-1.46 -0.15,-0.52 -0.35,-1.13 -0.62,-1.72 -0.06,-0.14 -0.13,-0.27 -0.2,-0.4l1.47 0c0,0 0.16,0.02 0.45,0.08 0.08,0.02 0.18,0.04 0.28,0.06 0.02,0 0.04,0.01 0.06,0.01 0.04,0.01 0.07,0.02 0.1,0.02 0.01,0 0.01,0 0.02,0 0.06,0.02 0.12,0.03 0.19,0.04 0.04,0.01 0.07,0.02 0.12,0.03 0.07,0.02 0.15,0.04 0.23,0.05 0.19,0.05 0.38,0.09 0.59,0.14 0.01,0.01 0.02,0.01 0.03,0.01 0,0 0,0 0,0 0.01,0 0.01,0 0.01,0 0.26,0.07 0.54,0.14 0.81,0.22 0.08,0.02 0.15,0.04 0.22,0.06 0.06,0.02 0.13,0.04 0.19,0.06 0.09,0.03 0.18,0.05 0.27,0.08 0.06,0.02 0.12,0.04 0.18,0.06 0.14,0.05 0.29,0.1 0.43,0.15 0.06,0.03 0.12,0.05 0.19,0.07 0,0.01 0,0.01 0.01,0.01 0.06,0.02 0.13,0.05 0.19,0.08 0.04,0.02 0.09,0.03 0.13,0.05 0.03,0.02 0.06,0.03 0.09,0.04 0.08,0.04 0.16,0.08 0.23,0.11 0.03,0.02 0.06,0.03 0.08,0.04 0.28,0.15 0.51,0.3 0.67,0.45z"/>
     <path class="fil1" d="M23.79 4.96c-0.45,0.5 -0.75,0.99 -0.95,1.38 -0.28,0.54 -0.37,0.91 -0.37,0.91 -0.03,-0.03 -0.06,-0.07 -0.09,-0.1 -0.02,-0.02 -0.05,-0.05 -0.08,-0.07 -0.02,-0.03 -0.06,-0.06 -0.09,-0.08 -0.03,-0.04 -0.07,-0.07 -0.12,-0.1 0,0 0,0 0,-0.01 -0.04,-0.03 -0.08,-0.06 -0.13,-0.09 -0.04,-0.04 -0.08,-0.07 -0.13,-0.1 -0.04,-0.03 -0.08,-0.05 -0.13,-0.08 0,0 0,0 0,-0.01 -0.04,-0.02 -0.08,-0.05 -0.12,-0.07 -0.04,-0.02 -0.09,-0.04 -0.12,-0.07 -0.02,-0.01 -0.04,-0.02 -0.06,-0.03 -0.06,-0.03 -0.11,-0.05 -0.16,-0.08 -0.03,-0.01 -0.06,-0.03 -0.09,-0.04 -0.03,-0.01 -0.05,-0.02 -0.07,-0.03 -0.01,-0.01 -0.01,-0.01 -0.02,-0.01 -0.01,0 -0.02,-0.01 -0.03,-0.01 -0.02,-0.01 -0.04,-0.02 -0.05,-0.02 -0.04,-0.02 -0.07,-0.03 -0.07,-0.03 0.53,-0.5 1.72,-0.93 2.88,-1.26z"/>
     <path class="fil1" d="M38.47 6.22c0,0 -0.05,0.02 -0.15,0.06 -0.28,0.12 -0.93,0.44 -1.41,0.97 0,0 -0.08,-0.37 -0.36,-0.91 -0.2,-0.39 -0.51,-0.88 -0.96,-1.38 0.08,0.02 0.15,0.04 0.22,0.06 0.06,0.02 0.13,0.04 0.19,0.06 0.09,0.03 0.18,0.05 0.27,0.08 0.06,0.02 0.12,0.04 0.18,0.06 0.14,0.05 0.29,0.1 0.43,0.15 0.06,0.03 0.12,0.05 0.19,0.07 0,0.01 0,0.01 0.01,0.01 0.06,0.02 0.13,0.05 0.19,0.08 0.04,0.02 0.09,0.03 0.13,0.05 0.03,0.02 0.06,0.03 0.09,0.04 0.08,0.04 0.16,0.08 0.23,0.11 0.03,0.02 0.06,0.03 0.08,0.04 0.28,0.15 0.51,0.3 0.67,0.45z"/>
     <g>
      <path class="fil3" d="M29.83 1.56l0 12.75c0,0.07 -0.06,0.13 -0.14,0.13 -0.07,0 -0.13,-0.06 -0.13,-0.13l0 -12.75c0,-0.07 0.06,-0.13 0.13,-0.13 0.08,0 0.14,0.06 0.14,0.13z"/>
     </g>
     <path class="fil4" d="M29.83 13.52l0 1.23 -0.27 0 0 -1.48c0.08,0.05 0.18,0.14 0.27,0.25z"/>
     <path class="fil4" d="M29.83 4.72l0 0.98c-0.09,-0.01 -0.18,-0.02 -0.27,-0.03l0 -0.95 0.27 0z"/>
     <g>
      <path class="fil5" d="M31.76 15.42c-0.12,0.02 -0.21,0.12 -0.21,0.25l0 0.48c0,0.44 -0.34,0.82 -0.78,0.83 -0.46,0.02 -0.84,-0.35 -0.84,-0.81l0 -2.61c0,-0.04 -0.04,-0.08 -0.09,-0.08l-0.3 0c-0.04,0 -0.08,0.04 -0.08,0.08l0 2.58c0,0.7 0.54,1.29 1.24,1.31 0.72,0.02 1.32,-0.56 1.32,-1.28l0 -0.51c0,-0.14 -0.12,-0.25 -0.26,-0.24z"/>
     </g>
     <g>
      <path class="fil5" d="M29.69 3.21c-0.09,0 -0.17,-0.1 -0.17,-0.23l0 -1.68c0,-0.13 0.08,-0.23 0.17,-0.23 0.1,0 0.18,0.1 0.18,0.23l0 1.68c0,0.13 -0.08,0.23 -0.18,0.23z"/>
     </g>
     <g>
      <path class="fil6" d="M38.47 6.22c-1.05,-0.38 -3.05,-0.61 -4.8,-0.75 -1.8,-0.14 -3.33,-0.18 -3.33,-0.18l-1.29 0c0,0 -1.54,0.04 -3.33,0.18 -1.75,0.14 -3.76,0.37 -4.81,0.75 0,0 3.42,-3.68 6.58,-3.68 0,0 0.67,-0.67 2.2,-0.16 1.53,-0.51 2.21,0.16 2.21,0.16 3.15,0 6.57,3.68 6.57,3.68z"/>
      <path class="fil7" d="M33.67 5.47c-1.8,-0.14 -3.33,-0.18 -3.33,-0.18l-1.29 0c0,0 -1.54,0.04 -3.33,0.18 0.62,-1.68 1.77,-2.93 1.77,-2.93 0,0 0.67,-0.67 2.2,-0.16 1.53,-0.51 2.21,0.16 2.21,0.16 0,0 1.14,1.25 1.77,2.93z"/>
     </g>
    </g>
    <g>
     <polygon class="fil8" points="33.21,13.57 35.26,13.57 35.26,11.66 32.97,11.66 32.97,13.3 "/>
     <path class="fil9" d="M48.79 13.41c0,0.81 -0.52,1.47 -1.16,1.47 -0.65,0 -1.17,-0.66 -1.17,-1.47 0,-0.82 0.52,-1.48 1.17,-1.48 0.64,0 1.16,0.66 1.16,1.48z"/>
     <polygon class="fil9" points="47.22,14.88 47.63,14.88 47.63,11.93 47.22,11.93 "/>
     <path class="fil9" d="M35.53 13.3c0,0.72 -0.39,1.31 -0.87,1.31 -0.48,0 -0.87,-0.59 -0.87,-1.31 0,-0.72 0.39,-1.31 0.87,-1.31 0.48,0 0.87,0.59 0.87,1.31z"/>
     <polygon class="fil9" points="34.66,14.61 34.06,14.61 34.06,11.99 34.66,11.99 "/>
     <path class="fil9" d="M40.8 13.13c0,0.74 -0.47,1.35 -1.06,1.35 -0.58,0 -1.06,-0.61 -1.06,-1.35 0,-0.74 0.48,-1.34 1.06,-1.34 0.59,0 1.06,0.6 1.06,1.34z"/>
     <polygon class="fil9" points="39.38,14.48 39.74,14.48 39.74,11.79 39.38,11.79 "/>
     <path class="fil10" d="M40.43 13.13c0,0.74 -0.47,1.35 -1.05,1.35 -0.59,0 -1.06,-0.61 -1.06,-1.35 0,-0.74 0.47,-1.34 1.06,-1.34 0.58,0 1.05,0.6 1.05,1.34z"/>
     <polygon class="fil8" points="40.62,14.02 40.06,13.35 40.06,11.99 41.49,11.4 42.7,11.72 43.24,13.41 42.92,13.88 "/>
     <path class="fil9" d="M43.59 13.47c0,0.81 -0.53,1.48 -1.17,1.48 -0.64,0 -1.16,-0.67 -1.16,-1.48 0,-0.82 0.52,-1.48 1.16,-1.48 0.64,0 1.17,0.66 1.17,1.48z"/>
     <polygon class="fil9" points="41.7,14.95 42.42,14.95 42.42,11.99 41.7,11.99 "/>
     <path class="fil11" d="M33.06 10.3c0,0 -0.26,0.09 -0.32,0.19l0 0.43 0.05 0.11 0.4 -0.21 0 -0.46 -0.13 -0.06z"/>
     <path class="fil10" d="M34.93 13.3c0,0.72 -0.39,1.31 -0.87,1.31 -0.48,0 -0.87,-0.59 -0.87,-1.31 0,-0.72 0.39,-1.31 0.87,-1.31 0.48,0 0.87,0.59 0.87,1.31z"/>
     <path class="fil12" d="M34.68 13.3c0,0.52 -0.28,0.95 -0.62,0.95 -0.35,0 -0.63,-0.43 -0.63,-0.95 0,-0.52 0.28,-0.94 0.63,-0.94 0.34,0 0.62,0.42 0.62,0.94z"/>
     <path class="fil13" d="M34.06 12.5c0.33,0 0.6,0.38 0.62,0.87 0,-0.02 0,-0.04 0,-0.07 0,-0.52 -0.28,-0.94 -0.62,-0.94 -0.35,0 -0.63,0.42 -0.63,0.94 0,0.03 0.01,0.05 0.01,0.07 0.02,-0.49 0.29,-0.87 0.62,-0.87z"/>
     <path class="fil14" d="M34.06 14.1c-0.33,0 -0.6,-0.38 -0.62,-0.87 0,0.02 -0.01,0.05 -0.01,0.07 0,0.52 0.28,0.95 0.63,0.95 0.34,0 0.62,-0.43 0.62,-0.95 0,-0.02 0,-0.05 0,-0.07 -0.02,0.49 -0.29,0.87 -0.62,0.87z"/>
     <path class="fil10" d="M42.86 13.47c0,0.81 -0.52,1.48 -1.16,1.48 -0.64,0 -1.16,-0.67 -1.16,-1.48 0,-0.82 0.52,-1.48 1.16,-1.48 0.64,0 1.16,0.66 1.16,1.48z"/>
     <path class="fil12" d="M42.6 13.47c0,0.63 -0.4,1.14 -0.9,1.14 -0.5,0 -0.9,-0.51 -0.9,-1.14 0,-0.63 0.4,-1.14 0.9,-1.14 0.5,0 0.9,0.51 0.9,1.14z"/>
     <path class="fil13" d="M41.7 12.47c0.48,0 0.87,0.47 0.9,1.07 0,-0.02 0,-0.05 0,-0.07 0,-0.63 -0.4,-1.14 -0.9,-1.14 -0.5,0 -0.9,0.51 -0.9,1.14 0,0.02 0,0.05 0,0.07 0.03,-0.6 0.42,-1.07 0.9,-1.07z"/>
     <path class="fil14" d="M41.7 14.47c-0.48,0 -0.87,-0.48 -0.9,-1.07 0,0.02 0,0.04 0,0.07 0,0.63 0.4,1.14 0.9,1.14 0.5,0 0.9,-0.51 0.9,-1.14 0,-0.03 0,-0.05 0,-0.07 -0.03,0.59 -0.42,1.07 -0.9,1.07z"/>
     <path class="fil10" d="M48.39 13.41c0,0.81 -0.52,1.47 -1.17,1.47 -0.64,0 -1.16,-0.66 -1.16,-1.47 0,-0.82 0.52,-1.48 1.16,-1.48 0.65,0 1.17,0.66 1.17,1.48z"/>
     <path class="fil15" d="M48.11 13.41c0,0.62 -0.4,1.13 -0.89,1.13 -0.49,0 -0.89,-0.51 -0.89,-1.13 0,-0.63 0.4,-1.14 0.89,-1.14 0.49,0 0.89,0.51 0.89,1.14z"/>
     <path class="fil16" d="M46.54 14.13l1.37 0c0.1,-0.15 0.17,-0.34 0.19,-0.55l-1.76 0c0.03,0.21 0.1,0.4 0.2,0.55z"/>
     <path class="fil17" d="M33.06 10.3c0,0 0.1,-0.2 0.42,-0.32 0.31,-0.12 0.57,-0.21 0.83,-0.41 0.26,-0.21 1.76,-1.01 2.79,-1.18 1.03,-0.17 2.57,-0.13 2.57,-0.13 0,0 3.01,0.07 4.02,0.45 1,0.37 2.88,1.49 2.88,1.49l2.55 1.08 0.21 0.56 0.25 0.32c0,0 -0.01,0.76 -0.32,1.24l0.26 0.17 -0.12 0.31 -6.48 0c0,0 0,-1.04 -0.45,-1.67 -0.44,-0.64 -1,-0.53 -1,-0.53 0,0 -0.91,0.17 -0.98,1.35 -0.03,0.49 0.04,0.79 0.13,0.99l-5.5 -0.19c0,0 -0.15,-0.26 -0.21,-0.78 -0.06,-0.53 -0.31,-1.28 -0.95,-1.35 -0.63,-0.07 -0.8,0.84 -0.8,0.84 0,0 -0.07,0.71 0.05,1.03l-0.53 -0.19c0,0 -0.37,-0.79 0,-2.18l0.38 -0.57 0 -0.33z"/>
     <path class="fil18" style="mask:url(#id1)" d="M33.06 10.3c0,0 0.1,-0.2 0.42,-0.32 0.31,-0.12 0.57,-0.21 0.83,-0.41 0.26,-0.21 1.76,-1.01 2.79,-1.18 1.03,-0.17 2.57,-0.13 2.57,-0.13 0,0 3.01,0.07 4.02,0.45 1,0.37 2.88,1.49 2.88,1.49l2.55 1.08 0.21 0.56 0.25 0.32c0,0 -0.01,0.76 -0.32,1.24l0.26 0.17 -0.12 0.31 -6.48 0c0,0 0,-1.04 -0.45,-1.67 -0.44,-0.64 -1,-0.53 -1,-0.53 0,0 -0.91,0.17 -0.98,1.35 -0.03,0.49 0.04,0.79 0.13,0.99l-5.5 -0.19c0,0 -0.15,-0.26 -0.21,-0.78 -0.06,-0.53 -0.31,-1.28 -0.95,-1.35 -0.63,-0.07 -0.8,0.84 -0.8,0.84 0,0 -0.07,0.71 0.05,1.03l-0.53 -0.19c0,0 -0.37,-0.79 0,-2.18l0.38 -0.57 0 -0.33z"/>
     <path class="fil19" d="M35.04 12.59c0,0.02 0.01,0.05 0.04,0.06 0.23,0.1 1.41,0.58 2.32,0.65 1.01,0.08 2.78,0.26 2.78,0.26 0,0 -2.7,-0.91 -5.07,-1.04 -0.04,0 -0.07,0.03 -0.07,0.07z"/>
     <path class="fil19" d="M32.79 11.03l0.53 0.69c0,0 0.13,-0.26 0.59,-0.32 0.46,-0.06 0.76,0.39 0.76,0.39 0.46,-0.6 2.1,-0.54 3.24,-0.28 1.15,0.26 2.7,0.36 2.7,0.36 0.14,-0.29 0.65,-0.47 0.65,-0.47 -0.07,0.02 -0.17,0 -0.23,0 -0.25,0 -0.5,-0.02 -0.75,-0.05 -0.9,-0.12 -1.78,-0.35 -2.69,-0.46 -0.73,-0.08 -1.46,-0.15 -2.2,-0.22 -0.13,-0.01 -2.33,-0.16 -2.33,-0.18l0 0.14 -0.27 0.4z"/>
     <path class="fil20" d="M34.48 9.73c0,0 0.93,-0.89 2.84,-1.13 1.9,-0.25 2.3,0.35 2.3,0.35l1.35 1.28c0,0 0.33,0.34 -0.35,0.31 -0.67,-0.02 -6,-0.56 -6,-0.56 0,0 -0.27,-0.04 -0.14,-0.25z"/>
     <path class="fil20" d="M39.69 8.66c0,0 1.01,0.76 1.42,1.17 0.4,0.41 0.97,0.34 0.97,0.34l4.26 0.08c0,0 -1.82,-1.15 -2.84,-1.53 0,0 -1.9,-0.16 -3.81,-0.06z"/>
     <path class="fil21" style="mask:url(#id3)" d="M39.69 8.66c0,0 1.01,0.76 1.42,1.17 0.4,0.41 0.97,0.34 0.97,0.34l4.26 0.08c0,0 -1.82,-1.15 -2.84,-1.53 0,0 -1.9,-0.16 -3.81,-0.06z"/>
     <path class="fil22" d="M41.18 9.04l-0.99 0 0 0c0.31,0.25 0.7,0.57 0.92,0.79 0.35,0.35 0.82,0.35 0.94,0.34 0,0 -0.29,-0.64 -0.4,-0.88 -0.12,-0.24 -0.47,-0.25 -0.47,-0.25z"/>
     <polygon class="fil23" points="49.12,11.28 48.86,11.41 48.86,11.87 49.33,11.84 "/>
     <polygon class="fil23" points="42.7,10.96 45.65,11.42 46.06,11.83 43.64,11.74 "/>
     <path class="fil10" d="M45.79 11.4l0.48 0.43c0,0 1.42,0.19 2.48,0.04l0.03 -0.47c0,0 -0.52,0.3 -2.99,0z"/>
     <path class="fil9" style="mask:url(#id5)" d="M45.79 11.4l0.48 0.43c0,0 1.42,0.19 2.48,0.04l0.03 -0.47c0,0 -0.52,0.3 -2.99,0z"/>
     <path class="fil10" d="M45.98 13.88l0.4 -1.78c0,0 1.95,0.03 2.31,-0.04l0.53 1.82 -3.24 0z"/>
     <path class="fil9" style="mask:url(#id7)" d="M45.98 13.88l0.4 -1.78c0,0 1.95,0.03 2.31,-0.04l0.53 1.82 -3.24 0z"/>
     <path class="fil10" d="M43.89 12.42c0,0 -0.3,0.54 -0.3,1.1l1.39 0.06 0.38 -0.18 -0.42 -0.61 -1.05 -0.37z"/>
     <path class="fil9" style="mask:url(#id9)" d="M43.89 12.42c0,0 -0.3,0.54 -0.3,1.1l1.39 0.06 0.38 -0.18 -0.42 -0.61 -1.05 -0.37z"/>
     <path class="fil22" d="M42.96 10.19l-0.61 -1.15c0,0 1.43,-0.01 2.74,1.19l-2.13 -0.04z"/>
     <path class="fil20" d="M41.3 9.99c-0.01,-0.1 -0.04,-0.25 -0.06,-0.4 -0.03,-0.22 -0.28,-0.26 -0.28,-0.26l-0.42 0 0 0c0.22,0.18 0.43,0.36 0.57,0.5 0.06,0.06 0.13,0.11 0.19,0.16z"/>
     <path class="fil22" d="M38.28 9.08c-0.25,0.5 -0.26,1.23 -0.26,1.23 1.19,0.12 2.32,0.22 2.6,0.23 0.07,0 0.13,0 0.19,0 -0.6,-1.38 -2.53,-1.46 -2.53,-1.46z"/>
     <path class="fil10" d="M40.06 9.37c0,0 -0.11,0.58 -0.07,1.12 0.3,0.03 0.53,0.05 0.63,0.05 0.68,0.03 0.35,-0.31 0.35,-0.31l-0.91 -0.86z"/>
     <path class="fil22" d="M37.41 10.25l0.04 -1.25c-0.94,0.1 -1.6,0.38 -1.85,0.49 -0.25,0.12 -0.34,0.55 -0.34,0.55 0.53,0.06 1.32,0.14 2.15,0.21z"/>
     <path class="fil10" d="M34.93 10.01c-0.05,-0.32 0.11,-0.67 0.11,-0.68 -0.37,0.22 -0.56,0.4 -0.56,0.4 -0.13,0.21 0.14,0.25 0.14,0.25 0,0 0.11,0.01 0.31,0.03z"/>
     <path class="fil20" d="M36.59 9.44c0,0 -0.33,-0.06 -0.57,0.05 -0.25,0.12 -0.32,0.6 -0.32,0.6l0 0c0.29,0.03 0.62,0.06 0.96,0.09 0.14,-0.66 -0.07,-0.74 -0.07,-0.74z"/>
     <g>
      <path class="fil17" d="M40.53 13.74c-0.33,-0.01 -0.67,-0.02 -1.01,-0.04 -0.33,-0.01 -0.67,-0.03 -1,-0.04 -0.67,-0.04 -1.34,-0.08 -2.01,-0.15 -0.09,-0.01 -0.17,-0.02 -0.25,-0.03l-0.13 -0.02c-0.04,0 -0.08,-0.01 -0.12,-0.02l-0.13 -0.02c-0.04,0 -0.08,-0.02 -0.12,-0.02 -0.09,-0.02 -0.17,-0.06 -0.24,-0.1 -0.15,-0.09 -0.27,-0.21 -0.37,-0.35 -0.1,-0.14 -0.18,-0.29 -0.25,-0.44 -0.14,-0.31 -0.23,-0.63 -0.29,-0.96 -0.07,-0.33 -0.1,-0.67 -0.09,-1.01l0 0 0 0 0.28 -0.54 -0.27 0.54 0 0c0,0.17 0.01,0.34 0.03,0.5 0.01,0.17 0.04,0.34 0.07,0.5 0.07,0.33 0.16,0.65 0.3,0.96 0.07,0.15 0.15,0.3 0.25,0.43 0.1,0.13 0.21,0.26 0.36,0.34 0.07,0.04 0.14,0.08 0.23,0.09 0.04,0.01 0.08,0.02 0.12,0.03l0.12 0.02c0.04,0 0.08,0.01 0.13,0.02l0.12 0.01c0.08,0.01 0.17,0.02 0.25,0.03 0.67,0.07 1.34,0.12 2.01,0.16 0.33,0.02 0.67,0.04 1,0.06 0.34,0.02 0.68,0.03 1.01,0.05z"/>
     </g>
     <g>
      <path class="fil17" d="M37.34 10.25l-0.08 0.3c-0.03,0.1 -0.06,0.2 -0.08,0.31l0 -0.01 0 0.34 0.01 0.34c0,0.22 0.01,0.45 0.01,0.67 0,0.23 0,0.45 0,0.68 0,0.11 0,0.23 0,0.34 0.01,0.11 0.02,0.22 0.02,0.34 -0.01,-0.12 -0.02,-0.23 -0.03,-0.34 -0.01,-0.11 -0.01,-0.23 -0.01,-0.34 -0.01,-0.22 -0.01,-0.45 -0.02,-0.68 0,-0.22 0,-0.45 0,-0.67l-0.01 -0.34 0 -0.34 0 0 0 0c0.03,-0.1 0.06,-0.2 0.09,-0.3l0.1 -0.3z"/>
     </g>
     <g>
      <path class="fil17" d="M40.56 10.54l-0.17 0.32 0 0c-0.03,0.24 -0.06,0.48 -0.08,0.71 -0.03,0.24 -0.04,0.48 -0.06,0.72 -0.02,0.24 -0.03,0.48 -0.05,0.72 -0.01,0.24 -0.01,0.48 -0.01,0.72 -0.02,-0.24 -0.02,-0.48 -0.01,-0.72 0,-0.24 0.01,-0.48 0.03,-0.72 0.02,-0.24 0.04,-0.48 0.07,-0.72 0.02,-0.24 0.06,-0.48 0.09,-0.71l0 0 0 -0.01 0.19 -0.31z"/>
     </g>
     <g>
      <path class="fil8" d="M41.61 10.12c0,0.08 0.02,0.15 0.06,0.22 0.04,0.06 0.1,0.11 0.16,0.14 0.02,0.01 0.04,0.02 0.06,0.03l0.05 0.01 0.11 0.03 0.22 0.05c0.15,0.04 0.3,0.08 0.45,0.11 0.15,0.04 0.3,0.08 0.44,0.12l0.01 0.01 0 0c0,0.07 -0.01,0.13 -0.01,0.19 0,-0.06 0,-0.12 -0.01,-0.19l0.01 0.01c-0.15,-0.03 -0.3,-0.07 -0.45,-0.1 -0.15,-0.04 -0.3,-0.07 -0.44,-0.11l-0.23 -0.06c-0.03,-0.01 -0.07,-0.02 -0.11,-0.03l-0.05 -0.02c-0.02,0 -0.04,-0.01 -0.06,-0.02 -0.07,-0.04 -0.13,-0.09 -0.16,-0.16 -0.04,-0.07 -0.06,-0.15 -0.05,-0.23z"/>
     </g>
     <path class="fil10" d="M37.16 10.23c0.18,0.02 0.36,0.04 0.54,0.05 0,0 0.05,-1.08 0.32,-1.74 -0.13,0 -0.26,0.01 -0.4,0.02 0,0 -0.43,0.97 -0.46,1.67z"/>
     <path class="fil10" d="M39.94 10.36c0,0 0.02,0.14 0.12,0.22 0,0 0.03,0.15 -0.12,0.23 -0.06,0.02 -0.11,0.03 -0.15,0.02 -0.07,-0.02 -0.12,-0.07 -0.15,-0.13 -0.04,-0.07 -0.12,-0.2 -0.31,-0.21l0.41 -0.18 0.2 0.05z"/>
     <path class="fil24" d="M42.08 10.17c0,0 1.47,0.35 2.59,0.79 1.12,0.44 2.55,0.48 2.55,0.48 0,0 1.34,0.05 1.56,-0.31l-2.1 -0.88 -4.6 -0.08z"/>
     <path class="fil17" d="M39.92 10.36c0.06,-0.02 0.1,-0.08 0.08,-0.15 -0.04,-0.13 -0.15,-0.35 -0.38,-0.44 -0.34,-0.14 -0.9,0.26 -0.9,0.26 0,0 0.03,0.32 0.26,0.43 0.18,0.09 0.71,-0.03 0.94,-0.1z"/>
     <path class="fil19" d="M39.99 10.19c-0.01,0.03 -0.04,0.06 -0.07,0.07 -0.23,0.06 -0.76,0.19 -0.94,0.1 -0.15,-0.08 -0.22,-0.24 -0.25,-0.35 -0.01,0.01 -0.01,0.02 -0.01,0.02 0,0 0.03,0.32 0.26,0.43 0.18,0.09 0.71,-0.03 0.94,-0.1 0.06,-0.02 0.1,-0.08 0.08,-0.15 0,0 0,-0.01 -0.01,-0.02z"/>
    </g>
    <g>
     <path class="fil1" d="M54.6 6.7c0,0 -0.03,0.01 -0.07,0.03 -0.15,0.06 -0.48,0.22 -0.72,0.49 0,0 -1.79,-0.32 -2.28,0.31 0,0 -0.55,-0.18 -1.12,-0.18l-0.49 0c-0.57,0 -1.12,0.18 -1.12,0.18 -0.49,-0.63 -2.29,-0.31 -2.29,-0.31 -0.01,-0.02 -0.03,-0.04 -0.04,-0.05 -0.02,-0.02 -0.03,-0.03 -0.04,-0.04 -0.02,-0.01 -0.03,-0.03 -0.05,-0.04 -0.02,-0.02 -0.04,-0.04 -0.06,-0.05 0,0 0,0 0,0 -0.02,-0.02 -0.04,-0.04 -0.06,-0.05 -0.03,-0.02 -0.05,-0.04 -0.07,-0.05 -0.02,-0.02 -0.05,-0.03 -0.07,-0.04 0,0 0,0 0,-0.01 -0.02,-0.01 -0.04,-0.02 -0.06,-0.03 -0.02,-0.01 -0.04,-0.03 -0.06,-0.04 -0.01,0 -0.02,-0.01 -0.03,-0.01 -0.03,-0.02 -0.06,-0.03 -0.08,-0.04 -0.02,-0.01 -0.03,-0.02 -0.05,-0.02 -0.01,-0.01 -0.02,-0.02 -0.03,-0.02 -0.01,0 -0.01,0 -0.01,0 -0.01,-0.01 -0.01,-0.01 -0.02,-0.01 -0.01,-0.01 -0.02,-0.01 -0.02,-0.01 -0.02,-0.01 -0.04,-0.01 -0.04,-0.01 0.27,-0.26 0.87,-0.47 1.46,-0.64 0.05,-0.02 0.09,-0.03 0.14,-0.04 0.04,-0.01 0.09,-0.03 0.14,-0.04 0.04,-0.01 0.09,-0.02 0.13,-0.03 0,0 0,0 0,0 0.05,-0.01 0.09,-0.02 0.13,-0.03 0.01,-0.01 0.02,-0.01 0.03,-0.01 0.02,0 0.04,-0.01 0.05,-0.01 0.03,-0.01 0.05,-0.01 0.07,-0.02 0.01,0 0.03,0 0.04,-0.01 0.08,-0.02 0.16,-0.03 0.23,-0.05 0.03,0 0.07,-0.01 0.1,-0.02 0.01,0 0.01,0 0.02,0 0.04,-0.01 0.08,-0.02 0.11,-0.03 0.07,-0.01 0.13,-0.02 0.18,-0.03 0.01,0 0.02,0 0.02,0 0.03,-0.01 0.05,-0.01 0.07,-0.02 0,0 0,0 0,0l3.04 0c0,0 0.09,0.02 0.23,0.05 0.04,0 0.09,0.01 0.14,0.02 0.01,0.01 0.02,0.01 0.03,0.01 0.02,0 0.04,0.01 0.06,0.01 0,0 0,0 0,0 0.03,0.01 0.06,0.02 0.1,0.02 0.02,0.01 0.04,0.01 0.06,0.02 0.04,0.01 0.08,0.01 0.12,0.02 0.09,0.02 0.19,0.05 0.29,0.07 0.01,0.01 0.02,0.01 0.02,0.01 0,0 0,0 0,0 0,0 0,0 0,0 0.14,0.03 0.28,0.07 0.42,0.11 0.03,0.01 0.07,0.02 0.11,0.03 0.03,0.01 0.06,0.02 0.09,0.03 0.05,0.01 0.09,0.03 0.14,0.04 0.03,0.01 0.06,0.02 0.09,0.03 0.07,0.03 0.15,0.05 0.22,0.08 0.03,0.01 0.06,0.02 0.09,0.03 0,0 0,0.01 0.01,0.01 0.03,0.01 0.06,0.02 0.09,0.04 0.03,0 0.05,0.01 0.07,0.02 0.02,0.01 0.03,0.02 0.05,0.02 0.04,0.02 0.08,0.04 0.11,0.06 0.02,0.01 0.03,0.01 0.04,0.02 0.14,0.07 0.26,0.15 0.34,0.23z"/>
     <path class="fil2" d="M49.38 5.72c-0.03,0.07 -0.06,0.14 -0.09,0.21 -0.14,0.3 -0.24,0.6 -0.32,0.87 -0.12,0.42 -0.17,0.73 -0.17,0.73 -0.49,-0.63 -2.29,-0.31 -2.29,-0.31 -0.01,-0.02 -0.03,-0.04 -0.04,-0.05 -0.02,-0.02 -0.03,-0.03 -0.04,-0.04 -0.02,-0.01 -0.03,-0.03 -0.05,-0.04 -0.02,-0.02 -0.04,-0.04 -0.06,-0.05 0,0 0,0 0,0 -0.02,-0.02 -0.04,-0.04 -0.06,-0.05 -0.03,-0.02 -0.05,-0.04 -0.07,-0.05 -0.02,-0.02 -0.04,-0.03 -0.07,-0.04 0,0 0,0 0,-0.01 -0.02,-0.01 -0.04,-0.02 -0.06,-0.03 -0.02,-0.01 -0.04,-0.03 -0.06,-0.04 -0.01,0 -0.02,-0.01 -0.03,-0.01 -0.03,-0.02 -0.06,-0.03 -0.08,-0.04 -0.02,-0.01 -0.03,-0.02 -0.05,-0.02 -0.01,-0.01 -0.02,-0.02 -0.03,-0.02 -0.01,0 -0.01,0 -0.01,0 -0.01,-0.01 -0.01,-0.01 -0.02,-0.01 -0.01,-0.01 -0.02,-0.01 -0.02,-0.01 -0.02,-0.01 -0.04,-0.01 -0.04,-0.01 0.27,-0.26 0.87,-0.47 1.46,-0.64 0.05,-0.02 0.09,-0.03 0.14,-0.04 0.04,-0.01 0.09,-0.03 0.14,-0.04 0.04,-0.01 0.09,-0.02 0.13,-0.03 0,0 0,0 0,0 0.05,-0.01 0.09,-0.02 0.13,-0.03 0.01,-0.01 0.02,-0.01 0.03,-0.01 0.02,0 0.04,-0.01 0.05,-0.01 0.03,-0.01 0.05,-0.01 0.07,-0.02 0.01,0 0.03,0 0.04,-0.01 0.08,-0.02 0.16,-0.03 0.23,-0.05 0.03,0 0.07,-0.01 0.1,-0.02 0.01,0 0.01,0 0.02,0 0.04,-0.01 0.08,-0.02 0.11,-0.03 0.07,-0.01 0.13,-0.02 0.18,-0.03 0.01,0 0.02,0 0.02,0 0.03,-0.01 0.05,-0.01 0.07,-0.02 0,0 0,0 0,0l0.74 0z"/>
     <path class="fil2" d="M54.6 6.7c0,0 -0.03,0.01 -0.07,0.03 -0.15,0.06 -0.48,0.22 -0.72,0.49 0,0 -1.79,-0.32 -2.28,0.31 0,0 -0.05,-0.31 -0.17,-0.73 -0.08,-0.27 -0.18,-0.57 -0.32,-0.87 -0.03,-0.07 -0.06,-0.14 -0.1,-0.21l0.74 0c0,0 0.09,0.02 0.23,0.05 0.04,0 0.09,0.01 0.14,0.02 0.01,0.01 0.02,0.01 0.03,0.01 0.02,0 0.04,0.01 0.06,0.01 0,0 0,0 0,0 0.03,0.01 0.06,0.02 0.1,0.02 0.02,0.01 0.04,0.01 0.06,0.02 0.04,0.01 0.08,0.01 0.12,0.02 0.09,0.02 0.19,0.05 0.29,0.07 0.01,0.01 0.02,0.01 0.02,0.01 0,0 0,0 0,0 0,0 0,0 0,0 0.14,0.03 0.28,0.07 0.42,0.11 0.03,0.01 0.07,0.02 0.11,0.03 0.03,0.01 0.06,0.02 0.09,0.03 0.05,0.01 0.09,0.03 0.14,0.04 0.03,0.01 0.06,0.02 0.09,0.03 0.07,0.03 0.15,0.05 0.22,0.08 0.03,0.01 0.06,0.02 0.09,0.03 0,0 0,0.01 0.01,0.01 0.03,0.01 0.06,0.02 0.09,0.04 0.03,0 0.05,0.01 0.07,0.02 0.02,0.01 0.03,0.02 0.05,0.02 0.04,0.02 0.08,0.04 0.11,0.06 0.02,0.01 0.03,0.01 0.04,0.02 0.14,0.07 0.26,0.15 0.34,0.23z"/>
     <path class="fil1" d="M47.18 6.06c-0.23,0.25 -0.38,0.5 -0.48,0.7 -0.14,0.27 -0.19,0.46 -0.19,0.46 -0.01,-0.02 -0.03,-0.04 -0.04,-0.05 -0.02,-0.02 -0.03,-0.03 -0.04,-0.04 -0.02,-0.01 -0.03,-0.03 -0.05,-0.04 -0.02,-0.02 -0.04,-0.04 -0.06,-0.05 0,0 0,0 0,0 -0.02,-0.02 -0.04,-0.04 -0.06,-0.05 -0.03,-0.02 -0.05,-0.04 -0.07,-0.05 -0.02,-0.02 -0.04,-0.03 -0.07,-0.04 0,0 0,0 0,-0.01 -0.02,-0.01 -0.04,-0.02 -0.06,-0.03 -0.02,-0.01 -0.04,-0.03 -0.06,-0.04 -0.01,0 -0.02,-0.01 -0.03,-0.01 -0.03,-0.02 -0.06,-0.03 -0.08,-0.04 -0.02,-0.01 -0.03,-0.02 -0.05,-0.02 -0.01,-0.01 -0.02,-0.02 -0.03,-0.02 -0.01,0 -0.01,0 -0.01,0 -0.01,-0.01 -0.01,-0.01 -0.02,-0.01 -0.01,-0.01 -0.02,-0.01 -0.02,-0.01 -0.02,-0.01 -0.04,-0.01 -0.04,-0.01 0.27,-0.26 0.87,-0.47 1.46,-0.64z"/>
     <path class="fil1" d="M54.6 6.7c0,0 -0.03,0.01 -0.07,0.03 -0.15,0.06 -0.48,0.22 -0.72,0.49 0,0 -0.04,-0.19 -0.18,-0.46 -0.1,-0.2 -0.26,-0.45 -0.48,-0.7 0.03,0.01 0.07,0.02 0.11,0.03 0.03,0.01 0.06,0.02 0.09,0.03 0.05,0.01 0.09,0.03 0.14,0.04 0.03,0.01 0.06,0.02 0.09,0.03 0.07,0.03 0.15,0.05 0.22,0.08 0.03,0.01 0.06,0.02 0.09,0.03 0,0 0,0.01 0.01,0.01 0.03,0.01 0.06,0.02 0.09,0.04 0.03,0 0.05,0.01 0.07,0.02 0.02,0.01 0.03,0.02 0.05,0.02 0.04,0.02 0.08,0.04 0.11,0.06 0.02,0.01 0.03,0.01 0.04,0.02 0.14,0.07 0.26,0.15 0.34,0.23z"/>
     <g>
      <path class="fil3" d="M50.23 4.34l0 6.44c0,0.04 -0.03,0.07 -0.07,0.07 -0.03,0 -0.06,-0.03 -0.06,-0.07l0 -6.44c0,-0.04 0.03,-0.07 0.06,-0.07 0.04,0 0.07,0.03 0.07,0.07z"/>
     </g>
     <path class="fil4" d="M50.23 10.38l0 0.63 -0.13 0 0 -0.75c0.04,0.03 0.09,0.07 0.13,0.12z"/>
     <path class="fil4" d="M50.23 5.94l0 0.49c-0.04,0 -0.09,-0.01 -0.13,-0.01l0 -0.48 0.13 0z"/>
     <g>
      <path class="fil5" d="M51.21 11.35c-0.06,0 -0.11,0.06 -0.11,0.12l0 0.25c0,0.22 -0.17,0.41 -0.39,0.42 -0.24,0.01 -0.43,-0.18 -0.43,-0.41l0 -1.32c0,-0.03 -0.02,-0.04 -0.04,-0.04l-0.15 0c-0.03,0 -0.04,0.01 -0.04,0.04l0 1.3c0,0.35 0.27,0.65 0.62,0.66 0.37,0.01 0.67,-0.28 0.67,-0.64l0 -0.26c0,-0.07 -0.06,-0.13 -0.13,-0.12z"/>
     </g>
     <g>
      <path class="fil5" d="M50.16 5.17c-0.05,0 -0.08,-0.05 -0.08,-0.11l0 -0.85c0,-0.07 0.03,-0.12 0.08,-0.12 0.05,0 0.09,0.05 0.09,0.12l0 0.85c0,0.06 -0.04,0.11 -0.09,0.11z"/>
     </g>
     <g>
      <path class="fil6" d="M54.6 6.7c-0.53,-0.19 -1.54,-0.31 -2.43,-0.38 -0.9,-0.07 -1.68,-0.09 -1.68,-0.09l-0.65 0c0,0 -0.78,0.02 -1.68,0.09 -0.89,0.07 -1.9,0.19 -2.44,0.38 0,0 1.73,-1.87 3.33,-1.87 0,0 0.34,-0.34 1.11,-0.08 0.78,-0.26 1.12,0.08 1.12,0.08 1.59,0 3.32,1.87 3.32,1.87z"/>
      <path class="fil7" d="M52.17 6.32c-0.9,-0.07 -1.68,-0.09 -1.68,-0.09l-0.65 0c0,0 -0.78,0.02 -1.68,0.09 0.31,-0.85 0.89,-1.49 0.89,-1.49 0,0 0.34,-0.34 1.11,-0.08 0.78,-0.26 1.12,0.08 1.12,0.08 0,0 0.58,0.64 0.89,1.49z"/>
     </g>
    </g>
   </g>
  </g>
  <polygon class="fil25" points="0,0 53.11,0 53.11,18.79 0,18.79 "/>
 </g>
</svg>
