<?xml version="1.0" encoding="UTF-8"?>
<!DOCTYPE svg PUBLIC "-//W3C//DTD SVG 1.1//EN" "http://www.w3.org/Graphics/SVG/1.1/DTD/svg11.dtd">
<!-- Creator: CorelDRAW 2020 (64-Bit) -->
<svg xmlns="http://www.w3.org/2000/svg" xml:space="preserve" width="2800px" height="1140px" version="1.1" style="shape-rendering:geometricPrecision; text-rendering:geometricPrecision; image-rendering:optimizeQuality; fill-rule:evenodd; clip-rule:evenodd"
viewBox="0 0 1798.69 732.26"
 xmlns:xlink="http://www.w3.org/1999/xlink"
 xmlns:xodm="http://www.corel.com/coreldraw/odm/2003">
 <defs>
  <style type="text/css">
   <![CDATA[
    .fil8 {fill:#00645D;fill-rule:nonzero}
    .fil17 {fill:#00B3AC;fill-rule:nonzero}
    .fil9 {fill:#111A23;fill-rule:nonzero}
    .fil1 {fill:#1A318F;fill-rule:nonzero}
    .fil10 {fill:#2D3F59;fill-rule:nonzero}
    .fil5 {fill:#333333;fill-rule:nonzero}
    .fil2 {fill:#425DC9;fill-rule:nonzero}
    .fil6 {fill:#5273F7;fill-rule:nonzero}
    .fil20 {fill:#7E9CC3;fill-rule:nonzero}
    .fil7 {fill:#829AF9;fill-rule:nonzero}
    .fil15 {fill:#BCBCBC;fill-rule:nonzero}
    .fil12 {fill:#DFDFDF;fill-rule:nonzero}
    .fil22 {fill:#EFEFFB;fill-rule:nonzero}
    .fil11 {fill:#FF6060;fill-rule:nonzero}
    .fil23 {fill:white;fill-rule:nonzero}
    .fil4 {fill:#999999;fill-rule:nonzero;fill-opacity:0.501961}
    .fil3 {fill:#B3B3B3;fill-rule:nonzero;fill-opacity:0.501961}
    .fil24 {fill:#00B3AC;fill-rule:nonzero;fill-opacity:0.541176}
    .fil19 {fill:#008E8A;fill-rule:nonzero}
    .fil16 {fill:#BCBCBC;fill-rule:nonzero}
    .fil14 {fill:#C1C1C1;fill-rule:nonzero}
    .fil13 {fill:#EFEFEF;fill-rule:nonzero}
    .fil18 {fill:url(#id10);fill-rule:nonzero}
    .fil21 {fill:url(#id11);fill-rule:nonzero}
    .fil25 {fill:url(#id12);fill-rule:nonzero}
    .fil0 {fill:url(#id13);fill-rule:nonzero}
   ]]>
  </style>
    <mask id="id0">
  <linearGradient id="id1" gradientUnits="userSpaceOnUse" x1="890.98" y1="585.29" x2="893.55" y2="451.77">
   <stop offset="0" style="stop-opacity:1; stop-color:white"/>
   <stop offset="1" style="stop-opacity:0; stop-color:white"/>
  </linearGradient>
     <rect style="fill:url(#id1)" x="487.77" y="297.5" width="812.21" height="274.4"/>
    </mask>
    <mask id="id2">
  <linearGradient id="id3" gradientUnits="userSpaceOnUse" x1="1061.53" y1="351.34" x2="917.64" y2="356.26">
   <stop offset="0" style="stop-opacity:1; stop-color:white"/>
   <stop offset="1" style="stop-opacity:0; stop-color:white"/>
  </linearGradient>
     <rect style="fill:url(#id3)" x="829.13" y="315.05" width="316.92" height="77.63"/>
    </mask>
    <mask id="id4">
  <linearGradient id="id5" gradientUnits="userSpaceOnUse" x1="1271.57" y1="461.34" x2="1155.61" y2="458.91">
   <stop offset="0" style="stop-opacity:1; stop-color:white"/>
   <stop offset="1" style="stop-opacity:0; stop-color:white"/>
  </linearGradient>
     <rect style="fill:url(#id5)" x="1119.16" y="446.69" width="142.72" height="25.9"/>
    </mask>
    <mask id="id6">
  <linearGradient id="id7" gradientUnits="userSpaceOnUse" x1="1273.44" y1="521.59" x2="1176.32" y2="522.2">
   <stop offset="0" style="stop-opacity:1; stop-color:white"/>
   <stop offset="1" style="stop-opacity:0; stop-color:white"/>
  </linearGradient>
     <rect style="fill:url(#id7)" x="1128.33" y="478.37" width="154.41" height="87.3"/>
    </mask>
    <mask id="id8">
  <linearGradient id="id9" gradientUnits="userSpaceOnUse" x1="1105.21" y1="530.06" x2="1029.91" y2="519.49">
   <stop offset="0" style="stop-opacity:1; stop-color:white"/>
   <stop offset="1" style="stop-opacity:0; stop-color:white"/>
  </linearGradient>
     <rect style="fill:url(#id9)" x="1014.21" y="495.33" width="84.86" height="55.82"/>
    </mask>
  <linearGradient id="id10" gradientUnits="userSpaceOnUse" x1="890.98" y1="585.29" x2="893.55" y2="451.77">
   <stop offset="0" style="stop-opacity:1; stop-color:#008E8A"/>
   <stop offset="1" style="stop-opacity:1; stop-color:#00B3AC"/>
  </linearGradient>
  <linearGradient id="id11" gradientUnits="userSpaceOnUse" x1="1061.53" y1="351.34" x2="917.64" y2="356.26">
   <stop offset="0" style="stop-opacity:1; stop-color:#7E9CC3"/>
   <stop offset="1" style="stop-opacity:1; stop-color:#7E9CC3"/>
  </linearGradient>
  <linearGradient id="id12" gradientUnits="userSpaceOnUse" x1="1122.07" y1="168.24" x2="1248.12" y2="-201.91">
   <stop offset="0" style="stop-opacity:1; stop-color:#9AA6D7"/>
   <stop offset="1" style="stop-opacity:1; stop-color:#925FF2"/>
  </linearGradient>
  <linearGradient id="id13" gradientUnits="userSpaceOnUse" xlink:href="#id12" x1="1708.13" y1="825.39" x2="1790.46" y2="583.62">
  </linearGradient>
 </defs>
 <g id="Слой_x0020_1">
  <metadata id="CorelCorpID_0Corel-Layer"/>
  <path class="fil0" d="M1783.72 681.35l-26.33 -26.33c10.47,6.88 19.45,15.86 26.33,26.33zm-167.95 50.91c0,-0.25 -0.01,-0.5 -0.01,-0.75l0 0c0,-1.15 0.03,-2.3 0.07,-3.44l4.19 4.19 -4.25 0zm12.5 0l-11.84 -11.84c0.17,-1.36 0.37,-2.72 0.59,-4.06l15.9 15.9 -4.65 0zm12.9 0l-22.74 -22.74c0.3,-1.23 0.63,-2.45 0.98,-3.66l26.41 26.4 -4.65 0zm12.9 0l-32.6 -32.6c0.41,-1.12 0.85,-2.23 1.31,-3.33l35.93 35.93 -4.64 0zm12.89 0l-41.59 -41.59c0.52,-1.03 1.05,-2.05 1.6,-3.05l44.64 44.64 -4.65 0zm12.9 0l-49.82 -49.83c0.6,-0.94 1.22,-1.87 1.85,-2.79l52.62 52.62 -4.65 0zm12.9 0l-57.37 -57.37c0.68,-0.86 1.38,-1.71 2.1,-2.55l59.91 59.92 -4.64 0zm12.9 0l-64.25 -64.25c0.76,-0.79 1.53,-1.56 2.32,-2.32l66.57 66.57 -4.64 0zm12.89 0l-70.49 -70.49c0.84,-0.72 1.69,-1.42 2.55,-2.1l72.59 72.59 -4.65 0zm12.9 0l-76.09 -76.09c0.92,-0.63 1.85,-1.25 2.79,-1.85l77.94 77.94 -4.64 0zm12.9 0l-81.01 -81.01c1,-0.55 2.02,-1.08 3.05,-1.59l82.6 82.6 -4.64 0zm12.89 0l-85.19 -85.2c1.1,-0.46 2.21,-0.89 3.33,-1.31l86.51 86.51 -4.65 0zm12.9 0l-88.56 -88.56c1.21,-0.36 2.43,-0.68 3.66,-0.99l89.55 89.55 -4.65 0zm12.9 0l-90.96 -90.96c1.34,-0.22 2.7,-0.42 4.06,-0.58l91.54 91.54 -4.64 0zm12.89 0l-92.14 -92.14c1.14,-0.05 2.29,-0.07 3.44,-0.07 0.38,0 0.77,0.01 1.15,0.01l90.3 90.3c0,0.38 0.01,0.76 0.01,1.15l0 0.75 -2.76 0zm2.23 -10.68l-81 -81c1.81,0.2 3.6,0.45 5.38,0.75l74.87 74.86c0.3,1.78 0.55,3.58 0.75,5.39zm-3.24 -16.13l-61.63 -61.63c2.39,0.71 4.74,1.51 7.05,2.41l52.17 52.17c0.9,2.31 1.7,4.66 2.41,7.05z"/>
  <g id="_1825523374848">
   <path class="fil1" d="M707.94 244.22c0,0 -2.25,0.81 -6,2.41 -11.56,4.98 -37.68,17.83 -56.9,39.08 0,0 -143.19,-25.43 -182,25.43 0,0 -44.17,-14.72 -89.67,-14.72l-38.8 0c-45.51,0 -89.67,14.72 -89.67,14.72 -38.81,-50.86 -182,-25.43 -182,-25.43 -1.18,-1.34 -2.41,-2.62 -3.69,-3.86 -1.02,-1.07 -2.04,-2.08 -3.11,-3.05 -1.18,-1.12 -2.41,-2.24 -3.64,-3.26 -1.61,-1.45 -3.21,-2.84 -4.82,-4.07 0,-0.05 -0.05,-0.05 -0.1,-0.11 -1.72,-1.39 -3.43,-2.73 -5.2,-3.96 -1.76,-1.34 -3.53,-2.57 -5.3,-3.74 -1.76,-1.24 -3.53,-2.36 -5.24,-3.43 -0.06,0 -0.11,-0.05 -0.22,-0.16 -1.66,-1.02 -3.26,-1.98 -4.82,-2.89 -1.65,-1.02 -3.31,-1.93 -4.86,-2.73 -0.76,-0.43 -1.56,-0.86 -2.31,-1.23 -2.3,-1.29 -4.44,-2.36 -6.42,-3.27 -1.29,-0.64 -2.52,-1.23 -3.7,-1.77 -1.07,-0.48 -2.03,-0.9 -2.94,-1.33 -0.21,-0.06 -0.37,-0.16 -0.53,-0.22 -0.49,-0.21 -0.97,-0.37 -1.34,-0.59 -0.81,-0.32 -1.5,-0.59 -2.09,-0.8 -1.66,-0.7 -2.57,-1.02 -2.57,-1.02 21.25,-20.07 69.16,-37.52 116,-50.85 3.69,-1.07 7.39,-2.09 11.08,-3.05 3.64,-1.02 7.33,-1.98 10.92,-2.89 3.75,-0.97 7.39,-1.93 10.98,-2.79 0.05,0 0.05,0 0.1,0 3.43,-0.85 6.85,-1.71 10.17,-2.51 0.86,-0.22 1.72,-0.43 2.52,-0.59 1.39,-0.32 2.73,-0.64 4.12,-0.96 1.82,-0.49 3.59,-0.86 5.35,-1.24 1.02,-0.26 2.04,-0.48 3,-0.69 6.43,-1.5 12.58,-2.84 18.26,-4.02 2.83,-0.64 5.56,-1.23 8.19,-1.76 0.53,-0.11 1.01,-0.22 1.55,-0.32 3.1,-0.65 6.05,-1.23 8.72,-1.77 5.78,-1.18 10.6,-2.09 14.24,-2.78 0.7,-0.11 1.34,-0.22 1.93,-0.38 2.46,-0.43 4.17,-0.75 5.09,-0.91 0.42,-0.05 0.64,-0.1 0.64,-0.1l242.22 0c0,0 6.8,1.17 18.15,3.42 3.43,0.7 7.28,1.45 11.45,2.3 0.86,0.22 1.72,0.38 2.57,0.54 1.34,0.27 2.68,0.59 4.02,0.85 0.21,0 0.43,0.06 0.59,0.11 2.41,0.54 4.92,1.07 7.55,1.61 1.6,0.37 3.21,0.69 4.87,1.07 3.05,0.69 6.21,1.39 9.42,2.14 7.49,1.66 15.47,3.53 23.66,5.62 0.48,0.11 0.96,0.21 1.44,0.37 0.06,0 0.06,0 0.06,0 0.05,0 0.1,0 0.1,0 10.71,2.68 21.79,5.57 32.98,8.73 2.94,0.86 5.83,1.66 8.78,2.57 2.51,0.69 4.98,1.44 7.44,2.19 3.69,1.13 7.39,2.31 11.08,3.48 2.41,0.81 4.76,1.56 7.12,2.36 5.89,1.98 11.72,4.01 17.39,6.1 2.52,0.97 5.04,1.87 7.5,2.84 0.16,0.05 0.32,0.16 0.48,0.21 2.62,1.02 5.25,2.09 7.82,3.16 1.76,0.7 3.48,1.45 5.19,2.2 1.28,0.58 2.57,1.12 3.8,1.71 3.16,1.39 6.21,2.84 9.15,4.33 1.13,0.54 2.25,1.13 3.38,1.72 10.97,5.67 20.23,11.72 26.87,17.98z"/>
   <path class="fil2" d="M291.9 166.61c-2.73,5.35 -5.35,10.81 -7.81,16.27 -10.92,23.98 -19.22,48.34 -25.27,69.32 -9.85,33.94 -13.92,58.94 -13.92,58.94 -38.81,-50.86 -182,-25.43 -182,-25.43 -1.18,-1.34 -2.41,-2.62 -3.69,-3.86 -0.97,-1.01 -2.04,-2.03 -3.11,-3.05 -1.18,-1.12 -2.41,-2.24 -3.64,-3.26 -1.55,-1.45 -3.16,-2.78 -4.82,-4.07 0,-0.05 -0.05,-0.05 -0.1,-0.11 -1.72,-1.39 -3.43,-2.67 -5.2,-3.96 -1.76,-1.34 -3.53,-2.57 -5.3,-3.74 -1.76,-1.18 -3.48,-2.31 -5.24,-3.43 -0.06,0 -0.11,-0.05 -0.22,-0.16 -1.6,-0.97 -3.26,-1.98 -4.82,-2.89 -1.65,-0.97 -3.31,-1.88 -4.86,-2.73 -0.76,-0.43 -1.56,-0.86 -2.31,-1.23 -2.3,-1.23 -4.44,-2.3 -6.42,-3.27 -1.29,-0.64 -2.52,-1.23 -3.7,-1.77 -1.07,-0.48 -2.03,-0.9 -2.94,-1.33 -0.21,-0.06 -0.37,-0.16 -0.53,-0.22 -0.49,-0.21 -0.97,-0.37 -1.34,-0.59 -0.81,-0.32 -1.5,-0.59 -2.09,-0.8 -1.66,-0.7 -2.57,-1.02 -2.57,-1.02 21.25,-20.07 69.16,-37.52 116,-50.85 3.69,-1.07 7.39,-2.09 11.08,-3.05 3.64,-1.02 7.33,-1.98 10.92,-2.89 3.75,-0.97 7.39,-1.93 10.98,-2.79 0.05,0 0.05,0 0.1,0 3.43,-0.91 6.85,-1.71 10.17,-2.51 0.86,-0.22 1.72,-0.43 2.52,-0.59 1.39,-0.32 2.73,-0.64 4.12,-0.96 1.82,-0.49 3.59,-0.86 5.35,-1.24 1.02,-0.26 2.04,-0.48 3,-0.69 6.43,-1.5 12.58,-2.84 18.26,-4.02 2.83,-0.64 5.56,-1.23 8.19,-1.76 0.53,-0.11 1.01,-0.22 1.55,-0.32 3.1,-0.65 6.05,-1.23 8.72,-1.77 5.78,-1.18 10.6,-2.09 14.24,-2.78 0.7,-0.11 1.34,-0.22 1.93,-0.38 2.46,-0.43 4.17,-0.75 5.09,-0.91 0.42,-0.05 0.64,-0.1 0.64,-0.1l59.04 0z"/>
   <path class="fil2" d="M707.94 244.22c0,0 -2.25,0.81 -6,2.41 -11.56,4.98 -37.68,17.83 -56.9,39.08 0,0 -143.19,-25.43 -182,25.43 0,0 -4.07,-25 -13.92,-58.94 -6.05,-20.98 -14.35,-45.34 -25.27,-69.32 -2.41,-5.46 -5.03,-10.92 -7.81,-16.27l59.04 0c0,0 6.8,1.17 18.15,3.42 3.43,0.7 7.28,1.45 11.45,2.3 0.86,0.22 1.72,0.38 2.57,0.54 1.34,0.27 2.68,0.59 4.02,0.85 0.21,0 0.43,0.06 0.59,0.11 2.41,0.54 4.92,1.07 7.55,1.61 1.6,0.37 3.21,0.69 4.87,1.07 3.05,0.69 6.21,1.39 9.42,2.14 7.49,1.66 15.47,3.53 23.66,5.62 0.48,0.11 0.96,0.21 1.44,0.37 0.06,0 0.06,0 0.06,0 0.05,0 0.1,0 0.1,0 10.71,2.68 21.79,5.57 32.98,8.73 2.94,0.86 5.83,1.66 8.78,2.57 2.51,0.69 4.98,1.44 7.44,2.19 3.69,1.13 7.39,2.31 11.08,3.48 2.41,0.81 4.76,1.56 7.12,2.36 5.89,1.98 11.72,4.01 17.39,6.1 2.52,0.97 5.04,1.87 7.5,2.84 0.16,0.05 0.32,0.16 0.48,0.21 2.62,1.02 5.25,2.09 7.82,3.16 1.76,0.7 3.48,1.45 5.19,2.2 1.28,0.58 2.57,1.12 3.8,1.71 3.16,1.39 6.21,2.84 9.15,4.33 1.13,0.54 2.25,1.13 3.38,1.72 10.97,5.67 20.23,11.72 26.87,17.98z"/>
   <path class="fil1" d="M116 193.37c-18.04,20.34 -30.3,39.88 -38.38,55.62 -11.35,21.95 -14.72,36.72 -14.72,36.72 -1.18,-1.34 -2.41,-2.62 -3.69,-3.86 -0.97,-1.01 -2.04,-2.03 -3.11,-3.05 -1.18,-1.12 -2.41,-2.24 -3.64,-3.26 -1.55,-1.45 -3.16,-2.78 -4.82,-4.07 0,-0.05 -0.05,-0.05 -0.1,-0.11 -1.72,-1.39 -3.43,-2.67 -5.2,-3.96 -1.76,-1.34 -3.53,-2.57 -5.3,-3.74 -1.76,-1.18 -3.48,-2.31 -5.24,-3.43 -0.06,0 -0.11,-0.05 -0.22,-0.16 -1.6,-0.97 -3.26,-1.98 -4.82,-2.89 -1.65,-0.97 -3.31,-1.88 -4.86,-2.73 -0.76,-0.43 -1.56,-0.86 -2.31,-1.23 -2.3,-1.23 -4.44,-2.3 -6.42,-3.27 -1.29,-0.64 -2.52,-1.23 -3.7,-1.77 -1.07,-0.48 -2.03,-0.9 -2.94,-1.33 -0.21,-0.06 -0.37,-0.16 -0.53,-0.22 -0.49,-0.21 -0.97,-0.37 -1.34,-0.59 -0.81,-0.32 -1.5,-0.59 -2.09,-0.8 -1.66,-0.7 -2.57,-1.02 -2.57,-1.02 21.25,-20.07 69.16,-37.52 116,-50.85z"/>
   <path class="fil1" d="M707.94 244.22c0,0 -2.25,0.81 -6,2.41 -11.56,4.98 -37.68,17.83 -56.9,39.08 0,0 -3.37,-14.77 -14.72,-36.72 -8.08,-15.74 -20.34,-35.28 -38.38,-55.62 2.94,0.86 5.83,1.66 8.78,2.57 2.51,0.69 4.98,1.44 7.44,2.19 3.69,1.13 7.39,2.31 11.08,3.48 2.41,0.81 4.76,1.56 7.12,2.36 5.89,1.98 11.72,4.01 17.39,6.1 2.52,0.97 5.04,1.87 7.5,2.84 0.16,0.05 0.32,0.16 0.48,0.21 2.62,1.02 5.25,2.09 7.82,3.16 1.76,0.7 3.48,1.45 5.19,2.2 1.28,0.58 2.57,1.12 3.8,1.71 3.16,1.39 6.21,2.84 9.15,4.33 1.13,0.54 2.25,1.13 3.38,1.72 10.97,5.67 20.23,11.72 26.87,17.98z"/>
   <g>
    <path class="fil3" d="M359.35 56.44l0 513.88c0,2.95 -2.41,5.36 -5.35,5.36 -2.95,0 -5.36,-2.41 -5.36,-5.36l0 -513.88c0,-3 2.41,-5.36 5.36,-5.36 2.94,0 5.35,2.36 5.35,5.36z"/>
   </g>
   <path class="fil4" d="M359.35 538.35l0 49.63 -10.71 0 0 -59.68c3.18,2.25 7.26,5.63 10.71,10.05z"/>
   <path class="fil4" d="M359.35 183.68l0 39.61c-3.59,-0.53 -7.17,-0.96 -10.71,-1.34l0 -38.27 10.71 0z"/>
   <g>
    <path class="fil5" d="M437.39 615.33c-4.87,0.46 -8.45,4.83 -8.45,9.73l0 19.53c0,17.76 -13.78,32.9 -31.52,33.57 -18.65,0.71 -34.06,-14.26 -34.06,-32.76l0 -105.19c0,-1.84 -1.49,-3.34 -3.33,-3.34l-12.07 0c-1.84,0 -3.33,1.5 -3.33,3.34l0 104.09c0,28.04 21.94,51.77 49.97,52.6 29.11,0.86 53.07,-22.57 53.07,-51.5l0 -20.74c0,-5.48 -4.69,-9.86 -10.28,-9.33z"/>
   </g>
   <g>
    <path class="fil5" d="M354 122.89c-3.87,0 -7,-4.19 -7,-9.37l0 -67.58c0,-5.18 3.13,-9.37 7,-9.37 3.86,0 7,4.19 7,9.37l0 67.58c0,5.18 -3.14,9.37 -7,9.37z"/>
   </g>
   <g>
    <path class="fil6" d="M707.94 244.22c-42.34,-15.2 -123.01,-24.57 -193.78,-30.13 -72.21,-5.63 -134.09,-7.34 -134.09,-7.34l-52.2 0c0,0 -61.82,1.71 -134.04,7.34 -70.71,5.56 -151.43,14.93 -193.83,30.13 0,0 137.84,-148.54 264.98,-148.54 0,0 27.19,-26.98 88.96,-6.43 61.83,-20.55 89.02,6.43 89.02,6.43 127.14,0 264.98,148.54 264.98,148.54z"/>
    <path class="fil7" d="M514.16 214.09c-72.21,-5.63 -134.09,-7.34 -134.09,-7.34l-52.2 0c0,0 -61.82,1.71 -134.04,7.34 25.11,-67.77 71.15,-118.41 71.15,-118.41 0,0 27.19,-26.98 88.96,-6.43 61.83,-20.55 89.02,6.43 89.02,6.43 0,0 46.09,50.64 71.2,118.41z"/>
   </g>
  </g>
  <g id="_1825523383584">
   <polygon class="fil8" points="520.95,550.46 618.33,550.46 618.33,459.64 509.46,459.64 509.46,537.6 "/>
   <path class="fil9" d="M1262.07 542.61c0,38.84 -24.79,70.32 -55.37,70.32 -30.58,0 -55.37,-31.48 -55.37,-70.32 0,-38.83 24.79,-70.31 55.37,-70.31 30.58,0 55.37,31.48 55.37,70.31z"/>
   <polygon class="fil9" points="1187.52,612.93 1206.7,612.93 1206.7,472.3 1187.52,472.3 "/>
   <path class="fil9" d="M631.11 537.6c0,34.44 -18.46,62.35 -41.23,62.35 -22.77,0 -41.23,-27.91 -41.23,-62.35 0,-34.43 18.46,-62.34 41.23,-62.34 22.77,0 41.23,27.91 41.23,62.34z"/>
   <polygon class="fil9" points="589.88,599.95 561.37,599.95 561.37,475.26 589.88,475.26 "/>
   <path class="fil9" d="M882.03 529.55c0,35.32 -22.54,63.96 -50.35,63.96 -27.82,0 -50.36,-28.64 -50.36,-63.96 0,-35.32 22.54,-63.95 50.36,-63.95 27.81,0 50.35,28.63 50.35,63.95z"/>
   <polygon class="fil9" points="814.23,593.51 831.68,593.51 831.68,465.6 814.23,465.6 "/>
   <path class="fil10" d="M864.58 529.55c0,35.32 -22.54,63.96 -50.35,63.96 -27.81,0 -50.36,-28.64 -50.36,-63.96 0,-35.32 22.55,-63.95 50.36,-63.95 27.81,0 50.35,28.63 50.35,63.95z"/>
   <polygon class="fil8" points="873.43,571.61 846.85,539.98 846.85,475.26 914.76,446.98 972.17,462.55 998.23,542.61 983.05,565.38 "/>
   <path class="fil9" d="M1014.5 545.57c0,38.84 -24.78,70.32 -55.36,70.32 -30.58,0 -55.37,-31.48 -55.37,-70.32 0,-38.83 24.79,-70.31 55.37,-70.31 30.58,0 55.36,31.48 55.36,70.31z"/>
   <polygon class="fil9" points="924.86,615.89 959.14,615.89 959.14,475.26 924.86,475.26 "/>
   <path class="fil11" d="M513.69 395.03c0,0 -12.1,4.22 -14.92,8.65l0 20.57 2.33 5.46 19.04 -10.3 0 -21.78 -6.45 -2.6z"/>
   <path class="fil10" d="M602.6 537.6c0,34.44 -18.46,62.35 -41.23,62.35 -22.77,0 -41.23,-27.91 -41.23,-62.35 0,-34.43 18.46,-62.34 41.23,-62.34 22.77,0 41.23,27.91 41.23,62.34z"/>
   <path class="fil12" d="M591.11 537.6c0,24.84 -13.31,44.97 -29.74,44.97 -16.42,0 -29.74,-20.13 -29.74,-44.97 0,-24.83 13.32,-44.97 29.74,-44.97 16.43,0 29.74,20.14 29.74,44.97z"/>
   <path class="fil13" d="M561.37 499.49c15.66,0 28.49,18.31 29.64,41.54 0.06,-1.13 0.1,-2.27 0.1,-3.43 0,-24.83 -13.31,-44.97 -29.74,-44.97 -16.42,0 -29.74,20.14 -29.74,44.97 0,1.16 0.04,2.3 0.1,3.43 1.16,-23.23 13.98,-41.54 29.64,-41.54z"/>
   <path class="fil14" d="M561.37 575.72c-15.66,0 -28.48,-18.31 -29.64,-41.54 -0.06,1.13 -0.1,2.27 -0.1,3.42 0,24.84 13.32,44.97 29.74,44.97 16.43,0 29.74,-20.13 29.74,-44.97 0,-1.15 -0.04,-2.29 -0.1,-3.42 -1.15,23.23 -13.98,41.54 -29.64,41.54z"/>
   <path class="fil10" d="M980.23 545.57c0,38.84 -24.79,70.32 -55.37,70.32 -30.58,0 -55.37,-31.48 -55.37,-70.32 0,-38.83 24.79,-70.31 55.37,-70.31 30.58,0 55.37,31.48 55.37,70.31z"/>
   <path class="fil12" d="M967.69 545.57c0,30.04 -19.18,54.39 -42.83,54.39 -23.65,0 -42.83,-24.35 -42.83,-54.39 0,-30.04 19.18,-54.39 42.83,-54.39 23.65,0 42.83,24.35 42.83,54.39z"/>
   <path class="fil13" d="M924.86 498.04c22.75,0 41.34,22.52 42.73,50.96 0.06,-1.13 0.1,-2.28 0.1,-3.43 0,-30.04 -19.18,-54.39 -42.83,-54.39 -23.65,0 -42.83,24.35 -42.83,54.39 0,1.15 0.04,2.3 0.1,3.43 1.39,-28.44 19.99,-50.96 42.73,-50.96z"/>
   <path class="fil14" d="M924.86 593.11c-22.74,0 -41.34,-22.53 -42.73,-50.97 -0.06,1.14 -0.1,2.28 -0.1,3.43 0,30.04 19.18,54.39 42.83,54.39 23.65,0 42.83,-24.35 42.83,-54.39 0,-1.15 -0.04,-2.29 -0.1,-3.43 -1.39,28.44 -19.98,50.97 -42.73,50.97z"/>
   <path class="fil10" d="M1242.89 542.61c0,38.84 -24.79,70.32 -55.37,70.32 -30.58,0 -55.37,-31.48 -55.37,-70.32 0,-38.83 24.79,-70.31 55.37,-70.31 30.58,0 55.37,31.48 55.37,70.31z"/>
   <path class="fil15" d="M1229.89 542.61c0,29.72 -18.97,53.82 -42.37,53.82 -23.41,0 -42.38,-24.1 -42.38,-53.82 0,-29.72 18.97,-53.81 42.38,-53.81 23.4,0 42.37,24.09 42.37,53.81z"/>
   <path class="fil16" d="M1154.97 577.07l65.09 0c4.82,-7.34 8.14,-16.33 9.34,-26.21l-83.76 0c1.19,9.88 4.51,18.87 9.33,26.21z"/>
   <path class="fil17" d="M513.69 395.03c0,0 4.84,-9.49 19.96,-15.34 15.12,-5.85 27.42,-10.08 39.72,-19.76 12.3,-9.68 83.67,-47.68 132.66,-55.85 48.99,-8.16 122.18,-6.04 122.18,-6.04 0,0 143.35,3.32 191.13,21.17 47.79,17.84 137.3,71.07 137.3,71.07l120.9 51.02 10.36 27 11.79 14.82c0,0 -0.3,36.59 -15.12,58.97l12.4 8.17 -5.75 15.12 -308.17 0c0,0 -0.4,-49.6 -21.37,-79.84 -20.97,-30.24 -47.98,-25 -47.98,-25 0,0 -43.15,8.06 -46.38,64.11 -1.33,23.16 1.88,37.78 6.11,46.96l-261.76 -8.65c0,0 -6.85,-12.5 -9.67,-37.5 -2.83,-25 -14.92,-60.89 -45.17,-64.12 -30.24,-3.22 -38.3,39.93 -38.3,39.93 0,0 -3.23,33.87 2.42,49.19l-25 -9.27c0,0 -17.75,-37.51 0,-103.64l17.74 -27.01 0 -15.51z"/>
   <path class="fil18" style="mask:url(#id0)" d="M513.69 395.03c0,0 4.84,-9.49 19.96,-15.34 15.12,-5.85 27.42,-10.08 39.72,-19.76 12.3,-9.68 83.67,-47.68 132.66,-55.85 48.99,-8.16 122.18,-6.04 122.18,-6.04 0,0 143.35,3.32 191.13,21.17 47.79,17.84 137.3,71.07 137.3,71.07l120.9 51.02 10.36 27 11.79 14.82c0,0 -0.3,36.59 -15.12,58.97l12.4 8.17 -5.75 15.12 -308.17 0c0,0 -0.4,-49.6 -21.37,-79.84 -20.97,-30.24 -47.98,-25 -47.98,-25 0,0 -43.15,8.06 -46.38,64.11 -1.33,23.16 1.88,37.78 6.11,46.96l-261.76 -8.65c0,0 -6.85,-12.5 -9.67,-37.5 -2.83,-25 -14.92,-60.89 -45.17,-64.12 -30.24,-3.22 -38.3,39.93 -38.3,39.93 0,0 -3.23,33.87 2.42,49.19l-25 -9.27c0,0 -17.75,-37.51 0,-103.64l17.74 -27.01 0 -15.51z"/>
   <path class="fil19" d="M607.96 503.65c0,1.25 0.73,2.37 1.88,2.86 10.91,4.66 67.16,27.87 110.3,31.09 47.99,3.59 132.5,12.09 132.5,12.09 0,0 -128.46,-42.85 -241.4,-49.16 -1.78,-0.1 -3.28,1.33 -3.28,3.12z"/>
   <path class="fil19" d="M501.1 429.71l25.29 32.84c0,0 6.05,-12.7 27.82,-15.57 21.78,-2.87 36.33,18.62 36.33,18.62 21.74,-28.44 99.76,-25.42 154.2,-13.13 54.44,12.3 128.23,17.04 128.23,17.04 6.73,-13.56 30.79,-22.53 30.8,-22.53 -3.01,1.12 -7.94,0.34 -11.05,0.32 -11.86,-0.08 -23.72,-1.16 -35.47,-2.68 -42.93,-5.54 -84.74,-16.53 -127.72,-21.59 -34.81,-4.1 -69.71,-7.38 -104.63,-10.38 -6.59,-0.57 -111.21,-7.73 -111.21,-8.54l0 6.43 -12.59 19.17z"/>
   <path class="fil20" d="M581.43 367.59c0,0 44.16,-42.34 134.88,-53.83 90.73,-11.49 109.48,16.94 109.48,16.94l64.3 60.76c0,0 15.54,16.05 -16.52,14.84 -32.05,-1.21 -285.49,-26.61 -285.49,-26.61 0,0 -12.7,-1.81 -6.65,-12.1z"/>
   <path class="fil20" d="M829.42 316.79c0,0 47.78,36.29 67.14,55.64 19.35,19.36 46.57,16.33 46.57,16.33l202.63 3.63c0,0 -86.8,-54.74 -135.19,-72.58 0,0 -90.72,-7.56 -181.15,-3.02z"/>
   <path class="fil21" style="mask:url(#id2)" d="M829.42 316.79c0,0 47.78,36.29 67.14,55.64 19.35,19.36 46.57,16.33 46.57,16.33l202.63 3.63c0,0 -86.8,-54.74 -135.19,-72.58 0,0 -90.72,-7.56 -181.15,-3.02z"/>
   <path class="fil22" d="M899.99 335.07l-47.12 0 0 0c14.94,11.88 33.36,27.03 43.69,37.36 16.73,16.74 39.33,16.74 45.15,16.44 0,0 -13.9,-30.55 -19.34,-42.04 -5.45,-11.5 -22.38,-11.76 -22.38,-11.76z"/>
   <polygon class="fil23" points="1277.54,441.3 1265.21,447.43 1265.21,469.51 1287.9,468.3 "/>
   <polygon class="fil23" points="972.17,426.26 1112.49,448.04 1132.15,467.7 1017.23,463.16 "/>
   <path class="fil10" d="M1119.45 446.98l22.68 20.72c0,0 67.47,9.01 117.94,1.81l1.52 -22.53c0,0 -24.8,14.67 -142.14,0z"/>
   <path class="fil9" style="mask:url(#id4)" d="M1119.45 446.98l22.68 20.72c0,0 67.47,9.01 117.94,1.81l1.52 -22.53c0,0 -24.8,14.67 -142.14,0z"/>
   <path class="fil10" d="M1128.62 565.38l18.95 -85.08c0,0 92.44,1.58 109.78,-1.64l25.1 86.72 -153.83 0z"/>
   <path class="fil9" style="mask:url(#id6)" d="M1128.62 565.38l18.95 -85.08c0,0 92.44,1.58 109.78,-1.64l25.1 86.72 -153.83 0z"/>
   <path class="fil10" d="M1029.02 495.62c0,0 -14.52,25.72 -14.52,52.38l66.54 2.86 17.74 -8.46 -19.76 -29.04 -50 -17.74z"/>
   <path class="fil9" style="mask:url(#id8)" d="M1029.02 495.62c0,0 -14.52,25.72 -14.52,52.38l66.54 2.86 17.74 -8.46 -19.76 -29.04 -50 -17.74z"/>
   <path class="fil22" d="M984.57 389.51l-28.74 -54.44c0,0 68.06,-0.47 130.05,56.25l-101.31 -1.81z"/>
   <path class="fil20" d="M905.95 379.88c-0.78,-4.41 -2.02,-11.77 -2.89,-18.64 -1.36,-10.73 -13.46,-12.4 -13.46,-12.4l-19.73 0 0 0c10.19,8.43 20.09,16.99 26.69,23.59 2.99,2.99 6.16,5.44 9.39,7.45z"/>
   <path class="fil22" d="M762.28 337.05c-12.09,23.59 -12.71,58.44 -12.71,58.44 57,5.44 110.41,10.3 124,10.81 3.42,0.13 6.27,0.06 8.68,-0.17 -28.22,-65.47 -119.97,-69.08 -119.97,-69.08z"/>
   <path class="fil10" d="M846.63 350.39c0,0 -5.17,27.88 -3.33,53.69 14.43,1.22 25.17,2.03 30.27,2.22 32.06,1.21 16.52,-14.84 16.52,-14.84l-43.46 -41.07z"/>
   <path class="fil22" d="M720.55 392.71l2.08 -59.93c-44.48,5.11 -75.87,18.18 -87.97,23.62 -12.1,5.45 -16.33,26.3 -16.33,26.3 25.17,2.5 63.1,6.24 102.22,10.01z"/>
   <path class="fil10" d="M602.6 381.14c-2.1,-15.4 5.27,-32.1 5.36,-32.29 -17.74,10.34 -26.53,18.74 -26.53,18.74 -6.05,10.29 6.65,12.1 6.65,12.1 0,0 5.34,0.53 14.52,1.45z"/>
   <path class="fil20" d="M681.84 353.86c0,0 -15.73,-3 -27.42,2.64 -11.7,5.65 -15.06,28.28 -15.06,28.28l0 0c13.69,1.35 29.33,2.89 45.89,4.51 6.44,-31.34 -3.41,-35.43 -3.41,-35.43z"/>
   <g>
    <path class="fil17" d="M869.21 558.45c-15.97,-0.49 -31.94,-1.06 -47.91,-1.69 -15.97,-0.67 -31.93,-1.44 -47.89,-2.29 -31.92,-1.67 -63.82,-3.81 -95.65,-7.02 -3.98,-0.36 -7.95,-0.88 -11.92,-1.36l-5.96 -0.74c-1.98,-0.27 -3.96,-0.63 -5.94,-0.94l-5.94 -0.96c-1.97,-0.4 -3.93,-0.9 -5.9,-1.35 -3.96,-0.68 -7.83,-2.4 -11.31,-4.45 -7.03,-4.18 -12.68,-10.22 -17.42,-16.7 -4.79,-6.5 -8.58,-13.64 -11.93,-20.92 -6.6,-14.66 -10.96,-30.19 -14.01,-45.9 -2.98,-15.74 -4.47,-31.76 -4.13,-47.76l0 -0.06 0.03 -0.05 13.23 -25.72 -12.79 25.94 0.03 -0.11c-0.04,7.98 0.39,15.96 1.21,23.89 0.8,7.94 1.97,15.83 3.53,23.65 3.16,15.62 7.72,30.99 14.3,45.48 3.34,7.2 7.11,14.24 11.83,20.61 4.68,6.35 10.22,12.21 16.99,16.19 3.38,1.97 6.94,3.57 10.88,4.24 1.93,0.43 3.84,0.91 5.79,1.3l5.89 0.94c1.97,0.3 3.93,0.65 5.9,0.91l5.94 0.74c3.96,0.49 7.91,1.02 11.89,1.4 31.75,3.36 63.65,5.4 95.53,7.45 15.95,1.02 31.9,1.89 47.86,2.78 15.95,0.9 31.91,1.74 47.87,2.5z"/>
   </g>
   <g>
    <path class="fil17" d="M717.24 392.39l-3.77 14.46c-1.25,4.82 -2.58,9.62 -3.88,14.43l0.02 -0.17 0.41 16.08 0.28 16.07c0.21,10.71 0.37,21.43 0.44,32.14 0.1,10.72 0.22,21.44 0.19,32.16 -0.01,5.36 0.04,10.72 -0.02,16.09 0.13,5.35 0.63,10.69 0.86,16.04 -0.56,-5.33 -1.23,-10.66 -1.59,-16.01 -0.2,-5.35 -0.29,-10.71 -0.44,-16.07 -0.32,-10.71 -0.49,-21.43 -0.67,-32.15 -0.22,-10.72 -0.34,-21.44 -0.42,-32.16l-0.15 -16.09 -0.02 -16.08 0 -0.09 0.02 -0.07c1.43,-4.77 2.84,-9.55 4.32,-14.31l4.42 -14.27z"/>
   </g>
   <g>
    <path class="fil17" d="M870.55 406.16l-8.12 15.46 0.05 -0.14c-1.46,11.3 -2.61,22.64 -3.8,33.97 -1.19,11.34 -2.07,22.7 -3.02,34.05 -0.92,11.35 -1.47,22.73 -2.06,34.11 -0.48,11.38 -0.71,22.77 -0.73,34.18 -0.62,-11.39 -0.77,-22.81 -0.54,-34.22 0.21,-11.41 0.83,-22.81 1.62,-34.2 0.75,-11.39 1.93,-22.74 3.16,-34.08 1.24,-11.35 2.81,-22.65 4.58,-33.92l0.01 -0.08 0.03 -0.06 8.82 -15.07z"/>
   </g>
   <g>
    <path class="fil8" d="M920.62 386.34c-0.02,3.63 0.89,7.28 2.77,10.3 1.85,3.06 4.59,5.48 7.82,6.96 0.82,0.34 1.62,0.71 2.45,1.01l2.56 0.74 5.3 1.29 10.62 2.57c7.09,1.69 14.12,3.59 21.19,5.37 7.05,1.83 14.08,3.74 21.09,5.71l0.27 0.07 -0.01 0.26c-0.1,3.03 -0.19,6.06 -0.34,9.09 -0.15,-3.03 -0.23,-6.06 -0.34,-9.09l0.26 0.33c-7.12,-1.56 -14.23,-3.16 -21.31,-4.86 -7.08,-1.74 -14.18,-3.36 -21.23,-5.2l-10.59 -2.71c-1.76,-0.46 -3.52,-0.88 -5.29,-1.37l-2.66 -0.89c-0.86,-0.36 -1.7,-0.78 -2.55,-1.17 -3.33,-1.71 -6.2,-4.4 -7.94,-7.71 -1.73,-3.29 -2.45,-7.07 -2.07,-10.7z"/>
   </g>
   <path class="fil10" d="M709.04 391.6c8.4,0.81 16.91,1.63 25.41,2.45 0,-0.01 2.7,-51.71 15.12,-82.93 -5.84,0.15 -12.11,0.5 -18.82,1.09 -0.04,0.08 -20.51,45.96 -21.71,79.39z"/>
   <path class="fil10" d="M841.06 397.58c0,0 0.76,7.02 5.6,10.44 0,0 1.81,7.36 -5.6,10.99 -2.59,1.27 -4.98,1.35 -6.99,0.92 -3.21,-0.68 -5.77,-3.03 -7.2,-5.98 -1.75,-3.6 -5.96,-9.64 -14.69,-9.84l19.5 -8.69 9.38 2.16z"/>
   <path class="fil24" d="M943.13 388.76c0,0 69.66,16.79 122.99,37.5 53.33,20.72 121.4,22.58 121.4,22.58 0,0 63.65,2.79 73.95,-14.33l-99.81 -42.12 -218.53 -3.63z"/>
   <path class="fil17" d="M840.13 397.84c3.11,-0.85 4.87,-4.12 3.85,-7.17 -2.15,-6.42 -7.13,-16.58 -17.89,-20.96 -16.33,-6.65 -43.24,12.17 -43.24,12.17 0,0 1.51,15.35 12.7,20.79 8.62,4.2 33.58,-1.84 44.58,-4.83z"/>
   <path class="fil19" d="M843.69 389.83c-0.69,1.39 -1.93,2.5 -3.56,2.95 -11,2.99 -35.96,9.03 -44.58,4.84 -7.33,-3.57 -10.5,-11.37 -11.82,-16.34 -0.56,0.38 -0.88,0.6 -0.88,0.6 0,0 1.51,15.35 12.7,20.79 8.62,4.2 33.58,-1.84 44.58,-4.83 3.11,-0.85 4.87,-4.12 3.85,-7.17 -0.09,-0.27 -0.19,-0.56 -0.29,-0.84z"/>
  </g>
  <g id="_1825523413584">
   <path class="fil1" d="M1657.42 309.8c0,0 -1.18,0.43 -3.15,1.27 -6.08,2.62 -19.81,9.37 -29.91,20.54 0,0 -75.27,-13.36 -95.67,13.37 0,0 -23.22,-7.74 -47.14,-7.74l-20.4 0c-23.91,0 -47.13,7.74 -47.13,7.74 -20.4,-26.73 -95.67,-13.37 -95.67,-13.37 -0.62,-0.7 -1.27,-1.38 -1.94,-2.02 -0.54,-0.57 -1.07,-1.1 -1.64,-1.61 -0.61,-0.59 -1.26,-1.18 -1.91,-1.71 -0.84,-0.76 -1.69,-1.5 -2.53,-2.14 0,-0.03 -0.03,-0.03 -0.06,-0.06 -0.9,-0.73 -1.8,-1.43 -2.73,-2.08 -0.93,-0.7 -1.85,-1.35 -2.78,-1.97 -0.93,-0.65 -1.86,-1.24 -2.76,-1.8 -0.03,0 -0.06,-0.03 -0.11,-0.09 -0.88,-0.53 -1.72,-1.04 -2.54,-1.52 -0.87,-0.53 -1.74,-1.01 -2.56,-1.43 -0.39,-0.23 -0.81,-0.45 -1.21,-0.65 -1.21,-0.67 -2.33,-1.24 -3.37,-1.71 -0.68,-0.34 -1.32,-0.65 -1.94,-0.93 -0.57,-0.26 -1.07,-0.48 -1.55,-0.71 -0.11,-0.02 -0.2,-0.08 -0.28,-0.11 -0.26,-0.11 -0.51,-0.2 -0.71,-0.31 -0.42,-0.17 -0.78,-0.31 -1.09,-0.42 -0.88,-0.37 -1.35,-0.54 -1.35,-0.54 11.17,-10.55 36.35,-19.72 60.97,-26.73 1.94,-0.56 3.89,-1.09 5.83,-1.6 1.91,-0.54 3.85,-1.04 5.74,-1.52 1.97,-0.51 3.88,-1.01 5.77,-1.46 0.02,0 0.02,0 0.05,0 1.8,-0.45 3.6,-0.9 5.35,-1.33 0.45,-0.11 0.9,-0.22 1.32,-0.31 0.73,-0.17 1.44,-0.33 2.17,-0.5 0.95,-0.26 1.88,-0.45 2.81,-0.65 0.54,-0.14 1.07,-0.25 1.58,-0.36 3.37,-0.79 6.61,-1.5 9.59,-2.12 1.49,-0.33 2.93,-0.64 4.31,-0.92 0.28,-0.06 0.53,-0.12 0.81,-0.17 1.64,-0.34 3.18,-0.65 4.59,-0.93 3.04,-0.62 5.57,-1.1 7.49,-1.47 0.36,-0.05 0.7,-0.11 1.01,-0.19 1.29,-0.23 2.19,-0.4 2.67,-0.48 0.23,-0.03 0.34,-0.06 0.34,-0.06l127.33 0c0,0 3.57,0.62 9.54,1.8 1.8,0.37 3.82,0.76 6.02,1.21 0.45,0.12 0.9,0.2 1.35,0.29 0.7,0.14 1.41,0.3 2.11,0.45 0.11,0 0.22,0.02 0.31,0.05 1.27,0.28 2.59,0.57 3.97,0.85 0.84,0.19 1.69,0.36 2.56,0.56 1.6,0.36 3.26,0.73 4.95,1.13 3.94,0.87 8.13,1.85 12.44,2.95 0.25,0.06 0.5,0.11 0.76,0.2 0.03,0 0.03,0 0.03,0 0.02,0 0.05,0 0.05,0 5.63,1.4 11.45,2.92 17.34,4.58 1.54,0.45 3.06,0.88 4.61,1.35 1.32,0.37 2.62,0.76 3.91,1.16 1.94,0.59 3.88,1.21 5.83,1.83 1.26,0.42 2.5,0.81 3.74,1.23 3.09,1.05 6.16,2.11 9.14,3.21 1.33,0.51 2.65,0.99 3.94,1.49 0.09,0.03 0.17,0.09 0.26,0.12 1.38,0.53 2.75,1.09 4.11,1.66 0.92,0.36 1.82,0.76 2.72,1.15 0.68,0.31 1.35,0.59 2,0.9 1.66,0.73 3.27,1.49 4.81,2.28 0.6,0.28 1.19,0.59 1.78,0.9 5.77,2.98 10.63,6.16 14.12,9.45z"/>
   <path class="fil2" d="M1438.73 269c-1.44,2.82 -2.82,5.69 -4.11,8.56 -5.74,12.6 -10.1,25.41 -13.28,36.44 -5.18,17.84 -7.32,30.98 -7.32,30.98 -20.4,-26.73 -95.67,-13.37 -95.67,-13.37 -0.62,-0.7 -1.27,-1.38 -1.94,-2.02 -0.51,-0.54 -1.07,-1.07 -1.64,-1.61 -0.61,-0.59 -1.26,-1.18 -1.91,-1.71 -0.81,-0.76 -1.66,-1.47 -2.53,-2.14 0,-0.03 -0.03,-0.03 -0.06,-0.06 -0.9,-0.73 -1.8,-1.41 -2.73,-2.08 -0.93,-0.7 -1.85,-1.35 -2.78,-1.97 -0.93,-0.62 -1.83,-1.21 -2.76,-1.8 -0.03,0 -0.06,-0.03 -0.11,-0.09 -0.85,-0.5 -1.72,-1.04 -2.54,-1.52 -0.87,-0.5 -1.74,-0.98 -2.56,-1.43 -0.39,-0.23 -0.81,-0.45 -1.21,-0.65 -1.21,-0.65 -2.33,-1.21 -3.37,-1.71 -0.68,-0.34 -1.32,-0.65 -1.94,-0.93 -0.57,-0.26 -1.07,-0.48 -1.55,-0.71 -0.11,-0.02 -0.2,-0.08 -0.28,-0.11 -0.26,-0.11 -0.51,-0.2 -0.71,-0.31 -0.42,-0.17 -0.78,-0.31 -1.09,-0.42 -0.88,-0.37 -1.35,-0.54 -1.35,-0.54 11.17,-10.55 36.35,-19.72 60.97,-26.73 1.94,-0.56 3.89,-1.09 5.83,-1.6 1.91,-0.54 3.85,-1.04 5.74,-1.52 1.97,-0.51 3.88,-1.01 5.77,-1.46 0.02,0 0.02,0 0.05,0 1.8,-0.48 3.6,-0.9 5.35,-1.33 0.45,-0.11 0.9,-0.22 1.32,-0.31 0.73,-0.17 1.44,-0.33 2.17,-0.5 0.95,-0.26 1.88,-0.45 2.81,-0.65 0.54,-0.14 1.07,-0.25 1.58,-0.36 3.37,-0.79 6.61,-1.5 9.59,-2.12 1.49,-0.33 2.93,-0.64 4.31,-0.92 0.28,-0.06 0.53,-0.12 0.81,-0.17 1.64,-0.34 3.18,-0.65 4.59,-0.93 3.04,-0.62 5.57,-1.1 7.49,-1.47 0.36,-0.05 0.7,-0.11 1.01,-0.19 1.29,-0.23 2.19,-0.4 2.67,-0.48 0.23,-0.03 0.34,-0.06 0.34,-0.06l31.04 0z"/>
   <path class="fil2" d="M1657.42 309.8c0,0 -1.18,0.43 -3.15,1.27 -6.08,2.62 -19.81,9.37 -29.91,20.54 0,0 -75.27,-13.36 -95.67,13.37 0,0 -2.14,-13.14 -7.32,-30.98 -3.18,-11.03 -7.54,-23.84 -13.28,-36.44 -1.27,-2.87 -2.65,-5.74 -4.11,-8.56l31.04 0c0,0 3.57,0.62 9.54,1.8 1.8,0.37 3.82,0.76 6.02,1.21 0.45,0.12 0.9,0.2 1.35,0.29 0.7,0.14 1.41,0.3 2.11,0.45 0.11,0 0.22,0.02 0.31,0.05 1.27,0.28 2.59,0.57 3.97,0.85 0.84,0.19 1.69,0.36 2.56,0.56 1.6,0.36 3.26,0.73 4.95,1.13 3.94,0.87 8.13,1.85 12.44,2.95 0.25,0.06 0.5,0.11 0.76,0.2 0.03,0 0.03,0 0.03,0 0.02,0 0.05,0 0.05,0 5.63,1.4 11.45,2.92 17.34,4.58 1.54,0.45 3.06,0.88 4.61,1.35 1.32,0.37 2.62,0.76 3.91,1.16 1.94,0.59 3.88,1.21 5.83,1.83 1.26,0.42 2.5,0.81 3.74,1.23 3.09,1.05 6.16,2.11 9.14,3.21 1.33,0.51 2.65,0.99 3.94,1.49 0.09,0.03 0.17,0.09 0.26,0.12 1.38,0.53 2.75,1.09 4.11,1.66 0.92,0.36 1.82,0.76 2.72,1.15 0.68,0.31 1.35,0.59 2,0.9 1.66,0.73 3.27,1.49 4.81,2.28 0.6,0.28 1.19,0.59 1.78,0.9 5.77,2.98 10.63,6.16 14.12,9.45z"/>
   <path class="fil1" d="M1346.26 283.07c-9.48,10.7 -15.92,20.97 -20.17,29.24 -5.97,11.54 -7.74,19.3 -7.74,19.3 -0.62,-0.7 -1.27,-1.38 -1.94,-2.02 -0.51,-0.54 -1.07,-1.07 -1.64,-1.61 -0.61,-0.59 -1.26,-1.18 -1.91,-1.71 -0.81,-0.76 -1.66,-1.47 -2.53,-2.14 0,-0.03 -0.03,-0.03 -0.06,-0.06 -0.9,-0.73 -1.8,-1.41 -2.73,-2.08 -0.93,-0.7 -1.85,-1.35 -2.78,-1.97 -0.93,-0.62 -1.83,-1.21 -2.76,-1.8 -0.03,0 -0.06,-0.03 -0.11,-0.09 -0.85,-0.5 -1.72,-1.04 -2.54,-1.52 -0.87,-0.5 -1.74,-0.98 -2.56,-1.43 -0.39,-0.23 -0.81,-0.45 -1.21,-0.65 -1.21,-0.65 -2.33,-1.21 -3.37,-1.71 -0.68,-0.34 -1.32,-0.65 -1.94,-0.93 -0.57,-0.26 -1.07,-0.48 -1.55,-0.71 -0.11,-0.02 -0.2,-0.08 -0.28,-0.11 -0.26,-0.11 -0.51,-0.2 -0.71,-0.31 -0.42,-0.17 -0.78,-0.31 -1.09,-0.42 -0.88,-0.37 -1.35,-0.54 -1.35,-0.54 11.17,-10.55 36.35,-19.72 60.97,-26.73z"/>
   <path class="fil1" d="M1657.42 309.8c0,0 -1.18,0.43 -3.15,1.27 -6.08,2.62 -19.81,9.37 -29.91,20.54 0,0 -1.77,-7.76 -7.74,-19.3 -4.25,-8.27 -10.69,-18.54 -20.17,-29.24 1.54,0.45 3.06,0.88 4.61,1.35 1.32,0.37 2.62,0.76 3.91,1.16 1.94,0.59 3.88,1.21 5.83,1.83 1.26,0.42 2.5,0.81 3.74,1.23 3.09,1.05 6.16,2.11 9.14,3.21 1.33,0.51 2.65,0.99 3.94,1.49 0.09,0.03 0.17,0.09 0.26,0.12 1.38,0.53 2.75,1.09 4.11,1.66 0.92,0.36 1.82,0.76 2.72,1.15 0.68,0.31 1.35,0.59 2,0.9 1.66,0.73 3.27,1.49 4.81,2.28 0.6,0.28 1.19,0.59 1.78,0.9 5.77,2.98 10.63,6.16 14.12,9.45z"/>
   <g>
    <path class="fil3" d="M1474.18 211.09l0 270.13c0,1.55 -1.27,2.82 -2.81,2.82 -1.55,0 -2.82,-1.27 -2.82,-2.82l0 -270.13c0,-1.57 1.27,-2.81 2.82,-2.81 1.54,0 2.81,1.24 2.81,2.81z"/>
   </g>
   <path class="fil4" d="M1474.18 464.42l0 26.09 -5.63 0 0 -31.38c1.67,1.18 3.82,2.96 5.63,5.29z"/>
   <path class="fil4" d="M1474.18 277.98l0 20.82c-1.88,-0.28 -3.77,-0.5 -5.63,-0.7l0 -20.12 5.63 0z"/>
   <g>
    <path class="fil5" d="M1515.21 504.88c-2.57,0.25 -4.45,2.54 -4.45,5.11l0 10.27c0,9.34 -7.24,17.3 -16.57,17.65 -9.8,0.37 -17.9,-7.5 -17.9,-17.22l0 -55.3c0,-0.96 -0.78,-1.75 -1.75,-1.75l-6.34 0c-0.97,0 -1.76,0.79 -1.76,1.75l0 54.72c0,14.74 11.54,27.22 26.27,27.65 15.31,0.45 27.9,-11.87 27.9,-27.07l0 -10.9c0,-2.89 -2.47,-5.19 -5.4,-4.91z"/>
   </g>
   <g>
    <path class="fil5" d="M1471.37 246.02c-2.04,0 -3.68,-2.2 -3.68,-4.92l0 -35.53c0,-2.72 1.64,-4.92 3.68,-4.92 2.03,0 3.68,2.2 3.68,4.92l0 35.53c0,2.72 -1.65,4.92 -3.68,4.92z"/>
   </g>
   <g>
    <path class="fil6" d="M1657.42 309.8c-22.25,-7.99 -64.66,-12.91 -101.86,-15.84 -37.96,-2.95 -70.49,-3.85 -70.49,-3.85l-27.43 0c0,0 -32.5,0.9 -70.46,3.85 -37.18,2.93 -79.61,7.85 -101.89,15.84 0,0 72.45,-78.08 139.28,-78.08 0,0 14.3,-14.18 46.77,-3.38 32.5,-10.8 46.8,3.38 46.8,3.38 66.82,0 139.28,78.08 139.28,78.08z"/>
    <path class="fil7" d="M1555.56 293.96c-37.96,-2.95 -70.49,-3.85 -70.49,-3.85l-27.43 0c0,0 -32.5,0.9 -70.46,3.85 13.19,-35.62 37.39,-62.24 37.39,-62.24 0,0 14.3,-14.18 46.77,-3.38 32.5,-10.8 46.8,3.38 46.8,3.38 0,0 24.22,26.62 37.42,62.24z"/>
   </g>
  </g>
  <path class="fil25" d="M1003.58 101.3l40.32 40.32c-16.04,-10.54 -29.78,-24.28 -40.32,-40.32zm66.42 53.78l-79.88 -79.88c-1.37,-3.53 -2.6,-7.13 -3.69,-10.8l94.37 94.37c-3.67,-1.09 -7.27,-2.32 -10.8,-3.69zm27.24 7.5l-114.62 -114.62c-0.46,-2.73 -0.84,-5.48 -1.14,-8.25l124.01 124.01c-2.77,-0.3 -5.52,-0.68 -8.25,-1.14zm21.69 1.94l-138.25 -138.25c-0.01,-0.59 -0.02,-1.17 -0.02,-1.76l0 0c0,-1.77 0.04,-3.52 0.11,-5.27l145.19 145.19c-1.75,0.07 -3.5,0.11 -5.27,0.11 -0.59,0 -1.17,-0.01 -1.76,-0.02zm18.74 -1l-155.99 -155.99c0.26,-2.09 0.56,-4.16 0.9,-6.22l161.31 161.31c-2.06,0.34 -4.13,0.64 -6.22,0.9zm16.69 -3.06l-160.46 -160.46 7.11 0 158.95 158.95c-1.85,0.54 -3.72,1.04 -5.6,1.51zm15.1 -4.65l-155.81 -155.81 7.11 0 153.8 153.8c-1.69,0.7 -3.38,1.37 -5.1,2.01zm13.76 -5.98l-149.83 -149.83 7.11 0 147.39 147.39c-1.53,0.84 -3.09,1.65 -4.67,2.44zm12.61 -7.14l-142.69 -142.69 7.11 0 139.85 139.85c-1.4,0.97 -2.82,1.92 -4.27,2.84zm11.55 -8.2l-134.5 -134.49 7.12 0 131.28 131.29c-1.28,1.09 -2.58,2.16 -3.9,3.2zm10.54 -9.21l-125.29 -125.28 7.11 0 121.73 121.73c-1.16,1.2 -2.35,2.39 -3.55,3.55zm9.55 -10.18l-115.1 -115.1 7.12 0 111.19 111.19c-1.04,1.32 -2.12,2.62 -3.21,3.91zm8.57 -11.18l-103.92 -103.92 7.11 0 99.65 99.65c-0.92,1.44 -1.87,2.86 -2.84,4.27zm7.54 -12.21l-91.71 -91.71 7.11 0 87.04 87.04c-0.79,1.57 -1.6,3.13 -2.44,4.67zm6.41 -13.34l-78.38 -78.37 7.11 0 73.28 73.28c-0.64,1.71 -1.31,3.41 -2.01,5.09zm5.15 -14.59l-63.78 -63.78 7.11 0 58.18 58.17c-0.47,1.89 -0.97,3.76 -1.51,5.61zm3.67 -16.08l-47.7 -47.7 7.1 0 41.49 41.49c-0.25,2.08 -0.55,4.15 -0.89,6.21zm1.81 -17.93l-29.77 -29.77 7.11 0 22.75 22.75c0.01,0.58 0.02,1.17 0.02,1.76 0,1.76 -0.04,3.51 -0.11,5.26zm-0.71 -20.46l-9.31 -9.31 7.11 0 1.06 1.06c0.45,2.72 0.84,5.48 1.14,8.25z"/>
 </g>
</svg>
