<?xml version="1.0" encoding="UTF-8"?>
<!DOCTYPE svg PUBLIC "-//W3C//DTD SVG 1.1//EN" "http://www.w3.org/Graphics/SVG/1.1/DTD/svg11.dtd">
<!-- Creator: CorelDRAW 2019 -->
<svg xmlns="http://www.w3.org/2000/svg" xml:space="preserve" width="42.8395mm" height="23.7682mm" version="1.1" style="shape-rendering:geometricPrecision; text-rendering:geometricPrecision; image-rendering:optimizeQuality; fill-rule:evenodd; clip-rule:evenodd"
viewBox="0 0 233.46 129.53"
 xmlns:xlink="http://www.w3.org/1999/xlink"
 xmlns:xodm="http://www.corel.com/coreldraw/odm/2003">
 <defs>
  <style type="text/css">
   <![CDATA[
    .fil0 {fill:url(#id0);fill-rule:nonzero}
   ]]>
  </style>
  <linearGradient id="id0" gradientUnits="userSpaceOnUse" x1="3.85" y1="54.37" x2="224.61" y2="74.19">
   <stop offset="0" style="stop-opacity:1; stop-color:#00D9FF"/>
   <stop offset="1" style="stop-opacity:1; stop-color:#5A69F7"/>
  </linearGradient>
 </defs>
 <g id="Слой_x0020_1">
  <metadata id="CorelCorpID_0Corel-Layer"/>
  <path class="fil0" d="M163.82 19.18l10.09 0 0 50.47 -38.35 0 0 -10.09 28.26 0 0 -40.37zm-119.72 34.27c0,8.06 16.02,12.27 31.85,12.27 7.34,0 14.72,-0.91 20.53,-2.68 0.15,-6.19 1.22,-12.24 3.13,-18 -17.2,-6.89 -55.51,-4.08 -55.51,8.41zm52.46 14.73c-5.8,1.6 -12.85,2.45 -20.61,2.45 -11.63,0 -21.66,-1.91 -28.26,-5.37 -0.76,-0.4 -1.68,-0.37 -2.4,0.07 -0.73,0.44 -1.18,1.24 -1.18,2.1l0 0.74c0,8.06 16.02,12.27 31.85,12.27 7.9,0 15.84,-1.05 21.82,-3.1 -0.63,-3 -1.03,-6.06 -1.21,-9.16zm-81.86 34.35c0,8.06 16.02,12.27 31.85,12.27 15.83,0 31.85,-4.22 31.85,-12.27 0,-16.11 -63.7,-16.11 -63.7,0zm60.11 11.81c-6.6,3.46 -16.64,5.37 -28.26,5.37 -11.63,0 -21.66,-1.91 -28.26,-5.37 -0.76,-0.4 -1.68,-0.36 -2.4,0.07 -0.73,0.44 -1.18,1.24 -1.18,2.1l0 0.74c0,8.06 16.02,12.27 31.85,12.27 15.83,0 31.85,-4.22 31.85,-12.27l0 -0.74c0,-0.86 -0.45,-1.66 -1.18,-2.1 -0.73,-0.44 -1.65,-0.47 -2.41,-0.07zm-42.96 -68.26c3.31,0 6.62,-0.19 9.83,-0.56 0.52,-0.06 1.01,-0.29 1.4,-0.65 3.71,-3.5 10.05,-6.08 18.33,-7.46 0.88,-0.15 1.61,-0.75 1.9,-1.59 0.25,-0.71 0.37,-1.36 0.37,-2.01 0,-16.11 -63.7,-16.11 -63.7,0 0,8.06 16.02,12.27 31.85,12.27zm0 14.72c2.03,0 4.01,-0.07 5.92,-0.2 0.77,-0.05 1.47,-0.46 1.89,-1.12 0.42,-0.65 0.51,-1.46 0.24,-2.19 -0.48,-1.28 -0.71,-2.55 -0.7,-3.99 0,-0.67 -0.28,-1.31 -0.76,-1.78 -0.48,-0.46 -1.17,-0.74 -1.81,-0.68 -1.6,0.08 -3.2,0.13 -4.79,0.13 -11.63,0 -21.67,-1.91 -28.26,-5.37 -0.76,-0.4 -1.67,-0.37 -2.4,0.07 -0.73,0.44 -1.18,1.24 -1.18,2.1l0 0.74c0,8.06 16.02,12.27 31.85,12.27zm0 14.73c2.03,0 4.01,-0.07 5.92,-0.2 0.77,-0.05 1.47,-0.46 1.89,-1.12 0.42,-0.65 0.51,-1.46 0.24,-2.19 -0.48,-1.28 -0.71,-2.55 -0.71,-3.99 0,-0.67 -0.28,-1.31 -0.76,-1.78 -0.48,-0.46 -1.15,-0.73 -1.81,-0.68 -1.6,0.08 -3.19,0.13 -4.78,0.13 -11.63,0 -21.67,-1.91 -28.26,-5.37 -0.76,-0.4 -1.67,-0.37 -2.4,0.07 -0.73,0.44 -1.18,1.24 -1.18,2.1l0 0.74c0,8.06 16.02,12.27 31.85,12.27zm72.36 19.17c-4.61,2.42 -11.1,4.11 -18.75,4.88 -1.29,0.13 -2.21,1.64 -2.16,2.94 0,1.24 -0.2,2.43 -0.61,3.63 -0.27,0.79 -0.12,1.67 0.4,2.33 0.47,0.59 1.17,0.93 1.92,0.93 0.09,0 0.17,-0 0.26,-0.01 12.3,-1.33 20.27,-4.84 22.12,-9.6 -1.14,-1.66 -2.19,-3.36 -3.15,-5.11l-0.02 0.01zm-57.66 -9.36l1.62 0.03c0.01,0 0.03,0 0.04,0 1.14,0 2.14,-0.79 2.39,-1.91 0.26,-1.14 -0.32,-2.29 -1.38,-2.78l-0.52 -0.23c-0.35,-0.15 -0.7,-0.31 -1.03,-0.48 -0.76,-0.4 -1.67,-0.36 -2.4,0.08 -0.73,0.44 -1.18,1.24 -1.18,2.1l0 0.74c0,1.36 1.1,2.45 2.45,2.45zm52.44 -3.18c-6.2,2.07 -14.15,3.18 -23.04,3.18l-1.62 -0.03c-0.99,-0.08 -2.17,0.79 -2.42,1.92 -0.25,1.13 0.32,2.29 1.38,2.77 2.65,1.21 4.82,2.64 6.44,4.27 0.46,0.46 1.08,0.72 1.73,0.72 0.05,0 0.1,-0 0.16,-0 7.22,-0.46 15.17,-1.94 20.4,-4.7 -1.2,-2.63 -2.21,-5.34 -3.02,-8.11zm-78.5 7.33c0.31,0 0.61,-0.06 0.9,-0.17 4.32,-1.71 9.58,-2.89 15.65,-3.5 1.29,-0.13 2.21,-1.76 2.16,-3.06 0,-0.67 -0.28,-1.31 -0.76,-1.78 -0.48,-0.46 -1.15,-0.71 -1.81,-0.68 -1.6,0.08 -3.19,0.13 -4.78,0.13 -11.63,0 -21.67,-1.91 -28.26,-5.37 -0.76,-0.4 -1.67,-0.37 -2.4,0.07 -0.73,0.44 -1.18,1.24 -1.18,2.1l0 0.74c0,5.42 7.53,9.72 20.15,11.48 0.11,0.02 0.23,0.02 0.34,0.02zm202.43 -20.36c-0.04,0.54 -0.1,1.07 -0.16,1.61l0 0c-0.29,2.55 -0.75,5.09 -1.39,7.57l9.77 2.53c0.91,-3.52 1.53,-7.14 1.83,-10.78l-0.01 -0c0.03,-0.31 0.05,-0.62 0.07,-0.93l-10.12 0 0 0zm-9.11 25.92l8.36 5.65c2.04,-3.02 3.83,-6.23 5.33,-9.55l-9.2 -4.15c-1.26,2.8 -2.78,5.5 -4.5,8.05zm-12.71 13.3l6.02 8.1c2.92,-2.17 5.67,-4.6 8.19,-7.24l-7.3 -6.97c-2.13,2.22 -4.45,4.28 -6.92,6.11zm-16.38 8.32l2.98 9.64c3.48,-1.07 6.89,-2.46 10.13,-4.11l-4.57 -9c-2.74,1.39 -5.61,2.56 -8.54,3.46zm38.64 -105.07l0 18.69c-4.75,-7.57 -11.03,-14.1 -18.53,-19.19 -10.71,-7.27 -23.24,-11.11 -36.22,-11.11 -17.25,0 -33.48,6.72 -45.68,18.92 -12.2,12.2 -18.92,28.42 -18.92,45.68 0,17.25 6.72,33.48 18.92,45.68 12.2,12.2 28.42,18.92 45.68,18.92 2.81,0 5.64,-0.18 8.4,-0.54l-1.3 -10.01c-2.34,0.3 -4.73,0.46 -7.1,0.46 -30.05,0 -54.5,-24.45 -54.5,-54.5 0,-30.05 24.45,-54.5 54.5,-54.5 19.51,0 37.21,10.29 46.92,26.75l-17.4 0 0 10.09 35.33 0 0 -35.33 -10.09 0z"/>
 </g>
</svg>
