<?xml version="1.0" encoding="UTF-8"?>
<!DOCTYPE svg PUBLIC "-//W3C//DTD SVG 1.1//EN" "http://www.w3.org/Graphics/SVG/1.1/DTD/svg11.dtd">
<!-- Creator: CorelDRAW 2019 -->
<svg xmlns="http://www.w3.org/2000/svg" xml:space="preserve" width="60.172mm" height="42.533mm" version="1.1" style="shape-rendering:geometricPrecision; text-rendering:geometricPrecision; image-rendering:optimizeQuality; fill-rule:evenodd; clip-rule:evenodd"
viewBox="0 0 470.67 332.7"
 xmlns:xlink="http://www.w3.org/1999/xlink"
 xmlns:xodm="http://www.corel.com/coreldraw/odm/2003">
 <defs>
  <style type="text/css">
   <![CDATA[
    .str0 {stroke:white;stroke-width:5.52;stroke-miterlimit:22.9256}
    .str1 {stroke:#E6E6E6;stroke-width:1.56;stroke-miterlimit:22.9256}
    .fil5 {fill:none}
    .fil0 {fill:white}
    .fil1 {fill:#34DAEA;fill-rule:nonzero}
    .fil4 {fill:#5A69F7;fill-rule:nonzero}
    .fil2 {fill:url(#id1);fill-rule:nonzero}
    .fil6 {fill:url(#id2);fill-rule:nonzero}
    .fil3 {fill:url(#id3);fill-rule:nonzero}
   ]]>
  </style>
    <clipPath id="id0">
     <path d="M25.45 331.92l419.77 0c13.57,0 24.67,-11.1 24.67,-24.67l0 -281.79c0,-13.57 -11.1,-24.67 -24.67,-24.67l-419.77 0c-13.57,0 -24.67,11.1 -24.67,24.67l0 281.79c0,13.57 11.1,24.67 24.67,24.67z"/>
    </clipPath>
  <linearGradient id="id1" gradientUnits="userSpaceOnUse" x1="121.19" y1="532.6" x2="388.18" y2="786.52">
   <stop offset="0" style="stop-opacity:1; stop-color:#905EF2"/>
   <stop offset="1" style="stop-opacity:1; stop-color:#4859F7"/>
  </linearGradient>
  <linearGradient id="id2" gradientUnits="userSpaceOnUse" x1="71.42" y1="151.68" x2="388.28" y2="180.11">
   <stop offset="0" style="stop-opacity:1; stop-color:#00D9FF"/>
   <stop offset="1" style="stop-opacity:1; stop-color:#5A69F7"/>
  </linearGradient>
  <linearGradient id="id3" gradientUnits="userSpaceOnUse" x1="-107.12" y1="567.97" x2="359.72" y2="431.34">
   <stop offset="0" style="stop-opacity:1; stop-color:#00D9FF"/>
   <stop offset="0.419608" style="stop-opacity:1; stop-color:#1B75FD"/>
   <stop offset="1" style="stop-opacity:1; stop-color:#B357EF"/>
  </linearGradient>
 </defs>
 <g id="Слой_x0020_1">
  <metadata id="CorelCorpID_0Corel-Layer"/>
  <g id="_883102704">
   <path class="fil0" d="M25.45 331.92l419.77 0c13.57,0 24.67,-11.1 24.67,-24.67l0 -281.79c0,-13.57 -11.1,-24.67 -24.67,-24.67l-419.77 0c-13.57,0 -24.67,11.1 -24.67,24.67l0 281.79c0,13.57 11.1,24.67 24.67,24.67z"/>
   <g style="clip-path:url(#id0)">
    <g>
     <path id="1" class="fil1" d="M462.49 827.79c-1.63,31.12 121.97,-191.05 132.62,-214.32 41.03,-89.65 114.45,-360.63 109.94,-423.26l-195.71 126.83c-233.23,145.94 -37.58,334.27 -46.86,510.74z"/>
     <path class="fil2" d="M481.22 711.86l-447.08 2.51c-6.61,0.04 -12,-5.29 -12.04,-11.91l-0.45 -79.98c-0.01,-1.6 0.76,-3.12 2.09,-4 27.5,-18.26 64.57,-21.54 97.62,-14.82 39.96,8.12 76.22,28.32 113.5,44.85 37.28,16.52 78.21,29.72 118.36,22.6 37.89,-6.71 70.09,-30.52 104.27,-48.2 9.12,-4.72 18.83,-8.98 28.79,-12.36 3.1,-1.05 6.34,1.22 6.36,4.5l0.48 84.77c0.04,6.61 -5.29,12.01 -11.91,12.04z"/>
     <path class="fil3" d="M257.33 417.94l-273.46 0c-40.93,0 -74.12,33.18 -74.12,74.12 0,40.93 33.18,74.12 74.12,74.12l273.46 0c40.93,0 74.12,-33.19 74.12,-74.12 0,-40.93 -33.19,-74.12 -74.12,-74.12z"/>
     <path class="fil4 str0" d="M-2759.62 -899.54c-127.22,-79.3 1089.45,45.15 1210.54,67.24 466.59,85.11 1483.4,250.65 1717.99,440.94l-785.1 713.77c-1217.96,517.89 -1421.84,-772.48 -2143.43,-1221.96z"/>
    </g>
   </g>
   <path class="fil5 str1" d="M25.45 331.92l419.77 0c13.57,0 24.67,-11.1 24.67,-24.67l0 -281.79c0,-13.57 -11.1,-24.67 -24.67,-24.67l-419.77 0c-13.57,0 -24.67,11.1 -24.67,24.67l0 281.79c0,13.57 11.1,24.67 24.67,24.67z"/>
   <path class="fil6" d="M301.02 101.16l14.49 0 0 72.44 -55.05 0 0 -14.49 40.56 0 0 -57.95zm-171.84 49.19c0,11.56 23,17.61 45.71,17.61 10.54,0 21.13,-1.3 29.47,-3.85 0.22,-8.89 1.75,-17.56 4.49,-25.83 -24.69,-9.88 -79.67,-5.86 -79.67,12.07zm75.3 21.15c-8.32,2.29 -18.44,3.51 -29.59,3.51 -16.69,0 -31.1,-2.74 -40.57,-7.71 -1.09,-0.57 -2.4,-0.53 -3.45,0.11 -1.05,0.64 -1.7,1.78 -1.7,3.01l0 1.06c0,11.56 23,17.61 45.71,17.61 11.34,0 22.74,-1.51 31.32,-4.45 -0.9,-4.31 -1.48,-8.7 -1.73,-13.15zm-117.5 49.31c0,11.56 23,17.61 45.71,17.61 22.72,0 45.71,-6.05 45.71,-17.61 0,-23.12 -91.43,-23.12 -91.43,0zm86.28 16.95c-9.47,4.97 -23.88,7.71 -40.57,7.71 -16.69,0 -31.1,-2.74 -40.57,-7.71 -1.09,-0.57 -2.4,-0.52 -3.45,0.11 -1.05,0.64 -1.7,1.78 -1.7,3.01l0 1.06c0,11.56 23,17.61 45.71,17.61 22.72,0 45.71,-6.05 45.71,-17.61l0 -1.06c0,-1.23 -0.64,-2.38 -1.7,-3.01 -1.05,-0.63 -2.36,-0.68 -3.45,-0.11zm-61.67 -97.97c4.75,0 9.5,-0.27 14.12,-0.8 0.75,-0.09 1.46,-0.41 2.01,-0.93 5.33,-5.02 14.43,-8.73 26.32,-10.71 1.26,-0.21 2.3,-1.08 2.73,-2.29 0.36,-1.01 0.54,-1.96 0.54,-2.88 0,-23.12 -91.43,-23.12 -91.43,0 0,11.56 23,17.61 45.72,17.61zm0 21.14c2.91,0 5.75,-0.1 8.5,-0.28 1.11,-0.08 2.12,-0.67 2.72,-1.6 0.6,-0.93 0.73,-2.1 0.34,-3.14 -0.68,-1.84 -1.02,-3.65 -1,-5.73 0,-0.96 -0.4,-1.89 -1.09,-2.55 -0.69,-0.66 -1.67,-1.07 -2.59,-0.97 -2.3,0.11 -4.59,0.19 -6.88,0.19 -16.69,0 -31.1,-2.74 -40.57,-7.71 -1.09,-0.57 -2.4,-0.53 -3.45,0.11 -1.05,0.64 -1.7,1.78 -1.7,3.01l0 1.06c0,11.56 23,17.61 45.72,17.61zm0 21.14c2.91,0 5.75,-0.1 8.5,-0.28 1.11,-0.08 2.12,-0.67 2.72,-1.6 0.6,-0.93 0.73,-2.1 0.34,-3.14 -0.68,-1.84 -1.02,-3.65 -1.02,-5.73 0,-0.96 -0.4,-1.89 -1.09,-2.55 -0.69,-0.66 -1.65,-1.04 -2.59,-0.97 -2.29,0.11 -4.58,0.19 -6.86,0.19 -16.69,0 -31.1,-2.74 -40.57,-7.71 -1.09,-0.57 -2.4,-0.53 -3.45,0.11 -1.05,0.64 -1.7,1.78 -1.7,3.01l0 1.06c0,11.56 23,17.61 45.72,17.61zm103.86 27.52c-6.62,3.47 -15.93,5.9 -26.92,7.01 -1.85,0.19 -3.18,2.36 -3.1,4.22 0,1.79 -0.29,3.49 -0.88,5.21 -0.39,1.14 -0.17,2.4 0.57,3.34 0.67,0.84 1.69,1.33 2.75,1.33 0.12,0 0.25,-0.01 0.38,-0.02 17.65,-1.91 29.1,-6.95 31.75,-13.78 -1.63,-2.38 -3.14,-4.83 -4.53,-7.33l-0.03 0.02zm-82.77 -13.43l2.33 0.04c0.02,0 0.04,0 0.06,0 1.64,0 3.07,-1.14 3.43,-2.74 0.37,-1.63 -0.46,-3.29 -1.97,-3.98l-0.75 -0.34c-0.5,-0.22 -1.01,-0.44 -1.47,-0.68 -1.09,-0.57 -2.39,-0.52 -3.45,0.11 -1.05,0.64 -1.69,1.78 -1.69,3.01l0 1.06c0,1.95 1.57,3.52 3.52,3.52zm75.26 -4.57c-8.9,2.97 -20.32,4.57 -33.07,4.57l-2.32 -0.04c-1.42,-0.12 -3.11,1.13 -3.48,2.76 -0.36,1.63 0.46,3.28 1.97,3.97 3.81,1.73 6.92,3.79 9.25,6.12 0.66,0.66 1.56,1.03 2.49,1.03 0.07,0 0.15,-0 0.22,-0.01 10.37,-0.66 21.78,-2.78 29.28,-6.75 -1.72,-3.78 -3.17,-7.67 -4.34,-11.64zm-112.67 10.52c0.44,0 0.88,-0.08 1.29,-0.25 6.2,-2.45 13.75,-4.14 22.46,-5.02 1.85,-0.19 3.18,-2.53 3.1,-4.4 0,-0.96 -0.4,-1.89 -1.09,-2.55 -0.69,-0.66 -1.65,-1.02 -2.59,-0.97 -2.29,0.11 -4.58,0.19 -6.86,0.19 -16.69,0 -31.1,-2.74 -40.57,-7.71 -1.09,-0.57 -2.4,-0.53 -3.45,0.11 -1.05,0.64 -1.7,1.78 -1.7,3.01l0 1.06c0,7.78 10.81,13.95 28.92,16.48 0.16,0.02 0.33,0.04 0.49,0.04zm290.56 -29.22c-0.06,0.77 -0.14,1.54 -0.23,2.31l0.01 0c-0.41,3.67 -1.08,7.31 -2,10.86l14.02 3.63c1.31,-5.05 2.19,-10.25 2.63,-15.47l-0.01 -0c0.04,-0.44 0.08,-0.89 0.11,-1.33l-14.53 0 0 0zm-13.08 37.21l12 8.11c2.93,-4.34 5.5,-8.95 7.65,-13.71l-13.2 -5.96c-1.81,4.01 -3.99,7.9 -6.46,11.56zm-18.24 19.09l8.65 11.62c4.19,-3.11 8.14,-6.61 11.75,-10.39l-10.47 -10.01c-3.05,3.19 -6.39,6.14 -9.93,8.77zm-23.51 11.94l4.28 13.84c4.99,-1.54 9.88,-3.52 14.55,-5.89l-6.56 -12.92c-3.93,2 -8.06,3.67 -12.26,4.97zm55.47 -150.82l0 26.83c-6.81,-10.87 -15.83,-20.24 -26.6,-27.55 -15.37,-10.43 -33.35,-15.94 -51.99,-15.94 -24.77,0 -48.05,9.64 -65.56,27.16 -17.51,17.51 -27.16,40.8 -27.16,65.56 0,24.77 9.64,48.05 27.16,65.56 17.51,17.51 40.8,27.16 65.56,27.16 4.03,0 8.09,-0.26 12.06,-0.78l-1.87 -14.37c-3.36,0.44 -6.78,0.66 -10.2,0.66 -43.14,0 -78.23,-35.09 -78.23,-78.23 0,-43.14 35.09,-78.23 78.23,-78.23 28,0 53.41,14.77 67.35,38.39l-24.98 0 0 14.49 50.71 0 0 -50.71 -14.49 0z"/>
  </g>
 </g>
</svg>
