<?xml version="1.0" encoding="UTF-8"?>
<!DOCTYPE svg PUBLIC "-//W3C//DTD SVG 1.1//EN" "http://www.w3.org/Graphics/SVG/1.1/DTD/svg11.dtd">
<!-- Creator: CorelDRAW 2019 -->
<svg xmlns="http://www.w3.org/2000/svg" xml:space="preserve" width="46.1631mm" height="20.2546mm" version="1.1" style="shape-rendering:geometricPrecision; text-rendering:geometricPrecision; image-rendering:optimizeQuality; fill-rule:evenodd; clip-rule:evenodd"
viewBox="0 0 271.71 119.22"
 xmlns:xlink="http://www.w3.org/1999/xlink"
 xmlns:xodm="http://www.corel.com/coreldraw/odm/2003">
 <defs>
  <style type="text/css">
   <![CDATA[
    .fil0 {fill:url(#id0);fill-rule:nonzero}
   ]]>
  </style>
  <linearGradient id="id0" gradientUnits="userSpaceOnUse" x1="5.1" y1="44.65" x2="260.8" y2="73.67">
   <stop offset="0" style="stop-opacity:1; stop-color:#00D9FF"/>
   <stop offset="1" style="stop-opacity:1; stop-color:#5A69F7"/>
  </linearGradient>
 </defs>
 <g id="Слой_x0020_1">
  <metadata id="CorelCorpID_0Corel-Layer"/>
  <path class="fil0" d="M261.5 34.44c-0.12,-0.13 -0.21,-0.25 -0.35,-0.38l-5.77 -5.57c4.78,-1.08 9.94,-5.11 9.94,-9.21 0,-4.81 -6.65,-6.51 -12.34,-6.51 -5.93,0 -6.62,4.07 -6.7,6.95l-9.48 -10.38c-4.3,-4.71 -9.05,-9.35 -16.11,-9.35l-62.77 0c-6.17,0 -10.94,3.69 -14.8,7.91l-10.79 11.81c-0.08,-2.88 -0.77,-6.95 -6.7,-6.95 -5.7,0 -12.35,1.7 -12.35,6.51 0,4.11 5.15,8.13 9.95,9.21l-5.78 5.57c-0.13,0.13 -0.21,0.25 -0.33,0.38 -6.18,5.29 -10.22,15.08 -10.22,22.19l0 21.12c0,5.12 2.02,9.77 5.29,13.23l0 8.2c0,4.8 4.01,8.69 8.93,8.69l10.82 0c4.93,0 8.93,-3.89 8.93,-8.69l0 -2.1 96.85 0 0 2.1c0,4.8 4.01,8.69 8.93,8.69l10.8 0c4.94,0 8.95,-3.89 8.95,-8.69l0 -8.2c3.27,-3.46 5.29,-8.11 5.29,-13.23l0 -21.12c0,-7.11 -4.04,-16.9 -10.21,-22.19zm-217.46 8.79c0,8.04 16,12.26 31.81,12.26 9.91,0 19.9,-1.66 25.97,-4.87 0.91,-3.67 2.56,-7.5 4.76,-10.81 -8.35,-12.56 -62.54,-11.42 -62.54,3.43zm56.98 13.19c-6.46,2.57 -15.23,3.97 -25.17,3.97 -11.61,0 -21.64,-1.91 -28.23,-5.36 -0.76,-0.4 -1.67,-0.37 -2.4,0.07 -0.73,0.44 -1.18,1.24 -1.18,2.1l0 0.74c0,8.04 16,12.26 31.81,12.26 9.49,0 19.05,-1.52 25.17,-4.47l0 -9.1 0 -0.2zm-86.34 35.83c0,8.04 16,12.26 31.81,12.26 15.81,0 31.81,-4.21 31.81,-12.26 0,-16.09 -63.61,-16.09 -63.61,0zm60.03 11.8c-6.59,3.46 -16.61,5.36 -28.23,5.36 -11.61,0 -21.64,-1.91 -28.23,-5.36 -0.76,-0.4 -1.67,-0.36 -2.4,0.07 -0.73,0.44 -1.18,1.24 -1.18,2.1l0 0.74c0,8.04 16,12.26 31.81,12.26 15.81,0 31.81,-4.21 31.81,-12.26l0 -0.74c0,-0.86 -0.45,-1.65 -1.18,-2.1 -0.73,-0.44 -1.64,-0.47 -2.4,-0.07zm-42.91 -68.17c3.3,0 6.61,-0.19 9.82,-0.56 0.52,-0.06 1.01,-0.29 1.4,-0.65 3.71,-3.5 10.04,-6.07 18.31,-7.45 0.87,-0.15 1.6,-0.75 1.9,-1.59 0.25,-0.71 0.37,-1.36 0.37,-2 0,-16.09 -63.62,-16.09 -63.62,0 0,8.04 16,12.26 31.81,12.26zm0 14.71c2.03,0 4,-0.07 5.92,-0.2 0.77,-0.05 1.47,-0.46 1.89,-1.12 0.42,-0.65 0.51,-1.46 0.24,-2.19 -0.48,-1.28 -0.71,-2.54 -0.7,-3.99 0,-0.67 -0.27,-1.31 -0.76,-1.77 -0.48,-0.46 -1.16,-0.74 -1.8,-0.67 -1.6,0.08 -3.2,0.13 -4.79,0.13 -11.61,0 -21.64,-1.91 -28.23,-5.36 -0.76,-0.4 -1.67,-0.37 -2.4,0.07 -0.73,0.44 -1.18,1.24 -1.18,2.1l0 0.74c0,8.04 16,12.26 31.81,12.26zm0 14.71c2.03,0 4,-0.07 5.92,-0.2 0.77,-0.05 1.47,-0.46 1.89,-1.12 0.42,-0.65 0.51,-1.46 0.24,-2.19 -0.48,-1.28 -0.71,-2.54 -0.71,-3.99 0,-0.67 -0.27,-1.31 -0.76,-1.77 -0.48,-0.46 -1.15,-0.73 -1.8,-0.68 -1.59,0.08 -3.19,0.13 -4.78,0.13 -11.61,0 -21.64,-1.91 -28.23,-5.36 -0.76,-0.4 -1.67,-0.37 -2.4,0.07 -0.73,0.44 -1.18,1.24 -1.18,2.1l0 0.74c0,8.04 16,12.25 31.81,12.25zm70.72 19.9c-4.46,2.01 -10.35,3.43 -17.18,4.12 -1.29,0.13 -2.21,1.64 -2.15,2.94 0,1.24 -0.2,2.43 -0.61,3.62 -0.27,0.79 -0.12,1.67 0.4,2.33 0.47,0.59 1.17,0.92 1.91,0.92 0.09,0 0.17,-0 0.26,-0.01 10.79,-1.17 18.26,-4.02 21.16,-7.92l0 -0.22c-1.58,-1.68 -2.87,-3.63 -3.78,-5.79zm-56.04 -10.1l1.62 0.03c0.01,0 0.03,0 0.04,0 1.14,0 2.13,-0.79 2.39,-1.91 0.26,-1.13 -0.32,-2.29 -1.37,-2.77l-0.52 -0.23c-0.35,-0.15 -0.7,-0.31 -1.03,-0.48 -0.76,-0.4 -1.67,-0.36 -2.4,0.08 -0.73,0.44 -1.18,1.24 -1.18,2.09l0 0.74c0,1.35 1.09,2.45 2.45,2.45zm54.53 -3.97c-6.46,2.57 -15.23,3.97 -25.17,3.97l-1.62 -0.03c-0.99,-0.08 -2.17,0.78 -2.42,1.92 -0.25,1.13 0.32,2.29 1.37,2.76 2.65,1.21 4.82,2.64 6.43,4.26 0.46,0.46 1.08,0.72 1.73,0.72 0.05,0 0.1,-0 0.16,-0 6.91,-0.44 14.48,-1.81 19.69,-4.35 -0.12,-0.86 -0.18,-1.73 -0.18,-2.62l0 -6.62zm-80.56 8.11c0.31,0 0.61,-0.06 0.9,-0.17 4.31,-1.71 9.57,-2.88 15.63,-3.49 1.29,-0.13 2.21,-1.76 2.16,-3.06 0,-0.67 -0.27,-1.31 -0.76,-1.77 -0.48,-0.46 -1.15,-0.71 -1.8,-0.68 -1.59,0.08 -3.19,0.13 -4.78,0.13 -11.61,0 -21.64,-1.91 -28.23,-5.36 -0.76,-0.4 -1.67,-0.37 -2.4,0.07 -0.73,0.44 -1.18,1.24 -1.18,2.1l0 0.74c0,5.42 7.52,9.71 20.12,11.47 0.11,0.02 0.23,0.02 0.34,0.02zm134.52 -70.57l68.66 0c2.05,0 7.34,5.47 8.83,7.17l13.01 14.84 -112.32 0 14.21 -16.21c1.35,-1.54 5.78,-5.79 7.62,-5.79zm-41.37 44.75c0,-5.2 4.07,-9.42 9.1,-9.42 5.03,0 21.43,9.64 21.43,14.84 0,5.19 -16.4,3.99 -21.43,3.99 -5.03,0 -9.1,-4.2 -9.1,-9.41zm27.28 34.39l-3.47 0 -10.28 0.02c-2.84,-0.89 -4.86,-1.92 -6.27,-3.04 -0.72,-0.56 -1.28,-1.13 -1.71,-1.72 -0.44,-0.58 -0.76,-1.16 -0.95,-1.74 -1.28,-3.61 1.36,-6.93 1.36,-6.93l17.52 0 11.69 13.42 -7.9 0zm73.64 0.02l-50.44 0c-5.25,0 -9.53,-4.27 -9.53,-9.53l69.49 0c0,5.26 -4.27,9.53 -9.52,9.53zm2.22 -16.03l-54.87 0c-5.71,0 -10.36,-7.05 -10.36,-15.74l75.58 0c0,8.69 -4.63,15.74 -10.35,15.74zm43.67 9.52c-0.2,0.58 -0.53,1.16 -0.95,1.74 -0.43,0.59 -0.98,1.17 -1.71,1.74 -1.41,1.1 -3.43,2.15 -6.27,3.04l-10.29 -0.02 -11.38 0 11.7 -13.43 17.54 0c0,0 2.64,3.32 1.36,6.93zm-4.5 -18.49c-5.02,0 -21.43,1.2 -21.43,-3.99 0,-5.2 16.4,-14.84 21.43,-14.84 5.03,0 9.1,4.22 9.1,9.42 0,5.21 -4.07,9.41 -9.1,9.41z"/>
 </g>
</svg>
