<?xml version="1.0" encoding="UTF-8"?>
<!DOCTYPE svg PUBLIC "-//W3C//DTD SVG 1.1//EN" "http://www.w3.org/Graphics/SVG/1.1/DTD/svg11.dtd">
<!-- Creator: CorelDRAW 2019 -->
<svg xmlns="http://www.w3.org/2000/svg" xml:space="preserve" width="36.1556mm" height="27.3668mm" version="1.1" style="shape-rendering:geometricPrecision; text-rendering:geometricPrecision; image-rendering:optimizeQuality; fill-rule:evenodd; clip-rule:evenodd"
viewBox="0 0 164.9 124.82"
 xmlns:xlink="http://www.w3.org/1999/xlink"
 xmlns:xodm="http://www.corel.com/coreldraw/odm/2003">
 <defs>
  <style type="text/css">
   <![CDATA[
    .fil0 {fill:url(#id0);fill-rule:nonzero}
   ]]>
  </style>
  <linearGradient id="id0" gradientUnits="userSpaceOnUse" x1="2.43" y1="56.79" x2="158.94" y2="67.09">
   <stop offset="0" style="stop-opacity:1; stop-color:#00D9FF"/>
   <stop offset="1" style="stop-opacity:1; stop-color:#5A69F7"/>
  </linearGradient>
 </defs>
 <g id="Слой_x0020_1">
  <metadata id="CorelCorpID_0Corel-Layer"/>
  <path class="fil0" d="M56.46 33.42c0.66,-1.44 1.39,-2.83 2.1,-4 10.67,-17.54 33.93,-23.21 51.47,-12.55 8.18,4.97 13.84,12.93 16.34,21.5l-4.57 1.16c-1.02,0.25 -1.83,1.03 -2.13,2.06 -0.21,1.01 0.09,2.07 0.85,2.8 0.43,0.4 13.46,15.47 12.55,14.64 1.05,1.24 3.84,1.02 4.65,-1.13 0.2,-0.55 7.56,-20.73 7.14,-19.57 0.34,-1 0.15,-2.12 -0.58,-2.9 -0.68,-0.75 -1.76,-1.07 -2.79,-0.82l-3.83 0.89c-3.2,-11.41 -10.8,-21.8 -21.67,-28.41 -22.98,-13.97 -53.26,-6.59 -67.23,16.39l-0.06 0.1c-0.84,1.38 -1.43,2.49 -1.85,3.35 -0.56,1.14 -0.3,2.51 0.63,3.37l4.42 4.07c1.44,1.32 3.75,0.85 4.55,-0.92zm61.08 88.29l4.45 3.1 33.96 -45.35 -4.38 -3.3 -34.03 45.55zm-8.96 -33.42c0,7.21 5.59,12.06 13.27,12.06 7.68,0 13.27,-4.85 13.27,-12.06 0,-7.28 -5.59,-11.99 -13.27,-11.99 -7.68,0 -13.27,4.72 -13.27,11.99zm7.28 0c0,-3.5 2.63,-5.73 6,-5.73 3.44,0 6.06,2.22 6.06,5.73 0,3.57 -2.56,5.79 -6.06,5.79 -3.3,0 -6,-2.22 -6,-5.79zm22.5 24.39c0,7.21 5.59,12.06 13.27,12.06 7.68,0 13.27,-4.85 13.27,-12.06 0,-7.28 -5.59,-11.99 -13.27,-11.99 -7.68,0 -13.27,4.72 -13.27,11.99zm7.28 0c0,-3.5 2.63,-5.73 6,-5.73 3.44,0 6.06,2.22 6.06,5.73 0,3.57 -2.56,5.79 -6.06,5.79 -3.3,0 -6,-2.22 -6,-5.79zm-130.66 6.95l7.43 5.18 56.75 -75.78 -7.32 -5.52 -56.86 76.11zm-14.98 -55.85c0,12.05 9.35,20.15 22.18,20.15 12.84,0 22.18,-8.11 22.18,-20.15 0,-12.16 -9.35,-20.04 -22.18,-20.04 -12.84,0 -22.18,7.88 -22.18,20.04zm12.16 0c0,-5.85 4.39,-9.57 10.02,-9.57 5.74,0 10.13,3.72 10.13,9.57 0,5.97 -4.28,9.68 -10.13,9.68 -5.52,0 -10.02,-3.72 -10.02,-9.68zm37.61 40.76c0,12.05 9.35,20.15 22.18,20.15 12.84,0 22.18,-8.11 22.18,-20.15 0,-12.16 -9.35,-20.04 -22.18,-20.04 -12.84,0 -22.18,7.88 -22.18,20.04zm12.16 0c0,-5.85 4.39,-9.57 10.02,-9.57 5.74,0 10.13,3.72 10.13,9.57 0,5.97 -4.28,9.68 -10.13,9.68 -5.52,0 -10.02,-3.72 -10.02,-9.68z"/>
 </g>
</svg>
