<?xml version="1.0" encoding="UTF-8"?>
<!DOCTYPE svg PUBLIC "-//W3C//DTD SVG 1.1//EN" "http://www.w3.org/Graphics/SVG/1.1/DTD/svg11.dtd">
<!-- Creator: CorelDRAW 2019 -->
<svg xmlns="http://www.w3.org/2000/svg" xml:space="preserve" width="60.172mm" height="42.533mm" version="1.1" style="shape-rendering:geometricPrecision; text-rendering:geometricPrecision; image-rendering:optimizeQuality; fill-rule:evenodd; clip-rule:evenodd"
viewBox="0 0 470.67 332.7"
 xmlns:xlink="http://www.w3.org/1999/xlink"
 xmlns:xodm="http://www.corel.com/coreldraw/odm/2003">
 <defs>
  <style type="text/css">
   <![CDATA[
    .str0 {stroke:white;stroke-width:5.52;stroke-miterlimit:22.9256}
    .str1 {stroke:#E6E6E6;stroke-width:1.56;stroke-miterlimit:22.9256}
    .fil5 {fill:none}
    .fil0 {fill:white}
    .fil1 {fill:#34DAEA;fill-rule:nonzero}
    .fil4 {fill:#5A69F7;fill-rule:nonzero}
    .fil2 {fill:url(#id1);fill-rule:nonzero}
    .fil6 {fill:url(#id2);fill-rule:nonzero}
    .fil3 {fill:url(#id3);fill-rule:nonzero}
   ]]>
  </style>
    <clipPath id="id0">
     <path d="M25.45 331.92l419.77 0c13.57,0 24.67,-11.1 24.67,-24.67l0 -281.79c0,-13.57 -11.1,-24.67 -24.67,-24.67l-419.77 0c-13.57,0 -24.67,11.1 -24.67,24.67l0 281.79c0,13.57 11.1,24.67 24.67,24.67z"/>
    </clipPath>
  <linearGradient id="id1" gradientUnits="userSpaceOnUse" x1="639.61" y1="-78.01" x2="906.61" y2="175.91">
   <stop offset="0" style="stop-opacity:1; stop-color:#905EF2"/>
   <stop offset="1" style="stop-opacity:1; stop-color:#4859F7"/>
  </linearGradient>
  <linearGradient id="id2" gradientUnits="userSpaceOnUse" x1="65.62" y1="154.02" x2="405.44" y2="192.58">
   <stop offset="0" style="stop-opacity:1; stop-color:#00D9FF"/>
   <stop offset="1" style="stop-opacity:1; stop-color:#5A69F7"/>
  </linearGradient>
  <linearGradient id="id3" gradientUnits="userSpaceOnUse" x1="-107.12" y1="567.97" x2="359.72" y2="431.34">
   <stop offset="0" style="stop-opacity:1; stop-color:#00D9FF"/>
   <stop offset="0.419608" style="stop-opacity:1; stop-color:#1B75FD"/>
   <stop offset="1" style="stop-opacity:1; stop-color:#B357EF"/>
  </linearGradient>
 </defs>
 <g id="Слой_x0020_1">
  <metadata id="CorelCorpID_0Corel-Layer"/>
  <g id="_837435360">
   <path class="fil0" d="M25.45 331.92l419.77 0c13.57,0 24.67,-11.1 24.67,-24.67l0 -281.79c0,-13.57 -11.1,-24.67 -24.67,-24.67l-419.77 0c-13.57,0 -24.67,11.1 -24.67,24.67l0 281.79c0,13.57 11.1,24.67 24.67,24.67z"/>
   <g style="clip-path:url(#id0)">
    <g>
     <path id="1" class="fil1" d="M462.49 827.79c-1.63,31.12 121.97,-191.05 132.62,-214.32 41.03,-89.65 114.45,-360.63 109.94,-423.26l-195.71 126.83c-233.23,145.94 -37.58,334.27 -46.86,510.74z"/>
     <path class="fil2" d="M999.65 101.25l-447.08 2.51c-6.61,0.04 -12,-5.29 -12.04,-11.91l-0.45 -79.98c-0.01,-1.6 0.76,-3.12 2.09,-4 27.5,-18.26 64.57,-21.54 97.62,-14.82 39.96,8.12 76.22,28.32 113.5,44.85 37.28,16.52 78.21,29.72 118.36,22.6 37.89,-6.71 70.09,-30.52 104.27,-48.2 9.12,-4.72 18.83,-8.98 28.79,-12.36 3.1,-1.05 6.34,1.22 6.36,4.5l0.48 84.77c0.04,6.61 -5.29,12.01 -11.91,12.04z"/>
     <path class="fil3" d="M257.33 417.94l-273.46 0c-40.93,0 -74.12,33.18 -74.12,74.12 0,40.93 33.18,74.12 74.12,74.12l273.46 0c40.93,0 74.12,-33.19 74.12,-74.12 0,-40.93 -33.19,-74.12 -74.12,-74.12z"/>
     <path class="fil4 str0" d="M-2759.62 -899.54c-127.22,-79.3 1089.45,45.15 1210.54,67.24 466.59,85.11 1483.4,250.65 1717.99,440.94l-785.1 713.77c-1217.96,517.89 -1421.84,-772.48 -2143.43,-1221.96z"/>
    </g>
   </g>
   <path class="fil5 str1" d="M25.45 331.92l419.77 0c13.57,0 24.67,-11.1 24.67,-24.67l0 -281.79c0,-13.57 -11.1,-24.67 -24.67,-24.67l-419.77 0c-13.57,0 -24.67,11.1 -24.67,24.67l0 281.79c0,13.57 11.1,24.67 24.67,24.67z"/>
   <path class="fil6" d="M406.37 140.44c-0.15,-0.17 -0.28,-0.33 -0.46,-0.5l-7.66 -7.4c6.35,-1.44 13.21,-6.79 13.21,-12.25 0,-6.39 -8.84,-8.65 -16.39,-8.65 -7.88,0 -8.8,5.42 -8.91,9.24l-12.6 -13.79c-5.71,-6.25 -12.02,-12.42 -21.41,-12.42l-83.42 0c-8.21,0 -14.54,4.9 -19.67,10.52l-14.34 15.7c-0.11,-3.82 -1.03,-9.24 -8.91,-9.24 -7.57,0 -16.41,2.25 -16.41,8.65 0,5.46 6.85,10.81 13.22,12.25l-7.68 7.4c-0.17,0.17 -0.28,0.33 -0.43,0.5 -8.21,7.03 -13.58,20.04 -13.58,29.48l0 28.07c0,6.81 2.68,12.98 7.03,17.59l0 10.89c0,6.37 5.32,11.55 11.87,11.55l14.38 0c6.55,0 11.87,-5.17 11.87,-11.55l0 -2.79 128.71 0 0 2.79c0,6.37 5.32,11.55 11.87,11.55l14.36 0c6.57,0 11.9,-5.17 11.9,-11.55l0 -10.89c4.35,-4.6 7.03,-10.78 7.03,-17.59l0 -28.07c0,-9.45 -5.37,-22.45 -13.57,-29.48zm-288.99 11.69c0,10.69 21.27,16.29 42.27,16.29 13.17,0 26.44,-2.2 34.51,-6.48 1.21,-4.87 3.4,-9.97 6.33,-14.37 -11.1,-16.69 -83.11,-15.18 -83.11,4.56zm75.73 17.53c-8.58,3.42 -20.24,5.27 -33.45,5.27 -15.43,0 -28.75,-2.53 -37.51,-7.13 -1.01,-0.53 -2.22,-0.49 -3.19,0.1 -0.98,0.59 -1.57,1.65 -1.57,2.79l0 0.98c0,10.69 21.27,16.29 42.27,16.29 12.61,0 25.31,-2.02 33.45,-5.94l0 -12.09 0 -0.27zm-114.74 47.62c0,10.69 21.27,16.29 42.27,16.29 21.01,0 42.27,-5.6 42.27,-16.29 0,-21.38 -84.54,-21.38 -84.54,0zm79.78 15.68c-8.76,4.59 -22.08,7.13 -37.51,7.13 -15.43,0 -28.75,-2.53 -37.51,-7.13 -1.01,-0.53 -2.22,-0.48 -3.19,0.1 -0.97,0.59 -1.57,1.65 -1.57,2.79l0 0.98c0,10.69 21.27,16.29 42.27,16.29 21.01,0 42.27,-5.6 42.27,-16.29l0 -0.98c0,-1.14 -0.59,-2.2 -1.57,-2.79 -0.97,-0.58 -2.18,-0.63 -3.19,-0.1zm-57.02 -90.59c4.39,0 8.78,-0.25 13.05,-0.74 0.7,-0.08 1.35,-0.38 1.86,-0.86 4.92,-4.64 13.34,-8.07 24.33,-9.91 1.16,-0.19 2.13,-1 2.53,-2.12 0.34,-0.94 0.5,-1.81 0.5,-2.66 0,-21.38 -84.54,-21.38 -84.54,0 0,10.69 21.27,16.29 42.27,16.29zm0 19.54c2.69,0 5.32,-0.09 7.86,-0.26 1.03,-0.07 1.96,-0.62 2.51,-1.48 0.56,-0.86 0.67,-1.94 0.32,-2.9 -0.63,-1.7 -0.94,-3.38 -0.92,-5.3 0,-0.89 -0.37,-1.74 -1.01,-2.36 -0.64,-0.61 -1.55,-0.99 -2.4,-0.9 -2.12,0.1 -4.25,0.17 -6.36,0.17 -15.43,0 -28.75,-2.53 -37.51,-7.13 -1.01,-0.53 -2.22,-0.49 -3.19,0.1 -0.97,0.59 -1.57,1.65 -1.57,2.79l0 0.98c0,10.69 21.27,16.29 42.27,16.29zm0 19.54c2.69,0 5.32,-0.09 7.86,-0.26 1.03,-0.07 1.96,-0.62 2.51,-1.48 0.56,-0.86 0.67,-1.94 0.32,-2.9 -0.63,-1.7 -0.94,-3.38 -0.94,-5.3 0,-0.89 -0.36,-1.74 -1.01,-2.36 -0.64,-0.61 -1.53,-0.96 -2.4,-0.9 -2.12,0.1 -4.24,0.17 -6.35,0.17 -15.43,0 -28.75,-2.53 -37.51,-7.13 -1.01,-0.53 -2.22,-0.49 -3.19,0.1 -0.97,0.59 -1.57,1.65 -1.57,2.79l0 0.98c0,10.69 21.27,16.29 42.27,16.29zm93.98 26.45c-5.93,2.68 -13.76,4.56 -22.83,5.48 -1.71,0.18 -2.94,2.18 -2.86,3.9 0,1.65 -0.27,3.23 -0.81,4.82 -0.36,1.05 -0.16,2.22 0.53,3.09 0.62,0.78 1.56,1.23 2.54,1.23 0.11,0 0.23,-0.01 0.35,-0.02 14.34,-1.55 24.26,-5.34 28.12,-10.52l0 -0.29c-2.11,-2.23 -3.82,-4.83 -5.03,-7.69zm-74.47 -13.42l2.16 0.04c0.02,0 0.04,0 0.06,0 1.52,0 2.84,-1.05 3.17,-2.54 0.34,-1.51 -0.42,-3.04 -1.83,-3.68l-0.7 -0.31c-0.46,-0.2 -0.93,-0.41 -1.36,-0.63 -1.01,-0.53 -2.21,-0.48 -3.19,0.1 -0.97,0.59 -1.57,1.64 -1.57,2.78l0 0.98c0,1.8 1.45,3.26 3.25,3.26zm72.47 -5.27c-8.58,3.42 -20.24,5.27 -33.45,5.27l-2.15 -0.04c-1.31,-0.11 -2.88,1.04 -3.21,2.55 -0.34,1.5 0.43,3.04 1.83,3.67 3.52,1.6 6.4,3.51 8.55,5.66 0.61,0.61 1.44,0.95 2.3,0.95 0.07,0 0.14,-0 0.21,-0.01 9.18,-0.58 19.24,-2.41 26.17,-5.79 -0.16,-1.14 -0.24,-2.3 -0.24,-3.48l0 -8.8zm-107.06 10.77c0.41,0 0.81,-0.08 1.2,-0.23 5.73,-2.27 12.71,-3.83 20.77,-4.64 1.72,-0.17 2.94,-2.34 2.87,-4.07 0,-0.89 -0.36,-1.74 -1.01,-2.36 -0.64,-0.61 -1.53,-0.94 -2.4,-0.9 -2.12,0.1 -4.24,0.17 -6.35,0.17 -15.43,0 -28.75,-2.53 -37.51,-7.13 -1.01,-0.53 -2.22,-0.49 -3.19,0.1 -0.97,0.59 -1.57,1.65 -1.57,2.79l0 0.98c0,7.2 10,12.9 26.74,15.24 0.15,0.02 0.3,0.03 0.45,0.03zm178.77 -93.78l91.24 0c2.72,0 9.75,7.27 11.73,9.53l17.28 19.72 -149.26 0 18.89 -21.54c1.79,-2.04 7.69,-7.7 10.12,-7.7zm-54.98 59.47c0,-6.92 5.41,-12.52 12.09,-12.52 6.68,0 28.48,12.81 28.48,19.73 0,6.9 -21.8,5.31 -28.48,5.31 -6.68,0 -12.09,-5.59 -12.09,-12.51zm36.25 45.71l-4.61 0 -13.66 0.02c-3.77,-1.18 -6.46,-2.55 -8.34,-4.04 -0.96,-0.74 -1.7,-1.5 -2.27,-2.29 -0.59,-0.77 -1.01,-1.55 -1.26,-2.31 -1.7,-4.8 1.81,-9.21 1.81,-9.21l23.29 0 15.54 17.83 -10.5 0zm97.87 0.02l-67.03 0c-6.98,0 -12.66,-5.67 -12.66,-12.66l92.34 0c0,6.99 -5.67,12.66 -12.65,12.66zm2.94 -21.3l-72.92 0c-7.59,0 -13.77,-9.37 -13.77,-20.91l100.44 0c0,11.55 -6.16,20.91 -13.75,20.91zm58.04 12.65c-0.27,0.77 -0.7,1.55 -1.27,2.31 -0.57,0.79 -1.31,1.55 -2.27,2.31 -1.88,1.47 -4.56,2.86 -8.33,4.04l-13.67 -0.02 -15.12 0 15.54 -17.85 23.31 0c0,0 3.51,4.41 1.81,9.21zm-5.99 -24.57c-6.68,0 -28.48,1.59 -28.48,-5.31 0,-6.92 21.8,-19.73 28.48,-19.73 6.68,0 12.09,5.61 12.09,12.52 0,6.92 -5.41,12.51 -12.09,12.51z"/>
  </g>
 </g>
</svg>
