<?xml version="1.0" encoding="UTF-8"?>
<!DOCTYPE svg PUBLIC "-//W3C//DTD SVG 1.1//EN" "http://www.w3.org/Graphics/SVG/1.1/DTD/svg11.dtd">
<!-- Creator: CorelDRAW 2019 -->
<svg xmlns="http://www.w3.org/2000/svg" xml:space="preserve" width="60.172mm" height="42.533mm" version="1.1" style="shape-rendering:geometricPrecision; text-rendering:geometricPrecision; image-rendering:optimizeQuality; fill-rule:evenodd; clip-rule:evenodd"
viewBox="0 0 470.67 332.7"
 xmlns:xlink="http://www.w3.org/1999/xlink"
 xmlns:xodm="http://www.corel.com/coreldraw/odm/2003">
 <defs>
  <style type="text/css">
   <![CDATA[
    .str0 {stroke:white;stroke-width:5.52;stroke-miterlimit:22.9256}
    .str1 {stroke:#E6E6E6;stroke-width:1.56;stroke-miterlimit:22.9256}
    .fil5 {fill:none}
    .fil0 {fill:white}
    .fil1 {fill:#34DAEA;fill-rule:nonzero}
    .fil4 {fill:#5A69F7;fill-rule:nonzero}
    .fil2 {fill:url(#id1);fill-rule:nonzero}
    .fil6 {fill:url(#id2);fill-rule:nonzero}
    .fil3 {fill:url(#id3);fill-rule:nonzero}
   ]]>
  </style>
    <clipPath id="id0">
     <path d="M25.45 0.78l419.77 0c13.57,0 24.67,11.1 24.67,24.67l0 281.79c0,13.57 -11.1,24.67 -24.67,24.67l-419.77 0c-13.57,0 -24.67,-11.1 -24.67,-24.67l0 -281.79c0,-13.57 11.1,-24.67 24.67,-24.67z"/>
    </clipPath>
  <linearGradient id="id1" gradientUnits="userSpaceOnUse" x1="138.76" y1="704.73" x2="405.75" y2="450.81">
   <stop offset="0" style="stop-opacity:1; stop-color:#00D9FF"/>
   <stop offset="1" style="stop-opacity:1; stop-color:#5A69F7"/>
  </linearGradient>
  <linearGradient id="id2" gradientUnits="userSpaceOnUse" xlink:href="#id1" x1="96.31" y1="168.33" x2="380.55" y2="189.67">
  </linearGradient>
  <linearGradient id="id3" gradientUnits="userSpaceOnUse" x1="-107.12" y1="-220.09" x2="359.72" y2="-83.46">
   <stop offset="0" style="stop-opacity:1; stop-color:#00D9FF"/>
   <stop offset="0.419608" style="stop-opacity:1; stop-color:#1B75FD"/>
   <stop offset="1" style="stop-opacity:1; stop-color:#B357EF"/>
  </linearGradient>
 </defs>
 <g id="Слой_x0020_1">
  <metadata id="CorelCorpID_0Corel-Layer"/>
  <g id="_881936472">
   <path class="fil0" d="M25.45 0.78l419.77 0c13.57,0 24.67,11.1 24.67,24.67l0 281.79c0,13.57 -11.1,24.67 -24.67,24.67l-419.77 0c-13.57,0 -24.67,-11.1 -24.67,-24.67l0 -281.79c0,-13.57 11.1,-24.67 24.67,-24.67z"/>
   <g style="clip-path:url(#id0)">
    <g>
     <path id="1" class="fil1" d="M462.49 -495.09c-1.63,-31.12 121.97,191.05 132.62,214.32 41.03,89.65 114.45,360.63 109.94,423.26l-195.71 -126.83c-233.23,-145.94 -37.58,-334.27 -46.86,-510.74z"/>
     <path class="fil2" d="M498.79 525.47l-447.08 -2.51c-6.61,-0.04 -12,5.29 -12.04,11.91l-0.45 79.98c-0.01,1.6 0.76,3.12 2.09,4 27.5,18.26 64.57,21.54 97.62,14.82 39.96,-8.12 76.22,-28.32 113.5,-44.85 37.28,-16.52 78.21,-29.72 118.36,-22.6 37.89,6.71 70.09,30.52 104.27,48.2 9.12,4.72 18.83,8.98 28.79,12.36 3.1,1.05 6.34,-1.22 6.36,-4.5l0.48 -84.77c0.04,-6.61 -5.29,-12.01 -11.91,-12.04z"/>
     <path class="fil3" d="M257.33 -85.25l-273.46 0c-40.93,0 -74.12,-33.18 -74.12,-74.12 0,-40.93 33.18,-74.12 74.12,-74.12l273.46 0c40.93,0 74.12,33.19 74.12,74.12 0,40.93 -33.19,74.12 -74.12,74.12z"/>
     <path class="fil4 str0" d="M-2759.62 1232.24c-127.22,79.3 1089.45,-45.15 1210.54,-67.24 466.59,-85.11 1483.4,-250.65 1717.99,-440.94l-785.1 -713.77c-1217.96,-517.89 -1421.84,772.48 -2143.43,1221.96z"/>
    </g>
   </g>
   <path class="fil5 str1" d="M25.45 0.78l419.77 0c13.57,0 24.67,11.1 24.67,24.67l0 281.79c0,13.57 -11.1,24.67 -24.67,24.67l-419.77 0c-13.57,0 -24.67,-11.1 -24.67,-24.67l0 -281.79c0,-13.57 11.1,-24.67 24.67,-24.67z"/>
   <path class="fil6" d="M388.53 156.76l-81.23 -74.02c-3.57,-3.25 -8.94,-3.25 -12.51,0l-81.23 74.02c-2.86,2.6 -3.8,6.61 -2.4,10.22 1.4,3.6 4.79,5.93 8.66,5.93l12.97 0 0 74.16c0,2.94 2.38,5.32 5.32,5.32l44.53 0c2.94,0 5.32,-2.38 5.32,-5.32l0 -45.03 26.17 0 0 45.03c0,2.94 2.38,5.32 5.32,5.32l44.52 0c2.94,0 5.32,-2.38 5.32,-5.32l0 -74.16 12.98 0c3.86,0 7.26,-2.33 8.66,-5.93 1.39,-3.6 0.45,-7.61 -2.41,-10.22zm-237.52 19.52c0,10.89 21.55,16.6 42.83,16.6 11.2,0 22.47,-1.58 30.64,-4.67l0 -11 -13.37 0c-3.98,0 -7.48,-2.41 -8.92,-6.15 -1.44,-3.73 -0.47,-7.89 2.48,-10.58l0.07 -0.06c-24.35,-2.19 -53.73,3.1 -53.73,15.86zm73.47 19.05c-8.29,2.73 -18.86,4.19 -30.64,4.19 -15.64,0 -29.13,-2.58 -38.01,-7.26 -1.02,-0.54 -2.25,-0.5 -3.23,0.1 -0.99,0.6 -1.59,1.68 -1.59,2.84l0 1c0,10.9 21.55,16.6 42.83,16.6 11.2,0 22.47,-1.58 30.64,-4.66l0 -12.8zm-113.01 47.34c0,10.9 21.55,16.6 42.83,16.6 21.28,0 42.83,-5.7 42.83,-16.6 0,-21.79 -85.66,-21.79 -85.66,0zm80.84 15.98c-8.87,4.68 -22.37,7.26 -38.01,7.26 -15.64,0 -29.13,-2.58 -38.01,-7.26 -1.02,-0.54 -2.25,-0.49 -3.23,0.1 -0.99,0.6 -1.59,1.68 -1.59,2.84l0 1c0,10.9 21.55,16.6 42.83,16.6 21.28,0 42.83,-5.7 42.83,-16.6l0 -1c0,-1.16 -0.6,-2.24 -1.59,-2.84 -0.98,-0.59 -2.21,-0.64 -3.23,-0.1zm-57.78 -92.32c4.45,0 8.9,-0.25 13.23,-0.76 0.7,-0.08 1.36,-0.39 1.88,-0.88 4.99,-4.73 13.52,-8.22 24.66,-10.09 1.18,-0.2 2.16,-1.02 2.56,-2.16 0.34,-0.96 0.51,-1.85 0.51,-2.71 0,-21.79 -85.66,-21.79 -85.66,0 0,10.9 21.55,16.6 42.83,16.6zm0 19.92c2.73,0 5.39,-0.09 7.97,-0.27 1.04,-0.07 1.98,-0.63 2.55,-1.51 0.56,-0.88 0.68,-1.98 0.32,-2.96 -0.64,-1.73 -0.95,-3.44 -0.94,-5.4 0,-0.91 -0.37,-1.78 -1.02,-2.4 -0.65,-0.63 -1.57,-1 -2.43,-0.91 -2.15,0.1 -4.31,0.17 -6.45,0.17 -15.64,0 -29.14,-2.58 -38.01,-7.26 -1.02,-0.54 -2.25,-0.5 -3.23,0.1 -0.99,0.6 -1.59,1.68 -1.59,2.84l0 1c0,10.9 21.55,16.6 42.83,16.6zm0 19.92c2.73,0 5.39,-0.09 7.97,-0.27 1.04,-0.07 1.98,-0.63 2.55,-1.51 0.56,-0.88 0.68,-1.98 0.32,-2.96 -0.64,-1.73 -0.95,-3.44 -0.95,-5.4 0,-0.91 -0.37,-1.78 -1.02,-2.4 -0.65,-0.63 -1.55,-0.98 -2.43,-0.91 -2.15,0.1 -4.29,0.18 -6.43,0.18 -15.64,0 -29.14,-2.58 -38.01,-7.26 -1.02,-0.54 -2.25,-0.5 -3.23,0.1 -0.99,0.6 -1.59,1.68 -1.59,2.84l0 1c0,10.89 21.55,16.6 42.83,16.6zm89.95 28.99c-5.11,1.66 -11.15,2.87 -17.85,3.55 -1.74,0.18 -2.98,2.22 -2.9,3.98 0,1.68 -0.27,3.29 -0.82,4.91 -0.37,1.07 -0.16,2.26 0.54,3.15 0.63,0.79 1.58,1.25 2.58,1.25 0.12,0 0.23,-0.01 0.35,-0.02 7.21,-0.78 13.31,-2.13 18.11,-3.93l0 -12.89zm-70.18 -15.71l2.19 0.04c0.02,0 0.04,0 0.06,0 1.54,0 2.87,-1.07 3.21,-2.59 0.34,-1.54 -0.43,-3.1 -1.85,-3.75l-0.7 -0.32c-0.47,-0.21 -0.94,-0.41 -1.38,-0.65 -1.03,-0.54 -2.24,-0.49 -3.23,0.11 -0.98,0.6 -1.59,1.68 -1.59,2.84l0 1c0,1.84 1.47,3.32 3.29,3.32zm70.18 -4.19c-8.29,2.73 -18.86,4.19 -30.64,4.19l-2.18 -0.04c-1.33,-0.11 -2.92,1.06 -3.26,2.6 -0.34,1.53 0.43,3.1 1.85,3.75 3.57,1.63 6.48,3.57 8.66,5.77 0.62,0.62 1.46,0.97 2.33,0.97 0.07,0 0.14,-0 0.21,-0.01 7.85,-0.5 16.35,-1.91 23.02,-4.4l0 -12.82zm148.76 -86.96l0 -32.03c0,-2.94 -2.38,-5.32 -5.32,-5.32l-35.76 0 41.08 37.35zm-253.98 96.76c0.41,0 0.82,-0.08 1.21,-0.23 5.8,-2.31 12.88,-3.9 21.04,-4.73 1.74,-0.18 2.98,-2.39 2.91,-4.14 0,-0.91 -0.37,-1.78 -1.02,-2.4 -0.65,-0.62 -1.55,-0.96 -2.43,-0.91 -2.15,0.1 -4.29,0.18 -6.43,0.18 -15.64,0 -29.14,-2.58 -38.01,-7.26 -1.02,-0.54 -2.25,-0.5 -3.23,0.1 -0.99,0.6 -1.59,1.68 -1.59,2.84l0 1c0,7.34 10.13,13.15 27.1,15.53 0.15,0.02 0.31,0.03 0.46,0.03z"/>
  </g>
 </g>
</svg>
