<?xml version="1.0" encoding="UTF-8"?>
<!DOCTYPE svg PUBLIC "-//W3C//DTD SVG 1.1//EN" "http://www.w3.org/Graphics/SVG/1.1/DTD/svg11.dtd">
<!-- Creator: CorelDRAW 2019 -->
<svg xmlns="http://www.w3.org/2000/svg" xml:space="preserve" width="38.3361mm" height="25.4253mm" version="1.1" style="shape-rendering:geometricPrecision; text-rendering:geometricPrecision; image-rendering:optimizeQuality; fill-rule:evenodd; clip-rule:evenodd"
viewBox="0 0 185.4 122.96"
 xmlns:xlink="http://www.w3.org/1999/xlink"
 xmlns:xodm="http://www.corel.com/coreldraw/odm/2003">
 <defs>
  <style type="text/css">
   <![CDATA[
    .fil0 {fill:url(#id0);fill-rule:nonzero}
   ]]>
  </style>
  <linearGradient id="id0" gradientUnits="userSpaceOnUse" x1="2.85" y1="54.42" x2="178.58" y2="67.62">
   <stop offset="0" style="stop-opacity:1; stop-color:#00D9FF"/>
   <stop offset="1" style="stop-opacity:1; stop-color:#5A69F7"/>
  </linearGradient>
 </defs>
 <g id="Слой_x0020_1">
  <metadata id="CorelCorpID_0Corel-Layer"/>
  <path class="fil0" d="M183.52 47.27l-50.22 -45.76c-2.2,-2.01 -5.53,-2.01 -7.73,0l-50.22 45.76c-1.77,1.61 -2.35,4.09 -1.49,6.32 0.86,2.23 2.96,3.67 5.35,3.67l8.02 0 0 45.85c0,1.82 1.47,3.29 3.29,3.29l27.53 0c1.82,0 3.29,-1.47 3.29,-3.29l0 -27.84 16.18 0 0 27.84c0,1.82 1.47,3.29 3.29,3.29l27.53 0c1.82,0 3.29,-1.47 3.29,-3.29l0 -45.85 8.02 0c2.39,0 4.49,-1.44 5.35,-3.67 0.86,-2.23 0.28,-4.71 -1.49,-6.32zm-146.85 12.07c0,6.74 13.32,10.26 26.48,10.26 6.92,0 13.89,-0.98 18.94,-2.88l0 -6.8 -8.26 0c-2.46,0 -4.62,-1.49 -5.51,-3.8 -0.89,-2.31 -0.29,-4.88 1.53,-6.54l0.04 -0.04c-15.05,-1.35 -33.22,1.91 -33.22,9.81zm45.43 11.78c-5.13,1.68 -11.66,2.59 -18.94,2.59 -9.67,0 -18.01,-1.6 -23.5,-4.49 -0.63,-0.33 -1.39,-0.31 -2,0.06 -0.61,0.37 -0.98,1.04 -0.98,1.76l0 0.62c0,6.74 13.32,10.26 26.48,10.26 6.92,0 13.89,-0.98 18.94,-2.88l0 -7.92zm-69.87 29.27c0,6.74 13.32,10.26 26.48,10.26 13.16,0 26.48,-3.53 26.48,-10.26 0,-13.47 -52.96,-13.47 -52.96,0zm49.98 9.88c-5.49,2.89 -13.83,4.49 -23.5,4.49 -9.67,0 -18.01,-1.6 -23.5,-4.49 -0.63,-0.33 -1.39,-0.3 -2,0.06 -0.61,0.37 -0.98,1.04 -0.98,1.76l0 0.62c0,6.74 13.32,10.26 26.48,10.26 13.16,0 26.48,-3.53 26.48,-10.26l0 -0.62c0,-0.72 -0.37,-1.39 -0.98,-1.76 -0.61,-0.37 -1.37,-0.39 -2,-0.06zm-35.72 -57.08c2.75,0 5.5,-0.16 8.18,-0.47 0.44,-0.05 0.84,-0.24 1.16,-0.54 3.09,-2.93 8.36,-5.09 15.24,-6.24 0.73,-0.12 1.33,-0.63 1.58,-1.33 0.21,-0.59 0.31,-1.14 0.31,-1.68 0,-13.47 -52.96,-13.47 -52.96,0 0,6.74 13.32,10.26 26.48,10.26zm0 12.31c1.69,0 3.33,-0.06 4.93,-0.16 0.64,-0.04 1.22,-0.39 1.58,-0.93 0.35,-0.54 0.42,-1.22 0.2,-1.83 -0.4,-1.07 -0.59,-2.13 -0.58,-3.34 0,-0.56 -0.23,-1.1 -0.63,-1.49 -0.4,-0.39 -0.97,-0.62 -1.5,-0.56 -1.33,0.06 -2.66,0.11 -3.99,0.11 -9.67,0 -18.01,-1.59 -23.5,-4.49 -0.63,-0.33 -1.39,-0.31 -2,0.06 -0.61,0.37 -0.98,1.04 -0.98,1.76l0 0.62c0,6.74 13.32,10.26 26.48,10.26zm0 12.31c1.69,0 3.33,-0.06 4.93,-0.16 0.64,-0.04 1.22,-0.39 1.58,-0.93 0.35,-0.54 0.42,-1.22 0.2,-1.83 -0.4,-1.07 -0.59,-2.13 -0.59,-3.34 0,-0.56 -0.23,-1.1 -0.63,-1.49 -0.4,-0.39 -0.96,-0.61 -1.5,-0.57 -1.33,0.06 -2.65,0.11 -3.98,0.11 -9.67,0 -18.01,-1.6 -23.5,-4.49 -0.63,-0.33 -1.39,-0.31 -2,0.06 -0.61,0.37 -0.98,1.04 -0.98,1.76l0 0.62c0,6.74 13.32,10.26 26.48,10.26zm55.61 17.92c-3.16,1.03 -6.89,1.77 -11.04,2.2 -1.07,0.11 -1.84,1.37 -1.79,2.46 0,1.04 -0.17,2.03 -0.51,3.03 -0.23,0.66 -0.1,1.4 0.33,1.95 0.39,0.49 0.98,0.77 1.59,0.77 0.07,0 0.15,-0 0.22,-0.01 4.46,-0.48 8.23,-1.32 11.2,-2.43l0 -7.97zm-43.39 -9.71l1.35 0.02c0.01,0 0.02,0 0.04,0 0.95,0 1.78,-0.66 1.99,-1.6 0.21,-0.95 -0.27,-1.92 -1.14,-2.32l-0.44 -0.2c-0.29,-0.13 -0.58,-0.26 -0.85,-0.4 -0.63,-0.33 -1.39,-0.3 -2,0.07 -0.61,0.37 -0.98,1.04 -0.98,1.75l0 0.62c0,1.13 0.91,2.05 2.04,2.05zm43.39 -2.59c-5.13,1.68 -11.66,2.59 -18.94,2.59l-1.34 -0.03c-0.82,-0.07 -1.8,0.66 -2.01,1.61 -0.21,0.95 0.27,1.91 1.14,2.32 2.21,1.01 4.01,2.21 5.36,3.57 0.38,0.38 0.9,0.6 1.44,0.6 0.04,0 0.09,-0 0.13,-0 4.86,-0.31 10.11,-1.18 14.23,-2.72l0 -7.93zm91.97 -53.76l0 -19.8c0,-1.82 -1.47,-3.29 -3.29,-3.29l-22.11 0 25.4 23.1zm-157.03 59.82c0.25,0 0.51,-0.05 0.75,-0.14 3.59,-1.43 7.97,-2.41 13.01,-2.92 1.07,-0.11 1.84,-1.48 1.8,-2.56 0,-0.56 -0.23,-1.1 -0.63,-1.49 -0.4,-0.39 -0.96,-0.59 -1.5,-0.56 -1.33,0.06 -2.65,0.11 -3.98,0.11 -9.67,0 -18.01,-1.6 -23.5,-4.49 -0.63,-0.33 -1.39,-0.31 -2,0.06 -0.61,0.37 -0.98,1.04 -0.98,1.76l0 0.62c0,4.54 6.26,8.13 16.75,9.6 0.09,0.01 0.19,0.02 0.28,0.02z"/>
 </g>
</svg>
