<?xml version="1.0" encoding="UTF-8"?>
<!DOCTYPE svg PUBLIC "-//W3C//DTD SVG 1.1//EN" "http://www.w3.org/Graphics/SVG/1.1/DTD/svg11.dtd">
<!-- Creator: CorelDRAW 2019 -->
<svg xmlns="http://www.w3.org/2000/svg" xml:space="preserve" width="31mm" height="29.4558mm" version="1.1" style="shape-rendering:geometricPrecision; text-rendering:geometricPrecision; image-rendering:optimizeQuality; fill-rule:evenodd; clip-rule:evenodd"
viewBox="0 0 120.21 114.22"
 xmlns:xlink="http://www.w3.org/1999/xlink"
 xmlns:xodm="http://www.corel.com/coreldraw/odm/2003">
 <defs>
  <style type="text/css">
   <![CDATA[
    .fil0 {fill:url(#id0);fill-rule:nonzero}
   ]]>
  </style>
  <linearGradient id="id0" gradientUnits="userSpaceOnUse" x1="1.68" y1="53.69" x2="115.96" y2="59.68">
   <stop offset="0" style="stop-opacity:1; stop-color:#00D9FF"/>
   <stop offset="1" style="stop-opacity:1; stop-color:#5A69F7"/>
  </linearGradient>
 </defs>
 <g id="Слой_x0020_1">
  <metadata id="CorelCorpID_0Corel-Layer"/>
  <path class="fil0" d="M112.74 74.1l0 19.6 -3.03 3.03c-0.39,-0.07 -0.75,-0.23 -1.16,-0.23 -3.35,0 -6.06,2.71 -6.06,6.06 0,0.41 0.16,0.75 0.23,1.14l-3.05 3.05 -61.57 0 -3.03 -3.03c0.07,-0.39 0.23,-0.75 0.23,-1.16 0,-3.35 -2.71,-6.06 -6.06,-6.06 -0.41,0 -0.75,0.16 -1.14,0.23l-3.05 -3.05 0 -19.6 3.03 -3.03c0.39,0.07 0.75,0.23 1.16,0.23 3.35,0 6.06,-2.71 6.06,-6.06 0,-0.41 -0.16,-0.75 -0.23,-1.14l3.04 -3.05 61.56 0 3.04 3.05c-0.07,0.39 -0.23,0.73 -0.23,1.14 0,3.35 2.71,6.06 6.06,6.06 0.41,0 0.75,-0.16 1.14,-0.23l3.05 3.05zm-60.81 -36.82c-4.07,2.21 -6.99,5.58 -8.63,9.29l33.74 0c-0.27,-1.41 -0.69,-2.8 -1.39,-4.12 -4.23,-7.72 -14.85,-10.02 -23.71,-5.17zm-41.34 16.28c0,-3.85 3.14,-6.99 6.99,-6.99l3.83 0 0.19 -0.59 54 -29.57 4.12 1.21c0.12,0.37 0.16,0.75 0.37,1.12 1.59,2.94 5.28,4 8.22,2.39 0.34,-0.18 0.59,-0.48 0.89,-0.75l4.13 1.21 9.41 17.19 -1.21 4.12c-0.37,0.12 -0.76,0.16 -1.12,0.34 -1.36,0.75 -2.27,1.98 -2.75,3.32l17.88 0 -12.07 -22.02 -13.44 -24.55 -24.55 13.46 -40.9 22.39 -24.55 13.44 10.59 19.36 0 -15.08zm81.63 -16.87c0,3.32 -2.71,6.04 -6.06,6.04 -3.34,0 -6.03,-2.71 -6.03,-6.04 0,-3.35 2.69,-6.06 6.03,-6.06 3.35,0 6.06,2.71 6.06,6.06zm-47.6 47.22c0,3.32 -2.69,6.04 -6.03,6.04 -3.35,0 -6.06,-2.71 -6.06,-6.04 0,-3.35 2.71,-6.06 6.06,-6.06 3.34,0 6.03,2.71 6.03,6.06zm42.59 0c0,8.79 -8.2,15.92 -18.31,15.92 -10.11,0 -18.31,-7.13 -18.31,-15.92 0,-8.82 8.2,-15.94 18.31,-15.94 10.11,0 18.31,7.13 18.31,15.94zm18.06 0c0,3.32 -2.71,6.04 -6.06,6.04 -3.35,0 -6.06,-2.71 -6.06,-6.04 0,-3.35 2.71,-6.06 6.06,-6.06 3.35,0 6.06,2.71 6.06,6.06zm14.95 -30.34l-27.99 0 -46.64 0 -27.99 0 0 27.99 0 4.67 0 27.99 27.99 0 46.64 0 27.99 0 0 -27.99 0 -4.67 0 -27.99z"/>
 </g>
</svg>
