<?xml version="1.0" encoding="UTF-8"?>
<!DOCTYPE svg PUBLIC "-//W3C//DTD SVG 1.1//EN" "http://www.w3.org/Graphics/SVG/1.1/DTD/svg11.dtd">
<!-- Creator: CorelDRAW 2019 -->
<svg xmlns="http://www.w3.org/2000/svg" xml:space="preserve" width="60.172mm" height="42.533mm" version="1.1" style="shape-rendering:geometricPrecision; text-rendering:geometricPrecision; image-rendering:optimizeQuality; fill-rule:evenodd; clip-rule:evenodd"
viewBox="0 0 470.06 332.27"
 xmlns:xlink="http://www.w3.org/1999/xlink"
 xmlns:xodm="http://www.corel.com/coreldraw/odm/2003">
 <defs>
  <style type="text/css">
   <![CDATA[
    .str0 {stroke:white;stroke-width:5.51;stroke-miterlimit:22.9256}
    .str1 {stroke:#E6E6E6;stroke-width:1.56;stroke-miterlimit:22.9256}
    .fil5 {fill:none}
    .fil0 {fill:white}
    .fil1 {fill:#34DAEA;fill-rule:nonzero}
    .fil4 {fill:#5A69F7;fill-rule:nonzero}
    .fil2 {fill:url(#id1);fill-rule:nonzero}
    .fil6 {fill:url(#id2);fill-rule:nonzero}
    .fil3 {fill:url(#id3);fill-rule:nonzero}
   ]]>
  </style>
    <clipPath id="id0">
     <path d="M25.42 0.78l419.22 0c13.55,0 24.64,11.09 24.64,24.64l0 281.43c0,13.55 -11.09,24.64 -24.64,24.64l-419.22 0c-13.55,0 -24.64,-11.09 -24.64,-24.64l0 -281.43c0,-13.55 11.09,-24.64 24.64,-24.64z"/>
    </clipPath>
  <linearGradient id="id1" gradientUnits="userSpaceOnUse" x1="584.22" y1="261.36" x2="850.87" y2="7.77">
   <stop offset="0" style="stop-opacity:1; stop-color:#00D9FF"/>
   <stop offset="1" style="stop-opacity:1; stop-color:#5A69F7"/>
  </linearGradient>
  <linearGradient id="id2" gradientUnits="userSpaceOnUse" xlink:href="#id1" x1="91.96" y1="151.91" x2="360.03" y2="169.55">
  </linearGradient>
  <linearGradient id="id3" gradientUnits="userSpaceOnUse" x1="-106.98" y1="-219.81" x2="359.25" y2="-83.35">
   <stop offset="0" style="stop-opacity:1; stop-color:#00D9FF"/>
   <stop offset="0.419608" style="stop-opacity:1; stop-color:#1B75FD"/>
   <stop offset="1" style="stop-opacity:1; stop-color:#B357EF"/>
  </linearGradient>
 </defs>
 <g id="Слой_x0020_1">
  <metadata id="CorelCorpID_0Corel-Layer"/>
  <g id="_546721632">
   <path class="fil0" d="M25.42 0.78l419.22 0c13.55,0 24.64,11.09 24.64,24.64l0 281.43c0,13.55 -11.09,24.64 -24.64,24.64l-419.22 0c-13.55,0 -24.64,-11.09 -24.64,-24.64l0 -281.43c0,-13.55 11.09,-24.64 24.64,-24.64z"/>
   <g style="clip-path:url(#id0)">
    <g>
     <path id="1" class="fil1" d="M461.89 -494.45c-1.62,-31.08 121.82,190.8 132.45,214.04 40.98,89.53 114.31,360.16 109.8,422.71l-195.45 -126.66c-232.93,-145.75 -37.53,-333.83 -46.8,-510.08z"/>
     <path class="fil2" d="M943.79 82.33l-446.5 -2.51c-6.6,-0.04 -11.99,5.29 -12.03,11.89l-0.45 79.88c-0.01,1.59 0.76,3.11 2.09,3.99 27.46,18.24 64.49,21.51 97.49,14.8 39.91,-8.11 76.12,-28.29 113.36,-44.79 37.23,-16.5 78.11,-29.68 118.21,-22.57 37.84,6.71 70,30.48 104.14,48.14 9.11,4.71 18.8,8.97 28.76,12.35 3.1,1.05 6.33,-1.22 6.35,-4.49l0.48 -84.66c0.04,-6.61 -5.29,-11.99 -11.89,-12.03z"/>
     <path class="fil3" d="M257 -85.14l-273.11 0c-40.88,0 -74.02,-33.14 -74.02,-74.02 0,-40.88 33.14,-74.02 74.02,-74.02l273.11 0c40.88,0 74.02,33.14 74.02,74.02 0,40.88 -33.14,74.02 -74.02,74.02z"/>
     <path class="fil4 str0" d="M-2756.03 1230.64c-127.05,79.19 1088.04,-45.09 1208.97,-67.15 465.99,-85 1481.48,-250.33 1715.75,-440.37l-784.08 -712.85c-1216.38,-517.22 -1420,771.48 -2140.65,1220.37z"/>
    </g>
   </g>
   <path class="fil5 str1" d="M25.42 0.78l419.22 0c13.55,0 24.64,11.09 24.64,24.64l0 281.43c0,13.55 -11.09,24.64 -24.64,24.64l-419.22 0c-13.55,0 -24.64,-11.09 -24.64,-24.64l0 -281.43c0,-13.55 11.09,-24.64 24.64,-24.64z"/>
   <path class="fil6" d="M184.49 111.89c1.12,-2.47 2.37,-4.85 3.6,-6.86 18.27,-30.04 58.12,-39.76 88.17,-21.49 14.01,8.52 23.7,22.15 27.99,36.83l-7.83 1.98c-1.75,0.43 -3.14,1.77 -3.64,3.53 -0.36,1.73 0.15,3.54 1.45,4.79 0.74,0.68 23.05,26.5 21.5,25.07 1.79,2.12 6.57,1.74 7.96,-1.94 0.34,-0.95 12.94,-35.51 12.22,-33.53 0.58,-1.71 0.26,-3.64 -1,-4.97 -1.17,-1.29 -3.02,-1.84 -4.77,-1.41l-6.56 1.53c-5.48,-19.54 -18.49,-37.34 -37.12,-48.66 -39.36,-23.93 -91.22,-11.29 -115.15,28.07l-0.1 0.17c-1.44,2.37 -2.44,4.26 -3.17,5.73 -0.96,1.95 -0.52,4.3 1.09,5.78l7.57 6.96c2.46,2.27 6.42,1.45 7.8,-1.58zm104.62 151.23l7.62 5.31 58.16 -77.67 -7.5 -5.66 -58.28 78.02zm-15.35 -57.24c0,12.35 9.58,20.66 22.74,20.66 13.16,0 22.74,-8.31 22.74,-20.66 0,-12.46 -9.58,-20.54 -22.74,-20.54 -13.16,0 -22.74,8.08 -22.74,20.54zm12.46 0c0,-6 4.5,-9.81 10.27,-9.81 5.89,0 10.39,3.81 10.39,9.81 0,6.12 -4.39,9.93 -10.39,9.93 -5.66,0 -10.27,-3.81 -10.27,-9.93zm38.55 41.78c0,12.35 9.58,20.66 22.74,20.66 13.16,0 22.73,-8.31 22.73,-20.66 0,-12.46 -9.58,-20.54 -22.73,-20.54 -13.16,0 -22.74,8.08 -22.74,20.54zm12.46 0c0,-6 4.5,-9.81 10.27,-9.81 5.89,0 10.39,3.81 10.39,9.81 0,6.12 -4.39,9.93 -10.39,9.93 -5.66,0 -10.27,-3.81 -10.27,-9.93zm-223.79 11.9l12.73 8.87 97.2 -129.79 -12.54 -9.45 -97.39 130.37zm-25.65 -95.66c0,20.64 16.01,34.52 37.99,34.52 21.99,0 37.99,-13.89 37.99,-34.52 0,-20.83 -16.01,-34.33 -37.99,-34.33 -21.99,0 -37.99,13.5 -37.99,34.33zm20.83 0c0,-10.03 7.52,-16.39 17.16,-16.39 9.84,0 17.36,6.37 17.36,16.39 0,10.22 -7.33,16.59 -17.36,16.59 -9.45,0 -17.16,-6.36 -17.16,-16.59zm64.41 69.81c0,20.63 16.01,34.52 37.99,34.52 21.98,0 37.99,-13.89 37.99,-34.52 0,-20.83 -16.01,-34.33 -37.99,-34.33 -21.99,0 -37.99,13.5 -37.99,34.33zm20.83 0c0,-10.03 7.52,-16.39 17.16,-16.39 9.84,0 17.36,6.37 17.36,16.39 0,10.22 -7.33,16.58 -17.36,16.58 -9.45,0 -17.16,-6.36 -17.16,-16.58z"/>
  </g>
 </g>
</svg>
