<?xml version="1.0" encoding="UTF-8"?>
<!DOCTYPE svg PUBLIC "-//W3C//DTD SVG 1.1//EN" "http://www.w3.org/Graphics/SVG/1.1/DTD/svg11.dtd">
<!-- Creator: CorelDRAW 2019 -->
<svg xmlns="http://www.w3.org/2000/svg" xml:space="preserve" width="60.172mm" height="42.533mm" version="1.1" style="shape-rendering:geometricPrecision; text-rendering:geometricPrecision; image-rendering:optimizeQuality; fill-rule:evenodd; clip-rule:evenodd"
viewBox="0 0 470.06 332.27"
 xmlns:xlink="http://www.w3.org/1999/xlink"
 xmlns:xodm="http://www.corel.com/coreldraw/odm/2003">
 <defs>
  <style type="text/css">
   <![CDATA[
    .str0 {stroke:white;stroke-width:5.51;stroke-miterlimit:22.9256}
    .str1 {stroke:#E6E6E6;stroke-width:1.56;stroke-miterlimit:22.9256}
    .fil5 {fill:none}
    .fil0 {fill:white}
    .fil1 {fill:#34DAEA;fill-rule:nonzero}
    .fil4 {fill:#5A69F7;fill-rule:nonzero}
    .fil2 {fill:url(#id1);fill-rule:nonzero}
    .fil6 {fill:url(#id2);fill-rule:nonzero}
    .fil3 {fill:url(#id3);fill-rule:nonzero}
   ]]>
  </style>
    <clipPath id="id0">
     <path d="M25.42 0.78l419.22 0c13.55,0 24.64,11.09 24.64,24.64l0 281.43c0,13.55 -11.09,24.64 -24.64,24.64l-419.22 0c-13.55,0 -24.64,-11.09 -24.64,-24.64l0 -281.43c0,-13.55 11.09,-24.64 24.64,-24.64z"/>
    </clipPath>
  <linearGradient id="id1" gradientUnits="userSpaceOnUse" x1="83.4" y1="649.69" x2="350.05" y2="396.1">
   <stop offset="0" style="stop-opacity:1; stop-color:#00D9FF"/>
   <stop offset="1" style="stop-opacity:1; stop-color:#5A69F7"/>
  </linearGradient>
  <linearGradient id="id2" gradientUnits="userSpaceOnUse" xlink:href="#id1" x1="117.34" y1="159.24" x2="347.55" y2="171.31">
  </linearGradient>
  <linearGradient id="id3" gradientUnits="userSpaceOnUse" x1="-106.98" y1="-219.81" x2="359.25" y2="-83.35">
   <stop offset="0" style="stop-opacity:1; stop-color:#00D9FF"/>
   <stop offset="0.419608" style="stop-opacity:1; stop-color:#1B75FD"/>
   <stop offset="1" style="stop-opacity:1; stop-color:#B357EF"/>
  </linearGradient>
 </defs>
 <g id="Слой_x0020_1">
  <metadata id="CorelCorpID_0Corel-Layer"/>
  <g id="_936861080">
   <path class="fil0" d="M25.42 0.78l419.22 0c13.55,0 24.64,11.09 24.64,24.64l0 281.43c0,13.55 -11.09,24.64 -24.64,24.64l-419.22 0c-13.55,0 -24.64,-11.09 -24.64,-24.64l0 -281.43c0,-13.55 11.09,-24.64 24.64,-24.64z"/>
   <g style="clip-path:url(#id0)">
    <g>
     <path id="1" class="fil1" d="M461.89 -494.45c-1.62,-31.08 121.82,190.8 132.45,214.04 40.98,89.53 114.31,360.16 109.8,422.71l-195.45 -126.66c-232.93,-145.75 -37.53,-333.83 -46.8,-510.08z"/>
     <path class="fil2" d="M442.97 470.66l-446.5 -2.51c-6.6,-0.04 -11.99,5.29 -12.03,11.89l-0.45 79.88c-0.01,1.59 0.76,3.11 2.09,3.99 27.46,18.24 64.49,21.51 97.49,14.8 39.91,-8.11 76.12,-28.29 113.36,-44.79 37.23,-16.5 78.11,-29.68 118.21,-22.57 37.84,6.71 70,30.48 104.14,48.14 9.11,4.71 18.8,8.97 28.76,12.35 3.1,1.05 6.33,-1.22 6.35,-4.49l0.48 -84.66c0.04,-6.61 -5.29,-11.99 -11.89,-12.03z"/>
     <path class="fil3" d="M257 -85.14l-273.11 0c-40.88,0 -74.02,-33.14 -74.02,-74.02 0,-40.88 33.14,-74.02 74.02,-74.02l273.11 0c40.88,0 74.02,33.14 74.02,74.02 0,40.88 -33.14,74.02 -74.02,74.02z"/>
     <path class="fil4 str0" d="M-2756.03 1230.64c-127.05,79.19 1088.04,-45.09 1208.97,-67.15 465.99,-85 1481.48,-250.33 1715.75,-440.37l-784.08 -712.85c-1216.38,-517.22 -1420,771.48 -2140.65,1220.37z"/>
    </g>
   </g>
   <path class="fil5 str1" d="M25.42 0.78l419.22 0c13.55,0 24.64,11.09 24.64,24.64l0 281.43c0,13.55 -11.09,24.64 -24.64,24.64l-419.22 0c-13.55,0 -24.64,-11.09 -24.64,-24.64l0 -281.43c0,-13.55 11.09,-24.64 24.64,-24.64z"/>
   <path class="fil6" d="M341.06 200.36l0 39.48 -6.11 6.11c-0.78,-0.14 -1.51,-0.46 -2.33,-0.46 -6.75,0 -12.21,5.46 -12.21,12.2 0,0.82 0.32,1.52 0.46,2.29l-6.14 6.15 -124.03 0 -6.11 -6.11c0.14,-0.78 0.46,-1.51 0.46,-2.34 0,-6.74 -5.46,-12.2 -12.2,-12.2 -0.82,0 -1.51,0.32 -2.29,0.46l-6.15 -6.14 0 -39.48 6.11 -6.11c0.78,0.14 1.51,0.47 2.34,0.47 6.75,0 12.2,-5.46 12.2,-12.21 0,-0.82 -0.32,-1.51 -0.46,-2.29l6.13 -6.14 124.02 0 6.13 6.14c-0.14,0.78 -0.46,1.47 -0.46,2.29 0,6.75 5.46,12.21 12.21,12.21 0.82,0 1.51,-0.33 2.29,-0.47l6.15 6.14zm-122.51 -74.18c-8.21,4.45 -14.08,11.25 -17.39,18.72l67.96 0c-0.55,-2.84 -1.39,-5.63 -2.81,-8.3 -8.53,-15.56 -29.92,-20.19 -47.76,-10.42zm-83.28 32.81c0,-7.75 6.33,-14.09 14.08,-14.09l7.71 0 0.38 -1.18 108.78 -59.57 8.3 2.43c0.23,0.74 0.33,1.51 0.74,2.26 3.21,5.92 10.64,8.06 16.56,4.81 0.69,-0.36 1.2,-0.96 1.79,-1.52l8.31 2.43 18.95 34.64 -2.43 8.3c-0.74,0.23 -1.52,0.33 -2.26,0.69 -2.75,1.51 -4.58,4 -5.54,6.69l36.01 0 -24.31 -44.36 -27.08 -49.46 -49.46 27.12 -82.4 45.1 -49.46 27.08 21.33 39 0 -30.38zm164.45 -34c0,6.7 -5.46,12.16 -12.21,12.16 -6.74,0 -12.15,-5.46 -12.15,-12.16 0,-6.74 5.41,-12.21 12.15,-12.21 6.75,0 12.21,5.47 12.21,12.21zm-95.9 95.12c0,6.7 -5.41,12.16 -12.15,12.16 -6.75,0 -12.21,-5.46 -12.21,-12.16 0,-6.75 5.46,-12.2 12.21,-12.2 6.74,0 12.15,5.45 12.15,12.2zm85.81 0c0,17.7 -16.53,32.07 -36.9,32.07 -20.37,0 -36.9,-14.36 -36.9,-32.07 0,-17.76 16.53,-32.12 36.9,-32.12 20.37,0 36.9,14.36 36.9,32.12zm36.38 0c0,6.7 -5.46,12.16 -12.21,12.16 -6.74,0 -12.2,-5.46 -12.2,-12.16 0,-6.75 5.46,-12.2 12.2,-12.2 6.75,0 12.21,5.45 12.21,12.2zm30.11 -61.12l-56.4 0 -93.97 0 -56.4 0 0 56.39 0 9.41 0 56.4 56.4 0 93.97 0 56.4 0 0 -56.4 0 -9.41 0 -56.39z"/>
  </g>
 </g>
</svg>
