<?xml version="1.0" encoding="UTF-8"?>
<!DOCTYPE svg PUBLIC "-//W3C//DTD SVG 1.1//EN" "http://www.w3.org/Graphics/SVG/1.1/DTD/svg11.dtd">
<!-- Creator: CorelDRAW 2020 (64-Bit) -->
<svg xmlns="http://www.w3.org/2000/svg" xml:space="preserve" width="800px" height="339px" version="1.1" style="shape-rendering:geometricPrecision; text-rendering:geometricPrecision; image-rendering:optimizeQuality; fill-rule:evenodd; clip-rule:evenodd"
viewBox="0 0 53.29 22.56"
 xmlns:xlink="http://www.w3.org/1999/xlink"
 xmlns:xodm="http://www.corel.com/coreldraw/odm/2003">
 <defs>
  <style type="text/css">
   <![CDATA[
    .fil19 {fill:white}
    .fil12 {fill:#FEFEFE;fill-rule:nonzero}
    .fil5 {fill:#F6FBFE;fill-rule:nonzero}
    .fil10 {fill:#23232C;fill-rule:nonzero}
    .fil9 {fill:#282A40;fill-rule:nonzero}
    .fil3 {fill:#28CAAF;fill-rule:nonzero}
    .fil14 {fill:#334BAE;fill-rule:nonzero}
    .fil13 {fill:#425DC9;fill-rule:nonzero}
    .fil4 {fill:#44B194;fill-rule:nonzero}
    .fil18 {fill:#5273F7;fill-rule:nonzero}
    .fil17 {fill:#829AF9;fill-rule:nonzero}
    .fil22 {fill:#C343CF;fill-rule:nonzero}
    .fil6 {fill:#C4DEEF;fill-rule:nonzero}
    .fil21 {fill:#D4DCF7;fill-rule:nonzero}
    .fil0 {fill:#E4EEFF;fill-rule:nonzero}
    .fil11 {fill:#E9AFA3;fill-rule:nonzero}
    .fil8 {fill:#F4A19D;fill-rule:nonzero}
    .fil7 {fill:#F4B5B0;fill-rule:nonzero}
    .fil2 {fill:#FFB2A4;fill-rule:nonzero}
    .fil1 {fill:#FFC6BA;fill-rule:nonzero}
    .fil20 {fill:white;fill-rule:nonzero}
    .fil16 {fill:url(#id0);fill-rule:nonzero}
    .fil15 {fill:url(#id1);fill-rule:nonzero}
   ]]>
  </style>
  <linearGradient id="id0" gradientUnits="userSpaceOnUse" x1="48.05" y1="3.44" x2="51.08" y2="-5.45">
   <stop offset="0" style="stop-opacity:1; stop-color:#9AA6D7"/>
   <stop offset="1" style="stop-opacity:1; stop-color:#925FF2"/>
  </linearGradient>
  <linearGradient id="id1" gradientUnits="userSpaceOnUse" xlink:href="#id0" x1="3.09" y1="25.31" x2="5.85" y2="17.21">
  </linearGradient>
 </defs>
 <g id="Слой_x0020_1">
  <metadata id="CorelCorpID_0Corel-Layer"/>
  <path class="fil0" d="M53.29 19.62l0 2.88 -26.73 0c-4.69,0 -10.91,-3.69 -10.61,-8.95 0.45,-7.66 8.69,-11.87 15.68,-12.09 10.88,-0.35 21.66,6.67 21.66,18.16z"/>
  <path class="fil1" d="M27.95 4.93c0,1.49 -0.89,2.7 -1.98,2.7 -1.1,0 -1.99,-1.21 -1.99,-2.7 0,-1.49 0.89,-2.7 1.99,-2.7 1.09,0 1.98,1.21 1.98,2.7z"/>
  <path class="fil2" d="M26.82 3.7c-0.86,0 -1.95,-0.5 -1.93,-0.56 0.04,-0.16 0.99,-0.33 1.78,-0.33 0.2,0 0.39,0.01 0.56,0.03l0 0 0 0.01 0 0c0.01,0.01 0.02,0.02 0.04,0.04l0 0 0 0 0 0c0.01,0.01 0.02,0.03 0.03,0.04l0 0 0 0c0.01,0.02 0.03,0.03 0.04,0.05l0 0c0.02,0.03 0.04,0.06 0.06,0.09l0.01 0c0.03,0.04 0.06,0.09 0.09,0.14l0 0 0 0.01c0.01,0.01 0.02,0.03 0.03,0.04l0 0 0 0zm0.03 0.05l0 0c0.01,0.02 0.02,0.04 0.03,0.05l0 0.01 0 0 0 0c0.01,0.02 0.02,0.05 0.03,0.07 -0.18,0.19 -0.48,0.26 -0.8,0.26z"/>
  <path class="fil1" d="M24.41 6.16c0.04,0.09 0.26,1.21 0,2.34l-0.43 2.85 1.47 2.12 1.51 1.29 0.6 -2.59 -0.12 -3.98c0,0 -0.31,-1.42 -0.05,-2.37 0.26,-0.95 -2.98,0.34 -2.98,0.34z"/>
  <path class="fil2" d="M26.02 8.25c-0.64,0 -1.22,-0.46 -1.49,-0.71l0 -0.06 0 -0.01 0 0 0 -0.03 0 0 0 -0.01 0 0 0 0 0 0 0 -0.01 0 0 0 0 0 -0.01 0 0 0 0 0 -0.01 0 0 0 0 0 -0.01 0 0 0 0 0 -0.01 0 0 0 0 0 0 0 -0.01 0 0 0.01 0 0 -0.01 0 0 0 0 0 -0.01 0 0 0 0 0 -0.01 0 0 0 0 0 -0.01 0 -0.01 0 0 0 0 0 0 0 0 0 0 0 0 0 0 0 0 0 0 0 0 0 0 0 0 0 0 0 0 0 0 0 0 0 0 0 0 0 0 0 0 0 0 0 0 0 0 0 0 0 0 0 0 0 0 0 -0.01 0 0 0 0 0 0 0 0 0 0 0 0 0 0 0 0 0 0 0 0 0 0 0 0 0 0 0 -0.01c0.41,0.31 1,0.65 1.43,0.68 0.01,0 0.02,0 0.04,0 0.38,0 0.9,-0.31 1.31,-0.62l0 0 0 0 0 0 0 0 0 0 0 0 0 0 0 0 0 0 0 0 0 0.01 0 0 0 0 0 0 0 0 0 0 0 0 0 0 0 0 0 0 0 0 0 0 0 0.01 0 0 0 0 0 0 0 0 0 0.01 0 0 0 0 0 0 0 0 0 0 0 0 0 0 0 0 0 0 0 0 0 0 0 0 0 0 0 0.01 0 0 0 0 0 0 0 0 0 0 0 0c-0.41,0.63 -0.87,0.85 -1.3,0.85z"/>
  <path class="fil3" d="M21.64 15.22c0,0 1.04,3.24 1.21,5.01 0.07,0.66 0.16,1.51 0.24,2.33l6.61 0c0.52,-2.34 1.25,-5.93 1.02,-7.04 -0.35,-1.69 -1.69,-5.75 -1.69,-5.75l-0.6 -0.91 -0.95 -0.21 -1.51 2.01c0,0 -0.89,-1.64 -1.47,-2.03l-0.52 -0.11 -2.34 4.8 0 1.9z"/>
  <path class="fil4" d="M25.97 11.26c-0.19,-0.79 -0.92,-1.66 -1.33,-2.1l-0.03 -0.44 0.01 0.01 0.02 0.01c0.01,0.01 0.02,0.02 0.03,0.03l0.02 0.02 0 0 0.02 0.02 0.01 0.01 0.02 0.02 0.01 0.01 0.02 0.03 0.01 0 0.02 0.03 0.01 0.01 0.01 0.01 0.02 0.02 0.02 0.02 0.01 0.01 0.02 0.03 0.01 0.01 0.02 0.02 0.01 0.02 0.02 0.02 0.01 0.02 0.01 0.02 0.02 0.02 0.02 0.02 0 0.01 0.03 0.02 0 0.01 0.02 0.03 0.01 0 0.02 0.04 0 0 0.03 0.04 0.01 0 0.02 0.04 0.01 0.01 0.02 0.03 0.02 0.03 0.01 0.01 0.01 0.01 0.02 0.03 0 0.01 0.02 0.03 0.01 0.01 0.02 0.03 0.01 0.01 0.01 0.03 0.02 0.01 0.02 0.03 0 0.01 0.01 0.02 0.01 0.02 0.02 0.02 0.01 0.02 0.02 0.03 0.01 0.01 0.02 0.03 0 0.01 0.03 0.03 0.02 0.05 0 0 0.03 0.04 0 0 0.02 0.04 0.01 0 0.02 0.03 0 0.01 0.02 0.03 0.01 0.01 0.01 0.03 0.01 0.01 0.02 0.04 0 0 0.02 0.02 0.01 0.02 0.01 0.02 0.01 0.01 0.01 0.02 0.01 0.02 0.01 0.02 0.01 0.02 0.01 0.01 0.01 0.02 0.01 0.01 0.01 0.02 0.01 0.01 0.01 0.03 0 0 0.02 0.03 0 0 0.01 0.03 0 0 0.02 0.02 0 0 0.01 0.03 0.01 0 0.01 0.02 0 0 0.01 0.02 0 0.01 0.01 0.01 0.01 0.01 0 0.01 0.01 0.01 0 0.01 0.01 0.01 0 0.01 0.01 0 0 0.01 0 0.01 0.01 0 0 0.01 0 0 0.01 0.01 0 0 0 0.01 0 0 0 0 0 0 0 0.01 0.01 0 0 0 1.31 -1.75 0 0.01c-0.05,0.09 -0.09,0.3 -0.14,0.61l-1.17 1.73z"/>
  <path class="fil4" d="M25.03 18.71c0,-2.67 -0.04,-5.24 -0.1,-5.87 -0.07,-0.68 -0.18,-2.14 -0.26,-3.34 0.25,1.27 0.7,3.99 0.74,7.26l-0.38 1.95z"/>
  <path class="fil4" d="M26.72 16.07c0.11,-2.76 0.25,-5.35 0.42,-6.54l0.15 -0.21c0.02,1.01 0.1,2.23 0.15,3.13 0.02,0.49 -0.01,1.82 -0.06,3.46l-0.66 0.16z"/>
  <path class="fil4" d="M27.14 9.53c0.05,-0.31 0.09,-0.52 0.14,-0.61 0,0.12 0,0.26 0.01,0.4l-0.15 0.21z"/>
  <path class="fil5" d="M23.98 8.52c0,0 0.43,-0.87 0.56,-0.87 0,0 0.26,3.94 0.39,5.19 0.1,0.95 0.12,6.22 0.07,9.72l-2.37 0c-0.25,-2.61 -0.6,-6.08 -0.73,-6.51 -0.18,-0.56 -0.82,-2.04 -0.69,-2.6 0.13,-0.57 2.08,-3.81 2.08,-3.81l0.69 -1.12z"/>
  <path class="fil5" d="M22.83 19.68c-0.35,-0.18 -0.69,-0.4 -0.97,-0.66 0,0 -0.13,-2.51 0.22,-3.63 0.34,-1.12 1.9,-6.87 1.9,-6.87 0,0 -3.2,2.16 -3.55,2.89 -0.34,0.74 -1.55,6.1 -1.34,7.44 0.22,1.34 0.69,1.99 1.56,2.33 0.26,0.11 0.93,0.24 1.7,0.36 -0.07,-0.39 -0.11,-1.17 0.48,-1.86z"/>
  <path class="fil6" d="M22.19 21.52c-0.07,-0.02 -0.15,-0.03 -0.22,-0.04l-0.01 0 -0.02 -0.01 -0.04 0 0 0 -0.02 -0.01 -0.01 0 0 0 -0.02 0c-0.06,-0.01 -0.12,-0.02 -0.18,-0.03l-0.01 -0.01 -0.01 0 -0.01 0 -0.01 0 -0.01 0c-0.12,-0.03 -0.24,-0.05 -0.35,-0.07 -0.25,-1.28 0.7,-2.21 0.71,-2.22l0 0 0 0 0.01 0.01 0 0 0.01 0 0 0 0.01 0.01 0 0 0 0 0.01 0.01 0 0 0 0 0.01 0.01 0 0 0.01 0.01 0 0 0.01 0 0 0.01 0 0 0.01 0 0 0 0.01 0.01 0 0 0 0 0.01 0.01 0 0 0 0 0.01 0.01 0.01 0 0 0 0 0.01 0.01 0 0 0 0 0.01 0.01 0 0 0 0.01 0 0 0.01 0.01 0 0 0 0 0.01 0.01 0 0 0.01 0 0 0.01 0 0.01 0 0 0.01 0 0 0.01 0 0 0.01 0 0 0.01 0 0.01 0.01 0 0 0 0 0.01 0 0 0.01 0 0 0.01 0 0.01 0.01 0 0 0 0 0.01 0.01 0 0 0.02 0.01 0 0 0.01 0.01 0 0 0.01 0 0.01 0.01 0 0 0 0 0.01 0.01 0 0 0.01 0.01 0.01 0 0.01 0.01 0 0 0.01 0.01 0.01 0 0 0 0 0c0.12,0.2 0.16,0.48 0.15,0.79l0 0 0 0.01 0 0 0 0 -0.01 0.01 0 0 0 0 0 0 -0.01 0.03 0 0c-0.01,0.02 -0.02,0.04 -0.03,0.06l0 0 0 0c-0.01,0.04 -0.02,0.07 -0.03,0.1l0 0 -0.01 0.04 0 0c-0.01,0.02 -0.01,0.04 -0.02,0.06l0 0c-0.01,0.02 -0.01,0.04 -0.02,0.06l0 0c0,0.03 -0.01,0.05 -0.01,0.07l0 0c-0.01,0.02 -0.01,0.04 -0.01,0.06l0 0 -0.01 0.03 0 0 0 0 0 0.03 0 0 -0.01 0.03 0 0.01c-0.01,0.1 -0.02,0.21 -0.02,0.3l0 0c0,0.04 0,0.08 0,0.12 -0.03,0.11 -0.07,0.21 -0.12,0.31z"/>
  <path class="fil7" d="M25.25 21.79c-0.02,0 -0.02,-1.39 -0.02,-1.39 0,0 -1.27,-0.15 -2.4,-0.72 -0.59,0.69 -0.55,1.47 -0.48,1.86 1.78,0.29 4.05,0.52 2.9,0.25z"/>
  <path class="fil8" d="M24.41 21.82l-0.02 0 -0.01 0 0 0 0 0 -0.01 0 0 0 0 0 -0.01 0 -0.01 0 0 0 0 0 0 0 -0.01 0 0 0 -0.01 0 0 0 0 -0.01 -0.01 0 0 0 -0.01 0 0 0 0 0 -0.01 0 0 0 0 0 -0.01 0 0 0 -0.01 0 0 0 0 0 0 0 -0.01 0 0 0 -0.01 0 0 0 0 0 -0.01 0 -0.01 0 0 -0.01 0 0 -0.01 0 0 0 -0.01 0 0 0 0 0 -0.01 0 0 0 -0.01 0 0 0 0 0 -0.01 0 0 0 -0.03 0c0.06,-0.21 0.07,-0.47 -0.1,-0.77 -0.2,-0.37 -0.21,-0.7 -0.18,-0.93l0.01 0 0.01 0 0.01 0.01 0.02 0 0.01 0.01 0 0 0.01 0 0.03 0.01 0.01 0 0.04 0.01 0.01 0.01 0 0 0.01 0 0.03 0.01 0.01 0 0.01 0 0.01 0.01 0.01 0 0.02 0 0 0 0.01 0.01 0.02 0 0.01 0.01 0 0 0.01 0 0.02 0 0.01 0.01 0.01 0 0 0 0.02 0 0.01 0.01 0.01 0 0.01 0 0.01 0 0.01 0.01 0.01 0 0.01 0 0.01 0 0.01 0.01 0.01 0 0.02 0 0 0 0.01 0.01 0.01 0 0.01 0 0.01 0.01 0.01 0 0.01 0 0.01 0 0.01 0.01 0.01 0 0.01 0 0.01 0 0.01 0.01 0.01 0 0 0 0.02 0 0.01 0 0.01 0.01 0 0 0.01 0 0.03 0 0 0.01 0.01 0 0.01 0 0.01 0 0.01 0 0 0 0.01 0.01 0.01 0 0.02 0 0 0 0.01 0 0.01 0.01 0.01 0 0.01 0 0 0 0.01 0 -0.3 1.51z"/>
  <path class="fil5" d="M27.35 7.55c0,0 0.78,0.62 1.08,1.31l1.64 1.41c0,0 1.35,3.57 1.17,4.19 -0.18,0.63 -0.84,3.85 -0.72,3.94 0.11,0.1 -0.06,1.36 -0.06,1.36l-0.47 2.8 -2.86 0c0.14,-3.46 0.36,-9 0.31,-10.11 -0.09,-1.64 -0.26,-4.34 -0.09,-4.9z"/>
  <path class="fil6" d="M29.54 19.58c-0.04,0 -0.09,-0.02 -0.15,-0.06l0.26 -1c0.16,-0.19 0.26,-0.37 0.13,-0.5l0 0 0.18 -0.69c0.09,-0.1 0.19,-0.22 0.28,-0.36 0.35,-0.52 0.22,-2.51 0.22,-2.51 0.1,0.4 0.11,1.05 0.08,1.7 -0.11,0.56 -0.21,1.24 -0.17,1.74 0.01,0.04 0.01,0.08 0.01,0.13 0,0 0,0 0,0 -0.08,0.71 -0.42,0.91 -0.42,0.91 -0.02,0.07 -0.04,0.14 -0.07,0.2 -0.19,0.2 -0.37,0.31 -0.37,0.31 0.06,0.01 0.12,0.03 0.17,0.06 -0.04,0.04 -0.09,0.07 -0.15,0.07z"/>
  <path class="fil1" d="M23.59 5.23c0.05,0.3 0.25,0.51 0.44,0.47 0.18,-0.03 0.29,-0.3 0.24,-0.59 -0.06,-0.3 -0.25,-0.51 -0.44,-0.47 -0.19,0.03 -0.3,0.3 -0.24,0.59z"/>
  <path class="fil1" d="M28.3 5.23c-0.05,0.3 -0.25,0.51 -0.44,0.47 -0.19,-0.03 -0.29,-0.3 -0.24,-0.59 0.06,-0.3 0.25,-0.51 0.44,-0.47 0.19,0.03 0.29,0.3 0.24,0.59z"/>
  <path class="fil6" d="M24.73 16.36c0,0 -0.51,-3.28 -1.64,-4.32l0.52 -0.86 -0.27 -0.3c0.01,-0.05 0.02,-0.11 0.04,-0.16l0.45 0.41 -0.39 0.91c0,0 1.21,2.21 1.29,4.32z"/>
  <path class="fil6" d="M23.34 10.88l-0.25 -0.27 0.76 -1.88 -0.59 1.88 0.12 0.11c-0.02,0.05 -0.03,0.11 -0.04,0.16z"/>
  <path class="fil5" d="M22.5 21.68c0,0 -0.69,-0.83 0.42,-2.05 0,0 -0.08,-0.27 -0.29,-0.24 -0.22,0.04 -0.56,-0.28 -0.74,-0.08 -0.18,0.21 -0.8,0.97 -0.29,2.25 0,0 0.14,0.19 0.29,0.16 0.16,-0.03 0.64,0.08 0.61,-0.04z"/>
  <path class="fil9" d="M24.28 5.17c0,0 0.37,0.88 0.75,0.76 0.37,-0.11 1.02,-0.24 1.8,0.02 0.78,0.26 0.99,-1.04 0.99,-1.04 0,0 0.09,1.6 0.09,1.81 0,0.22 -1.25,1.3 -1.94,1.26 -0.7,-0.05 -1.83,-0.92 -1.91,-1.13 -0.13,-0.34 0,-1.68 0,-1.68l0.22 0z"/>
  <path class="fil9" d="M24.28 5.17c0,0 -0.17,-1.3 0.09,-1.47 0.26,-0.17 0.43,-0.52 0.64,-0.48 0.22,0.05 1.65,0.51 2.34,0.18 1.08,-0.52 0.52,-2.34 -0.69,-1.65 -0.57,0.33 -2.47,-0.26 -2.38,0.48 0,0 -0.95,0.35 -0.69,1.25 0.26,0.91 0.56,1.99 0.56,1.99l0.13 -0.3z"/>
  <path class="fil9" d="M27 3.09c0,0 0.39,0.26 0.56,0.65 0.18,0.39 0.28,1.43 0.28,1.43l0.2 -0.52c0,0 0.69,-1.95 -0.52,-1.95 -1.21,0 -0.52,0.39 -0.52,0.39z"/>
  <path class="fil10" d="M25.32 4.63c0,0.11 -0.04,0.19 -0.09,0.19 -0.05,0 -0.09,-0.08 -0.09,-0.19 0,-0.11 0.04,-0.2 0.09,-0.2 0.05,0 0.09,0.09 0.09,0.2z"/>
  <path class="fil10" d="M26.83 4.63c0,0.11 -0.04,0.19 -0.09,0.19 -0.04,0 -0.08,-0.08 -0.08,-0.19 0,-0.11 0.04,-0.2 0.08,-0.2 0.05,0 0.09,0.09 0.09,0.2z"/>
  <path class="fil9" d="M24.91 4.26c0.14,-0.12 0.34,-0.15 0.51,-0.07 0.07,0.04 0.14,-0.07 0.07,-0.11 -0.23,-0.11 -0.48,-0.07 -0.67,0.09 -0.07,0.05 0.03,0.14 0.09,0.09z"/>
  <path class="fil9" d="M26.49 4.19c0.17,-0.11 0.37,-0.11 0.53,0 0.07,0.04 0.14,-0.07 0.07,-0.11 -0.21,-0.13 -0.46,-0.13 -0.66,0 -0.07,0.04 -0.01,0.15 0.06,0.11z"/>
  <path class="fil11" d="M25.86 5.61c-0.04,0 -0.05,-0.05 -0.01,-0.06 0.08,-0.02 0.24,-0.03 0.32,-0.07 0,-0.01 0,-0.02 -0.01,-0.04 -0.02,-0.06 -0.02,-0.13 -0.03,-0.18 -0.03,-0.25 -0.07,-0.49 -0.11,-0.73 0,-0.03 0.02,-0.04 0.04,-0.04 0.01,0 0.02,0.01 0.02,0.02 0.05,0.33 0.1,0.65 0.15,0.97 0.01,0.02 0,0.04 -0.02,0.04 -0.11,0.03 -0.23,0.06 -0.34,0.09 -0.01,0 -0.01,0 -0.01,0z"/>
  <path class="fil12" d="M25.45 6.34c0,0 0.52,0.17 0.78,0.13 0.25,-0.05 0.08,0.51 -0.35,0.43 -0.43,-0.09 -0.82,-0.48 -0.43,-0.56z"/>
  <path class="fil6" d="M27.56 15.87c0.25,-1.91 1.24,-3.7 1.24,-3.7l-0.39 -0.91 0.56 -0.52 -0.58 -1.88 0.75 1.88 -0.52 0.57 0.52 0.86c-0.81,0.75 -1.3,2.67 -1.52,3.68l-0.06 0.02z"/>
  <path class="fil5" d="M29.42 9.79c0,0 -0.56,-0.39 -0.99,-0.93 0,0 2.33,1.3 2.94,2.21 0.6,0.91 1.04,4.19 1.12,5.88 0.09,1.68 0.14,3.63 -1.81,4.25 0,0 -0.07,-1.46 -1.16,-1.75 0,0 0.94,-0.56 0.85,-1.55 -0.08,-1 0.39,-2.7 0.39,-2.7l-1.34 -5.06 0 -0.35z"/>
  <path class="fil6" d="M30.77 21.17l0 0c-0.03,-0.02 -0.06,-0.04 -0.1,-0.07l0 -0.01 0 0 0 0 0 -0.01 0 -0.01 0 0 0 -0.01 -0.01 -0.03 0 -0.01 0 0 0 -0.02 0 -0.01 -0.01 -0.02 0 0 0 -0.02 0 -0.01 0 -0.01 -0.01 -0.01 0 0 0 -0.01 0 -0.02 0 0 0 -0.01 -0.01 -0.01 0 -0.01 0 -0.01 0 -0.02 0 0 0 -0.01 0 0 -0.01 -0.02 0 -0.01 0 0 -0.01 -0.03 0 0 0 -0.01 -0.01 -0.02 0 0 0 -0.01 -0.01 -0.03 0 0 -0.01 -0.03 0 0 0 -0.01 0 -0.02 -0.01 -0.01 0 0 -0.01 -0.03 0 0 0 -0.01 -0.01 -0.03 0 0 0 0 -0.01 -0.04 0 0 -0.01 -0.03 -0.01 -0.01 0 0 -0.01 -0.03 0 -0.01 -0.01 -0.03 -0.01 -0.01 -0.01 -0.03 0 0 0 0 0 0 -0.01 -0.03 -0.01 -0.01 0 0c0,-0.01 -0.01,-0.02 -0.01,-0.03l0 -0.01 -0.02 -0.03 0 0c-0.01,-0.02 -0.01,-0.03 -0.02,-0.04l0 0 -0.02 -0.04 0 0 0 0c-0.01,-0.01 -0.02,-0.02 -0.02,-0.04l0 0c-0.01,-0.01 -0.02,-0.02 -0.02,-0.03l0 -0.01c-0.01,-0.01 -0.02,-0.02 -0.03,-0.03l0 0 0 0c-0.01,-0.03 -0.03,-0.05 -0.05,-0.07l0 0 0 0 0 0c-0.01,-0.03 -0.03,-0.05 -0.05,-0.07l0 -0.01c-0.03,-0.03 -0.06,-0.06 -0.09,-0.1l0 0c-0.02,-0.02 -0.04,-0.04 -0.06,-0.06l0 0c-0.1,-0.09 -0.2,-0.16 -0.32,-0.22 -0.01,-0.09 0,-0.18 0.01,-0.27l0.01 0 0 -0.01c0.02,-0.01 0.03,-0.02 0.04,-0.03l0 0 0 0 0.01 -0.01 0.01 -0.01 0 0 0.02 -0.02 0 0 0.01 0 0.01 -0.02 0.01 0c0.01,-0.01 0.02,-0.03 0.04,-0.04l0 0 0.02 -0.03 0 0c0.04,-0.04 0.08,-0.09 0.12,-0.15l0 0 0 0 0.02 -0.03 0 0 0 0c0.02,-0.02 0.03,-0.03 0.04,-0.05l0 -0.01 0.02 -0.02c0.43,0.07 1.59,0.5 1.63,1.72 -0.01,0 -0.01,0.01 -0.02,0.01l-0.01 0.01c-0.01,0.02 -0.03,0.03 -0.04,0.05l-0.01 0 0 0c-0.01,0.02 -0.03,0.03 -0.05,0.05l0 0c-0.02,0.02 -0.04,0.04 -0.06,0.05l0 0zm-0.06 0.05l0 0c-0.02,0.02 -0.04,0.03 -0.06,0.05l0 0 0 0c-0.03,0.02 -0.05,0.03 -0.07,0.05l0 0c-0.02,0.01 -0.04,0.03 -0.07,0.04l0 0 0 0c-0.05,0.03 -0.09,0.06 -0.14,0.08l0 0c-0.05,0.03 -0.1,0.06 -0.16,0.08l0 0c-0.05,0.03 -0.1,0.05 -0.16,0.07l0 0zm-0.09 0.03l0 0z"/>
  <polygon class="fil13" points="24.27,22.56 25.49,16.36 30.33,15.2 30.46,15.37 28.61,22.56 "/>
  <polygon class="fil14" points="24.27,22.56 25.49,16.36 30.33,15.2 30.43,15.32 25.75,16.49 24.47,22.56 "/>
  <path class="fil7" d="M29.93 19.11c0,0 -0.59,0.82 -2.84,1.6 0,0 -0.17,-0.91 -0.69,-1.13 -0.52,-0.21 -0.69,-0.69 -0.82,-0.56 -0.13,0.13 -0.22,0.48 0.34,1 0,0 0.05,0.12 -0.13,0.08 -0.17,-0.04 -0.99,-0.3 -0.99,-0.34 0,-0.05 0.13,-0.78 0.13,-0.78 0,0 -0.43,0.26 -0.43,0.39 0,0.13 0,0.39 -0.09,0.47 -0.09,0.09 -0.22,0.26 -0.13,0.52 0.09,0.26 -0.09,0.48 -0.04,0.65 0.04,0.17 0.52,1.04 2.59,0.95 0,0 3.37,0.09 4.4,-1.27 0,0 -0.83,-1.32 -1.3,-1.58z"/>
  <path class="fil5" d="M29.45 19.5c0,0 1.08,0.09 1.15,1.74 0,0 0.25,0.14 0.38,-0.04 0.13,-0.17 0.6,-0.19 0.58,-0.46 -0.02,-0.27 -0.12,-1.25 -1.39,-1.8 0,0 -0.23,-0.03 -0.31,0.1 -0.09,0.13 -0.51,0.39 -0.41,0.46z"/>
  <path class="fil15" d="M5.62 20.48l-0.88 -0.88c0.35,0.23 0.65,0.53 0.88,0.88zm-5.59 2.08c-0.01,-0.02 -0.01,-0.04 -0.01,-0.06l0.06 0.06 -0.05 0zm0.32 0l-0.35 -0.36c0,-0.01 0,-0.02 0,-0.04l0 0c0,-0.04 0,-0.07 0,-0.11l0.51 0.51 -0.16 0zm0.44 0l-0.77 -0.77c0.01,-0.04 0.01,-0.09 0.02,-0.13l0.9 0.9 -0.15 0zm0.43 0l-1.13 -1.13c0.01,-0.04 0.02,-0.09 0.03,-0.13l1.25 1.26 -0.15 0zm0.43 0l-1.46 -1.46c0.01,-0.04 0.03,-0.08 0.04,-0.12l1.58 1.58 -0.16 0zm0.43 0l-1.76 -1.76c0.02,-0.04 0.04,-0.07 0.06,-0.11l1.86 1.87 -0.16 0zm0.43 0l-2.03 -2.04c0.02,-0.03 0.04,-0.06 0.06,-0.09l2.13 2.13 -0.16 0zm0.44 0l-2.29 -2.29c0.02,-0.03 0.04,-0.06 0.07,-0.09l2.37 2.38 -0.15 0zm0.43 0l-2.52 -2.52c0.02,-0.03 0.05,-0.06 0.08,-0.08l2.59 2.6 -0.15 0zm0.43 0l-2.73 -2.73c0.03,-0.03 0.06,-0.05 0.09,-0.07l2.8 2.8 -0.16 0zm0.43 0l-2.91 -2.92c0.03,-0.02 0.06,-0.04 0.09,-0.06l2.98 2.98 -0.16 0zm0.43 0l-3.08 -3.08c0.04,-0.02 0.07,-0.04 0.11,-0.06l3.13 3.14 -0.16 0zm0.44 0l-3.23 -3.23c0.04,-0.01 0.08,-0.03 0.12,-0.04l3.26 3.27 -0.15 0zm0.43 0l-3.34 -3.34c0.04,-0.01 0.09,-0.02 0.13,-0.03l3.36 3.37 -0.15 0zm0.43 0l-3.41 -3.42c0.04,-0.01 0.09,-0.01 0.13,-0.02l3.41 3.41 0 0.03 -0.13 0zm0.15 -0.28l-3.17 -3.18c0.04,0 0.07,0 0.11,0 0.02,0 0.03,0 0.04,0l3.03 3.02c0,0.02 0,0.03 0,0.04 0,0.04 -0.01,0.08 -0.01,0.12zm-0.01 -0.45l-2.71 -2.71c0.06,0 0.12,0.01 0.18,0.02l2.5 2.51c0.01,0.06 0.02,0.12 0.03,0.18zm-0.11 -0.54l-2.06 -2.06c0.08,0.02 0.15,0.05 0.23,0.08l1.75 1.74c0.03,0.08 0.06,0.16 0.08,0.24z"/>
  <path class="fil16" d="M45.21 1.83l0.97 0.97c-0.39,-0.25 -0.72,-0.58 -0.97,-0.97zm1.59 1.29l-1.91 -1.92c-0.04,-0.08 -0.07,-0.17 -0.09,-0.26l2.26 2.27c-0.09,-0.03 -0.17,-0.06 -0.26,-0.09zm0.66 0.18l-2.75 -2.75c-0.02,-0.07 -0.02,-0.13 -0.03,-0.2l2.98 2.98c-0.07,-0.01 -0.14,-0.02 -0.2,-0.03zm0.52 0.05l-3.32 -3.32 0 -0.03 0.14 0 3.35 3.35c-0.05,0 -0.09,0 -0.13,0 -0.01,0 -0.03,0 -0.04,0zm0.45 -0.03l-3.33 -3.32 0.17 0 3.31 3.3c-0.05,0.01 -0.1,0.02 -0.15,0.02zm0.4 -0.07l-3.25 -3.25 0.17 0 3.21 3.21c-0.04,0.02 -0.09,0.03 -0.13,0.04zm0.36 -0.11l-3.14 -3.14 0.17 0 3.09 3.09c-0.04,0.02 -0.08,0.03 -0.12,0.05zm0.33 -0.14l-2.99 -3 0.17 0 2.93 2.94c-0.03,0.02 -0.07,0.04 -0.11,0.06zm0.3 -0.18l-2.82 -2.82 0.17 0 2.76 2.76c-0.04,0.02 -0.07,0.04 -0.11,0.06zm0.28 -0.19l-2.63 -2.63 0.18 0 2.55 2.55c-0.04,0.03 -0.07,0.05 -0.1,0.08zm0.25 -0.22l-2.4 -2.41 0.17 0 2.32 2.32c-0.03,0.03 -0.06,0.06 -0.09,0.09zm0.23 -0.25l-2.16 -2.16 0.17 0 2.07 2.07c-0.02,0.03 -0.05,0.06 -0.08,0.09zm0.21 -0.27l-1.89 -1.89 0.17 0 1.79 1.79c-0.02,0.04 -0.05,0.07 -0.07,0.1zm0.18 -0.29l-1.6 -1.6 0.17 0 1.49 1.49c-0.02,0.04 -0.04,0.07 -0.06,0.11zm0.15 -0.32l-1.28 -1.28 0.18 0 1.15 1.16c-0.01,0.04 -0.03,0.08 -0.05,0.12zm0.13 -0.35l-0.93 -0.93 0.17 0 0.79 0.8c-0.01,0.04 -0.02,0.09 -0.03,0.13zm0.09 -0.39l-0.55 -0.54 0.17 0 0.4 0.39c-0.01,0.05 -0.02,0.1 -0.02,0.15zm0.04 -0.43l-0.11 -0.11 0.11 0c0,0.04 0,0.08 0,0.11z"/>
  <path class="fil17" d="M11.15 19.44c-1.99,-0.91 -3.29,-2.34 -4.12,-3.73 -1,-1.66 -1.48,-3.53 -1.48,-5.42l0 -2.72c0,-0.55 0.5,-0.71 1.08,-0.99l4.48 -1.64 4.52 1.66c0.63,0.19 1.03,0.57 1.03,1.35l0 2.45c0,1.78 -0.43,3.54 -1.3,5.12 -0.06,0.1 -0.12,0.2 -0.18,0.29 -0.51,0.86 -1.22,1.8 -2.12,2.54 -0.31,0.26 -0.63,0.49 -0.98,0.68 -0.3,0.17 -0.61,0.31 -0.93,0.41z"/>
  <path class="fil18" d="M14.74 7.71l-3.63 -1.34 -3.6 1.32c-0.46,0.22 -0.86,0.36 -0.86,0.79l0 2.19c0,1.51 0.39,3.02 1.18,4.34 0.67,1.12 1.71,2.27 3.31,3 1.47,-0.49 2.57,-1.8 3.24,-2.91 0.8,-1.33 1.18,-2.83 1.18,-4.35l0 -1.96c0,-0.63 -0.32,-0.93 -0.82,-1.08z"/>
  <path class="fil19" d="M10.98 9.57l0.26 0c0.3,0 0.55,0.25 0.55,0.56l0 1.01 1.01 0c0.31,0 0.56,0.25 0.56,0.56l0 0.26c0,0.3 -0.25,0.55 -0.56,0.55l-1.01 0 0 1.02c0,0.3 -0.25,0.55 -0.55,0.55l-0.26 0c-0.31,0 -0.56,-0.25 -0.56,-0.55l0 -1.02 -1.01 0c-0.31,0 -0.56,-0.25 -0.56,-0.55l0 -0.26c0,-0.31 0.25,-0.56 0.56,-0.56l1.01 0 0 -1.01c0,-0.31 0.25,-0.56 0.56,-0.56z"/>
  <g id="_1825591018960">
   <g>
    <path class="fil20" d="M34.94 7.13l-0.26 -0.12c0.51,-1.16 1.39,-3.19 1.56,-3.75 0.23,-0.74 0.77,-0.88 1.03,-0.85l0.02 0.01 0.7 0.16 -0.07 0.27 -0.69 -0.16c-0.06,-0.01 -0.52,-0.01 -0.72,0.66 -0.17,0.54 -0.95,2.35 -1.57,3.78z"/>
   </g>
   <g>
    <path class="fil20" d="M40.17 9.39l-0.26 -0.07c0.36,-1.39 1.01,-3.82 1.26,-4.4 0.27,-0.64 -0.08,-0.93 -0.13,-0.97l-0.64 -0.32 0.13 -0.25 0.65 0.33c0.22,0.15 0.54,0.6 0.24,1.32 -0.25,0.59 -0.95,3.25 -1.25,4.36z"/>
   </g>
   <g>
    <path class="fil6" d="M40.12 8.53c-0.08,0.29 -0.15,0.56 -0.21,0.79l0.26 0.07c0.06,-0.21 0.13,-0.49 0.22,-0.8l-0.27 -0.06z"/>
   </g>
   <g>
    <path class="fil6" d="M34.9 6.51c-0.08,0.18 -0.15,0.35 -0.22,0.5l0.26 0.12c0.07,-0.17 0.15,-0.35 0.22,-0.52l-0.26 -0.1z"/>
   </g>
   <path class="fil18" d="M38.42 20.86c-0.58,-0.02 -1.15,-0.12 -1.66,-0.32 -0.91,-0.35 -1.58,-0.97 -1.93,-1.79 -0.59,-1.39 -0.25,-3.04 0.13,-4.48 0.33,-1.28 0.78,-2.56 1.35,-3.78l0.43 0.19c-0.55,1.2 -1,2.45 -1.32,3.71 -0.36,1.36 -0.69,2.92 -0.15,4.17 0.29,0.7 0.87,1.23 1.66,1.54 1.1,0.42 2.52,0.37 3.61,-0.13l0.04 -0.02c1.36,-0.63 2.34,-1.08 3.93,-0.39l-0.19 0.43c-1.39,-0.6 -2.2,-0.23 -3.54,0.39l-0.04 0.02c-0.7,0.32 -1.52,0.47 -2.32,0.46z"/>
   <path class="fil17" d="M44.05 19.53l0.06 -0.13c-1.36,-0.45 -2.29,-0.03 -3.53,0.55l-0.04 0.02c-1.09,0.5 -2.51,0.55 -3.61,0.13 -0.79,-0.31 -1.37,-0.84 -1.66,-1.54 -0.54,-1.25 -0.21,-2.81 0.15,-4.17 0.31,-1.2 0.72,-2.39 1.24,-3.53l-0.1 -0.05c-0.53,1.16 -0.95,2.41 -1.27,3.63 -0.35,1.35 -0.68,2.81 -0.13,4.12 0.33,0.77 0.89,1.28 1.75,1.61 0.48,0.19 0.96,0.27 1.5,0.29 0.76,0.02 1.49,-0.11 2.15,-0.42l0.04 -0.01c1.26,-0.59 2.12,-1 3.45,-0.5z"/>
   <g>
    <path class="fil17" d="M38.22 2.39l-0.23 -0.06c-0.16,-0.04 -0.33,0.06 -0.37,0.22l-0.02 0.08c-0.05,0.16 0.05,0.33 0.21,0.37l0.22 0.06c0.17,0.05 0.33,-0.05 0.38,-0.21l0.02 -0.08c0.04,-0.16 -0.05,-0.33 -0.21,-0.38z"/>
   </g>
   <g>
    <path class="fil17" d="M40.47 3.09l0.21 0.1c0.16,0.07 0.22,0.25 0.15,0.4l-0.03 0.08c-0.07,0.15 -0.26,0.22 -0.41,0.15l-0.21 -0.1c-0.15,-0.07 -0.22,-0.25 -0.15,-0.4l0.04 -0.08c0.07,-0.15 0.25,-0.22 0.4,-0.15z"/>
   </g>
   <path class="fil18" d="M37.55 11.03c-0.35,-0.01 -0.72,-0.08 -1.11,-0.22 -0.84,-0.31 -1.42,-0.81 -1.74,-1.49 -0.54,-1.18 -0.08,-2.46 -0.06,-2.51l0.45 0.16c-0.01,0.01 -0.24,0.65 -0.16,1.39 0.1,0.96 0.67,1.63 1.67,2 0.72,0.26 1.37,0.26 1.93,0 1,-0.47 1.41,-1.6 1.42,-1.61l0.45 0.16c-0.02,0.05 -0.5,1.33 -1.67,1.88 -0.37,0.17 -0.76,0.25 -1.18,0.24z"/>
   <path class="fil17" d="M40.12 8.81l-0.17 -0.06c-0.01,0.01 -0.42,1.14 -1.42,1.61 -0.56,0.26 -1.21,0.26 -1.93,0 -1,-0.37 -1.57,-1.04 -1.67,-2 -0.08,-0.74 0.15,-1.38 0.16,-1.39l-0.15 -0.05c-0.08,0.25 -0.36,1.26 0.08,2.2 0.28,0.61 0.81,1.06 1.56,1.34 0.35,0.13 0.68,0.19 1,0.2 0.38,0.01 0.73,-0.06 1.06,-0.22 0.94,-0.44 1.38,-1.38 1.48,-1.63z"/>
   <g>
    <path class="fil18" d="M38.39 2.52c0,0.04 0,0.08 -0.01,0.12l-0.02 0.08c-0.04,0.16 -0.21,0.25 -0.38,0.21l-0.22 -0.06c-0.07,-0.02 -0.13,-0.07 -0.17,-0.13 0.01,0.12 0.1,0.23 0.22,0.26l0.22 0.06c0.17,0.05 0.33,-0.05 0.38,-0.21l0.02 -0.08c0.02,-0.09 0.01,-0.18 -0.04,-0.25z"/>
   </g>
   <g>
    <path class="fil18" d="M40.81 3.3c0.01,0.05 0,0.11 -0.03,0.16l-0.03 0.08c-0.07,0.15 -0.25,0.22 -0.41,0.15l-0.21 -0.1c-0.05,-0.03 -0.09,-0.07 -0.12,-0.11 0.01,0.1 0.07,0.19 0.17,0.24l0.21 0.1c0.15,0.07 0.34,0 0.41,-0.15l0.03 -0.08c0.05,-0.1 0.04,-0.21 -0.02,-0.29z"/>
   </g>
   <g>
    <path class="fil20" d="M45.46 19.83c-0.01,0.47 -0.4,0.84 -0.87,0.83 -0.47,-0.01 -0.84,-0.4 -0.83,-0.87 0.01,-0.47 0.4,-0.84 0.87,-0.83 0.47,0.01 0.84,0.4 0.83,0.87z"/>
   </g>
   <g>
    <path class="fil17" d="M45.02 19.82c-0.01,0.22 -0.2,0.4 -0.42,0.4 -0.23,-0.01 -0.41,-0.2 -0.4,-0.42 0,-0.23 0.19,-0.41 0.42,-0.4 0.22,0 0.4,0.19 0.4,0.42z"/>
   </g>
   <g>
    <path class="fil18" d="M44.9 19.52c0.02,0.05 0.02,0.09 0.02,0.14 0,0.22 -0.19,0.4 -0.42,0.4 -0.11,0 -0.21,-0.05 -0.28,-0.13 0.05,0.16 0.2,0.28 0.38,0.29 0.22,0 0.41,-0.18 0.42,-0.4 0,-0.12 -0.04,-0.22 -0.12,-0.3z"/>
   </g>
   <g>
    <path class="fil6" d="M45.43 19.61c-0.02,0.5 -0.43,0.89 -0.94,0.88 -0.24,0 -0.46,-0.1 -0.62,-0.26 0.14,0.25 0.41,0.42 0.72,0.43 0.47,0.01 0.86,-0.36 0.87,-0.83 0,-0.08 -0.01,-0.15 -0.03,-0.22z"/>
   </g>
  </g>
  <g id="_1825591023280">
   <path class="fil3" d="M40.73 11.85l0.02 5.86c0,0.16 0.13,0.29 0.29,0.29l2.21 0c0.17,0 0.3,-0.13 0.3,-0.3l-0.01 -5.85 -2.81 0z"/>
   <g>
    <polygon class="fil20" points="43.54,15.35 40.74,15.36 40.74,13.19 43.54,13.19 "/>
   </g>
   <g>
    <g>
     <polygon class="fil20" points="43.72,11.1 40.55,11.1 40.55,11.86 43.72,11.85 "/>
    </g>
    <g>
     <g>
      <polygon class="fil21" points="40.8,11.1 40.66,11.1 40.66,11.85 40.8,11.85 "/>
     </g>
     <g>
      <polygon class="fil21" points="41.08,11.1 40.94,11.1 40.94,11.85 41.08,11.85 "/>
     </g>
     <g>
      <polygon class="fil21" points="41.36,11.1 41.22,11.1 41.23,11.85 41.36,11.85 "/>
     </g>
     <g>
      <polygon class="fil21" points="41.64,11.1 41.51,11.1 41.51,11.85 41.64,11.85 "/>
     </g>
     <g>
      <polygon class="fil21" points="41.92,11.1 41.79,11.1 41.79,11.85 41.92,11.85 "/>
     </g>
     <g>
      <polygon class="fil21" points="42.2,11.1 42.07,11.1 42.07,11.85 42.2,11.85 "/>
     </g>
     <g>
      <polygon class="fil21" points="42.48,11.1 42.35,11.1 42.35,11.85 42.48,11.85 "/>
     </g>
     <g>
      <polygon class="fil21" points="42.76,11.1 42.63,11.1 42.63,11.85 42.76,11.85 "/>
     </g>
     <g>
      <polygon class="fil21" points="43.04,11.1 42.91,11.1 42.91,11.85 43.05,11.85 "/>
     </g>
     <g>
      <polygon class="fil21" points="43.33,11.1 43.19,11.1 43.19,11.85 43.33,11.85 "/>
     </g>
     <g>
      <polygon class="fil21" points="43.61,11.1 43.47,11.1 43.47,11.85 43.61,11.85 "/>
     </g>
    </g>
   </g>
   <g>
    <polygon class="fil4" points="43.54,12.17 43.54,11.85 40.73,11.85 40.74,12.18 "/>
   </g>
   <g>
    <polygon class="fil21" points="43.31,14.72 42.53,14.72 42.53,14.59 43.31,14.59 "/>
   </g>
   <g>
    <polygon class="fil21" points="43.31,14.46 42.53,14.46 42.53,14.33 43.31,14.33 "/>
   </g>
   <g>
    <polygon class="fil21" points="43.31,14.2 42.53,14.2 42.53,14.07 43.31,14.07 "/>
   </g>
   <g>
    <path class="fil17" d="M41.65 13.8c0,0.19 -0.15,0.34 -0.34,0.34 -0.19,0 -0.34,-0.15 -0.34,-0.34 0,-0.19 0.15,-0.34 0.34,-0.34 0.19,0 0.34,0.15 0.34,0.34z"/>
   </g>
   <g>
    <path class="fil4" d="M43.25 17.53l-2.21 0.01c-0.16,0 -0.29,-0.13 -0.29,-0.3l0 0.47c0,0.16 0.13,0.29 0.29,0.29l2.21 0c0.17,0 0.3,-0.13 0.3,-0.3l0 -0.46c0,0.16 -0.13,0.29 -0.3,0.29z"/>
   </g>
  </g>
  <g id="_1825590981712">
   <g>
    <path class="fil17" d="M47.97 13.83l0 -0.23 -2.63 -0.02 -0.01 0.24c-0.31,0.08 -0.54,0.34 -0.55,0.64l-0.01 2.87c0,0.37 0.35,0.68 0.78,0.68l2.16 0.01c0.44,0 0.79,-0.3 0.79,-0.67l0.02 -2.87c0,-0.3 -0.23,-0.56 -0.55,-0.65z"/>
   </g>
   <g>
    <polygon class="fil18" points="47.97,13.75 45.34,13.73 45.34,13.58 47.97,13.6 "/>
   </g>
   <g>
    <g>
     <polygon class="fil20" points="48.17,12.9 45.15,12.87 45.14,13.59 48.16,13.61 "/>
    </g>
    <g>
     <g>
      <polygon class="fil21" points="45.38,12.87 45.25,12.87 45.25,13.59 45.38,13.59 "/>
     </g>
     <g>
      <polygon class="fil21" points="45.65,12.87 45.52,12.87 45.52,13.59 45.64,13.59 "/>
     </g>
     <g>
      <polygon class="fil21" points="45.92,12.88 45.79,12.88 45.78,13.59 45.91,13.59 "/>
     </g>
     <g>
      <polygon class="fil21" points="46.19,12.88 46.06,12.88 46.05,13.6 46.18,13.6 "/>
     </g>
     <g>
      <polygon class="fil21" points="46.45,12.88 46.33,12.88 46.32,13.6 46.45,13.6 "/>
     </g>
     <g>
      <polygon class="fil21" points="46.72,12.88 46.6,12.88 46.59,13.6 46.72,13.6 "/>
     </g>
     <g>
      <polygon class="fil21" points="46.99,12.89 46.86,12.88 46.86,13.6 46.99,13.6 "/>
     </g>
     <g>
      <polygon class="fil21" points="47.26,12.89 47.13,12.89 47.13,13.6 47.25,13.61 "/>
     </g>
     <g>
      <polygon class="fil21" points="47.53,12.89 47.4,12.89 47.39,13.61 47.52,13.61 "/>
     </g>
     <g>
      <polygon class="fil21" points="47.8,12.89 47.67,12.89 47.66,13.61 47.79,13.61 "/>
     </g>
     <g>
      <polygon class="fil21" points="48.07,12.89 47.94,12.89 47.93,13.61 48.06,13.61 "/>
     </g>
    </g>
   </g>
   <g>
    <polygon class="fil20" points="48.51,16.64 44.77,16.62 44.78,14.97 48.51,14.98 "/>
   </g>
   <g>
    <path class="fil18" d="M47.72 17.55l-2.17 -0.01c-0.43,0 -0.78,-0.3 -0.78,-0.67l0 0.46c0,0.37 0.35,0.68 0.78,0.68l2.16 0.01c0.44,0 0.79,-0.3 0.79,-0.67l0 -0.46c0,0.37 -0.35,0.66 -0.78,0.66z"/>
   </g>
   <polygon class="fil22" points="48.51,15.28 44.78,15.26 44.78,14.97 48.51,14.98 "/>
   <polygon class="fil22" points="45.93,15.75 45.69,15.75 45.69,15.51 45.36,15.5 45.36,15.74 45.12,15.74 45.12,16.07 45.36,16.08 45.36,16.32 45.69,16.32 45.69,16.08 45.93,16.08 "/>
   <g>
    <polygon class="fil21" points="48.16,15.75 46.85,15.75 46.85,15.6 48.16,15.61 "/>
   </g>
   <g>
    <polygon class="fil21" points="48.15,16.11 46.85,16.1 46.85,15.96 48.16,15.97 "/>
   </g>
  </g>
 </g>
</svg>
