<?xml version="1.0" encoding="UTF-8"?>
<!DOCTYPE svg PUBLIC "-//W3C//DTD SVG 1.1//EN" "http://www.w3.org/Graphics/SVG/1.1/DTD/svg11.dtd">
<!-- Creator: CorelDRAW 2020 (64-Bit) -->
<svg xmlns="http://www.w3.org/2000/svg" xml:space="preserve" width="375px" height="186px" version="1.1" style="shape-rendering:geometricPrecision; text-rendering:geometricPrecision; image-rendering:optimizeQuality; fill-rule:evenodd; clip-rule:evenodd"
viewBox="0 0 41.38 20.52"
 xmlns:xlink="http://www.w3.org/1999/xlink"
 xmlns:xodm="http://www.corel.com/coreldraw/odm/2003">
 <defs>
  <style type="text/css">
   <![CDATA[
    .fil19 {fill:none}
    .fil0 {fill:#F4F6FE}
    .fil18 {fill:white}
    .fil13 {fill:#FEFEFE;fill-rule:nonzero}
    .fil6 {fill:#F6FBFE;fill-rule:nonzero}
    .fil11 {fill:#23232C;fill-rule:nonzero}
    .fil10 {fill:#282A40;fill-rule:nonzero}
    .fil4 {fill:#28CAAF;fill-rule:nonzero}
    .fil15 {fill:#334BAE;fill-rule:nonzero}
    .fil14 {fill:#425DC9;fill-rule:nonzero}
    .fil5 {fill:#44B194;fill-rule:nonzero}
    .fil17 {fill:#5273F7;fill-rule:nonzero}
    .fil16 {fill:#829AF9;fill-rule:nonzero}
    .fil7 {fill:#C4DEEF;fill-rule:nonzero}
    .fil1 {fill:#E4EEFF;fill-rule:nonzero}
    .fil12 {fill:#E9AFA3;fill-rule:nonzero}
    .fil9 {fill:#F4A19D;fill-rule:nonzero}
    .fil8 {fill:#F4B5B0;fill-rule:nonzero}
    .fil3 {fill:#FFB2A4;fill-rule:nonzero}
    .fil2 {fill:#FFC6BA;fill-rule:nonzero}
   ]]>
  </style>
   <clipPath id="id0">
    <path d="M0 0l41.38 0 0 20.52 -41.38 0 0 -20.52z"/>
   </clipPath>
 </defs>
 <g id="Слой_x0020_1">
  <metadata id="CorelCorpID_0Corel-Layer"/>
  <polygon class="fil0" points="0,0 41.38,0 41.38,20.52 0,20.52 "/>
  <g style="clip-path:url(#id0)">
   <g id="_2656974760080">
    <path id="1" class="fil1" d="M57.19 19.4l0 2.93 -21.5 0c-3.78,0 -8.79,-3.74 -8.54,-9.07 0.36,-7.76 6.99,-12.02 12.61,-12.25 8.76,-0.35 17.43,6.77 17.43,18.39z"/>
    <g>
     <path class="fil2" d="M40.25 4.99c0,1.31 -0.78,2.37 -1.75,2.37 -0.96,0 -1.75,-1.06 -1.75,-2.37 0,-1.31 0.79,-2.38 1.75,-2.38 0.97,0 1.75,1.07 1.75,2.38z"/>
     <path class="fil3" d="M39.26 3.91c-0.76,0 -1.72,-0.45 -1.71,-0.5 0.04,-0.14 0.87,-0.29 1.57,-0.29 0.18,0 0.35,0.01 0.49,0.03l0 0 0.01 0 0 0.01c0.01,0.01 0.02,0.02 0.03,0.03l0 0 0 0 0 0c0.01,0.02 0.02,0.03 0.03,0.04l0 0 0 0c0.01,0.01 0.02,0.03 0.03,0.04l0 0c0.02,0.02 0.04,0.05 0.06,0.08l0 0c0.03,0.04 0.06,0.08 0.08,0.13l0 0 0 0c0.01,0.01 0.02,0.03 0.03,0.04l0 0 0 0zm0.02 0.05l0 0c0.01,0.01 0.02,0.03 0.03,0.04l0 0 0 0 0 0c0.01,0.02 0.02,0.05 0.03,0.07 -0.16,0.17 -0.42,0.23 -0.7,0.23z"/>
     <path class="fil2" d="M37.13 6.07c0.04,0.08 0.23,1.07 0,2.05l-0.38 2.51 1.3 1.87 1.33 1.14 0.53 -2.28 -0.11 -3.5c0,0 -0.27,-1.26 -0.04,-2.09 0.23,-0.84 -2.63,0.3 -2.63,0.3z"/>
     <path class="fil3" d="M38.55 7.9c-0.56,0 -1.07,-0.4 -1.31,-0.62l0 -0.05 0 0 0 -0.01 0 -0.02 0 -0.01 0 0 0 0 0 -0.01 0 0 0 0 0 0 0 -0.01 0 0 0 0 0 0 0 -0.01 0 0 0 0 0 -0.01 0 0 0 0 0 0 0 -0.01 0 0 0 0 0 0 0 -0.01 0 0 0 0 0 0 0 -0.01 0 0 0 0 0 -0.01 0 0 0 0 0 0 0 -0.01 0 -0.01 0 0 0 0 0 0 0 0 0 0 0 0 0 0 0 0 0 0 0 0 0 0 0 0 0 0 0 0 0 0 0 0 0 0 0 0 0 0 0 0 0 0 0 0 0 0 0 0 0 0 0 0 0 0 0 0 0 0 0 -0.01 0 0 0 0 0 0 0 0 0 0 0 0 0 0 0 0 0 0 0 0 0 0 0 -0.01c0.37,0.27 0.89,0.58 1.26,0.6 0.02,0 0.03,0 0.04,0 0.33,0 0.8,-0.27 1.15,-0.55l0 0 0 0.01 0 0 0 0 0 0 0 0 0 0 0 0 0 0 0 0 0 0 0 0 0 0 0 0 0 0 0 0 0 0 0 0 0 0 0 0 0 0.01 0 0 0 0 0 0 0 0.01 0 0 0 0 0 0 0 0 0 0 0 0 0 0 0 0 0 0 0 0 0 0 0 0 0 0 0 0 0 0.01 0 0 0 0 0 0 0 0 0 0 0 0 0 0 0 0c-0.35,0.56 -0.76,0.74 -1.14,0.74z"/>
     <path class="fil4" d="M34.7 14.04c0,0 0.91,2.85 1.07,4.41 0.05,0.58 0.13,1.33 0.2,2.04l5.82 0c0.46,-2.05 1.1,-5.21 0.9,-6.19 -0.31,-1.48 -1.49,-5.05 -1.49,-5.05l-0.53 -0.8 -0.84 -0.19 -1.33 1.77c0,0 -0.78,-1.44 -1.29,-1.79l-0.46 -0.1 -2.05 4.22 0 1.68z"/>
     <path class="fil5" d="M38.5 10.56c-0.16,-0.7 -0.8,-1.47 -1.16,-1.85l-0.03 -0.39 0.01 0.01 0.02 0.01c0,0.01 0.01,0.02 0.02,0.02l0.02 0.02 0 0.01 0.02 0.01 0.01 0.01 0.02 0.02 0 0.01 0.02 0.02 0.01 0.01 0.02 0.02 0.01 0.01 0.01 0.01 0.01 0.02 0.02 0.01 0.01 0.01 0.02 0.03 0 0 0.02 0.03 0.01 0.01 0.02 0.02 0.01 0.01 0.01 0.02 0.02 0.02 0.01 0.02 0.01 0 0.02 0.03 0 0 0.02 0.03 0 0 0.03 0.04 0 0 0.02 0.03 0 0 0.03 0.04 0 0 0.02 0.03 0.02 0.03 0.01 0.01 0 0.01 0.02 0.02 0.01 0.01 0.01 0.02 0.01 0.01 0.02 0.03 0 0.01 0.02 0.02 0.01 0.02 0.02 0.02 0 0.01 0.01 0.02 0.01 0.01 0.02 0.03 0.01 0.01 0.01 0.03 0.01 0 0.02 0.03 0 0.01 0.02 0.03 0.03 0.04 0 0 0.02 0.03 0 0.01 0.02 0.03 0 0 0.02 0.03 0 0.01 0.02 0.03 0.01 0 0.01 0.03 0.01 0.01 0.02 0.03 0 0 0.01 0.02 0.01 0.02 0.01 0.01 0.01 0.02 0.01 0.01 0.01 0.02 0.01 0.01 0.01 0.02 0 0.01 0.01 0.02 0.01 0.01 0.01 0.02 0 0.01 0.02 0.02 0 0 0.01 0.03 0 0 0.02 0.02 0 0 0.01 0.02 0 0.01 0.01 0.02 0.01 0 0.01 0.02 0 0 0.01 0.02 0 0 0.01 0.01 0 0.01 0.01 0.01 0 0.01 0 0.01 0.01 0 0 0.01 0.01 0.01 0 0 0 0.01 0.01 0 0 0.01 0 0 0 0.01 0.01 0 0 0.01 0 0 0 0 0 0 0 0 0 0 0 0.01 1.16 -1.54 0 0c-0.04,0.09 -0.08,0.28 -0.12,0.54l-1.04 1.53z"/>
     <path class="fil5" d="M37.68 17.11c0,-2.35 -0.03,-4.61 -0.09,-5.16 -0.06,-0.6 -0.16,-1.89 -0.23,-2.95 0.22,1.13 0.62,3.51 0.66,6.39l-0.34 1.72z"/>
     <path class="fil5" d="M39.17 14.78c0.09,-2.42 0.22,-4.7 0.37,-5.75l0.12 -0.18c0.03,0.89 0.09,1.96 0.14,2.75 0.02,0.43 -0.01,1.6 -0.05,3.04l-0.58 0.14z"/>
     <path class="fil5" d="M39.54 9.03c0.04,-0.26 0.08,-0.45 0.12,-0.54 0,0.12 0,0.24 0,0.36l-0.12 0.18z"/>
     <path class="fil6" d="M36.75 8.14c0,0 0.38,-0.76 0.5,-0.76 0,0 0.23,3.46 0.34,4.57 0.09,0.83 0.11,5.46 0.06,8.54l-2.08 0c-0.22,-2.29 -0.53,-5.34 -0.65,-5.73 -0.15,-0.48 -0.71,-1.79 -0.6,-2.28 0.11,-0.5 1.83,-3.35 1.83,-3.35l0.6 -0.99z"/>
     <path class="fil6" d="M35.74 17.96c-0.3,-0.16 -0.6,-0.35 -0.85,-0.58 0,0 -0.11,-2.2 0.19,-3.19 0.31,-0.99 1.67,-6.05 1.67,-6.05 0,0 -2.81,1.9 -3.11,2.55 -0.31,0.65 -1.37,5.36 -1.18,6.54 0.19,1.18 0.61,1.75 1.37,2.05 0.23,0.1 0.82,0.21 1.5,0.32 -0.07,-0.35 -0.11,-1.03 0.41,-1.64z"/>
     <path class="fil7" d="M35.19 19.58c-0.07,-0.01 -0.14,-0.02 -0.2,-0.04l-0.01 0 -0.01 0 -0.04 -0.01 0 0 -0.02 0 -0.01 0 0 0 -0.01 0c-0.06,-0.01 -0.11,-0.02 -0.17,-0.03l0 0 -0.01 -0.01 -0.01 0 -0.01 0 -0.01 0c-0.11,-0.02 -0.21,-0.04 -0.3,-0.06 -0.23,-1.12 0.61,-1.95 0.62,-1.96l0 0.01 0 0 0 0 0.01 0.01 0 0 0 0 0.01 0.01 0 0 0 0 0.01 0 0 0.01 0.01 0 0 0 0 0.01 0.01 0 0 0 0 0 0.01 0.01 0 0 0 0 0.01 0.01 0 0 0 0 0.01 0 0 0.01 0.01 0 0 0 0 0 0.01 0.01 0 0 0 0 0.01 0.01 0 0 0 0 0.01 0 0 0.01 0.01 0 0 0 0.01 0.01 0 0 0 0 0.01 0 0 0.01 0 0 0.01 0 0 0.01 0 0 0.01 0 0 0 0.01 0.01 0 0 0 0 0.01 0 0 0.01 0 0 0.01 0 0 0.01 0 0 0.01 0 0 0 0.01 0 0 0.01 0.01 0 0 0 0.01 0.01 0 0 0.02 0.01 0 0 0 0.01 0.01 0 0 0 0 0 0.01 0.01 0 0 0.01 0 0 0.01 0.02 0.01 0 0 0 0 0.01 0.01 0 0 0 0c0.11,0.17 0.14,0.42 0.14,0.69l-0.01 0 0 0.01 0 0 0 0 0 0 0 0.01 0 0 0 0 -0.01 0.02 0 0c-0.01,0.02 -0.02,0.04 -0.03,0.06l0 0 0 0c-0.01,0.03 -0.02,0.06 -0.03,0.09l0 0 -0.01 0.03 0 0c0,0.02 -0.01,0.03 -0.01,0.05l0 0c-0.01,0.02 -0.01,0.04 -0.02,0.06l0 0c0,0.02 -0.01,0.04 -0.01,0.06l0 0c0,0.01 -0.01,0.03 -0.01,0.05l0 0 0 0.03 -0.01 0 0 0 0 0.03 0 0 0 0.02 0 0c-0.02,0.1 -0.02,0.19 -0.02,0.28l0 0c0,0.03 0,0.07 0,0.1 -0.03,0.09 -0.07,0.18 -0.1,0.27z"/>
     <path class="fil8" d="M37.87 19.82c-0.01,0 -0.01,-1.22 -0.01,-1.22 0,0 -1.12,-0.13 -2.12,-0.64 -0.52,0.61 -0.48,1.29 -0.41,1.64 1.56,0.25 3.56,0.46 2.54,0.22z"/>
     <path class="fil9" d="M37.14 19.85l-0.02 0 -0.01 0 0 0 0 -0.01 -0.01 0 0 0 0 0 -0.01 0 0 0 -0.01 0 0 0 0 0 -0.01 0 0 0 0 0 -0.01 0 0 0 0 0 -0.01 0 0 0 0 0 -0.01 0 0 0 0 0 -0.01 0 0 0 0 0 -0.01 0 0 0 0 -0.01 0 0 -0.01 0 0 0 0 0 -0.01 0 0 0 -0.01 0 0 0 0 0 -0.01 0 0 0 -0.01 0 0 0 0 0 -0.01 0 0 0 0 0 -0.01 0 0 0 0 0 -0.01 0 0 0 -0.03 -0.01c0.06,-0.18 0.07,-0.41 -0.08,-0.67 -0.18,-0.33 -0.19,-0.62 -0.16,-0.82l0.01 0 0 0 0.02 0.01 0.01 0 0.01 0.01 0 0 0.01 0 0.03 0.01 0 0 0.04 0.01 0.01 0 0 0 0.01 0.01 0.03 0 0 0 0.01 0.01 0.01 0 0.01 0 0.01 0.01 0.01 0 0.01 0 0.01 0 0.01 0.01 0.01 0 0 0 0.02 0 0.01 0.01 0.01 0 0 0 0.01 0 0.01 0.01 0.02 0 0 0 0.01 0 0.01 0.01 0.01 0 0.01 0 0 0 0.01 0 0.01 0.01 0.02 0 0 0 0.01 0 0.01 0.01 0.01 0 0.01 0 0 0 0.01 0 0.01 0.01 0.01 0 0 0 0.01 0 0.02 0 0.01 0.01 0 0 0.01 0 0.01 0 0.01 0 0.01 0.01 0 0 0.01 0 0.02 0 0 0 0.01 0.01 0.01 0 0.01 0 0.01 0 0 0 0.01 0 0.01 0.01 0.01 0 0 0 0.01 0 0.01 0 0.01 0.01 0.01 0 0 0 0.01 0 -0.26 1.33z"/>
     <path class="fil6" d="M39.72 7.29c0,0 0.68,0.55 0.95,1.16l1.44 1.23c0,0 1.19,3.14 1.03,3.69 -0.16,0.55 -0.73,3.38 -0.63,3.47 0.1,0.09 -0.05,1.19 -0.05,1.19l-0.42 2.46 -2.52 0c0.13,-3.04 0.33,-7.91 0.28,-8.89 -0.08,-1.44 -0.23,-3.82 -0.08,-4.31z"/>
     <path class="fil7" d="M41.65 17.87c-0.04,0 -0.08,-0.02 -0.13,-0.05l0.22 -0.88c0.14,-0.17 0.23,-0.33 0.12,-0.44l0 0 0.15 -0.61c0.08,-0.09 0.17,-0.19 0.26,-0.31 0.3,-0.46 0.19,-2.21 0.19,-2.21 0.09,0.35 0.09,0.92 0.07,1.5 -0.1,0.49 -0.19,1.08 -0.15,1.52 0,0.04 0.01,0.08 0.01,0.12 0,0 0,0 0,0 -0.08,0.63 -0.37,0.8 -0.37,0.8 -0.02,0.06 -0.04,0.12 -0.06,0.18 -0.17,0.18 -0.33,0.27 -0.33,0.27 0.05,0.01 0.1,0.03 0.15,0.05 -0.04,0.04 -0.08,0.06 -0.13,0.06z"/>
     <path class="fil2" d="M36.41 5.25c0.05,0.26 0.22,0.45 0.39,0.42 0.16,-0.03 0.26,-0.27 0.21,-0.53 -0.05,-0.26 -0.22,-0.44 -0.39,-0.41 -0.16,0.03 -0.26,0.27 -0.21,0.52z"/>
     <path class="fil2" d="M40.56 5.25c-0.05,0.26 -0.22,0.45 -0.39,0.42 -0.16,-0.03 -0.26,-0.27 -0.21,-0.53 0.05,-0.26 0.22,-0.44 0.39,-0.41 0.16,0.03 0.25,0.27 0.21,0.52z"/>
     <path class="fil7" d="M37.42 15.04c0,0 -0.46,-2.89 -1.45,-3.8l0.46 -0.76 -0.24 -0.26c0.01,-0.05 0.02,-0.09 0.04,-0.14l0.39 0.36 -0.34 0.8c0,0 1.06,1.94 1.14,3.8z"/>
     <path class="fil7" d="M36.19 10.22l-0.22 -0.23 0.67 -1.66 -0.51 1.66 0.1 0.09c-0.02,0.05 -0.03,0.09 -0.04,0.14z"/>
     <path class="fil6" d="M35.45 19.72c0,0 -0.6,-0.73 0.38,-1.8 0,0 -0.07,-0.24 -0.26,-0.21 -0.19,0.03 -0.49,-0.25 -0.65,-0.07 -0.16,0.18 -0.71,0.85 -0.26,1.98 0,0 0.13,0.16 0.26,0.13 0.14,-0.02 0.56,0.08 0.53,-0.03z"/>
     <path class="fil10" d="M37.02 5.2c0,0 0.32,0.78 0.66,0.67 0.33,-0.1 0.9,-0.22 1.58,0.01 0.69,0.23 0.88,-0.91 0.88,-0.91 0,0 0.07,1.41 0.07,1.6 0,0.19 -1.1,1.14 -1.71,1.1 -0.61,-0.04 -1.6,-0.81 -1.67,-0.99 -0.11,-0.3 0,-1.48 0,-1.48l0.19 0z"/>
     <path class="fil10" d="M37.02 5.2c0,0 -0.15,-1.14 0.08,-1.3 0.22,-0.15 0.38,-0.45 0.57,-0.41 0.19,0.03 1.44,0.44 2.05,0.15 0.95,-0.46 0.46,-2.05 -0.61,-1.45 -0.5,0.29 -2.17,-0.22 -2.09,0.42 0,0 -0.84,0.31 -0.61,1.1 0.23,0.8 0.5,1.75 0.5,1.75l0.11 -0.26z"/>
     <path class="fil10" d="M39.42 3.37c0,0 0.34,0.23 0.49,0.57 0.15,0.34 0.24,1.26 0.24,1.26l0.18 -0.46c0,0 0.61,-1.71 -0.46,-1.71 -1.06,0 -0.45,0.34 -0.45,0.34z"/>
     <path class="fil11" d="M37.93 4.72c0,0.1 -0.03,0.17 -0.07,0.17 -0.05,0 -0.08,-0.07 -0.08,-0.17 0,-0.09 0.03,-0.17 0.08,-0.17 0.04,0 0.07,0.08 0.07,0.17z"/>
     <path class="fil11" d="M39.26 4.72c0,0.1 -0.03,0.17 -0.07,0.17 -0.04,0 -0.08,-0.07 -0.08,-0.17 0,-0.09 0.04,-0.17 0.08,-0.17 0.04,0 0.07,0.08 0.07,0.17z"/>
     <path class="fil10" d="M37.57 4.4c0.13,-0.11 0.31,-0.13 0.45,-0.06 0.07,0.03 0.13,-0.07 0.06,-0.1 -0.2,-0.09 -0.42,-0.06 -0.59,0.08 -0.05,0.04 0.03,0.12 0.08,0.08z"/>
     <path class="fil10" d="M38.97 4.33c0.14,-0.09 0.32,-0.09 0.46,0 0.06,0.04 0.12,-0.05 0.06,-0.09 -0.18,-0.12 -0.4,-0.12 -0.58,0 -0.06,0.04 0,0.13 0.06,0.09z"/>
     <path class="fil12" d="M38.41 5.59c-0.03,0 -0.04,-0.05 -0.01,-0.06 0.08,-0.02 0.21,-0.02 0.28,-0.06 0,-0.01 0,-0.02 0,-0.04 -0.02,-0.05 -0.02,-0.11 -0.03,-0.16 -0.03,-0.21 -0.07,-0.42 -0.1,-0.64 0,-0.02 0.02,-0.03 0.03,-0.03 0.01,0 0.02,0.01 0.03,0.02 0.04,0.28 0.09,0.57 0.13,0.85 0,0.02 0,0.04 -0.02,0.04 -0.1,0.03 -0.2,0.05 -0.3,0.08 -0.01,0 -0.01,0 -0.01,0z"/>
     <path class="fil13" d="M38.05 6.22c0,0 0.45,0.16 0.68,0.12 0.23,-0.04 0.08,0.45 -0.3,0.38 -0.38,-0.08 -0.73,-0.42 -0.38,-0.5z"/>
     <path class="fil7" d="M39.9 14.61c0.23,-1.68 1.09,-3.25 1.09,-3.25l-0.34 -0.8 0.5 -0.46 -0.52 -1.65 0.67 1.65 -0.46 0.5 0.46 0.76c-0.72,0.66 -1.15,2.34 -1.34,3.23l-0.06 0.02z"/>
     <path class="fil6" d="M41.54 9.27c0,0 -0.49,-0.35 -0.87,-0.82 0,0 2.05,1.14 2.59,1.94 0.53,0.8 0.91,3.68 0.98,5.17 0.08,1.48 0.13,3.19 -1.59,3.74 0,0 -0.06,-1.28 -1.02,-1.54 0,0 0.83,-0.49 0.75,-1.37 -0.07,-0.87 0.34,-2.37 0.34,-2.37l-1.18 -4.45 0 -0.3z"/>
     <path class="fil7" d="M42.73 19.28l0 0c-0.03,-0.02 -0.06,-0.04 -0.09,-0.07l0 0 0 -0.01 0 0 0 -0.01 0 -0.01 0 0 0 -0.01 -0.01 -0.02 0 -0.01 0 0 0 -0.02 0 0 0 -0.02 0 0 -0.01 -0.02 0 -0.01 0 -0.01 0 -0.01 0 0 0 -0.01 -0.01 -0.01 0 -0.01 0 0 0 -0.01 0 -0.01 0 -0.01 -0.01 -0.02 0 0 0 0 0 0 0 -0.03 0 0 0 0 -0.01 -0.03 0 0 0 0 -0.01 -0.03 0 0 0 0 -0.01 -0.03 0 0 0 -0.03 -0.01 0 0 0 0 -0.02 0 -0.01 -0.01 0 0 -0.03 0 0 -0.01 -0.01 0 -0.02 0 0 0 -0.01 -0.01 -0.02 -0.01 -0.01 0 -0.02 -0.01 -0.01 0 0 -0.01 -0.03 0 0 -0.01 -0.03 0 -0.01 -0.02 -0.03 0 0 0 0 0 0 -0.01 -0.03 0 0 0 -0.01c-0.01,-0.01 -0.01,-0.01 -0.01,-0.02l-0.01 -0.01 -0.01 -0.03 0 0c-0.01,-0.01 -0.01,-0.02 -0.02,-0.03l0 0 -0.01 -0.03 -0.01 -0.01 0 0c0,-0.01 -0.01,-0.02 -0.01,-0.03l0 0c-0.01,-0.01 -0.02,-0.02 -0.02,-0.03l0 0c-0.01,-0.01 -0.02,-0.02 -0.02,-0.03l0 0 -0.01 -0.01c-0.01,-0.02 -0.02,-0.04 -0.04,-0.06l0 0 0 0 0 0c-0.01,-0.02 -0.03,-0.04 -0.04,-0.06l0 0c-0.03,-0.03 -0.05,-0.06 -0.08,-0.09l0 0c-0.02,-0.02 -0.04,-0.04 -0.06,-0.06l0 0c-0.08,-0.07 -0.17,-0.14 -0.28,-0.19 -0.01,-0.08 0,-0.16 0.01,-0.23l0.01 -0.01 0 0c0.01,-0.01 0.02,-0.02 0.03,-0.03l0.01 0 0 0 0 -0.01 0.01 -0.01 0.01 0 0.01 -0.01 0 -0.01 0 0 0.02 -0.01 0 -0.01c0.01,-0.01 0.03,-0.02 0.04,-0.03l0 0 0.02 -0.02 0 -0.01c0.03,-0.04 0.07,-0.08 0.11,-0.13l0 0 0 0 0.01 -0.02 0.01 0 0 0c0.01,-0.02 0.02,-0.04 0.03,-0.05l0 0 0.01 -0.03c0.38,0.07 1.41,0.45 1.44,1.51 -0.01,0.01 -0.01,0.01 -0.02,0.02l0 0c-0.02,0.02 -0.03,0.03 -0.05,0.05l0 0 0 0c-0.01,0.01 -0.03,0.03 -0.04,0.04l-0.01 0.01c-0.01,0.01 -0.03,0.02 -0.05,0.04l0 0zm-0.05 0.04l0 0c-0.02,0.02 -0.04,0.03 -0.06,0.04l0 0 0 0.01c-0.02,0.01 -0.04,0.02 -0.05,0.03l-0.01 0.01c-0.01,0.01 -0.03,0.02 -0.05,0.03l0 0 -0.01 0.01c-0.04,0.02 -0.08,0.04 -0.12,0.07l0 0c-0.05,0.02 -0.09,0.04 -0.14,0.07l0 0c-0.04,0.02 -0.09,0.04 -0.14,0.06l0 0zm-0.08 0.03l0 0z"/>
     <polygon class="fil14" points="37.01,20.49 38.08,15.04 42.34,14.02 42.46,14.17 40.83,20.49 "/>
     <polygon class="fil15" points="37.01,20.49 38.08,15.04 42.34,14.02 42.43,14.13 38.31,15.16 37.19,20.49 "/>
     <path class="fil8" d="M41.99 17.46c0,0 -0.52,0.72 -2.5,1.41 0,0 -0.15,-0.8 -0.61,-0.99 -0.45,-0.19 -0.61,-0.61 -0.72,-0.5 -0.11,0.12 -0.19,0.42 0.31,0.88 0,0 0.03,0.11 -0.12,0.07 -0.15,-0.03 -0.87,-0.26 -0.87,-0.3 0,-0.04 0.11,-0.69 0.11,-0.69 0,0 -0.38,0.23 -0.38,0.35 0,0.11 0,0.34 -0.08,0.41 -0.07,0.08 -0.19,0.23 -0.11,0.46 0.08,0.23 -0.08,0.42 -0.04,0.57 0.04,0.15 0.46,0.91 2.28,0.84 0,0 2.97,0.07 3.87,-1.12 0,0 -0.73,-1.16 -1.14,-1.39z"/>
     <path class="fil6" d="M41.57 17.8c0,0 0.95,0.09 1.01,1.54 0,0 0.22,0.11 0.33,-0.04 0.12,-0.15 0.53,-0.17 0.51,-0.41 -0.01,-0.23 -0.1,-1.1 -1.22,-1.58 0,0 -0.2,-0.02 -0.28,0.09 -0.07,0.12 -0.44,0.34 -0.35,0.4z"/>
    </g>
    <g>
     <path class="fil16" d="M34.17 17.19c-0.94,-0.43 -1.55,-1.11 -1.95,-1.77 -0.47,-0.78 -0.7,-1.66 -0.7,-2.56l0 -1.29c0,-0.26 0.24,-0.33 0.51,-0.47l2.12 -0.77 2.14 0.79c0.3,0.08 0.49,0.26 0.49,0.63l0 1.16c0,0.84 -0.2,1.68 -0.62,2.42 -0.02,0.05 -0.05,0.1 -0.08,0.14 -0.24,0.41 -0.58,0.85 -1,1.21 -0.15,0.12 -0.3,0.22 -0.47,0.32 -0.14,0.07 -0.28,0.14 -0.44,0.19z"/>
     <path class="fil17" d="M35.87 11.64l-1.72 -0.64 -1.7 0.63c-0.22,0.1 -0.41,0.17 -0.41,0.38l0 1.03c0,0.72 0.19,1.43 0.56,2.05 0.32,0.53 0.81,1.08 1.57,1.42 0.7,-0.23 1.21,-0.85 1.53,-1.37 0.38,-0.63 0.56,-1.34 0.56,-2.06l0 -0.93c0,-0.3 -0.15,-0.44 -0.39,-0.51z"/>
     <path class="fil18" d="M34.09 12.52l0.12 0c0.15,0 0.27,0.12 0.27,0.26l0 0.48 0.48 0c0.14,0 0.26,0.12 0.26,0.27l0 0.12c0,0.14 -0.12,0.26 -0.26,0.26l-0.48 0 0 0.48c0,0.15 -0.12,0.26 -0.27,0.26l-0.12 0c-0.14,0 -0.26,-0.11 -0.26,-0.26l0 -0.48 -0.48 0c-0.15,0 -0.26,-0.12 -0.26,-0.26l0 -0.12c0,-0.15 0.11,-0.27 0.26,-0.27l0.48 0 0 -0.48c0,-0.14 0.12,-0.26 0.26,-0.26z"/>
    </g>
   </g>
  </g>
  <polygon class="fil19" points="0,0 41.38,0 41.38,20.52 0,20.52 "/>
 </g>
</svg>
