<?xml version="1.0" encoding="UTF-8"?>
<!DOCTYPE svg PUBLIC "-//W3C//DTD SVG 1.1//EN" "http://www.w3.org/Graphics/SVG/1.1/DTD/svg11.dtd">
<!-- Creator: CorelDRAW 2020 (64-Bit) -->
<svg xmlns="http://www.w3.org/2000/svg" xml:space="preserve" width="375px" height="133px" version="1.1" style="shape-rendering:geometricPrecision; text-rendering:geometricPrecision; image-rendering:optimizeQuality; fill-rule:evenodd; clip-rule:evenodd"
viewBox="0 0 49.95 17.67"
 xmlns:xlink="http://www.w3.org/1999/xlink"
 xmlns:xodm="http://www.corel.com/coreldraw/odm/2003">
 <defs>
  <style type="text/css">
   <![CDATA[
    .fil22 {fill:none}
    .fil0 {fill:#F4F6FE}
    .fil2 {fill:#00645D;fill-rule:nonzero}
    .fil11 {fill:#00B3AC;fill-rule:nonzero}
    .fil3 {fill:#111A23;fill-rule:nonzero}
    .fil4 {fill:#2D3F59;fill-rule:nonzero}
    .fil20 {fill:#5273F7;fill-rule:nonzero}
    .fil14 {fill:#7E9CC3;fill-rule:nonzero}
    .fil19 {fill:#829AF9;fill-rule:nonzero}
    .fil9 {fill:#BCBCBC;fill-rule:nonzero}
    .fil1 {fill:#D4DCF7;fill-rule:nonzero}
    .fil6 {fill:#DFDFDF;fill-rule:nonzero}
    .fil16 {fill:#EFEFFB;fill-rule:nonzero}
    .fil5 {fill:#FF6060;fill-rule:nonzero}
    .fil17 {fill:white;fill-rule:nonzero}
    .fil21 {fill:white;fill-rule:nonzero}
    .fil18 {fill:#00B3AC;fill-rule:nonzero;fill-opacity:0.541176}
    .fil13 {fill:#008E8A;fill-rule:nonzero}
    .fil10 {fill:#BCBCBC;fill-rule:nonzero}
    .fil8 {fill:#C1C1C1;fill-rule:nonzero}
    .fil7 {fill:#EFEFEF;fill-rule:nonzero}
    .fil12 {fill:url(#id11);fill-rule:nonzero}
    .fil15 {fill:url(#id12);fill-rule:nonzero}
   ]]>
  </style>
   <clipPath id="id0">
    <path d="M0 0l49.95 0 0 17.67 -49.95 0 0 -17.67z"/>
   </clipPath>
      <mask id="id1">
  <linearGradient id="id2" gradientUnits="userSpaceOnUse" x1="40.6" y1="13.77" x2="40.65" y2="11.15">
   <stop offset="0" style="stop-opacity:1; stop-color:white"/>
   <stop offset="1" style="stop-opacity:0; stop-color:white"/>
  </linearGradient>
       <rect style="fill:url(#id2)" x="32.69" y="8.13" width="15.93" height="5.37"/>
      </mask>
      <mask id="id3">
  <linearGradient id="id4" gradientUnits="userSpaceOnUse" x1="43.94" y1="9.18" x2="41.12" y2="9.28">
   <stop offset="0" style="stop-opacity:1; stop-color:white"/>
   <stop offset="1" style="stop-opacity:0; stop-color:white"/>
  </linearGradient>
       <rect style="fill:url(#id4)" x="39.39" y="8.47" width="6.21" height="1.52"/>
      </mask>
      <mask id="id5">
  <linearGradient id="id6" gradientUnits="userSpaceOnUse" x1="48.07" y1="11.34" x2="45.79" y2="11.29">
   <stop offset="0" style="stop-opacity:1; stop-color:white"/>
   <stop offset="1" style="stop-opacity:0; stop-color:white"/>
  </linearGradient>
       <rect style="fill:url(#id6)" x="45.08" y="11.06" width="2.79" height="0.49"/>
      </mask>
      <mask id="id7">
  <linearGradient id="id8" gradientUnits="userSpaceOnUse" x1="48.1" y1="12.52" x2="46.2" y2="12.53">
   <stop offset="0" style="stop-opacity:1; stop-color:white"/>
   <stop offset="1" style="stop-opacity:0; stop-color:white"/>
  </linearGradient>
       <rect style="fill:url(#id8)" x="45.26" y="11.68" width="3.02" height="1.7"/>
      </mask>
      <mask id="id9">
  <linearGradient id="id10" gradientUnits="userSpaceOnUse" x1="44.8" y1="12.69" x2="43.32" y2="12.48">
   <stop offset="0" style="stop-opacity:1; stop-color:white"/>
   <stop offset="1" style="stop-opacity:0; stop-color:white"/>
  </linearGradient>
       <rect style="fill:url(#id10)" x="43.02" y="12.01" width="1.66" height="1.09"/>
      </mask>
  <linearGradient id="id11" gradientUnits="userSpaceOnUse" x1="40.6" y1="13.77" x2="40.65" y2="11.15">
   <stop offset="0" style="stop-opacity:1; stop-color:#008E8A"/>
   <stop offset="1" style="stop-opacity:1; stop-color:#00B3AC"/>
  </linearGradient>
  <linearGradient id="id12" gradientUnits="userSpaceOnUse" x1="43.94" y1="9.18" x2="41.12" y2="9.28">
   <stop offset="0" style="stop-opacity:1; stop-color:#7E9CC3"/>
   <stop offset="1" style="stop-opacity:1; stop-color:#7E9CC3"/>
  </linearGradient>
 </defs>
 <g id="Слой_x0020_1">
  <metadata id="CorelCorpID_0Corel-Layer"/>
  <polygon class="fil0" points="0,0 49.95,0 49.95,17.67 0,17.67 "/>
  <g style="clip-path:url(#id0)">
   <g id="_2656983625664">
    <path id="1" class="fil1" d="M26 9.3c-0.49,0 -0.92,-0.1 -1.31,-0.3 -0.38,-0.21 -0.69,-0.49 -0.91,-0.85 -0.22,-0.37 -0.33,-0.77 -0.33,-1.23 0,-0.45 0.11,-0.86 0.33,-1.22 0.22,-0.36 0.53,-0.65 0.91,-0.85 0.39,-0.21 0.82,-0.31 1.31,-0.31 0.48,0 0.92,0.1 1.3,0.31 0.39,0.2 0.69,0.49 0.91,0.85 0.22,0.36 0.33,0.77 0.33,1.22 0,0.46 -0.11,0.86 -0.33,1.23 -0.22,0.36 -0.52,0.64 -0.91,0.85 -0.38,0.2 -0.82,0.3 -1.3,0.3zm0 -1.07c0.23,0 0.44,-0.05 0.63,-0.16 0.18,-0.11 0.33,-0.27 0.44,-0.46 0.11,-0.2 0.17,-0.43 0.17,-0.69 0,-0.25 -0.06,-0.48 -0.17,-0.68 -0.11,-0.2 -0.26,-0.35 -0.44,-0.46 -0.19,-0.11 -0.4,-0.17 -0.63,-0.17 -0.23,0 -0.44,0.06 -0.63,0.17 -0.19,0.11 -0.33,0.26 -0.44,0.46 -0.11,0.2 -0.17,0.43 -0.17,0.68 0,0.26 0.06,0.49 0.17,0.69 0.11,0.19 0.25,0.35 0.44,0.46 0.19,0.11 0.4,0.16 0.63,0.16z"/>
    <path id="2" class="fil1" d="M31.58 9.3c-0.48,0 -0.91,-0.1 -1.29,-0.3 -0.38,-0.2 -0.68,-0.49 -0.9,-0.85 -0.22,-0.36 -0.33,-0.77 -0.33,-1.23 0,-0.46 0.11,-0.87 0.33,-1.23 0.22,-0.36 0.52,-0.64 0.9,-0.84 0.38,-0.21 0.81,-0.31 1.29,-0.31 0.42,0 0.8,0.08 1.13,0.22 0.34,0.15 0.62,0.37 0.84,0.64l-0.82 0.75c-0.3,-0.36 -0.66,-0.54 -1.08,-0.54 -0.25,0 -0.47,0.06 -0.67,0.17 -0.19,0.11 -0.34,0.26 -0.45,0.46 -0.11,0.2 -0.16,0.43 -0.16,0.68 0,0.26 0.05,0.49 0.16,0.69 0.11,0.19 0.26,0.35 0.45,0.46 0.2,0.11 0.42,0.16 0.67,0.16 0.42,0 0.78,-0.18 1.08,-0.54l0.82 0.75c-0.22,0.28 -0.5,0.49 -0.84,0.64 -0.33,0.15 -0.71,0.22 -1.13,0.22z"/>
    <path id="3" class="fil1" d="M37.33 8.32l-1.94 0 -0.36 0.89 -1.32 0 2.02 -4.58 1.28 0 2.03 4.58 -1.35 0 -0.36 -0.89zm-0.38 -0.95l-0.59 -1.47 -0.59 1.47 1.18 0z"/>
    <polygon id="4" class="fil1" points="43.02,5.66 40.95,5.66 40.95,9.21 39.67,9.21 39.67,4.63 43.03,4.63 "/>
    <path id="5" class="fil1" d="M45.58 9.3c-0.49,0 -0.92,-0.1 -1.31,-0.3 -0.38,-0.21 -0.69,-0.49 -0.91,-0.85 -0.22,-0.37 -0.33,-0.77 -0.33,-1.23 0,-0.45 0.11,-0.86 0.33,-1.22 0.22,-0.36 0.53,-0.65 0.91,-0.85 0.39,-0.21 0.82,-0.31 1.31,-0.31 0.48,0 0.92,0.1 1.3,0.31 0.39,0.2 0.69,0.49 0.91,0.85 0.22,0.36 0.33,0.77 0.33,1.22 0,0.46 -0.11,0.86 -0.33,1.23 -0.22,0.36 -0.52,0.64 -0.91,0.85 -0.38,0.2 -0.82,0.3 -1.3,0.3zm0 -1.07c0.23,0 0.44,-0.05 0.62,-0.16 0.19,-0.11 0.34,-0.27 0.45,-0.46 0.11,-0.2 0.16,-0.43 0.16,-0.69 0,-0.25 -0.05,-0.48 -0.16,-0.68 -0.11,-0.2 -0.26,-0.35 -0.45,-0.46 -0.18,-0.11 -0.39,-0.17 -0.62,-0.17 -0.24,0 -0.44,0.06 -0.63,0.17 -0.19,0.11 -0.34,0.26 -0.45,0.46 -0.11,0.2 -0.16,0.43 -0.16,0.68 0,0.26 0.05,0.49 0.16,0.69 0.11,0.19 0.26,0.35 0.45,0.46 0.19,0.11 0.39,0.16 0.63,0.16z"/>
    <g>
     <polygon class="fil2" points="33.34,13.09 35.25,13.09 35.25,11.31 33.11,11.31 33.11,12.84 "/>
     <path class="fil3" d="M47.88 12.93c0,0.77 -0.49,1.38 -1.09,1.38 -0.6,0 -1.08,-0.61 -1.08,-1.38 0,-0.76 0.48,-1.38 1.08,-1.38 0.6,0 1.09,0.62 1.09,1.38z"/>
     <polygon class="fil3" points="46.42,14.31 46.79,14.31 46.79,11.55 46.42,11.55 "/>
     <path class="fil3" d="M35.5 12.84c0,0.67 -0.36,1.22 -0.81,1.22 -0.45,0 -0.81,-0.55 -0.81,-1.22 0,-0.68 0.36,-1.23 0.81,-1.23 0.45,0 0.81,0.55 0.81,1.23z"/>
     <polygon class="fil3" points="34.69,14.06 34.13,14.06 34.13,11.61 34.69,11.61 "/>
     <path class="fil3" d="M40.42 12.68c0,0.69 -0.44,1.25 -0.99,1.25 -0.54,0 -0.98,-0.56 -0.98,-1.25 0,-0.69 0.44,-1.26 0.98,-1.26 0.55,0 0.99,0.57 0.99,1.26z"/>
     <polygon class="fil3" points="39.09,13.93 39.43,13.93 39.43,11.42 39.09,11.42 "/>
     <path class="fil4" d="M40.08 12.68c0,0.69 -0.44,1.25 -0.99,1.25 -0.54,0 -0.99,-0.56 -0.99,-1.25 0,-0.69 0.45,-1.26 0.99,-1.26 0.55,0 0.99,0.57 0.99,1.26z"/>
     <polygon class="fil2" points="40.25,13.5 39.73,12.88 39.73,11.61 41.06,11.06 42.19,11.36 42.7,12.93 42.4,13.38 "/>
     <path class="fil3" d="M43.02 12.99c0,0.76 -0.49,1.38 -1.09,1.38 -0.6,0 -1.08,-0.62 -1.08,-1.38 0,-0.76 0.48,-1.38 1.08,-1.38 0.6,0 1.09,0.62 1.09,1.38z"/>
     <polygon class="fil3" points="41.26,14.37 41.93,14.37 41.93,11.61 41.26,11.61 "/>
     <path class="fil5" d="M33.19 10.04c0,0 -0.23,0.08 -0.29,0.17l0 0.4 0.05 0.11 0.37 -0.2 0 -0.43 -0.13 -0.05z"/>
     <path class="fil4" d="M34.94 12.84c0,0.67 -0.36,1.22 -0.81,1.22 -0.45,0 -0.81,-0.55 -0.81,-1.22 0,-0.68 0.36,-1.23 0.81,-1.23 0.45,0 0.81,0.55 0.81,1.23z"/>
     <path class="fil6" d="M34.71 12.84c0,0.48 -0.26,0.88 -0.58,0.88 -0.32,0 -0.59,-0.4 -0.59,-0.88 0,-0.49 0.27,-0.89 0.59,-0.89 0.32,0 0.58,0.4 0.58,0.89z"/>
     <path class="fil7" d="M34.13 12.09c0.31,0 0.56,0.36 0.58,0.81 0,-0.02 0,-0.04 0,-0.06 0,-0.49 -0.26,-0.89 -0.58,-0.89 -0.32,0 -0.59,0.4 -0.59,0.89 0,0.02 0.01,0.04 0.01,0.06 0.02,-0.45 0.27,-0.81 0.58,-0.81z"/>
     <path class="fil8" d="M34.13 13.58c-0.31,0 -0.56,-0.35 -0.58,-0.81 0,0.02 -0.01,0.04 -0.01,0.07 0,0.48 0.27,0.88 0.59,0.88 0.32,0 0.58,-0.4 0.58,-0.88 0,-0.03 0,-0.05 0,-0.07 -0.02,0.46 -0.27,0.81 -0.58,0.81z"/>
     <path class="fil4" d="M42.35 12.99c0,0.76 -0.49,1.38 -1.09,1.38 -0.6,0 -1.08,-0.62 -1.08,-1.38 0,-0.76 0.48,-1.38 1.08,-1.38 0.6,0 1.09,0.62 1.09,1.38z"/>
     <path class="fil6" d="M42.1 12.99c0,0.59 -0.37,1.07 -0.84,1.07 -0.46,0 -0.84,-0.48 -0.84,-1.07 0,-0.59 0.38,-1.06 0.84,-1.06 0.47,0 0.84,0.47 0.84,1.06z"/>
     <path class="fil7" d="M41.26 12.06c0.45,0 0.81,0.44 0.84,1 0,-0.02 0,-0.04 0,-0.07 0,-0.59 -0.37,-1.06 -0.84,-1.06 -0.46,0 -0.84,0.47 -0.84,1.06 0,0.03 0,0.05 0,0.07 0.03,-0.56 0.4,-1 0.84,-1z"/>
     <path class="fil8" d="M41.26 13.93c-0.44,0 -0.81,-0.45 -0.84,-1 0,0.02 0,0.04 0,0.06 0,0.59 0.38,1.07 0.84,1.07 0.47,0 0.84,-0.48 0.84,-1.07 0,-0.02 0,-0.04 0,-0.06 -0.03,0.55 -0.39,1 -0.84,1z"/>
     <path class="fil4" d="M47.5 12.93c0,0.77 -0.48,1.38 -1.08,1.38 -0.6,0 -1.09,-0.61 -1.09,-1.38 0,-0.76 0.49,-1.38 1.09,-1.38 0.6,0 1.08,0.62 1.08,1.38z"/>
     <path class="fil9" d="M47.25 12.93c0,0.59 -0.37,1.06 -0.83,1.06 -0.46,0 -0.83,-0.47 -0.83,-1.06 0,-0.58 0.37,-1.05 0.83,-1.05 0.46,0 0.83,0.47 0.83,1.05z"/>
     <path class="fil10" d="M45.78 13.61l1.28 0c0.09,-0.14 0.16,-0.32 0.18,-0.51l-1.64 0c0.02,0.19 0.08,0.37 0.18,0.51z"/>
     <path class="fil11" d="M33.19 10.04c0,0 0.1,-0.19 0.39,-0.3 0.3,-0.12 0.54,-0.2 0.78,-0.39 0.25,-0.19 1.65,-0.94 2.61,-1.1 0.96,-0.16 2.4,-0.12 2.4,-0.12 0,0 2.81,0.07 3.75,0.42 0.93,0.35 2.69,1.4 2.69,1.4l2.37 1 0.21 0.53 0.23 0.29c0,0 -0.01,0.72 -0.3,1.15l0.24 0.16 -0.11 0.3 -6.05 0c0,0 0,-0.97 -0.42,-1.57 -0.41,-0.59 -0.94,-0.49 -0.94,-0.49 0,0 -0.84,0.16 -0.91,1.26 -0.02,0.46 0.04,0.74 0.12,0.92l-5.13 -0.17c0,0 -0.14,-0.24 -0.19,-0.73 -0.06,-0.49 -0.3,-1.2 -0.89,-1.26 -0.59,-0.06 -0.75,0.78 -0.75,0.78 0,0 -0.07,0.67 0.05,0.97l-0.5 -0.18c0,0 -0.34,-0.74 0,-2.04l0.35 -0.53 0 -0.3z"/>
     <path class="fil12" style="mask:url(#id1)" d="M33.19 10.04c0,0 0.1,-0.19 0.39,-0.3 0.3,-0.12 0.54,-0.2 0.78,-0.39 0.25,-0.19 1.65,-0.94 2.61,-1.1 0.96,-0.16 2.4,-0.12 2.4,-0.12 0,0 2.81,0.07 3.75,0.42 0.93,0.35 2.69,1.4 2.69,1.4l2.37 1 0.21 0.53 0.23 0.29c0,0 -0.01,0.72 -0.3,1.15l0.24 0.16 -0.11 0.3 -6.05 0c0,0 0,-0.97 -0.42,-1.57 -0.41,-0.59 -0.94,-0.49 -0.94,-0.49 0,0 -0.84,0.16 -0.91,1.26 -0.02,0.46 0.04,0.74 0.12,0.92l-5.13 -0.17c0,0 -0.14,-0.24 -0.19,-0.73 -0.06,-0.49 -0.3,-1.2 -0.89,-1.26 -0.59,-0.06 -0.75,0.78 -0.75,0.78 0,0 -0.07,0.67 0.05,0.97l-0.5 -0.18c0,0 -0.34,-0.74 0,-2.04l0.35 -0.53 0 -0.3z"/>
     <path class="fil13" d="M35.04 12.17c0,0.02 0.02,0.05 0.04,0.06 0.21,0.09 1.32,0.54 2.16,0.61 0.95,0.07 2.6,0.23 2.6,0.23 0,0 -2.52,-0.84 -4.73,-0.96 -0.04,0 -0.07,0.02 -0.07,0.06z"/>
     <path class="fil13" d="M32.95 10.72l0.49 0.64c0,0 0.12,-0.25 0.55,-0.3 0.43,-0.06 0.71,0.36 0.71,0.36 0.43,-0.55 1.96,-0.5 3.03,-0.25 1.07,0.24 2.51,0.33 2.51,0.33 0.14,-0.27 0.61,-0.44 0.61,-0.44 -0.06,0.02 -0.16,0 -0.22,0 -0.23,0 -0.46,-0.02 -0.69,-0.05 -0.85,-0.11 -1.67,-0.32 -2.51,-0.42 -0.68,-0.08 -1.37,-0.15 -2.05,-0.21 -0.13,-0.01 -2.19,-0.15 -2.19,-0.16l0 0.12 -0.24 0.38z"/>
     <path class="fil14" d="M34.52 9.5c0,0 0.87,-0.83 2.65,-1.06 1.78,-0.22 2.15,0.34 2.15,0.34l1.26 1.19c0,0 0.3,0.31 -0.32,0.29 -0.63,-0.02 -5.61,-0.52 -5.61,-0.52 0,0 -0.25,-0.04 -0.13,-0.24z"/>
     <path class="fil14" d="M39.39 8.5c0,0 0.94,0.71 1.32,1.09 0.38,0.38 0.91,0.33 0.91,0.33l3.98 0.07c0,0 -1.71,-1.08 -2.66,-1.43 0,0 -1.78,-0.15 -3.55,-0.06z"/>
     <path class="fil15" style="mask:url(#id3)" d="M39.39 8.5c0,0 0.94,0.71 1.32,1.09 0.38,0.38 0.91,0.33 0.91,0.33l3.98 0.07c0,0 -1.71,-1.08 -2.66,-1.43 0,0 -1.78,-0.15 -3.55,-0.06z"/>
     <path class="fil16" d="M40.77 8.86l-0.92 0 0 0c0.29,0.23 0.65,0.53 0.86,0.73 0.33,0.33 0.77,0.33 0.88,0.33 0,0 -0.27,-0.6 -0.38,-0.83 -0.1,-0.22 -0.44,-0.23 -0.44,-0.23z"/>
     <polygon class="fil17" points="48.18,10.95 47.94,11.07 47.94,11.5 48.39,11.48 "/>
     <polygon class="fil17" points="42.19,10.65 44.94,11.08 45.33,11.46 43.07,11.38 "/>
     <path class="fil4" d="M45.08 11.06l0.45 0.4c0,0 1.32,0.18 2.31,0.04l0.03 -0.44c0,0 -0.49,0.29 -2.79,0z"/>
     <path class="fil3" style="mask:url(#id5)" d="M45.08 11.06l0.45 0.4c0,0 1.32,0.18 2.31,0.04l0.03 -0.44c0,0 -0.49,0.29 -2.79,0z"/>
     <path class="fil4" d="M45.26 13.38l0.37 -1.67c0,0 1.82,0.03 2.16,-0.03l0.49 1.7 -3.02 0z"/>
     <path class="fil3" style="mask:url(#id7)" d="M45.26 13.38l0.37 -1.67c0,0 1.82,0.03 2.16,-0.03l0.49 1.7 -3.02 0z"/>
     <path class="fil4" d="M43.31 12.01c0,0 -0.29,0.51 -0.29,1.03l1.31 0.06 0.35 -0.17 -0.39 -0.57 -0.98 -0.35z"/>
     <path class="fil3" style="mask:url(#id9)" d="M43.31 12.01c0,0 -0.29,0.51 -0.29,1.03l1.31 0.06 0.35 -0.17 -0.39 -0.57 -0.98 -0.35z"/>
     <path class="fil16" d="M42.43 9.93l-0.56 -1.07c0,0 1.34,-0.01 2.55,1.11l-1.99 -0.04z"/>
     <path class="fil14" d="M40.89 9.74c-0.01,-0.09 -0.04,-0.23 -0.06,-0.36 -0.02,-0.22 -0.26,-0.25 -0.26,-0.25l-0.39 0 0 0c0.2,0.17 0.4,0.34 0.53,0.46 0.06,0.06 0.12,0.11 0.18,0.15z"/>
     <path class="fil16" d="M38.07 8.9c-0.24,0.46 -0.25,1.15 -0.25,1.15 1.12,0.1 2.17,0.2 2.44,0.21 0.06,0 0.12,0 0.17,0 -0.56,-1.29 -2.36,-1.36 -2.36,-1.36z"/>
     <path class="fil4" d="M39.73 9.16c0,0 -0.1,0.55 -0.07,1.06 0.28,0.02 0.5,0.04 0.6,0.04 0.62,0.02 0.32,-0.29 0.32,-0.29l-0.85 -0.81z"/>
     <path class="fil16" d="M37.25 9.99l0.04 -1.17c-0.87,0.1 -1.49,0.35 -1.72,0.46 -0.24,0.11 -0.32,0.52 -0.32,0.52 0.49,0.05 1.23,0.12 2,0.19z"/>
     <path class="fil4" d="M34.94 9.77c-0.04,-0.31 0.1,-0.63 0.1,-0.64 -0.35,0.2 -0.52,0.37 -0.52,0.37 -0.12,0.2 0.13,0.24 0.13,0.24 0,0 0.11,0.01 0.29,0.03z"/>
     <path class="fil14" d="M36.49 9.23c0,0 -0.31,-0.06 -0.54,0.05 -0.22,0.11 -0.29,0.56 -0.29,0.56l0 0c0.27,0.02 0.57,0.05 0.9,0.09 0.13,-0.62 -0.07,-0.7 -0.07,-0.7z"/>
     <g>
      <path class="fil11" d="M40.17 13.25c-0.31,-0.01 -0.63,-0.03 -0.94,-0.04 -0.31,-0.01 -0.63,-0.03 -0.94,-0.04 -0.63,-0.04 -1.25,-0.08 -1.88,-0.14 -0.08,-0.01 -0.15,-0.02 -0.23,-0.03l-0.12 -0.01c-0.04,-0.01 -0.08,-0.01 -0.11,-0.02l-0.12 -0.02c-0.04,-0.01 -0.08,-0.02 -0.12,-0.03 -0.07,-0.01 -0.15,-0.04 -0.22,-0.08 -0.14,-0.08 -0.25,-0.2 -0.34,-0.33 -0.09,-0.13 -0.17,-0.27 -0.24,-0.41 -0.12,-0.29 -0.21,-0.59 -0.27,-0.9 -0.06,-0.31 -0.09,-0.63 -0.08,-0.94l0 0 0 0 0.26 -0.51 -0.25 0.51 0 0c0,0.16 0.01,0.31 0.02,0.47 0.02,0.16 0.04,0.31 0.07,0.46 0.06,0.31 0.15,0.61 0.28,0.9 0.07,0.14 0.14,0.28 0.23,0.4 0.1,0.13 0.21,0.24 0.34,0.32 0.06,0.04 0.13,0.07 0.21,0.08 0.04,0.01 0.08,0.02 0.12,0.03l0.11 0.02c0.04,0 0.08,0.01 0.12,0.01l0.11 0.02c0.08,0.01 0.16,0.02 0.24,0.03 0.62,0.06 1.25,0.1 1.87,0.14 0.31,0.02 0.63,0.04 0.94,0.06 0.31,0.01 0.63,0.03 0.94,0.05z"/>
     </g>
     <g>
      <path class="fil11" d="M37.19 9.99l-0.08 0.28c-0.02,0.09 -0.05,0.19 -0.07,0.28l0 0 0.01 0.32 0 0.31c0.01,0.21 0.01,0.42 0.01,0.63 0,0.21 0,0.42 0,0.63 0,0.11 0,0.21 0,0.32 0.01,0.1 0.02,0.21 0.02,0.31 -0.01,-0.1 -0.02,-0.21 -0.03,-0.31 0,-0.11 -0.01,-0.21 -0.01,-0.32 -0.01,-0.21 -0.01,-0.42 -0.01,-0.63 -0.01,-0.21 -0.01,-0.42 -0.01,-0.63l0 -0.31 0 -0.32 0 0 0 0c0.02,-0.1 0.05,-0.19 0.08,-0.28l0.09 -0.28z"/>
     </g>
     <g>
      <path class="fil11" d="M40.2 10.26l-0.16 0.3 0 0c-0.03,0.22 -0.05,0.44 -0.08,0.66 -0.02,0.23 -0.04,0.45 -0.06,0.67 -0.01,0.23 -0.02,0.45 -0.04,0.67 -0.01,0.23 -0.01,0.45 -0.01,0.67 -0.01,-0.22 -0.02,-0.45 -0.01,-0.67 0,-0.22 0.02,-0.45 0.03,-0.67 0.02,-0.22 0.04,-0.45 0.06,-0.67 0.03,-0.22 0.06,-0.44 0.09,-0.66l0 -0.01 0 0 0.18 -0.29z"/>
     </g>
     <g>
      <path class="fil2" d="M41.18 9.87c0,0.07 0.02,0.14 0.05,0.2 0.04,0.06 0.09,0.11 0.16,0.14 0.01,0 0.03,0.01 0.04,0.02l0.06 0.01 0.1 0.03 0.21 0.05c0.14,0.03 0.27,0.07 0.41,0.1 0.14,0.04 0.28,0.08 0.42,0.11l0 0.01 0 0c0,0.06 0,0.12 0,0.18 -0.01,-0.06 -0.01,-0.12 -0.01,-0.18l0 0.01c-0.14,-0.03 -0.28,-0.07 -0.41,-0.1 -0.14,-0.03 -0.28,-0.06 -0.42,-0.1l-0.21 -0.05c-0.03,-0.01 -0.07,-0.02 -0.1,-0.03l-0.05 -0.02c-0.02,0 -0.04,-0.01 -0.05,-0.02 -0.07,-0.03 -0.13,-0.09 -0.16,-0.15 -0.03,-0.07 -0.05,-0.14 -0.04,-0.21z"/>
     </g>
     <path class="fil4" d="M37.03 9.97c0.16,0.02 0.33,0.03 0.5,0.05 0,0 0.05,-1.02 0.29,-1.63 -0.11,0 -0.24,0.01 -0.37,0.02 0,0 -0.4,0.9 -0.42,1.56z"/>
     <path class="fil4" d="M39.62 10.09c0,0 0.01,0.14 0.11,0.2 0,0 0.03,0.15 -0.11,0.22 -0.05,0.02 -0.1,0.03 -0.14,0.02 -0.06,-0.02 -0.11,-0.06 -0.14,-0.12 -0.04,-0.07 -0.12,-0.19 -0.29,-0.19l0.38 -0.17 0.19 0.04z"/>
     <path class="fil18" d="M41.62 9.92c0,0 1.37,0.32 2.41,0.73 1.05,0.41 2.39,0.44 2.39,0.44 0,0 1.25,0.06 1.45,-0.28l-1.96 -0.82 -4.29 -0.07z"/>
     <path class="fil11" d="M39.6 10.09c0.06,-0.01 0.1,-0.08 0.07,-0.14 -0.04,-0.12 -0.14,-0.32 -0.35,-0.41 -0.32,-0.13 -0.84,0.24 -0.84,0.24 0,0 0.02,0.3 0.24,0.41 0.17,0.08 0.66,-0.04 0.88,-0.1z"/>
     <path class="fil13" d="M39.67 9.94c-0.01,0.02 -0.04,0.05 -0.07,0.05 -0.22,0.06 -0.71,0.18 -0.88,0.1 -0.14,-0.07 -0.2,-0.22 -0.23,-0.32 -0.01,0.01 -0.01,0.01 -0.01,0.01 0,0 0.02,0.3 0.24,0.41 0.17,0.08 0.66,-0.04 0.88,-0.1 0.06,-0.01 0.1,-0.08 0.07,-0.14 0,0 0,-0.01 0,-0.01z"/>
    </g>
    <path class="fil19" d="M28.8 13.7c-1.2,-0.54 -1.97,-1.4 -2.47,-2.23 -0.6,-0.99 -0.88,-2.11 -0.88,-3.24l0 -1.63c0,-0.33 0.3,-0.43 0.64,-0.59l2.68 -0.99 2.71 1c0.37,0.11 0.61,0.34 0.61,0.81l0 1.46c0,1.06 -0.25,2.12 -0.78,3.06 -0.03,0.06 -0.06,0.12 -0.1,0.18 -0.31,0.51 -0.73,1.08 -1.27,1.52 -0.18,0.15 -0.38,0.29 -0.59,0.41 -0.18,0.09 -0.36,0.18 -0.55,0.24z"/>
    <path class="fil20" d="M30.94 6.68l-2.17 -0.8 -2.15 0.79c-0.28,0.13 -0.52,0.21 -0.52,0.47l0 1.31c0,0.91 0.23,1.81 0.71,2.6 0.4,0.67 1.02,1.36 1.98,1.79 0.88,-0.29 1.54,-1.07 1.94,-1.74 0.47,-0.79 0.71,-1.69 0.71,-2.6l0 -1.17c0,-0.38 -0.2,-0.56 -0.5,-0.65z"/>
    <path class="fil21" d="M28.77 10.76c-0.29,0 -0.55,-0.07 -0.78,-0.2 -0.24,-0.14 -0.42,-0.32 -0.55,-0.56 -0.13,-0.23 -0.2,-0.5 -0.2,-0.79 0,-0.3 0.07,-0.56 0.2,-0.8 0.13,-0.24 0.31,-0.42 0.55,-0.55 0.23,-0.14 0.49,-0.2 0.78,-0.2 0.29,0 0.55,0.06 0.78,0.2 0.23,0.13 0.42,0.31 0.55,0.55 0.13,0.24 0.2,0.5 0.2,0.8 0,0.29 -0.07,0.56 -0.2,0.79 -0.13,0.24 -0.32,0.42 -0.55,0.56 -0.23,0.13 -0.49,0.2 -0.78,0.2zm0 -0.7c0.14,0 0.26,-0.04 0.38,-0.11 0.11,-0.07 0.2,-0.17 0.26,-0.3 0.07,-0.13 0.1,-0.28 0.1,-0.44 0,-0.17 -0.03,-0.32 -0.1,-0.45 -0.06,-0.13 -0.15,-0.23 -0.26,-0.3 -0.12,-0.07 -0.24,-0.1 -0.38,-0.1 -0.14,0 -0.27,0.03 -0.38,0.1 -0.11,0.07 -0.2,0.17 -0.27,0.3 -0.06,0.13 -0.09,0.28 -0.09,0.45 0,0.16 0.03,0.31 0.09,0.44 0.07,0.13 0.16,0.23 0.27,0.3 0.11,0.07 0.24,0.11 0.38,0.11z"/>
   </g>
  </g>
  <polygon class="fil22" points="0,0 49.95,0 49.95,17.67 0,17.67 "/>
 </g>
</svg>
