<?xml version="1.0" encoding="UTF-8"?>
<!DOCTYPE svg PUBLIC "-//W3C//DTD SVG 1.1//EN" "http://www.w3.org/Graphics/SVG/1.1/DTD/svg11.dtd">
<!-- Creator: CorelDRAW 2020 (64-Bit) -->
<svg xmlns="http://www.w3.org/2000/svg" xml:space="preserve" width="799px" height="299px" version="1.1" style="shape-rendering:geometricPrecision; text-rendering:geometricPrecision; image-rendering:optimizeQuality; fill-rule:evenodd; clip-rule:evenodd"
viewBox="0 0 97.21 36.36"
 xmlns:xlink="http://www.w3.org/1999/xlink"
 xmlns:xodm="http://www.corel.com/coreldraw/odm/2003">
 <defs>
  <style type="text/css">
   <![CDATA[
    .fil3 {fill:#00645D;fill-rule:nonzero}
    .fil12 {fill:#00B3AC;fill-rule:nonzero}
    .fil4 {fill:#111A23;fill-rule:nonzero}
    .fil5 {fill:#2D3F59;fill-rule:nonzero}
    .fil21 {fill:#5273F7;fill-rule:nonzero}
    .fil15 {fill:#7E9CC3;fill-rule:nonzero}
    .fil20 {fill:#829AF9;fill-rule:nonzero}
    .fil10 {fill:#BCBCBC;fill-rule:nonzero}
    .fil0 {fill:#D4DCF7;fill-rule:nonzero}
    .fil7 {fill:#DFDFDF;fill-rule:nonzero}
    .fil17 {fill:#EFEFFB;fill-rule:nonzero}
    .fil6 {fill:#FF6060;fill-rule:nonzero}
    .fil18 {fill:white;fill-rule:nonzero}
    .fil22 {fill:white;fill-rule:nonzero}
    .fil19 {fill:#00B3AC;fill-rule:nonzero;fill-opacity:0.541176}
    .fil14 {fill:#008E8A;fill-rule:nonzero}
    .fil11 {fill:#BCBCBC;fill-rule:nonzero}
    .fil9 {fill:#C1C1C1;fill-rule:nonzero}
    .fil8 {fill:#EFEFEF;fill-rule:nonzero}
    .fil2 {fill:url(#id10);fill-rule:nonzero}
    .fil16 {fill:url(#id11);fill-rule:nonzero}
    .fil13 {fill:url(#id12);fill-rule:nonzero}
    .fil1 {fill:url(#id13);fill-rule:nonzero}
   ]]>
  </style>
    <mask id="id0">
  <linearGradient id="id1" gradientUnits="userSpaceOnUse" x1="58.06" y1="30.72" x2="58.22" y2="22.49">
   <stop offset="0" style="stop-opacity:1; stop-color:white"/>
   <stop offset="1" style="stop-opacity:0; stop-color:white"/>
  </linearGradient>
     <rect style="fill:url(#id1)" x="33.19" y="12.97" width="50.1" height="16.93"/>
    </mask>
    <mask id="id2">
  <linearGradient id="id3" gradientUnits="userSpaceOnUse" x1="68.58" y1="16.29" x2="59.7" y2="16.59">
   <stop offset="0" style="stop-opacity:1; stop-color:white"/>
   <stop offset="1" style="stop-opacity:0; stop-color:white"/>
  </linearGradient>
     <rect style="fill:url(#id3)" x="54.24" y="14.05" width="19.55" height="4.79"/>
    </mask>
    <mask id="id4">
  <linearGradient id="id5" gradientUnits="userSpaceOnUse" x1="81.53" y1="23.08" x2="74.38" y2="22.93">
   <stop offset="0" style="stop-opacity:1; stop-color:white"/>
   <stop offset="1" style="stop-opacity:0; stop-color:white"/>
  </linearGradient>
     <rect style="fill:url(#id5)" x="72.13" y="22.17" width="8.81" height="1.6"/>
    </mask>
    <mask id="id6">
  <linearGradient id="id7" gradientUnits="userSpaceOnUse" x1="81.65" y1="26.79" x2="75.66" y2="26.83">
   <stop offset="0" style="stop-opacity:1; stop-color:white"/>
   <stop offset="1" style="stop-opacity:0; stop-color:white"/>
  </linearGradient>
     <rect style="fill:url(#id7)" x="72.7" y="24.12" width="9.52" height="5.39"/>
    </mask>
    <mask id="id8">
  <linearGradient id="id9" gradientUnits="userSpaceOnUse" x1="71.27" y1="27.31" x2="66.63" y2="26.66">
   <stop offset="0" style="stop-opacity:1; stop-color:white"/>
   <stop offset="1" style="stop-opacity:0; stop-color:white"/>
  </linearGradient>
     <rect style="fill:url(#id9)" x="65.66" y="25.17" width="5.23" height="3.45"/>
    </mask>
  <linearGradient id="id10" gradientUnits="userSpaceOnUse" x1="90.95" y1="12.81" x2="96.64" y2="-3.9">
   <stop offset="0" style="stop-opacity:1; stop-color:#9AA6D7"/>
   <stop offset="1" style="stop-opacity:1; stop-color:#925FF2"/>
  </linearGradient>
  <linearGradient id="id11" gradientUnits="userSpaceOnUse" x1="68.58" y1="16.29" x2="59.7" y2="16.59">
   <stop offset="0" style="stop-opacity:1; stop-color:#7E9CC3"/>
   <stop offset="1" style="stop-opacity:1; stop-color:#7E9CC3"/>
  </linearGradient>
  <linearGradient id="id12" gradientUnits="userSpaceOnUse" x1="58.06" y1="30.72" x2="58.22" y2="22.49">
   <stop offset="0" style="stop-opacity:1; stop-color:#008E8A"/>
   <stop offset="1" style="stop-opacity:1; stop-color:#00B3AC"/>
  </linearGradient>
  <linearGradient id="id13" gradientUnits="userSpaceOnUse" xlink:href="#id10" x1="5.82" y1="41.53" x2="11" y2="26.3">
  </linearGradient>
 </defs>
 <g id="Слой_x0020_1">
  <metadata id="CorelCorpID_0Corel-Layer"/>
  <path class="fil0" d="M12.18 16.68c-1.52,0 -2.89,-0.33 -4.1,-0.97 -1.21,-0.64 -2.17,-1.53 -2.86,-2.67 -0.69,-1.14 -1.04,-2.42 -1.04,-3.85 0,-1.42 0.35,-2.7 1.04,-3.84 0.69,-1.14 1.65,-2.03 2.86,-2.67 1.21,-0.65 2.58,-0.97 4.1,-0.97 1.52,0 2.89,0.32 4.1,0.97 1.22,0.64 2.17,1.53 2.86,2.67 0.69,1.14 1.04,2.42 1.04,3.84 0,1.43 -0.35,2.71 -1.04,3.85 -0.69,1.14 -1.64,2.03 -2.86,2.67 -1.21,0.64 -2.58,0.97 -4.1,0.97zm0 -3.37c0.73,0 1.39,-0.18 1.97,-0.52 0.59,-0.34 1.06,-0.82 1.4,-1.45 0.35,-0.62 0.52,-1.34 0.52,-2.15 0,-0.8 -0.17,-1.52 -0.52,-2.14 -0.34,-0.63 -0.81,-1.11 -1.4,-1.45 -0.58,-0.35 -1.24,-0.52 -1.97,-0.52 -0.73,0 -1.38,0.17 -1.97,0.52 -0.59,0.34 -1.06,0.82 -1.4,1.45 -0.34,0.62 -0.51,1.34 -0.51,2.14 0,0.81 0.17,1.53 0.51,2.15 0.34,0.63 0.81,1.11 1.4,1.45 0.59,0.34 1.24,0.52 1.97,0.52z"/>
  <path id="1" class="fil0" d="M29.73 16.68c-1.51,0 -2.86,-0.32 -4.06,-0.96 -1.2,-0.64 -2.15,-1.52 -2.83,-2.66 -0.69,-1.14 -1.03,-2.43 -1.03,-3.87 0,-1.44 0.34,-2.72 1.03,-3.86 0.68,-1.14 1.63,-2.03 2.83,-2.66 1.2,-0.64 2.55,-0.96 4.06,-0.96 1.31,0 2.5,0.23 3.55,0.7 1.06,0.47 1.93,1.14 2.63,2.01l-2.59 2.35c-0.93,-1.13 -2.06,-1.69 -3.39,-1.69 -0.78,0 -1.48,0.17 -2.09,0.52 -0.6,0.34 -1.08,0.82 -1.41,1.45 -0.34,0.62 -0.51,1.34 -0.51,2.14 0,0.81 0.17,1.53 0.51,2.15 0.33,0.63 0.81,1.11 1.41,1.45 0.61,0.34 1.31,0.52 2.09,0.52 1.33,0 2.46,-0.57 3.39,-1.69l2.59 2.34c-0.7,0.88 -1.57,1.55 -2.63,2.02 -1.05,0.46 -2.24,0.7 -3.55,0.7z"/>
  <path id="2" class="fil0" d="M47.78 13.59l-6.08 0 -1.13 2.8 -4.15 0 6.35 -14.39 4.01 0 6.37 14.39 -4.23 0 -1.14 -2.8zm-1.19 -3l-1.85 -4.6 -1.85 4.6 3.7 0z"/>
  <polygon id="3" class="fil0" points="65.68,5.23 59.16,5.23 59.16,16.39 55.15,16.39 55.15,2 65.7,2 "/>
  <path id="4" class="fil0" d="M73.71 16.68c-1.53,0 -2.89,-0.33 -4.11,-0.97 -1.21,-0.64 -2.16,-1.53 -2.85,-2.67 -0.7,-1.14 -1.04,-2.42 -1.04,-3.85 0,-1.42 0.34,-2.7 1.04,-3.84 0.69,-1.14 1.64,-2.03 2.85,-2.67 1.22,-0.65 2.58,-0.97 4.11,-0.97 1.52,0 2.88,0.32 4.1,0.97 1.21,0.64 2.16,1.53 2.85,2.67 0.7,1.14 1.04,2.42 1.04,3.84 0,1.43 -0.34,2.71 -1.04,3.85 -0.69,1.14 -1.64,2.03 -2.85,2.67 -1.22,0.64 -2.58,0.97 -4.1,0.97zm0 -3.37c0.72,0 1.38,-0.18 1.97,-0.52 0.59,-0.34 1.05,-0.82 1.4,-1.45 0.34,-0.62 0.51,-1.34 0.51,-2.15 0,-0.8 -0.17,-1.52 -0.51,-2.14 -0.35,-0.63 -0.81,-1.11 -1.4,-1.45 -0.59,-0.35 -1.25,-0.52 -1.97,-0.52 -0.73,0 -1.39,0.17 -1.98,0.52 -0.59,0.34 -1.05,0.82 -1.4,1.45 -0.34,0.62 -0.51,1.34 -0.51,2.14 0,0.81 0.17,1.53 0.51,2.15 0.35,0.63 0.81,1.11 1.4,1.45 0.59,0.34 1.25,0.52 1.98,0.52z"/>
  <path class="fil1" d="M10.58 32.46l-1.66 -1.66c0.66,0.43 1.22,1 1.66,1.66zm-10.53 3.9c-0.01,-0.04 -0.01,-0.08 -0.02,-0.12l0.12 0.12 -0.1 0zm0.62 0l-0.67 -0.67c0,-0.02 0,-0.05 0,-0.07l0 0c0,-0.08 0,-0.15 0,-0.22l0.96 0.96 -0.29 0zm0.81 0l-1.44 -1.44c0.01,-0.09 0.02,-0.17 0.04,-0.26l1.69 1.7 -0.29 0zm0.81 0l-2.12 -2.13c0.02,-0.08 0.04,-0.15 0.06,-0.23l2.35 2.36 -0.29 0zm0.81 0l-2.74 -2.75c0.03,-0.07 0.05,-0.14 0.08,-0.21l2.96 2.96 -0.3 0zm0.82 0l-3.31 -3.32c0.03,-0.06 0.06,-0.12 0.1,-0.19l3.5 3.51 -0.29 0zm0.81 0l-3.83 -3.83c0.04,-0.06 0.08,-0.12 0.12,-0.18l4 4.01 -0.29 0zm0.81 0l-4.3 -4.31c0.04,-0.05 0.08,-0.11 0.13,-0.16l4.46 4.47 -0.29 0zm0.81 0l-4.74 -4.74c0.05,-0.05 0.1,-0.1 0.15,-0.15l4.89 4.89 -0.3 0zm0.82 0l-5.14 -5.14c0.06,-0.04 0.11,-0.08 0.16,-0.13l5.27 5.27 -0.29 0zm0.81 0l-5.49 -5.49c0.06,-0.04 0.12,-0.08 0.18,-0.11l5.6 5.6 -0.29 0zm0.81 0l-5.79 -5.8c0.06,-0.03 0.12,-0.07 0.19,-0.1l5.89 5.9 -0.29 0zm0.81 0l-6.06 -6.06c0.07,-0.03 0.14,-0.06 0.21,-0.08l6.14 6.14 -0.29 0zm0.81 0l-6.27 -6.27c0.08,-0.03 0.16,-0.05 0.24,-0.07l6.33 6.34 -0.3 0zm0.82 0l-6.42 -6.42c0.08,-0.02 0.17,-0.03 0.25,-0.04l6.42 6.42 -0.01 0.04 -0.24 0zm0.29 -0.53l-5.98 -5.97c0.08,0 0.15,0 0.22,0 0.02,0 0.05,0 0.07,0l5.69 5.68c0,0.03 0,0.05 0,0.08 0,0.07 0,0.14 0,0.21zm-0.03 -0.84l-5.1 -5.1c0.11,0.01 0.22,0.03 0.33,0.05l4.72 4.71c0.02,0.11 0.03,0.23 0.05,0.34zm-0.21 -1.01l-3.88 -3.89c0.15,0.05 0.3,0.1 0.45,0.16l3.28 3.28c0.06,0.15 0.11,0.3 0.15,0.45z"/>
  <path class="fil2" d="M96.17 2.86l-1.82 -1.82c0.73,0.47 1.35,1.09 1.82,1.82zm-10.57 6.93l1.82 1.82c-0.73,-0.47 -1.35,-1.1 -1.82,-1.82zm3 2.43l-3.61 -3.61c-0.06,-0.16 -0.12,-0.32 -0.17,-0.49l4.26 4.27c-0.16,-0.05 -0.32,-0.11 -0.48,-0.17zm1.23 0.34l-5.18 -5.18c-0.02,-0.12 -0.04,-0.25 -0.05,-0.37l5.6 5.6c-0.13,-0.01 -0.25,-0.03 -0.37,-0.05zm0.98 0.09l-6.25 -6.25c0,-0.02 0,-0.05 0,-0.08l0 0c0,-0.08 0,-0.16 0.01,-0.23l6.55 6.55c-0.08,0 -0.15,0.01 -0.23,0.01 -0.03,0 -0.06,0 -0.08,0zm0.84 -0.05l-7.04 -7.04c0.01,-0.1 0.02,-0.19 0.04,-0.28l7.28 7.28c-0.09,0.02 -0.18,0.03 -0.28,0.04zm0.76 -0.14l-7.66 -7.66c0.02,-0.08 0.04,-0.17 0.06,-0.25l7.85 7.84c-0.08,0.03 -0.17,0.05 -0.25,0.07zm0.68 -0.21l-8.13 -8.13c0.03,-0.08 0.06,-0.15 0.09,-0.23l8.27 8.27c-0.08,0.03 -0.15,0.06 -0.23,0.09zm0.62 -0.27l-8.48 -8.48c0.03,-0.07 0.07,-0.14 0.11,-0.21l8.58 8.58c-0.07,0.04 -0.14,0.08 -0.21,0.11zm0.57 -0.32l-8.73 -8.73c0.04,-0.06 0.08,-0.13 0.13,-0.19l8.79 8.79c-0.06,0.05 -0.13,0.09 -0.19,0.13zm0.52 -0.37l-8.88 -8.88c0.05,-0.06 0.09,-0.12 0.14,-0.18l8.92 8.91c-0.06,0.05 -0.12,0.1 -0.18,0.15zm0.48 -0.42l-8.94 -8.94c0.05,-0.05 0.1,-0.1 0.16,-0.16l8.94 8.94c-0.06,0.06 -0.11,0.11 -0.16,0.16zm0.43 -0.46l-8.91 -8.91c0.05,-0.05 0.11,-0.1 0.17,-0.14l8.88 8.88c-0.05,0.06 -0.09,0.12 -0.14,0.17zm0.38 -0.5l-8.79 -8.8c0.06,-0.04 0.13,-0.08 0.19,-0.12l8.73 8.73c-0.04,0.06 -0.08,0.13 -0.13,0.19zm0.34 -0.55l-8.58 -8.59c0.07,-0.03 0.14,-0.07 0.21,-0.11l8.48 8.49c-0.03,0.07 -0.07,0.14 -0.11,0.21zm0.29 -0.6l-8.27 -8.27c0.08,-0.04 0.16,-0.07 0.23,-0.1l8.13 8.14c-0.02,0.07 -0.05,0.15 -0.09,0.23zm0.24 -0.66l-7.85 -7.85c0.09,-0.02 0.17,-0.04 0.26,-0.07l7.65 7.66c-0.02,0.09 -0.04,0.17 -0.06,0.26zm0.16 -0.73l-7.28 -7.28c0.09,-0.02 0.18,-0.03 0.28,-0.04l7.04 7.04c-0.01,0.09 -0.02,0.19 -0.04,0.28zm0.08 -0.81l-6.55 -6.56c0.08,0 0.16,0 0.24,0 0.02,0 0.05,0 0.08,0l6.24 6.24c0,0.03 0,0.06 0,0.08 0,0.08 0,0.16 -0.01,0.24zm-0.03 -0.92l-5.6 -5.6c0.13,0.01 0.25,0.03 0.37,0.05l5.18 5.17c0.02,0.13 0.04,0.25 0.05,0.38zm-0.22 -1.12l-4.26 -4.26c0.16,0.05 0.33,0.11 0.48,0.17l3.61 3.6c0.06,0.16 0.12,0.33 0.17,0.49z"/>
  <g id="_1825511881920">
   <polygon class="fil3" points="35.24,28.57 41.24,28.57 41.24,22.97 34.53,22.97 34.53,27.78 "/>
   <path class="fil4" d="M80.95 28.09c0,2.39 -1.53,4.33 -3.42,4.33 -1.89,0 -3.41,-1.94 -3.41,-4.33 0,-2.4 1.52,-4.34 3.41,-4.34 1.89,0 3.42,1.94 3.42,4.34z"/>
   <polygon class="fil4" points="76.35,32.42 77.53,32.42 77.53,23.75 76.35,23.75 "/>
   <path class="fil4" d="M42.03 27.78c0,2.12 -1.14,3.84 -2.54,3.84 -1.41,0 -2.54,-1.72 -2.54,-3.84 0,-2.12 1.13,-3.85 2.54,-3.85 1.4,0 2.54,1.73 2.54,3.85z"/>
   <polygon class="fil4" points="39.49,31.62 37.73,31.62 37.73,23.93 39.49,23.93 "/>
   <path class="fil4" d="M57.51 27.28c0,2.18 -1.39,3.95 -3.11,3.95 -1.71,0 -3.1,-1.77 -3.1,-3.95 0,-2.18 1.39,-3.94 3.1,-3.94 1.72,0 3.11,1.76 3.11,3.94z"/>
   <polygon class="fil4" points="53.33,31.23 54.4,31.23 54.4,23.34 53.33,23.34 "/>
   <path class="fil5" d="M56.43 27.28c0,2.18 -1.39,3.95 -3.1,3.95 -1.72,0 -3.11,-1.77 -3.11,-3.95 0,-2.18 1.39,-3.94 3.11,-3.94 1.71,0 3.1,1.76 3.1,3.94z"/>
   <polygon class="fil3" points="56.98,29.88 55.34,27.93 55.34,23.93 59.53,22.19 63.07,23.15 64.67,28.09 63.74,29.49 "/>
   <path class="fil4" d="M65.68 28.27c0,2.4 -1.53,4.34 -3.42,4.34 -1.88,0 -3.41,-1.94 -3.41,-4.34 0,-2.39 1.53,-4.34 3.41,-4.34 1.89,0 3.42,1.95 3.42,4.34z"/>
   <polygon class="fil4" points="60.15,32.61 62.26,32.61 62.26,23.93 60.15,23.93 "/>
   <path class="fil6" d="M34.79 18.99c0,0 -0.75,0.26 -0.92,0.53l0 1.27 0.14 0.33 1.18 -0.63 0 -1.34 -0.4 -0.16z"/>
   <path class="fil5" d="M40.27 27.78c0,2.12 -1.14,3.84 -2.54,3.84 -1.4,0 -2.54,-1.72 -2.54,-3.84 0,-2.12 1.14,-3.85 2.54,-3.85 1.4,0 2.54,1.73 2.54,3.85z"/>
   <path class="fil7" d="M39.56 27.78c0,1.53 -0.82,2.77 -1.83,2.77 -1.01,0 -1.83,-1.24 -1.83,-2.77 0,-1.53 0.82,-2.77 1.83,-2.77 1.01,0 1.83,1.24 1.83,2.77z"/>
   <path class="fil8" d="M37.73 25.43c0.97,0 1.76,1.13 1.83,2.56 0,-0.07 0,-0.14 0,-0.21 0,-1.53 -0.82,-2.77 -1.83,-2.77 -1.01,0 -1.83,1.24 -1.83,2.77 0,0.07 0,0.14 0,0.21 0.07,-1.43 0.86,-2.56 1.83,-2.56z"/>
   <path class="fil9" d="M37.73 30.13c-0.97,0 -1.76,-1.13 -1.83,-2.56 0,0.07 0,0.14 0,0.21 0,1.53 0.82,2.77 1.83,2.77 1.01,0 1.83,-1.24 1.83,-2.77 0,-0.07 0,-0.14 0,-0.21 -0.07,1.43 -0.86,2.56 -1.83,2.56z"/>
   <path class="fil5" d="M63.56 28.27c0,2.4 -1.53,4.34 -3.41,4.34 -1.89,0 -3.42,-1.94 -3.42,-4.34 0,-2.39 1.53,-4.34 3.42,-4.34 1.88,0 3.41,1.95 3.41,4.34z"/>
   <path class="fil7" d="M62.79 28.27c0,1.85 -1.18,3.35 -2.64,3.35 -1.46,0 -2.64,-1.5 -2.64,-3.35 0,-1.85 1.18,-3.35 2.64,-3.35 1.46,0 2.64,1.5 2.64,3.35z"/>
   <path class="fil8" d="M60.15 25.34c1.4,0 2.55,1.39 2.63,3.14 0.01,-0.07 0.01,-0.14 0.01,-0.21 0,-1.85 -1.18,-3.35 -2.64,-3.35 -1.46,0 -2.64,1.5 -2.64,3.35 0,0.07 0,0.14 0,0.21 0.09,-1.75 1.24,-3.14 2.64,-3.14z"/>
   <path class="fil9" d="M60.15 31.2c-1.4,0 -2.55,-1.39 -2.64,-3.14 0,0.07 0,0.14 0,0.21 0,1.85 1.18,3.35 2.64,3.35 1.46,0 2.64,-1.5 2.64,-3.35 0,-0.07 0,-0.14 -0.01,-0.21 -0.08,1.75 -1.23,3.14 -2.63,3.14z"/>
   <path class="fil5" d="M79.76 28.09c0,2.39 -1.53,4.33 -3.41,4.33 -1.89,0 -3.42,-1.94 -3.42,-4.33 0,-2.4 1.53,-4.34 3.42,-4.34 1.88,0 3.41,1.94 3.41,4.34z"/>
   <path class="fil10" d="M78.96 28.09c0,1.83 -1.17,3.32 -2.61,3.32 -1.45,0 -2.62,-1.49 -2.62,-3.32 0,-1.83 1.17,-3.32 2.62,-3.32 1.44,0 2.61,1.49 2.61,3.32z"/>
   <path class="fil11" d="M74.34 30.21l4.01 0c0.3,-0.45 0.51,-1 0.58,-1.61l-5.17 0c0.08,0.61 0.28,1.16 0.58,1.61z"/>
   <path class="fil12" d="M34.79 18.99c0,0 0.3,-0.59 1.23,-0.95 0.93,-0.36 1.69,-0.62 2.45,-1.22 0.76,-0.6 5.16,-2.94 8.18,-3.44 3.02,-0.51 7.54,-0.38 7.54,-0.38 0,0 8.84,0.21 11.79,1.31 2.94,1.1 8.46,4.38 8.46,4.38l7.46 3.15 0.64 1.66 0.73 0.92c0,0 -0.02,2.26 -0.94,3.64l0.77 0.5 -0.36 0.93 -19 0c0,0 -0.03,-3.06 -1.32,-4.92 -1.29,-1.87 -2.96,-1.54 -2.96,-1.54 0,0 -2.66,0.49 -2.86,3.95 -0.08,1.43 0.12,2.33 0.38,2.9l-16.15 -0.54c0,0 -0.42,-0.77 -0.59,-2.31 -0.18,-1.54 -0.92,-3.76 -2.79,-3.95 -1.86,-0.2 -2.36,2.46 -2.36,2.46 0,0 -0.2,2.09 0.15,3.03l-1.54 -0.57c0,0 -1.1,-2.31 0,-6.39l1.09 -1.67 0 -0.95z"/>
   <path class="fil13" style="mask:url(#id0)" d="M34.79 18.99c0,0 0.3,-0.59 1.23,-0.95 0.93,-0.36 1.69,-0.62 2.45,-1.22 0.76,-0.6 5.16,-2.94 8.18,-3.44 3.02,-0.51 7.54,-0.38 7.54,-0.38 0,0 8.84,0.21 11.79,1.31 2.94,1.1 8.46,4.38 8.46,4.38l7.46 3.15 0.64 1.66 0.73 0.92c0,0 -0.02,2.26 -0.94,3.64l0.77 0.5 -0.36 0.93 -19 0c0,0 -0.03,-3.06 -1.32,-4.92 -1.29,-1.87 -2.96,-1.54 -2.96,-1.54 0,0 -2.66,0.49 -2.86,3.95 -0.08,1.43 0.12,2.33 0.38,2.9l-16.15 -0.54c0,0 -0.42,-0.77 -0.59,-2.31 -0.18,-1.54 -0.92,-3.76 -2.79,-3.95 -1.86,-0.2 -2.36,2.46 -2.36,2.46 0,0 -0.2,2.09 0.15,3.03l-1.54 -0.57c0,0 -1.1,-2.31 0,-6.39l1.09 -1.67 0 -0.95z"/>
   <path class="fil14" d="M40.6 25.69c0,0.07 0.05,0.14 0.12,0.17 0.67,0.29 4.14,1.72 6.8,1.92 2.96,0.22 8.17,0.74 8.17,0.74 0,0 -7.92,-2.64 -14.88,-3.03 -0.11,0 -0.21,0.08 -0.21,0.2z"/>
   <path class="fil14" d="M34.01 21.12l1.56 2.03c0,0 0.38,-0.78 1.72,-0.96 1.34,-0.18 2.24,1.15 2.24,1.15 1.34,-1.76 6.15,-1.57 9.51,-0.81 3.36,0.76 7.91,1.05 7.91,1.05 0.41,-0.84 1.9,-1.39 1.9,-1.39 -0.19,0.07 -0.49,0.02 -0.68,0.02 -0.74,-0.01 -1.47,-0.07 -2.19,-0.17 -2.65,-0.34 -5.23,-1.02 -7.88,-1.33 -2.15,-0.25 -4.3,-0.45 -6.45,-0.64 -0.41,-0.03 -6.86,-0.47 -6.86,-0.52l0 0.39 -0.78 1.18z"/>
   <path class="fil15" d="M38.97 17.29c0,0 2.72,-2.61 8.32,-3.32 5.59,-0.71 6.75,1.05 6.75,1.05l3.96 3.75c0,0 0.96,0.99 -1.01,0.91 -1.98,-0.07 -17.61,-1.64 -17.61,-1.64 0,0 -0.79,-0.11 -0.41,-0.75z"/>
   <path class="fil15" d="M54.26 14.16c0,0 2.95,2.24 4.14,3.43 1.2,1.2 2.88,1.01 2.88,1.01l12.49 0.22c0,0 -5.35,-3.37 -8.34,-4.47 0,0 -5.59,-0.47 -11.17,-0.19z"/>
   <path class="fil16" style="mask:url(#id2)" d="M54.26 14.16c0,0 2.95,2.24 4.14,3.43 1.2,1.2 2.88,1.01 2.88,1.01l12.49 0.22c0,0 -5.35,-3.37 -8.34,-4.47 0,0 -5.59,-0.47 -11.17,-0.19z"/>
   <path class="fil17" d="M58.61 15.29l-2.9 0 0 0c0.92,0.73 2.06,1.66 2.69,2.3 1.03,1.03 2.43,1.03 2.79,1.02 0,0 -0.86,-1.89 -1.2,-2.6 -0.33,-0.71 -1.38,-0.72 -1.38,-0.72z"/>
   <polygon class="fil18" points="81.9,21.84 81.14,22.22 81.14,23.58 82.54,23.5 "/>
   <polygon class="fil18" points="63.07,20.91 71.72,22.26 72.93,23.47 65.85,23.19 "/>
   <path class="fil5" d="M72.15 22.19l1.4 1.28c0,0 4.16,0.55 7.27,0.11l0.1 -1.39c0,0 -1.53,0.9 -8.77,0z"/>
   <path class="fil4" style="mask:url(#id4)" d="M72.15 22.19l1.4 1.28c0,0 4.16,0.55 7.27,0.11l0.1 -1.39c0,0 -1.53,0.9 -8.77,0z"/>
   <path class="fil5" d="M72.72 29.49l1.16 -5.25c0,0 5.71,0.1 6.77,-0.1l1.55 5.35 -9.48 0z"/>
   <path class="fil4" style="mask:url(#id6)" d="M72.72 29.49l1.16 -5.25c0,0 5.71,0.1 6.77,-0.1l1.55 5.35 -9.48 0z"/>
   <path class="fil5" d="M66.57 25.19c0,0 -0.89,1.59 -0.89,3.23l4.1 0.18 1.09 -0.53 -1.21 -1.79 -3.09 -1.09z"/>
   <path class="fil4" style="mask:url(#id8)" d="M66.57 25.19c0,0 -0.89,1.59 -0.89,3.23l4.1 0.18 1.09 -0.53 -1.21 -1.79 -3.09 -1.09z"/>
   <path class="fil17" d="M63.83 18.65l-1.77 -3.36c0,0 4.2,-0.03 8.02,3.47l-6.25 -0.11z"/>
   <path class="fil15" d="M58.98 18.05c-0.05,-0.27 -0.12,-0.72 -0.18,-1.15 -0.08,-0.66 -0.83,-0.76 -0.83,-0.76l-1.21 0 0 0c0.63,0.52 1.24,1.05 1.64,1.45 0.19,0.19 0.38,0.34 0.58,0.46z"/>
   <path class="fil17" d="M50.12 15.41c-0.74,1.45 -0.78,3.6 -0.78,3.6 3.51,0.34 6.81,0.64 7.65,0.67 0.21,0.01 0.38,0 0.53,-0.01 -1.74,-4.04 -7.4,-4.26 -7.4,-4.26z"/>
   <path class="fil5" d="M55.32 16.23c0,0 -0.32,1.72 -0.2,3.31 0.89,0.08 1.55,0.13 1.87,0.14 1.97,0.08 1.01,-0.91 1.01,-0.91l-2.68 -2.54z"/>
   <path class="fil17" d="M47.55 18.84l0.13 -3.69c-2.75,0.31 -4.68,1.12 -5.43,1.45 -0.75,0.34 -1.01,1.63 -1.01,1.63 1.56,0.15 3.89,0.38 6.31,0.61z"/>
   <path class="fil5" d="M40.27 18.13c-0.13,-0.95 0.33,-1.98 0.33,-1.99 -1.09,0.64 -1.63,1.15 -1.63,1.15 -0.38,0.64 0.41,0.75 0.41,0.75 0,0 0.33,0.03 0.89,0.09z"/>
   <path class="fil15" d="M45.16 16.45c0,0 -0.97,-0.19 -1.69,0.16 -0.72,0.35 -0.93,1.74 -0.93,1.74l0 0c0.84,0.09 1.81,0.18 2.83,0.28 0.4,-1.93 -0.21,-2.18 -0.21,-2.18z"/>
   <g>
    <path class="fil12" d="M56.72 29.06c-0.99,-0.03 -1.97,-0.06 -2.96,-0.1 -0.98,-0.04 -1.97,-0.09 -2.95,-0.14 -1.97,-0.1 -3.94,-0.24 -5.9,-0.43 -0.25,-0.03 -0.49,-0.06 -0.74,-0.09l-0.36 -0.04c-0.13,-0.02 -0.25,-0.04 -0.37,-0.06l-0.37 -0.06c-0.12,-0.03 -0.24,-0.06 -0.36,-0.08 -0.25,-0.05 -0.48,-0.15 -0.7,-0.28 -0.43,-0.26 -0.78,-0.63 -1.07,-1.03 -0.3,-0.4 -0.53,-0.84 -0.74,-1.29 -0.41,-0.9 -0.67,-1.86 -0.86,-2.83 -0.19,-0.97 -0.28,-1.96 -0.26,-2.95l0 0 0 0 0.82 -1.59 -0.79 1.6 0 0c0,0.49 0.03,0.98 0.08,1.47 0.05,0.49 0.12,0.98 0.22,1.46 0.19,0.96 0.47,1.91 0.88,2.8 0.2,0.45 0.44,0.88 0.73,1.27 0.29,0.4 0.63,0.76 1.04,1 0.21,0.12 0.43,0.22 0.68,0.26 0.12,0.03 0.23,0.06 0.35,0.08l0.37 0.06c0.12,0.02 0.24,0.04 0.36,0.06l0.37 0.04c0.24,0.03 0.48,0.07 0.73,0.09 1.96,0.21 3.93,0.33 5.89,0.46 0.99,0.06 1.97,0.12 2.95,0.17 0.99,0.06 1.97,0.11 2.96,0.15z"/>
   </g>
   <g>
    <path class="fil12" d="M47.34 18.82l-0.23 0.89c-0.08,0.3 -0.16,0.6 -0.24,0.89l0 -0.01 0.03 1 0.02 0.99c0.01,0.66 0.02,1.32 0.02,1.98 0.01,0.66 0.02,1.32 0.01,1.98 0,0.33 0.01,0.66 0,1 0.01,0.33 0.04,0.65 0.06,0.98 -0.04,-0.32 -0.08,-0.65 -0.1,-0.98 -0.01,-0.33 -0.02,-0.66 -0.03,-0.99 -0.02,-0.66 -0.03,-1.33 -0.04,-1.99 -0.01,-0.66 -0.02,-1.32 -0.03,-1.98l-0.01 -0.99 0 -0.99 0 -0.01 0 0c0.09,-0.3 0.18,-0.59 0.27,-0.89l0.27 -0.88z"/>
   </g>
   <g>
    <path class="fil12" d="M56.8 19.67l-0.5 0.96 0 -0.01c-0.09,0.69 -0.16,1.39 -0.23,2.09 -0.08,0.7 -0.13,1.4 -0.19,2.1 -0.06,0.7 -0.09,1.4 -0.13,2.11 -0.03,0.7 -0.04,1.4 -0.04,2.1 -0.04,-0.7 -0.05,-1.4 -0.03,-2.11 0.01,-0.7 0.05,-1.4 0.09,-2.11 0.05,-0.7 0.12,-1.4 0.2,-2.1 0.08,-0.7 0.17,-1.39 0.28,-2.09l0 0 0.01 -0.01 0.54 -0.93z"/>
   </g>
   <g>
    <path class="fil3" d="M59.89 18.45c0,0.22 0.05,0.45 0.17,0.64 0.11,0.18 0.28,0.33 0.48,0.42 0.05,0.03 0.1,0.05 0.15,0.07l0.16 0.04 0.33 0.08 0.65 0.16c0.44,0.1 0.87,0.22 1.31,0.33 0.43,0.11 0.87,0.23 1.3,0.35l0.02 0.01 -0.01 0.01c0,0.19 -0.01,0.38 -0.02,0.56 -0.01,-0.18 -0.01,-0.37 -0.02,-0.56l0.02 0.02c-0.44,-0.09 -0.88,-0.19 -1.32,-0.3 -0.43,-0.1 -0.87,-0.2 -1.31,-0.32l-0.65 -0.16c-0.11,-0.03 -0.22,-0.06 -0.32,-0.09l-0.17 -0.05c-0.05,-0.02 -0.1,-0.05 -0.16,-0.07 -0.2,-0.11 -0.38,-0.28 -0.49,-0.48 -0.1,-0.2 -0.15,-0.44 -0.12,-0.66z"/>
   </g>
   <path class="fil5" d="M46.84 18.77c0.52,0.05 1.04,0.1 1.56,0.16 0,0 0.17,-3.19 0.94,-5.12 -0.36,0.01 -0.75,0.03 -1.16,0.07 -0.01,0 -1.27,2.83 -1.34,4.89z"/>
   <path class="fil5" d="M54.98 19.14c0,0 0.05,0.44 0.35,0.65 0,0 0.11,0.45 -0.35,0.67 -0.16,0.08 -0.31,0.09 -0.43,0.06 -0.2,-0.04 -0.36,-0.19 -0.45,-0.37 -0.1,-0.22 -0.36,-0.59 -0.9,-0.6l1.2 -0.54 0.58 0.13z"/>
   <path class="fil19" d="M61.28 18.6c0,0 4.29,1.03 7.58,2.31 3.29,1.28 7.49,1.39 7.49,1.39 0,0 3.92,0.18 4.56,-0.88l-6.16 -2.6 -13.47 -0.22z"/>
   <path class="fil12" d="M54.92 19.16c0.19,-0.05 0.3,-0.25 0.24,-0.44 -0.13,-0.4 -0.44,-1.03 -1.1,-1.3 -1.01,-0.41 -2.67,0.75 -2.67,0.75 0,0 0.09,0.95 0.78,1.29 0.53,0.26 2.07,-0.12 2.75,-0.3z"/>
   <path class="fil14" d="M55.14 18.66c-0.04,0.09 -0.12,0.16 -0.22,0.19 -0.68,0.18 -2.22,0.55 -2.75,0.3 -0.45,-0.22 -0.64,-0.71 -0.73,-1.01 -0.03,0.02 -0.05,0.03 -0.05,0.03 0,0 0.09,0.95 0.78,1.29 0.53,0.26 2.07,-0.12 2.75,-0.3 0.19,-0.05 0.3,-0.25 0.24,-0.44 -0.01,-0.02 -0.01,-0.04 -0.02,-0.06z"/>
  </g>
  <path class="fil20" d="M20.97 30.5c-3.75,-1.71 -6.18,-4.4 -7.75,-7.02 -1.87,-3.11 -2.78,-6.63 -2.78,-10.19l0 -5.12c0,-1.02 0.94,-1.33 2.02,-1.86l8.43 -3.09 8.51 3.14c1.18,0.35 1.93,1.06 1.93,2.53l0 4.6c0,3.35 -0.8,6.66 -2.45,9.63 -0.1,0.19 -0.21,0.37 -0.32,0.56 -0.97,1.6 -2.31,3.38 -4,4.77 -0.57,0.48 -1.19,0.91 -1.85,1.28 -0.55,0.31 -1.13,0.57 -1.74,0.77z"/>
  <path class="fil21" d="M27.71 8.43l-6.82 -2.51 -6.76 2.48c-0.87,0.42 -1.62,0.67 -1.62,1.49l0 4.11c0,2.85 0.72,5.68 2.22,8.17 1.26,2.1 3.22,4.26 6.22,5.64 2.77,-0.93 4.83,-3.38 6.09,-5.48 1.5,-2.49 2.23,-5.32 2.23,-8.17l0 -3.69c0,-1.18 -0.61,-1.75 -1.56,-2.04z"/>
  <path class="fil22" d="M20.89 21.24c-0.92,0 -1.74,-0.21 -2.47,-0.62 -0.73,-0.42 -1.3,-1 -1.71,-1.74 -0.42,-0.74 -0.63,-1.58 -0.63,-2.51 0,-0.92 0.21,-1.76 0.63,-2.5 0.41,-0.74 0.98,-1.32 1.71,-1.74 0.73,-0.42 1.55,-0.63 2.47,-0.63 0.91,0 1.73,0.21 2.46,0.63 0.73,0.42 1.3,1 1.72,1.74 0.41,0.74 0.62,1.58 0.62,2.5 0,0.93 -0.21,1.77 -0.62,2.51 -0.42,0.74 -0.99,1.32 -1.72,1.74 -0.73,0.41 -1.55,0.62 -2.46,0.62zm0 -2.19c0.43,0 0.83,-0.11 1.18,-0.33 0.36,-0.23 0.64,-0.54 0.84,-0.95 0.21,-0.4 0.31,-0.87 0.31,-1.4 0,-0.52 -0.1,-0.99 -0.31,-1.4 -0.2,-0.4 -0.48,-0.72 -0.84,-0.94 -0.35,-0.22 -0.75,-0.33 -1.18,-0.33 -0.44,0 -0.83,0.11 -1.19,0.33 -0.35,0.22 -0.63,0.54 -0.84,0.94 -0.2,0.41 -0.31,0.88 -0.31,1.4 0,0.53 0.11,1 0.31,1.4 0.21,0.41 0.49,0.72 0.84,0.95 0.36,0.22 0.75,0.33 1.19,0.33z"/>
 </g>
</svg>
