<?xml version="1.0" encoding="UTF-8"?>
<!DOCTYPE svg PUBLIC "-//W3C//DTD SVG 1.1//EN" "http://www.w3.org/Graphics/SVG/1.1/DTD/svg11.dtd">
<!-- Creator: CorelDRAW 2020 (64-Bit) -->
<svg xmlns="http://www.w3.org/2000/svg" xml:space="preserve" width="800px" height="368px" version="1.1" style="shape-rendering:geometricPrecision; text-rendering:geometricPrecision; image-rendering:optimizeQuality; fill-rule:evenodd; clip-rule:evenodd"
viewBox="0 0 81.51 37.48"
 xmlns:xlink="http://www.w3.org/1999/xlink"
 xmlns:xodm="http://www.corel.com/coreldraw/odm/2003">
 <defs>
  <style type="text/css">
   <![CDATA[
    .fil8 {fill:#FEFEFE;fill-rule:nonzero}
    .fil4 {fill:#4A6CF9;fill-rule:nonzero}
    .fil5 {fill:#5A69F7;fill-rule:nonzero}
    .fil6 {fill:#6641A9;fill-rule:nonzero}
    .fil0 {fill:#925EF2;fill-rule:nonzero}
    .fil7 {fill:#F9F9F9;fill-rule:nonzero}
    .fil2 {fill:white;fill-rule:nonzero}
    .fil1 {fill:black;fill-rule:nonzero;fill-opacity:0.301961}
    .fil3 {fill:#263138;fill-rule:nonzero;fill-opacity:0.301961}
    .fil9 {fill:url(#id0);fill-rule:nonzero}
   ]]>
  </style>
  <linearGradient id="id0" gradientUnits="userSpaceOnUse" x1="35.07" y1="19.52" x2="5.48" y2="26.11">
   <stop offset="0" style="stop-opacity:1; stop-color:#00D9FF"/>
   <stop offset="1" style="stop-opacity:1; stop-color:#925FF2"/>
  </linearGradient>
 </defs>
 <g id="Слой_x0020_1">
  <metadata id="CorelCorpID_0Corel-Layer"/>
  <g id="_2366971673504">
   <g>
    <path class="fil0" d="M67.08 37.32l-23.62 -21.6c-0.25,-0.23 -0.26,-0.62 -0.04,-0.87l13.41 -14.65c0.23,-0.25 0.61,-0.27 0.86,-0.04l23.62 21.6c0.25,0.23 0.27,0.62 0.04,0.87l-13.4 14.65c-0.23,0.25 -0.62,0.27 -0.87,0.04z"/>
    <path class="fil1" d="M67.08 37.32l-23.62 -21.6c-0.25,-0.23 -0.26,-0.62 -0.04,-0.87l13.41 -14.65c0.23,-0.25 0.61,-0.27 0.86,-0.04l23.62 21.6c0.25,0.23 0.27,0.62 0.04,0.87l-13.4 14.65c-0.23,0.25 -0.62,0.27 -0.87,0.04z"/>
    <path class="fil0" d="M81.14 21.61l-23.28 -21.29c-0.34,-0.32 -0.87,-0.29 -1.19,0.05l-3.81 4.17c-0.07,0.08 -0.11,0.19 -0.08,0.3 0.58,2.26 2.36,4.19 4.41,5.4 2.47,1.46 5.33,2.12 8.06,3.02 2.73,0.9 5.5,2.15 7.26,4.42 1.67,2.15 2.23,4.92 3.18,7.46 0.25,0.68 0.56,1.36 0.92,2.01 0.11,0.2 0.39,0.23 0.55,0.06l4.03 -4.41c0.32,-0.34 0.29,-0.88 -0.05,-1.19z"/>
    <path class="fil2" d="M58.03 6.99c-0.18,0.2 -0.45,0.17 -0.75,-0.1l-0.59 -0.55 1.05 -1.15 0.56 0.52c0.29,0.26 0.33,0.52 0.16,0.69 -0.1,0.12 -0.24,0.15 -0.38,0.12 0.09,0.16 0.08,0.33 -0.05,0.47zm-0.21 -1.35l0 0 -0.25 0.27 0.27 0.24c0.13,0.12 0.24,0.14 0.32,0.05 0.08,-0.09 0.05,-0.2 -0.08,-0.32l-0.26 -0.24zm-0.03 1.08l0 0c0.08,-0.1 0.05,-0.21 -0.09,-0.34l-0.31 -0.28 -0.26 0.28 0.31 0.29c0.14,0.13 0.26,0.15 0.35,0.05z"/>
    <path class="fil2" d="M58.93 7.94l-0.54 -0.49 -0.33 0.15 -0.27 -0.25 1.57 -0.68 0.26 0.24 -0.54 1.63 -0.28 -0.26 0.13 -0.34zm0.1 -0.28l0 0 0.22 -0.61 -0.59 0.28 0.37 0.33z"/>
    <polygon class="fil2" points="61.31,8.46 60.26,9.61 60.04,9.41 60.1,8.19 59.46,8.89 59.2,8.64 60.25,7.49 60.47,7.69 60.41,8.92 61.05,8.22 "/>
    <polygon class="fil2" points="61.36,9.79 61.06,9.81 60.79,10.1 60.53,9.86 61.58,8.71 61.85,8.95 61.35,9.49 62.36,9.42 62.65,9.69 61.71,9.76 61.63,10.86 61.32,10.58 "/>
    <polygon class="fil2" points="53.43,11.58 53.22,11.39 52.97,11.67 52.86,11.57 53.11,11.29 52.52,10.75 52.59,10.67 53.79,10.48 53.91,10.59 52.75,10.78 53.21,11.2 53.43,10.95 53.54,11.05 53.31,11.29 53.52,11.49 "/>
    <path class="fil2" d="M54.23 12.27c-0.16,0.17 -0.41,0.19 -0.67,-0.04 -0.15,-0.14 -0.25,-0.33 -0.25,-0.48l0.13 -0.04c0,0.13 0.08,0.29 0.22,0.42 0.17,0.16 0.34,0.17 0.46,0.04 0.12,-0.13 0.11,-0.3 -0.09,-0.47l-0.08 -0.07 0.08 -0.08 0.63 -0.1 -0.55 -0.5 0.09 -0.09 0.68 0.62 -0.07 0.07 -0.64 0.11c0.21,0.22 0.22,0.44 0.06,0.61z"/>
    <path class="fil2" d="M55.1 13.04c-0.17,0.18 -0.42,0.21 -0.68,-0.03 -0.15,-0.14 -0.25,-0.32 -0.26,-0.48l0.14 -0.04c0,0.13 0.07,0.3 0.21,0.42 0.18,0.16 0.35,0.16 0.47,0.04 0.13,-0.14 0.12,-0.3 -0.15,-0.55l-0.23 -0.2 0.54 -0.48 0.58 0.53 -0.09 0.09 -0.48 -0.44 -0.34 0.3 0.13 0.13c0.32,0.29 0.33,0.53 0.16,0.71z"/>
    <path class="fil2" d="M56.03 13.89c-0.18,0.2 -0.45,0.18 -0.66,-0.01 -0.28,-0.25 -0.25,-0.59 0.05,-0.92 0.33,-0.36 0.7,-0.37 0.99,-0.11 0.09,0.09 0.16,0.19 0.19,0.29l-0.12 0.05c-0.02,-0.09 -0.08,-0.17 -0.16,-0.24 -0.23,-0.21 -0.51,-0.19 -0.77,0.09 -0.02,0.03 -0.05,0.06 -0.07,0.09 0.15,-0.07 0.34,-0.02 0.48,0.12 0.21,0.19 0.25,0.45 0.07,0.64zm-0.11 -0.1l0 0c0.13,-0.13 0.11,-0.32 -0.06,-0.47 -0.16,-0.14 -0.36,-0.15 -0.48,-0.01 -0.11,0.11 -0.11,0.31 0.07,0.48 0.16,0.14 0.34,0.14 0.47,0z"/>
    <polygon class="fil2" points="58.03,16.29 58.08,15.73 57.52,15.83 57.4,15.72 58.09,15.6 58.14,14.94 58.26,15.05 58.22,15.58 58.74,15.49 58.86,15.59 58.2,15.71 58.15,16.41 "/>
    <polygon class="fil2" points="58.83,17.03 58.88,16.47 58.33,16.57 58.21,16.46 58.89,16.34 58.95,15.68 59.07,15.79 59.02,16.32 59.54,16.22 59.66,16.33 59.01,16.44 58.95,17.14 "/>
    <polygon class="fil2" points="59.64,17.77 59.69,17.21 59.13,17.31 59.01,17.19 59.7,17.07 59.75,16.41 59.87,16.53 59.83,17.05 60.35,16.96 60.47,17.07 59.82,17.18 59.76,17.88 "/>
    <polygon class="fil2" points="60.44,18.51 60.5,17.94 59.94,18.04 59.82,17.93 60.5,17.81 60.56,17.15 60.68,17.26 60.63,17.79 61.16,17.7 61.27,17.81 60.62,17.92 60.57,18.62 "/>
    <polygon class="fil2" points="63.23,21.05 63.28,20.49 62.72,20.59 62.6,20.48 63.29,20.36 63.34,19.7 63.46,19.81 63.42,20.34 63.94,20.24 64.06,20.35 63.4,20.46 63.35,21.16 "/>
    <polygon class="fil2" points="64.03,21.79 64.08,21.23 63.53,21.33 63.41,21.21 64.09,21.09 64.15,20.43 64.27,20.55 64.22,21.07 64.75,20.98 64.86,21.09 64.21,21.2 64.15,21.9 "/>
    <polygon class="fil2" points="64.84,22.53 64.89,21.96 64.33,22.06 64.21,21.95 64.9,21.83 64.95,21.17 65.07,21.28 65.03,21.81 65.55,21.72 65.67,21.83 65.02,21.94 64.96,22.64 "/>
    <polygon class="fil2" points="65.64,23.26 65.7,22.7 65.14,22.8 65.02,22.69 65.7,22.57 65.76,21.91 65.88,22.02 65.83,22.55 66.36,22.46 66.47,22.56 65.82,22.68 65.77,23.37 "/>
    <polygon class="fil2" points="69.11,24.49 68.14,25.55 68.04,25.45 68.91,24.49 68.66,24.26 68.75,24.16 "/>
    <path class="fil2" d="M69.37 26.11c-0.16,0.18 -0.41,0.2 -0.67,-0.03 -0.15,-0.14 -0.25,-0.33 -0.25,-0.49l0.13 -0.04c0,0.14 0.08,0.3 0.21,0.43 0.18,0.16 0.35,0.16 0.47,0.03 0.12,-0.12 0.1,-0.29 -0.09,-0.47l-0.08 -0.07 0.07 -0.08 0.63 -0.1 -0.54 -0.49 0.09 -0.1 0.68 0.62 -0.07 0.08 -0.64 0.1c0.21,0.22 0.22,0.45 0.06,0.61z"/>
    <polygon class="fil2" points="70.4,27.1 70.19,26.91 69.93,27.19 69.83,27.09 70.08,26.81 69.48,26.26 69.55,26.18 70.76,26 70.88,26.11 69.71,26.29 70.17,26.71 70.39,26.47 70.5,26.57 70.28,26.81 70.49,27 "/>
    <path class="fil2" d="M71.05 28.03l-0.09 0.09 -0.74 -0.67 0.07 -0.08 0.83 -0.03c0.23,-0.01 0.32,-0.06 0.38,-0.13 0.11,-0.12 0.1,-0.28 -0.06,-0.42 -0.13,-0.12 -0.26,-0.17 -0.4,-0.15l-0.02 -0.14c0.17,-0.02 0.35,0.05 0.52,0.19 0.21,0.2 0.25,0.43 0.09,0.61 -0.1,0.1 -0.21,0.16 -0.48,0.17l-0.68 0.03 0.58 0.53z"/>
    <path class="fil2" d="M49.72 12.72c0.13,-0.15 0.35,-0.15 0.51,-0.01 0.08,0.08 0.13,0.18 0.12,0.28l-0.14 0c0.01,-0.07 -0.02,-0.13 -0.07,-0.18 -0.09,-0.08 -0.22,-0.08 -0.31,0.02 -0.08,0.09 -0.08,0.22 0.02,0.31 0.05,0.04 0.11,0.06 0.18,0.05l0.01 0.14c-0.1,0.02 -0.2,-0.02 -0.29,-0.1 -0.16,-0.14 -0.17,-0.36 -0.03,-0.51z"/>
    <path class="fil2" d="M50.47 13.67l-0.24 -0.21 -0.14 0.06 -0.12 -0.1 0.68 -0.3 0.12 0.1 -0.24 0.71 -0.12 -0.11 0.06 -0.15zm0.04 -0.12l0 0 0.1 -0.27 -0.26 0.12 0.16 0.15z"/>
    <path class="fil2" d="M50.91 14.27l0.03 -0.22 -0.01 -0.01 -0.1 -0.09 -0.13 0.14 -0.11 -0.11 0.46 -0.5 0.22 0.2c0.13,0.12 0.15,0.27 0.05,0.38 -0.07,0.08 -0.16,0.1 -0.25,0.06l-0.04 0.27 -0.12 -0.12zm0.26 -0.5l0 0 -0.09 -0.09 -0.16 0.17 0.09 0.09c0.07,0.07 0.14,0.07 0.19,0.01 0.05,-0.05 0.04,-0.12 -0.03,-0.18z"/>
    <path class="fil2" d="M51.12 14.38l0.12 -0.05c0.02,0.07 0.06,0.15 0.12,0.2 0.07,0.07 0.12,0.07 0.15,0.04 0.08,-0.1 -0.27,-0.3 -0.1,-0.49 0.08,-0.08 0.22,-0.09 0.36,0.04 0.06,0.06 0.11,0.13 0.13,0.21l-0.11 0.05c-0.03,-0.07 -0.06,-0.13 -0.11,-0.17 -0.07,-0.06 -0.12,-0.06 -0.14,-0.03 -0.09,0.1 0.26,0.3 0.09,0.49 -0.07,0.08 -0.21,0.09 -0.35,-0.04 -0.08,-0.08 -0.14,-0.17 -0.16,-0.25z"/>
    <polygon class="fil2" points="52.71,14.99 52.24,15.5 52.13,15.39 52.32,15.18 52.09,14.97 51.9,15.18 51.78,15.07 52.24,14.57 52.36,14.68 52.18,14.88 52.41,15.08 52.59,14.89 "/>
    <path class="fil2" d="M52.56 15.33c0.14,-0.15 0.36,-0.16 0.52,-0.01 0.16,0.14 0.17,0.36 0.04,0.51 -0.14,0.15 -0.36,0.15 -0.52,0.01 -0.16,-0.15 -0.17,-0.36 -0.04,-0.51zm0.44 0.39l0 0c0.09,-0.09 0.08,-0.22 -0.01,-0.3 -0.09,-0.09 -0.22,-0.08 -0.31,0.01 -0.09,0.1 -0.08,0.23 0.01,0.31 0.09,0.08 0.22,0.08 0.31,-0.02z"/>
    <polygon class="fil2" points="53.44,15.66 53.55,15.77 53.18,16.18 53.43,16.41 53.34,16.5 52.97,16.16 "/>
    <path class="fil2" d="M53.87 16.06l0.23 0.21c0.16,0.15 0.19,0.35 0.05,0.5 -0.14,0.16 -0.35,0.15 -0.51,0l-0.23 -0.21 0.46 -0.5zm-0.15 0.61l0 0c0.1,0.09 0.22,0.09 0.31,0 0.09,-0.1 0.08,-0.22 -0.02,-0.31l-0.11 -0.1 -0.29 0.31 0.11 0.1z"/>
    <polygon class="fil2" points="54.48,17.37 54.4,17.46 54.01,17.11 54.47,16.6 54.85,16.95 54.76,17.05 54.5,16.8 54.4,16.91 54.63,17.13 54.55,17.22 54.31,17 54.21,17.12 "/>
    <path class="fil2" d="M54.81 17.84l0.03 -0.23 0 0 -0.11 -0.09 -0.12 0.14 -0.12 -0.11 0.46 -0.5 0.22 0.2c0.13,0.12 0.15,0.27 0.05,0.38 -0.07,0.07 -0.16,0.09 -0.25,0.06l-0.03 0.27 -0.13 -0.12zm0.27 -0.51l0 0 -0.1 -0.08 -0.16 0.17 0.09 0.09c0.08,0.07 0.14,0.07 0.19,0.01 0.05,-0.05 0.05,-0.12 -0.02,-0.19z"/>
    <path class="fil2" d="M47.86 14.64l0.26 -0.03c-0.01,0.12 0.02,0.21 0.09,0.27 0.09,0.08 0.18,0.07 0.28,-0.03l0.42 -0.47 -0.34 -0.31 0.17 -0.18 0.56 0.52 -0.57 0.63c-0.22,0.24 -0.45,0.25 -0.68,0.04 -0.13,-0.12 -0.2,-0.28 -0.19,-0.44z"/>
    <path class="fil2" d="M48.67 15.39c0.08,-0.09 0.18,-0.08 0.26,-0.01 0.07,0.06 0.08,0.17 0.01,0.25 -0.07,0.08 -0.18,0.08 -0.26,0.01 -0.07,-0.06 -0.08,-0.18 -0.01,-0.25z"/>
    <polygon class="fil2" points="51.29,16.23 50.09,16.91 49.85,16.69 50.23,15.83 49.41,16.29 49.17,16.07 49.74,14.81 49.97,15.02 49.57,15.9 50.42,15.43 50.63,15.62 50.22,16.51 51.08,16.03 "/>
    <path class="fil2" d="M51.39 16.32c0.06,-0.07 0.16,-0.08 0.24,0 0.08,0.07 0.09,0.17 0.03,0.24 -0.06,0.07 -0.17,0.07 -0.25,0 -0.08,-0.07 -0.08,-0.18 -0.02,-0.24zm-0.18 0.24l0 0 0.22 0.2 -0.69 0.75 -0.21 -0.2 0.68 -0.75z"/>
    <polygon class="fil2" points="51.89,16.66 52.1,16.86 51.16,17.89 50.94,17.69 "/>
    <polygon class="fil2" points="52.3,17.04 52.52,17.24 51.58,18.27 51.36,18.07 "/>
    <path class="fil2" d="M52.64 17.46c0.06,-0.07 0.17,-0.07 0.25,0 0.08,0.08 0.08,0.18 0.02,0.24 -0.06,0.07 -0.16,0.08 -0.25,0 -0.08,-0.07 -0.08,-0.17 -0.02,-0.24zm-0.18 0.25l0 0 0.22 0.2 -0.69 0.74 -0.21 -0.19 0.68 -0.75z"/>
    <path class="fil2" d="M53.25 19.02l-0.39 0.42 -0.21 -0.18 0.09 -0.1c-0.1,0.03 -0.21,0 -0.32,-0.1 -0.18,-0.16 -0.19,-0.35 -0.08,-0.48 0.12,-0.13 0.3,-0.14 0.53,0.07l0.17 0.16c0.09,-0.1 0.08,-0.2 -0.04,-0.31 -0.08,-0.07 -0.18,-0.12 -0.28,-0.13l0.07 -0.22c0.13,0.02 0.28,0.1 0.4,0.21 0.23,0.2 0.26,0.43 0.06,0.66zm-0.39 -0.01l0 0 0.07 -0.08 -0.15 -0.13c-0.1,-0.1 -0.17,-0.09 -0.22,-0.04 -0.05,0.06 -0.03,0.13 0.04,0.2 0.08,0.07 0.17,0.09 0.26,0.05z"/>
    <path class="fil2" d="M54.7 20.35l-0.39 0.42 -0.21 -0.19 0.36 -0.4c0.11,-0.12 0.1,-0.22 0.02,-0.3 -0.1,-0.09 -0.23,-0.09 -0.35,0.04l-0.34 0.37 -0.22 -0.19 0.36 -0.4c0.11,-0.12 0.11,-0.22 0.02,-0.3 -0.09,-0.09 -0.22,-0.09 -0.34,0.04l-0.34 0.38 -0.22 -0.2 0.68 -0.75 0.21 0.19 -0.08 0.09c0.12,-0.01 0.23,0.03 0.33,0.12 0.1,0.09 0.15,0.21 0.13,0.34 0.13,-0.02 0.27,0.02 0.38,0.13 0.18,0.16 0.21,0.38 0,0.61z"/>
    <path class="fil2" d="M54.5 20.81l0.21 -0.08c0.03,0.1 0.1,0.22 0.19,0.3 0.1,0.1 0.17,0.1 0.2,0.06 0.12,-0.12 -0.45,-0.41 -0.18,-0.71 0.13,-0.14 0.35,-0.12 0.57,0.08 0.1,0.09 0.19,0.22 0.23,0.33l-0.22 0.08c-0.03,-0.1 -0.09,-0.19 -0.16,-0.25 -0.1,-0.09 -0.17,-0.09 -0.2,-0.05 -0.12,0.12 0.44,0.41 0.18,0.71 -0.13,0.13 -0.35,0.12 -0.57,-0.09 -0.13,-0.11 -0.23,-0.27 -0.25,-0.38z"/>
    <path class="fil2" d="M63.56 28.39c0.29,-0.32 0.64,-0.34 0.87,-0.12 0.24,0.22 0.25,0.56 -0.04,0.88 -0.29,0.33 -0.63,0.35 -0.87,0.13 -0.24,-0.22 -0.25,-0.57 0.04,-0.89zm0.61 0.56l0 0c0.2,-0.22 0.2,-0.39 0.09,-0.49 -0.11,-0.1 -0.27,-0.08 -0.47,0.14 -0.21,0.22 -0.21,0.38 -0.1,0.49 0.11,0.1 0.27,0.08 0.48,-0.14z"/>
    <path class="fil2" d="M65.14 30.17c-0.18,0.2 -0.46,0.17 -0.66,-0.02 -0.27,-0.24 -0.29,-0.56 0,-0.88 0.31,-0.33 0.68,-0.33 0.98,-0.07 0.1,0.1 0.18,0.21 0.2,0.32l-0.23 0.09c-0.02,-0.09 -0.07,-0.16 -0.14,-0.22 -0.16,-0.15 -0.35,-0.14 -0.53,0.03 0.11,0 0.22,0.05 0.32,0.14 0.19,0.17 0.23,0.42 0.06,0.61zm-0.23 -0.19l0 0c0.08,-0.09 0.07,-0.21 -0.03,-0.3 -0.1,-0.09 -0.22,-0.09 -0.3,-0.01 -0.08,0.09 -0.07,0.21 0.04,0.3 0.09,0.09 0.21,0.1 0.29,0.01z"/>
    <polygon class="fil2" points="66.38,29.72 66.57,29.9 64.92,30.78 64.73,30.61 "/>
    <path class="fil2" d="M66.39 31.54l-0.17 0.18 -0.73 -0.67 0.13 -0.15 0.7 -0.01c0.16,0 0.22,-0.04 0.27,-0.08 0.06,-0.08 0.05,-0.17 -0.05,-0.27 -0.08,-0.07 -0.18,-0.11 -0.29,-0.08l-0.07 -0.26c0.18,-0.04 0.38,0.01 0.55,0.17 0.22,0.2 0.26,0.44 0.1,0.62 -0.08,0.1 -0.19,0.16 -0.44,0.16l-0.42 0.01 0.42 0.38z"/>
    <polygon class="fil2" points="67.38,32.4 67.22,32.26 67.03,32.46 66.81,32.26 67,32.06 66.48,31.58 66.61,31.43 67.64,31.23 67.87,31.45 66.91,31.64 67.17,31.88 67.34,31.7 67.55,31.89 67.39,32.07 67.54,32.22 "/>
    <path class="fil0" d="M70.99 20.27c0.48,-0.86 0.19,-1.95 -0.58,-2.56 -0.24,-0.2 -0.51,-0.35 -0.79,-0.44 -0.71,-0.24 -1.61,0.03 -1.92,0.72 -0.26,0.55 -0.09,1.21 0.16,1.77 0.26,0.59 0.65,1.18 1.27,1.37 0.59,0.18 1.26,-0.08 1.66,-0.55 0.08,-0.1 0.15,-0.2 0.2,-0.31z"/>
    <path class="fil3" d="M64.52 22.94c-0.01,-0.02 0.38,-0.06 0.86,-0.1 0.48,-0.03 0.87,-0.05 0.87,-0.02 0,0.02 -0.39,0.06 -0.86,0.1 -0.48,0.03 -0.87,0.04 -0.87,0.02z"/>
   </g>
   <g>
    <path class="fil4" d="M48.31 37.32l-23.62 -21.6c-0.25,-0.23 -0.26,-0.62 -0.04,-0.87l13.41 -14.65c0.23,-0.25 0.61,-0.27 0.86,-0.04l23.62 21.6c0.25,0.23 0.27,0.62 0.04,0.87l-13.4 14.65c-0.23,0.25 -0.62,0.27 -0.87,0.04z"/>
    <path class="fil1" d="M48.31 37.32l-23.62 -21.6c-0.25,-0.23 -0.26,-0.62 -0.04,-0.87l13.41 -14.65c0.23,-0.25 0.61,-0.27 0.86,-0.04l23.62 21.6c0.25,0.23 0.27,0.62 0.04,0.87l-13.4 14.65c-0.23,0.25 -0.62,0.27 -0.87,0.04z"/>
    <path class="fil5" d="M62.37 21.61l-23.28 -21.29c-0.34,-0.32 -0.87,-0.29 -1.19,0.05l-3.81 4.17c-0.07,0.08 -0.1,0.19 -0.08,0.3 0.58,2.26 2.36,4.19 4.41,5.4 2.47,1.46 5.33,2.12 8.06,3.02 2.73,0.9 5.5,2.15 7.26,4.42 1.67,2.15 2.23,4.92 3.18,7.46 0.25,0.68 0.56,1.36 0.92,2.01 0.11,0.2 0.39,0.23 0.55,0.06l4.03 -4.41c0.32,-0.34 0.29,-0.88 -0.05,-1.19z"/>
    <path class="fil2" d="M39.26 6.99c-0.18,0.2 -0.45,0.17 -0.75,-0.1l-0.59 -0.55 1.05 -1.15 0.56 0.52c0.29,0.26 0.33,0.52 0.16,0.69 -0.1,0.12 -0.24,0.15 -0.38,0.12 0.09,0.16 0.08,0.33 -0.05,0.47zm-0.21 -1.35l0 0 -0.25 0.27 0.27 0.24c0.13,0.12 0.24,0.14 0.32,0.05 0.09,-0.09 0.05,-0.2 -0.08,-0.32l-0.26 -0.24zm-0.03 1.08l0 0c0.09,-0.1 0.05,-0.21 -0.08,-0.34l-0.32 -0.28 -0.26 0.28 0.31 0.29c0.14,0.13 0.26,0.15 0.35,0.05z"/>
    <path class="fil2" d="M40.16 7.94l-0.54 -0.49 -0.33 0.15 -0.27 -0.25 1.57 -0.68 0.26 0.24 -0.54 1.63 -0.28 -0.26 0.13 -0.34zm0.1 -0.28l0 0 0.22 -0.61 -0.59 0.28 0.37 0.33z"/>
    <polygon class="fil2" points="42.54,8.46 41.49,9.61 41.27,9.41 41.33,8.19 40.69,8.89 40.43,8.64 41.48,7.49 41.71,7.69 41.64,8.92 42.28,8.22 "/>
    <polygon class="fil2" points="42.59,9.79 42.29,9.81 42.02,10.1 41.76,9.86 42.81,8.71 43.08,8.95 42.59,9.49 43.59,9.42 43.88,9.69 42.94,9.76 42.86,10.86 42.55,10.58 "/>
    <polygon class="fil2" points="34.67,11.58 34.45,11.39 34.2,11.67 34.09,11.57 34.35,11.29 33.75,10.75 33.82,10.67 35.02,10.48 35.14,10.59 33.98,10.78 34.44,11.2 34.66,10.95 34.77,11.05 34.54,11.29 34.75,11.49 "/>
    <path class="fil2" d="M35.46 12.27c-0.16,0.17 -0.41,0.19 -0.66,-0.04 -0.16,-0.14 -0.25,-0.33 -0.26,-0.48l0.13 -0.04c0,0.13 0.08,0.29 0.22,0.42 0.17,0.16 0.34,0.17 0.46,0.04 0.12,-0.13 0.11,-0.3 -0.09,-0.47l-0.08 -0.07 0.08 -0.08 0.63 -0.1 -0.54 -0.5 0.08 -0.09 0.68 0.62 -0.07 0.07 -0.64 0.11c0.22,0.22 0.22,0.44 0.06,0.61z"/>
    <path class="fil2" d="M36.33 13.04c-0.17,0.18 -0.42,0.21 -0.68,-0.03 -0.15,-0.14 -0.25,-0.32 -0.25,-0.48l0.13 -0.04c0,0.13 0.07,0.3 0.21,0.42 0.18,0.16 0.35,0.16 0.47,0.04 0.13,-0.14 0.12,-0.3 -0.15,-0.55l-0.22 -0.2 0.53 -0.48 0.58 0.53 -0.09 0.09 -0.48 -0.44 -0.34 0.3 0.13 0.13c0.32,0.29 0.33,0.53 0.16,0.71z"/>
    <path class="fil2" d="M37.26 13.89c-0.18,0.2 -0.45,0.18 -0.66,-0.01 -0.28,-0.25 -0.25,-0.59 0.05,-0.92 0.33,-0.36 0.7,-0.37 0.99,-0.11 0.09,0.09 0.17,0.19 0.19,0.29l-0.12 0.05c-0.02,-0.09 -0.08,-0.17 -0.16,-0.24 -0.23,-0.21 -0.51,-0.19 -0.77,0.09 -0.02,0.03 -0.05,0.06 -0.07,0.09 0.16,-0.07 0.34,-0.02 0.49,0.12 0.2,0.19 0.24,0.45 0.06,0.64zm-0.11 -0.1l0 0c0.13,-0.13 0.11,-0.32 -0.06,-0.47 -0.16,-0.14 -0.36,-0.15 -0.48,-0.01 -0.11,0.11 -0.11,0.31 0.07,0.48 0.16,0.14 0.34,0.14 0.47,0z"/>
    <polygon class="fil2" points="39.26,16.29 39.31,15.73 38.75,15.83 38.63,15.72 39.32,15.6 39.37,14.94 39.49,15.05 39.45,15.58 39.97,15.49 40.09,15.59 39.43,15.71 39.38,16.41 "/>
    <polygon class="fil2" points="40.06,17.03 40.11,16.47 39.56,16.57 39.44,16.46 40.12,16.34 40.18,15.68 40.3,15.79 40.25,16.32 40.77,16.22 40.89,16.33 40.24,16.44 40.18,17.14 "/>
    <polygon class="fil2" points="40.87,17.77 40.92,17.21 40.36,17.31 40.24,17.19 40.93,17.07 40.98,16.41 41.1,16.53 41.06,17.05 41.58,16.96 41.7,17.07 41.05,17.18 40.99,17.88 "/>
    <polygon class="fil2" points="41.67,18.51 41.73,17.94 41.17,18.04 41.05,17.93 41.73,17.81 41.79,17.15 41.91,17.26 41.86,17.79 42.39,17.7 42.5,17.81 41.85,17.92 41.8,18.62 "/>
    <polygon class="fil2" points="44.46,21.05 44.51,20.49 43.95,20.59 43.83,20.48 44.52,20.36 44.57,19.7 44.69,19.81 44.65,20.34 45.17,20.24 45.29,20.35 44.64,20.46 44.58,21.16 "/>
    <polygon class="fil2" points="45.26,21.79 45.31,21.23 44.76,21.33 44.64,21.21 45.32,21.09 45.38,20.43 45.5,20.55 45.45,21.07 45.98,20.98 46.09,21.09 45.44,21.2 45.39,21.9 "/>
    <polygon class="fil2" points="46.07,22.53 46.12,21.96 45.56,22.06 45.44,21.95 46.13,21.83 46.18,21.17 46.3,21.28 46.26,21.81 46.78,21.72 46.9,21.83 46.25,21.94 46.19,22.64 "/>
    <polygon class="fil2" points="46.88,23.26 46.93,22.7 46.37,22.8 46.25,22.69 46.94,22.57 46.99,21.91 47.11,22.02 47.06,22.55 47.59,22.46 47.71,22.56 47.05,22.68 47,23.37 "/>
    <polygon class="fil2" points="50.34,24.49 49.37,25.55 49.27,25.45 50.14,24.49 49.89,24.26 49.98,24.16 "/>
    <path class="fil2" d="M50.6 26.11c-0.16,0.18 -0.41,0.2 -0.67,-0.03 -0.15,-0.14 -0.25,-0.33 -0.25,-0.49l0.13 -0.04c0,0.14 0.08,0.3 0.21,0.43 0.18,0.16 0.35,0.16 0.47,0.03 0.12,-0.12 0.1,-0.29 -0.09,-0.47l-0.08 -0.07 0.08 -0.08 0.62 -0.1 -0.54 -0.49 0.09 -0.1 0.68 0.62 -0.07 0.08 -0.64 0.1c0.21,0.22 0.22,0.45 0.06,0.61z"/>
    <polygon class="fil2" points="51.63,27.1 51.42,26.91 51.16,27.19 51.06,27.09 51.31,26.81 50.71,26.26 50.79,26.18 51.99,26 52.11,26.11 50.94,26.29 51.4,26.71 51.62,26.47 51.73,26.57 51.51,26.81 51.72,27 "/>
    <path class="fil2" d="M52.28 28.03l-0.09 0.09 -0.74 -0.67 0.07 -0.08 0.83 -0.03c0.23,-0.01 0.32,-0.06 0.38,-0.13 0.12,-0.12 0.1,-0.28 -0.06,-0.42 -0.13,-0.12 -0.26,-0.17 -0.4,-0.15l-0.02 -0.14c0.17,-0.02 0.36,0.05 0.52,0.19 0.21,0.2 0.25,0.43 0.09,0.61 -0.1,0.1 -0.21,0.16 -0.48,0.17l-0.68 0.03 0.58 0.53z"/>
    <path class="fil2" d="M30.95 12.72c0.13,-0.15 0.35,-0.15 0.51,-0.01 0.09,0.08 0.13,0.18 0.12,0.28l-0.13 0c0,-0.07 -0.03,-0.13 -0.08,-0.18 -0.09,-0.08 -0.22,-0.08 -0.31,0.02 -0.08,0.09 -0.08,0.22 0.02,0.31 0.05,0.04 0.11,0.06 0.18,0.05l0.01 0.14c-0.1,0.02 -0.2,-0.02 -0.29,-0.1 -0.16,-0.14 -0.17,-0.36 -0.03,-0.51z"/>
    <path class="fil2" d="M31.7 13.67l-0.24 -0.21 -0.14 0.06 -0.12 -0.1 0.69 -0.3 0.11 0.1 -0.24 0.71 -0.12 -0.11 0.06 -0.15zm0.04 -0.12l0 0 0.1 -0.27 -0.26 0.12 0.16 0.15z"/>
    <path class="fil2" d="M32.14 14.27l0.03 -0.22 -0.01 -0.01 -0.1 -0.09 -0.13 0.14 -0.11 -0.11 0.46 -0.5 0.22 0.2c0.13,0.12 0.15,0.27 0.05,0.38 -0.07,0.08 -0.16,0.1 -0.25,0.06l-0.04 0.27 -0.12 -0.12zm0.26 -0.5l0 0 -0.09 -0.09 -0.16 0.17 0.09 0.09c0.07,0.07 0.14,0.07 0.19,0.01 0.05,-0.05 0.05,-0.12 -0.03,-0.18z"/>
    <path class="fil2" d="M32.35 14.38l0.12 -0.05c0.02,0.07 0.06,0.15 0.12,0.2 0.07,0.07 0.12,0.07 0.15,0.04 0.09,-0.1 -0.27,-0.3 -0.1,-0.49 0.08,-0.08 0.22,-0.09 0.36,0.04 0.06,0.06 0.11,0.13 0.13,0.21l-0.11 0.05c-0.02,-0.07 -0.06,-0.13 -0.11,-0.17 -0.06,-0.06 -0.12,-0.06 -0.14,-0.03 -0.09,0.1 0.26,0.3 0.09,0.49 -0.07,0.08 -0.21,0.09 -0.35,-0.04 -0.08,-0.08 -0.14,-0.17 -0.16,-0.25z"/>
    <polygon class="fil2" points="33.94,14.99 33.48,15.5 33.36,15.39 33.55,15.18 33.32,14.97 33.13,15.18 33.01,15.07 33.47,14.57 33.59,14.68 33.41,14.88 33.64,15.08 33.82,14.89 "/>
    <path class="fil2" d="M33.79 15.33c0.14,-0.15 0.36,-0.16 0.52,-0.01 0.16,0.14 0.17,0.36 0.04,0.51 -0.14,0.15 -0.36,0.15 -0.52,0.01 -0.16,-0.15 -0.17,-0.36 -0.04,-0.51zm0.44 0.39l0 0c0.09,-0.09 0.08,-0.22 -0.01,-0.3 -0.09,-0.09 -0.22,-0.08 -0.31,0.01 -0.08,0.1 -0.08,0.23 0.01,0.31 0.09,0.08 0.22,0.08 0.31,-0.02z"/>
    <polygon class="fil2" points="34.67,15.66 34.78,15.77 34.41,16.18 34.66,16.41 34.57,16.5 34.2,16.16 "/>
    <path class="fil2" d="M35.1 16.06l0.23 0.21c0.17,0.15 0.19,0.35 0.05,0.5 -0.14,0.16 -0.35,0.15 -0.51,0l-0.23 -0.21 0.46 -0.5zm-0.15 0.61l0 0c0.1,0.09 0.22,0.09 0.31,0 0.09,-0.1 0.08,-0.22 -0.02,-0.31l-0.11 -0.1 -0.29 0.31 0.11 0.1z"/>
    <polygon class="fil2" points="35.71,17.37 35.63,17.46 35.24,17.11 35.7,16.6 36.08,16.95 35.99,17.05 35.73,16.8 35.63,16.91 35.86,17.13 35.78,17.22 35.54,17 35.44,17.12 "/>
    <path class="fil2" d="M36.04 17.84l0.03 -0.23 0 0 -0.1 -0.09 -0.13 0.14 -0.12 -0.11 0.46 -0.5 0.22 0.2c0.13,0.12 0.15,0.27 0.05,0.38 -0.07,0.07 -0.16,0.09 -0.25,0.06l-0.03 0.27 -0.13 -0.12zm0.27 -0.51l0 0 -0.1 -0.08 -0.16 0.17 0.1 0.09c0.07,0.07 0.13,0.07 0.18,0.01 0.05,-0.05 0.05,-0.12 -0.02,-0.19z"/>
    <path class="fil2" d="M29.09 14.64l0.27 -0.03c-0.02,0.12 0.01,0.21 0.08,0.27 0.09,0.08 0.18,0.07 0.28,-0.03l0.43 -0.47 -0.35 -0.31 0.17 -0.18 0.56 0.52 -0.57 0.63c-0.22,0.24 -0.45,0.25 -0.68,0.04 -0.13,-0.12 -0.2,-0.28 -0.19,-0.44z"/>
    <path class="fil2" d="M29.9 15.39c0.08,-0.09 0.18,-0.08 0.26,-0.01 0.07,0.06 0.09,0.17 0.01,0.25 -0.07,0.08 -0.18,0.08 -0.26,0.01 -0.07,-0.06 -0.08,-0.18 -0.01,-0.25z"/>
    <polygon class="fil2" points="32.52,16.23 31.32,16.91 31.08,16.69 31.46,15.83 30.64,16.29 30.4,16.07 30.97,14.81 31.2,15.02 30.8,15.9 31.65,15.43 31.86,15.62 31.45,16.51 32.31,16.03 "/>
    <path class="fil2" d="M32.62 16.32c0.06,-0.07 0.16,-0.08 0.24,0 0.08,0.07 0.09,0.17 0.03,0.24 -0.06,0.07 -0.17,0.07 -0.25,0 -0.08,-0.07 -0.08,-0.18 -0.02,-0.24zm-0.18 0.24l0 0 0.22 0.2 -0.69 0.75 -0.21 -0.2 0.68 -0.75z"/>
    <polygon class="fil2" points="33.12,16.66 33.33,16.86 32.39,17.89 32.17,17.69 "/>
    <polygon class="fil2" points="33.53,17.04 33.75,17.24 32.81,18.27 32.59,18.07 "/>
    <path class="fil2" d="M33.87 17.46c0.06,-0.07 0.17,-0.07 0.25,0 0.08,0.08 0.09,0.18 0.02,0.24 -0.06,0.07 -0.16,0.08 -0.24,0 -0.09,-0.07 -0.09,-0.17 -0.03,-0.24zm-0.18 0.25l0 0 0.22 0.2 -0.68 0.74 -0.22 -0.19 0.68 -0.75z"/>
    <path class="fil2" d="M34.48 19.02l-0.39 0.42 -0.21 -0.18 0.09 -0.1c-0.1,0.03 -0.21,0 -0.32,-0.1 -0.18,-0.16 -0.19,-0.35 -0.08,-0.48 0.13,-0.13 0.3,-0.14 0.53,0.07l0.17 0.16c0.09,-0.1 0.08,-0.2 -0.04,-0.31 -0.08,-0.07 -0.18,-0.12 -0.27,-0.13l0.06 -0.22c0.13,0.02 0.28,0.1 0.4,0.21 0.23,0.2 0.26,0.43 0.06,0.66zm-0.39 -0.01l0 0 0.07 -0.08 -0.15 -0.13c-0.1,-0.1 -0.17,-0.09 -0.22,-0.04 -0.05,0.06 -0.03,0.13 0.04,0.2 0.08,0.07 0.17,0.09 0.26,0.05z"/>
    <path class="fil2" d="M35.93 20.35l-0.39 0.42 -0.21 -0.19 0.36 -0.4c0.11,-0.12 0.1,-0.22 0.02,-0.3 -0.1,-0.09 -0.23,-0.09 -0.35,0.04l-0.34 0.37 -0.22 -0.19 0.36 -0.4c0.11,-0.12 0.11,-0.22 0.02,-0.3 -0.09,-0.09 -0.22,-0.09 -0.34,0.04l-0.34 0.38 -0.22 -0.2 0.68 -0.75 0.21 0.19 -0.08 0.09c0.12,-0.01 0.23,0.03 0.33,0.12 0.1,0.09 0.15,0.21 0.13,0.34 0.13,-0.02 0.27,0.02 0.38,0.13 0.18,0.16 0.21,0.38 0,0.61z"/>
    <path class="fil2" d="M35.73 20.81l0.21 -0.08c0.03,0.1 0.1,0.22 0.2,0.3 0.1,0.1 0.16,0.1 0.19,0.06 0.12,-0.12 -0.45,-0.41 -0.18,-0.71 0.13,-0.14 0.35,-0.12 0.57,0.08 0.1,0.09 0.2,0.22 0.23,0.33l-0.22 0.08c-0.03,-0.1 -0.09,-0.19 -0.16,-0.25 -0.1,-0.09 -0.17,-0.09 -0.2,-0.05 -0.12,0.12 0.45,0.41 0.18,0.71 -0.13,0.13 -0.35,0.12 -0.57,-0.09 -0.13,-0.11 -0.23,-0.27 -0.25,-0.38z"/>
    <path class="fil2" d="M44.79 28.39c0.29,-0.32 0.64,-0.34 0.88,-0.12 0.24,0.22 0.25,0.56 -0.05,0.88 -0.29,0.33 -0.63,0.35 -0.87,0.13 -0.24,-0.22 -0.25,-0.57 0.04,-0.89zm0.61 0.56l0 0c0.2,-0.22 0.2,-0.39 0.09,-0.49 -0.11,-0.1 -0.27,-0.08 -0.47,0.14 -0.2,0.22 -0.21,0.38 -0.1,0.49 0.11,0.1 0.27,0.08 0.48,-0.14z"/>
    <path class="fil2" d="M46.37 30.17c-0.18,0.2 -0.46,0.17 -0.66,-0.02 -0.27,-0.24 -0.28,-0.56 0,-0.88 0.31,-0.33 0.68,-0.33 0.98,-0.07 0.1,0.1 0.18,0.21 0.21,0.32l-0.24 0.09c-0.02,-0.09 -0.07,-0.16 -0.14,-0.22 -0.16,-0.15 -0.35,-0.14 -0.53,0.03 0.11,0 0.22,0.05 0.32,0.14 0.19,0.17 0.23,0.42 0.06,0.61zm-0.23 -0.19l0 0c0.08,-0.09 0.07,-0.21 -0.03,-0.3 -0.1,-0.09 -0.22,-0.09 -0.3,-0.01 -0.08,0.09 -0.07,0.21 0.04,0.3 0.09,0.09 0.21,0.1 0.29,0.01z"/>
    <polygon class="fil2" points="47.61,29.72 47.8,29.9 46.15,30.78 45.96,30.61 "/>
    <path class="fil2" d="M47.62 31.54l-0.17 0.18 -0.73 -0.67 0.13 -0.15 0.7 -0.01c0.16,0 0.22,-0.04 0.27,-0.08 0.07,-0.08 0.05,-0.17 -0.05,-0.27 -0.08,-0.07 -0.18,-0.11 -0.29,-0.08l-0.07 -0.26c0.18,-0.04 0.38,0.01 0.55,0.17 0.22,0.2 0.26,0.44 0.1,0.62 -0.08,0.1 -0.19,0.16 -0.44,0.16l-0.42 0.01 0.42 0.38z"/>
    <polygon class="fil2" points="48.61,32.4 48.45,32.26 48.26,32.46 48.04,32.26 48.23,32.06 47.71,31.58 47.85,31.43 48.87,31.23 49.1,31.45 48.14,31.64 48.4,31.88 48.57,31.7 48.78,31.89 48.62,32.07 48.77,32.22 "/>
    <path class="fil5" d="M52.23 20.27c0.47,-0.86 0.18,-1.95 -0.59,-2.56 -0.24,-0.2 -0.51,-0.35 -0.79,-0.44 -0.71,-0.24 -1.61,0.03 -1.92,0.72 -0.26,0.55 -0.09,1.21 0.16,1.77 0.26,0.59 0.65,1.18 1.27,1.37 0.59,0.18 1.26,-0.08 1.66,-0.55 0.08,-0.1 0.15,-0.2 0.21,-0.31z"/>
    <path class="fil3" d="M45.75 22.94c-0.01,-0.02 0.38,-0.06 0.86,-0.1 0.48,-0.03 0.87,-0.05 0.87,-0.02 0,0.02 -0.39,0.06 -0.86,0.1 -0.48,0.03 -0.87,0.04 -0.87,0.02z"/>
   </g>
  </g>
  <g id="_2366971663568">
   <g>
    <polygon class="fil6" points="19.37,13.81 18.67,13.17 19.89,11.84 20.59,12.48 "/>
    <polygon class="fil6" points="18.93,11.81 19.75,10.91 21.53,12.53 20.71,13.44 "/>
   </g>
   <g>
    <path class="fil6" d="M22.25 21.23c0,6.14 -4.98,11.12 -11.12,11.12 -6.15,0 -11.13,-4.98 -11.13,-11.12 0,-6.15 4.98,-11.13 11.13,-11.13 6.14,0 11.12,4.98 11.12,11.13z"/>
   </g>
   <g>
    <path class="fil7" d="M20.12 21.23c0,4.96 -4.03,8.99 -8.99,8.99 -4.97,0 -8.99,-4.03 -8.99,-8.99 0,-4.97 4.02,-8.99 8.99,-8.99 4.96,0 8.99,4.02 8.99,8.99z"/>
   </g>
   <g>
    <path class="fil6" d="M22.28 21.26c0,6.14 -4.98,11.13 -11.13,11.13 -6.15,0 -11.13,-4.99 -11.13,-11.13 0,-6.15 4.98,-11.13 11.13,-11.13 6.15,0 11.13,4.98 11.13,11.13z"/>
   </g>
   <g>
    <path class="fil8" d="M20.14 21.26c0,4.96 -4.02,8.99 -8.99,8.99 -4.97,0 -8.99,-4.03 -8.99,-8.99 0,-4.97 4.02,-8.99 8.99,-8.99 4.97,0 8.99,4.02 8.99,8.99z"/>
   </g>
   <g>
    <g>
     <path class="fil6" d="M11.2 13.29c-0.09,0 -0.16,-0.08 -0.16,-0.18l0 -2.85c0,-0.09 0.07,-0.17 0.16,-0.17 0.1,0 0.17,0.08 0.17,0.17l0 2.85c0,0.1 -0.07,0.18 -0.17,0.18z"/>
    </g>
    <g>
     <path class="fil6" d="M11.2 32.16c-0.09,0 -0.16,-0.08 -0.16,-0.17l0 -2.85c0,-0.1 0.07,-0.18 0.16,-0.18 0.1,0 0.17,0.08 0.17,0.18l0 2.85c0,0.09 -0.07,0.17 -0.17,0.17z"/>
    </g>
    <g>
     <path class="fil6" d="M21.99 21.36l-2.85 0c-0.1,0 -0.18,-0.15 -0.18,-0.25 0,-0.09 0.08,-0.25 0.18,-0.25l2.85 0c0.1,0 0.18,0.16 0.18,0.25 0,0.1 -0.08,0.25 -0.18,0.25z"/>
    </g>
    <g>
     <path class="fil6" d="M3.12 21.36l-2.85 0c-0.1,0 -0.18,-0.15 -0.18,-0.25 0,-0.09 0.08,-0.25 0.18,-0.25l2.85 0c0.1,0 0.18,0.16 0.18,0.25 0,0.1 -0.08,0.25 -0.18,0.25z"/>
    </g>
   </g>
   <g>
    <g>
     <path class="fil6" d="M6.62 14.03c-0.06,0 -0.12,-0.03 -0.15,-0.09l-1.15 -1.85c-0.05,-0.08 -0.02,-0.19 0.06,-0.25 0.08,-0.05 0.19,-0.02 0.24,0.06l1.15 1.85c0.05,0.09 0.03,0.2 -0.06,0.25 -0.03,0.02 -0.06,0.03 -0.09,0.03z"/>
    </g>
    <g>
     <path class="fil6" d="M16.91 30.64c-0.06,0 -0.12,-0.03 -0.16,-0.08l-1.14 -1.85c-0.05,-0.09 -0.03,-0.2 0.06,-0.25 0.08,-0.05 0.19,-0.02 0.24,0.06l1.15 1.85c0.05,0.08 0.02,0.19 -0.06,0.25 -0.03,0.01 -0.06,0.02 -0.09,0.02z"/>
    </g>
    <g>
     <path class="fil6" d="M18.57 16.84c-0.06,0 -0.12,-0.03 -0.15,-0.09 -0.05,-0.08 -0.02,-0.19 0.06,-0.24l1.85 -1.15c0.08,-0.05 0.19,-0.02 0.25,0.06 0.05,0.08 0.02,0.19 -0.06,0.24l-1.85 1.15c-0.03,0.02 -0.07,0.03 -0.1,0.03z"/>
    </g>
    <g>
     <path class="fil6" d="M1.95 27.12c-0.05,0 -0.11,-0.02 -0.15,-0.08 -0.05,-0.08 -0.02,-0.19 0.06,-0.24l1.85 -1.15c0.09,-0.05 0.2,-0.03 0.25,0.06 0.05,0.08 0.02,0.19 -0.06,0.24l-1.85 1.15c-0.03,0.02 -0.06,0.02 -0.1,0.02z"/>
    </g>
   </g>
   <g>
    <g>
     <path class="fil6" d="M3.61 17.18c-0.03,0 -0.06,-0.01 -0.09,-0.03l-1.9 -1.06c-0.09,-0.05 -0.12,-0.16 -0.07,-0.24 0.05,-0.09 0.16,-0.12 0.24,-0.07l1.9 1.06c0.09,0.05 0.12,0.16 0.07,0.24 -0.03,0.06 -0.09,0.1 -0.15,0.1z"/>
    </g>
    <g>
     <path class="fil6" d="M20.67 26.7c-0.03,0 -0.06,0 -0.08,-0.02l-1.91 -1.06c-0.08,-0.05 -0.11,-0.16 -0.06,-0.24 0.04,-0.09 0.15,-0.12 0.24,-0.07l1.9 1.06c0.08,0.05 0.12,0.16 0.07,0.24 -0.03,0.06 -0.1,0.09 -0.16,0.09z"/>
    </g>
    <g>
     <path class="fil6" d="M15.42 13.83c-0.03,0 -0.06,-0.01 -0.08,-0.03 -0.09,-0.04 -0.12,-0.15 -0.07,-0.24l1.06 -1.9c0.05,-0.09 0.16,-0.12 0.24,-0.07 0.09,0.05 0.12,0.16 0.07,0.24l-1.06 1.91c-0.03,0.05 -0.1,0.09 -0.16,0.09z"/>
    </g>
    <g>
     <path class="fil6" d="M5.89 30.89c-0.02,0 -0.05,-0.01 -0.08,-0.02 -0.09,-0.05 -0.12,-0.16 -0.07,-0.24l1.06 -1.9c0.05,-0.09 0.16,-0.12 0.24,-0.07 0.09,0.04 0.12,0.15 0.07,0.24l-1.06 1.9c-0.03,0.06 -0.09,0.09 -0.16,0.09z"/>
    </g>
   </g>
   <g>
    <g>
     <g>
      <path class="fil6" d="M9.49 12.77c-0.03,0 -0.06,-0.01 -0.06,-0.04l-0.43 -2.14c0,-0.03 0.02,-0.06 0.05,-0.07 0.03,0 0.06,0.02 0.07,0.05l0.43 2.13c0,0.04 -0.02,0.07 -0.05,0.07 -0.01,0 -0.01,0 -0.01,0z"/>
     </g>
     <g>
      <path class="fil6" d="M13.32 31.94c-0.03,0 -0.05,-0.02 -0.06,-0.05l-0.43 -2.13c0,-0.03 0.02,-0.07 0.05,-0.07 0.03,-0.01 0.06,0.01 0.07,0.04l0.43 2.14c0,0.03 -0.02,0.06 -0.05,0.07 0,0 -0.01,0 -0.01,0z"/>
     </g>
     <g>
      <path class="fil6" d="M19.7 19.59c-0.02,0 -0.05,-0.02 -0.05,-0.05 -0.01,-0.03 0.01,-0.06 0.04,-0.07l2.14 -0.43c0.03,0 0.06,0.02 0.07,0.05 0,0.03 -0.02,0.06 -0.05,0.07l-2.13 0.43c-0.01,0 -0.01,0 -0.02,0z"/>
     </g>
     <g>
      <path class="fil6" d="M0.54 23.42c-0.03,0 -0.05,-0.02 -0.06,-0.05 -0.01,-0.03 0.02,-0.06 0.05,-0.07l2.13 -0.43c0.03,0 0.07,0.02 0.07,0.05 0.01,0.03 -0.01,0.06 -0.04,0.07l-2.14 0.43c0,0 -0.01,0 -0.01,0z"/>
     </g>
    </g>
    <g>
     <g>
      <path class="fil6" d="M8.67 12.98c-0.02,0 -0.05,-0.02 -0.06,-0.04l-0.63 -2.09c-0.01,-0.03 0.01,-0.06 0.04,-0.07 0.03,-0.01 0.07,0.01 0.08,0.04l0.63 2.08c0.01,0.03 -0.01,0.07 -0.04,0.08 -0.01,0 -0.01,0 -0.02,0z"/>
     </g>
     <g>
      <path class="fil6" d="M14.34 31.68c-0.03,0 -0.05,-0.01 -0.06,-0.04l-0.63 -2.08c-0.01,-0.03 0.01,-0.07 0.04,-0.08 0.03,-0.01 0.06,0.01 0.07,0.04l0.63 2.09c0.01,0.03 0,0.06 -0.03,0.07 -0.01,0 -0.02,0 -0.02,0z"/>
     </g>
     <g>
      <path class="fil6" d="M19.5 18.77c-0.03,0 -0.05,-0.01 -0.06,-0.04 -0.01,-0.03 0.01,-0.06 0.04,-0.07l2.09 -0.64c0.03,0 0.06,0.01 0.07,0.04 0.01,0.04 -0.01,0.07 -0.04,0.08l-2.08 0.63c-0.01,0 -0.01,0 -0.02,0z"/>
     </g>
     <g>
      <path class="fil6" d="M0.79 24.44c-0.02,0 -0.04,-0.02 -0.05,-0.04 -0.01,-0.03 0.01,-0.07 0.04,-0.08l2.08 -0.63c0.03,-0.01 0.07,0.01 0.08,0.04 0,0.03 -0.01,0.07 -0.04,0.07l-2.09 0.64c0,0 -0.01,0 -0.02,0z"/>
     </g>
    </g>
    <g>
     <g>
      <path class="fil6" d="M10.33 12.56c-0.03,0 -0.05,0.02 -0.05,-0.01l-0.22 -2.14c0,-0.04 0.02,-0.05 0.05,-0.06 0.04,0 0.07,0.03 0.07,0.06l0.21 2.13c0.01,0.03 -0.02,0.02 -0.05,0.02 0,0 0,0 -0.01,0z"/>
     </g>
     <g>
      <path class="fil6" d="M12.26 32.1c-0.03,0 -0.06,-0.02 -0.06,-0.06l-0.22 -2.16c0,-0.03 0.03,-0.06 0.06,-0.07 0.03,0 0.06,0.02 0.06,0.06l0.22 2.16c0,0.04 -0.02,0.06 -0.06,0.07 0,0 0,0 0,0z"/>
     </g>
     <g>
      <path class="fil6" d="M19.83 20.37c-0.03,0 -0.06,0.01 -0.06,-0.02 0,-0.04 0.02,-0.05 0.05,-0.05l2.17 -0.21c0.03,0 0.06,0.03 0.07,0.06 0,0.03 -0.02,0.03 -0.06,0.03l-2.16 0.19c-0.01,0 -0.01,0 -0.01,0z"/>
     </g>
     <g>
      <path class="fil6" d="M0.38 22.36c-0.03,0 -0.06,-0.02 -0.06,-0.06 0,-0.03 0.02,-0.06 0.06,-0.06l2.16 -0.21c0.03,-0.01 0.06,0.02 0.07,0.05 0,0.03 -0.02,0.06 -0.06,0.06l-2.16 0.22c-0.01,0 -0.01,0 -0.01,0z"/>
     </g>
    </g>
    <g>
     <g>
      <path class="fil6" d="M7.17 13.59c-0.02,0 -0.04,-0.01 -0.05,-0.03l-1 -1.93c-0.02,-0.03 -0.01,-0.07 0.02,-0.08 0.03,-0.02 0.07,-0.01 0.08,0.02l1.01 1.93c0.01,0.03 0,0.07 -0.03,0.08 -0.01,0.01 -0.02,0.01 -0.03,0.01z"/>
     </g>
     <g>
      <path class="fil6" d="M16.21 30.92c-0.02,0 -0.04,-0.01 -0.05,-0.03l-1.01 -1.93c-0.01,-0.03 0,-0.07 0.03,-0.08 0.03,-0.02 0.06,-0.01 0.08,0.02l1 1.93c0.02,0.03 0.01,0.07 -0.02,0.08 -0.01,0.01 -0.02,0.01 -0.03,0.01z"/>
     </g>
     <g>
      <path class="fil6" d="M18.89 17.28c-0.02,0 -0.04,-0.02 -0.05,-0.04 -0.02,-0.03 -0.01,-0.06 0.02,-0.08l1.93 -1c0.03,-0.02 0.07,-0.01 0.08,0.02 0.02,0.03 0.01,0.07 -0.02,0.08l-1.93 1.01c-0.01,0 -0.02,0.01 -0.03,0.01z"/>
     </g>
     <g>
      <path class="fil6" d="M1.56 26.31c-0.02,0 -0.04,-0.01 -0.05,-0.03 -0.02,-0.03 -0.01,-0.07 0.02,-0.08l1.93 -1.01c0.03,-0.01 0.07,0 0.08,0.03 0.02,0.03 0.01,0.06 -0.02,0.08l-1.93 1c-0.01,0.01 -0.02,0.01 -0.03,0.01z"/>
     </g>
    </g>
    <g>
     <g>
      <path class="fil6" d="M7.89 13.26c-0.02,0 -0.04,-0.02 -0.05,-0.04l-0.83 -2.01c-0.01,-0.04 0,-0.07 0.03,-0.08 0.03,-0.01 0.07,0 0.08,0.03l0.83 2.01c0.01,0.03 0,0.07 -0.04,0.08 0,0 -0.01,0.01 -0.02,0.01z"/>
     </g>
     <g>
      <path class="fil6" d="M15.31 31.34c-0.02,0 -0.04,-0.02 -0.05,-0.04l-0.83 -2.01c-0.01,-0.03 0,-0.07 0.03,-0.08 0.03,-0.01 0.07,0 0.08,0.03l0.83 2.02c0.01,0.03 0,0.06 -0.03,0.07 -0.01,0.01 -0.02,0.01 -0.03,0.01z"/>
     </g>
     <g>
      <path class="fil6" d="M19.22 17.99c-0.02,0 -0.04,-0.01 -0.05,-0.03 -0.01,-0.03 0,-0.07 0.03,-0.08l2.01 -0.83c0.03,-0.01 0.07,0 0.08,0.03 0.01,0.03 0,0.07 -0.03,0.08l-2.02 0.83c0,0 -0.01,0 -0.02,0z"/>
     </g>
     <g>
      <path class="fil6" d="M1.14 25.41c-0.02,0 -0.04,-0.01 -0.05,-0.03 -0.02,-0.03 0,-0.07 0.03,-0.08l2.01 -0.83c0.03,-0.01 0.07,0 0.08,0.03 0.01,0.04 0,0.07 -0.03,0.08l-2.02 0.83c0,0 -0.01,0 -0.02,0z"/>
     </g>
    </g>
   </g>
   <g>
    <g>
     <g>
      <path class="fil6" d="M14.22 13.15c-0.01,0 -0.01,0 -0.02,0 -0.03,-0.01 -0.05,-0.05 -0.04,-0.08l0.76 -2.04c0.02,-0.03 0.05,-0.04 0.08,-0.03 0.03,0.01 0.05,0.04 0.04,0.07l-0.76 2.04c-0.01,0.03 -0.04,0.04 -0.06,0.04z"/>
     </g>
     <g>
      <path class="fil6" d="M7.4 31.47c-0.01,0 -0.02,0 -0.02,-0.01 -0.03,-0.01 -0.05,-0.04 -0.04,-0.07l0.76 -2.04c0.01,-0.03 0.05,-0.05 0.08,-0.04 0.03,0.01 0.05,0.05 0.03,0.08l-0.76 2.04c0,0.02 -0.03,0.04 -0.05,0.04z"/>
     </g>
     <g>
      <path class="fil6" d="M21.37 25.08c-0.01,0 -0.02,0 -0.02,0l-2.04 -0.76c-0.03,-0.01 -0.05,-0.05 -0.04,-0.08 0.01,-0.03 0.05,-0.05 0.08,-0.03l2.04 0.76c0.03,0.01 0.04,0.04 0.03,0.07 -0.01,0.03 -0.03,0.04 -0.05,0.04z"/>
     </g>
     <g>
      <path class="fil6" d="M3.05 18.26c-0.01,0 -0.01,0 -0.02,0l-2.04 -0.76c-0.03,-0.02 -0.05,-0.05 -0.03,-0.08 0.01,-0.03 0.04,-0.05 0.07,-0.04l2.04 0.76c0.03,0.02 0.05,0.05 0.04,0.08 -0.01,0.02 -0.03,0.04 -0.06,0.04z"/>
     </g>
    </g>
    <g>
     <g>
      <path class="fil6" d="M13.42 12.9c-0.01,0 -0.01,0 -0.02,0 -0.03,-0.01 -0.05,-0.05 -0.04,-0.08l0.56 -2.1c0.01,-0.03 0.04,-0.05 0.07,-0.04 0.03,0 0.05,0.04 0.04,0.07l-0.55 2.1c-0.01,0.03 -0.04,0.05 -0.06,0.05z"/>
     </g>
     <g>
      <path class="fil6" d="M8.4 31.79c0,0 -0.01,0 -0.01,-0.01 -0.04,0 -0.05,-0.04 -0.05,-0.07l0.56 -2.1c0.01,-0.03 0.04,-0.05 0.08,-0.04 0.03,0 0.05,0.04 0.04,0.07l-0.56 2.1c-0.01,0.03 -0.03,0.05 -0.06,0.05z"/>
     </g>
     <g>
      <path class="fil6" d="M21.69 24.08c-0.01,0 -0.01,0 -0.02,0l-2.1 -0.56c-0.04,-0.01 -0.05,-0.04 -0.05,-0.08 0.01,-0.03 0.05,-0.05 0.08,-0.04l2.1 0.56c0.03,0.01 0.05,0.04 0.04,0.07 0,0.03 -0.03,0.05 -0.05,0.05z"/>
     </g>
     <g>
      <path class="fil6" d="M2.8 19.06c-0.01,0 -0.01,0 -0.02,0l-2.1 -0.56c-0.03,-0.01 -0.05,-0.04 -0.05,-0.07 0.01,-0.03 0.05,-0.05 0.08,-0.05l2.1 0.56c0.03,0.01 0.05,0.04 0.04,0.08 0,0.02 -0.03,0.04 -0.05,0.04z"/>
     </g>
    </g>
    <g>
     <g>
      <path class="fil6" d="M14.85 13.42c0,0 -0.01,0 -0.02,-0.01 -0.03,-0.01 -0.04,-0.05 -0.03,-0.08l0.92 -1.97c0.01,-0.03 0.05,-0.04 0.08,-0.03 0.03,0.01 0.04,0.05 0.03,0.08l-0.92 1.97c-0.01,0.02 -0.03,0.04 -0.06,0.04z"/>
     </g>
     <g>
      <path class="fil6" d="M6.6 31.14c0,0 -0.01,-0.01 -0.02,-0.01 -0.03,-0.01 -0.04,-0.05 -0.03,-0.08l0.92 -1.97c0.01,-0.03 0.05,-0.05 0.08,-0.03 0.03,0.01 0.04,0.05 0.03,0.08l-0.92 1.97c-0.01,0.02 -0.03,0.04 -0.06,0.04z"/>
     </g>
     <g>
      <path class="fil6" d="M21.03 25.87c0,0 -0.01,0 -0.02,0l-1.97 -0.92c-0.03,-0.01 -0.05,-0.05 -0.03,-0.08 0.01,-0.03 0.05,-0.04 0.08,-0.03l1.97 0.92c0.03,0.01 0.04,0.05 0.03,0.08 -0.01,0.02 -0.03,0.03 -0.06,0.03z"/>
     </g>
     <g>
      <path class="fil6" d="M3.32 17.62c-0.01,0 -0.02,0 -0.03,0l-1.97 -0.92c-0.03,-0.01 -0.04,-0.05 -0.03,-0.08 0.01,-0.03 0.05,-0.04 0.08,-0.03l1.97 0.92c0.03,0.02 0.04,0.05 0.03,0.08 -0.01,0.02 -0.03,0.03 -0.05,0.03z"/>
     </g>
    </g>
    <g>
     <g>
      <path class="fil6" d="M11.82 12.56c0,0 0,0 0,0 -0.03,0 -0.06,0 -0.06,-0.03l0.16 -2.15c0.01,-0.04 0.04,-0.05 0.07,-0.05 0.03,0 0.05,0.04 0.05,0.07l-0.16 2.14c0,0.03 -0.03,0.02 -0.06,0.02z"/>
     </g>
     <g>
      <path class="fil6" d="M10.4 31.99c-0.01,0 -0.01,0 -0.01,0 -0.03,0 -0.06,0.04 -0.05,0l0.16 -2.14c0,-0.03 0.03,-0.04 0.06,-0.03 0.03,0 0.06,0.03 0.05,0.07l-0.16 2.11c0,0.03 -0.02,-0.01 -0.05,-0.01z"/>
     </g>
     <g>
      <path class="fil6" d="M22.02 22.19c0,0 0,0 0,0l-2.17 -0.21c-0.04,0 -0.06,-0.06 -0.06,-0.09 0,-0.03 0.03,-0.07 0.06,-0.07l2.18 0.15c0.03,0 0.05,0.08 0.05,0.12 0,0.03 -0.03,0.1 -0.06,0.1z"/>
     </g>
     <g>
      <path class="fil6" d="M2.53 20.7c0,0 0,0 -0.01,0l-2.17 -0.18c-0.03,0 -0.05,-0.04 -0.05,-0.08 0,-0.03 0.03,-0.06 0.06,-0.06l2.17 0.16c0.04,0 0.06,0.05 0.06,0.08 0,0.03 -0.03,0.08 -0.06,0.08z"/>
     </g>
    </g>
    <g>
     <g>
      <path class="fil6" d="M12.61 12.72c0,0 -0.01,0 -0.01,0 -0.03,0 -0.05,-0.03 -0.05,-0.07l0.36 -2.14c0,-0.04 0.03,-0.06 0.07,-0.05 0.03,0 0.05,0.03 0.04,0.07l-0.35 2.14c-0.01,0.03 -0.03,0.05 -0.06,0.05z"/>
     </g>
     <g>
      <path class="fil6" d="M9.41 32c0,0 0,0 -0.01,0 -0.03,0 -0.05,-0.03 -0.05,-0.06l0.36 -2.15c0.01,-0.03 0.04,-0.06 0.07,-0.05 0.03,0 0.05,0.03 0.05,0.07l-0.36 2.14c0,0.03 -0.03,0.05 -0.06,0.05z"/>
     </g>
     <g>
      <path class="fil6" d="M21.9 23.07c0,0 0,0 -0.01,0l-2.14 -0.36c-0.04,-0.01 -0.06,-0.04 -0.05,-0.07 0,-0.03 0.03,-0.05 0.07,-0.05l2.14 0.36c0.04,0 0.06,0.03 0.05,0.07 0,0.03 -0.03,0.05 -0.06,0.05z"/>
     </g>
     <g>
      <path class="fil6" d="M2.62 19.87c0,0 0,0 -0.01,0l-2.15 -0.36c-0.03,0 -0.05,-0.03 -0.04,-0.07 0,-0.03 0.03,-0.05 0.06,-0.04l2.15 0.35c0.03,0.01 0.06,0.04 0.05,0.07 0,0.03 -0.03,0.05 -0.06,0.05z"/>
     </g>
    </g>
   </g>
   <g>
    <g>
     <g>
      <path class="fil6" d="M17.73 15.58c-0.02,0 -0.03,-0.01 -0.05,-0.02 -0.02,-0.03 -0.01,-0.06 0.01,-0.09l1.64 -1.43c0.02,-0.02 0.06,-0.02 0.08,0.01 0.03,0.02 0.02,0.06 0,0.08l-1.64 1.43c-0.01,0.01 -0.03,0.02 -0.04,0.02z"/>
     </g>
     <g>
      <path class="fil6" d="M3.01 28.43c-0.02,0 -0.03,0 -0.05,-0.02 -0.02,-0.02 -0.02,-0.06 0.01,-0.08l1.64 -1.43c0.02,-0.02 0.06,-0.02 0.08,0 0.03,0.03 0.02,0.07 0,0.09l-1.64 1.43c-0.01,0.01 -0.03,0.01 -0.04,0.01z"/>
     </g>
     <g>
      <path class="fil6" d="M18.33 29.47c-0.01,0 -0.03,-0.01 -0.04,-0.02l-1.43 -1.64c-0.03,-0.02 -0.02,-0.06 0,-0.08 0.03,-0.02 0.06,-0.02 0.09,0l1.43 1.64c0.02,0.03 0.02,0.06 -0.01,0.09 -0.01,0.01 -0.02,0.01 -0.04,0.01z"/>
     </g>
     <g>
      <path class="fil6" d="M5.48 14.75c-0.02,0 -0.04,-0.01 -0.05,-0.02l-1.43 -1.64c-0.02,-0.03 -0.02,-0.06 0.01,-0.08 0.02,-0.03 0.06,-0.02 0.08,0l1.43 1.64c0.02,0.03 0.02,0.06 0,0.08 -0.02,0.01 -0.03,0.02 -0.04,0.02z"/>
     </g>
    </g>
    <g>
     <g>
      <path class="fil6" d="M17.15 14.97c-0.02,0 -0.03,0 -0.04,-0.01 -0.03,-0.03 -0.03,-0.06 -0.01,-0.09l1.5 -1.58c0.02,-0.03 0.06,-0.03 0.08,-0.01 0.02,0.03 0.03,0.06 0,0.09l-1.49 1.58c-0.01,0.02 -0.03,0.02 -0.04,0.02z"/>
     </g>
     <g>
      <path class="fil6" d="M3.74 29.19c-0.02,0 -0.03,0 -0.04,-0.01 -0.03,-0.03 -0.03,-0.06 0,-0.09l1.49 -1.58c0.02,-0.03 0.06,-0.03 0.08,0 0.03,0.02 0.03,0.06 0.01,0.08l-1.5 1.58c-0.01,0.02 -0.03,0.02 -0.04,0.02z"/>
     </g>
     <g>
      <path class="fil6" d="M19.09 28.74c-0.01,0 -0.03,0 -0.04,-0.02l-1.58 -1.49c-0.03,-0.02 -0.03,-0.06 -0.01,-0.08 0.03,-0.03 0.06,-0.03 0.09,-0.01l1.58 1.5c0.03,0.02 0.03,0.06 0,0.08 -0.01,0.01 -0.02,0.02 -0.04,0.02z"/>
     </g>
     <g>
      <path class="fil6" d="M4.87 15.33c-0.01,0 -0.03,0 -0.04,-0.01l-1.58 -1.5c-0.03,-0.02 -0.03,-0.06 -0.01,-0.08 0.03,-0.02 0.06,-0.03 0.09,0l1.58 1.49c0.03,0.02 0.03,0.06 0,0.08 -0.01,0.02 -0.02,0.02 -0.04,0.02z"/>
     </g>
    </g>
    <g>
     <g>
      <path class="fil6" d="M18.2 16.16c-0.02,0 -0.04,0 -0.05,-0.02 -0.02,-0.03 -0.01,-0.06 0.01,-0.08l1.76 -1.29c0.03,-0.02 0.06,-0.01 0.08,0.01 0.02,0.03 0.02,0.07 -0.01,0.09l-1.76 1.28c-0.01,0.01 -0.02,0.01 -0.03,0.01z"/>
     </g>
     <g>
      <path class="fil6" d="M2.42 27.7c-0.02,0 -0.03,-0.01 -0.05,-0.02 -0.02,-0.03 -0.01,-0.07 0.02,-0.09l1.75 -1.28c0.03,-0.02 0.07,-0.02 0.09,0.01 0.02,0.03 0.01,0.06 -0.02,0.08l-1.75 1.29c-0.01,0.01 -0.03,0.01 -0.04,0.01z"/>
     </g>
     <g>
      <path class="fil6" d="M17.6 30.06c-0.02,0 -0.04,-0.01 -0.05,-0.03l-1.28 -1.76c-0.02,-0.02 -0.02,-0.06 0.01,-0.08 0.03,-0.02 0.06,-0.01 0.08,0.01l1.29 1.76c0.02,0.03 0.01,0.07 -0.02,0.09 -0.01,0 -0.02,0.01 -0.03,0.01z"/>
     </g>
     <g>
      <path class="fil6" d="M6.06 14.28c-0.01,0 -0.03,-0.01 -0.04,-0.02l-1.29 -1.76c-0.02,-0.03 -0.01,-0.07 0.01,-0.08 0.03,-0.02 0.07,-0.02 0.09,0.01l1.28 1.76c0.02,0.02 0.02,0.06 -0.01,0.08 -0.01,0.01 -0.02,0.01 -0.04,0.01z"/>
     </g>
    </g>
    <g>
     <g>
      <path class="fil6" d="M15.94 14.02c-0.01,0 -0.02,0 -0.03,-0.01 -0.02,-0.01 -0.03,-0.05 -0.01,-0.08l1.19 -1.82c0.02,-0.03 0.05,-0.03 0.08,-0.02 0.03,0.02 0.04,0.06 0.02,0.09l-1.2 1.82c-0.01,0.01 -0.03,0.02 -0.05,0.02z"/>
     </g>
     <g>
      <path class="fil6" d="M5.24 30.38c-0.01,0 -0.02,-0.01 -0.03,-0.01 -0.03,-0.02 -0.04,-0.06 -0.02,-0.09l1.19 -1.82c0.02,-0.02 0.06,-0.03 0.09,-0.01 0.02,0.01 0.03,0.05 0.01,0.08l-1.19 1.82c-0.01,0.02 -0.03,0.03 -0.05,0.03z"/>
     </g>
     <g>
      <path class="fil6" d="M20.28 27.24c-0.01,0 -0.03,0 -0.04,-0.01l-1.82 -1.19c-0.03,-0.02 -0.03,-0.06 -0.02,-0.09 0.02,-0.02 0.06,-0.03 0.09,-0.01l1.82 1.19c0.03,0.02 0.03,0.05 0.02,0.08 -0.02,0.02 -0.03,0.03 -0.05,0.03z"/>
     </g>
     <g>
      <path class="fil6" d="M3.92 16.53c-0.01,0 -0.02,0 -0.03,-0.01l-1.82 -1.19c-0.03,-0.02 -0.04,-0.05 -0.02,-0.08 0.02,-0.03 0.06,-0.04 0.08,-0.02l1.83 1.19c0.02,0.02 0.03,0.06 0.01,0.09 -0.01,0.01 -0.03,0.02 -0.05,0.02z"/>
     </g>
    </g>
    <g>
     <g>
      <path class="fil6" d="M16.52 14.43c-0.01,0 -0.03,0 -0.04,-0.01 -0.02,-0.02 -0.03,-0.06 -0.01,-0.08l1.34 -1.72c0.02,-0.03 0.05,-0.03 0.08,-0.01 0.03,0.02 0.03,0.06 0.01,0.08l-1.34 1.72c-0.01,0.02 -0.02,0.02 -0.04,0.02z"/>
     </g>
     <g>
      <path class="fil6" d="M4.52 29.87c-0.01,0 -0.02,-0.01 -0.03,-0.02 -0.03,-0.02 -0.03,-0.05 -0.01,-0.08l1.33 -1.72c0.02,-0.03 0.06,-0.03 0.09,-0.01 0.02,0.02 0.03,0.06 0.01,0.08l-1.34 1.72c-0.01,0.02 -0.03,0.03 -0.05,0.03z"/>
     </g>
     <g>
      <path class="fil6" d="M19.76 27.95c-0.01,0 -0.02,0 -0.03,-0.01l-1.72 -1.33c-0.03,-0.02 -0.03,-0.06 -0.01,-0.09 0.02,-0.02 0.06,-0.03 0.08,-0.01l1.72 1.34c0.03,0.02 0.03,0.06 0.01,0.08 -0.01,0.02 -0.03,0.02 -0.05,0.02z"/>
     </g>
     <g>
      <path class="fil6" d="M4.33 15.96c-0.01,0 -0.02,0 -0.03,-0.01l-1.72 -1.34c-0.03,-0.02 -0.03,-0.06 -0.01,-0.08 0.02,-0.03 0.05,-0.03 0.08,-0.01l1.72 1.33c0.03,0.02 0.03,0.06 0.01,0.09 -0.01,0.01 -0.03,0.02 -0.05,0.02z"/>
     </g>
    </g>
   </g>
   <g>
    <path class="fil9" d="M4.97 17.65c-0.61,1.05 -0.96,2.27 -0.96,3.58 0,3.91 3.17,7.09 7.09,7.09 3.91,0 7.09,-3.18 7.09,-7.09 0,-3.92 -3.18,-7.09 -7.09,-7.09l0.03 7.09 -6.16 -3.58z"/>
   </g>
   <g>
    <path class="fil6" d="M15.01 21.23c0,2.14 -1.74,3.88 -3.88,3.88 -2.15,0 -3.89,-1.74 -3.89,-3.88 0,-2.15 1.74,-3.89 3.89,-3.89 2.14,0 3.88,1.74 3.88,3.89z"/>
   </g>
   <polygon class="fil6" points="11.7,9.98 10.75,9.98 10.75,8.17 11.7,8.17 "/>
   <polygon class="fil6" points="10.02,8.8 10.02,7.58 12.43,7.58 12.43,8.8 "/>
   <path class="fil6" d="M11.14 4.38c-1.74,0 -3.15,1.41 -3.15,3.15 0,1.73 1.41,3.14 3.15,3.14 1.74,0 3.15,-1.41 3.15,-3.14 0,-1.74 -1.41,-3.15 -3.15,-3.15zm0 5.53l0 0c-1.32,0 -2.39,-1.07 -2.39,-2.38 0,-1.32 1.07,-2.39 2.39,-2.39 1.32,0 2.38,1.07 2.38,2.39 0,1.31 -1.06,2.38 -2.38,2.38z"/>
   <g>
    <path class="fil8" d="M7.42 26.79l3.13 -5.17c-0.03,-0.08 -0.05,-0.16 -0.05,-0.25l0 -0.04c0.01,-0.37 0.3,-0.66 0.66,-0.66 0.36,0 0.66,0.3 0.66,0.66l0 0.04c-0.01,0.37 -0.3,0.66 -0.66,0.66 -0.04,0 -0.08,-0.01 -0.12,-0.01l-3.1 5.09c-0.08,0.15 -0.27,0.19 -0.42,0.11 -0.14,-0.09 -0.19,-0.28 -0.1,-0.43z"/>
    <path class="fil8" d="M10.58 21.32c0,-0.28 0.23,-0.51 0.51,-0.51 0.29,0 0.51,0.23 0.51,0.52 0,0.28 -0.23,0.51 -0.51,0.51 -0.28,0 -0.51,-0.23 -0.51,-0.52zm-0.49 0c0,0.55 0.45,1 1,1 0.55,0.01 1,-0.44 1,-0.99 0,-0.43 -0.26,-0.79 -0.64,-0.94 0,0 0,-0.01 0,-0.01l0.01 -3.93c0,-0.2 -0.16,-0.36 -0.36,-0.36 -0.19,0 -0.36,0.16 -0.36,0.35l-0.01 3.93c0,0.01 0.01,0.01 0.01,0.02 -0.38,0.14 -0.65,0.51 -0.65,0.93z"/>
    <path class="fil6" d="M10.54 21.32c0,-0.3 0.25,-0.54 0.55,-0.54 0.31,0 0.55,0.24 0.55,0.55 0,0.3 -0.24,0.55 -0.55,0.54 -0.3,0 -0.55,-0.24 -0.55,-0.55z"/>
   </g>
  </g>
 </g>
</svg>
