<?xml version="1.0" encoding="UTF-8"?>
<!DOCTYPE svg PUBLIC "-//W3C//DTD SVG 1.1//EN" "http://www.w3.org/Graphics/SVG/1.1/DTD/svg11.dtd">
<!-- Creator: CorelDRAW 2020 (64-Bit) -->
<svg xmlns="http://www.w3.org/2000/svg" xml:space="preserve" width="375px" height="206px" version="1.1" style="shape-rendering:geometricPrecision; text-rendering:geometricPrecision; image-rendering:optimizeQuality; fill-rule:evenodd; clip-rule:evenodd"
viewBox="0 0 52.31 28.7"
 xmlns:xlink="http://www.w3.org/1999/xlink"
 xmlns:xodm="http://www.corel.com/coreldraw/odm/2003">
 <defs>
  <style type="text/css">
   <![CDATA[
    .str0 {stroke:white;stroke-width:0.11;stroke-miterlimit:22.9256}
    .fil9 {fill:none}
    .fil0 {fill:#F4F6FE}
    .fil7 {fill:#FEFEFE;fill-rule:nonzero}
    .fil3 {fill:#5A69F7;fill-rule:nonzero}
    .fil5 {fill:#6641A9;fill-rule:nonzero}
    .fil1 {fill:#925EF2;fill-rule:nonzero}
    .fil6 {fill:#F9F9F9;fill-rule:nonzero}
    .fil4 {fill:white;fill-rule:nonzero}
    .fil2 {fill:#334BAE;fill-rule:nonzero}
    .fil8 {fill:url(#id1);fill-rule:nonzero}
   ]]>
  </style>
   <clipPath id="id0">
    <path d="M0 0l52.31 0 0 28.7 -52.31 0 0 -28.7z"/>
   </clipPath>
  <linearGradient id="id1" gradientUnits="userSpaceOnUse" x1="61.22" y1="11.73" x2="47.44" y2="14.79">
   <stop offset="0" style="stop-opacity:1; stop-color:#00D9FF"/>
   <stop offset="1" style="stop-opacity:1; stop-color:#925FF2"/>
  </linearGradient>
 </defs>
 <g id="Слой_x0020_1">
  <metadata id="CorelCorpID_0Corel-Layer"/>
  <polygon class="fil0" points="0,0 52.31,0 52.31,28.7 0,28.7 "/>
  <g style="clip-path:url(#id0)">
   <g id="_2656926641792">
    <g>
     <path id="1" class="fil1" d="M53.81 21.52l-17.8 0c-0.19,0 -0.34,-0.15 -0.34,-0.34l-0.01 -11.04c0,-0.19 0.16,-0.34 0.34,-0.34l17.78 0c0.19,0 0.37,0.16 0.37,0.35l0 11.03c0,0.19 -0.15,0.34 -0.34,0.34z"/>
     <path class="fil2" d="M53.81 21.52l-17.8 0c-0.19,0 -0.34,-0.15 -0.34,-0.34l-0.01 -11.04c0,-0.19 0.16,-0.34 0.34,-0.34l17.72 -0.01c0.19,0 0.43,0.23 0.43,0.41l0 10.98c0,0.19 -0.15,0.34 -0.34,0.34z"/>
     <path class="fil3" d="M53.68 9.79l-17.55 0.01c-0.3,-0.05 -0.52,0.15 -0.47,0.47l0.01 3.14c0,0.06 0.03,0.12 0.08,0.15 1.08,0.71 2.54,0.83 3.83,0.56 1.57,-0.33 2.99,-1.13 4.45,-1.78 1.45,-0.66 3.06,-1.19 4.63,-0.92 1.49,0.26 2.76,1.18 4.11,1.87 0.36,0.18 0.74,0.35 1.13,0.48 0.12,0.04 0.25,-0.05 0.25,-0.18l0 -3.33c0.02,-0.32 -0.13,-0.48 -0.47,-0.47z"/>
     <path class="fil4" d="M38.71 12.48c0,0.15 -0.12,0.23 -0.35,0.23l-0.45 0 0 -0.87 0.43 0c0.21,0 0.33,0.09 0.33,0.23 0,0.09 -0.05,0.15 -0.12,0.19 0.1,0.03 0.16,0.11 0.16,0.22zm-0.6 -0.48l0 0 0 0.2 0.2 0c0.1,0 0.15,-0.03 0.15,-0.1 0,-0.07 -0.05,-0.1 -0.15,-0.1l-0.2 0zm0.4 0.45l0 0c0,-0.07 -0.06,-0.1 -0.16,-0.1l-0.24 0 0 0.21 0.24 0c0.1,0 0.16,-0.03 0.16,-0.11z"/>
     <path class="fil4" d="M39.43 12.53l-0.4 0 -0.08 0.18 -0.2 0 0.38 -0.87 0.2 0 0.39 0.87 -0.21 0 -0.08 -0.18zm-0.06 -0.16l0 0 -0.14 -0.33 -0.14 0.33 0.28 0z"/>
     <polygon class="fil4" points="40.6,11.84 40.6,12.71 40.44,12.71 40.01,12.19 40.01,12.71 39.81,12.71 39.81,11.84 39.98,11.84 40.41,12.37 40.41,11.84 "/>
     <polygon class="fil4" points="41.13,12.37 41.01,12.49 41.01,12.71 40.81,12.71 40.81,11.84 41.01,11.84 41.01,12.25 41.39,11.84 41.62,11.84 41.26,12.23 41.64,12.71 41.4,12.71 "/>
     <polygon class="fil4" points="38.55,16.08 38.39,16.08 38.39,16.29 38.31,16.29 38.31,16.08 37.86,16.08 37.86,16.02 38.28,15.5 38.37,15.5 37.96,16.01 38.31,16.01 38.31,15.83 38.39,15.83 38.39,16.01 38.55,16.01 "/>
     <path class="fil4" d="M39.13 16.06c0,0.14 -0.1,0.24 -0.29,0.24 -0.11,0 -0.22,-0.04 -0.28,-0.1l0.04 -0.07c0.05,0.06 0.14,0.09 0.24,0.09 0.13,0 0.21,-0.06 0.21,-0.16 0,-0.09 -0.07,-0.15 -0.22,-0.15l-0.05 0 0 -0.06 0.22 -0.28 -0.41 0 0 -0.07 0.51 0 0 0.05 -0.22 0.29c0.17,0.01 0.25,0.1 0.25,0.22z"/>
     <path class="fil4" d="M39.78 16.06c0,0.13 -0.1,0.24 -0.29,0.24 -0.12,0 -0.23,-0.04 -0.29,-0.1l0.04 -0.07c0.05,0.06 0.14,0.09 0.25,0.09 0.13,0 0.2,-0.06 0.2,-0.16 0,-0.1 -0.06,-0.16 -0.26,-0.16l-0.17 0 0.04 -0.4 0.43 0 0 0.07 -0.36 0 -0.03 0.25 0.1 0c0.24,0 0.34,0.1 0.34,0.24z"/>
     <path class="fil4" d="M40.48 16.05c0,0.15 -0.12,0.25 -0.27,0.25 -0.22,0 -0.33,-0.15 -0.33,-0.4 0,-0.27 0.15,-0.41 0.36,-0.41 0.07,0 0.14,0.01 0.19,0.04l-0.03 0.07c-0.04,-0.03 -0.1,-0.04 -0.16,-0.04 -0.17,0 -0.28,0.11 -0.28,0.33 0,0.02 0,0.04 0.01,0.06 0.04,-0.09 0.13,-0.13 0.24,-0.13 0.16,0 0.27,0.09 0.27,0.23zm-0.08 0.01l0 0c0,-0.11 -0.08,-0.18 -0.2,-0.18 -0.13,0 -0.21,0.08 -0.21,0.18 0,0.09 0.07,0.17 0.21,0.17 0.12,0 0.2,-0.07 0.2,-0.17z"/>
     <polygon class="fil4" points="42.2,16.29 42.01,16.04 41.82,16.29 41.73,16.29 41.96,15.98 41.74,15.69 41.83,15.69 42.01,15.93 42.19,15.69 42.28,15.69 42.05,15.98 42.29,16.29 "/>
     <polygon class="fil4" points="42.81,16.29 42.62,16.04 42.42,16.29 42.33,16.29 42.57,15.98 42.35,15.69 42.44,15.69 42.62,15.93 42.8,15.69 42.88,15.69 42.66,15.98 42.9,16.29 "/>
     <polygon class="fil4" points="43.41,16.29 43.22,16.04 43.03,16.29 42.94,16.29 43.18,15.98 42.95,15.69 43.04,15.69 43.22,15.93 43.4,15.69 43.49,15.69 43.27,15.98 43.51,16.29 "/>
     <polygon class="fil4" points="44.02,16.29 43.83,16.04 43.64,16.29 43.55,16.29 43.79,15.98 43.56,15.69 43.65,15.69 43.83,15.93 44.01,15.69 44.1,15.69 43.87,15.98 44.11,16.29 "/>
     <path class="fil4" d="M37.45 17.95c0,-0.12 0.08,-0.2 0.2,-0.2 0.07,0 0.12,0.02 0.16,0.07l-0.06 0.05c-0.02,-0.03 -0.05,-0.05 -0.09,-0.05 -0.07,0 -0.12,0.05 -0.12,0.13 0,0.07 0.05,0.12 0.12,0.12 0.04,0 0.07,-0.02 0.09,-0.05l0.06 0.05c-0.04,0.05 -0.09,0.07 -0.16,0.07 -0.12,0 -0.2,-0.08 -0.2,-0.19z"/>
     <path class="fil4" d="M38.11 18.05l-0.17 0 -0.04 0.09 -0.09 0 0.17 -0.38 0.09 0 0.17 0.38 -0.09 0 -0.04 -0.09zm-0.03 -0.06l0 0 -0.06 -0.15 -0.06 0.15 0.12 0z"/>
     <path class="fil4" d="M38.52 18.14l-0.07 -0.11 -0.01 0 -0.07 0 0 0.11 -0.09 0 0 -0.38 0.16 0c0.1,0 0.17,0.05 0.17,0.13 0,0.06 -0.03,0.1 -0.08,0.12l0.08 0.13 -0.09 0zm-0.08 -0.31l0 0 -0.07 0 0 0.13 0.07 0c0.05,0 0.08,-0.03 0.08,-0.07 0,-0.04 -0.03,-0.06 -0.08,-0.06z"/>
     <path class="fil4" d="M38.65 18.1l0.03 -0.07c0.03,0.02 0.08,0.04 0.12,0.04 0.06,0 0.08,-0.02 0.08,-0.04 0,-0.07 -0.22,-0.02 -0.22,-0.16 0,-0.07 0.05,-0.12 0.16,-0.12 0.04,0 0.09,0.01 0.13,0.03l-0.03 0.07c-0.03,-0.02 -0.07,-0.03 -0.1,-0.03 -0.06,0 -0.08,0.02 -0.08,0.04 0,0.07 0.22,0.02 0.22,0.16 0,0.07 -0.05,0.12 -0.16,0.12 -0.06,0 -0.12,-0.02 -0.15,-0.04z"/>
     <polygon class="fil4" points="39.53,17.76 39.53,18.14 39.44,18.14 39.44,17.98 39.27,17.98 39.27,18.14 39.18,18.14 39.18,17.76 39.27,17.76 39.27,17.91 39.44,17.91 39.44,17.76 "/>
     <path class="fil4" d="M39.59 17.95c0,-0.12 0.09,-0.2 0.21,-0.2 0.12,0 0.21,0.08 0.21,0.2 0,0.11 -0.09,0.19 -0.21,0.19 -0.12,0 -0.21,-0.08 -0.21,-0.19zm0.33 0l0 0c0,-0.08 -0.05,-0.13 -0.12,-0.13 -0.07,0 -0.12,0.05 -0.12,0.13 0,0.07 0.05,0.12 0.12,0.12 0.07,0 0.12,-0.05 0.12,-0.12z"/>
     <polygon class="fil4" points="40.08,17.76 40.16,17.76 40.16,18.06 40.36,18.06 40.36,18.14 40.08,18.14 "/>
     <path class="fil4" d="M40.41 17.76l0.17 0c0.12,-0.01 0.21,0.07 0.21,0.18 0,0.12 -0.09,0.2 -0.21,0.2l-0.17 0 0 -0.38zm0.16 0.3l0 0c0.08,0 0.13,-0.04 0.13,-0.12 0,-0.07 -0.05,-0.11 -0.13,-0.11l-0.08 0 0 0.23 0.08 0z"/>
     <polygon class="fil4" points="41.15,18.06 41.15,18.13 40.85,18.13 40.85,17.75 41.14,17.75 41.14,17.83 40.94,17.83 40.94,17.91 41.12,17.91 41.12,17.98 40.94,17.98 40.94,18.06 "/>
     <path class="fil4" d="M41.46 18.13l-0.07 -0.1 -0.01 0 -0.07 0 0 0.1 -0.09 0 0 -0.38 0.16 0c0.11,0 0.17,0.06 0.17,0.14 0,0.06 -0.03,0.1 -0.08,0.12l0.09 0.12 -0.1 0zm-0.08 -0.3l0 0 -0.07 0 0 0.13 0.07 0c0.05,0 0.08,-0.03 0.08,-0.07 0,-0.04 -0.03,-0.06 -0.08,-0.06z"/>
     <path class="fil4" d="M49.01 19.18c0,-0.24 0.14,-0.38 0.32,-0.38 0.18,0 0.31,0.14 0.31,0.38 0,0.24 -0.13,0.38 -0.31,0.38 -0.18,0 -0.32,-0.14 -0.32,-0.38zm0.46 0l0 0c0,-0.17 -0.06,-0.24 -0.14,-0.24 -0.09,0 -0.15,0.07 -0.15,0.24 0,0.17 0.06,0.23 0.15,0.23 0.08,0 0.14,-0.06 0.14,-0.23z"/>
     <path class="fil4" d="M50.33 19.31c0,0.15 -0.13,0.25 -0.28,0.25 -0.2,0 -0.33,-0.13 -0.33,-0.37 0,-0.25 0.15,-0.39 0.37,-0.39 0.08,0 0.16,0.02 0.21,0.05l-0.06 0.13c-0.05,-0.03 -0.09,-0.04 -0.14,-0.04 -0.12,0 -0.2,0.07 -0.21,0.21 0.05,-0.04 0.11,-0.06 0.18,-0.06 0.14,0 0.26,0.09 0.26,0.22zm-0.17 0.01l0 0c0,-0.06 -0.05,-0.11 -0.12,-0.11 -0.08,0 -0.13,0.05 -0.13,0.11 0,0.07 0.05,0.11 0.13,0.11 0.07,0 0.12,-0.04 0.12,-0.11z"/>
     <polygon class="fil4" points="50.67,18.66 50.81,18.66 50.47,19.65 50.32,19.65 "/>
     <path class="fil4" d="M51.35 19.41l0 0.13 -0.55 0 0 -0.1 0.28 -0.27c0.07,-0.06 0.08,-0.1 0.08,-0.14 0,-0.05 -0.04,-0.09 -0.12,-0.09 -0.06,0 -0.11,0.03 -0.15,0.08l-0.12 -0.08c0.05,-0.09 0.16,-0.14 0.29,-0.14 0.16,0 0.27,0.08 0.27,0.22 0,0.07 -0.02,0.13 -0.12,0.23l-0.17 0.16 0.31 0z"/>
     <path class="fil4" d="M37.41 19.42l0.09 -0.12c0.04,0.06 0.09,0.08 0.14,0.08 0.07,0 0.1,-0.04 0.1,-0.12l0 -0.34 -0.26 0 0 -0.14 0.43 0 0 0.47c0,0.19 -0.09,0.27 -0.26,0.27 -0.1,0 -0.19,-0.03 -0.24,-0.1z"/>
     <path class="fil4" d="M38.02 19.42c0,-0.06 0.04,-0.1 0.1,-0.1 0.06,0 0.1,0.04 0.1,0.1 0,0.06 -0.04,0.1 -0.1,0.1 -0.06,0 -0.1,-0.04 -0.1,-0.1z"/>
     <polygon class="fil4" points="39.41,18.78 39.17,19.51 38.99,19.51 38.83,19.02 38.66,19.51 38.48,19.51 38.24,18.78 38.42,18.78 38.58,19.29 38.75,18.78 38.91,18.78 39.08,19.3 39.25,18.78 "/>
     <path class="fil4" d="M39.48 18.78c0,-0.05 0.04,-0.09 0.1,-0.09 0.06,0 0.1,0.04 0.1,0.09 0,0.05 -0.04,0.09 -0.1,0.09 -0.06,0 -0.1,-0.04 -0.1,-0.09zm0.02 0.17l0 0 0.16 0 0 0.56 -0.16 0 0 -0.56z"/>
     <polygon class="fil4" points="39.82,18.74 39.98,18.74 39.98,19.51 39.82,19.51 "/>
     <polygon class="fil4" points="40.13,18.74 40.29,18.74 40.29,19.51 40.13,19.51 "/>
     <path class="fil4" d="M40.42 18.78c0,-0.05 0.05,-0.09 0.11,-0.09 0.06,0 0.1,0.04 0.1,0.09 0,0.05 -0.04,0.09 -0.1,0.09 -0.06,0 -0.11,-0.04 -0.11,-0.09zm0.02 0.17l0 0 0.17 0 0 0.56 -0.17 0 0 -0.56z"/>
     <path class="fil4" d="M41.26 19.19l0 0.32 -0.16 0 0 -0.07c-0.03,0.06 -0.09,0.08 -0.17,0.08 -0.13,0 -0.21,-0.07 -0.21,-0.17 0,-0.1 0.07,-0.17 0.24,-0.17l0.13 0c0,-0.07 -0.04,-0.11 -0.13,-0.11 -0.06,0 -0.12,0.02 -0.16,0.06l-0.06 -0.12c0.07,-0.04 0.16,-0.07 0.25,-0.07 0.17,0 0.27,0.08 0.27,0.25zm-0.17 0.15l0 0 0 -0.06 -0.11 0c-0.07,0 -0.1,0.03 -0.1,0.06 0,0.05 0.04,0.07 0.09,0.07 0.06,0 0.1,-0.02 0.12,-0.07z"/>
     <path class="fil4" d="M42.35 19.19l0 0.33 -0.16 0 0 -0.3c0,-0.09 -0.04,-0.13 -0.11,-0.13 -0.07,0 -0.12,0.04 -0.12,0.14l0 0.29 -0.16 -0.01 0 -0.29c0,-0.09 -0.04,-0.13 -0.11,-0.13 -0.07,0 -0.12,0.04 -0.12,0.14l0 0.28 -0.17 0 0 -0.56 0.16 0 0 0.07c0.04,-0.05 0.1,-0.08 0.18,-0.08 0.07,0 0.14,0.03 0.18,0.1 0.05,-0.06 0.12,-0.1 0.2,-0.1 0.14,0 0.23,0.08 0.23,0.25z"/>
     <path class="fil4" d="M42.44 19.46l0.06 -0.11c0.05,0.03 0.13,0.05 0.19,0.05 0.08,0 0.11,-0.02 0.11,-0.05 0,-0.09 -0.34,0 -0.34,-0.22 0,-0.11 0.09,-0.19 0.26,-0.19 0.08,0 0.16,0.02 0.21,0.05l-0.05 0.12c-0.05,-0.03 -0.11,-0.04 -0.16,-0.04 -0.07,0 -0.11,0.02 -0.11,0.05 0,0.1 0.34,0 0.34,0.23 0,0.1 -0.09,0.17 -0.26,0.17 -0.1,0 -0.19,-0.02 -0.25,-0.06z"/>
    </g>
    <g>
     <g>
      <polygon class="fil5" points="53.91,9.07 53.58,8.77 54.15,8.15 54.48,8.45 "/>
      <polygon class="fil5" points="53.7,8.14 54.09,7.72 54.92,8.47 54.53,8.89 "/>
     </g>
     <g>
      <path class="fil5" d="M55.25 12.52c0,2.86 -2.32,5.18 -5.18,5.18 -2.86,0 -5.18,-2.32 -5.18,-5.18 0,-2.86 2.32,-5.18 5.18,-5.18 2.86,0 5.18,2.32 5.18,5.18z"/>
     </g>
     <g>
      <path class="fil6" d="M54.26 12.52c0,2.31 -1.88,4.19 -4.19,4.19 -2.31,0 -4.18,-1.88 -4.18,-4.19 0,-2.31 1.87,-4.18 4.18,-4.18 2.31,0 4.19,1.87 4.19,4.18z"/>
     </g>
     <g>
      <path class="fil5 str0" d="M55.26 12.54c0,2.86 -2.32,5.18 -5.18,5.18 -2.86,0 -5.18,-2.32 -5.18,-5.18 0,-2.87 2.32,-5.18 5.18,-5.18 2.86,0 5.18,2.31 5.18,5.18z"/>
     </g>
     <g>
      <path class="fil7" d="M54.27 12.54c0,2.31 -1.88,4.18 -4.19,4.18 -2.31,0 -4.18,-1.87 -4.18,-4.18 0,-2.32 1.87,-4.19 4.18,-4.19 2.31,0 4.19,1.87 4.19,4.19z"/>
     </g>
     <g>
      <g>
       <path class="fil5" d="M50.11 8.83c-0.05,0 -0.08,-0.04 -0.08,-0.09l0 -1.32c0,-0.05 0.03,-0.09 0.08,-0.09 0.04,0 0.07,0.04 0.07,0.09l0 1.32c0,0.05 -0.03,0.09 -0.07,0.09z"/>
      </g>
      <g>
       <path class="fil5" d="M50.11 17.61c-0.05,0 -0.08,-0.03 -0.08,-0.08l0 -1.33c0,-0.04 0.03,-0.08 0.08,-0.08 0.04,0 0.07,0.04 0.07,0.08l0 1.33c0,0.05 -0.03,0.08 -0.07,0.08z"/>
      </g>
      <g>
       <path class="fil5" d="M55.13 12.58l-1.33 0c-0.04,0 -0.08,-0.07 -0.08,-0.11 0,-0.05 0.04,-0.12 0.08,-0.12l1.33 0c0.04,0 0.08,0.07 0.08,0.12 0,0.04 -0.04,0.11 -0.08,0.11z"/>
      </g>
      <g>
       <path class="fil5" d="M46.34 12.58l-1.32 0c-0.05,0 -0.09,-0.07 -0.09,-0.11 0,-0.05 0.04,-0.12 0.09,-0.12l1.32 0c0.05,0 0.09,0.07 0.09,0.12 0,0.04 -0.04,0.11 -0.09,0.11z"/>
      </g>
     </g>
     <g>
      <g>
       <path class="fil5" d="M47.97 9.17c-0.02,0 -0.05,-0.02 -0.07,-0.04l-0.53 -0.86c-0.03,-0.04 -0.01,-0.09 0.03,-0.12 0.03,-0.02 0.09,-0.01 0.11,0.03l0.53 0.86c0.03,0.04 0.02,0.09 -0.02,0.12 -0.02,0 -0.03,0.01 -0.05,0.01z"/>
      </g>
      <g>
       <path class="fil5" d="M52.76 16.9c-0.03,0 -0.05,-0.01 -0.07,-0.04l-0.53 -0.86c-0.03,-0.04 -0.01,-0.09 0.02,-0.11 0.04,-0.03 0.09,-0.01 0.12,0.03l0.53 0.86c0.03,0.04 0.01,0.09 -0.02,0.11 -0.02,0.01 -0.03,0.01 -0.05,0.01z"/>
      </g>
      <g>
       <path class="fil5" d="M53.54 10.48c-0.03,0 -0.06,-0.02 -0.07,-0.04 -0.03,-0.04 -0.02,-0.09 0.02,-0.12l0.87 -0.53c0.03,-0.02 0.09,-0.01 0.11,0.03 0.02,0.04 0.01,0.09 -0.03,0.11l-0.86 0.54c-0.01,0 -0.03,0.01 -0.04,0.01z"/>
      </g>
      <g>
       <path class="fil5" d="M45.8 15.27c-0.03,0 -0.05,-0.02 -0.07,-0.04 -0.02,-0.04 -0.01,-0.09 0.03,-0.12l0.86 -0.53c0.04,-0.02 0.09,-0.01 0.11,0.03 0.03,0.04 0.02,0.09 -0.02,0.11l-0.86 0.53c-0.02,0.01 -0.03,0.02 -0.05,0.02z"/>
      </g>
     </g>
     <g>
      <g>
       <path class="fil5" d="M46.57 10.63c-0.01,0 -0.03,0 -0.04,-0.01l-0.88 -0.49c-0.04,-0.02 -0.06,-0.07 -0.04,-0.11 0.03,-0.04 0.08,-0.06 0.12,-0.03l0.88 0.49c0.04,0.02 0.06,0.07 0.03,0.11 -0.01,0.03 -0.04,0.04 -0.07,0.04z"/>
      </g>
      <g>
       <path class="fil5" d="M54.51 15.07c-0.01,0 -0.02,0 -0.04,-0.01l-0.88 -0.49c-0.04,-0.03 -0.05,-0.08 -0.03,-0.12 0.02,-0.04 0.07,-0.05 0.11,-0.03l0.89 0.49c0.04,0.03 0.05,0.08 0.03,0.12 -0.02,0.02 -0.05,0.04 -0.08,0.04z"/>
      </g>
      <g>
       <path class="fil5" d="M52.07 9.08c-0.01,0 -0.03,-0.01 -0.04,-0.01 -0.04,-0.03 -0.05,-0.08 -0.03,-0.12l0.49 -0.88c0.03,-0.04 0.08,-0.06 0.12,-0.03 0.04,0.02 0.05,0.07 0.03,0.11l-0.5 0.88c-0.01,0.03 -0.04,0.05 -0.07,0.05z"/>
      </g>
      <g>
       <path class="fil5" d="M47.64 17.02c-0.02,0 -0.03,0 -0.04,-0.01 -0.04,-0.02 -0.06,-0.07 -0.04,-0.11l0.5 -0.89c0.02,-0.04 0.07,-0.05 0.11,-0.03 0.04,0.02 0.05,0.07 0.03,0.11l-0.49 0.89c-0.02,0.02 -0.05,0.04 -0.07,0.04z"/>
      </g>
     </g>
     <g>
      <g>
       <g>
        <path class="fil5" d="M49.31 8.59c-0.01,0 -0.03,-0.01 -0.03,-0.03l-0.2 -0.99c0,-0.01 0.01,-0.03 0.02,-0.03 0.02,-0.01 0.03,0 0.04,0.02l0.2 0.99c0,0.02 -0.01,0.03 -0.03,0.04 0,0 0,0 0,0z"/>
       </g>
       <g>
        <path class="fil5" d="M51.09 17.51c-0.01,0 -0.02,-0.01 -0.03,-0.02l-0.19 -1c-0.01,-0.01 0,-0.03 0.02,-0.03 0.01,0 0.03,0.01 0.03,0.02l0.2 0.99c0,0.02 -0.01,0.03 -0.02,0.04 -0.01,0 -0.01,0 -0.01,0z"/>
       </g>
       <g>
        <path class="fil5" d="M54.06 11.76c-0.01,0 -0.02,-0.01 -0.02,-0.02 -0.01,-0.02 0,-0.03 0.02,-0.04l0.99 -0.2c0.02,0 0.03,0.01 0.04,0.03 0,0.01 -0.01,0.03 -0.03,0.03l-0.99 0.2c0,0 0,0 -0.01,0z"/>
       </g>
       <g>
        <path class="fil5" d="M45.14 13.54c-0.01,0 -0.02,-0.01 -0.02,-0.02 -0.01,-0.02 0,-0.03 0.02,-0.03l0.99 -0.2c0.02,-0.01 0.03,0 0.03,0.02 0.01,0.01 0,0.03 -0.02,0.03l-0.99 0.2c0,0 -0.01,0 -0.01,0z"/>
       </g>
      </g>
      <g>
       <g>
        <path class="fil5" d="M48.93 8.68c-0.01,0 -0.02,-0.01 -0.03,-0.02l-0.29 -0.97c-0.01,-0.01 0,-0.03 0.02,-0.03 0.01,-0.01 0.03,0 0.03,0.02l0.3 0.97c0,0.01 -0.01,0.03 -0.02,0.03 -0.01,0 -0.01,0 -0.01,0z"/>
       </g>
       <g>
        <path class="fil5" d="M51.57 17.39c-0.02,0 -0.03,-0.01 -0.03,-0.02l-0.29 -0.97c-0.01,-0.02 0,-0.03 0.01,-0.04 0.02,0 0.03,0.01 0.04,0.02l0.29 0.97c0.01,0.02 0,0.03 -0.02,0.04 0,0 0,0 0,0z"/>
       </g>
       <g>
        <path class="fil5" d="M53.97 11.38c-0.01,0 -0.02,-0.01 -0.03,-0.02 0,-0.02 0.01,-0.03 0.02,-0.04l0.97 -0.29c0.02,0 0.03,0 0.04,0.02 0,0.01 -0.01,0.03 -0.02,0.03l-0.97 0.3c-0.01,0 -0.01,0 -0.01,0z"/>
       </g>
       <g>
        <path class="fil5" d="M45.26 14.02c-0.01,0 -0.02,-0.01 -0.02,-0.02 -0.01,-0.02 0,-0.03 0.01,-0.04l0.97 -0.29c0.02,-0.01 0.03,0 0.04,0.02 0,0.01 -0.01,0.03 -0.02,0.03l-0.97 0.29c0,0.01 -0.01,0.01 -0.01,0.01z"/>
       </g>
      </g>
      <g>
       <g>
        <path class="fil5" d="M49.7 8.49c-0.01,0 -0.02,0.01 -0.02,-0.01l-0.1 -1c-0.01,-0.01 0.01,-0.02 0.02,-0.02 0.02,0 0.03,0.01 0.03,0.03l0.1 0.99c0,0.01 -0.01,0.01 -0.02,0.01 -0.01,0 -0.01,0 -0.01,0z"/>
       </g>
       <g>
        <path class="fil5" d="M50.6 17.58c-0.02,0 -0.03,-0.01 -0.03,-0.02l-0.1 -1.01c0,-0.02 0.01,-0.03 0.03,-0.03 0.01,0 0.02,0.01 0.03,0.02l0.1 1.01c0,0.02 -0.01,0.03 -0.03,0.03 0,0 0,0 0,0z"/>
       </g>
       <g>
        <path class="fil5" d="M54.12 12.12c-0.01,0 -0.02,0.01 -0.02,-0.01 -0.01,-0.01 0.01,-0.02 0.02,-0.02l1.01 -0.1c0.01,0 0.03,0.02 0.03,0.03 0,0.02 -0.01,0.01 -0.03,0.02l-1 0.08c-0.01,0 -0.01,0 -0.01,0z"/>
       </g>
       <g>
        <path class="fil5" d="M45.07 13.05c-0.01,0 -0.03,-0.01 -0.03,-0.03 0,-0.01 0.01,-0.03 0.03,-0.03l1.01 -0.1c0.01,0 0.02,0.01 0.03,0.03 0,0.01 -0.01,0.03 -0.03,0.03l-1.01 0.1c0,0 0,0 0,0z"/>
       </g>
      </g>
      <g>
       <g>
        <path class="fil5" d="M48.23 8.97c-0.01,0 -0.02,-0.01 -0.02,-0.02l-0.47 -0.9c-0.01,-0.01 0,-0.03 0.01,-0.04 0.01,0 0.03,0 0.04,0.02l0.47 0.9c0,0.01 0,0.03 -0.02,0.03 0,0 0,0.01 -0.01,0.01z"/>
       </g>
       <g>
        <path class="fil5" d="M52.44 17.03c-0.01,0 -0.02,0 -0.03,-0.01l-0.47 -0.9c0,-0.01 0,-0.03 0.02,-0.04 0.01,0 0.03,0 0.03,0.01l0.47 0.9c0.01,0.02 0,0.03 -0.01,0.04 0,0 -0.01,0 -0.01,0z"/>
       </g>
       <g>
        <path class="fil5" d="M53.68 10.68c-0.01,0 -0.01,0 -0.02,-0.01 -0.01,-0.02 0,-0.03 0.01,-0.04l0.9 -0.47c0.01,-0.01 0.03,0 0.04,0.01 0.01,0.02 0,0.03 -0.01,0.04l-0.9 0.47c-0.01,0 -0.01,0 -0.02,0z"/>
       </g>
       <g>
        <path class="fil5" d="M45.62 14.89c-0.01,0 -0.02,-0.01 -0.03,-0.02 0,-0.01 0,-0.03 0.01,-0.03l0.9 -0.47c0.02,-0.01 0.03,0 0.04,0.01 0.01,0.01 0,0.03 -0.01,0.04l-0.9 0.46c0,0.01 -0.01,0.01 -0.01,0.01z"/>
       </g>
      </g>
      <g>
       <g>
        <path class="fil5" d="M48.57 8.81c-0.02,0 -0.03,-0.01 -0.03,-0.02l-0.38 -0.93c-0.01,-0.02 0,-0.03 0.01,-0.04 0.01,-0.01 0.03,0 0.04,0.01l0.38 0.94c0.01,0.02 0,0.03 -0.01,0.04 -0.01,0 -0.01,0 -0.01,0z"/>
       </g>
       <g>
        <path class="fil5" d="M52.02 17.23c-0.01,0 -0.02,-0.01 -0.03,-0.02l-0.38 -0.94c-0.01,-0.01 0,-0.03 0.01,-0.03 0.02,-0.01 0.03,0 0.04,0.01l0.39 0.94c0,0.01 -0.01,0.03 -0.02,0.04 0,0 -0.01,0 -0.01,0z"/>
       </g>
       <g>
        <path class="fil5" d="M53.84 11.02c-0.01,0 -0.02,-0.01 -0.03,-0.02 0,-0.02 0.01,-0.03 0.02,-0.04l0.94 -0.38c0.01,-0.01 0.03,0 0.03,0.01 0.01,0.02 0,0.03 -0.01,0.04l-0.94 0.38c0,0 -0.01,0.01 -0.01,0.01z"/>
       </g>
       <g>
        <path class="fil5" d="M45.42 14.47c-0.01,0 -0.02,-0.01 -0.02,-0.02 -0.01,-0.01 0,-0.03 0.01,-0.03l0.94 -0.39c0.01,0 0.03,0 0.04,0.02 0,0.01 0,0.03 -0.02,0.03l-0.94 0.39c0,0 0,0 -0.01,0z"/>
       </g>
      </g>
     </g>
     <g>
      <g>
       <g>
        <path class="fil5" d="M51.51 8.76c0,0 -0.01,0 -0.01,0 -0.01,0 -0.02,-0.02 -0.01,-0.04l0.35 -0.95c0,-0.01 0.02,-0.02 0.03,-0.01 0.02,0 0.03,0.02 0.02,0.03l-0.35 0.95c-0.01,0.02 -0.02,0.02 -0.03,0.02z"/>
       </g>
       <g>
        <path class="fil5" d="M48.34 17.29c-0.01,0 -0.01,0 -0.01,0 -0.02,-0.01 -0.03,-0.03 -0.02,-0.04l0.35 -0.95c0.01,-0.01 0.03,-0.02 0.04,-0.02 0.01,0.01 0.02,0.03 0.02,0.04l-0.36 0.95c0,0.01 -0.01,0.02 -0.02,0.02z"/>
       </g>
       <g>
        <path class="fil5" d="M54.84 14.31c0,0 -0.01,0 -0.01,0l-0.95 -0.35c-0.02,-0.01 -0.02,-0.02 -0.02,-0.04 0.01,-0.01 0.02,-0.02 0.04,-0.01l0.95 0.35c0.01,0.01 0.02,0.02 0.01,0.04 0,0.01 -0.01,0.01 -0.02,0.01z"/>
       </g>
       <g>
        <path class="fil5" d="M46.31 11.14c0,0 0,0 -0.01,0l-0.95 -0.36c-0.01,0 -0.02,-0.02 -0.01,-0.03 0,-0.02 0.02,-0.02 0.03,-0.02l0.95 0.36c0.02,0 0.02,0.02 0.02,0.03 -0.01,0.01 -0.02,0.02 -0.03,0.02z"/>
       </g>
      </g>
      <g>
       <g>
        <path class="fil5" d="M51.14 8.64c0,0 -0.01,0 -0.01,0 -0.01,0 -0.02,-0.02 -0.02,-0.03l0.26 -0.98c0.01,-0.02 0.02,-0.02 0.04,-0.02 0.01,0 0.02,0.02 0.02,0.03l-0.27 0.98c0,0.02 -0.01,0.02 -0.02,0.02z"/>
       </g>
       <g>
        <path class="fil5" d="M48.8 17.44c0,0 0,0 0,0 -0.02,-0.01 -0.03,-0.02 -0.02,-0.04l0.26 -0.98c0,-0.01 0.01,-0.02 0.03,-0.02 0.01,0.01 0.02,0.02 0.02,0.04l-0.26 0.98c0,0.01 -0.02,0.02 -0.03,0.02z"/>
       </g>
       <g>
        <path class="fil5" d="M54.99 13.85c-0.01,0 -0.01,0 -0.01,0l-0.98 -0.26c-0.01,-0.01 -0.02,-0.02 -0.02,-0.04 0,-0.01 0.02,-0.02 0.03,-0.02l0.98 0.26c0.02,0.01 0.03,0.02 0.02,0.04 0,0.01 -0.01,0.02 -0.02,0.02z"/>
       </g>
       <g>
        <path class="fil5" d="M46.19 11.51c0,0 0,0 0,0l-0.98 -0.26c-0.02,0 -0.03,-0.02 -0.02,-0.03 0,-0.02 0.02,-0.03 0.03,-0.02l0.98 0.26c0.02,0 0.02,0.02 0.02,0.03 0,0.01 -0.01,0.02 -0.03,0.02z"/>
       </g>
      </g>
      <g>
       <g>
        <path class="fil5" d="M51.81 8.89c-0.01,0 -0.01,-0.01 -0.02,-0.01 -0.01,0 -0.01,-0.02 -0.01,-0.03l0.43 -0.92c0.01,-0.02 0.02,-0.02 0.04,-0.02 0.01,0.01 0.02,0.03 0.01,0.04l-0.43 0.92c0,0.01 -0.01,0.02 -0.02,0.02z"/>
       </g>
       <g>
        <path class="fil5" d="M47.97 17.13c-0.01,0 -0.01,0 -0.02,0 -0.01,-0.01 -0.01,-0.02 -0.01,-0.04l0.43 -0.91c0.01,-0.02 0.02,-0.02 0.04,-0.02 0.01,0.01 0.02,0.02 0.01,0.04l-0.43 0.92c0,0.01 -0.01,0.01 -0.02,0.01z"/>
       </g>
       <g>
        <path class="fil5" d="M54.68 14.68c0,0 0,0 -0.01,0l-0.92 -0.43c-0.01,0 -0.02,-0.02 -0.01,-0.03 0.01,-0.02 0.02,-0.02 0.04,-0.02l0.92 0.43c0.01,0.01 0.02,0.02 0.01,0.04 -0.01,0.01 -0.02,0.01 -0.03,0.01z"/>
       </g>
       <g>
        <path class="fil5" d="M46.44 10.84c-0.01,0 -0.01,0 -0.02,0l-0.91 -0.43c-0.02,0 -0.02,-0.02 -0.02,-0.03 0.01,-0.02 0.03,-0.02 0.04,-0.02l0.92 0.43c0.01,0.01 0.02,0.02 0.01,0.04 0,0.01 -0.01,0.01 -0.02,0.01z"/>
       </g>
      </g>
      <g>
       <g>
        <path class="fil5" d="M50.4 8.49c0,0 -0.01,0 -0.01,0 -0.01,0 -0.02,0 -0.02,-0.02l0.07 -1c0,-0.02 0.02,-0.02 0.03,-0.02 0.02,0 0.03,0.02 0.03,0.03l-0.08 1c0,0.01 -0.01,0.01 -0.02,0.01z"/>
       </g>
       <g>
        <path class="fil5" d="M49.73 17.53c0,0 0,0 0,0 -0.02,0 -0.03,0.02 -0.03,0l0.08 -0.99c0,-0.02 0.01,-0.02 0.03,-0.02 0.01,0 0.02,0.02 0.02,0.03l-0.07 0.98c0,0.02 -0.01,0 -0.03,0z"/>
       </g>
       <g>
        <path class="fil5" d="M55.14 12.97c0,0 0,0 0,0l-1.01 -0.1c-0.02,0 -0.03,-0.03 -0.03,-0.04 0.01,-0.02 0.02,-0.03 0.03,-0.03l1.01 0.07c0.02,0 0.03,0.04 0.03,0.05 0,0.02 -0.01,0.05 -0.03,0.05z"/>
       </g>
       <g>
        <path class="fil5" d="M46.07 12.27c0,0 0,0 0,0l-1.01 -0.08c-0.02,0 -0.03,-0.02 -0.03,-0.03 0,-0.02 0.02,-0.03 0.03,-0.03l1.01 0.07c0.02,0 0.03,0.02 0.03,0.04 0,0.01 -0.02,0.03 -0.03,0.03z"/>
       </g>
      </g>
      <g>
       <g>
        <path class="fil5" d="M50.76 8.56c0,0 0,0 0,0 -0.02,0 -0.03,-0.01 -0.03,-0.03l0.17 -1c0,-0.01 0.02,-0.03 0.03,-0.02 0.02,0 0.03,0.01 0.02,0.03l-0.16 1c0,0.01 -0.01,0.02 -0.03,0.02z"/>
       </g>
       <g>
        <path class="fil5" d="M49.27 17.54c0,0 0,0 0,0 -0.02,-0.01 -0.03,-0.02 -0.02,-0.03l0.16 -1c0,-0.02 0.02,-0.03 0.03,-0.03 0.02,0.01 0.03,0.02 0.03,0.03l-0.17 1c0,0.02 -0.01,0.03 -0.03,0.03z"/>
       </g>
       <g>
        <path class="fil5" d="M55.09 13.38c0,0 0,0 -0.01,0l-1 -0.17c-0.01,0 -0.02,-0.02 -0.02,-0.03 0,-0.02 0.02,-0.03 0.03,-0.02l1 0.16c0.02,0 0.03,0.02 0.03,0.03 -0.01,0.02 -0.02,0.03 -0.03,0.03z"/>
       </g>
       <g>
        <path class="fil5" d="M46.11 11.89c0,0 0,0 0,0l-1 -0.17c-0.02,0 -0.03,-0.01 -0.02,-0.03 0,-0.01 0.01,-0.02 0.03,-0.02l1 0.16c0.01,0.01 0.02,0.02 0.02,0.04 0,0.01 -0.01,0.02 -0.03,0.02z"/>
       </g>
      </g>
     </g>
     <g>
      <g>
       <g>
        <path class="fil5" d="M53.15 9.89c-0.01,0 -0.02,0 -0.03,-0.01 -0.01,-0.01 0,-0.03 0.01,-0.04l0.76 -0.66c0.01,-0.01 0.03,-0.01 0.04,0 0.01,0.01 0.01,0.03 0,0.04l-0.77 0.66c0,0.01 -0.01,0.01 -0.01,0.01z"/>
       </g>
       <g>
        <path class="fil5" d="M46.29 15.88c-0.01,0 -0.01,-0.01 -0.02,-0.01 -0.01,-0.02 -0.01,-0.03 0,-0.04l0.77 -0.67c0.01,-0.01 0.03,-0.01 0.04,0 0.01,0.01 0.01,0.03 -0.01,0.04l-0.76 0.67c0,0 -0.01,0.01 -0.02,0.01z"/>
       </g>
       <g>
        <path class="fil5" d="M53.43 16.36c-0.01,0 -0.02,-0.01 -0.02,-0.01l-0.67 -0.76c-0.01,-0.02 -0.01,-0.03 0,-0.04 0.01,-0.01 0.03,-0.01 0.04,0l0.67 0.76c0.01,0.01 0.01,0.03 -0.01,0.04 0,0.01 -0.01,0.01 -0.01,0.01z"/>
       </g>
       <g>
        <path class="fil5" d="M47.44 9.51c-0.01,0 -0.01,-0.01 -0.02,-0.01l-0.67 -0.77c-0.01,-0.01 0,-0.03 0.01,-0.04 0.01,-0.01 0.03,-0.01 0.04,0.01l0.66 0.76c0.01,0.01 0.01,0.03 0,0.04 -0.01,0 -0.01,0.01 -0.02,0.01z"/>
       </g>
      </g>
      <g>
       <g>
        <path class="fil5" d="M52.87 9.61c0,0 -0.01,0 -0.02,-0.01 -0.01,-0.01 -0.01,-0.03 0,-0.04l0.7 -0.73c0.01,-0.02 0.03,-0.02 0.04,-0.01 0.01,0.01 0.01,0.03 0,0.04l-0.7 0.74c0,0.01 -0.01,0.01 -0.02,0.01z"/>
       </g>
       <g>
        <path class="fil5" d="M46.63 16.23c0,0 -0.01,0 -0.02,-0.01 -0.01,-0.01 -0.01,-0.03 0,-0.04l0.7 -0.74c0.01,-0.01 0.03,-0.01 0.04,0 0.01,0.01 0.01,0.03 0,0.04l-0.7 0.74c0,0.01 -0.01,0.01 -0.02,0.01z"/>
       </g>
       <g>
        <path class="fil5" d="M53.78 16.02c-0.01,0 -0.01,0 -0.02,-0.01l-0.74 -0.69c-0.01,-0.01 -0.01,-0.03 0,-0.04 0.01,-0.01 0.03,-0.01 0.04,0l0.74 0.69c0.01,0.01 0.01,0.03 0,0.04 -0.01,0.01 -0.01,0.01 -0.02,0.01z"/>
       </g>
       <g>
        <path class="fil5" d="M47.16 9.78c-0.01,0 -0.01,-0.01 -0.02,-0.01l-0.74 -0.7c-0.01,-0.01 -0.01,-0.02 0,-0.03 0.01,-0.02 0.03,-0.02 0.04,-0.01l0.74 0.7c0.01,0.01 0.01,0.03 0,0.04 -0.01,0 -0.01,0.01 -0.02,0.01z"/>
       </g>
      </g>
      <g>
       <g>
        <path class="fil5" d="M53.36 10.16c-0.01,0 -0.01,0 -0.02,-0.01 -0.01,-0.01 -0.01,-0.03 0.01,-0.04l0.82 -0.59c0.01,-0.01 0.02,-0.01 0.03,0 0.01,0.01 0.01,0.03 0,0.04l-0.82 0.6c-0.01,0 -0.01,0 -0.02,0z"/>
       </g>
       <g>
        <path class="fil5" d="M46.02 15.53c-0.01,0 -0.02,0 -0.02,-0.01 -0.01,-0.01 -0.01,-0.03 0,-0.04l0.82 -0.59c0.01,-0.01 0.03,-0.01 0.04,0 0.01,0.01 0.01,0.03 -0.01,0.04l-0.81 0.6c-0.01,0 -0.01,0 -0.02,0z"/>
       </g>
       <g>
        <path class="fil5" d="M53.08 16.63c0,0 -0.01,0 -0.02,-0.01l-0.6 -0.82c0,-0.01 0,-0.03 0.01,-0.04 0.01,-0.01 0.03,0 0.04,0.01l0.6 0.82c0.01,0.01 0,0.03 -0.01,0.04 0,0 -0.01,0 -0.02,0z"/>
       </g>
       <g>
        <path class="fil5" d="M47.71 9.29c0,0 -0.01,-0.01 -0.02,-0.01l-0.6 -0.82c-0.01,-0.01 0,-0.03 0.01,-0.04 0.01,-0.01 0.03,-0.01 0.04,0.01l0.6 0.81c0.01,0.02 0,0.03 -0.01,0.04 0,0.01 -0.01,0.01 -0.02,0.01z"/>
       </g>
      </g>
      <g>
       <g>
        <path class="fil5" d="M52.31 9.17c0,0 -0.01,0 -0.01,-0.01 -0.01,0 -0.02,-0.02 -0.01,-0.03l0.56 -0.85c0,-0.02 0.02,-0.02 0.03,-0.01 0.02,0.01 0.02,0.02 0.01,0.04l-0.55 0.85c-0.01,0 -0.02,0.01 -0.03,0.01z"/>
       </g>
       <g>
        <path class="fil5" d="M47.33 16.78c0,0 -0.01,0 -0.01,0 -0.02,-0.01 -0.02,-0.03 -0.01,-0.04l0.55 -0.85c0.01,-0.01 0.03,-0.02 0.04,-0.01 0.01,0.01 0.02,0.03 0.01,0.04l-0.56 0.85c0,0.01 -0.01,0.01 -0.02,0.01z"/>
       </g>
       <g>
        <path class="fil5" d="M54.33 15.32c0,0 -0.01,0 -0.01,-0.01l-0.85 -0.55c-0.02,-0.01 -0.02,-0.03 -0.01,-0.04 0.01,-0.01 0.02,-0.01 0.04,-0.01l0.85 0.56c0.01,0.01 0.01,0.02 0,0.04 0,0 -0.01,0.01 -0.02,0.01z"/>
       </g>
       <g>
        <path class="fil5" d="M46.72 10.34c-0.01,0 -0.01,-0.01 -0.02,-0.01l-0.84 -0.55c-0.02,-0.01 -0.02,-0.03 -0.01,-0.04 0.01,-0.01 0.02,-0.02 0.04,-0.01l0.84 0.56c0.02,0 0.02,0.02 0.01,0.03 0,0.01 -0.01,0.02 -0.02,0.02z"/>
       </g>
      </g>
      <g>
       <g>
        <path class="fil5" d="M52.58 9.36c0,0 -0.01,0 -0.02,-0.01 -0.01,-0.01 -0.01,-0.02 0,-0.04l0.62 -0.8c0.01,-0.01 0.03,-0.01 0.04,0 0.01,0.01 0.01,0.03 0,0.04l-0.62 0.8c0,0 -0.01,0.01 -0.02,0.01z"/>
       </g>
       <g>
        <path class="fil5" d="M47 16.54c-0.01,0 -0.01,0 -0.02,0 -0.01,-0.01 -0.01,-0.03 0,-0.04l0.62 -0.8c0.01,-0.01 0.02,-0.02 0.04,-0.01 0.01,0.01 0.01,0.03 0,0.04l-0.62 0.8c-0.01,0.01 -0.01,0.01 -0.02,0.01z"/>
       </g>
       <g>
        <path class="fil5" d="M54.09 15.65c0,0 -0.01,0 -0.01,0l-0.8 -0.63c-0.02,0 -0.02,-0.02 -0.01,-0.03 0.01,-0.02 0.03,-0.02 0.04,-0.01l0.8 0.62c0.01,0.01 0.01,0.03 0,0.04 0,0.01 -0.01,0.01 -0.02,0.01z"/>
       </g>
       <g>
        <path class="fil5" d="M46.91 10.07c-0.01,0 -0.01,0 -0.02,-0.01l-0.8 -0.62c-0.01,-0.01 -0.01,-0.02 0,-0.04 0.01,-0.01 0.02,-0.01 0.04,0l0.8 0.62c0.01,0.01 0.01,0.03 0,0.04 0,0.01 -0.01,0.01 -0.02,0.01z"/>
       </g>
      </g>
     </g>
     <g>
      <path class="fil8" d="M47.21 10.86c-0.29,0.48 -0.45,1.05 -0.45,1.66 0,1.82 1.47,3.3 3.3,3.3 1.82,0 3.3,-1.48 3.3,-3.3 0,-1.82 -1.48,-3.3 -3.3,-3.3l0.01 3.3 -2.86 -1.66z"/>
     </g>
     <g>
      <path class="fil5" d="M51.88 12.52c0,1 -0.81,1.81 -1.81,1.81 -1,0 -1.81,-0.81 -1.81,-1.81 0,-1 0.81,-1.81 1.81,-1.81 1,0 1.81,0.81 1.81,1.81z"/>
     </g>
     <polygon class="fil5" points="50.34,7.28 49.9,7.28 49.9,6.44 50.34,6.44 "/>
     <polygon class="fil5" points="49.55,6.74 49.55,6.17 50.68,6.17 50.68,6.74 "/>
     <path class="fil5" d="M50.08 4.68c-0.81,0 -1.47,0.65 -1.47,1.46 0,0.81 0.66,1.47 1.47,1.47 0.81,0 1.46,-0.66 1.46,-1.47 0,-0.81 -0.65,-1.46 -1.46,-1.46zm0 2.57l0 0c-0.62,0 -1.11,-0.49 -1.11,-1.11 0,-0.61 0.49,-1.11 1.11,-1.11 0.61,0 1.11,0.5 1.11,1.11 0,0.62 -0.5,1.11 -1.11,1.11z"/>
     <g>
      <path class="fil7" d="M48.34 15.11l1.46 -2.41c-0.01,-0.03 -0.02,-0.07 -0.02,-0.11l0 -0.02c0,-0.17 0.14,-0.31 0.31,-0.31 0.17,0 0.3,0.14 0.3,0.31l0 0.02c0,0.17 -0.14,0.3 -0.3,0.3 -0.02,0 -0.04,0 -0.06,0l-1.44 2.37c-0.04,0.07 -0.13,0.09 -0.2,0.05 -0.06,-0.04 -0.09,-0.13 -0.05,-0.2z"/>
      <path class="fil7" d="M49.82 12.57c0,-0.14 0.1,-0.24 0.24,-0.24 0.13,0 0.23,0.11 0.23,0.24 0,0.13 -0.1,0.24 -0.24,0.24 -0.13,-0.01 -0.23,-0.11 -0.23,-0.24zm-0.23 0c0,0.25 0.21,0.46 0.46,0.46 0.26,0 0.47,-0.21 0.47,-0.46 0,-0.2 -0.12,-0.37 -0.3,-0.44 0,0 0,0 0,0l0.01 -1.83c0,-0.1 -0.08,-0.17 -0.17,-0.17 -0.09,0 -0.17,0.07 -0.17,0.16l0 1.83c0,0.01 0,0.01 0,0.01 -0.18,0.07 -0.3,0.24 -0.3,0.44z"/>
      <path class="fil5" d="M49.8 12.57c0,-0.15 0.12,-0.26 0.26,-0.26 0.14,0 0.25,0.12 0.25,0.26 0,0.14 -0.11,0.25 -0.25,0.25 -0.15,0 -0.26,-0.11 -0.26,-0.25z"/>
     </g>
    </g>
   </g>
  </g>
  <polygon class="fil9" points="0,0 52.31,0 52.31,28.7 0,28.7 "/>
 </g>
</svg>
