<?xml version="1.0" encoding="UTF-8"?>
<!DOCTYPE svg PUBLIC "-//W3C//DTD SVG 1.1//EN" "http://www.w3.org/Graphics/SVG/1.1/DTD/svg11.dtd">
<!-- Creator: CorelDRAW 2020 (64-Bit) -->
<svg xmlns="http://www.w3.org/2000/svg" xml:space="preserve" width="375px" height="212px" version="1.1" style="shape-rendering:geometricPrecision; text-rendering:geometricPrecision; image-rendering:optimizeQuality; fill-rule:evenodd; clip-rule:evenodd"
viewBox="0 0 20.85 11.8"
 xmlns:xlink="http://www.w3.org/1999/xlink"
 xmlns:xodm="http://www.corel.com/coreldraw/odm/2003">
 <defs>
  <style type="text/css">
   <![CDATA[
    .fil18 {fill:none}
    .fil15 {fill:#7478F5}
    .fil0 {fill:#F4F6FE}
    .fil1 {fill:#001C22;fill-rule:nonzero}
    .fil7 {fill:#00292C;fill-rule:nonzero}
    .fil3 {fill:#1C353B;fill-rule:nonzero}
    .fil8 {fill:#2A4446;fill-rule:nonzero}
    .fil4 {fill:#7478F5;fill-rule:nonzero}
    .fil2 {fill:#8D91FC;fill-rule:nonzero}
    .fil5 {fill:#AFCDFB;fill-rule:nonzero}
    .fil16 {fill:#CCE2E8;fill-rule:nonzero}
    .fil11 {fill:#E68968;fill-rule:nonzero}
    .fil6 {fill:#F4F6FE;fill-rule:nonzero}
    .fil10 {fill:#F7B293;fill-rule:nonzero}
    .fil17 {fill:#FACCB5;fill-rule:nonzero}
    .fil9 {fill:white;fill-rule:nonzero}
    .fil13 {fill:url(#id1)}
    .fil12 {fill:url(#id2)}
    .fil14 {fill:url(#id3)}
   ]]>
  </style>
   <clipPath id="id0">
    <path d="M0 0l20.85 0 0 11.8 -20.85 0 0 -11.8z"/>
   </clipPath>
  <linearGradient id="id1" gradientUnits="userSpaceOnUse" x1="16.3" y1="4.12" x2="14.58" y2="5.61">
   <stop offset="0" style="stop-opacity:1; stop-color:#487782"/>
   <stop offset="1" style="stop-opacity:1; stop-color:#5C98A7"/>
  </linearGradient>
  <linearGradient id="id2" gradientUnits="userSpaceOnUse" x1="16.1" y1="5.66" x2="14.88" y2="7.54">
   <stop offset="0" style="stop-opacity:1; stop-color:#9FA8AA"/>
   <stop offset="1" style="stop-opacity:1; stop-color:#CDD8DA"/>
  </linearGradient>
  <linearGradient id="id3" gradientUnits="userSpaceOnUse" x1="16.1" y1="5.66" x2="14.88" y2="7.54">
   <stop offset="0" style="stop-opacity:1; stop-color:#8F9FA3"/>
   <stop offset="1" style="stop-opacity:1; stop-color:#B8CCD1"/>
  </linearGradient>
 </defs>
 <g id="Слой_x0020_1">
  <metadata id="CorelCorpID_0Corel-Layer"/>
  <polygon class="fil0" points="0,0 20.85,0 20.85,11.8 0,11.8 "/>
  <g style="clip-path:url(#id0)">
   <g id="_2657005897200">
    <g>
     <polygon id="1" class="fil1" points="20.97,10.22 21.38,9.99 23.03,3.66 22.92,3.38 "/>
     <path class="fil2" d="M22.9 2.36l-3.52 -0.86c-0.15,-0.04 -0.3,0.05 -0.34,0.2l-1.7 7.93c-0.04,0.15 0.05,0.3 0.2,0.34l3.11 0.76c0.15,0.04 0.3,-0.06 0.34,-0.21l2.12 -7.82c0.03,-0.15 -0.06,-0.3 -0.21,-0.34z"/>
     <polygon class="fil1" points="18.29,6.39 21.63,7.21 22.47,3.79 19.13,2.97 "/>
     <polygon class="fil3" points="18.76,5.49 21.64,6.2 22.12,4.26 19.24,3.55 "/>
     <path class="fil4" d="M18.96 7.38l-0.6 -0.14c-0.07,-0.02 -0.12,-0.1 -0.1,-0.17l0.05 -0.22c0.02,-0.07 0.1,-0.12 0.17,-0.1l0.6 0.15c0.07,0.02 0.12,0.09 0.1,0.17l-0.05 0.21c-0.02,0.07 -0.1,0.12 -0.17,0.1z"/>
     <path class="fil4" d="M20.05 7.65l-0.59 -0.15c-0.08,-0.01 -0.12,-0.09 -0.11,-0.16l0.06 -0.22c0.01,-0.07 0.09,-0.12 0.17,-0.1l0.59 0.15c0.07,0.02 0.12,0.09 0.1,0.17l-0.05 0.21c-0.02,0.07 -0.09,0.12 -0.17,0.1z"/>
     <path class="fil4" d="M21.14 7.92l-0.59 -0.15c-0.08,-0.02 -0.12,-0.09 -0.1,-0.17l0.05 -0.21c0.02,-0.07 0.09,-0.12 0.17,-0.1l0.59 0.15c0.08,0.01 0.12,0.09 0.1,0.16l-0.05 0.22c-0.02,0.07 -0.09,0.12 -0.17,0.1z"/>
     <path class="fil4" d="M18.79 8.08l-0.6 -0.15c-0.07,-0.02 -0.12,-0.09 -0.1,-0.17l0.05 -0.21c0.02,-0.07 0.1,-0.12 0.17,-0.1l0.6 0.14c0.07,0.02 0.12,0.1 0.1,0.17l-0.05 0.22c-0.02,0.07 -0.1,0.12 -0.17,0.1z"/>
     <path class="fil4" d="M19.88 8.35l-0.59 -0.15c-0.08,-0.02 -0.13,-0.09 -0.11,-0.17l0.06 -0.21c0.01,-0.08 0.09,-0.12 0.16,-0.1l0.6 0.14c0.07,0.02 0.12,0.1 0.1,0.17l-0.05 0.21c-0.02,0.08 -0.1,0.12 -0.17,0.11z"/>
     <path class="fil4" d="M20.97 8.61l-0.59 -0.14c-0.08,-0.02 -0.12,-0.1 -0.1,-0.17l0.05 -0.21c0.02,-0.08 0.09,-0.12 0.17,-0.1l0.59 0.14c0.08,0.02 0.12,0.1 0.1,0.17l-0.05 0.21c-0.02,0.08 -0.09,0.12 -0.17,0.1z"/>
     <path class="fil4" d="M18.62 8.77l-0.6 -0.14c-0.07,-0.02 -0.12,-0.1 -0.1,-0.17l0.05 -0.21c0.02,-0.08 0.1,-0.12 0.17,-0.11l0.59 0.15c0.08,0.02 0.13,0.09 0.11,0.17l-0.05 0.21c-0.02,0.08 -0.1,0.12 -0.17,0.1z"/>
     <path class="fil4" d="M19.71 9.04l-0.6 -0.14c-0.07,-0.02 -0.12,-0.1 -0.1,-0.17l0.05 -0.22c0.02,-0.07 0.1,-0.12 0.17,-0.1l0.6 0.15c0.07,0.02 0.12,0.09 0.1,0.17l-0.05 0.21c-0.02,0.07 -0.1,0.12 -0.17,0.1z"/>
     <path class="fil4" d="M20.8 9.31l-0.59 -0.15c-0.08,-0.01 -0.12,-0.09 -0.11,-0.16l0.06 -0.22c0.02,-0.07 0.09,-0.12 0.17,-0.1l0.59 0.15c0.08,0.02 0.12,0.09 0.1,0.17l-0.05 0.21c-0.02,0.07 -0.09,0.12 -0.17,0.1z"/>
     <path class="fil4" d="M18.44 9.49l-0.59 -0.15c-0.08,-0.01 -0.12,-0.09 -0.11,-0.16l0.06 -0.22c0.01,-0.07 0.09,-0.12 0.16,-0.1l0.6 0.15c0.07,0.02 0.12,0.09 0.1,0.17l-0.05 0.21c-0.02,0.07 -0.1,0.12 -0.17,0.1z"/>
     <path class="fil4" d="M19.53 9.76l-0.59 -0.15c-0.08,-0.02 -0.12,-0.09 -0.1,-0.17l0.05 -0.21c0.02,-0.07 0.09,-0.12 0.17,-0.1l0.59 0.15c0.08,0.01 0.12,0.09 0.1,0.16l-0.05 0.22c-0.02,0.07 -0.09,0.12 -0.17,0.1z"/>
     <path class="fil4" d="M20.63 10.03l-0.6 -0.15c-0.07,-0.02 -0.12,-0.09 -0.1,-0.17l0.05 -0.21c0.02,-0.07 0.1,-0.12 0.17,-0.1l0.59 0.14c0.08,0.02 0.12,0.1 0.11,0.17l-0.06 0.22c-0.01,0.07 -0.09,0.12 -0.16,0.1z"/>
     <path class="fil1" d="M19.07 6.87l-0.6 -0.14c-0.07,-0.02 -0.15,0.02 -0.17,0.1l-0.05 0.21c-0.02,0.08 0.03,0.15 0.1,0.17l0.6 0.15c0.07,0.01 0.15,-0.03 0.17,-0.11l0.05 -0.21c0.02,-0.07 -0.03,-0.15 -0.1,-0.17z"/>
     <path class="fil5" d="M19.15 6.1c-0.02,-0.07 -0.05,-0.15 -0.12,-0.16l-0.35 -0.09c-0.07,-0.02 -0.14,0.03 -0.16,0.1l-0.05 0.22c-0.02,0.07 0.02,0.15 0.09,0.16l0.54 0.14c0.07,0.01 0.12,-0.05 0.11,-0.13 -0.01,-0.07 -0.03,-0.15 -0.06,-0.24z"/>
     <path class="fil5" d="M20.6 6.32l-0.28 -0.07c-0.05,-0.01 -0.1,0.04 -0.15,0.1 -0.06,0.07 -0.11,0.14 -0.14,0.2 -0.04,0.06 -0.03,0.14 0.02,0.15l0.43 0.11c0.05,0.01 0.11,-0.04 0.13,-0.12l0.05 -0.21c0.02,-0.07 -0.01,-0.15 -0.06,-0.16z"/>
     <path class="fil5" d="M20.05 6.19l-0.42 -0.11c-0.05,-0.01 -0.11,0.04 -0.13,0.12l-0.05 0.21c-0.02,0.07 0.01,0.14 0.06,0.16l0.27 0.06c0.06,0.02 0.11,-0.04 0.15,-0.09 0.06,-0.08 0.11,-0.14 0.15,-0.2 0.03,-0.06 0.02,-0.14 -0.03,-0.15z"/>
     <path class="fil5" d="M21.53 6.55l-0.54 -0.13c-0.07,-0.02 -0.12,0.04 -0.11,0.12 0.01,0.07 0.03,0.15 0.06,0.24 0.03,0.08 0.06,0.15 0.12,0.17l0.36 0.09c0.06,0.01 0.13,-0.04 0.15,-0.11l0.05 -0.21c0.02,-0.08 -0.02,-0.15 -0.09,-0.17z"/>
     <path class="fil1" d="M20.16 7.14l-0.59 -0.15c-0.08,-0.01 -0.15,0.03 -0.17,0.11l-0.05 0.21c-0.02,0.07 0.02,0.15 0.1,0.17l0.59 0.14c0.08,0.02 0.15,-0.02 0.17,-0.1l0.05 -0.21c0.02,-0.08 -0.02,-0.15 -0.1,-0.17z"/>
     <path class="fil1" d="M21.25 7.41l-0.59 -0.15c-0.08,-0.02 -0.15,0.03 -0.17,0.11l-0.05 0.21c-0.02,0.07 0.03,0.15 0.1,0.17l0.59 0.14c0.08,0.02 0.15,-0.02 0.17,-0.1l0.06 -0.21c0.01,-0.08 -0.03,-0.15 -0.11,-0.17z"/>
     <path class="fil1" d="M18.9 7.57l-0.6 -0.15c-0.07,-0.02 -0.15,0.03 -0.17,0.1l-0.05 0.22c-0.02,0.07 0.03,0.15 0.1,0.17l0.6 0.14c0.07,0.02 0.15,-0.03 0.17,-0.1l0.05 -0.21c0.02,-0.08 -0.03,-0.15 -0.1,-0.17z"/>
     <path class="fil1" d="M19.99 7.84l-0.59 -0.15c-0.08,-0.02 -0.16,0.03 -0.17,0.1l-0.06 0.21c-0.01,0.08 0.03,0.16 0.11,0.17l0.59 0.15c0.08,0.02 0.15,-0.03 0.17,-0.1l0.05 -0.21c0.02,-0.08 -0.03,-0.16 -0.1,-0.17z"/>
     <path class="fil1" d="M21.08 8.1l-0.59 -0.14c-0.08,-0.02 -0.15,0.03 -0.17,0.1l-0.05 0.21c-0.02,0.08 0.02,0.15 0.1,0.17l0.59 0.15c0.08,0.02 0.15,-0.03 0.17,-0.1l0.05 -0.22c0.02,-0.07 -0.02,-0.15 -0.1,-0.17z"/>
     <path class="fil1" d="M18.73 8.26l-0.6 -0.14c-0.07,-0.02 -0.15,0.03 -0.17,0.1l-0.05 0.21c-0.02,0.08 0.03,0.15 0.1,0.17l0.6 0.15c0.07,0.02 0.15,-0.03 0.17,-0.1l0.05 -0.22c0.02,-0.07 -0.03,-0.15 -0.1,-0.17z"/>
     <path class="fil1" d="M19.82 8.53l-0.6 -0.14c-0.07,-0.02 -0.15,0.02 -0.16,0.1l-0.06 0.21c-0.02,0.08 0.03,0.15 0.11,0.17l0.59 0.15c0.07,0.01 0.15,-0.03 0.17,-0.11l0.05 -0.21c0.02,-0.07 -0.03,-0.15 -0.1,-0.17z"/>
     <path class="fil1" d="M20.91 8.8l-0.59 -0.15c-0.08,-0.01 -0.15,0.03 -0.17,0.11l-0.05 0.21c-0.02,0.07 0.02,0.15 0.1,0.17l0.59 0.14c0.08,0.02 0.15,-0.02 0.17,-0.1l0.05 -0.21c0.02,-0.08 -0.02,-0.15 -0.1,-0.17z"/>
     <path class="fil5" d="M18.55 8.98l-0.59 -0.15c-0.08,-0.01 -0.16,0.03 -0.17,0.11l-0.06 0.21c-0.01,0.07 0.03,0.15 0.11,0.17l0.59 0.14c0.08,0.02 0.15,-0.02 0.17,-0.1l0.05 -0.21c0.02,-0.07 -0.03,-0.15 -0.1,-0.17z"/>
     <path class="fil5" d="M19.64 9.25l-0.59 -0.15c-0.08,-0.02 -0.15,0.03 -0.17,0.11l-0.05 0.21c-0.02,0.07 0.02,0.15 0.1,0.17l0.59 0.14c0.08,0.02 0.15,-0.02 0.17,-0.1l0.05 -0.21c0.02,-0.08 -0.02,-0.15 -0.1,-0.17z"/>
     <path class="fil5" d="M20.73 9.52l-0.59 -0.15c-0.07,-0.02 -0.15,0.03 -0.17,0.1l-0.05 0.22c-0.02,0.07 0.03,0.15 0.1,0.17l0.6 0.14c0.07,0.02 0.15,-0.03 0.17,-0.1l0.05 -0.21c0.02,-0.08 -0.03,-0.15 -0.11,-0.17z"/>
     <polygon class="fil4" points="21.37,10 21.45,9.95 23.05,3.73 23.02,3.62 "/>
     <polygon class="fil4" points="17.79,9.67 17.54,9.97 20.63,10.73 20.59,10.36 "/>
     <path class="fil6" d="M22.3 3.59l-2.96 -0.72c-0.09,-0.03 -0.14,-0.11 -0.12,-0.2l0.17 -0.69c0.02,-0.09 0.11,-0.14 0.2,-0.12l2.96 0.73c0.09,0.02 0.14,0.11 0.12,0.19l-0.17 0.69c-0.02,0.09 -0.11,0.15 -0.2,0.12z"/>
     <path class="fil7" d="M18.62 5.46l0 0 0 0 0 0 0.01 0 0 0 0 0 0 0 0 0 0.01 0c0.04,0.01 0.08,0.02 0.12,0.03l0.48 -1.94 2.88 0.71 -0.1 0.41c0.21,-0.24 0.36,-0.51 0.43,-0.82l0.01 -0.01 0 0c0,-0.02 0,-0.03 0.01,-0.05l-3.34 -0.82 -0.61 2.46c0.03,0.01 0.07,0.02 0.1,0.03z"/>
     <path class="fil8" d="M18.76 5.49l0.48 -1.94 2.88 0.71 -0.1 0.41c-0.67,0.75 -1.94,1.11 -3.26,0.82z"/>
     <path class="fil9" d="M20.47 5.41c-0.02,0.08 -0.11,0.13 -0.19,0.11 -0.08,-0.02 -0.13,-0.1 -0.11,-0.18 0.02,-0.08 0.1,-0.13 0.19,-0.11 0.08,0.02 0.13,0.1 0.11,0.18z"/>
     <path class="fil9" d="M20.47 4.78c-0.29,-0.07 -0.46,0.11 -0.47,0.12 -0.04,0.04 -0.04,0.11 0.01,0.16 0.01,0.01 0.03,0.02 0.05,0.03 0.03,0.01 0.08,-0.01 0.11,-0.04 0,0 0.09,-0.09 0.24,-0.05 0.15,0.03 0.19,0.15 0.19,0.16 0.02,0.04 0.05,0.07 0.09,0.08 0.02,0.01 0.03,0.01 0.05,0 0.07,-0.02 0.1,-0.08 0.08,-0.14 0,-0.01 -0.07,-0.26 -0.35,-0.32z"/>
     <path class="fil9" d="M20.58 4.3c-0.5,-0.13 -0.81,0.19 -0.82,0.21 -0.04,0.04 -0.04,0.11 0.01,0.16 0.01,0.01 0.03,0.02 0.05,0.03 0.04,0.01 0.08,-0.01 0.11,-0.04 0.01,-0.01 0.23,-0.23 0.6,-0.14 0.37,0.09 0.46,0.39 0.47,0.41 0.01,0.04 0.04,0.07 0.08,0.08 0.02,0 0.04,0 0.06,0 0.06,-0.02 0.09,-0.08 0.08,-0.15 -0.01,-0.01 -0.13,-0.44 -0.64,-0.56z"/>
    </g>
    <path class="fil10" d="M14.32 6.08c0,0 -1.1,1.29 -1.36,1.97 -0.25,0.67 -0.16,1.95 -0.16,1.95l1.36 0.41c0,0 0.66,-1.07 0.66,-1.28 0,-0.22 0.1,-2.61 0.02,-2.65 -0.07,-0.04 -0.52,-0.4 -0.52,-0.4z"/>
    <path class="fil11" d="M13.84 6.85c0,0 -0.18,0.72 -0.14,1.01 0.04,0.28 0.2,0.37 0.31,0.33 0.12,-0.03 0.57,-0.77 0.57,-0.77l-0.74 -0.57z"/>
    <path class="fil11" d="M14.44 7.61l0.65 0.85c0.1,0.13 0.29,0.16 0.42,0.06 0.14,-0.1 0.16,-0.29 0.06,-0.43l-0.66 -0.85c-0.1,-0.13 -0.29,-0.15 -0.42,-0.05 -0.13,0.1 -0.15,0.29 -0.05,0.42z"/>
    <path class="fil11" d="M14.77 7.16l0.65 0.86c0.11,0.13 0.3,0.15 0.43,0.05l0 0c0.13,-0.1 0.15,-0.29 0.05,-0.42l-0.66 -0.85c-0.1,-0.13 -0.29,-0.16 -0.42,-0.06 -0.13,0.1 -0.15,0.29 -0.05,0.42z"/>
    <polygon class="fil10" points="13.2,13.53 11.49,13.01 12.83,9.56 14.37,10.02 "/>
    <path class="fil2" d="M16.7 4.82l-3.12 1.38c-0.06,0.03 -0.09,0.1 -0.07,0.16l0.77 1.73c0.02,0.06 0.09,0.08 0.15,0.06l3.13 -1.38c0.06,-0.03 0.09,-0.1 0.06,-0.16l-0.76 -1.73c-0.03,-0.06 -0.1,-0.08 -0.16,-0.06z"/>
    <path class="fil4" d="M16.7 4.82l-3.12 1.38c-0.04,0.02 -0.07,0.05 -0.07,0.09 0.01,-0.02 0.03,-0.03 0.05,-0.04l3.13 -1.39c0.06,-0.02 0.12,0.01 0.15,0.07l0.76 1.72c0.01,0.03 0.02,0.05 0.01,0.07 0.02,-0.03 0.03,-0.07 0.01,-0.11l-0.76 -1.73c-0.03,-0.06 -0.1,-0.08 -0.16,-0.06z"/>
    <path class="fil12" d="M13.51 6.36c0,0 0,0 0,0 0,0 0,0 0,0zm0 0c0,0 0,0 0,0 0,0 0,0 0,0zm0 0c0,0 0,0 0,0 0,0 0,0 0,0zm0 -0.01c0,0 0,0 0,0 0,0 0,0 0,0zm0 0c0,0 0,0 0,0 0,0 0,0 0,0zm0 0c0,0 0,0 0,0 0,0 0,0 0,0zm0 0c0,0 0,0 0,0 0,0 0,0 0,0zm0 0c0,0 0,0 0,0 0,0 0,0 0,0zm0 0c0,0 0,0 0,0 0,0 0,0 0,0zm0 0c0,0 0,0 0,0 0,0 0,0 0,0z"/>
    <path class="fil13" d="M17.51 5.55l0 0c0,0 0,0 0,0 0,0 0,0 0,0z"/>
    <path class="fil14" d="M17.2 6.92l0 0 0.36 -0.15 -0.36 0.15zm0.36 -0.15l0 0zm0.01 -0.01l0 0 0 0 0 0 0 0 0 0 0 0 0 0 0 0 0 0 0 0 0.01 0 0 0 0 0 0 0 0 0 0 0c0.02,-0.02 0.03,-0.03 0.04,-0.05l0 0 0 0 0 0 0 -0.01 0 0 0 0 0 0 0 0 0 0 0 0 0 0 0 0 0 0 0 0 0 0 0 0 0.01 -0.01 0 0 0 0 -0.01 0.01 0 0 0 0 0 0 0 0 0 0 0 0 0 0 0 0 0 0 0 0 0 0 0 0 0 0.01 0 0 0 0 0 0c-0.01,0.02 -0.02,0.03 -0.04,0.05l0 0 0 0 0 0 0 0 0 0 -0.01 0 0 0 0 0 0 0 0 0 0 0 0 0 0 0 0 0 0 0 0 0zm0.06 -0.07l0 0z"/>
    <path class="fil15" d="M14.35 8.15c-0.03,-0.01 -0.06,-0.03 -0.07,-0.06l-0.06 -0.13 -0.42 -0.94 -0.29 -0.66 0 0c0,0 0,0 0,0 0,0 0,0 0,0 0,0 0,0 0,0 0,0 0,0 0,0 0,0 0,0 0,0 0,0 0,0 0,0 0,0 0,0 0,-0.01 0,0 0,0 0,0 0,0 0,0 0,0 0,0 0,0 0,0 0,0 0,0 0,0 0,0 0,0 0,0 0,0 0,0 0,0 0,0 0,0 0,0 0,0 0,0 0,0 0,0 0,0 0,0 0,0 0,0 0,0 0,0 0,0 0,0 0,0 0,0 0,0 0,0 0,0 0,0 -0.01,-0.02 -0.01,-0.04 0,-0.06 0,-0.01 0.01,-0.01 0.01,-0.02 0,0.02 0.01,0.03 0.01,0.05l0.76 1.72c0.02,0.04 0.05,0.06 0.08,0.07 0.02,0.01 0.05,0 0.08,-0.01l3.13 -1.38c0.01,0 0.02,-0.01 0.03,-0.02 0,0.01 0,0.01 0,0.02 0.01,-0.01 0.02,-0.03 0.02,-0.04 0,0 0,0 0,0 0,0 0,0.01 0,0.01 0,0 0,0 0,0 -0.01,0.03 -0.03,0.06 -0.06,0.07 0,0 0,0 0,0 0,0 0,0 0,0 0,0 0,0 0,0 0,0 0,0 -0.01,0 0,0 0,0 0,0 0,0 0,0 0,0 0,0 0,0 0,0 0,0 0,0 0,0 0,0 0,0 0,0 0,0 0,0 0,0 0,0 0,0 0,0 0,0.01 0,0.01 0,0.01 0,0 0,0 0,0l0 0 -0.36 0.15 -0.33 0.15 -1.06 0.47 -0.56 0.25 -0.51 0.22 -0.31 0.14c-0.02,0.01 -0.05,0.01 -0.08,0z"/>
    <path class="fil15" d="M13.51 6.29c0,-0.02 0.01,-0.03 0.01,-0.04 0,0 0,0.01 0,0.02 0,0.01 -0.01,0.01 -0.01,0.02zm4.1 0.43c0,-0.01 0,-0.01 0,-0.02 0.01,-0.01 0.01,-0.01 0.02,-0.02 0,0.01 -0.01,0.03 -0.02,0.04z"/>
    <path class="fil15" d="M13.51 6.36l0.77 1.73c0.01,0.02 0.03,0.04 0.05,0.05 0.9,-0.62 1.36,-1.72 1.19,-2.8l-1.94 0.86c-0.06,0.03 -0.09,0.1 -0.07,0.16z"/>
    <path class="fil9" d="M16.22 5.79c-0.04,0.02 -0.09,0 -0.11,-0.05 -0.02,-0.04 0,-0.09 0.04,-0.11 0.05,-0.02 0.1,0 0.12,0.04 0.01,0.05 0,0.1 -0.05,0.12z"/>
    <path class="fil9" d="M16.51 5.57c-0.07,-0.15 -0.21,-0.17 -0.22,-0.17 -0.03,0 -0.07,0.02 -0.07,0.06 0,0.01 0,0.02 0.01,0.03 0,0.02 0.02,0.04 0.05,0.04 0,0 0.07,0.01 0.11,0.09 0.03,0.08 -0.01,0.14 -0.01,0.14 -0.01,0.02 -0.02,0.04 -0.01,0.06 0.01,0.01 0.01,0.02 0.02,0.03 0.03,0.02 0.07,0.02 0.09,-0.01 0.01,-0.01 0.09,-0.12 0.03,-0.27z"/>
    <path class="fil9" d="M16.76 5.45c-0.12,-0.26 -0.37,-0.29 -0.38,-0.29 -0.03,-0.01 -0.06,0.02 -0.07,0.06 0,0.01 0,0.02 0.01,0.03 0.01,0.02 0.03,0.03 0.05,0.04 0.01,0 0.19,0.02 0.27,0.22 0.09,0.19 -0.01,0.34 -0.02,0.34 -0.01,0.02 -0.02,0.05 -0.01,0.07 0.01,0.01 0.01,0.02 0.02,0.02 0.03,0.03 0.07,0.02 0.09,-0.01 0.01,-0.01 0.16,-0.21 0.04,-0.48z"/>
    <path class="fil9" d="M14.32 7.3c-0.03,-0.06 -0.06,-0.07 -0.08,-0.06 -0.02,0.01 -0.03,0.04 0,0.1 0.02,0.06 0.05,0.08 0.07,0.07 0.03,-0.01 0.03,-0.05 0.01,-0.11zm-0.11 0.05c-0.03,-0.07 -0.02,-0.12 0.02,-0.13 0.04,-0.02 0.08,0 0.11,0.07 0.03,0.07 0.02,0.12 -0.02,0.14 -0.04,0.02 -0.08,-0.01 -0.11,-0.08z"/>
    <path class="fil9" d="M14.42 7.36l0.04 -0.02 -0.06 -0.15 -0.04 0.01 -0.01 -0.02c0.02,-0.01 0.03,-0.02 0.04,-0.03l0.02 -0.01 0.08 0.18 0.04 -0.01 0.01 0.02 -0.11 0.05 -0.01 -0.02z"/>
    <path class="fil9" d="M14.63 7.16c-0.02,-0.06 -0.05,-0.07 -0.07,-0.06 -0.03,0.01 -0.03,0.04 -0.01,0.1 0.03,0.06 0.06,0.08 0.08,0.07 0.03,-0.01 0.03,-0.05 0,-0.11zm-0.1 0.05c-0.03,-0.07 -0.02,-0.12 0.02,-0.13 0.04,-0.02 0.08,0 0.11,0.07 0.03,0.07 0.02,0.12 -0.02,0.14 -0.04,0.02 -0.08,-0.01 -0.11,-0.08z"/>
    <path class="fil16" d="M14.79 7.09c-0.02,-0.06 -0.05,-0.07 -0.07,-0.06 -0.03,0.01 -0.03,0.04 -0.01,0.1 0.03,0.06 0.06,0.08 0.08,0.07 0.03,-0.01 0.03,-0.05 0,-0.11zm-0.1 0.05c-0.03,-0.07 -0.02,-0.12 0.02,-0.13 0.04,-0.02 0.08,0 0.11,0.07 0.03,0.07 0.02,0.12 -0.02,0.14 -0.04,0.02 -0.08,-0.01 -0.11,-0.08z"/>
    <path class="fil16" d="M15.02 7.09l0.04 -0.02 -0.06 -0.15 -0.04 0.02 -0.01 -0.02c0.02,-0.01 0.03,-0.02 0.04,-0.03l0.02 -0.01 0.08 0.18 0.04 -0.02 0.01 0.02 -0.11 0.05 -0.01 -0.02z"/>
    <path class="fil9" d="M15.18 7.02l0.04 -0.02 -0.06 -0.15 -0.04 0.02 -0.01 -0.02c0.02,-0.01 0.03,-0.02 0.04,-0.03l0.02 -0.01 0.08 0.18 0.04 -0.02 0.01 0.02 -0.12 0.05 0 -0.02z"/>
    <path class="fil9" d="M15.33 6.95l0.05 -0.02 -0.07 -0.15 -0.03 0.02 -0.01 -0.02c0.02,-0.01 0.03,-0.02 0.04,-0.03l0.02 -0.01 0.08 0.18 0.04 -0.02 0.01 0.02 -0.12 0.05 -0.01 -0.02z"/>
    <path class="fil9" d="M15.49 6.88l0.05 -0.02 -0.07 -0.15 -0.03 0.02 -0.01 -0.02c0.02,-0.01 0.03,-0.02 0.04,-0.03l0.02 -0.01 0.08 0.18 0.04 -0.02 0.01 0.02 -0.12 0.05 -0.01 -0.02z"/>
    <path class="fil9" d="M15.83 6.63c-0.02,-0.06 -0.05,-0.07 -0.07,-0.06 -0.03,0.01 -0.03,0.04 -0.01,0.1 0.03,0.06 0.06,0.08 0.08,0.07 0.02,-0.01 0.03,-0.05 0,-0.11zm-0.1 0.05c-0.03,-0.07 -0.02,-0.12 0.02,-0.13 0.04,-0.02 0.08,0 0.11,0.07 0.03,0.07 0.02,0.12 -0.02,0.14 -0.04,0.02 -0.08,-0.01 -0.11,-0.08z"/>
    <path class="fil9" d="M15.99 6.56c-0.02,-0.06 -0.05,-0.07 -0.07,-0.06 -0.03,0.01 -0.03,0.04 -0.01,0.1 0.03,0.06 0.06,0.08 0.08,0.07 0.02,-0.01 0.03,-0.05 0,-0.11zm-0.1 0.05c-0.03,-0.07 -0.03,-0.12 0.02,-0.13 0.04,-0.02 0.08,0 0.11,0.07 0.03,0.07 0.02,0.12 -0.02,0.14 -0.04,0.02 -0.08,-0.01 -0.11,-0.08z"/>
    <path class="fil9" d="M16.09 6.62l0.05 -0.02 -0.07 -0.15 -0.03 0.01 -0.01 -0.02c0.02,-0.01 0.03,-0.02 0.03,-0.03l0.03 -0.01 0.08 0.18 0.04 -0.01 0.01 0.02 -0.12 0.05 -0.01 -0.02z"/>
    <path class="fil9" d="M16.31 6.42c-0.03,-0.06 -0.05,-0.07 -0.08,-0.06 -0.02,0.01 -0.03,0.04 0,0.1 0.03,0.06 0.05,0.08 0.08,0.07 0.02,-0.01 0.03,-0.05 0,-0.11zm-0.11 0.05c-0.03,-0.07 -0.02,-0.12 0.02,-0.13 0.04,-0.02 0.09,0 0.12,0.07 0.03,0.07 0.02,0.12 -0.02,0.14 -0.04,0.02 -0.08,-0.01 -0.12,-0.08z"/>
    <path class="fil9" d="M16.53 6.42l0.05 -0.02 -0.07 -0.15 -0.03 0.02 -0.01 -0.02c0.02,-0.01 0.03,-0.02 0.03,-0.03l0.02 -0.01 0.09 0.18 0.04 -0.02 0.01 0.02 -0.12 0.05 -0.01 -0.02z"/>
    <path class="fil9" d="M16.75 6.23c-0.03,-0.06 -0.05,-0.08 -0.08,-0.07 -0.02,0.01 -0.03,0.04 0,0.1 0.03,0.06 0.05,0.08 0.08,0.07 0.02,-0.01 0.03,-0.04 0,-0.1zm-0.11 0.05c-0.03,-0.07 -0.02,-0.12 0.02,-0.14 0.04,-0.02 0.09,0.01 0.12,0.08 0.03,0.07 0.02,0.12 -0.02,0.13 -0.04,0.02 -0.09,-0.01 -0.12,-0.07z"/>
    <path class="fil9" d="M16.85 6.28l0.05 -0.02 -0.07 -0.15 -0.04 0.02 0 -0.02c0.01,-0.01 0.02,-0.02 0.03,-0.03l0.02 -0.01 0.08 0.18 0.05 -0.02 0.01 0.02 -0.12 0.05 -0.01 -0.02z"/>
    <path class="fil9" d="M17.07 6.09c-0.03,-0.06 -0.05,-0.08 -0.08,-0.07 -0.02,0.01 -0.03,0.04 0,0.1 0.03,0.06 0.05,0.08 0.08,0.07 0.02,-0.01 0.02,-0.04 0,-0.1zm-0.11 0.05c-0.03,-0.07 -0.02,-0.12 0.02,-0.14 0.04,-0.02 0.08,0.01 0.11,0.08 0.03,0.07 0.03,0.12 -0.01,0.13 -0.05,0.02 -0.09,-0.01 -0.12,-0.07z"/>
    <path class="fil16" d="M15.26 7.37c-0.01,-0.03 -0.03,-0.04 -0.04,-0.04 -0.01,0.01 -0.02,0.03 0,0.06 0.01,0.03 0.03,0.04 0.04,0.04 0.01,-0.01 0.02,-0.03 0,-0.06zm-0.06 0.02c-0.01,-0.03 -0.01,-0.06 0.01,-0.07 0.03,-0.01 0.05,0.01 0.07,0.04 0.01,0.04 0.01,0.07 -0.01,0.08 -0.03,0.01 -0.05,-0.01 -0.07,-0.05z"/>
    <path class="fil16" d="M15.32 7.4l0.02 -0.01 -0.03 -0.09 -0.02 0.01 -0.01 -0.01c0.01,0 0.02,-0.01 0.02,-0.01l0.01 -0.01 0.05 0.1 0.02 -0.01 0 0.01 -0.06 0.03 0 -0.01z"/>
    <polygon class="fil16" points="15.39,7.23 15.4,7.23 15.42,7.4 15.41,7.4 "/>
    <path class="fil16" d="M15.46 7.33l0.03 -0.01 -0.04 -0.08 -0.02 0.01 0 -0.01c0.01,-0.01 0.01,-0.01 0.02,-0.02l0.01 0 0.04 0.09 0.03 -0.01 0 0.02 -0.06 0.02 -0.01 -0.01z"/>
    <path class="fil16" d="M15.58 7.21c-0.02,-0.02 -0.03,-0.02 -0.04,-0.02 -0.01,0.01 -0.02,0.02 -0.01,0.04 0,0.01 0.02,0.02 0.03,0.01 0.01,0 0.01,-0.01 0.02,-0.03zm-0.03 0.08c0.01,0 0.02,0 0.02,0 0.02,-0.01 0.03,-0.03 0.01,-0.06 0,0.01 -0.01,0.02 -0.02,0.02 -0.02,0.01 -0.03,0 -0.04,-0.02 -0.01,-0.02 -0.01,-0.04 0.01,-0.05 0.02,-0.01 0.05,0 0.06,0.04 0.02,0.04 0.01,0.07 -0.01,0.08 -0.01,0 -0.02,0 -0.03,0l0 -0.01z"/>
    <path class="fil4" d="M17.19 6.67l-0.63 0.28c-0.03,0.02 -0.07,0 -0.08,-0.03l-0.06 -0.13c-0.01,-0.03 0,-0.07 0.03,-0.08l0.63 -0.28c0.03,-0.02 0.07,0 0.08,0.03l0.06 0.13c0.02,0.03 0,0.07 -0.03,0.08z"/>
    <path class="fil4" d="M15.16 7.49l-0.1 0.05c-0.01,0 -0.02,0 -0.03,-0.01l-0.04 -0.1c0,-0.01 0,-0.02 0.01,-0.03l0.1 -0.04c0.01,-0.01 0.03,0 0.03,0.01l0.04 0.1c0.01,0 0,0.02 -0.01,0.02z"/>
    <path class="fil10" d="M14.31 10.1c0,0 0.56,-0.54 0.68,-0.95 0.12,-0.41 -0.05,-1.1 0.03,-1.41 0.04,-0.17 0.19,-0.5 0.22,-0.78 0.02,-0.27 -0.06,-0.43 -0.2,-0.47 -0.12,-0.04 -0.28,0.08 -0.39,0.31 -0.12,0.27 -0.13,0.56 -0.19,0.71 -0.13,0.35 -0.56,0.72 -0.75,1.23 -0.18,0.5 -0.19,1.03 -0.07,1.06 0.12,0.04 0.28,0.49 0.67,0.3z"/>
    <path class="fil17" d="M14.94 7.03l-0.06 -0.02c-0.1,-0.03 -0.15,-0.13 -0.12,-0.23l0.05 -0.2c0.03,-0.09 0.14,-0.15 0.23,-0.12l0.06 0.02c0.1,0.03 0.15,0.13 0.12,0.23l-0.05 0.19c-0.03,0.1 -0.14,0.15 -0.23,0.13z"/>
    <path class="fil11" d="M14.63 7.31c0,0 0.09,-0.02 0.19,0.01 0.11,0.04 0.16,0.11 0.16,0.11 0,0 -0.05,-0.04 -0.17,-0.08 -0.11,-0.04 -0.18,-0.04 -0.18,-0.04z"/>
    <path class="fil11" d="M14.61 7.36c0,0 0.09,-0.02 0.19,0.02 0.11,0.04 0.16,0.11 0.16,0.11 0,0 -0.05,-0.05 -0.17,-0.09 -0.11,-0.04 -0.18,-0.04 -0.18,-0.04z"/>
    <path class="fil11" d="M14.99 9.15c0.01,-0.01 0.01,-0.03 0.01,-0.05l0 -0.01c0,0 -0.32,0.63 -0.75,0.78 -0.42,0.16 -0.82,0 -0.88,0.08 -0.06,0.08 0.65,0.33 0.62,0.45 -0.03,0.12 -1.17,2.91 -1.2,3l0.41 0.13 1.16 -3.48c0.15,-0.15 0.53,-0.57 0.63,-0.9z"/>
   </g>
  </g>
  <polygon class="fil18" points="0,0 20.85,0 20.85,11.8 0,11.8 "/>
 </g>
</svg>
