<?xml version="1.0" encoding="UTF-8"?>
<!DOCTYPE svg PUBLIC "-//W3C//DTD SVG 1.1//EN" "http://www.w3.org/Graphics/SVG/1.1/DTD/svg11.dtd">
<!-- Creator: CorelDRAW 2019 (64-Bit) -->
<svg xmlns="http://www.w3.org/2000/svg" xml:space="preserve" width="1181px" height="591px" version="1.1" style="shape-rendering:geometricPrecision; text-rendering:geometricPrecision; image-rendering:optimizeQuality; fill-rule:evenodd; clip-rule:evenodd"
viewBox="0 0 1181 590.5"
 xmlns:xlink="http://www.w3.org/1999/xlink"
 xmlns:xodm="http://www.corel.com/coreldraw/odm/2003">
 <defs>
  <style type="text/css">
   <![CDATA[
    .fil37 {fill:#9294FF}
    .fil16 {fill:#7478F5}
    .fil36 {fill:#77A4E5}
    .fil25 {fill:#AFCDFB}
    .fil19 {fill:#E06B00;fill-rule:nonzero}
    .fil35 {fill:#120AFC;fill-rule:nonzero}
    .fil2 {fill:#001C22;fill-rule:nonzero}
    .fil8 {fill:#00292C;fill-rule:nonzero}
    .fil4 {fill:#1C353B;fill-rule:nonzero}
    .fil9 {fill:#2A4446;fill-rule:nonzero}
    .fil21 {fill:#4576BA;fill-rule:nonzero}
    .fil5 {fill:#7478F5;fill-rule:nonzero}
    .fil22 {fill:#77A4E5;fill-rule:nonzero}
    .fil3 {fill:#8D91FC;fill-rule:nonzero}
    .fil6 {fill:#AFCDFB;fill-rule:nonzero}
    .fil17 {fill:#CCE2E8;fill-rule:nonzero}
    .fil20 {fill:#DECCFF;fill-rule:nonzero}
    .fil0 {fill:#E4EEFF;fill-rule:nonzero}
    .fil12 {fill:#E68968;fill-rule:nonzero}
    .fil7 {fill:#F4F6FE;fill-rule:nonzero}
    .fil11 {fill:#F7B293;fill-rule:nonzero}
    .fil18 {fill:#FACCB5;fill-rule:nonzero}
    .fil10 {fill:white;fill-rule:nonzero}
    .fil1 {fill:#334BAE;fill-opacity:0.168627}
    .fil15 {fill:url(#id57)}
    .fil24 {fill:url(#id58)}
    .fil33 {fill:url(#id59)}
    .fil29 {fill:url(#id60)}
    .fil27 {fill:url(#id61)}
    .fil14 {fill:url(#id62)}
    .fil34 {fill:url(#id63)}
    .fil26 {fill:url(#id64)}
    .fil23 {fill:url(#id65)}
    .fil28 {fill:url(#id66)}
    .fil32 {fill:url(#id67)}
    .fil31 {fill:url(#id68)}
    .fil13 {fill:url(#id69)}
    .fil30 {fill:url(#id70)}
   ]]>
  </style>
    <clipPath id="id0">
     <path d="M1034.6 516.16l0 0 0 0c0,0 0,0 0,0l0 0 0 0z"/>
    </clipPath>
    <clipPath id="id1">
     <path d="M1031.9 497.86l0 0 23.62 -13.56 95.28 -54.68c0.94,3.31 1.64,6.6 2.09,9.85l-6.21 3.57c-0.8,-3.11 -1.81,-6.24 -3,-9.33l-111.78 64.15 0 0z"/>
    </clipPath>
    <clipPath id="id2">
     <path d="M1034 507.71c-0.46,-3.26 -1.16,-6.56 -2.12,-9.86l111.81 -64.15c1.2,3.11 2.19,6.23 2.98,9.36l-112.67 64.65 0 0z"/>
    </clipPath>
    <clipPath id="id3">
     <path d="M1034.6 516.17c0,-0.02 0,-0.02 0,-0.02l118.92 -68.22c0,0 0,0 0,0l-118.92 68.24 0 0z"/>
    </clipPath>
    <clipPath id="id4">
     <path d="M956.98 413.73l-2.59 -1.51 4.5 -2.58c0.61,0.63 1.38,1.19 2.32,1.66l-4.23 2.43 0 0z"/>
    </clipPath>
    <clipPath id="id5">
     <path d="M951.07 410.29l-2.6 -1.51 9.45 -5.42c-0.44,1.16 -0.6,2.25 -0.48,3.27l-6.37 3.66 0 0z"/>
    </clipPath>
    <clipPath id="id6">
     <path d="M945.14 406.85l-2.59 -1.51 10.62 -6.09 2.59 1.51 -10.62 6.09 0 0z"/>
    </clipPath>
    <clipPath id="id7">
     <path d="M960.55 395.02l0.36 -0.21 2.34 1.35c-0.15,0.15 -0.3,0.29 -0.44,0.43zm0 0l0 0c-0.1,0.1 -0.2,0.2 -0.29,0.29l-2.64 1.52 -2.59 -1.51 3.26 -1.87 0 0 -0.67 3.38 0 0z"/>
    </clipPath>
    <clipPath id="id8">
     <path d="M959.88 398.39l-0.49 -0.28 -0.23 -0.13 -1.87 -1.09 1.87 -1.08 1.39 -0.79 0 0 0 0 0 0 0.36 -0.21 2.34 1.35c-0.15,0.15 -0.3,0.29 -0.44,0.43zm-2.93 1.8c4.34,-2.66 2.4,-1.37 0,0z"/>
    </clipPath>
    <clipPath id="id9">
     <path d="M966.53 393.32l-1.5 -0.87 6.59 -3.78 0.79 0.46c-2.16,1.4 -4.13,2.8 -5.88,4.19l0 0z"/>
    </clipPath>
    <clipPath id="id10">
     <path d="M957.53 392.91l-2.36 -1.64 20.65 -11.85 2.6 1.5 -20.89 11.99 0 0z"/>
    </clipPath>
    <clipPath id="id11">
     <path d="M939.22 403.41l-2.59 -1.5 18.54 -10.64 2.36 1.64 -18.31 10.5 0 0z"/>
    </clipPath>
    <clipPath id="id12">
     <path d="M982.53 378.56l-2.59 -1.5 9.7 -5.57 2.59 1.51 -9.7 5.56 0 0z"/>
    </clipPath>
    <clipPath id="id13">
     <path d="M933.31 399.97l-2.59 -1.5 10.61 -6.09 2.59 1.5 -10.61 6.09 0 0z"/>
    </clipPath>
    <clipPath id="id14">
     <path d="M952.15 389.16l-2.36 -1.63 16.46 -9.45 2.59 1.5 -16.69 9.58 0 0z"/>
    </clipPath>
    <clipPath id="id15">
     <path d="M948.04 391.52l-2.59 -1.51 4.34 -2.49 2.36 1.64 -4.11 2.36 0 0z"/>
    </clipPath>
    <clipPath id="id16">
     <path d="M972.96 377.22l-2.59 -1.5 6.59 -3.78 2.59 1.5 -6.59 3.78 0 0z"/>
    </clipPath>
    <clipPath id="id17">
     <path d="M946.77 385.42l-2.36 -1.65 2.11 -1.21 2.59 1.51 -2.34 1.35 0 0z"/>
    </clipPath>
    <clipPath id="id18">
     <path d="M927.39 396.53l-2.59 -1.5 19.61 -11.26 2.36 1.65 -19.38 11.11 0 0z"/>
    </clipPath>
    <clipPath id="id19">
     <path d="M953.23 381.71l-2.59 -1.51 15.71 -9.01 2.59 1.5 -15.71 9.02 0 0z"/>
    </clipPath>
    <clipPath id="id20">
     <path d="M973.05 370.33l-2.59 -1.5 10.62 -6.1 2.59 1.51 -10.62 6.09 0 0z"/>
    </clipPath>
    <clipPath id="id21">
     <path d="M921.47 393.1l-2.59 -1.51 7.33 -4.21 2.6 1.51 -7.34 4.21 0 0z"/>
    </clipPath>
    <clipPath id="id22">
     <path d="M941.39 381.67l-2.36 -1.64 1 -0.57 2.59 1.5 -1.23 0.71 0 0z"/>
    </clipPath>
    <clipPath id="id23">
     <path d="M932.92 386.52l-2.59 -1.5 8.7 -4.99 2.36 1.64 -8.47 4.85 0 0z"/>
    </clipPath>
    <clipPath id="id24">
     <path d="M946.73 378.6l-2.59 -1.51 15.62 -8.96 2.6 1.5 -15.63 8.97 0 0z"/>
    </clipPath>
    <clipPath id="id25">
     <path d="M936.01 377.92l-2.36 -1.64 1.79 -1.02 2.59 1.5 -2.02 1.16 0 0z"/>
    </clipPath>
    <clipPath id="id26">
     <path d="M915.55 389.66l-2.59 -1.51 20.69 -11.87 2.36 1.64 -20.46 11.74 0 0z"/>
    </clipPath>
    <clipPath id="id27">
     <path d="M942.14 374.4l-2.59 -1.5 21.06 -12.09 2.59 1.51 -21.06 12.08 0 0z"/>
    </clipPath>
    <clipPath id="id28">
     <path d="M967.31 359.96l-2.59 -1.51 6.59 -3.78 2.59 1.5 -6.59 3.79 0 0z"/>
    </clipPath>
    <clipPath id="id29">
     <path d="M977.59 354.06l-2.59 -1.5 6.58 -3.78 2.6 1.5 -6.59 3.78 0 0z"/>
    </clipPath>
    <clipPath id="id30">
     <path d="M909.63 386.22l-2.59 -1.51 13.47 -7.72 2.59 1.5 -13.47 7.73 0 0z"/>
    </clipPath>
    <clipPath id="id31">
     <path d="M1038.54 366.93l-2.59 -1.51 18.68 -10.71 2.59 1.5 -18.68 10.72 0 0z"/>
    </clipPath>
    <clipPath id="id32">
     <path d="M1036.62 361.19l-2.59 -1.5 14.68 -8.42 2.59 1.5 -14.68 8.42 0 0z"/>
    </clipPath>
    <clipPath id="id33">
     <path d="M1034.76 355.43l-2.59 -1.51 10.62 -6.09 2.59 1.5 -10.62 6.1 0 0z"/>
    </clipPath>
    <clipPath id="id34">
     <path d="M1024.02 354.76l-2.6 -1.51 15.45 -8.86 2.59 1.5 -15.44 8.87 0 0z"/>
    </clipPath>
    <clipPath id="id35">
     <path d="M1022.93 348.55l-2.6 -1.5 10.62 -6.1 2.59 1.51 -10.61 6.09 0 0z"/>
    </clipPath>
    <clipPath id="id36">
     <path d="M1014.16 346.75l-2.6 -1.51 13.47 -7.73 2.59 1.51 -13.46 7.73 0 0z"/>
    </clipPath>
    <clipPath id="id37">
     <path d="M1014.37 339.79l-2.59 -1.5 7.33 -4.21 2.59 1.5 -7.33 4.21 0 0z"/>
    </clipPath>
    <clipPath id="id38">
     <path d="M1001.57 340.3l-2.59 -1.5 14.22 -8.16 2.58 1.5 -14.21 8.16 0 0z"/>
    </clipPath>
    <clipPath id="id39">
     <path d="M996.4 336.43l-2.59 -1.5 11.82 -6.78c1.31,0.23 2.63,0.47 3.96,0.72l-13.19 7.56 0 0z"/>
    </clipPath>
    <clipPath id="id40">
     <path d="M1009.58 328.87c-1.32,-0.25 -2.63,-0.49 -3.95,-0.72l1.65 -0.95 2.59 1.5 -0.29 0.17 0 0z"/>
    </clipPath>
    <clipPath id="id41">
     <path d="M930.63 374.17l-2.36 -1.64 2.08 -1.19 2.59 1.51 -2.31 1.32 0 0z"/>
    </clipPath>
    <clipPath id="id42">
     <path d="M927.21 376.13l-2.59 -1.5 3.65 -2.1 2.36 1.64 -3.42 1.96 0 0z"/>
    </clipPath>
    <clipPath id="id43">
     <path d="M937.06 370.48l-2.59 -1.5 12.88 -7.4 2.6 1.51 -12.89 7.39 0 0z"/>
    </clipPath>
    <clipPath id="id44">
     <path d="M912.09 349.19l-2.59 -1.5 21.76 -12.49 2.59 1.51 -21.76 12.48 0 0z"/>
    </clipPath>
    <clipPath id="id45">
     <path d="M940.18 333.07l-2.6 -1.5 8.57 -4.91 2.59 1.5 -8.56 4.91 0 0z"/>
    </clipPath>
    <clipPath id="id46">
     <path d="M973.66 404.15l-2.35 -1.64 10.01 -5.74 2.6 1.5 -10.26 5.88 0 0z"/>
    </clipPath>
    <clipPath id="id47">
     <path d="M961.21 411.3c-0.94,-0.47 -1.71,-1.03 -2.32,-1.66l12.42 -7.13 2.35 1.65 -12.45 7.14 0 0z"/>
    </clipPath>
    <clipPath id="id48">
     <path d="M988.03 395.91l-2.59 -1.5 9.7 -5.57 2.59 1.51 -9.7 5.56 0 0z"/>
    </clipPath>
    <clipPath id="id49">
     <path d="M1001.84 387.99l-2.59 -1.51 6.59 -3.78 2.59 1.51 -6.59 3.78 0 0z"/>
    </clipPath>
    <clipPath id="id50">
     <path d="M957.44 406.63c-0.12,-1.02 0.05,-2.12 0.48,-3.27l5.23 -3 2.59 1.51 -8.3 4.76 0 0z"/>
    </clipPath>
    <clipPath id="id51">
     <path d="M969.86 399.51l-2.6 -1.51 17.98 -10.32 2.6 1.5 -17.98 10.33 0 0z"/>
    </clipPath>
    <clipPath id="id52">
     <path d="M991.95 386.83l-2.59 -1.51 6.59 -3.78 2.59 1.5 -6.59 3.79 0 0z"/>
    </clipPath>
    <clipPath id="id53">
     <path d="M1002.14 380.98l-2.59 -1.5 6.58 -3.79 2.6 1.51 -6.59 3.78 0 0z"/>
    </clipPath>
    <clipPath id="id54">
     <path d="M962.9 396.66l-0.09 -0.07c0.14,-0.14 0.29,-0.28 0.44,-0.43l0.26 0.15 -0.61 0.35 0 0z"/>
    </clipPath>
    <clipPath id="id55">
     <path d="M962.52 396.88c0.09,-0.09 0.19,-0.19 0.29,-0.29l0.09 0.07 -0.38 0.22 0 0z"/>
    </clipPath>
    <clipPath id="id56">
     <path d="M967.62 393.95l-1.09 -0.63c1.75,-1.39 3.72,-2.79 5.88,-4.19l1.8 1.04 -6.59 3.78 0 0z"/>
    </clipPath>
  <linearGradient id="id57" gradientUnits="userSpaceOnUse" x1="233.95" y1="258.75" x2="159.78" y2="372.56">
   <stop offset="0" style="stop-opacity:1; stop-color:#8F9FA3"/>
   <stop offset="1" style="stop-opacity:1; stop-color:#B8CCD1"/>
  </linearGradient>
  <linearGradient id="id58" gradientUnits="userSpaceOnUse" x1="1043.98" y1="406.21" x2="1107.28" y2="504.63">
   <stop offset="0" style="stop-opacity:1; stop-color:#C7C7FF"/>
   <stop offset="1" style="stop-opacity:1; stop-color:#EDEDFF"/>
  </linearGradient>
  <linearGradient id="id59" gradientUnits="userSpaceOnUse" x1="1127.84" y1="234.82" x2="1144.79" y2="519.87">
   <stop offset="0" style="stop-opacity:1; stop-color:#BFBFFF"/>
   <stop offset="0.258824" style="stop-opacity:1; stop-color:#E8E8FF"/>
   <stop offset="0.509804" style="stop-opacity:1; stop-color:#BFBFFF"/>
   <stop offset="0.74902" style="stop-opacity:1; stop-color:#E8E8FF"/>
   <stop offset="1" style="stop-opacity:1; stop-color:#BFBFFF"/>
  </linearGradient>
  <linearGradient id="id60" gradientUnits="userSpaceOnUse" x1="893.12" y1="228.84" x2="1065.11" y2="521.89">
   <stop offset="0" style="stop-opacity:1; stop-color:#C7C7FF"/>
   <stop offset="0.258824" style="stop-opacity:1; stop-color:#EDEDFF"/>
   <stop offset="0.509804" style="stop-opacity:1; stop-color:#C7C7FF"/>
   <stop offset="0.74902" style="stop-opacity:1; stop-color:#EDEDFF"/>
   <stop offset="1" style="stop-opacity:1; stop-color:#C7C7FF"/>
  </linearGradient>
  <linearGradient id="id61" gradientUnits="userSpaceOnUse" x1="893.13" y1="228.84" x2="1065.1" y2="521.89">
   <stop offset="0" style="stop-opacity:1; stop-color:#E0E0FC"/>
   <stop offset="0.258824" style="stop-opacity:1; stop-color:white"/>
   <stop offset="0.509804" style="stop-opacity:1; stop-color:#EBEBFF"/>
   <stop offset="0.74902" style="stop-opacity:1; stop-color:white"/>
   <stop offset="1" style="stop-opacity:1; stop-color:#C7C7FF"/>
  </linearGradient>
  <linearGradient id="id62" gradientUnits="userSpaceOnUse" x1="245.96" y1="164.83" x2="141.37" y2="255.73">
   <stop offset="0" style="stop-opacity:1; stop-color:#487782"/>
   <stop offset="1" style="stop-opacity:1; stop-color:#5C98A7"/>
  </linearGradient>
  <linearGradient id="id63" gradientUnits="userSpaceOnUse" x1="1043.98" y1="406.21" x2="1107.29" y2="504.63">
   <stop offset="0" style="stop-opacity:1; stop-color:#4540FF"/>
   <stop offset="1" style="stop-opacity:1; stop-color:#4F4CFF"/>
  </linearGradient>
  <linearGradient id="id64" gradientUnits="userSpaceOnUse" xlink:href="#id59" x1="1020.65" y1="229.93" x2="1037.61" y2="521.87">
  </linearGradient>
  <linearGradient id="id65" gradientUnits="userSpaceOnUse" x1="995.01" y1="491.53" x2="1159.9" y2="494.71">
   <stop offset="0" style="stop-opacity:1; stop-color:#77A4E5"/>
   <stop offset="0.219608" style="stop-opacity:1; stop-color:#C2C4FF"/>
   <stop offset="1" style="stop-opacity:1; stop-color:#C2C4FF"/>
  </linearGradient>
  <linearGradient id="id66" gradientUnits="userSpaceOnUse" x1="896.71" y1="234.11" x2="1046.74" y2="488.76">
   <stop offset="0" style="stop-opacity:1; stop-color:#C7C2FF"/>
   <stop offset="0.258824" style="stop-opacity:1; stop-color:#EDE8FF"/>
   <stop offset="0.509804" style="stop-opacity:1; stop-color:#C7C2FF"/>
   <stop offset="0.74902" style="stop-opacity:1; stop-color:#EDE8FF"/>
   <stop offset="1" style="stop-opacity:1; stop-color:#C7C2FF"/>
  </linearGradient>
  <linearGradient id="id67" gradientUnits="userSpaceOnUse" x1="893.12" y1="228.84" x2="1065.11" y2="521.89">
   <stop offset="0" style="stop-opacity:1; stop-color:#C2C2FF"/>
   <stop offset="0.258824" style="stop-opacity:1; stop-color:#E8E8FF"/>
   <stop offset="0.509804" style="stop-opacity:1; stop-color:#C2C2FF"/>
   <stop offset="0.74902" style="stop-opacity:1; stop-color:#E8E8FF"/>
   <stop offset="1" style="stop-opacity:1; stop-color:#C2C2FF"/>
  </linearGradient>
  <linearGradient id="id68" gradientUnits="userSpaceOnUse" xlink:href="#id59" x1="893.12" y1="228.83" x2="1065.11" y2="521.89">
  </linearGradient>
  <linearGradient id="id69" gradientUnits="userSpaceOnUse" x1="233.95" y1="258.75" x2="159.78" y2="372.56">
   <stop offset="0" style="stop-opacity:1; stop-color:#9FA8AA"/>
   <stop offset="1" style="stop-opacity:1; stop-color:#CDD8DA"/>
  </linearGradient>
  <linearGradient id="id70" gradientUnits="userSpaceOnUse" xlink:href="#id60" x1="893.12" y1="228.84" x2="1065.11" y2="521.89">
  </linearGradient>
 </defs>
 <g id="Слой_x0020_1">
  <metadata id="CorelCorpID_0Corel-Layer"/>
  <g id="_2796237275440">
   <path class="fil0" d="M1084.6 508.41l0 77.27 -715.52 0c-125.69,0 -292.31,-98.86 -284.06,-239.67 12.02,-205.19 232.56,-317.78 419.68,-323.75 291.4,-9.29 579.9,178.75 579.9,486.15z"/>
   <path class="fil1" d="M796.25 346.65c-4.38,-9.08 -6.98,-18.82 -6.96,-27.74l118.91 -68.23c-0.05,20.74 6.73,27.99 10.32,34.02 5.48,9.22 3.19,7.13 12.9,16.32 3.17,3 6.53,5.58 10.03,7.61l2.38 1.38c7.02,3.43 3.87,2.42 11.86,6.89l3.43 1.99 2.96 1.72 7.33 4.26c45.29,26.32 90.58,52.62 135.86,78.95 16.6,9.61 30.77,29.69 36.4,49.82 -133.16,76.47 -89.11,51.12 -118.9,68.2 -5.7,-20.09 -19.78,-40.18 -36.39,-49.78 -94.35,-54.83 -126.9,-73.71 -163.83,-95.2 -11.28,-6.71 -20.86,-18.9 -26.31,-30.2l0.01 -0.01z"/>
   <g>
    <polygon class="fil2" points="573.95,535.35 598.4,521.9 698.77,137.09 692.31,120.21 "/>
    <path class="fil3" d="M690.97 58.32l-213.85 -52.54c-9.11,-2.23 -18.3,3.32 -20.54,12.44l-103.52 481.39c-2.24,9.11 3.34,18.32 12.43,20.55l188.63 46.34c9.1,2.24 18.3,-3.34 20.54,-12.45l128.76 -475.19c2.24,-9.11 -3.33,-18.3 -12.45,-20.54z"/>
    <polygon class="fil2" points="410.63,303.09 613.68,352.98 664.68,145.37 461.63,95.49 "/>
    <polygon class="fil4" points="439.34,248.53 614.56,291.58 643.57,173.49 468.35,130.44 "/>
    <path class="fil5" d="M451.45 363.21l-36.08 -8.86c-4.53,-1.11 -7.32,-5.71 -6.21,-10.26l3.17 -12.9c1.12,-4.54 5.73,-7.33 10.26,-6.22l36.08 8.87c4.56,1.12 7.35,5.72 6.23,10.27l-3.17 12.89c-1.12,4.55 -5.72,7.33 -10.28,6.21z"/>
    <path class="fil5" d="M517.81 379.52l-36.08 -8.87c-4.54,-1.11 -7.32,-5.71 -6.21,-10.26l3.17 -12.89c1.12,-4.55 5.72,-7.34 10.26,-6.22l36.08 8.86c4.56,1.12 7.34,5.73 6.23,10.27l-3.17 12.89c-1.12,4.55 -5.72,7.34 -10.28,6.22z"/>
    <path class="fil5" d="M584.17 395.82l-36.08 -8.86c-4.54,-1.12 -7.33,-5.72 -6.21,-10.27l3.16 -12.89c1.12,-4.55 5.73,-7.34 10.27,-6.22l36.08 8.86c4.55,1.12 7.32,5.72 6.2,10.27l-3.16 12.89c-1.12,4.55 -5.71,7.34 -10.26,6.22z"/>
    <path class="fil5" d="M441.07 405.47l-36.08 -8.87c-4.53,-1.11 -7.32,-5.7 -6.21,-10.26l3.17 -12.89c1.12,-4.55 5.72,-7.33 10.26,-6.22l36.08 8.87c4.56,1.12 7.35,5.72 6.23,10.27l-3.17 12.88c-1.12,4.56 -5.72,7.34 -10.28,6.22z"/>
    <path class="fil5" d="M507.43 421.77l-36.08 -8.86c-4.54,-1.12 -7.33,-5.71 -6.21,-10.27l3.17 -12.88c1.12,-4.56 5.72,-7.34 10.26,-6.22l36.08 8.86c4.56,1.12 7.34,5.72 6.23,10.27l-3.17 12.88c-1.12,4.56 -5.72,7.34 -10.28,6.22z"/>
    <path class="fil5" d="M573.79 438.07l-36.08 -8.86c-4.54,-1.12 -7.33,-5.71 -6.21,-10.27l3.16 -12.88c1.12,-4.55 5.72,-7.34 10.26,-6.22l36.09 8.86c4.55,1.12 7.32,5.72 6.2,10.27l-3.16 12.88c-1.12,4.56 -5.71,7.34 -10.26,6.22z"/>
    <path class="fil5" d="M430.69 447.73l-36.08 -8.87c-4.54,-1.11 -7.33,-5.71 -6.21,-10.26l3.17 -12.89c1.11,-4.55 5.72,-7.34 10.26,-6.22l36.08 8.86c4.56,1.12 7.34,5.73 6.23,10.28l-3.17 12.88c-1.12,4.56 -5.72,7.34 -10.28,6.22z"/>
    <path class="fil5" d="M497.05 464.03l-36.08 -8.86c-4.54,-1.12 -7.33,-5.71 -6.21,-10.27l3.17 -12.88c1.11,-4.55 5.71,-7.35 10.26,-6.23l36.08 8.86c4.55,1.12 7.34,5.73 6.22,10.28l-3.16 12.88c-1.12,4.56 -5.72,7.34 -10.28,6.22z"/>
    <path class="fil5" d="M563.41 480.33l-36.08 -8.86c-4.54,-1.12 -7.34,-5.71 -6.22,-10.27l3.17 -12.88c1.12,-4.55 5.72,-7.34 10.26,-6.23l36.08 8.87c4.56,1.11 7.33,5.72 6.21,10.27l-3.17 12.88c-1.12,4.56 -5.7,7.34 -10.25,6.22z"/>
    <path class="fil5" d="M419.99 491.28l-36.08 -8.86c-4.54,-1.12 -7.33,-5.71 -6.21,-10.26l3.17 -12.9c1.12,-4.55 5.72,-7.32 10.25,-6.21l36.08 8.87c4.56,1.12 7.35,5.71 6.24,10.26l-3.17 12.89c-1.12,4.55 -5.72,7.33 -10.28,6.21z"/>
    <path class="fil5" d="M486.35 507.58l-36.08 -8.86c-4.54,-1.12 -7.33,-5.71 -6.21,-10.26l3.17 -12.9c1.11,-4.54 5.71,-7.32 10.25,-6.21l36.08 8.87c4.56,1.12 7.35,5.71 6.24,10.26l-3.17 12.89c-1.12,4.56 -5.72,7.33 -10.28,6.21z"/>
    <path class="fil5" d="M552.71 523.89l-36.08 -8.87c-4.54,-1.11 -7.34,-5.71 -6.22,-10.26l3.17 -12.9c1.12,-4.54 5.72,-7.32 10.26,-6.2l36.08 8.86c4.55,1.12 7.33,5.71 6.21,10.25l-3.17 12.9c-1.12,4.55 -5.7,7.33 -10.25,6.22z"/>
    <path class="fil2" d="M458.11 332.24l-36.08 -8.86c-4.53,-1.11 -9.14,1.66 -10.26,6.22l-3.16 12.88c-1.12,4.56 1.67,9.16 6.21,10.27l36.08 8.87c4.56,1.11 9.16,-1.67 10.28,-6.22l3.16 -12.89c1.12,-4.55 -1.67,-9.15 -6.23,-10.27z"/>
    <path class="fil6" d="M463.08 285.37c-1.4,-4.47 -3.23,-8.99 -7.38,-10.01l-21.35 -5.24c-4.15,-1.02 -8.42,1.85 -9.54,6.41l-3.16 12.87c-1.12,4.56 1.33,9.08 5.48,10.1l32.89 8.08c4.16,1.02 7.23,-2.69 6.78,-7.35 -0.42,-4.26 -1.95,-9.2 -3.72,-14.86z"/>
    <path class="fil6" d="M551.15 298.81l-16.81 -4.13c-3.26,-0.8 -6.39,2.5 -9.2,5.94 -3.54,4.35 -6.66,8.15 -8.71,11.8 -2.24,4 -1.67,8.61 1.6,9.41l25.9 6.37c3.27,0.8 6.83,-2.25 7.95,-6.8l3.16 -12.88c1.12,-4.55 -0.62,-8.9 -3.89,-9.71z"/>
    <path class="fil6" d="M517.78 290.62l-25.41 -6.25c-3.21,-0.78 -6.71,2.27 -7.83,6.83l-3.17 12.87c-1.12,4.56 0.57,8.9 3.78,9.68l16.49 4.05c3.2,0.79 6.29,-2.51 9.07,-5.96 3.51,-4.36 6.57,-8.18 8.6,-11.83 2.21,-4 1.68,-8.61 -1.53,-9.39z"/>
    <path class="fil6" d="M607.94 312.77l-32.9 -8.09c-4.14,-1.02 -7.24,2.7 -6.78,7.36 0.43,4.25 1.97,9.2 3.73,14.85 1.41,4.48 3.23,8.99 7.38,10.01l21.35 5.25c4.15,1.02 8.42,-1.85 9.54,-6.41l3.16 -12.87c1.12,-4.56 -1.33,-9.08 -5.48,-10.1z"/>
    <path class="fil2" d="M524.47 348.55l-36.08 -8.87c-4.54,-1.11 -9.14,1.67 -10.26,6.22l-3.16 12.89c-1.12,4.55 1.66,9.15 6.2,10.26l36.09 8.87c4.55,1.12 9.16,-1.67 10.27,-6.22l3.17 -12.88c1.12,-4.56 -1.67,-9.15 -6.23,-10.27z"/>
    <path class="fil2" d="M590.83 364.85l-36.08 -8.87c-4.54,-1.11 -9.14,1.67 -10.26,6.22l-3.17 12.89c-1.12,4.55 1.67,9.15 6.21,10.27l36.08 8.86c4.56,1.12 9.16,-1.67 10.28,-6.22l3.16 -12.88c1.12,-4.56 -1.66,-9.15 -6.22,-10.27z"/>
    <path class="fil2" d="M447.73 374.5l-36.08 -8.86c-4.53,-1.12 -9.14,1.66 -10.26,6.22l-3.16 12.88c-1.12,4.55 1.67,9.16 6.2,10.27l36.09 8.86c4.55,1.12 9.16,-1.67 10.27,-6.21l3.17 -12.89c1.12,-4.55 -1.67,-9.15 -6.23,-10.27z"/>
    <path class="fil2" d="M514.09 390.8l-36.08 -8.86c-4.54,-1.11 -9.14,1.67 -10.26,6.22l-3.16 12.89c-1.12,4.54 1.66,9.15 6.2,10.26l36.08 8.87c4.56,1.12 9.17,-1.67 10.28,-6.22l3.17 -12.88c1.12,-4.56 -1.67,-9.15 -6.23,-10.28z"/>
    <path class="fil2" d="M580.45 407.11l-36.08 -8.87c-4.54,-1.11 -9.15,1.67 -10.27,6.22l-3.16 12.89c-1.12,4.54 1.67,9.15 6.21,10.27l36.08 8.86c4.56,1.12 9.16,-1.67 10.28,-6.22l3.16 -12.88c1.12,-4.56 -1.66,-9.15 -6.22,-10.27z"/>
    <path class="fil2" d="M437.35 416.76l-36.08 -8.87c-4.54,-1.11 -9.14,1.67 -10.26,6.22l-3.16 12.89c-1.12,4.55 1.67,9.16 6.2,10.27l36.08 8.86c4.56,1.12 9.17,-1.67 10.28,-6.21l3.17 -12.89c1.12,-4.55 -1.67,-9.15 -6.23,-10.27z"/>
    <path class="fil2" d="M503.71 433.06l-36.08 -8.86c-4.54,-1.12 -9.14,1.66 -10.26,6.22l-3.17 12.88c-1.11,4.55 1.67,9.16 6.21,10.27l36.08 8.87c4.56,1.12 9.16,-1.67 10.28,-6.22l3.17 -12.89c1.12,-4.55 -1.67,-9.15 -6.23,-10.27z"/>
    <path class="fil2" d="M570.07 449.36l-36.08 -8.86c-4.55,-1.12 -9.15,1.67 -10.27,6.22l-3.16 12.89c-1.12,4.54 1.67,9.15 6.21,10.26l36.08 8.87c4.56,1.12 9.16,-1.67 10.28,-6.22l3.16 -12.89c1.12,-4.55 -1.67,-9.15 -6.22,-10.27z"/>
    <path class="fil6" d="M426.65 460.31l-36.08 -8.86c-4.54,-1.12 -9.14,1.67 -10.26,6.23l-3.17 12.88c-1.12,4.55 1.68,9.15 6.21,10.27l36.08 8.86c4.56,1.12 9.16,-1.66 10.28,-6.22l3.17 -12.88c1.12,-4.56 -1.67,-9.16 -6.23,-10.28z"/>
    <path class="fil6" d="M493.01 476.61l-36.08 -8.86c-4.54,-1.12 -9.14,1.67 -10.26,6.23l-3.17 12.88c-1.12,4.56 1.67,9.15 6.21,10.27l36.08 8.86c4.56,1.12 9.16,-1.66 10.28,-6.22l3.16 -12.88c1.12,-4.55 -1.66,-9.16 -6.22,-10.28z"/>
    <path class="fil6" d="M559.37 492.92l-36.08 -8.87c-4.55,-1.11 -9.15,1.67 -10.27,6.23l-3.16 12.88c-1.12,4.56 1.67,9.16 6.21,10.27l36.08 8.87c4.56,1.12 9.16,-1.67 10.28,-6.23l3.16 -12.87c1.12,-4.56 -1.66,-9.17 -6.22,-10.28z"/>
    <polygon class="fil5" points="597.73,522.27 602.9,519.24 700.21,141.13 697.99,135.05 "/>
    <polygon class="fil5" points="380.31,502.15 365.36,520.13 553.12,566.26 550.36,543.92 "/>
    <path class="fil7" d="M654.59 133.16l-179.89 -44.19c-5.29,-1.3 -8.55,-6.69 -7.25,-11.98l10.29 -41.91c1.3,-5.29 6.69,-8.55 11.98,-7.25l179.89 44.19c5.29,1.3 8.55,6.69 7.25,11.98l-10.29 41.91c-1.3,5.29 -6.69,8.55 -11.98,7.25z"/>
    <path class="fil8" d="M430.93 246.47l0.1 0.02 0.1 0.03 0.11 0.02 0.1 0.03 0.12 0.03 0.13 0.03 0.12 0.03 0.13 0.03 0.12 0.03c2.47,0.6 4.94,1.16 7.4,1.7l28.99 -117.98 175.22 43.05 -6.09 24.79c12.57,-14.26 21.67,-30.88 26.31,-49.47l0.16 -0.63 0.02 -0.09c0.21,-0.92 0.37,-1.84 0.57,-2.75l-202.91 -49.85 -36.7 149.37c2,0.55 3.98,1.1 6,1.61z"/>
    <path class="fil9" d="M439.36 248.42l28.99 -117.98 175.22 43.05 -6.09 24.79c-40.64,46.06 -117.61,67.38 -198.12,50.14z"/>
    <path class="fil10" d="M543.17 243.59c-1.23,4.99 -6.28,8.05 -11.27,6.83 -5,-1.23 -8.05,-6.28 -6.82,-11.28 1.22,-4.99 6.27,-8.05 11.26,-6.82 5,1.23 8.05,6.27 6.83,11.27z"/>
    <path class="fil10" d="M543.08 204.9c-17.2,-4.22 -27.89,6.91 -28.34,7.39 -2.62,2.79 -2.48,7.18 0.31,9.8 0.9,0.84 1.97,1.4 3.09,1.67 2.35,0.58 4.94,-0.1 6.71,-1.99 0.06,-0.05 5.66,-5.68 14.92,-3.4 9.06,2.22 11.52,9.55 11.66,10.01 0.72,2.46 2.69,4.22 5.02,4.8 1.11,0.27 2.32,0.27 3.5,-0.06 3.69,-1.03 5.85,-4.86 4.82,-8.54 -0.18,-0.63 -4.49,-15.45 -21.69,-19.68z"/>
    <path class="fil10" d="M550.22 175.84c-30.51,-7.49 -49.19,11.95 -49.97,12.78 -2.6,2.78 -2.47,7.13 0.3,9.75 0.9,0.86 1.97,1.42 3.1,1.7 2.34,0.57 4.9,-0.08 6.68,-1.93 0.57,-0.59 14.15,-14.35 36.58,-8.84 22.37,5.5 28.06,23.9 28.32,24.77 0.7,2.49 2.68,4.27 5.02,4.84 1.11,0.28 2.32,0.28 3.5,-0.05 3.69,-1.03 5.85,-4.86 4.82,-8.54 -0.3,-1.1 -7.84,-26.98 -38.35,-34.48z"/>
   </g>
   <path class="fil11" d="M125.77 284.07c0,0 -67.25,78.55 -82.6,119.57 -15.34,41.01 -10.16,118.79 -10.16,118.79l82.77 24.89c0,0 40.16,-65.14 40.07,-78.2 -0.08,-13.07 6.22,-158.09 1.54,-160.5 -4.68,-2.41 -31.62,-24.55 -31.62,-24.55z"/>
   <path class="fil12" d="M96.7 330.7c0,0 -10.93,43.97 -8.52,61.37 2.41,17.4 11.89,22.67 18.86,20.5 6.97,-2.17 34.52,-46.76 34.52,-46.76l-44.86 -35.11z"/>
   <path class="fil12" d="M132.71 377.03l39.84 51.74c6.13,7.95 17.64,9.44 25.59,3.32 7.95,-6.12 9.45,-17.64 3.32,-25.59l-39.85 -51.74c-6.12,-7.95 -17.63,-9.44 -25.58,-3.32 -7.95,6.13 -9.45,17.64 -3.32,25.59z"/>
   <path class="fil12" d="M152.87 350.01l39.85 51.73c6.12,7.95 17.63,9.44 25.59,3.32l0 0c7.95,-6.13 9.44,-17.64 3.32,-25.59l-39.85 -51.73c-6.12,-7.95 -17.64,-9.45 -25.59,-3.33 -7.95,6.13 -9.45,17.65 -3.32,25.6z"/>
   <polygon class="fil11" points="-0.45,586.66 34.98,495.44 128.8,523.66 107.78,586.66 "/>
   <path class="fil3" d="M270.32 207.73l-189.94 83.85c-3.62,1.59 -5.27,5.84 -3.67,9.47l46.31 104.9c1.61,3.63 5.85,5.27 9.47,3.67l189.94 -83.85c3.63,-1.6 5.28,-5.83 3.67,-9.46l-46.31 -104.91c-1.6,-3.63 -5.85,-5.27 -9.47,-3.67z"/>
   <path class="fil5" d="M270.32 207.73l-189.94 83.85c-2.26,1 -3.76,3.02 -4.16,5.29 0.73,-1.14 1.78,-2.08 3.12,-2.67l189.93 -83.85c3.63,-1.6 7.87,0.05 9.47,3.67l46.32 104.92c0.6,1.36 0.74,2.81 0.49,4.17 1.27,-1.96 1.57,-4.5 0.55,-6.8l-46.31 -104.91c-1.6,-3.63 -5.85,-5.27 -9.47,-3.67z"/>
   <path class="fil13" d="M76.69 301c0,-0.01 0,-0.01 0,-0.02 0,0.01 0,0.01 0,0.02zm-0.02 -0.05c0,-0.01 0,-0.01 -0.01,-0.02 0.01,0.01 0.01,0.01 0.01,0.02zm-0.02 -0.05c0,0 0,-0.01 -0.01,-0.02 0.01,0.01 0.01,0.02 0.01,0.02zm-0.03 -0.07c0,0 0,-0.01 0,-0.02 0,0.01 0,0.02 0,0.02zm-0.02 -0.04c0,-0.01 0,-0.02 0,-0.03 0,0.01 0,0.02 0,0.03zm-0.01 -0.05c-0.01,-0.01 -0.01,-0.02 -0.01,-0.02 0,0 0,0.01 0.01,0.02zm-0.03 -0.06c0,0 0,-0.01 0,-0.01 0,0 0,0.01 0,0.01zm-0.02 -0.06c0,-0.01 0,-0.01 0,-0.01 0,0 0,0 0,0.01zm-0.02 -0.05c0,-0.01 0,-0.01 0,-0.01 0,0 0,0 0,0.01zm-0.02 -0.06c0,0 0,-0.01 0,-0.01 0,0 0,0.01 0,0.01z"/>
   <path class="fil14" d="M319.13 252.08l0 0c0.05,-0.08 0.1,-0.16 0.15,-0.23 -0.05,0.07 -0.1,0.15 -0.15,0.23z"/>
   <path class="fil15" d="M300.58 335.42l0 0 21.85 -9.65 -21.85 9.65zm21.85 -9.65l0 0zm0.35 -0.16l0.08 -0.04 0.08 -0.05 0.08 -0.04 0 0 0.08 -0.04 0.01 0 0.07 -0.05 0.01 0 0.07 -0.05 0.01 0 0.07 -0.05 0 0 0.16 -0.1 0 0 0.08 -0.05 0 0c1.08,-0.74 1.92,-1.75 2.46,-2.89l0 0 0.03 -0.08 0.01 0 0.03 -0.08 0 0 0.03 -0.08 0.01 0 0.03 -0.08 0 0 0.03 -0.09 0 0 0.03 -0.08 0 0 0.03 -0.08 0.03 -0.08 0.03 -0.09 0.03 -0.08 0.03 -0.08 -0.03 0.08 -0.03 0.08 -0.03 0.09 -0.03 0.08 -0.03 0.08 0 0 -0.03 0.08 0 0 -0.03 0.09 0 0 -0.03 0.08 -0.01 0 -0.03 0.08 0 0 -0.03 0.08 -0.01 0 -0.03 0.08 0 0c-0.54,1.14 -1.37,2.15 -2.46,2.89l0 0 -0.08 0.05 0 0 -0.16 0.1 0 0 -0.07 0.05 -0.01 0 -0.07 0.05 -0.01 0 -0.07 0.05 -0.01 0 -0.08 0.04 0 0 -0.08 0.04 -0.08 0.05 -0.08 0.04zm3.61 -4.26l0 0z"/>
   <path class="fil16" d="M127.53 409.93c-1.94,-0.58 -3.63,-1.98 -4.51,-3.98l-3.26 -7.39 -25.42 -57.58 -17.63 -39.93 0 0c0,-0.02 -0.01,-0.03 -0.02,-0.05 0,-0.01 0,-0.01 0,-0.02 -0.01,-0.01 -0.02,-0.02 -0.02,-0.03 0,-0.01 0,-0.01 -0.01,-0.02 0,-0.01 0,-0.02 -0.01,-0.03 0,0 0,-0.01 -0.01,-0.02 0,-0.01 -0.01,-0.03 -0.02,-0.05 0,0 0,-0.01 0,-0.02 -0.01,-0.01 -0.01,-0.01 -0.02,-0.02 0,-0.01 0,-0.02 0,-0.03 -0.01,0 -0.01,-0.01 -0.01,-0.02 -0.01,-0.01 -0.01,-0.02 -0.01,-0.02 -0.01,-0.01 -0.01,-0.03 -0.02,-0.04 0,0 0,-0.01 0,-0.01 -0.01,-0.02 -0.02,-0.04 -0.02,-0.05 0,-0.01 0,-0.01 0,-0.01 -0.01,-0.02 -0.01,-0.03 -0.02,-0.04 0,-0.01 0,-0.01 0,-0.01 -0.01,-0.02 -0.01,-0.03 -0.02,-0.05 0,0 0,-0.01 0,-0.01 -0.42,-1.2 -0.5,-2.45 -0.28,-3.64 0.27,-0.41 0.58,-0.8 0.93,-1.16 0.02,0.91 0.22,1.84 0.61,2.72l46.31 104.91c0.88,2 2.57,3.39 4.51,3.98 1.58,0.47 3.33,0.41 4.96,-0.31l189.94 -83.85c0.84,-0.37 1.58,-0.88 2.18,-1.5 0.02,0.49 -0.02,0.98 -0.11,1.46 0.51,-0.8 0.87,-1.69 1.04,-2.62 0,0 0.01,0 0.01,0 -0.04,0.2 -0.08,0.4 -0.13,0.6 -0.03,0.08 -0.06,0.17 -0.08,0.26 -0.57,1.79 -1.83,3.36 -3.61,4.26 -0.01,0 -0.01,0.01 -0.02,0.01 -0.01,0 -0.02,0.01 -0.03,0.01 0,0.01 -0.01,0.01 -0.01,0.01 -0.02,0.01 -0.02,0.01 -0.03,0.02 -0.01,0 -0.02,0 -0.02,0.01 -0.02,0 -0.03,0.01 -0.04,0.02 -0.01,0 -0.02,0 -0.03,0.01 -0.01,0 -0.01,0.01 -0.02,0.01 -0.01,0.01 -0.02,0.01 -0.03,0.01 -0.01,0.01 -0.01,0.01 -0.02,0.01 -0.01,0.01 -0.02,0.01 -0.03,0.01 -0.01,0.01 -0.01,0.01 -0.01,0.01 -0.03,0.01 -0.04,0.02 -0.06,0.02l0 0 -21.85 9.65 -20.3 8.96 -63.94 28.23 -34.37 15.17 -30.58 13.5 -18.9 8.34c-1.63,0.72 -3.38,0.79 -4.96,0.31z"/>
   <path class="fil16" d="M76.22 296.86c0.17,-0.93 0.53,-1.82 1.04,-2.61 -0.09,0.47 -0.12,0.96 -0.11,1.45 -0.35,0.36 -0.66,0.75 -0.93,1.16zm249.33 26.25c0.09,-0.48 0.13,-0.97 0.11,-1.46 0.36,-0.36 0.67,-0.74 0.93,-1.16 -0.17,0.93 -0.53,1.82 -1.04,2.62z"/>
   <path class="fil16" d="M76.71 301.05l46.31 104.9c0.67,1.51 1.81,2.65 3.15,3.39 54.97,-37.96 82.92,-104.53 72.21,-169.85l-118 52.09c-3.62,1.59 -5.27,5.84 -3.67,9.47z"/>
   <path class="fil10" d="M241.09 266.31c-2.66,1.17 -5.76,-0.03 -6.94,-2.69 -1.17,-2.66 0.03,-5.77 2.69,-6.94 2.66,-1.17 5.77,0.03 6.94,2.69 1.18,2.66 -0.03,5.77 -2.69,6.94z"/>
   <path class="fil10" d="M258.37 252.93c-4.04,-9.16 -12.71,-10.1 -13.08,-10.14 -2.15,-0.2 -4.06,1.37 -4.27,3.52 -0.07,0.7 0.05,1.37 0.31,1.96 0.56,1.25 1.75,2.18 3.21,2.32 0.04,0 4.49,0.57 6.66,5.5 2.14,4.82 -0.29,8.45 -0.45,8.67 -0.85,1.17 -0.97,2.66 -0.42,3.9 0.26,0.59 0.68,1.13 1.23,1.54 1.74,1.3 4.19,0.95 5.49,-0.78 0.22,-0.3 5.36,-7.34 1.32,-16.49z"/>
   <path class="fil10" d="M273.84 246.1c-7.17,-16.24 -22.31,-17.89 -22.95,-17.95 -2.15,-0.21 -4.04,1.35 -4.27,3.49 -0.07,0.7 0.05,1.38 0.31,1.98 0.55,1.24 1.73,2.17 3.18,2.32 0.45,0.05 11.29,1.38 16.56,13.33 5.26,11.9 -1.02,20.79 -1.31,21.2 -0.88,1.18 -0.99,2.67 -0.44,3.92 0.26,0.59 0.68,1.13 1.23,1.55 1.73,1.3 4.19,0.94 5.48,-0.79 0.39,-0.52 9.37,-12.81 2.21,-29.05z"/>
   <path class="fil10" d="M125.39 358.47c-1.61,-3.63 -3.23,-4.68 -4.67,-4.04 -1.45,0.63 -1.77,2.54 -0.17,6.18 1.61,3.63 3.26,4.76 4.72,4.11 1.44,-0.63 1.72,-2.62 0.12,-6.25zm-6.39 2.82c-1.84,-4.15 -1.33,-7.05 1.16,-8.15 2.47,-1.09 4.95,0.49 6.79,4.65 1.83,4.15 1.36,7.13 -1.11,8.22 -2.49,1.09 -5,-0.56 -6.84,-4.72z"/>
   <path class="fil10" d="M131.51 361.64l2.84 -1.25 -4.03 -9.13 -2.25 0.99 -0.46 -1.03c1.04,-0.69 1.72,-1.36 2.22,-2.07l1.23 -0.54 4.88 11.08 2.57 -1.13 0.58 1.31 -6.99 3.09 -0.59 -1.32z"/>
   <path class="fil10" d="M144.72 349.94c-1.6,-3.64 -3.22,-4.68 -4.66,-4.05 -1.46,0.64 -1.78,2.55 -0.17,6.18 1.6,3.63 3.26,4.76 4.72,4.12 1.43,-0.64 1.72,-2.62 0.11,-6.25zm-6.39 2.82c-1.83,-4.16 -1.33,-7.05 1.17,-8.15 2.46,-1.09 4.94,0.49 6.78,4.64 1.84,4.16 1.36,7.13 -1.11,8.22 -2.49,1.1 -5,-0.55 -6.84,-4.71z"/>
   <path class="fil17" d="M154.39 345.67c-1.6,-3.64 -3.23,-4.68 -4.66,-4.05 -1.46,0.64 -1.78,2.55 -0.18,6.19 1.61,3.62 3.26,4.75 4.72,4.11 1.44,-0.63 1.73,-2.62 0.12,-6.25zm-6.39 2.82c-1.84,-4.16 -1.32,-7.05 1.16,-8.15 2.47,-1.09 4.95,0.49 6.79,4.64 1.83,4.16 1.36,7.14 -1.11,8.22 -2.49,1.1 -5.01,-0.55 -6.84,-4.71z"/>
   <path class="fil17" d="M167.9 345.59l2.83 -1.26 -4.03 -9.13 -2.25 1 -0.46 -1.04c1.04,-0.68 1.72,-1.36 2.22,-2.06l1.23 -0.54 4.88 11.07 2.57 -1.13 0.58 1.32 -6.99 3.08 -0.58 -1.31z"/>
   <path class="fil10" d="M177.56 341.32l2.84 -1.25 -4.03 -9.14 -2.26 1 -0.45 -1.03c1.04,-0.69 1.72,-1.36 2.22,-2.07l1.22 -0.54 4.89 11.07 2.56 -1.13 0.59 1.32 -7 3.09 -0.58 -1.32z"/>
   <path class="fil10" d="M187.23 337.05l2.84 -1.25 -4.04 -9.13 -2.25 0.99 -0.46 -1.03c1.05,-0.69 1.73,-1.36 2.23,-2.07l1.22 -0.54 4.89 11.07 2.56 -1.13 0.58 1.32 -6.99 3.09 -0.58 -1.32z"/>
   <path class="fil10" d="M196.9 332.78l2.83 -1.25 -4.03 -9.13 -2.25 1 -0.46 -1.04c1.04,-0.69 1.72,-1.36 2.22,-2.07l1.23 -0.54 4.89 11.08 2.56 -1.13 0.58 1.32 -6.99 3.08 -0.58 -1.32z"/>
   <path class="fil10" d="M217.48 317.82c-1.6,-3.63 -3.22,-4.68 -4.66,-4.04 -1.46,0.64 -1.78,2.54 -0.17,6.18 1.6,3.62 3.26,4.75 4.72,4.11 1.43,-0.63 1.72,-2.62 0.11,-6.25zm-6.38 2.82c-1.84,-4.16 -1.33,-7.05 1.15,-8.15 2.47,-1.09 4.95,0.49 6.79,4.64 1.83,4.16 1.36,7.13 -1.11,8.22 -2.48,1.1 -5,-0.55 -6.83,-4.71z"/>
   <path class="fil10" d="M227.15 313.55c-1.6,-3.63 -3.22,-4.68 -4.66,-4.04 -1.46,0.64 -1.78,2.54 -0.17,6.18 1.6,3.63 3.26,4.76 4.71,4.11 1.44,-0.63 1.73,-2.62 0.12,-6.25zm-6.39 2.83c-1.83,-4.16 -1.32,-7.06 1.16,-8.16 2.47,-1.08 4.95,0.49 6.79,4.65 1.83,4.15 1.36,7.13 -1.11,8.22 -2.48,1.09 -5,-0.56 -6.84,-4.71z"/>
   <path class="fil10" d="M233.27 316.72l2.84 -1.25 -4.03 -9.13 -2.25 1 -0.46 -1.04c1.05,-0.69 1.72,-1.36 2.22,-2.07l1.23 -0.54 4.88 11.08 2.57 -1.13 0.59 1.31 -7 3.09 -0.59 -1.32z"/>
   <path class="fil10" d="M246.49 305.02c-1.61,-3.64 -3.23,-4.68 -4.67,-4.05 -1.46,0.65 -1.78,2.55 -0.17,6.18 1.61,3.64 3.26,4.76 4.72,4.12 1.43,-0.64 1.72,-2.62 0.12,-6.25zm-6.39 2.82c-1.84,-4.16 -1.33,-7.05 1.16,-8.15 2.46,-1.09 4.94,0.49 6.78,4.64 1.84,4.16 1.36,7.13 -1.1,8.22 -2.49,1.1 -5.01,-0.55 -6.84,-4.71z"/>
   <path class="fil10" d="M259.99 304.93l2.83 -1.25 -4.03 -9.14 -2.25 1 -0.46 -1.03c1.04,-0.69 1.72,-1.36 2.22,-2.07l1.23 -0.54 4.89 11.07 2.56 -1.13 0.58 1.32 -6.99 3.09 -0.58 -1.32z"/>
   <path class="fil10" d="M273.2 293.22c-1.61,-3.63 -3.23,-4.68 -4.67,-4.04 -1.45,0.64 -1.78,2.54 -0.17,6.18 1.6,3.63 3.26,4.76 4.72,4.11 1.44,-0.63 1.72,-2.62 0.12,-6.25zm-6.4 2.83c-1.83,-4.16 -1.32,-7.06 1.17,-8.16 2.46,-1.09 4.94,0.49 6.78,4.65 1.84,4.16 1.36,7.13 -1.11,8.21 -2.48,1.1 -5,-0.55 -6.84,-4.7z"/>
   <path class="fil10" d="M279.32 296.39l2.84 -1.25 -4.03 -9.13 -2.26 1 -0.45 -1.03c1.04,-0.7 1.72,-1.37 2.22,-2.08l1.22 -0.54 4.89 11.08 2.57 -1.13 0.58 1.32 -7 3.08 -0.58 -1.32z"/>
   <path class="fil10" d="M292.53 284.69c-1.6,-3.64 -3.23,-4.68 -4.67,-4.05 -1.45,0.64 -1.77,2.55 -0.17,6.18 1.61,3.64 3.26,4.76 4.72,4.12 1.44,-0.64 1.73,-2.62 0.12,-6.25zm-6.39 2.82c-1.84,-4.16 -1.33,-7.05 1.16,-8.15 2.47,-1.09 4.95,0.48 6.79,4.64 1.83,4.16 1.35,7.13 -1.11,8.22 -2.49,1.1 -5.01,-0.55 -6.84,-4.71z"/>
   <path class="fil17" d="M182.79 362.43c-0.87,-1.98 -1.75,-2.55 -2.54,-2.2 -0.79,0.35 -0.96,1.39 -0.09,3.36 0.87,1.98 1.77,2.59 2.57,2.24 0.78,-0.34 0.94,-1.42 0.06,-3.4zm-3.48 1.54c-1,-2.27 -0.72,-3.84 0.63,-4.44 1.35,-0.6 2.7,0.26 3.7,2.53 1,2.26 0.74,3.88 -0.61,4.47 -1.35,0.6 -2.72,-0.3 -3.72,-2.56z"/>
   <path class="fil17" d="M186.13 364.16l1.54 -0.69 -2.19 -4.97 -1.23 0.55 -0.25 -0.57c0.57,-0.37 0.94,-0.74 1.21,-1.13l0.67 -0.29 2.66 6.03 1.4 -0.62 0.31 0.72 -3.8 1.68 -0.32 -0.71z"/>
   <polygon class="fil17" points="190.49,354.11 191.12,353.83 192.38,364.28 191.73,364.56 "/>
   <path class="fil17" d="M195.1 360.19l1.55 -0.68 -2.2 -4.97 -1.22 0.54 -0.25 -0.56c0.56,-0.38 0.94,-0.74 1.21,-1.13l0.67 -0.29 2.66 6.03 1.39 -0.62 0.32 0.72 -3.81 1.68 -0.32 -0.72z"/>
   <path class="fil17" d="M201.91 353.05c-0.69,-1.26 -1.52,-1.72 -2.38,-1.35 -0.66,0.29 -0.91,1.11 -0.52,2 0.39,0.88 1.04,1.25 1.88,0.88 0.43,-0.19 0.85,-0.68 1.02,-1.53zm-1.53 4.32c0.42,0.21 0.92,0.23 1.35,0.05 0.95,-0.42 1.43,-1.52 0.51,-3.69 -0.19,0.73 -0.65,1.32 -1.21,1.57 -1.16,0.51 -2.22,0.15 -2.83,-1.24 -0.57,-1.29 -0.05,-2.57 1.03,-3.05 1.33,-0.58 2.8,0.06 3.76,2.22 1.19,2.71 0.43,4.3 -0.92,4.89 -0.71,0.32 -1.39,0.26 -1.94,0.02l0.25 -0.77z"/>
   <path class="fil5" d="M300.11 320.09l-38.62 17.04c-1.8,0.8 -3.94,-0.03 -4.74,-1.83l-3.66 -8.31c-0.8,-1.8 0.03,-3.94 1.84,-4.74l38.61 -17.04c1.81,-0.8 3.94,0.03 4.74,1.83l3.66 8.3c0.8,1.82 -0.02,3.95 -1.83,4.75z"/>
   <path class="fil5" d="M176.81 369.78l-6.32 2.79c-0.58,0.26 -1.25,0 -1.5,-0.57l-2.62 -5.91c-0.25,-0.57 0.01,-1.25 0.58,-1.5l6.33 -2.8c0.58,-0.25 1.25,0.02 1.5,0.59l2.61 5.9c0.25,0.57 0,1.25 -0.58,1.5z"/>
   <path class="fil11" d="M124.95 528.52c0,0 33.96,-32.91 41.43,-57.74 7.47,-24.83 -2.83,-67.26 1.72,-85.73 2.63,-10.66 11.69,-30.33 13.2,-47.25 1.47,-16.5 -3.66,-26.35 -11.83,-28.81 -7.63,-2.29 -17.1,4.76 -23.52,18.72 -7.5,16.31 -8.32,34 -11.69,43.15 -7.96,21.6 -34.25,43.85 -45.49,74.57 -11.25,30.71 -11.82,62.64 -4.47,64.85 7.36,2.21 17.28,29.26 40.65,18.24z"/>
   <path class="fil18" d="M163.18 341.58l-3.71 -1.12c-5.84,-1.76 -9.18,-7.97 -7.43,-13.81l3.57 -11.87c1.76,-5.85 7.98,-9.19 13.82,-7.43l3.71 1.12c5.84,1.76 9.18,7.97 7.42,13.81l-3.57 11.87c-1.75,5.84 -7.97,9.19 -13.81,7.43z"/>
   <path class="fil12" d="M144.37 358.77c0,0 5.29,-1.39 11.73,0.9 6.45,2.29 9.42,6.63 9.42,6.63 0,0 -3.14,-2.76 -10.06,-5.22 -6.91,-2.46 -11.09,-2.31 -11.09,-2.31z"/>
   <path class="fil12" d="M143.16 362.16c0,0 5.3,-1.4 11.74,0.89 6.44,2.29 9.42,6.63 9.42,6.63 0,0 -3.15,-2.76 -10.06,-5.22 -6.91,-2.46 -11.1,-2.3 -11.1,-2.3z"/>
   <path class="fil12" d="M166.38 470.78c0.32,-1.05 0.56,-2.16 0.81,-3.27l-0.44 -0.29c0,0 -19.55,37.81 -45.32,47.35 -25.77,9.55 -50.08,-0.46 -53.65,4.4 -3.56,4.86 39.44,20.09 37.75,27.61 -0.48,2.17 -6.79,18.27 -15.51,40.08l17.76 0 20.53 -61.53c8.75,-9 32.04,-34.3 38.07,-54.35z"/>
   <polygon class="fil19" points="920.93,275.8 921.2,269.08 922.76,265.14 923.75,268.4 "/>
   <polygon class="fil20" points="991.46,277.08 991.73,270.48 986.15,276.18 "/>
   <path class="fil6" d="M955.71 296.64c-19.47,-0.47 -34.93,-10.37 -34.51,-27.56 0.41,-17.2 16.53,-30.76 36,-30.29 19.48,0.47 34.93,14.78 34.52,31.97 -0.41,17.2 -16.53,26.34 -36.01,25.88z"/>
   <path class="fil6" d="M955.45 307.77c-19.48,-0.47 -34.93,-14.78 -34.52,-31.97 0.41,-17.2 16.53,-30.76 36.01,-30.29 19.47,0.47 34.92,14.78 34.51,31.97 -0.41,17.2 -16.53,30.76 -36,30.29z"/>
   <path class="fil21" d="M931.58 254.21c-6.4,5.47 -10.45,13.08 -10.65,21.59 -0.41,17.19 15.04,31.5 34.52,31.97 9.63,0.23 18.44,-2.98 24.94,-8.35l-48.81 -45.21z"/>
   <path class="fil22" d="M955.48 306.38c-18.6,-0.44 -33.37,-14.12 -32.98,-30.55 0.4,-16.42 15.8,-29.38 34.4,-28.93 18.61,0.45 33.37,14.12 32.98,30.55 -0.39,16.42 -15.79,29.38 -34.4,28.93z"/>
   <path class="fil22" d="M955.62 300.52c-14.94,-0.36 -26.79,-11.34 -26.47,-24.53 0.31,-13.18 12.68,-23.58 27.61,-23.23 14.94,0.36 26.79,11.34 26.48,24.53 -0.32,13.18 -12.68,23.58 -27.62,23.23z"/>
   <path class="fil6" d="M983.24 277.29c0.01,-0.55 -0.01,-1.09 -0.03,-1.63 -1.25,12.41 -13.2,21.95 -27.51,21.61 -14.32,-0.35 -25.8,-10.45 -26.44,-22.9 -0.06,0.54 -0.1,1.08 -0.11,1.62 -0.32,13.19 11.53,24.17 26.47,24.53 14.94,0.35 27.3,-10.05 27.62,-23.23z"/>
   <path class="fil6" d="M961.38 278.65l-5.55 -5.14c-5.34,1.22 -15.29,3.48 -23.25,5.35 1.98,5.95 6.8,10.86 13.1,13.47l15.7 -13.68z"/>
   <path class="fil6" d="M952.65 294.15c0.88,0.1 1.78,0.17 2.69,0.2 6.53,0.15 12.5,-1.99 16.95,-5.59l-9.05 -8.39 -10.59 13.78z"/>
   <path class="fil6" d="M949.88 268l-10.45 -9.68c-3.51,3.07 -6.65,6.46 -7.5,10.98l17.95 -1.3z"/>
   <path class="fil21" d="M955.35 255.62c14.93,0.36 26.79,11.34 26.47,24.52 -0.06,2.67 -0.63,5.23 -1.6,7.61 1.84,-3.14 2.93,-6.68 3.02,-10.46 0.31,-13.19 -11.54,-24.17 -26.48,-24.53 -11.91,-0.28 -22.17,6.28 -26.01,15.63 4.6,-7.8 13.94,-13.03 24.6,-12.77z"/>
   <path class="fil21" d="M921.2 269.08c-0.06,2.55 -0.3,4.41 0.3,6.8 0.78,-2.52 2.46,-10.07 2.46,-10.07l2.68 -5.99 2.24 -1.85 3.79 -2.75 0.31 -8.65c-7.05,5.51 -11.57,13.51 -11.78,22.51z"/>
   <path class="fil21" d="M989.45 268.19l0.14 -1.77c0.01,-0.25 0.21,-0.45 0.44,-0.45l0.14 0c0.24,0.01 0.42,0.22 0.42,0.48l-0.15 1.77c-0.01,0.25 -0.2,0.45 -0.44,0.45l-0.13 -0.01c-0.24,0 -0.43,-0.21 -0.42,-0.47z"/>
   <path class="fil21" d="M986.34 261.4l0.19 -3.18c0,-0.29 0.23,-0.52 0.5,-0.51l0.31 0.01c0.27,0 0.49,0.24 0.48,0.53l-0.18 3.19c-0.01,0.28 -0.24,0.51 -0.51,0.51l-0.31 -0.01c-0.27,-0.01 -0.48,-0.25 -0.48,-0.54z"/>
   <path class="fil21" d="M982.05 255.48l0.18 -3.08c0.01,-0.33 0.26,-0.59 0.57,-0.58l0.54 0.01c0.31,0.01 0.55,0.28 0.54,0.61l-0.18 3.08c0,0.33 -0.26,0.59 -0.57,0.58l-0.54 -0.01c-0.31,-0.01 -0.55,-0.28 -0.54,-0.61z"/>
   <path class="fil21" d="M975.62 250.7l0.2 -3.74c0,-0.33 0.26,-0.59 0.57,-0.58l0.54 0.01c0.3,0.01 0.54,0.28 0.54,0.61l-0.2 3.74c-0.01,0.33 -0.26,0.59 -0.57,0.58l-0.54 -0.01c-0.31,-0.01 -0.55,-0.28 -0.54,-0.61z"/>
   <path class="fil21" d="M969.15 247.56l0.21 -4.31c0.01,-0.33 0.26,-0.59 0.57,-0.58l0.54 0.02c0.31,0 0.55,0.27 0.54,0.6l-0.21 4.31c-0.01,0.33 -0.26,0.59 -0.57,0.58l-0.54 -0.01c-0.3,-0.01 -0.55,-0.28 -0.54,-0.61z"/>
   <path class="fil21" d="M962.65 245.65l0.21 -4.15c0.01,-0.32 0.26,-0.58 0.57,-0.58l0.54 0.02c0.3,0 0.55,0.28 0.54,0.6l-0.21 4.15c-0.01,0.32 -0.26,0.58 -0.57,0.57l-0.54 -0.01c-0.3,0 -0.55,-0.27 -0.54,-0.6z"/>
   <path class="fil21" d="M956.12 244.99l0.21 -4.21c0.01,-0.32 0.26,-0.58 0.57,-0.57l0.54 0.01c0.31,0.01 0.55,0.28 0.54,0.61l-0.21 4.2c0,0.33 -0.26,0.59 -0.56,0.58l-0.54 -0.01c-0.31,-0.01 -0.55,-0.28 -0.55,-0.61z"/>
   <path class="fil21" d="M949.58 245.13l0.2 -3.94c0,-0.33 0.26,-0.59 0.57,-0.58l0.54 0.01c0.3,0.01 0.54,0.28 0.54,0.61l-0.2 3.94c-0.01,0.33 -0.27,0.59 -0.57,0.58l-0.54 -0.01c-0.31,-0.01 -0.55,-0.28 -0.54,-0.61z"/>
   <path class="fil21" d="M943 246.57l0.19 -3.82c0.01,-0.33 0.27,-0.59 0.57,-0.58l0.54 0.01c0.31,0.01 0.55,0.28 0.54,0.61l-0.19 3.81c-0.01,0.33 -0.26,0.59 -0.57,0.58l-0.54 -0.01c-0.31,-0.01 -0.55,-0.28 -0.54,-0.6z"/>
   <path class="fil21" d="M936.38 249.78l0.2 -4.13c0.01,-0.33 0.26,-0.59 0.57,-0.58l0.54 0.01c0.31,0.01 0.55,0.28 0.54,0.61l-0.2 4.13c-0.01,0.33 -0.27,0.59 -0.57,0.58l-0.54 -0.02c-0.31,0 -0.55,-0.27 -0.54,-0.6z"/>
   <path class="fil23" d="M1027.75 544.83c-0.38,0 -0.78,-0.09 -1.09,-0.27l-24.71 -14.36c-0.27,-0.15 -0.42,-0.35 -0.45,-0.55l-0.01 0.01 0 -0.06 0.03 -7.61 0.02 -6.37c0.02,0.2 0.18,0.41 0.47,0.58l24.7 14.35c0.31,0.18 0.72,0.27 1.1,0.27 0.31,0 0.61,-0.06 0.83,-0.19l151.58 -86.97c0.19,-0.11 0.3,-0.26 0.32,-0.41l-0.05 13.91 -0.01 0c0.02,0.19 -0.09,0.37 -0.32,0.51l-151.58 86.97c-0.22,0.13 -0.52,0.19 -0.83,0.19z"/>
   <path class="fil24" d="M1027.81 530.82c-0.38,0 -0.79,-0.09 -1.1,-0.27l-24.7 -14.35c-0.29,-0.17 -0.45,-0.38 -0.47,-0.58 -0.02,-0.2 0.08,-0.39 0.33,-0.54l22.92 -13.15 7.11 -4.07 -7.11 4.07 0 0c1.19,3.1 2.19,6.23 2.99,9.34l-12.01 6.89c-0.15,0.09 -0.23,0.21 -0.23,0.33 0,0.15 0.11,0.31 0.32,0.43l6.21 3.61c0.22,0.12 0.49,0.19 0.75,0.19 0.21,0 0.42,-0.04 0.57,-0.13l11.21 -6.43c0,0 0,0 0,0l118.91 -68.23c0,0 0,0 0,0l12.81 -7.35c0.15,-0.09 0.23,-0.21 0.23,-0.33 0,-0.15 -0.11,-0.31 -0.33,-0.43l-6.2 -3.61c-0.01,0 -0.01,0 -0.01,-0.01 -0.01,0 -0.02,-0.01 -0.03,-0.01 -0.01,-0.01 -0.02,-0.01 -0.02,-0.01 -0.01,-0.01 -0.01,-0.01 -0.02,-0.01 -0.19,-0.1 -0.43,-0.14 -0.65,-0.15 -0.01,0 -0.01,0 -0.02,0 -0.01,0 -0.01,0 -0.01,0 -0.2,0 -0.39,0.04 -0.53,0.12 -0.01,0 -0.02,0.01 -0.03,0.01l-5.8 3.33c-0.45,-3.26 -1.16,-6.56 -2.1,-9.85l2.65 -1.52c0.22,-0.13 0.52,-0.19 0.83,-0.19 0.38,0 0.78,0.09 1.1,0.27l24.7 14.35c0.35,0.21 0.51,0.47 0.46,0.71 -0.02,0.15 -0.13,0.3 -0.32,0.41l-151.58 86.97c-0.22,0.13 -0.52,0.19 -0.83,0.19zm4.09 -32.96l0 0zm-16.04 21.06l0 0zm18.74 -2.76l0 0zm125.36 -79.98l0 0zm-0.69 -0.16l0 0zm-0.57 0.13l0 0z"/>
   <path class="fil25" d="M1027.78 511.27c-0.8,-3.12 -1.8,-6.24 -2.99,-9.34l7.11 -4.07c0.93,3.29 1.64,6.59 2.1,9.84l-6.22 3.57z"/>
   <path class="fil21" d="M1158.7 436.15l-142.93 82.01c-0.34,0.2 -0.3,0.54 0.09,0.76l6.21 3.61c0.39,0.23 0.98,0.25 1.32,0.06l142.93 -82.01c0.34,-0.2 0.29,-0.54 -0.1,-0.76l-6.2 -3.61c-0.39,-0.23 -0.98,-0.25 -1.32,-0.06z"/>
   <path class="fil22" d="M1166.32 440.58l-2.91 1.66 -3.35 -1.94c-0.39,-0.23 -0.98,-0.25 -1.32,-0.06l-140.02 80.34 -2.86 -1.66c-0.39,-0.22 -0.43,-0.56 -0.09,-0.76l142.93 -82.01c0.34,-0.19 0.93,-0.17 1.32,0.06l6.2 3.61c0.39,0.22 0.44,0.56 0.1,0.76z"/>
   <g style="clip-path:url(#id0)">
    <image x="1033.26" y="514.73" width="2.5" height="2.5" xlink:href="schet_Images\schet_ImgID1.png"/>
   </g>
   <path class="fil26" d="M1034.6 516.16l0 0 0 -0.01 0 0 0 0 0 0 0 0 0 -0.01 0 0 0 0 0 0 0 -0.01 0 0 0 0 0 0 0 0 0 -0.01 0 0 0 0 0 0 0 -0.01 0 0 0 0 0 0 0 0 0 0 0 -0.01 0 0 0 0 0 0 0 -0.01 0 0 0 0 0 0.01 0 0 0 0 0 0 0 0.01 0 0 0 0 0 0 0 0 0 0 0 0.01 0 0 0 0 0 0 0 0.01 0 0 0 0 0 0 0 0 0 0.01 0 0 0 0 0 0 0 0.01 0 0 0 0 0 0 0 0 0 0.01 0 0m0 -0.09c0,-0.01 0,-0.01 0,-0.02 0,0.01 0,0.01 0,0.02z"/>
   <path class="fil27" d="M805.35 322.64c-4.38,-9.08 -6.97,-18.82 -6.95,-27.74l118.91 -68.23c-0.06,20.74 6.72,27.99 10.32,34.03 5.47,9.21 3.18,7.12 12.9,16.31 3.16,3 6.53,5.58 10.03,7.61l2.38 1.39c7.01,3.42 3.87,2.41 11.86,6.88l3.42 2 2.96 1.71 7.34 4.26c45.29,26.32 90.58,52.63 135.86,78.95 16.59,9.61 30.76,29.69 36.39,49.82 -133.15,76.47 -89.1,51.12 -118.89,68.2 -5.7,-20.09 -19.78,-40.18 -36.39,-49.77 -94.36,-54.84 -126.9,-73.72 -163.84,-95.21 -11.27,-6.71 -20.86,-18.9 -26.31,-30.2l0.01 -0.01z"/>
   <path class="fil28" d="M920.97 274.91l0.23 -5.83c-0.04,1.53 -0.14,2.81 -0.08,4.11 -0.07,0.57 -0.12,1.14 -0.15,1.72zm0.23 -5.83l0 0z"/>
   <path class="fil29" d="M921.43 266.05c0.01,0 0,0 0.01,0 0,0 0,0 -0.01,0zm0.01 -0.05c0,0 0,0 0,0 0,0 0,0 0,0zm0.01 -0.05c0,-0.01 0,-0.01 0,-0.02 0,0.01 0,0.01 0,0.02zm0 -0.05c0.51,-3.61 1.71,-7.02 3.48,-10.12 0,0 0,0 0,0 -1.77,3.11 -2.97,6.51 -3.48,10.12z"/>
   <path class="fil30" d="M956.42 307.78l0 0 0 0 0.31 0 0.08 0 0.1 0 0.22 -0.01 0.07 0 0.15 0 0.24 -0.01 0.07 0 0.3 -0.01 0.02 0 0.29 -0.01 0.1 -0.01 0.03 0 0.33 -0.02 0.05 0c7.45,-0.44 14.27,-2.93 19.74,-6.85l0 0c-1.27,0.91 -2.61,1.74 -4.01,2.49 -4.65,2.48 -10.01,4.03 -15.73,4.36l-0.05 0 -0.33 0.02 -0.03 0 -0.1 0.01 -0.29 0.01 -0.02 0 -0.3 0.01 -0.07 0 -0.24 0.01 -0.15 0 -0.07 0 -0.22 0.01 -0.1 0 -0.08 0 -0.31 0zm0 0l-0.01 0 0 0 -0.02 0 0 0 -0.01 0 0 0 -0.01 0 -0.01 0 -0.01 0 0 0 -0.01 0 0 0 -0.02 0 0 0 -0.01 0 0 0 -0.02 0 0 0 -0.01 0 0 0 -0.01 0 0 0 -0.02 0 0 0 -0.01 0 0 0 -0.02 0 0 0 -0.01 0 0 0 -0.02 0 0 0 -0.01 0 -0.01 0 -0.01 0 -0.01 0 0 0 -0.01 0 -0.02 0 0 0 -0.01 0 -0.02 0 0 0 -0.01 0 0 0 -0.01 0 -0.02 0 0 0 -0.01 0 -0.02 0 -0.01 0 0 0 -0.02 0 -0.01 0 0 0 -0.01 0 -0.02 0 -0.01 0 0 0 -0.02 0 -0.01 0 0 0 -0.02 0 0 0 -0.01 0 -0.01 0 0 0 -0.02 0 0 0 -0.01 0 -0.02 0 0 0 -0.01 0 0 0 -0.01 0 -0.01 0 -0.01 0 0 0 -0.01 0 0 0 -0.02 0 0 0 -0.01 0 0 0 -0.02 0 -0.01 -0.01 0 0 -0.02 0 0 0 -0.01 0 -0.01 0 0 0 -0.02 0 0 0 -0.01 0 -0.02 0 0 0 -0.01 0 0 0 -0.02 0 -0.01 0 0 0 -0.01 0 0 0 -0.02 0 -0.01 0 -0.02 0 -0.01 0 0.01 0 0.02 0 0.01 0 0.02 0 0 0 0.01 0 0 0 0.01 0 0.02 0 0 0 0.01 0 0 0 0.02 0 0.01 0 0 0 0.02 0 0 0 0.01 0 0.01 0 0 0 0.02 0 0 0 0.01 0.01 0.02 0 0 0 0.01 0 0 0 0.02 0 0 0 0.01 0 0 0 0.01 0 0.01 0 0.01 0 0 0 0.01 0 0 0 0.02 0 0.01 0 0 0 0.02 0 0 0 0.01 0 0.01 0 0 0 0.02 0 0 0 0.01 0 0.02 0 0 0 0.01 0 0.02 0 0.01 0 0 0 0.01 0 0.02 0 0 0 0.01 0 0.02 0 0.01 0 0 0 0.02 0 0.01 0 0 0 0.01 0 0 0 0.02 0 0.01 0 0 0 0.02 0 0.01 0 0 0 0.01 0 0.01 0 0.01 0 0.01 0 0 0 0.02 0 0 0 0.01 0 0 0 0.02 0 0 0 0.01 0 0 0 0.02 0 0 0 0.01 0 0 0 0.01 0 0 0 0.02 0 0 0 0.01 0 0 0 0.02 0 0 0 0.01 0 0 0 0.01 0 0.01 0 0.01 0 0 0 0.01 0 0 0 0.02 0 0 0 0.01 0zm-35.5 -31.33c0,-0.22 0,-0.44 0.01,-0.65l0 -0.02 0 -0.01 0 -0.02 0 0 0 -0.01 0 -0.01 0 -0.02 0 -0.01 0 -0.01 0 -0.02 0 0 0 -0.01 0 -0.02 0 -0.01 0 0 0.01 -0.01 0 -0.02 0 -0.01 0 0 0 -0.02 0 -0.01 0 -0.01 0 0 0 -0.02 0 -0.01 0 -0.01 0 0 0 -0.02 0 -0.01 0 -0.01 0 -0.01 0 -0.01 0 -0.01 0 -0.02 0 0 0 -0.01 0 -0.01 0 -0.02 0 0 0 -0.01 0 -0.02 0 -0.01 0 0 0 -0.01 0.01 -0.02 0 -0.01 0 0 0 -0.01 0 -0.02 0 -0.01 0 0 0 -0.01 0 -0.02 0 -0.01 0 0 0 -0.02 0 -0.01 0 -0.01 0 0 0 -0.02 0 -0.01 0 -0.01 0 0 0 -0.02 0 -0.01 0.01 -0.01 0 -0.01 0 -0.01 0 -0.01 0 -0.01 0 -0.01 0 -0.01 0 -0.01 0 -0.02 0 0 0 -0.01 0 -0.02 0 -0.05 0 0 0.01 -0.02 -0.01 0.02 0 0 0 0.05 0 0.02 0 0.01 0 0 0 0.02 0 0.01 0 0.01 0 0.01 0 0.01 0 0.01 0 0.01 0 0.01 -0.01 0.01 0 0.01 0 0.02 0 0 0 0.01 0 0.01 0 0.02 0 0 0 0.01 0 0.01 0 0.02 0 0 0 0.01 0 0.02 0 0.01 0 0 0 0.01 0 0.02 0 0.01 0 0 0 0.01 -0.01 0.02 0 0.01 0 0 0 0.01 0 0.02 0 0.01 0 0 0 0.02 0 0.01 0 0.01 0 0 0 0.02 0 0.01 0 0.01 0 0.01 0 0.01 0 0.01 0 0.02 0 0 0 0.01 0 0.01 0 0.02 0 0 0 0.01 0 0.01 0 0.02 0 0 0 0.01 0 0.02 -0.01 0.01 0 0 0 0.01 0 0.02 0 0.01 0 0 0 0.02 0 0.01 0 0.01 0 0.02 0 0.01 0 0.01 0 0 0 0.02 0 0.01 0 0.02 0 0c-0.01,0.21 -0.01,0.43 -0.01,0.65zm0.05 -1.54l0 -0.02 0 0 0 -0.03 0 -0.01 0 -0.02 0 -0.02 0 0 0 -0.03 0 -0.01 0 -0.02 0.01 -0.02 0 -0.01 0 -0.02 0 -0.01 0 -0.02 0 -0.02 0 -0.01 0 -0.02 0 -0.01 0.01 -0.02 0 -0.02 0 -0.01 0 -0.03 0 0 0 -0.02 0 -0.03 0 0 0 -0.03 0 -0.01 0.01 -0.01 0 -0.03 0 0 0 -0.03 0 -0.01 0 -0.01 0 -0.03 0 0 0.01 -0.03 0 -0.01 0 -0.02 0 -0.02 0 0 0 -0.03 0 -0.01 0 -0.02 0.01 -0.02 0 0 0 -0.03 0 -0.01 0 -0.02 0 -0.02 0 -0.01 0.01 -0.02 0 -0.01 0 -0.02 0 -0.02 0 -0.01 0 -0.02 0 -0.01 0.01 -0.02 0 -0.02 0 -0.01 0 -0.02 0 -0.01 0 -0.02 0.01 -0.03 0 0 0 -0.02 0 -0.02 0 -0.01 0 -0.03 0 0 0.01 -0.03 0 -0.01 0 -0.01 0 -0.03 0 0 0 -0.03 0.01 -0.01 0 -0.01 0 -0.03 0 0 0 -0.03 0 -0.01 0.01 -0.01 0 -0.03 0 0 0 -0.03 0 -0.01 0 -0.01 0.01 -0.03 0 0 0 -0.03 0 -0.01 0 -0.01 0.01 -0.03 0 0 0 -0.03 0 -0.01 0 -0.01 0.01 -0.03 0 0 0 -0.03 0 -0.01 0 -0.02 0.01 -0.02 -0.01 0.02 0 0.02 0 0.01 0 0.03 0 0 -0.01 0.03 0 0.01 0 0.01 0 0.03 0 0 -0.01 0.03 0 0.01 0 0.01 0 0.03 0 0 -0.01 0.03 0 0.01 0 0.01 0 0.03 0 0 0 0.03 -0.01 0.01 0 0.01 0 0.03 0 0 0 0.03 0 0.01 -0.01 0.01 0 0.03 0 0 0 0.03 0 0.01 0 0.01 -0.01 0.03 0 0 0 0.03 0 0.01 0 0.02 0 0.02 0 0 -0.01 0.03 0 0.02 0 0.01 0 0.02 0 0.01 0 0.02 -0.01 0.02 0 0.01 0 0.02 0 0.01 0 0.02 0 0.02 0 0.01 -0.01 0.02 0 0.01 0 0.02 0 0.02 0 0.01 0 0.03 0 0 -0.01 0.02 0 0.02 0 0.01 0 0.03 0 0 0 0.02 0 0.02 0 0.01 -0.01 0.03 0 0 0 0.03 0 0.01 0 0.01 0 0.03 0 0 0 0.03 -0.01 0.01 0 0.01 0 0.03 0 0 0 0.03 0 0.02 0 0 0 0.03 0 0.01 0 0.02 -0.01 0.02 0 0.01 0 0.02 0 0.01 0 0.02 0 0.02 0 0.01 0 0.02 0 0.01 -0.01 0.02 0 0.02 0 0.01 0 0.03 0 0 0 0.02 0 0.02 0 0.01 0 0.03 0 0 0 0.02zm0.15 -1.72l0 0z"/>
   <g style="clip-path:url(#id1)">
    <image x="1030.96" y="428.8" width="123.09" height="70.35" xlink:href="schet_Images\schet_ImgID2.png"/>
   </g>
   <g style="clip-path:url(#id2)">
    <image x="1030.96" y="432.75" width="116.84" height="76.59" xlink:href="schet_Images\schet_ImgID3.png"/>
   </g>
   <path class="fil31" d="M1034.51 512.82c-0.02,-0.41 -0.05,-0.83 -0.09,-1.25l118.91 -68.22c0.12,1.51 0.18,3 0.18,4.48 0,-1.07 -0.05,-2.14 -0.11,-3.22l-118.89 68.21 0 0z"/>
   <path class="fil32" d="M1034.42 511.57c-0.1,-1.28 -0.24,-2.57 -0.42,-3.87l118.9 -68.22c0.19,1.29 0.33,2.59 0.43,3.87l-118.91 68.22z"/>
   <path class="fil33" d="M1153.51 447.87c0,-0.02 0,-0.03 0,-0.04 0,0.01 0,0.02 0,0.04z"/>
   <path class="fil34" d="M1034.6 516.16l0 0 118.91 -68.23 -118.91 68.23zm118.91 -68.23l0 0c0,0 0,0 0,0z"/>
   <g>
    <path class="fil35" d="M1034.6 516.09c0,-0.01 0,-0.01 0,-0.02 0,0.01 0,0.01 0,0.02zm0 -0.04c0,-1.07 -0.04,-2.14 -0.1,-3.22l0.01 -0.01c0.06,1.09 0.09,2.16 0.09,3.23zm118.91 -68.12c0,-0.02 0,-0.04 0,-0.06 0,0.01 0,0.04 0,0.06l0 0 0 0zm0 -0.1c0,0 0,0 0,0 0,0 0,0 0,0z"/>
   </g>
   <g style="clip-path:url(#id3)">
    <image x="1033.26" y="446.88" width="121.61" height="70.35" xlink:href="schet_Images\schet_ImgID4.png"/>
   </g>
   <path class="fil36" d="M1034.6 516.16c0,-0.03 0,-0.05 0,-0.07 0,-0.01 0,-0.01 0,-0.02 0,-0.01 0,-0.01 0,-0.02 0,-1.07 -0.03,-2.14 -0.09,-3.23l118.89 -68.21c0.06,1.08 0.11,2.15 0.11,3.22 0,0 0,0 0,0 0,0.01 0,0.02 0,0.04 0,0.02 0,0.04 0,0.06l-118.91 68.23z"/>
   <g style="clip-path:url(#id4)">
    <image x="952.75" y="408.27" width="9.73" height="6.44" xlink:href="schet_Images\schet_ImgID5.png"/>
   </g>
   <g style="clip-path:url(#id5)">
    <image x="947.33" y="401.86" width="12.03" height="9.73" xlink:href="schet_Images\schet_ImgID6.png"/>
   </g>
   <g style="clip-path:url(#id6)">
    <image x="940.92" y="397.92" width="15.97" height="10.55" xlink:href="schet_Images\schet_ImgID7.png"/>
   </g>
   <g style="clip-path:url(#id7)">
    <image x="959.16" y="393.32" width="5.62" height="4.8" xlink:href="schet_Images\schet_ImgID8.png"/>
   </g>
   <g style="clip-path:url(#id8)">
    <image x="956.04" y="393.97" width="7.92" height="5.78" xlink:href="schet_Images\schet_ImgID9.png"/>
   </g>
   <g style="clip-path:url(#id9)">
    <image x="963.93" y="387.73" width="9.56" height="6.44" xlink:href="schet_Images\schet_ImgID10.png"/>
   </g>
   <g style="clip-path:url(#id10)">
    <image x="953.58" y="378.2" width="26.16" height="15.97" xlink:href="schet_Images\schet_ImgID11.png"/>
   </g>
   <g style="clip-path:url(#id11)">
    <image x="935.5" y="390.03" width="23.03" height="14.49" xlink:href="schet_Images\schet_ImgID12.png"/>
   </g>
   <g style="clip-path:url(#id12)">
    <image x="978.88" y="370.32" width="14.33" height="9.73" xlink:href="schet_Images\schet_ImgID13.png"/>
   </g>
   <g style="clip-path:url(#id13)">
    <image x="929.1" y="390.85" width="15.97" height="10.38" xlink:href="schet_Images\schet_ImgID14.png"/>
   </g>
   <g style="clip-path:url(#id14)">
    <image x="948.81" y="376.72" width="21.55" height="13.5" xlink:href="schet_Images\schet_ImgID15.png"/>
   </g>
   <g style="clip-path:url(#id15)">
    <image x="944.21" y="386.09" width="9.56" height="6.6" xlink:href="schet_Images\schet_ImgID16.png"/>
   </g>
   <g style="clip-path:url(#id16)">
    <image x="969.35" y="370.32" width="11.2" height="8.08" xlink:href="schet_Images\schet_ImgID17.png"/>
   </g>
   <g style="clip-path:url(#id17)">
    <image x="943.39" y="381.49" width="7.26" height="4.8" xlink:href="schet_Images\schet_ImgID18.png"/>
   </g>
   <g style="clip-path:url(#id18)">
    <image x="923.67" y="382.14" width="24.51" height="15.97" xlink:href="schet_Images\schet_ImgID19.png"/>
   </g>
   <g style="clip-path:url(#id19)">
    <image x="949.63" y="369.66" width="20.73" height="13.5" xlink:href="schet_Images\schet_ImgID20.png"/>
   </g>
   <g style="clip-path:url(#id20)">
    <image x="969.35" y="361.77" width="15.97" height="9.56" xlink:href="schet_Images\schet_ImgID21.png"/>
   </g>
   <g style="clip-path:url(#id21)">
    <image x="917.27" y="386.09" width="12.85" height="8.08" xlink:href="schet_Images\schet_ImgID22.png"/>
   </g>
   <g style="clip-path:url(#id22)">
    <image x="937.8" y="378.2" width="5.78" height="4.96" xlink:href="schet_Images\schet_ImgID23.png"/>
   </g>
   <g style="clip-path:url(#id23)">
    <image x="929.1" y="379.02" width="13.67" height="8.9" xlink:href="schet_Images\schet_ImgID24.png"/>
   </g>
   <g style="clip-path:url(#id24)">
    <image x="942.57" y="367.19" width="20.73" height="12.85" xlink:href="schet_Images\schet_ImgID25.png"/>
   </g>
   <g style="clip-path:url(#id25)">
    <image x="932.38" y="374.26" width="7.26" height="4.96" xlink:href="schet_Images\schet_ImgID26.png"/>
   </g>
   <g style="clip-path:url(#id26)">
    <image x="911.85" y="375.08" width="25.33" height="15.97" xlink:href="schet_Images\schet_ImgID27.png"/>
   </g>
   <g style="clip-path:url(#id27)">
    <image x="938.62" y="359.31" width="26.16" height="15.97" xlink:href="schet_Images\schet_ImgID28.png"/>
   </g>
   <g style="clip-path:url(#id28)">
    <image x="963.1" y="353.06" width="12.03" height="8.08" xlink:href="schet_Images\schet_ImgID29.png"/>
   </g>
   <g style="clip-path:url(#id29)">
    <image x="974.11" y="347.48" width="11.2" height="8.08" xlink:href="schet_Images\schet_ImgID30.png"/>
   </g>
   <g style="clip-path:url(#id30)">
    <image x="905.44" y="375.9" width="19.09" height="11.2" xlink:href="schet_Images\schet_ImgID31.png"/>
   </g>
   <g style="clip-path:url(#id31)">
    <image x="1034.9" y="353.72" width="23.69" height="14.49" xlink:href="schet_Images\schet_ImgID32.png"/>
   </g>
   <g style="clip-path:url(#id32)">
    <image x="1032.43" y="349.78" width="19.91" height="12.85" xlink:href="schet_Images\schet_ImgID33.png"/>
   </g>
   <g style="clip-path:url(#id33)">
    <image x="1030.96" y="346.66" width="15.8" height="9.73" xlink:href="schet_Images\schet_ImgID34.png"/>
   </g>
   <g style="clip-path:url(#id34)">
    <image x="1019.78" y="342.71" width="20.73" height="13.67" xlink:href="schet_Images\schet_ImgID35.png"/>
   </g>
   <g style="clip-path:url(#id35)">
    <image x="1019.13" y="339.59" width="15.8" height="10.38" xlink:href="schet_Images\schet_ImgID36.png"/>
   </g>
   <g style="clip-path:url(#id36)">
    <image x="1010.42" y="336.47" width="18.27" height="11.2" xlink:href="schet_Images\schet_ImgID37.png"/>
   </g>
   <g style="clip-path:url(#id37)">
    <image x="1010.42" y="332.53" width="12.68" height="8.9" xlink:href="schet_Images\schet_ImgID38.png"/>
   </g>
   <g style="clip-path:url(#id38)">
    <image x="997.77" y="329.41" width="19.09" height="12.03" xlink:href="schet_Images\schet_ImgID39.png"/>
   </g>
   <g style="clip-path:url(#id39)">
    <image x="992.18" y="326.94" width="18.43" height="10.55" xlink:href="schet_Images\schet_ImgID40.png"/>
   </g>
   <g style="clip-path:url(#id40)">
    <image x="1004.01" y="326.29" width="7.26" height="3.98" xlink:href="schet_Images\schet_ImgID41.png"/>
   </g>
   <g style="clip-path:url(#id41)">
    <image x="926.8" y="370.32" width="7.26" height="4.96" xlink:href="schet_Images\schet_ImgID42.png"/>
   </g>
   <g style="clip-path:url(#id42)">
    <image x="923.67" y="371.14" width="8.08" height="6.44" xlink:href="schet_Images\schet_ImgID43.png"/>
   </g>
   <g style="clip-path:url(#id43)">
    <image x="933.04" y="360.13" width="18.43" height="12.03" xlink:href="schet_Images\schet_ImgID44.png"/>
   </g>
   <g style="clip-path:url(#id44)">
    <image x="907.9" y="334.17" width="26.98" height="16.63" xlink:href="schet_Images\schet_ImgID45.png"/>
   </g>
   <g style="clip-path:url(#id45)">
    <image x="936.32" y="325.46" width="13.5" height="8.74" xlink:href="schet_Images\schet_ImgID46.png"/>
   </g>
   <g style="clip-path:url(#id46)">
    <image x="970.17" y="395.62" width="15.15" height="9.56" xlink:href="schet_Images\schet_ImgID47.png"/>
   </g>
   <g style="clip-path:url(#id47)">
    <image x="957.52" y="401.2" width="17.61" height="11.2" xlink:href="schet_Images\schet_ImgID48.png"/>
   </g>
   <g style="clip-path:url(#id48)">
    <image x="984.3" y="387.73" width="14.49" height="9.56" xlink:href="schet_Images\schet_ImgID49.png"/>
   </g>
   <g style="clip-path:url(#id49)">
    <image x="997.77" y="381.49" width="12.03" height="7.92" xlink:href="schet_Images\schet_ImgID50.png"/>
   </g>
   <g style="clip-path:url(#id50)">
    <image x="956.04" y="398.74" width="11.2" height="8.9" xlink:href="schet_Images\schet_ImgID51.png"/>
   </g>
   <g style="clip-path:url(#id51)">
    <image x="966.23" y="386.09" width="23.03" height="14.49" xlink:href="schet_Images\schet_ImgID52.png"/>
   </g>
   <g style="clip-path:url(#id52)">
    <image x="988.24" y="380.67" width="11.2" height="7.26" xlink:href="schet_Images\schet_ImgID53.png"/>
   </g>
   <g style="clip-path:url(#id53)">
    <image x="998.59" y="374.26" width="11.2" height="8.08" xlink:href="schet_Images\schet_ImgID54.png"/>
   </g>
   <g style="clip-path:url(#id54)">
    <image x="961.46" y="394.79" width="3.32" height="3.32" xlink:href="schet_Images\schet_ImgID55.png"/>
   </g>
   <g style="clip-path:url(#id55)">
    <image x="961.46" y="395.62" width="2.5" height="2.5" xlink:href="schet_Images\schet_ImgID56.png"/>
   </g>
   <g style="clip-path:url(#id56)">
    <image x="965.4" y="387.73" width="10.38" height="7.26" xlink:href="schet_Images\schet_ImgID57.png"/>
   </g>
   <path class="fil20" d="M1078.37 344l0.34 -8.49c0,0 -7.18,7.16 -7.18,7.34 -0.01,0.17 6.84,1.15 6.84,1.15z"/>
   <path class="fil6" d="M1032.34 369.18c-25.07,-0.6 -44.96,-13.35 -44.43,-35.48 0.53,-22.14 21.28,-39.59 46.35,-38.99 25.08,0.6 44.97,19.03 44.44,41.16 -0.53,22.13 -21.28,33.91 -46.36,33.31z"/>
   <path class="fil6" d="M1032 383.51c-25.07,-0.6 -44.97,-19.03 -44.44,-41.16 0.53,-22.14 21.29,-39.59 46.36,-38.99 25.07,0.6 44.97,19.03 44.44,41.16 -0.53,22.14 -21.29,39.59 -46.36,38.99z"/>
   <path class="fil21" d="M1001.28 314.56c-8.24,7.04 -13.45,16.84 -13.72,27.79 -0.53,22.13 19.37,40.56 44.44,41.16 12.4,0.3 23.74,-3.83 32.11,-10.75l-62.83 -58.2z"/>
   <path class="fil22" d="M1032.04 381.73c-23.95,-0.58 -42.96,-18.19 -42.45,-39.33 0.5,-21.15 20.33,-37.83 44.29,-37.26 23.95,0.58 42.96,18.19 42.45,39.33 -0.5,21.15 -20.33,37.83 -44.29,37.26z"/>
   <path class="fil22" d="M1032.22 374.17c-19.22,-0.46 -34.48,-14.59 -34.08,-31.57 0.41,-16.97 16.33,-30.36 35.56,-29.9 19.23,0.46 34.48,14.59 34.08,31.57 -0.41,16.98 -16.33,30.36 -35.56,29.9z"/>
   <path class="fil6" d="M1067.78 344.27c0.02,-0.71 0,-1.4 -0.04,-2.1 -1.6,15.98 -16.98,28.26 -35.41,27.82 -18.44,-0.44 -33.21,-13.45 -34.05,-29.48 -0.07,0.69 -0.12,1.39 -0.14,2.09 -0.4,16.98 14.86,31.11 34.08,31.57 19.23,0.46 35.15,-12.92 35.56,-29.9z"/>
   <path class="fil6" d="M1039.64 346.03l-7.14 -6.62c-6.88,1.56 -19.7,4.48 -29.93,6.89 2.54,7.66 8.75,13.98 16.86,17.33l20.21 -17.6z"/>
   <path class="fil6" d="M1028.4 365.97c1.14,0.14 2.29,0.23 3.46,0.26 8.41,0.2 16.1,-2.56 21.83,-7.19l-11.66 -10.8 -13.63 17.73z"/>
   <path class="fil6" d="M1024.84 332.31l-13.45 -12.46c-4.53,3.96 -8.57,8.31 -9.67,14.14l23.12 -1.68z"/>
   <path class="fil21" d="M1031.87 316.37c19.23,0.46 34.49,14.6 34.09,31.58 -0.09,3.44 -0.81,6.72 -2.07,9.78 2.38,-4.03 3.77,-8.6 3.89,-13.46 0.4,-16.98 -14.85,-31.11 -34.08,-31.57 -15.34,-0.37 -28.56,8.07 -33.49,20.11 5.92,-10.04 17.94,-16.77 31.66,-16.44z"/>
   <path class="fil21" d="M988.02 341.14c0.07,0.43 0.16,0.87 0.28,1.32 0.41,-1.36 1.04,-3.86 1.62,-6.3l1.27 -3.34 -0.27 -0.91c0.33,-1.44 0.54,-2.42 0.54,-2.42l3.46 -7.71 2.88 -2.38 4.87 -3.55 0.41 -11.13c-9.08,7.1 -14.9,17.4 -15.17,28.98l-0.35 8.65 0.46 -1.21z"/>
   <path class="fil21" d="M1075.77 332.56l0.19 -2.28c0.01,-0.33 0.26,-0.59 0.57,-0.58l0.17 0c0.31,0.01 0.55,0.28 0.54,0.61l-0.19 2.28c-0.01,0.33 -0.26,0.59 -0.57,0.58l-0.17 0c-0.31,-0.01 -0.55,-0.28 -0.54,-0.61z"/>
   <path class="fil21" d="M1071.78 323.82l0.23 -4.1c0.01,-0.37 0.3,-0.67 0.65,-0.66l0.4 0.01c0.35,0.01 0.63,0.32 0.62,0.69l-0.23 4.1c-0.01,0.37 -0.31,0.67 -0.66,0.66l-0.39 -0.01c-0.35,-0.01 -0.63,-0.32 -0.62,-0.69z"/>
   <path class="fil21" d="M1066.25 316.2l0.23 -3.98c0.01,-0.42 0.34,-0.75 0.74,-0.74l0.69 0.01c0.4,0.01 0.71,0.36 0.7,0.78l-0.23 3.98c-0.01,0.42 -0.34,0.75 -0.74,0.74l-0.69 -0.01c-0.4,-0.01 -0.71,-0.36 -0.7,-0.78z"/>
   <path class="fil21" d="M1057.97 310.04l0.25 -4.82c0.02,-0.42 0.34,-0.75 0.74,-0.74l0.69 0.01c0.4,0.02 0.71,0.36 0.7,0.78l-0.25 4.82c-0.01,0.43 -0.34,0.76 -0.73,0.75l-0.7 -0.02c-0.4,-0.01 -0.71,-0.36 -0.7,-0.78z"/>
   <path class="fil21" d="M1049.64 306l0.27 -5.55c0.01,-0.42 0.34,-0.76 0.74,-0.75l0.69 0.02c0.4,0.01 0.71,0.36 0.7,0.78l-0.27 5.55c-0.01,0.42 -0.34,0.75 -0.73,0.75l-0.7 -0.02c-0.39,-0.01 -0.7,-0.36 -0.7,-0.78z"/>
   <path class="fil21" d="M1041.28 303.53l0.26 -5.33c0.01,-0.42 0.34,-0.75 0.74,-0.75l0.69 0.02c0.4,0.01 0.71,0.36 0.7,0.78l-0.27 5.33c-0.01,0.43 -0.34,0.76 -0.73,0.75l-0.69 -0.02c-0.4,-0.01 -0.71,-0.35 -0.7,-0.78z"/>
   <path class="fil21" d="M1032.87 302.69l0.27 -5.41c0.01,-0.43 0.34,-0.76 0.73,-0.75l0.7 0.02c0.39,0.01 0.7,0.36 0.69,0.78l-0.26 5.41c-0.01,0.42 -0.34,0.76 -0.74,0.75l-0.69 -0.02c-0.39,-0.01 -0.71,-0.36 -0.7,-0.78z"/>
   <path class="fil21" d="M1024.44 302.87l0.26 -5.07c0.01,-0.43 0.34,-0.76 0.74,-0.75l0.69 0.02c0.39,0.01 0.71,0.36 0.7,0.78l-0.26 5.07c-0.01,0.42 -0.34,0.76 -0.73,0.75l-0.7 -0.02c-0.4,-0.01 -0.71,-0.36 -0.7,-0.78z"/>
   <path class="fil21" d="M1015.97 304.72l0.26 -4.92c0.01,-0.42 0.33,-0.75 0.73,-0.74l0.7 0.01c0.39,0.01 0.7,0.36 0.69,0.78l-0.25 4.92c-0.01,0.42 -0.34,0.75 -0.73,0.74l-0.7 -0.01c-0.39,-0.01 -0.71,-0.36 -0.7,-0.78z"/>
   <path class="fil21" d="M1007.45 308.85l0.26 -5.32c0.01,-0.42 0.34,-0.75 0.74,-0.74l0.69 0.01c0.4,0.01 0.71,0.36 0.7,0.78l-0.26 5.32c-0.01,0.43 -0.34,0.76 -0.74,0.75l-0.7 -0.02c-0.39,0 -0.7,-0.36 -0.69,-0.78z"/>
   <path class="fil20" d="M913.36 459.11l0.3 -7.45c0,0 -6.3,6.29 -6.31,6.44 0,0.16 6.01,1.01 6.01,1.01z"/>
   <path class="fil6" d="M872.95 481.22c-22.01,-0.53 -39.47,-11.72 -39.01,-31.15 0.46,-19.43 18.69,-34.76 40.7,-34.23 22.01,0.52 39.48,16.7 39.01,36.14 -0.46,19.43 -18.68,29.77 -40.7,29.24z"/>
   <path class="fil6" d="M872.65 493.8c-22.01,-0.52 -39.48,-16.7 -39.01,-36.14 0.46,-19.43 18.69,-34.76 40.7,-34.23 22.01,0.53 39.48,16.71 39.01,36.14 -0.46,19.43 -18.69,34.76 -40.7,34.23z"/>
   <path class="fil21" d="M845.68 433.27c-7.23,6.18 -11.81,14.78 -12.04,24.39 -0.47,19.44 17,35.62 39.01,36.14 10.89,0.26 20.85,-3.36 28.19,-9.43l-55.16 -51.1z"/>
   <path class="fil22" d="M872.69 492.23c-21.03,-0.5 -37.72,-15.96 -37.27,-34.52 0.44,-18.57 17.85,-33.21 38.88,-32.71 21.03,0.5 37.72,15.96 37.27,34.53 -0.44,18.56 -17.85,33.21 -38.88,32.7z"/>
   <path class="fil22" d="M872.85 485.6c-16.88,-0.4 -30.28,-12.81 -29.92,-27.71 0.35,-14.91 14.33,-26.66 31.21,-26.26 16.88,0.41 30.28,12.81 29.92,27.72 -0.35,14.9 -14.33,26.66 -31.21,26.25z"/>
   <path class="fil6" d="M904.06 459.35c0.02,-0.62 0,-1.23 -0.03,-1.84 -1.41,14.02 -14.91,24.81 -31.09,24.42 -16.19,-0.39 -29.16,-11.81 -29.89,-25.88 -0.06,0.61 -0.11,1.22 -0.12,1.84 -0.36,14.9 13.04,27.31 29.92,27.71 16.88,0.41 30.86,-11.35 31.21,-26.25z"/>
   <path class="fil6" d="M879.36 460.89l-6.27 -5.8c-6.04,1.36 -17.29,3.93 -26.28,6.04 2.24,6.72 7.68,12.27 14.81,15.22l17.74 -15.46z"/>
   <path class="fil6" d="M869.49 478.41c1,0.11 2.01,0.19 3.04,0.22 7.38,0.18 14.13,-2.24 19.16,-6.31l-10.23 -9.48 -11.97 15.57z"/>
   <path class="fil6" d="M866.37 448.86l-11.82 -10.95c-3.97,3.47 -7.52,7.3 -8.48,12.41l20.3 -1.46z"/>
   <path class="fil21" d="M872.54 434.86c16.88,0.4 30.28,12.81 29.92,27.72 -0.07,3.02 -0.71,5.9 -1.81,8.59 2.09,-3.54 3.31,-7.55 3.41,-11.82 0.36,-14.91 -13.04,-27.31 -29.92,-27.72 -13.46,-0.32 -25.06,7.09 -29.4,17.66 5.2,-8.82 15.76,-14.72 27.8,-14.43z"/>
   <path class="fil21" d="M833.94 450.07c-0.14,4.03 -0.62,9.42 0.34,7.69 0.88,-2.85 2.79,-11.38 2.79,-11.38l3.03 -6.78 2.53 -2.08 4.27 -3.12 0.36 -9.77c-7.97,6.23 -13.07,15.27 -13.32,25.44z"/>
   <path class="fil21" d="M911.08 449.07l0.17 -2c0,-0.29 0.23,-0.52 0.5,-0.51l0.15 0c0.27,0.01 0.48,0.25 0.47,0.54l-0.16 2c-0.01,0.28 -0.24,0.51 -0.51,0.51l-0.15 -0.01c-0.26,0 -0.48,-0.24 -0.47,-0.53z"/>
   <path class="fil21" d="M907.58 441.4l0.2 -3.6c0.01,-0.33 0.26,-0.59 0.57,-0.58l0.35 0.01c0.31,0 0.55,0.27 0.54,0.6l-0.2 3.6c-0.01,0.33 -0.27,0.59 -0.57,0.58l-0.35 -0.01c-0.31,0 -0.55,-0.28 -0.54,-0.6z"/>
   <path class="fil21" d="M902.72 434.7l0.21 -3.49c0,-0.37 0.29,-0.66 0.64,-0.65l0.61 0.02c0.35,0 0.62,0.31 0.61,0.68l-0.2 3.49c-0.01,0.37 -0.3,0.66 -0.65,0.65l-0.6 -0.01c-0.35,-0.01 -0.63,-0.32 -0.62,-0.69z"/>
   <path class="fil21" d="M895.46 429.3l0.21 -4.23c0.01,-0.37 0.3,-0.66 0.65,-0.65l0.61 0.01c0.35,0.01 0.62,0.32 0.61,0.69l-0.22 4.23c-0.01,0.36 -0.29,0.66 -0.64,0.65l-0.61 -0.01c-0.35,-0.01 -0.62,-0.32 -0.61,-0.69z"/>
   <path class="fil21" d="M888.14 425.75l0.24 -4.87c0.01,-0.37 0.3,-0.66 0.64,-0.66l0.61 0.02c0.35,0.01 0.62,0.31 0.62,0.68l-0.24 4.88c-0.01,0.37 -0.3,0.66 -0.64,0.65l-0.61 -0.01c-0.35,-0.01 -0.62,-0.32 -0.62,-0.69z"/>
   <path class="fil21" d="M880.8 423.59l0.23 -4.69c0.01,-0.37 0.3,-0.66 0.64,-0.65l0.61 0.02c0.35,0 0.62,0.31 0.62,0.68l-0.24 4.68c0,0.37 -0.29,0.66 -0.64,0.66l-0.61 -0.02c-0.35,-0.01 -0.62,-0.31 -0.61,-0.68z"/>
   <path class="fil21" d="M873.42 422.85l0.23 -4.76c0.01,-0.37 0.3,-0.66 0.65,-0.65l0.61 0.02c0.34,0 0.62,0.31 0.61,0.68l-0.24 4.75c-0.01,0.37 -0.29,0.67 -0.64,0.66l-0.61 -0.02c-0.35,-0.01 -0.62,-0.31 -0.61,-0.68z"/>
   <path class="fil21" d="M866.02 423l0.22 -4.45c0.01,-0.37 0.3,-0.66 0.65,-0.65l0.61 0.01c0.34,0.01 0.62,0.31 0.61,0.68l-0.23 4.46c0,0.37 -0.29,0.66 -0.64,0.66l-0.61 -0.02c-0.35,-0.01 -0.62,-0.32 -0.61,-0.69z"/>
   <path class="fil21" d="M858.58 424.63l0.22 -4.32c0.01,-0.37 0.3,-0.66 0.65,-0.66l0.61 0.02c0.35,0.01 0.62,0.32 0.61,0.68l-0.22 4.32c-0.01,0.37 -0.3,0.66 -0.65,0.65l-0.61 -0.01c-0.34,-0.01 -0.62,-0.32 -0.61,-0.68z"/>
   <path class="fil21" d="M851.1 428.26l0.23 -4.67c0.01,-0.37 0.3,-0.66 0.64,-0.66l0.61 0.02c0.35,0.01 0.63,0.31 0.61,0.68l-0.23 4.67c-0.01,0.37 -0.29,0.66 -0.64,0.66l-0.61 -0.02c-0.35,-0.01 -0.62,-0.31 -0.61,-0.68z"/>
   <polygon class="fil36" points="953.23,381.71 950.64,380.2 966.35,371.19 968.94,372.69 953.23,381.71 "/>
   <polygon class="fil36" points="969.86,399.51 967.26,398 985.24,387.68 987.84,389.18 969.86,399.51 "/>
   <path class="fil36" d="M961.21 411.3c-0.94,-0.47 -1.71,-1.03 -2.32,-1.66l12.42 -7.13 2.35 1.65 -12.45 7.14 0 0z"/>
   <polygon class="fil36" points="973.66,404.15 971.31,402.51 981.32,396.77 983.92,398.27 973.66,404.15 "/>
   <polygon class="fil36" points="988.03,395.91 985.44,394.41 995.14,388.84 997.73,390.35 988.03,395.91 "/>
   <polygon class="fil36" points="1001.84,387.99 999.25,386.48 1005.84,382.7 1008.43,384.21 1001.84,387.99 "/>
   <polygon class="fil36" points="1002.14,380.98 999.55,379.48 1006.13,375.69 1008.73,377.2 1002.14,380.98 "/>
   <polygon class="fil36" points="991.95,386.83 989.36,385.32 995.95,381.54 998.54,383.04 991.95,386.83 "/>
   <path class="fil37" d="M962.9 396.66l-0.09 -0.07c0.14,-0.14 0.29,-0.28 0.44,-0.43l0.26 0.15 -0.61 0.35 0 0z"/>
   <path class="fil37" d="M962.52 396.88c0.09,-0.09 0.19,-0.19 0.29,-0.29l0.09 0.07 -0.38 0.22 0 0z"/>
   <polygon class="fil36" points="940.18,333.07 937.58,331.57 946.15,326.66 948.74,328.16 940.18,333.07 "/>
   <polygon class="fil36" points="912.09,349.19 909.5,347.69 931.26,335.2 933.85,336.71 912.09,349.19 "/>
   <polygon class="fil36" points="977.59,354.06 975,352.56 981.58,348.78 984.18,350.28 977.59,354.06 "/>
   <polygon class="fil36" points="937.06,370.48 934.47,368.98 947.35,361.58 949.95,363.09 937.06,370.48 "/>
   <polygon class="fil36" points="942.14,374.4 939.55,372.9 960.61,360.81 963.2,362.32 942.14,374.4 "/>
   <polygon class="fil36" points="909.63,386.22 907.04,384.71 920.51,376.99 923.1,378.49 909.63,386.22 "/>
   <polygon class="fil36" points="927.21,376.13 924.62,374.63 928.27,372.53 930.63,374.17 927.21,376.13 "/>
   <polygon class="fil36" points="915.55,389.66 912.96,388.15 933.65,376.28 936.01,377.92 915.55,389.66 "/>
   <polygon class="fil36" points="930.63,374.17 928.27,372.53 930.35,371.34 932.94,372.85 930.63,374.17 "/>
   <polygon class="fil36" points="936.01,377.92 933.65,376.28 935.44,375.26 938.03,376.76 936.01,377.92 "/>
   <polygon class="fil36" points="932.92,386.52 930.33,385.02 939.03,380.03 941.39,381.67 932.92,386.52 "/>
   <polygon class="fil36" points="921.47,393.1 918.88,391.59 926.21,387.38 928.81,388.89 921.47,393.1 "/>
   <polygon class="fil36" points="941.39,381.67 939.03,380.03 940.03,379.46 942.62,380.96 941.39,381.67 "/>
   <polygon class="fil36" points="946.73,378.6 944.14,377.09 959.76,368.13 962.36,369.63 946.73,378.6 "/>
   <polygon class="fil36" points="933.31,399.97 930.72,398.47 941.33,392.38 943.92,393.88 933.31,399.97 "/>
   <polygon class="fil36" points="948.04,391.52 945.45,390.01 949.79,387.52 952.15,389.16 948.04,391.52 "/>
   <polygon class="fil36" points="952.15,389.16 949.79,387.53 966.25,378.08 968.84,379.58 952.15,389.16 "/>
   <polygon class="fil36" points="972.96,377.22 970.37,375.72 976.96,371.94 979.55,373.44 972.96,377.22 "/>
   <polygon class="fil36" points="939.22,403.41 936.63,401.91 955.17,391.27 957.53,392.91 939.22,403.41 "/>
   <polygon class="fil36" points="957.53,392.91 955.17,391.27 975.82,379.42 978.42,380.92 957.53,392.91 "/>
   <polygon class="fil36" points="982.53,378.56 979.94,377.06 989.64,371.49 992.23,373 982.53,378.56 "/>
   <polygon class="fil36" points="945.14,406.85 942.55,405.34 953.17,399.25 955.76,400.76 945.14,406.85 "/>
   <polygon class="fil36" points="966.53,393.32 965.03,392.45 971.62,388.67 972.41,389.13 972.41,389.13 974.21,390.17 967.62,393.95 967.62,393.95 966.53,393.32 966.53,393.32 "/>
   <path class="fil36" d="M951.07 410.29l-2.6 -1.51 9.45 -5.42 0 0 5.23 -3 2.59 1.51 -8.3 4.76 0 0 -0.02 -0.19 0.02 0.19 -6.37 3.66 0 0zm6.33 -4.24c0,0.09 0.01,0.19 0.02,0.29 -0.01,-0.1 -0.02,-0.2 -0.02,-0.29z"/>
   <polygon class="fil36" points="967.31,359.96 964.72,358.45 971.31,354.67 973.9,356.17 967.31,359.96 "/>
   <polygon class="fil36" points="973.05,370.33 970.46,368.83 981.08,362.73 983.67,364.24 973.05,370.33 "/>
   <polygon class="fil36" points="927.39,396.53 924.8,395.03 944.41,383.77 944.41,383.77 946.52,382.56 949.11,384.07 946.77,385.42 946.77,385.42 927.39,396.53 "/>
   <path class="fil36" d="M959.88 398.39l-0.49 -0.28 -0.23 -0.13 -1.87 -1.09 1.87 -1.08 1.39 -0.79 0 0 0 0 0 0 0.36 -0.21 2.34 1.35c-0.15,0.15 -0.3,0.29 -0.44,0.43l-2.93 1.8zm0 0c4.34,-2.66 2.4,-1.37 0,0z"/>
   <path class="fil36" d="M956.98 413.73l-2.59 -1.51 4.5 -2.58c0.61,0.63 1.38,1.19 2.32,1.66l-4.23 2.43 0 0z"/>
  </g>
 </g>
</svg>
