<?xml version="1.0" encoding="UTF-8"?>
<!DOCTYPE svg PUBLIC "-//W3C//DTD SVG 1.1//EN" "http://www.w3.org/Graphics/SVG/1.1/DTD/svg11.dtd">
<!-- Creator: CorelDRAW 2020 (64-Bit) -->
<svg xmlns="http://www.w3.org/2000/svg" xml:space="preserve" width="800px" height="331px" version="1.1" style="shape-rendering:geometricPrecision; text-rendering:geometricPrecision; image-rendering:optimizeQuality; fill-rule:evenodd; clip-rule:evenodd"
viewBox="0 0 22.08 9.14"
 xmlns:xlink="http://www.w3.org/1999/xlink"
 xmlns:xodm="http://www.corel.com/coreldraw/odm/2003">
 <defs>
  <style type="text/css">
   <![CDATA[
    .fil26 {fill:#EEEDEC}
    .fil22 {fill:#E7E5E5}
    .fil27 {fill:#D6D4D2}
    .fil19 {fill:#CDDCEC}
    .fil30 {fill:#798BA7}
    .fil20 {fill:#2B3455}
    .fil29 {fill:#001463}
    .fil21 {fill:#0B2691}
    .fil28 {fill:#2945B3}
    .fil24 {fill:#311649}
    .fil25 {fill:#425DC9}
    .fil23 {fill:#E9AFA3}
    .fil31 {fill:#FAC4B9}
    .fil18 {fill:#FFC6BA}
    .fil13 {fill:#F09392;fill-rule:nonzero}
    .fil4 {fill:#FAFAFA;fill-rule:nonzero}
    .fil5 {fill:#E0E0E0;fill-rule:nonzero}
    .fil12 {fill:#D0D1D1;fill-rule:nonzero}
    .fil33 {fill:#707D97;fill-rule:nonzero}
    .fil16 {fill:#3F5E69;fill-rule:nonzero}
    .fil3 {fill:#354A53;fill-rule:nonzero}
    .fil9 {fill:#00A8A1;fill-rule:nonzero}
    .fil14 {fill:#29383E;fill-rule:nonzero}
    .fil32 {fill:#2A324F;fill-rule:nonzero}
    .fil2 {fill:#030F3F;fill-rule:nonzero}
    .fil10 {fill:#28CAAF;fill-rule:nonzero}
    .fil17 {fill:#311649;fill-rule:nonzero}
    .fil8 {fill:#334BAE;fill-rule:nonzero}
    .fil7 {fill:#425DC9;fill-rule:nonzero}
    .fil11 {fill:#44B194;fill-rule:nonzero}
    .fil1 {fill:#56628E;fill-rule:nonzero}
    .fil0 {fill:#E4EEFF;fill-rule:nonzero}
    .fil15 {fill:#E9AFA3;fill-rule:nonzero}
    .fil6 {fill:#FFC6BA;fill-rule:nonzero}
   ]]>
  </style>
 </defs>
 <g id="Слой_x0020_1">
  <metadata id="CorelCorpID_0Corel-Layer"/>
  <path class="fil0" d="M19.85 7.86l0 1.24 -11.55 0c-2.03,0 -4.72,-1.59 -4.59,-3.87 0.19,-3.31 3.76,-5.13 6.78,-5.22 4.7,-0.15 9.36,2.88 9.36,7.85z"/>
  <g id="_1825550928928">
   <path class="fil1" d="M6.45 6.53l0 0c-0.04,-0.14 -0.22,-0.26 -0.39,-0.21l0 0c-0.02,0 -0.05,0.02 -0.07,0.03 -0.16,0.09 -0.3,0.32 -0.3,0.51 0,0.03 0.01,0.06 0.02,0.09l0 0c0.04,0.14 0.22,0.26 0.39,0.21l0 0c0.02,0 0.04,-0.01 0.07,-0.03 0.16,-0.09 0.29,-0.32 0.29,-0.51 0,-0.03 0,-0.06 -0.01,-0.09z"/>
   <path class="fil2" d="M6.17 7.13c0.16,-0.09 0.29,-0.32 0.29,-0.51 0,-0.18 -0.13,-0.26 -0.29,-0.17 -0.16,0.1 -0.29,0.32 -0.29,0.51 0,0.19 0.13,0.26 0.29,0.17z"/>
   <path class="fil1" d="M6.17 6.66c0.06,-0.03 0.11,-0.01 0.11,0.07 0,0.07 -0.05,0.16 -0.11,0.19 -0.06,0.04 -0.11,0.01 -0.11,-0.06 0,-0.08 0.05,-0.16 0.11,-0.2z"/>
   <path class="fil3" d="M6.21 6.77c0,0.02 -0.02,0.05 -0.04,0.07 -0.01,0 -0.02,0 -0.03,0l0 0c0,-0.01 -0.01,-0.01 -0.01,-0.03 0,-0.02 0.02,-0.05 0.04,-0.06 0.01,-0.01 0.02,-0.01 0.03,-0.01l0 0.01c0.01,0 0.01,0.01 0.01,0.02z"/>
   <path class="fil4" d="M6.83 7.13c0,0.02 -0.02,0.05 -0.04,0.06 -0.01,0.01 -0.01,0.01 -0.02,0.01 0,0 -0.01,0 -0.01,-0.01l-0.62 -0.35 0 0c0,-0.01 -0.01,-0.01 -0.01,-0.03 0,-0.02 0.02,-0.05 0.04,-0.06 0.01,-0.01 0.02,-0.01 0.03,-0.01l0 0.01 0.61 0.35c0.01,0 0.02,0.01 0.02,0.03z"/>
   <path class="fil1" d="M7.43 7.1l0 0c-0.04,-0.15 -0.22,-0.26 -0.39,-0.22l0 0c-0.02,0.01 -0.05,0.02 -0.07,0.04 -0.17,0.09 -0.3,0.32 -0.3,0.5 0,0.04 0.01,0.07 0.02,0.09l0 0c0.04,0.15 0.22,0.26 0.38,0.22l0 0c0.03,-0.01 0.05,-0.02 0.08,-0.03 0.16,-0.1 0.29,-0.32 0.29,-0.51 0,-0.04 0,-0.07 -0.01,-0.09z"/>
   <path class="fil2" d="M7.15 7.7c0.16,-0.1 0.29,-0.32 0.29,-0.51 0,-0.19 -0.13,-0.26 -0.29,-0.17 -0.16,0.09 -0.29,0.32 -0.29,0.51 0,0.18 0.13,0.26 0.29,0.17z"/>
   <path class="fil1" d="M7.15 7.23c0.06,-0.04 0.11,-0.01 0.11,0.06 0,0.07 -0.05,0.16 -0.11,0.2 -0.06,0.03 -0.11,0 -0.11,-0.07 0,-0.07 0.05,-0.16 0.11,-0.19z"/>
   <path class="fil3" d="M7.19 7.33c0,0.03 -0.02,0.06 -0.04,0.07 -0.01,0.01 -0.02,0.01 -0.03,0l0 0c-0.01,0 -0.01,-0.01 -0.01,-0.02 0,-0.03 0.02,-0.06 0.04,-0.07 0.01,0 0.02,0 0.03,0l0 0c0,0 0.01,0.01 0.01,0.02z"/>
   <path class="fil4" d="M7.28 7.39c0,0.02 -0.02,0.05 -0.04,0.06 0,0.01 -0.01,0.01 -0.01,0.01 -0.01,0 -0.01,0 -0.02,0l-0.09 -0.06 0 0c-0.01,0 -0.01,-0.01 -0.01,-0.02 0,-0.03 0.02,-0.06 0.04,-0.07 0.01,0 0.02,0 0.03,0l0 0 0.09 0.05c0.01,0.01 0.01,0.01 0.01,0.03z"/>
   <path class="fil5" d="M7.28 7.39c0,0.02 -0.02,0.05 -0.04,0.06 -0.01,0.01 -0.02,0.01 -0.02,0.01l-0.01 0c0,-0.01 -0.01,-0.02 -0.01,-0.03 0,-0.02 0.02,-0.05 0.04,-0.06 0.01,-0.01 0.02,-0.01 0.03,-0.01l0 0c0.01,0.01 0.01,0.02 0.01,0.03z"/>
   <path class="fil6" d="M5.12 3.52c0.01,0 -0.33,0.19 -0.33,0.19l-0.73 0.11c0,0 -0.53,-0.8 -0.61,-0.93 -0.08,-0.12 -0.18,-0.21 -0.4,-0.21l0.04 0.64c0.01,0.02 0.45,0.57 0.74,0.86 0.1,0.11 0.17,0.13 0.33,0.09 0.41,-0.11 0.9,-0.45 0.94,-0.54 0.06,-0.1 0.02,-0.21 0.02,-0.21z"/>
   <path class="fil1" d="M4.99 3.12l0 0c0.04,-0.15 0.22,-0.27 0.39,-0.22l0 0c0.02,0.01 0.04,0.02 0.07,0.03 0.16,0.1 0.29,0.32 0.29,0.51 0,0.03 0,0.07 -0.01,0.09l0 0c-0.04,0.14 -0.22,0.26 -0.39,0.22l0 0c-0.02,-0.01 -0.05,-0.02 -0.07,-0.04 -0.16,-0.09 -0.3,-0.32 -0.3,-0.5 0,-0.04 0.01,-0.07 0.02,-0.09z"/>
   <path class="fil2" d="M5.27 3.71c-0.16,-0.09 -0.3,-0.32 -0.3,-0.5 0,-0.19 0.14,-0.27 0.3,-0.17 0.16,0.09 0.29,0.32 0.29,0.5 0,0.19 -0.13,0.27 -0.29,0.17z"/>
   <path class="fil1" d="M5.27 3.24c-0.07,-0.03 -0.12,0 -0.12,0.07 0,0.07 0.05,0.16 0.12,0.19 0.06,0.04 0.11,0.01 0.11,-0.06 0,-0.07 -0.05,-0.16 -0.11,-0.2z"/>
   <path class="fil3" d="M5.23 3.35c0,0.03 0.02,0.06 0.04,0.07 0.01,0 0.02,0.01 0.02,0l0.01 0c0,0 0.01,-0.01 0.01,-0.02 0,-0.03 -0.02,-0.06 -0.04,-0.07 -0.01,-0.01 -0.02,-0.01 -0.03,0l0 0c-0.01,0 -0.01,0.01 -0.01,0.02z"/>
   <path class="fil4" d="M4.61 3.71c0,0.02 0.02,0.05 0.04,0.07 0.01,0 0.01,0 0.02,0 0,0 0,0 0.01,0l0.61 -0.36 0.01 0c0,0 0.01,-0.01 0.01,-0.02 0,-0.03 -0.02,-0.06 -0.04,-0.07 -0.01,-0.01 -0.02,-0.01 -0.03,0l0 0 -0.62 0.35c0,0.01 -0.01,0.02 -0.01,0.03z"/>
   <path class="fil1" d="M4.01 3.68l0 0c0.04,-0.14 0.22,-0.26 0.39,-0.21l0 0c0.02,0 0.05,0.01 0.07,0.03 0.16,0.09 0.29,0.32 0.29,0.5 0,0.04 0,0.07 -0.01,0.1l0 0c-0.04,0.14 -0.22,0.26 -0.39,0.21l0 0c-0.02,-0.01 -0.05,-0.02 -0.07,-0.03 -0.16,-0.09 -0.29,-0.32 -0.29,-0.51 0,-0.03 0,-0.06 0.01,-0.09z"/>
   <path class="fil2" d="M4.29 4.28c-0.16,-0.09 -0.29,-0.32 -0.29,-0.51 0,-0.18 0.13,-0.26 0.29,-0.17 0.16,0.1 0.29,0.32 0.29,0.51 0,0.19 -0.13,0.26 -0.29,0.17z"/>
   <path class="fil1" d="M4.29 3.81c-0.06,-0.04 -0.11,-0.01 -0.11,0.06 0,0.08 0.05,0.16 0.11,0.2 0.06,0.04 0.11,0.01 0.11,-0.07 0,-0.07 -0.05,-0.15 -0.11,-0.19z"/>
   <path class="fil3" d="M4.25 3.92c0,0.02 0.02,0.05 0.04,0.06 0.01,0.01 0.02,0.01 0.02,0.01l0.01 0c0,-0.01 0.01,-0.02 0.01,-0.03 0,-0.02 -0.02,-0.05 -0.04,-0.06 -0.01,-0.01 -0.02,-0.01 -0.03,-0.01l0 0c-0.01,0.01 -0.01,0.02 -0.01,0.03z"/>
   <path class="fil4" d="M4.16 3.97c0,0.03 0.01,0.06 0.03,0.07 0.01,0 0.02,0 0.02,0 0.01,0 0.01,0 0.01,0l0.09 -0.05 0.01 0c0,-0.01 0.01,-0.02 0.01,-0.03 0,-0.02 -0.02,-0.05 -0.04,-0.06 -0.01,-0.01 -0.02,-0.01 -0.03,-0.01l0 0 -0.09 0.06c-0.01,0 -0.01,0.01 -0.01,0.02z"/>
   <path class="fil5" d="M4.16 3.97c0,0.03 0.01,0.06 0.03,0.07 0.01,0 0.02,0 0.03,0l0 0c0.01,0 0.01,-0.01 0.01,-0.02 0,-0.03 -0.01,-0.06 -0.04,-0.07 -0.01,-0.01 -0.01,-0.01 -0.02,0l0 0c-0.01,0 -0.01,0.01 -0.01,0.02z"/>
   <path class="fil6" d="M4.91 3.9c0.14,-0.11 0.28,-0.11 0.25,-0.37 -0.02,-0.12 -0.05,-0.13 -0.16,-0.17 -0.05,-0.02 -0.12,-0.03 -0.16,0.01 0,0.01 0,0.01 -0.01,0.02 -0.01,0.01 -0.03,0.01 -0.04,0.01 -0.03,0 -0.05,0.01 -0.07,0.03 -0.01,0.02 -0.02,0.04 -0.03,0.05 -0.01,0.01 -0.03,0.02 -0.04,0.03 -0.02,0.02 -0.04,0.05 -0.04,0.07 0,0.04 0.02,0.06 0.05,0.08l0.07 -0.04c0.03,-0.02 0.09,0.05 0.06,0.09 -0.04,0.06 0.12,0.19 0.12,0.19z"/>
   <path class="fil6" d="M3.27 4.43c0.04,-0.18 0.06,-0.64 0.06,-0.64l-1.33 0.04c0,0 0.06,0.22 0.08,0.29 0.01,0.07 0.02,0.19 0.02,0.19 0,0 0.12,0.24 0.5,0.28 0.38,0.05 0.67,-0.16 0.67,-0.16z"/>
   <path class="fil7" d="M3.33 3.79c0,0.02 -0.01,0.15 -0.01,0.15 -0.17,0.15 -0.71,0.22 -1.28,0.03l-0.12 -0.47c0,0 0.41,-0.18 0.13,-0.78l0.3 -0.02 0.53 -0.02c0.12,0 0.17,0 0.17,0 0.08,0.08 0.23,0.25 0.35,0.48 0.07,0.13 0.16,0.31 -0.07,0.63z"/>
   <path class="fil8" d="M2.58 3.79c-0.24,-0.06 -0.3,-0.2 -0.32,-0.31 0,0 -0.04,0.31 0.3,0.39 0.36,0.08 0.51,-0.21 0.51,-0.21 0,0 -0.2,0.21 -0.49,0.13z"/>
   <path class="fil2" d="M0.55 7.34c-0.07,0.05 -0.23,0.06 -0.37,0 -0.14,-0.07 -0.2,-0.26 -0.17,-0.4 0.03,-0.18 0.12,-0.28 0.14,-0.39 0.02,-0.11 0,-0.25 0.03,-0.35 0.04,-0.09 0.11,-0.14 0.17,-0.16 0.04,-0.02 0.1,-0.01 0.14,0.01l0.04 0.03 0.02 1.26z"/>
   <path class="fil3" d="M0.72 6.66l-0.11 0.33c0,0 0.07,0.24 0.03,0.3 -0.06,0.09 -0.16,0.11 -0.33,0.06 -0.2,-0.06 -0.24,-0.24 -0.24,-0.38 0.02,-0.2 0.2,-0.34 0.18,-0.53 -0.01,-0.1 0,-0.2 0.05,-0.28 0.06,-0.09 0.15,-0.11 0.25,-0.08 0.08,0.03 0.16,0.08 0.23,0.13 0.02,0.01 0.04,0.03 0.05,0.05 0.01,0.01 0.02,0.03 0.03,0.05 0.01,0.04 0.02,0.08 0.01,0.13 0,0.04 -0.03,0.06 -0.05,0.09 -0.04,0.04 -0.07,0.09 -0.1,0.13z"/>
   <path class="fil6" d="M1.19 6.5c0,0 -0.34,-0.21 -0.38,-0.23 -0.03,-0.02 -0.12,-0.04 -0.21,0.16 -0.06,0.14 0.03,0.19 0.03,0.19l0.39 0.24 0.17 -0.36z"/>
   <path class="fil9" d="M0.61 6.99c-0.05,-0.02 -0.15,-0.06 -0.23,-0.05 -0.03,0 -0.05,-0.02 -0.04,-0.05l0 0c0.01,-0.01 0.02,-0.02 0.03,-0.02 0.06,-0.01 0.19,-0.01 0.27,0.06 0.02,0.05 -0.03,0.06 -0.03,0.06z"/>
   <path class="fil9" d="M0.65 6.84c-0.05,-0.03 -0.14,-0.07 -0.23,-0.06 -0.02,0 -0.04,-0.03 -0.03,-0.05l0 0c0,-0.02 0.02,-0.03 0.03,-0.03 0.05,0 0.18,0.01 0.27,0.08 0.02,0.05 -0.04,0.06 -0.04,0.06z"/>
   <path class="fil10" d="M0.61 6.99c-0.04,-0.02 -0.13,-0.05 -0.21,-0.05 -0.01,0 -0.01,0 -0.02,0 0,0 0,0 0,0 -0.02,0 -0.04,-0.02 -0.04,-0.04 0,0 0,0 0,-0.01l0 0c0.01,-0.01 0.02,-0.02 0.03,-0.02 0.01,0 0.03,0 0.05,0 0.06,0 0.15,0.01 0.22,0.06 0.01,0.01 0.01,0.02 0.01,0.02 0,0.03 -0.04,0.04 -0.04,0.04l0 0z"/>
   <path class="fil10" d="M0.65 6.84c-0.04,-0.03 -0.14,-0.06 -0.22,-0.06 0,0 0,0 -0.01,0 0,0 0,0 0,0 -0.02,0 -0.04,-0.02 -0.04,-0.04 0,0 0.01,-0.01 0.01,-0.01l0 0c0,-0.02 0.02,-0.03 0.03,-0.03 0,0 0.01,0 0.01,0 0.06,0 0.18,0.01 0.26,0.08 0,0.01 0,0.02 0,0.02 0,0.03 -0.04,0.04 -0.04,0.04z"/>
   <path class="fil6" d="M4.08 7.38l0.44 -0.18c-0.01,-0.11 -0.04,-0.26 -0.01,-0.56l-0.49 -0.09 0 0.5 0.06 0.33z"/>
   <path class="fil2" d="M5.33 7.76c0.01,0.03 0.01,0.08 -0.01,0.11 -0.01,0.03 -0.17,0.12 -0.4,0.11 -0.22,-0.02 -0.37,-0.11 -0.45,-0.16 -0.09,-0.06 -0.18,-0.07 -0.28,-0.08 -0.11,0 -0.26,-0.06 -0.28,-0.11 -0.03,-0.05 0,-0.14 0,-0.14l1.42 0.27z"/>
   <path class="fil3" d="M4.44 7.07c0,0 0.01,0 0.02,0 0,-0.01 0.01,-0.01 0.02,-0.01 0.02,0.01 0.02,0.02 0.03,0.02 0.03,0.03 0.04,0.06 0.06,0.09 0.04,0.08 0.14,0.14 0.25,0.2 0.07,0.04 0.14,0.07 0.22,0.1 0.07,0.03 0.17,0.06 0.23,0.1 0.09,0.05 0.1,0.2 0,0.26 -0.08,0.05 -0.31,0.1 -0.54,0.04 -0.13,-0.04 -0.27,-0.18 -0.44,-0.19 -0.11,-0.01 -0.31,-0.04 -0.38,-0.12 -0.03,-0.04 0.01,-0.15 0.04,-0.25 0.03,-0.11 0.04,-0.3 0.07,-0.29 0,0 -0.01,0.03 0.01,0.04 0.01,0.02 0.06,0.05 0.07,0.06 0.03,0.02 0.05,0.05 0.06,0.09 0.01,0.01 0.02,0.02 0.03,0.03 0.02,0 0.04,-0.01 0.05,-0.01 0.02,-0.01 0.04,-0.01 0.07,-0.01 -0.01,-0.02 -0.01,-0.04 -0.02,-0.06 0,-0.01 0,-0.02 0,-0.02 0,-0.01 0.01,-0.01 0.02,-0.02 0.04,-0.03 0.08,-0.04 0.13,-0.05z"/>
   <path class="fil9" d="M4.72 7.31c0,0 -0.02,-0.04 -0.08,-0.05 -0.05,-0.01 -0.14,0.02 -0.19,0.07 -0.02,0.02 -0.02,0.05 0.01,0.06 0.01,0.01 0.03,0.01 0.04,0 0.04,-0.03 0.12,-0.09 0.22,-0.08z"/>
   <path class="fil9" d="M4.87 7.39c0,0 -0.03,-0.05 -0.09,-0.04 0,0 -0.13,0 -0.21,0.07 -0.02,0.02 -0.02,0.05 0,0.07 0.02,0 0.04,0 0.05,-0.01 0.03,-0.03 0.11,-0.1 0.25,-0.09z"/>
   <path class="fil9" d="M5.04 7.47c0,0 -0.04,-0.04 -0.1,-0.04 0,0 -0.12,0 -0.2,0.07 -0.02,0.02 -0.02,0.05 0.01,0.07 0.01,0.01 0.03,0 0.04,-0.01 0.04,-0.03 0.1,-0.1 0.25,-0.09z"/>
   <path class="fil10" d="M4.48 7.4c-0.01,0 -0.02,0 -0.02,-0.01 -0.02,0 -0.02,-0.02 -0.02,-0.03 0,-0.01 0,-0.02 0.01,-0.03 0.05,-0.04 0.12,-0.08 0.17,-0.08 0.01,0 0.01,0.01 0.02,0.01 0.06,0.01 0.08,0.05 0.08,0.05 0,0 0,0 0,0 -0.01,0 -0.01,0 -0.02,0 -0.09,0 -0.16,0.05 -0.2,0.08 -0.01,0 -0.01,0.01 -0.02,0.01z"/>
   <path class="fil10" d="M4.59 7.49c0,0 -0.01,0 -0.02,0 -0.01,-0.01 -0.01,-0.02 -0.01,-0.04 0,-0.01 0,-0.02 0.01,-0.03 0.08,-0.07 0.21,-0.07 0.21,-0.07 0,0 0,0 0,0 0.06,0 0.09,0.04 0.09,0.04 -0.01,0 -0.02,0 -0.03,0 -0.12,0 -0.19,0.06 -0.22,0.09 -0.01,0.01 -0.02,0.01 -0.03,0.01z"/>
   <path class="fil10" d="M4.77 7.57c-0.01,0 -0.02,0 -0.02,0 -0.02,-0.01 -0.02,-0.02 -0.02,-0.03 0,-0.02 0,-0.03 0.01,-0.04 0.08,-0.07 0.2,-0.07 0.2,-0.07 0,0 0,0 0,0 0.06,0 0.1,0.04 0.1,0.04 -0.01,0 -0.02,0 -0.03,0 -0.13,0 -0.19,0.06 -0.22,0.09 -0.01,0.01 -0.02,0.01 -0.02,0.01z"/>
   <path class="fil10" d="M4.38 4.88c-0.33,-0.07 -1.13,-0.24 -1.13,-0.24l0.02 -0.21c-0.29,0.15 -0.9,0.11 -1.17,-0.12l-0.05 0.23c0,0 -0.15,0.18 -0.27,0.41 -0.07,0.13 -0.17,0.32 -0.07,0.78 0.07,0.27 0.15,0.98 0.15,0.98l-0.81 -0.3c0,0 -0.07,0.01 -0.13,0.17 -0.04,0.09 -0.05,0.17 -0.01,0.22 0.29,0.23 0.78,0.62 1.26,0.83 0.33,0.13 0.5,-0.15 0.52,-0.25 0.06,-0.39 0.13,-1.63 0.13,-1.63l1.09 -0.04c-0.04,0.21 0.11,1.01 0.11,1.01 0,0 0.26,0.12 0.49,0 0,0 0.15,-0.93 0.16,-1.24 0.02,-0.34 0.03,-0.53 -0.29,-0.6z"/>
   <path class="fil11" d="M3.82 5.71c0.08,-0.32 0.25,-0.35 0.25,-0.35 -0.13,0.1 -0.16,0.3 -0.16,0.35l0 0 -0.09 0z"/>
   <path class="fil11" d="M1.94 7.17c0,0 -0.15,-0.27 -0.16,-0.49l0.08 0.03c0,0 0.02,0.31 0.08,0.46z"/>
   <path class="fil12" d="M2.05 4.54l0 0 0 0c0,0 0,0 0,0zm0 0l0.05 -0.23 0 0 -0.05 0.23z"/>
   <path class="fil13" d="M2.82 4.52c-0.27,0 -0.56,-0.07 -0.72,-0.21l0 0c0.16,0.14 0.45,0.21 0.72,0.21 0.17,0 0.33,-0.03 0.45,-0.09l0 0c-0.12,0.06 -0.28,0.09 -0.45,0.09z"/>
   <path class="fil11" d="M2.81 4.75c-0.04,0 -0.07,0 -0.11,0 -0.47,-0.02 -0.65,-0.21 -0.65,-0.21 0,0 0,0 0,0l0 0 0.05 -0.23 0 0c0.16,0.14 0.45,0.21 0.72,0.21 0.17,0 0.33,-0.03 0.45,-0.09l-0.02 0.21c0,0 -0.07,0.11 -0.44,0.11z"/>
   <path class="fil11" d="M2.82 5.75c0,0 0.01,-0.35 -0.28,-0.61 0,0 0.25,0.11 0.33,0.48 0,0 0.19,-0.08 0.28,-0.34 0,0 -0.03,0.26 -0.18,0.4l0.45 0.05 -0.6 0.02z"/>
   <path class="fil14" d="M2.67 1.04c-0.4,0 -0.72,0.33 -0.72,0.73 0,0.4 0.32,0.73 0.72,0.73 0.4,0 0.73,-0.33 0.73,-0.73 0,-0.4 -0.33,-0.73 -0.73,-0.73z"/>
   <path class="fil14" d="M1.92 1.48c0.02,0 0.05,0 0.07,0.01 0.01,0 0.02,0 0.03,0.01 0,0 0,0.01 0,0.02 0.01,0.04 0.01,0.08 -0.01,0.12 -0.01,0.02 -0.04,0.04 -0.06,0.06 -0.08,0.07 -0.08,0.2 -0.05,0.31 0.03,0.1 0.09,0.19 0.13,0.3 0.04,0.1 0.06,0.22 0,0.32 -0.02,0.04 -0.06,0.07 -0.05,0.12 0,0.05 0.05,0.11 0.07,0.16 0.03,0.06 0.03,0.13 0.03,0.19 -0.01,0.08 -0.04,0.16 -0.09,0.22 -0.08,0.09 -0.2,0.14 -0.32,0.11 -0.02,0 -0.04,-0.01 -0.06,-0.03 -0.04,-0.03 -0.05,-0.07 -0.07,-0.11 -0.06,-0.13 -0.19,-0.22 -0.22,-0.36 -0.05,-0.14 0.02,-0.3 0.11,-0.42 0.04,-0.06 0.08,-0.11 0.1,-0.18 0.03,-0.09 0.01,-0.19 0,-0.28 -0.01,-0.09 0,-0.19 0.03,-0.28 0.02,-0.06 0.05,-0.13 0.1,-0.18 0.07,-0.06 0.16,-0.1 0.26,-0.11z"/>
   <path class="fil6" d="M3.13 1.37c0.08,0.05 0.18,0.25 0.17,0.67 -0.01,0.36 -0.13,0.45 -0.19,0.47 -0.06,0.03 -0.17,0.01 -0.28,-0.01l0 0.22c0,0 0.15,0.17 0.14,0.27 -0.01,0.1 -0.22,0.12 -0.36,0.03 -0.14,-0.1 -0.26,-0.29 -0.26,-0.29l0.01 -0.49c0,0 -0.07,0.06 -0.17,-0.03 -0.09,-0.08 -0.12,-0.21 -0.05,-0.29 0.07,-0.07 0.2,-0.05 0.25,0.06 0,0 0.17,0 0.4,-0.12 0.23,-0.13 0.32,-0.35 0.34,-0.49z"/>
   <path class="fil14" d="M2.9 1.95c0,0.03 -0.02,0.05 -0.05,0.05 -0.02,0 -0.04,-0.02 -0.04,-0.04 0,-0.03 0.02,-0.05 0.04,-0.05 0.02,0 0.05,0.02 0.05,0.04z"/>
   <path class="fil15" d="M2.96 2.33c-0.01,0 -0.01,0 -0.02,0 -0.02,-0.01 -0.04,-0.04 -0.03,-0.07l0.1 0.03c-0.01,0.02 -0.03,0.04 -0.05,0.04z"/>
   <path class="fil14" d="M3.27 1.82l-0.09 -0.07c0.01,-0.02 0.05,-0.03 0.07,-0.01 0.03,0.02 0.03,0.05 0.02,0.08z"/>
   <path class="fil14" d="M3.24 1.92c0.01,0.03 -0.01,0.05 -0.04,0.05 -0.02,0 -0.04,-0.02 -0.05,-0.04 0,-0.03 0.02,-0.05 0.05,-0.05 0.02,0 0.04,0.02 0.04,0.04z"/>
   <polygon class="fil15" points="3.04,2.17 3.03,1.9 3.18,2.12 "/>
   <path class="fil15" d="M2.83 2.58c0,0 -0.23,-0.07 -0.3,-0.13 -0.07,-0.06 -0.08,-0.12 -0.08,-0.12 0.03,0.09 0.27,0.16 0.38,0.17l0 0 0 0.08z"/>
   <path class="fil6" d="M2.05 2.72c-0.22,0.02 -0.32,0.05 -0.44,0.32 -0.11,0.25 -0.38,0.9 -0.45,1.05 -0.07,0.14 -0.08,0.2 -0.03,0.35 0.05,0.12 0.43,0.83 0.47,0.93 0.04,0.1 0.06,0.21 0.13,0.33 0.07,0.12 0.19,0.24 0.27,0.26 0.14,0.04 0.31,-0.01 0.31,-0.09 0.01,-0.08 -0.19,-0.21 -0.24,-0.39 0,0 0.05,0.04 0.11,0.06 0.05,0.02 0.11,0.02 0.13,-0.01 0.02,-0.03 -0.04,-0.05 -0.08,-0.1 -0.03,-0.03 -0.08,-0.09 -0.15,-0.15 -0.04,-0.03 -0.11,-0.04 -0.14,-0.09 -0.02,-0.02 -0.1,-0.21 -0.16,-0.38 -0.07,-0.21 -0.17,-0.49 -0.17,-0.49l0.39 -0.82c0,0 0.31,-0.3 0.05,-0.78z"/>
   <path class="fil3" d="M1.6 5.37c0,0 0.09,-0.18 0.34,-0.18l-0.07 -0.14c0,0 -0.24,0.02 -0.34,0.18l0.07 0.14z"/>
   <path class="fil14" d="M1.58 5.22l0.05 0.07c0.01,0.02 0.05,0.03 0.07,0.01l0.09 -0.07c0.02,-0.02 0.03,-0.05 0.01,-0.07l-0.04 -0.07c-0.02,-0.03 -0.05,-0.03 -0.07,-0.02l-0.1 0.08c-0.03,0.01 -0.03,0.04 -0.01,0.07z"/>
   <path class="fil16" d="M1.56 5.21l0.05 0.08c0.02,0.02 0.05,0.03 0.07,0.01l0.09 -0.07c0.03,-0.02 0.03,-0.05 0.02,-0.07l-0.05 -0.07c-0.02,-0.03 -0.05,-0.03 -0.07,-0.02l-0.1 0.07c-0.02,0.02 -0.03,0.05 -0.01,0.07z"/>
   <path class="fil10" d="M1.78 5.19c0,0.01 -0.01,0.02 -0.02,0.02l-0.09 0.07c-0.01,0.01 -0.02,0.01 -0.02,0.01 -0.01,0 -0.02,-0.01 -0.02,-0.01l-0.06 -0.08c0,0 0,-0.01 0,-0.02 0,-0.01 0,-0.02 0.01,-0.02l0.1 -0.07c0.01,-0.01 0.01,-0.01 0.02,-0.01 0.01,0 0.02,0.01 0.02,0.02l0.05 0.07c0.01,0 0.01,0.01 0.01,0.02z"/>
  </g>
  <path class="fil7" d="M13.95 6.3c-0.18,-0.59 0.08,-1.84 0.08,-1.84 -0.33,-0.15 -0.76,-0.02 -0.95,-0.02 -0.18,0 -0.7,-0.14 -0.7,-0.14l-0.82 0c0,0 -0.51,0.14 -0.7,0.14 -0.18,0 -0.61,-0.13 -0.95,0.02 0,0 0.26,1.27 0.09,1.86 0,0 0.4,1.12 0.5,1.28 0.1,0.17 0,0.78 0,0.93 -0.01,0.12 -0.02,0.34 -0.03,0.61l3.01 0c-0.03,-0.28 -0.05,-0.5 -0.06,-0.61 -0.02,-0.16 -0.07,-0.76 0.02,-0.93 0.1,-0.16 0.51,-1.3 0.51,-1.3z"/>
  <path class="fil6" d="M14.03 4.46c0,0 0.29,0.13 0.42,0.14 0.14,0.01 0.35,-0.19 0.6,-0.17 0.26,0.02 0.36,0.16 0.6,0.15 0.24,-0.01 0.33,-0.06 0.34,-0.15 0.02,-0.09 0.33,-0.64 0.2,-1.39 -0.13,-0.75 0.23,-0.52 0.23,-0.52 0,0 0.36,0.64 0.43,1.35 0.07,0.71 -0.15,1.4 -0.16,1.5 -0.01,0.09 -0.06,0.23 -0.13,0.27 -0.07,0.04 -0.91,0.11 -1.21,0.13 -0.29,0.01 -0.89,-0.09 -1.05,0.02 -0.17,0.11 -0.37,0.57 -0.37,0.57 0,0 -0.28,-1.4 0.1,-1.9z"/>
  <path class="fil6" d="M9.91 4.46c0,0 -0.29,0.13 -0.42,0.14 -0.13,0.01 -0.34,-0.19 -0.6,-0.17 -0.26,0.02 -0.36,0.16 -0.6,0.15 -0.24,-0.01 -0.32,-0.06 -0.34,-0.15 -0.02,-0.09 -0.33,-0.64 -0.2,-1.39 0.13,-0.75 -0.23,-0.52 -0.23,-0.52 0,0 -0.35,0.64 -0.43,1.35 -0.07,0.71 0.16,1.4 0.17,1.5 0.01,0.09 0.06,0.23 0.13,0.27 0.06,0.04 0.91,0.11 1.2,0.13 0.29,0.01 0.9,-0.09 1.06,0.02 0.16,0.11 0.35,0.53 0.35,0.53 0,0 0.3,-1.36 -0.09,-1.86z"/>
  <path class="fil6" d="M12.5 3.62c0,0 -0.07,0.4 0.06,0.67 0,0 0.14,0.62 -0.5,0.66 -0.64,0.05 -0.67,-0.53 -0.67,-0.53 0,0 0.15,-0.21 0.04,-0.77 -0.12,-0.56 1.07,-0.03 1.07,-0.03z"/>
  <path class="fil6" d="M12.06 1.35c0,0 0.82,0.12 0.73,1.44 -0.1,1.32 -0.83,1.23 -0.88,1.23 -0.04,-0.01 -0.72,0.04 -0.81,-1.57 0,0 -0.05,-1.19 0.96,-1.1z"/>
  <path class="fil15" d="M12.79 2.42c0,0 0.09,-0.1 0.12,-0.01 0.04,0.1 -0.1,0.54 -0.11,0.57 0,0 -0.02,0.04 -0.04,0.02 -0.02,-0.02 0.03,-0.58 0.03,-0.58z"/>
  <path class="fil15" d="M11.12 2.44c0,0 -0.09,-0.1 -0.13,0 -0.03,0.1 0.13,0.55 0.13,0.56 0,0 0.02,0.04 0.04,0.02 0.02,-0.02 -0.04,-0.58 -0.04,-0.58z"/>
  <path class="fil17" d="M12.78 2.6l-0.02 0.17c0,0 -0.05,-0.35 -0.07,-0.41 -0.02,-0.05 -0.02,-0.23 -0.03,-0.27 -0.02,-0.04 -0.56,0.12 -1.46,0.05 0,0 0.02,0.29 -0.04,0.31 -0.05,0.03 0,0.42 0,0.42l-0.03 -0.09c0,0 -0.13,-0.67 -0.12,-0.78 0.01,-0.15 -0.05,-0.84 1.21,-0.75 0.14,0.01 0.28,0.06 0.4,0.15 0.13,0.1 0.27,0.25 0.26,0.47 -0.01,0.29 -0.1,0.73 -0.1,0.73z"/>
  <path class="fil15" d="M11.48 3.81c0,0 0.38,0.42 0.95,-0.02 0,0 -0.16,0.33 -0.5,0.34 -0.34,0.02 -0.45,-0.32 -0.45,-0.32z"/>
  <path class="fil6" d="M10.99 4.43c0,0 0.02,1.5 0.98,1.55l0 -1.73c0,0 -0.45,0.02 -0.98,0.18z"/>
  <path class="fil6" d="M12.96 4.43c0,0 -0.02,1.5 -0.99,1.55 -0.14,-0.64 -0.13,-1.21 0,-1.73 0,0 0.45,0.02 0.99,0.18z"/>
  <path class="fil2" d="M16.96 2.62c0,0.59 -0.48,1.07 -1.07,1.07 -0.59,0 -1.07,-0.48 -1.07,-1.07 0,-0.59 0.48,-1.07 1.07,-1.07 0.59,0 1.07,0.48 1.07,1.07z"/>
  <path class="fil1" d="M16.41 2.62c0,0.28 -0.23,0.52 -0.52,0.52 -0.29,0 -0.52,-0.24 -0.52,-0.52 0,-0.29 0.23,-0.52 0.52,-0.52 0.29,0 0.52,0.23 0.52,0.52z"/>
  <path class="fil2" d="M9.14 2.62c0,0.59 -0.47,1.07 -1.06,1.07 -0.6,0 -1.07,-0.48 -1.07,-1.07 0,-0.59 0.47,-1.07 1.07,-1.07 0.59,0 1.06,0.48 1.06,1.07z"/>
  <path class="fil1" d="M8.6 2.62c0,0.28 -0.24,0.52 -0.52,0.52 -0.29,0 -0.53,-0.24 -0.53,-0.52 0,-0.29 0.24,-0.52 0.53,-0.52 0.28,0 0.52,0.23 0.52,0.52z"/>
  <path class="fil18" d="M20.71 4.78c0.25,0.05 0.51,0.08 0.51,0.08 0,0 -0.26,0.16 -0.33,0.39 -0.08,0.23 -0.09,0.33 -0.09,0.33l-0.46 0.62 0.4 0.14c0,0 0.16,-0.25 0.41,-0.53 0.25,-0.28 0.54,-0.58 0.65,-0.77 0.12,-0.19 0.16,-0.34 0.11,-0.43 -0.04,-0.09 -0.54,-0.36 -0.65,-0.42 -0.11,-0.06 -0.16,-0.07 -0.16,-0.07l-0.39 0.66z"/>
  <path class="fil18" d="M19.5 5.54c0,0 -0.35,0.45 -0.44,0.55 -0.08,0.11 -0.32,0.27 -0.34,0.29 -0.03,0.01 -0.75,0.59 -0.92,0.82 -0.16,0.23 -0.27,0.39 -0.32,0.36 -0.04,-0.04 -0.29,-0.26 -0.29,-0.26 0,0 0.41,-0.46 0.64,-0.85 0.23,-0.39 0.67,-0.64 0.71,-0.7 0.04,-0.06 0.26,-0.51 0.26,-0.51l0.7 0.3z"/>
  <path class="fil19" d="M17.54 7.48c0,0 0.03,0.04 0.02,0.06 -0.01,0.01 -0.07,0.19 -0.08,0.2 0,0.01 -0.14,0.03 -0.27,-0.03 -0.14,-0.06 -0.18,-0.34 -0.15,-0.38 0.04,-0.05 0.14,-0.08 0.15,-0.07 0.01,0 0.33,0.22 0.33,0.22z"/>
  <path class="fil20" d="M17.08 7.26c0.01,0.01 0.08,0.07 0.06,0.13 -0.01,0.05 -0.01,0.19 0.07,0.25 0.07,0.06 0.29,0.04 0.3,0.09 0.01,0.04 -0.14,0.23 -0.16,0.36 -0.02,0.13 0.18,0.18 0.2,0.26 0.01,0.08 -0.01,0.12 -0.11,0.14 -0.1,0.03 -0.36,-0.12 -0.43,-0.2 -0.08,-0.08 -0.37,-0.8 -0.35,-0.84 0.01,-0.04 0.08,-0.06 0.19,-0.1 0.12,-0.04 0.23,-0.09 0.23,-0.09z"/>
  <path class="fil18" d="M21.33 2.53c0.01,0.01 0.21,0.23 0.21,0.23 0,0 0.07,-0.2 0.16,-0.43 0.1,-0.24 0.09,-0.38 0.09,-0.38 0,0 -0.21,-0.15 -0.2,-0.22 0.01,-0.07 -0.03,-0.2 0,-0.21 0.02,-0.02 0.07,0.02 0.07,0.02 0,0 -0.07,-0.2 -0.05,-0.25 0.02,-0.05 0.07,-0.01 0.07,-0.01 0,0 0.02,-0.07 0.05,-0.06 0.03,0 0.04,0.02 0.04,0.02 0,0 0.01,-0.02 0.05,0 0.03,0.03 0.08,0.16 0.08,0.16 0,-0.01 -0.01,-0.07 0.02,-0.07 0.04,0.01 0.08,0.21 0.11,0.26 0.03,0.04 0.06,0.11 0.05,0.22 -0.01,0.12 -0.02,0.15 -0.02,0.15 0,0 -0.03,0.43 -0.12,0.78 -0.1,0.36 -0.12,0.53 -0.26,0.55 -0.14,0.02 -0.65,-0.42 -0.65,-0.42l0.3 -0.34z"/>
  <path class="fil21" d="M19.5 3.78c-0.05,0.02 -0.34,0.12 -0.43,0.3 -0.09,0.19 0,0.29 -0.06,0.56 -0.07,0.27 -0.32,0.74 -0.32,0.74l0.76 0.32c0,0 0.34,-0.45 0.48,-0.73 0.13,-0.29 0.17,-0.39 0.17,-0.39l-0.6 -0.8z"/>
  <path class="fil22" d="M20.66 1.98c0.04,-0.01 0.1,-0.08 0.13,-0.06 0.03,0.02 0.33,0.31 0.46,0.46 0.03,0.04 0.06,0.08 0.08,0.1 0.06,0.08 0.07,0.1 0.07,0.1 0,0 -0.23,0.44 -0.26,0.41 -0.04,-0.03 -0.49,-0.13 -0.49,-0.34 -0.01,-0.2 0.01,-0.67 0.01,-0.67z"/>
  <path class="fil23" d="M20.74 2.05c0.03,-0.02 -0.02,-0.23 0.05,-0.36 0.07,-0.13 0.11,-0.1 0.11,-0.1 0,0 -0.35,-0.66 -0.37,-0.67 -0.01,0 -0.14,0.15 -0.14,0.15 0,0 -0.02,0.19 -0.07,0.25 -0.04,0.06 -0.06,0.1 -0.06,0.1l0.48 0.63z"/>
  <path class="fil18" d="M20.55 1.19c0,0.01 0.04,0.17 0.12,0.24 0.08,0.08 0.18,0.21 0.26,0.22 0.08,0.01 0.15,-0.01 0.17,-0.05 0.02,-0.04 0,-0.11 0.02,-0.12 0.02,-0.01 0.04,-0.05 0.02,-0.05 -0.02,-0.01 -0.07,-0.02 -0.06,-0.03 0.01,-0.01 0.08,0 0.08,-0.02 0.01,-0.02 -0.01,-0.07 -0.01,-0.07 0,0 0.1,-0.01 0.11,-0.04 0.01,-0.03 -0.11,-0.18 -0.1,-0.2 0,-0.02 0.03,-0.12 0.04,-0.13 0.05,-0.12 -0.1,-0.32 -0.22,-0.4 -0.19,-0.11 -0.34,-0.04 -0.47,0.05 -0.12,0.1 -0.03,0.34 -0.03,0.34 0,0 0.04,0.02 0.04,0.1 -0.01,0.07 -0.1,0.08 -0.04,0.1 0.06,0.02 0.07,0.06 0.07,0.06z"/>
  <path class="fil24" d="M20.44 1.1c-0.01,0.01 -0.07,0.15 -0.09,0.16 -0.01,0 -0.05,-0.12 -0.09,-0.2 -0.04,-0.09 0,-0.38 0.1,-0.42 0.01,-0.01 -0.03,-0.28 0.39,-0.24 0.16,0.01 0.45,0.14 0.63,0.05 0.02,0 -0.02,0.12 -0.11,0.17 -0.03,0.02 0.11,-0.03 0.11,-0.03 -0.01,0.01 -0.06,0.14 -0.19,0.18 -0.13,0.04 -0.15,-0.04 -0.26,-0.05 -0.1,0 -0.12,0.02 -0.12,0.02 0,0 -0.07,0.16 -0.11,0.23 -0.04,0.06 -0.11,0.07 -0.15,0.1 -0.05,0.02 -0.11,0.03 -0.11,0.03z"/>
  <path class="fil25" d="M19.04 4.16c-0.06,0.34 0.3,0.51 0.83,0.61 0.53,0.11 1.01,0.08 1.01,0.08l0.31 -0.7c0,0 -0.13,-0.13 -0.46,-0.22 -0.52,-0.16 -1.53,-0.65 -1.69,0.23z"/>
  <path class="fil19" d="M20.38 6.14c-0.04,0.02 -0.14,0.09 -0.17,0.15 -0.03,0.06 0.08,0.19 0.14,0.22 0.05,0.04 0.32,0 0.37,-0.01 0.05,-0.02 0.04,-0.19 0.04,-0.19l-0.38 -0.17z"/>
  <path class="fil20" d="M20.19 6.26c-0.04,0 -0.07,0.09 -0.15,0.18 -0.07,0.09 -0.18,0.2 -0.17,0.24 0.01,0.05 0.71,0.49 0.94,0.53 0.22,0.05 0.44,0.06 0.45,-0.03 0,-0.09 -0.25,-0.16 -0.3,-0.27 -0.06,-0.11 -0.13,-0.38 -0.17,-0.44 -0.03,-0.06 -0.12,-0.03 -0.19,-0.01 -0.34,0.08 -0.3,-0.2 -0.41,-0.2z"/>
  <path class="fil18" d="M19.06 1.91c-0.03,0.04 -0.09,0.02 -0.18,0.04 -0.3,0.2 -0.67,0.54 -0.88,0.82 -0.02,0.02 0,0.17 -0.04,0.26 -0.05,0.09 -0.11,0.24 -0.14,0.23 -0.03,-0.02 -0.01,-0.18 -0.01,-0.18 0,0 -0.25,0.28 -0.28,0.31 -0.04,0.02 -0.07,-0.01 -0.07,-0.01 0,0 -0.07,0.03 -0.08,-0.01 -0.01,-0.03 0,-0.06 0,-0.06 0,0 -0.05,0.01 -0.05,-0.03 0.01,-0.04 0.03,-0.08 0.03,-0.08 0,0 -0.02,0 -0.02,-0.03 0.01,-0.03 0.12,-0.23 0.14,-0.28 0.03,-0.05 0.09,-0.14 0.15,-0.2 0.07,-0.06 0.09,-0.08 0.12,-0.09 0.03,-0.02 0.27,-0.41 0.45,-0.6 0.19,-0.2 0.36,-0.39 0.43,-0.4 0.07,-0.01 0.24,-0.08 0.24,-0.08l0.19 0.39z"/>
  <path class="fil26" d="M20.32 1.39c-0.13,-0.05 -0.33,-0.11 -0.53,-0.05 -0.2,0.06 -0.53,0.09 -0.72,0.11 -0.18,0.03 -0.23,0.07 -0.23,0.07l0.09 0.46 0.64 0.1c0,0 -0.01,0.4 -0.07,0.79 -0.05,0.32 -0.46,1.1 -0.41,1.11 0.05,0.02 0.6,-0.25 1.37,-0.12 0,0 -0.03,-0.24 0.11,-0.43 0.14,-0.18 0.27,-0.54 0.27,-0.54 0.06,-0.26 0.13,-0.75 -0.05,-0.97 0,0 -0.24,-0.3 -0.31,-0.4 -0.07,-0.1 -0.16,-0.13 -0.16,-0.13z"/>
  <path class="fil18" d="M20.51 0.89c0.07,0 0.1,0.04 0.11,0.14 0.01,0.09 -0.02,0.16 -0.09,0.16 -0.08,0 -0.12,-0.07 -0.13,-0.16 0,-0.1 0.03,-0.14 0.11,-0.14z"/>
  <path class="fil23" d="M17.88 2.69c0,0.03 0.02,0.29 0.01,0.31 0,0.02 -0.05,-0.01 -0.08,0 -0.04,0.02 -0.26,0.33 -0.33,0.39 0.02,0.01 0.03,0.01 0.05,0 0.03,-0.03 0.28,-0.31 0.28,-0.31 0,0 -0.02,0.16 0.01,0.18 0.03,0.01 0.09,-0.14 0.14,-0.23 0.04,-0.09 0.02,-0.24 0.04,-0.26 0.21,-0.28 0.58,-0.62 0.88,-0.82 0.01,0 0.03,0 0.05,-0.01l-0.04 -0.19c0,0 -0.25,0.03 -0.37,0.1 -0.11,0.08 -0.64,0.8 -0.64,0.84z"/>
  <path class="fil23" d="M21.22 4.86c0,0 -0.26,0.16 -0.33,0.39 -0.08,0.23 -0.09,0.33 -0.09,0.33l-0.42 0.56 0.19 0.08c0.12,-0.25 0.24,-0.42 0.31,-0.52 0.07,-0.11 0.38,-0.48 0.46,-0.6 0.09,-0.12 0.13,-0.42 0.08,-0.44 -0.02,-0.01 -0.21,-0.03 -0.43,-0.05l-0.09 0.2c0.17,0.03 0.32,0.05 0.32,0.05z"/>
  <path class="fil27" d="M19.76 3.65c0.06,-0.24 0.17,-0.63 0.18,-0.69 0.02,-0.09 -0.05,-0.14 -0.09,-0.33 -0.03,-0.19 0.02,-0.4 0.12,-0.52 0.09,-0.13 0.22,-0.18 0.22,-0.18 0,0 -0.22,0.02 -0.57,-0.02 -0.23,-0.03 -0.48,-0.09 -0.62,-0.13 -0.07,-0.02 -0.11,-0.03 -0.11,-0.03l0.04 0.19 0 0.04 0.64 0.1c0,0 -0.01,0.4 -0.07,0.79 -0.05,0.32 -0.46,1.1 -0.41,1.11 0.01,0 0.03,0 0.07,-0.01 0.08,-0.02 0.22,-0.07 0.4,-0.1 0.05,-0.01 0.1,-0.02 0.14,-0.03 0,0 0.03,-0.08 0.06,-0.19z"/>
  <path class="fil28" d="M19.7 3.84c-0.04,0.01 -0.09,0.02 -0.14,0.03 -0.18,0.03 -0.32,0.08 -0.4,0.1 -0.04,0.01 -0.06,0.01 -0.07,0.01 -0.02,0.05 -0.04,0.11 -0.05,0.18 -0.06,0.34 0.3,0.51 0.83,0.61 0.05,0.01 0.09,0.02 0.13,0.03 0.48,0.08 0.88,0.05 0.88,0.05l0.02 -0.04 0.09 -0.2c-0.06,-0.01 -0.11,-0.02 -0.17,-0.02 -0.2,-0.03 -0.41,-0.07 -0.57,-0.13 -0.39,-0.14 -0.55,-0.62 -0.55,-0.62z"/>
  <path class="fil23" d="M18.07 6.57c0.3,-0.28 0.71,-0.62 0.75,-0.68 0.04,-0.06 0.25,-0.35 0.25,-0.35l-0.35 -0.15c-0.06,0.14 -0.15,0.33 -0.18,0.36 -0.04,0.06 -0.48,0.31 -0.71,0.7 -0.19,0.33 -0.51,0.7 -0.61,0.81 0.04,0.03 0.17,0.12 0.25,0.18 0,0 0.29,-0.59 0.6,-0.87z"/>
  <path class="fil29" d="M18.72 5.39l0.35 0.15c0,0 0,-0.08 0.03,-0.17 0.03,-0.11 0.09,-0.24 0.22,-0.34 0.14,-0.12 0.32,-0.22 0.44,-0.28 -0.47,-0.11 -0.78,-0.28 -0.72,-0.59 -0.03,0.14 0.02,0.25 -0.03,0.48 -0.07,0.27 -0.32,0.74 -0.32,0.74l0.03 0.01z"/>
  <path class="fil30" d="M20.74 7.07c-0.2,-0.08 -0.63,-0.4 -0.79,-0.52 -0.05,0.05 -0.09,0.11 -0.08,0.13 0.01,0.05 0.71,0.49 0.94,0.53 0.22,0.05 0.44,0.06 0.45,-0.03 0,-0.01 -0.01,-0.03 -0.02,-0.04 -0.12,0 -0.32,0 -0.5,-0.07z"/>
  <path class="fil30" d="M17.07 8.11c-0.11,-0.13 -0.21,-0.52 -0.26,-0.74 -0.09,0.03 -0.14,0.05 -0.15,0.08 -0.02,0.04 0.27,0.76 0.35,0.84 0.07,0.08 0.33,0.23 0.43,0.2 0.04,-0.01 0.06,-0.02 0.08,-0.03 -0.12,-0.07 -0.34,-0.21 -0.45,-0.35z"/>
  <path class="fil23" d="M20.52 0.93c-0.01,0 -0.02,0 -0.03,0 -0.02,0 -0.03,0.01 -0.04,0.02 0,0.02 0,0.03 0,0.06 0,0.02 0.01,0.06 0.02,0.08l0 0c0.01,0.03 0.02,0.04 0.03,0.05l0 0c0.02,0 0.07,-0.03 0.06,-0.05 0,0 -0.01,-0.01 -0.01,-0.02 -0.01,-0.01 -0.01,-0.02 -0.01,-0.03 0.02,-0.01 0.03,-0.02 0.03,-0.04 -0.01,-0.03 -0.02,-0.06 -0.05,-0.07z"/>
  <path class="fil31" d="M20.6 1.15c-0.01,0.02 -0.03,0.03 -0.05,0.04 0,0.01 0.04,0.17 0.12,0.24 0.05,0.05 0.12,0.13 0.18,0.18 0.02,0.02 0.05,0.04 0.08,0.04 0.08,0.01 0.15,-0.01 0.17,-0.05 0,0 0,-0.01 0.01,-0.01 -0.06,-0.01 -0.18,-0.02 -0.25,-0.07 0,0 -0.01,-0.01 -0.02,-0.01 -0.08,-0.09 -0.24,-0.36 -0.24,-0.36z"/>
  <path class="fil23" d="M21.28 2.8c-0.05,0.08 -0.09,0.15 -0.12,0.18 0.16,0.13 0.43,0.33 0.52,0.31 0.14,-0.02 0.16,-0.19 0.26,-0.55 0.09,-0.35 0.12,-0.78 0.12,-0.78 0,0 0.01,-0.03 0.02,-0.1 -0.09,0.01 -0.22,0.03 -0.18,0.04 0.12,0.05 0.07,0.24 0.03,0.39 -0.07,0.28 -0.29,0.78 -0.38,0.77 -0.05,0 -0.23,-0.2 -0.27,-0.26z"/>
  <path class="fil27" d="M21.16 2.98c0.03,-0.03 0.07,-0.1 0.12,-0.18l0 0 -0.11 -0.1 -0.27 -0.23c-0.01,0.15 -0.03,0.29 -0.06,0.4 0.13,0.06 0.28,0.1 0.3,0.12 0,0 0.01,0 0.02,-0.01z"/>
  <path class="fil32" d="M17.41 8.5l0 0 0 0 0 0zm0 0c0,0 -0.01,0 -0.01,0 0,0 0.01,0 0.01,0zm0.03 -0.01c0,0 0,0 0,0 0,0 0,0 0,0zm0.08 -0.03c-0.03,-0.02 -0.08,-0.05 -0.12,-0.08 0.05,0 0.1,0 0.15,0 0,0.03 -0.01,0.06 -0.03,0.08z"/>
  <path class="fil33" d="M17.41 8.5c0,0 0,0 0,0 0,0 -0.01,0 -0.01,0 -0.07,-0.01 -0.17,-0.06 -0.26,-0.11 0.08,0 0.17,-0.01 0.26,-0.01 0.04,0.03 0.09,0.06 0.12,0.08l0 0c-0.02,0.01 -0.04,0.02 -0.08,0.03l0 0c0,0 0,0 0,0 -0.01,0.01 -0.02,0.01 -0.03,0.01l0 0 0 0z"/>
 </g>
</svg>
