<?xml version="1.0" encoding="UTF-8"?>
<!DOCTYPE svg PUBLIC "-//W3C//DTD SVG 1.1//EN" "http://www.w3.org/Graphics/SVG/1.1/DTD/svg11.dtd">
<!-- Creator: CorelDRAW 2020 (64-Bit) -->
<svg xmlns="http://www.w3.org/2000/svg" xml:space="preserve" width="375px" height="186px" version="1.1" style="shape-rendering:geometricPrecision; text-rendering:geometricPrecision; image-rendering:optimizeQuality; fill-rule:evenodd; clip-rule:evenodd"
viewBox="0 0 368.88 182.89"
 xmlns:xlink="http://www.w3.org/1999/xlink"
 xmlns:xodm="http://www.corel.com/coreldraw/odm/2003">
 <defs>
  <style type="text/css">
   <![CDATA[
    .fil19 {fill:none}
    .fil11 {fill:#EEEDEC}
    .fil7 {fill:#E7E5E5}
    .fil12 {fill:#D6D4D2}
    .fil4 {fill:#CDDCEC}
    .fil15 {fill:#798BA7}
    .fil5 {fill:#2B3455}
    .fil14 {fill:#001463}
    .fil6 {fill:#0B2691}
    .fil13 {fill:#2945B3}
    .fil9 {fill:#311649}
    .fil10 {fill:#425DC9}
    .fil8 {fill:#E9AFA3}
    .fil0 {fill:#F4F6FE}
    .fil16 {fill:#FAC4B9}
    .fil3 {fill:#FFC6BA}
    .fil18 {fill:#707D97;fill-rule:nonzero}
    .fil17 {fill:#2A324F;fill-rule:nonzero}
    .fil2 {fill:#334BAE;fill-rule:nonzero}
    .fil1 {fill:#829AF9;fill-rule:nonzero}
   ]]>
  </style>
   <clipPath id="id0">
    <path d="M0 0l368.88 0 0 182.89 -368.88 0 0 -182.89z"/>
   </clipPath>
 </defs>
 <g id="Слой_x0020_1">
  <metadata id="CorelCorpID_0Corel-Layer"/>
  <polygon class="fil0" points="0,0 368.88,0 368.88,182.89 0,182.89 "/>
  <g style="clip-path:url(#id0)">
   <g id="_2657065552624">
    <g>
     <path id="1" class="fil1" d="M309.35 97.51c-10.51,-4.8 -17.33,-12.36 -21.74,-19.69 -5.23,-8.72 -7.78,-18.6 -7.78,-28.56l0 -14.35c0,-2.88 2.65,-3.76 5.66,-5.22l23.63 -8.67 23.86 8.79c3.3,0.99 5.43,3 5.43,7.11l0 12.9c0,9.37 -2.26,18.66 -6.88,26.99 -0.29,0.53 -0.6,1.05 -0.91,1.57 -2.7,4.5 -6.46,9.47 -11.2,13.38 -1.61,1.34 -3.34,2.55 -5.18,3.58 -1.56,0.86 -3.18,1.6 -4.89,2.17z"/>
     <path class="fil2" d="M328.26 35.63l-19.14 -7.05 -18.96 6.96c-2.42,1.17 -4.54,1.87 -4.54,4.19l0 11.51c0,7.99 2.04,15.92 6.24,22.91 3.54,5.89 9.02,11.95 17.44,15.8 7.75,-2.58 13.54,-9.47 17.07,-15.35 4.2,-7 6.25,-14.92 6.25,-22.91l0 -10.36c0,-3.29 -1.71,-4.9 -4.36,-5.7z"/>
    </g>
    <g>
     <path class="fil3" d="M337.39 114.83c3.98,0.76 7.85,1.21 7.85,1.21 0,0 -3.98,2.52 -5.08,6.09 -1.11,3.58 -1.36,5.09 -1.36,5.09l-7.05 9.52 6.2 2.16c0,0 2.36,-3.78 6.24,-8.11 3.87,-4.33 8.35,-9.01 10.16,-11.93 1.82,-2.91 2.43,-5.28 1.72,-6.64 -0.71,-1.36 -8.36,-5.54 -10.09,-6.47 -1.74,-0.93 -2.52,-1.13 -2.52,-1.13l-6.07 10.21z"/>
     <path class="fil3" d="M318.71 126.49c0,0 -5.43,7 -6.74,8.66 -1.31,1.66 -5.04,4.13 -5.39,4.38 -0.35,0.25 -11.53,9.21 -14.09,12.73 -2.58,3.53 -4.23,5.99 -4.94,5.49 -0.7,-0.5 -4.53,-4.02 -4.53,-4.02 0,0 6.29,-7.11 9.87,-13.1 3.57,-5.99 10.32,-9.96 10.98,-10.82 0.65,-0.85 3.97,-7.9 3.97,-7.9l10.87 4.58z"/>
     <path class="fil4" d="M288.35 156.62c0,0 0.54,0.63 0.38,0.8 -0.15,0.18 -1.05,2.97 -1.18,3.18 -0.12,0.2 -2.22,0.42 -4.3,-0.5 -2.1,-0.94 -2.75,-5.29 -2.22,-5.92 0.53,-0.63 2.11,-1.22 2.26,-1.09 0.16,0.14 5.06,3.53 5.06,3.53z"/>
     <path class="fil5" d="M281.26 153.25c0.22,0.07 1.23,1.08 1.01,1.86 -0.23,0.78 -0.14,3.01 0.98,3.95 1.14,0.94 4.51,0.59 4.72,1.31 0.19,0.71 -2.14,3.65 -2.48,5.62 -0.36,1.96 2.84,2.79 3.04,4.02 0.2,1.24 -0.12,1.84 -1.66,2.24 -1.54,0.4 -5.56,-1.93 -6.7,-3.14 -1.12,-1.21 -5.63,-12.34 -5.43,-12.97 0.2,-0.63 1.23,-0.93 3.04,-1.53 1.81,-0.61 3.48,-1.36 3.48,-1.36z"/>
     <path class="fil3" d="M346.97 79.96c0.28,0.25 3.24,3.65 3.24,3.65 0,0 1.19,-3.05 2.6,-6.72 1.41,-3.67 1.35,-5.89 1.35,-5.89 0,0 -3.29,-2.29 -3.09,-3.35 0.2,-1.05 -0.43,-3.02 -0.1,-3.27 0.33,-0.25 1.09,0.41 1.09,0.41 0,0 -1.02,-3.1 -0.71,-3.89 0.31,-0.77 1.12,-0.23 1.12,-0.23 0,0 0.23,-1.06 0.73,-0.97 0.5,0.09 0.59,0.44 0.59,0.44 0,0 0.21,-0.4 0.74,0 0.53,0.4 1.32,2.45 1.34,2.35 0.01,-0.09 -0.14,-1.09 0.35,-0.99 0.49,0.1 1.21,3.25 1.61,3.95 0.41,0.71 0.93,1.76 0.78,3.5 -0.15,1.73 -0.27,2.19 -0.27,2.19 0,0 -0.46,6.7 -1.92,12.19 -1.46,5.48 -1.81,8.2 -3.98,8.5 -2.16,0.3 -10.12,-6.59 -10.12,-6.59l4.65 -5.28z"/>
     <path class="fil6" d="M318.71 99.33c-0.8,0.35 -5.28,1.91 -6.64,4.73 -1.36,2.82 0.05,4.38 -0.96,8.61 -1,4.23 -4.93,11.38 -4.93,11.38l11.78 4.93c0,0 5.24,-6.85 7.35,-11.28 2.11,-4.43 2.62,-5.93 2.62,-5.93l-9.22 -12.44z"/>
     <path class="fil7" d="M336.72 71.53c0.61,-0.2 1.51,-1.27 1.96,-0.92 0.45,0.35 5.12,4.85 7.11,7.16 0.51,0.6 0.92,1.1 1.24,1.51 0.9,1.16 1.1,1.59 1.1,1.59 0,0 -3.55,6.66 -4.1,6.21 -0.56,-0.45 -7.5,-2.01 -7.55,-5.19 -0.06,-3.16 0.24,-10.36 0.24,-10.36z"/>
     <path class="fil8" d="M337.88 72.53c0.48,-0.29 -0.22,-3.53 0.79,-5.49 1.01,-1.97 1.69,-1.62 1.69,-1.62 0,0 -5.47,-10.16 -5.64,-10.24 -0.18,-0.08 -2.19,2.24 -2.19,2.24 0,0 -0.4,2.97 -1.05,3.88 -0.66,0.9 -1.02,1.61 -1.02,1.61l7.42 9.62z"/>
     <path class="fil3" d="M334.95 59.24c0.04,0.28 0.55,2.68 1.83,3.81 1.29,1.13 2.76,3.18 4.04,3.35 1.27,0.16 2.35,-0.11 2.66,-0.76 0.3,-0.66 0.04,-1.76 0.34,-1.91 0.31,-0.15 0.58,-0.66 0.24,-0.79 -0.34,-0.13 -0.99,-0.26 -0.89,-0.44 0.1,-0.17 1.21,0.09 1.29,-0.23 0.09,-0.31 -0.17,-1.08 -0.17,-1.08 0,0 1.5,-0.13 1.68,-0.64 0.18,-0.49 -1.66,-2.85 -1.64,-3.1 0.02,-0.25 0.59,-1.85 0.65,-2 0.79,-1.94 -1.46,-5.03 -3.43,-6.17 -2.87,-1.66 -5.23,-0.7 -7.14,0.76 -1.91,1.46 -0.46,5.21 -0.46,5.21 0,0 0.62,0.36 0.47,1.5 -0.15,1.13 -1.41,1.25 -0.53,1.6 0.88,0.35 1.06,0.89 1.06,0.89z"/>
     <path class="fil9" d="M333.2 57.96c-0.03,0.08 -1.06,2.28 -1.29,2.37 -0.23,0.09 -0.83,-1.73 -1.41,-3.12 -0.58,-1.38 -0.04,-5.81 1.49,-6.47 0.13,-0.05 -0.38,-4.24 6.14,-3.72 2.46,0.19 6.85,2.27 9.74,0.91 0.24,-0.12 -0.39,1.85 -1.83,2.55 -0.48,0.24 1.82,-0.41 1.78,-0.39 -0.18,0.13 -0.88,2.03 -2.9,2.65 -2.03,0.61 -2.46,-0.54 -4.04,-0.63 -1.59,-0.1 -1.92,0.3 -1.92,0.3 0,0 -1.11,2.44 -1.71,3.45 -0.61,1 -1.61,1.18 -2.36,1.56 -0.76,0.37 -1.69,0.54 -1.69,0.54z"/>
     <path class="fil10" d="M311.62 105.27c-0.95,5.19 4.68,7.81 12.83,9.47 8.16,1.65 15.61,1.21 15.61,1.21l4.73 -10.93c0,0 -1.91,-1.91 -7,-3.42 -8.12,-2.41 -23.63,-10.06 -26.17,3.67z"/>
     <path class="fil4" d="M332.25 135.83c-0.5,0.37 -2.16,1.49 -2.56,2.39 -0.41,0.91 1.28,2.82 2.11,3.43 0.83,0.6 4.96,0 5.74,-0.31 0.78,-0.3 0.72,-2.93 0.72,-2.93l-6.01 -2.58z"/>
     <path class="fil5" d="M329.46 137.72c-0.68,0 -1.16,1.43 -2.34,2.76 -1.18,1.34 -2.87,3.08 -2.69,3.78 0.17,0.71 11.02,7.5 14.5,8.21 3.47,0.7 6.89,0.85 6.94,-0.5 0.05,-1.37 -3.78,-2.47 -4.63,-4.18 -0.86,-1.71 -1.96,-5.88 -2.52,-6.85 -0.55,-0.97 -1.83,-0.45 -2.94,-0.18 -5.32,1.33 -4.68,-3.04 -6.32,-3.04z"/>
     <path class="fil3" d="M311.97 70.49c-0.5,0.49 -1.45,0.32 -2.88,0.57 -4.54,3.09 -10.32,8.27 -13.64,12.64 -0.25,0.35 0.04,2.59 -0.62,4 -0.65,1.41 -1.56,3.75 -2.05,3.55 -0.49,-0.2 -0.12,-2.76 -0.12,-2.76 0,0 -3.89,4.41 -4.45,4.76 -0.57,0.35 -1.01,-0.12 -1.01,-0.12 0,0 -1.09,0.43 -1.24,-0.07 -0.16,-0.5 -0.06,-0.91 -0.06,-0.91 0,0 -0.73,0.02 -0.7,-0.54 0.04,-0.55 0.38,-1.21 0.38,-1.21 0,0 -0.26,-0.04 -0.19,-0.52 0.07,-0.48 1.78,-3.51 2.13,-4.28 0.36,-0.77 1.29,-2.23 2.3,-3.16 1.01,-0.93 1.4,-1.11 1.84,-1.38 0.44,-0.28 4.15,-6.24 7.02,-9.26 2.87,-3.02 5.51,-5.93 6.57,-6.16 1.06,-0.23 3.68,-1.2 3.68,-1.2l3.04 6.05z"/>
     <path class="fil11" d="M331.38 62.4c-2.02,-0.75 -5.03,-1.66 -8.16,-0.75 -3.12,0.91 -8.25,1.35 -11.12,1.71 -2.87,0.35 -3.52,1.11 -3.52,1.11l1.35 7 9.87 1.56c0,0 -0.15,6.26 -1.11,12.28 -0.8,4.98 -7.02,16.91 -6.26,17.16 0.79,0.26 9.15,-3.9 21.18,-1.95 0,0 -0.57,-3.69 1.6,-6.56 2.16,-2.86 4.17,-8.4 4.17,-8.4 1.02,-3.97 2.02,-11.57 -0.7,-14.95 0,0 -3.7,-4.66 -4.81,-6.22 -1.11,-1.56 -2.49,-1.99 -2.49,-1.99z"/>
     <path class="fil3" d="M334.29 54.69c1.21,0 1.6,0.64 1.72,2.06 0.12,1.42 -0.22,2.53 -1.43,2.53 -1.21,0 -1.76,-1.09 -1.87,-2.52 -0.11,-1.42 0.37,-2.07 1.58,-2.07z"/>
     <path class="fil8" d="M293.74 82.46c0,0.55 0.28,4.45 0.15,4.81 -0.12,0.35 -0.82,-0.15 -1.38,0.1 -0.5,0.22 -3.93,5.07 -4.96,5.97 0.17,0.06 0.4,0.07 0.66,-0.09 0.56,-0.35 4.45,-4.76 4.45,-4.76 0,0 -0.37,2.56 0.12,2.76 0.49,0.2 1.4,-2.14 2.05,-3.55 0.66,-1.41 0.37,-3.65 0.62,-4 3.32,-4.37 9.1,-9.55 13.64,-12.64 0.26,-0.05 0.51,-0.08 0.74,-0.1l-0.58 -2.99c0,0 -3.82,0.39 -5.64,1.55 -1.81,1.16 -9.87,12.38 -9.87,12.94z"/>
     <path class="fil8" d="M345.24 116.04c0,0 -3.98,2.52 -5.08,6.09 -1.11,3.58 -1.36,5.09 -1.36,5.09l-6.42 8.67 2.88 1.23c1.84,-3.88 3.68,-6.46 4.75,-8.1 1.06,-1.64 5.89,-7.45 7.2,-9.26 1.31,-1.81 2.02,-6.55 1.21,-6.84 -0.39,-0.15 -3.22,-0.37 -6.71,-0.79l-1.39 3.21c2.76,0.45 4.92,0.7 4.92,0.7z"/>
     <path class="fil12" d="M322.69 97.39c1.03,-3.75 2.7,-9.86 2.87,-10.75 0.25,-1.31 -0.8,-2.17 -1.36,-5.09 -0.55,-2.92 0.31,-6.14 1.71,-8.06 1.41,-1.91 3.47,-2.76 3.47,-2.76 0,0 -3.41,0.35 -8.8,-0.31 -3.62,-0.44 -7.49,-1.4 -9.64,-1.97 -1.05,-0.29 -1.69,-0.48 -1.69,-0.48l0.58 2.99 0.1 0.51 9.87 1.56c0,0 -0.15,6.26 -1.11,12.28 -0.8,4.98 -7.02,16.91 -6.26,17.16 0.13,0.04 0.48,-0.04 1.04,-0.2 1.2,-0.34 3.35,-1.05 6.25,-1.58 0.68,-0.13 1.4,-0.25 2.16,-0.35 0,0 0.33,-1.22 0.81,-2.95z"/>
     <path class="fil13" d="M321.88 100.34c-0.76,0.1 -1.48,0.22 -2.16,0.35 -2.9,0.53 -5.05,1.24 -6.25,1.58 -0.56,0.16 -0.91,0.24 -1.04,0.2 -0.34,0.81 -0.61,1.75 -0.81,2.8 -0.95,5.19 4.68,7.81 12.83,9.47 0.69,0.14 1.39,0.26 2.06,0.38 7.31,1.21 13.55,0.83 13.55,0.83l0.26 -0.61 1.39 -3.21c-0.81,-0.09 -1.66,-0.2 -2.52,-0.32 -3.15,-0.45 -6.47,-1.06 -8.9,-1.92 -5.94,-2.11 -8.41,-9.55 -8.41,-9.55z"/>
     <path class="fil8" d="M296.57 142.47c4.72,-4.33 11.07,-9.57 11.67,-10.47 0.61,-0.91 3.83,-5.48 3.83,-5.48l-5.36 -2.25c-1.03,2.13 -2.44,5.02 -2.84,5.54 -0.66,0.86 -7.41,4.83 -10.98,10.82 -3.01,5.04 -7.93,10.86 -9.43,12.58 0.6,0.43 2.63,1.84 3.87,2.71 0,0 4.5,-9.13 9.24,-13.45z"/>
     <path class="fil14" d="M306.71 124.27l5.36 2.25c0,0 0.02,-1.14 0.46,-2.64 0.47,-1.63 1.42,-3.7 3.37,-5.23 2.27,-1.78 5.06,-3.33 6.89,-4.27 -7.24,-1.68 -12.06,-4.28 -11.17,-9.11 -0.54,2.14 0.34,3.82 -0.51,7.4 -1,4.23 -4.93,11.38 -4.93,11.38l0.53 0.22z"/>
     <path class="fil15" d="M337.95 150.27c-3.19,-1.25 -9.78,-6.2 -12.3,-8.14 -0.74,0.88 -1.33,1.7 -1.22,2.13 0.17,0.71 11.02,7.5 14.5,8.21 3.47,0.7 6.89,0.85 6.94,-0.5 0.01,-0.22 -0.08,-0.44 -0.25,-0.65 -1.78,0.07 -4.99,0.01 -7.67,-1.05z"/>
     <path class="fil15" d="M281.15 166.37c-1.69,-2.12 -3.3,-8.15 -4.1,-11.52 -1.36,0.45 -2.14,0.75 -2.31,1.29 -0.2,0.63 4.31,11.76 5.43,12.97 1.14,1.21 5.16,3.54 6.7,3.14 0.57,-0.15 0.97,-0.33 1.24,-0.55 -1.86,-1.07 -5.25,-3.2 -6.96,-5.33z"/>
     <path class="fil8" d="M334.49 55.33c-0.18,-0.04 -0.35,-0.06 -0.5,-0.06 -0.25,0.01 -0.45,0.1 -0.58,0.39 -0.07,0.17 -0.07,0.46 -0.02,0.79 0.07,0.45 0.23,0.98 0.39,1.37l0 0.01c0.12,0.33 0.25,0.57 0.35,0.62l0.02 0.01c0.3,0.14 1.16,-0.47 1.01,-0.67 -0.07,-0.1 -0.18,-0.24 -0.27,-0.38 -0.08,-0.16 -0.13,-0.32 -0.02,-0.44 0.21,-0.22 0.43,-0.24 0.39,-0.54 -0.07,-0.6 -0.23,-1.01 -0.77,-1.1z"/>
     <path class="fil16" d="M335.76 58.61c-0.17,0.31 -0.43,0.54 -0.81,0.63 0.04,0.28 0.55,2.68 1.83,3.81 0.88,0.77 1.84,1.97 2.77,2.7 0.43,0.35 0.85,0.6 1.27,0.65 1.27,0.16 2.35,-0.11 2.66,-0.76 0.03,-0.06 0.05,-0.12 0.07,-0.19 -0.88,-0.11 -2.66,-0.31 -3.72,-1.01 -0.12,-0.08 -0.23,-0.16 -0.32,-0.26 -1.37,-1.26 -3.75,-5.57 -3.75,-5.57z"/>
     <path class="fil8" d="M346.23 84.22c-0.69,1.18 -1.42,2.29 -1.86,2.71 2.51,2.03 6.61,5.1 8.07,4.9 2.17,-0.3 2.52,-3.02 3.98,-8.5 1.46,-5.49 1.92,-12.19 1.92,-12.19 0,0 0.09,-0.33 0.21,-1.5 -1.3,0.15 -3.37,0.43 -2.69,0.69 1.79,0.7 1.05,3.6 0.45,6.01 -1.06,4.28 -4.47,12.1 -5.88,11.96 -0.82,-0.1 -3.49,-3.19 -4.2,-4.08z"/>
     <path class="fil12" d="M344.37 86.93c0.44,-0.42 1.17,-1.53 1.86,-2.71l-0.04 -0.06 -1.65 -1.44 -4.15 -3.62c-0.13,2.25 -0.52,4.45 -0.92,6.12 1.97,1.02 4.24,1.61 4.56,1.86 0.07,0.07 0.19,0 0.34,-0.15z"/>
     <path class="fil17" d="M286.47 172.3l0 0 0 0 0 0zm-0.1 -0.01c-0.03,0 -0.05,0 -0.08,0 0.03,0 0.05,0 0.08,0zm0.48 -0.04c0.01,0 0.01,0 0.02,0 -0.01,0 -0.01,0 -0.02,0zm1.26 -0.55c-0.54,-0.31 -1.2,-0.71 -1.92,-1.17 0.79,-0.02 1.58,-0.04 2.39,-0.06 0.03,0.54 -0.1,0.93 -0.47,1.23z"/>
     <path class="fil18" d="M286.47 172.3c-0.03,0 -0.07,0 -0.1,-0.01 -0.03,0 -0.05,0 -0.08,0 -1.08,-0.08 -2.71,-0.82 -4.05,-1.64 1.28,-0.04 2.6,-0.08 3.95,-0.12 0.72,0.46 1.38,0.86 1.92,1.17l0 0c-0.27,0.22 -0.67,0.4 -1.24,0.55l0 0c-0.01,0 -0.01,0 -0.02,0 -0.11,0.03 -0.24,0.05 -0.38,0.05l0 0 0 0z"/>
    </g>
   </g>
  </g>
  <polygon class="fil19" points="0,0 368.88,0 368.88,182.89 0,182.89 "/>
 </g>
</svg>
