<?xml version="1.0" encoding="UTF-8"?>
<!DOCTYPE svg PUBLIC "-//W3C//DTD SVG 1.1//EN" "http://www.w3.org/Graphics/SVG/1.1/DTD/svg11.dtd">
<!-- Creator: CorelDRAW 2019 -->
<svg xmlns="http://www.w3.org/2000/svg" xml:space="preserve" width="31.708mm" height="21.0002mm" version="1.1" style="shape-rendering:geometricPrecision; text-rendering:geometricPrecision; image-rendering:optimizeQuality; fill-rule:evenodd; clip-rule:evenodd"
viewBox="0 0 49.18 32.57"
 xmlns:xlink="http://www.w3.org/1999/xlink"
 xmlns:xodm="http://www.corel.com/coreldraw/odm/2003">
 <defs>
  <style type="text/css">
   <![CDATA[
    .fil1 {fill:white}
    .fil4 {fill:white}
    .fil2 {fill:url(#id0);fill-rule:nonzero}
    .fil0 {fill:url(#id1);fill-rule:nonzero}
    .fil3 {fill:url(#id2);fill-rule:nonzero}
   ]]>
  </style>
  <linearGradient id="id0" gradientUnits="userSpaceOnUse" x1="1.04" y1="4.57" x2="32.96" y2="25.45">
   <stop offset="0" style="stop-opacity:1; stop-color:#00D9FF"/>
   <stop offset="1" style="stop-opacity:1; stop-color:#5A69F7"/>
  </linearGradient>
  <linearGradient id="id1" gradientUnits="userSpaceOnUse" x1="26.73" y1="7.45" x2="48" y2="27.88">
   <stop offset="0" style="stop-opacity:1; stop-color:#4188F9"/>
   <stop offset="1" style="stop-opacity:1; stop-color:#5A69F7"/>
  </linearGradient>
  <linearGradient id="id2" gradientUnits="userSpaceOnUse" xlink:href="#id1" x1="30.53" y1="10.87" x2="44.41" y2="24.22">
  </linearGradient>
 </defs>
 <g id="Слой_x0020_1">
  <metadata id="CorelCorpID_0Corel-Layer"/>
  <g id="_597652488">
   <path class="fil0" d="M27.14 5.94c-0.31,-0.04 -0.63,-0.19 -0.87,-0.2l-0.13 2c-0.23,4.48 -0.27,11.57 2.14,15.59 1.4,2.34 6.77,8.07 9.35,9.24 6.11,-3.74 10.52,-9.12 11.31,-16.32 0.31,-2.85 0.28,-5.66 0.14,-8.54l-0.13 -2c-1.05,0.44 -3.12,0.33 -4.27,0.22 -1.53,-0.16 -2.89,-0.56 -4.5,-1.49 -1.44,-0.84 -1.98,-1.31 -2.38,-1.43 -0.37,-0.11 -0.62,0.09 -1.38,0.58 -2.76,1.79 -5.16,2.78 -9.28,2.36z"/>
   <path class="fil1" d="M31.29 23.82c1.83,2.37 3.98,3.99 6.32,5.78 0.85,-0.32 4.1,-3.17 4.97,-4.11 2.61,-2.83 3.74,-4.74 4.22,-8.67 0.36,-2.98 0.2,-6 0.07,-8.99 -1.67,0.58 -3.42,0.39 -5.05,-0.17 -0.87,-0.3 -3.85,-2.02 -4.11,-2.03 -0.51,-0.01 -3.27,1.95 -5.1,2.27 -1.16,0.2 -3.08,0.25 -4.12,-0.08 -0.16,1.89 -0.24,5.16 -0.11,7.13 0.13,1.98 0.31,3.49 0.78,4.93 0.43,1.29 1.09,2.51 2.16,3.94z"/>
   <path class="fil2" d="M1.5 11.26c-1.82,3.06 -1.46,4.49 -1.49,8.37 -0.01,2.13 -0.2,3.53 0.96,5.24 0.14,0.21 0.47,0.54 0.51,0.77 0.05,0.29 0.03,2.16 0,2.51 0.26,0.59 0.34,1.34 1.42,1.85 0.76,0.36 2.11,0.23 3.03,0.23 1.12,-0 1.99,0.06 2.7,-0.57 0.72,-0.64 0.89,-1.2 0.89,-2.46l5.49 -0 11.71 0 2.58 -0c-0.12,-0.24 -0.35,-0.46 -0.53,-0.7 -0.22,-0.29 -0.43,-0.48 -0.58,-0.81 -0.17,-0.09 -0.69,-0.86 -0.78,-1.09 -2.78,-0.02 -5.57,0 -8.35,0 -1.04,0 -3.14,0.13 -3.99,-0.18 -0.93,-0.34 -1.67,-1.21 -1.7,-2.47l12.6 -0.01 -0.57 -1.82c-2.89,0.01 -5.77,0 -8.66,0 -0.65,0 -1.52,0.08 -2.07,-0.15 -1.45,-0.6 -2.25,-2.79 -2.14,-4.24l12.16 -0c-0.16,-2.16 -0.32,-4.43 -0.22,-6.61l0.01 -0.5 -17.04 -0c0.1,-0.24 3.36,-3.27 3.82,-3.72 2,-2.02 2.1,-2.43 5.15,-2.43l11.39 -0c0.77,0 1.86,-0.09 2.67,0.1 0.95,0.23 1.96,1.41 2.4,1.22 0.43,-0.19 1.66,-0.76 1.91,-1.01 -0.97,-0.97 -1.66,-1.68 -2.93,-2.3 -0.41,-0.2 -0.89,-0.35 -1.66,-0.45 -1.15,-0.1 -12.75,-0.02 -14.23,-0.02 -2.82,0 -3.71,0.64 -5.16,1.99 -0.92,0.86 -2.77,2.79 -3.62,3.48 -0.16,-1.18 -0.47,-1.83 -1.74,-1.89 -1.98,-0.09 -4.8,0.79 -3.09,3.07 0.66,0.88 2.01,1.2 2.2,1.37 -0.47,0.64 -2.06,1.75 -3.01,3.2z"/>
   <path class="fil3" d="M37.62 27.28c1.81,-0.68 5.45,-4.74 6.4,-6.64 0.79,-1.59 1.03,-3.13 1.12,-5.02 0.1,-2.02 0.03,-3.89 -0.06,-5.89 -1.32,0.46 -2.69,0.32 -3.99,-0.1 -0.81,-0.27 -3.1,-1.64 -3.36,-1.66 -0.39,-0.04 -2.74,1.58 -4.16,1.83 -0.94,0.16 -2.48,0.2 -3.33,-0.07 -0.14,1.58 -0.22,3.3 -0.13,5.02 0.16,3.03 0.74,5.28 2.01,7.26 1.44,2.25 3.42,3.69 5.49,5.28z"/>
   <path class="fil4" d="M3.94 12.42c-1.75,0.35 -2.74,2.59 -1.46,4.23 0.55,0.71 1.23,0.95 2.47,0.98 1.13,0.02 2.28,0.06 3.39,-0.06 3.56,-0.38 1.77,-2.08 0.4,-3.13 -0.83,-0.64 -3.37,-2.31 -4.8,-2.02z"/>
   <path class="fil4" d="M11.66 24.61c-0.08,-0.26 -1.12,-1.31 -1.38,-1.65l-1.45 -1.68c-0.35,-0.43 -0.39,-0.41 -1.09,-0.41l-3.87 -0.01c-0.34,0 -0.36,0.02 -0.49,0.28 -0.95,1.84 0.67,3.02 2.16,3.43 0.41,0.11 5.24,0.02 6.12,0.04z"/>
  </g>
 </g>
</svg>
