<?xml version="1.0" encoding="UTF-8"?>
<!DOCTYPE svg PUBLIC "-//W3C//DTD SVG 1.1//EN" "http://www.w3.org/Graphics/SVG/1.1/DTD/svg11.dtd">
<!-- Creator: CorelDRAW 2019 -->
<svg xmlns="http://www.w3.org/2000/svg" xml:space="preserve" width="26.1999mm" height="24.1647mm" version="1.1" style="shape-rendering:geometricPrecision; text-rendering:geometricPrecision; image-rendering:optimizeQuality; fill-rule:evenodd; clip-rule:evenodd"
viewBox="0 0 33.5 30.9"
 xmlns:xlink="http://www.w3.org/1999/xlink"
 xmlns:xodm="http://www.corel.com/coreldraw/odm/2003">
 <defs>
  <style type="text/css">
   <![CDATA[
    .fil0 {fill:url(#id0);fill-rule:nonzero}
   ]]>
  </style>
  <linearGradient id="id0" gradientUnits="userSpaceOnUse" x1="0.47" y1="14.47" x2="32.31" y2="16.19">
   <stop offset="0" style="stop-opacity:1; stop-color:#00D9FF"/>
   <stop offset="1" style="stop-opacity:1; stop-color:#5A69F7"/>
  </linearGradient>
 </defs>
 <g id="Слой_x0020_1">
  <metadata id="CorelCorpID_0Corel-Layer"/>
  <path class="fil0" d="M18.43 16.1l0 -3.15 -3.35 0 0 3.15c0,0.38 -0.31,0.69 -0.69,0.69l-3.15 0 0 3.34 3.15 0c0.38,0 0.69,0.31 0.69,0.69l0 3.15 3.34 0 0 -3.15c0,-0.38 0.31,-0.69 0.69,-0.69l3.16 0 0 -3.34 -3.15 0c-0.38,0 -0.69,-0.31 -0.69,-0.69zm-6.61 -13.98c0,-0.2 0,-0.74 0.74,-0.74l8.4 0c0.74,0 0.74,0.53 0.74,0.74l0 3.1 1.38 0 0 -3.1c0.06,-1.11 -0.78,-2.05 -1.89,-2.12 -0.08,-0 -0.15,-0 -0.23,0l-8.41 0c-1.11,-0.06 -2.05,0.78 -2.12,1.89 -0,0.08 -0,0.15 0,0.23l0 3.1 1.38 0 0.01 -3.1zm12.08 18.62c0,0.57 -0.46,1.03 -1.03,1.03l-3.07 0 0 2.81c0,0.57 -0.46,1.03 -1.03,1.03l-4.05 0c-0.57,0 -1.03,-0.46 -1.03,-1.03l0 -2.81 -3.06 0c-0.57,0 -1.03,-0.45 -1.03,-1.02 0,-0 0,-0 0,-0.01l0 -4.56c0,-0.57 0.46,-1.03 1.03,-1.03l3.07 0 0 -2.81c0,-0.57 0.46,-1.03 1.03,-1.03l4.05 0c0.57,0 1.03,0.46 1.03,1.03l0 2.81 3.07 0c0.57,-0 1.03,0.45 1.03,1.02 0,0 0,0 0,0.01l0 4.56zm4.85 -14.33l-23.99 0c-2.19,0 -4.76,1.25 -4.76,4.76l0 14.98c0,3.51 2.56,4.76 4.76,4.76l23.99 0c2.19,0 4.76,-1.25 4.76,-4.76l0 -14.98c0,-3.51 -2.56,-4.76 -4.76,-4.76z"/>
 </g>
</svg>
