<?xml version="1.0" encoding="UTF-8"?>
<!DOCTYPE svg PUBLIC "-//W3C//DTD SVG 1.1//EN" "http://www.w3.org/Graphics/SVG/1.1/DTD/svg11.dtd">
<!-- Creator: CorelDRAW 2019 -->
<svg xmlns="http://www.w3.org/2000/svg" xml:space="preserve" width="32.0814mm" height="24.5434mm" version="1.1" style="shape-rendering:geometricPrecision; text-rendering:geometricPrecision; image-rendering:optimizeQuality; fill-rule:evenodd; clip-rule:evenodd"
viewBox="0 0 26880.91 20564.84"
 xmlns:xlink="http://www.w3.org/1999/xlink"
 xmlns:xodm="http://www.corel.com/coreldraw/odm/2003">
 <defs>
  <style type="text/css">
   <![CDATA[
    .fil1 {fill:white}
    .fil2 {fill:url(#id0);fill-rule:nonzero}
    .fil0 {fill:url(#id1);fill-rule:nonzero}
   ]]>
  </style>
  <linearGradient id="id0" gradientUnits="userSpaceOnUse" x1="16692.58" y1="12236.4" x2="25832.95" y2="12655.18">
   <stop offset="0" style="stop-opacity:1; stop-color:#3696FA"/>
   <stop offset="1" style="stop-opacity:1; stop-color:#5A69F7"/>
  </linearGradient>
  <linearGradient id="id1" gradientUnits="userSpaceOnUse" x1="395.49" y1="9375.31" x2="25910.62" y2="11035.94">
   <stop offset="0" style="stop-opacity:1; stop-color:#00D9FF"/>
   <stop offset="1" style="stop-opacity:1; stop-color:#5A69F7"/>
  </linearGradient>
 </defs>
 <g id="Слой_x0020_1">
  <metadata id="CorelCorpID_0Corel-Layer"/>
  <g id="_864216096">
   <path class="fil0" d="M2102.37 5501.3l0 -3672.33c0,-337.09 273.49,-610.41 610.32,-610.41l4099.83 0 -4710.15 4282.74zm12871.02 678.53c-166.24,-22.46 -342.36,-102.98 -467.71,-110.35l-70.63 1081.39c-125.94,2418.59 -146.13,6248.37 1155.12,8420.53 758.46,1266.06 3656.08,4357.65 5051.26,4993.45 3300.73,-2018.58 5684.54,-4928.93 6108.69,-8817.94 167.83,-1538.97 151.16,-3058.74 77.34,-4613.04l-69.96 -1080.72c-566.33,237.8 -1686.77,179.56 -2307.99,116.64 -828.85,-83.96 -1562.59,-300.39 -2428.56,-804.97 -780.17,-454.64 -1069.16,-709.28 -1284.08,-772.96 -200.68,-59.41 -336.83,47.59 -747.91,313.88 -1490.03,964.92 -2787.35,1499.75 -5015.57,1274.11zm-14624.65 2586.25l9313.48 -8486.72c408.98,-372.45 1025.33,-372.45 1434.06,0l5268.11 4800.14c-689.51,97.2 -1452.66,108.26 -2339.07,18.43 -198.83,-26.9 -409.31,-123 -559.04,-131.97l-84.46 1292.54c-150.57,2891.25 -174.62,7469.52 1380.85,10065.99 470.56,785.61 1630.38,2159.18 2870.3,3405.21 -12.57,0.75 -25.3,1.09 -38.04,1.09l-5105.14 0c-337,0 -610.24,-273.41 -610.24,-610.74l0 -5162.62 -3000.34 0 0 5162.62c0,337.34 -273.49,610.74 -610.49,610.74l-5104.89 0c-337.09,0 -610.41,-273.41 -610.41,-610.74l0 -8502.56 -1487.94 0c-442.83,0 -832.45,-267.04 -992.49,-680.2 -159.95,-412.83 -51.78,-872.75 275.75,-1171.21z"/>
   <path class="fil1" d="M17214.93 15837.43c988.3,1282.74 2150.8,2156.5 3413.59,3120.75 459.42,-171.69 2214.56,-1714.34 2682.28,-2221.52 1407.25,-1526.15 2019.5,-2561.37 2278.24,-4684.85 196.07,-1607.92 109.18,-3240.99 35.44,-4854.69 -903.92,314.97 -1846.64,213.24 -2730.29,-90.16 -469.81,-161.21 -2082.26,-1093.46 -2220.26,-1096.72 -273.99,-6.37 -1768.05,1054.66 -2757.02,1228.69 -626.66,110.18 -1662.47,136.83 -2227.8,-44.66 -87.23,1023.07 -127.53,2789.61 -60.33,3851.64 67.7,1068.91 165.15,1887.61 421.46,2662.84 229.75,694.78 587.03,1354.71 1164.68,2128.68z"/>
   <path class="fil2" d="M20633.8 17705.6c978.5,-365.66 2946.63,-2559.52 3459.51,-3587.37 429.09,-859.85 556.2,-1688.45 604.96,-2713.7 51.78,-1089.27 14.5,-2098.93 -35.11,-3184.43 -712.55,248.27 -1454.92,175.54 -2153.48,-56.31 -440.15,-146.05 -1674.12,-884.65 -1813.29,-899.23 -211.57,-22.29 -1480.9,853.98 -2249.5,989.22 -505.42,88.9 -1340.8,110.43 -1796.7,-36.03 -72.98,855.16 -117.47,1784.89 -69.13,2713.28 85.21,1636.25 402.44,2853.54 1085.41,3923.96 776.31,1216.71 1847.65,1995.62 2967.33,2850.61z"/>
  </g>
 </g>
</svg>
