<?xml version="1.0" encoding="UTF-8"?>
<!DOCTYPE svg PUBLIC "-//W3C//DTD SVG 1.1//EN" "http://www.w3.org/Graphics/SVG/1.1/DTD/svg11.dtd">
<!-- Creator: CorelDRAW 2019 -->
<svg xmlns="http://www.w3.org/2000/svg" xml:space="preserve" width="60.172mm" height="42.533mm" version="1.1" style="shape-rendering:geometricPrecision; text-rendering:geometricPrecision; image-rendering:optimizeQuality; fill-rule:evenodd; clip-rule:evenodd"
viewBox="0 0 179.68 127.01"
 xmlns:xlink="http://www.w3.org/1999/xlink"
 xmlns:xodm="http://www.corel.com/coreldraw/odm/2003">
 <defs>
  <style type="text/css">
   <![CDATA[
    .str0 {stroke:white;stroke-width:2.11;stroke-miterlimit:22.9256}
    .str1 {stroke:#E6E6E6;stroke-width:0.6;stroke-miterlimit:22.9256}
    .fil5 {fill:none}
    .fil7 {fill:white}
    .fil0 {fill:white}
    .fil1 {fill:#34DAEA;fill-rule:nonzero}
    .fil4 {fill:#5A69F7;fill-rule:nonzero}
    .fil8 {fill:url(#id1);fill-rule:nonzero}
    .fil2 {fill:url(#id2);fill-rule:nonzero}
    .fil6 {fill:url(#id3);fill-rule:nonzero}
    .fil9 {fill:url(#id4);fill-rule:nonzero}
    .fil3 {fill:url(#id5);fill-rule:nonzero}
   ]]>
  </style>
    <clipPath id="id0">
     <path d="M9.72 0.3l160.25 0c5.18,0 9.42,4.24 9.42,9.42l0 107.58c0,5.18 -4.24,9.42 -9.42,9.42l-160.25 0c-5.18,0 -9.42,-4.24 -9.42,-9.42l0 -107.58c0,-5.18 4.24,-9.42 9.42,-9.42z"/>
    </clipPath>
  <linearGradient id="id1" gradientUnits="userSpaceOnUse" x1="45.57" y1="46.32" x2="107.04" y2="86.53">
   <stop offset="0" style="stop-opacity:1; stop-color:#00D9FF"/>
   <stop offset="1" style="stop-opacity:1; stop-color:#5A69F7"/>
  </linearGradient>
  <linearGradient id="id2" gradientUnits="userSpaceOnUse" xlink:href="#id1" x1="337.72" y1="216.2" x2="439.65" y2="119.27">
  </linearGradient>
  <linearGradient id="id3" gradientUnits="userSpaceOnUse" x1="95.04" y1="51.86" x2="135.97" y2="91.2">
   <stop offset="0" style="stop-opacity:1; stop-color:#4188F9"/>
   <stop offset="1" style="stop-opacity:1; stop-color:#5A69F7"/>
  </linearGradient>
  <linearGradient id="id4" gradientUnits="userSpaceOnUse" xlink:href="#id3" x1="102.35" y1="58.46" x2="129.08" y2="84.14">
  </linearGradient>
  <linearGradient id="id5" gradientUnits="userSpaceOnUse" x1="-40.89" y1="-84.02" x2="137.32" y2="-31.86">
   <stop offset="0" style="stop-opacity:1; stop-color:#00D9FF"/>
   <stop offset="0.419608" style="stop-opacity:1; stop-color:#1B75FD"/>
   <stop offset="1" style="stop-opacity:1; stop-color:#B357EF"/>
  </linearGradient>
 </defs>
 <g id="Слой_x0020_1">
  <metadata id="CorelCorpID_0Corel-Layer"/>
  <g id="_938842344">
   <path class="fil0" d="M9.72 0.3l160.25 0c5.18,0 9.42,4.24 9.42,9.42l0 107.58c0,5.18 -4.24,9.42 -9.42,9.42l-160.25 0c-5.18,0 -9.42,-4.24 -9.42,-9.42l0 -107.58c0,-5.18 4.24,-9.42 9.42,-9.42z"/>
   <g style="clip-path:url(#id0)">
    <g>
     <path id="1" class="fil1" d="M176.56 -189c-0.62,-11.88 46.56,72.93 50.63,81.82 15.66,34.22 43.69,137.67 41.97,161.58l-74.71 -48.42c-89.04,-55.71 -14.35,-127.61 -17.89,-194.98z"/>
     <path class="fil2" d="M475.16 147.77l-170.68 -0.96c-2.52,-0.01 -4.58,2.02 -4.6,4.55l-0.17 30.53c-0,0.61 0.29,1.19 0.8,1.53 10.5,6.97 24.65,8.22 37.27,5.66 15.26,-3.1 29.1,-10.81 43.33,-17.12 14.23,-6.31 29.86,-11.35 45.19,-8.63 14.46,2.56 26.76,11.65 39.81,18.4 3.48,1.8 7.19,3.43 10.99,4.72 1.19,0.4 2.42,-0.47 2.43,-1.72l0.18 -32.36c0.01,-2.52 -2.02,-4.58 -4.55,-4.6z"/>
     <path class="fil3" d="M98.24 -32.54l-104.39 0c-15.63,0 -28.29,-12.67 -28.29,-28.29 0,-15.63 12.67,-28.3 28.29,-28.3l104.39 0c15.63,0 28.3,12.67 28.3,28.3 0,15.63 -12.67,28.29 -28.3,28.29z"/>
     <path class="fil4 str0" d="M-1053.49 470.41c-48.57,30.27 415.9,-17.24 462.13,-25.67 178.12,-32.49 566.29,-95.69 655.85,-168.33l-299.71 -272.49c-464.96,-197.71 -542.79,294.9 -818.26,466.49z"/>
    </g>
   </g>
   <path class="fil5 str1" d="M9.72 0.3l160.25 0c5.18,0 9.42,4.24 9.42,9.42l0 107.58c0,5.18 -4.24,9.42 -9.42,9.42l-160.25 0c-5.18,0 -9.42,-4.24 -9.42,-9.42l0 -107.58c0,-5.18 4.24,-9.42 9.42,-9.42z"/>
   <g>
    <path class="fil6" d="M95.82 48.97c-0.59,-0.08 -1.22,-0.37 -1.67,-0.39l-0.25 3.85c-0.45,8.62 -0.52,22.27 4.12,30.01 2.7,4.51 13.03,15.53 18,17.8 11.76,-7.19 20.26,-17.57 21.77,-31.43 0.6,-5.48 0.54,-10.9 0.28,-16.44l-0.25 -3.85c-2.02,0.85 -6.01,0.64 -8.23,0.42 -2.95,-0.3 -5.57,-1.07 -8.65,-2.87 -2.78,-1.62 -3.81,-2.53 -4.58,-2.75 -0.72,-0.21 -1.2,0.17 -2.67,1.12 -5.31,3.44 -9.93,5.34 -17.87,4.54z"/>
    <path class="fil7" d="M103.81 83.39c3.52,4.57 7.67,7.69 12.17,11.12 1.64,-0.61 7.89,-6.11 9.56,-7.92 5.02,-5.44 7.2,-9.13 8.12,-16.7 0.7,-5.73 0.39,-11.55 0.13,-17.3 -3.22,1.12 -6.58,0.76 -9.73,-0.32 -1.67,-0.57 -7.42,-3.9 -7.91,-3.91 -0.98,-0.02 -6.3,3.76 -9.83,4.38 -2.23,0.39 -5.92,0.49 -7.94,-0.16 -0.31,3.65 -0.45,9.94 -0.22,13.73 0.24,3.81 0.59,6.73 1.5,9.49 0.82,2.48 2.09,4.83 4.15,7.59z"/>
    <path class="fil8" d="M46.47 59.2c-3.5,5.88 -2.81,8.64 -2.86,16.11 -0.01,4.11 -0.39,6.81 1.85,10.09 0.27,0.4 0.9,1.03 0.98,1.47 0.1,0.56 0.06,4.16 0,4.84 0.5,1.13 0.65,2.57 2.74,3.56 1.47,0.69 4.06,0.45 5.83,0.45 2.15,-0 3.83,0.12 5.19,-1.1 1.38,-1.23 1.71,-2.31 1.71,-4.73l10.56 -0 22.54 0 4.97 -0c-0.22,-0.47 -0.68,-0.89 -1.03,-1.34 -0.43,-0.55 -0.82,-0.92 -1.12,-1.55 -0.34,-0.17 -1.33,-1.66 -1.5,-2.09 -5.35,-0.04 -10.72,0 -16.07,0 -2,0 -6.05,0.24 -7.69,-0.35 -1.79,-0.65 -3.21,-2.33 -3.28,-4.76l24.25 -0.02 -1.1 -3.51c-5.55,0.02 -11.11,0.01 -16.67,0.01 -1.25,0 -2.93,0.15 -3.99,-0.28 -2.78,-1.15 -4.34,-5.36 -4.12,-8.16l23.41 -0c-0.31,-4.15 -0.62,-8.54 -0.42,-12.73l0.02 -0.97 -32.8 -0c0.19,-0.46 6.47,-6.3 7.35,-7.15 3.85,-3.89 4.05,-4.68 9.91,-4.68l21.92 -0c1.47,0 3.59,-0.18 5.13,0.2 1.82,0.44 3.78,2.72 4.61,2.35 0.83,-0.36 3.19,-1.46 3.67,-1.94 -1.86,-1.87 -3.2,-3.23 -5.64,-4.42 -0.79,-0.39 -1.71,-0.67 -3.19,-0.87 -2.2,-0.19 -24.55,-0.03 -27.4,-0.03 -5.44,0 -7.15,1.24 -9.94,3.84 -1.78,1.66 -5.32,5.38 -6.97,6.7 -0.3,-2.28 -0.91,-3.53 -3.34,-3.64 -3.82,-0.17 -9.24,1.52 -5.96,5.91 1.26,1.69 3.88,2.31 4.24,2.63 -0.9,1.22 -3.97,3.36 -5.8,6.17z"/>
    <path class="fil9" d="M115.99 90.04c3.49,-1.3 10.5,-9.12 12.33,-12.78 1.53,-3.06 1.98,-6.02 2.16,-9.67 0.18,-3.88 0.05,-7.48 -0.13,-11.35 -2.54,0.88 -5.19,0.63 -7.67,-0.2 -1.57,-0.52 -5.97,-3.15 -6.46,-3.2 -0.75,-0.08 -5.28,3.04 -8.02,3.53 -1.8,0.32 -4.78,0.39 -6.4,-0.13 -0.26,3.05 -0.42,6.36 -0.25,9.67 0.3,5.83 1.43,10.17 3.87,13.98 2.77,4.34 6.58,7.11 10.58,10.16z"/>
    <path class="fil0" d="M51.15 61.44c-3.36,0.68 -5.27,4.98 -2.81,8.14 1.06,1.36 2.36,1.83 4.75,1.89 2.18,0.05 4.39,0.12 6.54,-0.11 6.85,-0.73 3.41,-4 0.78,-6.02 -1.59,-1.22 -6.49,-4.45 -9.25,-3.89z"/>
    <path class="fil0" d="M66.02 84.9c-0.16,-0.51 -2.16,-2.53 -2.66,-3.17l-2.79 -3.24c-0.67,-0.84 -0.74,-0.8 -2.1,-0.79l-7.45 -0.01c-0.65,0.01 -0.69,0.05 -0.94,0.54 -1.83,3.53 1.29,5.82 4.15,6.6 0.79,0.21 10.08,0.05 11.78,0.08z"/>
   </g>
  </g>
 </g>
</svg>
