<?xml version="1.0" encoding="UTF-8"?>
<!DOCTYPE svg PUBLIC "-//W3C//DTD SVG 1.1//EN" "http://www.w3.org/Graphics/SVG/1.1/DTD/svg11.dtd">
<!-- Creator: CorelDRAW 2019 -->
<svg xmlns="http://www.w3.org/2000/svg" xml:space="preserve" width="36.5773mm" height="23.0717mm" version="1.1" style="shape-rendering:geometricPrecision; text-rendering:geometricPrecision; image-rendering:optimizeQuality; fill-rule:evenodd; clip-rule:evenodd"
viewBox="0 0 200584.54 126521.81"
 xmlns:xlink="http://www.w3.org/1999/xlink"
 xmlns:xodm="http://www.corel.com/coreldraw/odm/2003">
 <defs>
  <style type="text/css">
   <![CDATA[
    .fil1 {fill:white}
    .fil0 {fill:url(#id0);fill-rule:nonzero}
    .fil2 {fill:url(#id1);fill-rule:nonzero}
   ]]>
  </style>
  <linearGradient id="id0" gradientUnits="userSpaceOnUse" x1="3140.05" y1="55288.76" x2="193155.56" y2="70287.64">
   <stop offset="0" style="stop-opacity:1; stop-color:#00D9FF"/>
   <stop offset="1" style="stop-opacity:1; stop-color:#5A69F7"/>
  </linearGradient>
  <linearGradient id="id1" gradientUnits="userSpaceOnUse" x1="133904.18" y1="72013.96" x2="193725.88" y2="74754.79">
   <stop offset="0" style="stop-opacity:1; stop-color:#3B90FA"/>
   <stop offset="1" style="stop-opacity:1; stop-color:#5A69F7"/>
  </linearGradient>
 </defs>
 <g id="Слой_x0020_1">
  <metadata id="CorelCorpID_0Corel-Layer"/>
  <g id="_865153624">
   <path class="fil0" d="M122652.41 32375.02c-1088,-146.97 -2240.7,-673.97 -3061.09,-722.22l-462.29 7077.46c-824.22,15829.14 -956.38,40894.19 7560.04,55110.53 4963.98,8286.1 23928.24,28519.87 33059.41,32681.02 21602.54,-13211.15 37204.1,-32258.77 39980.03,-57711.52 1098.42,-10072.19 989.29,-20018.81 506.16,-30191.35l-457.9 -7073.07c-3706.54,1556.32 -11039.54,1175.19 -15105.27,763.35 -5424.63,-549.48 -10226.84,-1965.96 -15894.4,-5268.34 -5106.02,-2975.54 -6997.4,-4642.08 -8404,-5058.85 -1313.38,-388.81 -2204.51,311.48 -4894.89,2054.25 -9751.94,6315.21 -18242.59,9815.55 -32825.8,8338.75zm-110408.61 -11967.96l20679.06 0c2256.06,0 4081.08,-1825.03 4081.08,-4081.08 0,-2256.61 -1825.03,-4081.63 -4081.08,-4081.63l-20679.06 0c-2256.06,0 -4081.08,1825.03 -4081.08,4081.63 0,2256.06 1825.03,4081.08 4081.08,4081.08zm98225.13 -20407.06c6761.59,0 12243.8,5482.21 12243.8,12244.35 0,6762.14 -5482.21,12244.35 -12243.8,12244.35 -6762.69,0 -12243.8,-5482.21 -12243.8,-12244.35 0,-6762.14 5481.11,-12244.35 12243.8,-12244.35zm-56438.17 76844.14c-2067.41,-2067.96 -3448.8,-4614.11 -4176.5,-7365.91l-43109.67 43109.67c-3188.31,3188.86 -3188.31,8354.1 0,11541.87 3188.86,3189.41 8354.1,3189.41 11542.96,0l41514.96 -41514.41 -5771.76 -5771.21zm989.29 -34340.44l17715.04 -17715.59 5968.08 4298.79 7974.07 -7974.62c1334.22,-1333.67 2906.99,-2369.02 4627.82,-3176.8l-15081.69 -10441.8c-3245.34,-2156.25 -7548.52,-1729.06 -10299.77,1020.55l-22447.06 22447.6c-3188.86,3188.31 -3188.86,8354.1 0,11542.41 3188.86,3188.31 8354.65,3188.31 11543.51,-0.55zm59376.97 6472.59l-8010.26 0 0 -16324.88c0,-7169.04 -8769.23,-10943.03 -13936.66,-5769.56l-32647.57 32648.67c-3188.86,3188.86 -3188.86,8354.1 0,11542.41l18716.39 18716.94 -22798.02 22798.02c-3188.31,3188.86 -3188.31,8354.1 0,11541.87 3188.86,3189.41 8353.55,3189.41 11542.41,0l28569.78 -28569.23c3188.31,-3187.76 3188.31,-8353.55 0,-11542.41l-18716.94 -18716.94 12945.73 -12944.64 0 4783.02c0,4507.18 3654.44,8161.62 8163.26,8161.62l16657.2 0c-448.03,-5563.37 -553.32,-11147.03 -485.32,-16324.88zm-110315.93 -12243.8l20679.61 0c2255.51,0 4080.54,-1825.03 4080.54,-4081.08 0,-2256.61 -1825.03,-4082.18 -4080.54,-4082.18l-20679.61 0c-2256.06,0 -4081.08,1825.57 -4081.08,4082.18 0,2256.06 1825.03,4081.08 4081.08,4081.08zm28841.78 16325.43c2256.06,0 4081.08,-1825.03 4081.08,-4081.63 0,-2255.51 -1825.03,-4081.08 -4081.08,-4081.08l-20679.06 0c-2256.06,0 -4081.08,1825.57 -4081.08,4081.08 0,2256.61 1825.03,4081.63 4081.08,4081.63l20679.06 0z"/>
   <path class="fil1" d="M137322.81 95581.91c6468.2,8395.23 14076.5,14113.79 22341.22,20424.61 3006.8,-1123.64 14493.82,-11219.96 17554.91,-14539.34 9210.13,-9988.29 13217.18,-16763.59 14910.6,-30661.32 1283.22,-10523.51 714.55,-21211.54 231.97,-31772.9 -5915.98,2061.38 -12085.86,1395.64 -17869.14,-590.06 -3074.8,-1055.09 -13627.92,-7156.43 -14531.11,-7177.82 -1793.22,-41.68 -11571.48,6902.53 -18044.07,8041.52 -4101.37,721.13 -10880.51,895.51 -14580.47,-292.29 -570.87,6695.78 -834.64,18257.39 -394.84,25208.18 443.1,6995.75 1080.87,12354.02 2758.38,17427.69 1503.67,4547.21 3841.99,8866.29 7622.56,13931.73z"/>
   <path class="fil2" d="M159698.58 107808.71c6404.04,-2393.15 19285.07,-16751.53 22641.73,-23478.57 2808.28,-5627.53 3640.18,-11050.51 3959.34,-17760.55 338.9,-7129.01 94.87,-13737.05 -229.77,-20841.38 -4663.47,1624.87 -9522.16,1148.87 -14094.05,-368.51 -2880.67,-955.84 -10956.74,-5789.85 -11867.61,-5885.27 -1384.67,-145.87 -9692.16,5589.14 -14722.5,6474.24 -3307.86,581.84 -8775.26,722.77 -11759.03,-235.81 -477.64,5596.82 -768.84,11681.7 -452.42,17757.81 557.71,10708.87 2633.89,18675.81 7103.78,25681.43 5080.79,7963.1 12092.44,13060.89 19420.52,18656.62z"/>
  </g>
 </g>
</svg>
