<?xml version="1.0" encoding="UTF-8"?>
<!DOCTYPE svg PUBLIC "-//W3C//DTD SVG 1.1//EN" "http://www.w3.org/Graphics/SVG/1.1/DTD/svg11.dtd">
<!-- Creator: CorelDRAW 2019 -->
<svg xmlns="http://www.w3.org/2000/svg" xml:space="preserve" width="29.6333mm" height="29.6333mm" version="1.1" style="shape-rendering:geometricPrecision; text-rendering:geometricPrecision; image-rendering:optimizeQuality; fill-rule:evenodd; clip-rule:evenodd"
viewBox="0 0 42.89 42.89"
 xmlns:xlink="http://www.w3.org/1999/xlink"
 xmlns:xodm="http://www.corel.com/coreldraw/odm/2003">
 <defs>
  <style type="text/css">
   <![CDATA[
    .fil0 {fill:url(#id0);fill-rule:nonzero}
   ]]>
  </style>
  <linearGradient id="id0" gradientUnits="userSpaceOnUse" x1="0.6" y1="20.27" x2="41.38" y2="22.3">
   <stop offset="0" style="stop-opacity:1; stop-color:#00D9FF"/>
   <stop offset="1" style="stop-opacity:1; stop-color:#5A69F7"/>
  </linearGradient>
 </defs>
 <g id="Слой_x0020_1">
  <metadata id="CorelCorpID_0Corel-Layer"/>
  <path class="fil0" d="M20.68 19.15l0 3.06 2.3 0 0 -2.3c0,-0.42 0.34,-0.77 0.77,-0.77l10.72 0c0.42,0 0.77,0.34 0.77,0.77l0 2.3 2.3 0 0 -3.06c0,-1.27 -1.03,-2.3 -2.3,-2.3l-12.26 0c-1.27,0 -2.3,1.03 -2.3,2.3zm16.09 22.98c0,0.42 0.34,0.77 0.77,0.77l2.3 0c0.42,0 0.77,-0.34 0.77,-0.77l0 -0.77 -3.83 0 0 0.77zm-19.15 0c0,0.42 0.34,0.77 0.77,0.77l2.3 0c0.42,0 0.77,-0.34 0.77,-0.77l0 -0.77 -3.83 0 0 0.77zm24.51 -18.38l-5.36 0 0 2.83c0.12,0.06 0.22,0.14 0.32,0.24l1.53 1.53c0.29,0.29 0.45,0.68 0.45,1.08l0 4.28c0,0.85 -0.69,1.53 -1.53,1.53l-0.77 0 0 4.6 5.36 0c0.42,0 0.77,-0.34 0.77,-0.77l0 -14.55c0,-0.42 -0.34,-0.77 -0.77,-0.77zm-9.19 9.96l0 -4.28c-0,-0.41 0.16,-0.8 0.45,-1.08l1.53 -1.53c0.09,-0.09 0.2,-0.17 0.32,-0.24l0 -2.83 -12.26 0 0 16.09 12.26 0 0 -4.6 -0.77 0c-0.85,0 -1.53,-0.69 -1.53,-1.53zm-16.85 -9.96c-0.42,0 -0.77,0.34 -0.77,0.77l0 14.55c0,0.42 0.34,0.77 0.77,0.77l5.36 0 0 -16.09 -5.36 0zm3.06 3.06l-0.77 0 0 3.06c0,0.42 -0.34,0.77 -0.77,0.77 -0.42,0 -0.77,-0.34 -0.77,-0.77l0 -3.83c0,-0.42 0.34,-0.77 0.77,-0.77l1.53 0c0.42,0 0.77,0.34 0.77,0.77 0,0.42 -0.34,0.77 -0.77,0.77zm-16.85 15.32c0,0.42 0.34,0.77 0.77,0.77l1.53 0c0.42,0 0.77,-0.34 0.77,-0.77l0 -2.3 -3.06 0 0 2.3zm3.83 -36.77l1.53 0c0.42,0 0.77,-0.34 0.77,-0.77l0 -1.53c0,-0.42 0.34,-0.77 0.77,-0.77l6.89 0c0.42,0 0.77,0.34 0.77,0.77l0 1.53c0,0.42 0.34,0.77 0.77,0.77l1.53 0c0.42,0 0.77,-0.34 0.77,-0.77l0 -3.83c0,-0.42 -0.34,-0.77 -0.77,-0.77l-13.02 0c-0.42,0 -0.77,0.34 -0.77,0.77l0 3.83c0,0.42 0.34,0.77 0.77,0.77zm11.49 5.36l1.53 0 0 -3.83 -1.53 0 0 3.83zm16.85 18.7l0 4.28 3.06 0 -0 -4.28 -1.53 -1.53 -0 0 -0 -0 -1.53 1.53zm-28.34 -18.7l1.53 0 0 -3.83 -1.53 0 0 3.83zm13.02 11.49l0 -3.06c0,-2.11 1.72,-3.83 3.83,-3.83l2.3 0 0 -1.53c0,-0.85 -0.69,-1.53 -1.53,-1.53l-22.21 0c-0.85,0 -1.53,0.69 -1.53,1.53l0 22.98c0,0.85 0.69,1.53 1.53,1.53l12.26 0 0 -13.79c0,-1.27 1.03,-2.3 2.3,-2.3l3.06 0zm-15.32 13.02c0,0.42 -0.34,0.77 -0.77,0.77 -0.42,0 -0.77,-0.34 -0.77,-0.77l0 -19.92c0,-0.42 0.34,-0.77 0.77,-0.77 0.42,0 0.77,0.34 0.77,0.77l0 19.92zm3.83 0c0,0.42 -0.34,0.77 -0.77,0.77 -0.42,0 -0.77,-0.34 -0.77,-0.77l0 -19.92c0,-0.42 0.34,-0.77 0.77,-0.77 0.42,0 0.77,0.34 0.77,0.77l0 19.92zm3.83 0c0,0.42 -0.34,0.77 -0.77,0.77 -0.42,0 -0.77,-0.34 -0.77,-0.77l0 -19.92c0,-0.42 0.34,-0.77 0.77,-0.77 0.42,0 0.77,0.34 0.77,0.77l0 19.92zm3.83 -15.32c0,0.42 -0.34,0.77 -0.77,0.77 -0.42,0 -0.77,-0.34 -0.77,-0.77l0 -4.6c0,-0.42 0.34,-0.77 0.77,-0.77 0.42,0 0.77,0.34 0.77,0.77l0 4.6z"/>
 </g>
</svg>
