<?xml version="1.0" encoding="UTF-8"?>
<!DOCTYPE svg PUBLIC "-//W3C//DTD SVG 1.1//EN" "http://www.w3.org/Graphics/SVG/1.1/DTD/svg11.dtd">
<!-- Creator: CorelDRAW 2019 -->
<svg xmlns="http://www.w3.org/2000/svg" xml:space="preserve" width="60.172mm" height="42.533mm" version="1.1" style="shape-rendering:geometricPrecision; text-rendering:geometricPrecision; image-rendering:optimizeQuality; fill-rule:evenodd; clip-rule:evenodd"
viewBox="0 0 179.68 127.01"
 xmlns:xlink="http://www.w3.org/1999/xlink"
 xmlns:xodm="http://www.corel.com/coreldraw/odm/2003">
 <defs>
  <style type="text/css">
   <![CDATA[
    .str0 {stroke:white;stroke-width:2.11;stroke-miterlimit:22.9256}
    .str1 {stroke:#E6E6E6;stroke-width:0.6;stroke-miterlimit:22.9256}
    .fil5 {fill:none}
    .fil0 {fill:white}
    .fil1 {fill:#34DAEA;fill-rule:nonzero}
    .fil4 {fill:#5A69F7;fill-rule:nonzero}
    .fil2 {fill:url(#id1);fill-rule:nonzero}
    .fil6 {fill:url(#id2);fill-rule:nonzero}
    .fil3 {fill:url(#id3);fill-rule:nonzero}
   ]]>
  </style>
    <clipPath id="id0">
     <path d="M9.72 126.71l160.25 0c5.18,0 9.42,-4.24 9.42,-9.42l0 -107.58c0,-5.18 -4.24,-9.42 -9.42,-9.42l-160.25 0c-5.18,0 -9.42,4.24 -9.42,9.42l0 107.58c0,5.18 4.24,9.42 9.42,9.42z"/>
    </clipPath>
  <linearGradient id="id1" gradientUnits="userSpaceOnUse" x1="385.62" y1="-132.52" x2="487.54" y2="-35.58">
   <stop offset="0" style="stop-opacity:1; stop-color:#905EF2"/>
   <stop offset="1" style="stop-opacity:1; stop-color:#4859F7"/>
  </linearGradient>
  <linearGradient id="id2" gradientUnits="userSpaceOnUse" x1="49.21" y1="60.18" x2="133.35" y2="64.37">
   <stop offset="0" style="stop-opacity:1; stop-color:#00D9FF"/>
   <stop offset="1" style="stop-opacity:1; stop-color:#5A69F7"/>
  </linearGradient>
  <linearGradient id="id3" gradientUnits="userSpaceOnUse" x1="-40.89" y1="216.83" x2="137.32" y2="164.66">
   <stop offset="0" style="stop-opacity:1; stop-color:#00D9FF"/>
   <stop offset="0.419608" style="stop-opacity:1; stop-color:#1B75FD"/>
   <stop offset="1" style="stop-opacity:1; stop-color:#B357EF"/>
  </linearGradient>
 </defs>
 <g id="Слой_x0020_1">
  <metadata id="CorelCorpID_0Corel-Layer"/>
  <g id="_938600008">
   <path class="fil0" d="M9.72 126.71l160.25 0c5.18,0 9.42,-4.24 9.42,-9.42l0 -107.58c0,-5.18 -4.24,-9.42 -9.42,-9.42l-160.25 0c-5.18,0 -9.42,4.24 -9.42,9.42l0 107.58c0,5.18 4.24,9.42 9.42,9.42z"/>
   <g style="clip-path:url(#id0)">
    <g>
     <path id="1" class="fil1" d="M176.56 316.01c-0.62,11.88 46.56,-72.93 50.63,-81.82 15.66,-34.22 43.69,-137.67 41.97,-161.58l-74.71 48.42c-89.04,55.71 -14.35,127.61 -17.89,194.98z"/>
     <path class="fil2" d="M523.06 -64.08l-170.68 0.96c-2.52,0.01 -4.58,-2.02 -4.6,-4.55l-0.17 -30.53c-0,-0.61 0.29,-1.19 0.8,-1.53 10.5,-6.97 24.65,-8.22 37.27,-5.66 15.26,3.1 29.1,10.81 43.33,17.12 14.23,6.31 29.86,11.35 45.19,8.63 14.46,-2.56 26.76,-11.65 39.81,-18.4 3.48,-1.8 7.19,-3.43 10.99,-4.72 1.19,-0.4 2.42,0.47 2.43,1.72l0.18 32.36c0.01,2.52 -2.02,4.58 -4.55,4.6z"/>
     <path class="fil3" d="M98.24 159.55l-104.39 0c-15.63,0 -28.29,12.67 -28.29,28.29 0,15.63 12.67,28.3 28.29,28.3l104.39 0c15.63,0 28.3,-12.67 28.3,-28.3 0,-15.63 -12.67,-28.29 -28.3,-28.29z"/>
     <path class="fil4 str0" d="M-1053.49 -343.4c-48.57,-30.27 415.9,17.24 462.13,25.67 178.12,32.49 566.29,95.69 655.85,168.33l-299.71 272.49c-464.96,197.71 -542.79,-294.9 -818.26,-466.49z"/>
    </g>
   </g>
   <path class="fil5 str1" d="M9.72 126.71l160.25 0c5.18,0 9.42,-4.24 9.42,-9.42l0 -107.58c0,-5.18 -4.24,-9.42 -9.42,-9.42l-160.25 0c-5.18,0 -9.42,4.24 -9.42,9.42l0 107.58c0,5.18 4.24,9.42 9.42,9.42z"/>
   <path class="fil6" d="M90.65 57.87l0 6.32 4.74 0 0 -4.74c0,-0.87 0.71,-1.58 1.58,-1.58l22.12 0c0.87,0 1.58,0.71 1.58,1.58l0 4.74 4.74 0 0 -6.32c0,-2.62 -2.12,-4.74 -4.74,-4.74l-25.28 0c-2.62,0 -4.74,2.12 -4.74,4.74zm33.18 47.4c0,0.87 0.71,1.58 1.58,1.58l4.74 0c0.87,0 1.58,-0.71 1.58,-1.58l0 -1.58 -7.9 0 0 1.58zm-39.5 0c0,0.87 0.71,1.58 1.58,1.58l4.74 0c0.87,0 1.58,-0.71 1.58,-1.58l0 -1.58 -7.9 0 0 1.58zm50.57 -37.92l-11.06 0 0 5.83c0.24,0.13 0.46,0.3 0.65,0.49l3.16 3.16c0.6,0.59 0.93,1.4 0.93,2.23l0 8.83c0,1.75 -1.42,3.16 -3.16,3.16l-1.58 0 0 9.48 11.06 0c0.87,0 1.58,-0.71 1.58,-1.58l0 -30.02c0,-0.87 -0.71,-1.58 -1.58,-1.58zm-18.96 20.54l0 -8.83c-0,-0.84 0.33,-1.64 0.93,-2.23l3.16 -3.16c0.2,-0.19 0.42,-0.35 0.65,-0.49l0 -5.83 -25.28 0 0 33.18 25.28 0 0 -9.48 -1.58 0c-1.75,0 -3.16,-1.42 -3.16,-3.16zm-34.76 -20.54c-0.87,0 -1.58,0.71 -1.58,1.58l0 30.02c0,0.87 0.71,1.58 1.58,1.58l11.06 0 0 -33.18 -11.06 0zm6.32 6.32l-1.58 0 0 6.32c0,0.87 -0.71,1.58 -1.58,1.58 -0.87,0 -1.58,-0.71 -1.58,-1.58l0 -7.9c0,-0.87 0.71,-1.58 1.58,-1.58l3.16 0c0.87,0 1.58,0.71 1.58,1.58 0,0.87 -0.71,1.58 -1.58,1.58zm-34.76 31.6c0,0.87 0.71,1.58 1.58,1.58l3.16 0c0.87,0 1.58,-0.71 1.58,-1.58l0 -4.74 -6.32 0 0 4.74zm7.9 -75.85l3.16 0c0.87,0 1.58,-0.71 1.58,-1.58l0 -3.16c0,-0.87 0.71,-1.58 1.58,-1.58l14.22 0c0.87,0 1.58,0.71 1.58,1.58l0 3.16c0,0.87 0.71,1.58 1.58,1.58l3.16 0c0.87,0 1.58,-0.71 1.58,-1.58l0 -7.9c0,-0.87 -0.71,-1.58 -1.58,-1.58l-26.86 0c-0.87,0 -1.58,0.71 -1.58,1.58l0 7.9c0,0.87 0.71,1.58 1.58,1.58zm23.7 11.06l3.16 0 0 -7.9 -3.16 0 0 7.9zm34.76 38.58l0 8.83 6.32 0 -0 -8.83 -3.15 -3.15 -0.01 0 -0.01 -0 -3.15 3.15zm-58.47 -38.58l3.16 0 0 -7.9 -3.16 0 0 7.9zm26.86 23.7l0 -6.32c0.01,-4.36 3.54,-7.9 7.9,-7.9l4.74 0 0 -3.16c0,-1.75 -1.41,-3.16 -3.16,-3.16l-45.82 0c-1.75,0 -3.16,1.41 -3.16,3.16l0 47.4c0,1.75 1.42,3.16 3.16,3.16l25.28 0 0 -28.44c0,-2.62 2.12,-4.74 4.74,-4.74l6.32 0zm-31.6 26.86c0,0.87 -0.71,1.58 -1.58,1.58 -0.87,0 -1.58,-0.71 -1.58,-1.58l0 -41.08c0,-0.87 0.71,-1.58 1.58,-1.58 0.87,0 1.58,0.71 1.58,1.58l0 41.08zm7.9 0c0,0.87 -0.71,1.58 -1.58,1.58 -0.87,0 -1.58,-0.71 -1.58,-1.58l0 -41.08c0,-0.87 0.71,-1.58 1.58,-1.58 0.87,0 1.58,0.71 1.58,1.58l0 41.08zm7.9 0c0,0.87 -0.71,1.58 -1.58,1.58 -0.87,0 -1.58,-0.71 -1.58,-1.58l0 -41.08c0,-0.87 0.71,-1.58 1.58,-1.58 0.87,0 1.58,0.71 1.58,1.58l0 41.08zm7.9 -31.6c0,0.87 -0.71,1.58 -1.58,1.58 -0.87,0 -1.58,-0.71 -1.58,-1.58l0 -9.48c0,-0.87 0.71,-1.58 1.58,-1.58 0.87,0 1.58,0.71 1.58,1.58l0 9.48z"/>
  </g>
 </g>
</svg>
