<?xml version="1.0" encoding="UTF-8"?>
<!DOCTYPE svg PUBLIC "-//W3C//DTD SVG 1.1//EN" "http://www.w3.org/Graphics/SVG/1.1/DTD/svg11.dtd">
<!-- Creator: CorelDRAW 2019 -->
<svg xmlns="http://www.w3.org/2000/svg" xml:space="preserve" width="21.6694mm" height="28.448mm" version="1.1" style="shape-rendering:geometricPrecision; text-rendering:geometricPrecision; image-rendering:optimizeQuality; fill-rule:evenodd; clip-rule:evenodd"
viewBox="0 0 22.87 30.02"
 xmlns:xlink="http://www.w3.org/1999/xlink"
 xmlns:xodm="http://www.corel.com/coreldraw/odm/2003">
 <defs>
  <style type="text/css">
   <![CDATA[
    .fil0 {fill:url(#id0);fill-rule:nonzero}
   ]]>
  </style>
  <linearGradient id="id0" gradientUnits="userSpaceOnUse" x1="0.31" y1="14.48" x2="22.07" y2="15.31">
   <stop offset="0" style="stop-opacity:1; stop-color:#00D9FF"/>
   <stop offset="1" style="stop-opacity:1; stop-color:#5A69F7"/>
  </linearGradient>
 </defs>
 <g id="Слой_x0020_1">
  <metadata id="CorelCorpID_0Corel-Layer"/>
  <path class="fil0" d="M10.55 19.42l1.76 0 0 -1.76 -1.76 0 0 1.76zm0.88 -19.42l-11.43 5.72 0 8.73c0,7.03 4.48,13.25 11.15,15.48l0.28 0.09 0.28 -0.09c6.67,-2.22 11.15,-8.44 11.15,-15.48l0 -8.73 -11.43 -5.72zm7.37 14.84l-1.22 -0.95 0 7.29 -12.31 0 0 -7.29 -1.22 0.95 -1.08 -1.39 8.46 -6.58 2.64 2.05 0 -1.82 1.76 0 0 3.19 4.06 3.16 -1.08 1.39zm-11.77 -2.32l0 6.9 1.76 0 0 -3.52 5.28 0 0 3.52 1.76 0 0 -6.9 -4.4 -3.42 -4.4 3.42z"/>
 </g>
</svg>
