<?xml version="1.0" encoding="UTF-8"?>
<!DOCTYPE svg PUBLIC "-//W3C//DTD SVG 1.1//EN" "http://www.w3.org/Graphics/SVG/1.1/DTD/svg11.dtd">
<!-- Creator: CorelDRAW 2019 -->
<svg xmlns="http://www.w3.org/2000/svg" xml:space="preserve" width="31.708mm" height="21.0002mm" version="1.1" style="shape-rendering:geometricPrecision; text-rendering:geometricPrecision; image-rendering:optimizeQuality; fill-rule:evenodd; clip-rule:evenodd"
viewBox="0 0 191212.87 126640.23"
 xmlns:xlink="http://www.w3.org/1999/xlink"
 xmlns:xodm="http://www.corel.com/coreldraw/odm/2003">
 <defs>
  <style type="text/css">
   <![CDATA[
    .fil1 {fill:white}
    .fil4 {fill:white}
    .fil5 {fill:white;fill-rule:nonzero}
    .fil3 {fill:url(#id0);fill-rule:nonzero}
    .fil0 {fill:url(#id1);fill-rule:nonzero}
    .fil2 {fill:url(#id2);fill-rule:nonzero}
   ]]>
  </style>
  <linearGradient id="id0" gradientUnits="userSpaceOnUse" x1="118608.3" y1="42268.49" x2="172586.08" y2="94145.26">
   <stop offset="0" style="stop-opacity:1; stop-color:#4188F9"/>
   <stop offset="1" style="stop-opacity:1; stop-color:#5A69F7"/>
  </linearGradient>
  <linearGradient id="id1" gradientUnits="userSpaceOnUse" xlink:href="#id0" x1="103927.22" y1="28952.7" x2="186599.59" y2="108392.15">
  </linearGradient>
  <linearGradient id="id2" gradientUnits="userSpaceOnUse" x1="4037.98" y1="17770.47" x2="128162.31" y2="98961.16">
   <stop offset="0" style="stop-opacity:1; stop-color:#00D9FF"/>
   <stop offset="1" style="stop-opacity:1; stop-color:#5A69F7"/>
  </linearGradient>
 </defs>
 <g id="Слой_x0020_1">
  <metadata id="CorelCorpID_0Corel-Layer"/>
  <path class="fil0" d="M105513.22 23109.81c-1196.44,-161.62 -2464.03,-741.14 -3366.19,-794.21l-508.37 7782.87c-906.37,17406.84 -1051.71,44970.12 8313.55,60603.41 5458.75,9111.98 26313.18,31362.46 36354.45,35938.35 23755.67,-14527.91 40912.25,-35474 43964.85,-63463.64 1207.9,-11076.09 1087.89,-22014.08 556.61,-33200.53l-503.54 -7778.05c-4075.97,1711.44 -12139.86,1292.32 -16610.82,839.44 -5965.3,-604.25 -11246.15,-2161.91 -17478.6,-5793.43 -5614.93,-3272.11 -7694.83,-5104.76 -9241.63,-5563.07 -1444.29,-427.56 -2424.23,342.53 -5382.76,2259 -10723.91,6944.64 -20060.83,10793.87 -36097.55,9169.87z"/>
  <path class="fil1" d="M121488.44 92616.55c7112.89,9231.99 15479.51,15520.52 24567.97,22460.34 3306.48,-1235.64 15938.43,-12338.26 19304.61,-15988.48 10128.11,-10983.82 14534.54,-18434.42 16396.74,-33717.34 1411.12,-11572.39 785.77,-23325.7 255.09,-34939.71 -6505.63,2266.84 -13290.46,1534.74 -19650.16,-648.87 -3381.26,-1160.25 -14986.22,-7869.71 -15979.43,-7893.23 -1971.95,-45.83 -12724.81,7590.5 -19842.53,8843.02 -4510.16,793 -11964.98,984.77 -16033.71,-321.42 -627.77,7363.15 -917.83,20077.11 -434.19,27720.68 487.26,7693.02 1188.6,13585.35 3033.31,19164.71 1653.54,5000.43 4224.92,9750 8382.3,15320.31z"/>
  <path class="fil2" d="M5839.87 43768.86c-7059.22,11877.53 -5673.43,17441.81 -5775.34,32535.98 -25.33,8294.86 -793,13742.75 3727.41,20385.87 548.77,806.27 1823,2082.91 1984.01,2974.81 205.03,1134.32 120.61,8408.23 9.05,9772.31 1006.48,2276.49 1312.82,5196.42 5523.87,7180.43 2962.15,1396.04 8203.19,912.4 11782.86,911.2 4341.31,-1.81 7732.82,233.98 10485.71,-2212.56 2790.88,-2480.32 3459.05,-4671.77 3459.05,-9544.96l21326.01 -1.81 45524.92 2.41 10030.41 -7.24c-451.08,-947.38 -1374.94,-1800.08 -2076.88,-2712.49 -859.34,-1117.44 -1657.16,-1867.62 -2260.81,-3138.84 -679.63,-339.51 -2682.34,-3349.3 -3037.53,-4220.7 -10807.74,-78.4 -21645.02,1.81 -32456.38,3.62 -4040.99,0.6 -12226.7,490.27 -15523.53,-711.59 -3608.61,-1316.44 -6477.89,-4695.9 -6625.03,-9614.31l48968.9 -48.85 -2224.02 -7081.53c-11216.6,38.59 -22439.23,11.46 -33656.43,11.46 -2522.53,0 -5908.62,308.76 -8050.02,-572.89 -5622.17,-2315.69 -8756.18,-10829.45 -8322.6,-16489l47270.73 -1.21c-630.78,-8386.52 -1250.11,-17238.59 -849.69,-25713.15l46.43 -1954.46 -66233.42 -0.6c379.92,-920.24 13072.77,-12723.6 14840.89,-14443.48 7784.08,-7858.25 8170.63,-9441.84 20003.54,-9441.24l44263.96 -5.43c2978.43,0.6 7245.56,-358.21 10368.12,399.82 3685.2,895.52 7631.51,5488.9 9312.79,4754.39 1673.44,-730.89 6435.07,-2947.67 7411.4,-3917.97 -3753.34,-3779.87 -6459.19,-6516.48 -11386.05,-8923.23 -1601.68,-782.15 -3446.39,-1353.83 -6447.13,-1752.44 -4452.87,-385.34 -49577.37,-67.54 -55335.22,-67.54 -10979,0 -14433.83,2499.01 -20074.7,7754.53 -3588.11,3343.27 -10752.86,10860.2 -14070.2,13538.92 -613.9,-4595.79 -1832.04,-7131.59 -6748.65,-7344.46 -7709.9,-333.48 -18658.15,3067.08 -12030.71,11928.19 2554.49,3415.64 7828.1,4664.54 8554.77,5315.22 -1808.53,2473.68 -8016.85,6792.07 -11710.49,12452.84z"/>
  <path class="fil3" d="M146166.16 106061.99c7042.34,-2631.68 21207.21,-18421.15 24898.44,-25818.68 3088.18,-6188.43 4003,-12151.92 4353.97,-19530.75 372.68,-7839.56 104.33,-15106.23 -252.68,-22918.65 -5128.28,1786.82 -10471.24,1263.38 -15498.81,-405.24 -3167.78,-1051.1 -12048.8,-6366.93 -13050.45,-6471.86 -1522.68,-160.41 -10658.18,6146.21 -16189.89,7119.53 -3637.56,639.83 -9649.89,794.81 -12931.05,-259.31 -525.25,6154.66 -845.47,12846.02 -497.51,19527.74 613.29,11776.22 2896.42,20537.23 7811.82,28241.11 5587.19,8756.79 13297.7,14362.67 21356.16,20516.13z"/>
  <path class="fil4" d="M15303.42 48289.87c-6787.25,1373.13 -10638.28,10052.12 -5684.28,16428.7 2132.36,2744.45 4764.64,3705.7 9589.59,3810.03 4394.37,95.28 8856.29,250.87 13197.6,-215.29 13825.97,-1483.49 6881.93,-8086.2 1573.94,-12165.79 -3217.23,-2472.48 -13111.96,-8983.53 -18676.84,-7857.65z"/>
  <path class="fil4" d="M45327.12 95672.17c-318.41,-1027.59 -4363.62,-5102.95 -5375.53,-6404.32l-5632.42 -6540c-1360.46,-1686.71 -1502.18,-1610.12 -4236.98,-1598.06l-15038.08 -20.5c-1303.78,12.06 -1388.81,92.87 -1901.39,1081.26 -3702.08,7138.22 2602.13,11756.93 8385.31,13326.65 1587.81,430.57 20357.52,92.87 23799.09,154.98z"/>
  <path class="fil5" d="M146225.26 83955.04c-3738.87,0 -7109.27,-806.27 -10110.62,-2418.2 -3001.34,-1612.54 -5350.8,-3833.54 -7048.97,-6663.02 -1698.17,-2830.08 -2546.65,-6011.74 -2546.65,-9544.96 0,-3532.63 848.48,-6714.28 2546.65,-9544.36 1698.17,-2830.08 4047.62,-5051.09 7048.97,-6663.02 3001.34,-1612.54 6371.75,-2418.2 10110.62,-2418.2 3738.87,0 7100.23,805.67 10084.69,2418.2 2984.46,1611.93 5333.92,3832.94 7048.97,6663.02 1715.05,2830.08 2572.58,6011.74 2572.58,9544.36 0,3533.23 -857.53,6714.88 -2572.58,9544.96 -1715.05,2829.48 -4064.51,5050.48 -7048.97,6663.02 -2984.46,1611.93 -6345.82,2418.2 -10084.69,2418.2zm0 -7100.83c2126.93,0 4047.62,-488.46 5762.68,-1466 1715.05,-977.53 3061.65,-2341.01 4039.18,-4090.44 977.53,-1749.43 1466,-3738.87 1466,-5968.92 0,-2229.45 -488.46,-4218.89 -1466,-5968.32 -977.53,-1749.43 -2324.13,-3112.91 -4039.18,-4090.44 -1715.05,-977.53 -3635.75,-1466.6 -5762.68,-1466.6 -2126.93,0 -4047.62,489.07 -5762.68,1466.6 -1715.05,977.53 -3061.65,2341.01 -4039.18,4090.44 -977.53,1749.43 -1466.6,3738.87 -1466.6,5968.32 0,2230.05 489.07,4219.49 1466.6,5968.92 977.53,1749.43 2324.13,3112.91 4039.18,4090.44 1715.05,977.53 3635.75,1466 5762.68,1466z"/>
 </g>
</svg>
