<?xml version="1.0" encoding="UTF-8"?>
<!DOCTYPE svg PUBLIC "-//W3C//DTD SVG 1.1//EN" "http://www.w3.org/Graphics/SVG/1.1/DTD/svg11.dtd">
<!-- Creator: CorelDRAW 2019 -->
<svg xmlns="http://www.w3.org/2000/svg" xml:space="preserve" width="28.7492mm" height="31.2905mm" version="1.1" style="shape-rendering:geometricPrecision; text-rendering:geometricPrecision; image-rendering:optimizeQuality; fill-rule:evenodd; clip-rule:evenodd"
viewBox="0 0 48249.65 52514.7"
 xmlns:xlink="http://www.w3.org/1999/xlink"
 xmlns:xodm="http://www.corel.com/coreldraw/odm/2003">
 <defs>
  <style type="text/css">
   <![CDATA[
    .fil2 {fill:white}
    .fil3 {fill:white;fill-rule:nonzero}
    .fil1 {fill:url(#id0);fill-rule:nonzero}
    .fil0 {fill:url(#id1);fill-rule:nonzero}
   ]]>
  </style>
  <linearGradient id="id0" gradientUnits="userSpaceOnUse" x1="3207.22" y1="27507.09" x2="43204.19" y2="47843.17">
   <stop offset="0" style="stop-opacity:1; stop-color:#00D9FF"/>
   <stop offset="1" style="stop-opacity:1; stop-color:#5A69F7"/>
  </linearGradient>
  <linearGradient id="id1" gradientUnits="userSpaceOnUse" xlink:href="#id0" x1="1142.75" y1="4063.66" x2="46075.59" y2="16545.81">
  </linearGradient>
 </defs>
 <g id="Слой_x0020_1">
  <metadata id="CorelCorpID_0Corel-Layer"/>
  <path class="fil0" d="M22708.68 2330.98l2832.46 0 0 -2330.98 -2832.46 0 0 2330.98zm-6830.33 7085.93c-1853.17,3049.29 -2941.04,7042.97 -3108.04,11348.13l9938.36 0 0 -16103.41 -176.39 0c-2392.41,0 -4817.88,1733.51 -6653.94,4755.28zm16458.88 -4258.67c3426.24,3221.99 5734.74,8915.94 5975.91,15606.8l9936.52 0c-336.16,-4174.09 -2471.96,-8059.85 -6099.93,-11045.53 -2750.05,-2263.01 -6128.97,-3819.46 -9812.49,-4561.27zm-22401.05 15606.8c241.51,-6690.86 2550,-12384.81 5976.07,-15606.8 -3683.35,741.81 -7062.27,2298.26 -9812.32,4561.27 -3628.14,2985.69 -5763.94,6871.44 -6099.93,11045.53l9936.18 0zm15604.96 -875.4l0 875.4 9938.19 0c-166.82,-4305.16 -1254.86,-8298.84 -3108.37,-11348.13 -1835.89,-3021.77 -4261.19,-4755.28 -6653.27,-4755.28l-176.56 0 0 15228.01z"/>
  <g id="_993477480">
   <path class="fil1" d="M45793.3 34019.05c1768.25,2974.95 1421.18,4368.6 1446.69,8149.3 6.21,2077.73 198.54,3442.18 -933.64,5106.21 -137.45,201.9 -456.66,521.61 -496.94,745 -274.23,1516.84 582.7,3318.83 -1385.94,4246.26 -741.97,349.76 -2054.57,228.58 -2951.28,228.25 -1087.37,-0.5 -1936.92,58.57 -2626.36,-554.17 -699.01,-621.3 -866.34,-1170.11 -866.34,-2390.73l-5341.68 -0.5c-4764.51,0.34 -12261.46,0.34 -17025.97,0l-5341.68 0.5c0,1220.62 -167.33,1769.43 -866.34,2390.73 -689.44,612.75 -1539,553.67 -2626.36,554.17 -896.71,0.34 -2209.31,121.51 -2951.28,-228.25 -1968.64,-927.43 -1111.7,-2729.41 -1385.94,-4246.26 -40.28,-223.38 -359.49,-543.1 -496.94,-745 -1132.18,-1664.03 -939.85,-3028.48 -933.64,-5106.21 25.51,-3780.7 -321.56,-5174.35 1446.69,-8149.3 925.08,-1417.99 2480.18,-2499.65 2933.16,-3119.11 -182.1,-163.13 -1502.91,-475.8 -2142.85,-1331.39 -1660,-2219.55 1082.33,-3071.28 3013.38,-2987.7 1231.53,53.37 1536.65,688.44 1690.38,1839.58 903.59,-729.72 1763.22,-1683.16 2635.6,-2570.31 594.62,-604.86 1196.12,-1179.67 1821.96,-1632.48 360.67,-278.76 723.18,-504.5 1140.4,-679.21 399.27,-193.84 859.79,-335.49 1605.96,-434.51 604.86,-52.36 6025.25,-52.87 9424.3,-42.46 3399.22,-10.41 7911.82,-9.9 8516.68,42.46 746.17,99.02 1206.69,240.67 1605.96,434.51 417.22,174.71 779.74,400.44 1140.4,679.21 1544.03,1117.07 2938.02,2975.79 4457.55,4202.79 153.73,-1151.14 458.85,-1786.21 1690.38,-1839.58 1931.05,-83.58 4673.38,768.16 3013.38,2987.7 -639.93,855.59 -1960.75,1168.26 -2142.85,1331.39 452.97,619.46 2008.08,1701.12 2933.16,3119.11z"/>
   <path class="fil2" d="M4831.14 35151.23c-1700.11,344.05 -2664.63,2517.95 -1423.7,4115.01 534.03,687.43 1193.44,928.27 2401.98,954.45 1100.63,23.83 2218.2,62.77 3305.57,-54.04 3463.16,-371.57 1723.78,-2025.37 394.23,-3047.11 -805.75,-619.29 -3284.26,-2250.26 -4678.08,-1968.3z"/>
   <path class="fil2" d="M12351.41 47019.46c-79.72,-257.45 -1093.07,-1278.19 -1346.5,-1604.11l-1410.78 -1638.18c-340.69,-422.43 -376.27,-403.29 -1061.19,-400.27l-3766.77 -5.03c-326.6,3.02 -347.91,23.16 -476.3,270.71 -927.26,1788.06 651.85,2944.9 2100.39,3338.13 397.76,107.75 5099,23.16 5961.14,38.77z"/>
   <path class="fil3" d="M22763.22 31452.26l17252.71 -0.17c-95.16,-230.43 -3274.35,-3186.92 -3717.26,-3617.73 -593.95,-599.82 -1015.87,-1053.47 -1399.53,-1394.66 -297.23,-204.42 -636.58,-460.86 -984.15,-649.16 -592.27,-246.21 -1338.78,-320.89 -2626.7,-320.89l-8525.07 -0.84 -5801.87 0.84c-1287.92,-0.17 -2034.26,74.68 -2626.7,320.89 -347.57,188.3 -686.93,444.75 -984.15,649.16 -383.49,341.2 -805.58,794.84 -1399.53,1394.66 -442.9,430.82 -3622.1,3387.3 -3717.26,3617.73l14529.51 0.17z"/>
   <path class="fil3" d="M33951.92 41780.49c785.61,-913.16 1193.44,-2350.79 1113.21,-3397.88l-21880.61 0c-78.21,1022.08 308.14,2416.24 1057.49,3331.42 651.01,795.34 2734.61,798.53 3657.51,798.53l12363.16 0c930.95,0 3012.37,54.38 3689.23,-732.07z"/>
   <path class="fil3" d="M33487.36 46273.62c438.71,-436.86 732.07,-1059.51 755.23,-1834.38l-10571.58 -8.73 -9663.96 8.73c23.16,772.52 314.51,1393.66 751.54,1830.68 652.69,652.69 1930.38,563.74 2732.6,577.33l12760.25 0c828.74,18.63 2480.02,178.74 3235.92,-573.64z"/>
   <path class="fil2" d="M43391.32 35151.23c1700.11,344.05 2664.63,2517.95 1423.7,4115.01 -534.03,687.43 -1193.44,928.27 -2401.98,954.45 -1100.63,23.83 -2218.2,62.77 -3305.57,-54.04 -3463.16,-371.57 -1723.78,-2025.37 -394.23,-3047.11 805.75,-619.29 3284.26,-2250.26 4678.08,-1968.3z"/>
   <path class="fil2" d="M35871.05 47019.46c79.72,-257.45 1093.07,-1278.19 1346.5,-1604.11l1410.78 -1638.18c340.69,-422.43 376.27,-403.29 1061.19,-400.27l3766.77 -5.03c326.6,3.02 347.91,23.16 476.3,270.71 927.26,1788.06 -651.85,2944.9 -2100.39,3338.13 -397.76,107.75 -5099,23.16 -5961.14,38.77z"/>
  </g>
 </g>
</svg>
