<?xml version="1.0" encoding="UTF-8"?>
<!DOCTYPE svg PUBLIC "-//W3C//DTD SVG 1.1//EN" "http://www.w3.org/Graphics/SVG/1.1/DTD/svg11.dtd">
<!-- Creator: CorelDRAW 2020 (64-Bit) -->
<svg xmlns="http://www.w3.org/2000/svg" xml:space="preserve" width="375px" height="186px" version="1.1" style="shape-rendering:geometricPrecision; text-rendering:geometricPrecision; image-rendering:optimizeQuality; fill-rule:evenodd; clip-rule:evenodd"
viewBox="0 0 39.05 19.36"
 xmlns:xlink="http://www.w3.org/1999/xlink"
 xmlns:xodm="http://www.corel.com/coreldraw/odm/2003">
 <defs>
  <style type="text/css">
   <![CDATA[
    .str1 {stroke:#334BAE;stroke-width:0.16;stroke-miterlimit:22.9256}
    .str0 {stroke:#334BAE;stroke-width:0.02;stroke-miterlimit:22.9256}
    .fil5 {fill:none}
    .fil2 {fill:#334BAE}
    .fil3 {fill:#A52CB0}
    .fil4 {fill:#C343CF}
    .fil0 {fill:#F4F6FE}
    .fil8 {fill:#FEFEFE;fill-rule:nonzero}
    .fil14 {fill:#F3B182;fill-rule:nonzero}
    .fil13 {fill:#EDEBED;fill-rule:nonzero}
    .fil17 {fill:#E2DDDF;fill-rule:nonzero}
    .fil15 {fill:#CD6837;fill-rule:nonzero}
    .fil19 {fill:#CCC4C3;fill-rule:nonzero}
    .fil16 {fill:#C4BBBB;fill-rule:nonzero}
    .fil10 {fill:#8E8EB0;fill-rule:nonzero}
    .fil9 {fill:#82809C;fill-rule:nonzero}
    .fil18 {fill:#1F3794;fill-rule:nonzero}
    .fil6 {fill:#334BAE;fill-rule:nonzero}
    .fil12 {fill:#816DF3;fill-rule:nonzero}
    .fil1 {fill:#E4EEFF;fill-rule:nonzero}
    .fil7 {fill:white;fill-rule:nonzero}
    .fil11 {fill:white;fill-rule:nonzero}
   ]]>
  </style>
   <clipPath id="id0">
    <path d="M0 0l39.05 0 0 19.36 -39.05 0 0 -19.36z"/>
   </clipPath>
 </defs>
 <g id="Слой_x0020_1">
  <metadata id="CorelCorpID_0Corel-Layer"/>
  <polygon class="fil0" points="0,0 39.05,0 39.05,19.36 0,19.36 "/>
  <g style="clip-path:url(#id0)">
   <g id="_2657005936384">
    <path id="1" class="fil1" d="M47.94 17.44l0.29 2.12 -15.18 0c-5.18,0 -8.14,-3.59 -8.26,-7.31 -0.17,-5.29 5.05,-8.58 10.6,-8.21 5.49,0.36 11.3,4.3 12.55,13.4z"/>
    <g>
     <path class="fil2" d="M36.37 17.3c0.25,0 0.45,-0.2 0.45,-0.45l0 -1.13c0,-0.25 -0.2,-0.45 -0.45,-0.45 -0.25,0 -0.45,0.2 -0.45,0.45l0 1.13c0,0.25 0.2,0.45 0.45,0.45z"/>
     <path class="fil2" d="M39.83 17.3c0.24,0 0.45,-0.2 0.45,-0.45l0 -1.13c0,-0.25 -0.21,-0.45 -0.45,-0.45 -0.25,0 -0.46,0.2 -0.46,0.45l0 1.13c0,0.25 0.21,0.45 0.46,0.45z"/>
     <polygon class="fil2 str0" points="36.23,6.89 36.51,6.89 36.51,2.56 36.23,2.56 "/>
     <polygon class="fil2 str0" points="39.69,6.89 39.96,6.89 39.96,2.56 39.69,2.56 "/>
     <polygon class="fil2" points="39.34,6.89 40.31,6.89 40.31,6.64 39.34,6.64 "/>
     <path class="fil3" d="M35.92 16.25l4.36 0c0.59,0 1.08,-0.48 1.08,-1.08l0 -7.2c0,-0.6 -0.49,-1.08 -1.08,-1.08l-4.36 0c-0.6,0 -1.08,0.48 -1.08,1.08l0 7.2c0,0.6 0.48,1.08 1.08,1.08z"/>
     <g>
      <path class="fil4" d="M35.85 7.89c0.13,0 0.23,0.11 0.23,0.24l0 6.88c0,0.13 -0.1,0.24 -0.23,0.24 -0.13,0 -0.24,-0.11 -0.24,-0.24l0 -6.88c0,-0.13 0.11,-0.24 0.24,-0.24z"/>
      <path class="fil4" d="M36.95 7.89c0.13,0 0.24,0.11 0.24,0.24l0 6.88c0,0.13 -0.11,0.24 -0.24,0.24 -0.13,0 -0.23,-0.11 -0.23,-0.24l0 -6.88c0,-0.13 0.1,-0.24 0.23,-0.24z"/>
      <path class="fil4" d="M38.06 7.89c0.13,0 0.23,0.11 0.23,0.24l0 6.88c0,0.13 -0.1,0.24 -0.23,0.24 -0.13,0 -0.24,-0.11 -0.24,-0.24l0 -6.88c0,-0.13 0.11,-0.24 0.24,-0.24z"/>
      <path class="fil4" d="M39.16 7.89c0.13,0 0.24,0.11 0.24,0.24l0 6.88c0,0.13 -0.11,0.24 -0.24,0.24 -0.13,0 -0.24,-0.11 -0.24,-0.24l0 -6.88c0,-0.13 0.11,-0.24 0.24,-0.24z"/>
      <path class="fil4" d="M40.26 7.89c0.13,0 0.24,0.11 0.24,0.24l0 6.88c0,0.13 -0.11,0.24 -0.24,0.24 -0.13,0 -0.23,-0.11 -0.23,-0.24l0 -6.88c0,-0.13 0.1,-0.24 0.23,-0.24z"/>
     </g>
     <polygon class="fil2" points="35.89,6.89 36.85,6.89 36.85,6.64 35.89,6.64 "/>
     <path class="fil5 str1" d="M36.37 2.56c0,-0.4 0.33,-0.73 0.73,-0.73"/>
     <line class="fil5 str1" x1="37.1" y1="1.83" x2="39.09" y2= "1.83" />
     <path class="fil5 str1" d="M39.09 1.83c0.4,0 0.74,0.33 0.74,0.73"/>
    </g>
    <g>
     <path class="fil6" d="M37.14 11.82c0,0.08 -0.07,0.15 -0.16,0.15 -0.08,0 -0.15,-0.07 -0.15,-0.15 0,-0.09 0.07,-0.16 0.15,-0.16 0.09,0 0.16,0.07 0.16,0.16zm0.12 0c0,-0.16 -0.12,-0.28 -0.28,-0.28l-0.4 0 0 0.55 0.4 0c0.16,0 0.28,-0.12 0.28,-0.27z"/>
     <path class="fil6" d="M26.89 11.82c0,-0.09 0.06,-0.16 0.15,-0.16 0.08,0 0.15,0.07 0.15,0.16 0,0.08 -0.07,0.15 -0.15,0.15 -0.09,0 -0.15,-0.07 -0.15,-0.15zm0.15 -0.28c-0.15,0 -0.28,0.12 -0.28,0.28 0,0.15 0.13,0.27 0.28,0.27l0.41 0 0 -0.55 -0.41 0z"/>
     <path class="fil6" d="M32.01 6.69c0.09,0 0.15,0.07 0.15,0.15 0,0.09 -0.06,0.15 -0.15,0.15 -0.08,0 -0.15,-0.06 -0.15,-0.15 0,-0.08 0.07,-0.15 0.15,-0.15zm0 -0.12c-0.15,0 -0.28,0.12 -0.28,0.27l0 0.41 0.56 0 0 -0.41c0,-0.15 -0.13,-0.27 -0.28,-0.27z"/>
     <path class="fil6" d="M32.01 16.94c-0.08,0 -0.15,-0.07 -0.15,-0.15 0,-0.09 0.07,-0.15 0.15,-0.15 0.09,0 0.15,0.06 0.15,0.15 0,0.08 -0.06,0.15 -0.15,0.15zm-0.28 -0.15c0,0.15 0.13,0.27 0.28,0.27 0.15,0 0.28,-0.12 0.28,-0.27l0 -0.41 -0.56 0 0 0.41z"/>
     <path class="fil7" d="M32.01 14.24c-1.34,0 -2.42,-1.09 -2.42,-2.42 0,-1.34 1.08,-2.43 2.42,-2.43 1.34,0 2.42,1.09 2.42,2.43 0,1.33 -1.08,2.42 -2.42,2.42zm0 -7.1c-2.58,0 -4.67,2.09 -4.67,4.68 0,2.58 2.09,4.67 4.67,4.67 2.58,0 4.67,-2.09 4.67,-4.67 0,-2.59 -2.09,-4.68 -4.67,-4.68z"/>
     <path class="fil6" d="M34.43 11.82c0,0.24 -0.03,0.47 -0.1,0.7l2.15 0.65c0.13,-0.43 0.2,-0.88 0.2,-1.35 0,-0.47 -0.07,-0.93 -0.2,-1.36l-2.15 0.65c0.07,0.23 0.1,0.46 0.1,0.71z"/>
     <path class="fil6" d="M30.66 7.34l0.65 2.16c0.22,-0.07 0.46,-0.11 0.7,-0.11 0.25,0 0.48,0.04 0.7,0.11l0.65 -2.16c-0.42,-0.13 -0.88,-0.2 -1.35,-0.2 -0.47,0 -0.92,0.07 -1.35,0.2z"/>
     <path class="fil6" d="M29.59 11.82c0,-0.25 0.04,-0.48 0.1,-0.71l-2.15 -0.65c-0.13,0.43 -0.2,0.89 -0.2,1.36 0,0.47 0.07,0.92 0.2,1.35l2.15 -0.65c-0.06,-0.23 -0.1,-0.46 -0.1,-0.7z"/>
     <path class="fil6" d="M33.36 16.29l-0.65 -2.16c-0.22,0.07 -0.45,0.11 -0.7,0.11 -0.24,0 -0.48,-0.04 -0.7,-0.11l-0.65 2.16c0.43,0.13 0.88,0.2 1.35,0.2 0.47,0 0.93,-0.07 1.35,-0.2z"/>
     <path class="fil8" d="M34.24 10.87c-0.06,-0.15 -0.14,-0.29 -0.23,-0.42 0,0 0,0 0,0 0.09,0.13 0.17,0.27 0.23,0.42 0,0 0,0 0,0z"/>
     <path class="fil9" d="M34.43 11.81c0,0 0,0 0,0l0 0c0,0 0,0 0,0zm0 0c0,0 0,0 0,0 0,0 0,0 0,0 0,0 0,0 0,0zm0 -0.01c0,0 0,0 0,0 0,0 0,0 0,0 0,0 0,0 0,0zm-0.12 -0.74c-0.02,-0.06 -0.04,-0.13 -0.07,-0.19 0,0 0,0 0,0 0.03,0.06 0.05,0.13 0.07,0.19 0,0 0,0 0,0z"/>
     <path class="fil10" d="M34.33 11.11c-0.01,-0.01 -0.01,-0.03 -0.02,-0.05 0,0 0,0 0,0 0.01,0.02 0.01,0.04 0.02,0.05l0 0z"/>
     <path class="fil11" d="M32.79 14.39l-0.08 -0.26c0.78,-0.23 1.39,-0.84 1.62,-1.61l0.22 0.06c-0.2,0.89 -0.88,1.59 -1.76,1.81zm1.64 -2.55l0 0c0,0 0,0 0,0zm0 0c0,0 0,0 0,0 0,0 0,0 0,0zm0 0c0,0 0,0 0,0 0,0 0,0 0,0zm0 -0.01c0,0 0,0 0,0 0,0 0,0 0,0zm0 0c0,0 0,0 0,0 0,0 0,0 0,0zm0 0c0,0 0,-0.01 0,-0.01 0,0 0,0.01 0,0.01zm0 -0.01c0,0 0,0 0,0 0,0 0,0 0,0zm0 0c0,0 0,0 0,0 0,0 0,0 0,0zm0 0l0 0c0,-0.01 0,-0.01 0,-0.01 0,0 0,0 0,0.01zm0 -0.01l0 0c0,0 0,0 0,0 0,0 0,0 0,0zm0 0c0,0 0,0 0,0 0,0 0,0 0,0 0,0 0,0 0,0zm0 -0.01c0,0 0,0 0,0 0,0 0,0 0,0 0,0 0,0 0,0zm0 0c0,0 0,0 0,0 0,0 0,0 0,0zm0 0c0,0 0,0 0,0 0,0 0,0 0,0zm-0.1 -0.69c-0.01,-0.01 -0.01,-0.03 -0.02,-0.05 -0.02,-0.06 -0.04,-0.13 -0.07,-0.19 -0.06,-0.15 -0.14,-0.29 -0.23,-0.42 0.17,0.19 0.3,0.4 0.41,0.64l-0.09 0.02z"/>
     <path class="fil12" d="M34.55 12.58l-0.22 -0.06c0.06,-0.22 0.1,-0.44 0.1,-0.68 0,0 0,0 0,0 0,0 0,0 0,0 0,0 0,0 0,0 0,0 0,0 0,0 0,0 0,0 0,0 0,-0.01 0,-0.01 0,-0.01 0,0 0,0 0,0 0,0 0,0 0,0 0,0 0,0 0,0 0,0 0,0 0,0 0,0 0,-0.01 0,-0.01 0,0 0,0 0,0 0,0 0,0 0,0 0,0 0,0 0,0 0,0 0,0 0,0l0 0c0,-0.01 0,-0.01 0,-0.01 0,0 0,0 0,0 0,0 0,0 0,0 0,0 0,0 0,0 0,0 0,0 0,0 0,0 0,0 0,0 0,0 0,0 0,0 0,0 0,0 0,-0.01 0,0 0,0 0,0 0,0 0,0 0,0 0,0 0,0 0,0 0,0 0,0 0,0 0,0 0,0 0,0 0,0 0,0 0,0 0,-0.24 -0.03,-0.47 -0.1,-0.69l0 0 0.09 -0.02c0.12,0.29 0.19,0.62 0.19,0.95 0,0.19 -0.02,0.37 -0.06,0.54z"/>
     <path class="fil8" d="M31.31 14.13c-0.44,-0.13 -0.82,-0.38 -1.12,-0.72 0,0 0,0 0,0 0.3,0.34 0.68,0.59 1.12,0.72l0 0z"/>
     <path class="fil13" d="M31.26 14.28c-0.43,-0.18 -0.8,-0.48 -1.07,-0.87 0.3,0.34 0.68,0.59 1.12,0.72l-0.05 0.15zm0.75 -0.04c0,0 0,0 0,0 0,0 0,0 0,0z"/>
     <path class="fil8" d="M32.01 14.24c0,0 0,0 0,0 0,0 0,0 0,0 0,0 0,0 0,0z"/>
     <path class="fil13" d="M32.01 14.24c0,0 0,0 0,0 0,0 0,0 0,0l0 0zm0.01 0c0,0 0,0 0,0 0,0 0,0 0,0z"/>
     <path class="fil8" d="M32.01 14.24c0,0 -0.01,0 -0.01,0 0,0 0,0 0,0 0,0 0,0 0.01,0z"/>
     <path class="fil13" d="M32.01 14.24c0,0 -0.01,0 -0.01,0 0,0 0.01,0 0.01,0 0,0 0,0 0,0zm0.01 0c0,0 0,0 0,0 0,0 0,0 0,0z"/>
     <path class="fil8" d="M32 14.24c0,0 0,0 0,0 0,0 0,0 0,0 0,0 0,0 0,0z"/>
     <path class="fil13" d="M32 14.24c0,0 0,0 0,0 0,0 0,0 0,0 0,0 0,0 0,0zm0.02 0c0,0 0.01,0 0.01,0 0,0 -0.01,0 -0.01,0z"/>
     <path class="fil8" d="M32 14.24c0,0 0,0 0,0 0,0 0,0 0,0 0,0 0,0 0,0z"/>
     <path class="fil13" d="M32 14.24c0,0 0,0 0,0 0,0 0,0 0,0 0,0 0,0 0,0zm0.03 0c0,0 0,0 0,0 0,0 0,0 0,0z"/>
     <path class="fil8" d="M31.99 14.24c0,0 0,0 0,0 0,0 0,0 0,0zm0 0c0,0 0,0 0,0 0,0 0,0 0,0z"/>
     <path class="fil12" d="M32.19 14.47c-0.33,0 -0.64,-0.07 -0.93,-0.19l0.05 -0.15 0 0c0.21,0.07 0.44,0.11 0.68,0.11 0,0 0,0 0,0 0,0 0,0 0,0 0,0 0,0 0,0 0,0 0,0 0.01,0 0,0 0,0 0,0 0,0 0,0 0,0 0,0 0,0 0,0 0,0 0,0 0,0 0,0 0,0 0,0 0,0 0,0 0,0 0,0 0,0 0,0 0,0 0.01,0 0.01,0 0,0 0,0 0,0 0,0 0,0 0,0 0,0 0,0 0,0l0 0c0,0 0,0 0,0 0.01,0 0.01,0 0.01,0 0,0 0,0 0,0 0,0 0,0 0,0 0,0 0,0 0,0 0,0 0,0 0,0 0,0 0.01,0 0.01,0 0,0 0,0 0,0 0,0 0,0 0,0 0.24,0 0.47,-0.04 0.68,-0.11l0.08 0.26c-0.19,0.05 -0.39,0.08 -0.6,0.08z"/>
     <path class="fil8" d="M27.35 12.1l0 0c0,0 0,0 0,0zm0 0c0,0 0,0 0,0 0,0 0,0 0,0zm0 0c0,0 0,0 0,0 0,0 0,0 0,0z"/>
     <path class="fil14" d="M27.35 12.08c0,0 0,0 0,0 0,0 0,0 0,0zm0 -0.01c0,0 0,0 0,0 0,0 0,0 0,0zm0 0c0,0 0,0 0,0 0,0 0,0 0,0zm0 0c0,0 0,0 0,0l0 0zm-0.01 -0.01c0,0 0,0 0,0 0,0 0,0 0,0zm0 -0.01c0,0 0,0 0,0 0,0 0,0 0,0zm0 0c0,0 0,0 0,0 0,0 0,0 0,0zm0 0c0,0 0,0 0,0 0,0 0,0 0,0zm0 -0.01c0,0 0,0 0,0 0,0 0,0 0,0zm0 0c0,0 0,0 0,0 0,0 0,0 0,0zm0 -0.01c0,0 0,0 0,0 0,0 0,0 0,0zm0 -0.01c0,0 0,0 0,0 0,0 0,0 0,0zm0 0c0,0 0,0 0,0 0,0 0,0 0,0zm0 0c0,0 0,0 0,0 0,0 0,0 0,0zm0 -0.01c0,0 0,0 0,0 0,0 0,0 0,0zm0 0c0,0 0,0 0,0 0,0 0,0 0,0zm0 0c0,0 0,-0.01 0,-0.01 0,0 0,0.01 0,0.01zm0 -0.01c0,0 0,0 0,0 0,0 0,0 0,0zm0 0c0,0 0,0 0,0 0,0 0,0 0,0zm0 -0.01c0,0 0,0 0,0 0,0 0,0 0,0zm0 0c0,0 0,0 0,0 0,0 0,0 0,0zm0 0c0,0 0,0 0,0 0,0 0,0 0,0zm0 -0.01c0,0 0,0 0,0 0,0 0,0 0,0zm0 0c0,0 0,0 0,0 0,0 0,0 0,0zm0 0c0,-0.01 0,-0.01 0,-0.01 0,0 0,0.01 0,0.01zm0 -0.01c0,0 0,0 0,0 0,0 0,0 0,0zm0 0c0,0 0,0 0,0 0,0 0,0 0,0zm0 0c0,-0.01 0,-0.01 0,-0.01 0,0 0,0 0,0.01zm0 -0.01c0,0 0,0 0,0 0,0 0,0 0,0zm0 0c0,0 0,0 0,0 0,0 0,0 0,0zm0 -0.01c0,0 0,0 0,0 0,0 0,0 0,0zm0 0c0,0 0,0 0,0 0,0 0,0 0,0zm0 0c0,0 0,-0.01 0,-0.01 0,0 0,0.01 0,0.01zm0 -0.01c0,0 0,0 0,0 0,0 0,0 0,0zm0 0c0,0 0,0 0,0 0,0 0,0 0,0zm0 0c0,-0.01 0,-0.01 0,-0.01 0,0 0,0 0,0.01zm0 -0.01c0,0 0,0 0,0 0,0 0,0 0,0zm0 0c0,0 0,0 0,0 0,0 0,0 0,0zm0 -0.01c0,0 0,0 0,0 0,0 0,0 0,0zm0 0c0,0 0,0 0,0 0,0 0,0 0,0zm0 0c0,0 0,-0.01 0,-0.01 0,0 0,0.01 0,0.01zm0 -0.01c0,0 0,0 0,0 0,0 0,0 0,0zm0 0c0,0 0,0 0,0 0,0 0,0 0,0zm0 0c0,-0.01 0,-0.01 0,-0.01 0,0 0,0 0,0.01zm0 -0.01c0,0 0,0 0,0 0,0 0,0 0,0zm0 0c0,0 0,0 0,-0.01 0,0.01 0,0.01 0,0.01zm0 -0.01c0,0 0,0 0,0 0,0 0,0 0,0zm0 0c0,0 0,0 0,0 0,0 0,0 0,0zm0 0c0,0 0,-0.01 0,-0.01 0,0 0,0.01 0,0.01zm0 -0.01c0,0 0,0 0,0 0,0 0,0 0,0zm0 0c0,0 0,0 0,0 0,0 0,0 0,0zm0 0c0,-0.01 0,-0.01 0,-0.01 0,0 0,0 0,0.01zm0 -0.01c0,0 0,0 0,0 0,0 0,0 0,0zm0 0c0,0 0,0 0,-0.01 0,0.01 0,0.01 0,0.01zm0 -0.01c0,0 0,0 0,0 0,0 0,0 0,0zm0 0c0,0 0,0 0,0 0,0 0,0 0,0zm0 0c0,0 0,-0.01 0,-0.01 0,0 0,0.01 0,0.01zm0 -0.01c0,0 0,0 0,0 0,0 0,0 0,0zm0 0c0,0 0,0 0,0 0,0 0,0 0,0 0,0 0,0 0,0 0,0 0,0 0,0zm0 0c0,-0.01 0,-0.01 0,-0.01 0,0 0,0 0,0 0,0 0,0 0,0.01z"/>
     <path class="fil13" d="M28.41 14.8c-0.61,-0.74 -1,-1.68 -1.06,-2.7 0,0 0,0 0,0 0,0 0,0 0,0 0,0 0,0 0,0 0,0 0,0 0,0 0,0 0,0 0,0 0,-0.01 0,-0.02 0,-0.02 0,0 0,0 0,0 0,-0.01 0,-0.01 0,-0.01 0,0 0,0 0,0 0,0 0,0 0,0 0,0 0,0 0,0 0,0 0,0 0,0l0 0c0,-0.01 -0.01,-0.01 -0.01,-0.01 0,0 0,0 0,0 0,0 0,-0.01 0,-0.01 0,0 0,0 0,0 0,0 0,0 0,0 0,0 0,0 0,0 0,0 0,0 0,0 0,0 0,0 0,0 0,0 0,-0.01 0,-0.01 0,0 0,0 0,0 0,0 0,0 0,0 0,0 0,0 0,0 0,0 0,-0.01 0,-0.01 0,0 0,0 0,0 0,0 0,0 0,-0.01 0,0 0,0 0,0 0,0 0,0 0,0 0,0 0,0 0,0 0,0 0,0 0,0 0,0 0,0 0,0 0,0 0,-0.01 0,-0.01 0,0 0,0 0,0 0,0 0,0 0,0 0,0 0,0 0,0 0,0 0,0 0,0 0,0 0,-0.01 0,-0.01 0,0 0,0 0,0 0,0 0,0 0,0 0,0 0,0 0,0 0,0 0,0 0,0 0,0 0,0 0,-0.01 0,0 0,0 0,0 0,0 0,0 0,0 0,0 0,0 0,0 0,0 0,0 0,0 0,0 0,0 0,0 0,0 0,-0.01 0,-0.01 0,0 0,0 0,0 0,0 0,0 0,0 0,0 0,0 0,0 0,0 0,0 0,0 0,0 0,-0.01 0,-0.01 0,0 0,0 0,0 0,0 0,0 0,0 0,0 0,0 0,0 0,0 0,0 0,0 0,0 0,0 0,0 0,-0.01 0,-0.01 0,-0.01 0,0 0,0 0,0 0,0 0,0 0,0 0,0 0,0 0,0 0,0 0,0 0,0 0,0 0,-0.01 0,-0.01 0,0 0,0 0,0 0,0 0,0 0,0 0,0 0,0 0,0 0,0 0,0 0,0 0,0 0,-0.01 0,-0.01 0,0 0,0 0,0 0,0 0,0 0,0 0,0 0,0 0,0 0,0 0,0 0,0 0,0 0,0 0,0 0,-0.01 0,-0.01 0,-0.01 0,0 0,0 0,0 0,0 0,0 0,0 0,0 0,0 0,0 0,0 0,0 0,0 0,-0.01 0,-0.01 0,-0.01 0,0 0,0 0,0 0,0 0,0 0,0 0,0 0,0 0,0 0,0 0,0 0,0 0,0 0,-0.01 0,-0.01 0,0 0,0 0,0 0,0 0,0 0,0 0,0 0,0 0,0 0,0 0,0 0,0 0,0 0,0 0,0 0,-0.01 0,-0.01 0,-0.01 0,0 0,0 0,0 0,0 0,0 0,0 0,0 0,0 0,0 0,0 0,0 0,-0.01 0,0 0,0 0,0 0,0 0,0 0,0 0,0 0,0 0,0 0,0 0,0 0,0 0,0 0,0 0,0 0,0 0,-0.01 0,-0.01 0,0 0,0 0,0 0,0 0,0 0,0 0,0 0,0 0,0 0,0 0,0 0,0 0,0 0,0 0,0 0,-0.01 0,-0.01 0,-0.01 0,0 0,0 0,0 0,0 0,0 0,0 0,0 0,0 0,0 0,0 0,0 0,-0.01 0,0 0,0 0,0 0,0 0,0 0,0 0,0 0,0 0,0 0,0 0,0 0,0 0,0 0,0 0,0 0,0 0,-0.01 0,-0.01 0,0 0,0 0,0 0,0 0,0 0,0 0,0 0,0 0,0 0,0 0,0 0,0 0,0.46 0.07,0.9 0.2,1.32l0.11 -0.03c0.14,0.59 0.39,1.14 0.74,1.62 -0.01,0 -0.01,-0.01 -0.02,-0.01 0.02,0.01 0.03,0.03 0.04,0.04 0,0 0,0.01 0,0.01zm-1.07 -2.95c0,0 0,0 0,0 0,0 0,0 0,0 0,-0.01 0,-0.01 0,-0.01 0,0 0,0.01 0,0.01z"/>
     <path class="fil14" d="M27.34 11.84c0,0 0,0 0,0 0,0 0,0 0,0 0,0 0,0 0,0zm0 0c0,0 0,0 0,0 0,0 0,0 0,0z"/>
     <path class="fil13" d="M27.34 11.84c0,0 0,0 0,0 0,0 0,0 0,0 0,0 0,0 0,0 0,0 0,0 0,0 0,0 0,0 0,0z"/>
     <path class="fil14" d="M27.34 11.84c0,0 0,0 0,-0.01 0,0.01 0,0.01 0,0.01zm0 -0.01c0,0 0,0 0,0 0,0 0,0 0,0 0,0 0,0 0,0 0,0 0,0 0,0zm0 0c0,0 0,0 0,0 0,0 0,0 0,0z"/>
     <path class="fil13" d="M27.34 11.84c0,0 0,0 0,0 0,0 0,0 0,-0.01 0,0 0,0 0,0 0,0 0,0 0,0 0,0 0,0.01 0,0.01zm0 -0.01c0,0 0,0 0,0 0,0 0,0 0,0 0,0 0,0 0,0 0,0 0,0 0,0 0,0 0,0 0,0z"/>
     <path class="fil14" d="M27.34 11.83c0,0 0,-0.01 0,-0.01 0,0 0,0.01 0,0.01zm0 -0.01c0,0 0,0 0,0 0,0 0,0 0,0 0,0 0,0 0,0z"/>
     <path class="fil13" d="M27.34 11.83l0 0c0,0 0,-0.01 0,-0.01 0,0 0,0 0,0 0,0 0,0 0,0 0,0 0,0 0,0.01z"/>
     <path class="fil14" d="M27.34 11.82c0,0 0,0 0,0l0 0c0,0 0,0 0,0zm0 0c0,0 0,0 0,0l0 0c0,0 0,0 0,0z"/>
     <path class="fil13" d="M27.34 11.82l0 0c0,0 0,0 0,0 0,0 0,0 0,0l0 0c0,0 0,0 0,0zm0 0c0,-0.01 0,-0.01 0,-0.01 0,0 0,0 0,0.01zm0 -0.01c0,0 0,0 0,-0.01 0,0.01 0,0.01 0,0.01zm0 -0.01c0,0 0,0 0,0 0,0 0,0 0,0zm0 0c0,0 0,-0.01 0,-0.01 0,0 0,0.01 0,0.01z"/>
     <path class="fil14" d="M32.09 7.14c0,0 0,0 0,0l0 0zm-0.02 0c0,0 0,0 0,0 0,0 0,0 0,0zm0 0c0,0 0,0 0,0 0,0 0,0 0,0zm-0.01 0c0,0 0,0 0,0 0,0 0,0 0,0zm-0.01 0c0,0 0,0 0,0 0,0 0,0 0,0zm0 0c0,0 0,0 0,0 0,0 0,0 0,0zm-0.01 0c0,0 0,0 0,0 0,0 0,0 0,0zm0 0c0,0 0,0 0,0 0,0 0,0 0,0zm-0.01 0c0,0 0,0 0,0 0,0 0,0 0,0zm0 0c-0.01,0 -0.01,0 -0.01,0 0,0 0,0 0.01,0zm-0.01 0c0,0 0,0 0,0 0,0 0,0 0,0zm0 0c0,0 0,0 0,0 0,0 0,0 0,0 0,0 0,0 0,0z"/>
     <path class="fil11" d="M27.34 11.79c0.01,-2.56 2.09,-4.64 4.65,-4.65 -0.46,0 -0.91,0.07 -1.33,0.2l0.08 0.26c-1.4,0.46 -2.5,1.55 -2.97,2.93l-0.23 -0.07c-0.13,0.42 -0.2,0.87 -0.2,1.33zm8.05 -3.15c-0.58,-0.54 -1.29,-0.94 -2.08,-1.13l0.05 -0.17c-0.41,-0.12 -0.86,-0.19 -1.32,-0.2 0.01,0 0.01,0 0.01,0 0,0 0,0 0,0 0,0 0,0 0,0 0,0 0,0 0,0 0.01,0 0.01,0 0.01,0 0,0 0,0 0,0 0,0 0,0 0.01,0 0,0 0,0 0,0 0,0 0,0 0,0 0,0 0,0 0,0 0.01,0 0.01,0 0.02,0 0,0 0,0 0,0 1.21,0.02 2.31,0.51 3.13,1.28 0.06,0.07 0.11,0.14 0.17,0.22zm-3.35 -1.5c0,0 0,0 -0.01,0 0,0 0.01,0 0.01,0 0,0 0,0 0,0 0,0 0,0 0,0 0,0 0,0 0,0 0,0 0,0 0,0zm-0.01 0c0,0 0,0 0,0 0,0 0,0 0,0 0,0 0,0 0,0 0,0 0,0 0,0zm-0.03 0c0,0 0,0 0,0 0,0 0,0 0,0zm0.03 0c0,0 -0.01,0 -0.01,0 0,0 0,0 0,0 0,0 0,0 0.01,0 0,0 0,0 0,0zm-0.03 0c0,0 0,0 0.01,0 -0.01,0 -0.01,0 -0.01,0zm0.02 0c0,0 0,0 0,0 0,0 0,0 0,0 0,0 0,0 0,0 0,0 0,0 0,0zm0 0c-0.01,0 -0.01,0 -0.01,0 0,0 0,0 0.01,0 0,0 0,0 0,0zm-0.01 0c0,0 0,0 0,0 0,0 0,0 0,0z"/>
     <path class="fil12" d="M30.74 7.6l-0.08 -0.26c0.42,-0.13 0.87,-0.2 1.33,-0.2 0,0 0,0 0.01,0 0,0 0,0 0,0l0 0c0,0 0,0 0.01,0 0,0 0,0 0,0 0,0 0,0 0,0l0 0c0,0 0,0 0.01,0 0,0 0,0 0,0 0,0 0,0 0,0 0,0 0,0 0,0 0,0 0,0 0,0 0,0 0.01,0 0.01,0 0,0 0,0 0,0 0,0 0,0 0,0 0,0 0,0 0,0 0.01,0 0.01,0 0.01,0 0,0 0,0 0,0 0.46,0.01 0.91,0.08 1.32,0.2l-0.05 0.17c-0.36,-0.09 -0.73,-0.14 -1.12,-0.14 -0.51,0 -1,0.08 -1.45,0.23z"/>
     <path class="fil12" d="M27.54 13.17c-0.13,-0.42 -0.2,-0.86 -0.2,-1.32 0,0 0,0 0,0 0,0 0,-0.01 0,-0.01 0,0 0,0 0,0 0,0 0,0 0,0 0,0 0,0 0,0 0,0 0,0 0,0 0,0 0,0 0,0 0,0 0,-0.01 0,-0.01 0,0 0,0 0,0 0,0 0,0 0,0 0,0 0,0 0,0 0,-0.01 0,-0.01 0,-0.01 0,0 0,0 0,0 0,0 0,0 0,0 0,0 0,0 0,0 0,0 0,0 0,0l0 0c0,-0.01 0,-0.01 0,-0.01 0,0 0,0 0,0 0,0 0,0 0,-0.01l0 0c0,0 0,0 0,0 0,0 0,0 0,0 0,0 0,-0.01 0,-0.01 0,0 0,0 0,0 0,-0.46 0.07,-0.91 0.2,-1.33l0.23 0.07c-0.17,0.48 -0.25,0.99 -0.25,1.51 0,0.38 0.04,0.75 0.13,1.1l-0.11 0.03z"/>
     <path class="fil15" d="M32.01 16.49c0,0 0,0 0,0 0,0 0,0 0,0 0,0 0,0 0,0z"/>
     <path class="fil16" d="M32.01 16.49c0,0 0,0 0.01,0 -0.01,0 -0.01,0 -0.01,0zm0 0l0 0c0,0 0,0 0,0 0,0 0,0 0,0 0,0 0,0 0,0z"/>
     <path class="fil16" d="M32.02 16.49c0,0 0,0 0,0 0,0 0,0 0,0z"/>
     <path class="fil15" d="M32 16.49c0,0 0,0 0,0 0,0 0,0 0,0z"/>
     <path class="fil16" d="M32 16.49c0,0 0,0 0,0 0,0 0,0 0,0 0,0 0,0 0,0 0,0 0,0 0,0z"/>
     <path class="fil16" d="M32.02 16.49c0,0 0.01,0 0.01,0 0,0 -0.01,0 -0.01,0z"/>
     <path class="fil15" d="M32 16.49c0,0 0,0 0,0 0,0 0,0 0,0z"/>
     <path class="fil16" d="M32 16.49c0,0 0,0 0,0 0,0 0,0 0,0 0,0 0,0 0,0 0,0 0,0 0,0z"/>
     <path class="fil15" d="M31.99 16.49c0,0 0,0 0,0 0,0 0,0 0,0 0,0 0,0 0,0zm0 0c0,0 0,0 0,0 0,0 0,0 0,0z"/>
     <path class="fil16" d="M31.99 16.49c0,0 0,0 0,0 0,0 0,0 0,0 0,0 0,0 0,0l0 0c0,0 0,0 0,0z"/>
     <path class="fil16" d="M32.03 16.49c0,0 0,0 0,0 0,0 0,0 0,0z"/>
     <path class="fil15" d="M36.68 12.09l0 0c0,-0.08 0,-0.16 0,-0.25l0 0c0,0.09 0,0.17 0,0.25zm0 -0.28c0,0 0,0 0,0 0,0 0,0 0,0 0,0 0,0 0,0zm0 0c0,0 0,0 0,0 0,0 0,0 0,0zm0 -0.01c0,0 0,0 0,0 0,0 0,0 0,0zm0 0c0,0 0,0 0,0 0,0 0,0 0,0 0,0 0,0 0,0zm0 0l0 0c0,0 0,0 0,0zm0 0c0,0 0,0 0,-0.01 0,0.01 0,0.01 0,0.01zm0 -0.01c0,0 0,0 0,0 0,0 0,0 0,0zm0 0c0,0 0,0 0,0 0,0 0,0 0,0 0,0 0,0 0,0 0,0 0,0 0,0zm0 -0.01c0,0 0,0 0,0 0,0 0,0 0,0zm0 0c0,0 0,0 0,0 0,0 0,0 0,0zm0 0c0,0 0,0 0,0 0,0 0,0 0,0zm0 -0.01c0,0 0,0 0,0 0,0 0,0 0,0zm0 0c0,0 0,0 0,0 0,0 0,0 0,0zm0 0c0,-0.01 0,-0.01 0,-0.01 0,0 0,0 0,0.01zm0 -0.01c0,0 0,0 0,0 0,0 0,0 0,0zm0 0c0,0 0,0 0,0 0,0 0,0 0,0zm0 -0.01c0,0 0,0 0,0 0,0 0,0 0,0zm0 0c0,0 0,0 0,0 0,0 0,0 0,0zm0 0c0,0 0,0 0,-0.01 0,0.01 0,0.01 0,0.01zm0 -0.01c0,0 0,0 0,0 0,0 0,0 0,0zm0 0l0 0 0 0z"/>
     <path class="fil17" d="M32.03 16.49c0.47,0 0.91,-0.07 1.33,-0.2l-0.16 -0.55c1.27,-0.47 2.28,-1.47 2.76,-2.73l0.52 0.16c0.13,-0.42 0.2,-0.87 0.2,-1.33 0,0.09 0,0.17 0,0.25 -0.06,0.91 -0.37,1.75 -0.87,2.45 -0.12,0.16 -0.25,0.32 -0.39,0.47 -0.31,0.33 -0.67,0.62 -1.07,0.85 -0.68,0.4 -1.47,0.62 -2.32,0.63zm4.65 -4.65c0,0 0,0 0,0 0,0 0,0 0,0zm0 0c0,0 0,-0.01 0,-0.01 0,0 0,0.01 0,0.01zm0 -0.01c0,0 0,0 0,0 0,0 0,0 0,0zm0 0c0,-0.01 0,-0.01 0,-0.01 0,0 0,0 0,0.01zm0 -0.01c0,0 0,0 0,0l0 0c0,0 0,0 0,0zm0 0c0,-0.01 0,-0.01 0,-0.01 0,0 0,0 0,0 0,0 0,0 0,0.01zm0 -0.01c0,0 0,0 0,-0.01 0,0.01 0,0.01 0,0.01 0,0 0,0 0,0 0,0 0,0 0,0zm0 -0.01c0,0 0,0 0,0 0,0 0,0 0,0 0,0 0,0 0,0 0,0 0,0 0,0 0,0 0,0 0,0zm0 0c0,0 0,0 0,-0.01 0,0 0,0 0,0 0,0.01 0,0.01 0,0.01 0,0 0,0 0,0l0 0zm0 -0.01c0,0 0,0 0,0 0,0 0,0 0,0 0,0 0,0 0,0 0,0 0,0 0,0 0,0 0,0 0,0zm0 0c0,0 0,-0.01 0,-0.01 0,0 0,0 0,0 0,0 0,0 0,0 0,0.01 0,0.01 0,0.01 0,0 0,0 0,0zm0 -0.01c0,-0.46 -0.07,-0.9 -0.2,-1.32l-0.29 0.09c-0.12,-0.7 -0.4,-1.35 -0.8,-1.91 0.14,0.13 0.27,0.27 0.4,0.42l0 0c-0.17,-0.23 -0.36,-0.44 -0.57,-0.64 0,0 0,0 0,0 0.88,0.84 1.44,2.01 1.46,3.32l0 0c0,0 0,0 0,0 0,0 0,0 0,0 0,0 0,0 0,0 0,0.01 0,0.01 0,0.01 0,0 0,0 0,0 0,0 0,0 0,0 0,0 0,0 0,0 0,0 0,0 0,0 0,0 0,0.01 0,0.01 0,0 0,0 0,0 0,0 0,0 0,0 0,0 0,0 0,0 0,0 0,0 0,0 0,0 0,0 0,0.01 0,0 0,0 0,0 0,0 0,0 0,0 0,0 0,0 0,0 0,0 0,0 0,0 0,0 0,0 0,0.01 0,0 0,0 0,0 0,0 0,0 0,0 0,0 0,0 0,0 0,0 0,0 0,0z"/>
     <path class="fil18" d="M36.48 13.17l-0.52 -0.16c0.19,-0.52 0.3,-1.07 0.3,-1.65 0,-0.28 -0.03,-0.55 -0.07,-0.81l0.29 -0.09c0.13,0.42 0.2,0.86 0.2,1.32l0 0c0,0 0,0.01 0,0.01 0,0 0,0 0,0 0,0 0,0 0,0 0,0 0,0 0,0 0,0.01 0,0.01 0,0.01l0 0c0,0 0,0 0,0 0,0 0,0 0,0 0,0 0,0 0,0 0,0 0,0 0,0 0,0.01 0,0.01 0,0.01 0,0 0,0 0,0 0,0 0,0 0,0 0,0 0,0 0,0.01l0 0c0,0 0,0 0,0l0 0c0,0 0,0 0,0l0 0c0,0 0,0 0,0.01l0 0c0,0 0,0 0,0l0 0c0,0 0,0 0,0l0 0c0,0 0,0 0,0l0 0c0,0 0,0.01 0,0.01l0 0c0,0 0,0 0,0l0 0c0,0 0,0 0,0l0 0c0,0 0,0 0,0l0 0c0,0.46 -0.07,0.91 -0.2,1.33z"/>
     <path class="fil15" d="M31.99 16.49c0,0 0,0 0,0 0,0 0,0 0,0z"/>
     <path class="fil16" d="M31.99 16.49c0,0 0,0 0,0 0,0 0,0 0,0 -0.01,0 -0.01,0 -0.01,0 0.01,0 0.01,0 0.01,0z"/>
     <path class="fil15" d="M31.98 16.49c0,0 0,0 0,0 0,0 0,0 0,0zm-0.01 0c0,0 0,0 0,0 0,0 0,0 0,0zm0 0c0,0 0,0 0,0 0,0 0,0 0,0zm-0.01 0c0,0 0,0 0,0 0,0 0,0 0,0zm0 0c0,0 0,0 0,0 0,0 0,0 0,0zm0 0c0,0 0,0 0,0 0,0 0,0 0,0zm-0.02 0c0,0 0,0 0,0 0,0 0,0 0,0zm0 0c0,0 0,0 0,0l0 0zm-0.01 0c0,0 0,0 0,0l0 0zm0 0l0 0 0 0z"/>
     <path class="fil17" d="M31.98 16.49c0,0 0,0 0,0 0,0 0,0 0,0 -0.01,0 -0.01,0 -0.01,0 0,0 0,0 0,0 0,0 0,0 0,0 0,0 0,0 0,0 0,0 0,0 -0.01,0 0,0 0,0 0,0 0,0 0,0 0,0 0,0 0,0 0,0 0,0 0,0 0,0 0,0 0,0 0,0 -0.01,0 -0.01,0 -0.02,0 0,0 0,0 0,0 0,0 0,0 0,0l0 0c0,0 0,0 -0.01,0l0 0c0,0 0,0 0,0l0 0c-1.42,-0.03 -2.68,-0.68 -3.52,-1.7 -0.01,-0.01 -0.01,-0.02 -0.02,-0.03 0.64,0.61 1.46,1.03 2.37,1.19l-0.1 0.34c0.42,0.13 0.86,0.2 1.32,0.2z"/>
     <path class="fil18" d="M32.01 16.49l0 0c0,0 0,0 0,0 0,0 0,0 0,0 0,0 0,0 -0.01,0 0,0 0,0 0,0 0,0 0,0 0,0 0,0 0,0 0,0 0,0 -0.01,0 -0.01,0 0,0 0,0 0,0 0,0 0,0 0,0 0,0 0,0 0,0 0,0 0,0 -0.01,0 0,0 0,0 0,0 -0.46,0 -0.9,-0.07 -1.32,-0.2l0.1 -0.34c0.27,0.05 0.54,0.08 0.83,0.08 0.56,0 1.11,-0.1 1.61,-0.29l0.16 0.55c-0.42,0.13 -0.86,0.2 -1.33,0.2l0 0 0 0 0 0c0,0 0,0 0,0l0 0c0,0 0,0 0,0l0 0c0,0 -0.01,0 -0.01,0l0 0c0,0 0,0 0,0l0 0c0,0 0,0 0,0l0 0c0,0 0,0 0,0l0 0c-0.01,0 -0.01,0 -0.01,0l0 0z"/>
     <path class="fil19" d="M28.41 14.79c-0.01,-0.01 -0.02,-0.03 -0.04,-0.04 0.01,0 0.01,0.01 0.02,0.01 0.01,0.01 0.01,0.02 0.02,0.03zm7.38 -5.73c-0.13,-0.15 -0.26,-0.29 -0.4,-0.42 -0.06,-0.08 -0.11,-0.15 -0.17,-0.22 0.21,0.2 0.4,0.41 0.57,0.64z"/>
     <path class="fil11" d="M32.08 6.98c0.24,-0.09 0.51,-0.14 0.76,-0.11 0.24,0.04 0.47,0.13 0.69,0.23 0.22,0.1 0.43,0.22 0.64,0.32 0.22,0.11 0.44,0.21 0.66,0.31 0.22,0.11 0.44,0.24 0.61,0.42 0.18,0.18 0.34,0.38 0.5,0.59 0.15,0.22 0.29,0.43 0.43,0.66 0.12,0.2 0.19,0.42 0.25,0.64 0.08,0.31 0.14,0.62 0.2,0.94 0.04,0.26 0.13,0.57 0.02,0.8 0,0 -0.01,0.03 0,0.08 0.01,0.05 0.04,0.07 0.04,0.07 0.1,-0.15 0.14,-0.39 0.13,-0.57 -0.01,-0.19 -0.04,-0.38 -0.08,-0.56 -0.09,-0.44 -0.16,-0.9 -0.35,-1.31 -0.11,-0.22 -0.26,-0.43 -0.4,-0.63 -0.15,-0.21 -0.31,-0.41 -0.47,-0.61 -0.16,-0.18 -0.34,-0.33 -0.54,-0.46 -0.21,-0.13 -0.43,-0.23 -0.65,-0.33 -0.4,-0.18 -0.78,-0.41 -1.19,-0.57 -0.39,-0.15 -0.91,-0.21 -1.28,0.03 -0.04,0.02 -0.04,0.07 -0.04,0.07 0.03,0.01 0.07,-0.01 0.07,-0.01z"/>
     <path class="fil11" d="M36.94 11.99c0.22,0.46 0.06,0.79 -0.08,1.16 -0.16,0.38 -0.38,0.73 -0.52,1.11 -0.31,0.8 -1.11,1.28 -1.81,1.71 -0.16,0.11 -0.32,0.22 -0.49,0.3 -0.21,0.11 -0.43,0.18 -0.64,0.26 -0.22,0.07 -0.45,0.16 -0.68,0.18 -0.18,0.02 -0.41,0.01 -0.6,-0.04 -0.04,-0.01 -0.06,-0.04 -0.11,-0.03 0,0 -0.01,0.11 0.08,0.15 0.22,0.08 0.37,0.1 0.6,0.09 0.24,-0.02 0.47,-0.11 0.69,-0.19 0.23,-0.07 0.45,-0.14 0.66,-0.24 0.19,-0.09 0.37,-0.22 0.55,-0.33 0.7,-0.43 1.45,-0.9 1.82,-1.67 0.1,-0.19 0.17,-0.4 0.27,-0.6 0.1,-0.21 0.21,-0.42 0.3,-0.64 0.16,-0.4 0.27,-0.85 0.04,-1.24 0,0 -0.01,-0.01 -0.01,-0.02 -0.03,-0.06 -0.11,-0.06 -0.13,-0.02 0,0 0.03,0.01 0.06,0.06z"/>
     <path class="fil11" d="M31.94 16.66c-0.12,0.05 -0.22,0.1 -0.34,0.14 -0.12,0.04 -0.24,0.05 -0.36,0.05 -0.24,0 -0.47,-0.09 -0.69,-0.18 -0.42,-0.19 -0.84,-0.43 -1.23,-0.68 -0.39,-0.25 -0.76,-0.55 -1.06,-0.9 -0.31,-0.37 -0.52,-0.83 -0.71,-1.26 -0.15,-0.34 -0.31,-0.69 -0.4,-1.05 -0.04,-0.16 -0.07,-0.33 -0.07,-0.49 0,-0.13 -0.03,-0.27 0.07,-0.37 0.02,-0.02 0.05,-0.07 0.04,-0.09 0,0 -0.05,-0.02 -0.1,0.05 -0.21,0.25 -0.15,0.56 -0.1,0.83 0.08,0.39 0.26,0.77 0.41,1.13 0.19,0.44 0.39,0.89 0.69,1.27 0.28,0.36 0.64,0.65 1.02,0.91 0.43,0.3 0.91,0.58 1.4,0.78 0.24,0.11 0.49,0.18 0.76,0.18 0.25,0 0.56,-0.08 0.73,-0.28 0.02,-0.03 0.01,-0.06 0.01,-0.06 -0.04,0 -0.07,0.02 -0.07,0.02z"/>
     <path class="fil11" d="M27.18 11.75c-0.14,-0.41 -0.16,-0.89 -0.04,-1.35 0.11,-0.45 0.34,-0.83 0.56,-1.23 0.11,-0.2 0.23,-0.4 0.37,-0.58 0.15,-0.18 0.33,-0.31 0.52,-0.45 0.39,-0.28 0.79,-0.54 1.22,-0.75 0.36,-0.17 0.72,-0.35 1.1,-0.47 0.32,-0.09 0.75,-0.25 1,0.03 0,0 0.02,0.03 0.06,0.04 0.03,0.01 0.04,0 0.04,0 -0.05,-0.29 -0.52,-0.32 -0.8,-0.27 -0.36,0.05 -0.7,0.19 -1.03,0.34 -0.34,0.15 -0.67,0.31 -0.99,0.5 -0.22,0.14 -0.43,0.29 -0.64,0.44 -0.19,0.14 -0.37,0.26 -0.52,0.44 -0.2,0.22 -0.35,0.49 -0.49,0.76 -0.14,0.26 -0.3,0.52 -0.41,0.8 -0.21,0.54 -0.29,1.25 -0.01,1.79 0.02,0.03 0.07,0.04 0.07,0.04 0,0 0.02,-0.02 -0.01,-0.08z"/>
    </g>
   </g>
  </g>
  <polygon class="fil5" points="0,0 39.05,0 39.05,19.36 0,19.36 "/>
 </g>
</svg>
