<?xml version="1.0" encoding="UTF-8"?>
<!DOCTYPE svg PUBLIC "-//W3C//DTD SVG 1.1//EN" "http://www.w3.org/Graphics/SVG/1.1/DTD/svg11.dtd">
<!-- Creator: CorelDRAW 2020 (64-Bit) -->
<svg xmlns="http://www.w3.org/2000/svg" xml:space="preserve" width="800px" height="333px" version="1.1" style="shape-rendering:geometricPrecision; text-rendering:geometricPrecision; image-rendering:optimizeQuality; fill-rule:evenodd; clip-rule:evenodd"
viewBox="0 0 17.67 7.35"
 xmlns:xlink="http://www.w3.org/1999/xlink"
 xmlns:xodm="http://www.corel.com/coreldraw/odm/2003">
 <defs>
  <style type="text/css">
   <![CDATA[
    .str1 {stroke:#334BAE;stroke-width:0.18;stroke-miterlimit:22.9256}
    .str0 {stroke:#334BAE;stroke-width:0.02;stroke-miterlimit:22.9256}
    .str2 {stroke:white;stroke-width:0.06;stroke-linejoin:round;stroke-miterlimit:22.9256;stroke-dasharray:0.110000 0.170000}
    .fil4 {fill:none}
    .fil1 {fill:#334BAE}
    .fil6 {fill:#816DF3}
    .fil2 {fill:#A52CB0}
    .fil3 {fill:#C343CF}
    .fil7 {fill:#CDD6F5}
    .fil5 {fill:white}
    .fil11 {fill:#FEFEFE;fill-rule:nonzero}
    .fil17 {fill:#F3B182;fill-rule:nonzero}
    .fil16 {fill:#EDEBED;fill-rule:nonzero}
    .fil20 {fill:#E2DDDF;fill-rule:nonzero}
    .fil18 {fill:#CD6837;fill-rule:nonzero}
    .fil22 {fill:#CCC4C3;fill-rule:nonzero}
    .fil19 {fill:#C4BBBB;fill-rule:nonzero}
    .fil13 {fill:#8E8EB0;fill-rule:nonzero}
    .fil12 {fill:#82809C;fill-rule:nonzero}
    .fil8 {fill:#334BAE;fill-rule:nonzero}
    .fil21 {fill:#A52CB0;fill-rule:nonzero}
    .fil10 {fill:#C343CF;fill-rule:nonzero}
    .fil0 {fill:#E4EEFF;fill-rule:nonzero}
    .fil15 {fill:#E980F2;fill-rule:nonzero}
    .fil9 {fill:white;fill-rule:nonzero}
    .fil14 {fill:white;fill-rule:nonzero}
    .fil23 {fill:url(#id0);fill-rule:nonzero}
   ]]>
  </style>
  <linearGradient id="id0" gradientUnits="userSpaceOnUse" x1="16.59" y1="6.82" x2="17.58" y2="3.93">
   <stop offset="0" style="stop-opacity:1; stop-color:#9AA6D7"/>
   <stop offset="1" style="stop-opacity:1; stop-color:#925FF2"/>
  </linearGradient>
 </defs>
 <g id="Слой_x0020_1">
  <metadata id="CorelCorpID_0Corel-Layer"/>
  <path class="fil0" d="M12.3 6.45l0.14 0.9 -7.44 0c-2.54,0 -3.98,-1.52 -4.04,-3.11 -0.09,-2.24 2.47,-3.64 5.19,-3.48 2.69,0.15 5.53,1.82 6.15,5.69z"/>
  <g id="_1827397428256">
   <path class="fil1" d="M10.98 6.66c0.1,0 0.19,-0.08 0.19,-0.19l0 -0.48c0,-0.1 -0.09,-0.19 -0.19,-0.19 -0.11,0 -0.19,0.09 -0.19,0.19l0 0.48c0,0.11 0.08,0.19 0.19,0.19z"/>
   <path class="fil1" d="M12.45 6.66c0.1,0 0.19,-0.08 0.19,-0.19l0 -0.48c0,-0.1 -0.09,-0.19 -0.19,-0.19 -0.11,0 -0.2,0.09 -0.2,0.19l0 0.48c0,0.11 0.09,0.19 0.2,0.19z"/>
   <polygon class="fil1 str0" points="10.92,2.24 11.04,2.24 11.04,0.4 10.92,0.4 "/>
   <polygon class="fil1 str0" points="12.39,2.24 12.5,2.24 12.5,0.4 12.39,0.4 "/>
   <polygon class="fil1" points="12.24,2.24 12.65,2.24 12.65,2.13 12.24,2.13 "/>
   <path class="fil2" d="M10.79 6.22l1.85 0c0.25,0 0.46,-0.21 0.46,-0.46l0 -3.06c0,-0.26 -0.21,-0.46 -0.46,-0.46l-1.85 0c-0.26,0 -0.46,0.2 -0.46,0.46l0 3.06c0,0.25 0.2,0.46 0.46,0.46z"/>
   <g>
    <path class="fil3" d="M10.76 2.66c0.05,0 0.1,0.05 0.1,0.1l0 2.93c0,0.05 -0.05,0.1 -0.1,0.1 -0.06,0 -0.1,-0.05 -0.1,-0.1l0 -2.93c0,-0.05 0.04,-0.1 0.1,-0.1z"/>
    <path class="fil3" d="M11.23 2.66c0.05,0 0.1,0.05 0.1,0.1l0 2.93c0,0.05 -0.05,0.1 -0.1,0.1 -0.06,0 -0.11,-0.05 -0.11,-0.1l0 -2.93c0,-0.05 0.05,-0.1 0.11,-0.1z"/>
    <path class="fil3" d="M11.69 2.66c0.06,0 0.1,0.05 0.1,0.1l0 2.93c0,0.05 -0.04,0.1 -0.1,0.1 -0.05,0 -0.1,-0.05 -0.1,-0.1l0 -2.93c0,-0.05 0.05,-0.1 0.1,-0.1z"/>
    <path class="fil3" d="M12.16 2.66c0.06,0 0.1,0.05 0.1,0.1l0 2.93c0,0.05 -0.04,0.1 -0.1,0.1 -0.05,0 -0.1,-0.05 -0.1,-0.1l0 -2.93c0,-0.05 0.05,-0.1 0.1,-0.1z"/>
    <path class="fil3" d="M12.63 2.66c0.06,0 0.1,0.05 0.1,0.1l0 2.93c0,0.05 -0.04,0.1 -0.1,0.1 -0.05,0 -0.1,-0.05 -0.1,-0.1l0 -2.93c0,-0.05 0.05,-0.1 0.1,-0.1z"/>
   </g>
   <polygon class="fil1" points="10.77,2.24 11.18,2.24 11.18,2.13 10.77,2.13 "/>
   <path class="fil4 str1" d="M10.98 0.4c0,-0.17 0.14,-0.31 0.31,-0.31"/>
   <line class="fil4 str1" x1="11.29" y1="0.09" x2="12.13" y2= "0.09" />
   <path class="fil4 str1" d="M12.13 0.09c0.18,0 0.32,0.14 0.32,0.31"/>
  </g>
  <g id="_1825550886640">
   <path class="fil1" d="M10.85 5.74l-3.32 0c-0.17,0 -0.32,-0.15 -0.32,-0.33l0 -2.1c0,-0.18 0.15,-0.33 0.32,-0.33l3.32 0c0.17,0 0.32,0.15 0.32,0.33l0 2.1c0,0.18 -0.15,0.33 -0.32,0.33z"/>
   <path class="fil1" d="M9.58 2.91c0.02,0.05 0.07,0.07 0.12,0.05 0.04,-0.02 0.07,-0.07 0.05,-0.12l-0.07 -0.19 0 0c-0.02,-0.05 -0.05,-0.09 -0.08,-0.12 -0.04,-0.04 -0.09,-0.05 -0.15,-0.05l-0.52 0c-0.06,0 -0.1,0.01 -0.14,0.05 -0.04,0.02 -0.06,0.07 -0.09,0.12 0,0.01 0,0.01 0,0.01l-0.07 0.18c-0.02,0.05 0.01,0.1 0.05,0.12 0.05,0.02 0.11,0 0.12,-0.05l0.07 -0.18c0,-0.01 0.01,-0.01 0.01,-0.01 0.01,-0.03 0.02,-0.04 0.02,-0.05 0.01,0 0.02,-0.01 0.03,-0.01l0.52 0c0.02,0 0.03,0 0.03,0.01 0.01,0 0.01,0.02 0.02,0.05l0 0 0 0 0.08 0.19z"/>
   <g>
    <polygon class="fil5" points="8.5,2.98 8.92,2.98 8.92,2.89 8.5,2.89 "/>
    <polygon class="fil5" points="9.46,2.98 9.88,2.98 9.88,2.89 9.46,2.89 "/>
   </g>
   <path class="fil1 str2" d="M10.8 5.56l-3.22 0c-0.1,0 -0.19,-0.08 -0.19,-0.19l0 -2.03c0,-0.1 0.09,-0.18 0.19,-0.18l3.22 0c0.11,0 0.19,0.08 0.19,0.18l0 2.03c0,0.11 -0.08,0.19 -0.19,0.19z"/>
   <g>
    <polygon class="fil6" points="7.98,5.74 8.13,5.74 8.13,2.98 7.98,2.98 "/>
    <polygon class="fil6" points="10.25,5.74 10.4,5.74 10.4,2.98 10.25,2.98 "/>
   </g>
   <polygon class="fil7" points="7.98,3.89 8.13,3.89 8.13,4.17 8.06,4.23 7.98,4.17 "/>
   <polygon class="fil6" points="7.98,3.86 8.13,3.86 8.13,4.14 8.06,4.2 7.98,4.14 "/>
   <path class="fil5" d="M8 3.62l0.12 0c0.02,0 0.04,0.01 0.06,0.02 0.01,0.02 0.02,0.04 0.02,0.07l0 0.22c0,0.02 -0.01,0.05 -0.02,0.06 -0.02,0.02 -0.04,0.03 -0.06,0.03l-0.12 0c-0.03,0 -0.05,-0.01 -0.07,-0.03 -0.01,-0.01 -0.02,-0.04 -0.02,-0.06l0 -0.22c0,-0.03 0.01,-0.05 0.02,-0.07 0.02,-0.01 0.04,-0.02 0.07,-0.02zm0.12 0.07l0 0 -0.12 0c-0.01,0 -0.01,0 -0.01,0.01 -0.01,0 -0.01,0 -0.01,0.01l0 0.22c0,0 0,0.01 0.01,0.01 0,0 0,0.01 0.01,0.01l0.12 0c0,0 0,-0.01 0.01,-0.01 0,0 0,-0.01 0,-0.01l0 -0.22c0,-0.01 0,-0.01 0,-0.01 -0.01,-0.01 -0.01,-0.01 -0.01,-0.01z"/>
   <polygon class="fil6" points="7.98,3.83 8.13,3.83 8.13,3.47 7.98,3.47 "/>
   <path class="fil7" d="M8.06 3.53c0.01,0 0.02,-0.01 0.02,-0.02 0,-0.01 -0.01,-0.02 -0.02,-0.02 -0.01,0 -0.02,0.01 -0.02,0.02 0,0.01 0.01,0.02 0.02,0.02z"/>
   <path class="fil7" d="M8.06 3.64c0.01,0 0.02,-0.01 0.02,-0.02 0,-0.01 -0.01,-0.02 -0.02,-0.02 -0.01,0 -0.02,0.01 -0.02,0.02 0,0.01 0.01,0.02 0.02,0.02z"/>
   <path class="fil7" d="M8.06 3.75c0.01,0 0.02,-0.01 0.02,-0.02 0,-0.01 -0.01,-0.02 -0.02,-0.02 -0.01,0 -0.02,0.01 -0.02,0.02 0,0.01 0.01,0.02 0.02,0.02z"/>
   <path class="fil7" d="M8.06 3.86c0.01,0 0.02,-0.01 0.02,-0.02 0,-0.01 -0.01,-0.02 -0.02,-0.02 -0.01,0 -0.02,0.01 -0.02,0.02 0,0.01 0.01,0.02 0.02,0.02z"/>
   <polygon class="fil7" points="10.25,3.89 10.4,3.89 10.4,4.17 10.32,4.23 10.25,4.17 "/>
   <polygon class="fil6" points="10.25,3.86 10.4,3.86 10.4,4.14 10.32,4.2 10.25,4.14 "/>
   <path class="fil5" d="M10.27 3.62l0.11 0c0.03,0 0.05,0.01 0.07,0.02 0.01,0.02 0.02,0.04 0.02,0.07l0 0.22c0,0.02 -0.01,0.05 -0.02,0.06 -0.02,0.02 -0.04,0.03 -0.07,0.03l-0.11 0c-0.03,0 -0.05,-0.01 -0.07,-0.03 -0.01,-0.01 -0.02,-0.04 -0.02,-0.06l0 -0.22c0,-0.03 0.01,-0.05 0.02,-0.07 0.02,-0.01 0.04,-0.02 0.07,-0.02zm0.11 0.07l0 0 -0.11 0c-0.01,0 -0.01,0 -0.02,0.01 0,0 0,0 0,0.01l0 0.22c0,0 0,0.01 0,0.01 0.01,0 0.01,0.01 0.02,0.01l0.11 0c0.01,0 0.01,-0.01 0.02,-0.01 0,0 0,-0.01 0,-0.01l0 -0.22c0,-0.01 0,-0.01 0,-0.01 -0.01,-0.01 -0.01,-0.01 -0.02,-0.01z"/>
   <polygon class="fil6" points="10.25,3.83 10.4,3.83 10.4,3.47 10.25,3.47 "/>
   <path class="fil7" d="M10.32 3.53c0.02,0 0.02,-0.01 0.02,-0.02 0,-0.01 0,-0.02 -0.02,-0.02 -0.01,0 -0.01,0.01 -0.01,0.02 0,0.01 0,0.02 0.01,0.02z"/>
   <path class="fil7" d="M10.32 3.64c0.02,0 0.02,-0.01 0.02,-0.02 0,-0.01 0,-0.02 -0.02,-0.02 -0.01,0 -0.01,0.01 -0.01,0.02 0,0.01 0,0.02 0.01,0.02z"/>
   <path class="fil7" d="M10.32 3.75c0.02,0 0.02,-0.01 0.02,-0.02 0,-0.01 0,-0.02 -0.02,-0.02 -0.01,0 -0.01,0.01 -0.01,0.02 0,0.01 0,0.02 0.01,0.02z"/>
   <path class="fil7" d="M10.32 3.86c0.02,0 0.02,-0.01 0.02,-0.02 0,-0.01 0,-0.02 -0.02,-0.02 -0.01,0 -0.01,0.01 -0.01,0.02 0,0.01 0,0.02 0.01,0.02z"/>
  </g>
  <path class="fil8" d="M6.78 4.01c0,0.04 -0.03,0.07 -0.07,0.07 -0.03,0 -0.06,-0.03 -0.06,-0.07 0,-0.03 0.03,-0.06 0.06,-0.06 0.04,0 0.07,0.03 0.07,0.06zm0.05 0c0,-0.06 -0.05,-0.11 -0.12,-0.11l-0.17 0 0 0.23 0.17 0c0.07,0 0.12,-0.05 0.12,-0.12z"/>
  <path class="fil8" d="M2.42 4.01c0,-0.03 0.03,-0.06 0.07,-0.06 0.03,0 0.06,0.03 0.06,0.06 0,0.04 -0.03,0.07 -0.06,0.07 -0.04,0 -0.07,-0.03 -0.07,-0.07zm0.07 -0.11c-0.07,0 -0.12,0.05 -0.12,0.11 0,0.07 0.05,0.12 0.12,0.12l0.17 0 0 -0.23 -0.17 0z"/>
  <path class="fil8" d="M4.6 1.84c0.03,0 0.06,0.03 0.06,0.06 0,0.04 -0.03,0.07 -0.06,0.07 -0.04,0 -0.07,-0.03 -0.07,-0.07 0,-0.03 0.03,-0.06 0.07,-0.06zm0 -0.06c-0.07,0 -0.12,0.06 -0.12,0.12l0 0.18 0.24 0 0 -0.18c0,-0.06 -0.06,-0.12 -0.12,-0.12z"/>
  <path class="fil8" d="M4.6 6.19c-0.04,0 -0.07,-0.03 -0.07,-0.06 0,-0.04 0.03,-0.07 0.07,-0.07 0.03,0 0.06,0.03 0.06,0.07 0,0.03 -0.03,0.06 -0.06,0.06zm-0.12 -0.06c0,0.06 0.05,0.11 0.12,0.11 0.06,0 0.12,-0.05 0.12,-0.11l0 -0.18 -0.24 0 0 0.18z"/>
  <path class="fil9" d="M4.6 5.04c-0.57,0 -1.03,-0.46 -1.03,-1.03 0,-0.56 0.46,-1.02 1.03,-1.02 0.57,0 1.03,0.46 1.03,1.02 0,0.57 -0.46,1.03 -1.03,1.03zm0 -3.01c-1.1,0 -1.99,0.89 -1.99,1.98 0,1.1 0.89,1.99 1.99,1.99 1.1,0 1.98,-0.89 1.98,-1.99 0,-1.09 -0.88,-1.98 -1.98,-1.98z"/>
  <path class="fil10" d="M5.63 4.01c0,0.11 -0.02,0.21 -0.05,0.3l0.92 0.28c0.05,-0.18 0.08,-0.38 0.08,-0.58 0,-0.19 -0.03,-0.39 -0.08,-0.57l-0.92 0.28c0.03,0.09 0.05,0.19 0.05,0.29z"/>
  <path class="fil10" d="M4.02 2.11l0.28 0.92c0.1,-0.03 0.2,-0.04 0.3,-0.04 0.1,0 0.2,0.01 0.3,0.04l0.27 -0.92c-0.18,-0.05 -0.37,-0.08 -0.57,-0.08 -0.2,0 -0.39,0.03 -0.58,0.08z"/>
  <path class="fil10" d="M3.57 4.01c0,-0.1 0.02,-0.2 0.04,-0.29l-0.91 -0.28c-0.06,0.18 -0.09,0.38 -0.09,0.57 0,0.2 0.03,0.4 0.09,0.58l0.91 -0.28c-0.02,-0.09 -0.04,-0.19 -0.04,-0.3z"/>
  <path class="fil10" d="M5.17 5.92l-0.27 -0.92c-0.1,0.03 -0.2,0.04 -0.3,0.04 -0.1,0 -0.2,-0.01 -0.3,-0.04l-0.28 0.92c0.19,0.05 0.38,0.08 0.58,0.08 0.2,0 0.39,-0.03 0.57,-0.08z"/>
  <path class="fil11" d="M5.55 3.61c-0.03,-0.06 -0.06,-0.12 -0.1,-0.18 0,0 0,0 0,0 0.04,0.06 0.07,0.12 0.1,0.18 0,0 0,0 0,0z"/>
  <path class="fil12" d="M5.63 4.01c0,0 0,0 0,0l0 0c0,0 0,0 0,0zm0 0c0,0 0,0 0,0 0,0 0,0 0,0 0,0 0,0 0,0zm0 0c0,0 0,0 0,0 0,0 0,0 0,0 0,0 0,0 0,0zm-0.05 -0.32c-0.01,-0.02 -0.02,-0.05 -0.03,-0.08 0,0 0,0 0,0 0.01,0.03 0.02,0.06 0.03,0.08 0,0 0,0 0,0z"/>
  <path class="fil13" d="M5.58 3.72c0,-0.01 0,-0.02 0,-0.03 0,0 0,0 0,0 0,0.01 0,0.02 0,0.03l0 0z"/>
  <path class="fil14" d="M4.93 5.11l-0.03 -0.11c0.33,-0.1 0.58,-0.36 0.68,-0.69l0.1 0.03c-0.09,0.38 -0.38,0.67 -0.75,0.77zm0.7 -1.08l0 0c0,0 0,0 0,0zm0 0c0,0 0,0 0,0 0,0 0,0 0,0zm0 -0.01c0,0 0,0 0,0 0,0 0,0 0,0zm0 0c0,0 0,0 0,0 0,0 0,0 0,0zm0 0c0,0 0,0 0,0 0,0 0,0 0,0zm0 0c0,0 0,0 0,0 0,0 0,0 0,0zm0 0c0,0 0,0 0,0 0,0 0,0 0,0zm0 0c0,0 0,0 0,-0.01 0,0.01 0,0.01 0,0.01zm0 -0.01l0 0c0,0 0,0 0,0 0,0 0,0 0,0zm0 0l0 0c0,0 0,0 0,0 0,0 0,0 0,0zm0 0c0,0 0,0 0,0 0,0 0,0 0,0 0,0 0,0 0,0zm0 0c0,0 0,0 0,0 0,0 0,0 0,0 0,0 0,0 0,0zm0 0c0,0 0,0 0,0 0,0 0,0 0,0zm0 0c0,0 0,0 0,0 0,0 0,0 0,0zm-0.05 -0.29c0,-0.01 0,-0.02 0,-0.03 -0.01,-0.02 -0.02,-0.05 -0.03,-0.08 -0.03,-0.06 -0.06,-0.12 -0.1,-0.18 0.07,0.08 0.13,0.18 0.17,0.28l-0.04 0.01z"/>
  <path class="fil15" d="M5.68 4.34l-0.1 -0.03c0.03,-0.09 0.05,-0.18 0.05,-0.28 0,0 0,0 0,0 0,0 0,0 0,0 0,0 0,0 0,0 0,0 0,-0.01 0,-0.01 0,0 0,0 0,0 0,0 0,0 0,0 0,0 0,0 0,0 0,0 0,0 0,0 0,0 0,0 0,0 0,0 0,0 0,0 0,0 0,0 0,0 0,0 0,0 0,0 0,0 0,0 0,0 0,0 0,0 0,0 0,0 0,0 0,-0.01l0 0c0,0 0,0 0,0 0,0 0,0 0,0 0,0 0,0 0,0 0,0 0,0 0,0 0,0 0,0 0,0 0,0 0,0 0,0 0,0 0,0 0,0 0,0 0,0 0,0 0,0 0,0 0,0 0,0 0,0 0,0 0,0 0,0 0,0 0,0 0,0 0,0 0,0 0,0 0,0 0,0 0,0 0,0 0,-0.1 -0.02,-0.2 -0.05,-0.29l0 0 0.04 -0.01c0.05,0.12 0.08,0.26 0.08,0.4 0,0.08 -0.01,0.16 -0.02,0.23z"/>
  <path class="fil11" d="M4.3 5c-0.19,-0.06 -0.35,-0.16 -0.47,-0.31 0,0 0,0 0,0 0.12,0.15 0.28,0.25 0.47,0.31l0 0z"/>
  <path class="fil16" d="M4.28 5.06c-0.18,-0.07 -0.34,-0.2 -0.45,-0.37 0.12,0.15 0.28,0.25 0.47,0.31l-0.02 0.06zm0.32 -0.02c0,0 0,0 0,0 0,0 0,0 0,0z"/>
  <path class="fil11" d="M4.6 5.04c0,0 0,0 0,0 0,0 0,0 0,0 0,0 0,0 0,0z"/>
  <path class="fil16" d="M4.6 5.04c0,0 0,0 0,0 0,0 0,0 0,0l0 0zm0 0c0,0 0,0 0,0 0,0 0,0 0,0z"/>
  <path class="fil11" d="M4.6 5.04c0,0 0,0 0,0 0,0 0,0 0,0 0,0 0,0 0,0z"/>
  <path class="fil16" d="M4.6 5.04c0,0 0,0 0,0 0,0 0,0 0,0 0,0 0,0 0,0zm0 0c0,0 0,0 0,0 0,0 0,0 0,0z"/>
  <path class="fil11" d="M4.59 5.04c0,0 0,0 0,0 0,0 0,0 0,0 0,0 0,0 0,0z"/>
  <path class="fil16" d="M4.6 5.04c-0.01,0 -0.01,0 -0.01,0 0,0 0,0 0,0 0,0 0,0 0.01,0zm0 0c0,0 0,0 0.01,0 -0.01,0 -0.01,0 -0.01,0z"/>
  <path class="fil11" d="M4.59 5.04c0,0 0,0 0,0 0,0 0,0 0,0 0,0 0,0 0,0z"/>
  <path class="fil16" d="M4.59 5.04c0,0 0,0 0,0 0,0 0,0 0,0 0,0 0,0 0,0zm0.02 0c0,0 0,0 0,0 0,0 0,0 0,0z"/>
  <path class="fil11" d="M4.59 5.04c0,0 0,0 0,0 0,0 0,0 0,0zm0 0c0,0 0,0 0,0 0,0 0,0 0,0z"/>
  <path class="fil15" d="M4.67 5.14c-0.13,0 -0.27,-0.03 -0.39,-0.08l0.02 -0.06 0 0c0.09,0.03 0.19,0.04 0.29,0.04 0,0 0,0 0,0 0,0 0,0 0,0 0,0 0,0 0,0 0,0 0,0 0,0 0,0 0,0 0,0 0,0 0,0 0,0 0,0 0,0 0,0 0,0 0,0 0,0 0,0 0,0 0.01,0 0,0 0,0 0,0 0,0 0,0 0,0 0,0 0,0 0,0 0,0 0,0 0,0 0,0 0,0 0,0 0,0 0,0 0,0l0 0c0,0 0,0 0,0 0,0 0,0 0,0 0,0 0,0 0,0 0,0 0,0 0,0 0,0 0,0 0,0 0,0 0,0 0,0 0,0 0,0 0.01,0 0,0 0,0 0,0 0,0 0,0 0,0 0.1,0 0.19,-0.01 0.29,-0.04l0.03 0.11c-0.08,0.02 -0.17,0.03 -0.26,0.03z"/>
  <path class="fil11" d="M2.62 4.14l0 0c0,0 0,0 0,0zm0 0c0,0 0,0 0,0 0,0 0,0 0,0zm0 -0.01c0,0 0,0 0,0 0,0 0,0 0,0z"/>
  <path class="fil17" d="M2.62 4.13c0,0 0,0 0,0 0,0 0,0 0,0zm0 -0.01c0,0 0,0 0,0 0,0 0,0 0,0zm0 0c0,0 0,0 0,0 0,0 0,0 0,0zm0 0c0,0 0,0 0,0l0 0zm0 0c0,0 0,0 0,0 0,0 0,0 0,0zm0 0c0,0 0,0 0,0 0,0 0,0 0,0zm0 -0.01c0,0 0,0 0,0 0,0 0,0 0,0zm0 0c0,0 0,0 0,0 0,0 0,0 0,0zm0 0c0,0 0,0 0,0 0,0 0,0 0,0zm0 0c0,0 0,0 0,0 0,0 0,0 0,0zm0 -0.01c0,0 0,0 0,0 0,0 0,0 0,0zm0 0c0,0 0,0 0,0 0,0 0,0 0,0zm0 0c0,0 0,0 0,0 0,0 0,0 0,0zm0 0c0,0 0,0 0,0 0,0 0,0 0,0zm0 0c0,0 0,0 0,0 0,0 0,0 0,0zm0 0c0,0 0,0 0,0 0,0 0,0 0,0zm0 0c0,0 0,0 0,-0.01 0,0.01 0,0.01 0,0.01zm0 -0.01c0,0 0,0 0,0 0,0 0,0 0,0zm0 0c0,0 0,0 0,0 0,0 0,0 0,0zm0 0c0,0 0,0 0,0 0,0 0,0 0,0zm0 0c0,0 0,0 0,0 0,0 0,0 0,0zm0 0c0,0 0,0 0,0 0,0 0,0 0,0zm0 0c0,0 0,0 0,0 0,0 0,0 0,0zm0 0c0,-0.01 0,-0.01 0,-0.01 0,0 0,0 0,0.01zm0 -0.01c0,0 0,0 -0.01,0 0.01,0 0.01,0 0.01,0zm-0.01 0c0,0 0,0 0,0 0,0 0,0 0,0zm0 0c0,0 0,0 0,0 0,0 0,0 0,0zm0 0c0,0 0,0 0,0 0,0 0,0 0,0zm0 0c0,0 0,0 0,0 0,0 0,0 0,0zm0 0c0,0 0,-0.01 0,-0.01 0,0 0,0.01 0,0.01zm0 -0.01c0,0 0,0 0,0 0,0 0,0 0,0zm0 0c0,0 0,0 0,0 0,0 0,0 0,0zm0 0c0,0 0,0 0,0 0,0 0,0 0,0zm0 0c0,0 0,0 0,0 0,0 0,0 0,0zm0 0c0,0 0,0 0,0 0,0 0,0 0,0zm0 0c0,0 0,0 0,-0.01 0,0.01 0,0.01 0,0.01zm0 -0.01c0,0 0,0 0,0 0,0 0,0 0,0zm0 0c0,0 0,0 0,0 0,0 0,0 0,0zm0 0c0,0 0,0 0,0 0,0 0,0 0,0zm0 0c0,0 0,0 0,0 0,0 0,0 0,0zm0 0c0,0 0,0 0,0 0,0 0,0 0,0zm0 0c0,0 0,0 0,0 0,0 0,0 0,0zm0 -0.01c0,0 0,0 0,0 0,0 0,0 0,0zm0 0c0,0 0,0 0,0 0,0 0,0 0,0zm0 0c0,0 0,0 0,0 0,0 0,0 0,0zm0 0c0,0 0,0 0,0 0,0 0,0 0,0zm0 0c0,0 0,0 0,0 0,0 0,0 0,0zm0 0c0,0 0,0 0,0 0,0 0,0 0,0zm0 -0.01c0,0 0,0 0,0 0,0 0,0 0,0zm0 0c0,0 0,0 0,0 0,0 0,0 0,0zm0 0c0,0 0,0 0,0 0,0 0,0 0,0zm0 0c0,0 0,0 0,0 0,0 0,0 0,0zm0 0c0,0 0,0 0,0 0,0 0,0 0,0zm0 0c0,0 0,0 0,0 0,0 0,0 0,0zm0 0c0,-0.01 0,-0.01 0,-0.01 0,0 0,0 0,0.01zm0 -0.01c0,0 0,0 0,0 0,0 0,0 0,0zm0 0c0,0 0,0 0,0 0,0 0,0 0,0zm0 0c0,0 0,0 0,0 0,0 0,0 0,0zm0 0c0,0 0,0 0,0 0,0 0,0 0,0 0,0 0,0 0,0 0,0 0,0 0,0zm0 0c0,0 0,0 0,0 0,0 0,0 0,0 0,0 0,0 0,0z"/>
  <path class="fil16" d="M3.07 5.28c-0.26,-0.31 -0.43,-0.71 -0.45,-1.14 0,0 0,0 0,0 0,0 0,0 0,0 0,0 0,0 0,0 0,-0.01 0,-0.01 0,-0.01 0,0 0,0 0,0 0,0 0,0 0,0 0,0 0,0 0,0 0,0 0,-0.01 0,-0.01 0,0 0,0 0,0 0,0 0,0 0,0 0,0 0,0 0,0 0,0 0,0 0,0l0 0c0,0 0,0 0,0 0,0 0,0 0,0 0,0 0,0 0,0 0,0 0,0 0,0 0,0 0,0 0,-0.01 0,0 0,0 0,0 0,0 0,0 0,0 0,0 0,0 0,0 0,0 0,0 0,0 0,0 0,0 0,0 0,0 0,0 0,0 0,0 0,0 0,0 0,0 0,0 0,-0.01 0,0 0,0 0,0 0,0 0,0 0,0 0,0 0,0 0,0 0,0 0,0 0,0 0,0 0,0 0,0 0,0 0,0 0,0 0,0 0,0 0,0 0,0 0,0 0,0 0,0 0,0 0,0 0,0 0,0 0,0 0,0 0,0 0,0 0,0 0,0 0,0 0,0 0,0 0,-0.01 0,0 0,0 0,0 0,0 0,0 0,0 0,0 0,0 0,0 0,0 0,0 0,0 0,0 0,0 0,0 0,0 0,0 0,0 0,0 0,0 0,0 0,0 0,0 0,0 0,0 0,0 0,0 0,0 0,0 0,0 0,0 0,0 0,0 0,0 0,0 0,0 0,0 0,0 0,0 0,-0.01 0,-0.01 0,-0.01 0,0 0,0 0,0 0,0 0,0 -0.01,0 0,0 0,0 0,0 0,0 0,0 0,0 0,0 0,0 0,0 0,0 0,0 0,0 0,0 0,0 0,0 0,0 0,0 0,0 0,0 0,0 0,0 0,0 0,0 0,0 0,0 0,0 0,0 0,0 0,-0.01 0,-0.01 0,0 0,0 0,0 0,0 0,0 0,0 0,0 0,0 0,0 0,0 0,0 0,0 0,0 0,0 0,0 0,0 0,0 0,0 0,0 0,0 0,0 0,0 0,0 0,0 0,0 0,0 0,0 0,0 0,0 0,0 0,0 0,0 0,0 0,0 0,0 0,-0.01 0,0 0,0 0,0 0,0 0,0 0,0 0,0 0,0 0,0 0,0 0,0 0,0 0,0 0,0 0,0 0,0 0,0 0,0 0,0 0,0 0,0 0,0 0,0 0,0 0,0 0,0 0,0 0,0 0,0 0,0 0,0 0,0 0,0 0,0 0,0 0,0 0,0 0,-0.01 0,-0.01 0,0 0,0 0,0 0,0 0,0 0,0 0,0 0,0 0,0 0,0 0,0 0,0 0,0 0,0 0,0 0,0 0,0 0,0 0,0 0,0 0,0 0,0 0,0 0,0 0,0 0,0 0,0 0,0 0,0 0,0 0,0 0,0 0,0 0,0 0,0 0,-0.01 0,0 0,0 0,0 0,0 0,0 0,0 0,0 0,0 0,0 0,0 0,0 0,0 0,0 0,0 0,0 0,0 0,0 0,0 0,0 0,0 0,0 0,0 0,0 0,0 0,0 0,0 0,0 0,0 0,0 0,0 0,0 0,0 0,0 0,0 0,0 0,0 0,-0.01 0,-0.01 0,-0.01 0,0 0,0 0,0 0,0 0,0 0,0 0,0 0,0 0,0 0,0 0,0 0,0 0,0 0,0 0,0 0,0 0,0 0,0 0,0 0,0 0,0 0,0 0,0 0,0 0.01,0.19 0.03,0.38 0.09,0.56l0.04 -0.01c0.06,0.25 0.17,0.48 0.32,0.69 0,-0.01 0,-0.01 -0.01,-0.01 0.01,0.01 0.01,0.01 0.02,0.02 0,0 0,0 0,0zm-0.46 -1.25c0,0 0,0 0,0 0,0 0,0 0,0 0,0 0,0 0,0 0,0 0,0 0,0z"/>
  <path class="fil17" d="M2.61 4.03c0,0 0,0 0,0 0,0 0,0 0,0 0,0 0,0 0,0zm0 0c0,0 0,-0.01 0,-0.01 0,0 0,0.01 0,0.01z"/>
  <path class="fil16" d="M2.61 4.03c0,0 0,0 0,0 0,0 0,0 0,0 0,0 0,-0.01 0,-0.01 0,0 0,0 0,0 0,0 0,0.01 0,0.01z"/>
  <path class="fil17" d="M2.61 4.02c0,0 0,0 0,0 0,0 0,0 0,0zm0 0c0,0 0,0 0,0 0,0 0,0 0,0 0,0 0,0 0,0 0,0 0,0 0,0zm0 0c0,0 0,0 0,0 0,0 0,0 0,0z"/>
  <path class="fil16" d="M2.61 4.02c0,0 0,0 0,0 0,0 0,0 0,0 0,0 0,0 0,0 0,0 0,0 0,0 0,0 0,0 0,0zm0 0c0,0 0,0 0,0 0,0 0,0 0,0 0,0 0,0 0,0 0,0 0,0 0,0 0,0 0,0 0,0z"/>
  <path class="fil17" d="M2.61 4.02c0,0 0,0 0,0 0,0 0,0 0,0zm0 0c0,0 0,0 0,0 0,0 0,0 0,0 0,0 0,0 0,0z"/>
  <path class="fil16" d="M2.61 4.02l0 0c0,0 0,0 0,0 0,0 0,0 0,0 0,0 0,0 0,0 0,0 0,0 0,0z"/>
  <path class="fil17" d="M2.61 4.02c0,0 0,0 0,0l0 0c0,0 0,0 0,0zm0 0c0,0 0,0 0,-0.01l0 0c0,0.01 0,0.01 0,0.01z"/>
  <path class="fil16" d="M2.61 4.02l0 0c0,0 0,0 0,0 0,0 0,0 0,-0.01l0 0c0,0.01 0,0.01 0,0.01zm0 -0.01c0,0 0,0 0,0 0,0 0,0 0,0zm0 0c0,0 0,0 0,0 0,0 0,0 0,0zm0 0c0,0 0,0 0,0 0,0 0,0 0,0zm0 0c0,0 0,-0.01 0,-0.01 0,0 0,0.01 0,0.01z"/>
  <path class="fil17" d="M4.63 2.03c0,0 0,0 0,0l0 0zm-0.01 0c0,0 0,0 0,0 0,0 0,0 0,0zm0 0c0,0 0,0 0,0 0,0 0,0 0,0zm0 0c0,0 0,0 0,0 0,0 0,0 0,0zm0 0c0,0 0,0 0,0 0,0 0,0 0,0zm-0.01 0c0,0 0,0 0,0 0,0 0,0 0,0zm0 0c0,0 0,0 0,0 0,0 0,0 0,0zm0 0c0,0 0,0 0,0 0,0 0,0 0,0zm0 0c0,0 0,0 0,0 0,0 0,0 0,0zm-0.01 0c0,0 0,0 0,0 0,0 0,0 0,0zm0 0c0,0 0,0 0,0 0,0 0,0 0,0zm0 0c0,0 0,0 0,0 0,0 0,0 0,0 0,0 0,0 0,0z"/>
  <path class="fil14" d="M2.61 4c0.01,-1.09 0.89,-1.97 1.98,-1.97 -0.2,0 -0.39,0.03 -0.57,0.08l0.04 0.12c-0.59,0.19 -1.06,0.65 -1.26,1.24l-0.1 -0.03c-0.06,0.18 -0.08,0.37 -0.09,0.56zm3.42 -1.33c-0.24,-0.23 -0.54,-0.4 -0.88,-0.48l0.02 -0.08c-0.17,-0.05 -0.36,-0.08 -0.56,-0.08 0,0 0,0 0,0 0,0 0,0 0,0 0,0 0.01,0 0.01,0 0,0 0,0 0,0 0,0 0,0 0,0 0,0 0,0 0,0 0,0 0,0 0,0 0,0 0,0 0,0 0,0 0,0 0,0 0,0 0,0 0,0 0.01,0 0.01,0 0.01,0 0,0 0,0 0,0 0.52,0.01 0.99,0.21 1.33,0.54 0.03,0.03 0.05,0.06 0.07,0.1zm-1.42 -0.64c0,0 0,0 0,0 0,0 0,0 0,0 0,0 0,0 0,0 0,0 0,0 0,0 0,0 0,0 0,0 0,0 0,0 0,0zm0 0c0,0 0,0 0,0 0,0 0,0 0,0 0,0 0,0 0,0 0,0 0,0 0,0zm-0.02 0c0,0 0,0 0,0 0,0 0,0 0,0zm0.02 0c-0.01,0 -0.01,0 -0.01,0 0,0 0,0 0,0 0,0 0,0 0,0 0.01,0 0.01,0 0.01,0zm-0.02 0c0,0 0.01,0 0.01,0 0,0 -0.01,0 -0.01,0zm0.01 0c0,0 0,0 0,0 0,0 0,0 0,0 0,0 0,0 0,0 0,0 0,0 0,0zm0 0c0,0 0,0 0,0 0,0 0,0 0,0 0,0 0,0 0,0zm0 0c0,0 0,0 0,0 0,0 0,0 0,0z"/>
  <path class="fil15" d="M4.06 2.23l-0.04 -0.12c0.18,-0.05 0.37,-0.08 0.57,-0.08 0,0 0,0 0,0 0,0 0,0 0,0l0 0c0,0 0.01,0 0.01,0 0,0 0,0 0,0 0,0 0,0 0,0l0 0c0,0 0,0 0,0 0,0 0,0 0,0 0,0 0,0 0,0 0,0 0,0 0,0 0,0 0,0 0,0 0,0 0,0 0.01,0 0,0 0,0 0,0 0,0 0,0 0,0 0,0 0,0 0,0 0,0 0,0 0,0 0,0 0,0 0,0 0.2,0 0.39,0.03 0.56,0.08l-0.02 0.08c-0.15,-0.04 -0.31,-0.06 -0.48,-0.06 -0.21,0 -0.42,0.03 -0.61,0.1z"/>
  <path class="fil15" d="M2.7 4.59c-0.06,-0.18 -0.08,-0.37 -0.09,-0.56 0,0 0,0 0,0 0,0 0,0 0,0 0,0 0,0 0,0 0,0 0,0 0,0 0,0 0,0 0,0 0,0 0,-0.01 0,-0.01 0,0 0,0 0,0 0,0 0,0 0,0 0,0 0,0 0,0 0,0 0,0 0,0 0,0 0,0 0,0 0,0 0,0 0,0 0,0 0,0 0,0 0,0 0,0 0,0 0,0 0,0 0,0 0,0 0,0 0,-0.01l0 0c0,0 0,0 0,0 0,0 0,0 0,0 0,0 0,0 0,0l0 0c0,0 0,0 0,0 0,0 0,0 0,0 0,0 0,-0.01 0,-0.01 0,0 0,0 0,0 0.01,-0.19 0.03,-0.38 0.09,-0.56l0.1 0.03c-0.07,0.2 -0.11,0.42 -0.11,0.64 0,0.16 0.02,0.32 0.05,0.47l-0.04 0.01z"/>
  <path class="fil18" d="M4.6 6c0,0 0,0 0,0 0,0 0,0 0,0 0,0 0,0 0,0z"/>
  <path class="fil19" d="M4.6 6c0,0 0,0 0,0 0,0 0,0 0,0zm0 0l0 0c0,0 0,0 0,0 0,0 0,0 0,0 0,0 0,0 0,0z"/>
  <path class="fil19" d="M4.6 6c0,0 0,0 0,0 0,0 0,0 0,0z"/>
  <path class="fil18" d="M4.6 6c0,0 -0.01,0 -0.01,0 0,0 0.01,0 0.01,0z"/>
  <path class="fil19" d="M4.6 6c0,0 0,0 0,0 0,0 -0.01,0 -0.01,0 0,0 0,0 0,0 0.01,0 0.01,0 0.01,0z"/>
  <path class="fil19" d="M4.6 6c0,0 0,0 0.01,0 0,0 -0.01,0 -0.01,0z"/>
  <path class="fil18" d="M4.59 6c0,0 0,0 0,0 0,0 0,0 0,0z"/>
  <path class="fil19" d="M4.59 6c0,0 0,0 0,0 0,0 0,0 0,0 0,0 0,0 0,0 0,0 0,0 0,0z"/>
  <path class="fil18" d="M4.59 6c0,0 0,0 0,0 0,0 0,0 0,0 0,0 0,0 0,0zm0 0c0,0 0,0 0,0 0,0 0,0 0,0z"/>
  <path class="fil19" d="M4.59 6c0,0 0,0 0,0 0,0 0,0 0,0 0,0 0,0 0,0l0 0c0,0 0,0 0,0z"/>
  <path class="fil19" d="M4.61 6c0,0 0,0 0,0 0,0 0,0 0,0z"/>
  <path class="fil18" d="M6.58 4.13l0 0c0,-0.03 0,-0.07 0,-0.1l0 0c0,0.03 0,0.07 0,0.1zm0 -0.12c0,0 0,0 0,0 0,0 0,0 0,0 0,0 0,0 0,0zm0 0c0,0 0,0 0,0 0,0 0,0 0,0zm0 0c0,0 0,0 0,0 0,0 0,0 0,0zm0 0c0,0 0,0 0,0 0,0 0,0 0,0 0,0 0,0 0,0zm0 0l0 0c0,0 0,0 0,0zm0 0c0,0 0,0 0,0 0,0 0,0 0,0zm0 0c0,-0.01 0,-0.01 0,-0.01 0,0 0,0 0,0.01zm0 -0.01c0,0 0,0 0,0 0,0 0,0 0,0 0,0 0,0 0,0 0,0 0,0 0,0zm0 0c0,0 0,0 0,0 0,0 0,0 0,0zm0 0c0,0 0,0 0,0 0,0 0,0 0,0zm0 0c0,0 0,0 0,0 0,0 0,0 0,0zm0 0c0,0 0,0 0,0 0,0 0,0 0,0zm0 0c0,-0.01 0,-0.01 0,-0.01 0,0 0,0 0,0.01zm0 -0.01c0,0 0,0 0,0 0,0 0,0 0,0zm0 0c0,0 0,0 0,0 0,0 0,0 0,0zm0 0c0,0 0,0 0,0 0,0 0,0 0,0zm0 0c0,0 0,0 0,0 0,0 0,0 0,0zm0 0c0,0 0,0 0,0 0,0 0,0 0,0zm0 0c0,-0.01 0,-0.01 0,-0.01 0,0 0,0.01 0,0.01zm0 -0.01c0,0 0,0 0,0 0,0 0,0 0,0zm0 0l0 0 0 0z"/>
  <path class="fil20" d="M4.61 6c0.19,0 0.38,-0.03 0.56,-0.08l-0.07 -0.24c0.54,-0.2 0.97,-0.62 1.18,-1.16l0.22 0.07c0.05,-0.18 0.08,-0.37 0.08,-0.56 0,0.03 0,0.07 0,0.1 -0.02,0.39 -0.16,0.75 -0.37,1.04 -0.05,0.07 -0.1,0.14 -0.16,0.2 -0.13,0.14 -0.29,0.27 -0.46,0.36 -0.29,0.17 -0.62,0.27 -0.98,0.27zm1.97 -1.97c0,0 0,-0.01 0,-0.01 0,0 0,0.01 0,0.01zm0 -0.01c0,0 0,0 0,0 0,0 0,0 0,0zm0 0c0,0 0,0 0,0 0,0 0,0 0,0zm0 0c0,0 0,0 0,0 0,0 0,0 0,0zm0 0c0,0 0,0 0,-0.01l0 0c0,0.01 0,0.01 0,0.01zm0 -0.01c0,0 0,0 0,0 0,0 0,0 0,0 0,0 0,0 0,0zm0 0c0,0 0,0 0,0 0,0 0,0 0,0 0,0 0,0 0,0 0,0 0,0 0,0zm0 0c0,0 0,0 0,0 0,0 0,0 0,0 0,0 0,0 0,0 0,0 0,0 0,0 0,0 0,0 0,0zm0 0c0,0 0,0 0,0 0,0 0,0 0,0 0,0 0,0 0,0 0,0 0,0 0,0l0 0zm0 0c0,-0.01 0,-0.01 0,-0.01 0,0 0,0 0,0 0,0 0,0 0,0 0,0 0,0 0,0.01 0,0 0,0 0,0zm0 -0.01c0,0 0,0 0,0 0,0 0,0 0,0 0,0 0,0 0,0 0,0 0,0 0,0 0,0 0,0 0,0zm0 0c0,-0.19 -0.03,-0.38 -0.08,-0.56l-0.13 0.04c-0.05,-0.3 -0.17,-0.58 -0.34,-0.81 0.06,0.05 0.12,0.11 0.17,0.18l0 0c-0.07,-0.1 -0.15,-0.19 -0.24,-0.28 0,0 0,0 0,0 0.38,0.36 0.61,0.86 0.62,1.41l0 0c0,0 0,0 0,0 0,0 0,0 0,0 0,0 0,0 0,0 0,0 0,0 0,0.01 0,0 0,0 0,0 0,0 0,0 0,0 0,0 0,0 0,0 0,0 0,0 0,0 0,0 0,0 0,0 0,0 0,0 0,0 0,0 0,0 0,0 0,0 0,0 0,0 0,0 0,0 0,0 0,0 0,0 0,0 0,0 0,0 0,0 0,0 0,0 0,0.01 0,0 0,0 0,0 0,0 0,0 0,0 0,0 0,0 0,0 0,0 0,0 0,0 0,0 0,0 0,0 0,0 0,0 0,0 0,0 0,0 0,0z"/>
  <path class="fil21" d="M6.5 4.59l-0.22 -0.07c0.08,-0.22 0.12,-0.45 0.12,-0.7 0,-0.12 -0.01,-0.23 -0.03,-0.34l0.13 -0.04c0.05,0.18 0.08,0.37 0.08,0.56l0 0c0,0 0,0 0,0 0,0 0,0 0,0 0,0 0,0 0,0.01 0,0 0,0 0,0 0,0 0,0 0,0l0 0c0,0 0,0 0,0 0,0 0,0 0,0 0,0 0,0 0,0 0,0 0,0 0,0 0,0 0,0 0,0 0,0 0,0 0,0 0,0 0,0 0,0 0,0 0,0 0,0l0 0c0,0.01 0,0.01 0,0.01l0 0c0,0 0,0 0,0l0 0c0,0 0,0 0,0l0 0c0,0 0,0 0,0l0 0c0,0 0,0 0,0l0 0c0,0 0,0 0,0l0 0c0,0 0,0 0,0l0 0c0,0 0,0 0,0l0 0c0,0 0,0.01 0,0.01l0 0c0,0 0,0 0,0l0 0c0,0.19 -0.03,0.38 -0.08,0.56z"/>
  <path class="fil18" d="M4.59 6c0,0 0,0 0,0 0,0 0,0 0,0z"/>
  <path class="fil19" d="M4.59 6c0,0 0,0 0,0 0,0 0,0 0,0 0,0 0,0 0,0 0,0 0,0 0,0z"/>
  <path class="fil18" d="M4.58 6c0,0 0,0 0,0 0,0 0,0 0,0zm0 0c0,0 0,0 0,0 0,0 0,0 0,0zm0 0c0,0 0,0 0,0 0,0 0,0 0,0zm0 0c0,0 0,0 0,0 0,0 0,0 0,0zm0 0c0,0 0,0 0,0 0,0 0,0 0,0zm0 0c0,0 0,0 0,0 0,0 0,0 0,0zm-0.01 0c0,0 0,0 0,0 0,0 0,0 0,0zm0 0c0,0 0,0 0,0l0 0zm0 0c0,0 0,0 0,0l0 0zm-0.01 0l0 0 0 0z"/>
  <path class="fil20" d="M4.59 6c0,0 0,0 -0.01,0 0,0 0,0 0,0 0,0 0,0 0,0 0,0 0,0 0,0 0,0 0,0 0,0 0,0 0,0 0,0 0,0 0,0 0,0 0,0 0,0 0,0 0,0 0,0 0,0 0,0 0,0 0,0 0,0 0,0 0,0 0,0 0,0 0,0 -0.01,0 -0.01,0 -0.01,0 0,0 0,0 0,0 0,0 0,0 0,0l0 0c0,0 0,0 0,0l0 0c0,0 -0.01,0 -0.01,0l0 0c-0.6,-0.01 -1.13,-0.29 -1.49,-0.72 0,0 -0.01,-0.01 -0.01,-0.01 0.27,0.25 0.62,0.43 1.01,0.5l-0.05 0.15c0.18,0.05 0.37,0.08 0.57,0.08z"/>
  <path class="fil21" d="M4.6 6l0 0c0,0 0,0 0,0 0,0 0,0 0,0 0,0 0,0 0,0 0,0 0,0 -0.01,0 0,0 0,0 0,0 0,0 0,0 0,0 0,0 0,0 0,0 0,0 0,0 0,0 0,0 0,0 0,0 0,0 0,0 0,0 0,0 0,0 0,0 0,0 0,0 0,0 -0.2,0 -0.39,-0.03 -0.57,-0.08l0.05 -0.15c0.11,0.02 0.23,0.03 0.35,0.03 0.24,0 0.47,-0.04 0.68,-0.12l0.07 0.24c-0.18,0.05 -0.37,0.08 -0.56,0.08l0 0 0 0 0 0c0,0 0,0 0,0l0 0c0,0 0,0 0,0l0 0c-0.01,0 -0.01,0 -0.01,0l0 0c0,0 0,0 0,0l0 0c0,0 0,0 0,0l0 0c0,0 0,0 0,0l0 0c0,0 0,0 0,0l0 0z"/>
  <path class="fil22" d="M3.07 5.28c-0.01,-0.01 -0.01,-0.01 -0.02,-0.02 0.01,0 0.01,0 0.01,0.01 0,0 0.01,0.01 0.01,0.01zm3.13 -2.43c-0.05,-0.07 -0.11,-0.13 -0.17,-0.18 -0.02,-0.04 -0.04,-0.07 -0.07,-0.1 0.09,0.09 0.17,0.18 0.24,0.28z"/>
  <path class="fil14" d="M4.63 1.96c0.1,-0.04 0.21,-0.06 0.32,-0.04 0.1,0.01 0.2,0.05 0.29,0.09 0.1,0.04 0.19,0.09 0.28,0.14 0.09,0.05 0.18,0.09 0.28,0.13 0.09,0.05 0.18,0.1 0.26,0.18 0.07,0.07 0.14,0.16 0.21,0.25 0.06,0.09 0.12,0.18 0.18,0.28 0.05,0.08 0.08,0.18 0.11,0.27 0.03,0.13 0.06,0.27 0.08,0.4 0.02,0.11 0.06,0.24 0.01,0.34 0,0 -0.01,0.01 0,0.03 0.01,0.03 0.02,0.03 0.02,0.03 0.04,-0.06 0.06,-0.16 0.05,-0.24 0,-0.08 -0.01,-0.16 -0.03,-0.24 -0.04,-0.18 -0.07,-0.38 -0.15,-0.55 -0.05,-0.1 -0.11,-0.19 -0.17,-0.27 -0.06,-0.09 -0.13,-0.18 -0.2,-0.26 -0.07,-0.08 -0.14,-0.14 -0.23,-0.2 -0.09,-0.05 -0.18,-0.09 -0.28,-0.14 -0.17,-0.07 -0.33,-0.17 -0.5,-0.24 -0.17,-0.06 -0.39,-0.09 -0.55,0.01 -0.01,0.01 -0.01,0.04 -0.01,0.04 0.01,0 0.03,-0.01 0.03,-0.01z"/>
  <path class="fil14" d="M6.69 4.09c0.1,0.2 0.03,0.33 -0.03,0.49 -0.07,0.16 -0.16,0.31 -0.22,0.47 -0.14,0.34 -0.48,0.55 -0.77,0.73 -0.07,0.04 -0.14,0.09 -0.21,0.13 -0.09,0.04 -0.18,0.08 -0.27,0.11 -0.09,0.03 -0.19,0.07 -0.29,0.08 -0.08,0 -0.17,0 -0.25,-0.02 -0.02,-0.01 -0.03,-0.02 -0.05,-0.02 0,0 -0.01,0.05 0.03,0.07 0.1,0.03 0.16,0.04 0.26,0.03 0.1,0 0.2,-0.04 0.29,-0.07 0.1,-0.03 0.19,-0.07 0.28,-0.11 0.08,-0.04 0.16,-0.09 0.23,-0.14 0.3,-0.18 0.62,-0.38 0.78,-0.7 0.04,-0.09 0.07,-0.18 0.11,-0.26 0.05,-0.09 0.09,-0.18 0.13,-0.27 0.07,-0.17 0.11,-0.36 0.02,-0.53 0,0 -0.01,0 -0.01,-0.01 -0.01,-0.02 -0.04,-0.02 -0.05,-0.01 0,0 0.01,0.01 0.02,0.03z"/>
  <path class="fil14" d="M4.57 6.07c-0.05,0.02 -0.09,0.05 -0.15,0.06 -0.05,0.02 -0.1,0.02 -0.15,0.02 -0.1,0 -0.2,-0.03 -0.29,-0.07 -0.18,-0.08 -0.36,-0.19 -0.52,-0.29 -0.17,-0.11 -0.33,-0.23 -0.46,-0.38 -0.13,-0.16 -0.21,-0.35 -0.3,-0.54 -0.06,-0.15 -0.13,-0.29 -0.17,-0.45 -0.01,-0.06 -0.02,-0.13 -0.02,-0.2 -0.01,-0.06 -0.02,-0.12 0.02,-0.16 0.01,-0.01 0.02,-0.03 0.02,-0.04 0,0 -0.02,-0.01 -0.04,0.02 -0.09,0.11 -0.07,0.24 -0.04,0.36 0.03,0.16 0.1,0.32 0.17,0.48 0.08,0.18 0.17,0.37 0.29,0.53 0.12,0.16 0.28,0.28 0.44,0.39 0.18,0.13 0.38,0.25 0.59,0.33 0.1,0.05 0.21,0.08 0.32,0.08 0.11,0 0.24,-0.03 0.31,-0.12 0.01,-0.01 0.01,-0.03 0.01,-0.03 -0.02,0 -0.03,0.01 -0.03,0.01z"/>
  <path class="fil14" d="M2.55 3.99c-0.06,-0.18 -0.07,-0.38 -0.02,-0.58 0.04,-0.19 0.15,-0.35 0.24,-0.52 0.05,-0.08 0.09,-0.17 0.15,-0.24 0.07,-0.08 0.15,-0.14 0.23,-0.2 0.16,-0.11 0.33,-0.22 0.51,-0.31 0.16,-0.08 0.31,-0.15 0.47,-0.2 0.14,-0.04 0.32,-0.11 0.42,0.01 0,0 0.02,0.01 0.03,0.01 0.01,0.01 0.02,0.01 0.02,0.01 -0.02,-0.13 -0.22,-0.14 -0.34,-0.12 -0.15,0.02 -0.3,0.08 -0.44,0.14 -0.14,0.07 -0.29,0.14 -0.42,0.22 -0.09,0.06 -0.18,0.12 -0.27,0.19 -0.08,0.05 -0.16,0.11 -0.22,0.18 -0.09,0.1 -0.15,0.21 -0.21,0.32 -0.06,0.12 -0.13,0.22 -0.17,0.34 -0.09,0.23 -0.13,0.54 -0.01,0.76 0.01,0.02 0.03,0.02 0.03,0.02 0,0 0.01,-0.01 0,-0.03z"/>
  <path class="fil23" d="M17.49 5.1l-0.31 -0.32c0.12,0.08 0.23,0.19 0.31,0.32zm-1.83 1.2l0.32 0.32c-0.13,-0.09 -0.24,-0.19 -0.32,-0.32zm0.52 0.42l-0.62 -0.62c-0.02,-0.03 -0.03,-0.06 -0.03,-0.09l0.74 0.74c-0.03,-0.01 -0.06,-0.02 -0.09,-0.03zm0.21 0.06l-0.89 -0.9c-0.01,-0.02 -0.01,-0.04 -0.01,-0.06l0.97 0.97c-0.02,0 -0.04,-0.01 -0.07,-0.01zm0.17 0.02l-1.08 -1.09c0,0 0,-0.01 0,-0.01l0 0c0,-0.01 0,-0.03 0,-0.04l1.14 1.13c-0.02,0.01 -0.03,0.01 -0.04,0.01 -0.01,0 -0.01,0 -0.02,0zm0.15 -0.01l-1.22 -1.22c0,-0.02 0,-0.04 0.01,-0.05l1.26 1.26c-0.02,0 -0.03,0.01 -0.05,0.01zm0.13 -0.03l-1.33 -1.32c0.01,-0.02 0.01,-0.03 0.01,-0.05l1.36 1.36c-0.01,0.01 -0.02,0.01 -0.04,0.01zm0.12 -0.03l-1.41 -1.41c0,-0.02 0.01,-0.03 0.02,-0.04l1.43 1.43c-0.01,0.01 -0.03,0.01 -0.04,0.02zm0.11 -0.05l-1.47 -1.47c0,-0.01 0.01,-0.02 0.02,-0.04l1.48 1.49c-0.01,0.01 -0.02,0.01 -0.03,0.02zm0.1 -0.06l-1.52 -1.51c0.01,-0.01 0.02,-0.02 0.02,-0.03l1.53 1.52c-0.01,0.01 -0.02,0.02 -0.03,0.02zm0.09 -0.06l-1.54 -1.54c0,-0.01 0.01,-0.02 0.02,-0.03l1.55 1.55c-0.01,0 -0.02,0.01 -0.03,0.02zm0.08 -0.07l-1.55 -1.55c0.01,-0.01 0.02,-0.02 0.03,-0.03l1.55 1.55c-0.01,0.01 -0.02,0.02 -0.03,0.03zm0.07 -0.08l-1.54 -1.55c0.01,-0.01 0.02,-0.01 0.03,-0.02l1.54 1.54c-0.01,0.01 -0.02,0.02 -0.03,0.03zm0.07 -0.09l-1.52 -1.52c0.01,-0.01 0.02,-0.02 0.03,-0.03l1.51 1.52c0,0.01 -0.01,0.02 -0.02,0.03zm0.06 -0.09l-1.49 -1.49c0.01,-0.01 0.03,-0.02 0.04,-0.02l1.47 1.47c-0.01,0.01 -0.01,0.02 -0.02,0.04zm0.05 -0.11l-1.43 -1.43c0.01,-0.01 0.02,-0.01 0.04,-0.02l1.41 1.41c-0.01,0.01 -0.01,0.03 -0.02,0.04zm0.04 -0.11l-1.36 -1.36c0.01,-0.01 0.03,-0.01 0.04,-0.02l1.33 1.33c0,0.02 -0.01,0.03 -0.01,0.05zm0.03 -0.13l-1.26 -1.26c0.01,0 0.03,-0.01 0.04,-0.01l1.23 1.22c-0.01,0.02 -0.01,0.03 -0.01,0.05zm0.01 -0.14l-1.13 -1.14c0.01,0 0.02,0 0.04,0 0,0 0.01,0 0.01,0l1.08 1.09c0,0 0,0 0,0.01 0,0.01 0,0.03 0,0.04zm0 -0.16l-0.97 -0.97c0.02,0 0.04,0 0.06,0.01l0.9 0.9c0,0.02 0.01,0.04 0.01,0.06zm-0.04 -0.19l-0.74 -0.74c0.03,0.01 0.06,0.02 0.08,0.03l0.63 0.62c0.01,0.03 0.02,0.06 0.03,0.09z"/>
  <path class="fil9" d="M13.79 4.6c0,0 -0.01,-0.02 -0.01,-0.01l1.33 0c0.03,-0.09 0.04,-0.16 -0.01,-0.24 -0.04,-0.07 -0.14,-0.12 -0.21,-0.09 -0.06,0.03 -0.1,0.08 -0.16,0.08 -0.06,0 -0.11,-0.07 -0.16,-0.11 -0.08,-0.05 -0.18,-0.04 -0.25,0.03 -0.04,0.04 -0.07,0.11 -0.12,0.14 -0.06,0.04 -0.13,0.02 -0.2,0.02 -0.06,-0.01 -0.14,-0.01 -0.18,0.04 -0.03,0.04 -0.01,0.09 -0.03,0.14z"/>
  <path class="fil9" d="M1.58 3.29l-1.57 0c-0.02,-0.09 -0.01,-0.2 0.04,-0.27 0.06,-0.08 0.17,-0.12 0.25,-0.08 0.07,0.03 0.12,0.11 0.19,0.13 0.08,0.03 0.17,-0.02 0.24,-0.07 0.07,-0.05 0.14,-0.11 0.22,-0.11 0.08,0 0.14,0.04 0.2,0.09 0.03,0.02 0.05,0.05 0.08,0.07 0.07,0.05 0.16,0.04 0.25,0.06 0.02,0.01 0.04,0.01 0.05,0.03 0.05,0.03 0.05,0.1 0.05,0.15z"/>
 </g>
</svg>
