<?xml version="1.0" encoding="UTF-8"?>
<!DOCTYPE svg PUBLIC "-//W3C//DTD SVG 1.1//EN" "http://www.w3.org/Graphics/SVG/1.1/DTD/svg11.dtd">
<!-- Creator: CorelDRAW 2020 (64-Bit) -->
<svg xmlns="http://www.w3.org/2000/svg" xml:space="preserve" width="800px" height="490px" version="1.1" style="shape-rendering:geometricPrecision; text-rendering:geometricPrecision; image-rendering:optimizeQuality; fill-rule:evenodd; clip-rule:evenodd"
viewBox="0 0 62.47 38.21"
 xmlns:xlink="http://www.w3.org/1999/xlink"
 xmlns:xodm="http://www.corel.com/coreldraw/odm/2003">
 <defs>
  <style type="text/css">
   <![CDATA[
    .fil13 {fill:#233862;fill-rule:nonzero}
    .fil18 {fill:#2774D1;fill-rule:nonzero}
    .fil1 {fill:#2B478B;fill-rule:nonzero}
    .fil15 {fill:#2F2E41;fill-rule:nonzero}
    .fil2 {fill:#3F65AC;fill-rule:nonzero}
    .fil17 {fill:#4C99F8;fill-rule:nonzero}
    .fil9 {fill:#699FF0;fill-rule:nonzero}
    .fil10 {fill:#77A4E5;fill-rule:nonzero}
    .fil6 {fill:#88ADD8;fill-rule:nonzero}
    .fil8 {fill:#98B9EA;fill-rule:nonzero}
    .fil7 {fill:#AFCDFB;fill-rule:nonzero}
    .fil11 {fill:#D87225;fill-rule:nonzero}
    .fil0 {fill:#DCEAFF;fill-rule:nonzero}
    .fil4 {fill:#EBF3FA;fill-rule:nonzero}
    .fil16 {fill:#ED975D;fill-rule:nonzero}
    .fil14 {fill:#F99746;fill-rule:nonzero}
    .fil12 {fill:#FFB27D;fill-rule:nonzero}
    .fil5 {fill:white;fill-rule:nonzero}
    .fil19 {fill:white;fill-rule:nonzero}
    .fil3 {fill:url(#id0);fill-rule:nonzero}
   ]]>
  </style>
  <linearGradient id="id0" gradientUnits="userSpaceOnUse" x1="53.35" y1="8.34" x2="5.51" y2="24.15">
   <stop offset="0" style="stop-opacity:1; stop-color:#00D9FF"/>
   <stop offset="1" style="stop-opacity:1; stop-color:#925FF2"/>
  </linearGradient>
 </defs>
 <g id="Слой_x0020_1">
  <metadata id="CorelCorpID_0Corel-Layer"/>
  <g id="_2366975331104">
   <polygon class="fil0" points="1.63,29.78 6.16,29.78 6.16,28.18 1.63,28.18 "/>
   <path class="fil1" d="M27.37 4.46l0 33.75 -27.37 0 0 -33.75c0,-0.77 0.63,-1.4 1.4,-1.4l24.57 0c0.77,0 1.4,0.63 1.4,1.4z"/>
   <path class="fil2" d="M17.7 5.02l-7.12 0c-0.15,0 -0.27,-0.12 -0.27,-0.27 0,-0.15 0.12,-0.28 0.27,-0.28l7.12 0c0.15,0 0.27,0.13 0.27,0.28 0,0.15 -0.12,0.27 -0.27,0.27z"/>
   <path class="fil2" d="M9.32 5.02l0 0c-0.15,0 -0.28,-0.12 -0.28,-0.27 0,-0.15 0.13,-0.28 0.28,-0.28l0 0c0.15,0 0.28,0.13 0.28,0.28 0,0.15 -0.13,0.27 -0.28,0.27z"/>
   <polygon class="fil0" points="25.91,38.21 25.91,6.26 1.64,6.26 1.64,38.21 "/>
   <polygon class="fil3" points="1.64,22.58 25.87,22.58 25.87,6.26 1.64,6.26 "/>
   <path class="fil4" d="M5.42 9.27c-0.29,0 -0.54,0.24 -0.54,0.54l0 9.5c0,0.29 0.25,0.54 0.54,0.54l16.71 0c0.3,0 0.54,-0.25 0.54,-0.54l0 -9.5c0,-0.3 -0.24,-0.54 -0.54,-0.54l-16.71 0zm16.71 10.7l-16.71 0c-0.36,0 -0.66,-0.3 -0.66,-0.66l0 -9.5c0,-0.37 0.3,-0.66 0.66,-0.66l16.71 0c0.36,0 0.66,0.29 0.66,0.66l0 9.5c0,0.36 -0.3,0.66 -0.66,0.66z"/>
   <path class="fil5" d="M10.43 17.79l-3.85 0.03c-0.16,0 -0.3,-0.13 -0.3,-0.3l0 -0.03c0,-0.17 0.13,-0.3 0.3,-0.3l3.85 -0.03c0.16,0 0.3,0.13 0.3,0.29l0 0.04c0,0.16 -0.13,0.3 -0.3,0.3z"/>
   <path class="fil5" d="M15.51 17.75l-3.85 0.03c-0.16,0 -0.3,-0.13 -0.3,-0.3l0 -0.03c0,-0.17 0.13,-0.3 0.29,-0.3l3.86 -0.03c0.16,0 0.29,0.13 0.3,0.29l0 0.04c0,0.16 -0.14,0.3 -0.3,0.3z"/>
   <path class="fil5" d="M6.8 13.96c0,-0.09 -0.01,-0.16 -0.04,-0.22 -0.03,-0.09 -0.08,-0.14 -0.15,-0.14 -0.07,0 -0.12,0.05 -0.15,0.14 -0.02,0.06 -0.03,0.13 -0.03,0.22 0,0.24 0.07,0.36 0.19,0.36 0.07,0 0.12,-0.05 0.15,-0.14 0.02,-0.06 0.03,-0.13 0.03,-0.22zm0.17 0c0,0.14 -0.02,0.25 -0.07,0.34 -0.06,0.12 -0.15,0.18 -0.28,0.18 -0.13,0 -0.23,-0.06 -0.29,-0.17 -0.05,-0.09 -0.07,-0.21 -0.07,-0.35 -0.01,-0.14 0.02,-0.25 0.07,-0.34 0.06,-0.11 0.15,-0.17 0.28,-0.17 0.13,0 0.23,0.05 0.29,0.16 0.05,0.09 0.07,0.21 0.07,0.35z"/>
   <path class="fil5" d="M7.59 13.95c0,-0.09 -0.01,-0.16 -0.03,-0.22 -0.04,-0.09 -0.09,-0.13 -0.16,-0.13 -0.07,0 -0.12,0.04 -0.15,0.13 -0.02,0.06 -0.03,0.14 -0.03,0.23 0.01,0.24 0.07,0.35 0.19,0.35 0.07,0 0.12,-0.04 0.15,-0.13 0.02,-0.06 0.03,-0.14 0.03,-0.23zm0.17 0c0.01,0.14 -0.02,0.26 -0.07,0.35 -0.06,0.11 -0.15,0.17 -0.28,0.17 -0.13,0 -0.22,-0.05 -0.29,-0.17 -0.05,-0.09 -0.07,-0.2 -0.07,-0.34 0,-0.14 0.02,-0.26 0.07,-0.35 0.06,-0.11 0.15,-0.17 0.28,-0.17 0.13,0 0.23,0.06 0.29,0.17 0.05,0.09 0.07,0.2 0.07,0.34z"/>
   <path class="fil5" d="M8.38 13.95c0,-0.09 -0.01,-0.17 -0.03,-0.23 -0.03,-0.08 -0.08,-0.13 -0.15,-0.13 -0.08,0 -0.13,0.05 -0.16,0.14 -0.02,0.06 -0.03,0.13 -0.03,0.22 0.01,0.24 0.07,0.36 0.19,0.36 0.07,0 0.12,-0.05 0.15,-0.14 0.02,-0.06 0.03,-0.13 0.03,-0.22zm0.18 0c0,0.14 -0.03,0.25 -0.08,0.34 -0.06,0.12 -0.15,0.17 -0.28,0.17 -0.13,0 -0.22,-0.05 -0.29,-0.16 -0.05,-0.09 -0.07,-0.21 -0.07,-0.35 0,-0.14 0.02,-0.25 0.07,-0.34 0.06,-0.12 0.15,-0.17 0.28,-0.18 0.13,0 0.23,0.06 0.29,0.17 0.05,0.09 0.07,0.21 0.08,0.35z"/>
   <path class="fil5" d="M9.17 13.94c0,-0.09 -0.01,-0.16 -0.03,-0.22 -0.03,-0.09 -0.08,-0.14 -0.15,-0.13 -0.08,0 -0.13,0.04 -0.15,0.13 -0.03,0.06 -0.04,0.13 -0.03,0.22 0,0.24 0.06,0.36 0.18,0.36 0.07,0 0.12,-0.04 0.15,-0.14 0.02,-0.05 0.03,-0.13 0.03,-0.22zm0.18 0c0,0.14 -0.03,0.26 -0.07,0.35 -0.06,0.11 -0.16,0.17 -0.29,0.17 -0.13,0 -0.22,-0.06 -0.28,-0.17 -0.05,-0.09 -0.08,-0.2 -0.08,-0.34 0,-0.15 0.02,-0.26 0.07,-0.35 0.06,-0.11 0.15,-0.17 0.28,-0.17 0.13,0 0.23,0.05 0.29,0.17 0.05,0.08 0.08,0.2 0.08,0.34z"/>
   <path class="fil5" d="M10.37 13.93c0,-0.09 -0.01,-0.16 -0.03,-0.22 -0.03,-0.09 -0.09,-0.13 -0.15,-0.13 -0.08,0 -0.13,0.04 -0.16,0.13 -0.02,0.06 -0.03,0.14 -0.03,0.22 0.01,0.24 0.07,0.36 0.19,0.36 0.07,0 0.12,-0.04 0.15,-0.14 0.02,-0.05 0.03,-0.13 0.03,-0.22zm0.18 0c0,0.14 -0.03,0.26 -0.08,0.35 -0.06,0.11 -0.15,0.17 -0.28,0.17 -0.13,0 -0.22,-0.06 -0.29,-0.17 -0.05,-0.09 -0.07,-0.2 -0.07,-0.34 0,-0.14 0.02,-0.26 0.07,-0.35 0.06,-0.11 0.15,-0.17 0.28,-0.17 0.13,0 0.23,0.05 0.29,0.17 0.05,0.09 0.07,0.2 0.08,0.34z"/>
   <path class="fil5" d="M11.16 13.93c0,-0.09 -0.01,-0.17 -0.03,-0.23 -0.03,-0.09 -0.08,-0.13 -0.15,-0.13 -0.08,0 -0.13,0.05 -0.15,0.13 -0.03,0.06 -0.04,0.14 -0.03,0.23 0,0.24 0.06,0.36 0.18,0.36 0.07,0 0.12,-0.05 0.15,-0.14 0.02,-0.06 0.03,-0.14 0.03,-0.22zm0.18 -0.01c0,0.14 -0.03,0.26 -0.07,0.35 -0.06,0.11 -0.16,0.17 -0.29,0.17 -0.13,0 -0.22,-0.05 -0.28,-0.17 -0.05,-0.08 -0.08,-0.2 -0.08,-0.34 0,-0.14 0.02,-0.26 0.07,-0.34 0.06,-0.12 0.15,-0.18 0.28,-0.18 0.13,0 0.23,0.06 0.29,0.17 0.05,0.09 0.08,0.2 0.08,0.34z"/>
   <path class="fil5" d="M11.95 13.92c0,-0.09 -0.01,-0.16 -0.03,-0.22 -0.03,-0.09 -0.08,-0.14 -0.15,-0.14 -0.07,0 -0.12,0.05 -0.15,0.14 -0.02,0.06 -0.03,0.13 -0.03,0.22 0,0.24 0.06,0.36 0.18,0.36 0.07,0 0.12,-0.05 0.15,-0.14 0.02,-0.06 0.03,-0.13 0.03,-0.22zm0.18 0c0,0.14 -0.02,0.25 -0.07,0.34 -0.06,0.12 -0.16,0.18 -0.29,0.18 -0.13,0 -0.22,-0.06 -0.28,-0.17 -0.05,-0.09 -0.08,-0.21 -0.08,-0.35 0,-0.14 0.02,-0.25 0.07,-0.34 0.06,-0.11 0.16,-0.17 0.28,-0.17 0.13,0 0.23,0.05 0.29,0.16 0.05,0.09 0.08,0.21 0.08,0.35z"/>
   <path class="fil5" d="M12.74 13.91c0,-0.09 -0.01,-0.16 -0.03,-0.22 -0.03,-0.09 -0.08,-0.13 -0.15,-0.13 -0.07,0 -0.12,0.04 -0.15,0.13 -0.02,0.06 -0.03,0.14 -0.03,0.23 0,0.24 0.06,0.35 0.18,0.35 0.07,0 0.12,-0.04 0.15,-0.13 0.02,-0.06 0.03,-0.14 0.03,-0.23zm0.18 0c0,0.14 -0.02,0.26 -0.07,0.35 -0.06,0.11 -0.16,0.17 -0.29,0.17 -0.12,0 -0.22,-0.05 -0.28,-0.17 -0.05,-0.09 -0.08,-0.2 -0.08,-0.34 0,-0.14 0.02,-0.26 0.07,-0.35 0.06,-0.11 0.16,-0.17 0.29,-0.17 0.13,0 0.22,0.06 0.28,0.17 0.05,0.09 0.08,0.2 0.08,0.34z"/>
   <path class="fil5" d="M13.94 13.9c0,-0.08 -0.01,-0.16 -0.03,-0.22 -0.03,-0.09 -0.08,-0.13 -0.15,-0.13 -0.07,0 -0.12,0.04 -0.15,0.13 -0.02,0.06 -0.03,0.14 -0.03,0.23 0,0.24 0.06,0.36 0.18,0.35 0.07,0 0.12,-0.04 0.15,-0.13 0.02,-0.06 0.03,-0.14 0.03,-0.23zm0.18 0c0,0.14 -0.02,0.26 -0.07,0.35 -0.06,0.11 -0.16,0.17 -0.29,0.17 -0.13,0 -0.22,-0.05 -0.28,-0.17 -0.05,-0.09 -0.08,-0.2 -0.08,-0.34 0,-0.14 0.02,-0.26 0.07,-0.35 0.06,-0.11 0.16,-0.17 0.28,-0.17 0.13,0 0.23,0.06 0.29,0.17 0.05,0.09 0.08,0.2 0.08,0.34z"/>
   <path class="fil5" d="M14.73 13.9c0,-0.09 -0.01,-0.16 -0.03,-0.22 -0.03,-0.09 -0.08,-0.14 -0.15,-0.14 -0.07,0 -0.12,0.05 -0.15,0.14 -0.02,0.06 -0.03,0.13 -0.03,0.22 0,0.24 0.06,0.36 0.18,0.36 0.07,0 0.12,-0.05 0.15,-0.14 0.02,-0.06 0.03,-0.13 0.03,-0.22zm0.18 0c0,0.14 -0.02,0.25 -0.07,0.34 -0.06,0.12 -0.16,0.17 -0.29,0.17 -0.12,0.01 -0.22,-0.05 -0.28,-0.16 -0.05,-0.09 -0.08,-0.21 -0.08,-0.35 0,-0.14 0.02,-0.25 0.07,-0.34 0.06,-0.12 0.16,-0.17 0.29,-0.17 0.13,-0.01 0.22,0.05 0.28,0.16 0.05,0.09 0.08,0.21 0.08,0.35z"/>
   <path class="fil5" d="M15.52 13.89c0,-0.09 -0.01,-0.16 -0.03,-0.22 -0.03,-0.09 -0.08,-0.13 -0.15,-0.13 -0.07,0 -0.12,0.04 -0.15,0.13 -0.02,0.06 -0.03,0.13 -0.03,0.22 0,0.24 0.06,0.36 0.18,0.36 0.08,0 0.13,-0.04 0.15,-0.14 0.02,-0.05 0.03,-0.13 0.03,-0.22zm0.18 0c0,0.14 -0.02,0.26 -0.07,0.35 -0.06,0.11 -0.16,0.17 -0.29,0.17 -0.12,0 -0.22,-0.06 -0.28,-0.17 -0.05,-0.09 -0.08,-0.2 -0.08,-0.34 0,-0.14 0.02,-0.26 0.07,-0.35 0.06,-0.11 0.16,-0.17 0.29,-0.17 0.13,0 0.22,0.05 0.28,0.17 0.05,0.09 0.08,0.2 0.08,0.34z"/>
   <path class="fil5" d="M16.31 13.89c0,-0.09 -0.01,-0.17 -0.03,-0.23 -0.03,-0.09 -0.08,-0.13 -0.15,-0.13 -0.07,0 -0.12,0.04 -0.15,0.13 -0.02,0.06 -0.03,0.14 -0.03,0.23 0,0.24 0.06,0.36 0.19,0.36 0.07,0 0.12,-0.05 0.15,-0.14 0.02,-0.06 0.02,-0.14 0.02,-0.22zm0.18 -0.01c0,0.14 -0.02,0.26 -0.07,0.35 -0.06,0.11 -0.16,0.17 -0.28,0.17 -0.13,0 -0.23,-0.05 -0.29,-0.17 -0.05,-0.08 -0.08,-0.2 -0.08,-0.34 0,-0.14 0.03,-0.26 0.07,-0.34 0.06,-0.12 0.16,-0.18 0.29,-0.18 0.13,0 0.22,0.06 0.29,0.17 0.05,0.09 0.07,0.2 0.07,0.34z"/>
   <path class="fil5" d="M17.51 13.88c0,-0.09 -0.01,-0.17 -0.03,-0.23 -0.03,-0.09 -0.08,-0.13 -0.15,-0.13 -0.07,0 -0.12,0.05 -0.15,0.13 -0.02,0.06 -0.03,0.14 -0.03,0.23 0,0.24 0.06,0.36 0.18,0.36 0.08,0 0.13,-0.05 0.15,-0.14 0.02,-0.06 0.03,-0.13 0.03,-0.22zm0.18 -0.01c0,0.15 -0.02,0.26 -0.07,0.35 -0.06,0.11 -0.16,0.17 -0.29,0.17 -0.12,0 -0.22,-0.05 -0.28,-0.16 -0.05,-0.09 -0.08,-0.21 -0.08,-0.35 0,-0.14 0.02,-0.25 0.07,-0.34 0.06,-0.12 0.16,-0.18 0.29,-0.18 0.13,0 0.22,0.06 0.28,0.17 0.05,0.09 0.08,0.2 0.08,0.34z"/>
   <path class="fil5" d="M18.3 13.87c0,-0.09 -0.01,-0.16 -0.03,-0.22 -0.03,-0.09 -0.08,-0.14 -0.15,-0.14 -0.07,0 -0.12,0.05 -0.15,0.14 -0.02,0.06 -0.03,0.13 -0.03,0.22 0,0.24 0.06,0.36 0.19,0.36 0.07,0 0.12,-0.05 0.15,-0.14 0.02,-0.06 0.02,-0.13 0.02,-0.22zm0.18 0c0,0.14 -0.02,0.25 -0.07,0.34 -0.06,0.12 -0.16,0.18 -0.28,0.18 -0.13,0 -0.23,-0.06 -0.29,-0.17 -0.05,-0.09 -0.08,-0.21 -0.08,-0.35 0,-0.14 0.03,-0.25 0.07,-0.34 0.06,-0.11 0.16,-0.17 0.29,-0.17 0.13,0 0.22,0.05 0.29,0.17 0.04,0.08 0.07,0.2 0.07,0.34z"/>
   <path class="fil5" d="M19.1 13.86c-0.01,-0.08 -0.02,-0.16 -0.04,-0.22 -0.03,-0.09 -0.08,-0.13 -0.15,-0.13 -0.07,0 -0.12,0.04 -0.15,0.13 -0.02,0.06 -0.03,0.14 -0.03,0.23 0,0.24 0.06,0.36 0.19,0.35 0.07,0 0.12,-0.04 0.15,-0.13 0.02,-0.06 0.03,-0.14 0.03,-0.23zm0.17 0c0,0.14 -0.02,0.26 -0.07,0.35 -0.06,0.11 -0.15,0.17 -0.28,0.17 -0.13,0 -0.23,-0.05 -0.29,-0.17 -0.05,-0.09 -0.07,-0.2 -0.08,-0.34 0,-0.14 0.03,-0.26 0.07,-0.35 0.06,-0.11 0.16,-0.17 0.29,-0.17 0.13,0 0.22,0.06 0.29,0.17 0.05,0.09 0.07,0.2 0.07,0.34z"/>
   <path class="fil5" d="M19.89 13.86c0,-0.09 -0.01,-0.16 -0.04,-0.22 -0.03,-0.09 -0.08,-0.14 -0.15,-0.14 -0.07,0 -0.12,0.05 -0.15,0.14 -0.02,0.06 -0.03,0.13 -0.03,0.22 0,0.24 0.07,0.36 0.19,0.36 0.07,0 0.12,-0.05 0.15,-0.14 0.02,-0.06 0.03,-0.13 0.03,-0.22zm0.17 0c0,0.14 -0.02,0.25 -0.07,0.34 -0.06,0.12 -0.15,0.17 -0.28,0.17 -0.13,0.01 -0.23,-0.05 -0.29,-0.16 -0.05,-0.09 -0.07,-0.21 -0.07,-0.35 -0.01,-0.14 0.02,-0.25 0.06,-0.34 0.07,-0.12 0.16,-0.17 0.29,-0.17 0.13,-0.01 0.23,0.05 0.29,0.16 0.05,0.09 0.07,0.21 0.07,0.35z"/>
   <path class="fil5" d="M10.3 11.29l-3.77 0.03c-0.16,0 -0.3,-0.13 -0.3,-0.29 0,-0.17 0.13,-0.3 0.3,-0.3l3.77 -0.03c0.16,0 0.29,0.13 0.3,0.29 0,0.16 -0.14,0.3 -0.3,0.3z"/>
   <path class="fil5" d="M21.09 10.91c0,-0.11 -0.03,-0.21 -0.1,-0.28 -0.02,-0.03 -0.05,-0.03 -0.07,-0.01l-0.02 0.02c-0.01,0.02 -0.02,0.05 0,0.07 0.05,0.05 0.07,0.12 0.07,0.2 0,0.08 -0.02,0.15 -0.07,0.21 -0.01,0.02 -0.01,0.05 0.01,0.06l0.01 0.02c0.03,0.02 0.06,0.02 0.08,0 0.06,-0.08 0.1,-0.18 0.09,-0.29z"/>
   <path class="fil5" d="M21.34 10.91c0,-0.18 -0.07,-0.34 -0.18,-0.46 -0.02,-0.02 -0.05,-0.02 -0.07,0l-0.01 0.01c-0.02,0.02 -0.02,0.04 0,0.06 0.09,0.11 0.15,0.24 0.15,0.39 0,0.15 -0.05,0.28 -0.14,0.39 -0.02,0.02 -0.02,0.05 0,0.06l0.01 0.01c0.02,0.02 0.05,0.02 0.07,0 0.11,-0.12 0.17,-0.28 0.17,-0.46z"/>
   <path class="fil5" d="M21.55 10.91c0,-0.24 -0.09,-0.45 -0.24,-0.62 -0.02,-0.02 -0.05,-0.02 -0.07,0 -0.02,0.02 -0.02,0.05 0,0.07 0.13,0.14 0.21,0.34 0.22,0.55 0,0.21 -0.08,0.4 -0.21,0.55 -0.02,0.02 -0.02,0.05 0,0.07 0.02,0.02 0.05,0.01 0.07,-0.01 0.15,-0.16 0.24,-0.38 0.23,-0.61z"/>
   <path class="fil5" d="M21.79 10.91c-0.01,-0.31 -0.13,-0.58 -0.32,-0.78 -0.02,-0.02 -0.05,-0.02 -0.07,0l-0.02 0.01c-0.01,0.02 -0.01,0.05 0,0.07 0.18,0.18 0.28,0.43 0.28,0.7 0.01,0.27 -0.1,0.51 -0.27,0.7 -0.01,0.01 -0.01,0.04 0.01,0.06l0.01 0.02c0.02,0.02 0.05,0.02 0.07,0 0.19,-0.21 0.31,-0.48 0.31,-0.78z"/>
   <path class="fil5" d="M6.55 18.5c0,-0.05 0,-0.08 -0.01,-0.11 -0.02,-0.04 -0.04,-0.06 -0.08,-0.06 -0.03,0 -0.06,0.02 -0.07,0.06 -0.01,0.03 -0.01,0.07 -0.01,0.11 0,0.11 0.03,0.17 0.09,0.17 0.03,0 0.05,-0.02 0.07,-0.06 0.01,-0.03 0.01,-0.07 0.01,-0.11zm0.09 0c0,0.06 -0.01,0.12 -0.04,0.16 -0.03,0.06 -0.07,0.09 -0.13,0.09 -0.07,0 -0.11,-0.03 -0.14,-0.08 -0.03,-0.05 -0.04,-0.1 -0.04,-0.17 0,-0.07 0.01,-0.12 0.03,-0.17 0.03,-0.05 0.08,-0.08 0.14,-0.08 0.06,0 0.11,0.03 0.14,0.08 0.02,0.04 0.04,0.1 0.04,0.17z"/>
   <path class="fil5" d="M6.93 18.49c0,-0.04 0,-0.07 -0.01,-0.1 -0.02,-0.05 -0.04,-0.07 -0.08,-0.07 -0.03,0 -0.05,0.02 -0.07,0.07 -0.01,0.03 -0.01,0.06 -0.01,0.11 0,0.11 0.03,0.17 0.09,0.17 0.03,0 0.06,-0.02 0.07,-0.07 0.01,-0.03 0.01,-0.06 0.01,-0.11zm0.09 0c0,0.07 -0.01,0.13 -0.04,0.17 -0.02,0.06 -0.07,0.08 -0.13,0.08 -0.06,0 -0.11,-0.02 -0.14,-0.08 -0.02,-0.04 -0.04,-0.1 -0.04,-0.16 0,-0.07 0.01,-0.13 0.04,-0.17 0.03,-0.05 0.07,-0.08 0.13,-0.08 0.07,0 0.11,0.02 0.14,0.08 0.03,0.04 0.04,0.1 0.04,0.16z"/>
   <path class="fil5" d="M7.3 18.28c0,0 0,0.01 0,0.02l-0.2 0.41c-0.01,0.02 -0.02,0.03 -0.04,0.03 -0.01,0 -0.01,0 -0.02,-0.01 -0.01,0 -0.01,-0.01 -0.01,-0.02 0,-0.01 0,-0.02 0.01,-0.02l0.19 -0.42c0.01,-0.02 0.02,-0.03 0.04,-0.03 0.01,0 0.02,0.01 0.02,0.01 0.01,0.01 0.01,0.02 0.01,0.03z"/>
   <path class="fil5" d="M7.58 18.49c0,-0.04 -0.01,-0.08 -0.02,-0.11 -0.01,-0.04 -0.04,-0.06 -0.07,-0.06 -0.04,0 -0.06,0.02 -0.08,0.06 -0.01,0.03 -0.01,0.07 -0.01,0.11 0,0.12 0.03,0.17 0.09,0.17 0.03,0 0.06,-0.02 0.07,-0.06 0.01,-0.03 0.02,-0.07 0.02,-0.11zm0.08 0c0,0.07 -0.01,0.12 -0.03,0.17 -0.03,0.05 -0.08,0.08 -0.14,0.08 -0.06,0 -0.11,-0.03 -0.14,-0.08 -0.02,-0.05 -0.03,-0.1 -0.03,-0.17 -0.01,-0.07 0.01,-0.12 0.03,-0.16 0.03,-0.06 0.07,-0.09 0.14,-0.09 0.06,0 0.11,0.03 0.14,0.08 0.02,0.05 0.03,0.1 0.03,0.17z"/>
   <path class="fil5" d="M7.96 18.49c0,-0.05 -0.01,-0.08 -0.02,-0.11 -0.01,-0.04 -0.04,-0.07 -0.07,-0.07 -0.04,0.01 -0.06,0.03 -0.07,0.07 -0.01,0.03 -0.02,0.06 -0.02,0.11 0,0.11 0.03,0.17 0.09,0.17 0.04,0 0.06,-0.02 0.07,-0.07 0.01,-0.02 0.02,-0.06 0.02,-0.1zm0.08 0c0,0.06 -0.01,0.12 -0.03,0.16 -0.03,0.06 -0.08,0.09 -0.14,0.09 -0.06,0 -0.11,-0.03 -0.14,-0.09 -0.02,-0.04 -0.03,-0.09 -0.03,-0.16 0,-0.07 0.01,-0.12 0.03,-0.17 0.03,-0.05 0.08,-0.08 0.14,-0.08 0.06,0 0.11,0.03 0.14,0.08 0.02,0.04 0.03,0.1 0.03,0.17z"/>
   <path class="fil5" d="M8.34 18.48c0,-0.04 -0.01,-0.07 -0.02,-0.1 -0.01,-0.05 -0.04,-0.07 -0.07,-0.07 -0.03,0 -0.06,0.02 -0.07,0.07 -0.01,0.03 -0.02,0.06 -0.02,0.1 0,0.12 0.03,0.18 0.09,0.18 0.04,0 0.06,-0.02 0.08,-0.07 0,-0.03 0.01,-0.06 0.01,-0.11zm0.08 0c0,0.07 -0.01,0.13 -0.03,0.17 -0.03,0.05 -0.07,0.08 -0.14,0.08 -0.06,0 -0.11,-0.02 -0.14,-0.08 -0.02,-0.04 -0.03,-0.1 -0.03,-0.16 0,-0.07 0.01,-0.13 0.03,-0.17 0.03,-0.06 0.08,-0.08 0.14,-0.08 0.06,0 0.11,0.02 0.14,0.08 0.02,0.04 0.03,0.1 0.03,0.16z"/>
   <path class="fil5" d="M8.72 18.48c0,-0.04 0,-0.08 -0.01,-0.11 -0.02,-0.04 -0.04,-0.06 -0.08,-0.06 -0.03,0 -0.06,0.02 -0.07,0.06 -0.01,0.03 -0.02,0.07 -0.02,0.11 0.01,0.12 0.04,0.17 0.09,0.17 0.04,0 0.06,-0.02 0.08,-0.06 0.01,-0.03 0.01,-0.07 0.01,-0.11zm0.09 0c0,0.07 -0.02,0.12 -0.04,0.17 -0.03,0.05 -0.07,0.08 -0.14,0.08 -0.06,0 -0.1,-0.03 -0.13,-0.08 -0.03,-0.04 -0.04,-0.1 -0.04,-0.17 0,-0.07 0.01,-0.12 0.03,-0.16 0.03,-0.06 0.08,-0.09 0.14,-0.09 0.06,0 0.11,0.03 0.14,0.08 0.02,0.05 0.04,0.1 0.04,0.17z"/>
   <path class="fil6" d="M20.6 24.24c0.01,-0.03 0.03,-0.06 0.05,-0.08l0 0c0.01,-0.02 0.03,-0.04 0.05,-0.05l0.07 -0.07 0.02 0.01c0.36,-0.18 1.12,0.01 1.88,0.51 0.92,0.6 1.51,1.43 1.34,1.87l0.03 0.02 -0.11 0.1c0,0.01 -0.01,0.01 -0.01,0.02l0 0 0 0c-0.03,0.02 -0.06,0.05 -0.09,0.06l0 0 0 0c-0.36,0.19 -1.13,0 -1.9,-0.5 -0.94,-0.61 -1.53,-1.46 -1.33,-1.89z"/>
   <path class="fil7" d="M22.78 24.45c-0.94,-0.61 -1.87,-0.76 -2.07,-0.32 -0.2,0.43 0.39,1.28 1.33,1.89 0.94,0.61 1.87,0.76 2.07,0.33 0.2,-0.44 -0.39,-1.29 -1.33,-1.9z"/>
   <path class="fil8" d="M21.18 24.13c-0.1,0.02 -0.16,0.08 -0.2,0.15 -0.07,0.16 0.01,0.42 0.22,0.7 0.21,0.3 0.55,0.61 0.93,0.86 0.48,0.32 0.98,0.5 1.32,0.5 0.07,0 0.14,-0.01 0.19,-0.02 0.1,-0.03 0.16,-0.08 0.2,-0.16 0.07,-0.16 -0.01,-0.41 -0.22,-0.7 -0.21,-0.3 -0.55,-0.6 -0.93,-0.86 -0.48,-0.31 -0.98,-0.5 -1.32,-0.5 -0.07,0 -0.13,0.01 -0.19,0.03zm0.91 1.77c-0.39,-0.26 -0.73,-0.57 -0.95,-0.88 -0.23,-0.31 -0.3,-0.58 -0.22,-0.77 0.04,-0.09 0.13,-0.16 0.24,-0.19 0.35,-0.1 0.96,0.09 1.57,0.49 0.39,0.25 0.73,0.56 0.95,0.87 0.23,0.31 0.3,0.59 0.22,0.77 -0.04,0.1 -0.12,0.16 -0.24,0.19 -0.06,0.02 -0.13,0.03 -0.21,0.03 -0.35,0 -0.86,-0.19 -1.36,-0.51z"/>
   <path class="fil6" d="M2.69 26.64c0.01,-0.03 0.03,-0.05 0.05,-0.07l0 0c0.01,-0.02 0.03,-0.04 0.04,-0.05l0.08 -0.08 0.01 0.02c0.37,-0.18 1.12,0.01 1.89,0.51 0.92,0.6 1.51,1.43 1.34,1.87l0.02 0.02 -0.1 0.1c0,0 -0.01,0.01 -0.01,0.01l-0.01 0.01 0 0c-0.02,0.02 -0.05,0.04 -0.09,0.06l0 0 0 0c-0.36,0.19 -1.12,0 -1.89,-0.5 -0.94,-0.62 -1.53,-1.46 -1.33,-1.9z"/>
   <path class="fil7" d="M4.87 26.86c-0.94,-0.62 -1.87,-0.76 -2.07,-0.33 -0.21,0.44 0.39,1.28 1.33,1.9 0.94,0.61 1.86,0.76 2.07,0.32 0.2,-0.43 -0.4,-1.28 -1.33,-1.89z"/>
   <path class="fil8" d="M3.27 26.53c-0.1,0.03 -0.17,0.08 -0.2,0.16 -0.07,0.16 0.01,0.41 0.21,0.7 0.22,0.3 0.55,0.6 0.94,0.86 0.48,0.31 0.98,0.5 1.32,0.5 0.07,0 0.13,-0.01 0.19,-0.02 0.09,-0.03 0.16,-0.09 0.19,-0.16 0.08,-0.16 0,-0.41 -0.21,-0.7 -0.22,-0.3 -0.55,-0.61 -0.93,-0.86 -0.49,-0.31 -0.99,-0.5 -1.33,-0.5 -0.07,0 -0.13,0.01 -0.18,0.02zm0.91 1.78c-0.39,-0.26 -0.73,-0.57 -0.95,-0.88 -0.23,-0.31 -0.31,-0.59 -0.22,-0.77 0.04,-0.09 0.12,-0.16 0.24,-0.19 0.35,-0.1 0.96,0.09 1.56,0.48 0.4,0.26 0.73,0.57 0.96,0.88 0.22,0.31 0.3,0.58 0.22,0.77 -0.05,0.09 -0.13,0.16 -0.24,0.19 -0.07,0.02 -0.13,0.03 -0.21,0.03 -0.36,0 -0.86,-0.19 -1.36,-0.51z"/>
   <path class="fil6" d="M1.64 31.9c0.27,0.15 0.54,0.31 0.81,0.48 2.08,1.36 3.41,3.22 3.02,4.21l0.06 0.04 -0.23 0.23c-0.01,0.01 -0.02,0.02 -0.03,0.03l-0.01 0.01 0 0c-0.06,0.06 -0.13,0.1 -0.2,0.14l0 0 0 0c-0.68,0.36 -1.99,0.12 -3.42,-0.63l0 -4.51z"/>
   <path class="fil7" d="M2.7 32.14c-0.36,-0.24 -0.71,-0.44 -1.06,-0.61l0 4.5c1.89,1.06 3.64,1.25 4.06,0.37 0.45,-0.98 -0.89,-2.88 -3,-4.26z"/>
   <path class="fil8" d="M1.64 35.5c0.96,0.56 1.91,0.89 2.58,0.89 0.16,0 0.3,-0.02 0.42,-0.06 0.22,-0.06 0.37,-0.18 0.44,-0.34 0.17,-0.36 -0.01,-0.94 -0.48,-1.58 -0.49,-0.68 -1.23,-1.36 -2.1,-1.93 -0.29,-0.18 -0.58,-0.35 -0.86,-0.5l0 -0.17c0.31,0.15 0.63,0.34 0.94,0.54 0.89,0.58 1.65,1.28 2.15,1.97 0.51,0.7 0.68,1.32 0.49,1.73 -0.09,0.21 -0.28,0.36 -0.54,0.43 -0.14,0.04 -0.29,0.06 -0.46,0.06 -0.69,0 -1.62,-0.31 -2.58,-0.86l0 -0.18z"/>
   <polygon class="fil5" points="20.12,25.22 20.12,36.55 19.5,36.25 18.79,36.55 18.5,36.27 17.63,36.55 17.03,36.37 15.99,36.55 15.02,36.37 13.91,36.55 13.18,36.27 12.16,36.55 11.34,36.37 10.4,36.55 9.41,36.37 8.76,36.55 8.05,36.37 7.25,36.55 7.25,25.22 "/>
   <path class="fil9" d="M17.83 27.89l-8.61 0c-0.08,0 -0.15,-0.06 -0.15,-0.15 0,-0.08 0.07,-0.15 0.15,-0.15l8.61 0c0.08,0 0.15,0.07 0.15,0.15 0,0.09 -0.07,0.15 -0.15,0.15z"/>
   <path class="fil9" d="M17.83 29.15l-8.61 0c-0.08,0 -0.15,-0.07 -0.15,-0.15 0,-0.08 0.07,-0.15 0.15,-0.15l8.61 0c0.08,0 0.15,0.07 0.15,0.15 0,0.08 -0.07,0.15 -0.15,0.15z"/>
   <path class="fil9" d="M16.09 30.4l-5.13 0c-0.06,0 -0.11,-0.05 -0.11,-0.11l0 -0.07c0,-0.06 0.05,-0.11 0.11,-0.11l5.13 0c0.06,0 0.11,0.05 0.11,0.11l0 0.07c0,0.06 -0.05,0.11 -0.11,0.11z"/>
   <path class="fil9" d="M16.09 31.66l-5.13 0c-0.06,0 -0.11,-0.05 -0.11,-0.12l0 -0.06c0,-0.07 0.05,-0.12 0.11,-0.12l5.13 0c0.06,0 0.11,0.05 0.11,0.12l0 0.06c0,0.07 -0.05,0.12 -0.11,0.12z"/>
   <path class="fil9" d="M16.09 32.91l-5.13 0c-0.06,0 -0.11,-0.05 -0.11,-0.11l0 -0.07c0,-0.06 0.05,-0.11 0.11,-0.11l5.13 0c0.06,0 0.11,0.05 0.11,0.11l0 0.07c0,0.06 -0.05,0.11 -0.11,0.11z"/>
  </g>
  <g id="_2366975375648">
   <path class="fil7" d="M48.48 36.92l0 0.93c0,0.07 -0.02,0.14 -0.06,0.2 -0.04,0.06 -0.1,0.11 -0.17,0.13 -0.02,0.01 -0.04,0.02 -0.06,0.02 -0.02,0.01 -0.04,0.01 -0.07,0.01l-14.76 0c-0.19,0 -0.35,-0.15 -0.36,-0.34 0,-0.01 0,-0.01 0,-0.02l0 -0.93c0,0 0,-0.01 0,-0.01 0.01,-0.19 0.17,-0.34 0.36,-0.34l14.76 0c0.03,0 0.05,0 0.07,0 0.02,0.01 0.04,0.01 0.06,0.02 0.07,0.03 0.13,0.07 0.17,0.13 0.04,0.06 0.06,0.13 0.06,0.2z"/>
   <path class="fil10" d="M40.26 36.57l-6.94 0c-0.17,0 -0.31,0.15 -0.32,0.34 0,0 0,0.01 0,0.01l0 0.93c0,0.01 0,0.01 0,0.02 0.01,0.19 0.15,0.34 0.32,0.34l5.11 0 0.17 0 1.24 0 0.17 0 1.22 0c-0.6,-0.49 -0.86,-1.16 -0.97,-1.64z"/>
   <polygon class="fil10" points="46.52,38.21 46.69,38.21 46.69,36.57 46.52,36.57 "/>
   <polygon class="fil10" points="45.95,38.21 46.12,38.21 46.12,36.57 45.95,36.57 "/>
   <polygon class="fil10" points="45.27,38.21 45.44,38.21 45.44,36.57 45.27,36.57 "/>
   <polygon class="fil10" points="44.22,38.21 44.39,38.21 44.39,36.57 44.22,36.57 "/>
   <polygon class="fil10" points="43.12,38.21 43.29,38.21 43.29,36.57 43.12,36.57 "/>
   <polygon class="fil10" points="41.43,38.21 41.6,38.21 41.6,36.57 41.43,36.57 "/>
   <polygon class="fil10" points="47.06,38.21 47.23,38.21 47.23,36.57 47.06,36.57 "/>
   <polygon class="fil10" points="47.42,38.21 47.58,38.21 47.58,36.57 47.42,36.57 "/>
   <polygon class="fil10" points="47.76,38.21 47.93,38.21 47.93,36.57 47.76,36.57 "/>
   <path class="fil10" d="M48.02 36.57l0 1.64 0.1 0c0.03,0 0.05,0 0.07,-0.01l0 -1.63c-0.02,0 -0.04,0 -0.07,0l-0.1 0z"/>
   <path class="fil10" d="M48.25 36.59l0 1.59c0.07,-0.02 0.13,-0.07 0.17,-0.13l0 -1.33c-0.04,-0.06 -0.1,-0.1 -0.17,-0.13z"/>
   <path class="fil7" d="M49.56 35.28l0 0.93c0,0.07 -0.02,0.14 -0.06,0.2 -0.04,0.06 -0.1,0.11 -0.16,0.13 -0.03,0.01 -0.05,0.02 -0.07,0.02 -0.02,0 -0.04,0.01 -0.06,0.01l-14.77 0c-0.19,0 -0.34,-0.15 -0.35,-0.34 0,-0.01 -0.01,-0.01 -0.01,-0.02l0 -0.93c0,0 0.01,-0.01 0.01,-0.02 0.01,-0.18 0.16,-0.33 0.35,-0.33l14.77 0c0.02,0 0.04,0 0.06,0 0.02,0.01 0.04,0.01 0.07,0.02 0.06,0.03 0.12,0.07 0.16,0.13 0.04,0.06 0.06,0.13 0.06,0.2z"/>
   <path class="fil10" d="M41.34 34.93l-6.94 0c-0.17,0 -0.31,0.15 -0.31,0.33 0,0.01 -0.01,0.02 -0.01,0.02l0 0.93c0,0.01 0.01,0.01 0.01,0.02 0,0.19 0.14,0.34 0.31,0.34l5.11 0 0.17 0 1.24 0 0.17 0 1.22 0c-0.6,-0.49 -0.86,-1.16 -0.97,-1.64z"/>
   <polygon class="fil10" points="47.6,36.57 47.77,36.57 47.77,34.93 47.6,34.93 "/>
   <polygon class="fil10" points="47.03,36.57 47.2,36.57 47.2,34.93 47.03,34.93 "/>
   <polygon class="fil10" points="46.35,36.57 46.52,36.57 46.52,34.93 46.35,34.93 "/>
   <polygon class="fil10" points="45.31,36.57 45.47,36.57 45.47,34.93 45.31,34.93 "/>
   <polygon class="fil10" points="44.2,36.57 44.37,36.57 44.37,34.93 44.2,34.93 "/>
   <polygon class="fil10" points="42.51,36.57 42.68,36.57 42.68,34.93 42.51,34.93 "/>
   <polygon class="fil10" points="48.14,36.57 48.31,36.57 48.31,34.93 48.14,34.93 "/>
   <polygon class="fil10" points="48.5,36.57 48.67,36.57 48.67,34.93 48.5,34.93 "/>
   <polygon class="fil10" points="48.84,36.57 49.01,36.57 49.01,34.93 48.84,34.93 "/>
   <path class="fil10" d="M49.1 34.93l0 1.64 0.11 0c0.02,0 0.04,-0.01 0.06,-0.01l0 -1.63c-0.02,0 -0.04,0 -0.06,0l-0.11 0z"/>
   <path class="fil10" d="M49.34 34.95l0 1.59c0.06,-0.02 0.12,-0.07 0.16,-0.13l0 -1.33c-0.04,-0.06 -0.1,-0.1 -0.16,-0.13z"/>
   <path class="fil7" d="M48.89 33.64l0 0.93c0,0.07 -0.02,0.14 -0.06,0.2 -0.04,0.06 -0.1,0.1 -0.17,0.13 -0.02,0.01 -0.04,0.02 -0.06,0.02 -0.02,0 -0.04,0.01 -0.07,0.01l-14.76 0c-0.19,0 -0.35,-0.16 -0.36,-0.34 0,-0.01 0,-0.02 0,-0.02l0 -0.93c0,-0.01 0,-0.01 0,-0.02 0.01,-0.19 0.17,-0.34 0.36,-0.34l14.76 0c0.03,0 0.05,0.01 0.07,0.01 0.02,0 0.04,0.01 0.06,0.02 0.07,0.02 0.13,0.07 0.17,0.13 0.04,0.06 0.06,0.13 0.06,0.2z"/>
   <path class="fil10" d="M40.67 33.28l-6.94 0c-0.17,0 -0.31,0.15 -0.32,0.34 0,0.01 0,0.01 0,0.02l0 0.93c0,0 0,0.01 0,0.02 0.01,0.18 0.15,0.34 0.32,0.34l5.11 0 0.16 0 1.25 0 0.17 0 1.22 0c-0.6,-0.49 -0.86,-1.16 -0.97,-1.65z"/>
   <polygon class="fil10" points="46.93,34.93 47.1,34.93 47.1,33.28 46.93,33.28 "/>
   <polygon class="fil10" points="46.36,34.93 46.53,34.93 46.53,33.28 46.36,33.28 "/>
   <polygon class="fil10" points="45.68,34.93 45.85,34.93 45.85,33.28 45.68,33.28 "/>
   <polygon class="fil10" points="44.63,34.93 44.8,34.93 44.8,33.28 44.63,33.28 "/>
   <polygon class="fil10" points="43.53,34.93 43.7,34.93 43.7,33.28 43.53,33.28 "/>
   <polygon class="fil10" points="41.84,34.93 42,34.93 42,33.28 41.84,33.28 "/>
   <polygon class="fil10" points="47.47,34.93 47.64,34.93 47.64,33.28 47.47,33.28 "/>
   <polygon class="fil10" points="47.83,34.93 47.99,34.93 47.99,33.28 47.83,33.28 "/>
   <polygon class="fil10" points="48.17,34.93 48.34,34.93 48.34,33.28 48.17,33.28 "/>
   <path class="fil10" d="M48.43 33.28l0 1.65 0.1 0c0.03,0 0.05,-0.01 0.07,-0.01l0 -1.63c-0.02,0 -0.04,-0.01 -0.07,-0.01l-0.1 0z"/>
   <path class="fil10" d="M48.66 33.31l0 1.59c0.07,-0.03 0.13,-0.07 0.17,-0.13l0 -1.33c-0.04,-0.06 -0.1,-0.11 -0.17,-0.13z"/>
   <path class="fil7" d="M49.66 31.99l0 0.93c0,0.07 -0.02,0.14 -0.06,0.2 -0.04,0.06 -0.1,0.11 -0.17,0.13 -0.02,0.01 -0.04,0.02 -0.06,0.02 -0.02,0 -0.05,0.01 -0.07,0.01l-14.76 0c-0.19,0 -0.35,-0.15 -0.36,-0.34 0,-0.01 0,-0.02 0,-0.02l0 -0.93c0,0 0,-0.01 0,-0.02 0.01,-0.18 0.17,-0.34 0.36,-0.34l14.76 0c0.02,0 0.05,0.01 0.07,0.01 0.02,0 0.04,0.01 0.06,0.02 0.07,0.02 0.13,0.07 0.17,0.13 0.04,0.06 0.06,0.13 0.06,0.2z"/>
   <path class="fil10" d="M41.44 31.63l-6.94 0c-0.17,0 -0.31,0.16 -0.32,0.34 0,0.01 0,0.02 0,0.02l0 0.93c0,0 0,0.01 0,0.02 0.01,0.19 0.15,0.34 0.32,0.34l7.91 0c-0.6,-0.49 -0.86,-1.16 -0.97,-1.65z"/>
   <polygon class="fil10" points="47.7,33.28 47.86,33.28 47.86,31.63 47.7,31.63 "/>
   <polygon class="fil10" points="47.13,33.28 47.3,33.28 47.3,31.63 47.13,31.63 "/>
   <polygon class="fil10" points="46.45,33.28 46.61,33.28 46.61,31.63 46.45,31.63 "/>
   <polygon class="fil10" points="45.4,33.28 45.57,33.28 45.57,31.63 45.4,31.63 "/>
   <polygon class="fil10" points="44.3,33.28 44.47,33.28 44.47,31.63 44.3,31.63 "/>
   <polygon class="fil10" points="42.61,33.28 42.77,33.28 42.77,31.63 42.61,31.63 "/>
   <polygon class="fil10" points="48.24,33.28 48.41,33.28 48.41,31.63 48.24,31.63 "/>
   <polygon class="fil10" points="48.59,33.28 48.76,33.28 48.76,31.63 48.59,31.63 "/>
   <polygon class="fil10" points="48.94,33.28 49.11,33.28 49.11,31.63 48.94,31.63 "/>
   <path class="fil10" d="M49.2 31.63l0 1.65 0.1 0c0.02,0 0.05,-0.01 0.07,-0.01l0 -1.63c-0.02,0 -0.05,-0.01 -0.07,-0.01l-0.1 0z"/>
   <path class="fil10" d="M49.43 31.66l0 1.59c0.07,-0.02 0.13,-0.07 0.17,-0.13l0 -1.33c-0.04,-0.06 -0.1,-0.11 -0.17,-0.13z"/>
   <path class="fil7" d="M48.89 30.35l0 0.93c0,0.07 -0.02,0.14 -0.06,0.2 -0.04,0.06 -0.1,0.1 -0.17,0.13 -0.02,0.01 -0.04,0.01 -0.06,0.02 -0.02,0 -0.04,0 -0.07,0l-14.76 0c-0.19,0 -0.35,-0.15 -0.36,-0.33 0,-0.01 0,-0.02 0,-0.02l0 -0.93c0,-0.01 0,-0.01 0,-0.02 0.01,-0.19 0.17,-0.34 0.36,-0.34l14.76 0c0.03,0 0.05,0 0.07,0.01 0.02,0 0.04,0.01 0.06,0.02 0.07,0.02 0.13,0.07 0.17,0.13 0.04,0.06 0.06,0.13 0.06,0.2z"/>
   <path class="fil10" d="M40.67 29.99l-6.94 0c-0.17,0 -0.31,0.15 -0.32,0.34 0,0.01 0,0.01 0,0.02l0 0.93c0,0 0,0.01 0,0.02 0.01,0.18 0.15,0.33 0.32,0.33l5.11 0 0.16 0 1.25 0 0.17 0 1.22 0c-0.6,-0.49 -0.86,-1.15 -0.97,-1.64z"/>
   <polygon class="fil10" points="46.93,31.63 47.1,31.63 47.1,29.99 46.93,29.99 "/>
   <polygon class="fil10" points="46.36,31.63 46.53,31.63 46.53,29.99 46.36,29.99 "/>
   <polygon class="fil10" points="45.68,31.63 45.85,31.63 45.85,29.99 45.68,29.99 "/>
   <polygon class="fil10" points="44.63,31.63 44.8,31.63 44.8,29.99 44.63,29.99 "/>
   <polygon class="fil10" points="43.53,31.63 43.7,31.63 43.7,29.99 43.53,29.99 "/>
   <polygon class="fil10" points="41.84,31.63 42,31.63 42,29.99 41.84,29.99 "/>
   <polygon class="fil10" points="47.47,31.63 47.64,31.63 47.64,29.99 47.47,29.99 "/>
   <polygon class="fil10" points="47.83,31.63 47.99,31.63 47.99,29.99 47.83,29.99 "/>
   <polygon class="fil10" points="48.17,31.63 48.34,31.63 48.34,29.99 48.17,29.99 "/>
   <path class="fil10" d="M48.43 29.99l0 1.64 0.1 0c0.03,0 0.05,0 0.07,0l0 -1.63c-0.02,-0.01 -0.04,-0.01 -0.07,-0.01l-0.1 0z"/>
   <path class="fil10" d="M48.66 30.02l0 1.59c0.07,-0.03 0.13,-0.07 0.17,-0.13l0 -1.33c-0.04,-0.06 -0.1,-0.11 -0.17,-0.13z"/>
   <path class="fil7" d="M48.89 28.7l0 0.93c0,0.07 -0.02,0.14 -0.06,0.2 -0.04,0.06 -0.1,0.1 -0.17,0.13 -0.02,0.01 -0.04,0.02 -0.06,0.02 -0.02,0 -0.04,0.01 -0.07,0.01l-14.76 0c-0.19,0 -0.35,-0.16 -0.36,-0.34 0,-0.01 0,-0.02 0,-0.02l0 -0.93c0,0 0,-0.01 0,-0.02 0.01,-0.19 0.17,-0.34 0.36,-0.34l14.76 0c0.03,0 0.05,0.01 0.07,0.01 0.02,0 0.04,0.01 0.06,0.02 0.07,0.02 0.13,0.07 0.17,0.13 0.04,0.06 0.06,0.13 0.06,0.2z"/>
   <path class="fil10" d="M40.67 28.34l-6.94 0c-0.17,0 -0.31,0.15 -0.32,0.34 0,0.01 0,0.02 0,0.02l0 0.93c0,0 0,0.01 0,0.02 0.01,0.18 0.15,0.34 0.32,0.34l5.11 0 0.16 0 1.25 0 0.17 0 1.22 0c-0.6,-0.49 -0.86,-1.16 -0.97,-1.65z"/>
   <polygon class="fil10" points="46.93,29.99 47.1,29.99 47.1,28.34 46.93,28.34 "/>
   <polygon class="fil10" points="46.36,29.99 46.53,29.99 46.53,28.34 46.36,28.34 "/>
   <polygon class="fil10" points="45.68,29.99 45.85,29.99 45.85,28.34 45.68,28.34 "/>
   <polygon class="fil10" points="44.63,29.99 44.8,29.99 44.8,28.34 44.63,28.34 "/>
   <polygon class="fil10" points="43.53,29.99 43.7,29.99 43.7,28.34 43.53,28.34 "/>
   <polygon class="fil10" points="41.84,29.99 42,29.99 42,28.34 41.84,28.34 "/>
   <polygon class="fil10" points="47.47,29.99 47.64,29.99 47.64,28.34 47.47,28.34 "/>
   <polygon class="fil10" points="47.83,29.99 47.99,29.99 47.99,28.34 47.83,28.34 "/>
   <polygon class="fil10" points="48.17,29.99 48.34,29.99 48.34,28.34 48.17,28.34 "/>
   <path class="fil10" d="M48.43 28.34l0 1.65 0.1 0c0.03,0 0.05,-0.01 0.07,-0.01l0 -1.63c-0.02,0 -0.04,-0.01 -0.07,-0.01l-0.1 0z"/>
   <path class="fil10" d="M48.66 28.37l0 1.59c0.07,-0.03 0.13,-0.07 0.17,-0.13l0 -1.33c-0.04,-0.06 -0.1,-0.11 -0.17,-0.13z"/>
   <path class="fil7" d="M47.99 27.05l0 0.93c0,0.07 -0.02,0.14 -0.06,0.2 -0.04,0.06 -0.1,0.11 -0.17,0.13 -0.02,0.01 -0.04,0.02 -0.06,0.02 -0.02,0 -0.04,0.01 -0.06,0.01l-14.77 0c-0.19,0 -0.35,-0.16 -0.36,-0.34 0,-0.01 0,-0.02 0,-0.02l0 -0.93c0,0 0,-0.01 0,-0.02 0.01,-0.18 0.17,-0.34 0.36,-0.34l14.77 0c0.02,0 0.04,0.01 0.06,0.01 0.02,0 0.04,0.01 0.06,0.02 0.07,0.02 0.13,0.07 0.17,0.13 0.04,0.06 0.06,0.13 0.06,0.2z"/>
   <path class="fil10" d="M39.77 26.69l-6.94 0c-0.17,0 -0.31,0.16 -0.32,0.34 0,0.01 0,0.02 0,0.02l0 0.93c0,0 0,0.01 0,0.02 0.01,0.18 0.15,0.34 0.32,0.34l5.11 0 0.17 0 1.24 0 0.17 0 1.22 0c-0.6,-0.49 -0.86,-1.16 -0.97,-1.65z"/>
   <polygon class="fil10" points="46.03,28.34 46.2,28.34 46.2,26.69 46.03,26.69 "/>
   <polygon class="fil10" points="45.46,28.34 45.63,28.34 45.63,26.69 45.46,26.69 "/>
   <polygon class="fil10" points="44.78,28.34 44.95,28.34 44.95,26.69 44.78,26.69 "/>
   <polygon class="fil10" points="43.74,28.34 43.9,28.34 43.9,26.69 43.74,26.69 "/>
   <polygon class="fil10" points="42.63,28.34 42.8,28.34 42.8,26.69 42.63,26.69 "/>
   <polygon class="fil10" points="40.94,28.34 41.11,28.34 41.11,26.69 40.94,26.69 "/>
   <polygon class="fil10" points="46.57,28.34 46.74,28.34 46.74,26.69 46.57,26.69 "/>
   <polygon class="fil10" points="46.93,28.34 47.09,28.34 47.09,26.69 46.93,26.69 "/>
   <polygon class="fil10" points="47.27,28.34 47.44,28.34 47.44,26.69 47.27,26.69 "/>
   <path class="fil10" d="M47.53 26.69l0 1.65 0.11 0c0.02,0 0.04,-0.01 0.06,-0.01l0 -1.63c-0.02,0 -0.04,-0.01 -0.06,-0.01l-0.11 0z"/>
   <path class="fil10" d="M47.76 26.72l0 1.59c0.07,-0.02 0.13,-0.07 0.17,-0.13l0 -1.33c-0.04,-0.06 -0.1,-0.11 -0.17,-0.13z"/>
   <path class="fil7" d="M48.48 25.4l0 0.93c0,0.07 -0.02,0.14 -0.06,0.2 -0.04,0.06 -0.1,0.11 -0.17,0.13 -0.02,0.01 -0.04,0.02 -0.06,0.02 -0.02,0 -0.04,0.01 -0.07,0.01l-14.76 0c-0.19,0 -0.35,-0.15 -0.36,-0.34 0,-0.01 0,-0.01 0,-0.02l0 -0.93c0,0 0,-0.01 0,-0.02 0.01,-0.18 0.17,-0.33 0.36,-0.33l14.76 0c0.03,0 0.05,0 0.07,0 0.02,0 0.04,0.01 0.06,0.02 0.07,0.03 0.13,0.07 0.17,0.13 0.04,0.06 0.06,0.13 0.06,0.2z"/>
   <path class="fil10" d="M40.26 25.05l-6.94 0c-0.17,0 -0.31,0.15 -0.32,0.33 0,0.01 0,0.02 0,0.02l0 0.93c0,0.01 0,0.01 0,0.02 0.01,0.19 0.15,0.34 0.32,0.34l5.11 0 0.17 0 1.24 0 0.17 0 1.22 0c-0.6,-0.49 -0.86,-1.16 -0.97,-1.64z"/>
   <polygon class="fil10" points="46.52,26.69 46.69,26.69 46.69,25.05 46.52,25.05 "/>
   <polygon class="fil10" points="45.95,26.69 46.12,26.69 46.12,25.05 45.95,25.05 "/>
   <polygon class="fil10" points="45.27,26.69 45.44,26.69 45.44,25.05 45.27,25.05 "/>
   <polygon class="fil10" points="44.22,26.69 44.39,26.69 44.39,25.05 44.22,25.05 "/>
   <polygon class="fil10" points="43.12,26.69 43.29,26.69 43.29,25.05 43.12,25.05 "/>
   <polygon class="fil10" points="41.43,26.69 41.6,26.69 41.6,25.05 41.43,25.05 "/>
   <polygon class="fil10" points="47.06,26.69 47.23,26.69 47.23,25.05 47.06,25.05 "/>
   <polygon class="fil10" points="47.42,26.69 47.58,26.69 47.58,25.05 47.42,25.05 "/>
   <polygon class="fil10" points="47.76,26.69 47.93,26.69 47.93,25.05 47.76,25.05 "/>
   <path class="fil10" d="M48.02 25.05l0 1.64 0.1 0c0.03,0 0.05,-0.01 0.07,-0.01l0 -1.63c-0.02,0 -0.04,0 -0.07,0l-0.1 0z"/>
   <path class="fil10" d="M48.25 25.07l0 1.59c0.07,-0.02 0.13,-0.07 0.17,-0.13l0 -1.33c-0.04,-0.06 -0.1,-0.1 -0.17,-0.13z"/>
   <path class="fil11" d="M49.34 22.99c-0.85,1.49 -1.92,2.06 -1.92,2.06l-4.47 0c0,0 7.04,-3.19 6.39,-2.06z"/>
   <path class="fil12" d="M45.91 34.49c-0.11,0.13 -0.13,0.28 -0.07,0.44l0 0c0.11,0.29 0.46,0.62 0.87,0.95 0.05,0.04 0.1,0.08 0.14,0.12 0.01,0.01 0.02,0.02 0.03,0.03 0.01,0 0.01,0.01 0.02,0.02 0.38,0.35 0.24,0.43 0.92,1.14 0.79,0.81 1.32,0.83 1.48,0.76 0.13,-0.07 -0.14,-0.5 -0.43,-0.98 -0.01,-0.03 -0.03,-0.05 -0.04,-0.07 -0.04,-0.07 -0.08,-0.13 -0.12,-0.2 -0.34,-0.58 -0.25,-0.86 -0.17,-1.72 0.07,-0.71 1.1,-3.94 1.1,-3.94l-1.5 -0.26c0,0 -0.45,2.58 -0.95,2.97 -0.26,0.21 -0.56,0.22 -0.82,0.37 -0.01,0.01 -0.03,0.02 -0.05,0.04 -0.14,0.09 -0.29,0.19 -0.41,0.33z"/>
   <path class="fil13" d="M45.91 34.49c-0.11,0.13 -0.13,0.28 -0.07,0.44l0 0c0.13,0.29 0.47,0.62 0.87,0.95 0.05,0.04 0.1,0.08 0.14,0.12 0.01,0.01 0.02,0.02 0.03,0.03 0.01,0 0.01,0.01 0.02,0.02 0.38,0.35 0.24,0.43 0.92,1.14 0.79,0.81 1.32,0.83 1.48,0.76 0.13,-0.07 -0.14,-0.5 -0.43,-0.98 -0.15,-0.06 -0.86,-0.35 -1.39,-1.03 -0.47,-0.6 -0.79,-1.37 -1.11,-1.82 -0.01,0.01 -0.03,0.02 -0.05,0.04 -0.14,0.09 -0.29,0.19 -0.41,0.33z"/>
   <path class="fil12" d="M57.98 33.55c0.09,0.46 0.75,0.39 1.49,0.21 0.73,-0.18 0.56,0.03 1.6,-0.09 1.05,-0.11 1.37,-0.5 1.4,-0.66 0.03,-0.14 -0.49,-0.18 -1.04,-0.25 -0.07,-0.01 -0.14,-0.02 -0.21,-0.02 -0.63,-0.08 -1.09,-0.49 -1.66,-0.82 -0.54,-0.31 -1.34,-1.59 -1.34,-1.59l-1.44 0.11c0,0 0.76,1.14 1.05,1.64 0.17,0.29 0.16,0.68 0.14,0.98 -0.01,0.16 -0.02,0.33 0.01,0.49z"/>
   <path class="fil13" d="M59.47 33.76c0.73,-0.18 0.56,0.03 1.6,-0.09 1.05,-0.11 1.37,-0.5 1.4,-0.66 0.03,-0.14 -0.49,-0.18 -1.04,-0.25l-0.01 0.01c0,0 -0.63,0.45 -1.5,0.47 -0.71,0.01 -1.46,-0.19 -1.95,-0.18 -0.01,0.16 -0.02,0.33 0.01,0.49 0.09,0.46 0.75,0.39 1.49,0.21z"/>
   <path class="fil11" d="M52.48 24.37l-1.34 3.61 -1.76 4.72c0,0 -0.47,0.04 -0.93,-0.09 -0.42,-0.12 -0.9,-0.44 -0.9,-0.44 0,0 0.49,-5.06 1.4,-7.97 0.23,-0.74 0.49,-1.35 0.78,-1.69 1.4,-1.66 2.75,1.86 2.75,1.86z"/>
   <path class="fil14" d="M40.24 21c0,0 8.89,-3.01 10.87,-2.37 1.99,0.64 7.94,12.49 7.94,12.49 0,0 -0.13,0.18 -0.5,0.32 -0.34,0.12 -1.17,0.12 -1.17,0.12 0,0 -5.37,-4.61 -6.01,-5.95 -0.64,-1.35 -0.9,-2.63 -1.54,-2.5 -0.39,0.08 -3.41,1.94 -6.12,1.94 -1.05,0 -3.91,0 -3.91,0 -1.7,-1.82 -1.22,-4.71 -1.22,-4.71l1.66 0.66z"/>
   <path class="fil15" d="M46.41 0.54c-0.36,-0.25 -0.82,-0.31 -1.14,-0.31 0.09,-0.08 0.25,-0.1 0.25,-0.1 -0.19,-0.04 -0.65,0.12 -0.65,0.12 -2.69,-1.28 -3.45,2.76 -3.46,3.71 -0.02,0.96 -0.09,2.05 -1.54,2.79 -2.86,1.46 -0.79,4.56 -0.79,4.56 0.02,0.01 1.1,2.22 1.1,2.22 -0.01,-0.77 3.84,-4.54 5.78,-5.6 0.5,-0.63 0.75,-1.78 0.77,-1.87 -0.15,0.91 -0.35,1.42 -0.51,1.7 1.67,-1.31 1.17,-6.56 0.19,-7.22z"/>
   <path class="fil12" d="M45.15 7.81c0.01,0.01 -0.95,0.34 -1.6,0.05 -0.6,-0.26 -1.06,-1.26 -1.05,-1.26 0.28,-0.01 0.58,-0.25 0.81,-1.83l0.12 0.04 1.97 0.71c0,0 -0.14,0.63 -0.24,1.23 -0.07,0.51 -0.12,0.99 -0.01,1.06z"/>
   <path class="fil16" d="M45.4 5.52c0,0 -0.14,0.63 -0.24,1.23 -1.13,-0.2 -1.57,-1.33 -1.73,-1.94l1.97 0.71z"/>
   <path class="fil15" d="M42.95 4.32c0,0 -0.6,-0.96 -0.75,-1.77 -0.1,-0.58 0.2,-2.74 2.36,-2.42 0,0 0.63,0.06 1.22,0.46 0.47,0.31 1.15,1 0.39,2.88l-0.19 0.63 -3.03 0.22z"/>
   <path class="fil12" d="M45.69 6.15c0,0 -2.69,-0.37 -2.44,-2.04 0.25,-1.68 0.07,-2.85 1.8,-2.69 1.73,0.16 1.97,0.85 2.02,1.43 0.06,0.58 -0.67,3.35 -1.38,3.3z"/>
   <path class="fil15" d="M46.28 1.56c0,0 -1.03,1.86 -2.21,1.98 -1.17,0.12 -1.61,-0.26 -1.61,-0.26 0,0 0.97,-0.56 1.33,-1.73 0,0 2.08,-1.01 2.49,0.01z"/>
   <path class="fil15" d="M46.08 1.69c0,0 0.48,0.53 0.55,0.97 0.07,0.45 0,1.34 0.26,1.35 0,0 0.75,-1.26 0.24,-2.11 -0.54,-0.9 -1.05,-0.21 -1.05,-0.21z"/>
   <path class="fil17" d="M38.15 21.05c0.15,0.4 0.6,0.51 1.2,0.44 1.15,-0.14 2.86,-0.91 4.09,-1.44 1.88,-0.82 2.73,-0.05 3.33,-0.57 0.59,-0.52 -0.69,-1.67 0.42,-7.01 0.38,-1.82 -2.03,-5.72 -2.03,-5.72 0,0 -0.18,1.14 -2.46,-0.21 -0.08,-0.05 -0.98,1.28 -1.84,2.92 -0.96,1.81 -1.87,3.99 -1.6,5.11 0.51,2.15 -1.54,5.29 -1.11,6.48z"/>
   <path class="fil18" d="M38.15 21.05c0.15,0.4 0.6,0.51 1.2,0.44 0.8,-0.35 4.23,-1.68 4.2,-2.58 -0.06,-1.34 -0.66,-1.38 -0.24,-3.03 0.34,-1.33 -2.83,-3.79 -3.34,-4.32 -0.95,1.8 -0.98,1.89 -0.71,3.01 0.51,2.15 -1.54,5.29 -1.11,6.48z"/>
   <path class="fil14" d="M51.14 27.98l-1.76 4.72c0,0 -0.47,0.04 -0.93,-0.09 -0.42,-0.12 -0.9,-0.44 -0.9,-0.44 0,0 0.49,-5.06 1.4,-7.97l2.19 3.78z"/>
   <path class="fil17" d="M45.16 6.75c0,0 2.35,0.4 2.62,1.41 0.28,1.01 1.9,6.95 1.9,6.95 0,0 -1.19,0.21 -1.74,-0.34 -0.55,-0.55 -1.92,-5.11 -1.92,-5.11l-0.86 -2.91z"/>
   <path class="fil17" d="M42.7 6.54c0,0 -2.22,0.13 -2.99,1.21 -1.08,1.5 -3.22,7.93 -1.99,8.78 1.38,0.97 6.3,0.25 6.3,0.25 0,0 0.16,-0.76 -0.07,-1.13 -0.23,-0.37 -3.92,-0.97 -4.09,-1.14 -0.17,-0.17 2.13,-3.32 2.13,-3.84 0,-0.51 0.71,-4.13 0.71,-4.13z"/>
   <polygon class="fil15" points="42.79,18.68 52.26,18.68 53.97,12.73 44.51,12.73 "/>
   <polygon class="fil15" points="39.85,18.68 52.23,18.68 52.23,18.45 39.85,18.45 "/>
   <path class="fil19" d="M49.25 15.61c0.06,-0.21 -0.06,-0.38 -0.27,-0.38 -0.21,0 -0.42,0.17 -0.48,0.38 -0.06,0.21 0.06,0.38 0.27,0.38 0.2,0 0.42,-0.17 0.48,-0.38z"/>
  </g>
 </g>
</svg>
