<?xml version="1.0" encoding="UTF-8"?>
<!DOCTYPE svg PUBLIC "-//W3C//DTD SVG 1.1//EN" "http://www.w3.org/Graphics/SVG/1.1/DTD/svg11.dtd">
<!-- Creator: CorelDRAW 2020 (64-Bit) -->
<svg xmlns="http://www.w3.org/2000/svg" xml:space="preserve" width="375px" height="133px" version="1.1" style="shape-rendering:geometricPrecision; text-rendering:geometricPrecision; image-rendering:optimizeQuality; fill-rule:evenodd; clip-rule:evenodd"
viewBox="0 0 20.23 7.15"
 xmlns:xlink="http://www.w3.org/1999/xlink"
 xmlns:xodm="http://www.corel.com/coreldraw/odm/2003">
 <defs>
  <style type="text/css">
   <![CDATA[
    .fil21 {fill:none}
    .fil0 {fill:#F4F6FE}
    .fil14 {fill:#233862;fill-rule:nonzero}
    .fil19 {fill:#2774D1;fill-rule:nonzero}
    .fil2 {fill:#2B478B;fill-rule:nonzero}
    .fil16 {fill:#2F2E41;fill-rule:nonzero}
    .fil3 {fill:#3F65AC;fill-rule:nonzero}
    .fil18 {fill:#4C99F8;fill-rule:nonzero}
    .fil10 {fill:#699FF0;fill-rule:nonzero}
    .fil11 {fill:#77A4E5;fill-rule:nonzero}
    .fil7 {fill:#88ADD8;fill-rule:nonzero}
    .fil9 {fill:#98B9EA;fill-rule:nonzero}
    .fil8 {fill:#AFCDFB;fill-rule:nonzero}
    .fil12 {fill:#D87225;fill-rule:nonzero}
    .fil1 {fill:#DCEAFF;fill-rule:nonzero}
    .fil5 {fill:#EBF3FA;fill-rule:nonzero}
    .fil17 {fill:#ED975D;fill-rule:nonzero}
    .fil15 {fill:#F99746;fill-rule:nonzero}
    .fil13 {fill:#FFB27D;fill-rule:nonzero}
    .fil6 {fill:white;fill-rule:nonzero}
    .fil20 {fill:white;fill-rule:nonzero}
    .fil4 {fill:url(#id1);fill-rule:nonzero}
   ]]>
  </style>
   <clipPath id="id0">
    <path d="M0 0l20.23 0 0 7.15 -20.23 0 0 -7.15z"/>
   </clipPath>
  <linearGradient id="id1" gradientUnits="userSpaceOnUse" x1="20.38" y1="1.99" x2="12.13" y2="4.72">
   <stop offset="0" style="stop-opacity:1; stop-color:#00D9FF"/>
   <stop offset="1" style="stop-opacity:1; stop-color:#925FF2"/>
  </linearGradient>
 </defs>
 <g id="Слой_x0020_1">
  <metadata id="CorelCorpID_0Corel-Layer"/>
  <polygon class="fil0" points="0,0 20.23,0 20.23,7.15 0,7.15 "/>
  <g style="clip-path:url(#id0)">
   <g id="_2656967347008">
    <g>
     <polygon id="1" class="fil1" points="11.46,5.69 12.24,5.69 12.24,5.41 11.46,5.41 "/>
     <path class="fil2" d="M15.9 1.32l0 5.82 -4.72 0 0 -5.82c0,-0.13 0.11,-0.24 0.24,-0.24l4.24 0c0.13,0 0.24,0.11 0.24,0.24z"/>
     <path class="fil3" d="M14.23 1.42l-1.23 0c-0.02,0 -0.04,-0.02 -0.04,-0.05 0,-0.03 0.02,-0.05 0.04,-0.05l1.23 0c0.03,0 0.05,0.02 0.05,0.05 0,0.03 -0.02,0.05 -0.05,0.05z"/>
     <path class="fil3" d="M12.79 1.42l0 0c-0.03,0 -0.05,-0.02 -0.05,-0.05 0,-0.03 0.02,-0.05 0.05,-0.05l0 0c0.02,0 0.04,0.02 0.04,0.05 0,0.03 -0.02,0.05 -0.04,0.05z"/>
     <polygon class="fil1" points="15.65,7.14 15.65,1.63 11.46,1.63 11.46,7.14 "/>
     <polygon class="fil4" points="11.46,4.45 15.64,4.45 15.64,1.63 11.46,1.63 "/>
     <path class="fil5" d="M12.11 2.15c-0.05,0 -0.09,0.04 -0.09,0.09l0 1.64c0,0.05 0.04,0.1 0.09,0.1l2.89 0c0.05,0 0.09,-0.05 0.09,-0.1l0 -1.64c0,-0.05 -0.04,-0.09 -0.09,-0.09l-2.89 0zm2.89 1.85l-2.89 0c-0.06,0 -0.11,-0.05 -0.11,-0.12l0 -1.64c0,-0.06 0.05,-0.11 0.11,-0.11l2.89 0c0.06,0 0.11,0.05 0.11,0.11l0 1.64c0,0.07 -0.05,0.12 -0.11,0.12z"/>
     <path class="fil6" d="M12.98 3.62l-0.67 0.01c-0.02,0 -0.05,-0.03 -0.05,-0.06l0 0c0,-0.03 0.03,-0.05 0.05,-0.05l0.67 -0.01c0.03,0 0.05,0.02 0.05,0.05l0 0.01c0,0.03 -0.02,0.05 -0.05,0.05z"/>
     <path class="fil6" d="M13.85 3.61l-0.66 0.01c-0.03,0 -0.05,-0.02 -0.05,-0.05l0 -0.01c0,-0.03 0.02,-0.05 0.05,-0.05l0.66 -0.01c0.03,0 0.06,0.03 0.06,0.06l0 0c0,0.03 -0.03,0.05 -0.06,0.05z"/>
     <path class="fil6" d="M12.35 2.96c0,-0.02 0,-0.03 0,-0.04 -0.01,-0.01 -0.02,-0.02 -0.03,-0.02 -0.01,0 -0.02,0.01 -0.03,0.02 0,0.01 0,0.02 0,0.04 0,0.04 0.01,0.06 0.03,0.06 0.01,0 0.02,-0.01 0.03,-0.02 0,-0.01 0,-0.02 0,-0.04zm0.03 0c0,0.02 0,0.04 -0.01,0.06 -0.01,0.02 -0.03,0.03 -0.05,0.03 -0.02,0 -0.04,-0.01 -0.05,-0.03 -0.01,-0.02 -0.01,-0.04 -0.01,-0.06 0,-0.02 0,-0.04 0.01,-0.06 0.01,-0.02 0.03,-0.03 0.05,-0.03 0.02,0 0.04,0.01 0.05,0.03 0.01,0.02 0.01,0.04 0.01,0.06z"/>
     <path class="fil6" d="M12.49 2.96c0,-0.02 0,-0.03 -0.01,-0.04 0,-0.02 -0.01,-0.02 -0.02,-0.02 -0.02,0 -0.03,0.01 -0.03,0.02 0,0.01 -0.01,0.02 -0.01,0.04 0.01,0.04 0.02,0.06 0.04,0.06 0.01,0 0.02,-0.01 0.02,-0.02 0.01,-0.01 0.01,-0.03 0.01,-0.04zm0.03 0c0,0.02 -0.01,0.04 -0.01,0.06 -0.01,0.02 -0.03,0.03 -0.05,0.03 -0.03,0 -0.04,-0.01 -0.05,-0.03 -0.01,-0.02 -0.02,-0.04 -0.02,-0.06 0,-0.02 0.01,-0.04 0.02,-0.06 0.01,-0.02 0.02,-0.03 0.05,-0.03 0.02,0 0.03,0.01 0.05,0.03 0,0.01 0.01,0.03 0.01,0.06z"/>
     <path class="fil6" d="M12.62 2.96c0,-0.02 0,-0.03 0,-0.04 -0.01,-0.02 -0.02,-0.02 -0.03,-0.02 -0.01,0 -0.02,0 -0.02,0.02 -0.01,0.01 -0.01,0.02 -0.01,0.04 0,0.04 0.01,0.06 0.03,0.06 0.02,0 0.02,-0.01 0.03,-0.02 0,-0.01 0,-0.03 0,-0.04zm0.03 0c0,0.02 0,0.04 -0.01,0.06 -0.01,0.02 -0.02,0.03 -0.05,0.03 -0.02,0 -0.04,-0.01 -0.05,-0.03 0,-0.02 -0.01,-0.04 -0.01,-0.06 0,-0.03 0,-0.05 0.01,-0.06 0.01,-0.02 0.03,-0.03 0.05,-0.03 0.02,0 0.04,0.01 0.05,0.03 0.01,0.01 0.01,0.03 0.01,0.06z"/>
     <path class="fil6" d="M12.76 2.96c0,-0.02 0,-0.03 0,-0.04 -0.01,-0.02 -0.02,-0.02 -0.03,-0.02 -0.01,0 -0.02,0 -0.03,0.02 0,0.01 0,0.02 0,0.04 0,0.04 0.01,0.06 0.03,0.06 0.01,0 0.02,-0.01 0.03,-0.02 0,-0.02 0,-0.03 0,-0.04zm0.03 0c0,0.02 0,0.04 -0.01,0.06 -0.01,0.02 -0.03,0.03 -0.05,0.03 -0.02,0 -0.04,-0.01 -0.05,-0.03 -0.01,-0.02 -0.01,-0.04 -0.01,-0.06 0,-0.03 0,-0.05 0.01,-0.06 0.01,-0.02 0.03,-0.03 0.05,-0.03 0.02,0 0.04,0.01 0.05,0.03 0.01,0.01 0.01,0.03 0.01,0.06z"/>
     <path class="fil6" d="M12.97 2.95c0,-0.01 0,-0.02 -0.01,-0.03 0,-0.02 -0.01,-0.03 -0.02,-0.03 -0.02,0 -0.03,0.01 -0.03,0.03 0,0.01 -0.01,0.02 -0.01,0.04 0,0.04 0.02,0.06 0.04,0.06 0.01,0 0.02,-0.01 0.02,-0.03 0.01,-0.01 0.01,-0.02 0.01,-0.04zm0.03 0c0,0.03 -0.01,0.05 -0.01,0.06 -0.01,0.02 -0.03,0.03 -0.05,0.03 -0.03,0 -0.04,-0.01 -0.05,-0.02 -0.01,-0.02 -0.02,-0.04 -0.02,-0.06 0,-0.03 0.01,-0.05 0.02,-0.06 0.01,-0.02 0.02,-0.03 0.05,-0.03 0.02,0 0.03,0.01 0.04,0.03 0.01,0.01 0.02,0.03 0.02,0.05z"/>
     <path class="fil6" d="M13.1 2.95c0,-0.01 0,-0.02 0,-0.03 -0.01,-0.02 -0.02,-0.03 -0.03,-0.03 -0.01,0 -0.02,0.01 -0.02,0.03 -0.01,0.01 -0.01,0.02 -0.01,0.03 0,0.05 0.01,0.07 0.03,0.07 0.02,0 0.02,-0.01 0.03,-0.03 0,-0.01 0,-0.02 0,-0.04zm0.03 0c0,0.03 0,0.05 -0.01,0.06 -0.01,0.02 -0.02,0.03 -0.05,0.03 -0.02,0 -0.04,-0.01 -0.05,-0.03 0,-0.01 -0.01,-0.03 -0.01,-0.06 0,-0.02 0,-0.04 0.01,-0.05 0.01,-0.02 0.03,-0.03 0.05,-0.03 0.02,0 0.04,0.01 0.05,0.02 0.01,0.02 0.01,0.04 0.01,0.06z"/>
     <path class="fil6" d="M13.24 2.95c0,-0.01 0,-0.03 -0.01,-0.04 0,-0.01 -0.01,-0.02 -0.02,-0.02 -0.01,0 -0.02,0.01 -0.03,0.02 0,0.02 0,0.03 0,0.04 0,0.04 0.01,0.07 0.03,0.07 0.01,-0.01 0.02,-0.01 0.03,-0.03 0,-0.01 0,-0.02 0,-0.04zm0.03 0c0,0.03 0,0.05 -0.01,0.06 -0.01,0.02 -0.03,0.03 -0.05,0.03 -0.02,0 -0.04,-0.01 -0.05,-0.03 -0.01,-0.01 -0.01,-0.03 -0.01,-0.06 0,-0.02 0,-0.04 0.01,-0.06 0.01,-0.02 0.03,-0.03 0.05,-0.03 0.02,0 0.04,0.01 0.05,0.03 0.01,0.02 0.01,0.04 0.01,0.06z"/>
     <path class="fil6" d="M13.38 2.95c0,-0.01 -0.01,-0.03 -0.01,-0.04 0,-0.01 -0.01,-0.02 -0.02,-0.02 -0.02,0 -0.03,0.01 -0.03,0.02 0,0.01 -0.01,0.03 -0.01,0.04 0,0.04 0.01,0.06 0.04,0.06 0.01,0 0.02,0 0.02,-0.02 0.01,-0.01 0.01,-0.02 0.01,-0.04zm0.03 0c0,0.03 -0.01,0.05 -0.01,0.06 -0.02,0.02 -0.03,0.03 -0.05,0.03 -0.03,0 -0.04,-0.01 -0.05,-0.03 -0.01,-0.01 -0.02,-0.03 -0.02,-0.06 0,-0.02 0.01,-0.04 0.02,-0.06 0.01,-0.02 0.02,-0.03 0.04,-0.03 0.03,0 0.04,0.01 0.05,0.03 0.01,0.02 0.02,0.04 0.02,0.06z"/>
     <path class="fil6" d="M13.58 2.95c0,-0.02 0,-0.03 0,-0.04 -0.01,-0.01 -0.02,-0.02 -0.03,-0.02 -0.01,0 -0.02,0.01 -0.02,0.02 -0.01,0.01 -0.01,0.03 -0.01,0.04 0,0.04 0.01,0.06 0.03,0.06 0.02,0 0.02,-0.01 0.03,-0.02 0,-0.01 0,-0.02 0,-0.04zm0.03 0c0,0.02 0,0.04 -0.01,0.06 -0.01,0.02 -0.02,0.03 -0.05,0.03 -0.02,0 -0.04,-0.01 -0.05,-0.03 -0.01,-0.02 -0.01,-0.03 -0.01,-0.06 0,-0.02 0,-0.04 0.01,-0.06 0.01,-0.02 0.03,-0.03 0.05,-0.03 0.02,0 0.04,0.01 0.05,0.03 0.01,0.02 0.01,0.04 0.01,0.06z"/>
     <path class="fil6" d="M13.72 2.95c0,-0.02 0,-0.03 -0.01,-0.04 0,-0.01 -0.01,-0.02 -0.02,-0.02 -0.01,0 -0.02,0.01 -0.03,0.02 0,0.01 0,0.02 0,0.04 0,0.04 0.01,0.06 0.03,0.06 0.01,0 0.02,-0.01 0.03,-0.02 0,-0.01 0,-0.03 0,-0.04zm0.03 0c0,0.02 0,0.04 -0.01,0.06 -0.01,0.02 -0.03,0.03 -0.05,0.03 -0.02,0 -0.04,-0.01 -0.05,-0.03 -0.01,-0.02 -0.01,-0.04 -0.01,-0.06 0,-0.02 0,-0.04 0.01,-0.06 0.01,-0.02 0.03,-0.03 0.05,-0.03 0.02,0 0.04,0.01 0.05,0.03 0.01,0.01 0.01,0.03 0.01,0.06z"/>
     <path class="fil6" d="M13.86 2.95c0,-0.02 -0.01,-0.03 -0.01,-0.04 0,-0.02 -0.01,-0.02 -0.03,-0.02 -0.01,0 -0.02,0 -0.02,0.02 0,0.01 -0.01,0.02 -0.01,0.04 0,0.04 0.01,0.06 0.04,0.06 0.01,0 0.02,-0.01 0.02,-0.02 0,-0.01 0.01,-0.03 0.01,-0.04zm0.03 0c0,0.02 -0.01,0.04 -0.02,0.06 -0.01,0.02 -0.02,0.03 -0.04,0.03 -0.03,0 -0.04,-0.01 -0.05,-0.03 -0.01,-0.02 -0.02,-0.04 -0.02,-0.06 0,-0.03 0.01,-0.05 0.02,-0.06 0.01,-0.02 0.02,-0.03 0.04,-0.03 0.03,0 0.04,0.01 0.05,0.03 0.01,0.01 0.02,0.03 0.02,0.06z"/>
     <path class="fil6" d="M13.99 2.95c0,-0.02 0,-0.03 0,-0.04 -0.01,-0.02 -0.02,-0.02 -0.03,-0.02 -0.01,0 -0.02,0 -0.02,0.02 -0.01,0.01 -0.01,0.02 -0.01,0.04 0,0.04 0.01,0.06 0.03,0.06 0.01,0 0.02,-0.01 0.03,-0.02 0,-0.01 0,-0.03 0,-0.04zm0.03 0c0,0.02 0,0.04 -0.01,0.06 -0.01,0.02 -0.03,0.03 -0.05,0.03 -0.02,0 -0.04,-0.01 -0.05,-0.03 -0.01,-0.02 -0.01,-0.04 -0.01,-0.06 0,-0.03 0,-0.05 0.01,-0.06 0.01,-0.02 0.03,-0.03 0.05,-0.03 0.02,0 0.04,0.01 0.05,0.03 0.01,0.01 0.01,0.03 0.01,0.06z"/>
     <path class="fil6" d="M14.2 2.95c0,-0.02 0,-0.03 -0.01,-0.04 0,-0.02 -0.01,-0.03 -0.02,-0.03 -0.01,0 -0.02,0.01 -0.03,0.03 0,0.01 0,0.02 0,0.04 0,0.04 0.01,0.06 0.03,0.06 0.01,0 0.02,-0.01 0.02,-0.03 0.01,-0.01 0.01,-0.02 0.01,-0.03zm0.03 0c0,0.02 0,0.04 -0.01,0.05 -0.01,0.02 -0.03,0.03 -0.05,0.03 -0.02,0 -0.04,0 -0.05,-0.02 -0.01,-0.02 -0.01,-0.04 -0.01,-0.06 0,-0.03 0,-0.05 0.01,-0.06 0.01,-0.02 0.03,-0.03 0.05,-0.03 0.02,0 0.04,0.01 0.05,0.03 0.01,0.01 0.01,0.03 0.01,0.06z"/>
     <path class="fil6" d="M14.34 2.94c0,-0.01 -0.01,-0.02 -0.01,-0.03 0,-0.02 -0.01,-0.03 -0.03,-0.03 -0.01,0 -0.02,0.01 -0.02,0.03 -0.01,0.01 -0.01,0.02 -0.01,0.03 0,0.05 0.01,0.07 0.04,0.07 0.01,0 0.02,-0.01 0.02,-0.03 0,-0.01 0.01,-0.02 0.01,-0.04zm0.03 0c0,0.03 -0.01,0.05 -0.02,0.06 -0.01,0.02 -0.02,0.03 -0.04,0.03 -0.03,0 -0.04,-0.01 -0.05,-0.03 -0.01,-0.01 -0.02,-0.03 -0.02,-0.05 0,-0.03 0.01,-0.05 0.01,-0.06 0.02,-0.02 0.03,-0.03 0.05,-0.03 0.03,0 0.04,0.01 0.05,0.02 0.01,0.02 0.02,0.04 0.02,0.06z"/>
     <path class="fil6" d="M14.47 2.94c0,-0.01 0,-0.02 0,-0.04 -0.01,-0.01 -0.02,-0.02 -0.03,-0.02 -0.01,0 -0.02,0.01 -0.03,0.03 0,0.01 0,0.02 0,0.03 0,0.05 0.01,0.07 0.03,0.07 0.01,0 0.02,-0.01 0.03,-0.03 0,-0.01 0,-0.02 0,-0.04zm0.03 0c0,0.03 0,0.05 -0.01,0.06 -0.01,0.02 -0.03,0.03 -0.05,0.03 -0.02,0 -0.04,-0.01 -0.05,-0.03 -0.01,-0.01 -0.01,-0.03 -0.01,-0.06 0,-0.02 0,-0.04 0.01,-0.06 0.01,-0.02 0.03,-0.02 0.05,-0.03 0.02,0 0.04,0.01 0.05,0.03 0.01,0.02 0.01,0.04 0.01,0.06z"/>
     <path class="fil6" d="M14.61 2.94c0,-0.01 0,-0.03 -0.01,-0.04 0,-0.01 -0.01,-0.02 -0.02,-0.02 -0.01,0 -0.02,0.01 -0.03,0.02 0,0.01 0,0.03 0,0.04 0,0.04 0.01,0.06 0.03,0.06 0.01,0 0.02,0 0.02,-0.02 0.01,-0.01 0.01,-0.02 0.01,-0.04zm0.03 0c0,0.03 0,0.05 -0.01,0.06 -0.01,0.02 -0.03,0.03 -0.05,0.03 -0.02,0 -0.04,-0.01 -0.05,-0.03 -0.01,-0.01 -0.01,-0.03 -0.01,-0.06 0,-0.02 0,-0.04 0.01,-0.06 0.01,-0.02 0.02,-0.03 0.05,-0.03 0.02,0 0.04,0.01 0.05,0.03 0.01,0.02 0.01,0.04 0.01,0.06z"/>
     <path class="fil6" d="M12.96 2.5l-0.65 0c-0.03,0 -0.06,-0.02 -0.06,-0.05 0,-0.02 0.03,-0.05 0.05,-0.05l0.66 0c0.02,0 0.05,0.02 0.05,0.05 0,0.03 -0.03,0.05 -0.05,0.05z"/>
     <path class="fil6" d="M14.82 2.43c0,-0.01 -0.01,-0.03 -0.02,-0.05 0,0 -0.01,0 -0.01,0l-0.01 0.01c0,0 0,0.01 0,0.01 0.01,0.01 0.02,0.02 0.02,0.03 0,0.02 -0.01,0.03 -0.02,0.04 0,0 0,0.01 0.01,0.01l0 0c0,0.01 0.01,0.01 0.01,0 0.01,-0.01 0.02,-0.03 0.02,-0.05z"/>
     <path class="fil6" d="M14.86 2.43c0,-0.03 -0.01,-0.05 -0.03,-0.08 0,0 -0.01,0 -0.01,0l0 0.01c-0.01,0 -0.01,0 0,0.01 0.01,0.01 0.02,0.04 0.02,0.06 0,0.03 -0.01,0.05 -0.02,0.07 -0.01,0 -0.01,0.01 0,0.01l0 0c0,0.01 0.01,0.01 0.01,0 0.02,-0.02 0.03,-0.05 0.03,-0.08z"/>
     <path class="fil6" d="M14.9 2.43c0,-0.04 -0.02,-0.07 -0.05,-0.1 0,-0.01 0,-0.01 -0.01,0 0,0 0,0.01 0,0.01 0.03,0.02 0.04,0.06 0.04,0.09 0,0.04 -0.01,0.07 -0.04,0.1 0,0 0,0.01 0,0.01 0.01,0 0.01,0 0.02,0 0.02,-0.03 0.04,-0.07 0.04,-0.11z"/>
     <path class="fil6" d="M14.94 2.43c0,-0.05 -0.02,-0.1 -0.06,-0.13 0,0 -0.01,0 -0.01,0l0 0c-0.01,0 -0.01,0.01 0,0.01 0.03,0.03 0.05,0.08 0.05,0.12 0,0.05 -0.02,0.09 -0.05,0.12 0,0.01 0,0.01 0,0.02l0 0c0.01,0 0.01,0 0.01,0 0.04,-0.04 0.06,-0.09 0.06,-0.14z"/>
     <path class="fil6" d="M12.31 3.74c0,0 0,-0.01 0,-0.02 -0.01,0 -0.01,-0.01 -0.02,-0.01 0,0 -0.01,0.01 -0.01,0.01 0,0.01 0,0.02 0,0.02 0,0.02 0,0.03 0.01,0.03 0.01,0 0.01,0 0.02,-0.01 0,0 0,-0.01 0,-0.02zm0.01 0c0,0.01 0,0.02 0,0.03 -0.01,0.01 -0.02,0.02 -0.03,0.02 -0.01,0 -0.01,-0.01 -0.02,-0.02 0,-0.01 -0.01,-0.02 -0.01,-0.03 0,-0.01 0.01,-0.02 0.01,-0.03 0,-0.01 0.01,-0.01 0.02,-0.01 0.01,0 0.02,0 0.03,0.01 0,0.01 0,0.02 0,0.03z"/>
     <path class="fil6" d="M12.37 3.74c0,-0.01 0,-0.01 0,-0.02 0,0 0,-0.01 -0.01,-0.01 -0.01,0 -0.01,0.01 -0.01,0.01 0,0.01 -0.01,0.01 -0.01,0.02 0,0.02 0.01,0.03 0.02,0.03 0.01,0 0.01,0 0.01,-0.01 0,0 0,-0.01 0,-0.02zm0.02 0c0,0.01 0,0.02 -0.01,0.03 0,0.01 -0.01,0.02 -0.02,0.02 -0.01,0 -0.02,-0.01 -0.02,-0.02 -0.01,-0.01 -0.01,-0.02 -0.01,-0.03 0,-0.01 0,-0.02 0.01,-0.03 0,-0.01 0.01,-0.01 0.02,-0.01 0.01,0 0.02,0 0.02,0.01 0.01,0.01 0.01,0.02 0.01,0.03z"/>
     <path class="fil6" d="M12.44 3.7c0,0.01 0,0.01 0,0.01l-0.04 0.07c0,0 0,0 0,0 0,0 -0.01,0 -0.01,0 0,0 0,0 0,0 0,0 0,0 0,0l0.04 -0.08c0,0 0,0 0,0 0,0 0.01,0 0.01,0 0,0 0,0 0,0z"/>
     <path class="fil6" d="M12.49 3.74c0,-0.01 -0.01,-0.01 -0.01,-0.02 0,0 0,-0.01 -0.01,-0.01 -0.01,0 -0.01,0.01 -0.01,0.01 0,0.01 0,0.01 0,0.02 0,0.02 0,0.03 0.01,0.03 0.01,0 0.01,0 0.01,-0.01 0,-0.01 0.01,-0.01 0.01,-0.02zm0.01 0c0,0.01 0,0.02 -0.01,0.03 0,0.01 -0.01,0.01 -0.02,0.01 -0.01,0 -0.02,0 -0.02,-0.01 -0.01,-0.01 -0.01,-0.02 -0.01,-0.03 0,-0.01 0,-0.02 0.01,-0.03 0,-0.01 0.01,-0.01 0.02,-0.01 0.01,0 0.02,0 0.02,0.01 0.01,0.01 0.01,0.02 0.01,0.03z"/>
     <path class="fil6" d="M12.55 3.74c0,-0.01 0,-0.01 0,-0.02 0,-0.01 -0.01,-0.01 -0.01,-0.01 -0.01,0 -0.01,0 -0.02,0.01 0,0.01 0,0.01 0,0.02 0,0.02 0.01,0.03 0.02,0.03 0,0 0.01,0 0.01,-0.01 0,-0.01 0,-0.01 0,-0.02zm0.02 0c0,0.01 -0.01,0.02 -0.01,0.03 0,0.01 -0.01,0.01 -0.02,0.01 -0.01,0 -0.02,0 -0.03,-0.01 0,-0.01 0,-0.02 0,-0.03 0,-0.01 0,-0.02 0,-0.03 0.01,-0.01 0.02,-0.01 0.03,-0.01 0.01,0 0.01,0 0.02,0.01 0,0.01 0.01,0.02 0.01,0.03z"/>
     <path class="fil6" d="M12.62 3.74c0,-0.01 0,-0.01 -0.01,-0.02 0,-0.01 0,-0.01 -0.01,-0.01 0,0 -0.01,0 -0.01,0.01 0,0.01 0,0.01 0,0.02 0,0.02 0,0.03 0.01,0.03 0.01,0 0.01,0 0.01,-0.01 0.01,-0.01 0.01,-0.01 0.01,-0.02zm0.01 0c0,0.01 0,0.02 0,0.03 -0.01,0.01 -0.02,0.01 -0.03,0.01 -0.01,0 -0.02,0 -0.02,-0.01 -0.01,-0.01 -0.01,-0.02 -0.01,-0.03 0,-0.01 0,-0.02 0.01,-0.03 0,-0.01 0.01,-0.01 0.02,-0.01 0.01,0 0.02,0 0.03,0.01 0,0.01 0,0.02 0,0.03z"/>
     <path class="fil6" d="M12.68 3.74c0,-0.01 0,-0.01 0,-0.02 0,-0.01 -0.01,-0.01 -0.01,-0.01 -0.01,0 -0.01,0 -0.01,0.01 -0.01,0.01 -0.01,0.01 -0.01,0.02 0,0.02 0.01,0.03 0.02,0.03 0,0 0.01,0 0.01,-0.01 0,-0.01 0,-0.01 0,-0.02zm0.02 0c0,0.01 0,0.02 -0.01,0.03 0,0.01 -0.01,0.01 -0.02,0.01 -0.01,0 -0.02,0 -0.03,-0.01 0,-0.01 0,-0.02 0,-0.03 0,-0.01 0,-0.02 0,-0.03 0.01,-0.01 0.02,-0.01 0.03,-0.01 0.01,0 0.02,0 0.02,0.01 0.01,0.01 0.01,0.02 0.01,0.03z"/>
     <path class="fil7" d="M14.73 4.73c0,0 0.01,-0.01 0.01,-0.01l0 0c0,0 0.01,-0.01 0.01,-0.01l0.01 -0.01 0 0c0.07,-0.03 0.2,0 0.33,0.09 0.16,0.1 0.26,0.25 0.23,0.32l0.01 0 -0.02 0.02c0,0 0,0 -0.01,0l0 0.01 0 0c0,0 -0.01,0 -0.01,0.01l0 0 0 0c-0.06,0.03 -0.19,0 -0.33,-0.09 -0.16,-0.11 -0.26,-0.25 -0.23,-0.33z"/>
     <path class="fil8" d="M15.11 4.77c-0.16,-0.11 -0.32,-0.13 -0.36,-0.06 -0.03,0.08 0.07,0.22 0.23,0.33 0.16,0.11 0.32,0.13 0.36,0.06 0.03,-0.08 -0.07,-0.22 -0.23,-0.33z"/>
     <path class="fil9" d="M14.83 4.71c-0.01,0.01 -0.03,0.02 -0.03,0.03 -0.01,0.03 0,0.07 0.04,0.12 0.03,0.05 0.09,0.11 0.16,0.15 0.08,0.05 0.17,0.09 0.22,0.09 0.02,0 0.03,-0.01 0.04,-0.01 0.01,0 0.02,-0.01 0.03,-0.02 0.01,-0.03 0,-0.08 -0.04,-0.13 -0.03,-0.05 -0.09,-0.1 -0.16,-0.14 -0.08,-0.06 -0.17,-0.09 -0.23,-0.09 -0.01,0 -0.02,0 -0.03,0zm0.16 0.31c-0.07,-0.05 -0.13,-0.1 -0.16,-0.15 -0.04,-0.06 -0.06,-0.1 -0.04,-0.13 0.01,-0.02 0.02,-0.03 0.04,-0.04 0.06,-0.01 0.16,0.02 0.27,0.09 0.07,0.04 0.13,0.09 0.16,0.15 0.04,0.05 0.06,0.1 0.04,0.13 -0.01,0.02 -0.02,0.03 -0.04,0.03 -0.01,0.01 -0.02,0.01 -0.04,0.01 -0.06,0 -0.14,-0.03 -0.23,-0.09z"/>
     <path class="fil7" d="M11.64 5.15c0,-0.01 0.01,-0.01 0.01,-0.02l0 0c0,0 0.01,0 0.01,0l0.01 -0.02 0 0.01c0.07,-0.03 0.2,0 0.33,0.08 0.16,0.11 0.26,0.25 0.23,0.33l0.01 0 -0.02 0.02c0,0 0,0 -0.01,0l0 0 0 0c0,0 -0.01,0.01 -0.01,0.01l0 0 0 0c-0.06,0.03 -0.19,0 -0.33,-0.09 -0.16,-0.1 -0.26,-0.25 -0.23,-0.32z"/>
     <path class="fil8" d="M12.02 5.18c-0.16,-0.1 -0.32,-0.13 -0.36,-0.05 -0.03,0.07 0.07,0.22 0.23,0.33 0.16,0.1 0.32,0.13 0.36,0.05 0.03,-0.07 -0.07,-0.22 -0.23,-0.33z"/>
     <path class="fil9" d="M11.74 5.13c-0.01,0 -0.03,0.01 -0.03,0.03 -0.01,0.02 0,0.07 0.04,0.12 0.03,0.05 0.09,0.1 0.16,0.14 0.08,0.06 0.17,0.09 0.22,0.09 0.02,0 0.03,0 0.04,0 0.01,-0.01 0.02,-0.02 0.03,-0.03 0.01,-0.03 0,-0.07 -0.04,-0.12 -0.03,-0.05 -0.09,-0.11 -0.16,-0.15 -0.08,-0.05 -0.17,-0.09 -0.23,-0.09 -0.01,0 -0.02,0.01 -0.03,0.01zm0.16 0.3c-0.07,-0.04 -0.13,-0.09 -0.16,-0.15 -0.04,-0.05 -0.06,-0.1 -0.04,-0.13 0,-0.02 0.02,-0.03 0.04,-0.03 0.06,-0.02 0.16,0.01 0.27,0.08 0.07,0.05 0.13,0.1 0.16,0.15 0.04,0.06 0.06,0.1 0.04,0.14 -0.01,0.01 -0.02,0.02 -0.04,0.03 -0.01,0 -0.02,0 -0.04,0 -0.06,0 -0.14,-0.03 -0.23,-0.09z"/>
     <path class="fil7" d="M11.46 6.06c0.05,0.02 0.09,0.05 0.14,0.08 0.36,0.23 0.59,0.55 0.52,0.72l0.01 0.01 -0.04 0.04c0,0 0,0 0,0.01l0 0 0 0c-0.01,0.01 -0.03,0.01 -0.04,0.02l0 0 0 0c-0.12,0.06 -0.34,0.02 -0.59,-0.11l0 -0.77z"/>
     <path class="fil8" d="M11.64 6.1c-0.06,-0.04 -0.12,-0.08 -0.18,-0.11l0 0.78c0.33,0.18 0.63,0.21 0.7,0.06 0.08,-0.17 -0.15,-0.5 -0.52,-0.73z"/>
     <path class="fil9" d="M11.46 6.68c0.17,0.09 0.33,0.15 0.45,0.15 0.02,0 0.05,0 0.07,-0.01 0.04,-0.01 0.06,-0.03 0.08,-0.06 0.02,-0.06 -0.01,-0.16 -0.09,-0.27 -0.08,-0.12 -0.21,-0.24 -0.36,-0.33 -0.05,-0.04 -0.1,-0.07 -0.15,-0.09l0 -0.03c0.06,0.03 0.11,0.06 0.16,0.09 0.16,0.1 0.29,0.22 0.37,0.34 0.09,0.12 0.12,0.23 0.09,0.3 -0.02,0.04 -0.05,0.06 -0.09,0.08 -0.03,0 -0.05,0.01 -0.08,0.01 -0.12,0 -0.28,-0.06 -0.45,-0.15l0 -0.03z"/>
     <polygon class="fil6" points="14.65,4.9 14.65,6.86 14.54,6.81 14.42,6.86 14.37,6.81 14.22,6.86 14.12,6.83 13.94,6.86 13.77,6.83 13.58,6.86 13.45,6.81 13.28,6.86 13.13,6.83 12.97,6.86 12.8,6.83 12.69,6.86 12.57,6.83 12.43,6.86 12.43,4.9 "/>
     <path class="fil10" d="M14.25 5.36l-1.48 0c-0.01,0 -0.03,-0.01 -0.03,-0.02 0,-0.02 0.02,-0.03 0.03,-0.03l1.48 0c0.02,0 0.03,0.01 0.03,0.03 0,0.01 -0.01,0.02 -0.03,0.02z"/>
     <path class="fil10" d="M14.25 5.58l-1.48 0c-0.01,0 -0.03,-0.01 -0.03,-0.03 0,-0.01 0.02,-0.02 0.03,-0.02l1.48 0c0.02,0 0.03,0.01 0.03,0.02 0,0.02 -0.01,0.03 -0.03,0.03z"/>
     <path class="fil10" d="M13.95 5.8l-0.88 0c-0.01,0 -0.02,-0.01 -0.02,-0.02l0 -0.01c0,-0.02 0.01,-0.02 0.02,-0.02l0.88 0c0.01,0 0.02,0 0.02,0.02l0 0.01c0,0.01 -0.01,0.02 -0.02,0.02z"/>
     <path class="fil10" d="M13.95 6.01l-0.88 0c-0.01,0 -0.02,-0.01 -0.02,-0.02l0 -0.01c0,-0.01 0.01,-0.02 0.02,-0.02l0.88 0c0.01,0 0.02,0.01 0.02,0.02l0 0.01c0,0.01 -0.01,0.02 -0.02,0.02z"/>
     <path class="fil10" d="M13.95 6.23l-0.88 0c-0.01,0 -0.02,-0.01 -0.02,-0.02l0 -0.01c0,-0.01 0.01,-0.02 0.02,-0.02l0.88 0c0.01,0 0.02,0.01 0.02,0.02l0 0.01c0,0.01 -0.01,0.02 -0.02,0.02z"/>
    </g>
    <g>
     <path class="fil8" d="M17.03 6.92l0 0.16c0,0.01 0,0.03 -0.01,0.04 -0.01,0.01 -0.02,0.01 -0.03,0.02 0,0 -0.01,0 -0.01,0 0,0 -0.01,0 -0.01,0l-2.55 0c-0.03,0 -0.06,-0.02 -0.06,-0.06 0,0 0,0 0,0l0 -0.16c0,0 0,0 0,0 0,-0.03 0.03,-0.06 0.06,-0.06l2.55 0c0,0 0.01,0 0.01,0 0,0 0.01,0 0.01,0 0.01,0.01 0.02,0.02 0.03,0.03 0.01,0.01 0.01,0.02 0.01,0.03z"/>
     <path class="fil11" d="M15.61 6.86l-1.2 0c-0.02,0 -0.05,0.03 -0.05,0.06 0,0 0,0 0,0l0 0.16c0,0 0,0 0,0 0,0.04 0.03,0.06 0.05,0.06l0.89 0 0.02 0 0.22 0 0.03 0 0.21 0c-0.11,-0.08 -0.15,-0.2 -0.17,-0.28z"/>
     <polygon class="fil11" points="16.69,7.14 16.72,7.14 16.72,6.86 16.69,6.86 "/>
     <polygon class="fil11" points="16.59,7.14 16.62,7.14 16.62,6.86 16.59,6.86 "/>
     <polygon class="fil11" points="16.48,7.14 16.5,7.14 16.5,6.86 16.48,6.86 "/>
     <polygon class="fil11" points="16.3,7.14 16.32,7.14 16.32,6.86 16.3,6.86 "/>
     <polygon class="fil11" points="16.1,7.14 16.13,7.14 16.13,6.86 16.1,6.86 "/>
     <polygon class="fil11" points="15.81,7.14 15.84,7.14 15.84,6.86 15.81,6.86 "/>
     <polygon class="fil11" points="16.78,7.14 16.81,7.14 16.81,6.86 16.78,6.86 "/>
     <polygon class="fil11" points="16.85,7.14 16.87,7.14 16.87,6.86 16.85,6.86 "/>
     <polygon class="fil11" points="16.91,7.14 16.93,7.14 16.93,6.86 16.91,6.86 "/>
     <path class="fil11" d="M16.95 6.86l0 0.28 0.02 0c0,0 0.01,0 0.01,0l0 -0.28c0,0 -0.01,0 -0.01,0l-0.02 0z"/>
     <path class="fil11" d="M16.99 6.86l0 0.28c0.01,-0.01 0.02,-0.01 0.03,-0.02l0 -0.23c-0.01,-0.01 -0.02,-0.02 -0.03,-0.03z"/>
     <path class="fil8" d="M17.22 6.64l0 0.16c0,0.01 -0.01,0.02 -0.01,0.03 -0.01,0.01 -0.02,0.02 -0.03,0.03 -0.01,0 -0.01,0 -0.01,0 -0.01,0 -0.01,0 -0.02,0l-2.54 0c-0.04,0 -0.06,-0.03 -0.06,-0.06 0,0 0,0 0,0l0 -0.16c0,0 0,0 0,0 0,-0.04 0.02,-0.06 0.06,-0.06l2.54 0c0.01,0 0.01,0 0.02,0 0,0 0,0 0.01,0 0.01,0.01 0.02,0.01 0.03,0.02 0,0.01 0.01,0.03 0.01,0.04z"/>
     <path class="fil11" d="M15.8 6.58l-1.2 0c-0.03,0 -0.05,0.02 -0.05,0.06 0,0 0,0 0,0l0 0.16c0,0 0,0 0,0 0,0.03 0.02,0.06 0.05,0.06l0.88 0 0.03 0 0.22 0 0.02 0 0.22 0c-0.11,-0.08 -0.15,-0.2 -0.17,-0.28z"/>
     <polygon class="fil11" points="16.88,6.86 16.91,6.86 16.91,6.58 16.88,6.58 "/>
     <polygon class="fil11" points="16.78,6.86 16.81,6.86 16.81,6.58 16.78,6.58 "/>
     <polygon class="fil11" points="16.66,6.86 16.69,6.86 16.69,6.58 16.66,6.58 "/>
     <polygon class="fil11" points="16.48,6.86 16.51,6.86 16.51,6.58 16.48,6.58 "/>
     <polygon class="fil11" points="16.29,6.86 16.32,6.86 16.32,6.58 16.29,6.58 "/>
     <polygon class="fil11" points="16,6.86 16.03,6.86 16.03,6.58 16,6.58 "/>
     <polygon class="fil11" points="16.97,6.86 17,6.86 17,6.58 16.97,6.58 "/>
     <polygon class="fil11" points="17.03,6.86 17.06,6.86 17.06,6.58 17.03,6.58 "/>
     <polygon class="fil11" points="17.09,6.86 17.12,6.86 17.12,6.58 17.09,6.58 "/>
     <path class="fil11" d="M17.14 6.58l0 0.28 0.01 0c0.01,0 0.01,0 0.02,0l0 -0.28c-0.01,0 -0.01,0 -0.02,0l-0.01 0z"/>
     <path class="fil11" d="M17.18 6.58l0 0.28c0.01,-0.01 0.02,-0.02 0.03,-0.03l0 -0.23c-0.01,-0.01 -0.02,-0.01 -0.03,-0.02z"/>
     <path class="fil8" d="M17.1 6.36l0 0.15c0,0.02 0,0.03 -0.01,0.04 -0.01,0.01 -0.02,0.02 -0.03,0.02 0,0 -0.01,0 -0.01,0.01 0,0 -0.01,0 -0.01,0l-2.55 0c-0.03,0 -0.06,-0.03 -0.06,-0.06 0,0 0,0 0,-0.01l0 -0.15c0,-0.01 0,-0.01 0,-0.01 0,-0.03 0.03,-0.06 0.06,-0.06l2.55 0c0,0 0.01,0 0.01,0 0,0.01 0.01,0.01 0.01,0.01 0.01,0 0.02,0.01 0.03,0.02 0.01,0.01 0.01,0.02 0.01,0.04z"/>
     <path class="fil11" d="M15.68 6.29l-1.2 0c-0.02,0 -0.05,0.03 -0.05,0.06 0,0 0,0 0,0.01l0 0.15c0,0.01 0,0.01 0,0.01 0,0.03 0.03,0.06 0.05,0.06l0.89 0 0.02 0 0.22 0 0.03 0 0.21 0c-0.1,-0.09 -0.15,-0.2 -0.17,-0.29z"/>
     <polygon class="fil11" points="16.76,6.58 16.79,6.58 16.79,6.29 16.76,6.29 "/>
     <polygon class="fil11" points="16.66,6.58 16.69,6.58 16.69,6.29 16.66,6.29 "/>
     <polygon class="fil11" points="16.55,6.58 16.57,6.58 16.57,6.29 16.55,6.29 "/>
     <polygon class="fil11" points="16.37,6.58 16.39,6.58 16.39,6.29 16.37,6.29 "/>
     <polygon class="fil11" points="16.18,6.58 16.2,6.58 16.2,6.29 16.18,6.29 "/>
     <polygon class="fil11" points="15.88,6.58 15.91,6.58 15.91,6.29 15.88,6.29 "/>
     <polygon class="fil11" points="16.85,6.58 16.88,6.58 16.88,6.29 16.85,6.29 "/>
     <polygon class="fil11" points="16.92,6.58 16.95,6.58 16.95,6.29 16.92,6.29 "/>
     <polygon class="fil11" points="16.98,6.58 17,6.58 17,6.29 16.98,6.29 "/>
     <path class="fil11" d="M17.02 6.29l0 0.29 0.02 0c0,0 0.01,0 0.01,0l0 -0.29c0,0 -0.01,0 -0.01,0l-0.02 0z"/>
     <path class="fil11" d="M17.06 6.3l0 0.27c0.01,0 0.02,-0.01 0.03,-0.02l0 -0.23c-0.01,-0.01 -0.02,-0.02 -0.03,-0.02z"/>
     <path class="fil8" d="M17.23 6.07l0 0.16c0,0.01 0,0.03 -0.01,0.03 0,0.02 -0.01,0.02 -0.03,0.03 0,0 0,0 -0.01,0 0,0 -0.01,0 -0.01,0l-2.55 0c-0.03,0 -0.06,-0.02 -0.06,-0.06 0,0 0,0 0,0l0 -0.16c0,0 0,0 0,0 0,-0.04 0.03,-0.06 0.06,-0.06l2.55 0c0,0 0.01,0 0.01,0 0.01,0 0.01,0 0.01,0 0.02,0.01 0.03,0.02 0.03,0.03 0.01,0.01 0.01,0.02 0.01,0.03z"/>
     <path class="fil11" d="M15.81 6.01l-1.19 0c-0.03,0 -0.06,0.02 -0.06,0.06 0,0 0,0 0,0l0 0.16c0,0 0,0 0,0 0,0.04 0.03,0.06 0.06,0.06l1.36 0c-0.1,-0.08 -0.15,-0.2 -0.17,-0.28z"/>
     <polygon class="fil11" points="16.89,6.29 16.92,6.29 16.92,6.01 16.89,6.01 "/>
     <polygon class="fil11" points="16.8,6.29 16.83,6.29 16.83,6.01 16.8,6.01 "/>
     <polygon class="fil11" points="16.68,6.29 16.71,6.29 16.71,6.01 16.68,6.01 "/>
     <polygon class="fil11" points="16.5,6.29 16.53,6.29 16.53,6.01 16.5,6.01 "/>
     <polygon class="fil11" points="16.31,6.29 16.34,6.29 16.34,6.01 16.31,6.01 "/>
     <polygon class="fil11" points="16.02,6.29 16.04,6.29 16.04,6.01 16.02,6.01 "/>
     <polygon class="fil11" points="16.99,6.29 17.02,6.29 17.02,6.01 16.99,6.01 "/>
     <polygon class="fil11" points="17.05,6.29 17.08,6.29 17.08,6.01 17.05,6.01 "/>
     <polygon class="fil11" points="17.11,6.29 17.14,6.29 17.14,6.01 17.11,6.01 "/>
     <path class="fil11" d="M17.15 6.01l0 0.28 0.02 0c0,0 0.01,0 0.01,0l0 -0.28c0,0 -0.01,0 -0.01,0l-0.02 0z"/>
     <path class="fil11" d="M17.19 6.01l0 0.28c0.02,-0.01 0.03,-0.01 0.03,-0.03l0 -0.22c0,-0.01 -0.01,-0.02 -0.03,-0.03z"/>
     <path class="fil8" d="M17.1 5.79l0 0.16c0,0.01 0,0.02 -0.01,0.03 -0.01,0.01 -0.02,0.02 -0.03,0.02 0,0.01 -0.01,0.01 -0.01,0.01 0,0 -0.01,0 -0.01,0l-2.55 0c-0.03,0 -0.06,-0.03 -0.06,-0.06 0,0 0,0 0,0l0 -0.16c0,0 0,0 0,-0.01 0,-0.03 0.03,-0.05 0.06,-0.05l2.55 0c0,0 0.01,0 0.01,0 0,0 0.01,0 0.01,0 0.01,0 0.02,0.01 0.03,0.02 0.01,0.01 0.01,0.02 0.01,0.04z"/>
     <path class="fil11" d="M15.68 5.73l-1.2 0c-0.02,0 -0.05,0.02 -0.05,0.05 0,0.01 0,0.01 0,0.01l0 0.16c0,0 0,0 0,0 0,0.03 0.03,0.06 0.05,0.06l0.89 0 0.02 0 0.22 0 0.03 0 0.21 0c-0.1,-0.09 -0.15,-0.2 -0.17,-0.28z"/>
     <polygon class="fil11" points="16.76,6.01 16.79,6.01 16.79,5.73 16.76,5.73 "/>
     <polygon class="fil11" points="16.66,6.01 16.69,6.01 16.69,5.73 16.66,5.73 "/>
     <polygon class="fil11" points="16.55,6.01 16.57,6.01 16.57,5.73 16.55,5.73 "/>
     <polygon class="fil11" points="16.37,6.01 16.39,6.01 16.39,5.73 16.37,5.73 "/>
     <polygon class="fil11" points="16.18,6.01 16.2,6.01 16.2,5.73 16.18,5.73 "/>
     <polygon class="fil11" points="15.88,6.01 15.91,6.01 15.91,5.73 15.88,5.73 "/>
     <polygon class="fil11" points="16.85,6.01 16.88,6.01 16.88,5.73 16.85,5.73 "/>
     <polygon class="fil11" points="16.92,6.01 16.95,6.01 16.95,5.73 16.92,5.73 "/>
     <polygon class="fil11" points="16.98,6.01 17,6.01 17,5.73 16.98,5.73 "/>
     <path class="fil11" d="M17.02 5.73l0 0.28 0.02 0c0,0 0.01,0 0.01,0l0 -0.28c0,0 -0.01,0 -0.01,0l-0.02 0z"/>
     <path class="fil11" d="M17.06 5.73l0 0.27c0.01,0 0.02,-0.01 0.03,-0.02l0 -0.23c-0.01,-0.01 -0.02,-0.02 -0.03,-0.02z"/>
     <path class="fil8" d="M17.1 5.5l0 0.16c0,0.02 0,0.03 -0.01,0.04 -0.01,0.01 -0.02,0.02 -0.03,0.02 0,0 -0.01,0 -0.01,0 0,0 -0.01,0 -0.01,0l-2.55 0c-0.03,0 -0.06,-0.02 -0.06,-0.05 0,-0.01 0,-0.01 0,-0.01l0 -0.16c0,0 0,0 0,0 0,-0.03 0.03,-0.06 0.06,-0.06l2.55 0c0,0 0.01,0 0.01,0 0,0 0.01,0 0.01,0.01 0.01,0 0.02,0.01 0.03,0.02 0.01,0.01 0.01,0.02 0.01,0.03z"/>
     <path class="fil11" d="M15.68 5.44l-1.2 0c-0.02,0 -0.05,0.03 -0.05,0.06 0,0 0,0 0,0l0 0.16c0,0 0,0 0,0.01 0,0.03 0.03,0.05 0.05,0.05l0.89 0 0.02 0 0.22 0 0.03 0 0.21 0c-0.1,-0.08 -0.15,-0.2 -0.17,-0.28z"/>
     <polygon class="fil11" points="16.76,5.72 16.79,5.72 16.79,5.44 16.76,5.44 "/>
     <polygon class="fil11" points="16.66,5.72 16.69,5.72 16.69,5.44 16.66,5.44 "/>
     <polygon class="fil11" points="16.55,5.72 16.57,5.72 16.57,5.44 16.55,5.44 "/>
     <polygon class="fil11" points="16.37,5.72 16.39,5.72 16.39,5.44 16.37,5.44 "/>
     <polygon class="fil11" points="16.18,5.72 16.2,5.72 16.2,5.44 16.18,5.44 "/>
     <polygon class="fil11" points="15.88,5.72 15.91,5.72 15.91,5.44 15.88,5.44 "/>
     <polygon class="fil11" points="16.85,5.72 16.88,5.72 16.88,5.44 16.85,5.44 "/>
     <polygon class="fil11" points="16.92,5.72 16.95,5.72 16.95,5.44 16.92,5.44 "/>
     <polygon class="fil11" points="16.98,5.72 17,5.72 17,5.44 16.98,5.44 "/>
     <path class="fil11" d="M17.02 5.44l0 0.28 0.02 0c0,0 0.01,0 0.01,0l0 -0.28c0,0 -0.01,0 -0.01,0l-0.02 0z"/>
     <path class="fil11" d="M17.06 5.45l0 0.27c0.01,0 0.02,-0.01 0.03,-0.02l0 -0.23c-0.01,-0.01 -0.02,-0.02 -0.03,-0.02z"/>
     <path class="fil8" d="M16.95 5.22l0 0.16c0,0.01 -0.01,0.02 -0.02,0.03 0,0.01 -0.01,0.02 -0.02,0.03 -0.01,0 -0.01,0 -0.02,0 0,0 0,0 -0.01,0l-2.54 0c-0.04,0 -0.06,-0.03 -0.07,-0.06 0,0 0,0 0,0l0 -0.16c0,0 0,0 0,0 0.01,-0.04 0.03,-0.06 0.07,-0.06l2.54 0c0.01,0 0.01,0 0.01,0 0.01,0 0.01,0 0.02,0 0.01,0.01 0.02,0.01 0.02,0.02 0.01,0.01 0.02,0.03 0.02,0.04z"/>
     <path class="fil11" d="M15.53 5.16l-1.2 0c-0.03,0 -0.05,0.02 -0.06,0.06 0,0 0,0 0,0l0 0.16c0,0 0,0 0,0 0.01,0.03 0.03,0.06 0.06,0.06l0.88 0 0.03 0 0.21 0 0.03 0 0.21 0c-0.1,-0.08 -0.14,-0.2 -0.16,-0.28z"/>
     <polygon class="fil11" points="16.61,5.44 16.64,5.44 16.64,5.16 16.61,5.16 "/>
     <polygon class="fil11" points="16.51,5.44 16.54,5.44 16.54,5.16 16.51,5.16 "/>
     <polygon class="fil11" points="16.39,5.44 16.42,5.44 16.42,5.16 16.39,5.16 "/>
     <polygon class="fil11" points="16.21,5.44 16.24,5.44 16.24,5.16 16.21,5.16 "/>
     <polygon class="fil11" points="16.02,5.44 16.05,5.44 16.05,5.16 16.02,5.16 "/>
     <polygon class="fil11" points="15.73,5.44 15.76,5.44 15.76,5.16 15.73,5.16 "/>
     <polygon class="fil11" points="16.7,5.44 16.73,5.44 16.73,5.16 16.7,5.16 "/>
     <polygon class="fil11" points="16.76,5.44 16.79,5.44 16.79,5.16 16.76,5.16 "/>
     <polygon class="fil11" points="16.82,5.44 16.85,5.44 16.85,5.16 16.82,5.16 "/>
     <path class="fil11" d="M16.87 5.16l0 0.28 0.01 0c0.01,0 0.01,0 0.01,0l0 -0.28c0,0 0,0 -0.01,0l-0.01 0z"/>
     <path class="fil11" d="M16.91 5.16l0 0.28c0.01,-0.01 0.02,-0.02 0.02,-0.03l0 -0.23c0,-0.01 -0.01,-0.01 -0.02,-0.02z"/>
     <path class="fil8" d="M17.03 4.93l0 0.16c0,0.02 0,0.03 -0.01,0.04 -0.01,0.01 -0.02,0.02 -0.03,0.02 0,0 -0.01,0 -0.01,0 0,0.01 -0.01,0.01 -0.01,0.01l-2.55 0c-0.03,0 -0.06,-0.03 -0.06,-0.06 0,0 0,-0.01 0,-0.01l0 -0.16c0,0 0,0 0,0 0,-0.03 0.03,-0.06 0.06,-0.06l2.55 0c0,0 0.01,0 0.01,0 0,0 0.01,0 0.01,0.01 0.01,0 0.02,0.01 0.03,0.02 0.01,0.01 0.01,0.02 0.01,0.03z"/>
     <path class="fil11" d="M15.61 4.87l-1.2 0c-0.02,0 -0.05,0.03 -0.05,0.06 0,0 0,0 0,0l0 0.16c0,0 0,0.01 0,0.01 0,0.03 0.03,0.06 0.05,0.06l0.89 0 0.02 0 0.22 0 0.03 0 0.21 0c-0.11,-0.09 -0.15,-0.2 -0.17,-0.29z"/>
     <polygon class="fil11" points="16.69,5.16 16.72,5.16 16.72,4.87 16.69,4.87 "/>
     <polygon class="fil11" points="16.59,5.16 16.62,5.16 16.62,4.87 16.59,4.87 "/>
     <polygon class="fil11" points="16.48,5.16 16.5,5.16 16.5,4.87 16.48,4.87 "/>
     <polygon class="fil11" points="16.3,5.16 16.32,5.16 16.32,4.87 16.3,4.87 "/>
     <polygon class="fil11" points="16.1,5.16 16.13,5.16 16.13,4.87 16.1,4.87 "/>
     <polygon class="fil11" points="15.81,5.16 15.84,5.16 15.84,4.87 15.81,4.87 "/>
     <polygon class="fil11" points="16.78,5.16 16.81,5.16 16.81,4.87 16.78,4.87 "/>
     <polygon class="fil11" points="16.85,5.16 16.87,5.16 16.87,4.87 16.85,4.87 "/>
     <polygon class="fil11" points="16.91,5.16 16.93,5.16 16.93,4.87 16.91,4.87 "/>
     <path class="fil11" d="M16.95 4.87l0 0.29 0.02 0c0,0 0.01,0 0.01,-0.01l0 -0.28c0,0 -0.01,0 -0.01,0l-0.02 0z"/>
     <path class="fil11" d="M16.99 4.88l0 0.27c0.01,0 0.02,-0.01 0.03,-0.02l0 -0.23c-0.01,-0.01 -0.02,-0.02 -0.03,-0.02z"/>
     <path class="fil12" d="M17.18 4.52c-0.15,0.25 -0.33,0.35 -0.33,0.35l-0.77 0c0,0 1.21,-0.55 1.1,-0.35z"/>
     <path class="fil13" d="M16.59 6.5c-0.02,0.02 -0.03,0.05 -0.02,0.08l0 0c0.02,0.05 0.08,0.1 0.15,0.16 0.01,0.01 0.02,0.02 0.03,0.02 0,0 0,0 0,0.01 0,0 0.01,0 0.01,0 0.06,0.06 0.04,0.07 0.16,0.2 0.13,0.14 0.22,0.14 0.25,0.13 0.02,-0.01 -0.02,-0.09 -0.07,-0.17 -0.01,-0.01 -0.01,-0.01 -0.01,-0.01 -0.01,-0.01 -0.01,-0.03 -0.02,-0.04 -0.06,-0.1 -0.04,-0.14 -0.03,-0.29 0.01,-0.13 0.19,-0.68 0.19,-0.68l-0.26 -0.05c0,0 -0.08,0.45 -0.16,0.51 -0.05,0.04 -0.1,0.04 -0.14,0.07 -0.01,0 -0.01,0 -0.01,0 -0.03,0.02 -0.05,0.04 -0.07,0.06z"/>
     <path class="fil14" d="M16.59 6.5c-0.02,0.02 -0.03,0.05 -0.02,0.08l0 0c0.03,0.05 0.09,0.1 0.15,0.16 0.01,0.01 0.02,0.02 0.03,0.02 0,0 0,0 0,0.01 0,0 0.01,0 0.01,0 0.06,0.06 0.04,0.07 0.16,0.2 0.13,0.14 0.22,0.14 0.25,0.13 0.02,-0.01 -0.02,-0.09 -0.07,-0.17 -0.03,-0.01 -0.15,-0.06 -0.24,-0.18 -0.08,-0.1 -0.14,-0.23 -0.19,-0.31 -0.01,0 -0.01,0 -0.01,0 -0.03,0.02 -0.05,0.04 -0.07,0.06z"/>
     <path class="fil13" d="M18.67 6.34c0.01,0.08 0.13,0.07 0.25,0.03 0.13,-0.03 0.1,0.01 0.28,-0.01 0.18,-0.02 0.24,-0.09 0.24,-0.11 0.01,-0.03 -0.08,-0.04 -0.18,-0.05 -0.01,0 -0.02,0 -0.03,0 -0.11,-0.01 -0.19,-0.08 -0.29,-0.14 -0.09,-0.06 -0.23,-0.28 -0.23,-0.28l-0.25 0.02c0,0 0.13,0.2 0.18,0.29 0.03,0.05 0.03,0.11 0.03,0.16 -0.01,0.03 -0.01,0.06 0,0.09z"/>
     <path class="fil14" d="M18.92 6.37c0.13,-0.03 0.1,0.01 0.28,-0.01 0.18,-0.02 0.24,-0.09 0.24,-0.11 0.01,-0.03 -0.08,-0.04 -0.18,-0.05l0 0.01c0,0 -0.11,0.07 -0.26,0.08 -0.12,0 -0.25,-0.04 -0.33,-0.04 -0.01,0.03 -0.01,0.06 0,0.09 0.01,0.08 0.13,0.07 0.25,0.03z"/>
     <path class="fil12" d="M17.72 4.76l-0.23 0.62 -0.3 0.81c0,0 -0.09,0.01 -0.17,-0.01 -0.07,-0.02 -0.15,-0.08 -0.15,-0.08 0,0 0.08,-0.87 0.24,-1.37 0.04,-0.13 0.08,-0.24 0.13,-0.29 0.25,-0.29 0.48,0.32 0.48,0.32z"/>
     <path class="fil15" d="M15.61 4.17c0,0 1.53,-0.51 1.87,-0.4 0.35,0.11 1.37,2.15 1.37,2.15 0,0 -0.02,0.03 -0.08,0.05 -0.06,0.03 -0.21,0.03 -0.21,0.03 0,0 -0.92,-0.8 -1.03,-1.03 -0.11,-0.23 -0.16,-0.45 -0.27,-0.43 -0.06,0.01 -0.59,0.33 -1.05,0.33 -0.18,0 -0.68,0 -0.68,0 -0.29,-0.31 -0.21,-0.81 -0.21,-0.81l0.29 0.11z"/>
     <path class="fil16" d="M16.67 0.65c-0.06,-0.05 -0.14,-0.06 -0.19,-0.06 0.01,-0.01 0.04,-0.02 0.04,-0.02 -0.03,0 -0.11,0.02 -0.11,0.02 -0.47,-0.22 -0.6,0.48 -0.6,0.65 0,0.16 -0.02,0.35 -0.27,0.48 -0.49,0.25 -0.13,0.78 -0.13,0.78 0,0.01 0.19,0.39 0.19,0.39 0,-0.14 0.66,-0.79 0.99,-0.97 0.09,-0.11 0.13,-0.31 0.14,-0.32 -0.03,0.15 -0.06,0.24 -0.09,0.29 0.29,-0.23 0.2,-1.13 0.03,-1.24z"/>
     <path class="fil13" d="M16.46 1.9c0,0 -0.17,0.06 -0.28,0.01 -0.1,-0.05 -0.18,-0.22 -0.18,-0.22 0.05,0 0.1,-0.04 0.14,-0.32l0.02 0.01 0.34 0.12c0,0 -0.03,0.11 -0.04,0.22 -0.02,0.08 -0.02,0.17 0,0.18z"/>
     <path class="fil17" d="M16.5 1.5c0,0 -0.03,0.11 -0.04,0.22 -0.2,-0.04 -0.27,-0.23 -0.3,-0.34l0.34 0.12z"/>
     <path class="fil16" d="M16.08 1.3c0,0 -0.11,-0.17 -0.13,-0.31 -0.02,-0.1 0.03,-0.47 0.4,-0.42 0,0 0.11,0.01 0.21,0.08 0.08,0.06 0.2,0.18 0.07,0.5l-0.03 0.11 -0.52 0.04z"/>
     <path class="fil13" d="M16.55 1.61c0,0 -0.47,-0.06 -0.42,-0.35 0.04,-0.29 0.01,-0.49 0.31,-0.46 0.3,0.02 0.34,0.14 0.35,0.24 0.01,0.1 -0.12,0.58 -0.24,0.57z"/>
     <path class="fil16" d="M16.65 0.82c0,0 -0.18,0.32 -0.38,0.34 -0.2,0.02 -0.28,-0.04 -0.28,-0.04 0,0 0.17,-0.1 0.23,-0.3 0,0 0.36,-0.17 0.43,0z"/>
     <path class="fil16" d="M16.61 0.84c0,0 0.09,0.09 0.1,0.17 0.01,0.08 0,0.23 0.04,0.23 0,0 0.14,-0.21 0.05,-0.36 -0.1,-0.16 -0.19,-0.04 -0.19,-0.04z"/>
     <path class="fil18" d="M15.25 4.18c0.02,0.07 0.1,0.09 0.2,0.08 0.2,-0.02 0.5,-0.16 0.71,-0.25 0.32,-0.14 0.47,-0.01 0.57,-0.1 0.11,-0.09 -0.11,-0.29 0.08,-1.21 0.06,-0.31 -0.35,-0.98 -0.35,-0.98 0,0 -0.03,0.19 -0.43,-0.04 -0.01,-0.01 -0.17,0.22 -0.32,0.5 -0.16,0.32 -0.32,0.69 -0.27,0.89 0.09,0.37 -0.27,0.91 -0.19,1.11z"/>
     <path class="fil19" d="M15.25 4.18c0.02,0.07 0.1,0.09 0.2,0.08 0.14,-0.06 0.73,-0.29 0.73,-0.45 -0.01,-0.23 -0.12,-0.23 -0.04,-0.52 0.06,-0.23 -0.49,-0.65 -0.58,-0.74 -0.16,0.31 -0.17,0.32 -0.12,0.52 0.09,0.37 -0.27,0.91 -0.19,1.11z"/>
     <path class="fil15" d="M17.49 5.38l-0.3 0.81c0,0 -0.09,0.01 -0.17,-0.01 -0.07,-0.02 -0.15,-0.08 -0.15,-0.08 0,0 0.08,-0.87 0.24,-1.37l0.38 0.65z"/>
     <path class="fil18" d="M16.46 1.72c0,0 0.4,0.07 0.45,0.24 0.05,0.17 0.33,1.2 0.33,1.2 0,0 -0.21,0.04 -0.3,-0.06 -0.1,-0.1 -0.34,-0.88 -0.34,-0.88l-0.14 -0.5z"/>
     <path class="fil18" d="M16.03 1.68c0,0 -0.38,0.02 -0.51,0.21 -0.19,0.26 -0.56,1.37 -0.35,1.51 0.24,0.17 1.09,0.05 1.09,0.05 0,0 0.03,-0.13 -0.01,-0.2 -0.04,-0.06 -0.68,-0.17 -0.71,-0.19 -0.03,-0.03 0.37,-0.58 0.37,-0.67 0,-0.09 0.12,-0.71 0.12,-0.71z"/>
     <polygon class="fil16" points="16.05,3.77 17.68,3.77 17.98,2.75 16.34,2.75 "/>
     <polygon class="fil16" points="15.54,3.77 17.68,3.77 17.68,3.73 15.54,3.73 "/>
     <path class="fil20" d="M17.16 3.24c0.01,-0.03 -0.01,-0.06 -0.04,-0.06 -0.04,0 -0.08,0.03 -0.09,0.06 -0.01,0.04 0.01,0.07 0.05,0.07 0.03,0 0.07,-0.03 0.08,-0.07z"/>
    </g>
   </g>
  </g>
  <polygon class="fil21" points="0,0 20.23,0 20.23,7.15 0,7.15 "/>
 </g>
</svg>
