<?xml version="1.0" encoding="UTF-8"?>
<!DOCTYPE svg PUBLIC "-//W3C//DTD SVG 1.1//EN" "http://www.w3.org/Graphics/SVG/1.1/DTD/svg11.dtd">
<!-- Creator: CorelDRAW 2019 (64-Bit) -->
<svg xmlns="http://www.w3.org/2000/svg" xml:space="preserve" width="91px" height="91px" version="1.1" style="shape-rendering:geometricPrecision; text-rendering:geometricPrecision; image-rendering:optimizeQuality; fill-rule:evenodd; clip-rule:evenodd"
viewBox="0 0 91 91"
 xmlns:xlink="http://www.w3.org/1999/xlink"
 xmlns:xodm="http://www.corel.com/coreldraw/odm/2003">
 <defs>
  <style type="text/css">
   <![CDATA[
    .fil0 {fill:url(#id0);fill-rule:nonzero}
   ]]>
  </style>
  <linearGradient id="id0" gradientUnits="userSpaceOnUse" x1="1.325" y1="43.694" x2="86.466" y2="47.933">
   <stop offset="0" style="stop-opacity:1; stop-color:#00D9FF"/>
   <stop offset="1" style="stop-opacity:1; stop-color:#5A69F7"/>
  </linearGradient>
 </defs>
 <g id="Слой_x0020_1">
  <metadata id="CorelCorpID_0Corel-Layer"/>
  <path class="fil0" d="M62.573 83.456c-10.801,0 -19.587,-8.786 -19.587,-19.587 0,-10.801 8.786,-19.587 19.587,-19.587 10.801,0 19.587,8.786 19.587,19.587 0,4.055 -1.238,7.826 -3.357,10.955l9.726 9.725c1.458,1.459 1.458,3.817 0,5.276 -0.728,0.728 -1.683,1.093 -2.638,1.093 -0.955,0 -1.91,-0.366 -2.637,-1.093l-9.726 -9.725c-3.129,2.118 -6.9,3.356 -10.955,3.356zm8.322 -10.776c0.073,-0.088 0.15,-0.173 0.233,-0.256 0.082,-0.081 0.166,-0.158 0.253,-0.231 2.056,-2.173 3.317,-5.103 3.317,-8.324 0,-6.685 -5.44,-12.125 -12.125,-12.125 -6.686,0 -12.125,5.44 -12.125,12.125 0,6.686 5.439,12.126 12.125,12.126 3.219,0 6.149,-1.261 8.322,-3.315zm-17.649 -71.303l-42.905 0c-5.671,0 -10.259,4.589 -10.259,10.26l0 57.829c0,5.67 4.588,10.26 10.259,10.26l30.369 0c-3.283,-4.478 -5.186,-9.924 -5.186,-15.857 0,-14.923 12.126,-27.049 27.049,-27.049 0.298,0 0.634,0 0.933,0.038l0 -25.221c0,-5.671 -4.589,-10.26 -10.26,-10.26zm-41.243 10.291l17.925 0c2.052,0 3.731,1.679 3.731,3.731 0,2.052 -1.679,3.731 -3.731,3.731l-17.925 0c-2.052,0 -3.731,-1.679 -3.731,-3.731 0,-2.052 1.679,-3.731 3.731,-3.731l0 0zm12.651 41.942l-12.651 0c-2.052,0 -3.731,-1.68 -3.731,-3.731 0,-2.053 1.679,-3.731 3.731,-3.731l12.651 0c2.053,0 3.731,1.678 3.731,3.731 0,2.051 -1.678,3.731 -3.731,3.731l0 0zm14.923 -17.241l-27.574 0c-2.052,0 -3.731,-1.678 -3.731,-3.73 0,-2.052 1.679,-3.731 3.731,-3.731l27.574 0c2.053,0 3.731,1.679 3.731,3.73 0,2.053 -1.678,3.731 -3.731,3.731l0 0z"/>
 </g>
</svg>
