<?xml version="1.0" encoding="UTF-8"?>
<!DOCTYPE svg PUBLIC "-//W3C//DTD SVG 1.1//EN" "http://www.w3.org/Graphics/SVG/1.1/DTD/svg11.dtd">
<!-- Creator: CorelDRAW 2019 -->
<svg xmlns="http://www.w3.org/2000/svg" xml:space="preserve" width="12.099mm" height="14mm" version="1.1" style="shape-rendering:geometricPrecision; text-rendering:geometricPrecision; image-rendering:optimizeQuality; fill-rule:evenodd; clip-rule:evenodd"
viewBox="0 0 81.51 94.31"
 xmlns:xlink="http://www.w3.org/1999/xlink"
 xmlns:xodm="http://www.corel.com/coreldraw/odm/2003">
 <defs>
  <style type="text/css">
   <![CDATA[
    .fil0 {fill:url(#id0);fill-rule:nonzero}
   ]]>
  </style>
  <linearGradient id="id0" gradientUnits="userSpaceOnUse" x1="2.44" y1="14.25" x2="77.33" y2="79.36">
   <stop offset="0" style="stop-opacity:1; stop-color:#00D9FF"/>
   <stop offset="1" style="stop-opacity:1; stop-color:#5A69F7"/>
  </linearGradient>
 </defs>
 <g id="Слой_x0020_1">
  <metadata id="CorelCorpID_0Corel-Layer"/>
  <path class="fil0" d="M46.46 55.36l6.73 0 0 -5.65 -6.73 0 0 5.65zm9.11 -38.17l-49.82 0c-3.17,0 -5.75,2.16 -5.75,4.82l0 67.48c0,2.66 2.58,4.82 5.75,4.82l49.82 0c3.17,0 5.75,-2.16 5.75,-4.82l0 -67.48c0,-2.66 -2.58,-4.82 -5.75,-4.82zm-36.41 72.3c0,0.89 -0.86,1.61 -1.92,1.61l-11.5 0c-1.06,0 -1.92,-0.72 -1.92,-1.61l0 -9.64c0,-0.89 0.86,-1.61 1.92,-1.61l11.5 0c1.06,0 1.92,0.72 1.92,1.61l0 9.64zm0 -16.07c0,0.89 -0.86,1.61 -1.92,1.61l-11.5 0c-1.06,0 -1.92,-0.72 -1.92,-1.61l0 -9.64c0,-0.89 0.86,-1.61 1.92,-1.61l11.5 0c1.06,0 1.92,0.72 1.92,1.61l0 9.64zm19.16 16.07c0,0.89 -0.86,1.61 -1.92,1.61l-11.5 0c-1.06,0 -1.92,-0.72 -1.92,-1.61l0 -9.64c0,-0.89 0.86,-1.61 1.92,-1.61l11.5 0c1.06,0 1.92,0.72 1.92,1.61l0 9.64zm0 -16.07c0,0.89 -0.86,1.61 -1.92,1.61l-11.5 0c-1.06,0 -1.92,-0.72 -1.92,-1.61l0 -9.64c0,-0.89 0.86,-1.61 1.92,-1.61l11.5 0c1.06,0 1.92,0.72 1.92,1.61l0 9.64zm0 -16.07c0,0.89 -0.86,1.61 -1.92,1.61l-30.66 0c-1.06,0 -1.92,-0.72 -1.92,-1.61l0 -9.64c0,-0.89 0.86,-1.61 1.92,-1.61l30.66 0c1.06,0 1.92,0.72 1.92,1.61l0 9.64zm19.16 32.13c0,0.89 -0.86,1.61 -1.92,1.61l-11.5 0c-1.06,0 -1.92,-0.72 -1.92,-1.61l0 -25.71c0,-0.89 0.86,-1.61 1.92,-1.61l11.5 0c1.06,0 1.92,0.72 1.92,1.61l0 25.71zm0 -32.13c0,0.89 -0.86,1.61 -1.92,1.61l-11.5 0c-1.06,0 -1.92,-0.72 -1.92,-1.61l0 -9.64c0,-0.89 0.86,-1.61 1.92,-1.61l11.5 0c1.06,0 1.92,0.72 1.92,1.61l0 9.64zm0 -16.07c0,0.89 -0.86,1.61 -1.92,1.61l-49.82 0c-1.06,0 -1.92,-0.72 -1.92,-1.61l0 -19.28c0,-0.89 0.86,-1.61 1.92,-1.61l49.82 0c1.06,0 1.92,0.72 1.92,1.61l0 19.28zm-49.98 46.21l7.4 0 0 -5.65 -7.4 0 0 5.65zm62.26 -85.18l0 7.52 8.97 0 -8.97 -7.52zm-1.96 10.8c-1.08,0 -1.96,-0.73 -1.96,-1.64l0 -11.48 -54.76 0 0 13.12 44.98 0c5.39,0 9.78,3.68 9.78,8.2l0 63.95 15.65 0 0 -72.15 -13.69 0zm-59.23 11.47l0 14.12 44.15 0 0 -14.12c-14.72,0 -29.43,0 -44.15,0zm-0.45 30.77l25.89 0 0 -5.65 -25.89 0 0 5.65zm18.8 16.07l7.4 0 0 -5.65 -7.4 0 0 5.65zm-19.43 0l7.4 0 0 -5.65 -7.4 0 0 5.65zm38.95 14.89l6.73 0 0 -19.36 -6.73 0 0 19.36zm-19.52 1.18l7.4 0 0 -5.65 -7.4 0 0 5.65z"/>
 </g>
</svg>
