<?xml version="1.0" encoding="UTF-8"?>
<!DOCTYPE svg PUBLIC "-//W3C//DTD SVG 1.1//EN" "http://www.w3.org/Graphics/SVG/1.1/DTD/svg11.dtd">
<!-- Creator: CorelDRAW 2019 -->
<svg xmlns="http://www.w3.org/2000/svg" xml:space="preserve" width="59.972mm" height="42.333mm" version="1.1" style="shape-rendering:geometricPrecision; text-rendering:geometricPrecision; image-rendering:optimizeQuality; fill-rule:evenodd; clip-rule:evenodd"
viewBox="0 0 1091.74 770.64"
 xmlns:xlink="http://www.w3.org/1999/xlink"
 xmlns:xodm="http://www.corel.com/coreldraw/odm/2003">
 <defs>
  <style type="text/css">
   <![CDATA[
    .str0 {stroke:white;stroke-width:12.84;stroke-miterlimit:22.9256}
    .fil5 {fill:none}
    .fil0 {fill:#5A69F7}
    .fil1 {fill:#34DAEA;fill-rule:nonzero}
    .fil4 {fill:#5A69F7;fill-rule:nonzero}
    .fil6 {fill:white;fill-rule:nonzero}
    .fil8 {fill:white;fill-opacity:0.039216}
    .fil7 {fill:white;fill-opacity:0.058824}
    .fil2 {fill:url(#id1);fill-rule:nonzero}
    .fil3 {fill:url(#id2);fill-rule:nonzero}
   ]]>
  </style>
   <clipPath id="id0">
    <path d="M57.42 0l976.91 0c31.58,0 57.41,25.84 57.41,57.42l0 655.81c0,31.58 -25.84,57.42 -57.41,57.42l-976.91 0c-31.58,0 -57.42,-25.84 -57.42,-57.42l0 -655.81c0,-31.58 25.84,-57.42 57.42,-57.42z"/>
   </clipPath>
  <linearGradient id="id1" gradientUnits="userSpaceOnUse" x1="20.12" y1="185.56" x2="1062.41" y2="37.21">
   <stop offset="0" style="stop-opacity:1; stop-color:#00D9FF"/>
   <stop offset="1" style="stop-opacity:1; stop-color:#5A69F7"/>
  </linearGradient>
  <linearGradient id="id2" gradientUnits="userSpaceOnUse" x1="-251.13" y1="-514.03" x2="835.33" y2="-196.04">
   <stop offset="0" style="stop-opacity:1; stop-color:#00D9FF"/>
   <stop offset="0.419608" style="stop-opacity:1; stop-color:#1B75FD"/>
   <stop offset="1" style="stop-opacity:1; stop-color:#B357EF"/>
  </linearGradient>
 </defs>
 <g id="Слой_x0020_1">
  <metadata id="CorelCorpID_0Corel-Layer"/>
  <path class="fil0" d="M57.42 0l976.91 0c31.58,0 57.41,25.84 57.41,57.42l0 655.81c0,31.58 -25.84,57.42 -57.41,57.42l-976.91 0c-31.58,0 -57.42,-25.84 -57.42,-57.42l0 -655.81c0,-31.58 25.84,-57.42 57.42,-57.42z"/>
  <g style="clip-path:url(#id0)">
   <g id="_980252608">
    <path id="1" class="fil1" d="M1074.52 -1154.03c-3.79,-72.42 283.87,444.62 308.64,498.77 95.48,208.64 266.37,839.28 255.87,985.03l-455.46 -295.16c-542.78,-339.63 -87.45,-777.92 -109.05,-1188.63z"/>
    <path class="fil2" d="M1068.48 -10.34l-1040.48 -5.85c-15.39,-0.09 -27.94,12.32 -28.02,27.71l-1.05 186.15c-0.02,3.72 1.78,7.25 4.87,9.31 63.99,42.5 150.28,50.12 227.19,34.5 93,-18.9 177.39,-65.92 264.16,-104.37 86.76,-38.45 182.01,-69.16 275.46,-52.6 88.18,15.63 163.12,71.03 242.67,112.17 21.23,10.98 43.82,20.9 67.01,28.77 7.23,2.45 14.75,-2.84 14.8,-10.47l1.11 -197.28c0.09,-15.39 -12.32,-27.94 -27.71,-28.03z"/>
    <path class="fil3" d="M597.06 -200.21l-636.42 0c-95.26,0 -172.49,-77.23 -172.49,-172.49 0,-95.27 77.23,-172.5 172.49,-172.5l636.42 0c95.26,0 172.5,77.23 172.5,172.5 0,95.26 -77.23,172.49 -172.5,172.49z"/>
    <path class="fil4 str0" d="M-6424.18 2865.92c-296.07,184.55 2535.44,-105.08 2817.25,-156.48 1085.88,-198.08 3452.27,-583.33 3998.2,-1026.19l-1827.13 -1661.14c-2834.51,-1205.27 -3309,1797.77 -4988.32,2843.82z"/>
   </g>
  </g>
  <path class="fil5" d="M57.42 0l976.91 0c31.58,0 57.41,25.84 57.41,57.42l0 655.81c0,31.58 -25.84,57.42 -57.41,57.42l-976.91 0c-31.58,0 -57.42,-25.84 -57.42,-57.42l0 -655.81c0,-31.58 25.84,-57.42 57.42,-57.42z"/>
  <g id="_980253064">
   <path class="fil6" d="M594.46 411.9l0 42.52 2.04 5.02 -2.04 0.82 0 74.91 28.29 -11.54 6.19 15.18c2.7,6.71 -0.35,14.36 -6.87,17.02l-341.11 139.23c-6.43,2.62 -14.12,-0.82 -16.78,-7.38l-6.2 -15.18 261.04 -106.51 -183.55 0 -103.69 42.32 -17.29 -42.36 -17.34 0 52.15 127.82c4.55,11.09 15.14,18.23 26.99,18.23 3.69,0 7.33,-0.7 10.75,-2.12l341.08 -139.22c14.74,-6 21.76,-23.02 15.68,-37.92l-49.34 -120.84z"/>
   <polygon class="fil6" points="500.42,452.18 500.42,441.87 494.42,452.18 "/>
   <polygon class="fil6" points="293.35,441.87 287.39,452.18 293.35,452.18 "/>
   <path class="fil6" d="M332.57 456.62c0.64,-0.79 0.9,-1.81 0.9,-3.06 0,-1.37 -0.35,-2.47 -1.02,-3.21 -0.67,-0.75 -1.54,-1.1 -2.51,-1.1 -0.82,0 -1.54,0.24 -2.12,0.7 -0.94,0.75 -1.41,1.89 -1.41,3.5 0,1.29 0.35,2.36 1.05,3.14 0.67,0.83 1.58,1.26 2.63,1.26 1.06,0 1.89,-0.39 2.47,-1.22z"/>
   <path class="fil6" d="M223.51 514.62c0.9,0 1.73,-0.27 2.47,-0.78 0.78,-0.52 1.17,-1.46 1.17,-2.87l0 -1.54c-0.23,0.16 -0.5,0.32 -0.78,0.39 -0.28,0.12 -0.62,0.2 -1.1,0.28l-0.94 0.19c-0.9,0.16 -1.53,0.35 -1.92,0.56 -0.63,0.39 -0.98,0.98 -0.98,1.77 0,0.7 0.2,1.22 0.59,1.53 0.43,0.31 0.89,0.47 1.49,0.47z"/>
   <path class="fil6" d="M386.34 457.8c1.05,0 1.92,-0.32 2.55,-0.98 0.58,-0.66 0.9,-1.57 0.9,-2.74 0,-1.22 -0.32,-2.16 -0.94,-2.79 -0.63,-0.62 -1.46,-0.93 -2.51,-0.93 -1.06,0 -1.89,0.31 -2.51,0.93 -0.64,0.64 -0.94,1.58 -0.94,2.79 0,1.17 0.31,2.08 0.9,2.74 0.63,0.66 1.49,0.98 2.55,0.98z"/>
   <path class="fil6" d="M267.9 504.31c-1.06,0 -1.88,0.31 -2.46,0.89 -0.59,0.59 -0.95,1.41 -1.11,2.44l7.1 0c-0.07,-1.11 -0.43,-1.92 -1.09,-2.48 -0.66,-0.58 -1.45,-0.85 -2.43,-0.85z"/>
   <path class="fil6" d="M405.12 440.81c-0.78,0 -1.49,0.2 -2.03,0.68 -0.91,0.7 -1.38,1.87 -1.38,3.56 0,1.46 0.27,2.51 0.86,3.22 0.59,0.7 1.49,1.05 2.67,1.05 0.66,0 1.25,-0.2 1.84,-0.55 1.06,-0.7 1.6,-1.88 1.6,-3.57 0,-1.33 -0.31,-2.43 -0.93,-3.21 -0.67,-0.79 -1.54,-1.19 -2.63,-1.19z"/>
   <path class="fil6" d="M386.34 446.73c0.94,0 1.69,-0.27 2.19,-0.82 0.55,-0.55 0.83,-1.3 0.83,-2.16 0,-0.93 -0.28,-1.69 -0.83,-2.23 -0.5,-0.51 -1.25,-0.78 -2.19,-0.78 -0.94,0 -1.68,0.27 -2.24,0.78 -0.56,0.54 -0.79,1.3 -0.79,2.23 0,0.86 0.23,1.61 0.79,2.16 0.55,0.55 1.29,0.82 2.24,0.82z"/>
   <path class="fil6" d="M318.37 510.3c-0.86,0.16 -1.48,0.35 -1.87,0.56 -0.67,0.39 -0.98,0.98 -0.98,1.77 0,0.7 0.2,1.22 0.59,1.53 0.39,0.31 0.9,0.47 1.45,0.47 0.9,0 1.73,-0.27 2.51,-0.78 0.74,-0.52 1.14,-1.46 1.17,-2.87l0 -1.54c-0.27,0.16 -0.5,0.32 -0.78,0.39 -0.27,0.12 -0.66,0.2 -1.13,0.28l-0.95 0.19z"/>
   <path class="fil6" d="M387.71 510.3c-0.89,0.16 -1.53,0.35 -1.92,0.56 -0.62,0.39 -0.98,0.98 -0.98,1.77 0,0.7 0.2,1.22 0.59,1.53 0.39,0.31 0.9,0.47 1.46,0.47 0.89,0 1.75,-0.27 2.51,-0.78 0.78,-0.52 1.17,-1.46 1.17,-2.87l0 -1.54c-0.24,0.16 -0.52,0.32 -0.78,0.39 -0.28,0.12 -0.67,0.2 -1.1,0.28l-0.94 0.19z"/>
   <path class="fil6" d="M428.81 505.2c-0.58,0.59 -0.94,1.41 -1.09,2.44l7.1 0c-0.08,-1.11 -0.43,-1.92 -1.1,-2.48 -0.66,-0.58 -1.49,-0.85 -2.43,-0.85 -1.06,0 -1.88,0.31 -2.47,0.89z"/>
   <path class="fil6" d="M537.17 457.84c1.06,0 1.88,-0.39 2.46,-1.22 0.59,-0.79 0.91,-1.81 0.91,-3.06 0,-1.37 -0.35,-2.47 -1.01,-3.21 -0.71,-0.75 -1.54,-1.1 -2.51,-1.1 -0.82,0 -1.54,0.24 -2.16,0.7 -0.9,0.75 -1.38,1.89 -1.38,3.5 0,1.29 0.35,2.36 1.06,3.14 0.67,0.83 1.58,1.26 2.63,1.26z"/>
   <path class="fil6" d="M195.43 455.6c0.43,1.45 1.37,2.2 2.78,2.2 1.38,0 2.32,-0.75 2.75,-2.2 0.35,-1.26 0.56,-3.1 0.59,-5.29 0.03,-0.36 0.07,-0.67 0.07,-1.02 0,-2.9 -0.23,-5.06 -0.66,-6.44 -0.43,-1.36 -1.33,-2.08 -2.75,-2.08 -1.41,0 -2.31,0.71 -2.78,2.08 -0.48,1.42 -0.66,3.53 -0.66,6.44 0,1.41 0.04,2.63 0.15,3.72 0.12,1.02 0.28,1.89 0.51,2.59z"/>
   <path class="fil6" d="M171.27 548.39c3.73,1.76 7.84,2.82 12.24,2.82l371.87 0c7.84,0 14.94,-3.17 20.16,-8.31 5.44,-5.33 8.89,-12.78 8.89,-21.05l0 -216.29c0,-8.28 -3.45,-15.78 -8.89,-21.1 -5.22,-5.14 -12.32,-8.32 -20.16,-8.32l-371.87 0c-16,0 -29.02,13.17 -29.02,29.42l0 216.29c0,11.73 6.91,21.83 16.79,26.55zm18.66 -99.1c0,-3.96 0.59,-7.02 1.81,-9.18 1.26,-2.16 3.37,-3.21 6.44,-3.21 3.05,0 5.21,1.1 6.43,3.21 1.1,1.96 1.64,4.79 1.77,8.23 0,0.33 0.08,0.59 0.08,0.95 0,3.96 -0.64,6.98 -1.85,9.13 -1.21,2.12 -3.38,3.18 -6.43,3.18 -3.06,0 -5.18,-1.06 -6.44,-3.18 -0.55,-0.97 -0.94,-2.23 -1.25,-3.6 -0.35,-1.61 -0.55,-3.41 -0.55,-5.53zm224.68 -96c0,-21.89 17.81,-39.66 39.64,-39.66 8.64,0 16.55,2.87 23.06,7.53 6.75,-5.41 15.22,-8.79 24.52,-8.79 8,0 15.41,2.44 21.64,6.52 5.1,3.37 9.3,8 12.39,13.29 3.37,5.84 5.45,12.51 5.45,19.69 0,21.8 -17.72,39.5 -39.48,39.5 -8.52,0 -16.4,-2.75 -22.83,-7.38 -6.82,5.49 -15.33,8.9 -24.75,8.9 -12.78,0 -24.08,-6.19 -31.33,-15.61 -3.25,-4.23 -5.68,-9.13 -7.02,-14.46 -0.74,-3.06 -1.29,-6.23 -1.29,-9.53zm-7.45 152.39c-0.35,-0.78 -1.02,-1.17 -2.04,-1.17 -1.21,0 -2,0.39 -2.39,1.17 -0.24,0.43 -0.32,1.07 -0.32,1.93l0 9.53 -4.2 0 0 -15.76 4.01 0 0 2.27c0.51,-0.82 0.97,-1.38 1.44,-1.73 0.78,-0.62 1.85,-0.94 3.1,-0.94 1.21,0 2.2,0.27 2.94,0.78 0.59,0.5 1.06,1.13 1.38,1.92 0.54,-0.94 1.22,-1.61 2,-2.04 0.87,-0.47 1.81,-0.66 2.86,-0.66 0.66,0 1.38,0.11 2.04,0.39 0.66,0.27 1.29,0.74 1.85,1.41 0.43,0.6 0.74,1.25 0.9,2.04 0.07,0.55 0.15,1.34 0.15,2.36l-0.04 9.96 -4.24 0 0 -10.08c0,-0.59 -0.11,-1.09 -0.31,-1.45 -0.35,-0.75 -1.01,-1.13 -2,-1.13 -1.14,0 -1.92,0.51 -2.39,1.45 -0.2,0.47 -0.32,1.09 -0.32,1.8l0 9.42 -4.15 0 0 -9.42c0,-0.93 -0.07,-1.61 -0.27,-2.04zm0.31 -53.29c-0.9,0.5 -1.96,0.78 -3.25,0.78 -1.88,0 -3.6,-0.67 -5.06,-2 -1.49,-1.29 -2.24,-3.22 -2.24,-5.69 0,-2.55 0.75,-4.63 2.24,-6.23 1.49,-1.57 3.41,-2.39 5.76,-2.39 3.65,0 6.16,1.6 7.49,4.86 0.79,1.8 1.18,4.23 1.18,7.21 0,2.9 -0.39,5.29 -1.11,7.26 -1.4,3.69 -3.99,5.52 -7.75,5.52 -1.81,0 -3.42,-0.54 -4.87,-1.61 -1.4,-1.05 -2.23,-2.63 -2.47,-4.63l4.71 0c0.12,0.71 0.39,1.25 0.9,1.68 0.48,0.48 1.09,0.68 1.92,0.68 1.54,0 2.63,-0.86 3.26,-2.59 0.35,-0.94 0.54,-2.32 0.66,-4.11 -0.43,0.54 -0.9,0.93 -1.38,1.25zm-28.15 -6.63c-0.36,-0.9 -0.56,-1.73 -0.56,-2.51 0,-1.76 0.67,-3.22 2,-4.48 1.3,-1.21 3.17,-1.84 5.57,-1.84 2.39,0 4.24,0.62 5.53,1.84 1.33,1.25 2,2.71 2,4.48 0,0.78 -0.2,1.61 -0.55,2.51 -0.31,0.89 -1.09,1.68 -2.24,2.35 1.19,0.66 2.08,1.53 2.67,2.63 0.59,1.09 0.9,2.31 0.9,3.64 0,2 -0.74,3.72 -2.24,5.14 -1.48,1.4 -3.61,2.12 -6.28,2.12 -2.66,0 -4.71,-0.71 -6.07,-2.12 -1.37,-1.42 -2.08,-3.14 -2.08,-5.14 0,-1.33 0.31,-2.55 0.9,-3.64 0.62,-1.11 1.49,-1.93 2.66,-2.47 -1.14,-0.79 -1.88,-1.62 -2.23,-2.51zm10.54 58.87c-0.43,-0.24 -1.1,-0.35 -2,-0.35 -0.98,0 -1.69,0.23 -2.08,0.7 -0.31,0.35 -0.51,0.86 -0.59,1.45l-4 0c0.08,-1.36 0.47,-2.51 1.17,-3.4 1.07,-1.38 2.99,-2.08 5.65,-2.08 1.73,0 3.25,0.35 4.63,1.02 1.33,0.7 2,2 2,3.88l0 7.26c0,0.5 0.04,1.13 0.04,1.84 0.04,0.55 0.12,0.9 0.27,1.1 0.12,0.19 0.31,0.35 0.59,0.46l0 0.63 -4.52 0c-0.11,-0.31 -0.19,-0.63 -0.23,-0.9 -0.04,-0.27 -0.08,-0.59 -0.12,-0.94 -0.58,0.59 -1.25,1.15 -2,1.57 -0.86,0.5 -1.88,0.78 -3.02,0.78 -1.45,0 -2.62,-0.43 -3.56,-1.21 -0.94,-0.83 -1.41,-2.01 -1.41,-3.5 0,-1.92 0.74,-3.33 2.28,-4.19 0.82,-0.47 2.04,-0.83 3.65,-1.02l1.41 -0.19c0.78,-0.08 1.34,-0.2 1.65,-0.35 0.62,-0.25 0.9,-0.64 0.9,-1.18 0,-0.67 -0.24,-1.15 -0.71,-1.37zm-16.5 0.97c-0.39,-0.83 -1.18,-1.22 -2.32,-1.22 -1.36,0 -2.31,0.59 -2.86,1.77 -0.23,0.63 -0.39,1.45 -0.39,2.43l0 8.55 -4.12 0 0 -15.76 4 0 0 2.27c0.52,-0.78 1.02,-1.38 1.49,-1.73 0.82,-0.66 1.92,-0.97 3.21,-0.97 1.65,0 2.94,0.43 4,1.29 1.02,0.86 1.53,2.27 1.53,4.27l0 10.63 -4.24 0 0 -9.61c0,-0.82 -0.08,-1.5 -0.31,-1.93zm-22.94 8.35c0.15,0.16 0.66,0.24 1.49,0.24 0.12,0 0.27,0 0.39,0 0.16,0 0.31,0 0.43,0l0 3.06 -1.96 0.07c-1.97,0.08 -3.29,-0.27 -4.01,-1.02 -0.47,-0.47 -0.7,-1.17 -0.7,-2.2l0 -9.73 -2.2 0 0 -2.94 2.2 0 0 -4.39 4.12 0 0 4.39 2.55 0 0 2.94 -2.55 0 0 8.35c-0.05,0.67 0.04,1.06 0.24,1.21zm0.78 -63.68c-0.68,1.49 -1.25,3.34 -1.81,5.49 -0.55,2.12 -0.82,3.87 -0.82,5.25l-4.9 0c0.15,-4.28 1.57,-8.75 4.24,-13.37 1.73,-2.9 3.17,-4.9 4.34,-6.05l-11.91 0 0.04 -4.23 16.94 0 0 3.68c-0.71,0.7 -1.69,1.96 -2.94,3.72 -1.25,1.77 -2.31,3.6 -3.17,5.49zm-67.34 5.6l0 -4.11 8.83 -14.55 5.29 0 0 14.98 2.7 0 0 3.68 -2.7 0 0 5.14 -4.63 0 0 -5.14 -9.49 0zm10.78 39.89l4.47 0 0 17.53 10.67 0 0 3.84 -15.14 0 0 -21.38zm10.51 -35.92c-1.49,-1.25 -2.32,-2.98 -2.47,-5.22l4.7 0c0.2,1.02 0.55,1.81 1.06,2.36 0.55,0.54 1.29,0.86 2.31,0.86 1.18,0 2.05,-0.43 2.67,-1.26 0.63,-0.82 0.9,-1.85 0.9,-3.1 0,-1.21 -0.27,-2.24 -0.86,-3.1 -0.55,-0.82 -1.45,-1.25 -2.67,-1.25 -0.54,0 -1.06,0.08 -1.49,0.24 -0.74,0.23 -1.3,0.75 -1.65,1.45l-4.24 -0.19 1.69 -13.25 13.17 0 0 4 -9.8 0 -0.82 5.25c0.7,-0.46 1.3,-0.78 1.69,-0.93 0.66,-0.28 1.48,-0.39 2.46,-0.39 2,0 3.73,0.66 5.21,2 1.45,1.34 2.2,3.29 2.2,5.84 0,2.2 -0.71,4.16 -2.12,5.92 -1.44,1.73 -3.56,2.59 -6.39,2.59 -2.23,0 -4.12,-0.59 -5.56,-1.81zm15.41 44.79c-0.47,-0.24 -1.14,-0.35 -2,-0.35 -0.98,0 -1.68,0.23 -2.12,0.7 -0.28,0.35 -0.47,0.86 -0.59,1.45l-3.95 0c0.08,-1.36 0.47,-2.51 1.14,-3.4 1.09,-1.38 2.98,-2.08 5.64,-2.08 1.77,0 3.3,0.35 4.67,1.02 1.34,0.7 2.01,2 2.01,3.88l0 7.26c0,0.5 0,1.13 0.03,1.84 0.04,0.55 0.12,0.9 0.24,1.1 0.15,0.19 0.35,0.35 0.62,0.46l0 0.63 -4.51 0c-0.12,-0.31 -0.19,-0.63 -0.23,-0.9 -0.08,-0.27 -0.12,-0.59 -0.12,-0.94 -0.59,0.59 -1.26,1.15 -2,1.57 -0.9,0.5 -1.89,0.78 -3.02,0.78 -1.45,0 -2.63,-0.43 -3.57,-1.21 -0.94,-0.83 -1.41,-2.01 -1.41,-3.5 0,-1.92 0.75,-3.33 2.27,-4.19 0.83,-0.47 2.05,-0.83 3.65,-1.02l1.4 -0.19c0.79,-0.08 1.34,-0.2 1.65,-0.35 0.59,-0.28 0.86,-0.68 0.86,-1.18 0,-0.67 -0.19,-1.15 -0.66,-1.37zm2.78 -46.75c-1.09,-2.01 -1.65,-4.52 -1.65,-7.65 0,-1.85 0.08,-3.33 0.2,-4.47 0.27,-2.05 0.82,-3.73 1.61,-5.1 0.7,-1.15 1.61,-2.08 2.7,-2.79 1.1,-0.7 2.44,-1.06 3.97,-1.06 2.24,0 4,0.59 5.33,1.73 1.33,1.13 2.08,2.62 2.24,4.55l-4.7 0c0,-0.39 -0.12,-0.82 -0.43,-1.29 -0.52,-0.74 -1.3,-1.1 -2.31,-1.1 -1.54,0 -2.63,0.86 -3.25,2.55 -0.36,0.98 -0.59,2.35 -0.75,4.23 0.59,-0.7 1.26,-1.22 2.04,-1.53 0.79,-0.31 1.65,-0.47 2.63,-0.47 2.16,0 3.88,0.7 5.26,2.16 1.33,1.45 2.04,3.29 2.04,5.53 0,2.23 -0.67,4.2 -2.01,5.92 -1.33,1.73 -3.4,2.55 -6.24,2.55 -2.97,0 -5.21,-1.25 -6.67,-3.76zm14.32 54.07c-0.35,-0.23 -1.81,-0.66 -4.32,-1.25 -1.79,-0.43 -3.05,-0.97 -3.79,-1.65 -0.71,-0.66 -1.1,-1.6 -1.1,-2.86 0,-1.45 0.59,-2.7 1.73,-3.76 1.13,-1.02 2.78,-1.57 4.86,-1.57 1.97,0 3.57,0.39 4.83,1.17 1.25,0.78 1.96,2.16 2.12,4.08l-4.12 0c-0.04,-0.51 -0.2,-0.94 -0.43,-1.26 -0.47,-0.54 -1.25,-0.82 -2.32,-0.82 -0.91,0 -1.57,0.12 -1.96,0.39 -0.35,0.32 -0.55,0.64 -0.55,1.02 0,0.48 0.2,0.83 0.59,1.02 0.43,0.24 1.83,0.59 4.31,1.15 1.66,0.39 2.91,0.97 3.73,1.76 0.79,0.79 1.22,1.76 1.22,2.98 0,1.54 -0.59,2.83 -1.77,3.8 -1.17,0.98 -2.98,1.5 -5.41,1.5 -2.47,0 -4.31,-0.51 -5.49,-1.58 -1.22,-1.05 -1.81,-2.39 -1.81,-4l4.19 0c0.08,0.7 0.28,1.26 0.59,1.57 0.52,0.55 1.45,0.82 2.82,0.82 0.83,0 1.49,-0.11 1.96,-0.35 0.47,-0.27 0.71,-0.62 0.71,-1.09 0,-0.48 -0.2,-0.82 -0.59,-1.07zm-71.8 1.77c0.62,0.39 1.41,0.59 2.27,0.59 0.94,0 1.73,-0.25 2.32,-0.72 0.31,-0.27 0.58,-0.62 0.86,-1.09l4.19 0c-0.12,0.94 -0.63,1.88 -1.54,2.86 -1.4,1.53 -3.41,2.32 -5.95,2.32 -2.08,0 -3.96,-0.67 -5.53,-1.97 -1.61,-1.29 -2.43,-3.41 -2.43,-6.31 0,-2.74 0.74,-4.86 2.19,-6.32 1.45,-1.45 3.33,-2.19 5.65,-2.19 1.38,0 2.63,0.23 3.73,0.74 1.09,0.48 2,1.26 2.71,2.35 0.66,0.94 1.06,2.01 1.25,3.26 0.12,0.75 0.16,1.76 0.16,3.13l-11.53 0c0.08,1.57 0.63,2.71 1.65,3.34zm-3.81 -70.24c0,1.42 -0.43,2.63 -1.25,3.57 -0.55,0.63 -1.1,1.02 -1.64,1.25 0.43,0 1.01,0.36 1.83,1.1 1.21,1.13 1.81,2.63 1.81,4.54 0,2.04 -0.7,3.85 -2.12,5.37 -1.41,1.53 -3.5,2.32 -6.24,2.32 -3.37,0 -5.72,-1.15 -7.06,-3.34 -0.7,-1.19 -1.09,-2.75 -1.17,-4.63l4.63 0c0,0.93 0.15,1.76 0.47,2.39 0.58,1.14 1.61,1.73 3.13,1.73 0.9,0 1.73,-0.32 2.39,-0.94 0.71,-0.66 1.02,-1.57 1.02,-2.74 0,-1.58 -0.63,-2.63 -1.89,-3.18 -0.74,-0.27 -1.88,-0.43 -3.44,-0.43l0 -3.38c1.53,-0.04 2.58,-0.19 3.21,-0.47 0.7,-0.31 1.06,-0.89 1.29,-1.69 0.12,-0.35 0.28,-0.66 0.28,-1.09 0,-0.94 -0.28,-1.69 -0.82,-2.24 -0.51,-0.58 -1.26,-0.86 -2.23,-0.86 -1.1,0 -1.92,0.36 -2.44,1.06 -0.54,0.7 -0.78,1.65 -0.74,2.82l-4.43 0c0.08,-1.18 0.27,-2.31 0.62,-3.42 0.39,-0.9 0.98,-1.76 1.8,-2.59 0.62,-0.54 1.37,-0.98 2.2,-1.29 0.86,-0.29 1.88,-0.43 3.13,-0.43 2.28,0 4.12,0.58 5.53,1.76 1.29,1.11 1.88,2.55 2,4.28 0.04,0.2 0.12,0.35 0.12,0.51zm-9.09 62.12c-0.39,-0.75 -1.06,-1.13 -2.05,-1.13 -1.13,0 -1.92,0.51 -2.35,1.45 -0.23,0.47 -0.35,1.09 -0.35,1.8l0 9.42 -4.16 0 0 -9.42c0,-0.93 -0.12,-1.65 -0.27,-2.04 -0.36,-0.78 -1.06,-1.17 -2.08,-1.17 -1.19,0 -1.96,0.39 -2.36,1.17 -0.23,0.43 -0.35,1.07 -0.35,1.93l0 9.53 -4.19 0 0 -15.76 4.04 0 0 2.27c0.51,-0.82 0.98,-1.38 1.45,-1.73 0.78,-0.62 1.84,-0.94 3.09,-0.94 1.22,0 2.2,0.27 2.94,0.78 0.59,0.5 1.06,1.13 1.33,1.92 0.56,-0.94 1.22,-1.61 2.04,-2.04 0.86,-0.47 1.81,-0.66 2.83,-0.66 0.7,0 1.4,0.11 2.08,0.39 0.66,0.27 1.29,0.74 1.83,1.41 0.43,0.6 0.75,1.25 0.9,2.04 0.08,0.55 0.12,1.34 0.12,2.36l0 9.96 -4.23 0 0 -10.08c0,-0.59 -0.08,-1.09 -0.27,-1.45zm192.4 -63.64c-0.59,-0.71 -1.38,-1.02 -2.44,-1.02 -1.41,0 -2.39,0.56 -2.9,1.61 -0.31,0.63 -0.46,1.61 -0.54,2.95l-4.59 0c0.08,-2.04 0.47,-3.69 1.13,-4.94 1.25,-2.39 3.49,-3.61 6.66,-3.61 2.55,0 4.59,0.7 6.08,2.12 1.49,1.41 2.24,3.26 2.24,5.56 0,1.81 -0.51,3.38 -1.57,4.75 -0.7,0.9 -1.85,1.92 -3.45,3.06l-1.88 1.33c-1.19,0.82 -2.01,1.45 -2.44,1.81 -0.43,0.39 -0.79,0.82 -1.1,1.33l10.47 0 0 4.16 -16.43 0c0.04,-1.73 0.43,-3.29 1.14,-4.75 0.66,-1.57 2.23,-3.25 4.74,-5.06 2.16,-1.53 3.58,-2.66 4.24,-3.33 0.98,-1.06 1.45,-2.19 1.45,-3.44 0,-1.02 -0.28,-1.85 -0.82,-2.51zm-10.39 59.68c1.1,0.48 2.04,1.26 2.74,2.35 0.66,0.94 1.06,2.01 1.26,3.26 0.12,0.75 0.16,1.76 0.16,3.13l-11.53 0c0.08,1.57 0.63,2.71 1.65,3.34 0.63,0.39 1.41,0.59 2.28,0.59 0.94,0 1.73,-0.25 2.31,-0.72 0.31,-0.27 0.59,-0.62 0.86,-1.09l4.2 0c-0.12,0.94 -0.62,1.88 -1.53,2.86 -1.42,1.53 -3.42,2.32 -5.93,2.32 -2.12,0 -3.96,-0.67 -5.57,-1.97 -1.61,-1.29 -2.43,-3.41 -2.43,-6.31 0,-2.74 0.74,-4.86 2.2,-6.32 1.45,-1.45 3.33,-2.19 5.64,-2.19 1.38,0 2.59,0.23 3.7,0.74zm-7.42 -40.63l-4.82 0 0 -16.51 -5.65 0 0 -3.23c1.5,-0.04 2.55,-0.15 3.14,-0.27 0.93,-0.24 1.72,-0.63 2.3,-1.26 0.39,-0.43 0.72,-1.02 0.9,-1.72 0.12,-0.43 0.2,-0.74 0.2,-0.95l3.91 0 0 23.93zm54.28 -10.08c-0.7,-0.27 -1.84,-0.43 -3.4,-0.43l0 -3.38c1.53,-0.04 2.58,-0.19 3.21,-0.47 1.02,-0.47 1.53,-1.37 1.53,-2.78 0,-0.94 -0.23,-1.69 -0.78,-2.24 -0.55,-0.58 -1.3,-0.86 -2.23,-0.86 -1.1,0 -1.92,0.36 -2.48,1.06 -0.5,0.7 -0.74,1.65 -0.74,2.82l-4.39 0c0.04,-1.18 0.27,-2.31 0.62,-3.42 0.39,-0.9 0.98,-1.76 1.8,-2.59 0.62,-0.54 1.38,-0.98 2.2,-1.29 0.86,-0.29 1.88,-0.43 3.13,-0.43 2.28,0 4.12,0.58 5.53,1.76 1.41,1.19 2.12,2.79 2.12,4.79 0,1.42 -0.43,2.59 -1.26,3.57 -0.55,0.63 -1.1,1.02 -1.64,1.22 0.43,0 1.01,0.39 1.84,1.14 1.21,1.1 1.81,2.63 1.81,4.54 0,2.04 -0.7,3.81 -2.12,5.34 -1.41,1.56 -3.5,2.32 -6.23,2.32 -3.37,0 -5.72,-1.11 -7.06,-3.33 -0.7,-1.19 -1.09,-2.71 -1.17,-4.63l4.63 0c0,0.97 0.15,1.75 0.47,2.39 0.58,1.18 1.61,1.73 3.13,1.73 0.9,0 1.72,-0.31 2.39,-0.94 0.71,-0.62 1.02,-1.53 1.02,-2.74 0,-1.54 -0.63,-2.59 -1.93,-3.14zm25.93 1.25l0 3.68 -2.75 0 0 5.14 -4.59 0 0 -5.14 -9.48 0 0 -4.11 8.82 -14.55 5.29 0 0 14.98 2.71 0zm12.78 -1.81c-0.55,-0.82 -1.45,-1.25 -2.67,-1.25 -0.54,0 -1.06,0.08 -1.49,0.24 -0.74,0.23 -1.29,0.75 -1.65,1.45l-4.23 -0.19 1.68 -13.25 13.17 0 0 4 -9.8 0 -0.86 5.25c0.75,-0.46 1.29,-0.78 1.73,-0.93 0.66,-0.28 1.48,-0.39 2.47,-0.39 2,0 3.72,0.66 5.17,2 1.49,1.34 2.24,3.29 2.24,5.84 0,2.2 -0.71,4.16 -2.12,5.92 -1.44,1.73 -3.56,2.59 -6.39,2.59 -2.28,0 -4.16,-0.59 -5.61,-1.81 -1.49,-1.21 -2.28,-2.98 -2.43,-5.22l4.67 0c0.19,1.02 0.54,1.81 1.06,2.36 0.55,0.58 1.33,0.86 2.32,0.86 1.18,0 2.08,-0.43 2.66,-1.26 0.63,-0.78 0.9,-1.85 0.9,-3.1 0.04,-1.21 -0.23,-2.24 -0.83,-3.1zm24.28 -7.29l-4.71 0c0,-0.39 -0.15,-0.82 -0.43,-1.25 -0.51,-0.74 -1.3,-1.13 -2.31,-1.13 -1.54,0 -2.63,0.86 -3.26,2.58 -0.35,0.94 -0.58,2.36 -0.75,4.2 0.6,-0.7 1.26,-1.22 2.04,-1.53 0.79,-0.31 1.65,-0.47 2.63,-0.47 2.12,0 3.88,0.7 5.26,2.16 1.32,1.45 2.04,3.29 2.04,5.53 0,2.27 -0.68,4.24 -2.01,5.92 -1.33,1.73 -3.41,2.58 -6.24,2.58 -3.01,0 -5.25,-1.25 -6.67,-3.8 -1.13,-1.97 -1.69,-4.52 -1.69,-7.65 0,-1.8 0.08,-3.29 0.25,-4.43 0.27,-2.04 0.82,-3.76 1.6,-5.09 0.7,-1.18 1.61,-2.12 2.7,-2.83 1.1,-0.7 2.44,-1.06 3.96,-1.06 2.24,0 4,0.59 5.33,1.73 1.34,1.13 2.04,2.66 2.24,4.55zm-309.15 -6.15c2.51,0 4.55,0.7 6.04,2.12 1.49,1.41 2.23,3.26 2.23,5.56 0,1.81 -0.52,3.38 -1.57,4.75 -0.66,0.9 -1.81,1.88 -3.37,3.03 -0.04,0 -0.04,0 -0.08,0.04l-1.88 1.33c-1.19,0.82 -1.97,1.45 -2.44,1.81 -0.42,0.39 -0.78,0.82 -1.09,1.33l10.47 0 0 4.12 -16.39 0c0.04,-1.57 0.39,-3.06 0.98,-4.39 0.04,-0.08 0.08,-0.2 0.12,-0.32 0.66,-1.57 2.23,-3.29 4.74,-5.06 2.16,-1.57 3.58,-2.66 4.24,-3.33 0.98,-1.06 1.45,-2.19 1.45,-3.44 0,-1.02 -0.28,-1.85 -0.82,-2.55 -0.6,-0.67 -1.38,-0.98 -2.44,-0.98 -1.41,0 -2.39,0.51 -2.9,1.61 -0.31,0.6 -0.46,1.57 -0.54,2.95l-4.59 0c0.07,-2.04 0.47,-3.69 1.13,-4.94 0.56,-1.06 1.38,-1.77 2.28,-2.35 0.43,-0.28 0.93,-0.43 1.45,-0.59 0.9,-0.31 1.81,-0.66 2.98,-0.66zm-34.32 80.2l-4.16 0 0 -21.38 4.71 0 8.46 14.9 0 -14.9 4.16 0 0 21.38 -4.47 0 -8.71 -15.18 0 15.18zm14.32 -56.12l0 -16.51 -5.61 0 0 -3.23c1.46,-0.04 2.51,-0.15 3.1,-0.27 0.94,-0.24 1.73,-0.63 2.31,-1.26 0.39,-0.43 0.71,-1.02 0.9,-1.72 0.12,-0.43 0.2,-0.74 0.2,-0.95l3.92 0 0 23.97 -4.82 0 0 -0.04zm-15.45 -74.87l0 -15.26 15.29 0 0 15.61 -15.29 0c0,-0.15 0,-0.23 0,-0.35zm15.29 20.39c-6.12,-1.84 -11.1,-6.23 -13.61,-12.04l13.61 0 0 12.04zm8.04 -12.04l13.21 0 0 13.02 -13.21 0 0 -13.02zm21.26 0l13.57 0c-2.47,5.81 -7.46,10.2 -13.57,12.04l0 -12.04zm15.3 -8.35c0,0.12 0,0.2 0,0.35l-15.3 0 0 -15.61 15.33 0 0 15.26 -0.03 0zm-19.29 -23.29l-4.05 0 0 23.64 -13.21 0 0 -38.9 15.22 0c9.64,0 17.72,6.47 20.35,15.26l-18.31 0zm-25.3 0l-14.32 0c2.08,-6.87 7.46,-12.24 14.32,-14.28l0 14.28zm4.07 145.85c0.82,-0.47 2.05,-0.83 3.66,-1.02l1.4 -0.15c0.79,-0.12 1.34,-0.24 1.65,-0.39 0.59,-0.24 0.9,-0.64 0.9,-1.14 0,-0.67 -0.23,-1.1 -0.71,-1.37 -0.43,-0.24 -1.1,-0.35 -2,-0.35 -0.98,0 -1.69,0.23 -2.08,0.7 -0.32,0.35 -0.52,0.86 -0.6,1.45l-4 0c0.07,-1.36 0.46,-2.51 1.18,-3.4 1.09,-1.38 2.98,-2.08 5.64,-2.08 1.73,0 3.26,0.35 4.63,1.02 1.34,0.7 2.04,2 2.04,3.88l0 7.26c0,0.5 0,1.13 0,1.84 0.04,0.55 0.12,0.9 0.28,1.1 0.11,0.19 0.31,0.35 0.58,0.46l0 0.63 -4.47 0c-0.16,-0.31 -0.23,-0.63 -0.27,-0.9 -0.04,-0.27 -0.08,-0.59 -0.12,-0.94 -0.56,0.59 -1.22,1.15 -1.96,1.57 -0.9,0.5 -1.93,0.78 -3.06,0.78 -1.45,0 -2.63,-0.43 -3.58,-1.21 -0.93,-0.83 -1.41,-2.01 -1.41,-3.5 0,-1.96 0.74,-3.37 2.27,-4.23z"/>
   <path class="fil6" d="M430.7 374.11c5.8,6.55 14.16,10.78 23.56,10.78 6.75,0 12.94,-2.16 18.09,-5.76l13.25 0c0.12,-0.08 0.2,-0.21 0.28,-0.28 2.16,-1.72 4.12,-3.64 5.8,-5.85l-23.1 0c-0.95,-1.49 -1.81,-3.05 -2.55,-4.7l28.71 0c1.02,-1.93 1.84,-3.97 2.51,-6.09l-33.34 0c-0.15,-0.51 -0.35,-0.97 -0.47,-1.44 -0.27,-1.26 -0.39,-2.55 -0.54,-3.85l35.57 0c0.19,-1.57 0.47,-3.14 0.47,-4.79 0,-0.43 -0.12,-0.86 -0.12,-1.29l-36.35 0c0.04,-1.76 0.23,-3.44 0.51,-5.13l35.29 0c-0.39,-2.12 -1.02,-4.12 -1.81,-6.09l-31.96 0c0.6,-1.84 1.3,-3.56 2.16,-5.29l27.13 0c-0.55,-0.9 -1.29,-1.69 -1.92,-2.55 -0.86,-1.17 -1.65,-2.47 -2.7,-3.53l-18.74 0c0.35,-0.5 0.74,-0.93 1.14,-1.4 -4.98,-3.25 -10.9,-5.18 -17.3,-5.18 -17.41,0 -31.6,14.16 -31.6,31.62 0,2.23 0.27,4.39 0.7,6.47 1.14,5.49 3.76,10.35 7.34,14.36z"/>
  </g>
  <g id="_980224072">
   <path class="fil7" d="M1050.24 336.33c9.39,5.24 15.77,15.27 15.77,26.73l0 348.53c0,16.82 -13.76,30.58 -30.58,30.58l-520.7 0c-12.13,0 -22.66,-7.16 -27.6,-17.45 176.03,2.69 560.52,-34.61 563.1,-388.38z"/>
   <path class="fil8" d="M1058.88 446.72c4.25,2.37 7.13,6.91 7.13,12.09l0 254.97c0,13.82 -14.78,28.39 -28.39,28.39l-337.61 0c-5.48,0 -10.25,-3.24 -12.48,-7.89 144.87,-5.31 350.15,-88.91 371.35,-287.55z"/>
  </g>
 </g>
</svg>
