<?xml version="1.0" encoding="UTF-8"?>
<!DOCTYPE svg PUBLIC "-//W3C//DTD SVG 1.1//EN" "http://www.w3.org/Graphics/SVG/1.1/DTD/svg11.dtd">
<!-- Creator: CorelDRAW 2019 -->
<svg xmlns="http://www.w3.org/2000/svg" xml:space="preserve" width="67.0548mm" height="47.3325mm" version="1.1" style="shape-rendering:geometricPrecision; text-rendering:geometricPrecision; image-rendering:optimizeQuality; fill-rule:evenodd; clip-rule:evenodd"
viewBox="0 0 117416.47 82881.69"
 xmlns:xlink="http://www.w3.org/1999/xlink"
 xmlns:xodm="http://www.corel.com/coreldraw/odm/2003">
 <defs>
  <style type="text/css">
   <![CDATA[
    .fil2 {fill:none}
    .fil0 {fill:white}
    .fil15 {fill:#08CEFE;fill-rule:nonzero}
    .fil7 {fill:#10C6FE;fill-rule:nonzero}
    .fil9 {fill:#19BAFD;fill-rule:nonzero}
    .fil5 {fill:#1DB5FC;fill-rule:nonzero}
    .fil11 {fill:#25ABFC;fill-rule:nonzero}
    .fil6 {fill:#26AAFC;fill-rule:nonzero}
    .fil8 {fill:#329BFB;fill-rule:nonzero}
    .fil12 {fill:#3498FA;fill-rule:nonzero}
    .fil10 {fill:#3695FA;fill-rule:nonzero}
    .fil13 {fill:#3D8DFA;fill-rule:nonzero}
    .fil4 {fill:#4B7BF8;fill-rule:nonzero}
    .fil14 {fill:#5470F8;fill-rule:nonzero}
    .fil17 {fill:url(#id1);fill-rule:nonzero}
    .fil1 {fill:url(#id2);fill-rule:nonzero}
    .fil3 {fill:url(#id3);fill-rule:nonzero}
    .fil16 {fill:url(#id4);fill-rule:nonzero}
   ]]>
  </style>
    <clipPath id="id0">
     <path d="M6175.09 0l105066.29 0c3396.34,0 6175.09,2778.75 6175.09,6174.91l0 70531.86c0,3396.17 -2778.75,6174.91 -6175.09,6174.91l-105066.29 0c-3396.34,0 -6175.09,-2778.75 -6175.09,-6174.91l0 -70531.86c0,-3396.17 2778.75,-6174.91 6175.09,-6174.91z"/>
    </clipPath>
  <linearGradient id="id1" gradientUnits="userSpaceOnUse" x1="44190.26" y1="30961.93" x2="53279.1" y2="36620.63">
   <stop offset="0" style="stop-opacity:1; stop-color:#3795FA"/>
   <stop offset="1" style="stop-opacity:1; stop-color:#5174F8"/>
  </linearGradient>
  <linearGradient id="id2" gradientUnits="userSpaceOnUse" x1="-31367.83" y1="-58532.78" x2="80730.52" y2="-74487.84">
   <stop offset="0" style="stop-opacity:1; stop-color:#00D9FF"/>
   <stop offset="1" style="stop-opacity:1; stop-color:#5A69F7"/>
  </linearGradient>
  <linearGradient id="id3" gradientUnits="userSpaceOnUse" xlink:href="#id2" x1="16393.53" y1="47303.63" x2="69871.02" y2="74167.05">
  </linearGradient>
  <linearGradient id="id4" gradientUnits="userSpaceOnUse" xlink:href="#id2" x1="10786.83" y1="29208.43" x2="62012.47" y2="53831.38">
  </linearGradient>
 </defs>
 <g id="Слой_x0020_1">
  <metadata id="CorelCorpID_0Corel-Layer"/>
  <g id="_996901984">
   <path class="fil0" d="M6175.09 0l105066.29 0c3396.34,0 6175.09,2778.75 6175.09,6174.91l0 70531.86c0,3396.17 -2778.75,6174.91 -6175.09,6174.91l-105066.29 0c-3396.34,0 -6175.09,-2778.75 -6175.09,-6174.91l0 -70531.86c0,-3396.17 2778.75,-6174.91 6175.09,-6174.91z"/>
   <g style="clip-path:url(#id0)">
    <g>
     <path id="1" class="fil1" d="M81382.96 -79601.44l-111903.63 -629.5c-1655.09,-9.28 -3004.63,1325.02 -3013.91,2980.29l-112.59 20019.78c-2.28,399.59 191.39,779.92 524.27,1000.9 6881.99,4571.3 16162.04,5390.79 24434.18,3710.13 10002.36,-2032.45 19077.89,-7089.66 28409.77,-11224.77 9331.53,-4134.94 19575.36,-7438.47 29625.71,-5657.65 9483.7,1680.48 17543.62,7639.67 26098.91,12063.88 2283.72,1180.91 4712.61,2247.83 7206.81,3094.46 777.12,263.88 1586.8,-305.38 1591.36,-1126.1l119.42 -21217.33c9.28,-1655.44 -1325.2,-3004.98 -2980.29,-3014.09z"/>
    </g>
   </g>
   <path class="fil2" d="M6175.09 0l105066.29 0c3396.34,0 6175.09,2778.75 6175.09,6174.91l0 70531.86c0,3396.17 -2778.75,6174.91 -6175.09,6174.91l-105066.29 0c-3396.34,0 -6175.09,-2778.75 -6175.09,-6174.91l0 -70531.86c0,-3396.17 2778.75,-6174.91 6175.09,-6174.91z"/>
   <g>
    <path class="fil3" d="M66172.97 41423.95l0 5513.71 264.58 650.87 -264.58 106.29 0 9713.61 3667.75 -1496.1 803.03 1968.36c350.21,869.92 -45.35,1861.89 -890.41,2206.85l-44231.93 18054.05c-834.38,339.53 -1831.43,-106.99 -2176.21,-956.95l-803.73 -1968.36 33848.54 -13811.25 -23800.65 0 -13445.98 5487.1 -2241.35 -5492.35 -2248.18 0 6762.91 16573.89c589.93,1438.49 1963.46,2363.92 3499.13,2363.92 478.21,0 950.47,-90.7 1393.31,-274.57l44228.26 -18052.82c1911.97,-778.69 2822.35,-2985.02 2032.97,-4916.96l-6397.47 -15669.29z"/>
    <polygon class="fil4" points="53978.82,46647.16 53978.82,45310.23 53200.47,46647.16 "/>
    <polygon class="fil5" points="27128.18,45310.23 26354.74,46647.16 27128.18,46647.16 "/>
    <path class="fil6" d="M32213.06 47222.56c82.3,-102.96 117.32,-234.47 117.32,-397.14 0,-178.26 -45.7,-319.92 -131.68,-416.58 -86.85,-97.88 -199.27,-142.89 -325.52,-142.89 -106.64,0 -199.27,30.99 -274.57,90.7 -122.57,97.88 -183.51,244.8 -183.51,453.17 0,167.93 45.88,305.56 136.58,407.47 87.2,106.99 204.52,162.67 341.46,162.67 137.63,0 244.62,-50.78 319.92,-157.42z"/>
    <path class="fil7" d="M18071.04 54743.33c116.97,0 223.61,-35.55 320.27,-101.21 101.21,-66.72 152.17,-189.29 152.17,-371.57l0 -199.27c-29.94,21.01 -64.96,41.68 -101.21,50.96 -35.72,15.93 -80.72,26.27 -142.01,36.6l-122.57 24.34c-116.97,21.01 -197.69,46.05 -248.3,71.97 -81.95,50.78 -127.65,127.65 -127.65,229.04 0,91.23 25.74,157.94 76.7,197.87 55.68,40.27 115.92,61.29 192.62,61.29z"/>
    <path class="fil8" d="M39185.75 47374.9c136.58,0 249.17,-41.68 330.77,-127.65 75.3,-85.63 116.97,-203.3 116.97,-355.46 0,-157.59 -41.68,-279.64 -122.22,-361.94 -82.3,-80.55 -188.94,-121 -325.52,-121 -137.98,0 -244.97,40.45 -325.35,121 -82.3,82.3 -122.57,204.35 -122.57,361.94 0,152.17 40.27,269.84 116.97,355.46 81.25,85.98 192.97,127.65 330.95,127.65z"/>
    <path class="fil9" d="M23827.62 53406.22c-137.63,0 -244.27,40.62 -319.57,115.92 -76.87,76.87 -122.92,183.51 -143.59,316.24l920.35 0c-9.28,-143.59 -55.68,-249.35 -141.66,-321.32 -85.98,-75.65 -187.89,-110.84 -315.54,-110.84z"/>
    <path class="fil10" d="M41621.46 45171.72c-101.21,0 -193.84,26.27 -263.88,87.9 -117.67,90.7 -178.61,242.87 -178.61,461.58 0,188.94 35.02,325.52 111.89,418.15 76.7,90.88 192.97,136.58 346.36,136.58 85.98,0 162.85,-25.92 238.49,-71.62 137.63,-91.05 207.67,-243.22 207.67,-462.45 0,-172.65 -39.75,-314.66 -120.65,-416.23 -87.03,-102.96 -199.62,-153.92 -341.28,-153.92z"/>
    <path class="fil8" d="M39185.75 45940.44c122.22,0 218.88,-35.72 283.85,-106.99 71.97,-71.62 108.22,-168.28 108.22,-279.99 0,-121.17 -36.25,-218.88 -108.22,-289.1 -64.96,-66.36 -161.62,-101.39 -283.85,-101.39 -122.4,0 -218.36,35.02 -289.97,101.39 -71.97,70.22 -101.91,167.93 -101.91,289.1 0,111.72 29.94,208.38 101.91,279.99 71.62,71.27 167.58,106.99 289.97,106.99z"/>
    <path class="fil11" d="M30372 54183.16c-111.89,21.01 -191.92,46.05 -242.87,71.97 -87.55,50.78 -127.65,127.65 -127.65,229.04 0,91.23 25.74,157.94 76.7,197.87 50.96,40.27 116.97,61.29 187.54,61.29 116.97,0 223.96,-35.55 325.35,-101.21 96.31,-66.72 147.26,-189.29 152.17,-371.57l0 -199.27c-35.02,21.01 -64.96,41.68 -101.56,50.96 -35.02,15.93 -85.98,26.27 -146.91,36.6l-122.75 24.34z"/>
    <path class="fil12" d="M39362.96 54183.16c-115.92,21.01 -197.87,46.05 -248.65,71.97 -80.9,50.78 -127.83,127.65 -127.83,229.04 0,91.23 25.92,157.94 76.87,197.87 50.96,40.27 116.97,61.29 188.94,61.29 115.92,0 227.64,-35.55 325.52,-101.21 101.39,-66.72 152.34,-189.29 152.34,-371.57l0 -199.27c-31.34,21.01 -66.72,41.68 -101.91,50.96 -36.42,15.93 -86.68,26.27 -143.06,36.6l-122.22 24.34z"/>
    <path class="fil13" d="M44692.46 53522.14c-75.3,76.87 -122.05,183.51 -142.01,316.24l920.7 0c-10.33,-143.59 -56.03,-249.35 -143.24,-321.32 -85.63,-75.65 -192.62,-110.84 -315.01,-110.84 -136.93,0 -243.57,40.62 -320.44,115.92z"/>
    <path class="fil14" d="M58743.96 47379.98c137.81,0 244.45,-50.78 319.74,-157.42 76.7,-102.96 117.32,-234.47 117.32,-397.14 0,-178.26 -45.35,-319.92 -131.5,-416.58 -92.46,-97.88 -199.62,-142.89 -325.35,-142.89 -106.99,0 -199.62,30.99 -279.82,90.7 -117.32,97.88 -178.61,244.8 -178.61,453.17 0,167.93 45.88,305.56 136.93,407.47 87.03,106.99 204.52,162.67 341.28,162.67z"/>
    <path class="fil15" d="M14429.9 47089.65c56.03,188.59 178.26,285.25 360.54,285.25 178.61,0 300.66,-96.66 356.51,-285.25 45.7,-162.85 71.97,-402.22 76.7,-686.06 4.03,-46.93 9.28,-87.38 9.28,-132.38 0,-376.48 -29.94,-656.29 -85.98,-834.9 -55.86,-176.68 -172.83,-269.31 -356.51,-269.31 -182.28,0 -299.25,92.63 -360.54,269.31 -61.64,183.86 -85.98,458.43 -85.98,834.9 0,183.34 5.08,340.93 19.44,482.94 15.58,132.55 36.6,244.62 66.54,335.5z"/>
    <path class="fil16" d="M11297.44 59121.83c483.12,228.69 1017.19,365.27 1586.98,365.27l48219.61 0c1016.66,0 1937.01,-411.5 2613.8,-1077.95 706.02,-691.14 1153.24,-1657.2 1153.24,-2729.72l0 -28045.73c0,-1073.92 -447.22,-2045.58 -1153.24,-2736.37 -676.78,-666.8 -1597.13,-1078.3 -2613.8,-1078.3l-48219.61 0c-2075.17,0 -3763.71,1708.33 -3763.71,3814.67l0 28045.73c0,1520.44 895.49,2831.28 2176.73,3442.39zm2420.13 -12850.62c0,-513.41 76.87,-910.55 234.47,-1190.19 162.67,-279.82 437.24,-416.58 834.38,-416.58 395.56,0 675.91,142.01 833.5,416.58 142.89,253.55 212.93,621.1 228.86,1067.27 0,42.03 10.68,76.7 10.68,122.92 0,513.93 -82.3,904.42 -239.54,1184.06 -157.59,275.44 -437.94,413.07 -833.5,413.07 -397.14,0 -671.7,-137.63 -834.38,-413.07 -71.62,-126.08 -122.22,-288.92 -162.85,-467.18 -45.35,-208.03 -71.62,-442.49 -71.62,-716.88zm29134.53 -12448.58c0,-2838.11 2309.46,-5142.32 5140.56,-5142.32 1120.15,0 2146.79,372.27 2990.27,976.39 875.35,-701.82 1973.61,-1139.23 3179.56,-1139.23 1037.32,0 1997.95,316.24 2806.59,845.06 661.55,437.41 1205.95,1037.5 1606.24,1723.39 437.41,757.68 707.07,1622.35 707.07,2553.03 0,2827.42 -2297.56,5121.3 -5119.9,5121.3 -1104.04,0 -2126.3,-356.51 -2960.68,-956.42 -883.76,711.8 -1987.97,1154.29 -3209.15,1154.29 -1657.2,0 -3121.95,-803.03 -4062.97,-2024.57 -421.48,-549.13 -737.02,-1184.24 -909.67,-1875.38 -96.66,-396.96 -167.93,-808.46 -167.93,-1235.54zm-966.06 19760.45c-46.23,-101.21 -132.9,-151.99 -264.58,-151.99 -157.24,0 -259.16,50.78 -309.59,151.99 -30.99,56.03 -41.68,138.33 -41.68,250.23l0 1235.54 -544.4 0 0 -2044.18 519.89 0 0 294.53c66.19,-106.64 125.9,-178.61 187.19,-223.96 101.39,-80.55 239.54,-121.52 402.22,-121.52 157.59,0 285.25,35.55 381.2,101.91 76,64.96 136.93,146.91 178.61,248.82 70.22,-122.57 157.59,-208.55 258.63,-264.76 112.59,-60.76 234.82,-85.98 371.4,-85.98 85.98,0 178.61,14.53 264.58,50.96 85.98,35.02 167.93,96.66 239.37,182.28 55.86,77.22 95.96,162.85 116.97,264.23 9.28,71.62 19.96,173.53 19.96,306.43l-5.43 1291.23 -549.48 0 0 -1307.16c0,-76.7 -14.53,-141.66 -40.27,-188.59 -45.7,-96.66 -131.33,-146.91 -259.16,-146.91 -147.09,0 -248.65,66.01 -309.94,188.59 -25.74,60.94 -41.68,141.66 -41.68,232.89l0 1221.18 -538.8 0 0 -1221.18c0,-121 -9.28,-208.55 -35.02,-264.58zm39.75 -6909.65c-116.97,64.96 -253.38,101.39 -421.3,101.39 -243.57,0 -467.18,-87.38 -656.12,-259.33 -192.62,-167.58 -290.5,-417.8 -290.5,-737.72 0,-331.12 97.88,-600.79 290.5,-808.64 193.67,-203.65 442.49,-309.59 747.17,-309.59 473.83,0 799.36,207.85 971.31,630.03 102.61,233.94 153.57,549.13 153.57,935.41 0,376.48 -50.96,686.41 -143.59,941.37 -181.93,478.39 -517.44,716.36 -1005.63,716.36 -234.64,0 -443.19,-70.22 -631.78,-208.55 -181.93,-136.58 -288.92,-340.93 -320.27,-600.09l610.77 0c15.76,92.28 50.96,162.85 116.97,218.53 61.64,61.64 141.66,87.38 248.65,87.38 199.27,0 341.11,-111.72 422.88,-336.03 45.88,-121.87 70.22,-300.48 86.15,-533.37 -55.86,70.22 -117.15,120.65 -178.78,162.85zm-3650.07 -859.59c-46.75,-116.97 -71.79,-223.96 -71.79,-325.35 0,-228.86 86.33,-418.15 259.33,-581 167.93,-157.07 411.5,-237.97 722.48,-237.97 310.11,0 549.66,80.9 717.06,237.97 171.95,162.85 259.51,352.14 259.51,581 0,101.39 -26.27,208.38 -71.62,325.35 -40.62,115.92 -141.66,217.83 -290.5,304.51 153.57,85.98 269.49,197.87 346.53,341.28 76.87,141.84 116.97,299.78 116.97,472.43 0,259.51 -96.31,483.12 -290.32,666.8 -192.27,181.93 -467.53,274.57 -813.71,274.57 -344.78,0 -610.42,-92.63 -787.45,-274.57 -178.26,-183.69 -269.49,-407.29 -269.49,-666.8 0,-172.65 40.27,-330.6 116.97,-472.43 80.9,-143.41 192.97,-250.05 345.48,-320.27 -147.61,-102.96 -243.57,-209.6 -289.45,-325.52zm1367.05 7633.01c-55.86,-31.34 -142.19,-45.7 -258.81,-45.7 -127.65,0 -218.88,29.94 -269.66,91.05 -40.62,45.88 -66.54,111.89 -76.87,187.54l-518.14 0c9.98,-176.68 60.94,-325.52 152.17,-441.27 138.33,-178.78 386.98,-269.49 733.17,-269.49 223.61,0 421.48,45.7 600.09,131.68 171.95,90.88 258.98,258.81 258.98,503.43l0 941.02c0,65.31 5.6,147.26 5.6,238.84 5.25,71.09 15.06,116.97 35.02,142.71 15.23,24.69 40.27,45.7 76.87,60.24l0 81.95 -586.08 0c-14.01,-40.27 -24.69,-81.95 -29.94,-117.5 -5.08,-34.67 -10.68,-76.35 -15.41,-122.05 -75.65,76.7 -162.85,148.31 -259.16,204 -111.72,65.31 -243.57,101.91 -391.89,101.91 -187.89,0 -339.88,-55.68 -462.45,-157.59 -122.05,-106.99 -183.34,-260.56 -183.34,-453.17 0,-248.65 96.31,-432.16 295.23,-543.88 106.64,-61.29 264.23,-107.16 473.13,-132.9l183.34 -24.69c101.21,-10.33 173.18,-26.27 213.63,-45.35 80.55,-31.87 117.15,-82.82 117.15,-152.87 0,-86.68 -31.17,-148.31 -92.63,-177.91zm-2140.14 126.25c-50.96,-106.99 -152.34,-157.59 -301.01,-157.59 -176.86,0 -299.43,76.7 -370.52,229.21 -30.29,81.95 -50.96,188.59 -50.96,314.66l0 1109.47 -534.07 0 0 -2044.18 518.14 0 0 294.53c66.89,-101.91 132.9,-178.61 193.84,-223.96 106.99,-85.98 248.65,-126.25 416.93,-126.25 213.63,0 381.55,55.68 519.19,167.58 131.85,111.02 197.87,294.53 197.87,553.51l0 1378.78 -549.13 0 0 -1245.87c0,-106.99 -10.68,-194.19 -40.27,-249.88zm-2974.69 1083.03c19.26,20.66 85.63,30.99 192.62,30.99 15.93,0 35.02,0 50.96,0 20.66,0 40.27,0 55.68,0l0 397.14 -253.55 9.28c-255.3,10.33 -427.26,-35.02 -519.54,-131.85 -61.29,-60.76 -91.23,-151.99 -91.23,-284.9l0 -1261.28 -285.25 0 0 -381.55 285.25 0 0 -569.09 534.07 0 0 569.09 330.25 0 0 381.55 -330.25 0 0 1083.2c-5.95,87.38 4.73,137.63 30.99,157.42zm101.56 -8257.61c-87.55,192.97 -162.85,432.51 -234.47,712.15 -71.62,274.57 -106.64,502.2 -106.64,680.81l-635.46 0c19.61,-554.56 202.95,-1133.98 549.48,-1734.07 223.61,-376.3 411.15,-635.11 563.14,-783.77l-1544.78 0 5.25 -548.08 2196.35 0 0 478.04c-91.4,91.05 -218.71,253.9 -381.55,482.59 -162.67,229.21 -299.25,467.18 -411.32,712.33zm-8731.62 726.16l0 -533.2 1144.31 -1886.93 686.06 0 0 1942.62 350.21 0 0 477.51 -350.21 0 0 666.8 -600.09 0 0 -666.8 -1230.29 0zm1397.87 5172.26l579.25 0 0 2273.22 1384.38 0 0 498.7 -1963.63 0 0 -2771.92zm1363.19 -4657.8c-193.84,-162.67 -300.83,-386.81 -319.92,-677.13l609.19 0c25.74,132.73 71.62,234.64 137.63,306.26 71.97,70.04 167.93,111.72 299.61,111.72 153.57,0 265.46,-55.68 346.18,-162.67 81.95,-106.64 116.97,-239.54 116.97,-402.22 0,-157.59 -35.02,-290.5 -111.72,-402.22 -71.62,-106.64 -188.59,-162.85 -346.18,-162.85 -70.22,0 -136.93,10.33 -192.62,30.99 -96.31,29.94 -167.93,96.83 -213.8,187.54l-549.48 -24.69 218.88 -1718.31 1708.33 0 0 518.14 -1270.91 0 -106.81 680.98c91.58,-59.89 168.28,-101.91 219.23,-121.17 85.98,-36.42 191.92,-50.78 319.57,-50.78 259.51,0 483.47,85.98 676.08,258.98 188.59,173.35 285.25,426.91 285.25,757.68 0,285.25 -91.4,539.15 -275.27,768.19 -187.01,224.13 -461.58,335.85 -828.77,335.85 -289.27,0 -534.07,-76.7 -721.43,-234.29zm1998.65 5807.72c-61.29,-31.34 -147.26,-45.7 -259.16,-45.7 -127.65,0 -218.36,29.94 -275.27,91.05 -35.72,45.88 -60.94,111.89 -76.7,187.54l-512.53 0c10.33,-176.68 61.11,-325.52 147.09,-441.27 141.84,-178.78 386.46,-269.49 731.94,-269.49 228.69,0 427.96,45.7 604.81,131.68 173.35,90.88 260.56,258.81 260.56,503.43l0 941.02c0,65.31 0,147.26 4.03,238.84 5.08,71.09 15.76,116.97 30.99,142.71 19.96,24.69 45.7,45.7 80.72,60.24l0 81.95 -584.15 0c-15.76,-40.27 -25.04,-81.95 -30.29,-117.5 -10.33,-34.67 -15.41,-76.35 -15.41,-122.05 -76.87,76.7 -162.85,148.31 -259.16,204 -117.32,65.31 -244.97,101.91 -391.89,101.91 -188.59,0 -341.28,-55.68 -462.28,-157.59 -121.87,-106.99 -183.51,-260.56 -183.51,-453.17 0,-248.65 96.66,-432.16 294.53,-543.88 107.69,-61.29 265.28,-107.16 473.83,-132.9l181.93 -24.69c102.96,-10.33 173.35,-26.27 213.63,-45.35 76.87,-36.6 111.89,-87.55 111.89,-152.87 0,-86.68 -24.69,-148.31 -85.63,-177.91zm360.19 -6061.62c-141.84,-260.56 -213.28,-586.08 -213.28,-992.32 0,-239.54 10.68,-431.81 26.09,-579.07 35.02,-265.63 106.29,-484.17 208.2,-661.2 91.05,-148.31 208.55,-269.49 350.21,-362.12 142.71,-91.05 316.24,-136.76 514.46,-136.76 289.97,0 518.14,76 691.14,224.31 173,146.91 269.31,339.88 289.97,589.23l-609.89 0c0,-50.78 -15.93,-106.64 -56.21,-167.4 -66.72,-96.31 -168.28,-142.19 -299.61,-142.19 -199.27,0 -340.93,111.89 -421.83,330.77 -46.75,126.43 -77.05,304.33 -97.71,547.9 76.7,-90.7 162.67,-157.59 264.58,-197.69 102.61,-40.27 213.28,-60.94 340.93,-60.94 279.82,0 503.43,91.05 682.03,279.64 171.95,188.59 264.58,427.08 264.58,717.41 0,288.92 -87.55,544.4 -260.56,768.01 -171.95,223.61 -441.44,330.6 -808.64,330.6 -385.23,0 -675.56,-162.67 -864.49,-488.19zm1856.82 7011.56c-45.7,-29.94 -234.64,-85.98 -560.16,-162.85 -232.71,-55.68 -395.56,-126.08 -491.87,-213.63 -92.28,-85.28 -143.24,-207.67 -143.24,-370.52 0,-187.71 76.87,-350.56 224.13,-488.19 146.74,-132.9 360.54,-202.95 629.85,-202.95 255.3,0 463.15,50.61 625.83,151.99 162.85,101.91 254.6,279.82 275.44,528.47l-534.07 0c-5.25,-66.01 -25.92,-122.05 -56.03,-162.67 -60.94,-70.22 -162.85,-106.64 -300.48,-106.64 -117.32,0 -203.3,15.41 -254.25,50.43 -45.35,41.85 -71.27,82.82 -71.27,132.9 0,61.64 25.92,106.99 76.87,131.85 56.03,30.99 237.97,76.7 558.24,148.31 214.85,50.96 377.53,126.08 484.17,227.99 101.91,102.61 157.59,228.86 157.59,386.46 0,199.27 -76.7,367.2 -229.04,493.27 -152.17,127.83 -386.81,194.19 -702,194.19 -319.92,0 -559.46,-66.36 -711.8,-204.52 -157.94,-136.41 -234.29,-309.59 -234.29,-518.14l543.88 0c10.68,91.23 36.6,162.85 76.7,203.12 66.89,71.44 187.89,106.64 366.15,106.64 106.99,0 193.67,-14.53 253.9,-45.53 60.94,-34.67 92.63,-80.72 92.63,-141.66 0,-61.64 -25.92,-106.64 -76.87,-138.33zm-9310.87 229.56c80.37,50.43 182.28,76.7 294,76.7 122.57,0 224.13,-31.69 301.18,-92.63 39.92,-35.02 74.95,-80.72 111.89,-141.66l543.88 0c-15.41,122.4 -81.95,243.57 -199.27,370.87 -181.93,198.22 -442.49,300.66 -772.04,300.66 -269.31,0 -513.93,-87.03 -717.41,-255.3 -208.03,-167.93 -314.66,-442.49 -314.66,-818.44 0,-355.81 95.96,-630.38 283.67,-818.97 188.59,-187.89 432.16,-283.67 732.64,-283.67 178.61,0 341.28,29.77 483.29,95.78 141.84,61.64 259.16,162.85 351.44,304.86 85.98,122.57 136.93,260.21 161.62,422.88 15.06,96.83 20.66,228.16 20.66,406.42l-1494.52 0c10.33,202.95 81.07,351.26 213.63,432.51zm-493.8 -9108.1c0,183.86 -55.68,341.46 -162.67,462.45 -71.27,81.6 -142.89,132.55 -212.93,162.67 55.68,0 130.98,46.93 237.97,143.24 157.59,147.26 234.29,340.93 234.29,589.4 0,264.58 -91.05,498.87 -274.57,696.74 -182.63,197.69 -453.17,300.66 -808.46,300.66 -437.41,0 -742.1,-148.66 -915.63,-432.51 -90.7,-153.57 -141.66,-356.51 -151.99,-600.09l600.09 0c0,121.17 19.44,228.16 61.11,310.11 75.65,147.26 208.55,223.96 406.42,223.96 116.97,0 223.61,-41.68 309.59,-122.57 92.63,-85.98 132.9,-202.95 132.9,-355.29 0,-204.52 -81.95,-341.46 -244.8,-412.55 -96.31,-35.2 -243.57,-55.86 -446.52,-55.86l0 -437.94c197.87,-5.25 334.45,-24.34 416.4,-60.94 91.05,-40.27 136.76,-115.92 167.75,-218.88 15.93,-45.7 35.9,-85.98 35.9,-141.66 0,-122.57 -35.9,-218.88 -106.99,-290.32 -66.54,-75.3 -162.85,-111.89 -289.45,-111.89 -142.71,0 -249.35,46.93 -316.24,137.63 -70.04,91.23 -101.04,213.63 -95.96,366.15l-574.17 0c9.98,-152.52 35.02,-299.25 80.9,-442.84 50.08,-116.97 126.95,-227.81 233.94,-335.5 80.72,-70.04 178.26,-126.95 285.25,-166.88 111.72,-36.77 243.57,-56.03 406.24,-56.03 295.58,0 533.72,75.3 717.06,227.64 167.93,143.59 243.57,330.77 259.51,555.08 4.73,25.92 15.06,45 15.06,66.01zm-1179.33 8054.84c-50.61,-96.66 -137.81,-146.91 -265.46,-146.91 -146.91,0 -248.65,66.01 -304.33,188.59 -30.29,60.94 -45.88,141.66 -45.88,232.89l0 1221.18 -539.15 0 0 -1221.18c0,-121 -15.06,-213.63 -35.02,-264.58 -46.93,-101.21 -137.98,-151.99 -269.84,-151.99 -153.39,0 -254.6,50.78 -305.56,151.99 -29.77,56.03 -45.7,138.33 -45.7,250.23l0 1235.54 -543.88 0 0 -2044.18 523.21 0 0 294.53c66.36,-106.64 127.65,-178.61 188.59,-223.96 101.91,-80.55 238.32,-121.52 401.17,-121.52 158.65,0 284.9,35.55 381.55,101.91 76.7,64.96 137.63,146.91 172.65,248.82 71.97,-122.57 157.59,-208.55 264.58,-264.76 111.89,-60.76 234.47,-85.98 367.2,-85.98 91.23,0 181.93,14.53 269.49,50.96 85.98,35.02 167.93,96.66 237.97,182.28 56.03,77.22 96.66,162.85 117.32,264.23 10.33,71.62 15.58,173.53 15.58,306.43l0 1291.23 -549.13 0 0 -1307.16c0,-76.7 -10.33,-141.66 -35.37,-188.59zm24948.99 -8252.53c-76.87,-92.63 -178.78,-132.9 -316.42,-132.9 -182.63,0 -309.59,71.97 -376.3,208.2 -40.27,82.3 -60.24,208.38 -70.22,381.9l-594.83 0c9.98,-264.58 60.94,-477.86 146.91,-640.71 162.67,-309.94 453.17,-467.53 864.32,-467.53 330.6,0 595.18,91.23 787.8,274.57 193.67,182.63 290.5,422.18 290.5,721.08 0,234.64 -66.54,438.11 -203.47,615.85 -91.05,117.5 -239.37,248.82 -447.57,397.14l-243.57 171.95c-153.57,106.64 -260.56,188.59 -316.24,234.29 -56.03,50.96 -101.91,107.16 -142.01,173.18l1357.94 0 0 539.15 -2131.21 0c4.9,-223.96 55.86,-427.43 148.49,-616.02 85.98,-202.95 288.92,-421.3 614.09,-656.12 280.34,-197.69 463.85,-344.61 549.83,-431.98 127.3,-136.93 188.59,-283.85 188.59,-446.69 0,-132.73 -36.6,-239.37 -106.64,-325.35zm-1347.79 7739.13c142.01,61.64 264.58,162.85 355.46,304.86 85.98,122.57 136.76,260.21 162.67,422.88 15.93,96.83 21.01,228.16 21.01,406.42l-1495.75 0c10.33,202.95 81.95,351.26 213.8,432.51 81.95,50.43 182.98,76.7 295.23,76.7 122.05,0 223.96,-31.69 299.25,-92.63 40.62,-35.02 76.7,-80.72 112.07,-141.66l544.4 0c-15.93,122.4 -80.9,243.57 -197.87,370.87 -183.69,198.22 -443.19,300.66 -768.54,300.66 -274.57,0 -514.11,-87.03 -722.31,-255.3 -208.03,-167.93 -315.19,-442.49 -315.19,-818.44 0,-355.81 96.31,-630.38 284.9,-818.97 187.89,-187.89 432.16,-283.67 731.94,-283.67 178.61,0 336.03,29.77 478.91,95.78zm-962.03 -5268.22l-624.43 0 0 -2140.31 -733.34 0 0 -418.15c194.19,-5.08 331.12,-19.09 407.82,-35.02 121,-30.99 223.61,-81.95 298.9,-162.67 50.96,-56.21 92.63,-132.9 117.32,-223.78 15.93,-56.03 26.27,-96.31 26.27,-122.75l507.45 0 0 3102.69zm7038.18 -1306.99c-91.23,-35.2 -238.49,-55.86 -441.44,-55.86l0 -437.94c197.87,-5.25 334.28,-24.34 416.23,-60.94 132.9,-60.94 198.22,-177.03 198.22,-360.54 0,-122.57 -30.29,-218.88 -101.56,-290.32 -71.44,-75.3 -168.28,-111.89 -289.27,-111.89 -142.71,0 -249.35,46.93 -321.32,137.63 -64.96,91.23 -95.96,213.63 -95.96,366.15l-569.09 0c5.08,-152.52 35.02,-299.25 80.72,-442.84 50.26,-116.97 126.95,-227.81 234.12,-335.5 80.72,-70.04 178.61,-126.95 285.25,-166.88 111.72,-36.77 243.57,-56.03 406.24,-56.03 295.58,0 533.55,75.3 717.06,227.64 183.34,153.92 274.57,362.47 274.57,621.1 0,183.86 -55.68,336.2 -162.85,462.45 -71.09,81.6 -142.71,132.55 -212.93,158.65 55.86,0 130.98,50.96 238.14,147.26 157.59,142.01 234.29,340.93 234.29,589.4 0,264.58 -91.23,493.27 -274.57,691.84 -182.63,202.6 -453.17,300.48 -808.64,300.48 -437.24,0 -742.1,-143.59 -915.45,-432.16 -90.88,-153.92 -141.66,-351.79 -151.99,-600.09l599.91 0c0,125.9 19.61,227.64 61.29,309.59 75.65,152.52 208.55,223.61 406.24,223.61 117.15,0 223.78,-40.1 309.76,-122.05 92.63,-80.9 132.73,-197.87 132.73,-355.46 0,-199.27 -81.95,-336.2 -249.7,-407.29zm3362.55 162.67l0 477.51 -356.51 0 0 666.8 -595.18 0 0 -666.8 -1230.11 0 0 -533.2 1144.14 -1886.93 685.89 0 0 1942.62 351.79 0zm1656.85 -234.29c-71.44,-106.64 -188.41,-162.85 -346.01,-162.85 -70.22,0 -136.93,10.33 -192.62,30.99 -96.48,29.94 -167.93,96.83 -213.8,187.54l-549.13 -24.69 218.53 -1718.31 1708.15 0 0 518.14 -1270.91 0 -111.72 680.98c96.66,-59.89 167.93,-101.91 224.31,-121.17 85.98,-36.42 192.27,-50.78 319.92,-50.78 259.51,0 483.12,85.98 670.65,258.98 193.67,173.35 290.32,426.91 290.32,757.68 0,285.25 -91.4,539.15 -274.92,768.19 -187.01,224.13 -461.93,335.85 -828.07,335.85 -295.23,0 -539.85,-76.7 -727.74,-234.29 -193.67,-157.24 -295.23,-386.81 -314.84,-677.13l605.34 0c25.04,132.73 70.39,234.64 136.76,306.26 71.62,75.3 172.83,111.72 300.48,111.72 152.69,0 269.66,-55.68 345.48,-162.67 81.77,-101.91 116.97,-239.54 116.97,-402.22 5.08,-157.59 -29.94,-290.5 -107.16,-402.22zm3148.22 -945.57l-610.24 0c0,-50.78 -19.96,-106.64 -56.21,-162.67 -66.36,-95.96 -168.28,-146.91 -299.25,-146.91 -199.27,0 -341.28,111.89 -423.23,334.8 -45.88,122.4 -75.65,305.91 -96.66,543.88 77.05,-90.7 162.67,-157.59 264.58,-197.69 102.61,-40.27 213.63,-60.94 341.28,-60.94 274.57,0 503.43,91.05 682.03,279.64 171.6,188.59 264.23,427.08 264.23,717.41 0,294.18 -87.55,549.48 -260.21,768.01 -171.95,223.61 -441.79,334.63 -808.64,334.63 -390.66,0 -681.16,-162.67 -864.49,-492.22 -146.91,-255.3 -218.88,-586.08 -218.88,-992.32 0,-233.94 10.68,-426.56 31.69,-574.87 35.02,-264.58 106.29,-488.37 207.85,-660.32 91.05,-153.39 208.38,-274.57 350.56,-367.2 142.71,-91.05 316.24,-136.76 513.93,-136.76 290.5,0 518.14,76 691.32,224.31 173.35,146.91 264.23,344.61 290.32,589.23zm-40088.07 -797.78c325.52,0 589.75,91.23 783.42,274.57 193.14,182.63 289.8,422.18 289.8,721.08 0,234.64 -66.89,438.11 -203.65,615.85 -86.15,117.5 -234.47,243.57 -437.41,392.41 -5.08,0 -5.08,0 -9.98,4.73l-243.57 171.95c-153.92,106.64 -255.3,188.59 -316.59,234.29 -54.63,50.96 -101.39,107.16 -141.66,173.18l1357.59 0 0 533.9 -2125.95 0c5.6,-202.95 50.96,-396.96 127.65,-568.92 4.9,-10.33 10.68,-25.92 15.58,-41.85 85.98,-202.95 288.92,-426.56 614.44,-656.12 279.99,-202.95 463.85,-344.61 549.83,-431.98 126.95,-136.93 188.59,-283.85 188.59,-446.69 0,-132.73 -36.6,-239.37 -106.64,-330.6 -77.22,-87.38 -178.61,-127.65 -316.77,-127.65 -182.28,0 -309.59,66.01 -375.95,208.2 -40.27,77.05 -60.24,203.3 -70.57,381.9l-594.83 0c9.28,-264.58 61.29,-477.86 146.91,-640.71 71.97,-136.93 178.61,-229.56 295.58,-304.68 56.03,-36.6 121,-56.21 187.89,-76.87 116.97,-40.27 234.29,-85.98 386.28,-85.98zm-4449.77 10399.33l-539.15 0 0 -2771.92 610.77 0 1097.56 1932.29 0 -1932.29 539.15 0 0 2771.92 -579.42 0 -1128.9 -1968.18 0 1968.18zm1856.64 -7277.37l0 -2140.31 -727.74 0 0 -418.15c188.94,-5.08 325.52,-19.09 402.22,-35.02 122.22,-30.99 224.13,-81.95 299.25,-162.67 50.61,-56.21 92.28,-132.9 117.5,-223.78 15.76,-56.03 25.74,-96.31 25.74,-122.75l507.81 0 0 3107.94 -624.78 0 0 -5.25zm-2003.38 -9708.01l0 -1978.69 1982.72 0 0 2024.39 -1982.72 0c0,-19.79 0,-29.77 0,-45.7zm1982.72 2644.09c-793.05,-237.97 -1438.84,-808.11 -1764.36,-1560.89l1764.36 0 0 1560.89zm1042.58 -1560.89l1713.05 0 0 1688.19 -1713.05 0 0 -1688.19zm2756.16 0l1759.98 0c-320.27,752.78 -967.28,1322.92 -1759.98,1560.89l0 -1560.89zm1983.59 -1083.2c0,15.93 0,25.92 0,45.7l-1983.59 0 0 -2024.39 1987.62 0 0 1978.69 -4.03 0zm-2501.55 -3020.04l-525.14 0 0 3065.74 -1713.05 0 0 -5044.61 1973.44 0c1249.9,0 2298.08,839.63 2639.01,1978.86l-2374.25 0zm-3280.77 0l-1856.64 0c269.49,-890.59 967.28,-1587.33 1856.64,-1851.91l0 1851.91zm528.47 18911.89c106.64,-60.94 265.28,-106.99 473.83,-132.9l181.93 -19.44c101.91,-15.58 173.35,-31.34 213.63,-50.61 76.87,-31.34 117.32,-82.3 117.32,-147.61 0,-86.68 -29.77,-142.89 -91.4,-177.91 -55.86,-31.34 -142.89,-45.7 -258.81,-45.7 -127.65,0 -218.71,29.94 -269.31,91.05 -42.03,45.88 -66.89,111.89 -77.22,187.54l-517.96 0c9.11,-176.68 60.06,-325.52 152.69,-441.27 141.66,-178.78 386.46,-269.49 731.06,-269.49 224.31,0 422.18,45.7 600.09,131.68 173.35,90.88 264.58,258.81 264.58,503.43l0 941.02c0,65.31 0,147.26 0,238.84 5.08,71.09 15.76,116.97 36.42,142.71 14.53,24.69 40.27,45.7 75.3,60.24l0 81.95 -579.25 0c-20.66,-40.27 -29.94,-81.95 -35.2,-117.5 -4.73,-34.67 -10.68,-76.35 -15.41,-122.05 -71.97,76.7 -157.94,148.31 -253.9,204 -116.97,65.31 -249.88,101.91 -397.14,101.91 -188.59,0 -340.58,-55.68 -463.5,-157.59 -121,-106.99 -182.28,-260.56 -182.28,-453.17 0,-253.9 96.31,-437.24 294.53,-549.13z"/>
    <path class="fil17" d="M44937.61 36522.93c752.08,848.74 1835.45,1397.87 3055.06,1397.87 875,0 1678.38,-279.82 2345.18,-747l1718.31 0c15.76,-10.68 25.74,-26.44 36.07,-36.42 280.17,-222.91 534.07,-472.43 752.43,-758.03l-2995 0c-122.92,-192.62 -234.64,-395.56 -330.95,-608.84l3723.09 0c131.68,-250.23 237.97,-514.46 325.52,-789.37l-4323.52 0c-19.26,-66.54 -45,-126.25 -60.94,-187.19 -35.02,-162.67 -50.96,-330.6 -70.04,-498.87l4612.45 0c24.34,-202.95 60.94,-407.47 60.94,-621.1 0,-56.03 -15.93,-111.89 -15.93,-167.93l-4713.66 0c5.25,-227.64 29.59,-446.52 66.54,-665.05l4575.85 0c-50.96,-274.39 -131.68,-533.9 -234.29,-789.2l-4144.22 0c77.22,-238.14 167.93,-461.75 280.52,-686.06l3518.21 0c-71.09,-116.97 -167.4,-218.53 -249.35,-330.25 -111.19,-152.17 -213.63,-320.44 -350.56,-458.43l-2430.46 0c45.35,-64.96 96.31,-121 147.26,-181.93 -645.79,-422.18 -1413.8,-672.05 -2243.45,-672.05 -2257.28,0 -4097.99,1835.63 -4097.99,4099.56 0,288.57 35.02,569.09 91.05,838.58 148.49,711.8 487.84,1342.01 951.87,1861.72z"/>
   </g>
  </g>
 </g>
</svg>
