<?xml version="1.0" encoding="UTF-8"?>
<!DOCTYPE svg PUBLIC "-//W3C//DTD SVG 1.1//EN" "http://www.w3.org/Graphics/SVG/1.1/DTD/svg11.dtd">
<!-- Creator: CorelDRAW 2019 -->
<svg xmlns="http://www.w3.org/2000/svg" xml:space="preserve" width="59.972mm" height="42.333mm" version="1.1" style="shape-rendering:geometricPrecision; text-rendering:geometricPrecision; image-rendering:optimizeQuality; fill-rule:evenodd; clip-rule:evenodd"
viewBox="0 0 4644.37 3278.37"
 xmlns:xlink="http://www.w3.org/1999/xlink"
 xmlns:xodm="http://www.corel.com/coreldraw/odm/2003">
 <defs>
  <style type="text/css">
   <![CDATA[
    .str0 {stroke:white;stroke-width:54.64;stroke-miterlimit:22.9256}
    .fil5 {fill:none}
    .fil0 {fill:#5A69F7}
    .fil1 {fill:#34DAEA;fill-rule:nonzero}
    .fil4 {fill:#5A69F7;fill-rule:nonzero}
    .fil6 {fill:white;fill-rule:nonzero}
    .fil8 {fill:white;fill-opacity:0.039216}
    .fil7 {fill:white;fill-opacity:0.058824}
    .fil3 {fill:url(#id1);fill-rule:nonzero}
    .fil2 {fill:url(#id2);fill-rule:nonzero}
   ]]>
  </style>
   <clipPath id="id0">
    <path d="M244.25 0l4155.88 0c134.34,0 244.25,109.91 244.25,244.25l0 2789.86c0,134.34 -109.91,244.25 -244.25,244.25l-4155.88 0c-134.34,0 -244.25,-109.91 -244.25,-244.25l0 -2789.86c0,-134.34 109.91,-244.25 244.25,-244.25z"/>
   </clipPath>
  <linearGradient id="id1" gradientUnits="userSpaceOnUse" x1="-1068.33" y1="-2186.73" x2="3553.59" y2="-833.98">
   <stop offset="0" style="stop-opacity:1; stop-color:#00D9FF"/>
   <stop offset="0.419608" style="stop-opacity:1; stop-color:#1B75FD"/>
   <stop offset="1" style="stop-opacity:1; stop-color:#B357EF"/>
  </linearGradient>
  <linearGradient id="id2" gradientUnits="userSpaceOnUse" x1="85.57" y1="789.39" x2="4519.6" y2="158.3">
   <stop offset="0" style="stop-opacity:1; stop-color:#00D9FF"/>
   <stop offset="1" style="stop-opacity:1; stop-color:#5A69F7"/>
  </linearGradient>
 </defs>
 <g id="Слой_x0020_1">
  <metadata id="CorelCorpID_0Corel-Layer"/>
  <path class="fil0" d="M244.25 0l4155.88 0c134.34,0 244.25,109.91 244.25,244.25l0 2789.86c0,134.34 -109.91,244.25 -244.25,244.25l-4155.88 0c-134.34,0 -244.25,-109.91 -244.25,-244.25l0 -2789.86c0,-134.34 109.91,-244.25 244.25,-244.25z"/>
  <g style="clip-path:url(#id0)">
   <g id="_827208248">
    <path id="1" class="fil1" d="M4571.11 -4909.36c-16.11,-308.1 1207.59,1891.47 1313,2121.81 406.2,887.58 1133.14,3570.37 1088.48,4190.42l-1937.59 -1255.66c-2309.05,-1444.82 -372.03,-3309.37 -463.9,-5056.57z"/>
    <path class="fil2" d="M4545.41 -43.97l-4426.32 -24.9c-65.47,-0.37 -118.85,52.41 -119.21,117.88l-4.45 791.88c-0.09,15.81 7.57,30.85 20.73,39.59 272.22,180.82 639.29,213.23 966.49,146.75 395.65,-80.39 754.62,-280.43 1123.74,-443.99 369.11,-163.56 774.3,-294.23 1171.83,-223.79 375.12,66.48 693.94,302.19 1032.34,477.18 90.33,46.71 186.41,88.91 285.07,122.4 30.74,10.44 62.76,-12.08 62.95,-44.54l4.72 -839.24c0.37,-65.48 -52.41,-118.86 -117.88,-119.22z"/>
    <path class="fil3" d="M2539.94 -851.71l-2707.38 0c-405.26,0 -733.8,-328.53 -733.8,-733.8 0,-405.27 328.53,-733.83 733.8,-733.83l2707.38 0c405.26,0 733.81,328.56 733.81,733.83 0,405.26 -328.56,733.8 -733.81,733.8z"/>
    <path class="fil4 str0" d="M-27329.08 12191.92c-1259.53,785.08 10786.03,-447.02 11984.87,-665.7 4619.45,-842.65 14686.31,-2481.56 17008.76,-4365.51l-7772.81 -7066.66c-12058.27,-5127.35 -14076.82,7647.88 -21220.82,12097.88z"/>
   </g>
  </g>
  <path class="fil5" d="M244.25 0l4155.88 0c134.34,0 244.25,109.91 244.25,244.25l0 2789.86c0,134.34 -109.91,244.25 -244.25,244.25l-4155.88 0c-134.34,0 -244.25,-109.91 -244.25,-244.25l0 -2789.86c0,-134.34 109.91,-244.25 244.25,-244.25z"/>
  <g id="_827215664">
   <path class="fil6" d="M3215.93 1845.52l-719.21 -655.34c-31.57,-28.76 -79.17,-28.76 -110.73,0l-719.22 655.35c-25.28,23.04 -33.64,58.55 -21.29,90.44 12.36,31.9 42.45,52.51 76.65,52.51l114.87 0 0 656.6c0,26.04 21.11,47.14 47.15,47.14l394.21 0c26.04,0 47.14,-21.1 47.14,-47.14l0 -398.67 231.69 0 0 398.67c0,26.04 21.11,47.14 47.14,47.14l394.2 0c26.04,0 47.15,-21.1 47.15,-47.14l0 -656.6 114.89 0c34.21,0 64.3,-20.62 76.65,-52.51 12.34,-31.9 4,-67.41 -21.3,-90.45z"/>
   <path class="fil6" d="M3080.51 1593.43l0 -283.59c0,-26.04 -21.1,-47.14 -47.14,-47.14l-316.59 0 363.73 330.73z"/>
  </g>
  <g id="_827221928">
   <path class="fil6" d="M1097.45 2033.85c0,96.45 190.77,146.95 379.22,146.95 99.16,0 198.97,-13.99 271.29,-41.3l0 -97.41 -118.35 0c-35.23,0 -66.22,-21.36 -78.95,-54.42 -12.72,-33.04 -4.13,-69.83 21.93,-93.71l0.59 -0.53c-215.58,-19.38 -475.73,27.41 -475.73,140.41z"/>
   <path class="fil6" d="M1747.96 2202.47c-73.41,24.12 -166.97,37.1 -271.29,37.1 -138.45,0 -257.95,-22.85 -336.51,-64.29 -9.04,-4.76 -19.95,-4.39 -28.63,0.89 -8.76,5.31 -14.08,14.87 -14.08,25.14l0 8.87c0,96.47 190.77,146.95 379.22,146.95 99.16,0 198.97,-13.99 271.29,-41.3l0 -113.37z"/>
   <path class="fil6" d="M747.4 2621.65c0,96.46 190.78,146.95 379.21,146.95 188.45,0 379.22,-50.48 379.22,-146.95 0,-192.93 -758.43,-192.93 -758.43,0z"/>
   <path class="fil6" d="M1463.13 2763.09c-78.57,41.43 -198.06,64.28 -336.52,64.28 -138.44,0 -257.95,-22.85 -336.51,-64.28 -9.03,-4.77 -19.95,-4.37 -28.63,0.88 -8.74,5.3 -14.07,14.87 -14.07,25.15l0 8.86c0,96.46 190.78,146.95 379.21,146.95 188.45,0 379.22,-50.49 379.22,-146.95l0 -8.86c0,-10.28 -5.33,-19.85 -14.07,-25.15 -8.71,-5.25 -19.59,-5.65 -28.63,-0.88z"/>
   <path class="fil6" d="M951.6 1945.67c39.39,0 78.79,-2.24 117.1,-6.69 6.24,-0.7 12.08,-3.45 16.67,-7.77 44.18,-41.91 119.67,-72.82 218.3,-89.38 10.42,-1.76 19.11,-9.05 22.68,-19.09 3.01,-8.46 4.47,-16.33 4.47,-24.02 0,-192.94 -758.44,-192.94 -758.44,0 0,96.46 190.78,146.95 379.23,146.95z"/>
   <path class="fil6" d="M951.6 2122.01c24.15,0 47.71,-0.83 70.53,-2.35 9.2,-0.64 17.54,-5.57 22.57,-13.37 4.98,-7.78 6.04,-17.51 2.84,-26.21 -5.67,-15.36 -8.43,-30.48 -8.29,-47.81 0,-8.04 -3.28,-15.74 -9.06,-21.27 -5.75,-5.54 -13.87,-8.9 -21.51,-8.08 -19.06,0.91 -38.12,1.54 -57.08,1.54 -138.45,0 -257.96,-22.85 -336.52,-64.29 -9.04,-4.76 -19.94,-4.38 -28.63,0.89 -8.75,5.31 -14.08,14.88 -14.08,25.15l0 8.87c0,96.47 190.78,146.95 379.23,146.95z"/>
   <path class="fil6" d="M951.6 2298.35c24.15,0 47.71,-0.83 70.53,-2.35 9.2,-0.62 17.54,-5.56 22.57,-13.37 4.98,-7.78 6.04,-17.51 2.84,-26.21 -5.67,-15.36 -8.43,-30.49 -8.43,-47.82 0,-8.03 -3.27,-15.73 -9.06,-21.27 -5.75,-5.54 -13.72,-8.7 -21.5,-8.09 -19,0.92 -38,1.56 -56.94,1.56 -138.45,0 -257.96,-22.85 -336.52,-64.3 -9.04,-4.77 -19.94,-4.39 -28.63,0.89 -8.75,5.31 -14.08,14.87 -14.08,25.15l0 8.87c0,96.45 190.78,146.94 379.23,146.94z"/>
   <path class="fil6" d="M1747.96 2554.98c-45.23,14.71 -98.7,25.41 -158.08,31.45 -15.38,1.58 -26.35,19.66 -25.7,35.22 0,14.89 -2.39,29.13 -7.3,43.45 -3.24,9.5 -1.45,20.03 4.76,27.89 5.58,7.03 13.98,11.08 22.81,11.08 1.03,0 2.08,-0.06 3.14,-0.17 63.82,-6.94 117.87,-18.86 160.36,-34.81l0 -114.12z"/>
   <path class="fil6" d="M1126.62 2415.91l19.35 0.35c0.16,0 0.33,0 0.51,0 13.61,0 25.44,-9.49 28.46,-22.9 3.04,-13.61 -3.79,-27.47 -16.38,-33.24l-6.24 -2.81c-4.16,-1.84 -8.36,-3.68 -12.22,-5.72 -9.09,-4.79 -19.86,-4.36 -28.61,0.94 -8.72,5.32 -14.04,14.85 -14.04,25.12l0 8.87c0,16.24 13.05,29.38 29.16,29.38z"/>
   <path class="fil6" d="M1747.96 2378.81c-73.41,24.13 -166.97,37.1 -271.29,37.1l-19.26 -0.36c-11.76,-1.01 -25.84,9.41 -28.83,22.98 -3.01,13.58 3.83,27.41 16.38,33.15 31.6,14.47 57.42,31.65 76.69,51.09 5.49,5.51 12.9,8.58 20.62,8.58 0.6,0 1.22,-0.03 1.85,-0.05 69.54,-4.45 144.72,-16.89 203.84,-38.98l0 -113.51z"/>
   <path class="fil6" d="M816.34 2465.57c3.64,0 7.29,-0.69 10.74,-2.08 51.39,-20.46 114.06,-34.55 186.3,-41.87 15.39,-1.56 26.38,-21.13 25.72,-36.68 0,-8.04 -3.27,-15.73 -9.06,-21.27 -5.75,-5.54 -13.72,-8.5 -21.5,-8.09 -19,0.92 -38,1.56 -56.94,1.56 -138.45,0 -257.96,-22.85 -336.52,-64.29 -9.04,-4.77 -19.94,-4.4 -28.63,0.89 -8.75,5.31 -14.08,14.87 -14.08,25.14l0 8.87c0,64.95 89.68,116.39 239.92,137.55 1.34,0.19 2.71,0.29 4.05,0.29z"/>
  </g>
  <path class="fil7" d="M4421.21 1421.35c39.94,22.27 67.1,64.97 67.1,113.69l0 1482.67c0,71.55 -58.53,130.08 -130.08,130.08l-2215.12 0c-51.58,0 -96.42,-30.44 -117.4,-74.25 748.85,11.43 2384.52,-147.24 2395.5,-1652.19z"/>
  <path class="fil8" d="M4457.96 1890.93c18.06,10.07 30.35,29.41 30.35,51.42l0 1084.65c0,58.79 -62.86,120.79 -120.79,120.79l-1436.21 0c-23.32,0 -43.61,-13.77 -53.1,-33.58 616.3,-22.57 1489.56,-378.24 1579.75,-1223.28z"/>
 </g>
</svg>
