<?xml version="1.0" encoding="UTF-8"?>
<!DOCTYPE svg PUBLIC "-//W3C//DTD SVG 1.1//EN" "http://www.w3.org/Graphics/SVG/1.1/DTD/svg11.dtd">
<!-- Creator: CorelDRAW 2019 -->
<svg xmlns="http://www.w3.org/2000/svg" xml:space="preserve" width="67.0548mm" height="47.3326mm" version="1.1" style="shape-rendering:geometricPrecision; text-rendering:geometricPrecision; image-rendering:optimizeQuality; fill-rule:evenodd; clip-rule:evenodd"
viewBox="0 0 1642.38 1159.32"
 xmlns:xlink="http://www.w3.org/1999/xlink"
 xmlns:xodm="http://www.corel.com/coreldraw/odm/2003">
 <defs>
  <style type="text/css">
   <![CDATA[
    .str0 {stroke:white;stroke-width:17.28;stroke-miterlimit:22.9256}
    .fil4 {fill:none}
    .fil0 {fill:white}
    .fil1 {fill:#34DAEA;fill-rule:nonzero}
    .fil3 {fill:#5A69F7;fill-rule:nonzero}
    .fil2 {fill:url(#id1);fill-rule:nonzero}
    .fil5 {fill:url(#id2);fill-rule:nonzero}
   ]]>
  </style>
    <clipPath id="id0">
     <path d="M86.37 0l1469.63 0c47.51,0 86.37,38.87 86.37,86.37l0 986.57c0,47.51 -38.87,86.37 -86.37,86.37l-1469.63 0c-47.51,0 -86.37,-38.87 -86.37,-86.37l0 -986.57c0,-47.51 38.87,-86.37 86.37,-86.37z"/>
    </clipPath>
  <linearGradient id="id1" gradientUnits="userSpaceOnUse" x1="-377.79" y1="-773.29" x2="1256.64" y2="-294.92">
   <stop offset="0" style="stop-opacity:1; stop-color:#00D9FF"/>
   <stop offset="0.419608" style="stop-opacity:1; stop-color:#1B75FD"/>
   <stop offset="1" style="stop-opacity:1; stop-color:#B357EF"/>
  </linearGradient>
  <linearGradient id="id2" gradientUnits="userSpaceOnUse" x1="226.91" y1="459.25" x2="1254.49" y2="972.79">
   <stop offset="0" style="stop-opacity:1; stop-color:#00D9FF"/>
   <stop offset="1" style="stop-opacity:1; stop-color:#5A69F7"/>
  </linearGradient>
 </defs>
 <g id="Слой_x0020_1">
  <metadata id="CorelCorpID_0Corel-Layer"/>
  <g id="_996886456">
   <path class="fil0" d="M86.37 0l1469.63 0c47.51,0 86.37,38.87 86.37,86.37l0 986.57c0,47.51 -38.87,86.37 -86.37,86.37l-1469.63 0c-47.51,0 -86.37,-38.87 -86.37,-86.37l0 -986.57c0,-47.51 38.87,-86.37 86.37,-86.37z"/>
   <g style="clip-path:url(#id0)">
    <g>
     <path id="1" class="fil1" d="M1616.47 -1736.08c-5.7,-108.95 427.04,668.87 464.31,750.33 143.64,313.87 400.71,1262.58 384.92,1481.84l-685.18 -444.03c-816.54,-510.93 -131.56,-1170.29 -164.05,-1788.14z"/>
     <path class="fil2" d="M898.19 -301.19l-957.4 0c-143.31,0 -259.49,-116.18 -259.49,-259.49 0,-143.32 116.18,-259.5 259.49,-259.5l957.4 0c143.31,0 259.5,116.19 259.5,259.5 0,143.31 -116.19,259.49 -259.5,259.49z"/>
     <path class="fil3 str0" d="M-9664.3 4311.4c-445.4,277.62 3814.23,-158.08 4238.17,-235.41 1633.56,-297.98 5193.47,-877.54 6014.76,-1543.76l-2748.67 -2498.97c-4264.13,-1813.17 -4977.95,2704.5 -7504.26,4278.14z"/>
    </g>
   </g>
   <path class="fil4" d="M86.37 0l1469.63 0c47.51,0 86.37,38.87 86.37,86.37l0 986.57c0,47.51 -38.87,86.37 -86.37,86.37l-1469.63 0c-47.51,0 -86.37,-38.87 -86.37,-86.37l0 -986.57c0,-47.51 38.87,-86.37 86.37,-86.37z"/>
   <path class="fil5" d="M1300.55 630.33l-301.19 -274.44c-13.22,-12.05 -33.16,-12.05 -46.37,0l-301.2 274.44c-10.59,9.65 -14.09,24.52 -8.91,37.88 5.17,13.36 17.77,21.99 32.1,21.99l48.11 0 0 274.98c0,10.9 8.83,19.74 19.74,19.74l165.09 0c10.9,0 19.75,-8.83 19.75,-19.74l0 -166.96 97.02 0 0 166.96c0,10.9 8.84,19.74 19.74,19.74l165.08 0c10.9,0 19.74,-8.83 19.74,-19.74l0 -274.98 48.12 0c14.32,0 26.93,-8.63 32.1,-21.99 5.17,-13.36 1.68,-28.23 -8.92,-37.88zm-887.18 78.87c0,40.39 79.89,61.54 158.81,61.54 41.53,0 83.33,-5.86 113.61,-17.3l0 -40.79 -49.56 0c-14.75,0 -27.73,-8.94 -33.07,-22.79 -5.32,-13.83 -1.73,-29.24 9.19,-39.24l0.24 -0.23c-90.29,-8.11 -199.23,11.48 -199.23,58.8zm272.42 70.62c-30.74,10.1 -69.92,15.54 -113.61,15.54 -57.98,0 -108.02,-9.57 -140.92,-26.93 -3.79,-2 -8.36,-1.84 -11.99,0.37 -3.67,2.23 -5.9,6.23 -5.9,10.53l0 3.71c0,40.4 79.89,61.55 158.81,61.55 41.53,0 83.33,-5.86 113.61,-17.3l0 -47.48zm-419.02 175.54c0,40.4 79.9,61.54 158.81,61.54 78.92,0 158.81,-21.14 158.81,-61.54 0,-80.79 -317.62,-80.79 -317.62,0zm299.74 59.23c-32.9,17.35 -82.94,26.92 -140.93,26.92 -57.97,0 -108.02,-9.57 -140.92,-26.92 -3.78,-2 -8.36,-1.83 -11.99,0.37 -3.66,2.22 -5.89,6.23 -5.89,10.53l0 3.71c0,40.4 79.9,61.54 158.81,61.54 78.92,0 158.81,-21.14 158.81,-61.54l0 -3.71c0,-4.31 -2.23,-8.31 -5.9,-10.53 -3.64,-2.2 -8.2,-2.37 -11.99,-0.37zm-214.22 -342.32c16.49,0 32.99,-0.94 49.04,-2.8 2.61,-0.3 5.06,-1.44 6.98,-3.26 18.5,-17.55 50.12,-30.49 91.42,-37.43 4.36,-0.73 8,-3.79 9.49,-7.99 1.26,-3.55 1.87,-6.84 1.87,-10.06 0,-80.8 -317.62,-80.8 -317.62,0 0,40.4 79.89,61.54 158.82,61.54zm0 73.84c10.11,0 19.97,-0.35 29.54,-0.98 3.85,-0.27 7.34,-2.33 9.44,-5.6 2.09,-3.26 2.53,-7.34 1.19,-10.98 -2.37,-6.43 -3.53,-12.76 -3.47,-20.02 0,-3.37 -1.37,-6.59 -3.79,-8.91 -2.42,-2.32 -5.81,-3.73 -9.01,-3.38 -7.99,0.38 -15.97,0.64 -23.91,0.64 -57.98,0 -108.03,-9.57 -140.93,-26.93 -3.78,-1.99 -8.35,-1.83 -11.99,0.37 -3.66,2.22 -5.9,6.23 -5.9,10.53l0 3.71c0,40.4 79.89,61.54 158.82,61.54zm0 73.85c10.11,0 19.97,-0.35 29.54,-0.99 3.85,-0.26 7.34,-2.33 9.44,-5.6 2.09,-3.26 2.53,-7.33 1.19,-10.98 -2.37,-6.44 -3.53,-12.77 -3.53,-20.03 0,-3.36 -1.36,-6.59 -3.79,-8.9 -2.41,-2.32 -5.74,-3.64 -9,-3.39 -7.95,0.38 -15.92,0.65 -23.84,0.65 -57.98,0 -108.03,-9.57 -140.93,-26.93 -3.78,-2 -8.35,-1.84 -11.99,0.37 -3.66,2.22 -5.9,6.22 -5.9,10.53l0 3.71c0,40.4 79.89,61.54 158.82,61.54zm333.5 107.47c-18.94,6.16 -41.33,10.64 -66.2,13.17 -6.44,0.66 -11.03,8.23 -10.76,14.75 0,6.24 -1,12.2 -3.06,18.2 -1.36,3.98 -0.6,8.38 1.99,11.68 2.34,2.94 5.86,4.64 9.55,4.64 0.43,0 0.87,-0.02 1.32,-0.07 26.72,-2.91 49.36,-7.9 67.16,-14.58l0 -47.79zm-260.21 -58.24l8.11 0.14c0.07,0 0.14,0 0.21,0 5.7,0 10.66,-3.98 11.92,-9.59 1.28,-5.7 -1.58,-11.5 -6.86,-13.92l-2.61 -1.18c-1.74,-0.77 -3.5,-1.55 -5.12,-2.39 -3.81,-2.01 -8.32,-1.82 -11.98,0.39 -3.65,2.23 -5.88,6.22 -5.88,10.52l0 3.72c0,6.8 5.46,12.3 12.21,12.3zm260.21 -15.54c-30.74,10.11 -69.92,15.54 -113.61,15.54l-8.06 -0.15c-4.93,-0.42 -10.82,3.94 -12.07,9.62 -1.26,5.69 1.6,11.48 6.86,13.88 13.23,6.06 24.04,13.26 32.11,21.4 2.3,2.31 5.4,3.59 8.64,3.59 0.25,0 0.51,-0.01 0.77,-0.02 29.12,-1.86 60.61,-7.07 85.37,-16.32l0 -47.54zm558.05 -328.9l0 -118.76c0,-10.9 -8.84,-19.74 -19.74,-19.74l-132.58 0 152.32 138.5zm-948.19 365.24c1.52,0 3.05,-0.29 4.5,-0.87 21.52,-8.57 47.77,-14.47 78.02,-17.53 6.45,-0.66 11.05,-8.85 10.77,-15.36 0,-3.37 -1.36,-6.59 -3.79,-8.91 -2.41,-2.31 -5.74,-3.56 -9,-3.39 -7.95,0.39 -15.92,0.66 -23.84,0.66 -57.98,0 -108.03,-9.57 -140.93,-26.93 -3.78,-2 -8.35,-1.84 -11.99,0.37 -3.66,2.23 -5.9,6.23 -5.9,10.53l0 3.71c0,27.2 37.55,48.74 100.47,57.6 0.56,0.08 1.13,0.12 1.69,0.12z"/>
  </g>
 </g>
</svg>
