<?xml version="1.0" encoding="UTF-8"?>
<!DOCTYPE svg PUBLIC "-//W3C//DTD SVG 1.1//EN" "http://www.w3.org/Graphics/SVG/1.1/DTD/svg11.dtd">
<!-- Creator: CorelDRAW 2019 -->
<svg xmlns="http://www.w3.org/2000/svg" xml:space="preserve" width="19.034mm" height="12.1777mm" version="1.1" style="shape-rendering:geometricPrecision; text-rendering:geometricPrecision; image-rendering:optimizeQuality; fill-rule:evenodd; clip-rule:evenodd"
viewBox="0 0 194.22 124.26"
 xmlns:xlink="http://www.w3.org/1999/xlink"
 xmlns:xodm="http://www.corel.com/coreldraw/odm/2003">
 <defs>
  <style type="text/css">
   <![CDATA[
    .fil11 {fill:#09CEFE;fill-rule:nonzero}
    .fil3 {fill:#10C6FE;fill-rule:nonzero}
    .fil5 {fill:#19BAFD;fill-rule:nonzero}
    .fil1 {fill:#1DB5FC;fill-rule:nonzero}
    .fil7 {fill:#24ACFC;fill-rule:nonzero}
    .fil2 {fill:#26A9FC;fill-rule:nonzero}
    .fil4 {fill:#329AFB;fill-rule:nonzero}
    .fil8 {fill:#3498FA;fill-rule:nonzero}
    .fil6 {fill:#3795FA;fill-rule:nonzero}
    .fil9 {fill:#3D8DFA;fill-rule:nonzero}
    .fil0 {fill:#4B7CF8;fill-rule:nonzero}
    .fil10 {fill:#5471F8;fill-rule:nonzero}
    .fil13 {fill:url(#id0);fill-rule:nonzero}
    .fil12 {fill:url(#id1);fill-rule:nonzero}
   ]]>
  </style>
  <linearGradient id="id0" gradientUnits="userSpaceOnUse" x1="122.18" y1="24.88" x2="153.84" y2="44.6">
   <stop offset="0" style="stop-opacity:1; stop-color:#3795FA"/>
   <stop offset="1" style="stop-opacity:1; stop-color:#5174F8"/>
  </linearGradient>
  <linearGradient id="id1" gradientUnits="userSpaceOnUse" x1="5.81" y1="18.78" x2="184.27" y2="104.56">
   <stop offset="0" style="stop-opacity:1; stop-color:#00D9FF"/>
   <stop offset="1" style="stop-opacity:1; stop-color:#5A69F7"/>
  </linearGradient>
 </defs>
 <g id="Слой_x0020_1">
  <metadata id="CorelCorpID_0Corel-Layer"/>
  <g id="_828489160">
   <polygon class="fil0" points="156.28,79.53 156.28,74.87 153.57,79.53 "/>
   <polygon class="fil1" points="62.73,74.87 60.04,79.53 62.73,79.53 "/>
   <path class="fil2" d="M80.45 81.53c0.29,-0.36 0.41,-0.82 0.41,-1.38 0,-0.62 -0.16,-1.12 -0.46,-1.45 -0.3,-0.34 -0.69,-0.5 -1.13,-0.5 -0.37,0 -0.69,0.11 -0.96,0.32 -0.43,0.34 -0.64,0.85 -0.64,1.58 0,0.58 0.16,1.06 0.48,1.42 0.3,0.37 0.71,0.57 1.19,0.57 0.48,0 0.85,-0.18 1.11,-0.55z"/>
   <path class="fil3" d="M31.18 107.74c0.41,0 0.78,-0.12 1.12,-0.35 0.35,-0.23 0.53,-0.66 0.53,-1.29l0 -0.69c-0.1,0.07 -0.23,0.15 -0.35,0.18 -0.13,0.06 -0.28,0.09 -0.49,0.13l-0.43 0.08c-0.41,0.07 -0.69,0.16 -0.87,0.25 -0.28,0.18 -0.44,0.44 -0.44,0.8 0,0.32 0.09,0.55 0.27,0.69 0.19,0.14 0.4,0.21 0.67,0.21z"/>
   <path class="fil4" d="M104.74 82.07c0.48,0 0.87,-0.15 1.15,-0.44 0.26,-0.3 0.41,-0.71 0.41,-1.24 0,-0.55 -0.14,-0.97 -0.43,-1.26 -0.29,-0.28 -0.66,-0.42 -1.13,-0.42 -0.48,0 -0.85,0.14 -1.13,0.42 -0.29,0.29 -0.43,0.71 -0.43,1.26 0,0.53 0.14,0.94 0.41,1.24 0.28,0.3 0.67,0.44 1.15,0.44z"/>
   <path class="fil5" d="M51.24 103.08c-0.48,0 -0.85,0.14 -1.11,0.4 -0.27,0.27 -0.43,0.64 -0.5,1.1l3.21 0c-0.03,-0.5 -0.19,-0.87 -0.49,-1.12 -0.3,-0.26 -0.65,-0.39 -1.1,-0.39z"/>
   <path class="fil6" d="M113.23 74.39c-0.35,0 -0.68,0.09 -0.92,0.31 -0.41,0.32 -0.62,0.85 -0.62,1.61 0,0.66 0.12,1.13 0.39,1.46 0.27,0.32 0.67,0.48 1.21,0.48 0.3,0 0.57,-0.09 0.83,-0.25 0.48,-0.32 0.72,-0.85 0.72,-1.61 0,-0.6 -0.14,-1.1 -0.42,-1.45 -0.3,-0.36 -0.7,-0.54 -1.19,-0.54z"/>
   <path class="fil4" d="M104.74 77.07c0.43,0 0.76,-0.12 0.99,-0.37 0.25,-0.25 0.38,-0.59 0.38,-0.98 0,-0.42 -0.13,-0.76 -0.38,-1.01 -0.23,-0.23 -0.56,-0.35 -0.99,-0.35 -0.43,0 -0.76,0.12 -1.01,0.35 -0.25,0.24 -0.36,0.58 -0.36,1.01 0,0.39 0.1,0.73 0.36,0.98 0.25,0.25 0.58,0.37 1.01,0.37z"/>
   <path class="fil7" d="M74.04 105.78c-0.39,0.07 -0.67,0.16 -0.85,0.25 -0.3,0.18 -0.44,0.44 -0.44,0.8 0,0.32 0.09,0.55 0.27,0.69 0.18,0.14 0.41,0.21 0.65,0.21 0.41,0 0.78,-0.12 1.13,-0.35 0.33,-0.23 0.51,-0.66 0.53,-1.29l0 -0.69c-0.12,0.07 -0.23,0.15 -0.35,0.18 -0.12,0.06 -0.3,0.09 -0.51,0.13l-0.43 0.08z"/>
   <path class="fil8" d="M105.36 105.78c-0.4,0.07 -0.69,0.16 -0.87,0.25 -0.28,0.18 -0.44,0.44 -0.44,0.8 0,0.32 0.09,0.55 0.27,0.69 0.18,0.14 0.41,0.21 0.66,0.21 0.4,0 0.79,-0.12 1.13,-0.35 0.35,-0.23 0.53,-0.66 0.53,-1.29l0 -0.69c-0.11,0.07 -0.23,0.15 -0.36,0.18 -0.13,0.06 -0.3,0.09 -0.5,0.13l-0.43 0.08z"/>
   <path class="fil9" d="M123.93 103.48c-0.26,0.27 -0.43,0.64 -0.49,1.1l3.21 0c-0.04,-0.5 -0.19,-0.87 -0.5,-1.12 -0.3,-0.26 -0.67,-0.39 -1.1,-0.39 -0.48,0 -0.85,0.14 -1.12,0.4z"/>
   <path class="fil10" d="M172.88 82.08c0.48,0 0.85,-0.18 1.11,-0.55 0.27,-0.36 0.41,-0.82 0.41,-1.38 0,-0.62 -0.16,-1.12 -0.46,-1.45 -0.32,-0.34 -0.7,-0.5 -1.13,-0.5 -0.37,0 -0.7,0.11 -0.97,0.32 -0.41,0.34 -0.62,0.85 -0.62,1.58 0,0.58 0.16,1.06 0.48,1.42 0.3,0.37 0.71,0.57 1.19,0.57z"/>
   <path class="fil11" d="M18.5 81.07c0.19,0.66 0.62,0.99 1.26,0.99 0.62,0 1.05,-0.34 1.24,-0.99 0.16,-0.57 0.25,-1.4 0.27,-2.39 0.01,-0.16 0.03,-0.31 0.03,-0.46 0,-1.31 -0.1,-2.29 -0.3,-2.91 -0.19,-0.62 -0.6,-0.94 -1.24,-0.94 -0.63,0 -1.04,0.32 -1.26,0.94 -0.22,0.64 -0.3,1.6 -0.3,2.91 0,0.64 0.02,1.19 0.07,1.68 0.05,0.46 0.13,0.85 0.23,1.17z"/>
   <path class="fil12" d="M7.58 122.99c1.68,0.8 3.54,1.27 5.53,1.27l167.99 0c3.54,0 6.75,-1.43 9.11,-3.76 2.46,-2.41 4.02,-5.77 4.02,-9.51l0 -97.71c0,-3.74 -1.56,-7.13 -4.02,-9.53 -2.36,-2.32 -5.56,-3.76 -9.11,-3.76l-167.99 0c-7.23,0 -13.11,5.95 -13.11,13.29l0 97.71c0,5.3 3.12,9.86 7.58,11.99zm8.43 -44.77c0,-1.79 0.27,-3.17 0.82,-4.15 0.57,-0.97 1.52,-1.45 2.91,-1.45 1.38,0 2.36,0.5 2.9,1.45 0.5,0.88 0.74,2.16 0.8,3.72 0,0.15 0.04,0.27 0.04,0.43 0,1.79 -0.29,3.15 -0.83,4.13 -0.55,0.96 -1.53,1.44 -2.9,1.44 -1.38,0 -2.34,-0.48 -2.91,-1.44 -0.25,-0.44 -0.43,-1.01 -0.57,-1.63 -0.16,-0.72 -0.25,-1.54 -0.25,-2.5zm101.5 -43.37c0,-9.89 8.04,-17.92 17.91,-17.92 3.9,0 7.48,1.3 10.42,3.4 3.05,-2.45 6.88,-3.97 11.08,-3.97 3.61,0 6.96,1.1 9.78,2.94 2.31,1.52 4.2,3.61 5.6,6 1.52,2.64 2.46,5.65 2.46,8.89 0,9.85 -8,17.84 -17.84,17.84 -3.85,0 -7.41,-1.24 -10.31,-3.33 -3.08,2.48 -6.93,4.02 -11.18,4.02 -5.77,0 -10.88,-2.8 -14.16,-7.05 -1.47,-1.91 -2.57,-4.13 -3.17,-6.53 -0.34,-1.38 -0.58,-2.82 -0.58,-4.3zm-3.37 68.84c-0.16,-0.35 -0.46,-0.53 -0.92,-0.53 -0.55,0 -0.9,0.18 -1.08,0.53 -0.11,0.2 -0.15,0.48 -0.15,0.87l0 4.3 -1.9 0 0 -7.12 1.81 0 0 1.03c0.23,-0.37 0.44,-0.62 0.65,-0.78 0.35,-0.28 0.83,-0.42 1.4,-0.42 0.55,0 0.99,0.12 1.33,0.36 0.26,0.23 0.48,0.51 0.62,0.87 0.24,-0.43 0.55,-0.73 0.9,-0.92 0.39,-0.21 0.82,-0.3 1.29,-0.3 0.3,0 0.62,0.05 0.92,0.18 0.3,0.12 0.58,0.34 0.83,0.64 0.19,0.27 0.33,0.57 0.41,0.92 0.03,0.25 0.07,0.6 0.07,1.07l-0.02 4.5 -1.91 0 0 -4.55c0,-0.27 -0.05,-0.49 -0.14,-0.66 -0.16,-0.34 -0.46,-0.51 -0.9,-0.51 -0.51,0 -0.87,0.23 -1.08,0.66 -0.09,0.21 -0.15,0.49 -0.15,0.81l0 4.25 -1.88 0 0 -4.25c0,-0.42 -0.03,-0.73 -0.12,-0.92zm0.14 -24.07c-0.41,0.23 -0.88,0.35 -1.47,0.35 -0.85,0 -1.63,-0.31 -2.29,-0.9 -0.67,-0.58 -1.01,-1.46 -1.01,-2.57 0,-1.15 0.34,-2.09 1.01,-2.82 0.68,-0.71 1.54,-1.08 2.6,-1.08 1.65,0 2.78,0.72 3.38,2.19 0.36,0.82 0.53,1.91 0.53,3.26 0,1.31 -0.18,2.39 -0.5,3.28 -0.63,1.67 -1.8,2.49 -3.5,2.49 -0.82,0 -1.54,-0.24 -2.2,-0.73 -0.63,-0.48 -1.01,-1.19 -1.12,-2.09l2.13 0c0.06,0.32 0.18,0.57 0.41,0.76 0.22,0.21 0.49,0.3 0.87,0.3 0.69,0 1.19,-0.39 1.47,-1.17 0.16,-0.42 0.24,-1.05 0.3,-1.86 -0.19,0.24 -0.41,0.42 -0.62,0.57zm-12.72 -2.99c-0.16,-0.41 -0.25,-0.78 -0.25,-1.13 0,-0.8 0.3,-1.46 0.9,-2.02 0.59,-0.55 1.43,-0.83 2.52,-0.83 1.08,0 1.91,0.28 2.5,0.83 0.6,0.57 0.9,1.23 0.9,2.02 0,0.35 -0.09,0.73 -0.25,1.13 -0.14,0.4 -0.49,0.76 -1.01,1.06 0.53,0.3 0.94,0.69 1.21,1.19 0.27,0.49 0.41,1.04 0.41,1.65 0,0.9 -0.33,1.68 -1.01,2.32 -0.67,0.63 -1.63,0.96 -2.83,0.96 -1.2,0 -2.13,-0.32 -2.74,-0.96 -0.62,-0.64 -0.94,-1.42 -0.94,-2.32 0,-0.6 0.14,-1.15 0.41,-1.65 0.28,-0.5 0.67,-0.87 1.2,-1.12 -0.51,-0.36 -0.85,-0.73 -1.01,-1.13zm4.76 26.59c-0.19,-0.11 -0.49,-0.16 -0.9,-0.16 -0.44,0 -0.76,0.1 -0.94,0.32 -0.14,0.16 -0.23,0.39 -0.27,0.65l-1.81 0c0.03,-0.62 0.21,-1.13 0.53,-1.54 0.48,-0.62 1.35,-0.94 2.55,-0.94 0.78,0 1.47,0.16 2.09,0.46 0.6,0.32 0.9,0.9 0.9,1.75l0 3.28c0,0.23 0.02,0.51 0.02,0.83 0.02,0.25 0.05,0.41 0.12,0.5 0.05,0.09 0.14,0.16 0.27,0.21l0 0.29 -2.04 0c-0.05,-0.14 -0.09,-0.29 -0.1,-0.41 -0.02,-0.12 -0.04,-0.27 -0.05,-0.43 -0.26,0.27 -0.57,0.52 -0.9,0.71 -0.39,0.23 -0.85,0.36 -1.37,0.36 -0.65,0 -1.18,-0.19 -1.61,-0.55 -0.43,-0.37 -0.64,-0.91 -0.64,-1.58 0,-0.87 0.34,-1.51 1.03,-1.9 0.37,-0.21 0.92,-0.37 1.65,-0.46l0.64 -0.09c0.35,-0.04 0.6,-0.09 0.74,-0.16 0.28,-0.11 0.41,-0.29 0.41,-0.53 0,-0.3 -0.11,-0.52 -0.32,-0.62zm-7.46 0.44c-0.18,-0.37 -0.53,-0.55 -1.05,-0.55 -0.62,0 -1.04,0.27 -1.29,0.8 -0.11,0.29 -0.18,0.66 -0.18,1.1l0 3.86 -1.86 0 0 -7.12 1.81 0 0 1.03c0.23,-0.36 0.46,-0.62 0.67,-0.78 0.37,-0.3 0.87,-0.44 1.45,-0.44 0.74,0 1.33,0.19 1.81,0.58 0.46,0.39 0.69,1.03 0.69,1.93l0 4.8 -1.91 0 0 -4.34c0,-0.37 -0.04,-0.68 -0.14,-0.87zm-10.36 3.77c0.07,0.07 0.3,0.11 0.67,0.11 0.06,0 0.12,0 0.18,0 0.07,0 0.14,0 0.19,0l0 1.38 -0.88 0.03c-0.89,0.04 -1.49,-0.12 -1.81,-0.46 -0.21,-0.21 -0.32,-0.53 -0.32,-0.99l0 -4.39 -0.99 0 0 -1.33 0.99 0 0 -1.98 1.86 0 0 1.98 1.15 0 0 1.33 -1.15 0 0 3.77c-0.02,0.31 0.02,0.48 0.11,0.55zm0.35 -28.77c-0.31,0.67 -0.57,1.51 -0.82,2.48 -0.25,0.96 -0.37,1.75 -0.37,2.37l-2.21 0c0.07,-1.93 0.71,-3.95 1.91,-6.04 0.78,-1.31 1.43,-2.21 1.96,-2.73l-5.38 0 0.02 -1.91 7.65 0 0 1.66c-0.32,0.32 -0.76,0.88 -1.33,1.68 -0.57,0.8 -1.04,1.63 -1.43,2.48zm-30.42 2.53l0 -1.86 3.99 -6.57 2.39 0 0 6.77 1.22 0 0 1.66 -1.22 0 0 2.32 -2.09 0 0 -2.32 -4.29 0zm4.87 18.02l2.02 0 0 7.92 4.82 0 0 1.74 -6.84 0 0 -9.66zm4.75 -16.23c-0.68,-0.57 -1.05,-1.35 -1.12,-2.36l2.12 0c0.09,0.46 0.25,0.82 0.48,1.07 0.25,0.24 0.59,0.39 1.04,0.39 0.54,0 0.92,-0.19 1.21,-0.57 0.29,-0.37 0.41,-0.83 0.41,-1.4 0,-0.55 -0.12,-1.01 -0.39,-1.4 -0.25,-0.37 -0.66,-0.57 -1.21,-0.57 -0.24,0 -0.48,0.04 -0.67,0.11 -0.33,0.1 -0.58,0.34 -0.74,0.65l-1.91 -0.09 0.76 -5.99 5.95 0 0 1.81 -4.43 0 -0.37 2.37c0.32,-0.21 0.59,-0.36 0.76,-0.42 0.3,-0.13 0.67,-0.18 1.11,-0.18 0.9,0 1.68,0.3 2.36,0.9 0.66,0.61 0.99,1.49 0.99,2.64 0,0.99 -0.32,1.88 -0.96,2.68 -0.65,0.78 -1.61,1.17 -2.89,1.17 -1.01,0 -1.86,-0.27 -2.51,-0.82zm6.96 20.23c-0.21,-0.11 -0.51,-0.16 -0.9,-0.16 -0.44,0 -0.76,0.1 -0.96,0.32 -0.12,0.16 -0.21,0.39 -0.27,0.65l-1.79 0c0.04,-0.62 0.21,-1.13 0.51,-1.54 0.49,-0.62 1.35,-0.94 2.55,-0.94 0.8,0 1.49,0.16 2.11,0.46 0.6,0.32 0.91,0.9 0.91,1.75l0 3.28c0,0.23 0,0.51 0.01,0.83 0.02,0.25 0.06,0.41 0.11,0.5 0.07,0.09 0.16,0.16 0.28,0.21l0 0.29 -2.03 0c-0.06,-0.14 -0.09,-0.29 -0.11,-0.41 -0.04,-0.12 -0.05,-0.27 -0.05,-0.43 -0.27,0.27 -0.57,0.52 -0.9,0.71 -0.41,0.23 -0.85,0.36 -1.37,0.36 -0.66,0 -1.19,-0.19 -1.61,-0.55 -0.42,-0.37 -0.64,-0.91 -0.64,-1.58 0,-0.87 0.34,-1.51 1.03,-1.9 0.37,-0.21 0.92,-0.37 1.65,-0.46l0.63 -0.09c0.36,-0.04 0.61,-0.09 0.74,-0.16 0.27,-0.13 0.39,-0.3 0.39,-0.53 0,-0.3 -0.09,-0.52 -0.3,-0.62zm1.26 -21.12c-0.49,-0.91 -0.74,-2.04 -0.74,-3.46 0,-0.83 0.04,-1.5 0.09,-2.02 0.12,-0.93 0.37,-1.69 0.73,-2.3 0.32,-0.52 0.73,-0.94 1.22,-1.26 0.5,-0.32 1.1,-0.48 1.79,-0.48 1.01,0 1.81,0.26 2.41,0.78 0.6,0.51 0.94,1.18 1.01,2.05l-2.13 0c0,-0.18 -0.06,-0.37 -0.19,-0.58 -0.23,-0.34 -0.59,-0.49 -1.04,-0.49 -0.69,0 -1.19,0.39 -1.47,1.15 -0.16,0.44 -0.27,1.06 -0.34,1.91 0.27,-0.32 0.57,-0.55 0.92,-0.69 0.36,-0.14 0.74,-0.21 1.19,-0.21 0.97,0 1.75,0.32 2.38,0.97 0.6,0.66 0.92,1.49 0.92,2.5 0,1.01 -0.31,1.9 -0.91,2.68 -0.6,0.78 -1.54,1.15 -2.82,1.15 -1.34,0 -2.35,-0.57 -3.01,-1.7zm6.47 24.43c-0.16,-0.1 -0.82,-0.3 -1.95,-0.57 -0.81,-0.19 -1.38,-0.44 -1.71,-0.74 -0.32,-0.3 -0.5,-0.72 -0.5,-1.29 0,-0.66 0.27,-1.22 0.78,-1.7 0.51,-0.46 1.26,-0.71 2.19,-0.71 0.89,0 1.61,0.18 2.18,0.53 0.57,0.36 0.89,0.97 0.96,1.84l-1.86 0c-0.02,-0.23 -0.09,-0.43 -0.19,-0.57 -0.21,-0.24 -0.57,-0.37 -1.05,-0.37 -0.41,0 -0.71,0.05 -0.89,0.18 -0.16,0.14 -0.25,0.29 -0.25,0.46 0,0.22 0.09,0.37 0.27,0.46 0.19,0.11 0.83,0.27 1.94,0.52 0.75,0.18 1.32,0.44 1.69,0.79 0.36,0.36 0.55,0.8 0.55,1.35 0,0.69 -0.27,1.28 -0.8,1.72 -0.53,0.44 -1.35,0.68 -2.45,0.68 -1.11,0 -1.95,-0.23 -2.48,-0.71 -0.55,-0.48 -0.82,-1.08 -0.82,-1.81l1.89 0c0.04,0.32 0.13,0.57 0.27,0.71 0.23,0.25 0.65,0.37 1.28,0.37 0.37,0 0.67,-0.05 0.88,-0.16 0.21,-0.12 0.32,-0.28 0.32,-0.49 0,-0.21 -0.09,-0.37 -0.27,-0.48zm-32.44 0.8c0.28,0.18 0.63,0.27 1.02,0.27 0.43,0 0.78,-0.11 1.05,-0.32 0.14,-0.12 0.26,-0.28 0.39,-0.49l1.89 0c-0.05,0.43 -0.29,0.85 -0.69,1.29 -0.63,0.69 -1.54,1.05 -2.69,1.05 -0.94,0 -1.79,-0.3 -2.5,-0.89 -0.73,-0.59 -1.1,-1.54 -1.1,-2.85 0,-1.24 0.33,-2.2 0.99,-2.85 0.66,-0.65 1.51,-0.99 2.55,-0.99 0.62,0 1.19,0.1 1.68,0.33 0.49,0.21 0.9,0.57 1.22,1.06 0.3,0.43 0.48,0.91 0.56,1.47 0.05,0.34 0.07,0.79 0.07,1.42l-5.21 0c0.04,0.71 0.28,1.22 0.74,1.51zm-1.72 -31.73c0,0.64 -0.19,1.19 -0.57,1.61 -0.25,0.28 -0.5,0.46 -0.74,0.57 0.19,0 0.46,0.16 0.83,0.5 0.55,0.51 0.82,1.19 0.82,2.05 0,0.92 -0.32,1.74 -0.96,2.43 -0.64,0.69 -1.58,1.05 -2.82,1.05 -1.52,0 -2.58,-0.52 -3.19,-1.51 -0.32,-0.53 -0.49,-1.24 -0.53,-2.09l2.09 0c0,0.42 0.07,0.79 0.21,1.08 0.26,0.51 0.73,0.78 1.42,0.78 0.41,0 0.78,-0.15 1.08,-0.43 0.32,-0.3 0.46,-0.71 0.46,-1.24 0,-0.71 -0.29,-1.19 -0.85,-1.44 -0.34,-0.12 -0.85,-0.19 -1.56,-0.19l0 -1.53c0.69,-0.02 1.17,-0.08 1.45,-0.21 0.32,-0.14 0.48,-0.4 0.59,-0.76 0.06,-0.16 0.12,-0.3 0.12,-0.49 0,-0.43 -0.12,-0.76 -0.37,-1.01 -0.23,-0.26 -0.57,-0.39 -1.01,-0.39 -0.5,0 -0.87,0.16 -1.1,0.48 -0.24,0.32 -0.35,0.74 -0.33,1.28l-2 0c0.03,-0.53 0.12,-1.04 0.28,-1.54 0.17,-0.41 0.44,-0.79 0.82,-1.17 0.28,-0.24 0.62,-0.44 0.99,-0.58 0.39,-0.13 0.85,-0.2 1.42,-0.2 1.03,0 1.86,0.26 2.5,0.79 0.58,0.5 0.85,1.15 0.9,1.93 0.02,0.09 0.05,0.16 0.05,0.23zm-4.11 28.06c-0.18,-0.34 -0.48,-0.51 -0.92,-0.51 -0.51,0 -0.87,0.23 -1.06,0.66 -0.11,0.21 -0.16,0.49 -0.16,0.81l0 4.25 -1.88 0 0 -4.25c0,-0.42 -0.05,-0.74 -0.12,-0.92 -0.16,-0.35 -0.48,-0.53 -0.94,-0.53 -0.53,0 -0.89,0.18 -1.06,0.53 -0.1,0.2 -0.16,0.48 -0.16,0.87l0 4.3 -1.89 0 0 -7.12 1.82 0 0 1.03c0.23,-0.37 0.44,-0.62 0.66,-0.78 0.36,-0.28 0.83,-0.42 1.4,-0.42 0.55,0 0.99,0.12 1.33,0.36 0.27,0.23 0.48,0.51 0.6,0.87 0.25,-0.43 0.55,-0.73 0.92,-0.92 0.39,-0.21 0.82,-0.3 1.28,-0.3 0.32,0 0.63,0.05 0.94,0.18 0.3,0.12 0.58,0.34 0.83,0.64 0.19,0.27 0.34,0.57 0.41,0.92 0.04,0.25 0.05,0.6 0.05,1.07l0 4.5 -1.91 0 0 -4.55c0,-0.27 -0.04,-0.49 -0.12,-0.66zm86.92 -28.75c-0.27,-0.32 -0.62,-0.46 -1.1,-0.46 -0.64,0 -1.08,0.25 -1.31,0.73 -0.14,0.29 -0.21,0.73 -0.24,1.33l-2.07 0c0.03,-0.92 0.21,-1.67 0.51,-2.23 0.57,-1.08 1.58,-1.63 3.01,-1.63 1.15,0 2.07,0.32 2.74,0.96 0.67,0.64 1.01,1.47 1.01,2.51 0,0.82 -0.23,1.53 -0.71,2.15 -0.32,0.41 -0.83,0.87 -1.56,1.38l-0.85 0.6c-0.53,0.37 -0.91,0.66 -1.1,0.82 -0.2,0.18 -0.36,0.37 -0.49,0.6l4.73 0 0 1.88 -7.42 0c0.02,-0.78 0.19,-1.49 0.52,-2.15 0.3,-0.71 1.01,-1.47 2.14,-2.29 0.98,-0.69 1.62,-1.2 1.92,-1.51 0.44,-0.48 0.66,-0.99 0.66,-1.56 0,-0.46 -0.13,-0.83 -0.37,-1.13zm-4.69 26.96c0.49,0.21 0.92,0.57 1.24,1.06 0.3,0.43 0.48,0.91 0.57,1.47 0.06,0.34 0.07,0.79 0.07,1.42l-5.21 0c0.04,0.71 0.29,1.22 0.74,1.51 0.28,0.18 0.64,0.27 1.03,0.27 0.43,0 0.78,-0.11 1.04,-0.32 0.14,-0.12 0.27,-0.28 0.39,-0.49l1.9 0c-0.06,0.43 -0.28,0.85 -0.69,1.29 -0.64,0.69 -1.54,1.05 -2.68,1.05 -0.96,0 -1.79,-0.3 -2.52,-0.89 -0.72,-0.59 -1.1,-1.54 -1.1,-2.85 0,-1.24 0.34,-2.2 0.99,-2.85 0.65,-0.65 1.51,-0.99 2.55,-0.99 0.62,0 1.17,0.1 1.67,0.33zm-3.35 -18.35l-2.18 0 0 -7.46 -2.55 0 0 -1.46c0.68,-0.02 1.15,-0.07 1.42,-0.12 0.42,-0.11 0.78,-0.28 1.04,-0.57 0.18,-0.2 0.32,-0.46 0.41,-0.78 0.06,-0.19 0.09,-0.34 0.09,-0.43l1.77 0 0 10.81zm24.52 -4.55c-0.32,-0.12 -0.83,-0.19 -1.54,-0.19l0 -1.53c0.69,-0.02 1.17,-0.08 1.45,-0.21 0.46,-0.21 0.69,-0.62 0.69,-1.26 0,-0.43 -0.11,-0.76 -0.35,-1.01 -0.25,-0.26 -0.59,-0.39 -1.01,-0.39 -0.5,0 -0.87,0.16 -1.12,0.48 -0.23,0.32 -0.33,0.74 -0.33,1.28l-1.98 0c0.02,-0.53 0.12,-1.04 0.28,-1.54 0.18,-0.41 0.44,-0.79 0.82,-1.17 0.28,-0.24 0.62,-0.44 0.99,-0.58 0.39,-0.13 0.85,-0.2 1.42,-0.2 1.03,0 1.86,0.26 2.5,0.79 0.64,0.54 0.96,1.26 0.96,2.16 0,0.64 -0.19,1.17 -0.57,1.61 -0.25,0.28 -0.5,0.46 -0.74,0.55 0.19,0 0.46,0.18 0.83,0.51 0.55,0.49 0.82,1.19 0.82,2.05 0,0.92 -0.32,1.72 -0.96,2.41 -0.64,0.71 -1.58,1.05 -2.82,1.05 -1.52,0 -2.59,-0.5 -3.19,-1.51 -0.32,-0.54 -0.49,-1.23 -0.53,-2.09l2.09 0c0,0.44 0.07,0.79 0.21,1.08 0.26,0.53 0.73,0.78 1.42,0.78 0.41,0 0.78,-0.14 1.08,-0.43 0.32,-0.28 0.46,-0.69 0.46,-1.24 0,-0.69 -0.28,-1.17 -0.87,-1.42zm11.72 0.57l0 1.66 -1.24 0 0 2.32 -2.07 0 0 -2.32 -4.28 0 0 -1.86 3.99 -6.57 2.39 0 0 6.77 1.23 0zm5.77 -0.82c-0.25,-0.37 -0.66,-0.57 -1.21,-0.57 -0.24,0 -0.48,0.04 -0.67,0.11 -0.33,0.1 -0.58,0.34 -0.74,0.65l-1.91 -0.09 0.76 -5.99 5.95 0 0 1.81 -4.43 0 -0.39 2.37c0.34,-0.21 0.58,-0.36 0.78,-0.42 0.3,-0.13 0.67,-0.18 1.12,-0.18 0.9,0 1.68,0.3 2.34,0.9 0.67,0.61 1.01,1.49 1.01,2.64 0,0.99 -0.32,1.88 -0.96,2.68 -0.65,0.78 -1.61,1.17 -2.88,1.17 -1.03,0 -1.88,-0.27 -2.54,-0.82 -0.67,-0.55 -1.03,-1.35 -1.1,-2.36l2.11 0c0.09,0.46 0.24,0.82 0.48,1.07 0.25,0.26 0.6,0.39 1.05,0.39 0.53,0 0.94,-0.19 1.2,-0.57 0.29,-0.36 0.41,-0.83 0.41,-1.4 0.02,-0.55 -0.1,-1.01 -0.37,-1.4zm10.97 -3.29l-2.13 0c0,-0.18 -0.07,-0.37 -0.19,-0.57 -0.23,-0.33 -0.59,-0.51 -1.04,-0.51 -0.69,0 -1.19,0.39 -1.47,1.17 -0.16,0.43 -0.26,1.07 -0.34,1.89 0.27,-0.32 0.57,-0.55 0.92,-0.69 0.36,-0.14 0.74,-0.21 1.19,-0.21 0.96,0 1.75,0.32 2.38,0.97 0.6,0.66 0.92,1.49 0.92,2.5 0,1.02 -0.31,1.91 -0.91,2.68 -0.6,0.78 -1.54,1.17 -2.82,1.17 -1.36,0 -2.37,-0.57 -3.01,-1.72 -0.51,-0.89 -0.76,-2.04 -0.76,-3.46 0,-0.82 0.04,-1.49 0.11,-2 0.12,-0.92 0.37,-1.7 0.72,-2.3 0.32,-0.53 0.73,-0.96 1.22,-1.28 0.5,-0.32 1.1,-0.48 1.79,-0.48 1.01,0 1.81,0.26 2.41,0.78 0.6,0.51 0.92,1.2 1.01,2.05zm-139.66 -2.78c1.13,0 2.05,0.32 2.73,0.96 0.67,0.64 1.01,1.47 1.01,2.51 0,0.82 -0.23,1.53 -0.71,2.15 -0.3,0.41 -0.82,0.85 -1.52,1.37 -0.02,0 -0.02,0 -0.03,0.02l-0.85 0.6c-0.54,0.37 -0.89,0.66 -1.1,0.82 -0.19,0.18 -0.35,0.37 -0.49,0.6l4.73 0 0 1.86 -7.41 0c0.02,-0.71 0.18,-1.38 0.44,-1.98 0.02,-0.04 0.04,-0.09 0.05,-0.14 0.3,-0.71 1.01,-1.49 2.14,-2.29 0.98,-0.71 1.62,-1.2 1.92,-1.51 0.44,-0.48 0.66,-0.99 0.66,-1.56 0,-0.46 -0.13,-0.83 -0.37,-1.15 -0.27,-0.31 -0.62,-0.44 -1.1,-0.44 -0.63,0 -1.08,0.23 -1.31,0.73 -0.14,0.27 -0.21,0.71 -0.25,1.33l-2.07 0c0.03,-0.92 0.21,-1.67 0.51,-2.23 0.25,-0.48 0.62,-0.8 1.03,-1.06 0.2,-0.13 0.42,-0.2 0.65,-0.27 0.41,-0.14 0.82,-0.3 1.35,-0.3zm-15.5 36.23l-1.88 0 0 -9.66 2.13 0 3.82 6.73 0 -6.73 1.88 0 0 9.66 -2.02 0 -3.93 -6.86 0 6.86zm6.47 -25.35l0 -7.46 -2.53 0 0 -1.46c0.66,-0.02 1.13,-0.07 1.4,-0.12 0.43,-0.11 0.78,-0.28 1.04,-0.57 0.18,-0.2 0.32,-0.46 0.41,-0.78 0.06,-0.19 0.09,-0.34 0.09,-0.43l1.77 0 0 10.83 -2.18 0 0 -0.02zm-6.98 -33.82l0 -6.89 6.91 0 0 7.05 -6.91 0c0,-0.07 0,-0.1 0,-0.16zm6.91 9.21c-2.76,-0.83 -5.01,-2.82 -6.15,-5.44l6.15 0 0 5.44zm3.63 -5.44l5.97 0 0 5.88 -5.97 0 0 -5.88zm9.6 0l6.13 0c-1.12,2.62 -3.37,4.61 -6.13,5.44l0 -5.44zm6.91 -3.77c0,0.06 0,0.09 0,0.16l-6.91 0 0 -7.05 6.92 0 0 6.89 -0.01 0zm-8.72 -10.52l-1.83 0 0 10.68 -5.97 0 0 -17.57 6.88 0c4.35,0 8.01,2.92 9.19,6.89l-8.27 0zm-11.43 0l-6.47 0c0.94,-3.1 3.37,-5.53 6.47,-6.45l0 6.45zm1.84 65.89c0.37,-0.21 0.92,-0.37 1.65,-0.46l0.63 -0.07c0.35,-0.05 0.6,-0.11 0.74,-0.18 0.27,-0.11 0.41,-0.29 0.41,-0.51 0,-0.3 -0.1,-0.5 -0.32,-0.62 -0.19,-0.11 -0.5,-0.16 -0.9,-0.16 -0.44,0 -0.76,0.1 -0.94,0.32 -0.15,0.16 -0.23,0.39 -0.27,0.65l-1.81 0c0.03,-0.62 0.21,-1.13 0.53,-1.54 0.49,-0.62 1.35,-0.94 2.55,-0.94 0.78,0 1.47,0.16 2.09,0.46 0.6,0.32 0.92,0.9 0.92,1.75l0 3.28c0,0.23 0,0.51 0,0.83 0.02,0.25 0.06,0.41 0.13,0.5 0.05,0.09 0.14,0.16 0.26,0.21l0 0.29 -2.02 0c-0.07,-0.14 -0.1,-0.29 -0.12,-0.41 -0.02,-0.12 -0.04,-0.27 -0.05,-0.43 -0.25,0.27 -0.55,0.52 -0.88,0.71 -0.41,0.23 -0.87,0.36 -1.38,0.36 -0.66,0 -1.19,-0.19 -1.61,-0.55 -0.42,-0.37 -0.64,-0.91 -0.64,-1.58 0,-0.88 0.34,-1.52 1.03,-1.91z"/>
   <path class="fil13" d="M124.78 44.26c2.62,2.96 6.39,4.87 10.64,4.87 3.05,0 5.85,-0.98 8.17,-2.6l5.99 0c0.06,-0.04 0.09,-0.09 0.13,-0.13 0.98,-0.78 1.86,-1.65 2.62,-2.64l-10.43 0c-0.43,-0.67 -0.82,-1.38 -1.15,-2.12l12.97 0c0.46,-0.87 0.83,-1.79 1.13,-2.75l-15.06 0c-0.07,-0.23 -0.16,-0.44 -0.21,-0.65 -0.12,-0.57 -0.18,-1.15 -0.24,-1.74l16.07 0c0.08,-0.71 0.21,-1.42 0.21,-2.16 0,-0.19 -0.06,-0.39 -0.06,-0.58l-16.42 0c0.02,-0.79 0.1,-1.56 0.23,-2.32l15.94 0c-0.18,-0.96 -0.46,-1.86 -0.82,-2.75l-14.44 0c0.27,-0.83 0.59,-1.61 0.98,-2.39l12.26 0c-0.25,-0.41 -0.58,-0.76 -0.87,-1.15 -0.39,-0.53 -0.74,-1.12 -1.22,-1.6l-8.47 0c0.16,-0.23 0.33,-0.42 0.51,-0.63 -2.25,-1.47 -4.92,-2.34 -7.82,-2.34 -7.86,0 -14.28,6.39 -14.28,14.28 0,1.01 0.12,1.98 0.32,2.92 0.52,2.48 1.7,4.68 3.32,6.49z"/>
  </g>
 </g>
</svg>
