<?xml version="1.0" encoding="UTF-8"?>
<!DOCTYPE svg PUBLIC "-//W3C//DTD SVG 1.1//EN" "http://www.w3.org/Graphics/SVG/1.1/DTD/svg11.dtd">
<!-- Creator: CorelDRAW 2019 -->
<svg xmlns="http://www.w3.org/2000/svg" xml:space="preserve" width="19.6976mm" height="11.1076mm" version="1.1" style="shape-rendering:geometricPrecision; text-rendering:geometricPrecision; image-rendering:optimizeQuality; fill-rule:evenodd; clip-rule:evenodd"
viewBox="0 0 207.27 116.88"
 xmlns:xlink="http://www.w3.org/1999/xlink"
 xmlns:xodm="http://www.corel.com/coreldraw/odm/2003">
 <defs>
  <style type="text/css">
   <![CDATA[
    .fil0 {fill:url(#id0);fill-rule:nonzero}
   ]]>
  </style>
  <linearGradient id="id0" gradientUnits="userSpaceOnUse" x1="6.2" y1="17.37" x2="196.64" y2="96.72">
   <stop offset="0" style="stop-opacity:1; stop-color:#00D9FF"/>
   <stop offset="1" style="stop-opacity:1; stop-color:#5A69F7"/>
  </linearGradient>
 </defs>
 <g id="Слой_x0020_1">
  <metadata id="CorelCorpID_0Corel-Layer"/>
  <path class="fil0" d="M149.8 0c-31.74,0 -57.47,25.73 -57.47,57.47 0,31.74 25.73,57.47 57.47,57.47 31.74,0 57.47,-25.73 57.47,-57.47 0,-31.74 -25.73,-57.47 -57.47,-57.47zm0 104.84c-26.12,0 -47.37,-21.25 -47.37,-47.37 0,-26.12 21.25,-47.37 47.37,-47.37 26.12,0 47.37,21.25 47.37,47.37 0,26.12 -21.25,47.37 -47.37,47.37zm0 -88c-22.41,0 -40.63,18.23 -40.63,40.63 0,22.41 18.23,40.63 40.63,40.63 22.4,0 40.63,-18.23 40.63,-40.63 0,-22.4 -18.23,-40.63 -40.63,-40.63zm3.37 42.03l-22.58 22.57 -4.76 -4.76 20.6 -20.6 0 -29.13 6.74 0 0 31.92zm-114 -9.56c0,7.15 14.23,10.9 28.29,10.9 6.52,0 13.08,-0.81 18.23,-2.38 0.14,-5.5 1.08,-10.87 2.78,-15.98 -15.28,-6.12 -49.3,-3.63 -49.3,7.47zm46.6 13.09c-5.15,1.42 -11.41,2.17 -18.31,2.17 -10.33,0 -19.24,-1.7 -25.1,-4.77 -0.67,-0.35 -1.49,-0.33 -2.14,0.07 -0.65,0.39 -1.05,1.1 -1.05,1.86l0 0.66c0,7.15 14.23,10.9 28.29,10.9 7.01,0 14.07,-0.93 19.38,-2.75 -0.56,-2.67 -0.92,-5.38 -1.07,-8.14zm-72.71 30.51c0,7.16 14.23,10.9 28.29,10.9 14.06,0 28.29,-3.74 28.29,-10.9 0,-14.31 -56.58,-14.31 -56.58,0zm53.39 10.49c-5.86,3.07 -14.78,4.77 -25.1,4.77 -10.33,0 -19.24,-1.7 -25.1,-4.77 -0.67,-0.35 -1.49,-0.32 -2.14,0.07 -0.65,0.39 -1.05,1.1 -1.05,1.86l0 0.66c0,7.15 14.23,10.9 28.29,10.9 14.06,0 28.29,-3.74 28.29,-10.9l0 -0.66c0,-0.76 -0.4,-1.47 -1.05,-1.86 -0.65,-0.39 -1.46,-0.42 -2.14,-0.07zm-38.16 -60.63c2.94,0 5.88,-0.17 8.74,-0.5 0.47,-0.05 0.9,-0.25 1.24,-0.58 3.3,-3.11 8.93,-5.4 16.28,-6.63 0.78,-0.13 1.43,-0.67 1.69,-1.42 0.23,-0.63 0.33,-1.21 0.33,-1.78 0,-14.31 -56.58,-14.31 -56.58,0 0,7.16 14.23,10.9 28.29,10.9zm0 13.08c1.8,0 3.56,-0.06 5.26,-0.17 0.69,-0.05 1.31,-0.41 1.68,-0.99 0.37,-0.58 0.45,-1.3 0.21,-1.94 -0.42,-1.14 -0.63,-2.26 -0.62,-3.55 0,-0.6 -0.24,-1.17 -0.68,-1.58 -0.43,-0.41 -1.04,-0.66 -1.6,-0.6 -1.42,0.07 -2.84,0.11 -4.26,0.11 -10.33,0 -19.24,-1.69 -25.1,-4.77 -0.67,-0.35 -1.49,-0.33 -2.14,0.07 -0.65,0.39 -1.05,1.1 -1.05,1.87l0 0.66c0,7.15 14.23,10.9 28.29,10.9zm0 13.08c1.8,0 3.56,-0.06 5.26,-0.18 0.69,-0.05 1.31,-0.41 1.68,-0.99 0.37,-0.58 0.45,-1.3 0.21,-1.94 -0.42,-1.14 -0.63,-2.26 -0.63,-3.55 0,-0.6 -0.25,-1.17 -0.68,-1.58 -0.43,-0.41 -1.02,-0.65 -1.6,-0.6 -1.42,0.07 -2.83,0.11 -4.25,0.11 -10.33,0 -19.24,-1.69 -25.1,-4.77 -0.67,-0.35 -1.49,-0.33 -2.14,0.07 -0.65,0.39 -1.05,1.1 -1.05,1.86l0 0.66c0,7.16 14.23,10.9 28.29,10.9zm64.27 17.03c-4.1,2.15 -9.86,3.65 -16.66,4.34 -1.15,0.12 -1.97,1.46 -1.92,2.61 0,1.1 -0.18,2.16 -0.54,3.22 -0.24,0.7 -0.11,1.48 0.35,2.07 0.42,0.52 1.04,0.82 1.7,0.82 0.08,0 0.15,-0 0.23,-0.01 10.92,-1.18 18.01,-4.3 19.65,-8.53 -1.01,-1.47 -1.94,-2.99 -2.8,-4.53l-0.02 0.01zm-51.21 -8.31l1.44 0.03c0.01,0 0.03,0 0.04,0 1.02,0 1.9,-0.7 2.12,-1.7 0.23,-1.01 -0.28,-2.04 -1.22,-2.46l-0.47 -0.21c-0.31,-0.14 -0.62,-0.27 -0.91,-0.42 -0.68,-0.36 -1.48,-0.32 -2.13,0.07 -0.65,0.39 -1.05,1.1 -1.05,1.86l0 0.66c0,1.2 0.97,2.18 2.18,2.18zm46.57 -2.83c-5.51,1.84 -12.57,2.83 -20.46,2.83l-1.44 -0.03c-0.88,-0.07 -1.93,0.7 -2.15,1.71 -0.22,1.01 0.29,2.03 1.22,2.46 2.36,1.07 4.28,2.35 5.72,3.79 0.41,0.41 0.96,0.64 1.54,0.64 0.04,0 0.09,-0 0.14,-0 6.42,-0.41 13.48,-1.72 18.12,-4.18 -1.06,-2.34 -1.96,-4.74 -2.69,-7.2zm-69.72 6.51c0.27,0 0.54,-0.05 0.8,-0.15 3.83,-1.52 8.51,-2.56 13.9,-3.11 1.15,-0.11 1.97,-1.57 1.92,-2.72 0,-0.6 -0.25,-1.17 -0.68,-1.58 -0.43,-0.41 -1.02,-0.63 -1.6,-0.6 -1.42,0.07 -2.83,0.11 -4.25,0.11 -10.33,0 -19.24,-1.69 -25.1,-4.77 -0.67,-0.35 -1.49,-0.33 -2.14,0.07 -0.65,0.39 -1.05,1.1 -1.05,1.86l0 0.66c0,4.82 6.69,8.63 17.9,10.2 0.1,0.01 0.2,0.02 0.3,0.02z"/>
 </g>
</svg>
