<?xml version="1.0" encoding="UTF-8"?>
<!DOCTYPE svg PUBLIC "-//W3C//DTD SVG 1.1//EN" "http://www.w3.org/Graphics/SVG/1.1/DTD/svg11.dtd">
<!-- Creator: CorelDRAW 2019 -->
<svg xmlns="http://www.w3.org/2000/svg" xml:space="preserve" width="67.0548mm" height="47.3326mm" version="1.1" style="shape-rendering:geometricPrecision; text-rendering:geometricPrecision; image-rendering:optimizeQuality; fill-rule:evenodd; clip-rule:evenodd"
viewBox="0 0 3331.35 2351.53"
 xmlns:xlink="http://www.w3.org/1999/xlink"
 xmlns:xodm="http://www.corel.com/coreldraw/odm/2003">
 <defs>
  <style type="text/css">
   <![CDATA[
    .fil2 {fill:none}
    .fil0 {fill:white}
    .fil6 {fill:white;fill-rule:nonzero}
    .fil3 {fill:white;fill-rule:nonzero}
    .fil1 {fill:url(#id1);fill-rule:nonzero}
    .fil4 {fill:url(#id2);fill-rule:nonzero}
    .fil5 {fill:url(#id3);fill-rule:nonzero}
   ]]>
  </style>
    <clipPath id="id0">
     <path d="M175.2 0l2980.95 0c96.36,0 175.2,78.84 175.2,175.2l0 2001.13c0,96.36 -78.84,175.2 -175.2,175.2l-2980.95 0c-96.36,0 -175.2,-78.84 -175.2,-175.2l0 -2001.13c0,-96.36 78.84,-175.2 175.2,-175.2z"/>
    </clipPath>
  <linearGradient id="id1" gradientUnits="userSpaceOnUse" x1="22.19" y1="-766.33" x2="3202.65" y2="-1219">
   <stop offset="0" style="stop-opacity:1; stop-color:#00D9FF"/>
   <stop offset="1" style="stop-opacity:1; stop-color:#5A69F7"/>
  </linearGradient>
  <linearGradient id="id2" gradientUnits="userSpaceOnUse" xlink:href="#id1" x1="475.37" y1="1157.66" x2="2150.43" y2="1962.83">
  </linearGradient>
  <linearGradient id="id3" gradientUnits="userSpaceOnUse" x1="1567.65" y1="1214.99" x2="1864.85" y2="1400.05">
   <stop offset="0" style="stop-opacity:1; stop-color:#3795FA"/>
   <stop offset="1" style="stop-opacity:1; stop-color:#5174F8"/>
  </linearGradient>
 </defs>
 <g id="Слой_x0020_1">
  <metadata id="CorelCorpID_0Corel-Layer"/>
  <g id="_865149040">
   <path class="fil0" d="M175.2 0l2980.95 0c96.36,0 175.2,78.84 175.2,175.2l0 2001.13c0,96.36 -78.84,175.2 -175.2,175.2l-2980.95 0c-96.36,0 -175.2,-78.84 -175.2,-175.2l0 -2001.13c0,-96.36 78.84,-175.2 175.2,-175.2z"/>
   <g style="clip-path:url(#id0)">
    <g>
     <path id="1" class="fil1" d="M3221.16 -1364.09l-3174.94 -17.86c-46.96,-0.26 -85.24,37.59 -85.51,84.56l-3.19 568.01c-0.06,11.34 5.43,22.12 14.87,28.4 195.26,129.69 458.55,152.94 693.25,105.26 283.79,-57.66 541.28,-201.14 806.05,-318.47 264.76,-117.32 555.39,-211.05 840.54,-160.52 269.07,47.68 497.75,216.75 740.48,342.28 64.79,33.5 133.71,63.78 204.47,87.79 22.05,7.49 45.02,-8.66 45.15,-31.95l3.39 -601.98c0.26,-46.96 -37.59,-85.25 -84.56,-85.52z"/>
    </g>
   </g>
   <path class="fil2" d="M175.2 0l2980.95 0c96.36,0 175.2,78.84 175.2,175.2l0 2001.13c0,96.36 -78.84,175.2 -175.2,175.2l-2980.95 0c-96.36,0 -175.2,-78.84 -175.2,-175.2l0 -2001.13c0,-96.36 78.84,-175.2 175.2,-175.2z"/>
   <polygon class="fil3" points="1887.73,1727.91 1887.73,1684.19 1862.28,1727.91 "/>
   <polygon class="fil3" points="1009.72,1684.19 984.42,1727.91 1009.72,1727.91 "/>
   <path class="fil3" d="M1175.99 1746.72c2.69,-3.36 3.84,-7.66 3.84,-12.98 0,-5.83 -1.5,-10.46 -4.31,-13.62 -2.84,-3.2 -6.52,-4.67 -10.65,-4.67 -3.49,0 -6.51,1.01 -8.98,2.97 -4,3.2 -6,8 -6,14.82 0,5.49 1.5,9.99 4.47,13.32 2.85,3.5 6.68,5.33 11.16,5.33 4.5,0 8,-1.67 10.46,-5.16z"/>
   <path class="fil3" d="M713.55 1992.65c3.82,0 7.31,-1.16 10.47,-3.3 3.3,-2.19 4.97,-6.2 4.97,-12.15l0 -6.52c-0.98,0.69 -2.13,1.36 -3.31,1.66 -1.17,0.52 -2.64,0.86 -4.65,1.2l-4.01 0.79c-3.82,0.69 -6.46,1.51 -8.12,2.35 -2.68,1.66 -4.18,4.17 -4.18,7.49 0,2.98 0.84,5.17 2.51,6.47 1.82,1.32 3.79,2 6.3,2z"/>
   <path class="fil3" d="M1404 1751.71c4.47,0 8.15,-1.37 10.81,-4.18 2.46,-2.8 3.83,-6.65 3.83,-11.62 0,-5.15 -1.36,-9.15 -3.99,-11.84 -2.69,-2.63 -6.18,-3.95 -10.64,-3.95 -4.51,0 -8.01,1.33 -10.64,3.95 -2.69,2.69 -4.01,6.69 -4.01,11.84 0,4.97 1.32,8.82 3.83,11.62 2.66,2.81 6.31,4.18 10.83,4.18z"/>
   <path class="fil3" d="M901.79 1948.93c-4.5,0 -7.99,1.33 -10.45,3.79 -2.51,2.51 -4.02,6 -4.69,10.34l30.1 0c-0.3,-4.69 -1.82,-8.16 -4.64,-10.51 -2.81,-2.47 -6.14,-3.62 -10.31,-3.62z"/>
   <path class="fil3" d="M1483.64 1679.67c-3.31,0 -6.33,0.85 -8.63,2.87 -3.85,2.97 -5.84,7.94 -5.84,15.1 0,6.18 1.14,10.64 3.66,13.67 2.51,2.97 6.31,4.47 11.33,4.47 2.81,0 5.33,-0.84 7.8,-2.34 4.5,-2.98 6.79,-7.95 6.79,-15.12 0,-5.65 -1.3,-10.29 -3.94,-13.61 -2.85,-3.37 -6.53,-5.03 -11.16,-5.03z"/>
   <path class="fil3" d="M1404 1704.8c3.99,0 7.15,-1.17 9.28,-3.5 2.35,-2.34 3.54,-5.5 3.54,-9.16 0,-3.95 -1.18,-7.15 -3.54,-9.45 -2.13,-2.17 -5.29,-3.31 -9.28,-3.31 -4,0 -7.14,1.14 -9.48,3.31 -2.35,2.3 -3.33,5.49 -3.33,9.45 0,3.66 0.97,6.82 3.33,9.16 2.34,2.33 5.48,3.5 9.48,3.5z"/>
   <path class="fil3" d="M1115.79 1974.33c-3.66,0.69 -6.27,1.51 -7.94,2.35 -2.86,1.66 -4.17,4.17 -4.17,7.49 0,2.98 0.84,5.17 2.51,6.47 1.66,1.32 3.83,2 6.13,2 3.83,0 7.32,-1.16 10.64,-3.3 3.15,-2.19 4.81,-6.2 4.97,-12.15l0 -6.52c-1.15,0.69 -2.13,1.36 -3.32,1.66 -1.15,0.52 -2.81,0.86 -4.8,1.2l-4.02 0.79z"/>
   <path class="fil3" d="M1409.79 1974.33c-3.79,0.69 -6.47,1.51 -8.13,2.35 -2.64,1.66 -4.18,4.17 -4.18,7.49 0,2.98 0.84,5.17 2.51,6.47 1.66,1.32 3.83,2 6.18,2 3.79,0 7.45,-1.16 10.65,-3.3 3.32,-2.19 4.98,-6.2 4.98,-12.15l0 -6.52c-1.03,0.69 -2.19,1.36 -3.33,1.66 -1.19,0.52 -2.83,0.86 -4.68,1.2l-3.99 0.79z"/>
   <path class="fil3" d="M1584.07 1952.72c-2.46,2.51 -3.99,6 -4.65,10.34l30.11 0c-0.34,-4.69 -1.84,-8.16 -4.68,-10.51 -2.8,-2.47 -6.3,-3.62 -10.3,-3.62 -4.48,0 -7.96,1.33 -10.47,3.79z"/>
   <path class="fil3" d="M2043.55 1751.88c4.5,0 7.99,-1.67 10.45,-5.16 2.51,-3.36 3.84,-7.66 3.84,-12.98 0,-5.83 -1.49,-10.46 -4.3,-13.62 -3.03,-3.2 -6.53,-4.67 -10.64,-4.67 -3.5,0 -6.53,1.01 -9.15,2.97 -3.84,3.2 -5.84,8 -5.84,14.82 0,5.49 1.5,9.99 4.48,13.32 2.85,3.5 6.68,5.33 11.16,5.33z"/>
   <path class="fil3" d="M594.48 1742.38c1.83,6.17 5.83,9.33 11.79,9.33 5.84,0 9.84,-3.16 11.66,-9.33 1.5,-5.32 2.35,-13.16 2.51,-22.43 0.13,-1.54 0.3,-2.86 0.3,-4.33 0,-12.31 -0.98,-21.46 -2.81,-27.3 -1.82,-5.78 -5.65,-8.81 -11.66,-8.81 -5.96,0 -9.79,3.03 -11.79,8.81 -2.01,6.01 -2.81,14.99 -2.81,27.3 0,6 0.17,11.15 0.64,15.79 0.51,4.33 1.19,8 2.17,10.97z"/>
   <path class="fil4" d="M492.06 2135.83c15.8,7.48 33.26,11.95 51.89,11.95l1576.77 0c33.25,0 63.34,-13.45 85.48,-35.25 23.08,-22.6 37.71,-54.19 37.71,-89.26l0 -917.09c0,-35.11 -14.63,-66.89 -37.71,-89.48 -22.13,-21.81 -52.23,-35.26 -85.48,-35.26l-1576.77 0c-67.85,0 -123.07,55.86 -123.07,124.74l0 917.09c0,49.72 29.29,92.58 71.18,112.56zm1031.84 -827.28c0,-92.8 75.52,-168.16 168.1,-168.16 36.62,0 70.19,12.18 97.78,31.93 28.63,-22.95 64.54,-37.25 103.97,-37.25 33.92,0 65.33,10.34 91.77,27.63 21.64,14.3 39.44,33.92 52.53,56.35 14.3,24.78 23.12,53.05 23.12,83.48 0,92.46 -75.13,167.47 -167.42,167.47 -36.1,0 -69.53,-11.66 -96.81,-31.28 -28.9,23.28 -65.01,37.74 -104.94,37.74 -54.2,0 -102.09,-26.26 -132.86,-66.2 -13.78,-17.95 -24.1,-38.72 -29.74,-61.32 -3.16,-12.99 -5.49,-26.44 -5.49,-40.41z"/>
   <path class="fil5" d="M1592.08 1396.85c24.6,27.75 60.02,45.71 99.91,45.71 28.61,0 54.88,-9.15 76.69,-24.42l56.18 0c0.52,-0.35 0.84,-0.87 1.18,-1.2 9.16,-7.29 17.46,-15.45 24.6,-24.79l-97.94 0c-4.02,-6.3 -7.68,-12.94 -10.83,-19.91l121.75 0c4.31,-8.18 7.78,-16.82 10.64,-25.81l-141.38 0c-0.63,-2.17 -1.48,-4.13 -1.99,-6.12 -1.15,-5.32 -1.66,-10.81 -2.3,-16.32l150.83 0c0.79,-6.63 1.99,-13.32 1.99,-20.3 0,-1.84 -0.52,-3.66 -0.52,-5.49l-154.14 0c0.17,-7.44 0.97,-14.6 2.17,-21.75l149.63 0c-1.66,-8.98 -4.31,-17.46 -7.66,-25.81l-135.51 0c2.52,-7.79 5.49,-15.1 9.17,-22.43l115.05 0c-2.33,-3.83 -5.47,-7.14 -8.16,-10.8 -3.63,-4.97 -6.99,-10.48 -11.46,-14.99l-79.47 0c1.49,-2.13 3.15,-3.96 4.81,-5.95 -21.12,-13.81 -46.23,-21.98 -73.35,-21.98 -73.82,0 -134.01,60.02 -134.01,134.05 0,9.44 1.15,18.61 2.98,27.42 4.85,23.28 15.95,43.89 31.12,60.88z"/>
   <path class="fil6" d="M761.72 1828.15l55.22 38.49 421.67 -563.07 -54.38 -41 -422.51 565.57zm-111.28 -414.98c0,89.52 69.44,149.76 164.82,149.76 95.38,0 164.82,-60.24 164.82,-149.76 0,-90.35 -69.44,-148.92 -164.82,-148.92 -95.38,0 -164.82,58.57 -164.82,148.92zm90.36 0c0,-43.51 32.63,-71.12 74.46,-71.12 42.68,0 75.3,27.61 75.3,71.12 0,44.34 -31.79,71.95 -75.3,71.95 -41,0 -74.46,-27.61 -74.46,-71.95zm279.45 302.87c0,89.52 69.44,149.76 164.82,149.76 95.38,0 164.82,-60.24 164.82,-149.76 0,-90.35 -69.44,-148.92 -164.82,-148.92 -95.38,0 -164.82,58.57 -164.82,148.92zm90.36 0c0,-43.5 32.63,-71.12 74.46,-71.12 42.67,0 75.3,27.62 75.3,71.12 0,44.35 -31.8,71.95 -75.3,71.95 -41,0 -74.46,-27.61 -74.46,-71.95z"/>
  </g>
 </g>
</svg>
