<?xml version="1.0" encoding="UTF-8"?>
<!DOCTYPE svg PUBLIC "-//W3C//DTD SVG 1.1//EN" "http://www.w3.org/Graphics/SVG/1.1/DTD/svg11.dtd">
<!-- Creator: CorelDRAW 2019 -->
<svg xmlns="http://www.w3.org/2000/svg" xml:space="preserve" width="59.972mm" height="42.333mm" version="1.1" style="shape-rendering:geometricPrecision; text-rendering:geometricPrecision; image-rendering:optimizeQuality; fill-rule:evenodd; clip-rule:evenodd"
viewBox="0 0 4644.37 3278.37"
 xmlns:xlink="http://www.w3.org/1999/xlink"
 xmlns:xodm="http://www.corel.com/coreldraw/odm/2003">
 <defs>
  <style type="text/css">
   <![CDATA[
    .str0 {stroke:white;stroke-width:54.64;stroke-miterlimit:22.9256}
    .fil5 {fill:none}
    .fil0 {fill:#5A69F7}
    .fil1 {fill:#34DAEA;fill-rule:nonzero}
    .fil4 {fill:#5A69F7;fill-rule:nonzero}
    .fil6 {fill:white;fill-rule:nonzero}
    .fil8 {fill:white;fill-opacity:0.039216}
    .fil7 {fill:white;fill-opacity:0.058824}
    .fil2 {fill:url(#id1);fill-rule:nonzero}
    .fil3 {fill:url(#id2);fill-rule:nonzero}
   ]]>
  </style>
   <clipPath id="id0">
    <path d="M244.25 0l4155.88 0c134.34,0 244.25,109.91 244.25,244.25l0 2789.86c0,134.34 -109.91,244.25 -244.25,244.25l-4155.88 0c-134.34,0 -244.25,-109.91 -244.25,-244.25l0 -2789.86c0,-134.34 109.91,-244.25 244.25,-244.25z"/>
   </clipPath>
  <linearGradient id="id1" gradientUnits="userSpaceOnUse" x1="85.57" y1="789.39" x2="4519.6" y2="158.3">
   <stop offset="0" style="stop-opacity:1; stop-color:#00D9FF"/>
   <stop offset="1" style="stop-opacity:1; stop-color:#5A69F7"/>
  </linearGradient>
  <linearGradient id="id2" gradientUnits="userSpaceOnUse" x1="-1068.33" y1="-2186.73" x2="3553.59" y2="-833.98">
   <stop offset="0" style="stop-opacity:1; stop-color:#00D9FF"/>
   <stop offset="0.419608" style="stop-opacity:1; stop-color:#1B75FD"/>
   <stop offset="1" style="stop-opacity:1; stop-color:#B357EF"/>
  </linearGradient>
 </defs>
 <g id="Слой_x0020_1">
  <metadata id="CorelCorpID_0Corel-Layer"/>
  <path class="fil0" d="M244.25 0l4155.88 0c134.34,0 244.25,109.91 244.25,244.25l0 2789.86c0,134.34 -109.91,244.25 -244.25,244.25l-4155.88 0c-134.34,0 -244.25,-109.91 -244.25,-244.25l0 -2789.86c0,-134.34 109.91,-244.25 244.25,-244.25z"/>
  <g style="clip-path:url(#id0)">
   <g id="_823887728">
    <path id="1" class="fil1" d="M4571.11 -4909.36c-16.11,-308.1 1207.59,1891.47 1313,2121.81 406.2,887.58 1133.14,3570.37 1088.48,4190.42l-1937.59 -1255.66c-2309.05,-1444.82 -372.03,-3309.37 -463.9,-5056.57z"/>
    <path class="fil2" d="M4545.41 -43.97l-4426.32 -24.9c-65.47,-0.37 -118.85,52.41 -119.21,117.88l-4.45 791.88c-0.09,15.81 7.57,30.85 20.73,39.59 272.22,180.82 639.29,213.23 966.49,146.75 395.65,-80.39 754.62,-280.43 1123.74,-443.99 369.11,-163.56 774.3,-294.23 1171.83,-223.79 375.12,66.48 693.94,302.19 1032.34,477.18 90.33,46.71 186.41,88.91 285.07,122.4 30.74,10.44 62.76,-12.08 62.95,-44.54l4.72 -839.24c0.37,-65.48 -52.41,-118.86 -117.88,-119.22z"/>
    <path class="fil3" d="M2539.94 -851.71l-2707.38 0c-405.26,0 -733.8,-328.53 -733.8,-733.8 0,-405.27 328.53,-733.83 733.8,-733.83l2707.38 0c405.26,0 733.81,328.56 733.81,733.83 0,405.26 -328.56,733.8 -733.81,733.8z"/>
    <path class="fil4 str0" d="M-27329.08 12191.92c-1259.53,785.08 10786.03,-447.02 11984.87,-665.7 4619.45,-842.65 14686.31,-2481.56 17008.76,-4365.51l-7772.81 -7066.66c-12058.27,-5127.35 -14076.82,7647.88 -21220.82,12097.88z"/>
   </g>
  </g>
  <path class="fil5" d="M244.25 0l4155.88 0c134.34,0 244.25,109.91 244.25,244.25l0 2789.86c0,134.34 -109.91,244.25 -244.25,244.25l-4155.88 0c-134.34,0 -244.25,-109.91 -244.25,-244.25l0 -2789.86c0,-134.34 109.91,-244.25 244.25,-244.25z"/>
  <polygon class="fil6" points="2339.61,2368.58 2339.61,2318.44 2310.42,2368.58 "/>
  <polygon class="fil6" points="1332.57,2318.44 1303.56,2368.58 1332.57,2368.58 "/>
  <path class="fil6" d="M1523.28 2390.17c3.08,-3.86 4.4,-8.79 4.4,-14.89 0,-6.69 -1.72,-12 -4.94,-15.63 -3.25,-3.67 -7.47,-5.36 -12.2,-5.36 -4,0 -7.47,1.16 -10.3,3.41 -4.59,3.66 -6.88,9.18 -6.88,17 0,6.3 1.71,11.45 5.12,15.28 3.27,4.01 7.67,6.1 12.8,6.1 5.17,0 9.18,-1.91 12,-5.91z"/>
  <path class="fil6" d="M992.87 2672.23c4.38,0 8.39,-1.32 12.01,-3.79 3.79,-2.5 5.71,-7.09 5.71,-13.93l0 -7.47c-1.12,0.79 -2.44,1.56 -3.79,1.91 -1.35,0.6 -3.04,0.98 -5.33,1.37l-4.6 0.91c-4.38,0.79 -7.42,1.73 -9.31,2.7 -3.07,1.91 -4.79,4.79 -4.79,8.6 0,3.42 0.97,5.92 2.88,7.41 2.09,1.51 4.34,2.3 7.23,2.3z"/>
  <path class="fil6" d="M1784.79 2395.88c5.12,0 9.35,-1.56 12.4,-4.79 2.83,-3.21 4.39,-7.62 4.39,-13.33 0,-5.91 -1.56,-10.49 -4.58,-13.58 -3.08,-3.02 -7.09,-4.54 -12.2,-4.54 -5.17,0 -9.19,1.52 -12.2,4.54 -3.09,3.09 -4.6,7.67 -4.6,13.58 0,5.71 1.51,10.12 4.39,13.33 3.04,3.23 7.24,4.79 12.41,4.79z"/>
  <path class="fil6" d="M1208.77 2622.09c-5.17,0 -9.16,1.53 -11.99,4.34 -2.88,2.88 -4.61,6.88 -5.38,11.86l34.52 0c-0.35,-5.38 -2.09,-9.36 -5.31,-12.06 -3.23,-2.83 -7.05,-4.15 -11.83,-4.15z"/>
  <path class="fil6" d="M1876.14 2313.25c-3.79,0 -7.27,0.98 -9.9,3.29 -4.41,3.41 -6.7,9.11 -6.7,17.32 0,7.09 1.32,12.21 4.19,15.68 2.88,3.41 7.24,5.12 13,5.12 3.22,0 6.1,-0.97 8.94,-2.68 5.17,-3.42 7.79,-9.12 7.79,-17.35 0,-6.47 -1.49,-11.8 -4.52,-15.61 -3.27,-3.86 -7.49,-5.77 -12.8,-5.77z"/>
  <path class="fil6" d="M1784.79 2342.08c4.58,0 8.21,-1.34 10.65,-4.01 2.69,-2.69 4.05,-6.31 4.05,-10.51 0,-4.54 -1.36,-8.21 -4.05,-10.83 -2.44,-2.49 -6.06,-3.81 -10.65,-3.81 -4.59,0 -8.19,1.32 -10.88,3.81 -2.69,2.63 -3.82,6.3 -3.82,10.83 0,4.2 1.12,7.82 3.82,10.51 2.69,2.67 6.29,4.01 10.88,4.01z"/>
  <path class="fil6" d="M1454.22 2651.22c-4.19,0.79 -7.19,1.73 -9.11,2.7 -3.28,1.91 -4.79,4.79 -4.79,8.6 0,3.42 0.97,5.92 2.88,7.41 1.91,1.51 4.38,2.3 7.03,2.3 4.38,0 8.39,-1.32 12.2,-3.79 3.61,-2.5 5.52,-7.09 5.7,-13.93l0 -7.47c-1.32,0.79 -2.43,1.56 -3.8,1.91 -1.32,0.6 -3.23,0.98 -5.51,1.37l-4.61 0.91z"/>
  <path class="fil6" d="M1791.44 2651.22c-4.34,0.79 -7.42,1.73 -9.33,2.7 -3.03,1.91 -4.79,4.79 -4.79,8.6 0,3.42 0.97,5.92 2.88,7.41 1.91,1.51 4.38,2.3 7.09,2.3 4.34,0 8.54,-1.32 12.2,-3.79 3.81,-2.5 5.72,-7.09 5.72,-13.93l0 -7.47c-1.18,0.79 -2.5,1.56 -3.82,1.91 -1.37,0.6 -3.25,0.98 -5.37,1.37l-4.58 0.91z"/>
  <path class="fil6" d="M1991.32 2626.44c-2.83,2.88 -4.58,6.88 -5.33,11.86l34.53 0c-0.39,-5.38 -2.11,-9.36 -5.37,-12.06 -3.21,-2.83 -7.23,-4.15 -11.83,-4.15 -5.13,0 -9.13,1.53 -12.01,4.34z"/>
  <path class="fil6" d="M2518.33 2396.08c5.17,0 9.16,-1.91 11.99,-5.91 2.87,-3.86 4.4,-8.79 4.4,-14.89 0,-6.69 -1.7,-12 -4.93,-15.63 -3.48,-3.67 -7.49,-5.36 -12.21,-5.36 -4.01,0 -7.48,1.16 -10.49,3.41 -4.41,3.66 -6.7,9.18 -6.7,17 0,6.3 1.71,11.45 5.13,15.28 3.27,4.01 7.67,6.1 12.8,6.1z"/>
  <path class="fil6" d="M856.3 2385.18c2.11,7.08 6.69,10.7 13.53,10.7 6.7,0 11.28,-3.62 13.37,-10.7 1.72,-6.1 2.69,-15.09 2.88,-25.73 0.15,-1.76 0.34,-3.28 0.34,-4.97 0,-14.12 -1.12,-24.6 -3.22,-31.3 -2.09,-6.64 -6.47,-10.11 -13.37,-10.11 -6.84,0 -11.23,3.47 -13.53,10.11 -2.31,6.89 -3.22,17.18 -3.22,31.3 0,6.88 0.19,12.79 0.74,18.12 0.58,4.96 1.37,9.18 2.49,12.58z"/>
  <path class="fil6" d="M738.83 2836.45c18.11,8.59 38.14,13.71 59.51,13.71l1808.5 0c38.13,0 72.65,-15.43 98.03,-40.43 26.48,-25.92 43.25,-62.16 43.25,-102.38l0 -1051.87c0,-40.28 -16.77,-76.72 -43.25,-102.63 -25.39,-25.01 -59.9,-40.44 -98.03,-40.44l-1808.5 0c-77.83,0 -141.16,64.07 -141.16,143.07l0 1051.87c0,57.03 33.59,106.19 81.65,129.1zm1183.47 -948.86c0,-106.44 86.62,-192.87 192.8,-192.87 42,0 80.51,13.97 112.15,36.62 32.83,-26.32 74.02,-42.72 119.25,-42.72 38.9,0 74.93,11.86 105.25,31.7 24.82,16.4 45.23,38.91 60.25,64.63 16.4,28.41 26.52,60.85 26.52,95.75 0,106.05 -86.17,192.08 -192.02,192.08 -41.42,0 -79.75,-13.37 -111.04,-35.87 -33.15,26.69 -74.56,43.29 -120.36,43.29 -62.16,0 -117.09,-30.12 -152.38,-75.93 -15.81,-20.59 -27.64,-44.41 -34.12,-70.33 -3.62,-14.89 -6.3,-30.33 -6.3,-46.34z"/>
  <path class="fil6" d="M2000.51 1988.87c28.2,31.84 68.84,52.43 114.58,52.43 32.82,0 62.95,-10.49 87.96,-28.01l64.44 0c0.6,-0.4 0.97,-1 1.36,-1.37 10.51,-8.36 20.03,-17.72 28.22,-28.43l-112.33 0c-4.61,-7.23 -8.8,-14.84 -12.41,-22.84l139.64 0c4.95,-9.39 8.93,-19.29 12.21,-29.61l-162.16 0c-0.72,-2.49 -1.69,-4.73 -2.28,-7.02 -1.32,-6.1 -1.91,-12.4 -2.63,-18.71l173 0c0.91,-7.61 2.28,-15.28 2.28,-23.29 0,-2.11 -0.6,-4.2 -0.6,-6.3l-176.79 0c0.19,-8.54 1.11,-16.75 2.49,-24.94l171.63 0c-1.91,-10.3 -4.94,-20.03 -8.79,-29.61l-155.43 0c2.89,-8.93 6.3,-17.32 10.52,-25.73l131.95 0c-2.67,-4.39 -6.28,-8.19 -9.36,-12.39 -4.17,-5.7 -8.02,-12.01 -13.15,-17.19l-91.16 0c1.7,-2.43 3.62,-4.54 5.53,-6.82 -24.22,-15.83 -53.02,-25.2 -84.14,-25.2 -84.66,0 -153.7,68.84 -153.7,153.75 0,10.83 1.32,21.34 3.42,31.45 5.57,26.69 18.3,50.34 35.7,69.82z"/>
  <path class="fil4" d="M1048.12 2483.55l63.33 44.15 483.64 -645.82 -62.37 -47.02 -484.6 648.7zm-127.63 -475.96c0,102.67 79.65,171.77 189.04,171.77 109.4,0 189.05,-69.09 189.05,-171.77 0,-103.63 -79.65,-170.81 -189.05,-170.81 -109.4,0 -189.04,67.18 -189.04,170.81zm103.64 0c0,-49.9 37.43,-81.57 85.4,-81.57 48.95,0 86.37,31.67 86.37,81.57 0,50.86 -36.47,82.52 -86.37,82.52 -47.02,0 -85.4,-31.67 -85.4,-82.52zm320.51 347.38c0,102.68 79.65,171.77 189.05,171.77 109.39,0 189.04,-69.09 189.04,-171.77 0,-103.63 -79.65,-170.81 -189.04,-170.81 -109.4,0 -189.05,67.17 -189.05,170.81zm103.64 0c0,-49.9 37.43,-81.57 85.41,-81.57 48.94,0 86.36,31.67 86.36,81.57 0,50.86 -36.46,82.53 -86.36,82.53 -47.03,0 -85.41,-31.67 -85.41,-82.53z"/>
  <g id="_351230152">
   <path class="fil7" d="M4452.33 1430.8c39.94,22.27 67.1,64.97 67.1,113.69l0 1482.67c0,71.55 -58.53,130.08 -130.08,130.08l-2215.12 0c-51.58,0 -96.42,-30.44 -117.4,-74.25 748.85,11.43 2384.52,-147.24 2395.5,-1652.19z"/>
   <path class="fil8" d="M4489.09 1900.38c18.06,10.07 30.35,29.41 30.35,51.42l0 1084.65c0,58.79 -62.86,120.79 -120.79,120.79l-1436.21 0c-23.32,0 -43.61,-13.77 -53.1,-33.58 616.3,-22.57 1489.56,-378.24 1579.75,-1223.28z"/>
  </g>
 </g>
</svg>
