<?xml version="1.0" encoding="UTF-8"?>
<!DOCTYPE svg PUBLIC "-//W3C//DTD SVG 1.1//EN" "http://www.w3.org/Graphics/SVG/1.1/DTD/svg11.dtd">
<!-- Creator: CorelDRAW 2019 -->
<svg xmlns="http://www.w3.org/2000/svg" xml:space="preserve" width="59.972mm" height="42.333mm" version="1.1" style="shape-rendering:geometricPrecision; text-rendering:geometricPrecision; image-rendering:optimizeQuality; fill-rule:evenodd; clip-rule:evenodd"
viewBox="0 0 1767.91 1247.93"
 xmlns:xlink="http://www.w3.org/1999/xlink"
 xmlns:xodm="http://www.corel.com/coreldraw/odm/2003">
 <defs>
  <style type="text/css">
   <![CDATA[
    .str0 {stroke:white;stroke-width:20.8;stroke-miterlimit:22.9256}
    .fil5 {fill:none}
    .fil0 {fill:#5A69F7}
    .fil1 {fill:#34DAEA;fill-rule:nonzero}
    .fil4 {fill:#5A69F7;fill-rule:nonzero}
    .fil6 {fill:white;fill-rule:nonzero}
    .fil8 {fill:white;fill-opacity:0.039216}
    .fil7 {fill:white;fill-opacity:0.058824}
    .fil2 {fill:url(#id1);fill-rule:nonzero}
    .fil3 {fill:url(#id2);fill-rule:nonzero}
   ]]>
  </style>
   <clipPath id="id0">
    <path d="M92.98 1247.93l1581.96 0c51.14,0 92.97,-41.84 92.97,-92.98l0 -1061.98c0,-51.14 -41.84,-92.98 -92.97,-92.98l-1581.96 0c-51.14,0 -92.98,41.84 -92.98,92.98l0 1061.98c0,51.14 41.84,92.98 92.98,92.98z"/>
   </clipPath>
  <linearGradient id="id1" gradientUnits="userSpaceOnUse" x1="32.57" y1="947.44" x2="1720.41" y2="1187.67">
   <stop offset="0" style="stop-opacity:1; stop-color:#905EF2"/>
   <stop offset="1" style="stop-opacity:1; stop-color:#4859F7"/>
  </linearGradient>
  <linearGradient id="id2" gradientUnits="userSpaceOnUse" x1="-406.67" y1="2137.54" x2="1352.69" y2="1622.61">
   <stop offset="0" style="stop-opacity:1; stop-color:#00D9FF"/>
   <stop offset="0.419608" style="stop-opacity:1; stop-color:#1B75FD"/>
   <stop offset="1" style="stop-opacity:1; stop-color:#B357EF"/>
  </linearGradient>
 </defs>
 <g id="Слой_x0020_1">
  <metadata id="CorelCorpID_0Corel-Layer"/>
  <path class="fil0" d="M92.98 1247.93l1581.96 0c51.14,0 92.97,-41.84 92.97,-92.98l0 -1061.98c0,-51.14 -41.84,-92.98 -92.97,-92.98l-1581.96 0c-51.14,0 -92.98,41.84 -92.98,92.98l0 1061.98c0,51.14 41.84,92.98 92.98,92.98z"/>
  <g style="clip-path:url(#id0)">
   <g id="_988585888">
    <path id="1" class="fil1" d="M1740.02 3116.7c-6.13,117.28 459.68,-720 499.8,-807.68 154.62,-337.86 431.34,-1359.08 414.34,-1595.1l-737.55 477.97c-878.95,549.98 -141.61,1259.73 -176.59,1924.81z"/>
    <path class="fil2" d="M1730.23 1264.67l-1684.9 9.48c-24.92,0.14 -45.24,-19.95 -45.38,-44.87l-1.7 -301.43c-0.04,-6.02 2.88,-11.74 7.89,-15.07 103.62,-68.83 243.35,-81.17 367.9,-55.86 150.6,30.6 287.25,106.75 427.76,169.01 140.5,62.26 294.74,112 446.07,85.19 142.79,-25.3 264.15,-115.03 392.96,-181.64 34.38,-17.78 70.96,-33.84 108.51,-46.59 11.7,-3.97 23.89,4.6 23.96,16.96l1.8 319.46c0.14,24.92 -19.95,45.24 -44.87,45.38z"/>
    <path class="fil3" d="M966.84 1572.14l-1030.58 0c-154.27,0 -279.32,125.06 -279.32,279.32 0,154.27 125.06,279.34 279.32,279.34l1030.58 0c154.26,0 279.33,-125.07 279.33,-279.34 0,-154.27 -125.07,-279.32 -279.33,-279.32z"/>
    <path class="fil4 str0" d="M-10402.96 -3392.99c-479.45,-298.84 4105.76,170.16 4562.1,253.4 1758.42,320.76 5590.42,944.62 6474.47,1661.75l-2958.76 2689.96c-4590.04,1951.75 -5358.41,-2911.2 -8077.81,-4605.12z"/>
   </g>
  </g>
  <path class="fil5" d="M92.98 1247.93l1581.96 0c51.14,0 92.97,-41.84 92.97,-92.98l0 -1061.98c0,-51.14 -41.84,-92.98 -92.97,-92.98l-1581.96 0c-51.14,0 -92.98,41.84 -92.98,92.98l0 1061.98c0,51.14 41.84,92.98 92.98,92.98z"/>
  <g id="_988587088">
   <polygon class="fil6" points="890.58,901.61 890.58,882.53 879.47,901.61 "/>
   <path class="fil6" d="M758 999.77c-1.08,1.1 -1.75,2.62 -2.03,4.52l13.14 0c-0.15,-2.05 -0.8,-3.56 -2.04,-4.59 -1.22,-1.08 -2.75,-1.58 -4.5,-1.58 -1.95,0 -3.48,0.58 -4.57,1.65z"/>
   <path class="fil6" d="M958.61 912.08c1.97,0 3.49,-0.73 4.56,-2.25 1.09,-1.47 1.67,-3.35 1.67,-5.67 0,-2.55 -0.65,-4.57 -1.87,-5.95 -1.32,-1.4 -2.85,-2.04 -4.65,-2.04 -1.53,0 -2.85,0.44 -3.99,1.3 -1.68,1.39 -2.55,3.49 -2.55,6.47 0,2.4 0.65,4.36 1.95,5.82 1.24,1.53 2.92,2.32 4.87,2.32z"/>
   <path class="fil6" d="M281.23 1079.71c6.9,3.27 14.52,5.22 22.66,5.22l688.41 0c14.52,0 27.65,-5.88 37.32,-15.39 10.08,-9.87 16.46,-23.66 16.46,-38.97l0 -400.4c0,-15.33 -6.39,-29.2 -16.46,-39.07 -9.66,-9.52 -22.8,-15.39 -37.32,-15.39l-688.41 0c-29.63,0 -53.73,24.39 -53.73,54.46l0 400.4c0,21.71 12.78,40.42 31.08,49.14zm450.5 -361.19c0,-40.52 32.97,-73.42 73.39,-73.42 15.99,0 30.65,5.32 42.69,13.94 12.5,-10.02 28.18,-16.26 45.39,-16.26 14.81,0 28.52,4.52 40.06,12.07 9.45,6.24 17.22,14.81 22.93,24.6 6.24,10.82 10.09,23.16 10.09,36.45 0,40.37 -32.8,73.12 -73.09,73.12 -15.77,0 -30.36,-5.09 -42.27,-13.65 -12.62,10.16 -28.38,16.48 -45.82,16.48 -23.66,0 -44.57,-11.46 -58.01,-28.9 -6.02,-7.84 -10.52,-16.91 -12.99,-26.77 -1.38,-5.67 -2.4,-11.54 -2.4,-17.64z"/>
   <path class="fil6" d="M761.5 757.07c10.74,12.12 26.2,19.96 43.62,19.96 12.49,0 23.96,-3.99 33.48,-10.66l24.53 0c0.23,-0.15 0.37,-0.38 0.52,-0.52 4,-3.18 7.62,-6.74 10.74,-10.82l-42.76 0c-1.75,-2.75 -3.35,-5.65 -4.73,-8.69l53.15 0c1.88,-3.57 3.4,-7.34 4.65,-11.27l-61.73 0c-0.27,-0.95 -0.64,-1.8 -0.87,-2.67 -0.5,-2.32 -0.73,-4.72 -1,-7.12l65.85 0c0.35,-2.9 0.87,-5.82 0.87,-8.87 0,-0.8 -0.23,-1.6 -0.23,-2.4l-67.29 0c0.07,-3.25 0.42,-6.38 0.95,-9.5l65.33 0c-0.73,-3.92 -1.88,-7.62 -3.35,-11.27l-59.17 0c1.1,-3.4 2.4,-6.59 4.01,-9.79l50.23 0c-1.02,-1.67 -2.39,-3.12 -3.56,-4.72 -1.59,-2.17 -3.05,-4.57 -5.01,-6.54l-34.7 0c0.65,-0.93 1.38,-1.73 2.1,-2.6 -9.22,-6.03 -20.18,-9.59 -32.03,-9.59 -32.23,0 -58.51,26.2 -58.51,58.53 0,4.12 0.5,8.12 1.3,11.97 2.12,10.16 6.97,19.16 13.59,26.58z"/>
  </g>
  <g>
   <path class="fil4" d="M626.58 842.05c-0.11,1.39 -0.25,2.77 -0.41,4.15l0.01 0c-0.74,6.6 -1.95,13.15 -3.6,19.54l25.23 6.54c2.36,-9.08 3.95,-18.45 4.74,-27.84l-0.02 0c0.07,-0.8 0.14,-1.59 0.19,-2.39l-26.15 0 0 0zm-23.53 66.96l21.6 14.59c5.27,-7.8 9.9,-16.1 13.77,-24.66l-23.76 -10.73c-3.26,7.22 -7.17,14.22 -11.62,20.8zm-32.82 34.35l15.56 20.92c7.54,-5.61 14.65,-11.89 21.15,-18.69l-18.85 -18.01c-5.49,5.74 -11.5,11.05 -17.86,15.79zm-42.31 21.49l7.69 24.91c8.98,-2.77 17.78,-6.34 26.17,-10.6l-11.81 -23.24c-7.07,3.59 -14.49,6.6 -22.06,8.94zm99.81 -271.39l0 48.28c-12.26,-19.56 -28.49,-36.43 -47.86,-49.57 -27.66,-18.77 -60.01,-28.68 -93.56,-28.68 -44.56,0 -86.46,17.35 -117.97,48.86 -31.51,31.52 -48.87,73.41 -48.87,117.98 0,44.57 17.35,86.46 48.87,117.98 31.51,31.51 73.41,48.87 117.97,48.87 7.26,0 14.56,-0.47 21.71,-1.4l-3.36 -25.85c-6.04,0.78 -12.21,1.18 -18.35,1.18 -77.62,0 -140.77,-63.15 -140.77,-140.77 0,-77.62 63.15,-140.77 140.77,-140.77 50.39,0 96.11,26.58 121.2,69.08l-44.95 0 0 26.07 91.24 0 0 -91.24 -26.07 0zm-153.81 19.55l26.07 0 0 130.35 -99.06 0 0 -26.07 73 0 0 -104.28z"/>
   <path id="1" class="fil4" d="M626.17 842.68l0 7.05 -3.5 -3.91 0.01 -0.14 0.01 -0.09 0.01 -0.13 0.02 -0.17 0.01 -0.13 0.01 -0.09 0.01 -0.13 0.02 -0.17 0.01 -0.09 0.01 -0.13 0.01 -0.13 0.01 -0.13 0.02 -0.13 0.01 -0.13 0.01 -0.12 0.01 -0.09 0.01 -0.13 0.01 -0.17 0.01 -0.13 0.01 -0.09 0.01 -0.13 0.01 -0.13 0.01 -0.13 0.01 -0.13 0.01 -0.13 0.01 -0.13 0.01 -0.13 0.01 -0.13 0.01 -0.13 0.01 -0.09 0.01 -0.13 0.01 -0.14 7.02 0.58 -0.01 0.12 -0.01 0.13 -0.01 0.17 -0.01 0.13 -0.01 0.13 -0.01 0.13 -0.01 0.13 -0.01 0.13 -0.01 0.13 -0.01 0.13 -0.01 0.13 -0.01 0.13 -0.01 0.17 -0.01 0.13 -0.01 0.09 -0.01 0.13 -0.01 0.17 -0.02 0.14 -0.01 0.13 -0.01 0.13 -0.01 0.13 -0.01 0.13 -0.01 0.13 -0.02 0.17 -0.01 0.09 -0.01 0.13 -0.02 0.17 -0.01 0.13 -0.01 0.09 -0.01 0.13 -0.02 0.17 -0.01 0.12 -3.5 -3.91zm0 7.05l-3.94 0 0.44 -3.91 3.5 3.91zm0.01 0l-0.01 0 0 -7.05 0.01 0 3.5 3.92 -3.5 3.13zm0 -7.05l3.94 0 -0.44 3.92 -3.5 -3.92zm-2.72 19.65l-1.77 6.82 -2.53 -4.29 0.15 -0.58 0.15 -0.59 0.15 -0.58 0.14 -0.58 0.14 -0.59 0.13 -0.59 0.14 -0.6 0.13 -0.59 0.13 -0.59 0.13 -0.59 0.12 -0.59 0.12 -0.6 0.12 -0.59 0.11 -0.59 0.11 -0.59 0.11 -0.6 0.11 -0.6 0.11 -0.6 0.1 -0.6 0.1 -0.6 0.1 -0.6 0.09 -0.6 0.09 -0.61 0.09 -0.6 0.09 -0.6 0.09 -0.6 0.08 -0.6 0.08 -0.6 0.08 -0.6 0.07 -0.6 0.07 -0.6 0.07 -0.6 7 0.79 -0.07 0.63 -0.08 0.63 -0.08 0.64 -0.08 0.63 -0.09 0.63 -0.09 0.63 -0.09 0.63 -0.09 0.63 -0.1 0.63 -0.09 0.62 -0.1 0.63 -0.1 0.63 -0.11 0.63 -0.11 0.63 -0.11 0.63 -0.11 0.62 -0.11 0.63 -0.12 0.63 -0.12 0.63 -0.13 0.62 -0.13 0.62 -0.13 0.62 -0.13 0.62 -0.14 0.62 -0.14 0.62 -0.14 0.61 -0.14 0.62 -0.15 0.62 -0.15 0.62 -0.15 0.62 -0.15 0.61 -0.16 0.62 -2.53 -4.29zm-1.77 6.82l-3.41 -0.88 0.88 -3.41 2.53 4.29zm25.23 6.54l-25.23 -6.54 1.77 -6.82 25.23 6.54 2.53 4.3 -4.3 2.53zm4.3 -2.53l-0.88 3.41 -3.41 -0.88 4.3 -2.53zm1.33 -25.2l0 -7.05 3.51 3.82 -0.08 0.9 -0.08 0.9 -0.09 0.9 -0.09 0.9 -0.09 0.9 -0.1 0.89 -0.11 0.9 -0.11 0.9 -0.12 0.9 -0.12 0.89 -0.13 0.89 -0.13 0.89 -0.14 0.89 -0.14 0.89 -0.14 0.9 -0.15 0.89 -0.15 0.89 -0.16 0.89 -0.16 0.89 -0.17 0.89 -0.17 0.88 -0.18 0.88 -0.18 0.88 -0.19 0.88 -0.19 0.88 -0.19 0.88 -0.2 0.88 -0.2 0.88 -0.21 0.88 -0.21 0.87 -0.22 0.87 -0.22 0.87 -6.82 -1.77 0.22 -0.83 0.21 -0.84 0.21 -0.84 0.2 -0.84 0.2 -0.83 0.19 -0.84 0.19 -0.85 0.19 -0.85 0.18 -0.84 0.17 -0.84 0.17 -0.85 0.17 -0.85 0.16 -0.85 0.16 -0.85 0.15 -0.85 0.15 -0.85 0.14 -0.85 0.14 -0.85 0.13 -0.86 0.13 -0.86 0.12 -0.86 0.12 -0.86 0.12 -0.86 0.11 -0.86 0.11 -0.85 0.1 -0.86 0.1 -0.86 0.09 -0.86 0.09 -0.86 0.08 -0.86 0.08 -0.86 0.07 -0.86 3.51 3.82zm0 -7.05l3.83 0 -0.32 3.82 -3.51 -3.82zm-0.02 0l0.02 0 0 7.05 -0.02 0 -3.51 -3.84 3.51 -3.21zm0 7.05l-3.85 0 0.34 -3.84 3.51 3.84zm0.19 -2.39l0 -7.05 3.51 3.77 -0.01 0.1 0 0.01 -0 0.08 -0.01 0.14 -0.01 0.08 -0.01 0.08 -0.01 0.07 -0.01 0.08 -0.01 0.08 -0.01 0.07 -0.01 0.08 -0.01 0.08 -0.01 0.07 -0.01 0.08 -0.01 0.08 -0.01 0.07 -0.01 0.08 -0.01 0.07 -0.01 0.15 -0.01 0.08 0 -0 -0.01 0.08 -0.01 0.08 -0.01 0.07 -0.01 0.15 -0.01 0.08 0 -0 -0.01 0.08 -0.01 0.15 -0.01 0.07 0 0.01 -0.01 0.11 -7.02 -0.62 0 -0.04 0.01 -0.15 0.01 -0.08 0 0 0.01 -0.08 0.01 -0.15 0.01 -0.07 0 -0.01 0.01 -0.08 0.01 -0.07 0.01 -0.08 0.01 -0.15 0.01 -0.07 0 -0.01 0.01 -0.07 0.01 -0.08 0.01 -0.08 0.01 -0.07 0.01 -0.08 0.01 -0.08 0.01 -0.07 0.01 -0.08 0.01 -0.08 0.01 -0.07 0.01 -0.08 0.01 -0.08 0.01 -0.07 0.01 -0.08 0 -0.01 0 -0.07 0.01 -0.14 0 -0.05 3.51 3.77zm0 -7.05l3.78 0 -0.27 3.77 -3.51 -3.77zm-26.15 0l26.15 0 0 7.05 -26.15 0 -3.51 -3.81 3.51 -3.23zm-3.51 3.23l0.27 -3.23 3.24 0 -3.51 3.23zm3.51 0.29l0 0 0 0 0 0 3.51 0.29 -3.51 -0.29zm-3.51 -0.29l0.27 -3.23 3.24 0 -3.51 3.23zm-0.39 84.76l-21.6 -14.59 3.94 -5.84 21.6 14.59 0.95 4.89 -4.89 0.95zm4.89 -0.95l-1.97 2.92 -2.92 -1.97 4.89 -0.95zm9.4 -23.42l2.9 -6.42 1.76 4.66 -0.37 0.82 -0.38 0.82 -0.38 0.81 -0.39 0.82 -0.39 0.81 -0.39 0.81 -0.4 0.81 -0.4 0.8 -0.41 0.8 -0.41 0.8 -0.42 0.8 -0.42 0.8 -0.42 0.8 -0.44 0.8 -0.43 0.79 -0.43 0.78 -0.45 0.79 -0.45 0.78 -0.45 0.78 -0.46 0.78 -0.45 0.78 -0.47 0.78 -0.47 0.77 -0.47 0.77 -0.47 0.77 -0.48 0.77 -0.48 0.75 -0.49 0.76 -0.5 0.76 -0.49 0.75 -0.5 0.75 -0.5 0.75 -5.84 -3.94 0.48 -0.72 0.48 -0.72 0.47 -0.73 0.47 -0.72 0.46 -0.73 0.47 -0.74 0.45 -0.73 0.46 -0.74 0.46 -0.74 0.45 -0.74 0.44 -0.74 0.44 -0.75 0.44 -0.75 0.43 -0.75 0.43 -0.75 0.42 -0.75 0.42 -0.76 0.42 -0.76 0.41 -0.75 0.41 -0.77 0.41 -0.76 0.4 -0.77 0.4 -0.78 0.39 -0.77 0.39 -0.78 0.38 -0.77 0.38 -0.78 0.37 -0.78 0.37 -0.78 0.37 -0.78 0.36 -0.78 0.36 -0.78 1.76 4.66zm2.9 -6.42l3.21 1.45 -1.45 3.21 -1.76 -4.66zm-23.76 -10.73l23.76 10.73 -2.9 6.42 -23.76 -10.73 -1.76 -4.66 4.66 -1.76zm-4.66 1.76l1.45 -3.21 3.21 1.45 -4.66 1.76zm-6.44 19.34l-3.94 5.84 -0.95 -4.89 0.41 -0.6 0.4 -0.6 0.4 -0.6 0.4 -0.61 0.39 -0.61 0.39 -0.62 0.39 -0.62 0.38 -0.62 0.38 -0.62 0.38 -0.62 0.37 -0.62 0.37 -0.63 0.37 -0.63 0.37 -0.63 0.36 -0.63 0.35 -0.63 0.35 -0.64 0.35 -0.65 0.35 -0.64 0.34 -0.64 0.34 -0.65 0.34 -0.64 0.33 -0.65 0.33 -0.65 0.32 -0.64 0.32 -0.66 0.32 -0.65 0.31 -0.65 0.31 -0.66 0.31 -0.66 0.3 -0.66 0.3 -0.66 6.42 2.9 -0.32 0.69 -0.32 0.69 -0.32 0.69 -0.33 0.69 -0.33 0.69 -0.34 0.69 -0.34 0.68 -0.34 0.69 -0.34 0.68 -0.35 0.68 -0.35 0.68 -0.35 0.68 -0.36 0.68 -0.37 0.68 -0.37 0.66 -0.37 0.67 -0.38 0.68 -0.38 0.67 -0.38 0.66 -0.39 0.66 -0.39 0.65 -0.4 0.67 -0.4 0.65 -0.4 0.65 -0.4 0.66 -0.41 0.65 -0.41 0.65 -0.42 0.64 -0.41 0.64 -0.42 0.65 -0.42 0.63 -0.42 0.63 -0.95 -4.89zm-3.94 5.84l-2.92 -1.97 1.97 -2.92 0.95 4.89zm-18.12 54.45l-15.56 -20.92 5.65 -4.2 15.56 20.92 -0.73 4.93 -4.93 -0.73zm4.93 0.73l-2.83 2.1 -2.1 -2.83 4.93 0.73zm16.61 -18.97l4.87 -5.09 0.11 4.98 -0.62 0.65 -0.63 0.64 -0.62 0.64 -0.64 0.65 -0.64 0.64 -0.64 0.63 -0.65 0.63 -0.65 0.63 -0.65 0.62 -0.65 0.62 -0.66 0.62 -0.66 0.61 -0.67 0.61 -0.67 0.6 -0.67 0.6 -0.68 0.6 -0.68 0.6 -0.68 0.59 -0.68 0.58 -0.69 0.59 -0.69 0.58 -0.69 0.57 -0.7 0.58 -0.7 0.57 -0.7 0.57 -0.7 0.56 -0.71 0.56 -0.71 0.55 -0.71 0.55 -0.72 0.55 -0.72 0.54 -0.72 0.54 -4.2 -5.65 0.69 -0.52 0.69 -0.52 0.68 -0.52 0.69 -0.53 0.68 -0.53 0.68 -0.53 0.68 -0.54 0.68 -0.54 0.67 -0.55 0.66 -0.55 0.67 -0.56 0.66 -0.56 0.65 -0.56 0.66 -0.57 0.65 -0.57 0.65 -0.57 0.64 -0.57 0.65 -0.58 0.64 -0.58 0.64 -0.58 0.64 -0.59 0.63 -0.59 0.63 -0.6 0.62 -0.6 0.62 -0.6 0.62 -0.61 0.62 -0.61 0.61 -0.61 0.6 -0.61 0.61 -0.62 0.6 -0.62 0.6 -0.62 0.11 4.98zm4.87 -5.09l2.55 2.43 -2.43 2.55 -0.11 -4.98zm-18.85 -18.01l18.85 18.01 -4.87 5.09 -18.85 -18.01 -0.11 -4.98 4.98 -0.11zm-4.98 0.11l2.43 -2.55 2.55 2.43 -4.98 0.11zm-12.49 16.12l-5.65 4.2 0.73 -4.93 0.58 -0.43 0.57 -0.44 0.58 -0.45 0.57 -0.44 0.57 -0.45 0.57 -0.45 0.58 -0.46 0.56 -0.45 0.55 -0.45 0.57 -0.47 0.56 -0.47 0.55 -0.47 0.56 -0.47 0.55 -0.47 0.54 -0.47 0.55 -0.49 0.55 -0.49 0.54 -0.48 0.54 -0.49 0.54 -0.49 0.54 -0.5 0.53 -0.5 0.53 -0.5 0.52 -0.5 0.52 -0.51 0.52 -0.51 0.52 -0.51 0.51 -0.51 0.51 -0.52 0.51 -0.52 0.5 -0.52 0.5 -0.52 5.09 4.86 -0.53 0.55 -0.53 0.55 -0.53 0.55 -0.54 0.55 -0.54 0.54 -0.54 0.54 -0.55 0.54 -0.55 0.53 -0.55 0.53 -0.56 0.52 -0.56 0.52 -0.56 0.52 -0.56 0.52 -0.57 0.52 -0.57 0.52 -0.57 0.5 -0.57 0.5 -0.58 0.51 -0.58 0.5 -0.58 0.5 -0.58 0.49 -0.59 0.49 -0.58 0.49 -0.6 0.49 -0.6 0.48 -0.59 0.47 -0.6 0.47 -0.61 0.47 -0.6 0.47 -0.6 0.46 -0.61 0.46 -0.61 0.46 0.73 -4.93zm-5.65 4.2l-2.1 -2.83 2.83 -2.1 -0.73 4.93zm-35.15 45.34l-7.69 -24.91 6.73 -2.08 7.69 24.91 -2.33 4.41 -4.41 -2.33zm4.41 2.33l-3.37 1.04 -1.04 -3.37 4.41 2.33zm21.99 -12.38l6.28 -3.19 -1.54 4.73 -0.8 0.41 -0.81 0.4 -0.81 0.4 -0.81 0.39 -0.81 0.39 -0.82 0.38 -0.82 0.38 -0.83 0.38 -0.83 0.37 -0.82 0.36 -0.83 0.37 -0.83 0.36 -0.82 0.35 -0.83 0.35 -0.84 0.34 -0.83 0.34 -0.84 0.34 -0.84 0.33 -0.84 0.33 -0.84 0.32 -0.85 0.32 -0.84 0.31 -0.85 0.31 -0.85 0.31 -0.85 0.3 -0.85 0.3 -0.85 0.29 -0.85 0.29 -0.86 0.28 -0.85 0.28 -0.85 0.27 -0.86 0.27 -2.08 -6.73 0.82 -0.25 0.83 -0.27 0.83 -0.27 0.81 -0.27 0.82 -0.28 0.82 -0.28 0.81 -0.28 0.82 -0.29 0.81 -0.29 0.81 -0.3 0.81 -0.3 0.8 -0.3 0.81 -0.31 0.81 -0.32 0.81 -0.32 0.8 -0.32 0.8 -0.33 0.8 -0.33 0.79 -0.34 0.8 -0.34 0.79 -0.34 0.79 -0.35 0.8 -0.36 0.79 -0.35 0.78 -0.36 0.79 -0.37 0.79 -0.37 0.78 -0.37 0.78 -0.38 0.78 -0.38 0.77 -0.38 0.77 -0.39 -1.54 4.73zm6.28 -3.19l1.59 3.14 -3.14 1.59 1.54 -4.73zm-11.81 -23.24l11.81 23.24 -6.28 3.19 -11.81 -23.24 1.54 -4.73 4.73 1.54zm-4.73 -1.54l3.14 -1.59 1.59 3.14 -4.73 -1.54zm-17.1 11.04l-6.73 2.08 2.33 -4.41 0.69 -0.22 0.69 -0.22 0.68 -0.22 0.7 -0.23 0.68 -0.23 0.68 -0.23 0.69 -0.24 0.69 -0.24 0.68 -0.24 0.68 -0.25 0.69 -0.25 0.68 -0.26 0.67 -0.26 0.68 -0.27 0.68 -0.27 0.67 -0.27 0.67 -0.28 0.68 -0.28 0.67 -0.28 0.67 -0.29 0.67 -0.29 0.67 -0.29 0.66 -0.29 0.66 -0.3 0.66 -0.3 0.66 -0.3 0.66 -0.31 0.65 -0.32 0.65 -0.31 0.65 -0.32 0.65 -0.32 0.65 -0.33 3.19 6.28 -0.68 0.34 -0.68 0.34 -0.68 0.34 -0.69 0.34 -0.69 0.33 -0.69 0.33 -0.69 0.32 -0.69 0.32 -0.7 0.32 -0.7 0.32 -0.7 0.3 -0.7 0.31 -0.71 0.3 -0.7 0.3 -0.7 0.29 -0.71 0.29 -0.71 0.29 -0.7 0.28 -0.71 0.28 -0.72 0.28 -0.72 0.27 -0.71 0.27 -0.72 0.26 -0.72 0.26 -0.71 0.25 -0.72 0.25 -0.73 0.25 -0.73 0.24 -0.72 0.24 -0.73 0.24 -0.73 0.23 -0.72 0.23 2.33 -4.41zm-6.73 2.08l-1.04 -3.37 3.37 -1.04 -2.33 4.41zm99.65 -224.15l0 -48.28 7.05 0 0 48.28 -6.51 1.87 -0.54 -1.87zm7.05 0l0 12.25 -6.51 -10.38 6.51 -1.87zm-53.36 -46.66l3.96 -5.83 0 0 1.85 1.27 1.82 1.29 1.81 1.31 1.79 1.34 1.77 1.36 1.75 1.38 1.73 1.4 1.71 1.42 1.69 1.44 1.67 1.46 1.65 1.48 1.63 1.5 1.61 1.52 1.59 1.54 1.57 1.56 1.54 1.58 1.52 1.6 1.5 1.62 1.48 1.64 1.45 1.65 1.44 1.67 1.42 1.7 1.39 1.71 1.37 1.73 1.35 1.75 1.32 1.77 1.3 1.78 1.28 1.8 1.26 1.82 1.24 1.83 1.21 1.85 1.19 1.86 -5.97 3.74 -1.14 -1.79 -1.16 -1.77 -1.18 -1.76 -1.2 -1.74 -1.23 -1.72 -1.25 -1.71 -1.27 -1.69 -1.29 -1.67 -1.31 -1.66 -1.33 -1.64 -1.35 -1.62 -1.38 -1.61 -1.4 -1.59 -1.42 -1.57 -1.44 -1.55 -1.46 -1.53 -1.48 -1.52 -1.5 -1.5 -1.52 -1.48 -1.54 -1.46 -1.56 -1.44 -1.58 -1.42 -1.6 -1.4 -1.62 -1.38 -1.64 -1.36 -1.66 -1.34 -1.68 -1.32 -1.7 -1.3 -1.72 -1.28 -1.73 -1.26 -1.75 -1.24 -1.77 -1.22 0 0zm-91.58 -28.08l0 -7.05 0 0 3.21 0.03 3.2 0.09 3.19 0.15 3.19 0.21 3.17 0.26 3.16 0.32 3.15 0.38 3.14 0.44 3.12 0.5 3.12 0.55 3.1 0.61 3.08 0.67 3.07 0.73 3.05 0.78 3.04 0.84 3.02 0.9 3 0.95 2.99 1.01 2.97 1.06 2.94 1.12 2.93 1.17 2.91 1.23 2.89 1.29 2.86 1.34 2.84 1.39 2.82 1.45 2.79 1.5 2.77 1.56 2.74 1.61 2.71 1.66 2.69 1.72 2.66 1.77 -3.96 5.83 -2.55 -1.7 -2.58 -1.64 -2.61 -1.6 -2.63 -1.54 -2.65 -1.49 -2.68 -1.44 -2.7 -1.39 -2.72 -1.34 -2.74 -1.28 -2.77 -1.23 -2.78 -1.18 -2.81 -1.13 -2.83 -1.07 -2.84 -1.02 -2.86 -0.96 -2.88 -0.91 -2.9 -0.86 -2.91 -0.8 -2.93 -0.75 -2.94 -0.7 -2.96 -0.64 -2.97 -0.59 -2.98 -0.53 -3 -0.47 -3.01 -0.42 -3.02 -0.37 -3.03 -0.31 -3.05 -0.26 -3.05 -0.2 -3.06 -0.14 -3.07 -0.08 -3.08 -0.03 0 0zm-115.48 47.83l-4.98 -4.98 0 0 3.05 -2.97 3.11 -2.89 3.17 -2.8 3.23 -2.71 3.28 -2.63 3.34 -2.54 3.39 -2.46 3.44 -2.36 3.49 -2.28 3.54 -2.19 3.59 -2.09 3.63 -2 3.68 -1.91 3.72 -1.82 3.77 -1.72 3.81 -1.63 3.84 -1.54 3.89 -1.44 3.92 -1.35 3.96 -1.25 3.99 -1.16 4.02 -1.06 4.05 -0.96 4.08 -0.86 4.1 -0.76 4.13 -0.66 4.16 -0.56 4.18 -0.46 4.2 -0.36 4.22 -0.25 4.24 -0.16 4.25 -0.05 0 7.05 -4.08 0.05 -4.07 0.15 -4.05 0.25 -4.02 0.34 -4.01 0.44 -3.99 0.54 -3.96 0.63 -3.94 0.73 -3.91 0.83 -3.88 0.92 -3.86 1.01 -3.82 1.1 -3.79 1.2 -3.76 1.29 -3.72 1.38 -3.68 1.47 -3.65 1.56 -3.61 1.65 -3.57 1.74 -3.53 1.83 -3.48 1.92 -3.44 2.01 -3.4 2.09 -3.35 2.18 -3.3 2.27 -3.25 2.35 -3.2 2.43 -3.15 2.52 -3.09 2.61 -3.04 2.69 -2.98 2.77 -2.92 2.85 0 0zm-47.84 115.49l-7.05 0 0 0 0.05 -4.26 0.16 -4.24 0.25 -4.22 0.36 -4.2 0.46 -4.18 0.56 -4.16 0.66 -4.13 0.76 -4.11 0.86 -4.08 0.96 -4.05 1.06 -4.02 1.16 -3.99 1.25 -3.96 1.35 -3.92 1.44 -3.89 1.54 -3.85 1.63 -3.81 1.72 -3.77 1.82 -3.72 1.91 -3.68 2 -3.63 2.09 -3.59 2.19 -3.54 2.28 -3.49 2.37 -3.44 2.45 -3.39 2.54 -3.34 2.63 -3.28 2.71 -3.22 2.8 -3.17 2.89 -3.1 2.97 -3.05 4.98 4.98 -2.85 2.92 -2.77 2.98 -2.69 3.04 -2.61 3.09 -2.52 3.15 -2.44 3.2 -2.35 3.25 -2.27 3.3 -2.18 3.35 -2.09 3.4 -2.01 3.44 -1.92 3.49 -1.83 3.53 -1.74 3.57 -1.65 3.61 -1.56 3.65 -1.47 3.69 -1.38 3.72 -1.29 3.76 -1.2 3.79 -1.1 3.82 -1.01 3.85 -0.92 3.88 -0.83 3.91 -0.73 3.94 -0.63 3.96 -0.54 3.99 -0.44 4.01 -0.34 4.03 -0.25 4.05 -0.15 4.07 -0.05 4.09 0 0zm47.84 115.49l-4.98 4.98 0 0 -2.97 -3.05 -2.89 -3.1 -2.8 -3.17 -2.71 -3.22 -2.63 -3.28 -2.54 -3.34 -2.45 -3.39 -2.37 -3.44 -2.28 -3.49 -2.19 -3.54 -2.09 -3.59 -2 -3.63 -1.91 -3.68 -1.82 -3.72 -1.72 -3.77 -1.63 -3.81 -1.54 -3.85 -1.44 -3.89 -1.35 -3.92 -1.25 -3.96 -1.16 -3.99 -1.06 -4.02 -0.96 -4.05 -0.86 -4.08 -0.76 -4.11 -0.66 -4.13 -0.56 -4.16 -0.46 -4.18 -0.36 -4.2 -0.25 -4.22 -0.16 -4.24 -0.05 -4.26 7.05 0 0.05 4.09 0.15 4.07 0.25 4.05 0.34 4.03 0.44 4.01 0.54 3.99 0.63 3.96 0.73 3.94 0.83 3.91 0.92 3.88 1.01 3.85 1.1 3.82 1.2 3.79 1.29 3.76 1.38 3.72 1.47 3.69 1.56 3.65 1.65 3.61 1.74 3.57 1.83 3.53 1.92 3.49 2.01 3.44 2.09 3.4 2.18 3.35 2.27 3.3 2.35 3.25 2.44 3.2 2.52 3.15 2.61 3.09 2.69 3.04 2.77 2.98 2.85 2.92 0 0zm115.48 47.84l0 7.05 0 0 -4.25 -0.05 -4.24 -0.16 -4.22 -0.25 -4.2 -0.36 -4.18 -0.46 -4.16 -0.56 -4.13 -0.66 -4.1 -0.76 -4.08 -0.86 -4.05 -0.96 -4.02 -1.06 -3.99 -1.16 -3.96 -1.25 -3.92 -1.35 -3.89 -1.44 -3.84 -1.54 -3.81 -1.63 -3.77 -1.73 -3.72 -1.82 -3.68 -1.91 -3.63 -2 -3.59 -2.09 -3.54 -2.19 -3.49 -2.27 -3.44 -2.37 -3.39 -2.45 -3.34 -2.54 -3.28 -2.63 -3.23 -2.71 -3.17 -2.8 -3.11 -2.89 -3.05 -2.97 4.98 -4.98 2.92 2.85 2.98 2.77 3.04 2.69 3.09 2.61 3.15 2.52 3.2 2.43 3.25 2.35 3.3 2.27 3.35 2.18 3.4 2.09 3.44 2.01 3.48 1.92 3.53 1.83 3.57 1.74 3.61 1.66 3.65 1.56 3.68 1.47 3.72 1.38 3.76 1.29 3.79 1.2 3.82 1.11 3.86 1.01 3.88 0.92 3.91 0.83 3.94 0.73 3.96 0.63 3.99 0.54 4.01 0.44 4.02 0.34 4.05 0.25 4.07 0.15 4.08 0.05 0 0zm18.21 2.57l6.99 -0.91 -3.04 3.95 -0.68 0.09 -0.68 0.08 -0.69 0.09 -0.69 0.08 -0.69 0.08 -0.69 0.07 -0.68 0.07 -0.69 0.07 -0.7 0.07 -0.69 0.06 -0.68 0.06 -0.69 0.06 -0.69 0.06 -0.7 0.05 -0.7 0.05 -0.68 0.04 -0.7 0.05 -0.7 0.04 -0.69 0.04 -0.7 0.04 -0.7 0.03 -0.69 0.03 -0.7 0.03 -0.7 0.02 -0.7 0.02 -0.7 0.02 -0.69 0.01 -0.7 0.02 -0.7 0.01 -0.69 0.01 -0.7 0.01 -0.7 0 0 -7.05 0.67 0 0.67 -0.01 0.67 -0.01 0.66 -0.01 0.67 -0.01 0.68 -0.01 0.66 -0.02 0.67 -0.02 0.67 -0.02 0.67 -0.03 0.68 -0.03 0.67 -0.03 0.65 -0.04 0.68 -0.04 0.67 -0.04 0.66 -0.04 0.67 -0.04 0.67 -0.05 0.65 -0.05 0.66 -0.06 0.67 -0.06 0.67 -0.06 0.66 -0.06 0.65 -0.06 0.66 -0.07 0.67 -0.07 0.66 -0.07 0.66 -0.07 0.66 -0.08 0.65 -0.08 0.66 -0.08 0.65 -0.08 -3.04 3.95zm6.99 -0.91l0.45 3.49 -3.49 0.45 3.04 -3.95zm-3.36 -25.85l3.36 25.85 -6.99 0.91 -3.36 -25.85 3.04 -3.95 3.95 3.04zm-3.95 -3.04l3.49 -0.45 0.45 3.49 -3.95 -3.04zm-17.89 8.2l0 -7.05 0 0 0.56 0 0.56 -0.01 0.57 -0.01 0.56 -0.01 0.56 -0.01 0.56 -0.01 0.56 -0.01 0.56 -0.02 0.57 -0.02 0.56 -0.02 0.56 -0.03 0.57 -0.02 0.57 -0.03 0.56 -0.03 0.56 -0.04 0.57 -0.03 0.56 -0.04 0.55 -0.04 0.56 -0.04 0.57 -0.04 0.55 -0.04 0.55 -0.05 0.56 -0.05 0.56 -0.05 0.55 -0.06 0.55 -0.06 0.56 -0.06 0.55 -0.06 0.55 -0.06 0.57 -0.07 0.55 -0.07 0.55 -0.07 0.91 6.99 -0.58 0.08 -0.59 0.07 -0.57 0.07 -0.59 0.07 -0.59 0.06 -0.58 0.06 -0.59 0.06 -0.59 0.06 -0.58 0.06 -0.58 0.05 -0.59 0.05 -0.59 0.05 -0.58 0.04 -0.59 0.05 -0.59 0.04 -0.59 0.04 -0.58 0.04 -0.59 0.04 -0.6 0.03 -0.58 0.03 -0.58 0.03 -0.59 0.03 -0.6 0.02 -0.58 0.02 -0.6 0.02 -0.59 0.01 -0.59 0.01 -0.6 0.01 -0.59 0.01 -0.57 0.01 -0.6 0.01 -0.59 0 0 0zm-144.3 -144.3l7.05 0 0 0 0.18 7.06 0.53 6.96 0.87 6.86 1.21 6.75 1.54 6.64 1.85 6.5 2.16 6.38 2.46 6.23 2.75 6.08 3.04 5.92 3.31 5.75 3.58 5.57 3.83 5.38 4.08 5.19 4.32 4.98 4.55 4.77 4.77 4.55 4.98 4.32 5.19 4.08 5.38 3.83 5.57 3.58 5.75 3.31 5.91 3.04 6.08 2.75 6.23 2.46 6.37 2.16 6.51 1.85 6.63 1.54 6.75 1.21 6.86 0.87 6.96 0.53 7.06 0.18 0 7.05 -7.41 -0.19 -7.32 -0.56 -7.21 -0.92 -7.1 -1.27 -6.97 -1.61 -6.84 -1.95 -6.7 -2.27 -6.55 -2.59 -6.39 -2.89 -6.22 -3.19 -6.04 -3.48 -5.85 -3.76 -5.66 -4.02 -5.45 -4.29 -5.24 -4.54 -5.01 -4.78 -4.78 -5.01 -4.54 -5.24 -4.29 -5.45 -4.03 -5.66 -3.76 -5.85 -3.48 -6.04 -3.19 -6.22 -2.89 -6.39 -2.59 -6.55 -2.27 -6.7 -1.95 -6.84 -1.61 -6.98 -1.27 -7.1 -0.92 -7.21 -0.56 -7.32 -0.19 -7.41 0 0zm144.3 -144.3l0 7.05 0 0 -7.06 0.18 -6.96 0.53 -6.86 0.87 -6.75 1.21 -6.63 1.54 -6.51 1.85 -6.37 2.16 -6.23 2.46 -6.08 2.75 -5.91 3.04 -5.75 3.31 -5.57 3.58 -5.38 3.83 -5.19 4.08 -4.98 4.32 -4.77 4.55 -4.55 4.77 -4.32 4.98 -4.08 5.19 -3.83 5.38 -3.58 5.57 -3.31 5.75 -3.04 5.92 -2.75 6.08 -2.46 6.23 -2.16 6.38 -1.85 6.5 -1.54 6.64 -1.21 6.75 -0.87 6.86 -0.53 6.96 -0.18 7.06 -7.05 0 0.19 -7.41 0.56 -7.32 0.92 -7.21 1.27 -7.1 1.61 -6.98 1.95 -6.84 2.27 -6.7 2.59 -6.55 2.89 -6.39 3.19 -6.22 3.48 -6.04 3.76 -5.85 4.03 -5.66 4.29 -5.45 4.54 -5.24 4.78 -5.01 5.01 -4.78 5.24 -4.54 5.45 -4.29 5.66 -4.02 5.85 -3.76 6.04 -3.48 6.22 -3.19 6.39 -2.89 6.55 -2.59 6.7 -2.27 6.84 -1.95 6.97 -1.61 7.1 -1.27 7.21 -0.92 7.32 -0.56 7.41 -0.19 0 0zm121.2 76.13l0 -7.05 -3.03 5.31 -2.35 -3.84 -2.47 -3.75 -2.58 -3.65 -2.69 -3.56 -2.8 -3.46 -2.89 -3.35 -3 -3.25 -3.1 -3.15 -3.19 -3.04 -3.29 -2.93 -3.37 -2.83 -3.46 -2.71 -3.54 -2.6 -3.62 -2.49 -3.7 -2.36 -3.78 -2.25 -3.85 -2.13 -3.92 -2 -3.99 -1.88 -4.05 -1.75 -4.11 -1.62 -4.17 -1.49 -4.22 -1.36 -4.27 -1.22 -4.32 -1.09 -4.37 -0.94 -4.42 -0.8 -4.46 -0.67 -4.5 -0.52 -4.53 -0.37 -4.56 -0.23 -4.6 -0.07 0 -7.05 4.83 0.08 4.8 0.24 4.76 0.39 4.73 0.55 4.68 0.7 4.64 0.85 4.6 1 4.55 1.14 4.49 1.29 4.44 1.42 4.38 1.57 4.32 1.7 4.26 1.84 4.19 1.97 4.12 2.11 4.05 2.23 3.97 2.36 3.89 2.49 3.81 2.61 3.73 2.73 3.64 2.85 3.55 2.97 3.45 3.09 3.36 3.2 3.25 3.31 3.15 3.42 3.05 3.53 2.94 3.63 2.83 3.74 2.71 3.84 2.6 3.94 2.47 4.04 -3.03 5.31zm3.03 -5.31l3.14 5.31 -6.17 0 3.03 -5.31zm-47.98 -1.73l44.95 0 0 7.05 -44.95 0 -3.52 -3.52 3.52 -3.52zm-3.52 3.52l0 -3.52 3.52 0 -3.52 3.52zm0 26.07l0 -26.07 7.05 0 0 26.07 -3.52 3.52 -3.52 -3.52zm3.52 3.52l-3.52 0 0 -3.52 3.52 3.52zm91.24 0l-91.24 0 0 -7.05 91.24 0 3.52 3.52 -3.52 3.52zm3.52 -3.52l0 3.52 -3.52 0 3.52 -3.52zm0 -91.24l0 91.24 -7.05 0 0 -91.24 3.52 -3.52 3.52 3.52zm-3.52 -3.52l3.52 0 0 3.52 -3.52 -3.52zm-26.07 0l26.07 0 0 7.05 -26.07 0 -3.52 -3.52 3.52 -3.52zm-3.52 3.52l0 -3.52 3.52 0 -3.52 3.52zm-124.22 23.08l-26.07 0 0 -7.05 26.07 0 3.52 3.52 -3.52 3.52zm0 -7.05l3.52 0 0 3.52 -3.52 -3.52zm-3.52 133.87l0 -130.35 7.05 0 0 130.35 -3.52 3.52 -3.52 -3.52zm7.05 0l0 3.52 -3.52 0 3.52 -3.52zm-102.59 -3.52l99.06 0 0 7.05 -99.06 0 -3.52 -3.52 3.52 -3.52zm0 7.05l-3.52 0 0 -3.52 3.52 3.52zm3.52 -29.59l0 26.07 -7.05 0 0 -26.07 3.52 -3.52 3.52 3.52zm-7.05 0l0 -3.52 3.52 0 -3.52 3.52zm76.52 3.52l-73 0 0 -7.05 73 0 3.52 3.52 -3.52 3.52zm3.52 -3.52l0 3.52 -3.52 0 3.52 -3.52zm0 -104.28l0 104.28 -7.05 0 0 -104.28 3.52 -3.52 3.52 3.52zm-7.05 0l0 -3.52 3.52 0 -3.52 3.52z"/>
  </g>
  <g>
   <path class="fil7" d="M1700.7 544.64c15.2,8.48 25.54,24.73 25.54,43.28l0 564.38c0,27.24 -22.28,49.52 -49.52,49.52l-843.2 0c-19.64,0 -36.7,-11.59 -44.69,-28.26 285.05,4.35 907.68,-56.05 911.86,-628.91z"/>
   <path class="fil8" d="M1714.69 723.39c6.87,3.83 11.55,11.2 11.55,19.57l0 412.88c0,22.38 -23.93,45.98 -45.98,45.98l-546.7 0c-8.88,0 -16.6,-5.24 -20.21,-12.78 234.6,-8.59 567.01,-143.98 601.34,-465.65z"/>
  </g>
 </g>
</svg>
