<?xml version="1.0" encoding="UTF-8"?>
<!DOCTYPE svg PUBLIC "-//W3C//DTD SVG 1.1//EN" "http://www.w3.org/Graphics/SVG/1.1/DTD/svg11.dtd">
<!-- Creator: CorelDRAW 2019 -->
<svg xmlns="http://www.w3.org/2000/svg" xml:space="preserve" width="59.972mm" height="42.3077mm" version="1.1" style="shape-rendering:geometricPrecision; text-rendering:geometricPrecision; image-rendering:optimizeQuality; fill-rule:evenodd; clip-rule:evenodd"
viewBox="0 0 1767.91 1247.18"
 xmlns:xlink="http://www.w3.org/1999/xlink"
 xmlns:xodm="http://www.corel.com/coreldraw/odm/2003">
 <defs>
  <style type="text/css">
   <![CDATA[
    .str0 {stroke:white;stroke-width:20.8;stroke-miterlimit:22.9256}
    .fil5 {fill:none}
    .fil0 {fill:#5A69F7}
    .fil1 {fill:#34DAEA;fill-rule:nonzero}
    .fil4 {fill:#5A69F7;fill-rule:nonzero}
    .fil8 {fill:white;fill-rule:nonzero}
    .fil7 {fill:white;fill-opacity:0.039216}
    .fil6 {fill:white;fill-opacity:0.058824}
    .fil3 {fill:url(#id1);fill-rule:nonzero}
    .fil2 {fill:url(#id2);fill-rule:nonzero}
   ]]>
  </style>
    <clipPath id="id0">
     <path d="M92.98 0l1581.96 0c51.14,0 92.97,41.84 92.97,92.98l0 1061.98c0,47.16 -35.58,86.41 -81.22,92.23l-1605.46 0c-45.65,-5.82 -81.23,-45.07 -81.23,-92.23l0 -1061.98c0,-51.14 41.84,-92.98 92.98,-92.98z"/>
    </clipPath>
  <linearGradient id="id1" gradientUnits="userSpaceOnUse" x1="-406.67" y1="-832.39" x2="1352.69" y2="-317.46">
   <stop offset="0" style="stop-opacity:1; stop-color:#00D9FF"/>
   <stop offset="0.419608" style="stop-opacity:1; stop-color:#1B75FD"/>
   <stop offset="1" style="stop-opacity:1; stop-color:#B357EF"/>
  </linearGradient>
  <linearGradient id="id2" gradientUnits="userSpaceOnUse" x1="32.57" y1="300.49" x2="1720.41" y2="60.26">
   <stop offset="0" style="stop-opacity:1; stop-color:#00D9FF"/>
   <stop offset="1" style="stop-opacity:1; stop-color:#5A69F7"/>
  </linearGradient>
 </defs>
 <g id="Слой_x0020_1">
  <metadata id="CorelCorpID_0Corel-Layer"/>
  <g id="_993138600">
   <path class="fil0" d="M92.98 0l1581.96 0c51.14,0 92.97,41.84 92.97,92.98l0 1061.98c0,47.16 -35.58,86.41 -81.22,92.23l-1605.46 0c-45.65,-5.82 -81.23,-45.07 -81.23,-92.23l0 -1061.98c0,-51.14 41.84,-92.98 92.98,-92.98z"/>
   <g style="clip-path:url(#id0)">
    <g>
     <path id="1" class="fil1" d="M1740.02 -1868.77c-6.13,-117.28 459.68,720 499.8,807.68 154.62,337.86 431.34,1359.08 414.34,1595.1l-737.55 -477.97c-878.95,-549.98 -141.61,-1259.73 -176.59,-1924.81z"/>
     <path class="fil2" d="M1730.23 -16.74l-1684.9 -9.48c-24.92,-0.14 -45.24,19.95 -45.38,44.87l-1.7 301.43c-0.04,6.02 2.88,11.74 7.89,15.07 103.62,68.83 243.35,81.17 367.9,55.86 150.6,-30.6 287.25,-106.75 427.76,-169.01 140.5,-62.26 294.74,-112 446.07,-85.19 142.79,25.3 264.15,115.03 392.96,181.64 34.38,17.78 70.96,33.84 108.51,46.59 11.7,3.97 23.89,-4.6 23.96,-16.96l1.8 -319.46c0.14,-24.92 -19.95,-45.24 -44.87,-45.38z"/>
     <path class="fil3" d="M966.84 -324.21l-1030.58 0c-154.27,0 -279.32,-125.06 -279.32,-279.32 0,-154.27 125.06,-279.34 279.32,-279.34l1030.58 0c154.26,0 279.33,125.07 279.33,279.34 0,154.27 -125.07,279.32 -279.33,279.32z"/>
     <path class="fil4 str0" d="M-10402.96 4640.92c-479.45,298.84 4105.76,-170.16 4562.1,-253.4 1758.42,-320.76 5590.42,-944.62 6474.47,-1661.75l-2958.76 -2689.96c-4590.04,-1951.75 -5358.41,2911.2 -8077.81,4605.12z"/>
    </g>
   </g>
   <path class="fil5" d="M92.98 0l1581.96 0c51.14,0 92.97,41.84 92.97,92.98l0 1061.98c0,47.16 -35.58,86.41 -81.22,92.23l-1605.46 0c-45.65,-5.82 -81.23,-45.07 -81.23,-92.23l0 -1061.98c0,-51.14 41.84,-92.98 92.98,-92.98z"/>
   <g>
    <path class="fil6" d="M1700.7 545.79c15.2,8.48 25.54,24.73 25.54,43.28l0 564.38c0,27.24 -22.28,49.52 -49.52,49.52l-843.2 0c-19.64,0 -36.7,-11.59 -44.69,-28.26 285.05,4.35 907.68,-56.05 911.86,-628.91z"/>
    <path class="fil7" d="M1714.69 724.54c6.87,3.83 11.55,11.2 11.55,19.57l0 412.88c0,22.38 -23.93,45.98 -45.98,45.98l-546.7 0c-8.88,0 -16.6,-5.24 -20.21,-12.78 234.6,-8.59 567.01,-143.98 601.34,-465.65z"/>
   </g>
  </g>
  <g id="_993140544">
   <polygon class="fil8" points="950.83,799.56 1182.61,1125.12 1011.17,1247.18 1123.78,1247.18 1273.71,1140.44 966.14,708.43 235.16,1228.86 248.21,1247.18 328.39,1247.18 326.27,1244.22 "/>
   <path class="fil8" d="M766.75 850.39l128.17 21.71c1.46,3.12 2.07,6.35 4.14,9.25 16.99,23.87 50.04,29.43 73.89,12.45 2.91,-2.07 4.54,-4.97 6.92,-7.43l128.2 21.42 -141.93 -199.36 -199.38 141.95z"/>
   <path class="fil8" d="M1013.54 1000.32c16.85,23.67 11.3,56.73 -12.55,73.71 -23.82,16.96 -56.88,11.39 -73.74,-12.28 -16.99,-23.87 -11.41,-56.89 12.42,-73.85 23.85,-16.98 56.87,-11.45 73.87,12.42z"/>
   <path class="fil8" d="M884.94 1091.88c32.14,45.14 29.5,105.77 -1.47,155.31l-275.19 0c-20.98,-59.49 4.32,-132.52 65.38,-176 72.01,-51.27 166.58,-42.1 211.29,20.69z"/>
   <path class="fil8" d="M430.04 1247.18c-0.93,-8.76 -4.07,-17.42 -9.55,-25.12 -2.07,-2.91 -4.91,-4.53 -7.38,-6.95l21.43 -128.21 -199.38 141.95 13.05 18.33 181.83 0z"/>
   <path class="fil8" d="M1100.8 1073.37c-23.85,16.98 -29.41,50.03 -12.44,73.87 2.07,2.91 4.93,4.56 7.39,6.94l-15.54 93 43.57 0 149.93 -106.74 -141.95 -199.38 -21.55 128.07c-3.1,1.44 -6.5,2.18 -9.41,4.25z"/>
   <path class="fil8" d="M681.19 730.2c16.85,23.67 11.3,56.73 -12.55,73.71 -23.82,16.96 -56.72,11.27 -73.57,-12.4 -16.96,-23.82 -11.58,-56.78 12.24,-73.74 23.85,-16.98 56.91,-11.4 73.88,12.43z"/>
   <path class="fil8" d="M176.87 1247.18c-7.69,-24.57 0.79,-52.44 22.83,-68.13l27.25 -19.4 -1.64 -5.13 234.65 -484.4 35.48 -12.3c2.68,2.02 4.96,4.52 8.3,6.12 26.23,12.85 57.92,1.73 70.67,-24.68 1.54,-3.03 1.8,-6.41 2.5,-9.85l35.52 -12.32 154.17 74.76 12.31 35.47c-2.04,2.69 -4.55,5 -6.24,8.13 -5.91,12.28 -6.14,25.66 -2.76,37.62l127.32 -90.65 -197.62 -95.64 -220.22 -106.71 -106.6 220.37 -177.81 366.83 -87.17 179.89 69.06 0z"/>
   <path class="fil8" d="M397.22 938.7c-17.81,36.4 -21.46,75.22 -14.38,109.96l240.28 -171.07c-9.1,-8.65 -19.08,-16.43 -30.81,-22.27 -69.3,-33.53 -156.59,3.91 -195.09,83.38z"/>
  </g>
 </g>
</svg>
