<?xml version="1.0" encoding="UTF-8"?>
<!DOCTYPE svg PUBLIC "-//W3C//DTD SVG 1.1//EN" "http://www.w3.org/Graphics/SVG/1.1/DTD/svg11.dtd">
<!-- Creator: CorelDRAW 2019 -->
<svg xmlns="http://www.w3.org/2000/svg" xml:space="preserve" width="67.0548mm" height="47.3326mm" version="1.1" style="shape-rendering:geometricPrecision; text-rendering:geometricPrecision; image-rendering:optimizeQuality; fill-rule:evenodd; clip-rule:evenodd"
viewBox="0 0 1642.38 1159.32"
 xmlns:xlink="http://www.w3.org/1999/xlink"
 xmlns:xodm="http://www.corel.com/coreldraw/odm/2003">
 <defs>
  <style type="text/css">
   <![CDATA[
    .fil2 {fill:none}
    .fil0 {fill:white}
    .fil1 {fill:#34DAEA;fill-rule:nonzero}
    .fil6 {fill:white;fill-rule:nonzero}
    .fil3 {fill:white;fill-rule:nonzero}
    .fil5 {fill:url(#id1);fill-rule:nonzero}
    .fil4 {fill:url(#id2);fill-rule:nonzero}
   ]]>
  </style>
    <clipPath id="id0">
     <path d="M86.37 1159.32l1469.63 0c47.51,0 86.37,-38.87 86.37,-86.37l0 -986.57c0,-47.51 -38.87,-86.37 -86.37,-86.37l-1469.63 0c-47.51,0 -86.37,38.87 -86.37,86.37l0 986.57c0,47.51 38.87,86.37 86.37,86.37z"/>
    </clipPath>
  <linearGradient id="id1" gradientUnits="userSpaceOnUse" x1="772.86" y1="599" x2="919.38" y2="690.23">
   <stop offset="0" style="stop-opacity:1; stop-color:#3795FA"/>
   <stop offset="1" style="stop-opacity:1; stop-color:#5174F8"/>
  </linearGradient>
  <linearGradient id="id2" gradientUnits="userSpaceOnUse" x1="234.36" y1="570.73" x2="1060.17" y2="967.69">
   <stop offset="0" style="stop-opacity:1; stop-color:#00D9FF"/>
   <stop offset="1" style="stop-opacity:1; stop-color:#5A69F7"/>
  </linearGradient>
 </defs>
 <g id="Слой_x0020_1">
  <metadata id="CorelCorpID_0Corel-Layer"/>
  <g id="_933436016">
   <path class="fil0" d="M86.37 1159.32l1469.63 0c47.51,0 86.37,-38.87 86.37,-86.37l0 -986.57c0,-47.51 -38.87,-86.37 -86.37,-86.37l-1469.63 0c-47.51,0 -86.37,38.87 -86.37,86.37l0 986.57c0,47.51 38.87,86.37 86.37,86.37z"/>
   <g style="clip-path:url(#id0)">
    <g>
     <path id="1" class="fil1" d="M1616.47 2895.4c-5.7,108.95 427.04,-668.87 464.31,-750.33 143.64,-313.87 400.71,-1262.58 384.92,-1481.84l-685.18 444.03c-816.54,510.93 -131.56,1170.29 -164.05,1788.14z"/>
    </g>
   </g>
   <path class="fil2" d="M86.37 1159.32l1469.63 0c47.51,0 86.37,-38.87 86.37,-86.37l0 -986.57c0,-47.51 -38.87,-86.37 -86.37,-86.37l-1469.63 0c-47.51,0 -86.37,38.87 -86.37,86.37l0 986.57c0,47.51 38.87,86.37 86.37,86.37z"/>
   <polygon class="fil3" points="930.66,851.87 930.66,830.32 918.11,851.87 "/>
   <path class="fil3" d="M780.95 962.7c-1.21,1.24 -1.97,2.96 -2.29,5.1l14.85 0c-0.17,-2.31 -0.91,-4.02 -2.31,-5.18 -1.38,-1.22 -3.11,-1.79 -5.08,-1.79 -2.21,0 -3.93,0.65 -5.16,1.87z"/>
   <path class="fil3" d="M1007.48 863.69c2.22,0 3.94,-0.82 5.15,-2.54 1.24,-1.66 1.89,-3.78 1.89,-6.4 0,-2.87 -0.73,-5.16 -2.12,-6.72 -1.49,-1.58 -3.22,-2.3 -5.25,-2.3 -1.72,0 -3.22,0.5 -4.51,1.46 -1.89,1.58 -2.88,3.95 -2.88,7.31 0,2.71 0.74,4.93 2.21,6.57 1.41,1.73 3.3,2.63 5.5,2.63z"/>
   <path class="fil4" d="M242.58 1052.98c7.79,3.69 16.4,5.89 25.58,5.89l777.36 0c16.39,0 31.23,-6.63 42.14,-17.38 11.38,-11.14 18.59,-26.72 18.59,-44.01l0 -452.13c0,-17.31 -7.21,-32.98 -18.59,-44.11 -10.91,-10.75 -25.75,-17.38 -42.14,-17.38l-777.36 0c-33.45,0 -60.68,27.54 -60.68,61.5l0 452.13c0,24.51 14.44,45.64 35.09,55.49zm508.7 -407.85c0,-45.75 37.23,-82.9 82.87,-82.9 18.05,0 34.61,6 48.2,15.74 14.11,-11.32 31.82,-18.36 51.26,-18.36 16.72,0 32.21,5.1 45.24,13.62 10.67,7.05 19.44,16.72 25.9,27.78 7.05,12.21 11.4,26.15 11.4,41.16 0,45.58 -37.04,82.56 -82.54,82.56 -17.8,0 -34.28,-5.75 -47.73,-15.42 -14.25,11.47 -32.05,18.61 -51.73,18.61 -26.72,0 -50.33,-12.94 -65.5,-32.64 -6.79,-8.85 -11.88,-19.09 -14.66,-30.23 -1.56,-6.4 -2.71,-13.04 -2.71,-19.92z"/>
   <path class="fil5" d="M784.9 688.65c12.13,13.68 29.59,22.54 49.26,22.54 14.11,0 27.06,-4.51 37.81,-12.04l27.7 0c0.25,-0.17 0.42,-0.43 0.58,-0.59 4.51,-3.59 8.61,-7.61 12.13,-12.22l-48.28 0c-1.98,-3.11 -3.78,-6.38 -5.34,-9.82l60.02 0c2.12,-4.03 3.84,-8.29 5.25,-12.72l-69.7 0c-0.31,-1.07 -0.73,-2.04 -0.98,-3.02 -0.57,-2.62 -0.82,-5.33 -1.13,-8.04l74.36 0c0.39,-3.27 0.98,-6.57 0.98,-10.01 0,-0.91 -0.25,-1.8 -0.25,-2.71l-75.99 0c0.08,-3.67 0.48,-7.2 1.07,-10.72l73.77 0c-0.82,-4.43 -2.12,-8.61 -3.78,-12.72l-66.81 0c1.24,-3.84 2.71,-7.44 4.52,-11.06l56.72 0c-1.15,-1.89 -2.7,-3.52 -4.02,-5.32 -1.79,-2.45 -3.44,-5.17 -5.65,-7.39l-39.18 0c0.73,-1.05 1.55,-1.95 2.37,-2.93 -10.41,-6.81 -22.79,-10.84 -36.16,-10.84 -36.39,0 -66.07,29.59 -66.07,66.09 0,4.65 0.57,9.18 1.47,13.52 2.39,11.47 7.86,21.64 15.34,30.01z"/>
   <g>
    <path class="fil6" d="M632.55 784.61c-0.13,1.57 -0.29,3.13 -0.46,4.69l0.01 0c-0.84,7.45 -2.19,14.85 -4.07,22.07l28.5 7.38c2.66,-10.26 4.46,-20.84 5.35,-31.44l-0.02 -0c0.08,-0.9 0.16,-1.8 0.22,-2.7l-29.53 0 0 0zm-26.57 75.61l24.4 16.48c5.95,-8.81 11.18,-18.18 15.55,-27.85l-26.83 -12.12c-3.68,8.15 -8.1,16.06 -13.12,23.49zm-37.06 38.78l17.57 23.62c8.51,-6.33 16.55,-13.43 23.88,-21.11l-21.28 -20.34c-6.2,6.48 -12.98,12.48 -20.17,17.83zm-47.78 24.27l8.69 28.13c10.14,-3.13 20.08,-7.16 29.56,-11.97l-13.33 -26.24c-7.99,4.06 -16.37,7.45 -24.91,10.09zm112.71 -306.45l0 54.51c-13.84,-22.09 -32.17,-41.13 -54.05,-55.98 -31.23,-21.19 -67.77,-32.39 -105.65,-32.39 -50.32,0 -97.63,19.6 -133.22,55.18 -35.58,35.58 -55.18,82.89 -55.18,133.22 0,50.32 19.6,97.63 55.18,133.22 35.58,35.58 82.89,55.18 133.22,55.18 8.19,0 16.44,-0.53 24.51,-1.58l-3.8 -29.19c-6.82,0.89 -13.78,1.34 -20.71,1.34 -87.65,0 -158.96,-71.31 -158.96,-158.96 0,-87.65 71.31,-158.96 158.96,-158.96 56.89,0 108.52,30.01 136.86,78.01l-50.75 0 0 29.44 103.03 0 0 -103.03 -29.44 0zm-173.68 22.08l29.44 0 0 147.19 -111.86 0 0 -29.44 82.42 0 0 -117.75z"/>
    <path id="1" class="fil6" d="M632.08 785.32l0 7.96 -3.95 -4.42 0.02 -0.14 0.01 -0.14 0.02 -0.14 0.01 -0.15 0.02 -0.14 0.01 -0.14 0.02 -0.15 0.01 -0.11 0.01 -0.14 0.02 -0.18 0.02 -0.15 0.01 -0.11 0.01 -0.14 0.01 -0.15 0.01 -0.15 0.02 -0.15 0.01 -0.14 0.01 -0.11 0.01 -0.15 0.02 -0.18 0.01 -0.15 0.01 -0.11 0.01 -0.15 0.01 -0.15 0.01 -0.15 0.01 -0.15 0.01 -0.12 0.01 -0.18 0.01 -0.15 0.01 -0.12 0.01 -0.15 0.01 -0.15 7.93 0.67 -0.01 0.14 -0.01 0.15 -0.01 0.18 -0.01 0.15 -0.01 0.12 -0.01 0.18 -0.01 0.15 -0.01 0.15 -0.01 0.15 -0.01 0.15 -0.02 0.18 -0.01 0.15 -0.01 0.11 -0.01 0.15 -0.02 0.18 -0.01 0.14 -0.01 0.14 -0.01 0.15 -0.01 0.15 -0.02 0.15 -0.02 0.18 -0.02 0.14 -0.01 0.12 -0.02 0.15 -0.02 0.18 -0.02 0.14 -0.01 0.15 -0.02 0.14 -0.01 0.14 -0.02 0.15 -0.01 0.14 -0.02 0.16 -3.95 -4.42zm0 7.96l-4.45 0 0.49 -4.42 3.95 4.42zm0.01 0l-0.01 0 0 -7.96 0.01 0 3.95 4.42 -3.95 3.53zm0 -7.96l4.45 0 -0.5 4.42 -3.95 -4.42zm-3.07 22.19l-1.99 7.7 -2.85 -4.85 0.17 -0.66 0.17 -0.66 0.16 -0.66 0.16 -0.67 0.16 -0.66 0.15 -0.66 0.15 -0.67 0.15 -0.67 0.14 -0.66 0.14 -0.67 0.14 -0.67 0.14 -0.67 0.13 -0.67 0.13 -0.67 0.13 -0.67 0.12 -0.68 0.12 -0.68 0.12 -0.67 0.12 -0.68 0.12 -0.68 0.11 -0.67 0.11 -0.68 0.11 -0.68 0.1 -0.68 0.1 -0.67 0.1 -0.68 0.09 -0.69 0.09 -0.67 0.09 -0.68 0.08 -0.68 0.08 -0.69 0.08 -0.68 7.9 0.89 -0.08 0.72 -0.09 0.71 -0.09 0.71 -0.09 0.72 -0.1 0.72 -0.1 0.71 -0.1 0.71 -0.1 0.72 -0.11 0.72 -0.11 0.71 -0.11 0.71 -0.12 0.72 -0.12 0.71 -0.12 0.7 -0.13 0.72 -0.13 0.71 -0.13 0.71 -0.14 0.71 -0.14 0.7 -0.14 0.71 -0.14 0.7 -0.14 0.7 -0.15 0.71 -0.15 0.71 -0.16 0.7 -0.16 0.7 -0.16 0.7 -0.17 0.7 -0.17 0.7 -0.17 0.69 -0.18 0.7 -0.18 0.69 -2.85 -4.85zm-1.99 7.7l-3.85 -1 1 -3.85 2.85 4.85zm28.5 7.38l-28.5 -7.38 1.99 -7.7 28.5 7.38 2.85 4.85 -4.85 2.85zm4.85 -2.85l-1 3.85 -3.85 -1 4.85 -2.85zm1.06 -28.48l0.88 -7.91 3.52 4.29 -0.09 1.01 -0.09 1.01 -0.1 1.02 -0.1 1.01 -0.11 1.01 -0.12 1.02 -0.12 1.02 -0.13 1.01 -0.13 1.01 -0.14 1.01 -0.14 1.01 -0.15 1.01 -0.15 1.01 -0.16 1.01 -0.16 1.01 -0.17 1 -0.17 1 -0.18 1 -0.18 1 -0.19 1.01 -0.19 1 -0.2 1 -0.2 1 -0.21 0.99 -0.22 1 -0.22 0.99 -0.23 0.99 -0.23 0.99 -0.24 0.99 -0.24 0.98 -0.24 0.98 -0.25 0.98 -7.7 -1.99 0.24 -0.94 0.24 -0.95 0.23 -0.95 0.23 -0.95 0.22 -0.95 0.22 -0.95 0.21 -0.95 0.21 -0.95 0.2 -0.96 0.2 -0.96 0.19 -0.96 0.19 -0.96 0.18 -0.96 0.17 -0.96 0.17 -0.96 0.16 -0.97 0.16 -0.97 0.15 -0.96 0.15 -0.97 0.15 -0.97 0.14 -0.97 0.13 -0.97 0.13 -0.97 0.12 -0.97 0.12 -0.97 0.12 -0.97 0.11 -0.97 0.1 -0.97 0.1 -0.98 0.1 -0.97 0.09 -0.97 0.08 -0.97 3.52 4.29zm0.88 -7.91l3.85 0.43 -0.32 3.86 -3.52 -4.29zm-0.02 -0l0.02 0 -0.88 7.91 -0.02 -0 -3.52 -4.3 4.4 -3.61zm-0.88 7.91l-3.86 -0.43 0.34 -3.87 3.52 4.3zm0.66 -2.68l0 -7.96 3.97 4.25 -0.01 0.1 -0.01 0.08 -0 0.09 -0.01 0.08 -0 0.09 -0.01 0.08 -0 0.09 -0.01 0.14 -0 0.03 -0 0.08 -0.01 0.14 -0 0.02 -0 0.09 -0.01 0.14 -0.01 0.09 -0.01 0.08 -0.01 0.09 -0 0.02 -0 0.09 -0.01 0.15 -0 0.08 -0.01 0.09 -0.01 0.08 -0.01 0.09 -0.01 0.08 -0.01 0.09 -0.01 0.09 -0 0.08 -0.01 0.09 -0.01 0.08 -0.01 0.09 -0.01 0.08 -7.93 -0.69 0.01 -0.08 0.01 -0.09 0.01 -0.08 0.01 -0.09 0.01 -0.09 0 -0.08 0.01 -0.09 0.01 -0.08 0.01 -0.09 0.01 -0.08 0.01 -0.09 0.01 -0.09 0 -0.02 0 -0.09 0.01 -0.14 0.01 -0.09 0.01 -0.08 0.01 -0.09 0 -0.02 0 -0.09 0.01 -0.14 0 -0.03 0 -0.08 0.01 -0.14 0 -0.02 0 -0.09 0.01 -0.08 0 -0.09 0.01 -0.08 0 -0.09 0.01 -0.08 0 -0.07 3.97 4.25zm0 -7.96l4.25 0 -0.29 4.25 -3.97 -4.25zm-29.53 0l29.53 0 0 7.96 -29.53 0 -3.96 -4.31 3.96 -3.64zm-3.96 3.64l0.31 -3.64 3.66 0 -3.96 3.64zm3.96 0.33l0 0 0 0 0 0 3.96 0.33 -3.96 -0.33zm-3.96 -0.33l0.31 -3.64 3.66 0 -3.96 3.64zm-0.44 95.72l-24.4 -16.48 4.45 -6.59 24.4 16.48 1.07 5.52 -5.52 1.07zm5.52 -1.07l-2.23 3.29 -3.3 -2.23 5.52 -1.07zm10.62 -26.45l3.27 -7.25 1.99 5.26 -0.42 0.92 -0.43 0.93 -0.43 0.92 -0.43 0.91 -0.44 0.92 -0.45 0.92 -0.45 0.91 -0.46 0.91 -0.46 0.9 -0.46 0.9 -0.47 0.91 -0.48 0.9 -0.48 0.89 -0.49 0.9 -0.49 0.89 -0.5 0.89 -0.5 0.88 -0.5 0.89 -0.51 0.89 -0.51 0.88 -0.52 0.88 -0.52 0.87 -0.53 0.88 -0.53 0.87 -0.54 0.86 -0.54 0.87 -0.54 0.86 -0.55 0.85 -0.55 0.85 -0.56 0.86 -0.56 0.85 -0.57 0.85 -6.59 -4.45 0.55 -0.81 0.54 -0.81 0.54 -0.81 0.53 -0.82 0.53 -0.83 0.52 -0.83 0.52 -0.83 0.51 -0.83 0.51 -0.84 0.5 -0.83 0.5 -0.85 0.5 -0.84 0.49 -0.84 0.49 -0.85 0.48 -0.85 0.48 -0.85 0.47 -0.85 0.47 -0.86 0.46 -0.86 0.47 -0.87 0.46 -0.86 0.45 -0.86 0.45 -0.87 0.44 -0.87 0.44 -0.87 0.43 -0.87 0.43 -0.88 0.42 -0.88 0.42 -0.88 0.41 -0.88 0.4 -0.88 0.4 -0.89 1.99 5.26zm3.27 -7.25l3.62 1.64 -1.64 3.62 -1.99 -5.26zm-26.83 -12.12l26.83 12.12 -3.27 7.25 -26.83 -12.12 -1.99 -5.26 5.26 -1.99zm-5.26 1.99l1.64 -3.62 3.62 1.64 -5.26 1.99zm-7.27 21.83l-4.45 6.59 -1.07 -5.52 0.45 -0.68 0.46 -0.69 0.45 -0.69 0.45 -0.69 0.44 -0.69 0.44 -0.69 0.43 -0.7 0.44 -0.71 0.43 -0.7 0.42 -0.7 0.42 -0.71 0.42 -0.71 0.41 -0.71 0.41 -0.71 0.41 -0.72 0.4 -0.72 0.4 -0.72 0.39 -0.72 0.39 -0.72 0.38 -0.72 0.38 -0.73 0.38 -0.73 0.37 -0.73 0.37 -0.73 0.36 -0.73 0.36 -0.73 0.36 -0.74 0.36 -0.74 0.35 -0.74 0.35 -0.74 0.34 -0.74 0.34 -0.75 7.25 3.28 -0.36 0.78 -0.36 0.79 -0.37 0.78 -0.37 0.77 -0.37 0.77 -0.38 0.77 -0.38 0.78 -0.39 0.78 -0.39 0.76 -0.39 0.77 -0.4 0.76 -0.4 0.76 -0.41 0.77 -0.41 0.76 -0.41 0.75 -0.42 0.76 -0.42 0.75 -0.43 0.75 -0.43 0.75 -0.43 0.74 -0.44 0.74 -0.44 0.74 -0.45 0.74 -0.45 0.74 -0.45 0.73 -0.46 0.73 -0.46 0.73 -0.47 0.73 -0.47 0.72 -0.48 0.72 -0.48 0.72 -0.48 0.72 -1.07 -5.52zm-4.45 6.59l-3.29 -2.22 2.23 -3.3 1.07 5.52zm-20.46 61.48l-17.57 -23.62 6.38 -4.75 17.57 23.62 -0.82 5.56 -5.56 -0.82zm5.56 0.82l-3.19 2.37 -2.37 -3.19 5.56 0.82zm18.76 -21.42l5.5 -5.75 0.13 5.62 -0.71 0.73 -0.71 0.73 -0.71 0.72 -0.72 0.72 -0.72 0.72 -0.72 0.72 -0.73 0.71 -0.73 0.71 -0.74 0.7 -0.74 0.7 -0.75 0.7 -0.75 0.69 -0.75 0.69 -0.75 0.69 -0.76 0.68 -0.76 0.68 -0.77 0.67 -0.77 0.67 -0.77 0.66 -0.77 0.66 -0.78 0.66 -0.78 0.65 -0.79 0.65 -0.79 0.64 -0.79 0.64 -0.8 0.64 -0.8 0.63 -0.8 0.62 -0.8 0.62 -0.81 0.62 -0.81 0.61 -0.81 0.61 -4.75 -6.38 0.78 -0.58 0.78 -0.59 0.77 -0.59 0.77 -0.6 0.77 -0.6 0.77 -0.6 0.76 -0.6 0.76 -0.62 0.76 -0.62 0.75 -0.62 0.75 -0.62 0.75 -0.63 0.74 -0.63 0.74 -0.64 0.74 -0.64 0.73 -0.64 0.73 -0.65 0.73 -0.65 0.72 -0.66 0.72 -0.66 0.72 -0.66 0.71 -0.66 0.71 -0.68 0.71 -0.67 0.7 -0.68 0.7 -0.68 0.69 -0.69 0.69 -0.69 0.69 -0.69 0.68 -0.7 0.68 -0.7 0.68 -0.7 0.13 5.62zm5.5 -5.75l2.88 2.75 -2.75 2.88 -0.13 -5.62zm-21.28 -20.34l21.28 20.34 -5.5 5.75 -21.28 -20.34 -0.13 -5.62 5.62 -0.13zm-5.62 0.13l2.75 -2.88 2.88 2.75 -5.62 0.13zm-14.1 18.2l-6.38 4.75 0.82 -5.56 0.66 -0.49 0.65 -0.49 0.65 -0.5 0.65 -0.5 0.65 -0.51 0.64 -0.5 0.64 -0.51 0.64 -0.52 0.63 -0.52 0.63 -0.52 0.63 -0.53 0.62 -0.53 0.63 -0.53 0.62 -0.54 0.62 -0.54 0.62 -0.54 0.61 -0.55 0.61 -0.55 0.6 -0.55 0.61 -0.56 0.6 -0.56 0.6 -0.56 0.6 -0.57 0.6 -0.57 0.59 -0.57 0.59 -0.58 0.58 -0.58 0.58 -0.58 0.58 -0.59 0.58 -0.59 0.57 -0.59 0.57 -0.59 5.75 5.5 -0.6 0.62 -0.6 0.62 -0.6 0.61 -0.6 0.61 -0.61 0.61 -0.62 0.61 -0.62 0.6 -0.62 0.6 -0.62 0.6 -0.63 0.6 -0.63 0.59 -0.63 0.59 -0.63 0.58 -0.64 0.58 -0.65 0.58 -0.64 0.58 -0.65 0.57 -0.65 0.57 -0.66 0.57 -0.66 0.56 -0.66 0.56 -0.66 0.55 -0.66 0.55 -0.67 0.55 -0.67 0.54 -0.67 0.54 -0.68 0.54 -0.68 0.53 -0.68 0.52 -0.69 0.52 -0.69 0.52 -0.69 0.51 0.82 -5.56zm-6.38 4.75l-2.37 -3.19 3.19 -2.37 -0.82 5.56zm-39.69 51.19l-8.69 -28.13 7.6 -2.35 8.69 28.13 -2.63 4.97 -4.97 -2.63zm4.97 2.63l-3.8 1.17 -1.17 -3.8 4.97 2.63zm24.84 -13.97l7.09 -3.6 -1.74 5.34 -0.91 0.46 -0.91 0.46 -0.91 0.45 -0.92 0.44 -0.92 0.44 -0.92 0.44 -0.92 0.43 -0.93 0.43 -0.93 0.42 -0.93 0.42 -0.93 0.41 -0.94 0.41 -0.94 0.4 -0.94 0.4 -0.94 0.39 -0.94 0.38 -0.95 0.38 -0.95 0.38 -0.95 0.37 -0.95 0.36 -0.95 0.36 -0.96 0.36 -0.96 0.35 -0.96 0.34 -0.95 0.34 -0.97 0.34 -0.96 0.33 -0.97 0.33 -0.97 0.32 -0.97 0.31 -0.97 0.31 -0.97 0.3 -2.35 -7.6 0.93 -0.29 0.93 -0.29 0.93 -0.3 0.92 -0.3 0.93 -0.31 0.92 -0.31 0.92 -0.32 0.93 -0.33 0.92 -0.33 0.91 -0.33 0.92 -0.34 0.91 -0.35 0.92 -0.35 0.91 -0.35 0.9 -0.36 0.91 -0.37 0.91 -0.37 0.9 -0.37 0.9 -0.38 0.9 -0.38 0.9 -0.39 0.89 -0.39 0.89 -0.4 0.89 -0.4 0.89 -0.41 0.88 -0.41 0.88 -0.42 0.88 -0.42 0.88 -0.43 0.87 -0.43 0.87 -0.44 0.87 -0.44 -1.74 5.34zm7.09 -3.6l1.8 3.54 -3.54 1.8 1.74 -5.34zm-13.33 -26.24l13.33 26.24 -7.09 3.6 -13.33 -26.24 1.74 -5.35 5.34 1.75zm-5.34 -1.75l3.54 -1.8 1.8 3.55 -5.34 -1.75zm-19.31 12.46l-7.6 2.35 2.63 -4.97 0.78 -0.24 0.78 -0.25 0.78 -0.25 0.78 -0.25 0.77 -0.26 0.77 -0.26 0.78 -0.27 0.77 -0.27 0.77 -0.28 0.77 -0.28 0.77 -0.29 0.77 -0.29 0.76 -0.29 0.76 -0.3 0.77 -0.3 0.76 -0.31 0.76 -0.31 0.75 -0.31 0.75 -0.32 0.76 -0.33 0.75 -0.32 0.75 -0.33 0.75 -0.33 0.75 -0.34 0.74 -0.34 0.74 -0.35 0.74 -0.35 0.75 -0.36 0.73 -0.35 0.73 -0.36 0.74 -0.37 0.73 -0.37 3.6 7.09 -0.77 0.39 -0.77 0.38 -0.78 0.38 -0.78 0.38 -0.77 0.37 -0.78 0.37 -0.78 0.36 -0.78 0.36 -0.79 0.36 -0.78 0.35 -0.79 0.35 -0.8 0.34 -0.79 0.34 -0.8 0.34 -0.8 0.33 -0.8 0.33 -0.8 0.32 -0.8 0.32 -0.81 0.31 -0.81 0.31 -0.8 0.3 -0.81 0.3 -0.81 0.3 -0.81 0.29 -0.81 0.28 -0.81 0.28 -0.82 0.28 -0.82 0.27 -0.82 0.27 -0.81 0.26 -0.82 0.26 -0.82 0.26 2.63 -4.97zm-7.6 2.35l-1.17 -3.8 3.8 -1.17 -2.63 4.97zm112.53 -253.11l0 -54.51 7.96 0 0 54.51 -7.35 2.11 -0.61 -2.11zm7.96 0l0 13.84 -7.35 -11.73 7.35 -2.11zm-60.26 -52.68l4.47 -6.58 0 0 2.08 1.43 2.06 1.46 2.04 1.48 2.02 1.51 2 1.53 1.97 1.56 1.95 1.58 1.93 1.6 1.91 1.63 1.89 1.65 1.86 1.68 1.84 1.69 1.82 1.72 1.79 1.74 1.77 1.76 1.74 1.78 1.72 1.81 1.69 1.83 1.67 1.85 1.65 1.87 1.62 1.89 1.6 1.91 1.57 1.93 1.55 1.95 1.52 1.97 1.5 1.99 1.47 2.01 1.45 2.03 1.42 2.05 1.39 2.07 1.36 2.09 1.34 2.11 -6.74 4.22 -1.28 -2.02 -1.31 -2 -1.33 -1.98 -1.36 -1.96 -1.39 -1.95 -1.41 -1.93 -1.43 -1.91 -1.46 -1.89 -1.48 -1.87 -1.51 -1.85 -1.53 -1.83 -1.56 -1.81 -1.58 -1.79 -1.6 -1.78 -1.63 -1.75 -1.65 -1.73 -1.67 -1.71 -1.69 -1.69 -1.72 -1.67 -1.74 -1.65 -1.76 -1.63 -1.78 -1.6 -1.81 -1.58 -1.83 -1.56 -1.85 -1.54 -1.87 -1.51 -1.9 -1.49 -1.91 -1.47 -1.93 -1.45 -1.96 -1.42 -1.98 -1.4 -2 -1.37 0 0zm-103.42 -31.7l0 -7.96 0 0 3.62 0.03 3.61 0.1 3.6 0.17 3.59 0.23 3.58 0.3 3.57 0.36 3.56 0.43 3.55 0.5 3.53 0.56 3.52 0.63 3.5 0.69 3.49 0.76 3.47 0.82 3.45 0.88 3.43 0.95 3.41 1.01 3.39 1.08 3.37 1.14 3.35 1.2 3.33 1.26 3.31 1.33 3.28 1.39 3.26 1.45 3.23 1.51 3.21 1.57 3.18 1.64 3.15 1.69 3.13 1.76 3.1 1.82 3.07 1.88 3.03 1.94 3.01 2 -4.47 6.58 -2.88 -1.92 -2.91 -1.86 -2.94 -1.8 -2.97 -1.74 -3 -1.69 -3.02 -1.63 -3.05 -1.57 -3.08 -1.51 -3.1 -1.45 -3.12 -1.39 -3.15 -1.33 -3.17 -1.27 -3.19 -1.21 -3.21 -1.15 -3.23 -1.09 -3.25 -1.03 -3.27 -0.97 -3.29 -0.91 -3.31 -0.85 -3.32 -0.79 -3.34 -0.72 -3.36 -0.66 -3.37 -0.6 -3.38 -0.54 -3.4 -0.48 -3.41 -0.41 -3.42 -0.35 -3.44 -0.29 -3.45 -0.22 -3.46 -0.16 -3.47 -0.1 -3.47 -0.03 0 0zm-130.41 54.01l-5.62 -5.62 0 0 3.44 -3.36 3.51 -3.26 3.58 -3.16 3.64 -3.07 3.7 -2.97 3.77 -2.87 3.83 -2.77 3.89 -2.67 3.94 -2.57 4 -2.47 4.05 -2.36 4.11 -2.26 4.16 -2.16 4.21 -2.05 4.25 -1.95 4.3 -1.84 4.34 -1.74 4.39 -1.63 4.42 -1.52 4.47 -1.41 4.5 -1.31 4.54 -1.19 4.57 -1.08 4.61 -0.97 4.64 -0.86 4.67 -0.75 4.69 -0.64 4.72 -0.52 4.74 -0.4 4.77 -0.29 4.79 -0.17 4.8 -0.06 0 7.96 -4.61 0.05 -4.59 0.17 -4.57 0.28 -4.55 0.39 -4.52 0.5 -4.5 0.61 -4.47 0.72 -4.45 0.83 -4.42 0.93 -4.38 1.04 -4.35 1.14 -4.31 1.25 -4.28 1.35 -4.24 1.46 -4.2 1.56 -4.16 1.66 -4.12 1.77 -4.08 1.87 -4.03 1.97 -3.98 2.07 -3.93 2.17 -3.89 2.27 -3.83 2.37 -3.78 2.46 -3.73 2.56 -3.67 2.66 -3.61 2.75 -3.56 2.85 -3.49 2.94 -3.43 3.04 -3.37 3.13 -3.3 3.22 0 0zm-54.01 130.41l-7.96 0 0 0 0.06 -4.8 0.17 -4.79 0.29 -4.77 0.4 -4.74 0.52 -4.72 0.64 -4.69 0.75 -4.67 0.86 -4.64 0.97 -4.61 1.08 -4.57 1.19 -4.54 1.31 -4.5 1.41 -4.47 1.52 -4.42 1.63 -4.39 1.74 -4.34 1.84 -4.3 1.95 -4.25 2.05 -4.21 2.16 -4.16 2.26 -4.11 2.36 -4.05 2.47 -4 2.57 -3.94 2.67 -3.89 2.77 -3.83 2.87 -3.77 2.97 -3.7 3.07 -3.64 3.16 -3.58 3.26 -3.51 3.36 -3.44 5.62 5.62 -3.22 3.3 -3.13 3.37 -3.04 3.43 -2.94 3.49 -2.85 3.56 -2.76 3.61 -2.66 3.67 -2.56 3.73 -2.46 3.78 -2.37 3.83 -2.27 3.89 -2.17 3.93 -2.07 3.98 -1.97 4.03 -1.87 4.08 -1.76 4.12 -1.67 4.16 -1.56 4.2 -1.46 4.24 -1.35 4.28 -1.25 4.31 -1.14 4.35 -1.04 4.38 -0.93 4.42 -0.83 4.45 -0.72 4.47 -0.61 4.5 -0.5 4.52 -0.39 4.55 -0.28 4.57 -0.17 4.59 -0.05 4.61 0 0zm54.01 130.41l-5.62 5.62 0 0 -3.36 -3.44 -3.26 -3.51 -3.16 -3.58 -3.07 -3.64 -2.97 -3.7 -2.87 -3.77 -2.77 -3.83 -2.67 -3.89 -2.57 -3.94 -2.47 -4 -2.36 -4.05 -2.26 -4.11 -2.16 -4.16 -2.05 -4.21 -1.95 -4.25 -1.84 -4.3 -1.74 -4.34 -1.63 -4.39 -1.52 -4.42 -1.41 -4.47 -1.31 -4.5 -1.19 -4.54 -1.08 -4.57 -0.97 -4.61 -0.86 -4.64 -0.75 -4.67 -0.64 -4.69 -0.52 -4.72 -0.4 -4.74 -0.29 -4.77 -0.17 -4.79 -0.06 -4.8 7.96 0 0.05 4.61 0.17 4.59 0.28 4.57 0.39 4.55 0.5 4.52 0.61 4.5 0.72 4.47 0.83 4.45 0.93 4.42 1.04 4.38 1.14 4.35 1.25 4.31 1.35 4.28 1.46 4.24 1.56 4.2 1.67 4.16 1.76 4.12 1.87 4.08 1.97 4.03 2.07 3.98 2.17 3.93 2.27 3.89 2.37 3.83 2.46 3.78 2.56 3.73 2.66 3.67 2.76 3.61 2.85 3.56 2.94 3.49 3.04 3.43 3.13 3.37 3.22 3.3 0 0zm130.41 54.01l0 7.96 0 0 -4.8 -0.06 -4.79 -0.17 -4.77 -0.29 -4.74 -0.4 -4.72 -0.52 -4.69 -0.64 -4.67 -0.75 -4.64 -0.86 -4.61 -0.97 -4.57 -1.08 -4.54 -1.19 -4.5 -1.31 -4.47 -1.41 -4.42 -1.52 -4.39 -1.63 -4.34 -1.74 -4.3 -1.84 -4.25 -1.95 -4.21 -2.05 -4.16 -2.16 -4.11 -2.26 -4.05 -2.36 -4 -2.47 -3.94 -2.57 -3.89 -2.67 -3.83 -2.77 -3.77 -2.87 -3.7 -2.97 -3.64 -3.07 -3.58 -3.16 -3.51 -3.26 -3.44 -3.36 5.62 -5.62 3.3 3.22 3.37 3.13 3.43 3.04 3.49 2.94 3.56 2.85 3.61 2.75 3.67 2.66 3.73 2.56 3.78 2.46 3.83 2.37 3.89 2.27 3.93 2.17 3.98 2.07 4.03 1.97 4.08 1.87 4.12 1.76 4.16 1.67 4.2 1.56 4.24 1.46 4.28 1.35 4.31 1.25 4.35 1.14 4.38 1.04 4.42 0.93 4.45 0.83 4.47 0.72 4.5 0.61 4.52 0.5 4.55 0.39 4.57 0.28 4.59 0.17 4.61 0.05 0 0zm20.57 2.91l7.89 -1.02 -3.43 4.46 -0.77 0.1 -0.78 0.1 -0.77 0.09 -0.78 0.09 -0.78 0.09 -0.77 0.08 -0.78 0.08 -0.78 0.08 -0.78 0.08 -0.78 0.07 -0.78 0.07 -0.78 0.06 -0.79 0.06 -0.79 0.06 -0.78 0.06 -0.78 0.05 -0.79 0.05 -0.79 0.04 -0.78 0.04 -0.78 0.04 -0.78 0.03 -0.78 0.03 -0.8 0.03 -0.78 0.02 -0.78 0.02 -0.79 0.02 -0.78 0.02 -0.79 0.01 -0.79 0.01 -0.78 0.01 -0.78 0 -0.79 0 0 -7.96 0.75 -0 0.75 -0 0.76 -0.01 0.75 -0.01 0.75 -0.01 0.76 -0.02 0.75 -0.02 0.76 -0.02 0.76 -0.02 0.75 -0.03 0.76 -0.03 0.75 -0.03 0.75 -0.04 0.76 -0.04 0.75 -0.04 0.75 -0.05 0.76 -0.05 0.75 -0.05 0.75 -0.06 0.75 -0.06 0.75 -0.06 0.75 -0.06 0.75 -0.07 0.75 -0.07 0.74 -0.07 0.74 -0.08 0.75 -0.08 0.74 -0.08 0.74 -0.09 0.75 -0.09 0.74 -0.09 0.74 -0.1 -3.43 4.46zm7.89 -1.02l0.51 3.94 -3.94 0.51 3.43 -4.46zm-3.8 -29.19l3.8 29.19 -7.89 1.02 -3.8 -29.19 3.43 -4.46 4.46 3.43zm-4.46 -3.43l3.94 -0.51 0.51 3.94 -4.46 -3.43zm-20.2 9.26l0 -7.96 0 0 0.63 -0 0.64 -0 0.63 -0 0.64 -0.01 0.63 -0.01 0.63 -0.01 0.64 -0.02 0.63 -0.02 0.63 -0.02 0.64 -0.02 0.64 -0.03 0.63 -0.03 0.64 -0.03 0.63 -0.03 0.63 -0.04 0.63 -0.04 0.63 -0.04 0.64 -0.04 0.63 -0.05 0.62 -0.05 0.63 -0.05 0.63 -0.05 0.63 -0.06 0.63 -0.06 0.63 -0.06 0.63 -0.07 0.62 -0.07 0.63 -0.07 0.63 -0.07 0.62 -0.07 0.63 -0.08 0.62 -0.08 1.02 7.89 -0.65 0.08 -0.66 0.08 -0.66 0.08 -0.65 0.07 -0.66 0.08 -0.66 0.07 -0.66 0.07 -0.66 0.07 -0.66 0.06 -0.66 0.06 -0.66 0.06 -0.66 0.05 -0.67 0.05 -0.66 0.05 -0.65 0.05 -0.67 0.04 -0.66 0.04 -0.66 0.04 -0.67 0.03 -0.67 0.04 -0.67 0.03 -0.67 0.03 -0.66 0.02 -0.66 0.03 -0.67 0.02 -0.67 0.02 -0.67 0.01 -0.67 0.01 -0.66 0.01 -0.67 0.01 -0.67 0 -0.66 0 0 0zm-162.94 -162.94l7.96 0 0 0 0.2 7.97 0.6 7.86 0.99 7.74 1.37 7.62 1.73 7.49 2.09 7.35 2.44 7.2 2.78 7.03 3.11 6.86 3.43 6.68 3.74 6.49 4.04 6.29 4.33 6.08 4.61 5.86 4.88 5.63 5.13 5.39 5.39 5.14 5.63 4.87 5.86 4.6 6.08 4.33 6.29 4.04 6.49 3.74 6.68 3.43 6.86 3.11 7.03 2.78 7.2 2.44 7.35 2.09 7.49 1.73 7.62 1.37 7.75 0.99 7.86 0.6 7.97 0.2 0 7.96 -8.37 -0.21 -8.26 -0.63 -8.15 -1.04 -8.01 -1.44 -7.88 -1.82 -7.73 -2.2 -7.57 -2.57 -7.4 -2.92 -7.22 -3.27 -7.02 -3.6 -6.82 -3.93 -6.61 -4.24 -6.39 -4.55 -6.16 -4.84 -5.91 -5.12 -5.66 -5.4 -5.4 -5.66 -5.12 -5.91 -4.84 -6.16 -4.55 -6.39 -4.24 -6.61 -3.93 -6.82 -3.6 -7.02 -3.27 -7.22 -2.92 -7.4 -2.57 -7.57 -2.2 -7.73 -1.82 -7.88 -1.44 -8.02 -1.04 -8.15 -0.63 -8.26 -0.21 -8.37 0 0zm162.94 -162.94l0 7.96 0 0 -7.97 0.2 -7.86 0.6 -7.75 0.99 -7.62 1.37 -7.49 1.73 -7.35 2.09 -7.2 2.44 -7.03 2.78 -6.86 3.11 -6.68 3.43 -6.49 3.74 -6.29 4.04 -6.08 4.33 -5.86 4.6 -5.63 4.87 -5.39 5.14 -5.13 5.39 -4.88 5.63 -4.61 5.86 -4.33 6.08 -4.04 6.29 -3.74 6.49 -3.43 6.68 -3.11 6.86 -2.78 7.03 -2.44 7.2 -2.09 7.35 -1.73 7.49 -1.37 7.62 -0.99 7.74 -0.6 7.86 -0.2 7.97 -7.96 0 0.21 -8.37 0.63 -8.26 1.04 -8.15 1.44 -8.02 1.82 -7.88 2.2 -7.73 2.57 -7.57 2.92 -7.4 3.27 -7.22 3.6 -7.02 3.93 -6.82 4.24 -6.61 4.55 -6.39 4.84 -6.16 5.12 -5.91 5.4 -5.66 5.66 -5.4 5.91 -5.12 6.16 -4.84 6.39 -4.55 6.61 -4.24 6.82 -3.93 7.02 -3.6 7.22 -3.27 7.4 -2.92 7.57 -2.57 7.73 -2.2 7.88 -1.82 8.01 -1.44 8.15 -1.04 8.26 -0.63 8.37 -0.21 0 0zm136.86 85.97l0 -7.96 -3.42 6 -2.66 -4.34 -2.79 -4.23 -2.91 -4.12 -3.04 -4.01 -3.15 -3.9 -3.27 -3.79 -3.39 -3.67 -3.5 -3.56 -3.6 -3.44 -3.71 -3.31 -3.81 -3.19 -3.91 -3.06 -4 -2.93 -4.09 -2.8 -4.18 -2.67 -4.26 -2.54 -4.35 -2.4 -4.43 -2.26 -4.5 -2.12 -4.57 -1.97 -4.64 -1.83 -4.71 -1.68 -4.77 -1.53 -4.83 -1.38 -4.88 -1.23 -4.94 -1.07 -4.99 -0.91 -5.04 -0.75 -5.07 -0.59 -5.12 -0.42 -5.15 -0.25 -5.19 -0.09 0 -7.96 5.45 0.09 5.42 0.27 5.38 0.44 5.33 0.62 5.29 0.79 5.24 0.96 5.19 1.12 5.14 1.29 5.07 1.45 5.02 1.61 4.95 1.77 4.88 1.92 4.81 2.08 4.73 2.23 4.66 2.38 4.57 2.52 4.48 2.67 4.4 2.81 4.3 2.95 4.21 3.09 4.11 3.22 4.01 3.35 3.9 3.49 3.79 3.61 3.68 3.74 3.56 3.86 3.44 3.99 3.32 4.11 3.19 4.22 3.06 4.34 2.93 4.45 2.79 4.56 -3.42 6zm3.42 -6l3.54 6 -6.97 0 3.42 -6zm-54.18 -1.96l50.75 0 0 7.96 -50.75 0 -3.98 -3.98 3.98 -3.98zm-3.98 3.98l0 -3.98 3.98 0 -3.98 3.98zm0 29.44l0 -29.44 7.96 0 0 29.44 -3.98 3.98 -3.98 -3.98zm3.98 3.98l-3.98 0 0 -3.98 3.98 3.98zm103.03 0l-103.03 0 0 -7.96 103.03 0 3.98 3.98 -3.98 3.98zm3.98 -3.98l0 3.98 -3.98 0 3.98 -3.98zm0 -103.03l0 103.03 -7.96 0 0 -103.03 3.98 -3.98 3.98 3.98zm-3.98 -3.98l3.98 0 0 3.98 -3.98 -3.98zm-29.44 0l29.44 0 0 7.96 -29.44 0 -3.98 -3.98 3.98 -3.98zm-3.98 3.98l0 -3.98 3.98 0 -3.98 3.98zm-140.26 26.06l-29.44 0 0 -7.96 29.44 0 3.98 3.98 -3.98 3.98zm0 -7.96l3.98 0 0 3.98 -3.98 -3.98zm-3.98 151.16l0 -147.19 7.96 0 0 147.19 -3.98 3.98 -3.98 -3.98zm7.96 0l0 3.98 -3.98 0 3.98 -3.98zm-115.84 -3.98l111.86 0 0 7.96 -111.86 0 -3.98 -3.98 3.98 -3.98zm0 7.96l-3.98 0 0 -3.98 3.98 3.98zm3.98 -33.41l0 29.44 -7.96 0 0 -29.44 3.98 -3.98 3.98 3.98zm-7.96 0l0 -3.98 3.98 0 -3.98 3.98zm86.4 3.98l-82.42 0 0 -7.96 82.42 0 3.98 3.98 -3.98 3.98zm3.98 -3.98l0 3.98 -3.98 0 3.98 -3.98zm0 -117.75l0 117.75 -7.96 0 0 -117.75 3.98 -3.98 3.98 3.98zm-7.96 0l0 -3.98 3.98 0 -3.98 3.98z"/>
   </g>
  </g>
 </g>
</svg>
