<?xml version="1.0" encoding="UTF-8"?>
<!DOCTYPE svg PUBLIC "-//W3C//DTD SVG 1.1//EN" "http://www.w3.org/Graphics/SVG/1.1/DTD/svg11.dtd">
<!-- Creator: CorelDRAW 2019 -->
<svg xmlns="http://www.w3.org/2000/svg" xml:space="preserve" width="67.0548mm" height="47.3325mm" version="1.1" style="shape-rendering:geometricPrecision; text-rendering:geometricPrecision; image-rendering:optimizeQuality; fill-rule:evenodd; clip-rule:evenodd"
viewBox="0 0 3331.35 2351.53"
 xmlns:xlink="http://www.w3.org/1999/xlink"
 xmlns:xodm="http://www.corel.com/coreldraw/odm/2003">
 <defs>
  <style type="text/css">
   <![CDATA[
    .fil4 {fill:none}
    .fil0 {fill:white}
    .fil1 {fill:#34DAEA;fill-rule:nonzero}
    .fil2 {fill:url(#id1);fill-rule:nonzero}
    .fil3 {fill:url(#id2);fill-rule:nonzero}
   ]]>
  </style>
   <clipPath id="id0">
    <path d="M175.2 0l2980.95 0c96.36,0 175.2,78.84 175.2,175.2l0 2001.14c0,96.36 -78.84,175.2 -175.2,175.2l-2980.95 0c-96.36,0 -175.2,-78.84 -175.2,-175.2l0 -2001.14c0,-96.36 78.84,-175.2 175.2,-175.2z"/>
   </clipPath>
  <linearGradient id="id1" gradientUnits="userSpaceOnUse" x1="-766.3" y1="-1568.52" x2="2548.94" y2="-598.2">
   <stop offset="0" style="stop-opacity:1; stop-color:#00D9FF"/>
   <stop offset="0.419608" style="stop-opacity:1; stop-color:#1B75FD"/>
   <stop offset="1" style="stop-opacity:1; stop-color:#B357EF"/>
  </linearGradient>
  <linearGradient id="id2" gradientUnits="userSpaceOnUse" x1="571.86" y1="2409.28" x2="2237.58" y2="2070.18">
   <stop offset="0" style="stop-opacity:1; stop-color:#00D9FF"/>
   <stop offset="1" style="stop-opacity:1; stop-color:#5A69F7"/>
  </linearGradient>
 </defs>
 <g id="Слой_x0020_1">
  <metadata id="CorelCorpID_0Corel-Layer"/>
  <path class="fil0" d="M175.2 0l2980.95 0c96.36,0 175.2,78.84 175.2,175.2l0 2001.14c0,96.36 -78.84,175.2 -175.2,175.2l-2980.95 0c-96.36,0 -175.2,-78.84 -175.2,-175.2l0 -2001.14c0,-96.36 78.84,-175.2 175.2,-175.2z"/>
  <g style="clip-path:url(#id0)">
   <g id="_932054520">
    <path id="1" class="fil1" d="M3278.8 -3521.42c-11.56,-221 866.19,1356.72 941.8,1521.95 291.36,636.65 812.79,2560.98 780.76,3005.73l-1389.81 -900.67c-1656.25,-1036.35 -266.85,-2373.77 -332.75,-3627.01z"/>
    <path class="fil2" d="M1821.86 -610.92l-1941.97 0c-290.69,0 -526.34,-235.66 -526.34,-526.34 0,-290.7 235.65,-526.37 526.34,-526.37l1941.97 0c290.69,0 526.36,235.67 526.36,526.37 0,290.68 -235.67,526.34 -526.36,526.34z"/>
    <path class="fil3" d="M1916.49 1681.94l187.25 263.01 -11.72 69.65c-5.85,2.72 -12.25,4.1 -17.73,8.01 -44.94,31.99 -55.42,94.27 -23.44,139.19 3.9,5.48 9.29,8.59 13.93,13.09l-11.71 70.1 -826.3 588.29 -69.65 -11.72c-2.75,-5.83 -4.15,-12.26 -8.05,-17.73 -31.98,-44.92 -94.23,-55.42 -139.17,-23.42 -5.48,3.9 -8.59,9.29 -13.08,13.93l-70.12 -11.72 -187.23 -262.99 11.72 -69.63c5.85,-2.72 12.32,-4.06 17.8,-7.95 44.94,-32 55.4,-94.25 23.37,-139.25 -3.9,-5.47 -9.26,-8.55 -13.9,-13.09l11.69 -70 826.21 -588.23 69.98 11.85c2.76,5.89 3.9,11.96 7.8,17.44 32.02,44.99 94.3,55.46 139.24,23.47 5.48,-3.9 8.55,-9.36 13.04,-14l70.07 11.7zm-1167.99 86.9c-33.56,68.58 -40.45,141.74 -27.09,207.2l452.76 -322.35c-17.15,-16.3 -35.95,-30.97 -58.05,-41.96 -130.59,-63.19 -295.08,7.36 -367.62,157.11zm-399.18 613.53c-36.78,-51.66 -24.63,-123.88 26.98,-160.63l51.35 -36.56 -3.1 -9.66 442.17 -912.77 66.87 -23.17c5.04,3.8 9.34,8.53 15.63,11.54 49.43,24.2 109.14,3.25 133.17,-46.51 2.9,-5.71 3.4,-12.08 4.7,-18.56l66.93 -23.22 290.52 140.89 23.2 66.85c-3.84,5.07 -8.57,9.41 -11.75,15.32 -11.13,23.14 -11.57,48.35 -5.19,70.88l239.91 -170.81 -372.38 -180.23 -414.98 -201.08 -200.88 415.26 -335.05 691.24 -201.09 414.98 327.06 158.62 -144.07 -202.36zm934.27 -1006.43c31.76,44.61 21.29,106.91 -23.64,138.91 -44.9,31.96 -106.88,21.24 -138.63,-23.37 -31.96,-44.9 -21.82,-106.99 23.07,-138.95 44.94,-32 107.25,-21.48 139.21,23.41zm1116.52 773.04l-267.49 -375.71 0 0 -312.09 -438.35 -1001.7 713.17 -375.71 267.49 312.08 438.35 267.49 375.71 1001.71 -713.18 375.7 -267.49zm-1304.21 315.47c31.76,44.61 21.6,106.68 -23.29,138.64 -44.94,31.99 -107.23,21.5 -138.99,-23.11 -32.03,-44.99 -21.51,-107.2 23.43,-139.2 44.89,-31.96 106.81,-21.33 138.84,23.66zm571.63 -406.98c83.97,117.94 41.99,292.02 -93.7,388.62 -135.68,96.6 -313.91,79.3 -397.88,-38.64 -84.23,-118.31 -42.24,-292.37 93.44,-388.97 135.68,-96.6 313.9,-79.33 398.14,38.99zm242.33 -172.53c31.76,44.61 21.3,106.9 -23.64,138.9 -44.9,31.96 -107.19,21.47 -138.95,-23.14 -32.02,-44.99 -21.5,-107.2 23.39,-139.16 44.94,-31.99 107.17,-21.58 139.19,23.4z"/>
   </g>
  </g>
  <path class="fil4" d="M175.2 0l2980.95 0c96.36,0 175.2,78.84 175.2,175.2l0 2001.14c0,96.36 -78.84,175.2 -175.2,175.2l-2980.95 0c-96.36,0 -175.2,-78.84 -175.2,-175.2l0 -2001.14c0,-96.36 78.84,-175.2 175.2,-175.2z"/>
 </g>
</svg>
