<?xml version="1.0" encoding="UTF-8"?>
<!DOCTYPE svg PUBLIC "-//W3C//DTD SVG 1.1//EN" "http://www.w3.org/Graphics/SVG/1.1/DTD/svg11.dtd">
<!-- Creator: CorelDRAW 2019 -->
<svg xmlns="http://www.w3.org/2000/svg" xml:space="preserve" width="59.972mm" height="42.333mm" version="1.1" style="shape-rendering:geometricPrecision; text-rendering:geometricPrecision; image-rendering:optimizeQuality; fill-rule:evenodd; clip-rule:evenodd"
viewBox="0 0 440.96 311.27"
 xmlns:xlink="http://www.w3.org/1999/xlink"
 xmlns:xodm="http://www.corel.com/coreldraw/odm/2003">
 <defs>
  <style type="text/css">
   <![CDATA[
    .str0 {stroke:white;stroke-width:5.19;stroke-miterlimit:22.9256}
    .fil5 {fill:none}
    .fil0 {fill:#5A69F7}
    .fil6 {fill:white}
    .fil1 {fill:#34DAEA;fill-rule:nonzero}
    .fil4 {fill:#5A69F7;fill-rule:nonzero}
    .fil2 {fill:url(#id1);fill-rule:nonzero}
    .fil3 {fill:url(#id2);fill-rule:nonzero}
   ]]>
  </style>
   <clipPath id="id0">
    <path d="M23.19 0l394.58 0c12.75,0 23.19,10.44 23.19,23.19l0 264.88c0,12.75 -10.44,23.19 -23.19,23.19l-394.58 0c-12.75,0 -23.19,-10.44 -23.19,-23.19l0 -264.88c0,-12.75 10.44,-23.19 23.19,-23.19z"/>
   </clipPath>
  <linearGradient id="id1" gradientUnits="userSpaceOnUse" x1="8.12" y1="74.95" x2="429.11" y2="15.03">
   <stop offset="0" style="stop-opacity:1; stop-color:#00D9FF"/>
   <stop offset="1" style="stop-opacity:1; stop-color:#5A69F7"/>
  </linearGradient>
  <linearGradient id="id2" gradientUnits="userSpaceOnUse" x1="-101.43" y1="-207.62" x2="337.4" y2="-79.18">
   <stop offset="0" style="stop-opacity:1; stop-color:#00D9FF"/>
   <stop offset="0.419608" style="stop-opacity:1; stop-color:#1B75FD"/>
   <stop offset="1" style="stop-opacity:1; stop-color:#B357EF"/>
  </linearGradient>
 </defs>
 <g id="Слой_x0020_1">
  <metadata id="CorelCorpID_0Corel-Layer"/>
  <path class="fil0" d="M23.19 0l394.58 0c12.75,0 23.19,10.44 23.19,23.19l0 264.88c0,12.75 -10.44,23.19 -23.19,23.19l-394.58 0c-12.75,0 -23.19,-10.44 -23.19,-23.19l0 -264.88c0,-12.75 10.44,-23.19 23.19,-23.19z"/>
  <g style="clip-path:url(#id0)">
   <g id="_929096352">
    <path id="1" class="fil1" d="M434.01 -466.12c-1.53,-29.25 114.66,179.59 124.66,201.46 38.57,84.27 107.59,338.99 103.35,397.86l-183.96 -119.22c-219.23,-137.18 -35.32,-314.21 -44.05,-480.1z"/>
    <path class="fil2" d="M431.57 -4.17l-420.26 -2.36c-6.22,-0.04 -11.28,4.98 -11.32,11.19l-0.42 75.19c-0.01,1.5 0.72,2.93 1.97,3.76 25.85,17.17 60.7,20.25 91.76,13.93 37.56,-7.63 71.65,-26.63 106.69,-42.16 35.04,-15.53 73.52,-27.94 111.26,-21.25 35.62,6.31 65.89,28.69 98.02,45.31 8.58,4.43 17.7,8.44 27.07,11.62 2.92,0.99 5.96,-1.15 5.98,-4.23l0.45 -79.68c0.04,-6.22 -4.98,-11.29 -11.19,-11.32z"/>
    <path class="fil3" d="M241.16 -80.87l-257.05 0c-38.48,0 -69.67,-31.19 -69.67,-69.67 0,-38.48 31.19,-69.67 69.67,-69.67l257.05 0c38.48,0 69.67,31.19 69.67,69.67 0,38.48 -31.19,69.67 -69.67,69.67z"/>
    <path class="fil4 str0" d="M-2594.77 1157.57c-119.59,74.54 1024.08,-42.44 1137.91,-63.21 438.59,-80.01 1394.4,-235.61 1614.9,-414.48l-737.99 -670.95c-1144.88,-486.82 -1336.53,726.13 -2014.82,1148.64z"/>
   </g>
  </g>
  <path class="fil5" d="M23.19 0l394.58 0c12.75,0 23.19,10.44 23.19,23.19l0 264.88c0,12.75 -10.44,23.19 -23.19,23.19l-394.58 0c-12.75,0 -23.19,-10.44 -23.19,-23.19l0 -264.88c0,-12.75 10.44,-23.19 23.19,-23.19z"/>
  <g id="_929098848">
   <path class="fil6" d="M163.01 165.16c-1.3,-0.18 -2.68,-0.81 -3.66,-0.86l-0.55 8.47c-0.99,18.93 -1.14,48.92 9.04,65.92 5.94,9.91 28.62,34.12 39.55,39.09 25.84,-15.8 44.5,-38.59 47.82,-69.04 1.31,-12.05 1.18,-23.95 0.61,-36.12l-0.55 -8.46c-4.43,1.86 -13.21,1.41 -18.07,0.91 -6.49,-0.66 -12.23,-2.35 -19.01,-6.3 -6.11,-3.56 -8.37,-5.55 -10.05,-6.05 -1.57,-0.46 -2.64,0.37 -5.86,2.46 -11.67,7.55 -21.82,11.74 -39.27,9.98zm17.55 75.61c7.74,10.04 16.84,16.88 26.73,24.43 3.6,-1.34 17.34,-13.42 21,-17.39 11.02,-11.95 15.81,-20.05 17.84,-36.68 1.53,-12.59 0.85,-25.37 0.28,-38.01 -7.08,2.47 -14.46,1.67 -21.38,-0.71 -3.68,-1.26 -16.3,-8.56 -17.38,-8.59 -2.14,-0.05 -13.84,8.26 -21.58,9.62 -4.91,0.86 -13.02,1.07 -17.44,-0.35 -0.68,8.01 -1,21.84 -0.47,30.15 0.53,8.37 1.29,14.78 3.3,20.85 1.8,5.44 4.6,10.61 9.12,16.67z"/>
   <path class="fil6" d="M54.58 187.63c-7.68,12.92 -6.17,18.97 -6.28,35.39 -0.03,9.02 -0.86,14.95 4.05,22.18 0.6,0.88 1.98,2.27 2.16,3.24 0.22,1.23 0.13,9.15 0.01,10.63 1.09,2.48 1.43,5.65 6.01,7.81 3.22,1.52 8.92,0.99 12.82,0.99 4.72,-0 8.41,0.25 11.41,-2.41 3.04,-2.7 3.76,-5.08 3.76,-10.38l23.2 -0 49.52 0 10.91 -0.01c-0.49,-1.03 -1.5,-1.96 -2.26,-2.95 -0.94,-1.22 -1.8,-2.03 -2.46,-3.41 -0.74,-0.37 -2.92,-3.64 -3.3,-4.59 -11.76,-0.09 -23.55,0 -35.31,0 -4.4,0 -13.3,0.53 -16.89,-0.77 -3.92,-1.43 -7.05,-5.11 -7.21,-10.46l53.27 -0.05 -2.42 -7.7c-12.2,0.04 -24.41,0.01 -36.61,0.01 -2.74,0 -6.43,0.34 -8.76,-0.62 -6.12,-2.52 -9.52,-11.78 -9.05,-17.94l51.42 -0c-0.69,-9.12 -1.36,-18.75 -0.92,-27.97l0.05 -2.13 -72.05 -0c0.41,-1 14.22,-13.84 16.14,-15.71 8.47,-8.55 8.89,-10.27 21.76,-10.27l48.15 -0.01c3.24,0 7.88,-0.39 11.28,0.44 4.01,0.97 8.3,5.97 10.13,5.17 1.82,-0.79 7,-3.21 8.06,-4.26 -4.08,-4.11 -7.03,-7.09 -12.39,-9.71 -1.74,-0.85 -3.75,-1.47 -7.01,-1.91 -4.84,-0.42 -53.93,-0.07 -60.19,-0.07 -11.94,0 -15.7,2.72 -21.84,8.44 -3.9,3.64 -11.7,11.81 -15.31,14.73 -0.67,-5 -1.99,-7.76 -7.34,-7.99 -8.39,-0.36 -20.3,3.34 -13.09,12.98 2.78,3.72 8.52,5.07 9.31,5.78 -1.97,2.69 -8.72,7.39 -12.74,13.55zm42.96 56.46c-0.35,-1.12 -4.75,-5.55 -5.85,-6.97l-6.13 -7.11c-1.48,-1.83 -1.63,-1.75 -4.61,-1.74l-16.36 -0.02c-1.42,0.01 -1.51,0.1 -2.07,1.18 -4.03,7.77 2.83,12.79 9.12,14.5 1.73,0.47 22.15,0.1 25.89,0.17zm-32.66 -51.54c-7.38,1.49 -11.57,10.94 -6.18,17.87 2.32,2.99 5.18,4.03 10.43,4.15 4.78,0.1 9.63,0.27 14.36,-0.23 15.04,-1.61 7.49,-8.8 1.71,-13.23 -3.5,-2.69 -14.26,-9.77 -20.32,-8.55z"/>
   <path class="fil6" d="M207.32 255.4c7.66,-2.86 23.07,-20.04 27.08,-28.09 3.36,-6.73 4.35,-13.22 4.74,-21.25 0.41,-8.53 0.11,-16.43 -0.27,-24.93 -5.58,1.94 -11.39,1.37 -16.86,-0.44 -3.45,-1.14 -13.11,-6.93 -14.2,-7.04 -1.66,-0.17 -11.59,6.69 -17.61,7.75 -3.96,0.7 -10.5,0.86 -14.07,-0.28 -0.57,6.69 -0.92,13.97 -0.54,21.24 0.67,12.81 3.15,22.34 8.5,30.72 6.08,9.53 14.47,15.62 23.23,22.32z"/>
  </g>
 </g>
</svg>
