<?xml version="1.0" encoding="UTF-8"?>
<!DOCTYPE svg PUBLIC "-//W3C//DTD SVG 1.1//EN" "http://www.w3.org/Graphics/SVG/1.1/DTD/svg11.dtd">
<!-- Creator: CorelDRAW 2019 -->
<svg xmlns="http://www.w3.org/2000/svg" xml:space="preserve" width="67.0548mm" height="47.3326mm" version="1.1" style="shape-rendering:geometricPrecision; text-rendering:geometricPrecision; image-rendering:optimizeQuality; fill-rule:evenodd; clip-rule:evenodd"
viewBox="0 0 3331.35 2351.53"
 xmlns:xlink="http://www.w3.org/1999/xlink"
 xmlns:xodm="http://www.corel.com/coreldraw/odm/2003">
 <defs>
  <style type="text/css">
   <![CDATA[
    .str0 {stroke:white;stroke-width:35.05;stroke-miterlimit:22.9256}
    .fil4 {fill:none}
    .fil6 {fill:white}
    .fil0 {fill:white}
    .fil1 {fill:#34DAEA;fill-rule:nonzero}
    .fil3 {fill:#5A69F7;fill-rule:nonzero}
    .fil2 {fill:url(#id1);fill-rule:nonzero}
    .fil5 {fill:url(#id2);fill-rule:nonzero}
    .fil8 {fill:url(#id3);fill-rule:nonzero}
    .fil7 {fill:url(#id4);fill-rule:nonzero}
   ]]>
  </style>
    <clipPath id="id0">
     <path d="M175.2 0l2980.95 0c96.36,0 175.2,78.84 175.2,175.2l0 2001.13c0,96.36 -78.84,175.2 -175.2,175.2l-2980.95 0c-96.36,0 -175.2,-78.84 -175.2,-175.2l0 -2001.13c0,-96.36 78.84,-175.2 175.2,-175.2z"/>
    </clipPath>
  <linearGradient id="id1" gradientUnits="userSpaceOnUse" x1="-766.3" y1="-1568.51" x2="2548.94" y2="-598.2">
   <stop offset="0" style="stop-opacity:1; stop-color:#00D9FF"/>
   <stop offset="0.419608" style="stop-opacity:1; stop-color:#1B75FD"/>
   <stop offset="1" style="stop-opacity:1; stop-color:#B357EF"/>
  </linearGradient>
  <linearGradient id="id2" gradientUnits="userSpaceOnUse" x1="1557.56" y1="1079.27" x2="2441.3" y2="1928.47">
   <stop offset="0" style="stop-opacity:1; stop-color:#4188F9"/>
   <stop offset="1" style="stop-opacity:1; stop-color:#5A69F7"/>
  </linearGradient>
  <linearGradient id="id3" gradientUnits="userSpaceOnUse" xlink:href="#id2" x1="1715.41" y1="1221.62" x2="2292.41" y2="1776.17">
  </linearGradient>
  <linearGradient id="id4" gradientUnits="userSpaceOnUse" x1="489.78" y1="959.74" x2="1816.62" y2="1827.65">
   <stop offset="0" style="stop-opacity:1; stop-color:#00D9FF"/>
   <stop offset="1" style="stop-opacity:1; stop-color:#5A69F7"/>
  </linearGradient>
 </defs>
 <g id="Слой_x0020_1">
  <metadata id="CorelCorpID_0Corel-Layer"/>
  <g id="_996889816">
   <path class="fil0" d="M175.2 0l2980.95 0c96.36,0 175.2,78.84 175.2,175.2l0 2001.13c0,96.36 -78.84,175.2 -175.2,175.2l-2980.95 0c-96.36,0 -175.2,-78.84 -175.2,-175.2l0 -2001.13c0,-96.36 78.84,-175.2 175.2,-175.2z"/>
   <g style="clip-path:url(#id0)">
    <g>
     <path id="1" class="fil1" d="M3278.8 -3521.42c-11.56,-221 866.19,1356.72 941.8,1521.95 291.36,636.65 812.79,2560.98 780.76,3005.73l-1389.81 -900.67c-1656.25,-1036.36 -266.85,-2373.78 -332.75,-3627.01z"/>
     <path class="fil2" d="M1821.86 -610.92l-1941.97 0c-290.69,0 -526.34,-235.65 -526.34,-526.34 0,-290.7 235.65,-526.37 526.34,-526.37l1941.97 0c290.69,0 526.36,235.67 526.36,526.37 0,290.69 -235.67,526.34 -526.36,526.34z"/>
     <path class="fil3 str0" d="M-19602.8 8745.12c-903.44,563.12 7736.68,-320.65 8596.59,-477.5 3313.47,-604.42 10534.3,-1779.99 12200.16,-3131.32l-5575.34 -5068.83c-8649.25,-3677.78 -10097.13,5485.73 -15221.42,8677.66z"/>
    </g>
   </g>
   <path class="fil4" d="M175.2 0l2980.95 0c96.36,0 175.2,78.84 175.2,175.2l0 2001.13c0,96.36 -78.84,175.2 -175.2,175.2l-2980.95 0c-96.36,0 -175.2,-78.84 -175.2,-175.2l0 -2001.13c0,-96.36 78.84,-175.2 175.2,-175.2z"/>
   <path class="fil5" d="M1574.52 1016.82c-12.79,-1.72 -26.34,-7.92 -35.98,-8.49l-5.44 83.2c-9.69,186.07 -11.24,480.71 88.87,647.83 58.35,97.4 281.27,335.25 388.62,384.16 253.94,-155.29 437.34,-379.2 469.97,-678.4 12.91,-118.4 11.63,-235.32 5.95,-354.9l-5.38 -83.15c-43.57,18.3 -129.77,13.82 -177.56,8.98 -63.77,-6.46 -120.22,-23.11 -186.84,-61.93 -60.02,-34.98 -82.26,-54.57 -98.79,-59.47 -15.44,-4.57 -25.91,3.66 -57.54,24.15 -114.64,74.23 -214.44,115.38 -385.87,98.02z"/>
   <path class="fil6" d="M1746.97 1759.82c76.03,98.69 165.47,165.91 262.62,240.09 35.34,-13.21 170.38,-131.89 206.36,-170.91 108.27,-117.42 155.37,-197.06 175.28,-360.43 15.08,-123.71 8.4,-249.35 2.73,-373.49 -69.54,24.23 -142.07,16.4 -210.06,-6.94 -36.14,-12.41 -160.2,-84.12 -170.82,-84.38 -21.08,-0.49 -136.02,81.14 -212.11,94.53 -48.21,8.48 -127.89,10.53 -171.39,-3.43 -6.71,78.7 -9.81,214.61 -4.64,296.32 5.21,82.24 12.71,145.22 32.43,204.86 17.68,53.45 45.17,104.23 89.6,163.77z"/>
   <path class="fil7" d="M509.04 1237.65c-75.46,126.96 -60.65,186.45 -61.74,347.8 -0.27,88.67 -8.47,146.91 39.84,217.92 5.87,8.62 19.49,22.26 21.21,31.8 2.19,12.12 1.29,89.88 0.1,104.46 10.76,24.34 14.03,55.54 59.05,76.75 31.67,14.92 87.69,9.75 125.96,9.74 46.41,-0.02 82.66,2.5 112.09,-23.65 29.83,-26.51 36.98,-49.93 36.98,-102.02l227.97 -0.02 486.64 0.02 107.23 -0.08c-4.82,-10.12 -14.7,-19.24 -22.2,-28.99 -9.19,-11.94 -17.72,-19.97 -24.17,-33.55 -7.26,-3.63 -28.67,-35.81 -32.47,-45.12 -115.53,-0.84 -231.38,0.01 -346.95,0.03 -43.2,0.01 -130.7,5.24 -165.94,-7.61 -38.57,-14.07 -69.25,-50.2 -70.82,-102.78l523.46 -0.52 -23.78 -75.7c-119.9,0.41 -239.87,0.12 -359.78,0.12 -26.96,0 -63.15,3.3 -86.04,-6.13 -60.1,-24.76 -93.6,-115.77 -88.97,-176.26l505.31 -0.01c-6.74,-89.65 -13.36,-184.28 -9.08,-274.87l0.5 -20.89 -708.01 -0.01c4.06,-9.84 139.74,-136.01 158.65,-154.39 83.21,-84.01 87.34,-100.93 213.83,-100.93l473.17 -0.06c31.84,0.01 77.45,-3.83 110.83,4.28 39.39,9.57 81.57,58.67 99.54,50.82 17.89,-7.81 68.79,-31.51 79.23,-41.89 -40.12,-40.41 -69.05,-69.66 -121.71,-95.39 -17.12,-8.36 -36.83,-14.47 -68.91,-18.73 -47.6,-4.12 -529.97,-0.73 -591.52,-0.73 -117.36,0 -154.29,26.72 -214.59,82.9 -38.36,35.74 -114.95,116.09 -150.41,144.73 -6.56,-49.13 -19.58,-76.24 -72.14,-78.51 -82.42,-3.56 -199.45,32.79 -128.6,127.51 27.3,36.51 83.68,49.86 91.45,56.82 -19.33,26.44 -85.7,72.6 -125.18,133.11z"/>
   <path class="fil8" d="M2010 1903.55c75.28,-28.13 226.69,-196.92 266.16,-275.99 33.01,-66.15 42.79,-129.9 46.54,-208.78 3.98,-83.8 1.12,-161.48 -2.7,-244.99 -54.82,19.1 -111.94,13.5 -165.68,-4.33 -33.86,-11.23 -128.79,-68.06 -139.5,-69.19 -16.28,-1.71 -113.93,65.71 -173.06,76.11 -38.88,6.84 -103.16,8.49 -138.23,-2.77 -5.61,65.79 -9.04,137.32 -5.32,208.74 6.55,125.88 30.96,219.54 83.51,301.89 59.72,93.6 142.15,153.53 228.29,219.31z"/>
   <path class="fil0" d="M610.2 1285.98c-72.55,14.68 -113.72,107.45 -60.76,175.62 22.8,29.34 50.93,39.61 102.51,40.73 46.97,1.02 94.67,2.68 141.08,-2.3 147.8,-15.86 73.57,-86.44 16.83,-130.05 -34.39,-26.43 -140.17,-96.03 -199.65,-84z"/>
   <path class="fil0" d="M931.15 1792.49c-3.4,-10.98 -46.65,-54.55 -57.47,-68.46l-60.21 -69.91c-14.54,-18.03 -16.06,-17.21 -45.29,-17.08l-160.75 -0.22c-13.94,0.13 -14.84,0.99 -20.32,11.56 -39.58,76.31 27.82,125.68 89.64,142.46 16.97,4.6 217.61,0.99 254.41,1.65z"/>
  </g>
 </g>
</svg>
