<?xml version="1.0" encoding="UTF-8"?>
<!DOCTYPE svg PUBLIC "-//W3C//DTD SVG 1.1//EN" "http://www.w3.org/Graphics/SVG/1.1/DTD/svg11.dtd">
<!-- Creator: CorelDRAW 2020 (64-Bit) -->
<svg xmlns="http://www.w3.org/2000/svg" xml:space="preserve" width="210px" height="92px" version="1.1" style="shape-rendering:geometricPrecision; text-rendering:geometricPrecision; image-rendering:optimizeQuality; fill-rule:evenodd; clip-rule:evenodd"
viewBox="0 0 8.37 3.67"
 xmlns:xlink="http://www.w3.org/1999/xlink"
 xmlns:xodm="http://www.corel.com/coreldraw/odm/2003">
 <defs>
  <style type="text/css">
   <![CDATA[
    .fil0 {fill:white;fill-rule:nonzero}
   ]]>
  </style>
 </defs>
 <g id="Слой_x0020_1">
  <metadata id="CorelCorpID_0Corel-Layer"/>
  <path class="fil0" d="M8.06 1.06c0,0 -0.01,-0.01 -0.01,-0.01l-0.18 -0.17c0.15,-0.04 0.31,-0.16 0.31,-0.29 0,-0.14 -0.21,-0.2 -0.38,-0.2 -0.19,0 -0.21,0.13 -0.21,0.22l-0.29 -0.32c-0.13,-0.15 -0.28,-0.29 -0.5,-0.29l-1.93 0c-0.19,0 -0.34,0.11 -0.46,0.24l-0.33 0.37c0,-0.09 -0.03,-0.22 -0.21,-0.22 -0.17,0 -0.38,0.06 -0.38,0.2 0,0.13 0.16,0.25 0.31,0.29l-0.18 0.17c0,0 -0.01,0.01 -0.01,0.01 -0.19,0.16 -0.31,0.47 -0.31,0.69l0 0.65c0,0.15 0.06,0.3 0.16,0.4l0 0.26c0,0.14 0.12,0.26 0.27,0.26l0.34 0c0.15,0 0.27,-0.12 0.27,-0.26l0 -0.07 2.99 0 0 0.07c0,0.14 0.12,0.26 0.27,0.26l0.34 0c0.15,0 0.27,-0.12 0.27,-0.26l0 -0.26c0.1,-0.1 0.16,-0.25 0.16,-0.4l0 -0.65c0,-0.22 -0.12,-0.53 -0.31,-0.69zm-6.7 0.27c0,0.25 0.49,0.38 0.98,0.38 0.3,0 0.61,-0.05 0.8,-0.15 0.03,-0.11 0.08,-0.23 0.14,-0.33 -0.25,-0.39 -1.92,-0.36 -1.92,0.1zm1.75 0.41c-0.2,0.08 -0.47,0.12 -0.77,0.12 -0.36,0 -0.67,-0.06 -0.87,-0.16 -0.03,-0.02 -0.05,-0.02 -0.08,0 -0.02,0.01 -0.03,0.04 -0.03,0.06l0 0.03c0,0.24 0.49,0.37 0.98,0.37 0.29,0 0.58,-0.04 0.77,-0.13l0 -0.28 0 -0.01zm-2.66 1.1c0,0.25 0.5,0.38 0.98,0.38 0.49,0 0.98,-0.13 0.98,-0.38 0,-0.49 -1.96,-0.49 -1.96,0zm1.85 0.37c-0.2,0.1 -0.51,0.16 -0.87,0.16 -0.36,0 -0.66,-0.06 -0.87,-0.16 -0.02,-0.02 -0.05,-0.01 -0.07,0 -0.02,0.01 -0.04,0.04 -0.04,0.06l0 0.03c0,0.24 0.5,0.37 0.98,0.37 0.49,0 0.98,-0.13 0.98,-0.37l0 -0.03c0,-0.02 -0.01,-0.05 -0.03,-0.06 -0.03,-0.01 -0.05,-0.02 -0.08,0zm-1.32 -2.1c0.1,0 0.2,-0.01 0.3,-0.02 0.02,0 0.03,-0.01 0.05,-0.02 0.11,-0.11 0.31,-0.19 0.56,-0.23 0.03,-0.01 0.05,-0.02 0.06,-0.05 0.01,-0.02 0.01,-0.04 0.01,-0.06 0,-0.5 -1.96,-0.5 -1.96,0 0,0.25 0.49,0.38 0.98,0.38zm0 0.45c0.06,0 0.12,0 0.18,-0.01 0.03,0 0.05,-0.01 0.06,-0.03 0.01,-0.02 0.02,-0.05 0.01,-0.07 -0.02,-0.04 -0.02,-0.08 -0.02,-0.12 0,-0.02 -0.01,-0.04 -0.03,-0.06 -0.01,-0.01 -0.03,-0.02 -0.05,-0.02 -0.05,0.01 -0.1,0.01 -0.15,0.01 -0.36,0 -0.67,-0.06 -0.87,-0.17 -0.02,-0.01 -0.05,-0.01 -0.07,0 -0.03,0.02 -0.04,0.04 -0.04,0.07l0 0.02c0,0.25 0.49,0.38 0.98,0.38zm0 0.45c0.06,0 0.12,0 0.18,0 0.03,-0.01 0.05,-0.02 0.06,-0.04 0.01,-0.02 0.02,-0.04 0.01,-0.07 -0.02,-0.03 -0.02,-0.07 -0.02,-0.12 0,-0.02 -0.01,-0.04 -0.03,-0.05 -0.01,-0.02 -0.03,-0.03 -0.05,-0.02 -0.05,0 -0.1,0 -0.15,0 -0.36,0 -0.67,-0.06 -0.87,-0.16 -0.02,-0.02 -0.05,-0.02 -0.07,0 -0.03,0.01 -0.04,0.04 -0.04,0.06l0 0.02c0,0.25 0.49,0.38 0.98,0.38zm2.18 0.62c-0.14,0.06 -0.32,0.1 -0.53,0.12 -0.04,0.01 -0.07,0.05 -0.07,0.09 0,0.04 0,0.08 -0.01,0.12 -0.01,0.02 -0.01,0.05 0.01,0.07 0.01,0.01 0.03,0.03 0.06,0.03 0,0 0,0 0,-0.01 0.34,-0.03 0.57,-0.12 0.66,-0.24l0 -0.01c-0.05,-0.05 -0.09,-0.11 -0.12,-0.17zm-1.73 -0.32l0.05 0.01c0,0 0,0 0,0 0.04,0 0.07,-0.03 0.08,-0.06 0.01,-0.04 -0.01,-0.07 -0.04,-0.09l-0.02 -0.01c-0.01,0 -0.02,-0.01 -0.03,-0.01 -0.03,-0.01 -0.05,-0.01 -0.08,0 -0.02,0.02 -0.03,0.04 -0.03,0.07l0 0.02c0,0.04 0.03,0.07 0.07,0.07zm1.68 -0.12c-0.2,0.08 -0.47,0.12 -0.77,0.12l-0.05 0c-0.03,0 -0.07,0.03 -0.08,0.06 0,0.04 0.01,0.07 0.05,0.09 0.08,0.04 0.14,0.08 0.19,0.13 0.02,0.01 0.04,0.02 0.06,0.02 0,0 0,0 0,0 0.22,-0.01 0.45,-0.05 0.61,-0.13 0,-0.03 -0.01,-0.06 -0.01,-0.08l0 -0.21zm-2.48 0.25c0.01,0 0.02,0 0.03,0 0.13,-0.06 0.29,-0.09 0.48,-0.11 0.04,0 0.07,-0.05 0.07,-0.09 0,-0.03 -0.01,-0.05 -0.03,-0.06 -0.01,-0.01 -0.03,-0.02 -0.05,-0.02 -0.05,0 -0.1,0 -0.15,0 -0.36,0 -0.67,-0.06 -0.87,-0.16 -0.02,-0.01 -0.05,-0.01 -0.07,0 -0.03,0.01 -0.04,0.04 -0.04,0.07l0 0.02c0,0.16 0.23,0.3 0.62,0.35 0,0 0.01,0 0.01,0zm4.15 -2.17l2.11 0c0.07,0 0.23,0.17 0.27,0.22l0.41 0.46 -3.47 0 0.44 -0.5c0.04,-0.05 0.18,-0.18 0.24,-0.18zm-1.28 1.38c0,-0.16 0.13,-0.29 0.28,-0.29 0.16,0 0.66,0.29 0.66,0.45 0,0.16 -0.5,0.13 -0.66,0.13 -0.15,0 -0.28,-0.13 -0.28,-0.29zm0.84 1.06l-0.1 0 -0.32 0c-0.09,-0.03 -0.15,-0.06 -0.19,-0.1 -0.03,-0.01 -0.04,-0.03 -0.06,-0.05 -0.01,-0.02 -0.02,-0.04 -0.03,-0.05 -0.04,-0.11 0.05,-0.22 0.05,-0.22l0.54 0 0.36 0.42 -0.25 0zm2.27 0l-1.55 0c-0.16,0 -0.3,-0.13 -0.3,-0.3l2.15 0c0,0.17 -0.14,0.3 -0.3,0.3zm0.07 -0.5l-1.69 0c-0.18,0 -0.32,-0.21 -0.32,-0.48l2.33 0c0,0.27 -0.14,0.48 -0.32,0.48zm1.35 0.3c-0.01,0.01 -0.02,0.03 -0.03,0.05 -0.02,0.02 -0.03,0.04 -0.06,0.05 -0.04,0.04 -0.1,0.07 -0.19,0.1l-0.32 0 -0.35 0 0.36 -0.42 0.54 0c0,0 0.09,0.11 0.05,0.22zm-0.14 -0.57c-0.16,0 -0.66,0.03 -0.66,-0.13 0,-0.16 0.5,-0.45 0.66,-0.45 0.15,0 0.28,0.13 0.28,0.29 0,0.16 -0.13,0.29 -0.28,0.29z"/>
 </g>
</svg>
