<?xml version="1.0" encoding="UTF-8"?>
<!DOCTYPE svg PUBLIC "-//W3C//DTD SVG 1.1//EN" "http://www.w3.org/Graphics/SVG/1.1/DTD/svg11.dtd">
<!-- Creator: CorelDRAW 2020 (64-Bit) -->
<svg xmlns="http://www.w3.org/2000/svg" xml:space="preserve" width="210px" height="92px" version="1.1" style="shape-rendering:geometricPrecision; text-rendering:geometricPrecision; image-rendering:optimizeQuality; fill-rule:evenodd; clip-rule:evenodd"
viewBox="0 0 9.97 4.37"
 xmlns:xlink="http://www.w3.org/1999/xlink"
 xmlns:xodm="http://www.corel.com/coreldraw/odm/2003">
 <defs>
  <style type="text/css">
   <![CDATA[
    .fil0 {fill:#77A4E5;fill-rule:nonzero}
   ]]>
  </style>
 </defs>
 <g id="Слой_x0020_1">
  <metadata id="CorelCorpID_0Corel-Layer"/>
  <path class="fil0" d="M9.59 1.26c0,0 0,-0.01 -0.01,-0.01l-0.21 -0.2c0.18,-0.04 0.36,-0.19 0.36,-0.34 0,-0.18 -0.24,-0.24 -0.45,-0.24 -0.22,0 -0.24,0.15 -0.24,0.25l-0.35 -0.38c-0.16,-0.17 -0.33,-0.34 -0.59,-0.34l-2.31 0c-0.22,0 -0.4,0.14 -0.54,0.29l-0.39 0.43c-0.01,-0.1 -0.03,-0.25 -0.25,-0.25 -0.21,0 -0.45,0.06 -0.45,0.24 0,0.15 0.19,0.3 0.36,0.34l-0.21 0.2c-0.01,0 -0.01,0.01 -0.01,0.01 -0.23,0.2 -0.38,0.56 -0.38,0.82l0 0.77c0,0.19 0.08,0.36 0.2,0.49l0 0.3c0,0.17 0.14,0.32 0.32,0.32l0.4 0c0.18,0 0.33,-0.15 0.33,-0.32l0 -0.08 3.55 0 0 0.08c0,0.17 0.15,0.32 0.33,0.32l0.4 0c0.18,0 0.33,-0.15 0.33,-0.32l0 -0.3c0.12,-0.13 0.19,-0.3 0.19,-0.49l0 -0.77c0,-0.26 -0.15,-0.62 -0.38,-0.82zm-7.97 0.33c0,0.29 0.58,0.45 1.16,0.45 0.37,0 0.73,-0.06 0.96,-0.18 0.03,-0.14 0.09,-0.28 0.17,-0.4 -0.31,-0.46 -2.29,-0.42 -2.29,0.13zm2.09 0.48c-0.24,0.09 -0.56,0.15 -0.93,0.15 -0.42,0 -0.79,-0.07 -1.03,-0.2 -0.03,-0.02 -0.06,-0.01 -0.09,0 -0.03,0.02 -0.04,0.05 -0.04,0.08l0 0.03c0,0.29 0.58,0.45 1.16,0.45 0.35,0 0.7,-0.06 0.93,-0.17l0 -0.33 0 -0.01zm-3.17 1.31c0,0.3 0.59,0.45 1.17,0.45 0.58,0 1.16,-0.15 1.16,-0.45 0,-0.59 -2.33,-0.59 -2.33,0zm2.2 0.44c-0.24,0.12 -0.61,0.19 -1.03,0.19 -0.43,0 -0.8,-0.07 -1.04,-0.19 -0.03,-0.02 -0.06,-0.02 -0.09,0 -0.02,0.02 -0.04,0.05 -0.04,0.08l0 0.02c0,0.3 0.59,0.45 1.17,0.45 0.58,0 1.16,-0.15 1.16,-0.45l0 -0.02c0,-0.03 -0.01,-0.06 -0.04,-0.08 -0.03,-0.02 -0.06,-0.02 -0.09,0zm-1.57 -2.5c0.12,0 0.24,-0.01 0.36,-0.02 0.02,-0.01 0.03,-0.01 0.05,-0.03 0.13,-0.13 0.37,-0.22 0.67,-0.27 0.03,-0.01 0.06,-0.03 0.07,-0.06 0.01,-0.03 0.01,-0.05 0.01,-0.07 0,-0.59 -2.33,-0.59 -2.33,0 0,0.29 0.59,0.45 1.17,0.45zm0 0.54c0.07,0 0.14,-0.01 0.21,-0.01 0.03,0 0.06,-0.02 0.07,-0.04 0.02,-0.03 0.02,-0.06 0.01,-0.08 -0.02,-0.05 -0.02,-0.1 -0.02,-0.15 0,-0.02 -0.01,-0.05 -0.03,-0.06 -0.02,-0.02 -0.04,-0.03 -0.07,-0.03 -0.06,0 -0.11,0.01 -0.17,0.01 -0.43,0 -0.8,-0.07 -1.04,-0.2 -0.03,-0.01 -0.06,-0.01 -0.09,0 -0.02,0.02 -0.04,0.05 -0.04,0.08l0 0.03c0,0.29 0.59,0.45 1.17,0.45zm0 0.54c0.07,0 0.14,-0.01 0.21,-0.01 0.03,0 0.06,-0.02 0.07,-0.04 0.02,-0.03 0.02,-0.06 0.01,-0.08 -0.02,-0.05 -0.02,-0.1 -0.02,-0.15 0,-0.02 -0.01,-0.05 -0.03,-0.06 -0.02,-0.02 -0.04,-0.03 -0.07,-0.03 -0.06,0 -0.11,0.01 -0.17,0.01 -0.43,0 -0.8,-0.07 -1.04,-0.2 -0.03,-0.02 -0.06,-0.01 -0.09,0 -0.02,0.02 -0.04,0.05 -0.04,0.08l0 0.03c0,0.29 0.59,0.45 1.17,0.45zm2.59 0.73c-0.16,0.07 -0.38,0.12 -0.63,0.15 -0.05,0 -0.08,0.06 -0.08,0.1 0,0.05 -0.01,0.09 -0.02,0.14 -0.01,0.03 0,0.06 0.01,0.08 0.02,0.02 0.05,0.04 0.07,0.04 0.01,0 0.01,0 0.01,0 0.4,-0.05 0.67,-0.15 0.78,-0.29l0 -0.01c-0.06,-0.06 -0.1,-0.14 -0.14,-0.21zm-2.05 -0.37l0.06 0c0,0 0,0 0,0 0.04,0 0.08,-0.03 0.08,-0.07 0.01,-0.05 -0.01,-0.09 -0.05,-0.11l-0.02 0c-0.01,-0.01 -0.02,-0.02 -0.03,-0.02 -0.03,-0.02 -0.06,-0.01 -0.09,0 -0.03,0.02 -0.04,0.05 -0.04,0.08l0 0.03c0,0.05 0.04,0.09 0.09,0.09zm2 -0.15c-0.24,0.09 -0.56,0.15 -0.93,0.15l-0.06 -0.01c-0.03,0 -0.08,0.03 -0.09,0.07 0,0.05 0.02,0.09 0.06,0.11 0.09,0.04 0.17,0.09 0.23,0.15 0.02,0.02 0.04,0.03 0.06,0.03 0.01,0 0.01,0 0.01,0 0.25,-0.02 0.53,-0.07 0.72,-0.16 0,-0.03 0,-0.06 0,-0.1l0 -0.24zm-2.96 0.3c0.01,0 0.02,0 0.03,-0.01 0.16,-0.06 0.35,-0.1 0.58,-0.13 0.04,0 0.08,-0.06 0.08,-0.11 0,-0.02 -0.01,-0.05 -0.03,-0.06 -0.02,-0.02 -0.04,-0.03 -0.07,-0.03 -0.06,0 -0.11,0.01 -0.17,0.01 -0.43,0 -0.8,-0.07 -1.04,-0.2 -0.03,-0.02 -0.06,-0.01 -0.09,0 -0.02,0.02 -0.04,0.05 -0.04,0.08l0 0.03c0,0.19 0.28,0.35 0.74,0.42 0,0 0.01,0 0.01,0zm4.94 -2.59l2.52 0c0.07,0 0.26,0.2 0.32,0.26l0.48 0.55 -4.12 0 0.52 -0.6c0.05,-0.06 0.21,-0.21 0.28,-0.21zm-1.52 1.64c0,-0.19 0.15,-0.35 0.33,-0.35 0.19,0 0.79,0.36 0.79,0.55 0,0.19 -0.6,0.15 -0.79,0.15 -0.18,0 -0.33,-0.16 -0.33,-0.35zm1 1.26l-0.13 0 -0.38 0c-0.1,-0.03 -0.17,-0.07 -0.23,-0.11 -0.02,-0.02 -0.04,-0.04 -0.06,-0.06 -0.01,-0.02 -0.03,-0.04 -0.03,-0.07 -0.05,-0.13 0.05,-0.25 0.05,-0.25l0.64 0 0.43 0.49 -0.29 0zm2.7 0l-1.85 0c-0.19,0 -0.35,-0.15 -0.35,-0.35l2.55 0c0,0.2 -0.16,0.35 -0.35,0.35zm0.08 -0.59l-2.01 0c-0.21,0 -0.38,-0.25 -0.38,-0.57l2.77 0c0,0.32 -0.17,0.57 -0.38,0.57zm1.6 0.35c0,0.03 -0.01,0.05 -0.03,0.07 -0.02,0.02 -0.04,0.04 -0.06,0.06 -0.05,0.04 -0.13,0.08 -0.23,0.11l-0.38 0 -0.42 0 0.43 -0.49 0.64 0c0,0 0.1,0.12 0.05,0.25zm-0.16 -0.67c-0.18,0 -0.79,0.04 -0.79,-0.15 0,-0.19 0.61,-0.55 0.79,-0.55 0.18,0 0.33,0.16 0.33,0.35 0,0.19 -0.15,0.35 -0.33,0.35z"/>
 </g>
</svg>
