<?xml version="1.0" encoding="UTF-8"?>
<!DOCTYPE svg PUBLIC "-//W3C//DTD SVG 1.1//EN" "http://www.w3.org/Graphics/SVG/1.1/DTD/svg11.dtd">
<!-- Creator: CorelDRAW 2020 (64-Bit) -->
<svg xmlns="http://www.w3.org/2000/svg" xml:space="preserve" width="207px" height="132px" version="1.1" style="shape-rendering:geometricPrecision; text-rendering:geometricPrecision; image-rendering:optimizeQuality; fill-rule:evenodd; clip-rule:evenodd"
viewBox="0 0 23.39 14.96"
 xmlns:xlink="http://www.w3.org/1999/xlink"
 xmlns:xodm="http://www.corel.com/coreldraw/odm/2003">
 <defs>
  <style type="text/css">
   <![CDATA[
    .fil1 {fill:#77A4E5;fill-rule:nonzero}
    .fil0 {fill:white;fill-rule:nonzero}
   ]]>
  </style>
 </defs>
 <g id="Слой_x0020_1">
  <metadata id="CorelCorpID_0Corel-Layer"/>
  <g id="_2550011030128">
   <polygon class="fil0" points="18.82,9.58 18.82,9.01 18.49,9.58 "/>
   <polygon class="fil0" points="7.55,9.01 7.23,9.58 7.55,9.58 "/>
   <path class="fil0" d="M9.69 9.82c0.03,-0.05 0.05,-0.1 0.05,-0.17 0,-0.07 -0.02,-0.13 -0.06,-0.17 -0.04,-0.05 -0.08,-0.06 -0.14,-0.06 -0.04,0 -0.08,0.01 -0.11,0.03 -0.05,0.04 -0.08,0.11 -0.08,0.19 0,0.07 0.02,0.13 0.06,0.17 0.04,0.05 0.09,0.07 0.14,0.07 0.06,0 0.11,-0.02 0.14,-0.06z"/>
   <path class="fil0" d="M3.75 12.97c0.05,0 0.1,-0.01 0.14,-0.04 0.04,-0.03 0.06,-0.08 0.06,-0.16l0 -0.08c-0.01,0.01 -0.02,0.02 -0.04,0.02 -0.01,0.01 -0.03,0.01 -0.06,0.02l-0.05 0.01c-0.05,0.01 -0.08,0.02 -0.11,0.03 -0.03,0.02 -0.05,0.05 -0.05,0.09 0,0.04 0.01,0.07 0.03,0.09 0.03,0.01 0.05,0.02 0.08,0.02z"/>
   <path class="fil0" d="M12.61 9.88c0.06,0 0.11,-0.02 0.14,-0.05 0.03,-0.04 0.05,-0.09 0.05,-0.15 0,-0.07 -0.02,-0.12 -0.05,-0.15 -0.04,-0.04 -0.08,-0.05 -0.14,-0.05 -0.06,0 -0.1,0.01 -0.13,0.05 -0.04,0.03 -0.06,0.08 -0.06,0.15 0,0.06 0.02,0.11 0.05,0.15 0.04,0.03 0.08,0.05 0.14,0.05z"/>
   <path class="fil0" d="M6.17 12.41c-0.06,0 -0.1,0.02 -0.13,0.05 -0.04,0.03 -0.06,0.08 -0.07,0.13l0.39 0c0,-0.06 -0.02,-0.1 -0.06,-0.13 -0.03,-0.03 -0.08,-0.05 -0.13,-0.05z"/>
   <path class="fil0" d="M13.63 8.96c-0.04,0 -0.08,0.01 -0.11,0.03 -0.05,0.04 -0.07,0.11 -0.07,0.2 0,0.08 0.01,0.13 0.04,0.17 0.04,0.04 0.09,0.06 0.15,0.06 0.04,0 0.07,-0.01 0.1,-0.03 0.06,-0.04 0.09,-0.1 0.09,-0.19 0,-0.08 -0.02,-0.14 -0.05,-0.18 -0.04,-0.04 -0.09,-0.06 -0.15,-0.06z"/>
   <path class="fil0" d="M12.61 9.28c0.05,0 0.09,-0.02 0.12,-0.05 0.03,-0.03 0.05,-0.07 0.05,-0.11 0,-0.05 -0.02,-0.09 -0.05,-0.12 -0.03,-0.03 -0.07,-0.05 -0.12,-0.05 -0.05,0 -0.09,0.02 -0.12,0.05 -0.03,0.03 -0.04,0.07 -0.04,0.12 0,0.04 0.01,0.08 0.04,0.11 0.03,0.03 0.07,0.05 0.12,0.05z"/>
   <path class="fil0" d="M8.91 12.74c-0.04,0.01 -0.08,0.02 -0.1,0.03 -0.03,0.02 -0.05,0.05 -0.05,0.09 0,0.04 0.01,0.07 0.03,0.09 0.02,0.01 0.05,0.02 0.08,0.02 0.05,0 0.09,-0.01 0.14,-0.04 0.04,-0.03 0.06,-0.08 0.06,-0.16l0 -0.08c-0.01,0.01 -0.03,0.02 -0.04,0.02 -0.02,0.01 -0.04,0.01 -0.06,0.02l-0.06 0.01z"/>
   <path class="fil0" d="M12.69 12.74c-0.05,0.01 -0.09,0.02 -0.11,0.03 -0.03,0.02 -0.05,0.05 -0.05,0.09 0,0.04 0.01,0.07 0.03,0.09 0.02,0.01 0.05,0.02 0.08,0.02 0.05,0 0.09,-0.01 0.14,-0.04 0.04,-0.03 0.06,-0.08 0.06,-0.16l0 -0.08c-0.01,0.01 -0.03,0.02 -0.04,0.02 -0.02,0.01 -0.04,0.01 -0.06,0.02l-0.05 0.01z"/>
   <path class="fil0" d="M14.92 12.46c-0.03,0.03 -0.05,0.08 -0.06,0.13l0.39 0c-0.01,-0.06 -0.03,-0.1 -0.06,-0.13 -0.04,-0.03 -0.08,-0.05 -0.13,-0.05 -0.06,0 -0.11,0.02 -0.14,0.05z"/>
   <path class="fil0" d="M20.82 9.88c0.05,0 0.1,-0.02 0.13,-0.06 0.03,-0.05 0.05,-0.1 0.05,-0.17 0,-0.07 -0.02,-0.13 -0.06,-0.17 -0.03,-0.05 -0.08,-0.06 -0.13,-0.06 -0.05,0 -0.09,0.01 -0.12,0.03 -0.05,0.04 -0.07,0.11 -0.07,0.19 0,0.07 0.01,0.13 0.05,0.17 0.04,0.05 0.09,0.07 0.15,0.07z"/>
   <path class="fil0" d="M2.23 9.76c0.02,0.08 0.07,0.12 0.15,0.12 0.07,0 0.12,-0.04 0.15,-0.12 0.02,-0.07 0.03,-0.17 0.03,-0.29 0,-0.02 0,-0.03 0,-0.05 0,-0.16 -0.01,-0.28 -0.03,-0.35 -0.03,-0.08 -0.07,-0.12 -0.15,-0.12 -0.08,0 -0.13,0.04 -0.15,0.12 -0.03,0.08 -0.04,0.19 -0.04,0.35 0,0.07 0,0.14 0.01,0.2 0.01,0.06 0.01,0.1 0.03,0.14z"/>
   <path class="fil1" d="M0.91 14.81c0.21,0.09 0.43,0.15 0.67,0.15l20.23 0c0.42,0 0.81,-0.17 1.09,-0.45 0.3,-0.29 0.49,-0.7 0.49,-1.15l0 -11.76c0,-0.45 -0.19,-0.86 -0.49,-1.15 -0.28,-0.28 -0.67,-0.45 -1.09,-0.45l-20.23 0c-0.87,0 -1.58,0.72 -1.58,1.6l0 11.76c0,0.64 0.38,1.19 0.91,1.45zm13.24 -10.61c0,-1.19 0.97,-2.16 2.16,-2.16 0.47,0 0.9,0.16 1.25,0.41 0.37,-0.3 0.83,-0.48 1.33,-0.48 0.44,0 0.84,0.13 1.18,0.36 0.28,0.18 0.51,0.43 0.67,0.72 0.19,0.32 0.3,0.68 0.3,1.07 0,1.19 -0.96,2.15 -2.15,2.15 -0.46,0 -0.89,-0.15 -1.24,-0.4 -0.37,0.29 -0.83,0.48 -1.34,0.48 -0.7,0 -1.31,-0.34 -1.71,-0.85 -0.18,-0.23 -0.31,-0.5 -0.38,-0.79 -0.04,-0.16 -0.07,-0.33 -0.07,-0.51z"/>
   <path class="fil1" d="M15.02 5.33c0.32,0.35 0.77,0.59 1.29,0.59 0.36,0 0.7,-0.12 0.98,-0.32l0.72 0c0.01,0 0.01,-0.01 0.02,-0.01 0.11,-0.1 0.22,-0.2 0.31,-0.32l-1.26 0c-0.05,-0.08 -0.09,-0.17 -0.13,-0.26l1.56 0c0.05,-0.1 0.1,-0.21 0.13,-0.33l-1.81 0c-0.01,-0.03 -0.02,-0.05 -0.02,-0.08 -0.02,-0.06 -0.03,-0.14 -0.03,-0.21l1.93 0c0.01,-0.08 0.03,-0.17 0.03,-0.26 0,-0.02 -0.01,-0.04 -0.01,-0.07l-1.98 0c0,-0.09 0.01,-0.18 0.03,-0.28l1.92 0c-0.02,-0.11 -0.06,-0.22 -0.1,-0.33l-1.74 0c0.04,-0.1 0.07,-0.19 0.12,-0.28l1.48 0c-0.03,-0.05 -0.07,-0.1 -0.11,-0.14 -0.05,-0.07 -0.09,-0.14 -0.15,-0.2l-1.01 0c0.01,-0.02 0.04,-0.05 0.06,-0.07 -0.27,-0.18 -0.6,-0.28 -0.94,-0.28 -0.95,0 -1.72,0.77 -1.72,1.72 0,0.12 0.01,0.23 0.04,0.35 0.06,0.3 0.2,0.56 0.39,0.78z"/>
   <path class="fil0" d="M4.37 10.86l0.71 0.5 5.41 -7.23 -0.7 -0.52 -5.42 7.25zm-1.43 -5.32c0,1.15 0.9,1.92 2.12,1.92 1.22,0 2.11,-0.77 2.11,-1.92 0,-1.16 -0.89,-1.91 -2.11,-1.91 -1.22,0 -2.12,0.75 -2.12,1.91zm1.16 0c0,-0.56 0.42,-0.91 0.96,-0.91 0.55,0 0.97,0.35 0.97,0.91 0,0.57 -0.41,0.92 -0.97,0.92 -0.53,0 -0.96,-0.35 -0.96,-0.92zm3.59 3.88c0,1.15 0.89,1.92 2.11,1.92 1.23,0 2.12,-0.77 2.12,-1.92 0,-1.16 -0.89,-1.91 -2.12,-1.91 -1.22,0 -2.11,0.75 -2.11,1.91zm1.16 0c0,-0.55 0.42,-0.91 0.95,-0.91 0.55,0 0.97,0.36 0.97,0.91 0,0.57 -0.41,0.93 -0.97,0.93 -0.52,0 -0.95,-0.36 -0.95,-0.93z"/>
  </g>
 </g>
</svg>
