<?xml version="1.0" encoding="UTF-8"?>
<!DOCTYPE svg PUBLIC "-//W3C//DTD SVG 1.1//EN" "http://www.w3.org/Graphics/SVG/1.1/DTD/svg11.dtd">
<!-- Creator: CorelDRAW 2020 (64-Bit) -->
<svg xmlns="http://www.w3.org/2000/svg" xml:space="preserve" width="214px" height="190px" version="1.1" style="shape-rendering:geometricPrecision; text-rendering:geometricPrecision; image-rendering:optimizeQuality; fill-rule:evenodd; clip-rule:evenodd"
viewBox="0 0 25.12 22.28"
 xmlns:xlink="http://www.w3.org/1999/xlink"
 xmlns:xodm="http://www.corel.com/coreldraw/odm/2003">
 <defs>
  <style type="text/css">
   <![CDATA[
    .fil0 {fill:#77A4E5;fill-rule:nonzero}
   ]]>
  </style>
 </defs>
 <g id="Слой_x0020_1">
  <metadata id="CorelCorpID_0Corel-Layer"/>
  <g id="_2550010848560">
   <path class="fil0" d="M22.49 6.94l0 2.17 0.1 0.26 -0.1 0.04 0 3.83 1.45 -0.59 0.31 0.78c0.14,0.34 -0.02,0.73 -0.35,0.87l-17.43 7.11c-0.33,0.14 -0.73,-0.04 -0.86,-0.37l-0.32 -0.78 13.34 -5.44 -9.38 0 -5.3 2.16 -0.88 -2.17 -0.89 0 2.67 6.54c0.23,0.57 0.77,0.93 1.38,0.93 0.19,0 0.37,-0.04 0.55,-0.11l17.43 -7.11c0.75,-0.31 1.11,-1.18 0.8,-1.94l-2.52 -6.18z"/>
   <polygon class="fil0" points="17.68,9 17.68,8.47 17.38,9 "/>
   <polygon class="fil0" points="7.1,8.47 6.79,9 7.1,9 "/>
   <path class="fil0" d="M9.1 9.23c0.04,-0.04 0.05,-0.1 0.05,-0.16 0,-0.07 -0.02,-0.13 -0.05,-0.17 -0.04,-0.03 -0.08,-0.05 -0.13,-0.05 -0.04,0 -0.08,0.01 -0.11,0.03 -0.05,0.04 -0.07,0.1 -0.07,0.18 0,0.07 0.02,0.12 0.05,0.16 0.04,0.05 0.08,0.07 0.14,0.07 0.05,0 0.09,-0.02 0.12,-0.06z"/>
   <path class="fil0" d="M3.53 12.19c0.04,0 0.09,-0.01 0.12,-0.04 0.04,-0.03 0.06,-0.07 0.06,-0.15l0 -0.07c-0.01,0 -0.02,0.01 -0.04,0.02 -0.01,0 -0.03,0.01 -0.05,0.01l-0.05 0.01c-0.05,0.01 -0.08,0.02 -0.1,0.03 -0.03,0.02 -0.05,0.05 -0.05,0.09 0,0.03 0.01,0.06 0.03,0.08 0.02,0.01 0.05,0.02 0.08,0.02z"/>
   <path class="fil0" d="M11.85 9.29c0.06,0 0.1,-0.02 0.13,-0.05 0.03,-0.04 0.05,-0.08 0.05,-0.14 0,-0.07 -0.02,-0.11 -0.05,-0.15 -0.03,-0.03 -0.07,-0.05 -0.13,-0.05 -0.05,0 -0.09,0.02 -0.13,0.05 -0.03,0.04 -0.04,0.08 -0.04,0.15 0,0.06 0.01,0.1 0.04,0.14 0.03,0.03 0.08,0.05 0.13,0.05z"/>
   <path class="fil0" d="M5.8 11.66c-0.06,0 -0.1,0.02 -0.13,0.05 -0.03,0.03 -0.05,0.07 -0.06,0.12l0.37 0c-0.01,-0.05 -0.02,-0.09 -0.06,-0.12 -0.03,-0.03 -0.07,-0.05 -0.12,-0.05z"/>
   <path class="fil0" d="M12.81 8.42c-0.04,0 -0.07,0.01 -0.1,0.03 -0.05,0.04 -0.07,0.1 -0.07,0.18 0,0.08 0.01,0.13 0.04,0.17 0.03,0.03 0.08,0.05 0.14,0.05 0.03,0 0.06,-0.01 0.09,-0.03 0.06,-0.03 0.08,-0.09 0.08,-0.18 0,-0.07 -0.01,-0.12 -0.04,-0.16 -0.04,-0.04 -0.08,-0.06 -0.14,-0.06z"/>
   <path class="fil0" d="M11.85 8.72c0.05,0 0.09,-0.01 0.11,-0.04 0.03,-0.03 0.05,-0.07 0.05,-0.11 0,-0.05 -0.02,-0.09 -0.05,-0.12 -0.02,-0.02 -0.06,-0.04 -0.11,-0.04 -0.05,0 -0.08,0.02 -0.11,0.04 -0.03,0.03 -0.04,0.07 -0.04,0.12 0,0.04 0.01,0.08 0.04,0.11 0.03,0.03 0.06,0.04 0.11,0.04z"/>
   <path class="fil0" d="M8.38 11.97c-0.05,0.01 -0.08,0.02 -0.1,0.03 -0.03,0.02 -0.05,0.05 -0.05,0.09 0,0.03 0.01,0.06 0.03,0.08 0.02,0.01 0.05,0.02 0.08,0.02 0.04,0 0.08,-0.01 0.12,-0.04 0.04,-0.03 0.06,-0.07 0.06,-0.15l0 -0.07c-0.01,0 -0.02,0.01 -0.04,0.02 -0.01,0 -0.03,0.01 -0.05,0.01l-0.05 0.01z"/>
   <path class="fil0" d="M11.92 11.97c-0.04,0.01 -0.08,0.02 -0.1,0.03 -0.03,0.02 -0.05,0.05 -0.05,0.09 0,0.03 0.01,0.06 0.03,0.08 0.02,0.01 0.05,0.02 0.08,0.02 0.04,0 0.09,-0.01 0.13,-0.04 0.04,-0.03 0.06,-0.07 0.06,-0.15l0 -0.07c-0.02,0 -0.03,0.01 -0.04,0.02 -0.02,0 -0.04,0.01 -0.06,0.01l-0.05 0.01z"/>
   <path class="fil0" d="M14.02 11.71c-0.03,0.03 -0.05,0.07 -0.05,0.12l0.36 0c0,-0.05 -0.02,-0.09 -0.06,-0.12 -0.03,-0.03 -0.07,-0.05 -0.12,-0.05 -0.06,0 -0.1,0.02 -0.13,0.05z"/>
   <path class="fil0" d="M19.56 9.29c0.06,0 0.1,-0.02 0.13,-0.06 0.03,-0.04 0.04,-0.1 0.04,-0.16 0,-0.07 -0.01,-0.13 -0.05,-0.17 -0.03,-0.03 -0.08,-0.05 -0.13,-0.05 -0.04,0 -0.07,0.01 -0.11,0.03 -0.04,0.04 -0.07,0.1 -0.07,0.18 0,0.07 0.02,0.12 0.06,0.16 0.03,0.05 0.08,0.07 0.13,0.07z"/>
   <path class="fil0" d="M2.09 9.17c0.03,0.08 0.07,0.12 0.14,0.12 0.08,0 0.12,-0.04 0.15,-0.12 0.01,-0.06 0.02,-0.16 0.03,-0.27 0,-0.02 0,-0.03 0,-0.05 0,-0.15 -0.01,-0.26 -0.03,-0.33 -0.03,-0.07 -0.07,-0.1 -0.15,-0.1 -0.07,0 -0.11,0.03 -0.14,0.1 -0.02,0.07 -0.03,0.18 -0.03,0.33 0,0.07 0,0.14 0.01,0.19 0,0.05 0.01,0.1 0.02,0.13z"/>
   <path class="fil0" d="M0.86 13.92c0.19,0.09 0.4,0.14 0.62,0.14l19.01 0c0.4,0 0.77,-0.16 1.03,-0.42 0.28,-0.28 0.46,-0.66 0.46,-1.08l0 -11.06c0,-0.42 -0.18,-0.8 -0.46,-1.07 -0.26,-0.27 -0.63,-0.43 -1.03,-0.43l-19.01 0c-0.81,0 -1.48,0.67 -1.48,1.5l0 11.06c0,0.6 0.35,1.12 0.86,1.36zm0.95 -5.07c0,-0.2 0.03,-0.36 0.09,-0.47 0.07,-0.11 0.18,-0.16 0.33,-0.16 0.16,0 0.27,0.05 0.33,0.16 0.06,0.1 0.09,0.25 0.09,0.42 0,0.02 0.01,0.03 0.01,0.05 0,0.2 -0.04,0.36 -0.1,0.47 -0.06,0.11 -0.17,0.16 -0.33,0.16 -0.15,0 -0.26,-0.05 -0.33,-0.16 -0.02,-0.05 -0.04,-0.12 -0.06,-0.19 -0.02,-0.08 -0.03,-0.17 -0.03,-0.28zm11.49 -4.91c0,-1.12 0.91,-2.02 2.02,-2.02 0.45,0 0.85,0.14 1.18,0.38 0.35,-0.28 0.78,-0.45 1.26,-0.45 0.4,0 0.78,0.13 1.1,0.34 0.26,0.17 0.48,0.4 0.64,0.67 0.17,0.3 0.27,0.64 0.27,1.01 0,1.12 -0.9,2.02 -2.01,2.02 -0.44,0 -0.84,-0.14 -1.17,-0.38 -0.35,0.28 -0.79,0.46 -1.27,0.46 -0.65,0 -1.23,-0.32 -1.6,-0.8 -0.16,-0.22 -0.29,-0.47 -0.36,-0.74 -0.03,-0.16 -0.06,-0.32 -0.06,-0.49zm-0.38 7.79c-0.02,-0.04 -0.06,-0.06 -0.11,-0.06 -0.06,0 -0.1,0.02 -0.12,0.06 -0.01,0.03 -0.02,0.06 -0.02,0.1l0 0.49 -0.21 0 0 -0.81 0.2 0 0 0.12c0.03,-0.04 0.05,-0.07 0.08,-0.09 0.04,-0.03 0.09,-0.05 0.16,-0.05 0.06,0 0.11,0.02 0.15,0.04 0.03,0.03 0.05,0.06 0.07,0.1 0.02,-0.05 0.06,-0.08 0.1,-0.1 0.04,-0.03 0.09,-0.04 0.15,-0.04 0.03,0 0.07,0.01 0.1,0.02 0.03,0.02 0.07,0.04 0.09,0.07 0.03,0.04 0.04,0.07 0.05,0.11 0,0.03 0.01,0.07 0.01,0.12l0 0.51 -0.22 0 0 -0.52c0,-0.03 -0.01,-0.05 -0.02,-0.07 -0.01,-0.04 -0.05,-0.06 -0.1,-0.06 -0.06,0 -0.1,0.03 -0.12,0.08 -0.01,0.02 -0.02,0.05 -0.02,0.09l0 0.48 -0.21 0 0 -0.48c0,-0.05 0,-0.08 -0.01,-0.11zm0.01 -2.72c-0.04,0.02 -0.1,0.04 -0.16,0.04 -0.1,0 -0.19,-0.04 -0.26,-0.1 -0.08,-0.07 -0.12,-0.17 -0.12,-0.29 0,-0.13 0.04,-0.24 0.12,-0.32 0.07,-0.08 0.17,-0.12 0.29,-0.12 0.19,0 0.32,0.08 0.38,0.24 0.05,0.1 0.07,0.22 0.07,0.37 0,0.15 -0.02,0.27 -0.06,0.37 -0.07,0.19 -0.21,0.29 -0.4,0.29 -0.09,0 -0.17,-0.03 -0.25,-0.09 -0.07,-0.05 -0.11,-0.13 -0.12,-0.23l0.24 0c0,0.03 0.02,0.06 0.04,0.08 0.03,0.03 0.06,0.04 0.1,0.04 0.08,0 0.14,-0.05 0.17,-0.13 0.02,-0.05 0.03,-0.12 0.03,-0.21 -0.02,0.02 -0.04,0.04 -0.07,0.06zm-1.44 -0.34c-0.02,-0.05 -0.03,-0.09 -0.03,-0.13 0,-0.09 0.04,-0.16 0.11,-0.23 0.06,-0.06 0.16,-0.09 0.28,-0.09 0.12,0 0.22,0.03 0.28,0.09 0.07,0.07 0.11,0.14 0.11,0.23 0,0.04 -0.01,0.08 -0.03,0.13 -0.02,0.05 -0.06,0.09 -0.12,0.12 0.06,0.03 0.11,0.08 0.14,0.14 0.03,0.05 0.05,0.11 0.05,0.18 0,0.1 -0.04,0.19 -0.12,0.26 -0.07,0.08 -0.18,0.11 -0.32,0.11 -0.13,0 -0.24,-0.03 -0.31,-0.11 -0.07,-0.07 -0.11,-0.16 -0.11,-0.26 0,-0.07 0.02,-0.13 0.05,-0.18 0.03,-0.06 0.08,-0.1 0.14,-0.13 -0.06,-0.04 -0.1,-0.08 -0.12,-0.13zm0.54 3.01c-0.02,-0.01 -0.05,-0.02 -0.1,-0.02 -0.05,0 -0.09,0.01 -0.11,0.04 -0.01,0.02 -0.02,0.04 -0.03,0.07l-0.2 0c0,-0.07 0.02,-0.13 0.06,-0.17 0.05,-0.07 0.15,-0.11 0.29,-0.11 0.09,0 0.16,0.02 0.23,0.05 0.07,0.04 0.11,0.1 0.11,0.2l0 0.37c0,0.03 0,0.06 0,0.1 0,0.02 0,0.04 0.01,0.05 0.01,0.01 0.02,0.02 0.03,0.03l0 0.03 -0.23 0c0,-0.02 -0.01,-0.03 -0.01,-0.05 0,-0.01 0,-0.03 -0.01,-0.05 -0.03,0.03 -0.06,0.06 -0.1,0.08 -0.04,0.03 -0.09,0.04 -0.15,0.04 -0.08,0 -0.14,-0.02 -0.18,-0.06 -0.05,-0.04 -0.08,-0.1 -0.08,-0.18 0,-0.09 0.04,-0.17 0.12,-0.21 0.04,-0.02 0.1,-0.04 0.19,-0.05l0.07 -0.01c0.04,-0.01 0.07,-0.01 0.08,-0.02 0.03,-0.01 0.05,-0.03 0.05,-0.06 0,-0.03 -0.01,-0.06 -0.04,-0.07zm-0.84 0.05c-0.02,-0.04 -0.06,-0.06 -0.12,-0.06 -0.07,0 -0.12,0.03 -0.15,0.09 -0.01,0.03 -0.02,0.07 -0.02,0.12l0 0.44 -0.21 0 0 -0.81 0.21 0 0 0.12c0.02,-0.04 0.05,-0.07 0.07,-0.09 0.05,-0.03 0.1,-0.05 0.17,-0.05 0.08,0 0.15,0.02 0.2,0.07 0.05,0.04 0.08,0.11 0.08,0.22l0 0.54 -0.22 0 0 -0.49c0,-0.04 0,-0.08 -0.01,-0.1zm-1.17 0.43c0,0 0.03,0.01 0.07,0.01 0.01,0 0.02,0 0.02,0 0.01,0 0.02,0 0.02,0l0 0.15 -0.1 0.01c-0.1,0 -0.16,-0.02 -0.2,-0.05 -0.03,-0.03 -0.04,-0.06 -0.04,-0.12l0 -0.49 -0.11 0 0 -0.15 0.11 0 0 -0.23 0.21 0 0 0.23 0.13 0 0 0.15 -0.13 0 0 0.42c0,0.04 0.01,0.06 0.02,0.07zm0.04 -3.26c-0.04,0.08 -0.07,0.17 -0.1,0.28 -0.02,0.11 -0.04,0.2 -0.04,0.27l-0.25 0c0.01,-0.22 0.08,-0.45 0.22,-0.68 0.09,-0.15 0.16,-0.25 0.22,-0.31l-0.61 0 0 -0.22 0.87 0 0 0.19c-0.04,0.04 -0.09,0.1 -0.15,0.19 -0.07,0.09 -0.12,0.18 -0.16,0.28zm-3.45 0.29l0 -0.21 0.45 -0.75 0.28 0 0 0.77 0.13 0 0 0.19 -0.13 0 0 0.26 -0.24 0 0 -0.26 -0.49 0zm0.55 2.04l0.23 0 0 0.89 0.55 0 0 0.2 -0.78 0 0 -1.09zm0.54 -1.84c-0.07,-0.06 -0.12,-0.15 -0.12,-0.27l0.24 0c0.01,0.06 0.02,0.1 0.05,0.12 0.03,0.03 0.07,0.05 0.12,0.05 0.06,0 0.1,-0.02 0.13,-0.07 0.04,-0.04 0.05,-0.09 0.05,-0.15 0,-0.07 -0.01,-0.12 -0.04,-0.16 -0.03,-0.05 -0.08,-0.07 -0.14,-0.07 -0.03,0 -0.05,0.01 -0.08,0.01 -0.03,0.02 -0.06,0.04 -0.08,0.08l-0.22 -0.01 0.09 -0.68 0.67 0 0 0.21 -0.5 0 -0.04 0.26c0.04,-0.02 0.07,-0.04 0.09,-0.04 0.03,-0.02 0.07,-0.02 0.12,-0.02 0.1,0 0.19,0.03 0.27,0.1 0.07,0.07 0.11,0.17 0.11,0.3 0,0.11 -0.03,0.21 -0.11,0.3 -0.07,0.09 -0.18,0.13 -0.32,0.13 -0.12,0 -0.21,-0.03 -0.29,-0.09zm0.79 2.29c-0.02,-0.01 -0.06,-0.02 -0.1,-0.02 -0.05,0 -0.09,0.01 -0.11,0.04 -0.01,0.02 -0.02,0.04 -0.03,0.07l-0.2 0c0,-0.07 0.02,-0.13 0.05,-0.17 0.06,-0.07 0.16,-0.11 0.29,-0.11 0.09,0 0.17,0.02 0.24,0.05 0.07,0.04 0.1,0.1 0.1,0.2l0 0.37c0,0.03 0,0.06 0.01,0.1 0,0.02 0,0.04 0.01,0.05 0.01,0.01 0.02,0.02 0.03,0.03l0 0.03 -0.23 0c-0.01,-0.02 -0.01,-0.03 -0.01,-0.05 -0.01,-0.01 -0.01,-0.03 -0.01,-0.05 -0.03,0.03 -0.06,0.06 -0.1,0.08 -0.05,0.03 -0.1,0.04 -0.15,0.04 -0.08,0 -0.14,-0.02 -0.19,-0.06 -0.04,-0.04 -0.07,-0.1 -0.07,-0.18 0,-0.09 0.04,-0.17 0.12,-0.21 0.04,-0.02 0.1,-0.04 0.18,-0.05l0.08 -0.01c0.04,-0.01 0.06,-0.01 0.08,-0.02 0.03,-0.01 0.04,-0.03 0.04,-0.06 0,-0.03 -0.01,-0.06 -0.03,-0.07zm0.14 -2.39c-0.05,-0.1 -0.08,-0.23 -0.08,-0.39 0,-0.1 0,-0.17 0.01,-0.23 0.01,-0.1 0.04,-0.19 0.08,-0.26 0.04,-0.06 0.08,-0.11 0.14,-0.14 0.05,-0.04 0.12,-0.06 0.2,-0.06 0.12,0 0.21,0.03 0.27,0.09 0.07,0.06 0.11,0.14 0.12,0.23l-0.24 0c0,-0.02 -0.01,-0.04 -0.02,-0.06 -0.03,-0.04 -0.07,-0.06 -0.12,-0.06 -0.08,0 -0.14,0.05 -0.17,0.13 -0.02,0.05 -0.03,0.12 -0.04,0.22 0.03,-0.04 0.07,-0.06 0.11,-0.08 0.04,-0.02 0.08,-0.02 0.13,-0.02 0.11,0 0.2,0.03 0.27,0.11 0.07,0.07 0.1,0.16 0.1,0.28 0,0.11 -0.03,0.21 -0.1,0.3 -0.07,0.09 -0.17,0.13 -0.32,0.13 -0.15,0 -0.26,-0.06 -0.34,-0.19zm0.73 2.76c-0.01,-0.01 -0.09,-0.03 -0.22,-0.06 -0.09,-0.02 -0.15,-0.05 -0.19,-0.08 -0.04,-0.04 -0.06,-0.09 -0.06,-0.15 0,-0.07 0.03,-0.14 0.09,-0.19 0.06,-0.06 0.14,-0.08 0.25,-0.08 0.1,0 0.18,0.02 0.25,0.06 0.06,0.04 0.1,0.11 0.1,0.21l-0.21 0c0,-0.03 -0.01,-0.05 -0.02,-0.07 -0.02,-0.03 -0.06,-0.04 -0.12,-0.04 -0.04,0 -0.08,0.01 -0.1,0.02 -0.01,0.02 -0.02,0.03 -0.02,0.05 0,0.03 0.01,0.04 0.03,0.05 0.02,0.02 0.09,0.03 0.22,0.06 0.08,0.02 0.14,0.05 0.19,0.09 0.04,0.04 0.06,0.09 0.06,0.15 0,0.08 -0.03,0.15 -0.09,0.2 -0.06,0.05 -0.15,0.07 -0.28,0.07 -0.12,0 -0.22,-0.02 -0.28,-0.08 -0.06,-0.05 -0.09,-0.12 -0.09,-0.2l0.21 0c0.01,0.04 0.02,0.06 0.03,0.08 0.03,0.03 0.08,0.04 0.15,0.04 0.04,0 0.07,0 0.1,-0.02 0.02,-0.01 0.03,-0.03 0.03,-0.05 0,-0.03 -0.01,-0.04 -0.03,-0.06zm-3.67 0.09c0.04,0.02 0.08,0.03 0.12,0.03 0.05,0 0.09,-0.01 0.12,-0.03 0.01,-0.02 0.03,-0.03 0.04,-0.06l0.22 0c-0.01,0.05 -0.04,0.1 -0.08,0.15 -0.07,0.08 -0.18,0.12 -0.31,0.12 -0.1,0 -0.2,-0.04 -0.28,-0.1 -0.08,-0.07 -0.12,-0.18 -0.12,-0.33 0,-0.14 0.03,-0.24 0.11,-0.32 0.07,-0.07 0.17,-0.11 0.29,-0.11 0.07,0 0.13,0.01 0.19,0.04 0.05,0.02 0.1,0.06 0.14,0.12 0.03,0.05 0.05,0.1 0.06,0.16 0.01,0.04 0.01,0.09 0.01,0.16l-0.59 0c0,0.08 0.03,0.14 0.08,0.17zm-0.19 -3.59c0,0.08 -0.02,0.14 -0.07,0.19 -0.02,0.03 -0.05,0.05 -0.08,0.06 0.02,0 0.05,0.02 0.09,0.06 0.07,0.05 0.1,0.13 0.1,0.23 0,0.1 -0.04,0.2 -0.11,0.27 -0.07,0.08 -0.18,0.12 -0.32,0.12 -0.17,0 -0.29,-0.06 -0.36,-0.17 -0.04,-0.06 -0.06,-0.14 -0.06,-0.23l0.24 0c0,0.04 0,0.09 0.02,0.12 0.03,0.06 0.08,0.09 0.16,0.09 0.05,0 0.09,-0.02 0.12,-0.05 0.04,-0.04 0.05,-0.08 0.05,-0.14 0,-0.08 -0.03,-0.14 -0.09,-0.17 -0.04,-0.01 -0.1,-0.02 -0.18,-0.02l0 -0.17c0.08,0 0.13,-0.01 0.17,-0.02 0.03,-0.02 0.05,-0.05 0.06,-0.09 0.01,-0.02 0.02,-0.03 0.02,-0.06 0,-0.04 -0.02,-0.08 -0.05,-0.11 -0.02,-0.03 -0.06,-0.04 -0.11,-0.04 -0.06,0 -0.1,0.01 -0.12,0.05 -0.03,0.04 -0.04,0.08 -0.04,0.14l-0.23 0c0.01,-0.06 0.02,-0.11 0.03,-0.17 0.02,-0.05 0.05,-0.09 0.1,-0.13 0.03,-0.03 0.07,-0.05 0.11,-0.07 0.04,-0.01 0.09,-0.02 0.16,-0.02 0.11,0 0.21,0.03 0.28,0.09 0.07,0.06 0.1,0.13 0.1,0.22 0,0.01 0.01,0.02 0.01,0.02zm-0.47 3.18c-0.02,-0.04 -0.05,-0.06 -0.1,-0.06 -0.06,0 -0.1,0.03 -0.12,0.08 -0.01,0.02 -0.02,0.05 -0.02,0.09l0 0.48 -0.21 0 0 -0.48c0,-0.05 -0.01,-0.09 -0.02,-0.11 -0.01,-0.04 -0.05,-0.06 -0.1,-0.06 -0.06,0 -0.1,0.02 -0.12,0.06 -0.01,0.03 -0.02,0.06 -0.02,0.1l0 0.49 -0.21 0 0 -0.81 0.2 0 0 0.12c0.03,-0.04 0.05,-0.07 0.08,-0.09 0.04,-0.03 0.09,-0.05 0.15,-0.05 0.07,0 0.12,0.02 0.15,0.04 0.04,0.03 0.06,0.06 0.07,0.1 0.03,-0.05 0.07,-0.08 0.11,-0.1 0.04,-0.03 0.09,-0.04 0.14,-0.04 0.04,0 0.07,0.01 0.11,0.02 0.03,0.02 0.06,0.04 0.09,0.07 0.02,0.04 0.04,0.07 0.05,0.11 0,0.03 0,0.07 0,0.12l0 0.51 -0.21 0 0 -0.52c0,-0.03 -0.01,-0.05 -0.02,-0.07zm9.84 -3.25c-0.03,-0.04 -0.07,-0.06 -0.13,-0.06 -0.07,0 -0.12,0.03 -0.14,0.09 -0.02,0.03 -0.03,0.08 -0.03,0.15l-0.24 0c0.01,-0.11 0.03,-0.19 0.06,-0.26 0.07,-0.12 0.18,-0.18 0.34,-0.18 0.13,0 0.24,0.04 0.31,0.11 0.08,0.07 0.12,0.16 0.12,0.28 0,0.09 -0.03,0.17 -0.08,0.24 -0.04,0.05 -0.1,0.1 -0.18,0.16l-0.1 0.07c-0.06,0.04 -0.1,0.07 -0.12,0.09 -0.02,0.02 -0.04,0.04 -0.06,0.07l0.54 0 0 0.21 -0.84 0c0,-0.09 0.02,-0.17 0.06,-0.24 0.03,-0.08 0.11,-0.17 0.24,-0.26 0.11,-0.08 0.18,-0.14 0.22,-0.17 0.05,-0.05 0.07,-0.11 0.07,-0.18 0,-0.05 -0.01,-0.09 -0.04,-0.12zm-0.53 3.05c0.05,0.02 0.1,0.06 0.14,0.12 0.03,0.05 0.05,0.1 0.06,0.16 0.01,0.04 0.01,0.09 0.01,0.16l-0.59 0c0,0.08 0.03,0.14 0.08,0.17 0.04,0.02 0.08,0.03 0.12,0.03 0.05,0 0.09,-0.01 0.12,-0.03 0.02,-0.02 0.03,-0.03 0.04,-0.06l0.22 0c-0.01,0.05 -0.03,0.1 -0.08,0.15 -0.07,0.08 -0.17,0.12 -0.3,0.12 -0.11,0 -0.21,-0.04 -0.29,-0.1 -0.08,-0.07 -0.12,-0.18 -0.12,-0.33 0,-0.14 0.04,-0.24 0.11,-0.32 0.07,-0.07 0.17,-0.11 0.29,-0.11 0.07,0 0.13,0.01 0.19,0.04zm-0.38 -2.08l-0.25 0 0 -0.84 -0.29 0 0 -0.17c0.08,0 0.13,-0.01 0.16,-0.01 0.05,-0.01 0.09,-0.03 0.12,-0.07 0.02,-0.02 0.04,-0.05 0.05,-0.08 0,-0.03 0.01,-0.04 0.01,-0.05l0.2 0 0 1.22zm2.77 -0.52c-0.03,-0.01 -0.09,-0.02 -0.17,-0.02l0 -0.17c0.08,0 0.13,-0.01 0.16,-0.02 0.06,-0.03 0.08,-0.07 0.08,-0.15 0,-0.04 -0.01,-0.08 -0.04,-0.11 -0.03,-0.03 -0.07,-0.04 -0.11,-0.04 -0.06,0 -0.1,0.01 -0.13,0.05 -0.03,0.04 -0.04,0.08 -0.04,0.14l-0.22 0c0,-0.06 0.01,-0.11 0.03,-0.17 0.02,-0.05 0.05,-0.09 0.09,-0.13 0.03,-0.03 0.07,-0.05 0.11,-0.07 0.05,-0.01 0.1,-0.02 0.16,-0.02 0.12,0 0.22,0.03 0.29,0.09 0.07,0.06 0.11,0.14 0.11,0.24 0,0.08 -0.03,0.14 -0.07,0.19 -0.03,0.03 -0.05,0.05 -0.08,0.06 0.02,0 0.05,0.02 0.09,0.06 0.06,0.05 0.09,0.13 0.09,0.23 0,0.1 -0.03,0.19 -0.1,0.27 -0.08,0.08 -0.18,0.12 -0.32,0.12 -0.18,0 -0.3,-0.06 -0.36,-0.17 -0.04,-0.06 -0.06,-0.14 -0.06,-0.24l0.23 0c0,0.05 0.01,0.09 0.03,0.13 0.03,0.06 0.08,0.08 0.16,0.08 0.04,0 0.09,-0.01 0.12,-0.04 0.04,-0.04 0.05,-0.08 0.05,-0.14 0,-0.08 -0.03,-0.14 -0.1,-0.17zm1.33 0.07l0 0.19 -0.14 0 0 0.26 -0.24 0 0 -0.26 -0.48 0 0 -0.21 0.45 -0.75 0.27 0 0 0.77 0.14 0zm0.65 -0.09c-0.03,-0.05 -0.07,-0.07 -0.13,-0.07 -0.03,0 -0.06,0.01 -0.08,0.01 -0.04,0.02 -0.07,0.04 -0.09,0.08l-0.21 -0.01 0.08 -0.68 0.68 0 0 0.21 -0.5 0 -0.05 0.26c0.04,-0.02 0.07,-0.04 0.09,-0.04 0.04,-0.02 0.08,-0.02 0.13,-0.02 0.1,0 0.19,0.03 0.26,0.1 0.08,0.07 0.12,0.17 0.12,0.3 0,0.11 -0.04,0.21 -0.11,0.3 -0.08,0.09 -0.18,0.13 -0.33,0.13 -0.11,0 -0.21,-0.03 -0.29,-0.09 -0.07,-0.06 -0.11,-0.15 -0.12,-0.27l0.24 0c0.01,0.06 0.03,0.1 0.05,0.12 0.03,0.03 0.07,0.05 0.12,0.05 0.06,0 0.11,-0.02 0.14,-0.07 0.03,-0.04 0.04,-0.09 0.04,-0.15 0.01,-0.07 -0.01,-0.12 -0.04,-0.16zm1.24 -0.38l-0.24 0c0,-0.02 -0.01,-0.04 -0.02,-0.06 -0.03,-0.04 -0.07,-0.06 -0.12,-0.06 -0.08,0 -0.13,0.05 -0.16,0.13 -0.02,0.05 -0.03,0.12 -0.04,0.22 0.03,-0.04 0.06,-0.06 0.1,-0.08 0.04,-0.02 0.09,-0.02 0.14,-0.02 0.1,0 0.19,0.03 0.26,0.11 0.07,0.07 0.11,0.16 0.11,0.28 0,0.12 -0.04,0.22 -0.1,0.3 -0.07,0.09 -0.18,0.13 -0.32,0.13 -0.16,0 -0.27,-0.06 -0.34,-0.19 -0.06,-0.1 -0.09,-0.23 -0.09,-0.39 0,-0.09 0,-0.17 0.01,-0.23 0.02,-0.1 0.04,-0.19 0.08,-0.26 0.04,-0.06 0.09,-0.11 0.14,-0.14 0.06,-0.04 0.13,-0.06 0.21,-0.06 0.11,0 0.2,0.03 0.27,0.09 0.07,0.06 0.1,0.14 0.11,0.23zm-15.8 -0.31c0.13,0 0.23,0.04 0.31,0.11 0.07,0.07 0.11,0.16 0.11,0.28 0,0.09 -0.02,0.17 -0.08,0.24 -0.03,0.05 -0.09,0.1 -0.17,0.16 0,0 0,0 0,0l-0.1 0.07c-0.06,0.04 -0.1,0.07 -0.12,0.09 -0.03,0.02 -0.04,0.04 -0.06,0.07l0.53 0 0 0.21 -0.83 0c0,-0.08 0.02,-0.16 0.05,-0.22 0,-0.01 0,-0.01 0,-0.02 0.04,-0.08 0.12,-0.17 0.25,-0.26 0.11,-0.08 0.18,-0.14 0.21,-0.17 0.05,-0.05 0.08,-0.11 0.08,-0.18 0,-0.05 -0.02,-0.09 -0.05,-0.13 -0.03,-0.03 -0.07,-0.05 -0.12,-0.05 -0.07,0 -0.12,0.03 -0.15,0.09 -0.01,0.03 -0.02,0.08 -0.03,0.15l-0.23 0c0,-0.11 0.02,-0.19 0.06,-0.26 0.03,-0.05 0.07,-0.09 0.11,-0.12 0.03,-0.01 0.05,-0.02 0.08,-0.03 0.04,-0.01 0.09,-0.03 0.15,-0.03zm-1.75 4.1l-0.22 0 0 -1.09 0.24 0 0.44 0.76 0 -0.76 0.21 0 0 1.09 -0.23 0 -0.44 -0.78 0 0.78zm0.73 -2.87l0 -0.84 -0.29 0 0 -0.17c0.08,0 0.13,-0.01 0.16,-0.01 0.05,-0.01 0.09,-0.03 0.12,-0.07 0.02,-0.02 0.03,-0.05 0.04,-0.08 0.01,-0.03 0.01,-0.04 0.01,-0.05l0.2 0 0 1.22 -0.24 0 0 0zm-0.79 -3.83l0 -0.78 0.78 0 0 0.8 -0.78 0c0,-0.01 0,-0.01 0,-0.02zm0.78 1.05c-0.31,-0.1 -0.57,-0.32 -0.7,-0.62l0.7 0 0 0.62zm0.41 -0.62l0.68 0 0 0.67 -0.68 0 0 -0.67zm1.09 0l0.69 0c-0.13,0.3 -0.38,0.52 -0.69,0.62l0 -0.62zm0.78 -0.43c0,0.01 0,0.01 0,0.02l-0.78 0 0 -0.8 0.78 0 0 0.78 0 0zm-0.99 -1.19l-0.2 0 0 1.21 -0.68 0 0 -1.99 0.78 0c0.49,0 0.9,0.33 1.04,0.78l-0.94 0zm-1.29 0l-0.73 0c0.1,-0.35 0.38,-0.62 0.73,-0.73l0 0.73zm0.21 7.46c0.04,-0.03 0.1,-0.04 0.18,-0.05l0.08 -0.01c0.04,-0.01 0.06,-0.01 0.08,-0.02 0.03,-0.01 0.05,-0.03 0.05,-0.06 0,-0.03 -0.02,-0.06 -0.04,-0.07 -0.02,-0.01 -0.06,-0.02 -0.1,-0.02 -0.05,0 -0.09,0.01 -0.11,0.04 -0.01,0.02 -0.02,0.04 -0.03,0.07l-0.2 0c0,-0.07 0.02,-0.13 0.06,-0.17 0.05,-0.07 0.15,-0.11 0.29,-0.11 0.08,0 0.16,0.02 0.23,0.05 0.07,0.04 0.11,0.1 0.11,0.2l0 0.37c0,0.03 0,0.06 0,0.1 0,0.02 0,0.04 0.01,0.05 0.01,0.01 0.02,0.02 0.03,0.03l0 0.03 -0.23 0c-0.01,-0.02 -0.01,-0.03 -0.01,-0.05 0,-0.01 -0.01,-0.03 -0.01,-0.05 -0.03,0.03 -0.06,0.06 -0.1,0.08 -0.04,0.03 -0.1,0.04 -0.15,0.04 -0.08,0 -0.14,-0.02 -0.19,-0.06 -0.04,-0.04 -0.07,-0.1 -0.07,-0.18 0,-0.1 0.04,-0.17 0.12,-0.21z"/>
   <path class="fil0" d="M14.12 5.01c0.3,0.33 0.72,0.55 1.2,0.55 0.35,0 0.67,-0.11 0.93,-0.3l0.68 0c0,0 0.01,-0.01 0.01,-0.01 0.11,-0.09 0.21,-0.19 0.3,-0.3l-1.18 0c-0.05,-0.07 -0.1,-0.15 -0.13,-0.24l1.46 0c0.05,-0.1 0.1,-0.2 0.13,-0.31l-1.7 0c-0.01,-0.03 -0.02,-0.05 -0.03,-0.07 -0.01,-0.07 -0.02,-0.13 -0.02,-0.2l1.81 0c0.01,-0.08 0.03,-0.16 0.03,-0.25 0,-0.02 -0.01,-0.04 -0.01,-0.06l-1.86 0c0.01,-0.09 0.01,-0.18 0.03,-0.26l1.8 0c-0.02,-0.11 -0.05,-0.21 -0.09,-0.31l-1.63 0c0.03,-0.1 0.06,-0.19 0.11,-0.28l1.38 0c-0.02,-0.04 -0.06,-0.08 -0.09,-0.13 -0.05,-0.06 -0.09,-0.12 -0.14,-0.18l-0.96 0c0.02,-0.02 0.04,-0.04 0.06,-0.07 -0.26,-0.16 -0.56,-0.26 -0.89,-0.26 -0.89,0 -1.61,0.72 -1.61,1.61 0,0.12 0.01,0.23 0.03,0.33 0.06,0.28 0.2,0.53 0.38,0.74z"/>
  </g>
 </g>
</svg>
