<?xml version="1.0" encoding="UTF-8"?>
<!DOCTYPE svg PUBLIC "-//W3C//DTD SVG 1.1//EN" "http://www.w3.org/Graphics/SVG/1.1/DTD/svg11.dtd">
<!-- Creator: CorelDRAW 2020 (64-Bit) -->
<svg xmlns="http://www.w3.org/2000/svg" xml:space="preserve" width="211px" height="140px" version="1.1" style="shape-rendering:geometricPrecision; text-rendering:geometricPrecision; image-rendering:optimizeQuality; fill-rule:evenodd; clip-rule:evenodd"
viewBox="0 0 11.2 7.45"
 xmlns:xlink="http://www.w3.org/1999/xlink"
 xmlns:xodm="http://www.corel.com/coreldraw/odm/2003">
 <defs>
  <style type="text/css">
   <![CDATA[
    .fil0 {fill:#77A4E5;fill-rule:nonzero}
   ]]>
  </style>
 </defs>
 <g id="Слой_x0020_1">
  <metadata id="CorelCorpID_0Corel-Layer"/>
  <path class="fil0" d="M11.08 2.84l-3.01 -2.75c-0.13,-0.12 -0.33,-0.12 -0.47,0l-3.01 2.75c-0.11,0.09 -0.14,0.24 -0.09,0.38 0.05,0.13 0.18,0.22 0.32,0.22l0.48 0 0 2.75c0,0.11 0.09,0.2 0.2,0.2l1.65 0c0.11,0 0.2,-0.09 0.2,-0.2l0 -1.67 0.97 0 0 1.67c0,0.11 0.09,0.2 0.2,0.2l1.65 0c0.11,0 0.2,-0.09 0.2,-0.2l0 -2.75 0.48 0c0.15,0 0.27,-0.09 0.32,-0.22 0.06,-0.14 0.02,-0.29 -0.09,-0.38zm-8.88 0.79c0,0.4 0.8,0.61 1.59,0.61 0.42,0 0.84,-0.05 1.14,-0.17l0 -0.41 -0.5 0c-0.14,0 -0.27,-0.09 -0.33,-0.23 -0.05,-0.13 -0.02,-0.29 0.09,-0.39l0.01 0c-0.91,-0.08 -2,0.11 -2,0.59zm2.73 0.7c-0.31,0.11 -0.7,0.16 -1.14,0.16 -0.58,0 -1.08,-0.1 -1.41,-0.27 -0.04,-0.02 -0.08,-0.02 -0.12,0 -0.04,0.03 -0.06,0.07 -0.06,0.11l0 0.04c0,0.4 0.8,0.61 1.59,0.61 0.42,0 0.84,-0.06 1.14,-0.17l0 -0.48zm-4.2 1.76c0,0.41 0.8,0.62 1.59,0.62 0.79,0 1.59,-0.21 1.59,-0.62 0,-0.81 -3.18,-0.81 -3.18,0zm3 0.6c-0.32,0.17 -0.83,0.27 -1.41,0.27 -0.58,0 -1.08,-0.1 -1.41,-0.27 -0.03,-0.02 -0.08,-0.02 -0.12,0 -0.03,0.02 -0.06,0.06 -0.06,0.1l0 0.04c0,0.41 0.8,0.62 1.59,0.62 0.79,0 1.59,-0.21 1.59,-0.62l0 -0.04c0,-0.04 -0.02,-0.08 -0.06,-0.1 -0.03,-0.02 -0.08,-0.02 -0.12,0zm-2.14 -3.43c0.17,0 0.33,-0.01 0.49,-0.03 0.03,0 0.05,-0.01 0.07,-0.03 0.19,-0.18 0.5,-0.31 0.92,-0.38 0.04,0 0.08,-0.04 0.09,-0.08 0.01,-0.03 0.02,-0.07 0.02,-0.1 0,-0.81 -3.18,-0.81 -3.18,0 0,0.41 0.8,0.62 1.59,0.62zm0 0.74c0.1,0 0.2,-0.01 0.3,-0.01 0.03,0 0.07,-0.03 0.09,-0.06 0.02,-0.03 0.03,-0.07 0.01,-0.11 -0.02,-0.06 -0.03,-0.13 -0.03,-0.2 0,-0.03 -0.02,-0.06 -0.04,-0.09 -0.02,-0.02 -0.06,-0.04 -0.09,-0.03 -0.08,0 -0.16,0 -0.24,0 -0.58,0 -1.08,-0.09 -1.41,-0.26 -0.04,-0.02 -0.08,-0.02 -0.12,0 -0.04,0.02 -0.06,0.06 -0.06,0.1l0 0.04c0,0.41 0.8,0.62 1.59,0.62zm0 0.74c0.1,0 0.2,-0.01 0.3,-0.01 0.03,-0.01 0.07,-0.03 0.09,-0.06 0.02,-0.03 0.03,-0.07 0.01,-0.11 -0.02,-0.06 -0.03,-0.13 -0.03,-0.2 0,-0.03 -0.02,-0.07 -0.04,-0.09 -0.03,-0.02 -0.06,-0.03 -0.09,-0.03 -0.08,0 -0.16,0 -0.24,0 -0.58,0 -1.08,-0.09 -1.41,-0.27 -0.04,-0.02 -0.08,-0.01 -0.12,0.01 -0.04,0.02 -0.06,0.06 -0.06,0.1l0 0.04c0,0.41 0.8,0.62 1.59,0.62zm3.34 1.07c-0.19,0.06 -0.41,0.11 -0.66,0.13 -0.07,0.01 -0.11,0.09 -0.11,0.15 0,0.06 -0.01,0.12 -0.03,0.18 -0.02,0.04 -0.01,0.09 0.02,0.12 0.02,0.03 0.06,0.05 0.09,0.05 0.01,0 0.01,0 0.02,0 0.26,-0.03 0.49,-0.08 0.67,-0.15l0 -0.48zm-2.61 -0.58l0.09 0c0,0 0,0 0,0 0.05,0 0.1,-0.04 0.12,-0.09 0.01,-0.06 -0.02,-0.12 -0.07,-0.14l-0.03 -0.02c-0.02,0 -0.03,-0.01 -0.05,-0.02 -0.04,-0.02 -0.08,-0.02 -0.12,0 -0.04,0.03 -0.06,0.07 -0.06,0.11l0 0.04c0,0.06 0.06,0.12 0.12,0.12zm2.61 -0.16c-0.31,0.11 -0.7,0.16 -1.14,0.16l-0.08 0c-0.05,-0.01 -0.11,0.04 -0.12,0.09 -0.01,0.06 0.02,0.12 0.07,0.14 0.13,0.06 0.24,0.14 0.32,0.22 0.02,0.02 0.05,0.03 0.09,0.03 0,0 0,0 0,0 0.3,-0.01 0.61,-0.07 0.86,-0.16l0 -0.48zm5.59 -3.29l0 -1.19c0,-0.11 -0.09,-0.2 -0.2,-0.2l-1.33 0 1.53 1.39zm-9.5 3.66c0.02,0 0.03,0 0.05,-0.01 0.21,-0.09 0.48,-0.15 0.78,-0.18 0.06,0 0.11,-0.08 0.11,-0.15 0,-0.03 -0.02,-0.07 -0.04,-0.09 -0.03,-0.02 -0.06,-0.03 -0.09,-0.03 -0.08,0 -0.16,0 -0.24,0 -0.58,0 -1.08,-0.09 -1.41,-0.27 -0.04,-0.02 -0.08,-0.01 -0.12,0.01 -0.04,0.02 -0.06,0.06 -0.06,0.1l0 0.04c0,0.27 0.38,0.49 1.01,0.58 0,0 0.01,0 0.01,0z"/>
 </g>
</svg>
