<?xml version="1.0" encoding="UTF-8"?>
<!DOCTYPE svg PUBLIC "-//W3C//DTD SVG 1.1//EN" "http://www.w3.org/Graphics/SVG/1.1/DTD/svg11.dtd">
<!-- Creator: CorelDRAW 2020 (64-Bit) -->
<svg xmlns="http://www.w3.org/2000/svg" xml:space="preserve" width="196px" height="186px" version="1.1" style="shape-rendering:geometricPrecision; text-rendering:geometricPrecision; image-rendering:optimizeQuality; fill-rule:evenodd; clip-rule:evenodd"
viewBox="0 0 20.86 19.82"
 xmlns:xlink="http://www.w3.org/1999/xlink"
 xmlns:xodm="http://www.corel.com/coreldraw/odm/2003">
 <defs>
  <style type="text/css">
   <![CDATA[
    .fil0 {fill:#77A4E5;fill-rule:nonzero}
   ]]>
  </style>
 </defs>
 <g id="Слой_x0020_1">
  <metadata id="CorelCorpID_0Corel-Layer"/>
  <path class="fil0" d="M19.56 12.86l0 3.4 -0.53 0.52c-0.06,-0.01 -0.13,-0.04 -0.2,-0.04 -0.58,0 -1.05,0.47 -1.05,1.05 0,0.07 0.03,0.13 0.04,0.2l-0.53 0.53 -10.68 0 -0.53 -0.53c0.02,-0.06 0.04,-0.13 0.04,-0.2 0,-0.58 -0.47,-1.05 -1.05,-1.05 -0.07,0 -0.13,0.03 -0.19,0.04l-0.53 -0.53 0 -3.4 0.52 -0.52c0.07,0.01 0.13,0.04 0.2,0.04 0.58,0 1.05,-0.47 1.05,-1.05 0,-0.07 -0.02,-0.13 -0.04,-0.2l0.53 -0.53 10.68 0 0.53 0.53c-0.01,0.07 -0.04,0.13 -0.04,0.2 0,0.58 0.47,1.05 1.05,1.05 0.07,0 0.13,-0.03 0.2,-0.04l0.53 0.53zm-10.55 -6.39c-0.71,0.38 -1.21,0.97 -1.5,1.61l5.85 0c-0.04,-0.24 -0.12,-0.49 -0.24,-0.71 -0.73,-1.34 -2.57,-1.74 -4.11,-0.9zm-7.17 2.82c0,-0.66 0.54,-1.21 1.21,-1.21l0.66 0 0.04 -0.1 9.36 -5.13 0.72 0.21c0.02,0.06 0.03,0.13 0.06,0.19 0.28,0.51 0.92,0.7 1.43,0.42 0.06,-0.03 0.1,-0.09 0.15,-0.13l0.72 0.21 1.63 2.98 -0.21 0.71c-0.06,0.02 -0.13,0.03 -0.19,0.06 -0.24,0.13 -0.4,0.35 -0.48,0.58l3.1 0 -2.09 -3.82 -2.33 -4.26 -4.26 2.34 -7.1 3.88 -4.26 2.33 1.84 3.36 0 -2.62zm14.16 -2.92c0,0.57 -0.47,1.04 -1.05,1.04 -0.58,0 -1.05,-0.47 -1.05,-1.04 0,-0.58 0.47,-1.06 1.05,-1.06 0.58,0 1.05,0.48 1.05,1.06zm-8.26 8.19c0,0.57 -0.47,1.04 -1.05,1.04 -0.58,0 -1.05,-0.47 -1.05,-1.04 0,-0.58 0.47,-1.05 1.05,-1.05 0.58,0 1.05,0.47 1.05,1.05zm7.39 0c0,1.52 -1.42,2.76 -3.18,2.76 -1.75,0 -3.17,-1.24 -3.17,-2.76 0,-1.53 1.42,-2.77 3.17,-2.77 1.76,0 3.18,1.24 3.18,2.77zm3.13 0c0,0.57 -0.47,1.04 -1.05,1.04 -0.58,0 -1.05,-0.47 -1.05,-1.04 0,-0.58 0.47,-1.05 1.05,-1.05 0.58,0 1.05,0.47 1.05,1.05zm2.6 -5.27l-4.86 0 -8.09 0 -4.86 0 0 4.86 0 0.81 0 4.86 4.86 0 8.09 0 4.86 0 0 -4.86 0 -0.81 0 -4.86z"/>
 </g>
</svg>
