<?xml version="1.0" encoding="UTF-8"?>
<!DOCTYPE svg PUBLIC "-//W3C//DTD SVG 1.1//EN" "http://www.w3.org/Graphics/SVG/1.1/DTD/svg11.dtd">
<!-- Creator: CorelDRAW 2020 (64-Bit) -->
<svg xmlns="http://www.w3.org/2000/svg" xml:space="preserve" width="216px" height="143px" version="1.1" style="shape-rendering:geometricPrecision; text-rendering:geometricPrecision; image-rendering:optimizeQuality; fill-rule:evenodd; clip-rule:evenodd"
viewBox="0 0 11.77 7.79"
 xmlns:xlink="http://www.w3.org/1999/xlink"
 xmlns:xodm="http://www.corel.com/coreldraw/odm/2003">
 <defs>
  <style type="text/css">
   <![CDATA[
    .fil1 {fill:#77A4E5}
    .fil2 {fill:#77A4E5}
    .fil0 {fill:white;fill-rule:nonzero}
    .fil3 {fill:#77A4E5;fill-rule:nonzero}
   ]]>
  </style>
 </defs>
 <g id="Слой_x0020_1">
  <metadata id="CorelCorpID_0Corel-Layer"/>
  <g id="_2550002795088">
   <path class="fil0" d="M6.49 1.42c-0.07,-0.01 -0.15,-0.04 -0.2,-0.05l-0.03 0.48c-0.06,1.07 -0.07,2.77 0.51,3.73 0.33,0.56 1.62,1.93 2.24,2.21 1.46,-0.89 2.51,-2.18 2.7,-3.9 0.08,-0.68 0.07,-1.36 0.04,-2.04l-0.04 -0.48c-0.25,0.1 -0.74,0.08 -1.02,0.05 -0.36,-0.04 -0.69,-0.14 -1.07,-0.36 -0.35,-0.2 -0.48,-0.31 -0.57,-0.34 -0.09,-0.03 -0.15,0.02 -0.33,0.14 -0.66,0.43 -1.24,0.66 -2.23,0.56z"/>
   <path class="fil1" d="M7.48 5.7c0.44,0.57 0.95,0.96 1.51,1.38 0.2,-0.07 0.98,-0.76 1.19,-0.98 0.62,-0.68 0.89,-1.14 1.01,-2.08 0.08,-0.71 0.05,-1.43 0.01,-2.15 -0.4,0.14 -0.81,0.1 -1.21,-0.04 -0.2,-0.07 -0.92,-0.48 -0.98,-0.48 -0.12,-0.01 -0.78,0.46 -1.22,0.54 -0.28,0.05 -0.74,0.06 -0.99,-0.02 -0.04,0.45 -0.05,1.24 -0.02,1.71 0.03,0.47 0.07,0.83 0.18,1.18 0.1,0.31 0.26,0.6 0.52,0.94z"/>
   <path class="fil0" d="M0.36 2.69c-0.44,0.74 -0.35,1.08 -0.36,2.01 0,0.51 -0.04,0.84 0.23,1.25 0.04,0.05 0.12,0.13 0.13,0.18 0.01,0.07 0,0.52 0,0.61 0.06,0.14 0.08,0.32 0.34,0.44 0.18,0.08 0.5,0.05 0.72,0.05 0.27,0 0.48,0.02 0.65,-0.13 0.17,-0.15 0.21,-0.29 0.21,-0.59l1.31 0 2.8 0 0.62 0c-0.03,-0.06 -0.08,-0.11 -0.13,-0.17 -0.05,-0.07 -0.1,-0.11 -0.14,-0.19 -0.04,-0.02 -0.16,-0.21 -0.18,-0.26 -0.67,0 -1.33,0 -2,0 -0.25,0 -0.75,0.03 -0.96,-0.04 -0.22,-0.08 -0.39,-0.29 -0.4,-0.6l3.01 0 -0.14 -0.43c-0.69,0 -1.38,0 -2.07,0 -0.15,0 -0.36,0.02 -0.49,-0.04 -0.35,-0.14 -0.54,-0.67 -0.52,-1.01l2.91 0c-0.03,-0.52 -0.07,-1.06 -0.05,-1.59l0 -0.12 -4.07 0c0.02,-0.05 0.8,-0.78 0.91,-0.89 0.48,-0.48 0.5,-0.58 1.23,-0.58l2.73 0c0.18,0 0.44,-0.02 0.64,0.03 0.22,0.05 0.47,0.34 0.57,0.29 0.1,-0.04 0.39,-0.18 0.45,-0.24 -0.23,-0.23 -0.39,-0.4 -0.7,-0.55 -0.09,-0.05 -0.21,-0.08 -0.39,-0.11 -0.28,-0.02 -3.05,0 -3.41,0 -0.67,0 -0.89,0.15 -1.23,0.47 -0.23,0.21 -0.67,0.67 -0.87,0.84 -0.04,-0.28 -0.11,-0.44 -0.42,-0.45 -0.47,-0.02 -1.14,0.18 -0.74,0.73 0.16,0.21 0.49,0.29 0.53,0.33 -0.11,0.15 -0.49,0.42 -0.72,0.76z"/>
   <path class="fil0" d="M9 6.53c0.43,-0.16 1.3,-1.14 1.53,-1.59 0.19,-0.38 0.25,-0.75 0.27,-1.2 0.02,-0.49 0,-0.93 -0.02,-1.41 -0.31,0.11 -0.64,0.07 -0.95,-0.03 -0.2,-0.06 -0.74,-0.39 -0.81,-0.4 -0.09,-0.01 -0.65,0.38 -0.99,0.44 -0.23,0.04 -0.6,0.05 -0.8,-0.01 -0.03,0.37 -0.05,0.79 -0.03,1.2 0.04,0.72 0.18,1.26 0.48,1.74 0.35,0.53 0.82,0.88 1.32,1.26z"/>
   <path class="fil2" d="M0.94 2.97c-0.42,0.09 -0.65,0.62 -0.35,1.01 0.13,0.17 0.3,0.23 0.59,0.24 0.27,0 0.55,0.01 0.81,-0.02 0.86,-0.09 0.43,-0.49 0.1,-0.74 -0.2,-0.16 -0.81,-0.56 -1.15,-0.49z"/>
   <path class="fil2" d="M2.79 5.89c-0.02,-0.06 -0.27,-0.32 -0.33,-0.4l-0.35 -0.4c-0.08,-0.1 -0.09,-0.1 -0.26,-0.1l-0.92 0c-0.08,0 -0.09,0.01 -0.12,0.07 -0.23,0.44 0.16,0.72 0.52,0.82 0.09,0.03 1.25,0 1.46,0.01z"/>
   <path class="fil3" d="M9 5.17c-0.23,0 -0.44,-0.05 -0.62,-0.15 -0.19,-0.1 -0.33,-0.24 -0.44,-0.41 -0.1,-0.18 -0.15,-0.37 -0.15,-0.59 0,-0.22 0.05,-0.41 0.15,-0.59 0.11,-0.17 0.25,-0.31 0.44,-0.41 0.18,-0.1 0.39,-0.15 0.62,-0.15 0.23,0 0.44,0.05 0.62,0.15 0.18,0.1 0.33,0.24 0.43,0.41 0.11,0.18 0.16,0.37 0.16,0.59 0,0.22 -0.05,0.41 -0.16,0.59 -0.1,0.17 -0.25,0.31 -0.43,0.41 -0.18,0.1 -0.39,0.15 -0.62,0.15zm0 -0.44c0.13,0 0.25,-0.03 0.36,-0.09 0.1,-0.06 0.18,-0.14 0.24,-0.25 0.06,-0.11 0.09,-0.23 0.09,-0.37 0,-0.14 -0.03,-0.26 -0.09,-0.37 -0.06,-0.1 -0.14,-0.19 -0.24,-0.25 -0.11,-0.06 -0.23,-0.09 -0.36,-0.09 -0.13,0 -0.25,0.03 -0.35,0.09 -0.11,0.06 -0.19,0.15 -0.25,0.25 -0.06,0.11 -0.09,0.23 -0.09,0.37 0,0.14 0.03,0.26 0.09,0.37 0.06,0.11 0.14,0.19 0.25,0.25 0.1,0.06 0.22,0.09 0.35,0.09z"/>
  </g>
 </g>
</svg>
