<?xml version="1.0" encoding="UTF-8"?>
<!DOCTYPE svg PUBLIC "-//W3C//DTD SVG 1.1//EN" "http://www.w3.org/Graphics/SVG/1.1/DTD/svg11.dtd">
<!-- Creator: CorelDRAW 2020 (64-Bit) -->
<svg xmlns="http://www.w3.org/2000/svg" xml:space="preserve" width="210px" height="159px" version="1.1" style="shape-rendering:geometricPrecision; text-rendering:geometricPrecision; image-rendering:optimizeQuality; fill-rule:evenodd; clip-rule:evenodd"
viewBox="0 0 6.5 4.92"
 xmlns:xlink="http://www.w3.org/1999/xlink"
 xmlns:xodm="http://www.corel.com/coreldraw/odm/2003">
 <defs>
  <style type="text/css">
   <![CDATA[
    .fil0 {fill:white;fill-rule:nonzero}
   ]]>
  </style>
 </defs>
 <g id="Слой_x0020_1">
  <metadata id="CorelCorpID_0Corel-Layer"/>
  <path class="fil0" d="M2.22 1.32c0.03,-0.06 0.06,-0.11 0.09,-0.16 0.42,-0.69 1.33,-0.92 2.03,-0.5 0.32,0.2 0.54,0.51 0.64,0.85l-0.18 0.05c-0.04,0.01 -0.07,0.04 -0.08,0.08 -0.01,0.04 0,0.08 0.03,0.11 0.02,0.01 0.53,0.61 0.49,0.58 0.04,0.04 0.15,0.04 0.19,-0.05 0,-0.02 0.29,-0.82 0.28,-0.77 0.01,-0.04 0,-0.08 -0.03,-0.11 -0.02,-0.03 -0.07,-0.05 -0.11,-0.04l-0.15 0.04c-0.12,-0.45 -0.42,-0.86 -0.85,-1.12 -0.91,-0.55 -2.1,-0.26 -2.65,0.64l0 0.01c-0.03,0.05 -0.06,0.1 -0.07,0.13 -0.03,0.05 -0.02,0.1 0.02,0.13l0.17 0.16c0.06,0.06 0.15,0.04 0.18,-0.03zm2.41 3.48l0.18 0.12 1.33 -1.79 -0.17 -0.13 -1.34 1.8zm-0.35 -1.32c0,0.28 0.22,0.47 0.52,0.47 0.3,0 0.52,-0.19 0.52,-0.47 0,-0.29 -0.22,-0.47 -0.52,-0.47 -0.3,0 -0.52,0.18 -0.52,0.47zm0.28 0c0,-0.14 0.11,-0.23 0.24,-0.23 0.14,0 0.24,0.09 0.24,0.23 0,0.14 -0.1,0.23 -0.24,0.23 -0.13,0 -0.24,-0.09 -0.24,-0.23zm0.89 0.96c0,0.28 0.22,0.48 0.52,0.48 0.31,0 0.53,-0.2 0.53,-0.48 0,-0.29 -0.22,-0.47 -0.53,-0.47 -0.3,0 -0.52,0.18 -0.52,0.47zm0.29 0c0,-0.14 0.1,-0.23 0.23,-0.23 0.14,0 0.24,0.09 0.24,0.23 0,0.14 -0.1,0.23 -0.24,0.23 -0.13,0 -0.23,-0.09 -0.23,-0.23zm-5.15 0.27l0.29 0.21 2.24 -2.99 -0.29 -0.22 -2.24 3zm-0.59 -2.2c0,0.48 0.37,0.8 0.87,0.8 0.51,0 0.88,-0.32 0.88,-0.8 0,-0.48 -0.37,-0.79 -0.88,-0.79 -0.5,0 -0.87,0.31 -0.87,0.79zm0.48 0c0,-0.23 0.17,-0.37 0.39,-0.37 0.23,0 0.4,0.14 0.4,0.37 0,0.24 -0.17,0.38 -0.4,0.38 -0.21,0 -0.39,-0.14 -0.39,-0.38zm1.48 1.61c0,0.47 0.37,0.79 0.87,0.79 0.51,0 0.88,-0.32 0.88,-0.79 0,-0.48 -0.37,-0.79 -0.88,-0.79 -0.5,0 -0.87,0.31 -0.87,0.79zm0.48 0c0,-0.23 0.17,-0.38 0.39,-0.38 0.23,0 0.4,0.15 0.4,0.38 0,0.23 -0.16,0.38 -0.4,0.38 -0.21,0 -0.39,-0.15 -0.39,-0.38z"/>
 </g>
</svg>
