<?xml version="1.0" encoding="UTF-8"?>
<!DOCTYPE svg PUBLIC "-//W3C//DTD SVG 1.1//EN" "http://www.w3.org/Graphics/SVG/1.1/DTD/svg11.dtd">
<!-- Creator: CorelDRAW 2020 (64-Bit) -->
<svg xmlns="http://www.w3.org/2000/svg" xml:space="preserve" width="210px" height="159px" version="1.1" style="shape-rendering:geometricPrecision; text-rendering:geometricPrecision; image-rendering:optimizeQuality; fill-rule:evenodd; clip-rule:evenodd"
viewBox="0 0 7.7 5.83"
 xmlns:xlink="http://www.w3.org/1999/xlink"
 xmlns:xodm="http://www.corel.com/coreldraw/odm/2003">
 <defs>
  <style type="text/css">
   <![CDATA[
    .fil0 {fill:#77A4E5;fill-rule:nonzero}
   ]]>
  </style>
 </defs>
 <g id="Слой_x0020_1">
  <metadata id="CorelCorpID_0Corel-Layer"/>
  <path class="fil0" d="M2.64 1.56c0.03,-0.07 0.06,-0.13 0.1,-0.19 0.49,-0.82 1.58,-1.08 2.4,-0.58 0.38,0.23 0.65,0.6 0.76,1l-0.21 0.06c-0.05,0.01 -0.09,0.05 -0.1,0.09 -0.01,0.05 0.01,0.1 0.04,0.13 0.02,0.02 0.63,0.73 0.59,0.69 0.05,0.06 0.18,0.05 0.21,-0.06 0.01,-0.02 0.36,-0.96 0.34,-0.91 0.01,-0.05 0.01,-0.1 -0.03,-0.14 -0.03,-0.03 -0.08,-0.05 -0.13,-0.03l-0.18 0.04c-0.15,-0.54 -0.5,-1.02 -1.01,-1.33 -1.07,-0.65 -2.49,-0.31 -3.14,0.77l0 0c-0.04,0.07 -0.07,0.12 -0.09,0.16 -0.03,0.05 -0.02,0.11 0.03,0.15l0.21 0.19c0.06,0.07 0.17,0.04 0.21,-0.04zm2.85 4.13l0.21 0.14 1.59 -2.12 -0.21 -0.15 -1.59 2.13zm-0.42 -1.56c0,0.33 0.26,0.56 0.62,0.56 0.36,0 0.62,-0.23 0.62,-0.56 0,-0.34 -0.26,-0.56 -0.62,-0.56 -0.36,0 -0.62,0.22 -0.62,0.56zm0.34 0c0,-0.17 0.13,-0.27 0.28,-0.27 0.16,0 0.29,0.1 0.29,0.27 0,0.16 -0.12,0.27 -0.29,0.27 -0.15,0 -0.28,-0.11 -0.28,-0.27zm1.05 1.13c0,0.34 0.27,0.57 0.62,0.57 0.36,0 0.62,-0.23 0.62,-0.57 0,-0.33 -0.26,-0.56 -0.62,-0.56 -0.35,0 -0.62,0.23 -0.62,0.56zm0.34 0c0,-0.16 0.13,-0.26 0.28,-0.26 0.16,0 0.29,0.1 0.29,0.26 0,0.17 -0.12,0.28 -0.29,0.28 -0.15,0 -0.28,-0.11 -0.28,-0.28zm-6.1 0.33l0.35 0.24 2.65 -3.54 -0.34 -0.26 -2.66 3.56zm-0.7 -2.61c0,0.56 0.44,0.94 1.04,0.94 0.6,0 1.03,-0.38 1.03,-0.94 0,-0.57 -0.43,-0.94 -1.03,-0.94 -0.6,0 -1.04,0.37 -1.04,0.94zm0.57 0c0,-0.27 0.2,-0.45 0.47,-0.45 0.26,0 0.47,0.18 0.47,0.45 0,0.28 -0.2,0.45 -0.47,0.45 -0.26,0 -0.47,-0.17 -0.47,-0.45zm1.76 1.9c0,0.57 0.43,0.95 1.03,0.95 0.6,0 1.04,-0.38 1.04,-0.95 0,-0.56 -0.44,-0.93 -1.04,-0.93 -0.6,0 -1.03,0.37 -1.03,0.93zm0.56 0c0,-0.27 0.21,-0.44 0.47,-0.44 0.27,0 0.48,0.17 0.48,0.44 0,0.28 -0.2,0.46 -0.48,0.46 -0.26,0 -0.47,-0.18 -0.47,-0.46z"/>
 </g>
</svg>
