<?xml version="1.0" encoding="UTF-8"?>
<!DOCTYPE svg PUBLIC "-//W3C//DTD SVG 1.1//EN" "http://www.w3.org/Graphics/SVG/1.1/DTD/svg11.dtd">
<!-- Creator: CorelDRAW 2020 (64-Bit) -->
<svg xmlns="http://www.w3.org/2000/svg" xml:space="preserve" width="146px" height="169px" version="1.1" style="shape-rendering:geometricPrecision; text-rendering:geometricPrecision; image-rendering:optimizeQuality; fill-rule:evenodd; clip-rule:evenodd"
viewBox="0 0 5.28 6.11"
 xmlns:xlink="http://www.w3.org/1999/xlink"
 xmlns:xodm="http://www.corel.com/coreldraw/odm/2003">
 <defs>
  <style type="text/css">
   <![CDATA[
    .fil0 {fill:#77A4E5;fill-rule:nonzero}
   ]]>
  </style>
 </defs>
 <g id="Слой_x0020_1">
  <metadata id="CorelCorpID_0Corel-Layer"/>
  <path class="fil0" d="M3.01 3.59l0.44 0 0 -0.37 -0.44 0 0 0.37zm0.59 -2.48l-3.23 0c-0.2,0 -0.37,0.14 -0.37,0.32l0 4.37c0,0.17 0.17,0.31 0.37,0.31l3.23 0c0.21,0 0.37,-0.14 0.37,-0.31l0 -4.37c0,-0.18 -0.16,-0.32 -0.37,-0.32zm-2.36 4.69c0,0.06 -0.05,0.1 -0.12,0.1l-0.75 0c-0.07,0 -0.12,-0.04 -0.12,-0.1l0 -0.62c0,-0.06 0.05,-0.11 0.12,-0.11l0.75 0c0.07,0 0.12,0.05 0.12,0.11l0 0.62zm0 -1.04c0,0.06 -0.05,0.1 -0.12,0.1l-0.75 0c-0.07,0 -0.12,-0.04 -0.12,-0.1l0 -0.63c0,-0.05 0.05,-0.1 0.12,-0.1l0.75 0c0.07,0 0.12,0.05 0.12,0.1l0 0.63zm1.24 1.04c0,0.06 -0.05,0.1 -0.12,0.1l-0.75 0c-0.06,0 -0.12,-0.04 -0.12,-0.1l0 -0.62c0,-0.06 0.06,-0.11 0.12,-0.11l0.75 0c0.07,0 0.12,0.05 0.12,0.11l0 0.62zm0 -1.04c0,0.06 -0.05,0.1 -0.12,0.1l-0.75 0c-0.06,0 -0.12,-0.04 -0.12,-0.1l0 -0.63c0,-0.05 0.06,-0.1 0.12,-0.1l0.75 0c0.07,0 0.12,0.05 0.12,0.1l0 0.63zm0 -1.04c0,0.06 -0.05,0.1 -0.12,0.1l-1.99 0c-0.07,0 -0.12,-0.04 -0.12,-0.1l0 -0.63c0,-0.05 0.05,-0.1 0.12,-0.1l1.99 0c0.07,0 0.12,0.05 0.12,0.1l0 0.63zm1.25 2.08c0,0.06 -0.06,0.1 -0.13,0.1l-0.74 0c-0.07,0 -0.13,-0.04 -0.13,-0.1l0 -1.67c0,-0.05 0.06,-0.1 0.13,-0.1l0.74 0c0.07,0 0.13,0.05 0.13,0.1l0 1.67zm0 -2.08c0,0.06 -0.06,0.1 -0.13,0.1l-0.74 0c-0.07,0 -0.13,-0.04 -0.13,-0.1l0 -0.63c0,-0.05 0.06,-0.1 0.13,-0.1l0.74 0c0.07,0 0.13,0.05 0.13,0.1l0 0.63zm0 -1.04c0,0.05 -0.06,0.1 -0.13,0.1l-3.23 0c-0.07,0 -0.12,-0.05 -0.12,-0.1l0 -1.25c0,-0.06 0.05,-0.11 0.12,-0.11l3.23 0c0.07,0 0.13,0.05 0.13,0.11l0 1.25zm-3.24 2.99l0.48 0 0 -0.37 -0.48 0 0 0.37zm4.03 -5.52l0 0.49 0.58 0 -0.58 -0.49zm-0.12 0.7c-0.07,0 -0.13,-0.05 -0.13,-0.11l0 -0.74 -3.55 0 0 0.85 2.92 0c0.34,0 0.63,0.24 0.63,0.53l0 4.15 1.01 0 0 -4.68 -0.88 0zm-3.84 0.74l0 0.92 2.86 0 0 -0.92c-0.96,0 -1.91,0 -2.86,0zm-0.03 2l1.68 0 0 -0.37 -1.68 0 0 0.37zm1.22 1.04l0.48 0 0 -0.37 -0.48 0 0 0.37zm-1.26 0l0.48 0 0 -0.37 -0.48 0 0 0.37zm2.52 0.96l0.44 0 0 -1.25 -0.44 0 0 1.25zm-1.26 0.08l0.48 0 0 -0.37 -0.48 0 0 0.37z"/>
 </g>
</svg>
