<?xml version="1.0" encoding="UTF-8"?>
<!DOCTYPE svg PUBLIC "-//W3C//DTD SVG 1.1//EN" "http://www.w3.org/Graphics/SVG/1.1/DTD/svg11.dtd">
<!-- Creator: CorelDRAW 2020 (64-Bit) -->
<svg xmlns="http://www.w3.org/2000/svg" xml:space="preserve" width="190px" height="190px" version="1.1" style="shape-rendering:geometricPrecision; text-rendering:geometricPrecision; image-rendering:optimizeQuality; fill-rule:evenodd; clip-rule:evenodd"
viewBox="0 0 9.06 9.06"
 xmlns:xlink="http://www.w3.org/1999/xlink"
 xmlns:xodm="http://www.corel.com/coreldraw/odm/2003">
 <defs>
  <style type="text/css">
   <![CDATA[
    .fil0 {fill:#77A4E5;fill-rule:nonzero}
   ]]>
  </style>
 </defs>
 <g id="Слой_x0020_1">
  <metadata id="CorelCorpID_0Corel-Layer"/>
  <path class="fil0" d="M4.37 4.05l0 0.64 0.49 0 0 -0.48c0,-0.09 0.07,-0.16 0.16,-0.16l2.26 0c0.09,0 0.16,0.07 0.16,0.16l0 0.48 0.49 0 0 -0.64c0,-0.27 -0.22,-0.49 -0.49,-0.49l-2.58 0c-0.27,0 -0.49,0.22 -0.49,0.49zm3.4 4.85c0,0.09 0.07,0.16 0.16,0.16l0.49 0c0.08,0 0.16,-0.07 0.16,-0.16l0 -0.16 -0.81 0 0 0.16zm-4.05 0c0,0.09 0.07,0.16 0.16,0.16l0.49 0c0.09,0 0.16,-0.07 0.16,-0.16l0 -0.16 -0.81 0 0 0.16zm5.18 -3.88l-1.13 0 0 0.59c0.02,0.02 0.05,0.03 0.07,0.05l0.32 0.33c0.06,0.06 0.09,0.14 0.09,0.23l0 0.9c0,0.18 -0.14,0.32 -0.32,0.32l-0.16 0 0 0.98 1.13 0c0.09,0 0.16,-0.08 0.16,-0.17l0 -3.07c0,-0.09 -0.07,-0.16 -0.16,-0.16zm-1.94 2.1l0 -0.9c0,-0.09 0.03,-0.17 0.09,-0.23l0.33 -0.33c0.02,-0.02 0.04,-0.03 0.06,-0.05l0 -0.59 -2.58 0 0 3.4 2.58 0 0 -0.98 -0.16 0c-0.18,0 -0.32,-0.14 -0.32,-0.32zm-3.56 -2.1c-0.09,0 -0.16,0.07 -0.16,0.16l0 3.07c0,0.09 0.07,0.17 0.16,0.17l1.13 0 0 -3.4 -1.13 0zm0.65 0.64l-0.17 0 0 0.65c0,0.09 -0.07,0.16 -0.16,0.16 -0.09,0 -0.16,-0.07 -0.16,-0.16l0 -0.81c0,-0.09 0.07,-0.16 0.16,-0.16l0.33 0c0.09,0 0.16,0.07 0.16,0.16 0,0.09 -0.07,0.16 -0.16,0.16zm-3.56 3.24c0,0.09 0.07,0.16 0.16,0.16l0.32 0c0.09,0 0.16,-0.07 0.16,-0.16l0 -0.48 -0.64 0 0 0.48zm0.8 -7.77l0.33 0c0.09,0 0.16,-0.07 0.16,-0.16l0 -0.32c0,-0.09 0.07,-0.16 0.16,-0.16l1.46 0c0.09,0 0.16,0.07 0.16,0.16l0 0.32c0,0.09 0.07,0.16 0.16,0.16l0.33 0c0.09,0 0.16,-0.07 0.16,-0.16l0 -0.81c0,-0.09 -0.07,-0.16 -0.16,-0.16l-2.76 0c-0.08,0 -0.16,0.07 -0.16,0.16l0 0.81c0,0.09 0.08,0.16 0.16,0.16zm2.43 1.14l0.33 0 0 -0.81 -0.33 0 0 0.81zm3.56 3.95l0 0.9 0.65 0 0 -0.9 -0.32 -0.33 0 0 0 0 -0.33 0.33zm-5.99 -3.95l0.33 0 0 -0.81 -0.33 0 0 0.81zm2.76 2.42l0 -0.64c0,-0.45 0.36,-0.81 0.81,-0.81l0.48 0 0 -0.33c0,-0.18 -0.14,-0.32 -0.32,-0.32l-4.7 0c-0.18,0 -0.32,0.14 -0.32,0.32l0 4.86c0,0.18 0.14,0.32 0.32,0.32l2.59 0 0 -2.91c0,-0.27 0.22,-0.49 0.49,-0.49l0.65 0zm-3.24 2.75c0,0.09 -0.07,0.17 -0.16,0.17 -0.09,0 -0.16,-0.08 -0.16,-0.17l0 -4.2c0,-0.09 0.07,-0.17 0.16,-0.17 0.09,0 0.16,0.08 0.16,0.17l0 4.2zm0.81 0c0,0.09 -0.07,0.17 -0.16,0.17 -0.09,0 -0.17,-0.08 -0.17,-0.17l0 -4.2c0,-0.09 0.08,-0.17 0.17,-0.17 0.09,0 0.16,0.08 0.16,0.17l0 4.2zm0.81 0c0,0.09 -0.07,0.17 -0.16,0.17 -0.09,0 -0.17,-0.08 -0.17,-0.17l0 -4.2c0,-0.09 0.08,-0.17 0.17,-0.17 0.09,0 0.16,0.08 0.16,0.17l0 4.2zm0.81 -3.23c0,0.09 -0.08,0.16 -0.17,0.16 -0.08,0 -0.16,-0.07 -0.16,-0.16l0 -0.97c0,-0.09 0.08,-0.17 0.16,-0.17 0.09,0 0.17,0.08 0.17,0.17l0 0.97z"/>
 </g>
</svg>
