<?xml version="1.0" encoding="UTF-8"?>
<!DOCTYPE svg PUBLIC "-//W3C//DTD SVG 1.1//EN" "http://www.w3.org/Graphics/SVG/1.1/DTD/svg11.dtd">
<!-- Creator: CorelDRAW 2020 (64-Bit) -->
<svg xmlns="http://www.w3.org/2000/svg" xml:space="preserve" width="226px" height="127px" version="1.1" style="shape-rendering:geometricPrecision; text-rendering:geometricPrecision; image-rendering:optimizeQuality; fill-rule:evenodd; clip-rule:evenodd"
viewBox="0 0 28.24 15.93"
 xmlns:xlink="http://www.w3.org/1999/xlink"
 xmlns:xodm="http://www.corel.com/coreldraw/odm/2003">
 <defs>
  <style type="text/css">
   <![CDATA[
    .fil0 {fill:white;fill-rule:nonzero}
   ]]>
  </style>
 </defs>
 <g id="Слой_x0020_1">
  <metadata id="CorelCorpID_0Corel-Layer"/>
  <path class="fil0" d="M20.41 0c-4.32,0 -7.83,3.51 -7.83,7.83 0,4.33 3.51,7.83 7.83,7.83 4.33,0 7.83,-3.5 7.83,-7.83 0,-4.32 -3.5,-7.83 -7.83,-7.83zm0 14.28c-3.56,0 -6.45,-2.89 -6.45,-6.45 0,-3.56 2.89,-6.45 6.45,-6.45 3.56,0 6.45,2.89 6.45,6.45 0,3.56 -2.89,6.45 -6.45,6.45zm0 -11.99c-3.05,0 -5.54,2.49 -5.54,5.54 0,3.05 2.49,5.54 5.54,5.54 3.05,0 5.54,-2.49 5.54,-5.54 0,-3.05 -2.49,-5.54 -5.54,-5.54zm0.46 5.73l-3.08 3.08 -0.65 -0.65 2.81 -2.81 0 -3.97 0.92 0 0 4.35zm-15.53 -1.3c0,0.97 1.94,1.48 3.85,1.48 0.89,0 1.78,-0.11 2.49,-0.32 0.01,-0.75 0.14,-1.48 0.37,-2.18 -2.08,-0.83 -6.71,-0.49 -6.71,1.02zm6.35 1.78c-0.71,0.19 -1.56,0.3 -2.5,0.3 -1.41,0 -2.62,-0.23 -3.42,-0.65 -0.09,-0.05 -0.2,-0.05 -0.29,0.01 -0.09,0.05 -0.14,0.15 -0.14,0.25l0 0.09c0,0.98 1.94,1.49 3.85,1.49 0.96,0 1.92,-0.13 2.64,-0.38 -0.07,-0.36 -0.12,-0.73 -0.14,-1.11zm-9.91 4.16c0,0.97 1.94,1.48 3.85,1.48 1.92,0 3.86,-0.51 3.86,-1.48 0,-1.95 -7.71,-1.95 -7.71,0zm7.27 1.43c-0.79,0.42 -2.01,0.65 -3.42,0.65 -1.4,0 -2.62,-0.23 -3.42,-0.65 -0.09,-0.05 -0.2,-0.05 -0.29,0.01 -0.09,0.05 -0.14,0.15 -0.14,0.25l0 0.09c0,0.98 1.94,1.49 3.85,1.49 1.92,0 3.86,-0.51 3.86,-1.49l0 -0.09c0,-0.1 -0.06,-0.2 -0.15,-0.25 -0.08,-0.06 -0.19,-0.06 -0.29,-0.01zm-5.2 -8.26c0.4,0 0.81,-0.03 1.19,-0.07 0.07,-0.01 0.13,-0.04 0.17,-0.08 0.45,-0.42 1.22,-0.74 2.22,-0.9 0.11,-0.02 0.2,-0.09 0.23,-0.2 0.03,-0.08 0.05,-0.16 0.05,-0.24 0,-1.95 -7.71,-1.95 -7.71,0 0,0.98 1.94,1.49 3.85,1.49zm0 1.78c0.25,0 0.49,-0.01 0.72,-0.02 0.09,-0.01 0.18,-0.06 0.23,-0.14 0.05,-0.08 0.06,-0.18 0.03,-0.26 -0.06,-0.16 -0.09,-0.31 -0.08,-0.49 0,-0.08 -0.04,-0.16 -0.1,-0.21 -0.06,-0.06 -0.14,-0.09 -0.22,-0.08 -0.19,0 -0.38,0.01 -0.58,0.01 -1.4,0 -2.62,-0.23 -3.42,-0.65 -0.09,-0.05 -0.2,-0.04 -0.29,0.01 -0.09,0.05 -0.14,0.15 -0.14,0.25l0 0.09c0,0.98 1.94,1.49 3.85,1.49zm0 1.78c0.25,0 0.49,-0.01 0.72,-0.02 0.09,-0.01 0.18,-0.06 0.23,-0.14 0.05,-0.08 0.06,-0.17 0.03,-0.26 -0.06,-0.16 -0.09,-0.31 -0.09,-0.49 0,-0.08 -0.03,-0.15 -0.09,-0.21 -0.06,-0.06 -0.14,-0.09 -0.22,-0.08 -0.19,0.01 -0.38,0.01 -0.58,0.01 -1.4,0 -2.62,-0.23 -3.42,-0.65 -0.09,-0.04 -0.2,-0.04 -0.29,0.01 -0.09,0.06 -0.14,0.15 -0.14,0.26l0 0.09c0,0.97 1.94,1.48 3.85,1.48zm8.76 2.32c-0.56,0.29 -1.34,0.5 -2.27,0.59 -0.15,0.02 -0.27,0.2 -0.26,0.36 0,0.15 -0.02,0.29 -0.07,0.44 -0.04,0.09 -0.02,0.2 0.05,0.28 0.05,0.07 0.14,0.11 0.23,0.11 0.01,0 0.02,0 0.03,0 1.49,-0.16 2.45,-0.59 2.68,-1.16 -0.14,-0.2 -0.27,-0.41 -0.39,-0.62l0 0zm-6.98 -1.13l0.2 0c0,0 0,0 0.01,0 0.13,0 0.25,-0.09 0.28,-0.23 0.04,-0.14 -0.03,-0.28 -0.16,-0.33l-0.07 -0.03c-0.04,-0.02 -0.08,-0.04 -0.12,-0.06 -0.09,-0.05 -0.2,-0.04 -0.29,0.01 -0.09,0.05 -0.14,0.15 -0.14,0.25l0 0.09c0,0.17 0.13,0.3 0.29,0.3zm6.35 -0.39c-0.75,0.25 -1.71,0.39 -2.79,0.39l-0.19 0c-0.12,-0.01 -0.27,0.09 -0.3,0.23 -0.03,0.13 0.04,0.27 0.17,0.33 0.32,0.15 0.58,0.32 0.78,0.52 0.05,0.05 0.13,0.09 0.21,0.09 0,0 0.01,0 0.02,0 0.87,-0.06 1.83,-0.24 2.47,-0.57 -0.15,-0.32 -0.27,-0.65 -0.37,-0.99zm-9.5 0.89c0.04,0 0.07,-0.01 0.11,-0.02 0.52,-0.21 1.16,-0.35 1.89,-0.42 0.16,-0.02 0.27,-0.22 0.26,-0.37 0,-0.08 -0.03,-0.16 -0.09,-0.22 -0.06,-0.05 -0.14,-0.08 -0.22,-0.08 -0.19,0.01 -0.38,0.02 -0.58,0.02 -1.4,0 -2.62,-0.24 -3.42,-0.65 -0.09,-0.05 -0.2,-0.05 -0.29,0 -0.09,0.06 -0.14,0.15 -0.14,0.26l0 0.09c0,0.65 0.91,1.17 2.44,1.39 0.01,0 0.03,0 0.04,0z"/>
 </g>
</svg>
