<?xml version="1.0" encoding="UTF-8"?>
<!DOCTYPE svg PUBLIC "-//W3C//DTD SVG 1.1//EN" "http://www.w3.org/Graphics/SVG/1.1/DTD/svg11.dtd">
<!-- Creator: CorelDRAW 2019 -->
<svg xmlns="http://www.w3.org/2000/svg" xml:space="preserve" width="67.0548mm" height="47.3326mm" version="1.1" style="shape-rendering:geometricPrecision; text-rendering:geometricPrecision; image-rendering:optimizeQuality; fill-rule:evenodd; clip-rule:evenodd"
viewBox="0 0 3152.47 2225.26"
 xmlns:xlink="http://www.w3.org/1999/xlink"
 xmlns:xodm="http://www.corel.com/coreldraw/odm/2003">
 <defs>
  <style type="text/css">
   <![CDATA[
    .fil2 {fill:none}
    .fil0 {fill:white}
    .fil1 {fill:url(#id1);fill-rule:nonzero}
    .fil3 {fill:url(#id2);fill-rule:nonzero}
   ]]>
  </style>
   <clipPath id="id0">
    <path d="M165.79 0l2820.88 0c91.19,0 165.79,74.61 165.79,165.79l0 1893.68c0,91.19 -74.61,165.79 -165.79,165.79l-2820.88 0c-91.19,0 -165.79,-74.61 -165.79,-165.79l0 -1893.68c0,-91.19 74.61,-165.79 165.79,-165.79z"/>
   </clipPath>
  <linearGradient id="id1" gradientUnits="userSpaceOnUse" x1="21" y1="-725.18" x2="3030.68" y2="-1153.54">
   <stop offset="0" style="stop-opacity:1; stop-color:#00D9FF"/>
   <stop offset="1" style="stop-opacity:1; stop-color:#5A69F7"/>
  </linearGradient>
  <linearGradient id="id2" gradientUnits="userSpaceOnUse" xlink:href="#id1" x1="378.29" y1="794.89" x2="1495.91" y2="1766.51">
  </linearGradient>
 </defs>
 <g id="Слой_x0020_1">
  <metadata id="CorelCorpID_0Corel-Layer"/>
  <path class="fil0" d="M165.79 0l2820.88 0c91.19,0 165.79,74.61 165.79,165.79l0 1893.68c0,91.19 -74.61,165.79 -165.79,165.79l-2820.88 0c-91.19,0 -165.79,-74.61 -165.79,-165.79l0 -1893.68c0,-91.19 74.61,-165.79 165.79,-165.79z"/>
  <g style="clip-path:url(#id0)">
   <g id="_992117400">
    <path id="1" class="fil1" d="M3048.2 -1290.84l-3004.46 -16.9c-44.44,-0.24 -80.67,35.57 -80.92,80.02l-3.02 537.5c-0.06,10.73 5.14,20.94 14.08,26.87 184.78,122.73 433.93,144.74 656.02,99.61 268.55,-54.56 512.22,-190.34 762.77,-301.36 250.54,-111.02 525.57,-199.71 795.4,-151.9 254.62,45.12 471.02,205.11 700.72,323.9 61.31,31.71 126.53,60.35 193.49,83.08 20.87,7.08 42.6,-8.2 42.73,-30.23l3.21 -569.66c0.25,-44.44 -35.57,-80.67 -80.02,-80.92z"/>
   </g>
  </g>
  <path class="fil2" d="M165.79 0l2820.88 0c91.19,0 165.79,74.61 165.79,165.79l0 1893.68c0,91.19 -74.61,165.79 -165.79,165.79l-2820.88 0c-91.19,0 -165.79,-74.61 -165.79,-165.79l0 -1893.68c0,-91.19 74.61,-165.79 165.79,-165.79z"/>
  <path class="fil3" d="M1035.28 1408.4l100.35 0 0 -84.28 -100.35 0 0 84.28zm135.97 -569.65l-743.52 0c-47.31,0 -85.79,32.27 -85.79,71.94l0 1007.06c0,39.67 38.49,71.94 85.79,71.94l743.52 0c47.31,0 85.79,-32.27 85.79,-71.94l0 -1007.06c0,-39.67 -38.48,-71.94 -85.79,-71.94zm-543.34 1079c0,13.23 -12.79,23.98 -28.6,23.98l-171.58 0c-15.8,0 -28.6,-10.75 -28.6,-23.98l0 -143.87c0,-13.23 12.8,-23.97 28.6,-23.97l171.58 0c15.81,0 28.6,10.74 28.6,23.97l0 143.87zm0 -239.78c0,13.23 -12.79,23.98 -28.6,23.98l-171.58 0c-15.8,0 -28.6,-10.74 -28.6,-23.98l0 -143.87c0,-13.23 12.8,-23.98 28.6,-23.98l171.58 0c15.81,0 28.6,10.74 28.6,23.98l0 143.87zm285.97 239.78c0,13.23 -12.79,23.98 -28.59,23.98l-171.58 0c-15.8,0 -28.6,-10.75 -28.6,-23.98l0 -143.87c0,-13.23 12.8,-23.97 28.6,-23.97l171.58 0c15.8,0 28.59,10.74 28.59,23.97l0 143.87zm0 -239.78c0,13.23 -12.79,23.98 -28.59,23.98l-171.58 0c-15.8,0 -28.6,-10.74 -28.6,-23.98l0 -143.87c0,-13.23 12.8,-23.98 28.6,-23.98l171.58 0c15.8,0 28.59,10.74 28.59,23.98l0 143.87zm0 -239.77c0,13.23 -12.79,23.97 -28.59,23.97l-457.55 0c-15.8,0 -28.6,-10.74 -28.6,-23.97l0 -143.87c0,-13.23 12.8,-23.98 28.6,-23.98l457.55 0c15.8,0 28.59,10.75 28.59,23.98l0 143.87zm285.97 479.55c0,13.23 -12.79,23.98 -28.59,23.98l-171.58 0c-15.81,0 -28.6,-10.75 -28.6,-23.98l0 -383.64c0,-13.23 12.79,-23.98 28.6,-23.98l171.58 0c15.81,0 28.59,10.74 28.59,23.98l0 383.64zm0 -479.55c0,13.23 -12.79,23.97 -28.59,23.97l-171.58 0c-15.81,0 -28.6,-10.74 -28.6,-23.97l0 -143.87c0,-13.23 12.79,-23.98 28.6,-23.98l171.58 0c15.81,0 28.59,10.75 28.59,23.98l0 143.87zm0 -239.78c0,13.24 -12.79,23.98 -28.59,23.98l-743.52 0c-15.8,0 -28.6,-10.74 -28.6,-23.98l0 -287.73c0,-13.24 12.8,-23.98 28.6,-23.98l743.52 0c15.81,0 28.59,10.74 28.59,23.98l0 287.73zm-745.86 689.54l110.37 0 0 -84.29 -110.37 0 0 84.29zm929.19 -1271.13l0 112.22 133.84 0 -133.84 -112.22zm-29.19 161.16c-16.13,0 -29.18,-10.97 -29.18,-24.47l0 -171.29 -817.16 0 0 195.76 671.23 0c80.47,0 145.92,54.88 145.92,122.35l0 954.34 233.47 0 0 -1076.68 -204.29 0zm-883.91 171.2l0 210.71 658.83 0 0 -210.71c-219.61,0 -439.22,0 -658.83,0zm-6.72 459.21l386.3 0 0 -84.28 -386.3 0 0 84.28zm280.61 239.78l110.38 0 0 -84.28 -110.38 0 0 84.28zm-289.98 0l110.37 0 0 -84.28 -110.37 0 0 84.28zm581.3 222.18l100.35 0 0 -288.86 -100.35 0 0 288.86zm-291.32 17.6l110.38 0 0 -84.29 -110.38 0 0 84.29z"/>
 </g>
</svg>
