<?xml version="1.0" encoding="UTF-8"?>
<!DOCTYPE svg PUBLIC "-//W3C//DTD SVG 1.1//EN" "http://www.w3.org/Graphics/SVG/1.1/DTD/svg11.dtd">
<!-- Creator: CorelDRAW 2019 -->
<svg xmlns="http://www.w3.org/2000/svg" xml:space="preserve" width="59.972mm" height="42.333mm" version="1.1" style="shape-rendering:geometricPrecision; text-rendering:geometricPrecision; image-rendering:optimizeQuality; fill-rule:evenodd; clip-rule:evenodd"
viewBox="0 0 60303.83 42567.23"
 xmlns:xlink="http://www.w3.org/1999/xlink"
 xmlns:xodm="http://www.corel.com/coreldraw/odm/2003">
 <defs>
  <style type="text/css">
   <![CDATA[
    .str0 {stroke:white;stroke-width:709.5;stroke-miterlimit:22.9256}
    .fil5 {fill:none}
    .fil0 {fill:#5A69F7}
    .fil1 {fill:#34DAEA;fill-rule:nonzero}
    .fil4 {fill:#5A69F7;fill-rule:nonzero}
    .fil6 {fill:white;fill-rule:nonzero}
    .fil2 {fill:url(#id1);fill-rule:nonzero}
    .fil3 {fill:url(#id2);fill-rule:nonzero}
   ]]>
  </style>
   <clipPath id="id0">
    <path d="M3171.45 0l53961.02 0c1744.3,0 3171.35,1427.15 3171.35,3171.45l0 36224.33c0,1744.3 -1427.05,3171.45 -3171.35,3171.45l-53961.02 0c-1744.3,0 -3171.45,-1427.15 -3171.45,-3171.45l0 -36224.33c0,-1744.3 1427.15,-3171.45 3171.45,-3171.45z"/>
   </clipPath>
  <linearGradient id="id1" gradientUnits="userSpaceOnUse" x1="1111.11" y1="10249.7" x2="58683.71" y2="2055.41">
   <stop offset="0" style="stop-opacity:1; stop-color:#00D9FF"/>
   <stop offset="1" style="stop-opacity:1; stop-color:#5A69F7"/>
  </linearGradient>
  <linearGradient id="id2" gradientUnits="userSpaceOnUse" x1="-13871.53" y1="-28393.14" x2="46140.79" y2="-10828.69">
   <stop offset="0" style="stop-opacity:1; stop-color:#00D9FF"/>
   <stop offset="0.419608" style="stop-opacity:1; stop-color:#1B75FD"/>
   <stop offset="1" style="stop-opacity:1; stop-color:#B357EF"/>
  </linearGradient>
 </defs>
 <g id="Слой_x0020_1">
  <metadata id="CorelCorpID_0Corel-Layer"/>
  <path class="fil0" d="M3171.45 0l53961.02 0c1744.3,0 3171.35,1427.15 3171.35,3171.45l0 36224.33c0,1744.3 -1427.05,3171.45 -3171.35,3171.45l-53961.02 0c-1744.3,0 -3171.45,-1427.15 -3171.45,-3171.45l0 -36224.33c0,-1744.3 1427.15,-3171.45 3171.45,-3171.45z"/>
  <g style="clip-path:url(#id0)">
   <g id="_992289792">
    <path id="1" class="fil1" d="M59352.59 -63744.46c-209.15,-4000.41 15679.68,24559.34 17048.41,27550.2 5274.22,11524.61 14713.06,46358.69 14133.17,54409.49l-25158.13 -16303.81c-29981.37,-18759.93 -4830.48,-42969.74 -6023.44,-65655.88z"/>
    <path class="fil2" d="M59018.86 -570.94l-57472.55 -323.28c-850.08,-4.83 -1543.19,680.44 -1547.92,1530.62l-57.82 10281.98c-1.21,205.23 98.24,400.5 269.18,514.03 3534.55,2347.82 8300.68,2768.63 12549.15,1905.49 5137.17,-1043.84 9798.22,-3641.14 14590.99,-5764.92 4792.57,-2123.69 10053.72,-3820.32 15215.42,-2905.69 4870.7,863.15 9010.28,3923.69 13404.16,6195.89 1172.85,606.44 2420.42,1154.45 3701.37,1589.24 399.1,135.55 814.88,-156.86 817.3,-578.38l61.24 -10896.96c4.83,-850.18 -680.44,-1543.29 -1530.52,-1548.02z"/>
    <path class="fil3" d="M32979.27 -11058.85l-35153.33 0c-5262.05,0 -9527.83,-4265.77 -9527.83,-9527.83 0,-5262.16 4265.77,-9528.23 9527.83,-9528.23l35153.33 0c5261.95,0 9528.03,4266.07 9528.03,9528.23 0,5262.05 -4266.07,9527.83 -9528.03,9527.83z"/>
    <path class="fil4 str0" d="M-354848.18 158303.27c-16354.09,10193.69 140048.73,-5804.24 155614.78,-8643.66 59980.14,-10941.2 190691.09,-32221.2 220846.32,-56683l-100924.24 -91755.49c-156567.93,-66574.93 -182777.24,99302.12 -275536.86,157082.16z"/>
   </g>
  </g>
  <path class="fil5" d="M3171.45 0l53961.02 0c1744.3,0 3171.35,1427.15 3171.35,3171.45l0 36224.33c0,1744.3 -1427.05,3171.45 -3171.35,3171.45l-53961.02 0c-1744.3,0 -3171.45,-1427.15 -3171.45,-3171.45l0 -36224.33c0,-1744.3 1427.15,-3171.45 3171.45,-3171.45z"/>
  <g id="_992296704">
   <polygon class="fil6" points="20705.33,28311.18 22225.6,28311.18 22225.6,27034.26 20705.33,27034.26 "/>
   <polygon class="fil6" points="16291.95,35576.36 17964.15,35576.36 17964.15,34299.43 16291.95,34299.43 "/>
   <polygon class="fil6" points="20705.33,35309.69 22225.6,35309.69 22225.6,30933.51 20705.33,30933.51 "/>
   <polygon class="fil6" points="11898.87,31943.77 13570.98,31943.77 13570.98,30666.85 11898.87,30666.85 "/>
   <polygon class="fil6" points="16291.95,31943.77 17964.15,31943.77 17964.15,30666.85 16291.95,30666.85 "/>
   <polygon class="fil6" points="12040.76,28311.18 17893.16,28311.18 17893.16,27034.26 12040.76,27034.26 "/>
   <path class="fil6" d="M12142.62 21354.3l0 3192.17 9981.12 0 0 -3192.17c-3327.11,0 -6654.11,0 -9981.12,0z"/>
   <path class="fil6" d="M25533.6 18760.63c-244.34,0 -442.13,-166.11 -442.13,-370.74l0 -2594.98 -12379.62 0 0 2965.72 10168.96 0c1219.11,0 2210.66,831.48 2210.66,1853.6l0 14457.96 3537.06 0 0 -16311.56 -3094.93 0z"/>
   <polygon class="fil6" points="25975.73,16319.1 25975.73,18019.25 28003.39,18019.25 "/>
   <polygon class="fil6" points="11898.87,35576.36 13570.98,35576.36 13570.98,34299.43 11898.87,34299.43 "/>
   <path class="fil6" d="M22765.17 19681.1l-11264.08 0c-716.74,0 -1299.75,488.79 -1299.75,1089.8l0 15256.75c0,601.01 583.01,1089.8 1299.75,1089.8l11264.08 0c716.74,0 1299.75,-488.79 1299.75,-1089.8l0 -15256.75c0,-601.01 -583.01,-1089.8 -1299.75,-1089.8zm-8231.39 16346.55c0,200.5 -193.87,363.3 -433.28,363.3l-2599.4 0c-239.42,0 -433.28,-162.8 -433.28,-363.3l0 -2179.49c0,-200.6 193.87,-363.3 433.28,-363.3l2599.4 0c239.42,0 433.28,162.7 433.28,363.3l0 2179.49zm0 -3632.59c0,200.5 -193.87,363.3 -433.28,363.3l-2599.4 0c-239.42,0 -433.28,-162.8 -433.28,-363.3l0 -2179.49c0,-200.5 193.87,-363.3 433.28,-363.3l2599.4 0c239.42,0 433.28,162.8 433.28,363.3l0 2179.49zm4332.34 3632.59c0,200.5 -193.87,363.3 -433.28,363.3l-2599.4 0c-239.42,0 -433.18,-162.8 -433.18,-363.3l0 -2179.49c0,-200.6 193.77,-363.3 433.18,-363.3l2599.4 0c239.42,0 433.28,162.7 433.28,363.3l0 2179.49zm0 -3632.59c0,200.5 -193.87,363.3 -433.28,363.3l-2599.4 0c-239.42,0 -433.18,-162.8 -433.18,-363.3l0 -2179.49c0,-200.5 193.77,-363.3 433.18,-363.3l2599.4 0c239.42,0 433.28,162.8 433.28,363.3l0 2179.49zm0 -3632.59c0,200.6 -193.87,363.3 -433.28,363.3l-6931.74 0c-239.42,0 -433.28,-162.7 -433.28,-363.3l0 -2179.49c0,-200.5 193.87,-363.3 433.28,-363.3l6931.74 0c239.42,0 433.28,162.8 433.28,363.3l0 2179.49zm4332.34 7265.18c0,200.5 -193.87,363.3 -433.28,363.3l-2599.4 0c-239.42,0 -433.18,-162.8 -433.18,-363.3l0 -5812.08c0,-200.5 193.77,-363.3 433.18,-363.3l2599.4 0c239.42,0 433.28,162.8 433.28,363.3l0 5812.08zm0 -7265.18c0,200.6 -193.87,363.3 -433.28,363.3l-2599.4 0c-239.42,0 -433.18,-162.7 -433.18,-363.3l0 -2179.49c0,-200.5 193.77,-363.3 433.18,-363.3l2599.4 0c239.42,0 433.28,162.8 433.28,363.3l0 2179.49zm0 -3632.49c0,200.5 -193.87,363.2 -433.28,363.2l-11264.08 0c-239.42,0 -433.28,-162.7 -433.28,-363.2l0 -4359.09c0,-200.5 193.87,-363.3 433.28,-363.3l11264.08 0c239.42,0 433.28,162.8 433.28,363.3l0 4359.09z"/>
  </g>
 </g>
</svg>
