<?xml version="1.0" encoding="UTF-8"?>
<!DOCTYPE svg PUBLIC "-//W3C//DTD SVG 1.1//EN" "http://www.w3.org/Graphics/SVG/1.1/DTD/svg11.dtd">
<!-- Creator: CorelDRAW 2019 -->
<svg xmlns="http://www.w3.org/2000/svg" xml:space="preserve" width="67.0548mm" height="47.3326mm" version="1.1" style="shape-rendering:geometricPrecision; text-rendering:geometricPrecision; image-rendering:optimizeQuality; fill-rule:evenodd; clip-rule:evenodd"
viewBox="0 0 117416.47 82881.86"
 xmlns:xlink="http://www.w3.org/1999/xlink"
 xmlns:xodm="http://www.corel.com/coreldraw/odm/2003">
 <defs>
  <style type="text/css">
   <![CDATA[
    .fil2 {fill:none}
    .fil0 {fill:white}
    .fil1 {fill:url(#id1);fill-rule:nonzero}
    .fil3 {fill:url(#id2);fill-rule:nonzero}
   ]]>
  </style>
    <clipPath id="id0">
     <path d="M6175.09 0l105066.29 0c3396.34,0 6175.09,2778.75 6175.09,6175.09l0 70531.69c0,3396.34 -2778.75,6175.09 -6175.09,6175.09l-105066.29 0c-3396.34,0 -6175.09,-2778.75 -6175.09,-6175.09l0 -70531.69c0,-3396.34 2778.75,-6175.09 6175.09,-6175.09z"/>
    </clipPath>
  <linearGradient id="id1" gradientUnits="userSpaceOnUse" x1="782.02" y1="-27009.81" x2="112880.37" y2="-42964.7">
   <stop offset="0" style="stop-opacity:1; stop-color:#00D9FF"/>
   <stop offset="1" style="stop-opacity:1; stop-color:#5A69F7"/>
  </linearGradient>
  <linearGradient id="id2" gradientUnits="userSpaceOnUse" xlink:href="#id1" x1="11474.12" y1="29348.34" x2="62932.82" y2="68010.35">
  </linearGradient>
 </defs>
 <g id="Слой_x0020_1">
  <metadata id="CorelCorpID_0Corel-Layer"/>
  <g id="_995855152">
   <path class="fil0" d="M6175.09 0l105066.29 0c3396.34,0 6175.09,2778.75 6175.09,6175.09l0 70531.69c0,3396.34 -2778.75,6175.09 -6175.09,6175.09l-105066.29 0c-3396.34,0 -6175.09,-2778.75 -6175.09,-6175.09l0 -70531.69c0,-3396.34 2778.75,-6175.09 6175.09,-6175.09z"/>
   <g style="clip-path:url(#id0)">
    <g>
     <path id="1" class="fil1" d="M113532.81 -48078.47l-111903.63 -629.5c-1655.09,-9.11 -3004.46,1325.02 -3013.91,2980.47l-112.59 20019.78c-2.28,399.59 191.39,779.92 524.27,1000.9 6882.16,4571.3 16162.04,5390.79 24434.18,3709.95 10002.54,-2032.27 19078.07,-7089.49 28409.95,-11224.6 9331.53,-4134.94 19575.19,-7438.47 29625.53,-5657.65 9483.7,1680.48 17543.62,7639.67 26098.91,12063.88 2283.72,1180.91 4712.78,2247.83 7206.81,3094.46 777.29,263.88 1586.8,-305.56 1591.36,-1126.1l119.42 -21217.5c9.28,-1655.27 -1325.02,-3004.81 -2980.29,-3014.09z"/>
    </g>
   </g>
   <path class="fil2" d="M6175.09 0l105066.29 0c3396.34,0 6175.09,2778.75 6175.09,6175.09l0 70531.69c0,3396.34 -2778.75,6175.09 -6175.09,6175.09l-105066.29 0c-3396.34,0 -6175.09,-2778.75 -6175.09,-6175.09l0 -70531.69c0,-3396.34 2778.75,-6175.09 6175.09,-6175.09z"/>
   <path class="fil3" d="M36802.57 45888.43l0 3999.58 2999.9 0 0 -2999.9c0,-551.93 447.92,-999.68 999.85,-999.68l14001.06 0c552.63,0 1000.38,447.74 1000.38,999.68l0 2999.9 3000.08 0 0 -3999.58c0,-1657.55 -1343.41,-3000.78 -3000.08,-3000.78l-16001.29 0c-1657.02,0 -2999.9,1343.23 -2999.9,3000.78zm21001.42 30002.18c0,552.11 447.74,999.85 999.85,999.85l3000.08 0c552.46,0 1000.38,-447.74 1000.38,-999.85l0 -1000.38 -5000.31 0 0 1000.38zm-25001.88 0c0,552.11 447.74,999.85 999.68,999.85l3000.78 0c552.11,0 999.85,-447.74 999.85,-999.85l0 -1000.38 -5000.31 0 0 1000.38zm32002.58 -24002.38l-7000.71 0 0 3691.74c151.12,84.4 290.15,188.06 413.6,308.89l2000.23 2000.23c376.65,374.2 587.65,883.23 586.25,1413.97l0 5586.38c0,1104.74 -895.66,2000.4 -2000.23,2000.4l-999.85 0 0 5999.98 7000.71 0c551.93,0 999.68,-447.74 999.68,-999.68l0 -19001.37c0,-552.63 -447.74,-1000.55 -999.68,-1000.55zm-12001.54 13001.21l0 -5586.38c-1.05,-530.74 209.6,-1039.77 586.25,-1413.97l2000.23 -2000.23c123.62,-120.82 263.36,-224.48 414.12,-308.89l0 -3691.74 -16001.29 0 0 21001.6 16001.29 0 0 -5999.98 -1000.38 0c-1104.56,0 -2000.23,-895.66 -2000.23,-2000.4zm-22001.27 -13001.21c-552.11,0 -999.85,447.92 -999.85,1000.55l0 19001.37c0,551.93 447.74,999.68 999.85,999.68l7000.53 0 0 -21001.6 -7000.53 0zm4000.45 4000.63l-1000.55 0 0 4000.45c0,552.11 -447.74,999.85 -999.68,999.85 -552.63,0 -1000.55,-447.74 -1000.55,-999.85l0 -5000.31c0,-552.81 447.92,-1000.38 1000.55,-1000.38l2000.23 0c552.11,0 999.85,447.57 999.85,1000.38 0,552.11 -447.74,999.85 -999.85,999.85zm-22002.15 20001.75c0,552.11 447.92,999.85 1000.55,999.85l2000.23 0c552.11,0 999.85,-447.74 999.85,-999.85l0 -3000.78 -4000.63 0 0 3000.78zm5000.31 -48003.7l2000.4 0c552.63,0 1000.38,-447.92 1000.38,-999.85l0 -2000.23c0,-552.63 447.74,-1000.55 999.85,-1000.55l9000.76 0c551.93,0 999.68,447.92 999.68,1000.55l0 2000.23c0,551.93 447.92,999.85 1000.55,999.85l2000.23 0c552.11,0 999.85,-447.92 999.85,-999.85l0 -5001.01c0,-552.11 -447.74,-999.85 -999.85,-999.85l-17001.84 0c-551.93,0 -999.68,447.74 -999.68,999.85l0 5001.01c0,551.93 447.74,999.85 999.68,999.85zm15001.62 7000.36l2000.23 0 0 -5000.31 -2000.23 0 0 5000.31zm22001.27 24415.8l0 5586.38 4001.68 0 -1.23 -5586.38 -1994.97 -1995.15 -5.25 1.23 -5.08 -1.23 -1995.15 1995.15zm-37002.89 -24415.8l2000.4 0 0 -5000.31 -2000.4 0 0 5000.31zm17001.84 15000.74l0 -3999.58c3.5,-2760.36 2239.95,-4997.68 5000.13,-5000.31l3000.08 0 0 -2000.4c0,-1104.74 -895.49,-2000.23 -2000.23,-2000.23l-29001.81 0c-1104.74,0 -2000.23,895.49 -2000.23,2000.23l0 30002.36c0,1104.56 895.49,1999.53 2000.23,1999.53l16001.29 0 0 -18000.82c0,-1657.37 1343.23,-3000.78 3000.08,-3000.78l4000.45 0zm-20001.75 17001.84c0,551.93 -447.74,999.68 -999.85,999.68 -552.63,0 -1000.55,-447.74 -1000.55,-999.68l0 -26001.73c0,-552.81 447.92,-1000.55 1000.55,-1000.55 552.11,0 999.85,447.74 999.85,1000.55l0 26001.73zm5000.31 0c0,551.93 -447.92,999.68 -999.85,999.68 -552.63,0 -1000.55,-447.74 -1000.55,-999.68l0 -26001.73c0,-552.81 447.92,-1000.55 1000.55,-1000.55 551.93,0 999.85,447.74 999.85,1000.55l0 26001.73zm5000.13 0c0,551.93 -447.74,999.68 -999.85,999.68 -551.93,0 -999.68,-447.74 -999.68,-999.68l0 -26001.73c0,-552.81 447.74,-1000.55 999.68,-1000.55 552.11,0 999.85,447.74 999.85,1000.55l0 26001.73zm5001.01 -20001.75c0,552.46 -447.92,1000.38 -1000.55,1000.38 -551.93,0 -999.68,-447.92 -999.68,-1000.38l0 -5999.98c0,-552.81 447.74,-1000.55 999.68,-1000.55 552.63,0 1000.55,447.74 1000.55,1000.55l0 5999.98z"/>
  </g>
 </g>
</svg>
