<?xml version="1.0" encoding="UTF-8"?>
<!DOCTYPE svg PUBLIC "-//W3C//DTD SVG 1.1//EN" "http://www.w3.org/Graphics/SVG/1.1/DTD/svg11.dtd">
<!-- Creator: CorelDRAW 2019 -->
<svg xmlns="http://www.w3.org/2000/svg" xml:space="preserve" width="12.2345mm" height="14.2436mm" version="1.1" style="shape-rendering:geometricPrecision; text-rendering:geometricPrecision; image-rendering:optimizeQuality; fill-rule:evenodd; clip-rule:evenodd"
viewBox="0 0 83.28 96.96"
 xmlns:xlink="http://www.w3.org/1999/xlink"
 xmlns:xodm="http://www.corel.com/coreldraw/odm/2003">
 <defs>
  <style type="text/css">
   <![CDATA[
    .fil1 {fill:white}
    .fil2 {fill:url(#id0);fill-rule:nonzero}
    .fil0 {fill:url(#id1);fill-rule:nonzero}
   ]]>
  </style>
  <linearGradient id="id0" gradientUnits="userSpaceOnUse" x1="14.15" y1="28.16" x2="68.12" y2="67.29">
   <stop offset="0" style="stop-opacity:1; stop-color:#00D9FF"/>
   <stop offset="1" style="stop-opacity:1; stop-color:#5A69F7"/>
  </linearGradient>
  <linearGradient id="id1" gradientUnits="userSpaceOnUse" xlink:href="#id0" x1="-0.58" y1="18.16" x2="82.08" y2="78.07">
  </linearGradient>
 </defs>
 <g id="Слой_x0020_1">
  <metadata id="CorelCorpID_0Corel-Layer"/>
  <g id="_827944440">
   <path class="fil0" d="M3.96 9.73c-1.11,-0.14 -2.28,-0.62 -3.12,-0.67l-0.47 6.56c-0.84,14.67 -0.97,37.89 7.7,51.06 5.05,7.68 24.35,26.42 33.65,30.28 21.99,-12.24 37.87,-29.89 40.69,-53.47 1.12,-9.33 1.01,-18.55 0.51,-27.97l-0.47 -6.55c-3.77,1.44 -11.24,1.09 -15.38,0.71 -5.52,-0.51 -10.41,-1.82 -16.18,-4.88 -5.2,-2.76 -7.12,-4.3 -8.55,-4.69 -1.34,-0.36 -2.24,0.29 -4.98,1.9 -9.93,5.85 -18.57,9.09 -33.41,7.73z"/>
   <path class="fil1" d="M18.89 68.29c6.58,7.78 14.33,13.08 22.74,18.92 3.06,-1.04 14.75,-10.39 17.87,-13.47 9.37,-9.25 13.45,-15.53 15.18,-28.41 1.31,-9.75 0.73,-19.65 0.24,-29.44 -6.02,1.91 -12.3,1.29 -18.19,-0.55 -3.13,-0.98 -13.87,-6.63 -14.79,-6.65 -1.82,-0.04 -11.78,6.4 -18.37,7.45 -4.17,0.67 -11.07,0.83 -14.84,-0.27 -0.58,6.2 -0.85,16.92 -0.4,23.36 0.45,6.48 1.1,11.45 2.81,16.15 1.53,4.21 3.91,8.22 7.76,12.91z"/>
   <path class="fil2" d="M41.66 79.62c6.52,-2.22 19.63,-15.52 23.05,-21.75 2.86,-5.21 3.7,-10.24 4.03,-16.46 0.34,-6.6 0.1,-12.73 -0.23,-19.31 -4.75,1.51 -9.69,1.06 -14.35,-0.34 -2.93,-0.89 -11.15,-5.36 -12.08,-5.45 -1.41,-0.14 -9.86,5.18 -14.98,6 -3.37,0.54 -8.93,0.67 -11.97,-0.22 -0.49,5.19 -0.78,10.82 -0.46,16.45 0.57,9.92 2.68,17.3 7.23,23.8 5.17,7.38 12.31,12.1 19.77,17.29z"/>
  </g>
 </g>
</svg>
