<?xml version="1.0" encoding="UTF-8"?>
<!DOCTYPE svg PUBLIC "-//W3C//DTD SVG 1.1//EN" "http://www.w3.org/Graphics/SVG/1.1/DTD/svg11.dtd">
<!-- Creator: CorelDRAW 2019 -->
<svg xmlns="http://www.w3.org/2000/svg" xml:space="preserve" width="59.972mm" height="42.333mm" version="1.1" style="shape-rendering:geometricPrecision; text-rendering:geometricPrecision; image-rendering:optimizeQuality; fill-rule:evenodd; clip-rule:evenodd"
viewBox="0 0 440.96 311.27"
 xmlns:xlink="http://www.w3.org/1999/xlink"
 xmlns:xodm="http://www.corel.com/coreldraw/odm/2003">
 <defs>
  <style type="text/css">
   <![CDATA[
    .str0 {stroke:white;stroke-width:5.19;stroke-miterlimit:22.9256}
    .fil5 {fill:none}
    .fil0 {fill:#5A69F7}
    .fil1 {fill:#34DAEA;fill-rule:nonzero}
    .fil4 {fill:#5A69F7;fill-rule:nonzero}
    .fil6 {fill:white;fill-rule:nonzero}
    .fil2 {fill:url(#id1);fill-rule:nonzero}
    .fil3 {fill:url(#id2);fill-rule:nonzero}
   ]]>
  </style>
   <clipPath id="id0">
    <path d="M23.19 311.27l394.58 0c12.75,0 23.19,-10.44 23.19,-23.19l0 -264.88c0,-12.75 -10.44,-23.19 -23.19,-23.19l-394.58 0c-12.75,0 -23.19,10.44 -23.19,23.19l0 264.88c0,12.75 10.44,23.19 23.19,23.19z"/>
   </clipPath>
  <linearGradient id="id1" gradientUnits="userSpaceOnUse" x1="8.12" y1="236.32" x2="429.11" y2="296.24">
   <stop offset="0" style="stop-opacity:1; stop-color:#905EF2"/>
   <stop offset="1" style="stop-opacity:1; stop-color:#4859F7"/>
  </linearGradient>
  <linearGradient id="id2" gradientUnits="userSpaceOnUse" x1="-101.43" y1="533.16" x2="337.4" y2="404.72">
   <stop offset="0" style="stop-opacity:1; stop-color:#00D9FF"/>
   <stop offset="0.419608" style="stop-opacity:1; stop-color:#1B75FD"/>
   <stop offset="1" style="stop-opacity:1; stop-color:#B357EF"/>
  </linearGradient>
 </defs>
 <g id="Слой_x0020_1">
  <metadata id="CorelCorpID_0Corel-Layer"/>
  <path class="fil0" d="M23.19 311.27l394.58 0c12.75,0 23.19,-10.44 23.19,-23.19l0 -264.88c0,-12.75 -10.44,-23.19 -23.19,-23.19l-394.58 0c-12.75,0 -23.19,10.44 -23.19,23.19l0 264.88c0,12.75 10.44,23.19 23.19,23.19z"/>
  <g style="clip-path:url(#id0)">
   <g id="_830548208">
    <path id="1" class="fil1" d="M434.01 777.39c-1.53,29.25 114.66,-179.59 124.66,-201.46 38.57,-84.27 107.59,-338.99 103.35,-397.86l-183.96 119.22c-219.23,137.18 -35.32,314.21 -44.05,480.1z"/>
    <path class="fil2" d="M431.57 315.44l-420.26 2.36c-6.22,0.04 -11.28,-4.98 -11.32,-11.19l-0.42 -75.19c-0.01,-1.5 0.72,-2.93 1.97,-3.76 25.85,-17.17 60.7,-20.25 91.76,-13.93 37.56,7.63 71.65,26.63 106.69,42.16 35.04,15.53 73.52,27.94 111.26,21.25 35.62,-6.31 65.89,-28.69 98.02,-45.31 8.58,-4.43 17.7,-8.44 27.07,-11.62 2.92,-0.99 5.96,1.15 5.98,4.23l0.45 79.68c0.04,6.22 -4.98,11.29 -11.19,11.32z"/>
    <path class="fil3" d="M241.16 392.13l-257.05 0c-38.48,0 -69.67,31.19 -69.67,69.67 0,38.48 31.19,69.67 69.67,69.67l257.05 0c38.48,0 69.67,-31.19 69.67,-69.67 0,-38.48 -31.19,-69.67 -69.67,-69.67z"/>
    <path class="fil4 str0" d="M-2594.77 -846.3c-119.59,-74.54 1024.08,42.44 1137.91,63.21 438.59,80.01 1394.4,235.61 1614.9,414.48l-737.99 670.95c-1144.88,486.82 -1336.53,-726.13 -2014.82,-1148.64z"/>
   </g>
  </g>
  <path class="fil5" d="M23.19 311.27l394.58 0c12.75,0 23.19,-10.44 23.19,-23.19l0 -264.88c0,-12.75 -10.44,-23.19 -23.19,-23.19l-394.58 0c-12.75,0 -23.19,10.44 -23.19,23.19l0 264.88c0,12.75 10.44,23.19 23.19,23.19z"/>
  <g id="_830555648">
   <path class="fil6" d="M144.18 168.51l0 12.69 9.52 0 0 -9.52c0,-1.75 1.42,-3.17 3.17,-3.17l44.43 0c1.75,0 3.17,1.42 3.17,3.17l0 9.52 9.52 0 0 -12.69c0,-5.26 -4.26,-9.52 -9.52,-9.52l-50.78 0c-5.26,0 -9.52,4.26 -9.52,9.52z"/>
   <path class="fil6" d="M137.83 181.2l0 -12.69c0.01,-8.76 7.11,-15.86 15.87,-15.87l9.52 0 0 -6.35c0,-3.51 -2.84,-6.35 -6.35,-6.35l-92.03 0c-3.51,0 -6.35,2.84 -6.35,6.35l0 95.21c0,3.51 2.84,6.35 6.35,6.35l50.78 0 0 -57.12c0,-5.26 4.26,-9.52 9.52,-9.52l12.69 0zm-63.47 53.95c0,1.75 -1.42,3.17 -3.17,3.17 -1.75,0 -3.17,-1.42 -3.17,-3.17l0 -82.51c0,-1.75 1.42,-3.18 3.17,-3.18 1.75,0 3.17,1.42 3.17,3.18l0 82.51zm15.87 0c0,1.75 -1.42,3.17 -3.17,3.17 -1.75,0 -3.17,-1.42 -3.17,-3.17l0 -82.51c0,-1.75 1.42,-3.18 3.17,-3.18 1.75,0 3.17,1.42 3.17,3.18l0 82.51zm15.87 0c0,1.75 -1.42,3.17 -3.17,3.17 -1.75,0 -3.17,-1.42 -3.17,-3.17l0 -82.51c0,-1.75 1.42,-3.18 3.17,-3.18 1.75,0 3.17,1.42 3.17,3.18l0 82.51zm15.87 -63.47c0,1.75 -1.42,3.17 -3.17,3.17 -1.75,0 -3.17,-1.42 -3.17,-3.17l0 -19.04c0,-1.75 1.42,-3.18 3.17,-3.18 1.75,0 3.17,1.42 3.17,3.18l0 19.04z"/>
   <polygon class="fil6" points="83.87,133.6 90.22,133.6 90.22,117.73 83.87,117.73 "/>
   <polygon class="fil6" points="201.3,211.08 201.3,228.8 214,228.8 213.99,211.08 207.66,204.75 207.65,204.75 207.63,204.75 "/>
   <polygon class="fil6" points="131.48,133.6 137.83,133.6 137.83,117.73 131.48,117.73 "/>
   <path class="fil6" d="M83.87 111.38l6.35 0c1.75,0 3.17,-1.42 3.17,-3.17l0 -6.35c0,-1.75 1.42,-3.17 3.17,-3.17l28.56 0c1.75,0 3.17,1.42 3.17,3.17l0 6.35c0,1.75 1.42,3.17 3.17,3.17l6.35 0c1.75,0 3.17,-1.42 3.17,-3.17l0 -15.87c0,-1.75 -1.42,-3.17 -3.17,-3.17l-53.95 0c-1.75,0 -3.17,1.42 -3.17,3.17l0 15.87c0,1.75 1.42,3.17 3.17,3.17z"/>
   <path class="fil6" d="M68.01 263.72c0,1.75 1.42,3.17 3.17,3.17l6.35 0c1.75,0 3.17,-1.42 3.17,-3.17l0 -9.52 -12.69 0 0 9.52z"/>
   <path class="fil6" d="M125.13 187.55c-1.75,0 -3.17,1.42 -3.17,3.17l0 60.3c0,1.75 1.42,3.17 3.17,3.17l22.21 0 0 -66.64 -22.21 0zm12.69 12.69l-3.17 0 0 12.7c0,1.75 -1.42,3.17 -3.17,3.17 -1.75,0 -3.17,-1.42 -3.17,-3.17l0 -15.87c0,-1.75 1.42,-3.17 3.17,-3.17l6.35 0c1.75,0 3.17,1.42 3.17,3.17 0,1.75 -1.42,3.17 -3.17,3.17z"/>
   <path class="fil6" d="M194.95 228.8l0 -17.73c-0,-1.68 0.67,-3.3 1.86,-4.49l6.35 -6.35c0.39,-0.38 0.84,-0.71 1.31,-0.98l0 -11.72 -50.78 0 0 66.64 50.78 0 0 -19.04 -3.17 0c-3.51,0 -6.35,-2.84 -6.35,-6.35z"/>
   <path class="fil6" d="M233.03 187.55l-22.21 0 0 11.72c0.48,0.27 0.92,0.6 1.31,0.98l6.35 6.35c1.19,1.19 1.86,2.8 1.86,4.49l0 17.73c0,3.51 -2.84,6.35 -6.35,6.35l-3.17 0 0 19.04 22.21 0c1.75,0 3.17,-1.42 3.17,-3.17l0 -60.3c0,-1.75 -1.42,-3.17 -3.17,-3.17z"/>
   <path class="fil6" d="M131.48 263.72c0,1.75 1.42,3.17 3.17,3.17l9.52 0c1.75,0 3.17,-1.42 3.17,-3.17l0 -3.17 -15.87 0 0 3.17z"/>
   <path class="fil6" d="M210.82 263.72c0,1.75 1.42,3.17 3.17,3.17l9.52 0c1.75,0 3.17,-1.42 3.17,-3.17l0 -3.17 -15.87 0 0 3.17z"/>
  </g>
 </g>
</svg>
