<?xml version="1.0" encoding="UTF-8"?>
<!DOCTYPE svg PUBLIC "-//W3C//DTD SVG 1.1//EN" "http://www.w3.org/Graphics/SVG/1.1/DTD/svg11.dtd">
<!-- Creator: CorelDRAW 2019 -->
<svg xmlns="http://www.w3.org/2000/svg" xml:space="preserve" width="59.972mm" height="42.333mm" version="1.1" style="shape-rendering:geometricPrecision; text-rendering:geometricPrecision; image-rendering:optimizeQuality; fill-rule:evenodd; clip-rule:evenodd"
viewBox="0 0 1091.74 770.64"
 xmlns:xlink="http://www.w3.org/1999/xlink"
 xmlns:xodm="http://www.corel.com/coreldraw/odm/2003">
 <defs>
  <style type="text/css">
   <![CDATA[
    .str0 {stroke:white;stroke-width:12.84;stroke-miterlimit:22.9256}
    .fil5 {fill:none}
    .fil0 {fill:#5A69F7}
    .fil1 {fill:#34DAEA;fill-rule:nonzero}
    .fil4 {fill:#5A69F7;fill-rule:nonzero}
    .fil6 {fill:white;fill-rule:nonzero}
    .fil8 {fill:white;fill-opacity:0.039216}
    .fil7 {fill:white;fill-opacity:0.058824}
    .fil2 {fill:url(#id1);fill-rule:nonzero}
    .fil3 {fill:url(#id2);fill-rule:nonzero}
   ]]>
  </style>
   <clipPath id="id0">
    <path d="M57.42 770.64l976.91 0c31.58,0 57.41,-25.84 57.41,-57.42l0 -655.81c0,-31.58 -25.84,-57.42 -57.41,-57.42l-976.91 0c-31.58,0 -57.42,25.84 -57.42,57.42l0 655.81c0,31.58 25.84,57.42 57.42,57.42z"/>
   </clipPath>
  <linearGradient id="id1" gradientUnits="userSpaceOnUse" x1="20.12" y1="585.08" x2="1062.41" y2="733.43">
   <stop offset="0" style="stop-opacity:1; stop-color:#905EF2"/>
   <stop offset="1" style="stop-opacity:1; stop-color:#4859F7"/>
  </linearGradient>
  <linearGradient id="id2" gradientUnits="userSpaceOnUse" x1="-251.13" y1="1320.01" x2="835.33" y2="1002.02">
   <stop offset="0" style="stop-opacity:1; stop-color:#00D9FF"/>
   <stop offset="0.419608" style="stop-opacity:1; stop-color:#1B75FD"/>
   <stop offset="1" style="stop-opacity:1; stop-color:#B357EF"/>
  </linearGradient>
 </defs>
 <g id="Слой_x0020_1">
  <metadata id="CorelCorpID_0Corel-Layer"/>
  <path class="fil0" d="M57.42 770.64l976.91 0c31.58,0 57.41,-25.84 57.41,-57.42l0 -655.81c0,-31.58 -25.84,-57.42 -57.41,-57.42l-976.91 0c-31.58,0 -57.42,25.84 -57.42,57.42l0 655.81c0,31.58 25.84,57.42 57.42,57.42z"/>
  <g style="clip-path:url(#id0)">
   <g id="_988353720">
    <path id="1" class="fil1" d="M1074.52 1924.67c-3.79,72.42 283.87,-444.62 308.64,-498.77 95.48,-208.64 266.37,-839.28 255.87,-985.03l-455.46 295.16c-542.78,339.63 -87.45,777.92 -109.05,1188.63z"/>
    <path class="fil2" d="M1068.48 780.97l-1040.48 5.85c-15.39,0.09 -27.94,-12.32 -28.02,-27.71l-1.05 -186.15c-0.02,-3.72 1.78,-7.25 4.87,-9.31 63.99,-42.5 150.28,-50.12 227.19,-34.5 93,18.9 177.39,65.92 264.16,104.37 86.76,38.45 182.01,69.16 275.46,52.6 88.18,-15.63 163.12,-71.03 242.67,-112.17 21.23,-10.98 43.82,-20.9 67.01,-28.77 7.23,-2.45 14.75,2.84 14.8,10.47l1.11 197.28c0.09,15.39 -12.32,27.94 -27.71,28.03z"/>
    <path class="fil3" d="M597.06 970.85l-636.42 0c-95.26,0 -172.49,77.23 -172.49,172.49 0,95.27 77.23,172.5 172.49,172.5l636.42 0c95.26,0 172.5,-77.23 172.5,-172.5 0,-95.26 -77.23,-172.49 -172.5,-172.49z"/>
    <path class="fil4 str0" d="M-6424.18 -2095.29c-296.07,-184.55 2535.44,105.08 2817.25,156.48 1085.88,198.08 3452.27,583.33 3998.2,1026.19l-1827.13 1661.14c-2834.51,1205.27 -3309,-1797.77 -4988.32,-2843.82z"/>
   </g>
  </g>
  <path class="fil5" d="M57.42 770.64l976.91 0c31.58,0 57.41,-25.84 57.41,-57.42l0 -655.81c0,-31.58 -25.84,-57.42 -57.41,-57.42l-976.91 0c-31.58,0 -57.42,25.84 -57.42,57.42l0 655.81c0,31.58 25.84,57.42 57.42,57.42z"/>
  <g>
   <path class="fil6" d="M766.07 497.77c-0.13,1.53 -0.28,3.06 -0.45,4.59l0.01 0c-0.82,7.29 -2.15,14.53 -3.98,21.59l27.88 7.22c2.6,-10.03 4.36,-20.38 5.23,-30.75l-0.02 -0c0.08,-0.88 0.15,-1.76 0.21,-2.64l-28.89 0 0 0zm-26 73.97l23.86 16.12c5.82,-8.62 10.94,-17.79 15.21,-27.24l-26.24 -11.86c-3.6,7.98 -7.92,15.71 -12.83,22.98zm-36.26 37.94l17.18 23.11c8.33,-6.19 16.19,-13.14 23.37,-20.65l-20.82 -19.9c-6.06,6.34 -12.7,12.21 -19.73,17.44zm-46.74 23.74l8.5 27.52c9.92,-3.06 19.65,-7 28.91,-11.71l-13.04 -25.67c-7.82,3.97 -16.01,7.29 -24.37,9.87zm110.26 -299.8l0 53.33c-13.54,-21.61 -31.47,-40.24 -52.87,-54.76 -30.56,-20.73 -66.3,-31.69 -103.36,-31.69 -49.23,0 -95.51,19.17 -130.33,53.98 -34.81,34.81 -53.98,81.09 -53.98,130.33 0,49.23 19.17,95.51 53.98,130.32 34.81,34.81 81.1,53.98 130.33,53.98 8.02,0 16.08,-0.52 23.98,-1.55l-3.71 -28.56c-6.67,0.87 -13.49,1.31 -20.27,1.31 -85.75,0 -155.51,-69.76 -155.51,-155.51 0,-85.75 69.76,-155.51 155.51,-155.51 55.66,0 106.17,29.36 133.89,76.31l-49.65 0 0 28.8 100.79 0 0 -100.79 -28.8 0zm-169.91 21.6l28.8 0 0 143.99 -109.43 0 0 -28.8 80.64 0 0 -115.19z"/>
   <path id="1" class="fil6" d="M766.1 498.5l-0.96 7.72 -3.38 -4.3 0.02 -0.15 0.01 -0.12 0.01 -0.14 0.02 -0.14 0.01 -0.14 0.02 -0.14 0.01 -0.14 0.02 -0.14 0.01 -0.12 0.01 -0.14 0.01 -0.15 0.01 -0.14 0.01 -0.14 0.01 -0.14 0.01 -0.14 0.01 -0.14 0.01 -0.12 0.01 -0.14 0.02 -0.17 0.01 -0.12 0.01 -0.12 0.01 -0.17 0.01 -0.14 0.01 -0.12 0.01 -0.14 0.01 -0.14 0.01 -0.14 0.01 -0.14 0.01 -0.14 0.01 -0.12 0.01 -0.14 0.01 -0.15 7.75 0.64 -0.01 0.14 -0.01 0.14 -0.01 0.17 -0.01 0.14 -0.01 0.14 -0.01 0.14 -0.01 0.14 -0.01 0.14 -0.01 0.17 -0.01 0.14 -0.01 0.12 -0.01 0.17 -0.02 0.17 -0.01 0.12 -0.01 0.14 -0.02 0.17 -0.01 0.14 -0.01 0.15 -0.01 0.14 -0.01 0.14 -0.01 0.14 -0.01 0.14 -0.01 0.15 -0.02 0.17 -0.02 0.14 -0.01 0.14 -0.02 0.14 -0.01 0.14 -0.02 0.14 -0.01 0.14 -0.02 0.17 -0.01 0.13 -3.38 -4.3zm-0.96 7.72l-3.81 -0.48 0.43 -3.82 3.38 4.3zm0.01 0l-0.01 -0 0.96 -7.72 0.01 0 3.38 4.3 -4.35 3.43zm0.96 -7.72l3.81 0.48 -0.43 3.82 -3.38 -4.3zm-3.48 21.68l-1.95 7.53 -2.79 -4.74 0.17 -0.64 0.16 -0.65 0.16 -0.65 0.16 -0.65 0.15 -0.64 0.15 -0.65 0.15 -0.66 0.15 -0.66 0.14 -0.65 0.14 -0.66 0.14 -0.66 0.13 -0.66 0.13 -0.65 0.13 -0.66 0.13 -0.66 0.12 -0.66 0.12 -0.66 0.12 -0.66 0.11 -0.66 0.11 -0.66 0.11 -0.66 0.11 -0.66 0.1 -0.66 0.1 -0.67 0.1 -0.66 0.09 -0.66 0.09 -0.67 0.09 -0.66 0.09 -0.67 0.08 -0.67 0.08 -0.67 0.08 -0.66 7.73 0.87 -0.08 0.7 -0.08 0.7 -0.09 0.7 -0.09 0.7 -0.09 0.7 -0.1 0.7 -0.1 0.7 -0.1 0.7 -0.1 0.7 -0.11 0.7 -0.11 0.69 -0.11 0.7 -0.12 0.69 -0.12 0.69 -0.12 0.69 -0.13 0.69 -0.13 0.7 -0.13 0.69 -0.13 0.69 -0.14 0.69 -0.14 0.69 -0.14 0.69 -0.15 0.69 -0.15 0.69 -0.15 0.68 -0.15 0.68 -0.16 0.69 -0.16 0.69 -0.17 0.68 -0.17 0.68 -0.17 0.68 -0.17 0.68 -2.79 -4.74zm-1.95 7.53l-3.77 -0.98 0.98 -3.77 2.79 4.74zm27.88 7.22l-27.88 -7.22 1.95 -7.53 27.88 7.22 2.79 4.74 -4.74 2.79zm4.74 -2.79l-0.98 3.77 -3.77 -0.98 4.74 -2.79zm1.14 -27.85l0.64 -7.75 3.56 4.2 -0.09 0.99 -0.09 0.99 -0.1 0.99 -0.1 0.99 -0.11 0.99 -0.11 0.99 -0.12 0.99 -0.12 0.99 -0.13 0.99 -0.13 0.99 -0.14 0.99 -0.15 0.99 -0.15 0.98 -0.15 0.99 -0.16 0.98 -0.16 0.98 -0.17 0.98 -0.17 0.98 -0.18 0.98 -0.19 0.98 -0.19 0.98 -0.2 0.98 -0.2 0.98 -0.2 0.97 -0.21 0.98 -0.21 0.97 -0.22 0.97 -0.23 0.97 -0.23 0.96 -0.24 0.97 -0.24 0.96 -0.25 0.96 -7.53 -1.95 0.24 -0.92 0.23 -0.92 0.23 -0.92 0.22 -0.93 0.22 -0.93 0.21 -0.93 0.21 -0.93 0.2 -0.93 0.2 -0.94 0.19 -0.94 0.19 -0.93 0.18 -0.94 0.18 -0.94 0.17 -0.94 0.17 -0.94 0.16 -0.94 0.16 -0.94 0.15 -0.94 0.15 -0.94 0.14 -0.95 0.14 -0.94 0.13 -0.95 0.13 -0.95 0.12 -0.95 0.12 -0.95 0.11 -0.95 0.11 -0.95 0.1 -0.95 0.1 -0.95 0.09 -0.95 0.09 -0.95 0.08 -0.95 3.56 4.2zm0.64 -7.75l3.88 0.32 -0.33 3.88 -3.56 -4.2zm-0.02 -0l0.02 0 -0.64 7.75 -0.02 -0 -3.55 -4.21 4.2 -3.54zm-0.64 7.75l-3.89 -0.32 0.34 -3.89 3.55 4.21zm0.54 -2.63l0 -7.78 3.88 4.16 -0 0.07 -0.01 0.13 -0.01 0.09 -0 0.04 -0.01 0.13 -0.01 0.08 -0.01 0.08 -0.01 0.09 -0.01 0.08 -0.01 0.13 -0 0.04 -0.01 0.08 -0.01 0.13 -0 0.04 -0.01 0.08 -0.01 0.13 -0.01 0.08 -0 0.04 -0.01 0.09 -0.01 0.12 -0.01 0.08 -0.01 0.09 -0.01 0.08 -0.01 0.08 -0 0.04 -0.01 0.08 -0.01 0.13 -0.01 0.09 -0.01 0.08 -0.01 0.08 -0.01 0.08 -0.01 0.08 -7.75 -0.67 0.01 -0.09 0.01 -0.08 0.01 -0.09 0.01 -0.08 0.01 -0.08 0 -0.04 0.01 -0.09 0.01 -0.12 0.01 -0.08 0.01 -0.09 0.01 -0.08 0.01 -0.08 0 -0.04 0.01 -0.08 0.01 -0.13 0.01 -0.09 0 -0.04 0.01 -0.08 0.01 -0.12 0 -0.04 0.01 -0.09 0.01 -0.12 0 -0.04 0.01 -0.09 0.01 -0.08 0.01 -0.08 0.01 -0.08 0 -0.04 0.01 -0.13 0.01 -0.08 0 -0.04 0.01 -0.1 3.88 4.16zm0 -7.78l4.17 0 -0.29 4.16 -3.88 -4.16zm-28.89 0l28.89 0 0 7.78 -28.89 0 -3.88 -4.21 3.88 -3.57zm-3.88 3.57l0.3 -3.57 3.58 0 -3.88 3.57zm3.88 0.32l0 0 0 0 0 0 3.88 0.32 -3.88 -0.32zm-3.88 -0.32l0.3 -3.57 3.58 0 -3.88 3.57zm-0.43 93.63l-23.86 -16.12 4.35 -6.45 23.86 16.12 1.05 5.4 -5.4 1.05zm5.4 -1.05l-2.18 3.22 -3.22 -2.18 5.4 -1.05zm10.39 -25.88l3.2 -7.09 1.94 5.15 -0.41 0.9 -0.42 0.9 -0.42 0.9 -0.43 0.9 -0.43 0.9 -0.44 0.89 -0.44 0.89 -0.45 0.89 -0.45 0.89 -0.46 0.88 -0.46 0.88 -0.46 0.88 -0.47 0.88 -0.48 0.88 -0.48 0.87 -0.48 0.87 -0.49 0.87 -0.49 0.87 -0.5 0.87 -0.5 0.86 -0.51 0.86 -0.51 0.86 -0.52 0.85 -0.52 0.85 -0.52 0.85 -0.53 0.84 -0.53 0.84 -0.54 0.84 -0.54 0.83 -0.55 0.83 -0.55 0.83 -0.56 0.83 -6.45 -4.35 0.53 -0.79 0.53 -0.79 0.52 -0.8 0.52 -0.81 0.52 -0.8 0.51 -0.81 0.51 -0.81 0.5 -0.81 0.5 -0.82 0.5 -0.82 0.49 -0.82 0.49 -0.83 0.48 -0.83 0.48 -0.82 0.47 -0.83 0.47 -0.84 0.46 -0.84 0.46 -0.84 0.46 -0.84 0.45 -0.84 0.45 -0.84 0.44 -0.85 0.44 -0.85 0.43 -0.85 0.43 -0.85 0.42 -0.86 0.42 -0.86 0.41 -0.86 0.41 -0.86 0.4 -0.86 0.4 -0.86 0.39 -0.87 1.94 5.15zm3.2 -7.09l3.55 1.6 -1.6 3.55 -1.94 -5.15zm-26.24 -11.86l26.24 11.86 -3.2 7.09 -26.24 -11.86 -1.94 -5.15 5.15 -1.94zm-5.15 1.94l1.6 -3.55 3.55 1.6 -5.15 1.94zm-7.11 21.36l-4.35 6.45 -1.05 -5.4 0.45 -0.67 0.44 -0.67 0.44 -0.67 0.44 -0.68 0.44 -0.68 0.43 -0.67 0.43 -0.68 0.42 -0.69 0.42 -0.69 0.42 -0.68 0.41 -0.69 0.41 -0.69 0.4 -0.7 0.4 -0.7 0.4 -0.7 0.4 -0.7 0.39 -0.7 0.39 -0.7 0.38 -0.71 0.38 -0.71 0.37 -0.71 0.37 -0.71 0.37 -0.72 0.36 -0.71 0.36 -0.71 0.35 -0.72 0.35 -0.72 0.35 -0.72 0.34 -0.72 0.34 -0.72 0.34 -0.73 0.33 -0.73 7.09 3.2 -0.35 0.77 -0.35 0.76 -0.36 0.77 -0.36 0.76 -0.36 0.76 -0.37 0.76 -0.37 0.76 -0.38 0.76 -0.38 0.76 -0.39 0.75 -0.39 0.75 -0.4 0.75 -0.4 0.74 -0.4 0.74 -0.41 0.74 -0.41 0.74 -0.41 0.74 -0.42 0.74 -0.42 0.73 -0.43 0.73 -0.43 0.73 -0.43 0.73 -0.44 0.72 -0.44 0.72 -0.44 0.72 -0.45 0.72 -0.45 0.72 -0.46 0.71 -0.46 0.71 -0.46 0.71 -0.47 0.7 -0.47 0.7 -1.05 -5.4zm-4.35 6.45l-3.22 -2.18 2.18 -3.22 1.05 5.4zm-20.02 60.14l-17.18 -23.11 6.24 -4.64 17.18 23.11 -0.8 5.44 -5.44 -0.8zm5.44 0.8l-3.12 2.32 -2.32 -3.12 5.44 0.8zm18.36 -20.96l5.38 -5.63 0.12 5.5 -0.69 0.72 -0.69 0.71 -0.7 0.71 -0.7 0.7 -0.71 0.71 -0.71 0.7 -0.71 0.7 -0.72 0.69 -0.72 0.69 -0.73 0.69 -0.73 0.68 -0.73 0.68 -0.74 0.68 -0.74 0.67 -0.74 0.67 -0.75 0.66 -0.75 0.66 -0.75 0.65 -0.76 0.65 -0.76 0.65 -0.76 0.64 -0.77 0.64 -0.77 0.63 -0.77 0.63 -0.78 0.63 -0.78 0.62 -0.78 0.62 -0.78 0.61 -0.79 0.61 -0.79 0.6 -0.79 0.6 -0.8 0.6 -4.64 -6.24 0.76 -0.57 0.76 -0.58 0.76 -0.58 0.75 -0.58 0.75 -0.59 0.75 -0.59 0.75 -0.6 0.74 -0.6 0.74 -0.6 0.74 -0.61 0.73 -0.61 0.73 -0.62 0.73 -0.62 0.72 -0.62 0.72 -0.63 0.72 -0.63 0.71 -0.63 0.71 -0.64 0.71 -0.64 0.7 -0.65 0.7 -0.65 0.7 -0.65 0.69 -0.66 0.69 -0.66 0.69 -0.66 0.68 -0.67 0.68 -0.67 0.67 -0.67 0.67 -0.68 0.67 -0.68 0.66 -0.68 0.66 -0.69 0.12 5.5zm5.38 -5.63l2.81 2.69 -2.69 2.81 -0.12 -5.5zm-20.82 -19.9l20.82 19.9 -5.38 5.63 -20.82 -19.9 -0.12 -5.5 5.5 -0.12zm-5.5 0.12l2.69 -2.81 2.81 2.69 -5.5 0.12zm-13.8 17.81l-6.24 4.64 0.8 -5.44 0.64 -0.48 0.64 -0.48 0.64 -0.49 0.63 -0.49 0.63 -0.5 0.63 -0.5 0.63 -0.5 0.62 -0.5 0.62 -0.51 0.62 -0.51 0.62 -0.52 0.62 -0.52 0.61 -0.52 0.61 -0.53 0.61 -0.53 0.6 -0.53 0.6 -0.53 0.6 -0.54 0.6 -0.54 0.59 -0.54 0.59 -0.55 0.59 -0.55 0.58 -0.55 0.58 -0.56 0.58 -0.56 0.58 -0.56 0.57 -0.56 0.57 -0.57 0.57 -0.57 0.56 -0.57 0.56 -0.58 0.56 -0.58 5.63 5.38 -0.58 0.61 -0.59 0.6 -0.59 0.6 -0.59 0.6 -0.6 0.6 -0.6 0.6 -0.6 0.59 -0.61 0.58 -0.61 0.58 -0.62 0.59 -0.62 0.58 -0.62 0.57 -0.63 0.58 -0.63 0.57 -0.63 0.56 -0.63 0.56 -0.64 0.56 -0.64 0.55 -0.64 0.55 -0.65 0.55 -0.65 0.54 -0.65 0.54 -0.65 0.54 -0.65 0.53 -0.66 0.54 -0.66 0.53 -0.66 0.52 -0.66 0.52 -0.67 0.52 -0.67 0.51 -0.67 0.51 -0.68 0.5 0.8 -5.44zm-6.24 4.64l-2.32 -3.12 3.12 -2.32 -0.8 5.44zm-38.83 50.08l-8.5 -27.52 7.43 -2.3 8.5 27.52 -2.57 4.87 -4.87 -2.57zm4.87 2.57l-3.72 1.15 -1.15 -3.72 4.87 2.57zm24.3 -13.67l6.94 -3.52 -1.71 5.23 -0.89 0.45 -0.89 0.45 -0.9 0.44 -0.89 0.43 -0.9 0.43 -0.9 0.43 -0.9 0.42 -0.91 0.42 -0.91 0.41 -0.91 0.41 -0.92 0.4 -0.91 0.4 -0.92 0.39 -0.92 0.39 -0.92 0.38 -0.92 0.38 -0.92 0.37 -0.93 0.37 -0.93 0.36 -0.93 0.36 -0.93 0.35 -0.94 0.35 -0.94 0.34 -0.94 0.33 -0.94 0.33 -0.94 0.33 -0.94 0.32 -0.94 0.31 -0.94 0.31 -0.95 0.31 -0.95 0.3 -0.95 0.29 -2.3 -7.43 0.91 -0.28 0.91 -0.29 0.91 -0.29 0.91 -0.3 0.91 -0.3 0.9 -0.31 0.9 -0.31 0.9 -0.32 0.9 -0.32 0.89 -0.33 0.9 -0.33 0.9 -0.34 0.89 -0.34 0.89 -0.35 0.89 -0.35 0.89 -0.36 0.89 -0.36 0.88 -0.37 0.88 -0.37 0.88 -0.38 0.88 -0.38 0.87 -0.38 0.87 -0.39 0.87 -0.4 0.87 -0.4 0.87 -0.41 0.86 -0.4 0.86 -0.41 0.86 -0.42 0.86 -0.42 0.85 -0.42 0.85 -0.43 -1.71 5.23zm6.94 -3.52l1.76 3.47 -3.47 1.76 1.71 -5.23zm-13.04 -25.67l13.04 25.67 -6.94 3.52 -13.04 -25.67 1.71 -5.23 5.23 1.71zm-5.23 -1.71l3.47 -1.76 1.76 3.47 -5.23 -1.71zm-18.89 12.19l-7.43 2.3 2.57 -4.87 0.76 -0.24 0.76 -0.24 0.76 -0.25 0.76 -0.25 0.76 -0.25 0.76 -0.26 0.76 -0.26 0.75 -0.27 0.76 -0.27 0.76 -0.28 0.75 -0.28 0.75 -0.28 0.75 -0.29 0.74 -0.29 0.74 -0.29 0.74 -0.3 0.75 -0.31 0.74 -0.31 0.74 -0.31 0.74 -0.31 0.74 -0.32 0.74 -0.32 0.73 -0.33 0.73 -0.33 0.73 -0.33 0.73 -0.34 0.73 -0.34 0.72 -0.34 0.72 -0.35 0.72 -0.35 0.72 -0.36 0.72 -0.36 3.52 6.94 -0.75 0.38 -0.76 0.38 -0.76 0.37 -0.76 0.37 -0.76 0.37 -0.76 0.36 -0.76 0.35 -0.77 0.35 -0.77 0.35 -0.77 0.34 -0.77 0.34 -0.77 0.33 -0.78 0.33 -0.78 0.33 -0.78 0.32 -0.78 0.32 -0.78 0.31 -0.79 0.31 -0.79 0.31 -0.79 0.3 -0.79 0.3 -0.79 0.29 -0.79 0.29 -0.79 0.29 -0.8 0.28 -0.8 0.28 -0.8 0.27 -0.8 0.27 -0.8 0.26 -0.8 0.26 -0.8 0.25 -0.8 0.25 2.57 -4.87zm-7.43 2.3l-1.15 -3.72 3.72 -1.15 -2.57 4.87zm110.09 -247.62l0 -53.33 7.78 0 0 53.33 -7.19 2.07 -0.59 -2.07zm7.78 0l0 13.54 -7.19 -11.47 7.19 -2.07zm-58.95 -51.54l4.37 -6.44 0 0 2.04 1.4 2.02 1.43 2 1.45 1.97 1.48 1.95 1.5 1.93 1.52 1.91 1.54 1.89 1.57 1.87 1.59 1.84 1.61 1.82 1.63 1.8 1.66 1.77 1.68 1.75 1.7 1.73 1.72 1.71 1.75 1.68 1.77 1.66 1.79 1.64 1.81 1.61 1.83 1.59 1.85 1.56 1.87 1.54 1.89 1.51 1.91 1.49 1.93 1.46 1.95 1.44 1.97 1.41 1.99 1.39 2.01 1.36 2.02 1.34 2.04 1.31 2.06 -6.59 4.13 -1.25 -1.97 -1.28 -1.96 -1.31 -1.94 -1.33 -1.92 -1.35 -1.9 -1.38 -1.89 -1.4 -1.87 -1.43 -1.85 -1.45 -1.83 -1.47 -1.81 -1.5 -1.79 -1.52 -1.77 -1.54 -1.75 -1.57 -1.73 -1.59 -1.71 -1.61 -1.69 -1.64 -1.67 -1.66 -1.65 -1.68 -1.63 -1.7 -1.61 -1.73 -1.59 -1.75 -1.57 -1.77 -1.55 -1.79 -1.53 -1.81 -1.5 -1.83 -1.48 -1.85 -1.46 -1.87 -1.44 -1.89 -1.41 -1.91 -1.39 -1.94 -1.37 -1.96 -1.34 0 0zm-101.17 -31.02l0 -7.78 0 0 3.54 0.03 3.54 0.1 3.53 0.16 3.51 0.23 3.51 0.29 3.49 0.36 3.48 0.42 3.47 0.49 3.46 0.55 3.44 0.62 3.42 0.68 3.41 0.74 3.39 0.8 3.38 0.86 3.36 0.93 3.34 0.99 3.32 1.05 3.3 1.11 3.28 1.18 3.25 1.24 3.23 1.3 3.21 1.36 3.19 1.42 3.16 1.48 3.14 1.54 3.11 1.6 3.09 1.66 3.06 1.72 3.03 1.78 3 1.84 2.97 1.9 2.94 1.96 -4.37 6.44 -2.82 -1.88 -2.85 -1.82 -2.88 -1.76 -2.91 -1.7 -2.93 -1.65 -2.96 -1.59 -2.98 -1.53 -3.01 -1.48 -3.03 -1.42 -3.06 -1.36 -3.08 -1.3 -3.1 -1.24 -3.12 -1.19 -3.14 -1.13 -3.16 -1.07 -3.18 -1.01 -3.2 -0.95 -3.22 -0.89 -3.23 -0.83 -3.25 -0.77 -3.27 -0.71 -3.29 -0.65 -3.29 -0.59 -3.31 -0.53 -3.32 -0.47 -3.34 -0.4 -3.35 -0.34 -3.36 -0.28 -3.37 -0.22 -3.38 -0.16 -3.39 -0.09 -3.4 -0.03 0 0zm-127.57 52.84l-5.5 -5.5 0 0 3.36 -3.28 3.43 -3.19 3.5 -3.1 3.56 -3 3.63 -2.91 3.68 -2.81 3.74 -2.71 3.8 -2.61 3.86 -2.51 3.91 -2.41 3.97 -2.31 4.02 -2.21 4.07 -2.11 4.11 -2.01 4.16 -1.91 4.21 -1.8 4.25 -1.7 4.29 -1.59 4.33 -1.49 4.37 -1.38 4.41 -1.27 4.44 -1.17 4.47 -1.06 4.5 -0.95 4.54 -0.84 4.57 -0.73 4.59 -0.62 4.62 -0.51 4.64 -0.4 4.66 -0.28 4.68 -0.17 4.7 -0.06 0 7.78 -4.51 0.06 -4.49 0.16 -4.47 0.27 -4.45 0.38 -4.43 0.49 -4.4 0.6 -4.38 0.7 -4.35 0.8 -4.32 0.91 -4.29 1.01 -4.25 1.12 -4.22 1.22 -4.19 1.32 -4.15 1.43 -4.11 1.53 -4.07 1.63 -4.03 1.73 -3.99 1.83 -3.94 1.92 -3.9 2.02 -3.85 2.12 -3.8 2.22 -3.75 2.31 -3.7 2.41 -3.65 2.51 -3.59 2.6 -3.53 2.69 -3.48 2.79 -3.42 2.88 -3.36 2.97 -3.29 3.06 -3.23 3.15 0 0zm-52.84 127.57l-7.78 0 0 0 0.06 -4.7 0.17 -4.68 0.28 -4.66 0.4 -4.64 0.51 -4.62 0.62 -4.59 0.73 -4.56 0.84 -4.54 0.95 -4.51 1.06 -4.47 1.17 -4.44 1.27 -4.4 1.38 -4.37 1.49 -4.33 1.59 -4.29 1.7 -4.25 1.8 -4.21 1.91 -4.16 2.01 -4.11 2.11 -4.07 2.21 -4.02 2.31 -3.97 2.41 -3.91 2.51 -3.86 2.61 -3.8 2.71 -3.74 2.81 -3.68 2.91 -3.63 3 -3.56 3.1 -3.5 3.19 -3.43 3.28 -3.36 5.5 5.5 -3.15 3.23 -3.06 3.29 -2.97 3.36 -2.88 3.42 -2.79 3.48 -2.69 3.53 -2.6 3.59 -2.51 3.65 -2.41 3.7 -2.31 3.75 -2.22 3.8 -2.12 3.85 -2.02 3.9 -1.92 3.94 -1.83 3.99 -1.73 4.03 -1.63 4.07 -1.53 4.11 -1.43 4.15 -1.32 4.19 -1.22 4.22 -1.12 4.26 -1.01 4.29 -0.91 4.32 -0.8 4.35 -0.7 4.37 -0.6 4.4 -0.49 4.43 -0.38 4.45 -0.27 4.47 -0.16 4.49 -0.06 4.51 0 0zm52.84 127.57l-5.5 5.5 0 0 -3.28 -3.36 -3.19 -3.43 -3.1 -3.5 -3 -3.56 -2.91 -3.63 -2.81 -3.68 -2.71 -3.74 -2.61 -3.8 -2.51 -3.86 -2.41 -3.91 -2.31 -3.97 -2.21 -4.02 -2.11 -4.07 -2.01 -4.11 -1.91 -4.16 -1.8 -4.21 -1.7 -4.25 -1.59 -4.29 -1.49 -4.33 -1.38 -4.37 -1.27 -4.4 -1.17 -4.44 -1.06 -4.47 -0.95 -4.5 -0.84 -4.54 -0.73 -4.57 -0.62 -4.59 -0.51 -4.62 -0.4 -4.64 -0.28 -4.66 -0.17 -4.68 -0.06 -4.7 7.78 0 0.06 4.51 0.16 4.49 0.27 4.47 0.38 4.45 0.49 4.43 0.6 4.4 0.7 4.38 0.8 4.35 0.91 4.32 1.01 4.29 1.12 4.25 1.22 4.22 1.32 4.19 1.43 4.15 1.53 4.11 1.63 4.07 1.73 4.03 1.83 3.99 1.92 3.94 2.02 3.9 2.12 3.85 2.22 3.8 2.31 3.75 2.41 3.7 2.51 3.65 2.6 3.59 2.69 3.53 2.79 3.48 2.88 3.42 2.97 3.36 3.06 3.29 3.15 3.23 0 0zm127.57 52.84l0 7.78 0 0 -4.7 -0.06 -4.68 -0.17 -4.66 -0.28 -4.64 -0.4 -4.62 -0.51 -4.59 -0.62 -4.57 -0.73 -4.54 -0.84 -4.5 -0.95 -4.47 -1.06 -4.44 -1.17 -4.41 -1.28 -4.37 -1.38 -4.33 -1.49 -4.29 -1.59 -4.25 -1.7 -4.21 -1.8 -4.16 -1.91 -4.12 -2.01 -4.06 -2.11 -4.02 -2.21 -3.97 -2.31 -3.91 -2.41 -3.86 -2.51 -3.8 -2.61 -3.74 -2.71 -3.68 -2.81 -3.63 -2.9 -3.56 -3 -3.5 -3.1 -3.43 -3.19 -3.36 -3.29 5.5 -5.5 3.23 3.15 3.29 3.06 3.36 2.97 3.42 2.88 3.48 2.78 3.53 2.69 3.59 2.6 3.64 2.5 3.7 2.41 3.75 2.31 3.8 2.22 3.85 2.12 3.9 2.02 3.94 1.93 3.99 1.83 4.03 1.73 4.07 1.63 4.11 1.53 4.15 1.43 4.19 1.33 4.22 1.22 4.25 1.12 4.29 1.02 4.32 0.91 4.35 0.81 4.38 0.7 4.4 0.6 4.43 0.49 4.45 0.38 4.47 0.27 4.49 0.16 4.51 0.06 0 0zm20.12 2.84l7.71 -1 -3.36 4.36 -0.76 0.1 -0.76 0.09 -0.76 0.09 -0.76 0.09 -0.76 0.08 -0.77 0.08 -0.76 0.08 -0.76 0.08 -0.76 0.07 -0.76 0.07 -0.76 0.07 -0.77 0.06 -0.76 0.06 -0.76 0.06 -0.77 0.05 -0.76 0.05 -0.77 0.05 -0.77 0.05 -0.76 0.04 -0.77 0.04 -0.77 0.03 -0.77 0.03 -0.77 0.03 -0.76 0.03 -0.77 0.02 -0.77 0.02 -0.77 0.02 -0.77 0.01 -0.77 0.01 -0.77 0.01 -0.77 0 -0.77 0 0 -7.78 0.74 -0 0.73 -0 0.74 -0.01 0.74 -0.01 0.74 -0.01 0.74 -0.02 0.73 -0.02 0.74 -0.02 0.74 -0.03 0.74 -0.03 0.74 -0.03 0.73 -0.03 0.73 -0.04 0.74 -0.04 0.74 -0.04 0.74 -0.05 0.74 -0.05 0.73 -0.05 0.74 -0.05 0.73 -0.06 0.73 -0.06 0.73 -0.06 0.73 -0.07 0.73 -0.07 0.73 -0.07 0.73 -0.08 0.73 -0.08 0.73 -0.08 0.73 -0.08 0.73 -0.09 0.73 -0.09 0.72 -0.09 -3.36 4.36zm7.71 -1l0.5 3.86 -3.86 0.5 3.36 -4.36zm-3.71 -28.56l3.71 28.56 -7.71 1 -3.71 -28.56 3.36 -4.36 4.36 3.36zm-4.36 -3.36l3.86 -0.5 0.5 3.86 -4.36 -3.36zm-19.77 9.05l0 -7.78 0 0 0.62 -0 0.62 -0 0.62 -0.01 0.61 -0.01 0.63 -0.01 0.62 -0.01 0.62 -0.02 0.62 -0.02 0.62 -0.02 0.62 -0.03 0.62 -0.02 0.62 -0.03 0.62 -0.03 0.61 -0.03 0.62 -0.04 0.62 -0.04 0.62 -0.04 0.62 -0.04 0.61 -0.05 0.62 -0.05 0.62 -0.05 0.62 -0.05 0.62 -0.05 0.61 -0.06 0.62 -0.06 0.61 -0.06 0.62 -0.07 0.61 -0.07 0.61 -0.07 0.61 -0.07 0.61 -0.07 0.61 -0.08 1 7.71 -0.64 0.08 -0.64 0.08 -0.65 0.08 -0.64 0.07 -0.64 0.07 -0.64 0.07 -0.65 0.07 -0.65 0.06 -0.65 0.06 -0.64 0.06 -0.65 0.06 -0.65 0.05 -0.64 0.05 -0.66 0.05 -0.65 0.04 -0.65 0.04 -0.65 0.04 -0.65 0.04 -0.66 0.03 -0.65 0.03 -0.65 0.03 -0.65 0.03 -0.65 0.03 -0.66 0.02 -0.65 0.02 -0.65 0.02 -0.65 0.01 -0.65 0.01 -0.66 0.01 -0.65 0.01 -0.65 0 -0.65 0 0 0zm-159.4 -159.4l7.78 0 0 0 0.2 7.79 0.59 7.69 0.97 7.58 1.34 7.46 1.69 7.33 2.05 7.19 2.39 7.04 2.72 6.88 3.04 6.71 3.35 6.54 3.65 6.35 3.95 6.15 4.23 5.95 4.51 5.73 4.77 5.5 5.03 5.27 5.27 5.03 5.5 4.77 5.73 4.51 5.95 4.23 6.15 3.95 6.35 3.65 6.54 3.35 6.71 3.04 6.88 2.72 7.04 2.39 7.19 2.05 7.33 1.69 7.46 1.34 7.58 0.97 7.69 0.59 7.79 0.2 0 7.78 -8.19 -0.21 -8.08 -0.62 -7.97 -1.01 -7.84 -1.41 -7.71 -1.78 -7.56 -2.15 -7.4 -2.51 -7.24 -2.86 -7.06 -3.2 -6.87 -3.52 -6.67 -3.84 -6.47 -4.15 -6.25 -4.45 -6.02 -4.73 -5.79 -5.01 -5.54 -5.28 -5.28 -5.54 -5.01 -5.79 -4.73 -6.02 -4.45 -6.25 -4.15 -6.47 -3.84 -6.67 -3.52 -6.87 -3.2 -7.06 -2.86 -7.24 -2.51 -7.4 -2.15 -7.56 -1.78 -7.71 -1.41 -7.84 -1.01 -7.97 -0.62 -8.08 -0.21 -8.19 0 0zm159.4 -159.4l0 7.78 0 0 -7.79 0.2 -7.69 0.59 -7.58 0.97 -7.46 1.34 -7.33 1.69 -7.19 2.05 -7.04 2.39 -6.88 2.72 -6.72 3.04 -6.54 3.35 -6.35 3.66 -6.15 3.95 -5.95 4.23 -5.73 4.51 -5.5 4.77 -5.27 5.02 -5.03 5.27 -4.77 5.5 -4.51 5.73 -4.23 5.95 -3.95 6.15 -3.65 6.35 -3.35 6.54 -3.04 6.71 -2.72 6.88 -2.39 7.04 -2.05 7.19 -1.69 7.33 -1.34 7.46 -0.97 7.58 -0.59 7.69 -0.2 7.79 -7.78 0 0.21 -8.19 0.62 -8.08 1.01 -7.97 1.41 -7.84 1.78 -7.71 2.15 -7.56 2.51 -7.4 2.86 -7.24 3.2 -7.06 3.52 -6.87 3.84 -6.68 4.15 -6.47 4.45 -6.25 4.73 -6.02 5.01 -5.79 5.28 -5.54 5.54 -5.28 5.79 -5.01 6.02 -4.73 6.25 -4.45 6.47 -4.15 6.68 -3.84 6.87 -3.52 7.06 -3.2 7.24 -2.86 7.4 -2.51 7.56 -2.15 7.71 -1.78 7.84 -1.41 7.97 -1.01 8.08 -0.62 8.19 -0.21 0 0zm133.89 84.09l0 -7.78 -3.35 5.87 -2.6 -4.24 -2.73 -4.14 -2.85 -4.03 -2.97 -3.92 -3.09 -3.82 -3.2 -3.71 -3.31 -3.59 -3.42 -3.48 -3.53 -3.36 -3.63 -3.24 -3.73 -3.12 -3.82 -3 -3.92 -2.87 -4 -2.75 -4.09 -2.61 -4.17 -2.48 -4.25 -2.35 -4.33 -2.21 -4.4 -2.07 -4.47 -1.93 -4.54 -1.79 -4.6 -1.65 -4.67 -1.5 -4.72 -1.35 -4.78 -1.2 -4.83 -1.04 -4.88 -0.89 -4.92 -0.73 -4.97 -0.57 -5 -0.41 -5.04 -0.25 -5.08 -0.08 0 -7.78 5.33 0.09 5.3 0.26 5.26 0.44 5.22 0.6 5.17 0.77 5.13 0.94 5.08 1.1 5.02 1.26 4.96 1.42 4.91 1.57 4.84 1.73 4.77 1.88 4.7 2.03 4.63 2.18 4.55 2.32 4.47 2.47 4.39 2.61 4.3 2.75 4.21 2.88 4.12 3.02 4.02 3.15 3.92 3.28 3.82 3.41 3.71 3.53 3.6 3.66 3.48 3.78 3.37 3.9 3.25 4.02 3.12 4.13 3 4.24 2.86 4.35 2.73 4.46 -3.35 5.87zm3.35 -5.87l3.46 5.87 -6.82 0 3.35 -5.87zm-53 -1.91l49.65 0 0 7.78 -49.65 0 -3.89 -3.89 3.89 -3.89zm-3.89 3.89l0 -3.89 3.89 0 -3.89 3.89zm0 28.8l0 -28.8 7.78 0 0 28.8 -3.89 3.89 -3.89 -3.89zm3.89 3.89l-3.89 0 0 -3.89 3.89 3.89zm100.79 0l-100.79 0 0 -7.78 100.79 0 3.89 3.89 -3.89 3.89zm3.89 -3.89l0 3.89 -3.89 0 3.89 -3.89zm0 -100.79l0 100.79 -7.78 0 0 -100.79 3.89 -3.89 3.89 3.89zm-3.89 -3.89l3.89 0 0 3.89 -3.89 -3.89zm-28.8 0l28.8 0 0 7.78 -28.8 0 -3.89 -3.89 3.89 -3.89zm-3.89 3.89l0 -3.89 3.89 0 -3.89 3.89zm-137.22 25.49l-28.8 0 0 -7.78 28.8 0 3.89 3.89 -3.89 3.89zm0 -7.78l3.89 0 0 3.89 -3.89 -3.89zm-3.89 147.88l0 -143.99 7.78 0 0 143.99 -3.89 3.89 -3.89 -3.89zm7.78 0l0 3.89 -3.89 0 3.89 -3.89zm-113.32 -3.89l109.43 0 0 7.78 -109.43 0 -3.89 -3.89 3.89 -3.89zm0 7.78l-3.89 0 0 -3.89 3.89 3.89zm3.89 -32.69l0 28.8 -7.78 0 0 -28.8 3.89 -3.89 3.89 3.89zm-7.78 0l0 -3.89 3.89 0 -3.89 3.89zm84.53 3.89l-80.64 0 0 -7.78 80.64 0 3.89 3.89 -3.89 3.89zm3.89 -3.89l0 3.89 -3.89 0 3.89 -3.89zm0 -115.19l0 115.19 -7.78 0 0 -115.19 3.89 -3.89 3.89 3.89zm-7.78 0l0 -3.89 3.89 0 -3.89 3.89z"/>
  </g>
  <g>
   <path class="fil6" d="M255.85 453c0,22.98 45.72,35.01 90.87,35.01 20.95,0 42.01,-2.59 58.58,-7.66 0.44,-17.67 3.47,-34.91 8.92,-51.35 -49.07,-19.65 -158.37,-11.65 -158.37,24z"/>
   <path class="fil6" d="M405.54 495.04c-16.53,4.55 -36.66,6.98 -58.81,6.98 -33.18,0 -61.81,-5.44 -80.64,-15.32 -2.16,-1.14 -4.78,-1.05 -6.86,0.21 -2.1,1.27 -3.37,3.54 -3.37,5.99l0 2.12c0,22.98 45.72,35.01 90.87,35.01 22.53,0 45.2,-3 62.26,-8.85 -1.79,-8.56 -2.94,-17.29 -3.45,-26.14zm30.85 6.26c0.79,-2 1.21,-4.09 1.21,-6.28l0 -2.12c0,-1.9 -0.77,-3.7 -2.09,-5 0.09,4.51 0.39,8.98 0.88,13.39z"/>
   <path class="fil6" d="M171.97 593.05c0,22.99 45.71,35.01 90.87,35.01 45.16,0 90.87,-12.03 90.87,-35.01 0,-45.97 -181.74,-45.97 -181.74,0z"/>
   <path class="fil6" d="M343.48 626.75c-18.82,9.87 -47.46,15.32 -80.64,15.32 -33.18,0 -61.81,-5.44 -80.64,-15.32 -2.16,-1.14 -4.78,-1.04 -6.86,0.21 -2.1,1.27 -3.37,3.54 -3.37,5.99l0 2.11c0,22.98 45.71,35.01 90.87,35.01 45.16,0 90.87,-12.03 90.87,-35.01l0 -2.11c0,-2.45 -1.27,-4.72 -3.37,-5.99 -2.09,-1.25 -4.7,-1.35 -6.86,-0.21z"/>
   <path class="fil6" d="M220.9 432c9.44,0 18.88,-0.53 28.06,-1.6 1.5,-0.17 2.89,-0.82 4,-1.85 10.59,-9.98 28.68,-17.35 52.31,-21.3 2.5,-0.42 4.58,-2.15 5.43,-4.55 0.72,-2.02 1.07,-3.89 1.07,-5.72 0,-45.97 -181.75,-45.97 -181.75,0 0,22.98 45.72,35.01 90.88,35.01z"/>
   <path class="fil6" d="M220.9 474.01c5.79,0 11.43,-0.2 16.9,-0.56 2.2,-0.15 4.21,-1.33 5.41,-3.19 1.19,-1.85 1.45,-4.17 0.68,-6.24 -1.36,-3.66 -2.02,-7.26 -1.99,-11.39 0,-1.92 -0.78,-3.75 -2.17,-5.07 -1.38,-1.32 -3.32,-2.12 -5.15,-1.93 -4.57,0.22 -9.13,0.37 -13.68,0.37 -33.18,0 -61.82,-5.44 -80.64,-15.32 -2.16,-1.14 -4.78,-1.05 -6.86,0.21 -2.1,1.27 -3.37,3.54 -3.37,5.99l0 2.11c0,22.98 45.72,35.01 90.88,35.01z"/>
   <path class="fil6" d="M220.9 516.02c5.79,0 11.43,-0.2 16.9,-0.56 2.2,-0.15 4.21,-1.33 5.41,-3.19 1.19,-1.85 1.45,-4.17 0.68,-6.24 -1.36,-3.66 -2.02,-7.26 -2.02,-11.39 0,-1.91 -0.79,-3.75 -2.17,-5.07 -1.38,-1.32 -3.29,-2.07 -5.15,-1.93 -4.55,0.22 -9.11,0.37 -13.64,0.37 -33.18,0 -61.82,-5.44 -80.64,-15.32 -2.16,-1.14 -4.78,-1.05 -6.86,0.21 -2.1,1.26 -3.37,3.54 -3.37,5.99l0 2.11c0,22.98 45.72,35.01 90.88,35.01z"/>
   <path class="fil6" d="M427.37 570.73c-13.16,6.9 -31.66,11.72 -53.51,13.93 -3.69,0.38 -6.31,4.68 -6.16,8.39 0,3.55 -0.57,6.94 -1.75,10.36 -0.78,2.26 -0.35,4.77 1.14,6.64 1.34,1.68 3.35,2.64 5.47,2.64 0.25,0 0.5,-0.01 0.75,-0.04 35.08,-3.79 57.85,-13.82 63.12,-27.39 -3.24,-4.73 -6.24,-9.59 -9,-14.57l-0.06 0.03z"/>
   <path class="fil6" d="M262.84 544.03l4.64 0.08c0.04,0 0.08,0 0.12,0 3.26,0 6.1,-2.26 6.82,-5.46 0.73,-3.24 -0.91,-6.54 -3.92,-7.92l-1.49 -0.67c-1,-0.44 -2,-0.87 -2.93,-1.36 -2.18,-1.14 -4.76,-1.04 -6.85,0.22 -2.09,1.27 -3.37,3.54 -3.37,5.99l0 2.11c0,3.87 3.13,7 6.99,7z"/>
   <path class="fil6" d="M412.45 534.96c-17.69,5.9 -40.39,9.08 -65.73,9.08l-4.61 -0.09c-2.82,-0.24 -6.19,2.24 -6.91,5.48 -0.72,3.23 0.91,6.53 3.92,7.9 7.57,3.44 13.76,7.54 18.38,12.17 1.31,1.31 3.09,2.04 4.94,2.04 0.14,0 0.29,-0.01 0.44,-0.01 20.61,-1.31 43.29,-5.53 58.19,-13.42 -3.42,-7.51 -6.3,-15.24 -8.63,-23.14z"/>
   <path class="fil6" d="M188.49 555.86c0.88,0 1.75,-0.16 2.57,-0.49 12.32,-4.88 27.33,-8.23 44.65,-9.98 3.68,-0.37 6.32,-5.03 6.16,-8.74 0,-1.92 -0.79,-3.75 -2.17,-5.07 -1.38,-1.32 -3.29,-2.03 -5.15,-1.93 -4.55,0.22 -9.11,0.37 -13.64,0.37 -33.18,0 -61.82,-5.44 -80.64,-15.32 -2.16,-1.14 -4.78,-1.05 -6.86,0.21 -2.1,1.26 -3.37,3.54 -3.37,5.99l0 2.11c0,15.47 21.49,27.73 57.49,32.77 0.32,0.05 0.65,0.07 0.97,0.07z"/>
  </g>
  <g>
   <path class="fil7" d="M1050.24 337.04c9.39,5.24 15.77,15.27 15.77,26.73l0 348.53c0,16.82 -13.76,30.58 -30.58,30.58l-520.7 0c-12.13,0 -22.66,-7.16 -27.6,-17.45 176.03,2.69 560.52,-34.61 563.1,-388.38z"/>
   <path class="fil8" d="M1058.88 447.43c4.25,2.37 7.13,6.91 7.13,12.09l0 254.97c0,13.82 -14.78,28.39 -28.39,28.39l-337.61 0c-5.48,0 -10.25,-3.24 -12.48,-7.89 144.87,-5.31 350.15,-88.91 371.35,-287.55z"/>
  </g>
  <path class="fil8" d="M36.34 310.31c-4.02,-2.24 -6.76,-6.55 -6.76,-11.46l0 -241.68c0,-13.1 14.01,-26.91 26.91,-26.91l320.02 0c5.2,0 9.72,3.07 11.83,7.48 -137.33,5.03 -331.9,84.28 -352,272.57z"/>
 </g>
</svg>
