<?xml version="1.0" encoding="UTF-8"?>
<!DOCTYPE svg PUBLIC "-//W3C//DTD SVG 1.1//EN" "http://www.w3.org/Graphics/SVG/1.1/DTD/svg11.dtd">
<!-- Creator: CorelDRAW 2019 -->
<svg xmlns="http://www.w3.org/2000/svg" xml:space="preserve" width="67.0548mm" height="47.3325mm" version="1.1" style="shape-rendering:geometricPrecision; text-rendering:geometricPrecision; image-rendering:optimizeQuality; fill-rule:evenodd; clip-rule:evenodd"
viewBox="0 0 1642.38 1159.32"
 xmlns:xlink="http://www.w3.org/1999/xlink"
 xmlns:xodm="http://www.corel.com/coreldraw/odm/2003">
 <defs>
  <style type="text/css">
   <![CDATA[
    .fil3 {fill:none}
    .fil0 {fill:white}
    .fil1 {fill:#34DAEA;fill-rule:nonzero}
    .fil5 {fill:white;fill-opacity:0.039216}
    .fil2 {fill:url(#id1);fill-rule:nonzero}
    .fil4 {fill:url(#id2);fill-rule:nonzero}
   ]]>
  </style>
    <clipPath id="id0">
     <path d="M86.37 1159.32l1469.63 0c47.51,0 86.37,-38.87 86.37,-86.37l0 -986.57c0,-47.5 -38.87,-86.37 -86.37,-86.37l-1469.63 0c-47.51,0 -86.37,38.87 -86.37,86.37l0 986.57c0,47.5 38.87,86.37 86.37,86.37z"/>
    </clipPath>
  <linearGradient id="id1" gradientUnits="userSpaceOnUse" x1="-377.79" y1="1985.77" x2="1256.64" y2="1507.4">
   <stop offset="0" style="stop-opacity:1; stop-color:#00D9FF"/>
   <stop offset="0.419608" style="stop-opacity:1; stop-color:#1B75FD"/>
   <stop offset="1" style="stop-opacity:1; stop-color:#B357EF"/>
  </linearGradient>
  <linearGradient id="id2" gradientUnits="userSpaceOnUse" x1="178.25" y1="488.22" x2="1294.4" y2="953.48">
   <stop offset="0" style="stop-opacity:1; stop-color:#00D9FF"/>
   <stop offset="1" style="stop-opacity:1; stop-color:#5A69F7"/>
  </linearGradient>
 </defs>
 <g id="Слой_x0020_1">
  <metadata id="CorelCorpID_0Corel-Layer"/>
  <g id="_999890776">
   <path class="fil0" d="M86.37 1159.32l1469.63 0c47.51,0 86.37,-38.87 86.37,-86.37l0 -986.57c0,-47.5 -38.87,-86.37 -86.37,-86.37l-1469.63 0c-47.51,0 -86.37,38.87 -86.37,86.37l0 986.57c0,47.5 38.87,86.37 86.37,86.37z"/>
   <g style="clip-path:url(#id0)">
    <g>
     <path id="1" class="fil1" d="M1616.47 2895.4c-5.7,108.95 427.04,-668.87 464.31,-750.33 143.64,-313.87 400.71,-1262.58 384.92,-1481.84l-685.18 444.03c-816.54,510.93 -131.56,1170.28 -164.05,1788.14z"/>
     <path class="fil2" d="M898.19 1460.51l-957.4 0c-143.31,0 -259.49,116.18 -259.49,259.49 0,143.32 116.18,259.5 259.49,259.5l957.4 0c143.31,0 259.5,-116.19 259.5,-259.5 0,-143.31 -116.19,-259.49 -259.5,-259.49z"/>
    </g>
   </g>
   <path class="fil3" d="M86.37 1159.32l1469.63 0c47.51,0 86.37,-38.87 86.37,-86.37l0 -986.57c0,-47.5 -38.87,-86.37 -86.37,-86.37l-1469.63 0c-47.51,0 -86.37,38.87 -86.37,86.37l0 986.57c0,47.5 38.87,86.37 86.37,86.37z"/>
   <path class="fil4" d="M1301.86 746.13c-0.24,2.79 -0.51,5.58 -0.83,8.36l0.03 0c-1.5,13.29 -3.92,26.5 -7.25,39.37l50.84 13.17c4.74,-18.3 7.95,-37.17 9.54,-56.08l-0.04 -0c0.14,-1.6 0.28,-3.21 0.39,-4.82l-52.68 0 0 0zm-930.45 -81.65c0,41.92 83.37,63.86 165.72,63.86 38.2,0 76.61,-4.72 106.82,-13.97 0.8,-32.21 6.33,-63.67 16.27,-93.65 -89.48,-35.83 -288.81,-21.25 -288.81,43.76zm272.98 76.66c-30.15,8.3 -66.86,12.73 -107.26,12.73 -60.5,0 -112.72,-9.93 -147.05,-27.93 -3.95,-2.07 -8.72,-1.91 -12.51,0.39 -3.83,2.31 -6.15,6.46 -6.15,10.92l0 3.86c0,41.91 83.37,63.85 165.72,63.85 41.09,0 82.43,-5.46 113.54,-16.14 -3.26,-15.61 -5.37,-31.53 -6.28,-47.67zm-425.94 178.73c0,41.92 83.36,63.86 165.72,63.86 82.35,0 165.71,-21.93 165.71,-63.86 0,-83.82 -331.43,-83.82 -331.43,0zm312.77 61.46c-34.33,18 -86.56,27.93 -147.05,27.93 -60.5,0 -112.72,-9.93 -147.06,-27.93 -3.95,-2.07 -8.72,-1.9 -12.51,0.38 -3.82,2.31 -6.15,6.46 -6.15,10.93l0 3.86c0,41.91 83.36,63.84 165.72,63.84 82.35,0 165.71,-21.93 165.71,-63.84l0 -3.86c0,-4.47 -2.32,-8.61 -6.14,-10.93 -3.81,-2.28 -8.57,-2.46 -12.52,-0.38zm-223.54 -355.16c17.21,0 34.43,-0.97 51.17,-2.91 2.73,-0.31 5.28,-1.49 7.29,-3.37 19.31,-18.21 52.3,-31.64 95.39,-38.84 4.55,-0.76 8.35,-3.93 9.91,-8.3 1.32,-3.67 1.95,-7.09 1.95,-10.43 0,-83.83 -331.43,-83.83 -331.43,0 0,41.92 83.37,63.85 165.72,63.85zm0 76.62c10.55,0 20.85,-0.36 30.82,-1.02 4.02,-0.28 7.67,-2.42 9.86,-5.81 2.17,-3.37 2.64,-7.61 1.24,-11.38 -2.47,-6.67 -3.68,-13.25 -3.62,-20.78 0,-3.5 -1.43,-6.84 -3.95,-9.25 -2.52,-2.4 -6.07,-3.86 -9.4,-3.51 -8.33,0.39 -16.66,0.67 -24.94,0.67 -60.51,0 -112.73,-9.92 -147.06,-27.93 -3.94,-2.07 -8.71,-1.91 -12.51,0.38 -3.82,2.31 -6.15,6.47 -6.15,10.93l0 3.85c0,41.91 83.37,63.85 165.72,63.85zm0 76.62c10.55,0 20.85,-0.36 30.82,-1.03 4.02,-0.27 7.67,-2.42 9.86,-5.81 2.17,-3.38 2.64,-7.61 1.24,-11.38 -2.47,-6.67 -3.68,-13.25 -3.68,-20.78 0,-3.49 -1.44,-6.83 -3.96,-9.24 -2.51,-2.41 -6,-3.77 -9.4,-3.51 -8.3,0.39 -16.6,0.68 -24.88,0.68 -60.51,0 -112.73,-9.93 -147.06,-27.94 -3.94,-2.07 -8.71,-1.91 -12.51,0.39 -3.82,2.3 -6.15,6.46 -6.15,10.92l0 3.85c0,41.91 83.37,63.85 165.72,63.85zm376.51 99.76c-23.99,12.58 -57.74,21.38 -97.59,25.4 -6.72,0.69 -11.51,8.55 -11.23,15.3 0,6.47 -1.04,12.66 -3.18,18.89 -1.42,4.13 -0.63,8.7 2.08,12.12 2.44,3.06 6.11,4.82 9.97,4.82 0.45,0 0.91,-0.03 1.37,-0.08 63.98,-6.91 105.49,-25.2 115.1,-49.94 -5.91,-8.63 -11.38,-17.5 -16.41,-26.56l-0.11 0.06zm-300.03 -48.68l8.45 0.15c0.07,0 0.15,0 0.22,0 5.95,0 11.12,-4.12 12.44,-9.95 1.33,-5.92 -1.66,-11.93 -7.16,-14.44l-2.72 -1.22c-1.82,-0.8 -3.65,-1.59 -5.34,-2.48 -3.97,-2.08 -8.68,-1.9 -12.5,0.41 -3.81,2.31 -6.14,6.45 -6.14,10.91l0 3.86c0,7.06 5.7,12.77 12.75,12.77zm272.84 -16.55c-32.27,10.76 -73.65,16.55 -119.87,16.55l-8.41 -0.16c-5.14,-0.43 -11.29,4.09 -12.6,9.99 -1.32,5.89 1.66,11.91 7.15,14.4 13.81,6.28 25.08,13.75 33.51,22.2 2.4,2.4 5.64,3.73 9.01,3.73 0.26,0 0.53,-0.01 0.81,-0.03 37.58,-2.39 78.95,-10.09 106.13,-24.47 -6.23,-13.7 -11.49,-27.8 -15.74,-42.21zm-408.43 38.13c1.6,0 3.19,-0.3 4.7,-0.9 22.46,-8.89 49.85,-15.01 81.42,-18.2 6.71,-0.67 11.52,-9.18 11.24,-15.94 0,-3.49 -1.44,-6.83 -3.96,-9.24 -2.51,-2.41 -6,-3.69 -9.4,-3.52 -8.3,0.4 -16.6,0.68 -24.88,0.68 -60.51,0 -112.73,-9.93 -147.06,-27.93 -3.94,-2.07 -8.71,-1.91 -12.51,0.39 -3.82,2.3 -6.15,6.46 -6.15,10.92l0 3.85c0,28.22 39.19,50.57 104.84,59.76 0.58,0.09 1.18,0.12 1.76,0.12zm1005.9 28.95l43.52 29.4c10.62,-15.72 19.95,-32.44 27.75,-49.68l-47.86 -21.62c-6.57,14.55 -14.45,28.64 -23.41,41.91zm-66.12 69.19l31.34 42.14c15.19,-11.29 29.52,-23.96 42.61,-37.66l-37.96 -36.29c-11.06,11.57 -23.17,22.27 -35.99,31.81zm-85.23 43.29l15.5 50.18c18.08,-5.59 35.83,-12.77 52.73,-21.36l-23.79 -46.82c-14.25,7.24 -29.2,13.29 -44.44,18zm201.08 -546.72l0 97.25c-24.69,-39.41 -57.39,-73.38 -96.42,-99.86 -55.72,-37.8 -120.9,-57.78 -188.48,-57.78 -89.78,0 -174.18,34.96 -237.67,98.44 -63.48,63.48 -98.44,147.88 -98.44,237.66 0,89.77 34.96,174.18 98.44,237.66 63.49,63.48 147.89,98.44 237.67,98.44 14.62,0 29.33,-0.95 43.73,-2.82l-6.77 -52.08c-12.16,1.58 -24.59,2.39 -36.96,2.39 -156.37,0 -283.59,-127.22 -283.59,-283.59 0,-156.38 127.22,-283.59 283.59,-283.59 101.5,0 193.61,53.53 244.16,139.17l-90.54 0 0 52.52 183.81 0 0 -183.81 -52.52 0zm-309.85 39.38l52.52 0 0 262.59 -199.56 0 0 -52.52 147.05 0 0 -210.07z"/>
   <path class="fil5" d="M54.67 466.82c-6.05,-3.37 -10.17,-9.86 -10.17,-17.24l0 -363.58c0,-19.7 21.07,-40.49 40.49,-40.49l481.42 0c7.82,0 14.62,4.61 17.8,11.25 -206.58,7.57 -499.3,126.79 -529.54,410.05z"/>
  </g>
 </g>
</svg>
