<?xml version="1.0" encoding="UTF-8"?>
<!DOCTYPE svg PUBLIC "-//W3C//DTD SVG 1.1//EN" "http://www.w3.org/Graphics/SVG/1.1/DTD/svg11.dtd">
<!-- Creator: CorelDRAW 2019 (64-Bit) -->
<svg xmlns="http://www.w3.org/2000/svg" xml:space="preserve" width="100%" height="100%" version="1.1" style="shape-rendering:geometricPrecision; text-rendering:geometricPrecision; image-rendering:optimizeQuality; fill-rule:evenodd; clip-rule:evenodd"
viewBox="0 0 33163.92 6417.72"
 xmlns:xlink="http://www.w3.org/1999/xlink">
 <defs>
  <style type="text/css">
   <![CDATA[
    .fil27 {fill:none;fill-rule:nonzero}
    .fil28 {fill:black}
    .fil29 {fill:white}
    .fil22 {fill:#1A2243;fill-rule:nonzero}
    .fil24 {fill:#1A2245;fill-rule:nonzero}
    .fil10 {fill:#1C2546;fill-rule:nonzero}
    .fil8 {fill:#23274B;fill-rule:nonzero}
    .fil3 {fill:#263138;fill-rule:nonzero}
    .fil9 {fill:#2D335D;fill-rule:nonzero}
    .fil25 {fill:#37467C;fill-rule:nonzero}
    .fil20 {fill:#64B4D8;fill-rule:nonzero}
    .fil0 {fill:#8DC8FA;fill-rule:nonzero}
    .fil2 {fill:#925EF2;fill-rule:nonzero}
    .fil18 {fill:#DD0505;fill-rule:nonzero}
    .fil15 {fill:#F7DDE3;fill-rule:nonzero}
    .fil6 {fill:#F9F9F9;fill-rule:nonzero}
    .fil14 {fill:#FEACB6;fill-rule:nonzero}
    .fil26 {fill:#FFA283;fill-rule:nonzero}
    .fil21 {fill:#FFC2A4;fill-rule:nonzero}
    .fil16 {fill:#FFFEFF;fill-rule:nonzero}
    .fil1 {fill:white;fill-rule:nonzero}
    .fil5 {fill:black;fill-rule:nonzero;fill-opacity:0.301961}
    .fil4 {fill:#263138;fill-rule:nonzero;fill-opacity:0.301961}
    .fil23 {fill:url(#id1)}
    .fil13 {fill:url(#id2)}
    .fil11 {fill:url(#id3)}
    .fil12 {fill:url(#id4)}
    .fil17 {fill:url(#id5)}
    .fil7 {fill:url(#id6)}
    .fil19 {fill:url(#id7)}
    .fnt2 {font-weight:normal;font-size:721.51px;font-family:'Montserrat'}
    .fnt3 {font-weight:normal;font-size:821.97px;font-family:'Montserrat'}
    .fnt1 {font-weight:800;font-size:1278.89px;font-family:'Marvin Visions Bold'}
    .fnt0 {font-weight:normal;font-size:1589.98px;font-family:'Montserrat'}
    .fnt5 {font-weight:800;font-size:3258.53px;font-family:'Marvin Visions Bold'}
    .fnt4 {font-weight:800;font-size:7224.31px;font-family:'Marvin Visions Bold'}
   ]]>
  </style>
   <clipPath id="id0" style="clip-rule:nonzero">
    <path d="M-0 0l33163.92 0 0 6417.72 -33163.92 0 0 -6417.72z"/>
   </clipPath>
  <linearGradient id="id1" gradientUnits="userSpaceOnUse" x1="9330.03" y1="1265.24" x2="10948.97" y2="1265.24">
   <stop offset="0" style="stop-opacity:1; stop-color:#1A2246"/>
   <stop offset="0.0117647" style="stop-opacity:1; stop-color:#1A2246"/>
   <stop offset="1" style="stop-opacity:1; stop-color:#23173B"/>
  </linearGradient>
  <linearGradient id="id2" gradientUnits="userSpaceOnUse" x1="7217.86" y1="6409.57" x2="7996.2" y2="6409.57">
   <stop offset="0" style="stop-opacity:1; stop-color:#FF0821"/>
   <stop offset="0" style="stop-opacity:1; stop-color:#FF0821"/>
   <stop offset="0.988235" style="stop-opacity:1; stop-color:#FF3F11"/>
   <stop offset="1" style="stop-opacity:1; stop-color:#FF3F11"/>
  </linearGradient>
  <linearGradient id="id3" gradientUnits="userSpaceOnUse" x1="4544.28" y1="5178.77" x2="8292.22" y2="5178.77">
   <stop offset="0" style="stop-opacity:1; stop-color:#9CD1F0"/>
   <stop offset="0" style="stop-opacity:1; stop-color:#9CD1F0"/>
   <stop offset="0.988235" style="stop-opacity:1; stop-color:#85C3FF"/>
   <stop offset="1" style="stop-opacity:1; stop-color:#85C3FF"/>
  </linearGradient>
  <linearGradient id="id4" gradientUnits="userSpaceOnUse" x1="4870.14" y1="3610.3" x2="7996.25" y2="3610.3">
   <stop offset="0" style="stop-opacity:1; stop-color:#39467D"/>
   <stop offset="0.988235" style="stop-opacity:1; stop-color:#294F94"/>
   <stop offset="1" style="stop-opacity:1; stop-color:#294F94"/>
  </linearGradient>
  <linearGradient id="id5" gradientUnits="userSpaceOnUse" xlink:href="#id2" x1="8993.61" y1="2482.41" x2="9251.16" y2="4439.82">
  </linearGradient>
  <linearGradient id="id6" gradientUnits="userSpaceOnUse" xlink:href="#id4" x1="5878.04" y1="10461.31" x2="6844.34" y2="1212.35">
  </linearGradient>
  <linearGradient id="id7" gradientUnits="userSpaceOnUse" xlink:href="#id3" x1="9383.65" y1="4934.94" x2="10454.1" y2="10061.76">
  </linearGradient>
 </defs>
 <g id="Слой_x0020_1">
  <metadata id="CorelCorpID_0Corel-Layer"/>
  <polygon class="fil0" points="-0,0 33163.92,0 33163.92,6417.72 -0,6417.72 "/>
  <g style="clip-path:url(#id0)">
   <g id="_1505288321216">
    <polygon id="1" class="fil1" points="22377.93,-8201.85 22387.77,-8261.19 22327.82,-8254.86 22315.84,-8267.53 22389.69,-8274.99 22400.58,-8344.64 22412.55,-8331.97 22403.59,-8276.15 22459.82,-8281.97 22471.5,-8269.62 22401.35,-8262.66 22390.05,-8189.02 "/>
    <polygon class="fil1" points="22457.8,-8117.36 22467.64,-8176.7 22407.69,-8170.36 22395.72,-8183.03 22469.57,-8190.5 22480.45,-8260.15 22492.43,-8247.48 22483.47,-8191.66 22539.7,-8197.47 22551.38,-8185.13 22481.23,-8178.17 22469.93,-8104.53 "/>
    <polygon class="fil1" points="22537.7,-8032.85 22547.54,-8092.19 22487.59,-8085.85 22475.61,-8098.52 22549.47,-8105.99 22560.35,-8175.63 22572.33,-8162.97 22563.36,-8107.15 22619.6,-8112.96 22631.27,-8100.62 22561.13,-8093.66 22549.83,-8020.02 "/>
    <polygon class="fil1" points="22617.58,-7948.36 22627.42,-8007.7 22567.47,-8001.36 22555.49,-8014.03 22629.35,-8021.5 22640.23,-8091.15 22652.2,-8078.48 22643.24,-8022.66 22699.47,-8028.47 22711.15,-8016.12 22641.01,-8009.17 22629.71,-7935.53 "/>
    <polygon class="fil1" points="22976.1,-7791.04 22865.33,-7686.3 22854.56,-7697.69 22955.21,-7792.85 22930.52,-7818.97 22940.64,-7828.55 "/>
    <path class="fil1" d="M22991.37 -7616.69c-18.51,17.5 -45.47,17.52 -70.75,-9.23 -15.12,-15.99 -24.09,-36.58 -23.47,-53.35l14.27 -2.99c-0.72,14.17 6.02,32.06 19.65,46.47 17.35,18.35 35.47,20.4 49.24,7.39 13.29,-12.57 13.15,-30.14 -6.3,-50.72l-7.47 -7.91 8.39 -7.93 67.48 -5.65 -53.57 -56.67 10.13 -9.57 67.33 71.22 -8.07 7.63 -69.03 5.92c21.18,24.95 19.9,48.63 2.17,65.39z"/>
    <polygon class="fil1" points="23092.81,-7504.02 23071.86,-7526.18 23042.74,-7498.65 23031.97,-7510.03 23061.09,-7537.57 23002,-7600.08 23010.22,-7607.86 23139.16,-7618.57 23151.14,-7605.9 23026.05,-7594.92 23071.53,-7546.82 23097.16,-7571.06 23107.62,-7559.98 23081.99,-7535.75 23102.94,-7513.59 "/>
    <path class="fil1" d="M23154.6 -7400.61l-10.13 9.58 -73.46 -77.71 8.07 -7.62 88.65 3.41c24.17,0.84 33.84,-3.84 41.44,-11.02 12.81,-12.11 12.21,-28.6 -3.8,-45.54 -12.28,-12.98 -25.66,-19.21 -40.91,-18.55l-0.69 -14.67c18.21,-1.03 36.93,7.36 52.94,24.29 21.25,22.48 23.31,47.48 4.79,64.99 -10.6,10.02 -23.24,15.68 -51.86,14.57l-72.64 -2.66 57.6 60.93z"/>
    <path class="fil1" d="M21478.35 -8342.47l-44.8 42.35 -21.45 -22.68 41.32 -39.07c12.65,-11.96 13.09,-23.15 4.44,-32.3 -9.64,-10.2 -22.92,-11.14 -36.89,2.07l-39.28 37.13 -21.45 -22.69 41.32 -39.06c12.65,-11.97 13.38,-22.85 4.45,-32.31 -9.5,-10.03 -22.78,-10.97 -36.75,2.23l-39.27 37.14 -21.47 -22.71 78.27 -74 20.49 21.68 -9.01 8.52c12.19,-0.49 23.93,4.93 33.43,14.97 10.31,10.91 14.89,24.21 11.54,37.85 13.9,-1.3 28.34,4.34 39.49,16.13 17.61,18.63 19.49,42.18 -4.38,64.75z"/>
    <path class="fil1" d="M21452.8 -8294.33l23.45 -7.83c2.07,11.23 9.06,24.75 18.15,34.36 9.9,10.47 16.37,11.78 20.75,7.65 12.8,-12.11 -45,-47.01 -13.73,-76.58 14.85,-14.03 37.98,-10.55 59.58,12.3 10.18,10.77 18.97,25.04 21.63,36.59l-23.31 7.7c-2.92,-11.85 -8.75,-20.94 -15.49,-28.06 -9.62,-10.18 -16.97,-11.53 -21.03,-7.68 -13.39,12.66 44.26,47.7 13.42,76.86 -14.55,13.75 -37.67,10 -59.82,-13.44 -12.52,-13.24 -21.53,-30.06 -23.6,-41.87z"/>
    <path class="fil1" d="M22356.54 -7419.65c33.6,-31.77 70.27,-31.17 93.94,-6.13 23.79,25.16 22.2,61.66 -11.41,93.43 -33.6,31.77 -70.13,31.31 -93.92,6.14 -23.66,-25.03 -22.22,-61.67 11.39,-93.44zm60.11 63.58l0 0c23.13,-21.87 25.04,-39.09 13.9,-50.87 -11,-11.64 -28.32,-10.72 -51.45,11.16 -23.13,21.86 -25.02,39.1 -14.02,50.74 11.13,11.78 28.44,10.83 51.57,-11.03z"/>
    <path class="fil1" d="M22510.58 -7219.11c-20.8,19.67 -49.98,15.01 -70.35,-6.52 -26.54,-28.08 -25.45,-62.18 7.43,-93.27 35.2,-33.27 74.94,-30.6 103.95,0.09 10.18,10.77 17.62,23.59 19.84,34.98l-25.56 7.65c-1.59,-9.27 -6.46,-17.05 -12.93,-23.89 -16.09,-17.03 -36.44,-18.44 -56.63,-0.73 11.61,0.32 22.78,6.01 32.81,16.62 18.58,19.66 20.64,46.91 1.44,65.07zm-22.76 -21.76l0 0c9.31,-8.8 8.8,-21.27 -1.1,-31.74 -9.75,-10.33 -23.04,-11.57 -31.92,-3.17 -8.73,8.25 -8.93,20.86 1.79,32.19 9.49,10.04 21.91,11.53 31.23,2.72z"/>
    <polygon class="fil1" points="22645.82,-7257.05 22664.93,-7236.83 22482.49,-7155.27 22463.37,-7175.49 "/>
    <path class="fil1" d="M22632.84 -7063.87l-19.21 18.16 -72.76 -76.96 15.27 -14.44 74.25 4.21c17.1,0.9 23.87,-2.44 28.81,-7.11 8,-7.57 7.42,-17.52 -2.76,-28.28 -8.25,-8.73 -18.61,-12.97 -30.13,-11.47l-5.17 -27.62c18.92,-3.01 39.83,4.25 57.15,22.57 21.46,22.71 24.13,48.83 5.64,66.3 -9.88,9.35 -21.52,15.11 -48.24,13.38l-44.25 -2.53 41.4 43.79z"/>
    <polygon class="fil1" points="22730.93,-6964.47 22715.26,-6981.05 22693.88,-6960.83 22672.15,-6983.81 22693.54,-7004.02 22641.68,-7058.88 22657.54,-7073.87 22767.52,-7086.92 22790.9,-7062.19 22687.56,-7048.82 22713.42,-7021.47 22732.48,-7039.49 22753.52,-7017.23 22734.46,-6999.21 22750.14,-6982.63 "/>
    <path class="fil2" d="M24875.34 -7924.04l0 2662.49c0,145.69 -118.11,263.8 -263.8,263.8l-3867.86 0c-145.69,0 -263.8,-118.11 -263.8,-263.8l0 -2662.49c0,-145.69 118.11,-263.79 263.8,-263.79l3867.86 0c145.69,0 263.8,118.1 263.8,263.79z"/>
    <path class="fil3" d="M24875.34 -7924.04c0,0 -0.3,-3.21 -0.69,-9.55 -0.59,-6.33 -0.31,-15.89 -2.73,-28.23 -3.47,-24.63 -12.46,-61.9 -38.7,-103.34 -13.34,-20.39 -30.69,-41.9 -53.95,-61.17 -23.29,-19.07 -52.12,-36.15 -86.08,-47.22 -8.42,-2.93 -17.39,-4.66 -26.31,-7.11 -9.06,-1.87 -18.46,-2.92 -27.92,-4.47 -9.59,-0.45 -19.34,-0.92 -29.27,-1.39 -9.98,0.01 -20.13,0.03 -30.45,0.04 -41.27,0.06 -85.22,0.11 -131.76,0.18 -372.47,0.3 -911.3,0.72 -1577.1,1.25 -332.92,0.15 -697.59,0.31 -1089.06,0.48 -195.74,0.07 -398.19,0.13 -606.72,0.2 -104.26,0.03 -210.05,0.06 -317.28,0.09 -26.8,0 -53.7,0.01 -80.69,0.02 -27.06,0.29 -53.99,-0.96 -80.3,4.53 -26.27,5.11 -51.96,13.82 -75.8,26.49 -23.61,13.06 -45.32,29.58 -64.25,49.02 -19.17,19.26 -34.38,42.29 -46.42,66.71 -11.97,24.47 -20.38,50.94 -23.65,78.22 -3.66,27.09 -2.47,55.13 -2.65,83.16 0.01,28.02 0.02,56.11 0.02,84.29 0.02,112.7 0.04,226.69 0.06,341.89 0.03,230.41 0.07,465.67 0.1,705.17 0.02,478.99 0.05,974.93 0.08,1482.88 0.09,62.67 23.36,124.62 64.51,171.33 40.71,47.03 98.78,78.51 160.16,86.22 30.47,3.96 62.03,2.31 93.26,2.67 31.26,0 62.46,0 93.61,0 62.3,0 124.38,0.01 186.24,0.01 247.42,0.02 491.22,0.04 730.78,0.06 479.11,0.08 941.24,0.16 1381.48,0.23 440.23,0.13 858.57,0.25 1250.08,0.36 48.94,0.02 97.46,0.04 145.55,0.06 24.16,0.2 47.7,-0.32 70.92,-4.71 22.96,-4.89 45.69,-11.5 66.39,-22.37 10.77,-4.58 20.24,-11.49 30.3,-17.27 9.13,-7.15 19.06,-13.3 27.28,-21.48 17.7,-14.94 32.13,-33.15 45.11,-51.93 24.83,-38.42 40.04,-82.74 42.04,-127.68 1.62,-181.34 0.59,-356.02 1.03,-522.39 0.52,-665.8 0.95,-1204.59 1.24,-1577.01 0.33,-186.12 0.57,-330.66 0.74,-428.75 0.18,-48.95 0.31,-86.3 0.39,-111.5 0.14,-25.12 0.41,-37.99 0.41,-37.99 0,0 0.27,12.87 0.4,37.99 0.09,25.2 0.22,62.55 0.39,111.5 0.17,98.09 0.42,242.63 0.74,428.75 0.3,372.42 0.72,911.21 1.25,1577.01 -0.26,166.53 0.96,340.7 -0.52,522.73 -2.01,45.99 -17.53,91.39 -42.93,130.75 -13.26,19.23 -28.03,37.88 -46.14,53.19 -8.42,8.38 -18.56,14.71 -27.92,22.02 -10.28,5.95 -20,13 -31.02,17.72 -21.19,11.14 -44.47,17.95 -67.99,22.96 -23.68,4.53 -48.22,5.07 -72.11,4.88 -48.09,0.02 -96.61,0.04 -145.55,0.05 -391.51,0.12 -809.85,0.24 -1250.08,0.37 -440.24,0.07 -902.37,0.15 -1381.48,0.23 -239.56,0.02 -483.36,0.04 -730.78,0.06 -61.86,0 -123.94,0 -186.24,0 -31.15,0.01 -62.35,0.01 -93.61,0.01 -31.21,-0.38 -62.54,1.34 -94.32,-2.73 -63.25,-7.96 -123.09,-40.39 -165.02,-88.83 -42.4,-48.1 -66.4,-111.99 -66.47,-176.52 0.03,-507.95 0.06,-1003.89 0.08,-1482.88 0.04,-239.5 0.07,-474.76 0.1,-705.17 0.02,-115.2 0.04,-229.19 0.06,-341.89 0.01,-28.18 0.01,-56.27 0.02,-84.29 0.2,-27.92 -1.03,-56 2.75,-84.15 3.38,-28.04 12.03,-55.26 24.35,-80.42 12.38,-25.1 28.05,-48.76 47.75,-68.56 19.45,-19.97 41.78,-36.94 66.06,-50.34 24.51,-13.02 50.92,-21.96 77.92,-27.19l20.4 -3.11 20.56 -1.13c13.72,-0.76 27.11,-0.21 40.64,-0.37 26.99,0.01 53.89,0.01 80.69,0.02 107.23,0.02 213.02,0.05 317.28,0.08 208.53,0.07 410.98,0.14 606.72,0.2 391.47,0.17 756.14,0.34 1089.06,0.48 665.8,0.53 1204.63,0.96 1577.1,1.25 46.54,0.07 90.49,0.13 131.76,0.18 10.32,0.02 20.47,0.03 30.45,0.05 10.02,0.51 19.86,1.01 29.53,1.5 9.56,1.59 19.04,2.68 28.17,4.6 9,2.5 18.04,4.28 26.53,7.26 34.22,11.29 63.22,28.62 86.61,47.94 23.35,19.51 40.72,41.24 54.03,61.82 26.18,41.84 34.94,79.35 38.16,104.09 2.3,12.4 1.88,21.99 2.34,28.32 0.25,6.36 0.28,9.57 0.28,9.57z"/>
    <path class="fil4" d="M24721.35 -7991.15c0,-2.17 20.31,-3.94 45.37,-3.94 25.07,0 45.38,1.77 45.38,3.94 0,2.18 -20.31,3.94 -45.38,3.94 -25.06,0 -45.37,-1.76 -45.37,-3.94z"/>
    <path class="fil4" d="M24351.16 -7991.15c0,-2.17 41.44,-3.94 92.54,-3.94 51.12,0 92.55,1.77 92.55,3.94 0,2.18 -41.43,3.94 -92.55,3.94 -51.1,0 -92.54,-1.76 -92.54,-3.94z"/>
    <path class="fil4" d="M23980.96 -7991.15c0,-2.17 41.44,-3.94 92.55,-3.94 51.12,0 92.55,1.77 92.55,3.94 0,2.18 -41.43,3.94 -92.55,3.94 -51.11,0 -92.55,-1.76 -92.55,-3.94z"/>
    <path class="fil4" d="M23610.77 -7991.15c0,-2.17 41.44,-3.94 92.54,-3.94 51.13,0 92.56,1.77 92.56,3.94 0,2.18 -41.43,3.94 -92.56,3.94 -51.1,0 -92.54,-1.76 -92.54,-3.94z"/>
    <path class="fil4" d="M23240.58 -7991.15c0,-2.17 41.44,-3.94 92.54,-3.94 51.12,0 92.56,1.77 92.56,3.94 0,2.18 -41.44,3.94 -92.56,3.94 -51.1,0 -92.54,-1.76 -92.54,-3.94z"/>
    <path class="fil4" d="M22870.39 -7991.15c0,-2.17 41.44,-3.94 92.54,-3.94 51.12,0 92.55,1.77 92.55,3.94 0,2.18 -41.43,3.94 -92.55,3.94 -51.1,0 -92.54,-1.76 -92.54,-3.94z"/>
    <path class="fil4" d="M22500.2 -7991.15c0,-2.17 41.44,-3.94 92.54,-3.94 51.13,0 92.56,1.77 92.56,3.94 0,2.18 -41.43,3.94 -92.56,3.94 -51.1,0 -92.54,-1.76 -92.54,-3.94z"/>
    <path class="fil4" d="M22130 -7991.15c0,-2.17 41.45,-3.94 92.55,-3.94 51.12,0 92.55,1.77 92.55,3.94 0,2.18 -41.43,3.94 -92.55,3.94 -51.1,0 -92.55,-1.76 -92.55,-3.94z"/>
    <path class="fil4" d="M21759.81 -7991.15c0,-2.17 41.44,-3.94 92.55,-3.94 51.12,0 92.55,1.77 92.55,3.94 0,2.18 -41.43,3.94 -92.55,3.94 -51.11,0 -92.55,-1.76 -92.55,-3.94z"/>
    <path class="fil4" d="M21389.62 -7991.15c0,-2.17 41.44,-3.94 92.54,-3.94 51.13,0 92.56,1.77 92.56,3.94 0,2.18 -41.43,3.94 -92.56,3.94 -51.1,0 -92.54,-1.76 -92.54,-3.94z"/>
    <path class="fil4" d="M21019.43 -7991.15c0,-2.17 41.44,-3.94 92.54,-3.94 51.13,0 92.56,1.77 92.56,3.94 0,2.18 -41.43,3.94 -92.56,3.94 -51.1,0 -92.54,-1.76 -92.54,-3.94z"/>
    <path class="fil4" d="M20743.58 -7900.4c-2.17,0 -3.94,-40.63 -3.94,-90.74 7.87,-7.88 2.21,-2.19 3.97,-3.95l0.04 0 0.07 0 0.15 0 0.29 0 0.59 0 1.17 0 2.33 0.01 4.61 0.02c3.03,0.01 6.03,0.03 9.01,0.06 5.79,0.07 11.45,0.15 17.04,0.22 9.93,0.3 19.51,0.57 28.84,0.85 16.42,0.71 26.58,1.7 26.58,2.78 0,1.09 -10.16,2.08 -26.58,2.79 -9.33,0.27 -18.91,0.55 -28.84,0.84 -5.59,0.08 -11.25,0.15 -17.04,0.23 -2.98,0.02 -5.98,0.04 -9.01,0.06l-4.61 0.02 -2.33 0 -1.17 0 -0.59 0 -0.29 0 -0.15 0 -0.07 0 -0.04 0c1.75,-1.75 -3.96,3.92 3.91,-3.93 0,50.11 -1.76,90.74 -3.94,90.74z"/>
    <path class="fil4" d="M20743.58 -7561.17c-2.17,0 -3.94,-37.97 -3.94,-84.8 0,-46.85 1.77,-84.82 3.94,-84.82 2.18,0 3.94,37.97 3.94,84.82 0,46.83 -1.76,84.8 -3.94,84.8z"/>
    <path class="fil4" d="M20743.58 -7221.94c-2.17,0 -3.94,-37.97 -3.94,-84.8 0,-46.85 1.77,-84.81 3.94,-84.81 2.18,0 3.94,37.96 3.94,84.81 0,46.83 -1.76,84.8 -3.94,84.8z"/>
    <path class="fil4" d="M20743.58 -6882.7c-2.17,0 -3.94,-37.97 -3.94,-84.81 0,-46.84 1.77,-84.81 3.94,-84.81 2.18,0 3.94,37.97 3.94,84.81 0,46.84 -1.76,84.81 -3.94,84.81z"/>
    <path class="fil4" d="M20743.58 -6543.47c-2.17,0 -3.94,-37.97 -3.94,-84.8 0,-46.85 1.77,-84.81 3.94,-84.81 2.18,0 3.94,37.96 3.94,84.81 0,46.83 -1.76,84.8 -3.94,84.8z"/>
    <path class="fil4" d="M20743.58 -6204.23c-2.17,0 -3.94,-37.98 -3.94,-84.81 0,-46.85 1.77,-84.81 3.94,-84.81 2.18,0 3.94,37.96 3.94,84.81 0,46.83 -1.76,84.81 -3.94,84.81z"/>
    <path class="fil4" d="M20743.58 -5865c-2.17,0 -3.94,-37.97 -3.94,-84.8 0,-46.85 1.77,-84.82 3.94,-84.82 2.18,0 3.94,37.97 3.94,84.82 0,46.83 -1.76,84.8 -3.94,84.8z"/>
    <path class="fil4" d="M20743.58 -5525.77c-2.17,0 -3.94,-37.97 -3.94,-84.8 0,-46.85 1.77,-84.82 3.94,-84.82 2.18,0 3.94,37.97 3.94,84.82 0,46.83 -1.76,84.8 -3.94,84.8z"/>
    <path class="fil4" d="M20834.33 -5265.4c0,2.17 -40.63,3.94 -90.74,3.94 -7.88,-7.88 -2.19,-2.21 -3.95,-3.98l0 -0.03 0 -0.07 0 -0.15 0 -0.29 0 -0.59 0 -1.17 0.01 -2.33 0.01 -4.61c0.02,-3.03 0.04,-6.04 0.06,-9.01 0.08,-5.79 0.15,-11.45 0.23,-17.04 0.29,-9.92 0.57,-19.51 0.85,-28.85 0.71,-16.42 1.69,-26.57 2.78,-26.57 1.09,0 2.07,10.15 2.79,26.57 0.27,9.34 0.55,18.93 0.84,28.85 0.07,5.59 0.15,11.25 0.23,17.04 0.02,2.97 0.04,5.98 0.06,9.01l0.01 4.61 0.01 2.33 0 1.17 0 0.59 0 0.29 0 0.15 0 0.07 0 0.03c-1.75,-1.74 3.93,3.97 -3.93,-3.9 50.11,0 90.74,1.76 90.74,3.94z"/>
    <path class="fil4" d="M21199.16 -5265.4c0,2.17 -40.84,3.94 -91.2,3.94 -50.38,0 -91.21,-1.77 -91.21,-3.94 0,-2.18 40.83,-3.94 91.21,-3.94 50.36,0 91.2,1.76 91.2,3.94z"/>
    <path class="fil4" d="M21564 -5265.4c0,2.17 -40.84,3.94 -91.21,3.94 -50.38,0 -91.21,-1.77 -91.21,-3.94 0,-2.18 40.83,-3.94 91.21,-3.94 50.37,0 91.21,1.76 91.21,3.94z"/>
    <path class="fil4" d="M21928.83 -5265.4c0,2.17 -40.84,3.94 -91.21,3.94 -50.38,0 -91.21,-1.77 -91.21,-3.94 0,-2.18 40.83,-3.94 91.21,-3.94 50.37,0 91.21,1.76 91.21,3.94z"/>
    <path class="fil4" d="M22293.66 -5265.4c0,2.17 -40.84,3.94 -91.2,3.94 -50.38,0 -91.21,-1.77 -91.21,-3.94 0,-2.18 40.83,-3.94 91.21,-3.94 50.36,0 91.2,1.76 91.2,3.94z"/>
    <path class="fil4" d="M22658.49 -5265.4c0,2.17 -40.84,3.94 -91.2,3.94 -50.38,0 -91.21,-1.77 -91.21,-3.94 0,-2.18 40.83,-3.94 91.21,-3.94 50.36,0 91.2,1.76 91.2,3.94z"/>
    <path class="fil4" d="M23023.32 -5265.4c0,2.17 -40.84,3.94 -91.2,3.94 -50.39,0 -91.22,-1.77 -91.22,-3.94 0,-2.18 40.83,-3.94 91.22,-3.94 50.36,0 91.2,1.76 91.2,3.94z"/>
    <path class="fil4" d="M23388.15 -5265.4c0,2.17 -40.83,3.94 -91.2,3.94 -50.38,0 -91.21,-1.77 -91.21,-3.94 0,-2.18 40.83,-3.94 91.21,-3.94 50.37,0 91.2,1.76 91.2,3.94z"/>
    <path class="fil4" d="M23752.98 -5265.4c0,2.17 -40.83,3.94 -91.2,3.94 -50.38,0 -91.21,-1.77 -91.21,-3.94 0,-2.18 40.83,-3.94 91.21,-3.94 50.37,0 91.2,1.76 91.2,3.94z"/>
    <path class="fil4" d="M24117.82 -5265.4c0,2.17 -40.84,3.94 -91.21,3.94 -50.38,0 -91.21,-1.77 -91.21,-3.94 0,-2.18 40.83,-3.94 91.21,-3.94 50.37,0 91.21,1.76 91.21,3.94z"/>
    <path class="fil4" d="M24482.65 -5265.4c0,2.17 -40.84,3.94 -91.21,3.94 -50.38,0 -91.21,-1.77 -91.21,-3.94 0,-2.18 40.83,-3.94 91.21,-3.94 50.37,0 91.21,1.76 91.21,3.94z"/>
    <path class="fil4" d="M24755.82 -5265.4c0,2.17 -20.32,3.94 -45.38,3.94 -25.06,0 -45.38,-1.77 -45.38,-3.94 0,-2.18 20.32,-3.94 45.38,-3.94 25.06,0 45.38,1.76 45.38,3.94z"/>
    <path class="fil5" d="M21996.58 -6418.53c0,0 0.96,151.27 -44.78,242.73 -45.73,91.47 -61.1,126.65 -157.2,161.83 -96.1,35.18 -1314.72,168.87 -1314.72,168.87l0 -411.61 1516.7 -161.82z"/>
    <path class="fil5" d="M21974.74 -6988.74c0,0 13.91,-154.32 -373.48,-211.65 -443.08,-65.58 -1121.38,-146.07 -1121.38,-146.07l0 292.06 1494.86 65.66z"/>
    <path class="fil2" d="M20520.11 -6131.82l1259.96 0c119.57,0 216.51,-96.93 216.51,-216.51l0 -563.98c0,-119.57 -96.94,-216.5 -216.51,-216.5l-1259.96 0c-119.57,0 -216.5,96.93 -216.5,216.5l0 563.98c0,119.58 96.93,216.51 216.5,216.51z"/>
    <path class="fil3" d="M20520.11 -6131.82c0,0 -4.37,0.05 -12.94,-0.25 -8.55,-0.07 -21.31,-1.48 -37.62,-5.11 -16.41,-3.36 -36.06,-10.63 -57.54,-22.38 -21.33,-11.96 -44.1,-29.74 -63.77,-54.92 -19.36,-25.1 -36.64,-57.45 -43.01,-95.95 -3.94,-19.11 -3.48,-39.63 -3.67,-60.41 -0.05,-20.92 -0.1,-42.64 -0.16,-65.13 -0.17,-90.04 -0.37,-192.51 -0.58,-305.76 0.07,-56.68 -0.54,-115.89 0.11,-177.9 1.64,-62.47 32.2,-127.42 86.87,-167.87 26.92,-20.31 58.98,-35.31 93.52,-41.06 17.11,-3.18 35.08,-3.81 52.4,-3.67 17.48,-0.02 35.09,-0.03 52.83,-0.05 70.95,-0.05 143.98,-0.1 218.86,-0.16 299.57,-0.1 628.88,-0.2 974.54,-0.31 22,0.44 43.87,3.46 64.87,9.7 20.83,6.72 40.62,16.2 58.78,28.16 17.87,12.42 33.86,27.24 47.66,43.83 13.6,16.79 24.35,35.62 32.77,55.3 8.2,19.85 12.84,40.85 15.37,61.95 1.54,21.39 0.96,42.02 1.07,62.78 -0.01,41.45 -0.02,82.56 -0.03,123.32 -0.04,81.51 -0.07,161.58 -0.1,239.99 -0.02,39.21 -0.04,78 -0.06,116.36 -0.34,19.27 0.69,38.02 -0.76,57.41 -0.04,9.67 -2.33,19.09 -3.55,28.57 -2.34,9.27 -4.19,18.71 -7.53,27.62 -24.03,72.72 -87.32,127.43 -157.63,143.29 -8.65,2.64 -17.72,3.07 -26.5,4.69 -8.88,0.75 -17.86,1.11 -26.64,1.38 -17.48,-0.02 -34.83,-0.04 -52.04,-0.05 -34.42,-0.03 -68.29,-0.07 -101.6,-0.1 -133.19,-0.18 -257.28,-0.34 -370.58,-0.49 -226.42,-0.52 -409.68,-0.95 -536.59,-1.24 -63.19,-0.33 -112.31,-0.57 -145.88,-0.75 -16.53,-0.17 -29.18,-0.3 -37.94,-0.39 -8.55,-0.13 -12.93,-0.4 -12.93,-0.4 0,0 4.38,-0.27 12.93,-0.4 8.76,-0.09 21.41,-0.22 37.94,-0.39 33.57,-0.17 82.68,-0.42 145.88,-0.74 126.91,-0.3 310.17,-0.72 536.59,-1.25 113.3,-0.15 237.39,-0.31 370.58,-0.49 33.31,-0.03 67.18,-0.07 101.6,-0.1 34.42,-0.85 69.72,2.84 103.58,-6.02 68.05,-15.46 129.23,-68.54 152.36,-138.88 13.11,-34.89 11.29,-72.88 11.31,-111.27 -0.02,-38.36 -0.04,-77.15 -0.07,-116.36 -0.03,-78.41 -0.06,-158.48 -0.09,-239.99 -0.01,-40.76 -0.03,-81.87 -0.03,-123.32 -0.11,-20.69 0.42,-41.71 -1.07,-62.03 -2.46,-20.34 -6.93,-40.59 -14.84,-59.73 -8.13,-18.97 -18.49,-37.12 -31.62,-53.32 -13.33,-16 -28.75,-30.29 -45.97,-42.26 -17.53,-11.53 -36.6,-20.66 -56.68,-27.15 -20.25,-6 -41.33,-8.91 -62.56,-9.35 -345.66,-0.11 -674.97,-0.22 -974.54,-0.31 -74.88,-0.06 -147.91,-0.12 -218.86,-0.17 -17.74,-0.02 -35.35,-0.03 -52.83,-0.05 -17.59,-0.16 -34.46,0.42 -51.22,3.47 -33.49,5.5 -64.59,19.99 -90.76,39.64 -53.15,39.14 -82.97,102.11 -84.73,162.85 -0.81,61.62 -0.37,121.12 -0.62,177.71 -0.22,113.25 -0.41,215.72 -0.58,305.76 -0.06,22.49 -0.11,44.21 -0.16,65.13 0.07,20.94 -0.48,40.95 3.28,59.75 6.03,37.88 22.82,69.83 41.73,94.73 19.2,24.97 41.53,42.73 62.51,54.77 21.13,11.83 40.52,19.29 56.75,22.87 16.13,3.85 28.79,5.52 37.31,5.85 8.51,0.56 12.88,1.05 12.88,1.05z"/>
    <path class="fil3" d="M21124.12 -6592.79c0,200.18 162.27,362.46 362.46,362.46 200.18,0 362.46,-162.28 362.46,-362.46 0,-200.19 -162.28,-362.47 -362.46,-362.47 -200.19,0 -362.46,162.28 -362.46,362.47z"/>
    <path class="fil6" d="M21579.51 -6296.72c-0.91,-1.98 37.31,-9.66 86.42,-45.28 24.42,-17.6 50.65,-42.76 73.2,-75.56 22.56,-32.66 40.63,-73.47 48.16,-118.67 6.86,-45.32 2.33,-89.73 -9,-127.78 -11.26,-38.18 -28.41,-70.24 -46.17,-94.54 -35.64,-49.09 -69.6,-68.24 -68.12,-69.83 0.15,-0.23 2.2,0.94 5.97,3.38 3.66,2.59 9.52,5.85 16.07,11.36 13.63,10.31 31.94,27.36 50.56,51.79 18.67,24.33 36.73,56.79 48.64,95.76 11.98,38.83 16.9,84.44 9.83,131.1 -7.74,46.54 -26.56,88.36 -49.98,121.56 -23.4,33.35 -50.63,58.62 -75.93,75.96 -25.27,17.44 -47.97,27.98 -64.13,33.56 -7.93,3.21 -14.51,4.49 -18.8,5.81 -4.34,1.16 -6.65,1.64 -6.72,1.38z"/>
    <path class="fil7" d="M8978.71 9867.99l-5120.91 0c-35.2,0 -63.77,-28.4 -63.77,-63.28l0 -9025.7c0,-35.01 28.57,-63.36 63.77,-63.36l5120.91 0c35.1,0 63.69,28.35 63.69,63.36l0 9025.7c0,34.88 -28.59,63.28 -63.69,63.28zm-4849.62 -8496.86c-35.37,0 -63.77,28.4 -63.77,63.25l0 7658.18c0,34.92 28.4,63.32 63.77,63.32l4578.35 0c35.17,0 63.67,-28.4 63.67,-63.32l0 -7658.18c0,-34.85 -28.5,-63.25 -63.67,-63.25l-4578.35 0z"/>
    <path class="fil8" d="M8771.11 1434.38l0 7658.18c0,34.92 -28.5,63.32 -63.67,63.32l-4578.35 0c-35.37,0 -63.77,-28.4 -63.77,-63.32l0 -7658.18c0,-34.85 28.4,-63.25 63.77,-63.25l4578.35 0c35.17,0 63.67,28.4 63.67,63.25z"/>
    <path class="fil9" d="M8771.11 8810.2l-4705.79 -5998.98 0 -1376.84c0,-34.85 28.4,-63.25 63.77,-63.25l4578.35 0c35.17,0 63.67,28.4 63.67,63.25l0 7375.82z"/>
    <path class="fil10" d="M6689.29 9504.15c0,148.43 -121.49,268.95 -271.12,268.95 -149.81,0 -271.2,-120.52 -271.2,-268.95 0,-148.68 121.39,-269.1 271.2,-269.1 149.63,0 271.12,120.42 271.12,269.1z"/>
    <path class="fil10" d="M6471.27 911.8c0,29.28 -23.72,52.66 -53.1,52.66 -29.29,0 -53.08,-23.38 -53.08,-52.66 0,-29.22 23.79,-52.67 53.08,-52.67 29.38,0 53.1,23.45 53.1,52.67z"/>
    <path class="fil10" d="M7058.86 1158.83l-1281.64 0c-8.76,0 -15.81,-7.12 -15.81,-15.89 0,-8.62 7.05,-15.81 15.81,-15.81l1281.64 0c8.84,0 16.16,7.19 16.16,15.81 0,8.77 -7.32,15.89 -16.16,15.89z"/>
    <polygon class="fil11" points="4544.28,7730.2 8292.25,7730.2 8292.25,2627.44 4544.28,2627.44 "/>
    <polygon class="fil12" points="4870.14,4233.7 7996.2,4233.7 7996.2,2986.85 4870.14,2986.85 "/>
    <polygon class="fil13" points="7217.86,7290.7 7996.2,7290.7 7996.2,5528.27 7217.86,5528.27 "/>
    <polygon class="fil14" points="4870.14,5290.33 5622.76,5290.33 5622.76,4537.73 4870.14,4537.73 "/>
    <polygon class="fil14" points="6038.62,5290.33 6791.26,5290.33 6791.26,4537.73 6038.62,4537.73 "/>
    <polygon class="fil14" points="4870.14,6290.53 5622.76,6290.53 5622.76,5537.83 4870.14,5537.83 "/>
    <polygon class="fil14" points="6038.62,6290.53 6791.26,6290.53 6791.26,5537.83 6038.62,5537.83 "/>
    <polygon class="fil14" points="4870.14,7290.7 5622.76,7290.7 5622.76,6538.17 4870.14,6538.17 "/>
    <polygon class="fil14" points="6038.62,7290.7 6791.26,7290.7 6791.26,6538.17 6038.62,6538.17 "/>
    <polygon class="fil14" points="7207.1,5290.33 7959.69,5290.33 7959.69,4537.73 7207.1,4537.73 "/>
    <path class="fil15" d="M5067.29 4035.15c-14.16,0 -25.62,-11.48 -25.62,-25.72l0 -851.84c0,-14.23 11.46,-25.81 25.62,-25.81 14.26,0 25.81,11.58 25.81,25.81l0 851.84c0,14.24 -11.55,25.72 -25.81,25.72z"/>
    <polygon class="fil16" points="6285.13,3855.36 6283.58,3855.53 6286.61,3855.53 "/>
    <polygon class="fil16" points="6284.51,3855.53 6284.17,3855.63 6286.19,3855.53 "/>
    <polygon class="fil16" points="6285.13,3872.58 6284.34,3872.58 6285.99,3872.58 "/>
    <path class="fil17" d="M10998.34 3566.7l-4.96 12.42 -19.11 -83.51 -146.78 -636.92c0,0 4.7,1.28 12.86,4.78 36.77,16.23 142.34,79.93 185.7,282.57 46.85,220.36 -9.22,372.88 -27.71,420.66zm558.13 -408.59c-65.01,-425 -534.51,-1198.36 -716.71,-1453.49 -7.22,-10.08 -15.47,-20.08 -23.72,-29.71 -197.01,-228.8 -652.94,-264.35 -1116.78,-100.55 -51.36,18.43 -99.34,37.99 -144,59.61 -373.39,178.41 -515.02,466.55 -630.69,864.18 -129.64,445.59 -482,700.63 -850.17,797.7 -368.71,97.32 -988,-125.47 -1186.65,-283.46 0,0 -177.6,202.47 -179.69,413.1 0,0 406.67,340.01 734.61,493.84 325.51,152.74 1163.95,253.21 1791.69,-355.86l10 -12.51 -0.79 4.09 -85.77 488.27 -0.17 0.18 -103.5 588.52c0,0 47.37,3.75 127.74,9.04 206.81,13.48 630.94,37.2 1030.32,31.38 249.12,-3.74 473.32,-14.6 644.24,-25.54 209.25,-13.57 339.6,-26.95 339.6,-26.95 0,0 -40.42,-417.18 -85,-587.14 0,0 510.07,-449.43 445.44,-874.7z"/>
    <path class="fil18" d="M10948.97 2298.73c-9.28,24.24 -224.71,109.29 -479.82,115.55 -255.14,5.84 -586.11,-100.35 -586.11,-100.35 18.42,-103.23 -81.86,-513.13 -81.86,-513.13 -41.38,-106.7 -164.31,-151.8 -245.92,-166.83 44.66,-21.62 92.64,-41.18 144,-59.61 463.84,-163.8 919.77,-128.25 1116.78,100.55 82.02,248.68 139.63,606.88 132.93,623.82z"/>
    <path class="fil19" d="M11561.84 10349.02c-101.49,44.61 -264.5,66.14 -356.8,75.2l-18.76 1.63c-31.53,2.95 -50.92,4.18 -50.92,4.18 0,0 -233.14,-661.19 -433,-1308.46l-0.17 -0.61c-104.54,-339.77 -199.69,-675.55 -247.13,-909.73 -124.34,-614.24 -321.08,-1538.99 -358.34,-1712.35l0 -0.27c-3.85,-18.59 -6.01,-28.4 -6.01,-28.4 0,0 -14.34,40.77 -38.23,124.34l-1.21 4.54c-8.18,29.01 -17.29,63 -27.29,101.82l-5.91 22.25c-19.39,76.03 -41.88,169.44 -65.87,281.29 -25.29,117.3 -52.39,254.84 -80.13,413.2 -113.47,647.86 -558.81,3012.38 -558.81,3012.38 -111.76,-22.34 -285.46,-44.68 -382.07,-56.33l-18.18 -2.17c-32.76,-3.96 -53.25,-5.96 -53.25,-5.96 0,0 -113.5,-1692.67 -56.65,-2931.59 51.26,-1119.46 318.98,-2496.08 370.24,-2751.12 2.95,-15.02 5.05,-25.98 6.45,-33l2.07 -8.8c206.81,13.48 630.94,37.2 1030.32,31.38 83.85,-1.23 164.76,-3.13 241.66,-5.91 151.98,-5.05 289.18,-12.34 402.58,-19.63 32.84,39.36 59.96,84.63 82.54,134.07 129.05,281.37 108.56,703.75 115.23,1025.2 8.18,380.58 186.31,1911.27 242.97,2348.58 56.82,437.36 264.67,2194.27 264.67,2194.27z"/>
    <path class="fil20" d="M10938.97 4780.97c-648.23,148.92 -1568.1,-51.8 -1765.62,-98.11 2.95,-15.02 5.05,-25.98 6.45,-33l2.07 -8.8c206.81,13.48 630.94,37.2 1030.32,31.38 83.85,-1.23 164.76,-3.13 241.66,-5.91 151.98,-5.05 289.18,-12.34 402.58,-19.63 32.84,39.36 59.96,84.63 82.54,134.07z"/>
    <path class="fil20" d="M10702.19 9120.96c-104.54,-339.77 -199.69,-675.55 -247.13,-909.73 -124.34,-614.24 -321.08,-1538.99 -358.34,-1712.35l0 -0.27c3.81,-14.41 145.62,-554.19 172.05,-716.71l81.85 -333.75c0,0 0,6.15 0.25,17.9 1.3,117.99 11.47,790.31 57.54,1409.11 38.13,510.12 189.59,1558 293.78,2245.8z"/>
    <path class="fil18" d="M11018.31 3626.14l-19.97 -59.44c18.49,-47.78 74.56,-200.3 27.71,-420.66 -43.36,-202.64 -148.93,-266.34 -185.7,-282.57l-53.6 -250.44c0,0 320.11,194.89 338.27,502.07 18.35,307.43 -106.71,511.04 -106.71,511.04z"/>
    <path class="fil21" d="M9652.34 1281.52c9.01,60.74 88.1,273.21 88.1,273.21l-19.21 9.04 -172.22 82.1 0 -191.24c0,0 -151.98,66.65 -334.04,-54.83 -87.31,-58.06 -122.24,-138.53 -134.93,-207.52l-2.88 -20.08c-8.25,-65.94 2.61,-117.22 4.09,-121.46 3.23,-9.04 -127.22,-142.69 -127.22,-142.69l224.37 -185.35c9.31,-27.1 25.12,-60.13 43.52,-94.27l8.79 -15.91c49.37,-88.97 111.22,-178.83 116.61,-184.47 -2.68,9.19 -17.19,47.62 -17.19,59 0,99.14 31.97,311.78 85.4,405.71 63.69,112.54 175.89,170.05 175.89,170.05 60.92,-78.89 157.96,-3.05 149.02,97.15 -9.14,100.37 -88.1,121.56 -88.1,121.56z"/>
    <path class="fil21" d="M6887.75 3012.39c0,0 -56.66,54.75 -97.05,149.81 -40.5,95.05 -70.99,199.42 -70.99,199.42 -50.6,-7.98 -151.56,-134.59 -179.96,-215.58 -18.52,-52.74 -11.13,-83.08 -3.92,-97.84 4.09,-8.08 7.91,-11.57 7.91,-11.57l-6.26 -16.24c-19.38,-57.09 7.47,-79.16 20.5,-86.28l6.08 -2.71c-3.65,-9.04 -5.81,-17.37 -5.99,-24.58 -1.57,-34.93 30.42,-49.98 51.78,-55.97 10.96,-3.12 18.97,-3.91 18.97,-3.91 0,0 -43.8,-25.99 -72.57,-61.26 -12.51,-14.95 -22.24,-31.53 -24.61,-48.48 -8.25,-56.82 32.42,-89.24 125.33,0 93.23,88.9 230.78,275.19 230.78,275.19z"/>
    <path class="fil22" d="M9345.6 10430.11c5.37,-74.19 -200.92,-79.86 -487.14,-84.37 -286.32,-4.7 -431.87,39.78 -436.06,104.61 -3.99,64.93 334.13,54.49 570.82,44.59 215.15,-9.04 348.36,-8.11 352.38,-64.83z"/>
    <path class="fil22" d="M11112.77 10366.06c-150.77,43.01 -260.94,80.33 -256.95,138.88 4.09,58.82 255.13,42.66 425.26,0 170.06,-42.52 305.26,-83.06 304.57,-114.81 -0.44,-17.54 -23.54,-81.38 -23.54,-81.38 0,0 -357.75,31.43 -449.34,57.31z"/>
    <path class="fil23" d="M10599.82 1381.62c-118.43,-315.85 -388.66,-904.75 -495.12,-1044.48 -106.19,-139.81 -341.4,-176.46 -544.22,-112.52 0,0 -183.8,45.37 -230.45,262.43 0.1,99.14 32.07,311.78 85.42,405.71 63.77,112.44 176.14,170.05 176.14,170.05 60.75,-78.89 157.89,-3.05 148.85,97.15 -9.21,100.28 -88.1,121.56 -88.1,121.56 9.01,60.74 239.02,837.94 230.77,1032.41 0,0 992.95,33.45 1065.86,-15.02 0,0 -230.8,-601.41 -349.15,-917.29z"/>
    <path class="fil24" d="M6724.83 2948.52l-5.12 -1.48c-39.63,-27.64 -158.95,-143.01 -164.07,-147.99l-0.18 -12.93 12.96 -0.17c1.21,1.3 123.31,119.56 161.71,146.16l2.26 12.52 -7.56 3.89z"/>
    <path class="fil24" d="M6665.57 3023.77l-7.56 3.47 -5.4 -1.72c-32.07,-23.99 -68.47,-61.88 -94.63,-91.41l6.08 -2.71c-3.65,-9.04 -5.81,-17.37 -5.99,-24.58 25.89,29.53 69,76.9 105.5,104.19l2 12.76z"/>
    <path class="fil24" d="M6650.71 3151.26l-7.31 3.99 -5.47 -1.92c-33.38,-24.58 -72.47,-67.69 -102.1,-105.13 4.09,-8.08 7.91,-11.57 7.91,-11.57l-6.26 -16.24c27.71,37.2 71.34,88.97 111.21,118.36l2.02 12.51z"/>
    <path class="fil24" d="M6707.96 3434.53l-0.59 0 -8.45 -9.63c0.44,-7.32 13.92,-178.51 181.53,-417.71l12.62 -2.19 2.34 12.68c-164.42,234.62 -178.14,406.6 -178.41,408.42l-9.04 8.43z"/>
    <path class="fil24" d="M10899.78 3181.24l-8.94 -7.05c-33.62,-146.23 -153.01,-700.89 -154.24,-706.46l6.95 -10.86 10.86 7.12c1.23,5.49 120.52,560.05 154.24,706.04l-6.94 11.04 -1.93 0.17z"/>
    <path class="fil24" d="M11025.87 3155.15l-8.86 -7.63c-34.32,-204.99 -188.39,-278.93 -190.11,-279.45l-4.26 -12.27 11.99 -4.43c6.6,3.13 164.57,78.38 200.28,293.09l-7.46 10.45 -1.58 0.24z"/>
    <path class="fil24" d="M11131.45 4137.07l-9.02 -7.63c-25.22,-159.03 -146.51,-587.42 -147.74,-591.68l6.26 -11.28 11.13 6.33c1.21,4.26 123.03,433.69 148.33,593.74l-7.49 10.35 -1.47 0.17z"/>
    <path class="fil24" d="M9338.63 5033.64l-0.35 0c46.68,-208.95 79.51,-340.53 87.25,-371.03 98.38,4.71 214.37,9.32 336.19,12.96 -81.77,236.71 -356.1,336.69 -423.09,358.07zm1105.74 -375.8c-186.29,9.48 -431.01,6.77 -657.96,0.44l-18.87 -0.62c-334.8,-10 -626.95,-28.57 -632.15,-28.77l-9.48 8.63 8.52 9.63c1.21,0 17.29,1.06 45.37,2.71 46.83,2.78 126.95,7.19 226.88,11.97l0.18 0c-9.56,37.98 -42.76,172.94 -89.42,381.84l0 0.34 -0.19 1.06c-72.54,325.31 -176.47,829.92 -272.16,1427.75 -203.06,1269.62 -207.94,2136.07 -200.45,2449.23 10.76,463.84 51.7,1220.26 68.37,1449.48l18.18 2.17c-16.6,-223.83 -57.61,-985.54 -68.57,-1451.99 -7.22,-312.82 -2.51,-1177.86 200.55,-2446.03 94.81,-594.19 198.38,-1096.28 270.85,-1421.69 22.51,-6.68 112.44,-35.27 207.35,-95.03 95.23,-59.83 195.85,-151.21 239.57,-282.7 122.93,3.57 251.29,6.08 372.6,6.08 104.78,0 204.64,-1.82 291.79,-6.35l8.52 -9.46 0 -0.27 -9.48 -8.42z"/>
    <path class="fil24" d="M11204.18 10421.34c-121.21,-253.04 -467.58,-1378.86 -622.76,-2254.05 -147.64,-832.65 -341.52,-2136.33 -349.67,-2191.51 3.3,-13.89 6.5,-27.29 9.46,-39.98 71.95,-306.29 109.07,-484.33 109.31,-486.1l0 -1.55c56.24,-13.65 115.15,-20.08 157.89,-4.19l11.82 -5.35 -5.46 -11.82c-117.74,-43.45 -335,62.61 -344.11,67.15l-4.19 12.16 8.11 5.15 4.06 -0.96c1.23,-0.61 71.78,-34.93 152.52,-57.1 -7.31,34.93 -43.45,205.61 -107.76,478.55 -3.13,12.93 -6.26,26.85 -9.83,41.33 -61.16,252.94 -185.43,712.38 -239.99,914.85 -19.04,70.57 -27.56,101.83 -28.32,105.74l6.94 10.86 1.92 0.1 8.85 -7.21c0.96,-3.55 12.26,-45.89 28.08,-104.64 51.7,-191.17 165,-610.6 229.15,-870.34 36.13,242.35 208.97,1390.09 343.31,2147.86 145.99,823.1 487.32,1972.91 624.34,2258.68l8.18 5.4 3.89 -0.96 4.26 -12.07z"/>
    <path class="fil24" d="M11025.87 5153.3l-9.04 -8.3c-23.45,-303.29 -166.14,-490.81 -167.61,-492.56l1.57 -12.86 12.86 1.58c1.48,2 147.72,193.34 171.53,502.34l-8.52 9.8 -0.79 0z"/>
    <path class="fil24" d="M9549.01 1223.83l-2.79 -0.52 -5.81 -11.38c19.19,-61.18 104.78,-97.51 117.91,-97.51l9.21 9.13 -8.77 9.22c-9.82,1.3 -84.56,32.41 -100.99,84.53l-8.76 6.53z"/>
    <path class="fil24" d="M9347.15 808.22l-9.04 8.5 -0.44 0 -8.85 -9.46c7.39,-123.41 -78.2,-167.62 -106.9,-178.83l8.79 -15.91c34.49,14.26 124.17,63.94 116.44,195.7z"/>
    <path class="fil24" d="M9192.21 798.66c0,-21.82 17.74,-39.46 39.54,-39.46 21.82,0 39.46,17.64 39.46,39.46 0,21.63 -17.64,39.54 -39.46,39.54 -21.8,0 -39.54,-17.91 -39.54,-39.54z"/>
    <path class="fil24" d="M9220.27 1176.64c-26.5,18.59 -55.42,24.68 -82.02,24.68 -21.63,0 -42.05,-4.09 -58.21,-9.04l-2.88 -20.08c32.07,10.62 87.25,21.14 132.69,-10.59l12.61 2.27 -2.19 12.76z"/>
    <path class="fil25" d="M10325.5 1155.01l-8.95 -7.05c-28.49,-118.18 -109.58,-309.69 -148.5,-401.62l-12.96 -30.69 4.88 -11.97 11.9 5.03 13.03 30.42c38.94,92.64 120.45,284.94 149.39,404.5l-6.7 11.11 -2.09 0.27z"/>
    <path class="fil25" d="M9860.01 1596.36l-9.12 -7.04c-24.33,-101.86 -20.34,-274.7 -16.08,-291.89l10.93 -6.6 6.8 11.11c-3.22,12.68 -8.62,179.96 16.06,283.11l-6.67 10.94 -1.92 0.37z"/>
    <path class="fil25" d="M9576.47 697.43l-8.52 -5.74c-28.77,-73.6 -27.98,-235.41 -27.89,-242.28l8.95 -9.11 9.11 9.21c0,1.55 -0.59,165.1 26.77,235.58l-5.05 11.79 -3.37 0.55z"/>
    <path class="fil25" d="M9896.24 527.37l-8.77 -7.05c-39.19,-171.95 -150.08,-240.52 -151.12,-241.21l-3.05 -12.44 12.34 -3.21c4.95,2.86 118.63,72.91 159.54,252.78l-6.77 10.78 -2.17 0.35z"/>
    <path class="fil25" d="M9936.83 1132.77l-8.45 -5.57c-28.5,-67.07 -59.95,-255.31 -61.16,-263.29l7.39 -10.52 10.5 7.57c0.27,1.92 32.41,193.95 60.05,259.02l-4.95 12 -3.38 0.79z"/>
    <path class="fil25" d="M10325.5 1705.65l-9.22 -8.77c-3.72,-90.1 -79.06,-233.48 -79.85,-234.96l3.74 -12.41 12.34 3.81c3.2,6.09 78.11,148.58 82.03,242.7l-8.7 9.63 -0.34 0z"/>
    <path class="fil25" d="M10706.1 2070l-8.42 -5.29c-20.17,-44.59 -78.82,-243.73 -81.26,-252.26l6.18 -11.47 11.11 6.35c0.79,1.92 60.84,206.37 80.75,249.91l-4.71 12 -3.65 0.76z"/>
    <path class="fil25" d="M10086.62 1964.78l-9.22 -9.22c0,-31.62 -14.33,-119.56 -23.79,-177.69 -5.74,-35.27 -8.52,-52.49 -8.52,-57l9.04 -9.13 9.04 9.13c0.17,3.65 4.16,28.06 8.35,53.87 9.63,58.82 24.14,147.82 24.14,180.82l-9.04 9.22z"/>
    <path class="fil18" d="M9539.18 3115.72c-4.51,19.9 -140.95,601.04 -381.38,927.6l85.77 -488.27 0.17 -0.34c0,0 228.44,-303.52 295.44,-438.99z"/>
    <path class="fil24" d="M8654.6 3939.75l-8.45 -6.09 5.5 -11.47c4.33,-1.56 436.64,-156.86 716.95,-541.71 279.99,-384.15 295.8,-586.55 295.88,-588.37l9.65 -8.6 8.6 9.56c-0.59,8.25 -15.64,208.9 -299.42,598.18 -283.81,389.55 -721.14,546.4 -725.58,547.96l-3.13 0.54z"/>
    <path class="fil26" d="M9161.2 1022.32c0,-51.53 41.78,-93.41 93.31,-93.41 51.63,0 93.33,41.88 93.33,93.41 0,51.7 -41.7,93.4 -93.33,93.4 -51.53,0 -93.31,-41.7 -93.31,-93.4z"/>
    <path class="fil26" d="M9645.19 1322.11c0,0 -1.38,192.37 -96.18,257.03l0 -124.51c0,0 79.95,-57.71 96.18,-132.52z"/>
   </g>
  </g>
  <polygon class="fil27" points="-0,0 33163.92,0 33163.92,6417.72 -0,6417.72 "/>
  <text x="17354.56" y="2178.03"  class="fil28 fnt0">НЕ ЗНАЕШЬ ГДЕ</text>
  <text x="17354.56" y="3656.09"  class="fil28 fnt1">ВЫГОДНЕЕ ЗАЙМЫ</text>
  <text x="17414.4" y="4761.9"  class="fil28 fnt2">сравни все доступные предложения</text>
  <text x="17414.4" y="5724.44"  class="fil28 fnt3">БАНКОВ по десятку параметров</text>
  <g transform="matrix(0.933421 0 0 1 -4379.2 -2128.3)">
   <text x="17678.15" y="7866.04"  class="fil29 fnt4">?</text>
  </g>
  <g transform="matrix(0.933421 0 0 1 -15491.9 -3934.94)">
   <text x="17678.15" y="7866.04"  class="fil29 fnt5">?</text>
  </g>
 </g>
</svg>
